<?xml version="1.0" encoding="UTF-8"?>
<svg id="Capa_2" xmlns="http://www.w3.org/2000/svg" viewBox="0 0 189.07 56.75">
  <defs>
    <style>
      .cls-1 {
        fill: #fff;
      }

      .cls-2 {
        fill: #d10e49;
      }

      .cls-3 {
        fill: #1f448f;
      }

      .cls-4 {
        fill: #1d4082;
      }

      .cls-5 {
        fill: #cd1429;
      }

      .cls-6 {
        fill: #e2232c;
      }

      .cls-7 {
        fill: #fbd01a;
      }

      .cls-8 {
        fill: #d22f1f;
      }
    </style>
  </defs>
  <g id="Capa_1-2" data-name="Capa_1">
    <rect class="cls-2" x="80.75" y="12.67" width="7.1" height="3.59"/>
    <path class="cls-2" d="M23.63,1.14H0s0,27.25,0,27.25h23.79c3.51-.44,10.14-3.7,10.14-12.97,0-12.9-10.2-14.27-10.3-14.28M23.44,24.72H3.66V4.79h19.62c.86.14,6.98,1.43,6.98,10.63,0,7.84-5.77,9.13-6.83,9.3"/>
    <rect class="cls-2" x="36.3" y="1.33" width="3.67" height="27.17"/>
    <path class="cls-2" d="M60.7,8c-8.28.13-14.22-4.78-14.27-4.83l-3.02-2.57v27.89h3.66V8.01c2.91,1.67,7.72,3.73,13.68,3.66,5.67-.08,10-1.94,12.68-3.53v20.36h3.66V.29l-3.1,2.95s-4.97,4.65-13.3,4.76"/>
    <polygon class="cls-2" points="189.07 15.97 189.07 12.55 165.05 12.55 165.05 4.77 188.97 4.77 188.97 1.11 161.39 1.11 161.39 28.61 188.97 28.61 188.97 24.95 165.05 24.95 165.05 15.97 189.07 15.97"/>
    <path class="cls-2" d="M154.04.95v18.63c-2.52-2.76-6.15-6.52-9.65-9.33-4.26-3.43-12.89-7.89-13.26-8.07l-2.67-1.37v27.69h3.67V6.86c2.88,1.58,7.39,4.17,9.97,6.24,5.81,4.68,12.31,12.43,12.37,12.51l3.24,3.88V.95h-3.66Z"/>
    <path class="cls-2" d="M110.76,10.4V.15C110.09.06,109.4,0,108.7,0s-1.38.05-2.05.15v10.24c-1.23.71-2.05,2.03-2.05,3.55,0,2.27,1.84,4.11,4.11,4.11s4.11-1.84,4.11-4.11c0-1.52-.83-2.85-2.05-3.55h0Z"/>
    <path class="cls-2" d="M115.34.16c-.36-.06-1.02-.1-1.78-.14v3.67c.59.03,1,.05,1.16.08.3.05,7.42,1.37,7.41,11.09,0,8.37-7.2,10.1-7.27,10.11-.76.11-2.96.18-5.89.18-.52,0-.85,0-.85,0h-.05s-.65.01-1.53.01h0c-1.97,0-3.47-.07-4.13-.18-.07-.01-7.15-1.65-7.15-10.51,0-8.15,5.53-10.26,7.29-10.72.16-.02.59-.05,1.28-.08V0c-1.11.04-1.83.1-2.15.19-1.68.43-10.09,3.15-10.09,14.28,0,10.11,7.35,13.62,10.18,14.12.89.16,2.49.24,4.76.24h0c.82,0,1.44-.01,1.57-.01.09,0,.4,0,.85,0,2.26,0,5.2-.04,6.42-.22,2.2-.32,10.39-3.6,10.4-13.73,0-10.2-6.57-14.04-10.46-14.71"/>
    <polyline class="cls-8" points="67.87 56.75 35 56.75 35 46.34 67.87 46.34"/>
    <rect class="cls-3" x="35" y="35.92" width="10.95" height="10.42"/>
    <rect class="cls-1" x="45.96" y="35.92" width="21.91" height="10.42"/>
    <polygon class="cls-1" points="37.85 40.33 39.86 40.33 40.48 38.52 41.1 40.32 43.06 40.32 41.47 41.43 42.09 43.24 40.47 42.13 38.86 43.24 39.48 41.45 37.85 40.33"/>
    <rect class="cls-7" x="121.2" y="35.94" width="32.86" height="10.42"/>
    <rect class="cls-4" x="121.2" y="46.36" width="32.86" height="5.19"/>
    <rect class="cls-5" x="121.2" y="51.55" width="32.86" height="5.2"/>
    <rect class="cls-6" x="78.13" y="35.98" width="10.94" height="20.77"/>
    <rect class="cls-6" x="100.01" y="35.98" width="10.94" height="20.77"/>
    <rect class="cls-1" x="89.06" y="35.98" width="10.94" height="20.77"/>
  </g>
</svg>