<?xml version="1.0" encoding="UTF-8"?>
<svg id="Capa_2" xmlns="http://www.w3.org/2000/svg" xmlns:xlink="http://www.w3.org/1999/xlink" viewBox="0 0 289.36 119.26">
  <defs>
    <style>
      .cls-1 {
        fill: #fff;
      }

      .cls-2 {
        stroke-width: .13px;
      }

      .cls-2, .cls-3, .cls-4, .cls-5 {
        fill: none;
      }

      .cls-2, .cls-4, .cls-5 {
        stroke: #b32020;
        stroke-miterlimit: 10;
      }

      .cls-4 {
        stroke-width: .13px;
      }

      .cls-6 {
        clip-path: url(#clippath-1);
      }

      .cls-7 {
        fill: #d7d5d6;
      }

      .cls-8 {
        fill: #1f448f;
      }

      .cls-9 {
        clip-path: url(#clippath-3);
      }

      .cls-10 {
        fill: #1d4082;
      }

      .cls-11 {
        fill: #d00e4c;
      }

      .cls-5 {
        stroke-width: .07px;
      }

      .cls-12 {
        fill: #cd1429;
      }

      .cls-13 {
        fill: #e2232c;
      }

      .cls-14 {
        clip-path: url(#clippath-2);
      }

      .cls-15 {
        fill: #fbd01a;
      }

      .cls-16 {
        opacity: .57;
      }

      .cls-17 {
        fill: #d22f1f;
      }

      .cls-18 {
        clip-path: url(#clippath);
      }
    </style>
    <clipPath id="clippath">
      <rect class="cls-3" x="58.8" y="88.5" width="25.51" height="20.49"/>
    </clipPath>
    <clipPath id="clippath-1">
      <rect class="cls-3" x="261.76" y="45.05" width="20.49" height="25.5"/>
    </clipPath>
    <clipPath id="clippath-2">
      <rect class="cls-3" x="6.03" y="35.24" width="20.49" height="25.51"/>
    </clipPath>
    <clipPath id="clippath-3">
      <rect class="cls-3" x="56.78" y="6.62" width="25.5" height="20.49"/>
    </clipPath>
  </defs>
  <g id="Capa_1-2" data-name="Capa_1">
    <rect class="cls-11" x="6.07" y="6.26" width="276.17" height="102.73"/>
    <g class="cls-16">
      <g class="cls-18">
        <path class="cls-7" d="M76.56,88.51h-17.76s0,20.49,0,20.49h17.88c2.64-.33,7.62-2.78,7.62-9.75,0-9.7-7.66-10.73-7.74-10.74M76.41,106.24h-14.86v-14.98h14.75c.65.1,5.25,1.07,5.25,7.99,0,5.89-4.34,6.87-5.13,6.99"/>
      </g>
    </g>
    <g class="cls-16">
      <g class="cls-6">
        <path class="cls-7" d="M282.24,62.81v-17.76s-20.48,0-20.48,0v17.88c.33,2.64,2.78,7.62,9.75,7.62,9.7,0,10.72-7.66,10.73-7.74M264.51,62.67v-14.86h14.98v14.75c-.1.65-1.08,5.25-7.99,5.25-5.9,0-6.87-4.34-6.99-5.14"/>
      </g>
    </g>
    <g class="cls-16">
      <g class="cls-14">
        <path class="cls-7" d="M6.03,42.98v17.76s20.48,0,20.48,0v-17.88c-.33-2.64-2.78-7.62-9.75-7.62-9.7,0-10.72,7.66-10.73,7.74M23.76,43.13v14.86h-14.99v-14.75c.1-.65,1.08-5.25,7.99-5.25,5.9,0,6.87,4.34,7,5.13"/>
      </g>
    </g>
    <g class="cls-16">
      <g class="cls-9">
        <path class="cls-7" d="M74.54,6.63h-17.76s0,20.48,0,20.48h17.88c2.64-.33,7.62-2.78,7.62-9.75,0-9.7-7.66-10.73-7.74-10.74M74.39,24.36h-14.86v-14.98h14.75c.65.1,5.25,1.08,5.25,7.99,0,5.89-4.34,6.87-5.13,6.99"/>
      </g>
    </g>
    <rect class="cls-5" x="110.74" y="42.7" width="8.52" height="8.52"/>
    <line class="cls-2" x1="6.11" x2="6.11" y2="119.26"/>
    <line class="cls-2" x1="282.25" x2="282.25" y2="119.26"/>
    <line class="cls-4" y1="108.99" x2="289.36" y2="108.99"/>
    <line class="cls-4" y1="6.26" x2="287.1" y2="6.26"/>
    <polygon class="cls-1" points="26.69 50.61 26.69 40.48 69.24 72.84 110.74 41.24 110.74 50.54 69.11 88.35 26.69 50.61"/>
    <path class="cls-1" d="M44.98,43.94l-6.82-4.23s9-3.52,16.49-4.95c7.49-1.42,10.21-1.51,14.48-1.34,4.27.17,12.47,1.8,17.87,4.44,5.4,2.64,6.53,5.4,6.86,6.92.33,1.51.25,4.99-.96,6.08l-1.21,1.09s.88-1.97-.38-4.44c-1.25-2.47-3.98-4.86-8.91-6.54-4.94-1.67-9.35-2.64-14.67-2.55-5.33.08-10.18,1.26-13.91,2.35-3.72,1.09-8.83,3.18-8.83,3.18"/>
    <path class="cls-1" d="M55.78,42.42v8.38l12.26,8.09s2.68-2.1,4.56-3.65c1.88-1.55,2.69-2.49,2.9-2.95v-9.25s.22,1.45-3.02,3.28c-3.24,1.82-4.26,2.42-4.26,2.42l-12.43-6.32Z"/>
    <path class="cls-1" d="M69.14,73.41L26.64,40.44l42.39-13.37.11.04,41.61,14.15-41.62,32.15ZM28.2,40.72l40.94,31.76,40.08-30.97-40.2-13.67-40.82,12.87Z"/>
    <path class="cls-1" d="M75.96,64.46l-.22-.14-38.38-24.69.67-.26c.09-.04,9.12-3.55,16.55-4.96,5.47-1.04,8.57-1.41,11.84-1.41.78,0,1.62.02,2.72.06,4.63.18,12.84,1.94,18.01,4.48,4.07,1.99,6.45,4.4,7.06,7.17.36,1.59.29,5.2-1.07,6.43l-1.21,1.09-15.97,12.24ZM38.97,39.79l36.95,23.77,15.54-11.91,1.19-1.07c1.08-.97,1.16-4.3.85-5.72-.56-2.53-2.8-4.78-6.67-6.66-5.09-2.49-13.16-4.23-17.72-4.41-1.1-.04-1.93-.06-2.7-.06-2.76,0-5.56.23-11.7,1.4-6.19,1.18-13.51,3.83-15.74,4.67"/>
    <path class="cls-1" d="M67.95,48.91l-12.25-6.26.11-.2-.09-.23c.29-.11,6.95-2.66,10.91-2.66h.08c4.16.04,6.81,1.04,7.91,1.97,1.02.86,1.16,1.81.45,2.92-.52.81-2.01,1.9-4.09,2.99-2.03,1.07-2.9,1.43-2.94,1.45l-.08.03ZM56.12,42.45l11.84,6.04c.25-.11,1.15-.51,2.83-1.4,1.99-1.05,3.47-2.12,3.95-2.87.61-.95.5-1.7-.38-2.43-1.05-.88-3.61-1.84-7.67-1.88h-.07c-3.45,0-9.17,2.04-10.5,2.53"/>
    <rect class="cls-1" x="180.11" y="56.3" width="5.36" height="2.71"/>
    <path class="cls-1" d="M137.02,47.6h-17.83s0,20.56,0,20.56h17.95c2.65-.33,7.65-2.79,7.65-9.79,0-9.73-7.69-10.76-7.77-10.77M136.88,65.39h-14.91v-15.04h14.8c.65.1,5.27,1.08,5.27,8.02,0,5.92-4.35,6.89-5.15,7.02"/>
    <rect class="cls-1" x="146.58" y="47.74" width="2.77" height="20.49"/>
    <path class="cls-1" d="M164.99,52.78c-6.25.1-10.73-3.61-10.77-3.65l-2.28-1.94v21.04h2.76v-15.45c2.2,1.26,5.83,2.81,10.32,2.76,4.28-.06,7.54-1.47,9.56-2.67v15.36h2.76v-21.28l-2.34,2.23s-3.75,3.51-10.03,3.59"/>
    <polygon class="cls-1" points="261.83 58.79 261.83 56.21 243.71 56.21 243.71 50.34 261.76 50.34 261.76 47.58 240.95 47.58 240.95 68.33 261.76 68.33 261.76 65.56 243.71 65.56 243.71 58.79 261.83 58.79"/>
    <path class="cls-1" d="M235.41,47.46v14.06c-1.9-2.08-4.64-4.92-7.28-7.04-3.21-2.59-9.73-5.95-10-6.09l-2.02-1.04v20.89h2.77v-16.32c2.17,1.19,5.58,3.14,7.52,4.71,4.39,3.53,9.29,9.38,9.34,9.44l2.44,2.93v-21.53h-2.76Z"/>
    <path class="cls-1" d="M202.75,54.58v-7.73c-.5-.07-1.02-.11-1.55-.11s-1.04.04-1.55.11v7.72c-.93.54-1.55,1.53-1.55,2.68,0,1.71,1.39,3.1,3.1,3.1s3.1-1.39,3.1-3.1c0-1.15-.62-2.15-1.55-2.68h0Z"/>
    <path class="cls-1" d="M206.21,46.86c-.27-.04-.77-.08-1.34-.1v2.76c.44.02.75.04.88.06.23.04,5.6,1.04,5.6,8.36,0,6.31-5.43,7.62-5.49,7.63-.57.08-2.23.13-4.44.13-.39,0-.64,0-.64,0h-.04s-.49.01-1.15.01h0c-1.48,0-2.62-.05-3.11-.14-.05,0-5.39-1.25-5.39-7.93,0-6.15,4.17-7.74,5.5-8.09.12-.02.45-.04.96-.06v-2.77c-.83.03-1.38.08-1.62.14-1.27.33-7.61,2.38-7.61,10.77,0,7.63,5.54,10.27,7.68,10.65.67.12,1.88.18,3.59.18h0c.62,0,1.09,0,1.19,0,.07,0,.3,0,.64,0,1.7,0,3.92-.03,4.85-.16,1.66-.24,7.84-2.71,7.85-10.36,0-7.7-4.96-10.59-7.89-11.09"/>
    <path class="cls-1" d="M123.57,78.17c.28.02.52.11.73.27.21.16.31.49.31.96,0,.25-.06.46-.19.63-.13.17-.28.29-.47.38-.19.08-.37.12-.55.12h-4.18v-.68s4.16,0,4.16,0c.15,0,.28-.03.4-.1.12-.06.18-.22.18-.45,0-.15-.04-.26-.12-.32-.08-.07-.18-.1-.29-.12-.11-.01-.18-.02-.2-.02h-3.03c-.16,0-.33-.05-.51-.14s-.34-.22-.47-.42c-.13-.19-.2-.44-.2-.75,0-.27.07-.49.21-.67.14-.18.3-.3.49-.38.19-.08.38-.13.55-.14h3.78v.68h-3.74c-.15,0-.3.03-.43.1-.13.07-.2.23-.2.49,0,.21.06.35.18.41.12.07.24.1.36.11h3.25Z"/>
    <path class="cls-1" d="M129.95,79.75c.18-.07.33-.16.45-.29.12-.12.21-.28.28-.47.07-.19.1-.38.1-.56v-2.11h.69v2.11c0,.38-.09.73-.27,1.06-.18.32-.44.58-.76.77-.32.19-.66.28-1.03.28h-1.31c-.37,0-.72-.1-1.03-.28-.32-.19-.57-.45-.75-.77-.19-.32-.28-.68-.28-1.06v-2.11h.69v2.11c0,.19.03.37.1.56.07.19.16.34.28.47.12.13.27.22.45.29.18.07.36.1.54.1h1.31c.18,0,.36-.03.54-.1"/>
    <path class="cls-1" d="M133.82,75.14h-.73v-.73h.73v.73ZM133.82,80.53h-.73v-4.43h.73v4.43Z"/>
    <path class="cls-1" d="M139,79.85v.67h-1.26c-.37,0-.7-.09-1.02-.27-.32-.18-.56-.42-.74-.73-.18-.31-.28-.64-.29-1.01v-3.66h.67v1.56h1.58v.67s-.02,0-.06,0h-1.52v1.45c0,.3.08.54.23.74.15.2.32.35.48.45.09.05.21.09.38.11.17.02.31.02.42.02h1.12Z"/>
    <path class="cls-1" d="M145.4,76.66c.2.16.33.34.4.54.07.2.1.37.1.52,0,.73-.41,1.12-1.23,1.16h-3.26s0,.17,0,.17c0,.19.02.34.05.45.03.11.09.19.17.24.08.05.19.09.32.1.13.02.33.03.57.03h3.04c.09,0,.13.04.13.13v.41c0,.09-.04.13-.13.13h-3.14c-.44,0-.79-.05-1.04-.15-.25-.1-.43-.25-.54-.46-.11-.21-.16-.5-.16-.86v-1.05c0-.24.09-.49.28-.73s.42-.45.71-.61c.29-.16.59-.24.89-.24h1.98c.36,0,.64.08.84.24M144.93,78.15c.06-.02.12-.07.18-.13.04-.05.07-.11.09-.17.02-.06.03-.15.03-.26,0-.05-.01-.11-.04-.19-.03-.08-.08-.15-.15-.21-.08-.06-.18-.1-.32-.1h-2.16c-.15,0-.32.05-.5.15-.18.1-.33.23-.46.39-.12.17-.18.35-.18.55h3.22c.13,0,.23-.01.29-.03"/>
    <path class="cls-1" d="M154.4,74.91h.67v4.09c0,.27-.03.51-.09.7-.06.19-.15.35-.29.47-.13.12-.3.21-.52.26-.22.06-.49.08-.82.08h-1.35c-.39.02-.72-.03-1.02-.16-.29-.13-.53-.29-.72-.5-.19-.21-.32-.42-.41-.64-.09-.22-.13-.42-.13-.6v-.24s0-.03.02-.13c.01-.11.04-.24.08-.38.05-.15.12-.31.22-.48.1-.17.24-.33.41-.48.17-.15.4-.27.68-.35.28-.09.6-.12.97-.1h2.28v-1.55ZM154.4,77.13h-2.55c-.41,0-.73.08-.94.26-.22.17-.35.35-.42.54-.06.19-.09.34-.09.45v.2c0,.14.03.31.1.5.07.19.21.37.42.54.22.16.53.25.94.25h1.76c.2,0,.36-.05.48-.13.12-.09.2-.21.24-.36.05-.15.07-.34.07-.57v-1.66Z"/>
    <path class="cls-1" d="M161.36,76.66c.2.16.33.34.4.54.07.2.1.37.1.52,0,.73-.41,1.12-1.23,1.16h-3.26s0,.17,0,.17c0,.19.02.34.05.45.03.11.09.19.17.24.08.05.19.09.32.1.13.02.33.03.57.03h3.04c.09,0,.13.04.13.13v.41c0,.09-.04.13-.13.13h-3.14c-.44,0-.79-.05-1.04-.15-.25-.1-.43-.25-.54-.46-.11-.21-.16-.5-.16-.86v-1.05c0-.24.09-.49.28-.73s.42-.45.71-.61c.29-.16.59-.24.89-.24h1.98c.36,0,.64.08.84.24M160.88,78.15c.06-.02.12-.07.18-.13.04-.05.07-.11.09-.17.02-.06.03-.15.03-.26,0-.05-.01-.11-.04-.19-.03-.08-.08-.15-.15-.21-.08-.06-.18-.1-.32-.1h-2.16c-.15,0-.32.05-.5.15-.18.1-.33.23-.46.39-.12.17-.18.35-.18.55h3.22c.13,0,.23-.01.29-.03"/>
    <path class="cls-1" d="M166.43,82.04h-.66v-4.01c0-.25.1-.5.29-.74.19-.24.43-.44.71-.59.28-.15.55-.23.79-.23h1.24c.39-.02.72.04,1.01.16.29.12.53.29.71.49.18.2.32.42.41.64.09.22.13.42.13.6v.24s0,.03-.02.13c-.01.11-.04.24-.08.38-.04.15-.12.31-.22.48-.1.17-.24.33-.41.47-.18.15-.4.26-.67.35-.27.08-.6.12-.97.1h-2.27v1.54ZM166.43,79.84h2.53c.41,0,.73-.08.94-.25.22-.17.35-.34.41-.53.06-.18.09-.33.09-.45v-.2c0-.14-.03-.3-.1-.5-.07-.19-.21-.37-.42-.53-.21-.16-.52-.24-.93-.24h-1.37c-.17,0-.36.05-.54.16-.18.11-.33.24-.45.41-.12.17-.17.32-.17.48v1.65Z"/>
    <path class="cls-1" d="M177.04,77.04h-2.34c-.11,0-.25,0-.4,0-.15,0-.28.02-.41.06-.13.04-.23.1-.33.2-.09.09-.16.2-.2.33-.04.13-.06.24-.07.33,0,.09,0,.26,0,.5v2.04s-.02.06-.05.06h-.58s-.05-.02-.05-.06v-2.1c0-.08,0-.23,0-.45,0-.21.04-.43.12-.64.08-.22.23-.4.44-.57.13-.1.28-.18.43-.24.16-.05.3-.09.45-.11.14-.02.27-.03.39-.03h2.58v.69Z"/>
    <path class="cls-1" d="M181.52,76.42c.37-.02.69.02.96.1.27.09.5.2.67.36.17.15.31.31.41.48.1.17.17.33.21.48.05.15.07.28.09.39.01.11.02.15.02.14v.24c0,.18-.04.38-.13.6-.09.23-.22.44-.4.65-.18.21-.42.37-.7.5-.29.13-.62.18-1.01.16h-.77c-.38.02-.72-.04-1.01-.16-.29-.13-.52-.29-.71-.5-.18-.21-.32-.42-.4-.65-.09-.23-.13-.43-.13-.6v-.24s0-.03.02-.14c.01-.11.04-.24.08-.39.04-.15.11-.31.21-.48.1-.17.23-.33.41-.48.18-.15.4-.27.67-.36.27-.08.59-.12.96-.1h.55ZM181.79,79.85c.51,0,.87-.12,1.07-.37.21-.25.33-.51.36-.79v-.12s0-.19,0-.19v-.13c-.04-.27-.16-.53-.36-.78-.21-.25-.56-.37-1.08-.37h-1.09c-.51,0-.87.12-1.08.37-.21.25-.32.51-.35.78v.13s-.01.18-.01.18v.13c.04.28.16.54.37.79.21.25.57.37,1.07.37h1.09Z"/>
    <path class="cls-1" d="M190.15,74.91h.67v4.09c0,.27-.03.51-.09.7-.06.19-.15.35-.29.47-.13.12-.3.21-.52.26-.22.06-.49.08-.82.08h-1.35c-.39.02-.72-.03-1.02-.16-.29-.13-.53-.29-.72-.5-.19-.21-.32-.42-.41-.64-.09-.22-.13-.42-.13-.6v-.24s0-.03.02-.13c.01-.11.04-.24.08-.38.05-.15.12-.31.22-.48.1-.17.24-.33.41-.48.17-.15.4-.27.68-.35.28-.09.6-.12.97-.1h2.28v-1.55ZM190.15,77.13h-2.55c-.41,0-.73.08-.94.26-.22.17-.35.35-.42.54-.06.19-.09.34-.09.45v.2c0,.14.03.31.1.5.07.19.21.37.42.54.22.16.53.25.94.25h1.76c.2,0,.36-.05.48-.13.12-.09.2-.21.24-.36.05-.15.07-.34.07-.57v-1.66Z"/>
    <path class="cls-1" d="M196.23,79.75c.18-.07.33-.16.45-.29.12-.12.21-.28.28-.47.07-.19.1-.38.1-.56v-2.11h.69v2.11c0,.38-.09.73-.27,1.06-.18.32-.44.58-.76.77-.32.19-.66.28-1.03.28h-1.31c-.37,0-.72-.1-1.03-.28-.32-.19-.57-.45-.75-.77-.19-.32-.28-.68-.28-1.06v-2.11h.69v2.11c0,.19.03.37.1.56.07.19.16.34.28.47.12.13.27.22.45.29.18.07.36.1.54.1h1.31c.18,0,.36-.03.54-.1"/>
    <path class="cls-1" d="M200.65,77.21c-.18.06-.34.16-.45.28-.12.12-.21.27-.28.46-.06.18-.09.37-.09.55s.03.37.09.55c.07.18.16.34.28.46.12.12.27.21.45.27.18.06.37.1.55.1h3.36v.68h-3.36c-.37,0-.71-.09-1.03-.28-.31-.18-.56-.43-.75-.75-.18-.31-.27-.66-.27-1.03s.09-.72.27-1.03c.18-.32.44-.57.75-.75.32-.19.66-.28,1.03-.28h3.36v.67h-3.36c-.18,0-.36.03-.55.1"/>
    <path class="cls-1" d="M209.57,79.85v.67h-1.26c-.37,0-.7-.09-1.02-.27-.32-.18-.56-.42-.74-.73-.18-.31-.28-.64-.29-1.01v-3.66h.67v1.56h1.58v.67s-.02,0-.06,0h-1.52v1.45c0,.3.08.54.23.74.15.2.32.35.48.45.09.05.21.09.38.11.17.02.31.02.42.02h1.12Z"/>
    <path class="cls-1" d="M214.17,76.42c.37-.02.69.02.96.1.27.09.5.2.67.36.17.15.31.31.41.48.1.17.17.33.21.48.05.15.07.28.09.39.01.11.02.15.02.14v.24c0,.18-.04.38-.13.6-.09.23-.22.44-.4.65-.18.21-.42.37-.7.5-.29.13-.62.18-1.01.16h-.77c-.38.02-.72-.04-1.01-.16-.29-.13-.52-.29-.71-.5-.18-.21-.32-.42-.4-.65-.09-.23-.13-.43-.13-.6v-.24s0-.03.02-.14c.01-.11.04-.24.08-.39.04-.15.11-.31.21-.48.1-.17.23-.33.41-.48.18-.15.4-.27.67-.36.27-.08.59-.12.96-.1h.55ZM214.44,79.85c.51,0,.87-.12,1.07-.37.21-.25.33-.51.36-.79v-.12s0-.19,0-.19v-.13c-.04-.27-.16-.53-.36-.78-.21-.25-.56-.37-1.08-.37h-1.09c-.51,0-.87.12-1.08.37-.21.25-.32.51-.35.78v.13s-.01.18-.01.18v.13c.04.28.16.54.37.79.21.25.57.37,1.07.37h1.09Z"/>
    <path class="cls-1" d="M222.46,78.17c.28.02.52.11.73.27.21.16.31.49.31.96,0,.25-.06.46-.19.63-.13.17-.28.29-.47.38-.19.08-.37.12-.55.12h-4.18v-.68s4.16,0,4.16,0c.15,0,.28-.03.4-.1.12-.06.18-.22.18-.45,0-.15-.04-.26-.12-.32-.08-.07-.18-.1-.29-.12-.11-.01-.18-.02-.2-.02h-3.03c-.16,0-.33-.05-.51-.14-.18-.08-.34-.22-.47-.42-.13-.19-.2-.44-.2-.75,0-.27.07-.49.21-.67.14-.18.3-.3.49-.38.19-.08.38-.13.55-.14h3.78v.68h-3.74c-.15,0-.3.03-.43.1-.13.07-.2.23-.2.49,0,.21.06.35.18.41.12.07.24.1.36.11h3.25Z"/>
    <rect class="cls-15" x="251.78" y="74.41" width="9.72" height="3.08"/>
    <rect class="cls-10" x="251.78" y="77.49" width="9.72" height="1.54"/>
    <rect class="cls-12" x="251.78" y="79.03" width="9.72" height="1.54"/>
    <rect class="cls-13" x="239.9" y="74.41" width="3.24" height="6.15"/>
    <rect class="cls-13" x="246.37" y="74.41" width="3.24" height="6.15"/>
    <rect class="cls-1" x="243.13" y="74.41" width="3.24" height="6.15"/>
    <polyline class="cls-17" points="237.72 80.56 228.01 80.56 228.01 77.49 237.72 77.49"/>
    <rect class="cls-8" x="228.01" y="74.41" width="3.24" height="3.08"/>
    <rect class="cls-1" x="231.24" y="74.41" width="6.47" height="3.08"/>
    <polygon class="cls-1" points="228.85 75.71 229.44 75.71 229.63 75.18 229.81 75.71 230.39 75.71 229.92 76.04 230.1 76.57 229.62 76.24 229.15 76.57 229.33 76.04 228.85 75.71"/>
  </g>
</svg>