<?xml version="1.0" encoding="UTF-8"?>
<svg id="Capa_2" xmlns="http://www.w3.org/2000/svg" viewBox="0 0 199.59 150.03">
  <defs>
    <style>
      .cls-1 {
        fill: #656265;
      }

      .cls-2 {
        fill: #fff;
      }

      .cls-3 {
        stroke-width: .13px;
      }

      .cls-3, .cls-4 {
        fill: none;
        stroke: #b32020;
        stroke-miterlimit: 10;
      }

      .cls-4 {
        stroke-width: .13px;
      }

      .cls-5 {
        fill: #636062;
      }

      .cls-6 {
        fill: #d7d5d6;
      }
    </style>
  </defs>
  <g id="Capa_1-2" data-name="Capa_1">
    <rect class="cls-2" x="8.8" y="5.49" width="182.45" height="138.04"/>
    <rect class="cls-4" x="8.8" y="5.49" width="182.45" height="138.04"/>
    <line class="cls-3" x1="8.8" x2="8.8" y2="149.74"/>
    <line class="cls-3" x1="191.24" y1=".29" x2="191.24" y2="150.03"/>
    <line class="cls-4" y1="5.5" x2="199.59" y2="5.5"/>
    <line class="cls-4" y1="143.51" x2="199.59" y2="143.51"/>
    <path class="cls-6" d="M8.8,95.79v17.73s20.44,0,20.44,0v-17.85c-.33-2.63-2.78-7.61-9.73-7.61-9.68,0-10.7,7.65-10.71,7.73M26.5,95.93v14.83h-14.95v-14.72c.1-.65,1.07-5.24,7.97-5.24,5.88,0,6.85,4.33,6.98,5.12"/>
    <path class="cls-6" d="M109.55,123.08h-17.73s0,20.44,0,20.44h17.85c2.63-.33,7.61-2.78,7.61-9.73,0-9.68-7.65-10.7-7.73-10.71M109.4,140.77h-14.83v-14.95h14.72c.65.1,5.24,1.07,5.24,7.97,0,5.88-4.33,6.85-5.12,6.98"/>
    <path class="cls-6" d="M109.52,5.5h-17.73s0,20.44,0,20.44h17.85c2.63-.33,7.61-2.78,7.61-9.73,0-9.68-7.65-10.7-7.73-10.71M109.38,23.19h-14.83v-14.95h14.72c.65.1,5.24,1.07,5.24,7.97,0,5.88-4.33,6.85-5.12,6.98"/>
    <path class="cls-6" d="M191.23,105.86v-17.73s-20.44,0-20.44,0v17.85c.33,2.63,2.78,7.61,9.73,7.61,9.68,0,10.7-7.65,10.71-7.73M173.54,105.71v-14.83h14.95v14.72c-.1.65-1.07,5.24-7.97,5.24-5.88,0-6.85-4.33-6.98-5.12"/>
    <g>
      <path class="cls-1" d="M66.95,124.43h-.59s0,0,0-.11v-3.47c0-.23.09-.45.26-.66.17-.22.39-.39.64-.53.25-.14.49-.2.7-.2h1.11c.34-.02.64.03.9.14s.47.26.63.44c.16.18.28.37.36.57.08.2.12.38.12.53v.21s0,.02-.02.12-.04.21-.07.34c-.04.13-.1.27-.19.42-.09.15-.21.29-.37.42-.16.13-.36.24-.6.31s-.53.1-.86.09h-2.02v1.37ZM66.95,122.46h2.26c.37,0,.65-.08.84-.23.19-.15.31-.31.37-.47.05-.17.08-.3.08-.4v-.18c0-.12-.03-.27-.09-.44s-.18-.33-.37-.47c-.19-.15-.47-.22-.83-.22h-1.22c-.16,0-.32.05-.48.14-.16.1-.3.22-.4.37-.1.15-.16.29-.16.43v1.47Z"/>
      <path class="cls-1" d="M76.22,119.96h-2.09c-.1,0-.22,0-.35,0s-.25.02-.36.05-.21.09-.3.17c-.08.08-.14.18-.18.29-.03.11-.05.21-.06.29s0,.23,0,.44v1.82s-.02.05-.05.05h-.52s-.05-.02-.05-.05v-1.87c0-.08,0-.21,0-.4s.04-.38.11-.57c.07-.19.2-.36.39-.51.12-.09.25-.16.39-.21s.27-.08.4-.1c.13-.02.24-.03.35-.03h2.3v.61Z"/>
      <path class="cls-1" d="M80.01,119.41c.33-.02.61.01.86.09.24.08.44.18.6.32s.28.28.36.43.15.3.19.43c.04.13.06.25.07.35s.02.14.02.12v.22c0,.16-.04.34-.12.54s-.2.4-.36.58c-.16.18-.37.33-.63.45s-.56.16-.9.14h-.69c-.34.02-.64-.03-.9-.14-.26-.11-.47-.26-.63-.45-.16-.18-.28-.38-.36-.58s-.12-.38-.12-.54v-.22s0-.03.02-.12.04-.21.07-.35c.04-.13.1-.28.19-.43s.21-.3.37-.43.36-.24.6-.32c.24-.08.53-.11.86-.09h.5ZM80.25,122.47c.46,0,.77-.11.96-.33.18-.22.29-.46.32-.71v-.1s0-.17,0-.17v-.11c-.04-.24-.14-.47-.32-.69s-.5-.33-.96-.33h-.97c-.46,0-.78.11-.96.33s-.29.45-.31.69v.11s-.01.16-.01.16v.11c.04.25.14.49.33.71.19.22.5.33.96.33h.97Z"/>
      <path class="cls-1" d="M87.51,118.07h.6s0,0,0,.11v3.54c0,.24-.03.45-.08.63-.05.17-.14.31-.25.42-.12.11-.27.19-.47.24-.19.05-.44.08-.73.08h-1.2c-.34.02-.65-.03-.91-.14s-.47-.26-.64-.44c-.17-.18-.29-.37-.37-.57-.08-.2-.12-.38-.12-.54v-.21s0-.03.02-.12c0-.1.04-.21.08-.34s.11-.27.19-.43c.09-.15.21-.29.37-.43s.36-.24.6-.31.54-.11.87-.09h2.04v-1.38ZM87.51,120.04h-2.28c-.37,0-.65.08-.84.23s-.32.31-.37.48c-.06.17-.08.3-.08.41v.18c0,.12.03.27.09.44.06.17.18.33.38.48.19.15.47.22.83.22h1.57c.18,0,.32-.04.43-.12.1-.08.18-.18.22-.32.04-.14.06-.31.06-.51v-1.48Z"/>
      <path class="cls-1" d="M92.72,122.38c.16-.06.29-.14.4-.26.11-.11.19-.25.25-.42.06-.17.09-.34.09-.5v-1.88h.62v1.88c0,.34-.08.66-.24.95-.17.29-.39.52-.68.69-.28.17-.59.25-.92.25h-1.17c-.33,0-.64-.08-.92-.25-.28-.17-.5-.4-.67-.69-.17-.29-.25-.6-.25-.95v-1.88h.61s0,0,0,.05v1.83c0,.17.03.33.09.5s.14.31.25.42c.11.11.24.2.4.26s.32.09.49.09h1.17c.16,0,.32-.03.48-.09Z"/>
      <path class="cls-1" d="M96.46,120.11c-.16.06-.3.14-.41.25-.11.11-.19.24-.25.41-.06.17-.09.33-.09.49s.03.33.09.49.14.3.25.41.24.19.41.25.33.09.49.09h3v.6h-3c-.33,0-.64-.08-.92-.25-.28-.16-.5-.38-.67-.67-.16-.28-.24-.59-.24-.92s.08-.64.24-.92c.17-.28.39-.5.67-.67.28-.17.59-.25.92-.25h3v.6h-3c-.16,0-.33.03-.49.09Z"/>
      <path class="cls-1" d="M104.21,122.47v.6h-1.12c-.33,0-.63-.08-.91-.24-.28-.16-.5-.38-.66-.66-.16-.27-.25-.57-.26-.9v-3.27h.6s0,0,0,.05v1.35h1.41s0,0,0,.05v.55s-.02,0-.05,0h-1.36v1.29c0,.26.07.49.21.66s.28.31.43.4c.08.05.19.08.34.1.15.01.27.02.37.01h1Z"/>
      <path class="cls-1" d="M108.11,119.41c.33-.02.61.01.86.09.24.08.44.18.6.32s.28.28.36.43.15.3.19.43c.04.13.06.25.07.35s.02.14.02.12v.22c0,.16-.04.34-.12.54s-.2.4-.36.58c-.16.18-.37.33-.63.45s-.56.16-.9.14h-.69c-.34.02-.64-.03-.9-.14-.26-.11-.47-.26-.63-.45-.16-.18-.28-.38-.36-.58s-.12-.38-.12-.54v-.22s0-.03.02-.12.04-.21.07-.35c.04-.13.1-.28.19-.43s.21-.3.37-.43.36-.24.6-.32c.24-.08.53-.11.86-.09h.5ZM108.35,122.47c.46,0,.77-.11.96-.33.18-.22.29-.46.32-.71v-.1s0-.17,0-.17v-.11c-.04-.24-.14-.47-.32-.69s-.5-.33-.96-.33h-.97c-.46,0-.78.11-.96.33s-.29.45-.31.69v.11s-.01.16-.01.16v.11c.04.25.14.49.33.71.19.22.5.33.96.33h.97Z"/>
      <path class="cls-1" d="M115.3,120.98c.25.02.46.1.65.24.19.15.28.43.28.86,0,.23-.06.42-.17.57-.11.15-.25.26-.42.34-.17.07-.33.11-.5.11h-3.73v-.61s3.72,0,3.72,0c.13,0,.25-.03.35-.09s.16-.19.16-.4c0-.13-.04-.23-.11-.29s-.16-.09-.26-.1c-.1-.01-.16-.02-.18-.02h-2.7c-.15,0-.3-.04-.46-.12-.16-.08-.3-.2-.42-.37-.12-.17-.18-.4-.18-.67,0-.24.06-.44.19-.59.12-.16.27-.27.44-.34s.33-.11.49-.12h3.37v.61h-3.34c-.14,0-.27.03-.38.09-.12.06-.18.21-.18.44,0,.19.05.31.16.37s.22.09.32.09h2.9Z"/>
      <path class="cls-1" d="M123.89,119.38v3.19c-.02.37-.11.68-.27.95-.19.33-.42.57-.67.72-.25.15-.57.22-.94.22h-2.6s-.05-.02-.05-.05v-.52s.02-.05.05-.05h2.6c.13,0,.25,0,.35-.03.1-.02.2-.05.28-.11.11-.07.21-.14.27-.2s.12-.14.17-.23l.09-.18h-2.37c-.28,0-.53-.05-.76-.16-.22-.11-.41-.24-.55-.38-.14-.14-.26-.32-.38-.55s-.17-.46-.17-.7v-1.93s0-.05,0-.05h.63s0,0,0,.05v1.96c0,.13.03.26.07.39.05.13.09.22.14.27.03.03.07.08.14.15.07.07.16.14.29.2.12.06.27.1.46.12h2.6s0-3.09,0-3.09c0-.03.02-.05.05-.05h.52s.05.02.05.05Z"/>
      <path class="cls-1" d="M130.64,120.98c.25.02.46.1.65.24.19.15.28.43.28.86,0,.23-.06.42-.17.57-.11.15-.25.26-.42.34-.17.07-.33.11-.5.11h-3.73v-.61s3.72,0,3.72,0c.13,0,.25-.03.35-.09s.16-.19.16-.4c0-.13-.04-.23-.11-.29s-.16-.09-.26-.1c-.1-.01-.16-.02-.18-.02h-2.7c-.15,0-.3-.04-.46-.12-.16-.08-.3-.2-.42-.37-.12-.17-.18-.4-.18-.67,0-.24.06-.44.19-.59.12-.16.27-.27.44-.34s.33-.11.49-.12h3.37v.61h-3.34c-.14,0-.27.03-.38.09-.12.06-.18.21-.18.44,0,.19.05.31.16.37s.22.09.32.09h2.9Z"/>
      <path class="cls-1" d="M136.91,119.62c.18.14.3.3.35.48.06.17.09.33.09.46,0,.65-.36,1-1.09,1.03h-2.91s0,.15,0,.15c0,.17.02.3.05.4.03.1.08.17.15.21s.17.08.29.09c.12.01.29.02.51.02h2.71c.08,0,.12.04.12.11v.37c0,.08-.04.12-.12.12h-2.8c-.39,0-.7-.04-.92-.13-.22-.09-.38-.23-.48-.42-.1-.19-.14-.45-.14-.77v-.93c0-.22.08-.43.25-.65.17-.22.38-.4.64-.54.26-.14.52-.22.79-.22h1.77c.32,0,.57.07.75.22ZM136.49,120.95c.05-.02.11-.06.16-.12.04-.04.07-.09.08-.15.02-.06.03-.13.03-.23,0-.04-.01-.1-.04-.17-.02-.07-.07-.13-.14-.19-.07-.06-.16-.09-.28-.09h-1.93c-.14,0-.29.04-.45.13-.16.09-.3.2-.41.35-.11.15-.17.31-.17.49h2.87c.12,0,.21,0,.26-.03Z"/>
      <path class="cls-1" d="M142.62,119.96h-2.09c-.1,0-.22,0-.35,0s-.25.02-.36.05-.21.09-.3.17c-.08.08-.14.18-.18.29-.03.11-.05.21-.06.29s0,.23,0,.44v1.82s-.02.05-.05.05h-.52s-.05-.02-.05-.05v-1.87c0-.08,0-.21,0-.4s.04-.38.11-.57c.07-.19.2-.36.39-.51.12-.09.25-.16.39-.21s.27-.08.4-.1c.13-.02.24-.03.35-.03h2.3v.61Z"/>
      <path class="cls-1" d="M144.08,119.32l2.17,3.25h.07l2.17-3.25h.73l-2.17,3.25c-.18.27-.29.44-.34.51h-.85c-.1-.14-.21-.31-.34-.51l-2.17-3.25h.73Z"/>
      <path class="cls-1" d="M150.68,117.62v.65h-.65v-.65h.65ZM150.68,119.13v3.95h-.65v-3.95h.65Z"/>
      <path class="cls-1" d="M153.29,120.11c-.16.06-.3.14-.41.25-.11.11-.19.24-.25.41-.06.17-.09.33-.09.49s.03.33.09.49.14.3.25.41.24.19.41.25.33.09.49.09h3v.6h-3c-.33,0-.64-.08-.92-.25-.28-.16-.5-.38-.67-.67-.16-.28-.24-.59-.24-.92s.08-.64.24-.92c.17-.28.39-.5.67-.67.28-.17.59-.25.92-.25h3v.6h-3c-.16,0-.33.03-.49.09Z"/>
      <path class="cls-1" d="M158.72,117.62v.65h-.65v-.65h.65ZM158.72,119.13v3.95h-.65v-3.95h.65Z"/>
      <path class="cls-1" d="M162.66,119.41c.33-.02.61.01.86.09.24.08.44.18.6.32s.28.28.36.43.15.3.19.43c.04.13.06.25.07.35s.02.14.02.12v.22c0,.16-.04.34-.12.54s-.2.4-.36.58c-.16.18-.37.33-.63.45s-.56.16-.9.14h-.69c-.34.02-.64-.03-.9-.14-.26-.11-.47-.26-.63-.45-.16-.18-.28-.38-.36-.58s-.12-.38-.12-.54v-.22s0-.03.02-.12.04-.21.07-.35c.04-.13.1-.28.19-.43s.21-.3.37-.43.36-.24.6-.32c.24-.08.53-.11.86-.09h.5ZM162.9,122.47c.46,0,.77-.11.96-.33.18-.22.29-.46.32-.71v-.1s0-.17,0-.17v-.11c-.04-.24-.14-.47-.32-.69s-.5-.33-.96-.33h-.97c-.46,0-.78.11-.96.33s-.29.45-.31.69v.11s-.01.16-.01.16v.11c.04.25.14.49.33.71.19.22.5.33.96.33h.97Z"/>
      <path class="cls-1" d="M169.85,120.98c.25.02.46.1.65.24.19.15.28.43.28.86,0,.23-.06.42-.17.57-.11.15-.25.26-.42.34-.17.07-.33.11-.5.11h-3.73v-.61s3.72,0,3.72,0c.13,0,.25-.03.35-.09s.16-.19.16-.4c0-.13-.04-.23-.11-.29s-.16-.09-.26-.1c-.1-.01-.16-.02-.18-.02h-2.7c-.15,0-.3-.04-.46-.12-.16-.08-.3-.2-.42-.37-.12-.17-.18-.4-.18-.67,0-.24.06-.44.19-.59.12-.16.27-.27.44-.34s.33-.11.49-.12h3.37v.61h-3.34c-.14,0-.27.03-.38.09-.12.06-.18.21-.18.44,0,.19.05.31.16.37s.22.09.32.09h2.9Z"/>
    </g>
    <rect class="cls-5" x="89.73" y="99" width="5.32" height="2.69"/>
    <path class="cls-5" d="M46.95,90.36h-17.7s0,20.41,0,20.41h17.82c2.63-.33,7.59-2.77,7.59-9.72,0-9.66-7.64-10.69-7.71-10.7M46.8,108.02h-14.81v-14.93h14.7c.65.1,5.23,1.07,5.23,7.96,0,5.88-4.32,6.84-5.12,6.97"/>
    <rect class="cls-5" x="56.44" y="90.5" width="2.75" height="20.35"/>
    <path class="cls-5" d="M74.72,95.5c-6.2.1-10.65-3.58-10.69-3.62l-2.26-1.92v20.89h2.74v-15.34c2.18,1.25,5.78,2.79,10.25,2.74,4.25-.06,7.49-1.46,9.49-2.65v15.25h2.75v-21.13l-2.32,2.21s-3.72,3.48-9.96,3.57"/>
    <polygon class="cls-5" points="170.87 101.47 170.87 98.91 152.88 98.91 152.88 93.08 170.79 93.08 170.79 90.34 150.13 90.34 150.13 110.94 170.79 110.94 170.79 108.19 152.88 108.19 152.88 101.47 170.87 101.47"/>
    <path class="cls-5" d="M144.63,90.22v13.96c-1.88-2.06-4.61-4.88-7.23-6.99-3.19-2.57-9.66-5.91-9.93-6.05l-2-1.03v20.74h2.75v-16.2c2.16,1.18,5.54,3.12,7.46,4.67,4.36,3.51,9.22,9.31,9.27,9.37l2.43,2.9v-21.38h-2.75Z"/>
    <path class="cls-5" d="M112.21,97.29v-7.67c-.5-.07-1.02-.11-1.54-.11s-1.03.04-1.54.11v7.67c-.92.53-1.54,1.52-1.54,2.66,0,1.7,1.38,3.08,3.08,3.08s3.08-1.38,3.08-3.08c0-1.14-.62-2.13-1.54-2.66h0Z"/>
    <path class="cls-5" d="M115.64,89.62c-.27-.04-.76-.08-1.33-.1v2.74c.44.02.75.04.87.06.23.04,5.56,1.03,5.56,8.31,0,6.27-5.39,7.56-5.45,7.57-.57.08-2.22.13-4.41.13-.39,0-.63,0-.63,0h-.04s-.49.01-1.14.01h0c-1.47,0-2.6-.05-3.09-.13-.05,0-5.35-1.24-5.35-7.87,0-6.11,4.14-7.68,5.46-8.03.12-.02.44-.04.96-.06v-2.75c-.83.03-1.37.08-1.61.14-1.26.32-7.56,2.36-7.56,10.7,0,7.57,5.5,10.2,7.62,10.57.67.12,1.87.18,3.57.18h0c.61,0,1.08,0,1.18,0,.06,0,.3,0,.64,0,1.69,0,3.9-.03,4.81-.16,1.64-.24,7.78-2.69,7.79-10.28,0-7.64-4.92-10.52-7.84-11.01"/>
    <path class="cls-2" d="M100.47,26.71l-40.83,12.87,40.95,31.77,40.09-30.97-40.21-13.67ZM116.27,55.61l-8.9,6.82-7.61-4.89,5.83-4.78c1.06-.95,1.36-1.6,1.36-1.6v-9.08c.07-1.56-2.08-2.42-2.08-2.42-2.7-1.3-6.8-1.24-6.8-1.24-3.8-.06-10.84,2.64-10.84,2.64v8.41l-10.53-6.77c6.71-2.7,9.76-3.42,9.76-3.42,6.65-1.86,11.31-1.96,11.31-1.96,7.46-.4,13.38,1.66,13.38,1.66,5.93,1.63,8.38,3.71,8.38,3.71,4.91,3.67,3.8,7.46,3.8,7.46-.77.7-7.06,5.47-7.06,5.47"/>
    <polygon class="cls-5" points="58.12 49.47 58.12 39.34 100.68 71.72 142.19 40.1 142.2 49.41 100.56 87.23 58.12 49.47"/>
    <path class="cls-5" d="M76.42,42.8l-6.82-4.23s9-3.52,16.49-4.95c7.49-1.42,10.21-1.51,14.48-1.34,4.27.17,12.47,1.8,17.87,4.44,5.4,2.64,6.53,5.41,6.87,6.92.34,1.51.25,4.99-.96,6.08l-1.21,1.09s.88-1.97-.38-4.44c-1.25-2.47-3.98-4.86-8.92-6.54-4.94-1.68-9.35-2.64-14.68-2.56-5.33.08-10.18,1.26-13.91,2.35-3.72,1.09-8.83,3.18-8.83,3.18"/>
    <path class="cls-5" d="M87.22,41.28v8.38l12.26,8.09s2.68-2.1,4.56-3.65c1.89-1.55,2.69-2.49,2.9-2.95v-9.26s.22,1.45-3.02,3.28c-3.24,1.82-4.27,2.42-4.27,2.42l-12.43-6.32Z"/>
    <path class="cls-5" d="M100.59,72.29l-42.51-32.98,42.4-13.37.11.04,41.62,14.15-41.63,32.16ZM59.64,39.58l40.95,31.77,40.09-30.97-40.21-13.67-40.83,12.87Z"/>
    <path class="cls-5" d="M107.4,63.33l-.22-.14-38.4-24.7.67-.26c.09-.04,9.12-3.55,16.56-4.97,5.48-1.04,8.57-1.41,11.84-1.41.78,0,1.62.02,2.73.06,4.63.18,12.84,1.95,18.02,4.48,4.07,1.99,6.45,4.41,7.06,7.17.35,1.59.29,5.2-1.07,6.43l-1.21,1.09-15.97,12.24ZM70.41,38.65l36.96,23.78,15.54-11.91,1.19-1.07c1.08-.97,1.16-4.3.85-5.72-.56-2.53-2.81-4.78-6.67-6.67-5.1-2.49-13.17-4.23-17.73-4.41-1.1-.04-1.93-.06-2.7-.06-2.76,0-5.56.23-11.7,1.4-6.19,1.18-13.51,3.83-15.75,4.67"/>
    <path class="cls-5" d="M99.39,47.77l-12.26-6.26.1-.2-.09-.23c.29-.11,6.95-2.66,10.91-2.66h.08c4.16.04,6.81,1.04,7.91,1.97,1.02.86,1.16,1.81.45,2.92-.52.81-2.01,1.9-4.09,2.99-2.03,1.07-2.91,1.43-2.94,1.45l-.08.03ZM87.56,41.32l11.84,6.05c.25-.11,1.15-.51,2.83-1.4,1.99-1.05,3.47-2.12,3.95-2.87.61-.95.5-1.7-.38-2.43-1.05-.89-3.61-1.84-7.67-1.88h-.08c-3.45,0-9.18,2.04-10.5,2.54"/>
  </g>
</svg>