<?xml version="1.0" encoding="UTF-8"?>
<svg id="Capa_2" xmlns="http://www.w3.org/2000/svg" viewBox="0 0 171.46 103.71">
  <defs>
    <style>
      .cls-1 {
        fill: #fff;
      }

      .cls-2 {
        fill: #d00e4d;
      }

      .cls-3 {
        fill: #d00e4c;
      }
    </style>
  </defs>
  <g id="Capa_1-2" data-name="Capa_1">
    <rect class="cls-2" x="73.23" y="88.46" width="6.44" height="3.26"/>
    <path class="cls-3" d="M21.43,78H0s0,24.71,0,24.71h21.57c3.18-.4,9.2-3.36,9.2-11.76,0-11.7-9.25-12.94-9.34-12.95M21.25,99.39H3.32v-18.08h17.79c.78.12,6.33,1.3,6.33,9.64,0,7.11-5.23,8.29-6.19,8.44"/>
    <rect class="cls-3" x="32.92" y="78.17" width="3.32" height="24.64"/>
    <path class="cls-3" d="M55.05,84.22c-7.51.12-12.9-4.34-12.95-4.38l-2.74-2.33v25.29h3.32v-18.58c2.64,1.52,7,3.38,12.41,3.32,5.14-.07,9.07-1.76,11.5-3.2v18.46h3.32v-25.58l-2.81,2.68s-4.51,4.21-12.06,4.32"/>
    <polygon class="cls-3" points="171.46 91.45 171.46 88.34 149.68 88.34 149.68 81.29 171.37 81.29 171.37 77.97 146.36 77.97 146.36 102.91 171.37 102.91 171.37 99.59 149.68 99.59 149.68 91.45 171.46 91.45"/>
    <path class="cls-3" d="M139.7,77.83v16.9c-2.28-2.5-5.58-5.91-8.75-8.46-3.86-3.11-11.69-7.15-12.02-7.32l-2.42-1.25v25.12h3.32v-19.62c2.61,1.43,6.7,3.78,9.04,5.66,5.28,4.25,11.16,11.28,11.22,11.34l2.94,3.52v-25.88h-3.32Z"/>
    <path class="cls-2" d="M100.44,86.39v-9.29c-.61-.08-1.23-.14-1.86-.14s-1.25.05-1.86.14v9.29c-1.11.65-1.86,1.84-1.86,3.22,0,2.06,1.67,3.72,3.73,3.72s3.72-1.67,3.72-3.72c0-1.38-.75-2.58-1.86-3.22h0Z"/>
    <path class="cls-3" d="M104.6,77.11c-.33-.05-.92-.09-1.61-.12v3.33c.53.02.9.05,1.05.08.28.05,6.73,1.24,6.73,10.06,0,7.59-6.53,9.16-6.59,9.17-.69.1-2.69.16-5.34.16-.47,0-.77,0-.77,0h-.05s-.59.01-1.38.01h0c-1.79,0-3.15-.06-3.74-.16-.07-.01-6.48-1.5-6.48-9.53,0-7.39,5.01-9.3,6.61-9.72.15-.02.54-.05,1.16-.07v-3.33c-1,.04-1.66.09-1.95.17-1.53.39-9.15,2.86-9.15,12.95,0,9.17,6.66,12.35,9.23,12.8.81.14,2.26.22,4.32.22h0c.74,0,1.31,0,1.43-.01.08,0,.36,0,.77,0,2.04,0,4.72-.04,5.83-.2,1.99-.29,9.43-3.26,9.43-12.45,0-9.25-5.96-12.74-9.49-13.34"/>
    <path class="cls-1" d="M86.13.94l-49.44,15.59,49.58,38.47,48.54-37.5L86.13.94ZM105.25,35.93l-10.78,8.26-9.21-5.92,7.06-5.79c1.28-1.15,1.64-1.94,1.64-1.94v-11c.09-1.88-2.51-2.93-2.51-2.93-3.27-1.58-8.24-1.5-8.24-1.5-4.6-.08-13.13,3.2-13.13,3.2v10.19l-12.75-8.2c8.12-3.27,11.82-4.14,11.82-4.14,8.05-2.25,13.69-2.37,13.69-2.37,9.03-.48,16.2,2.01,16.2,2.01,7.17,1.98,10.15,4.49,10.15,4.49,5.94,4.45,4.6,9.03,4.6,9.03-.94.84-8.54,6.62-8.54,6.62"/>
    <polygon class="cls-3" points="34.85 28.5 34.85 16.23 86.38 55.43 136.64 17.15 136.65 28.42 86.23 74.22 34.85 28.5"/>
    <path class="cls-3" d="M57.01,20.42l-8.26-5.13s10.9-4.26,19.97-5.99c9.07-1.72,12.37-1.82,17.53-1.62,5.17.2,15.1,2.18,21.64,5.38,6.54,3.2,7.91,6.55,8.31,8.37.4,1.83.3,6.04-1.17,7.36l-1.47,1.32s1.06-2.39-.46-5.38c-1.52-2.99-4.82-5.89-10.8-7.92-5.98-2.03-11.32-3.2-17.77-3.1-6.45.1-12.33,1.52-16.84,2.84-4.51,1.32-10.69,3.86-10.69,3.86"/>
    <path class="cls-3" d="M70.08,18.58v10.15l14.85,9.8s3.24-2.54,5.53-4.42c2.28-1.88,3.26-3.02,3.51-3.57v-11.21s.27,1.76-3.66,3.97c-3.92,2.2-5.17,2.93-5.17,2.93l-15.05-7.65Z"/>
    <path class="cls-3" d="M86.27,56.12L34.79,16.19,86.14,0l.14.05,50.39,17.14-50.4,38.94ZM36.69,16.53l49.58,38.47,48.54-37.5L86.13.94l-49.44,15.59Z"/>
    <path class="cls-3" d="M94.52,45.28l-.26-.17L47.77,15.2l.81-.32c.11-.04,11.04-4.3,20.05-6.01,6.63-1.26,10.38-1.71,14.34-1.71.94,0,1.96.02,3.3.08,5.61.22,15.55,2.35,21.82,5.42,4.93,2.41,7.81,5.33,8.55,8.68.43,1.93.36,6.3-1.3,7.79l-1.47,1.32-19.34,14.83ZM49.73,15.4l44.75,28.79,18.82-14.42,1.44-1.3c1.31-1.17,1.41-5.21,1.03-6.93-.68-3.07-3.4-5.79-8.07-8.07-6.17-3.02-15.94-5.12-21.46-5.34-1.33-.05-2.34-.08-3.27-.08-3.34,0-6.73.28-14.17,1.69-7.5,1.43-16.36,4.64-19.07,5.65"/>
    <path class="cls-3" d="M84.82,26.44l-14.84-7.58.13-.25-.11-.28c.34-.13,8.41-3.23,13.21-3.23h.1c5.04.05,8.25,1.26,9.57,2.38,1.23,1.04,1.41,2.19.54,3.53-.63.98-2.44,2.3-4.95,3.62-2.46,1.3-3.52,1.73-3.56,1.75l-.1.04ZM70.5,18.63l14.34,7.32c.31-.13,1.4-.62,3.43-1.69,2.41-1.27,4.2-2.57,4.78-3.47.74-1.15.61-2.06-.45-2.95-1.27-1.07-4.37-2.23-9.29-2.28h-.09c-4.18,0-11.11,2.48-12.71,3.07"/>
  </g>
</svg>