<?xml version="1.0" encoding="UTF-8"?>
<svg id="Capa_2" xmlns="http://www.w3.org/2000/svg" viewBox="0 0 257.46 93.43">
  <defs>
    <style>
      .cls-1 {
        fill: #1f4085;
      }

      .cls-2 {
        fill: #dadada;
      }

      .cls-3 {
        fill: #1f4492;
      }

      .cls-4 {
        fill: #e5202b;
      }

      .cls-5 {
        fill: #fff;
      }

      .cls-6 {
        fill: #d42f1f;
      }

      .cls-7 {
        stroke-width: .13px;
      }

      .cls-7, .cls-8, .cls-9 {
        fill: none;
        stroke: #b32020;
        stroke-miterlimit: 10;
      }

      .cls-10 {
        fill: #ce1328;
      }

      .cls-8 {
        stroke-width: .13px;
      }

      .cls-11 {
        fill: #fcd21b;
      }

      .cls-9 {
        stroke-width: .07px;
      }

      .cls-12 {
        fill: #635f61;
      }
    </style>
  </defs>
  <g id="Capa_1-2" data-name="Capa_1">
    <path class="cls-2" d="M59.34,68.59h-13.77s0,15.88,0,15.88h13.86c2.04-.26,5.91-2.16,5.91-7.56,0-7.52-5.94-8.31-6-8.32M59.22,82.33h-11.52v-11.61h11.43c.5.08,4.07.83,4.07,6.19,0,4.57-3.36,5.32-3.98,5.42"/>
    <path class="cls-2" d="M253.53,48.52v-13.77s-15.88,0-15.88,0v13.86c.26,2.04,2.16,5.91,7.56,5.91,7.52,0,8.31-5.94,8.32-6M239.79,48.4v-11.52h11.61v11.43c-.08.5-.83,4.07-6.19,4.07-4.57,0-5.32-3.36-5.42-3.98"/>
    <path class="cls-2" d="M4.64,33.45v13.77s15.88,0,15.88,0v-13.86c-.26-2.04-2.16-5.91-7.56-5.91-7.52,0-8.31,5.94-8.32,6M18.38,33.56v11.52H6.77v-11.43c.08-.5.83-4.07,6.19-4.07,4.57,0,5.32,3.36,5.42,3.98"/>
    <path class="cls-2" d="M57.77,5.14h-13.77s0,15.88,0,15.88h13.86c2.04-.26,5.91-2.16,5.91-7.56,0-7.52-5.94-8.31-6-8.32M57.65,18.88h-11.52V7.26h11.43c.5.08,4.07.83,4.07,6.19,0,4.57-3.36,5.32-3.98,5.42"/>
    <rect class="cls-9" x="85.82" y="33.09" width="6.6" height="6.6"/>
    <line class="cls-8" x1="4.63" y1="1" x2="4.63" y2="93.43"/>
    <line class="cls-7" x1="253.54" x2="253.54" y2="92.42"/>
    <line class="cls-8" y1="84.47" x2="257.46" y2="84.47"/>
    <line class="cls-8" y1="5.13" x2="257.46" y2="5.13"/>
    <polyline class="cls-6" points="201.67 68.62 188.96 68.62 188.96 64.38 201.67 64.38"/>
    <rect class="cls-3" x="188.96" y="60.14" width="4.24" height="4.24"/>
    <rect class="cls-5" x="193.2" y="60.14" width="8.48" height="4.24"/>
    <polygon class="cls-5" points="190.06 61.93 190.84 61.93 191.08 61.2 191.32 61.93 192.08 61.93 191.46 62.38 191.7 63.12 191.07 62.67 190.45 63.12 190.69 62.39 190.06 61.93"/>
    <rect class="cls-11" x="224.95" y="60.15" width="12.71" height="4.24"/>
    <rect class="cls-1" x="224.95" y="64.38" width="12.71" height="2.11"/>
    <rect class="cls-10" x="224.95" y="66.5" width="12.71" height="2.12"/>
    <rect class="cls-4" x="206.96" y="60.15" width="4.23" height="8.45"/>
    <rect class="cls-4" x="215.43" y="60.15" width="4.23" height="8.45"/>
    <rect class="cls-5" x="211.19" y="60.15" width="4.23" height="8.45"/>
    <path class="cls-12" d="M106.18,36.89h-13.77s0,15.88,0,15.88h13.86c2.04-.26,5.91-2.16,5.91-7.56,0-7.52-5.94-8.31-6-8.32M106.07,50.63h-11.52v-11.61h11.43c.5.08,4.07.83,4.07,6.19,0,4.57-3.36,5.32-3.98,5.42"/>
    <rect class="cls-12" x="113.56" y="37" width="2.13" height="15.82"/>
    <path class="cls-12" d="M127.78,40.89c-4.82.08-8.28-2.79-8.32-2.81l-1.76-1.5v16.25h2.14v-11.93c1.69.97,4.5,2.17,7.97,2.13,3.3-.05,5.82-1.13,7.38-2.06v11.86h2.13v-16.43l-1.8,1.72s-2.9,2.71-7.75,2.77"/>
    <polygon class="cls-12" points="155.67 43.53 141.74 43.53 141.74 39.01 155.67 39.01 155.67 36.87 139.6 36.87 139.6 52.89 155.67 52.89 155.67 50.76 141.74 50.76 141.74 45.53 155.67 45.53 155.67 43.53"/>
    <path class="cls-12" d="M172.72,47.63c-1.47-1.61-3.58-3.8-5.62-5.44-2.48-2-7.51-4.59-7.73-4.7l-1.55-.8v16.13h2.13v-12.6c1.68.92,4.31,2.43,5.81,3.64,3.39,2.73,7.17,7.24,7.21,7.29l1.89,2.26v-16.63h-2.13v10.85Z"/>
    <path class="cls-12" d="M235.53,36.78v10.85c-1.47-1.6-3.58-3.79-5.62-5.44-2.48-2-7.51-4.59-7.73-4.7l-1.55-.8v16.13h2.13v-12.6c1.68.92,4.31,2.43,5.81,3.64,3.39,2.73,7.17,7.24,7.21,7.29l1.89,2.26v-16.63h-2.13Z"/>
    <path class="cls-12" d="M190.77,43.92h-10.56c-.24-.02-1.77-.19-1.77-2.48,0-2.06,1.65-2.38,2.06-2.43h12.15v-2.13h-12.29c-1.4.11-4.05,1.21-4.05,4.57,0,3.54,2.51,4.57,3.84,4.61h10.48c.2.03,1.39.29,1.39,2.49,0,1.96-1.42,2.2-1.88,2.22h-13.55v2.13h13.6c1.59-.04,3.96-1.23,3.96-4.36,0-3.44-2.22-4.52-3.39-4.62"/>
    <rect class="cls-12" x="195.31" y="37.07" width="2.14" height="15.78"/>
    <path class="cls-12" d="M212.98,36.32c-.7-.12-3.27-.13-4.04-.13-2.21,0-3.53.05-3.91.15-.98.25-5.88,1.84-5.88,8.32,0,5.89,4.28,7.93,5.93,8.22.52.09,1.45.14,2.77.14h0c.48,0,.84,0,.92,0,.05,0,.23,0,.5,0,1.31,0,3.03-.02,3.74-.13,1.28-.19,6.05-2.1,6.06-8,0-5.94-3.83-8.18-6.1-8.57M212.7,50.77c-.44.07-1.73.1-3.43.1-.3,0-.49,0-.49,0h-.03s-.38,0-.89,0h0c-1.15,0-2.02-.04-2.41-.11-.04,0-4.16-.96-4.16-6.12,0-4.75,3.22-5.98,4.25-6.25.23-.03,1.33-.09,3.4-.09s3.4.05,3.68.1c.18.03,4.33.8,4.32,6.46,0,4.88-4.19,5.88-4.24,5.89"/>
    <path class="cls-5" d="M53.42,21.61l-31.73,10.01,31.82,24.69,31.16-24.07-31.25-10.62ZM65.7,44.07l-6.92,5.3-5.91-3.8,4.53-3.71c.82-.74,1.05-1.24,1.05-1.24v-7.06c.06-1.21-1.61-1.88-1.61-1.88-2.1-1.01-5.29-.96-5.29-.96-2.95-.05-8.43,2.05-8.43,2.05v6.54l-8.18-5.26c5.21-2.1,7.58-2.66,7.58-2.66,5.17-1.45,8.79-1.52,8.79-1.52,5.79-.31,10.4,1.29,10.4,1.29,4.6,1.27,6.51,2.88,6.51,2.88,3.81,2.85,2.95,5.8,2.95,5.8-.6.54-5.48,4.25-5.48,4.25"/>
    <polygon class="cls-12" points="20.51 39.3 20.51 31.43 53.59 56.59 85.85 32.02 85.85 39.25 53.49 68.64 20.51 39.3"/>
    <path class="cls-12" d="M34.73,34.12l-5.3-3.29s6.99-2.74,12.82-3.84,7.94-1.17,11.26-1.04c3.32.13,9.69,1.4,13.89,3.45s5.08,4.2,5.34,5.38c.26,1.17.19,3.88-.75,4.72l-.94.85s.68-1.53-.29-3.45c-.98-1.92-3.09-3.78-6.93-5.08-3.84-1.3-7.26-2.05-11.41-1.99s-7.92.98-10.81,1.82c-2.9.85-6.86,2.48-6.86,2.48"/>
    <path class="cls-12" d="M43.12,32.93v6.52l9.53,6.29s2.08-1.63,3.55-2.83c1.46-1.21,2.09-1.93,2.25-2.29v-7.19s.18,1.13-2.35,2.55c-2.52,1.41-3.32,1.88-3.32,1.88l-9.66-4.91Z"/>
    <path class="cls-12" d="M53.51,57.03L20.48,31.4l32.95-10.39.09.03,32.35,11-32.35,24.99ZM21.69,31.61l31.82,24.69,31.16-24.07-31.25-10.62-31.73,10Z"/>
    <path class="cls-12" d="M58.81,50.07l-.17-.11-29.84-19.2.52-.2c.07-.03,7.08-2.76,12.87-3.86,4.25-.81,6.66-1.1,9.2-1.1.6,0,1.26.01,2.12.05,3.6.14,9.98,1.51,14,3.48,3.16,1.55,5.01,3.42,5.49,5.57.27,1.24.23,4.04-.84,5l-.94.85-12.41,9.52ZM30.06,30.89l28.72,18.48,12.08-9.26.93-.83c.84-.75.9-3.34.66-4.45-.44-1.97-2.18-3.71-5.18-5.18-3.96-1.94-10.23-3.29-13.78-3.43-.85-.03-1.5-.05-2.1-.05-2.14,0-4.32.18-9.1,1.09-4.81.92-10.5,2.98-12.24,3.63"/>
    <path class="cls-12" d="M52.58,37.98l-9.52-4.86.08-.16-.07-.18c.22-.08,5.4-2.07,8.48-2.07h.06c3.23.03,5.29.81,6.15,1.53.79.67.9,1.41.35,2.27-.41.63-1.56,1.48-3.18,2.33-1.58.83-2.26,1.11-2.29,1.12l-.06.02ZM43.39,32.96l9.2,4.7c.2-.09.9-.4,2.2-1.09,1.55-.82,2.69-1.65,3.07-2.23.48-.74.39-1.32-.29-1.89-.81-.69-2.81-1.43-5.96-1.46h-.06c-2.68,0-7.13,1.59-8.16,1.97"/>
  </g>
</svg>