<?xml version="1.0" encoding="UTF-8"?>
<svg id="Capa_2" xmlns="http://www.w3.org/2000/svg" viewBox="0 0 212.1 97.11">
  <defs>
    <style>
      .cls-1 {
        fill: #fff;
      }

      .cls-2 {
        fill: #d61746;
      }

      .cls-3 {
        fill: #d10e49;
      }
    </style>
  </defs>
  <g id="Capa_1-2" data-name="Capa_1">
    <path class="cls-3" d="M20.1,72.99H0s0,23.18,0,23.18h20.24c2.98-.38,8.63-3.15,8.63-11.03,0-10.98-8.67-12.14-8.76-12.15M19.94,93.06H3.12v-16.96h16.69c.73.12,5.94,1.22,5.94,9.04,0,6.67-4.91,7.77-5.81,7.92"/>
    <rect class="cls-3" x="30.88" y="73.15" width="3.12" height="23.11"/>
    <path class="cls-3" d="M51.64,78.83c-7.04.11-12.1-4.07-12.14-4.11l-2.57-2.18v23.73h3.12v-17.43c2.47,1.42,6.57,3.17,11.64,3.11,4.82-.07,8.51-1.65,10.78-3.01v17.32h3.12v-23.99l-2.63,2.51s-4.23,3.95-11.31,4.05"/>
    <polygon class="cls-3" points="92.37 82.7 72.02 82.7 72.02 76.08 92.37 76.08 92.37 72.97 68.91 72.97 68.91 96.36 92.37 96.36 92.37 93.25 72.02 93.25 72.02 85.61 92.37 85.61 92.37 82.7"/>
    <path class="cls-3" d="M117.27,88.68c-2.14-2.34-5.23-5.54-8.21-7.94-3.62-2.92-10.97-6.71-11.28-6.87l-2.27-1.17v23.56h3.12v-18.4c2.45,1.34,6.29,3.55,8.48,5.31,4.95,3.98,10.47,10.58,10.53,10.64l2.76,3.3v-24.28h-3.12v15.85Z"/>
    <path class="cls-3" d="M208.98,72.83v15.85c-2.14-2.34-5.23-5.54-8.21-7.94-3.62-2.92-10.97-6.71-11.28-6.87l-2.27-1.17v23.56h3.12v-18.4c2.45,1.34,6.29,3.55,8.48,5.31,4.95,3.98,10.47,10.58,10.53,10.64l2.75,3.3v-24.28h-3.12Z"/>
    <path class="cls-3" d="M143.62,83.26h-15.42c-.35-.02-2.58-.28-2.58-3.62,0-3.01,2.41-3.48,3-3.55h17.74v-3.12h-17.94c-2.05.17-5.92,1.77-5.92,6.67,0,5.17,3.67,6.67,5.61,6.74h15.31c.3.04,2.03.43,2.03,3.63,0,2.87-2.07,3.21-2.74,3.25h-19.78v3.12h19.85c2.32-.06,5.78-1.8,5.79-6.36,0-5.03-3.24-6.61-4.95-6.74"/>
    <rect class="cls-3" x="150.26" y="73.26" width="3.12" height="23"/>
    <path class="cls-3" d="M176.05,72.16c-1.02-.17-4.77-.19-5.9-.19-3.24,0-5.16.07-5.71.21-1.43.37-8.58,2.68-8.58,12.15,0,8.6,6.25,11.59,8.66,12.01.76.13,2.12.2,4.05.2h0c.7,0,1.23-.01,1.34-.01.08,0,.34,0,.73,0,1.92,0,4.42-.03,5.46-.18,1.87-.27,8.84-3.06,8.85-11.68,0-8.68-5.59-11.95-8.9-12.51M175.65,93.26c-.65.1-2.52.15-5.01.15-.44,0-.72,0-.72,0h-.05s-.55.01-1.3.01h0c-1.68,0-2.96-.06-3.51-.15-.06-.01-6.08-1.41-6.08-8.94,0-6.93,4.7-8.73,6.21-9.12.33-.05,1.94-.12,4.97-.12s4.97.07,5.38.14c.26.04,6.31,1.17,6.31,9.43,0,7.12-6.12,8.59-6.18,8.6"/>
    <path class="cls-1" d="M106.22.88l-46.3,14.6,46.43,36.02,45.46-35.12L106.22.88ZM124.14,33.65l-10.09,7.74-8.62-5.55,6.6-5.42c1.2-1.07,1.54-1.82,1.54-1.82v-10.3c.08-1.76-2.35-2.74-2.35-2.74-3.06-1.48-7.71-1.4-7.71-1.4-4.3-.07-12.3,2.99-12.3,2.99v9.54l-11.94-7.68c7.61-3.06,11.07-3.88,11.07-3.88,7.54-2.11,12.83-2.22,12.83-2.22,8.45-.45,15.17,1.88,15.17,1.88,6.72,1.86,9.51,4.21,9.51,4.21,5.56,4.17,4.31,8.46,4.31,8.46-.88.79-8,6.2-8,6.2"/>
    <polygon class="cls-2" points="58.21 26.69 58.21 15.2 106.46 51.91 153.53 16.06 153.53 26.61 106.32 69.5 58.21 26.69"/>
    <path class="cls-2" d="M78.95,19.13l-7.74-4.8s10.2-3.99,18.7-5.61c8.49-1.62,11.58-1.71,16.42-1.52,4.84.19,14.14,2.04,20.27,5.04,6.12,2.99,7.4,6.13,7.78,7.84.38,1.71.28,5.66-1.09,6.89l-1.38,1.24s1-2.23-.43-5.04c-1.42-2.8-4.51-5.51-10.11-7.41-5.6-1.9-10.6-2.99-16.64-2.9-6.04.1-11.55,1.43-15.77,2.66-4.22,1.24-10.01,3.61-10.01,3.61"/>
    <path class="cls-2" d="M91.2,17.4v9.51l13.9,9.17s3.04-2.38,5.17-4.14c2.14-1.76,3.05-2.82,3.29-3.35v-10.5s.26,1.65-3.43,3.72c-3.67,2.06-4.84,2.74-4.84,2.74l-14.1-7.16Z"/>
    <path class="cls-2" d="M106.35,52.56L58.15,15.16,106.23,0l.13.04,47.19,16.05-47.2,36.46ZM59.92,15.48l46.43,36.02,45.46-35.12L106.22.88l-46.3,14.6Z"/>
    <path class="cls-2" d="M114.08,42.4l-.25-.16-43.54-28.01.76-.3c.1-.04,10.34-4.02,18.77-5.63,6.21-1.18,9.72-1.6,13.43-1.6.88,0,1.84.02,3.09.07,5.25.21,14.56,2.21,20.43,5.08,4.62,2.26,7.31,4.99,8.01,8.13.4,1.8.33,5.9-1.22,7.29l-1.38,1.24-18.11,13.89ZM72.14,14.42l41.9,26.96,17.62-13.51,1.35-1.21c1.22-1.1,1.32-4.88.96-6.49-.64-2.87-3.18-5.42-7.56-7.56-5.78-2.82-14.93-4.79-20.1-5-1.24-.05-2.19-.07-3.06-.07-3.13,0-6.3.26-13.27,1.58-7.02,1.34-15.32,4.35-17.86,5.29"/>
    <path class="cls-2" d="M105,24.76l-13.9-7.1.12-.23-.1-.26c.32-.12,7.87-3.02,12.37-3.02h.09c4.72.04,7.72,1.18,8.97,2.23,1.15.97,1.32,2.06.51,3.31-.59.92-2.28,2.15-4.63,3.39-2.3,1.21-3.29,1.62-3.33,1.64l-.09.04ZM91.59,17.44l13.43,6.86c.29-.12,1.31-.58,3.21-1.58,2.26-1.19,3.93-2.4,4.48-3.25.7-1.08.57-1.93-.43-2.76-1.19-1-4.1-2.09-8.7-2.13h-.09c-3.91,0-10.4,2.32-11.91,2.88"/>
  </g>
</svg>