<?xml version="1.0" encoding="UTF-8"?>
<svg id="Capa_2" xmlns="http://www.w3.org/2000/svg" viewBox="0 0 257.46 93.43">
  <defs>
    <style>
      .cls-1 {
        fill: #1f4085;
      }

      .cls-2 {
        fill: #dadada;
      }

      .cls-3 {
        fill: #1f4492;
      }

      .cls-4 {
        fill: #e5202b;
      }

      .cls-5 {
        fill: #fff;
      }

      .cls-6 {
        fill: #d42f1f;
      }

      .cls-7 {
        stroke-width: .13px;
      }

      .cls-7, .cls-8, .cls-9 {
        stroke: #b32020;
      }

      .cls-7, .cls-8, .cls-9, .cls-10 {
        fill: none;
        stroke-miterlimit: 10;
      }

      .cls-11 {
        fill: #ce1328;
      }

      .cls-8 {
        stroke-width: .13px;
      }

      .cls-12 {
        fill: #fcd21b;
      }

      .cls-9 {
        stroke-width: .07px;
      }

      .cls-13 {
        fill: #635f61;
      }

      .cls-10 {
        stroke: #fff;
        stroke-width: .25px;
      }
    </style>
  </defs>
  <g id="Capa_1-2" data-name="Capa_1">
    <rect class="cls-13" x="4.63" y="5.13" width="248.9" height="79.34"/>
    <path class="cls-2" d="M59.34,68.59h-13.77s0,15.88,0,15.88h13.86c2.04-.26,5.91-2.16,5.91-7.56,0-7.52-5.94-8.31-6-8.32M59.22,82.33h-11.52v-11.61h11.43c.5.08,4.07.83,4.07,6.19,0,4.57-3.36,5.32-3.98,5.42"/>
    <path class="cls-2" d="M253.53,48.52v-13.77s-15.88,0-15.88,0v13.86c.26,2.04,2.16,5.91,7.56,5.91,7.52,0,8.31-5.94,8.32-6M239.79,48.4v-11.52h11.61v11.43c-.08.5-.83,4.07-6.19,4.07-4.57,0-5.32-3.36-5.42-3.98"/>
    <path class="cls-2" d="M4.64,33.45v13.77s15.88,0,15.88,0v-13.86c-.26-2.04-2.16-5.91-7.56-5.91-7.52,0-8.31,5.94-8.32,6M18.38,33.56v11.52H6.77v-11.43c.08-.5.83-4.07,6.19-4.07,4.57,0,5.32,3.36,5.42,3.98"/>
    <path class="cls-2" d="M57.77,5.14h-13.77s0,15.88,0,15.88h13.86c2.04-.26,5.91-2.16,5.91-7.56,0-7.52-5.94-8.31-6-8.32M57.65,18.88h-11.52V7.26h11.43c.5.08,4.07.83,4.07,6.19,0,4.57-3.36,5.32-3.98,5.42"/>
    <rect class="cls-9" x="85.82" y="33.09" width="6.6" height="6.6"/>
    <line class="cls-8" x1="4.63" y1="1" x2="4.63" y2="93.43"/>
    <line class="cls-7" x1="253.54" x2="253.54" y2="92.42"/>
    <line class="cls-8" y1="84.47" x2="257.46" y2="84.47"/>
    <line class="cls-8" y1="5.13" x2="257.46" y2="5.13"/>
    <path class="cls-5" d="M106.18,36.89h-13.77s0,15.88,0,15.88h13.86c2.04-.26,5.91-2.16,5.91-7.56,0-7.52-5.94-8.31-6-8.32M106.07,50.63h-11.52v-11.61h11.43c.5.08,4.07.83,4.07,6.19,0,4.57-3.36,5.32-3.98,5.42"/>
    <rect class="cls-5" x="113.56" y="37" width="2.14" height="15.82"/>
    <path class="cls-5" d="M127.78,40.89c-4.82.08-8.28-2.79-8.32-2.81l-1.76-1.5v16.25h2.14v-11.93c1.69.97,4.5,2.17,7.97,2.13,3.3-.05,5.83-1.13,7.39-2.06v11.86h2.14v-16.43l-1.8,1.72s-2.9,2.71-7.75,2.77"/>
    <polygon class="cls-5" points="155.67 43.53 141.74 43.53 141.74 39.01 155.67 39.01 155.67 36.87 139.6 36.87 139.6 52.89 155.67 52.89 155.67 50.76 141.74 50.76 141.74 45.53 155.67 45.53 155.67 43.53"/>
    <path class="cls-5" d="M172.72,47.63c-1.47-1.61-3.58-3.8-5.62-5.44-2.48-2-7.51-4.59-7.72-4.7l-1.55-.8v16.13h2.13v-12.6c1.68.92,4.31,2.43,5.81,3.64,3.39,2.73,7.17,7.24,7.21,7.29l1.89,2.26v-16.63h-2.13v10.85Z"/>
    <path class="cls-5" d="M235.53,36.78v10.85c-1.47-1.6-3.58-3.79-5.62-5.44-2.48-2-7.51-4.59-7.72-4.7l-1.55-.8v16.13h2.13v-12.6c1.68.92,4.31,2.43,5.81,3.64,3.39,2.73,7.17,7.24,7.21,7.29l1.89,2.26v-16.63h-2.13Z"/>
    <path class="cls-5" d="M190.77,43.92h-10.56c-.24-.02-1.77-.19-1.77-2.48,0-2.06,1.65-2.38,2.05-2.43h12.15v-2.13h-12.29c-1.4.11-4.05,1.21-4.05,4.57,0,3.54,2.51,4.57,3.84,4.61h10.48c.2.03,1.39.29,1.39,2.49,0,1.96-1.42,2.2-1.88,2.22h-13.55v2.13h13.6c1.59-.04,3.96-1.23,3.96-4.36,0-3.44-2.22-4.52-3.39-4.62"/>
    <rect class="cls-5" x="195.31" y="37.07" width="2.14" height="15.78"/>
    <path class="cls-5" d="M212.98,36.32c-.7-.12-3.27-.13-4.04-.13-2.22,0-3.53.05-3.91.15-.98.25-5.88,1.84-5.88,8.32,0,5.89,4.28,7.93,5.93,8.22.52.09,1.45.14,2.77.14h0c.48,0,.84,0,.92,0,.05,0,.23,0,.5,0,1.31,0,3.03-.02,3.74-.13,1.28-.19,6.05-2.1,6.06-8,0-5.94-3.83-8.18-6.1-8.57M212.7,50.77c-.44.07-1.73.1-3.43.1-.3,0-.49,0-.49,0h-.03s-.38,0-.89,0h0c-1.15,0-2.02-.04-2.41-.11-.04,0-4.16-.96-4.16-6.12,0-4.75,3.22-5.98,4.25-6.25.23-.03,1.33-.09,3.4-.09s3.4.05,3.68.1c.18.03,4.33.8,4.32,6.46,0,4.88-4.19,5.88-4.24,5.89"/>
    <polygon class="cls-5" points="85.81 32 85.8 32.01 85.81 32.02 85.81 32"/>
    <polygon class="cls-5" points="20.55 31.41 20.55 39.28 53.49 68.58 85.81 39.23 85.81 32.03 53.51 56.98 20.55 31.41"/>
    <path class="cls-5" d="M52.41,29.81c4.14-.06,7.56.68,11.39,1.99,3.83,1.3,5.95,3.16,6.92,5.08.63,1.24.57,2.32.44,2.93l.6-.54c.84-.75.9-3.34.66-4.44-.44-1.97-2.18-3.71-5.18-5.17-3.95-1.93-10.22-3.28-13.76-3.42-.85-.03-1.5-.05-2.09-.05-2.14,0-4.32.18-9.08,1.08-4.81.92-10.49,2.97-12.22,3.62l4.87,3.14c.85-.34,4.15-1.66,6.65-2.39,2.89-.85,6.66-1.76,10.8-1.82"/>
    <path class="cls-5" d="M56.2,42.88c1.46-1.2,2.09-1.93,2.25-2.29v-7.01c-.02.29-.14.59-.34.91-.41.63-1.56,1.47-3.17,2.32-1.58.83-2.26,1.11-2.28,1.12l-.06.02-9.45-4.82v6.14l9.74,6.26c.57-.45,2.15-1.69,3.33-2.66"/>
    <polygon class="cls-5" points="43.15 32.93 43.14 32.92 43.14 32.97 43.15 32.94 43.15 32.93"/>
    <polygon class="cls-5" points="85.81 32.02 85.81 32.03 85.83 32.02 85.81 32.02"/>
    <path class="cls-5" d="M85.8,32.01l-32.28-10.98-.09-.03-32.92,10.38.04.03,32.96,25.57,32.3-24.95v-.02h-.01ZM53.42,21.61l31.21,10.61-31.12,24.04-31.79-24.66,31.7-9.99Z"/>
    <path class="cls-5" d="M58.8,50.03l12.4-9.51.94-.85c1.06-.96,1.11-3.76.84-4.99-.48-2.15-2.32-4.02-5.48-5.56-4.02-1.97-10.39-3.34-13.99-3.48-.86-.03-1.51-.05-2.11-.05-2.54,0-4.94.29-9.19,1.1-5.78,1.1-12.78,3.83-12.85,3.85l-.52.2,29.8,19.17.17.11ZM43.14,39.43v-.15l-8.17-5.26c-.13.05-.21.08-.21.08l-5.29-3.29s6.98-2.73,12.8-3.84c5.82-1.11,7.93-1.17,11.24-1.04,3.32.13,9.68,1.4,13.87,3.45,4.19,2.05,5.07,4.2,5.33,5.37s.2,3.87-.75,4.72l-.94.85s.08-.19.15-.52l-.33.29-12.06,9.25-5.9-3.8c-.14.11-.21.17-.21.17l-9.52-6.28Z"/>
    <path class="cls-5" d="M42.31,27.26c4.77-.91,6.94-1.08,9.08-1.08.6,0,1.24.02,2.09.05,3.54.14,9.81,1.49,13.76,3.42,3,1.47,4.74,3.21,5.18,5.17.24,1.1.18,3.69-.66,4.44l-.6.54c-.07.33-.15.52-.15.52l.94-.85c.94-.85,1.01-3.55.75-4.72-.26-1.17-1.14-3.32-5.33-5.37-4.19-2.05-10.56-3.32-13.87-3.45-3.31-.13-5.43-.07-11.24,1.04-5.82,1.11-12.8,3.84-12.8,3.84l5.29,3.29s.08-.03.21-.08l-4.87-3.14c1.73-.65,7.42-2.71,12.22-3.62"/>
    <path class="cls-5" d="M43.14,39.27v.15l9.52,6.28s.08-.06.21-.17l-9.73-6.26Z"/>
    <path class="cls-5" d="M58.44,33.51v.07s0-.08,0-.12c0,.02,0,.04,0,.06"/>
    <path class="cls-5" d="M58.44,33.4v.03s0,.01,0,.02c0-.03,0-.05,0-.05"/>
    <path class="cls-5" d="M57.76,32.22c-.85-.72-2.91-1.5-6.14-1.53h-.06c-3.08,0-8.25,1.98-8.47,2.07l.06.16v.02s0,.03,0,.03v.16l9.45,4.83.06-.02s.71-.29,2.28-1.12c1.61-.85,2.77-1.7,3.17-2.32.21-.32.32-.62.34-.91v-.14c-.01-.43-.24-.83-.69-1.21M51.56,30.98h.06c3.15.03,5.14.77,5.96,1.46.68.57.77,1.16.29,1.89-.38.58-1.52,1.41-3.07,2.23-1.31.69-2,1-2.2,1.08l-9.19-4.69c1.03-.38,5.47-1.97,8.15-1.97"/>
    <path class="cls-5" d="M58.44,33.51s0-.04,0-.06h0s0-.05,0-.05v.11Z"/>
    <polyline class="cls-6" points="201.67 68.62 188.96 68.62 188.96 64.38 201.67 64.38"/>
    <rect class="cls-3" x="188.96" y="60.14" width="4.24" height="4.24"/>
    <rect class="cls-5" x="193.2" y="60.14" width="8.47" height="4.24"/>
    <polygon class="cls-5" points="190.06 61.93 190.84 61.93 191.08 61.2 191.32 61.93 192.08 61.93 191.46 62.38 191.7 63.12 191.07 62.67 190.45 63.12 190.69 62.39 190.06 61.93"/>
    <rect class="cls-12" x="224.95" y="60.15" width="12.71" height="4.24"/>
    <rect class="cls-1" x="224.95" y="64.38" width="12.71" height="2.11"/>
    <rect class="cls-11" x="224.95" y="66.5" width="12.71" height="2.12"/>
    <rect class="cls-4" x="206.96" y="60.15" width="4.23" height="8.45"/>
    <rect class="cls-4" x="215.43" y="60.15" width="4.23" height="8.45"/>
    <rect class="cls-5" x="211.19" y="60.15" width="4.23" height="8.45"/>
    <rect class="cls-10" x="189" y="60.08" width="12.71" height="8.59"/>
    <rect class="cls-10" x="207" y="60.09" width="12.71" height="8.52"/>
    <rect class="cls-10" x="224.99" y="60.09" width="12.71" height="8.53"/>
  </g>
</svg>