<?xml version="1.0" encoding="UTF-8"?>
<svg id="Capa_2" xmlns="http://www.w3.org/2000/svg" viewBox="0 0 77.09 28.21">
  <defs>
    <style>
      .cls-1 {
        fill: #d10e49;
      }
    </style>
  </defs>
  <g id="Capa_1-2" data-name="Capa_1">
    <path class="cls-1" d="M23.63.85H0s0,27.25,0,27.25h23.79c3.51-.44,10.14-3.7,10.14-12.97C33.93,2.23,23.73.86,23.63.85M23.44,24.44H3.66V4.5h19.62c.86.14,6.98,1.43,6.98,10.63,0,7.84-5.77,9.13-6.83,9.3"/>
    <rect class="cls-1" x="36.3" y="1.04" width="3.66" height="27.17"/>
    <path class="cls-1" d="M60.7,7.71c-8.28.13-14.22-4.78-14.27-4.83l-3.02-2.57v27.89h3.66V7.72c2.91,1.67,7.72,3.73,13.68,3.66,5.67-.08,10-1.94,12.68-3.53v20.36h3.66V0l-3.1,2.95s-4.97,4.65-13.3,4.76"/>
  </g>
</svg>