<?xml version="1.0" encoding="UTF-8"?>
<svg id="Capa_2" xmlns="http://www.w3.org/2000/svg" xmlns:xlink="http://www.w3.org/1999/xlink" viewBox="0 0 289.36 119.26">
  <defs>
    <style>
      .cls-1, .cls-2 {
        fill: #fff;
      }

      .cls-3 {
        letter-spacing: -.03em;
      }

      .cls-4 {
        stroke-width: .13px;
      }

      .cls-4, .cls-5, .cls-6, .cls-7 {
        fill: none;
      }

      .cls-4, .cls-6, .cls-7 {
        stroke: #b32020;
        stroke-miterlimit: 10;
      }

      .cls-6 {
        stroke-width: .13px;
      }

      .cls-8 {
        clip-path: url(#clippath-1);
      }

      .cls-9 {
        fill: #d7d5d6;
      }

      .cls-10 {
        letter-spacing: -.03em;
      }

      .cls-11 {
        clip-path: url(#clippath-3);
      }

      .cls-12 {
        fill: #d00e4c;
      }

      .cls-13 {
        letter-spacing: -.03em;
      }

      .cls-14 {
        letter-spacing: -.03em;
      }

      .cls-7 {
        stroke-width: .07px;
      }

      .cls-2 {
        font-family: DimRegular, Dim-Regular;
        font-size: 8.79px;
      }

      .cls-15 {
        clip-path: url(#clippath-2);
      }

      .cls-16 {
        opacity: .57;
      }

      .cls-17 {
        clip-path: url(#clippath);
      }
    </style>
    <clipPath id="clippath">
      <rect class="cls-5" x="58.8" y="88.5" width="25.5" height="20.49"/>
    </clipPath>
    <clipPath id="clippath-1">
      <rect class="cls-5" x="261.76" y="45.05" width="20.49" height="25.51"/>
    </clipPath>
    <clipPath id="clippath-2">
      <rect class="cls-5" x="6.03" y="35.24" width="20.49" height="25.5"/>
    </clipPath>
    <clipPath id="clippath-3">
      <rect class="cls-5" x="56.78" y="6.62" width="25.51" height="20.49"/>
    </clipPath>
  </defs>
  <g id="Capa_1-2" data-name="Capa_1">
    <rect class="cls-12" x="6.06" y="6.26" width="276.17" height="102.73"/>
    <g class="cls-16">
      <g class="cls-17">
        <path class="cls-9" d="M76.56,88.51h-17.76s0,20.49,0,20.49h17.88c2.64-.33,7.62-2.78,7.62-9.75,0-9.7-7.66-10.73-7.74-10.74M76.41,106.24h-14.86v-14.98h14.75c.65.1,5.25,1.07,5.25,7.99,0,5.89-4.34,6.87-5.13,6.99"/>
      </g>
    </g>
    <g class="cls-16">
      <g class="cls-8">
        <path class="cls-9" d="M282.24,62.81v-17.76s-20.48,0-20.48,0v17.88c.33,2.64,2.78,7.62,9.75,7.62,9.7,0,10.72-7.66,10.73-7.74M264.51,62.67v-14.86h14.98v14.75c-.1.65-1.08,5.25-7.99,5.25-5.9,0-6.87-4.34-6.99-5.14"/>
      </g>
    </g>
    <g class="cls-16">
      <g class="cls-15">
        <path class="cls-9" d="M6.03,42.98v17.76s20.48,0,20.48,0v-17.88c-.33-2.64-2.78-7.62-9.75-7.62-9.7,0-10.72,7.66-10.73,7.74M23.76,43.13v14.86h-14.99v-14.75c.1-.65,1.08-5.25,7.99-5.25,5.9,0,6.87,4.34,7,5.13"/>
      </g>
    </g>
    <g class="cls-16">
      <g class="cls-11">
        <path class="cls-9" d="M74.54,6.63h-17.76s0,20.48,0,20.48h17.88c2.64-.33,7.62-2.78,7.62-9.75,0-9.7-7.66-10.73-7.74-10.74M74.39,24.36h-14.86v-14.98h14.75c.65.1,5.25,1.08,5.25,7.99,0,5.89-4.34,6.87-5.13,6.99"/>
      </g>
    </g>
    <rect class="cls-7" x="110.74" y="42.7" width="8.52" height="8.52"/>
    <line class="cls-4" x1="6.11" x2="6.11" y2="119.26"/>
    <line class="cls-4" x1="282.25" x2="282.25" y2="119.26"/>
    <line class="cls-6" y1="108.99" x2="289.36" y2="108.99"/>
    <line class="cls-6" y1="6.26" x2="287.1" y2="6.26"/>
    <polygon class="cls-1" points="26.69 50.61 26.69 40.48 69.24 72.84 110.74 41.24 110.74 50.54 69.11 88.35 26.69 50.61"/>
    <path class="cls-1" d="M44.98,43.94l-6.82-4.23s9-3.52,16.49-4.95c7.49-1.42,10.21-1.51,14.48-1.34,4.27.17,12.47,1.8,17.87,4.44,5.4,2.64,6.53,5.4,6.86,6.92.33,1.51.25,4.99-.96,6.08l-1.21,1.09s.88-1.97-.38-4.44c-1.25-2.47-3.98-4.86-8.91-6.54-4.94-1.67-9.35-2.64-14.67-2.55-5.33.08-10.18,1.26-13.91,2.35-3.72,1.09-8.83,3.18-8.83,3.18"/>
    <path class="cls-1" d="M55.78,42.42v8.38l12.26,8.09s2.68-2.1,4.56-3.65c1.88-1.55,2.69-2.49,2.9-2.95v-9.25s.22,1.45-3.02,3.28c-3.24,1.82-4.27,2.42-4.27,2.42l-12.43-6.32Z"/>
    <path class="cls-1" d="M69.14,73.41L26.64,40.44l42.39-13.37.11.04,41.61,14.15-41.62,32.15ZM28.2,40.72l40.94,31.76,40.08-30.97-40.2-13.67-40.82,12.87Z"/>
    <path class="cls-1" d="M75.96,64.46l-.22-.14-38.38-24.69.67-.26c.09-.04,9.12-3.55,16.55-4.96,5.47-1.04,8.57-1.41,11.84-1.41.78,0,1.62.02,2.72.06,4.63.18,12.84,1.94,18.01,4.48,4.07,1.99,6.45,4.4,7.06,7.17.36,1.59.29,5.2-1.07,6.43l-1.21,1.09-15.97,12.24ZM38.97,39.79l36.95,23.77,15.54-11.91,1.19-1.07c1.08-.97,1.16-4.3.85-5.72-.56-2.53-2.8-4.78-6.67-6.66-5.09-2.49-13.16-4.23-17.72-4.41-1.1-.04-1.93-.06-2.7-.06-2.76,0-5.56.23-11.7,1.4-6.19,1.18-13.51,3.83-15.74,4.67"/>
    <path class="cls-1" d="M67.95,48.91l-12.25-6.26.11-.2-.09-.23c.29-.11,6.95-2.66,10.91-2.66h.08c4.16.04,6.81,1.04,7.91,1.97,1.02.86,1.16,1.81.45,2.92-.52.81-2.01,1.9-4.09,2.99-2.03,1.07-2.9,1.43-2.94,1.45l-.08.03ZM56.12,42.45l11.84,6.04c.25-.11,1.15-.51,2.83-1.4,1.99-1.05,3.47-2.12,3.95-2.87.61-.95.5-1.7-.38-2.43-1.05-.88-3.61-1.84-7.67-1.88h-.07c-3.45,0-9.17,2.04-10.5,2.53"/>
    <rect class="cls-1" x="180.11" y="56.3" width="5.36" height="2.71"/>
    <path class="cls-1" d="M137.02,47.6h-17.83s0,20.56,0,20.56h17.95c2.65-.33,7.65-2.79,7.65-9.79,0-9.73-7.69-10.76-7.77-10.77M136.88,65.39h-14.91v-15.04h14.8c.65.1,5.26,1.08,5.26,8.02,0,5.92-4.35,6.89-5.15,7.02"/>
    <rect class="cls-1" x="146.58" y="47.74" width="2.77" height="20.49"/>
    <path class="cls-1" d="M164.99,52.78c-6.25.1-10.73-3.61-10.77-3.65l-2.28-1.94v21.04h2.76v-15.45c2.2,1.26,5.83,2.81,10.32,2.76,4.28-.06,7.54-1.47,9.56-2.67v15.36h2.76v-21.28l-2.34,2.23s-3.75,3.51-10.03,3.59"/>
    <polygon class="cls-1" points="261.83 58.79 261.83 56.21 243.71 56.21 243.71 50.34 261.76 50.34 261.76 47.58 240.95 47.58 240.95 68.33 261.76 68.33 261.76 65.56 243.71 65.56 243.71 58.79 261.83 58.79"/>
    <path class="cls-1" d="M235.41,47.46v14.06c-1.9-2.08-4.64-4.92-7.28-7.04-3.21-2.59-9.73-5.95-10-6.09l-2.02-1.04v20.89h2.77v-16.32c2.17,1.19,5.58,3.14,7.52,4.71,4.39,3.53,9.29,9.38,9.34,9.44l2.44,2.93v-21.53h-2.77Z"/>
    <path class="cls-1" d="M202.75,54.58v-7.73c-.5-.07-1.02-.11-1.55-.11s-1.04.04-1.55.11v7.72c-.93.54-1.55,1.53-1.55,2.68,0,1.71,1.39,3.1,3.1,3.1s3.1-1.39,3.1-3.1c0-1.15-.62-2.15-1.55-2.68h0Z"/>
    <path class="cls-1" d="M206.21,46.86c-.27-.04-.77-.08-1.34-.1v2.76c.44.02.75.04.88.06.23.04,5.6,1.04,5.6,8.36,0,6.31-5.43,7.62-5.49,7.63-.57.08-2.23.13-4.44.13-.39,0-.64,0-.64,0h-.04s-.49.01-1.15.01h0c-1.48,0-2.62-.05-3.11-.14-.05,0-5.39-1.25-5.39-7.93,0-6.15,4.17-7.74,5.5-8.09.12-.02.45-.04.96-.06v-2.77c-.83.03-1.38.08-1.62.14-1.27.33-7.61,2.38-7.61,10.77,0,7.63,5.54,10.27,7.68,10.65.67.12,1.88.18,3.59.18h0c.62,0,1.09,0,1.19,0,.07,0,.3,0,.64,0,1.7,0,3.92-.03,4.85-.16,1.66-.24,7.84-2.71,7.85-10.36,0-7.7-4.96-10.59-7.89-11.09"/>
    <text class="cls-2" transform="translate(143.51 80.7)"><tspan class="cls-3" x="0" y="0">pro</tspan><tspan class="cls-10" x="19.18" y="0">d</tspan><tspan class="cls-3" x="25.87" y="0">uc</tspan><tspan class="cls-10" x="39.19" y="0">t</tspan><tspan class="cls-3" x="44.11" y="0">o</tspan><tspan class="cls-10" x="50.79" y="0">s </tspan><tspan class="cls-13" x="59.4" y="0">y</tspan><tspan class="cls-10" x="66.1" y="0" xml:space="preserve"> se</tspan><tspan class="cls-3" x="81.38" y="0">r</tspan><tspan class="cls-14" x="87.21" y="0">v</tspan><tspan class="cls-3" x="94.08" y="0">icio</tspan><tspan x="112.17" y="0">s</tspan></text>
  </g>
</svg>