<?xml version="1.0" encoding="UTF-8"?>
<svg id="Capa_2" xmlns="http://www.w3.org/2000/svg" viewBox="0 0 188.61 29.42">
  <defs>
    <style>
      .cls-1 {
        fill: #d00e4d;
      }

      .cls-2 {
        fill: #d00e4c;
      }
    </style>
  </defs>
  <g id="Capa_1-2" data-name="Capa_1">
    <rect class="cls-1" x="80.55" y="12.64" width="7.09" height="3.58"/>
    <path class="cls-2" d="M23.57,1.14H0s0,27.19,0,27.19h23.73c3.5-.44,10.12-3.7,10.12-12.94,0-12.87-10.17-14.23-10.28-14.25M23.38,24.66H3.66V4.78h19.58c.86.14,6.96,1.43,6.96,10.61,0,7.82-5.76,9.11-6.81,9.28"/>
    <rect class="cls-2" x="36.21" y="1.33" width="3.66" height="27.1"/>
    <path class="cls-2" d="M60.55,7.98c-8.26.13-14.19-4.77-14.24-4.82l-3.01-2.56v27.82h3.65V7.99c2.9,1.67,7.7,3.72,13.65,3.65,5.66-.08,9.98-1.94,12.65-3.53v20.31h3.66V.29l-3.09,2.95s-4.96,4.64-13.26,4.75"/>
    <polygon class="cls-2" points="188.61 15.93 188.61 12.52 164.66 12.52 164.66 4.76 188.52 4.76 188.52 1.1 161 1.1 161 28.54 188.52 28.54 188.52 24.89 164.66 24.89 164.66 15.93 188.61 15.93"/>
    <path class="cls-2" d="M153.67.95v18.59c-2.51-2.75-6.14-6.5-9.63-9.31-4.25-3.42-12.86-7.87-13.23-8.05l-2.66-1.37v27.63h3.66V6.84c2.87,1.57,7.37,4.16,9.94,6.23,5.8,4.67,12.28,12.4,12.35,12.48l3.23,3.87V.95h-3.66Z"/>
    <path class="cls-1" d="M110.49,10.37V.15c-.67-.09-1.35-.15-2.05-.15s-1.38.06-2.05.15v10.21c-1.22.71-2.05,2.03-2.05,3.55,0,2.26,1.84,4.1,4.1,4.1s4.1-1.84,4.1-4.1c0-1.52-.82-2.84-2.05-3.55h0Z"/>
    <path class="cls-2" d="M115.06.16c-.36-.06-1.01-.1-1.77-.14v3.66c.59.03,1,.05,1.16.08.3.05,7.41,1.37,7.4,11.06,0,8.35-7.18,10.07-7.25,10.08-.76.11-2.96.18-5.88.18-.52,0-.85,0-.85,0h-.05s-.65.01-1.52.01h0c-1.96,0-3.47-.07-4.12-.18-.07-.01-7.13-1.65-7.13-10.48,0-8.13,5.52-10.24,7.28-10.7.16-.02.59-.05,1.28-.08V0c-1.1.04-1.83.1-2.15.19-1.68.43-10.06,3.14-10.06,14.25,0,10.09,7.33,13.58,10.16,14.08.89.16,2.49.24,4.75.24h0c.82,0,1.44,0,1.57-.01.09,0,.4,0,.85,0,2.25,0,5.19-.04,6.41-.22,2.19-.32,10.37-3.59,10.38-13.7,0-10.18-6.56-14.01-10.44-14.67"/>
  </g>
</svg>