<?xml version="1.0" encoding="UTF-8"?>
<svg id="Capa_2" xmlns="http://www.w3.org/2000/svg" viewBox="0 0 212.38 126.26">
  <defs>
    <style>
      .cls-1 {
        fill: #dadada;
      }

      .cls-2 {
        stroke-width: .15px;
      }

      .cls-2, .cls-3, .cls-4 {
        fill: none;
        stroke: #b41f1e;
        stroke-miterlimit: 10;
      }

      .cls-3 {
        stroke-width: .14px;
      }

      .cls-5 {
        fill: #fff;
      }

      .cls-4 {
        stroke-width: .15px;
      }

      .cls-6 {
        fill: #1a1413;
      }

      .cls-7 {
        fill: #1a1414;
      }
    </style>
  </defs>
  <g id="Capa_1-2" data-name="Capa_1">
    <path class="cls-1" d="M6.38,86.63v15.47s17.84,0,17.84,0v-15.58c-.29-2.3-2.42-6.64-8.49-6.64-8.45,0-9.34,6.68-9.35,6.74M21.82,86.76v12.94h-13.05v-12.85c.09-.56.94-4.57,6.96-4.57,5.13,0,5.98,3.78,6.09,4.47"/>
    <path class="cls-1" d="M113.92,99.93h-15.47s0,17.84,0,17.84h15.58c2.3-.29,6.64-2.42,6.64-8.49,0-8.45-6.68-9.34-6.74-9.35M113.79,115.37h-12.94v-13.05h12.85c.56.09,4.57.94,4.57,6.96,0,5.13-3.78,5.98-4.47,6.09"/>
    <path class="cls-1" d="M113.89,7.88h-15.47s0,17.84,0,17.84h15.58c2.3-.29,6.64-2.42,6.64-8.49,0-8.45-6.68-9.34-6.74-9.35M113.76,23.32h-12.94v-13.05h12.85c.56.09,4.57.94,4.57,6.96,0,5.13-3.78,5.98-4.47,6.09"/>
    <path class="cls-1" d="M205.3,95.36v-15.47s-17.84,0-17.84,0v15.58c.29,2.3,2.42,6.64,8.49,6.64,8.45,0,9.34-6.68,9.35-6.74M189.85,95.23v-12.94h13.05v12.85c-.09.56-.94,4.57-6.96,4.57-5.13,0-5.98-3.78-6.09-4.47"/>
    <line class="cls-2" x1="6.38" y1="126.26" x2="6.38"/>
    <line class="cls-4" x1="205.3" y1="126.26" x2="205.3"/>
    <line class="cls-3" x1="212.38" y1="117.77" y2="117.77"/>
    <line class="cls-3" x1="212.38" y1="7.87" y2="7.87"/>
    <path class="cls-6" d="M39.7,81.94h-15.47s0,17.84,0,17.84h15.58c2.3-.29,6.64-2.42,6.64-8.49,0-8.45-6.68-9.34-6.74-9.35M39.57,97.38h-12.94v-13.05h12.85c.56.09,4.57.94,4.57,6.96,0,5.13-3.78,5.98-4.47,6.09"/>
    <rect class="cls-6" x="47.99" y="82.07" width="2.4" height="17.78"/>
    <path class="cls-6" d="M63.96,86.43c-5.42.08-9.31-3.13-9.35-3.16l-1.98-1.68v18.26h2.4v-13.41c1.9,1.09,5.05,2.44,8.96,2.39,3.71-.05,6.55-1.27,8.3-2.31v13.33h2.4v-18.47l-2.03,1.93s-3.25,3.04-8.7,3.12"/>
    <polygon class="cls-6" points="95.31 89.41 79.65 89.41 79.65 84.32 95.31 84.32 95.31 81.92 77.25 81.92 77.25 99.93 95.31 99.93 95.31 97.53 79.65 97.53 79.65 91.65 95.31 91.65 95.31 89.41"/>
    <path class="cls-6" d="M114.47,94.01c-1.65-1.8-4.03-4.27-6.32-6.11-2.79-2.25-8.44-5.16-8.68-5.29l-1.75-.9v18.13h2.4v-14.16c1.88,1.03,4.84,2.73,6.52,4.09,3.81,3.07,8.06,8.14,8.1,8.19l2.12,2.54v-18.69h-2.4v12.2Z"/>
    <path class="cls-6" d="M185.06,81.82v12.2c-1.65-1.8-4.03-4.26-6.32-6.11-2.79-2.24-8.44-5.16-8.68-5.29l-1.75-.9v18.13h2.4v-14.16c1.89,1.03,4.84,2.73,6.52,4.09,3.81,3.07,8.06,8.14,8.1,8.19l2.12,2.54v-18.69h-2.4Z"/>
    <path class="cls-6" d="M134.76,89.84h-11.87c-.27-.02-1.99-.21-1.99-2.79,0-2.32,1.86-2.68,2.31-2.73h13.65v-2.4h-13.81c-1.57.13-4.55,1.36-4.55,5.13,0,3.98,2.82,5.13,4.32,5.18h11.78c.23.03,1.56.33,1.56,2.79,0,2.21-1.59,2.47-2.11,2.5h-15.22v2.4h15.28c1.79-.05,4.45-1.39,4.45-4.9,0-3.87-2.49-5.09-3.81-5.19"/>
    <rect class="cls-6" x="139.86" y="82.15" width="2.4" height="17.73"/>
    <path class="cls-6" d="M159.72,81.3c-.79-.13-3.67-.14-4.54-.14-2.49,0-3.97.06-4.4.17-1.1.28-6.6,2.06-6.6,9.35,0,6.62,4.81,8.91,6.66,9.24.58.1,1.63.15,3.12.15h0c.54,0,.95,0,1.03,0,.06,0,.26,0,.56,0,1.48,0,3.41-.02,4.21-.14,1.44-.21,6.81-2.36,6.81-8.99,0-6.68-4.3-9.19-6.85-9.63M159.41,97.54c-.5.07-1.94.12-3.86.12-.34,0-.55,0-.55,0h-.04s-.43,0-1,0h0c-1.29,0-2.27-.04-2.7-.12-.05,0-4.68-1.08-4.68-6.88,0-5.34,3.62-6.72,4.78-7.02.26-.04,1.49-.1,3.82-.1s3.82.06,4.14.11c.2.03,4.86.9,4.85,7.26,0,5.48-4.71,6.61-4.76,6.62"/>
    <path class="cls-5" d="M106,26.37l-35.62,11.23,35.72,27.71,34.97-27.02-35.07-11.93ZM119.78,51.58l-7.77,5.95-6.63-4.27,5.08-4.17c.92-.83,1.18-1.4,1.18-1.4v-7.93c.07-1.36-1.81-2.11-1.81-2.11-2.35-1.13-5.93-1.08-5.93-1.08-3.31-.05-9.46,2.3-9.46,2.3v7.34l-9.19-5.91c5.85-2.35,8.51-2.98,8.51-2.98,5.8-1.62,9.87-1.71,9.87-1.71,6.51-.35,11.67,1.44,11.67,1.44,5.17,1.43,7.31,3.24,7.31,3.24,4.28,3.2,3.32,6.51,3.32,6.51-.67.61-6.16,4.77-6.16,4.77"/>
    <polygon class="cls-7" points="69.06 46.23 69.06 37.39 106.18 65.63 142.39 38.05 142.39 46.17 106.07 79.16 69.06 46.23"/>
    <path class="cls-7" d="M85.02,40.41l-5.95-3.69s7.85-3.07,14.39-4.32c6.54-1.24,8.91-1.32,12.63-1.17,3.73.15,10.88,1.57,15.59,3.88,4.71,2.3,5.7,4.72,5.99,6.03.29,1.32.22,4.35-.84,5.3l-1.06.95s.77-1.72-.33-3.88c-1.09-2.16-3.47-4.24-7.78-5.7-4.31-1.46-8.15-2.3-12.8-2.23-4.65.07-8.88,1.1-12.13,2.05-3.25.95-7.7,2.78-7.7,2.78"/>
    <path class="cls-7" d="M94.44,39.08v7.31l10.7,7.06s2.34-1.83,3.98-3.18,2.35-2.17,2.53-2.57v-8.07s.2,1.27-2.64,2.86c-2.82,1.59-3.72,2.11-3.72,2.11l-10.84-5.51Z"/>
    <path class="cls-7" d="M106.1,66.13l-37.08-28.77,36.99-11.66.1.03,36.31,12.34-36.31,28.05ZM70.38,37.6l35.72,27.71,34.97-27.02-35.07-11.93-35.62,11.23Z"/>
    <path class="cls-7" d="M112.04,58.31l-.19-.12-33.49-21.55.59-.23c.08-.03,7.95-3.1,14.44-4.33,4.78-.91,7.48-1.23,10.33-1.23.68,0,1.41.02,2.38.06,4.04.16,11.2,1.7,15.72,3.91,3.55,1.74,5.62,3.84,6.16,6.25.31,1.39.26,4.54-.94,5.61l-1.06.95-13.93,10.68ZM79.77,36.79l32.24,20.74,13.56-10.39,1.04-.93c.94-.85,1.02-3.75.74-4.99-.49-2.21-2.45-4.17-5.82-5.82-4.44-2.17-11.49-3.69-15.46-3.84-.96-.04-1.68-.06-2.35-.06-2.41,0-4.85.2-10.21,1.22-5.4,1.03-11.79,3.34-13.74,4.07"/>
    <path class="cls-7" d="M105.06,44.74l-10.69-5.46.09-.18-.08-.2c.25-.1,6.06-2.32,9.52-2.32h.07c3.63.03,5.94.91,6.9,1.72.89.75,1.01,1.58.39,2.55-.46.71-1.76,1.66-3.57,2.61-1.77.93-2.54,1.25-2.57,1.26l-.07.03ZM94.74,39.11l10.33,5.28c.22-.1,1-.45,2.47-1.22,1.74-.91,3.02-1.85,3.45-2.5.54-.83.44-1.48-.33-2.13-.91-.77-3.15-1.61-6.69-1.64h-.07c-3.01,0-8,1.78-9.16,2.21"/>
  </g>
</svg>