<?xml version="1.0" encoding="UTF-8"?>
<svg id="Capa_2" xmlns="http://www.w3.org/2000/svg" viewBox="0 0 284.76 74.2">
  <defs>
    <style>
      .cls-1 {
        fill: #fff;
      }

      .cls-2 {
        fill: #d00e4d;
      }

      .cls-3 {
        fill: #d00e4c;
      }
    </style>
  </defs>
  <g id="Capa_1-2" data-name="Capa_1">
    <path class="cls-1" d="M51.32.94L1.89,16.52l49.57,38.46,48.53-37.49L51.32.94ZM70.44,35.92l-10.78,8.26-9.21-5.92,7.05-5.78c1.28-1.15,1.64-1.94,1.64-1.94v-11c.09-1.88-2.51-2.93-2.51-2.93-3.27-1.58-8.24-1.5-8.24-1.5-4.6-.08-13.13,3.19-13.13,3.19v10.18l-12.75-8.2c8.12-3.27,11.82-4.14,11.82-4.14,8.05-2.25,13.69-2.37,13.69-2.37,9.03-.48,16.2,2,16.2,2,7.17,1.98,10.15,4.49,10.15,4.49,5.94,4.45,4.6,9.03,4.6,9.03-.93.84-8.54,6.62-8.54,6.62"/>
    <polygon class="cls-3" points=".06 28.49 .06 16.23 51.58 55.42 101.82 17.15 101.83 28.41 51.42 74.2 .06 28.49"/>
    <path class="cls-3" d="M22.21,20.42l-8.26-5.12s10.89-4.26,19.96-5.99c9.07-1.72,12.36-1.82,17.53-1.62,5.17.2,15.1,2.18,21.64,5.38,6.54,3.2,7.91,6.54,8.31,8.37s.3,6.04-1.17,7.36l-1.47,1.32s1.06-2.38-.46-5.38c-1.52-2.99-4.82-5.88-10.79-7.92-5.98-2.03-11.31-3.2-17.77-3.09-6.45.1-12.33,1.52-16.84,2.84-4.51,1.32-10.69,3.85-10.69,3.85"/>
    <path class="cls-3" d="M35.28,18.58v10.15l14.84,9.8s3.24-2.54,5.52-4.42c2.28-1.88,3.26-3.01,3.51-3.57v-11.2s.27,1.76-3.66,3.97c-3.92,2.2-5.16,2.93-5.16,2.93l-15.05-7.65Z"/>
    <path class="cls-3" d="M51.46,56.11L0,16.18,51.33,0l.14.05,50.38,17.13-50.39,38.93ZM1.89,16.52l49.57,38.46,48.53-37.49L51.32.94,1.89,16.52Z"/>
    <path class="cls-3" d="M59.71,45.26l-.26-.17L12.97,15.2l.81-.32c.11-.04,11.04-4.3,20.04-6.01,6.63-1.26,10.38-1.71,14.33-1.71.94,0,1.96.02,3.3.08,5.61.22,15.54,2.35,21.81,5.42,4.93,2.41,7.81,5.33,8.55,8.68.43,1.92.36,6.3-1.3,7.79l-1.47,1.32-19.34,14.82ZM14.93,15.4l44.74,28.78,18.81-14.42,1.44-1.3c1.31-1.17,1.41-5.21,1.03-6.93-.68-3.07-3.4-5.78-8.07-8.07-6.17-3.02-15.94-5.12-21.46-5.33-1.33-.05-2.33-.08-3.26-.08-3.34,0-6.73.28-14.17,1.69-7.5,1.42-16.36,4.64-19.06,5.65"/>
    <path class="cls-3" d="M50.01,26.43l-14.84-7.58.13-.25-.11-.28c.34-.13,8.41-3.23,13.21-3.23h.1c5.03.04,8.24,1.26,9.57,2.38,1.23,1.04,1.41,2.19.54,3.53-.63.98-2.44,2.3-4.95,3.62-2.46,1.3-3.52,1.73-3.56,1.75l-.09.04ZM35.7,18.62l14.33,7.32c.31-.13,1.39-.62,3.43-1.69,2.41-1.27,4.2-2.57,4.78-3.47.74-1.15.61-2.05-.45-2.95-1.27-1.07-4.37-2.23-9.29-2.28h-.09c-4.18,0-11.11,2.48-12.71,3.07"/>
    <rect class="cls-2" x="185.82" y="35.39" width="6.49" height="3.28"/>
    <path class="cls-3" d="M133.65,24.85h-21.58s0,24.89,0,24.89h21.73c3.2-.4,9.26-3.38,9.26-11.85,0-11.78-9.31-13.03-9.41-13.04M133.47,46.39h-18.06v-18.21h17.92c.79.12,6.38,1.31,6.38,9.71,0,7.16-5.27,8.35-6.24,8.5"/>
    <rect class="cls-3" x="145.22" y="25.03" width="3.35" height="24.81"/>
    <path class="cls-3" d="M167.51,31.12c-7.56.12-12.99-4.37-13.04-4.41l-2.76-2.34v25.48h3.35v-18.71c2.66,1.53,7.05,3.41,12.5,3.34,5.18-.07,9.13-1.77,11.58-3.23v18.6h3.35v-25.76l-2.83,2.7s-4.54,4.24-12.14,4.35"/>
    <polygon class="cls-3" points="284.76 38.4 284.76 35.27 262.82 35.27 262.82 28.17 284.67 28.17 284.67 24.82 259.48 24.82 259.48 49.95 284.67 49.95 284.67 46.6 262.82 46.6 262.82 38.4 284.76 38.4"/>
    <path class="cls-3" d="M252.77,24.68v17.02c-2.3-2.52-5.62-5.95-8.81-8.52-3.89-3.13-11.78-7.2-12.11-7.37l-2.44-1.26v25.3h3.35v-19.76c2.63,1.44,6.75,3.81,9.1,5.7,5.31,4.28,11.24,11.36,11.3,11.43l2.96,3.54v-26.07h-3.35Z"/>
    <path class="cls-2" d="M213.23,33.31v-9.36c-.61-.08-1.24-.14-1.88-.14s-1.26.05-1.88.14v9.35c-1.12.65-1.88,1.86-1.88,3.25,0,2.07,1.68,3.75,3.75,3.75s3.75-1.68,3.75-3.75c0-1.39-.75-2.6-1.88-3.25h0Z"/>
    <path class="cls-3" d="M217.41,23.95c-.33-.05-.93-.09-1.62-.12v3.35c.54.02.91.05,1.06.08.28.05,6.78,1.25,6.77,10.13,0,7.64-6.58,9.22-6.64,9.23-.69.1-2.71.16-5.38.16-.47,0-.77,0-.77,0h-.05s-.59.01-1.39.01h0c-1.8,0-3.17-.06-3.77-.17-.07-.01-6.53-1.51-6.53-9.6,0-7.45,5.05-9.37,6.66-9.79.15-.02.54-.05,1.17-.07v-3.35c-1.01.04-1.67.1-1.97.17-1.54.39-9.21,2.88-9.21,13.04,0,9.24,6.71,12.44,9.3,12.89.81.15,2.28.22,4.35.22h0c.75,0,1.32-.01,1.44-.01.08,0,.37,0,.78,0,2.06,0,4.75-.04,5.87-.2,2.01-.29,9.49-3.29,9.5-12.54,0-9.32-6.01-12.83-9.56-13.43"/>
  </g>
</svg>