<?xml version="1.0" encoding="UTF-8"?>
<svg id="Capa_2" xmlns="http://www.w3.org/2000/svg" viewBox="0 0 289.36 119.26">
  <defs>
    <style>
      .cls-1 {
        fill: #656265;
      }

      .cls-2 {
        fill: #fff;
      }

      .cls-3 {
        stroke-width: .13px;
      }

      .cls-3, .cls-4, .cls-5 {
        fill: none;
        stroke: #b32020;
        stroke-miterlimit: 10;
      }

      .cls-4 {
        stroke-width: .13px;
      }

      .cls-6 {
        fill: #d00e4d;
      }

      .cls-7 {
        fill: #d7d5d6;
      }

      .cls-8 {
        fill: #1f448f;
      }

      .cls-9 {
        fill: #1d4082;
      }

      .cls-10 {
        fill: #d00e4c;
      }

      .cls-5 {
        stroke-width: .07px;
      }

      .cls-11 {
        fill: #cd1429;
      }

      .cls-12 {
        fill: #e2232c;
      }

      .cls-13 {
        fill: #fbd01a;
      }

      .cls-14 {
        fill: #d22f1f;
      }
    </style>
  </defs>
  <g id="Capa_1-2" data-name="Capa_1">
    <path class="cls-7" d="M76.56,88.51h-17.76s0,20.48,0,20.48h17.88c2.64-.33,7.62-2.78,7.62-9.75,0-9.7-7.66-10.73-7.74-10.74M76.42,106.24h-14.86v-14.98h14.75c.65.1,5.25,1.08,5.25,7.99,0,5.89-4.34,6.87-5.13,6.99"/>
    <path class="cls-7" d="M282.24,62.81v-17.76s-20.48,0-20.48,0v17.88c.33,2.64,2.78,7.62,9.75,7.62,9.7,0,10.72-7.66,10.73-7.74M264.51,62.67v-14.86h14.98v14.75c-.1.65-1.08,5.25-7.99,5.25-5.9,0-6.87-4.34-6.99-5.14"/>
    <path class="cls-7" d="M6.03,42.98v17.76s20.48,0,20.48,0v-17.88c-.33-2.64-2.78-7.62-9.75-7.62-9.7,0-10.72,7.66-10.73,7.74M23.76,43.13v14.86h-14.99v-14.75c.1-.65,1.08-5.25,7.99-5.25,5.9,0,6.87,4.34,7,5.13"/>
    <path class="cls-7" d="M74.54,6.63h-17.76s0,20.48,0,20.48h17.88c2.64-.33,7.62-2.78,7.62-9.75,0-9.7-7.66-10.73-7.74-10.74M74.39,24.36h-14.86v-14.98h14.75c.65.1,5.25,1.08,5.25,7.99,0,5.89-4.34,6.87-5.13,6.99"/>
    <rect class="cls-5" x="110.74" y="42.7" width="8.52" height="8.52"/>
    <line class="cls-3" x1="6.11" x2="6.11" y2="119.26"/>
    <line class="cls-3" x1="282.25" x2="282.25" y2="119.26"/>
    <line class="cls-4" y1="108.99" x2="289.36" y2="108.99"/>
    <line class="cls-4" y1="6.26" x2="287.1" y2="6.26"/>
    <path class="cls-2" d="M69.03,27.85l-40.82,12.87,40.94,31.76,40.08-30.96-40.2-13.67ZM84.82,56.74l-8.9,6.82-7.61-4.89,5.82-4.78c1.06-.95,1.36-1.6,1.36-1.6v-9.08c.07-1.55-2.08-2.42-2.08-2.42-2.7-1.3-6.8-1.24-6.8-1.24-3.79-.06-10.84,2.64-10.84,2.64v8.41l-10.53-6.77c6.71-2.7,9.76-3.42,9.76-3.42,6.65-1.86,11.31-1.96,11.31-1.96,7.45-.4,13.38,1.65,13.38,1.65,5.92,1.64,8.38,3.71,8.38,3.71,4.91,3.67,3.8,7.46,3.8,7.46-.77.7-7.05,5.47-7.05,5.47"/>
    <polygon class="cls-10" points="26.69 50.61 26.69 40.48 69.24 72.84 110.74 41.24 110.74 50.54 69.11 88.35 26.69 50.61"/>
    <path class="cls-10" d="M44.98,43.94l-6.82-4.23s9-3.52,16.49-4.95c7.49-1.42,10.21-1.51,14.48-1.34,4.27.17,12.47,1.8,17.87,4.44,5.4,2.64,6.53,5.4,6.86,6.92.33,1.51.25,4.99-.96,6.08l-1.21,1.09s.88-1.97-.38-4.44c-1.25-2.47-3.98-4.86-8.91-6.54-4.94-1.67-9.35-2.64-14.67-2.55-5.33.08-10.18,1.26-13.91,2.35-3.72,1.09-8.83,3.18-8.83,3.18"/>
    <path class="cls-10" d="M55.78,42.42v8.38l12.26,8.09s2.68-2.1,4.56-3.65c1.88-1.55,2.69-2.49,2.9-2.95v-9.25s.22,1.45-3.02,3.28c-3.24,1.82-4.27,2.42-4.27,2.42l-12.43-6.32Z"/>
    <path class="cls-10" d="M69.14,73.41L26.64,40.44l42.39-13.37.11.04,41.61,14.15-41.62,32.15ZM28.2,40.72l40.94,31.76,40.08-30.97-40.2-13.67-40.82,12.87Z"/>
    <path class="cls-10" d="M75.96,64.46l-.22-.14-38.38-24.7.67-.26c.09-.04,9.12-3.55,16.55-4.96,5.47-1.04,8.57-1.41,11.84-1.41.78,0,1.62.02,2.72.06,4.63.18,12.84,1.94,18.01,4.48,4.07,1.99,6.45,4.4,7.06,7.17.36,1.59.29,5.2-1.07,6.43l-1.21,1.09-15.97,12.24ZM38.97,39.79l36.95,23.77,15.54-11.91,1.19-1.07c1.08-.97,1.16-4.3.85-5.72-.56-2.53-2.8-4.78-6.67-6.66-5.09-2.49-13.16-4.23-17.72-4.41-1.1-.04-1.93-.06-2.7-.06-2.76,0-5.56.23-11.7,1.4-6.19,1.18-13.51,3.83-15.74,4.67"/>
    <path class="cls-10" d="M67.95,48.91l-12.25-6.26.11-.2-.09-.23c.29-.11,6.95-2.66,10.91-2.66h.08c4.16.04,6.81,1.04,7.91,1.97,1.02.86,1.16,1.81.45,2.92-.52.81-2.01,1.9-4.09,2.99-2.03,1.07-2.9,1.43-2.94,1.45l-.08.03ZM56.12,42.45l11.84,6.04c.25-.11,1.15-.51,2.83-1.4,1.99-1.05,3.47-2.12,3.95-2.87.61-.95.5-1.7-.38-2.43-1.05-.88-3.61-1.84-7.67-1.88h-.07c-3.45,0-9.17,2.04-10.5,2.53"/>
    <rect class="cls-6" x="180.11" y="56.3" width="5.36" height="2.71"/>
    <path class="cls-10" d="M137.02,47.6h-17.83s0,20.56,0,20.56h17.95c2.65-.33,7.65-2.8,7.65-9.79,0-9.73-7.69-10.76-7.77-10.77M136.88,65.39h-14.91v-15.04h14.8c.65.1,5.27,1.08,5.27,8.02,0,5.92-4.35,6.89-5.15,7.02"/>
    <rect class="cls-10" x="146.58" y="47.74" width="2.77" height="20.49"/>
    <path class="cls-10" d="M164.99,52.78c-6.25.1-10.73-3.61-10.77-3.65l-2.28-1.94v21.04h2.76v-15.45c2.2,1.26,5.83,2.81,10.32,2.76,4.28-.06,7.54-1.47,9.56-2.67v15.36h2.76v-21.28l-2.34,2.23s-3.75,3.51-10.03,3.59"/>
    <polygon class="cls-10" points="261.83 58.79 261.83 56.21 243.71 56.21 243.71 50.34 261.76 50.34 261.76 47.58 240.95 47.58 240.95 68.33 261.76 68.33 261.76 65.56 243.71 65.56 243.71 58.79 261.83 58.79"/>
    <path class="cls-10" d="M235.41,47.46v14.06c-1.9-2.08-4.64-4.92-7.28-7.04-3.21-2.59-9.73-5.95-10-6.09l-2.02-1.04v20.89h2.77v-16.32c2.17,1.19,5.58,3.14,7.52,4.71,4.39,3.53,9.29,9.38,9.34,9.44l2.44,2.93v-21.53h-2.77Z"/>
    <path class="cls-6" d="M202.75,54.58v-7.73c-.5-.07-1.02-.11-1.55-.11s-1.04.04-1.55.11v7.72c-.93.54-1.55,1.53-1.55,2.68,0,1.71,1.39,3.1,3.1,3.1s3.1-1.39,3.1-3.1c0-1.15-.62-2.15-1.55-2.68h0Z"/>
    <path class="cls-10" d="M206.21,46.86c-.27-.04-.77-.08-1.34-.1v2.77c.44.02.75.04.88.06.23.04,5.6,1.04,5.6,8.36,0,6.31-5.43,7.62-5.49,7.63-.57.08-2.23.13-4.44.13-.39,0-.64,0-.64,0h-.04s-.49.01-1.15.01h0c-1.48,0-2.62-.05-3.11-.14-.05,0-5.39-1.25-5.39-7.93,0-6.15,4.17-7.74,5.5-8.09.12-.02.45-.04.96-.06v-2.77c-.83.03-1.38.08-1.62.14-1.27.33-7.61,2.38-7.61,10.77,0,7.63,5.54,10.27,7.68,10.65.67.12,1.88.18,3.59.18h0c.62,0,1.09,0,1.19,0,.07,0,.3,0,.64,0,1.7,0,3.92-.03,4.85-.16,1.66-.24,7.84-2.71,7.85-10.36,0-7.7-4.96-10.59-7.89-11.09"/>
    <g>
      <path class="cls-1" d="M119.79,81.92h-.59s0,0,0-.11v-3.47c0-.23.09-.45.26-.66.17-.22.38-.39.64-.53.25-.14.49-.2.7-.2h1.11c.34-.02.64.03.9.14.26.11.47.26.63.44.16.18.28.37.36.57s.12.38.12.53v.21s0,.02-.02.12c0,.1-.04.21-.07.34-.04.13-.1.27-.19.42-.09.15-.21.29-.37.42-.16.13-.36.24-.6.31s-.53.1-.86.09h-2.02v1.37ZM119.79,79.95h2.26c.37,0,.65-.08.84-.23.19-.15.31-.31.37-.47.05-.17.08-.3.08-.4v-.18c0-.12-.03-.27-.09-.44s-.18-.33-.37-.47c-.19-.15-.47-.22-.83-.22h-1.22c-.16,0-.32.05-.48.14-.16.1-.3.22-.4.37-.1.15-.16.29-.16.43v1.47Z"/>
      <path class="cls-1" d="M129.05,77.45h-2.09c-.1,0-.22,0-.35,0s-.25.02-.36.05-.21.09-.3.17c-.08.08-.14.18-.18.29-.04.11-.05.21-.06.29s0,.23,0,.44v1.82s-.01.05-.05.05h-.51s-.05-.02-.05-.05v-1.87c0-.08,0-.21,0-.4s.04-.38.11-.57c.07-.19.2-.36.39-.51.12-.09.25-.16.39-.21s.27-.08.4-.1c.13-.02.24-.03.35-.03h2.3v.61Z"/>
      <path class="cls-1" d="M132.85,76.9c.33-.02.61.01.86.09.24.08.44.18.6.32s.28.28.36.43.15.3.19.43c.04.13.06.25.07.35.01.1.02.14.02.12v.22c0,.16-.04.34-.12.54s-.2.4-.36.58c-.16.18-.37.33-.63.45-.26.11-.56.16-.9.14h-.69c-.34.02-.64-.03-.9-.14-.26-.11-.47-.26-.63-.45-.16-.18-.28-.38-.36-.58s-.12-.38-.12-.54v-.22s0-.03.02-.12c0-.1.04-.21.07-.35.04-.13.1-.28.19-.43s.21-.3.37-.43.36-.24.6-.32c.24-.08.53-.11.86-.09h.5ZM133.08,79.95c.46,0,.78-.11.96-.33.18-.22.29-.46.32-.71v-.1s0-.17,0-.17v-.11c-.04-.24-.14-.47-.32-.69-.18-.22-.5-.33-.96-.33h-.97c-.46,0-.78.11-.96.33-.18.22-.29.45-.31.69v.11s-.01.16-.01.16v.11c.04.25.14.49.33.71.19.22.5.33.96.33h.97Z"/>
      <path class="cls-1" d="M140.34,75.55h.6s0,0,0,.11v3.54c0,.24-.03.45-.08.63-.05.17-.14.31-.25.42-.12.11-.27.19-.47.24-.19.05-.44.08-.73.08h-1.2c-.34.02-.64-.03-.91-.14s-.47-.26-.64-.44c-.17-.18-.29-.37-.37-.57-.08-.2-.12-.38-.12-.54v-.21s0-.03.02-.12c0-.1.04-.21.08-.34.04-.13.11-.27.2-.43.09-.15.21-.29.37-.43s.36-.24.61-.31c.25-.08.54-.11.87-.09h2.04v-1.38ZM140.34,77.53h-2.28c-.37,0-.65.08-.84.23s-.32.31-.37.48c-.06.17-.08.3-.08.41v.18c0,.12.03.27.09.44.06.17.18.33.38.48s.47.22.83.22h1.57c.18,0,.32-.04.42-.12.1-.08.17-.18.22-.32.04-.14.06-.31.06-.51v-1.48Z"/>
      <path class="cls-1" d="M145.55,79.87c.16-.06.29-.14.4-.26.11-.11.19-.25.25-.42s.08-.34.08-.5v-1.88h.62v1.88c0,.34-.08.66-.24.95-.17.29-.39.52-.68.69-.28.17-.59.25-.92.25h-1.17c-.33,0-.64-.08-.92-.25-.28-.17-.5-.4-.67-.69-.16-.29-.25-.6-.25-.95v-1.88h.61s0,0,0,.05v1.83c0,.17.03.33.09.5s.14.31.25.42c.11.11.24.2.4.26.16.06.32.09.49.09h1.17c.16,0,.32-.03.48-.09Z"/>
      <path class="cls-1" d="M149.3,77.6c-.16.06-.3.14-.41.25s-.19.24-.25.41c-.06.17-.09.33-.09.49s.03.33.09.49c.06.17.14.3.25.41.11.11.24.19.41.25s.33.09.49.09h3v.6h-3c-.33,0-.64-.08-.92-.25-.28-.16-.5-.38-.67-.67-.16-.28-.24-.59-.24-.92s.08-.64.24-.92c.17-.28.39-.5.67-.67.28-.17.59-.25.92-.25h3v.6h-3c-.16,0-.33.03-.49.09Z"/>
      <path class="cls-1" d="M157.05,79.95v.6h-1.12c-.33,0-.63-.08-.91-.24-.28-.16-.5-.38-.66-.66-.16-.27-.25-.57-.26-.9v-3.27h.6s0,0,0,.05v1.35h1.41s0,0,0,.05v.55s-.02,0-.05,0h-1.36v1.29c0,.26.07.49.21.66s.28.31.43.4c.08.05.19.08.34.1.15.01.27.02.37.01h1Z"/>
      <path class="cls-1" d="M160.94,76.9c.33-.02.61.01.86.09.24.08.44.18.6.32s.28.28.36.43.15.3.19.43c.04.13.06.25.07.35.01.1.02.14.02.12v.22c0,.16-.04.34-.12.54s-.2.4-.36.58c-.16.18-.37.33-.63.45-.26.11-.56.16-.9.14h-.69c-.34.02-.64-.03-.9-.14-.26-.11-.47-.26-.63-.45-.16-.18-.28-.38-.36-.58s-.12-.38-.12-.54v-.22s0-.03.02-.12c0-.1.04-.21.07-.35.04-.13.1-.28.19-.43s.21-.3.37-.43.36-.24.6-.32c.24-.08.53-.11.86-.09h.5ZM161.18,79.95c.46,0,.78-.11.96-.33.18-.22.29-.46.32-.71v-.1s0-.17,0-.17v-.11c-.04-.24-.14-.47-.32-.69-.18-.22-.5-.33-.96-.33h-.97c-.46,0-.78.11-.96.33-.18.22-.29.45-.31.69v.11s-.01.16-.01.16v.11c.04.25.14.49.33.71.19.22.5.33.96.33h.97Z"/>
      <path class="cls-1" d="M168.14,78.46c.25.02.46.1.65.24.19.15.28.43.28.86,0,.23-.06.42-.17.57-.11.15-.25.26-.42.34-.17.07-.33.11-.5.11h-3.73v-.61s3.71,0,3.71,0c.13,0,.25-.03.35-.09s.16-.19.16-.4c0-.13-.04-.23-.11-.29s-.16-.09-.26-.1c-.1-.01-.16-.02-.18-.02h-2.7c-.15,0-.3-.04-.46-.12s-.3-.2-.42-.37c-.12-.17-.17-.4-.17-.67,0-.24.06-.44.18-.59.12-.16.27-.27.44-.34s.33-.11.49-.12h3.37v.61h-3.34c-.14,0-.26.03-.38.09-.12.06-.18.21-.18.44,0,.19.05.31.16.37s.22.09.32.09h2.9Z"/>
      <path class="cls-1" d="M176.72,76.87v3.19c-.02.37-.11.68-.27.95-.19.33-.42.57-.67.72-.25.15-.57.22-.94.22h-2.6s-.05-.02-.05-.05v-.52s.02-.05.05-.05h2.6c.13,0,.25,0,.35-.03.1-.02.2-.05.28-.11.12-.07.21-.14.27-.2.07-.06.12-.14.17-.23l.09-.18h-2.37c-.28,0-.54-.05-.76-.16s-.4-.24-.55-.38c-.14-.14-.26-.32-.38-.55s-.17-.46-.17-.7v-1.93s0-.05,0-.05h.62s0,0,0,.05v1.96c0,.13.03.26.07.39s.09.22.14.27c.03.03.07.08.14.15.07.07.16.14.29.2.12.06.28.1.46.12h2.6s0-3.09,0-3.09c0-.03.02-.05.05-.05h.52s.05.02.05.05Z"/>
      <path class="cls-1" d="M183.47,78.46c.25.02.46.1.65.24.19.15.28.43.28.86,0,.23-.06.42-.17.57s-.25.26-.42.34c-.17.07-.33.11-.5.11h-3.73v-.61s3.72,0,3.72,0c.13,0,.25-.03.35-.09s.16-.19.16-.4c0-.13-.04-.23-.11-.29-.08-.06-.16-.09-.26-.1-.1-.01-.16-.02-.18-.02h-2.7c-.15,0-.3-.04-.46-.12-.16-.08-.3-.2-.42-.37-.12-.17-.17-.4-.17-.67,0-.24.06-.44.18-.59.12-.16.27-.27.44-.34.17-.07.33-.11.49-.12h3.37v.61h-3.34c-.14,0-.26.03-.38.09-.12.06-.18.21-.18.44,0,.19.05.31.16.37s.22.09.32.09h2.9Z"/>
      <path class="cls-1" d="M189.75,77.11c.18.14.29.3.35.48.06.17.09.33.09.46,0,.65-.36,1-1.09,1.03h-2.91s0,.15,0,.15c0,.17.01.3.05.4.03.1.08.17.15.21s.17.08.29.09c.12.01.29.02.51.02h2.71c.08,0,.12.04.12.11v.37c0,.08-.04.12-.12.12h-2.8c-.39,0-.7-.04-.92-.13-.22-.09-.38-.23-.48-.42s-.14-.45-.14-.77v-.93c0-.22.08-.43.25-.65.17-.22.38-.4.64-.54.26-.14.52-.22.79-.22h1.77c.32,0,.57.07.75.22ZM189.32,78.44c.05-.02.11-.06.16-.12.04-.04.07-.09.08-.15.02-.06.03-.13.03-.23,0-.04-.01-.1-.04-.17-.02-.07-.07-.13-.14-.19-.07-.06-.16-.09-.28-.09h-1.93c-.14,0-.29.04-.45.13-.16.09-.3.2-.41.35s-.17.31-.17.49h2.87c.12,0,.21,0,.26-.03Z"/>
      <path class="cls-1" d="M195.45,77.45h-2.09c-.1,0-.22,0-.35,0s-.25.02-.37.05c-.11.03-.21.09-.3.17-.08.08-.14.18-.18.29-.03.11-.05.21-.06.29s0,.23,0,.44v1.82s-.02.05-.05.05h-.51s-.05-.02-.05-.05v-1.87c0-.08,0-.21,0-.4,0-.19.04-.38.11-.57.07-.19.2-.36.39-.51.12-.09.25-.16.39-.21s.27-.08.4-.1c.13-.02.24-.03.35-.03h2.3v.61Z"/>
      <path class="cls-1" d="M196.92,76.81l2.17,3.25h.07l2.17-3.25h.73l-2.17,3.25c-.18.27-.29.44-.34.51h-.85c-.1-.14-.21-.31-.34-.51l-2.17-3.25h.73Z"/>
      <path class="cls-1" d="M203.52,75.11v.65h-.65v-.65h.65ZM203.52,76.61v3.95h-.65v-3.95h.65Z"/>
      <path class="cls-1" d="M206.12,77.6c-.16.06-.3.14-.41.25-.11.11-.19.24-.25.41-.06.17-.09.33-.09.49s.03.33.09.49.14.3.25.41.24.19.41.25.33.09.49.09h3v.6h-3c-.33,0-.64-.08-.92-.25-.28-.16-.5-.38-.67-.67-.16-.28-.24-.59-.24-.92s.08-.64.24-.92c.17-.28.39-.5.67-.67.28-.17.59-.25.92-.25h3v.6h-3c-.16,0-.33.03-.49.09Z"/>
      <path class="cls-1" d="M211.55,75.11v.65h-.65v-.65h.65ZM211.55,76.61v3.95h-.65v-3.95h.65Z"/>
      <path class="cls-1" d="M215.5,76.9c.33-.02.61.01.86.09.24.08.44.18.6.32s.28.28.36.43.15.3.19.43c.04.13.06.25.07.35.01.1.02.14.02.12v.22c0,.16-.04.34-.12.54s-.2.4-.36.58c-.16.18-.37.33-.63.45-.26.11-.56.16-.9.14h-.69c-.34.02-.64-.03-.9-.14-.26-.11-.47-.26-.63-.45-.16-.18-.28-.38-.36-.58s-.12-.38-.12-.54v-.22s0-.03.02-.12c0-.1.04-.21.07-.35.04-.13.1-.28.19-.43s.21-.3.37-.43.36-.24.6-.32c.24-.08.53-.11.86-.09h.5ZM215.73,79.95c.46,0,.78-.11.96-.33.18-.22.29-.46.32-.71v-.1s0-.17,0-.17v-.11c-.04-.24-.14-.47-.32-.69-.18-.22-.5-.33-.96-.33h-.97c-.46,0-.78.11-.96.33-.18.22-.29.45-.31.69v.11s-.01.16-.01.16v.11c.04.25.14.49.33.71.19.22.5.33.96.33h.97Z"/>
      <path class="cls-1" d="M222.69,78.46c.25.02.46.1.65.24.19.15.28.43.28.86,0,.23-.06.42-.17.57-.11.15-.25.26-.42.34-.17.07-.33.11-.5.11h-3.73v-.61s3.71,0,3.71,0c.13,0,.25-.03.35-.09s.16-.19.16-.4c0-.13-.04-.23-.11-.29s-.16-.09-.26-.1c-.1-.01-.16-.02-.18-.02h-2.7c-.15,0-.3-.04-.46-.12s-.3-.2-.42-.37c-.12-.17-.17-.4-.17-.67,0-.24.06-.44.18-.59.12-.16.27-.27.44-.34s.33-.11.49-.12h3.37v.61h-3.34c-.14,0-.26.03-.38.09-.12.06-.18.21-.18.44,0,.19.05.31.16.37s.22.09.32.09h2.9Z"/>
    </g>
    <rect class="cls-13" x="251.78" y="74.45" width="9.72" height="3.08"/>
    <rect class="cls-9" x="251.78" y="77.53" width="9.72" height="1.54"/>
    <rect class="cls-11" x="251.78" y="79.06" width="9.72" height="1.54"/>
    <rect class="cls-12" x="239.9" y="74.45" width="3.24" height="6.15"/>
    <rect class="cls-12" x="246.37" y="74.45" width="3.24" height="6.15"/>
    <rect class="cls-2" x="243.14" y="74.45" width="3.24" height="6.15"/>
    <polyline class="cls-14" points="237.72 80.6 228.01 80.6 228.01 77.53 237.72 77.53"/>
    <rect class="cls-8" x="228.01" y="74.45" width="3.24" height="3.08"/>
    <rect class="cls-2" x="231.25" y="74.45" width="6.47" height="3.08"/>
    <polygon class="cls-2" points="228.85 75.75 229.45 75.75 229.63 75.22 229.81 75.75 230.39 75.75 229.92 76.08 230.1 76.61 229.62 76.28 229.15 76.61 229.33 76.08 228.85 75.75"/>
  </g>
</svg>