<?xml version="1.0" encoding="UTF-8"?>
<svg id="Capa_2" xmlns="http://www.w3.org/2000/svg" viewBox="0 0 313.87 68.82">
  <defs>
    <style>
      .cls-1 {
        fill: #fff;
      }

      .cls-2 {
        fill: #d61746;
      }

      .cls-3 {
        fill: #c92c5f;
      }
    </style>
  </defs>
  <g id="Capa_1-2" data-name="Capa_1">
    <path class="cls-2" d="M123.84,22.99h-19.9s0,22.95,0,22.95h20.03c2.95-.37,8.54-3.12,8.54-10.92,0-10.86-8.59-12.01-8.67-12.03M123.68,42.85h-16.65v-16.79h16.52c.73.11,5.88,1.2,5.88,8.95,0,6.6-4.86,7.69-5.75,7.83"/>
    <rect class="cls-2" x="134.5" y="23.16" width="3.09" height="22.86"/>
    <path class="cls-2" d="M155.05,28.77c-6.97.11-11.97-4.03-12.02-4.07l-2.54-2.16v23.48h3.09v-17.25c2.45,1.41,6.5,3.14,11.52,3.08,4.78-.07,8.42-1.64,10.67-2.98v17.14h3.09v-23.75l-2.61,2.49s-4.19,3.91-11.2,4.01"/>
    <polygon class="cls-2" points="195.37 32.6 175.23 32.6 175.23 26.06 195.37 26.06 195.37 22.97 172.15 22.97 172.15 46.13 195.37 46.13 195.37 43.04 175.23 43.04 175.23 35.48 195.37 35.48 195.37 32.6"/>
    <path class="cls-2" d="M220.01,38.52c-2.12-2.32-5.18-5.49-8.12-7.86-3.58-2.89-10.86-6.64-11.16-6.8l-2.25-1.16v23.32h3.09v-18.22c2.42,1.33,6.22,3.51,8.39,5.26,4.9,3.94,10.36,10.47,10.42,10.53l2.73,3.27v-24.03h-3.09v15.69Z"/>
    <path class="cls-2" d="M310.79,22.83v15.69c-2.12-2.32-5.18-5.49-8.12-7.86-3.58-2.89-10.86-6.64-11.16-6.8l-2.25-1.16v23.32h3.09v-18.21c2.42,1.33,6.23,3.51,8.39,5.25,4.9,3.94,10.36,10.47,10.42,10.53l2.73,3.27v-24.03h-3.09Z"/>
    <path class="cls-2" d="M246.1,33.16h-15.27c-.35-.02-2.55-.27-2.55-3.59,0-2.98,2.39-3.45,2.97-3.51h17.56v-3.08h-17.76c-2.02.17-5.86,1.75-5.86,6.6,0,5.12,3.63,6.6,5.55,6.67h15.15c.3.04,2.01.42,2.01,3.59,0,2.84-2.05,3.18-2.71,3.21h-19.58v3.09h19.65c2.3-.06,5.72-1.78,5.73-6.3,0-4.98-3.2-6.54-4.9-6.67"/>
    <rect class="cls-2" x="252.67" y="23.26" width="3.09" height="22.81"/>
    <path class="cls-2" d="M278.2,22.17c-1.01-.17-4.73-.19-5.84-.19-3.2,0-5.1.07-5.65.21-1.42.36-8.49,2.65-8.49,12.02,0,8.51,6.19,11.47,8.57,11.89.75.13,2.1.2,4.01.2.69,0,1.22,0,1.33-.01.07,0,.34,0,.72,0,1.9,0,4.38-.03,5.41-.18,1.85-.27,8.75-3.03,8.76-11.56,0-8.59-5.53-11.83-8.81-12.38M277.8,43.06c-.64.09-2.5.15-4.96.15-.44,0-.71,0-.71,0h-.05s-.55.01-1.28.01c-1.66,0-2.93-.06-3.48-.15-.06-.01-6.02-1.39-6.02-8.85,0-6.86,4.66-8.64,6.14-9.03.33-.05,1.92-.12,4.92-.12s4.91.07,5.32.14c.26.04,6.25,1.16,6.24,9.34,0,7.05-6.06,8.5-6.12,8.51"/>
    <polygon class="cls-3" points="94.45 15.9 94.44 15.92 94.45 15.93 94.45 15.9"/>
    <polygon class="cls-2" points=".06 15.05 .06 26.43 47.7 68.82 94.46 26.35 94.45 15.95 47.73 52.04 .06 15.05"/>
    <path class="cls-2" d="M46.13,12.73c5.98-.09,10.94.99,16.48,2.87,5.55,1.88,8.6,4.57,10.01,7.34.91,1.8.82,3.36.64,4.24l.87-.78c1.21-1.09,1.31-4.83.95-6.43-.63-2.85-3.15-5.36-7.49-7.48-5.72-2.8-14.78-4.75-19.9-4.95-1.23-.05-2.17-.07-3.03-.07-3.1,0-6.24.26-13.14,1.57-6.96,1.32-15.18,4.3-17.68,5.24l7.05,4.54c1.23-.5,6-2.4,9.61-3.45,4.18-1.22,9.63-2.54,15.62-2.64"/>
    <path class="cls-2" d="M51.62,31.63c2.11-1.74,3.02-2.8,3.25-3.31v-10.14c-.04.42-.2.86-.5,1.32-.59.91-2.26,2.13-4.59,3.36-2.28,1.2-3.26,1.61-3.3,1.62l-.09.04-13.67-6.98v8.88l14.08,9.06c.82-.65,3.11-2.45,4.81-3.85"/>
    <polygon class="cls-3" points="32.74 17.24 32.72 17.23 32.72 17.31 32.75 17.26 32.74 17.24"/>
    <polygon class="cls-3" points="94.45 15.93 94.45 15.95 94.48 15.93 94.45 15.93"/>
    <path class="cls-2" d="M94.44,15.92L47.74.04l-.13-.04L0,15.01l.06.04,47.68,36.99L94.45,15.95v-.02h-.02ZM47.6.87l45.15,15.35-45.02,34.78L1.75,15.33,47.6.87Z"/>
    <path class="cls-2" d="M55.39,41.99l17.94-13.75,1.36-1.22c1.54-1.38,1.6-5.44,1.21-7.22-.69-3.1-3.36-5.81-7.93-8.05-5.82-2.85-15.03-4.83-20.23-5.03-1.24-.05-2.19-.07-3.06-.07-3.67,0-7.15.41-13.29,1.58-8.35,1.59-18.49,5.54-18.59,5.57l-.75.3,43.11,27.73.24.16ZM32.72,26.64v-.22l-11.82-7.61c-.19.08-.3.12-.3.12l-7.66-4.75s10.1-3.95,18.52-5.55c8.41-1.6,11.47-1.7,16.26-1.51,4.79.19,14.01,2.02,20.07,4.99,6.06,2.97,7.33,6.07,7.71,7.77.38,1.69.28,5.6-1.08,6.82l-1.36,1.22s.12-.27.22-.75l-.47.42-17.45,13.38-8.54-5.49c-.2.15-.31.24-.31.24l-13.77-9.08Z"/>
    <path class="cls-2" d="M31.53,9.04c6.9-1.31,10.04-1.57,13.14-1.57.86,0,1.8.02,3.03.07,5.12.2,14.18,2.15,19.9,4.95,4.33,2.12,6.85,4.64,7.48,7.48.35,1.6.26,5.34-.95,6.43l-.87.78c-.1.48-.22.75-.22.75l1.36-1.22c1.36-1.22,1.46-5.13,1.08-6.83-.38-1.69-1.64-4.8-7.71-7.77-6.06-2.96-15.28-4.8-20.07-4.99-4.79-.19-7.85-.1-16.26,1.51-8.41,1.6-18.52,5.55-18.52,5.55l7.66,4.75s.11-.04.3-.12l-7.05-4.54c2.51-.94,10.73-3.92,17.68-5.24"/>
    <path class="cls-3" d="M32.72,26.42v.22l13.77,9.08s.11-.09.31-.24l-14.08-9.06Z"/>
    <path class="cls-3" d="M54.87,18.08v.1c0-.06,0-.12,0-.18,0,.02,0,.05,0,.08"/>
    <path class="cls-3" d="M54.87,17.93v.05s0,.02,0,.03c0-.05,0-.07,0-.07"/>
    <path class="cls-2" d="M53.87,16.22c-1.23-1.04-4.21-2.17-8.88-2.21-.03,0-.06,0-.09,0-4.45,0-11.93,2.87-12.25,2.99l.09.23v.02s-.02.05-.02.05v.23l13.67,6.98.09-.04s1.02-.42,3.3-1.62c2.33-1.23,4-2.45,4.59-3.36.3-.46.46-.9.49-1.32v-.21c-.02-.63-.35-1.21-1-1.75M44.9,14.43h.09c4.56.04,7.44,1.12,8.62,2.11.98.83,1.11,1.67.42,2.74-.54.84-2.2,2.04-4.43,3.22-1.89.99-2.9,1.45-3.18,1.57l-13.3-6.79c1.49-.55,7.92-2.85,11.79-2.85"/>
    <path class="cls-3" d="M54.87,18.08s0-.06,0-.08h0c0-.05,0-.08,0-.08v.16Z"/>
    <path class="cls-1" d="M47.6.87L1.75,15.33l45.98,35.67,45.02-34.78L47.6.87ZM74.74,26.97l-1.41,1.26-17.94,13.75L12.03,14.1c13.9-5.48,23.3-6.57,23.3-6.57,8.76-1.64,15.91-.5,15.91-.5,11.95,1.72,17.79,5.27,17.79,5.27,7.02,3.68,6.99,8.28,6.99,8.28.43,5-1.29,6.39-1.29,6.39"/>
  </g>
</svg>