<?xml version="1.0" encoding="UTF-8"?>
<svg id="Capa_2" xmlns="http://www.w3.org/2000/svg" viewBox="0 0 45.05 32.82">
  <defs>
    <style>
      .cls-1 {
        fill: #fff;
      }

      .cls-2 {
        fill: #cf0f49;
      }
    </style>
  </defs>
  <g id="Capa_1-2" data-name="Capa_1">
    <path class="cls-1" d="M22.7.42L.84,7.31l21.92,17.01L44.23,7.74,22.7.42ZM31.16,15.89l-4.77,3.65-4.07-2.62,3.12-2.56c.57-.51.73-.86.73-.86v-4.86c.04-.83-1.11-1.29-1.11-1.29-1.44-.7-3.64-.66-3.64-.66-2.03-.03-5.81,1.41-5.81,1.41v4.51l-5.64-3.63c3.59-1.45,5.23-1.83,5.23-1.83,3.56-1,6.06-1.05,6.06-1.05,3.99-.21,7.16.89,7.16.89,3.17.88,4.49,1.99,4.49,1.99,2.63,1.97,2.04,3.99,2.04,3.99-.41.37-3.78,2.93-3.78,2.93"/>
    <polygon class="cls-2" points=".03 12.6 .03 7.18 22.81 24.51 45.04 7.58 45.04 12.57 22.75 32.82 .03 12.6"/>
    <path class="cls-2" d="M9.82,9.03l-3.65-2.27s4.82-1.88,8.83-2.65c4.01-.76,5.47-.81,7.75-.72,2.29.09,6.68.96,9.57,2.38s3.5,2.9,3.67,3.7c.18.81.14,2.67-.52,3.25l-.65.58s.47-1.05-.2-2.38c-.67-1.33-2.13-2.6-4.77-3.5-2.64-.9-5.01-1.41-7.86-1.37-2.85.04-5.45.67-7.45,1.26-1.99.58-4.73,1.71-4.73,1.71"/>
    <path class="cls-2" d="M15.6,8.22v4.49l6.57,4.33s1.43-1.12,2.44-1.95c1.01-.83,1.44-1.33,1.55-1.58v-4.96s.12.78-1.62,1.76c-1.73.97-2.28,1.29-2.28,1.29l-6.66-3.38Z"/>
    <path class="cls-2" d="M22.76,24.82L0,7.16,22.7,0l.06.02,22.29,7.58-22.29,17.22ZM.84,7.31l21.92,17.01L44.23,7.73,22.7.42.84,7.31Z"/>
    <path class="cls-2" d="M26.41,20.02l-.12-.07L5.74,6.72l.36-.14s4.88-1.9,8.86-2.66c2.93-.56,4.59-.76,6.34-.76.42,0,.87,0,1.46.03,2.48.1,6.88,1.04,9.65,2.4,2.18,1.07,3.45,2.36,3.78,3.84.19.85.16,2.79-.58,3.44l-.65.58-8.55,6.56ZM6.6,6.81l19.79,12.73,8.32-6.38.64-.57c.58-.52.62-2.3.46-3.06-.3-1.36-1.5-2.56-3.57-3.57-2.73-1.33-7.05-2.26-9.49-2.36-.59-.02-1.03-.03-1.44-.03-1.48,0-2.98.12-6.27.75-3.32.63-7.24,2.05-8.43,2.5"/>
    <path class="cls-2" d="M22.12,11.69l-6.56-3.35.06-.11-.05-.12c.15-.06,3.72-1.43,5.84-1.43h.04c2.23.02,3.65.56,4.23,1.05.54.46.62.97.24,1.56-.28.43-1.08,1.02-2.19,1.6-1.09.57-1.56.77-1.57.77l-.04.02ZM15.79,8.24l6.34,3.24c.14-.06.62-.27,1.52-.75,1.07-.56,1.86-1.14,2.11-1.54.33-.51.27-.91-.2-1.3-.56-.47-1.93-.99-4.11-1.01-.01,0-.03,0-.04,0-1.85,0-4.91,1.1-5.62,1.36"/>
    <path class="cls-2" d="M42.65,30.78h-.66l-.54-1.43h-.88v1.43h-.63v-3.47h1.51c.42,0,.73.1.92.28.2.19.29.43.29.73,0,.45-.21.75-.63.92l.61,1.53ZM40.57,28.85h.78c.23,0,.39-.05.5-.14s.17-.23.17-.39c0-.15-.05-.28-.16-.37-.11-.09-.26-.14-.46-.14h-.83v1.05Z"/>
    <path class="cls-2" d="M41.26,25.26c-2.09,0-3.78,1.69-3.78,3.78s1.69,3.78,3.78,3.78,3.78-1.69,3.78-3.78-1.69-3.78-3.78-3.78M41.26,32.23c-1.76,0-3.19-1.43-3.19-3.19s1.43-3.19,3.19-3.19,3.19,1.43,3.19,3.19-1.43,3.19-3.19,3.19"/>
  </g>
</svg>