<?xml version="1.0" encoding="UTF-8"?>
<svg id="Capa_2" xmlns="http://www.w3.org/2000/svg" xmlns:xlink="http://www.w3.org/1999/xlink" viewBox="0 0 139.3 51.94">
  <defs>
    <style>
      .cls-1 {
        fill: #d8d7d7;
      }

      .cls-2 {
        fill: #fff;
      }

      .cls-3 {
        fill: none;
      }

      .cls-4 {
        fill: #010101;
      }

      .cls-5 {
        opacity: .32;
      }

      .cls-6 {
        clip-path: url(#clippath);
      }
    </style>
    <clipPath id="clippath">
      <rect class="cls-3" width="139.3" height="51.94"/>
    </clipPath>
  </defs>
  <g id="Capa_1-2" data-name="Capa_1">
    <rect class="cls-4" y="0" width="139.3" height="51.93"/>
    <path class="cls-2" d="M21.16,29.32c.18.02.47.1.88.24.41.14.88.41,1.41.82.53.41,1,1.01,1.4,1.82.4.81.6,1.83.6,3.06s-.23,2.17-.7,2.95c-.47.79-1.02,1.37-1.67,1.75-.65.38-1.26.61-1.84.68h-9.9v-11.34h9.82ZM21.08,39.13c.31-.05.67-.18,1.09-.4.42-.21.82-.6,1.19-1.16.37-.56.56-1.33.56-2.31,0-1.14-.2-2.04-.59-2.69-.39-.65-.8-1.09-1.23-1.32-.43-.23-.79-.37-1.09-.41h-8.15v8.29h8.22Z"/>
    <rect class="cls-2" x="26.94" y="29.34" width="1.54" height="11.29"/>
    <path class="cls-2" d="M37.04,32.43c1-.02,1.89-.16,2.68-.45.79-.28,1.4-.56,1.82-.85.42-.28.71-.49.85-.63l1.25-1.19v11.37h-1.48v-8.2c-.65.39-1.41.72-2.27.99s-1.8.42-2.83.43c-1.08.01-2.09-.13-3.02-.41-.93-.29-1.76-.64-2.49-1.06v8.26h-1.48v-11.37l1.3,1.12c.18.16.51.39.98.69.47.29,1.12.59,1.95.88.84.29,1.75.43,2.74.41"/>
    <polygon class="cls-2" points="45.76 29.33 57.1 29.33 57.1 30.87 47.3 30.87 47.3 33.97 57.1 33.97 57.1 35.52 47.3 35.52 47.3 39.12 57.1 39.12 57.1 40.67 45.76 40.67 45.76 29.33"/>
    <path class="cls-2" d="M70.16,29.35h1.51v11.73l-1.34-1.6c-.46-.55-1.17-1.34-2.14-2.38-.97-1.04-1.95-1.96-2.95-2.76-.83-.66-2.19-1.52-4.1-2.56v8.89h-1.5v-11.38l1.1.57c.64.33,1.53.82,2.66,1.46,1.13.64,2.06,1.26,2.79,1.85,1.17.94,2.49,2.22,3.96,3.84v-7.66Z"/>
    <path class="cls-2" d="M84.18,34.3c.34.03.69.15,1.06.37.37.22.69.57.96,1.04.27.48.4,1.09.4,1.83,0,.68-.15,1.25-.45,1.71-.3.46-.67.79-1.1,1.01-.44.22-.87.33-1.29.34h-9.74v-1.52h9.7c.3,0,.6-.11.89-.32.29-.22.44-.62.44-1.22,0-.65-.11-1.1-.34-1.34s-.45-.38-.65-.41h-7.51c-.39-.01-.79-.12-1.21-.33-.42-.21-.79-.56-1.09-1.04-.3-.48-.45-1.11-.45-1.87,0-.72.16-1.32.48-1.79.32-.47.7-.81,1.15-1.04.44-.22.87-.35,1.27-.38h8.8v1.52h-8.7c-.15,0-.34.05-.57.14-.23.09-.43.26-.62.52-.19.25-.28.6-.28,1.03,0,.69.15,1.14.44,1.38.29.23.57.36.82.37h7.56Z"/>
    <rect class="cls-2" x="88.25" y="29.34" width="1.54" height="11.29"/>
    <path class="cls-2" d="M100.69,29.4c.6.1,1.21.36,1.84.78.63.42,1.16,1.05,1.61,1.88.44.83.66,1.87.66,3.1,0,.92-.16,1.73-.47,2.41-.32.68-.71,1.24-1.16,1.66-.46.42-.91.74-1.35.94-.44.21-.81.33-1.09.38-.39.06-1.22.09-2.52.09h-.34c-.16,0-.36,0-.62,0-.89,0-1.51-.03-1.87-.1-.34-.06-.73-.2-1.17-.43-.44-.23-.88-.56-1.31-.99-.43-.44-.8-1-1.08-1.69-.29-.69-.43-1.5-.43-2.42,0-1.31.26-2.37.77-3.18.52-.81,1.06-1.39,1.65-1.73.58-.35,1.1-.58,1.53-.69.26-.06,1.14-.1,2.63-.1s2.38.03,2.72.09M100.51,39.13c.09,0,.28-.08.56-.2.29-.12.61-.33.96-.62.36-.29.67-.7.93-1.22.26-.52.4-1.16.4-1.92,0-1.13-.21-2.02-.63-2.66-.42-.64-.84-1.07-1.27-1.29-.43-.22-.77-.35-1.01-.39-.26-.04-1.09-.06-2.48-.06-1.27,0-2.03.02-2.29.05-.37.1-.77.28-1.19.55-.42.27-.81.7-1.15,1.31-.35.6-.52,1.39-.52,2.36,0,.8.13,1.47.39,2.02.26.55.57.97.91,1.27.35.3.66.51.94.62.28.12.46.19.56.21.27.05.81.07,1.62.07.35,0,.55,0,.6,0h.35c1.22,0,1.99-.02,2.31-.07"/>
    <path class="cls-2" d="M116.88,29.35h1.51v11.73l-1.34-1.6c-.46-.55-1.17-1.34-2.14-2.38-.97-1.04-1.95-1.96-2.95-2.76-.83-.66-2.19-1.52-4.1-2.56v8.89h-1.5v-11.38l1.1.57c.64.33,1.53.82,2.66,1.46,1.13.64,2.06,1.26,2.79,1.85,1.17.94,2.49,2.22,3.96,3.84v-7.66Z"/>
    <path class="cls-2" d="M37.69,25.36h-.85v-5.11c0-.32.12-.64.37-.95.25-.31.55-.56.91-.75.36-.19.69-.29,1-.29h1.59c.49-.02.92.05,1.29.2s.67.37.9.63c.23.26.4.53.52.82.11.28.17.54.17.76v.3s0,.04-.02.17c-.02.14-.05.3-.11.49-.06.19-.15.39-.28.6-.13.21-.3.42-.53.61-.22.19-.51.34-.86.44-.35.11-.76.15-1.23.13h-2.89v1.96ZM37.69,22.56h3.23c.53,0,.93-.11,1.2-.32.27-.21.45-.44.53-.68.08-.24.12-.43.12-.57v-.26c0-.18-.04-.39-.12-.63-.08-.24-.26-.47-.53-.68-.27-.21-.67-.31-1.18-.31h-1.75c-.23,0-.45.07-.69.21-.23.14-.42.31-.57.52-.15.21-.22.41-.22.61v2.1Z"/>
    <path class="cls-2" d="M49.24,18.2c.47-.02.88.02,1.22.13.35.11.63.26.85.45.22.19.39.4.52.62.13.22.22.42.27.61.06.19.09.35.11.49.02.14.02.2.02.17v.31c0,.23-.05.48-.17.77-.11.29-.28.56-.52.83-.23.26-.53.48-.9.64-.37.16-.79.23-1.28.21h-.98c-.49.03-.92-.04-1.28-.21-.37-.16-.67-.37-.9-.64-.23-.26-.4-.54-.52-.83-.11-.29-.17-.55-.17-.77v-.31s0-.04.02-.17c.01-.14.05-.3.11-.49.06-.19.15-.4.27-.61s.3-.42.52-.62c.22-.19.51-.34.85-.45.35-.11.75-.15,1.23-.13h.71ZM49.58,22.56c.65,0,1.11-.16,1.37-.47.26-.32.42-.65.46-1.01v-.15s.01-.25.01-.25v-.16c-.05-.34-.2-.67-.46-.99-.26-.32-.72-.48-1.37-.48h-1.39c-.65,0-1.11.16-1.37.48-.26.32-.41.65-.45.99l-.02.16v.23l.02.16c.04.36.19.7.45,1.01.27.31.72.47,1.37.47h1.39Z"/>
    <path class="cls-2" d="M64.46,18.19l-3.18,5.27c-.64-.88-1.12-1.51-1.43-1.89-.31-.38-.51-.6-.6-.68-.08.08-.28.3-.6.68-.32.38-.79,1.01-1.43,1.89l-3.18-5.27h1.02l2.35,3.9c.46-.64.83-1.14,1.11-1.48.27-.35.52-.63.74-.85.22.22.46.5.74.85.27.34.64.83,1.11,1.47l2.35-3.89h1.01Z"/>
    <path class="cls-2" d="M72.3,18.5c.25.21.42.43.51.68.08.25.13.47.13.66,0,.93-.52,1.43-1.56,1.48h-4.15s0,.22,0,.22c0,.24.02.43.07.57.04.14.12.24.22.3.1.07.24.11.41.13.17.02.41.03.73.03h3.88c.11,0,.17.05.17.16v.52c0,.11-.06.17-.17.17h-4.01c-.56,0-1-.06-1.32-.19-.32-.12-.55-.32-.69-.59-.14-.27-.21-.64-.21-1.1v-1.34c0-.31.12-.62.35-.93.24-.32.54-.57.91-.78.37-.21.75-.31,1.13-.31h2.53c.46,0,.82.1,1.07.31M71.69,20.4c.08-.03.15-.08.23-.17.05-.06.09-.13.12-.21.02-.08.04-.19.04-.33,0-.06-.02-.14-.05-.24-.04-.1-.1-.19-.2-.27-.1-.08-.23-.12-.4-.12h-2.76c-.2,0-.41.06-.64.19-.23.12-.42.29-.58.5-.16.21-.24.44-.24.7h4.1c.17,0,.3-.01.37-.04"/>
    <path class="cls-2" d="M80.75,18.99h-2.98c-.15,0-.32,0-.51,0-.19,0-.36.03-.52.07-.16.05-.3.13-.43.25-.12.12-.2.26-.25.42-.05.16-.08.3-.08.42,0,.12,0,.33,0,.63v2.6s-.02.07-.07.07h-.74s-.07-.02-.07-.07v-2.68c0-.11,0-.3,0-.57,0-.27.06-.54.16-.82.1-.27.29-.52.56-.73.17-.13.35-.23.55-.3.2-.07.39-.12.57-.14.18-.03.35-.04.5-.04h3.29v.88Z"/>
    <path class="cls-2" d="M88.76,18.5c.25.21.42.43.51.68.08.25.13.47.13.66,0,.93-.52,1.43-1.56,1.48h-4.15s0,.22,0,.22c0,.24.02.43.07.57.04.14.12.24.22.3.1.07.24.11.41.13.17.02.41.03.73.03h3.88c.11,0,.17.05.17.16v.52c0,.11-.06.17-.17.17h-4.01c-.56,0-1-.06-1.32-.19-.32-.12-.55-.32-.69-.59-.14-.27-.21-.64-.21-1.1v-1.34c0-.31.12-.62.35-.93.24-.32.54-.57.91-.78.37-.21.75-.31,1.13-.31h2.53c.46,0,.82.1,1.07.31M88.15,20.4c.08-.03.15-.08.23-.17.05-.06.09-.13.12-.21.02-.08.04-.19.04-.33,0-.06-.02-.14-.05-.24-.04-.1-.1-.19-.2-.27-.1-.08-.23-.12-.4-.12h-2.76c-.2,0-.41.06-.64.19-.23.12-.42.29-.58.5-.16.21-.24.44-.24.7h4.1c.17,0,.3-.01.37-.04"/>
    <path class="cls-2" d="M97.46,16.27h.85v5.21c0,.35-.04.65-.11.89-.07.25-.19.45-.36.6-.17.15-.39.27-.67.34-.28.07-.62.11-1.04.11h-1.72c-.49.03-.92-.04-1.29-.2-.37-.16-.68-.37-.91-.63-.24-.26-.41-.53-.52-.82-.11-.29-.17-.54-.17-.77v-.3s0-.04.02-.17c.02-.14.05-.3.11-.49.06-.19.15-.39.28-.61.13-.22.3-.42.53-.61.22-.19.51-.34.86-.45.35-.11.76-.15,1.24-.13h2.91v-1.97ZM97.46,19.1h-3.25c-.53,0-.93.11-1.2.33-.27.22-.45.44-.53.68-.08.24-.12.43-.12.58v.26c0,.18.04.39.12.64.08.24.26.47.54.68.27.21.67.31,1.19.31h2.25c.26,0,.46-.05.61-.17.15-.11.25-.26.31-.46.06-.2.09-.44.09-.72v-2.12Z"/>
    <path class="cls-2" d="M104.03,18.26h0,2.9c.48-.02.89.02,1.24.13.35.11.64.26.86.45s.4.39.53.6c.12.21.22.42.27.61.06.19.1.35.11.49.02.14.02.19.02.17v.3c0,.23-.06.48-.17.76-.11.28-.29.56-.52.82-.24.26-.54.47-.91.63-.37.16-.8.23-1.29.2h-1.71c-.42,0-.76-.04-1.04-.11s-.5-.18-.66-.34c-.17-.15-.29-.35-.36-.6-.08-.24-.11-.54-.11-.89v-5.19h.85v1.97ZM104.03,21.22c0,.29.03.53.09.73.06.2.16.35.31.46.15.11.35.16.61.16h2.23c.52,0,.92-.1,1.19-.31.27-.21.45-.43.53-.68.08-.24.12-.45.12-.64v-.26c0-.14-.04-.34-.12-.57-.08-.24-.25-.46-.53-.68-.27-.21-.67-.32-1.2-.32h-3.24v2.11Z"/>
    <path class="cls-2" d="M118.7,18.15v4.56c-.03.52-.16.98-.38,1.36-.28.47-.59.81-.95,1.03-.36.21-.81.32-1.35.32h-3.72s-.07-.02-.07-.07v-.75s.02-.07.07-.07h3.72c.19,0,.35-.01.5-.04.15-.03.28-.08.39-.15.16-.11.29-.2.39-.29.09-.09.17-.19.24-.32l.13-.26h-3.39c-.4,0-.76-.07-1.08-.23-.32-.16-.58-.34-.78-.54-.2-.2-.38-.46-.54-.79-.16-.32-.24-.66-.24-1v-2.75s0-.07,0-.07h.89v2.88c0,.18.04.37.11.55.07.19.13.32.2.39.04.04.1.12.2.22.1.1.23.2.41.28.17.09.39.14.65.17h3.72s0-4.42,0-4.42c0-.05.02-.07.07-.07h.74s.07.02.07.07"/>
    <path class="cls-2" d="M124.27,11.34c-2.04,0-3.69,1.65-3.69,3.69s1.65,3.69,3.69,3.69,3.69-1.65,3.69-3.69-1.65-3.69-3.69-3.69M124.27,17.94c-1.61,0-2.92-1.3-2.92-2.91s1.3-2.91,2.92-2.91,2.91,1.3,2.91,2.91-1.3,2.91-2.91,2.91"/>
    <path class="cls-2" d="M124.89,16.92l-.87-1.52h-.48v1.52h-.62v-3.8h1.31c.29,0,.54.05.74.15.2.1.35.24.45.41.1.17.15.36.15.57,0,.25-.07.47-.22.68-.14.2-.37.34-.66.41l.94,1.57h-.74ZM123.54,14.9h.69c.23,0,.41-.06.53-.17.12-.12.18-.27.18-.47s-.06-.35-.17-.46c-.12-.11-.29-.17-.53-.17h-.69v1.27Z"/>
    <g class="cls-5">
      <g class="cls-6">
        <path class="cls-1" d="M72.62,0c.18.02.47.1.88.24.41.14.88.41,1.41.82.53.41,1,1.01,1.4,1.82.4.81.6,1.83.6,3.06s-.23,2.17-.7,2.95c-.47.79-1.02,1.37-1.67,1.75-.65.38-1.26.61-1.84.68h-9.9V0h9.82ZM72.54,9.82c.31-.05.67-.18,1.09-.4.42-.21.82-.6,1.19-1.16.37-.56.56-1.33.56-2.31,0-1.14-.2-2.04-.59-2.69-.39-.65-.8-1.09-1.23-1.32-.43-.23-.79-.37-1.09-.41h-8.15v8.29h8.22Z"/>
        <path class="cls-1" d="M139.29,21.88c-.02.18-.1.47-.24.88-.14.41-.41.88-.82,1.41-.41.53-1.01,1-1.82,1.4-.81.4-1.83.6-3.06.6s-2.17-.23-2.95-.7c-.79-.47-1.37-1.02-1.75-1.67-.38-.65-.61-1.26-.68-1.84v-9.9h11.33v9.82ZM129.48,21.8c.05.31.18.67.4,1.09.21.42.6.82,1.16,1.19.56.37,1.33.56,2.31.56,1.14,0,2.04-.2,2.69-.59.65-.39,1.09-.8,1.32-1.23.23-.43.37-.79.41-1.09v-8.15h-8.29v8.22Z"/>
        <path class="cls-1" d="M76.11,40.61c.18.02.47.1.88.24.41.14.88.41,1.41.82.53.41,1,1.01,1.4,1.82.4.81.6,1.83.6,3.06s-.23,2.17-.7,2.95c-.47.79-1.02,1.37-1.67,1.75-.65.38-1.26.61-1.84.68h-9.9v-11.34h9.82ZM76.03,50.42c.31-.05.67-.18,1.09-.4.42-.21.82-.6,1.19-1.16.37-.56.56-1.33.56-2.31,0-1.14-.2-2.04-.59-2.69-.39-.65-.8-1.09-1.23-1.32-.43-.23-.79-.37-1.09-.41h-8.15v8.29h8.22Z"/>
        <path class="cls-1" d="M0,27.65c.02-.18.1-.47.24-.88.14-.41.41-.88.82-1.41.41-.53,1.01-1,1.82-1.4.81-.4,1.83-.6,3.06-.6s2.17.23,2.95.7c.79.47,1.37,1.02,1.75,1.67.38.65.61,1.26.68,1.84v9.9H0v-9.82ZM9.82,27.73c-.05-.31-.19-.67-.4-1.09-.21-.42-.6-.82-1.16-1.19-.56-.37-1.33-.56-2.31-.56-1.14,0-2.04.2-2.69.59-.65.39-1.09.8-1.32,1.23-.23.43-.37.79-.41,1.09v8.15h8.29v-8.22Z"/>
      </g>
    </g>
  </g>
</svg>