<?xml version="1.0" encoding="UTF-8"?>
<svg id="Capa_2" xmlns="http://www.w3.org/2000/svg" viewBox="0 0 237.4 57.4">
  <defs>
    <style>
      .cls-1 {
        fill: #fff;
      }

      .cls-2 {
        fill: #636062;
      }

      .cls-3 {
        fill: #d10e49;
      }
    </style>
  </defs>
  <g id="Capa_1-2" data-name="Capa_1">
    <path class="cls-2" d="M83.87,36.66h-15.38s0,17.74,0,17.74h15.49c2.28-.29,6.6-2.41,6.6-8.44,0-8.4-6.64-9.29-6.7-9.3M83.74,52.01h-12.87v-12.98h12.77c.56.09,4.54.93,4.54,6.92,0,5.1-3.76,5.95-4.45,6.06"/>
    <rect class="cls-2" x="92.11" y="36.78" width="2.39" height="17.68"/>
    <path class="cls-2" d="M108,41.13c-5.39.08-9.26-3.11-9.29-3.15l-1.97-1.67v18.16h2.39v-13.34c1.89,1.09,5.03,2.43,8.9,2.38,3.69-.05,6.51-1.26,8.25-2.3v13.25h2.39v-18.36l-2.02,1.92s-3.24,3.02-8.65,3.1"/>
    <polygon class="cls-2" points="139.17 44.09 123.6 44.09 123.6 39.03 139.17 39.03 139.17 36.64 121.21 36.64 121.21 54.55 139.17 54.55 139.17 52.16 123.6 52.16 123.6 46.31 139.17 46.31 139.17 44.09"/>
    <path class="cls-2" d="M158.22,48.67c-1.64-1.79-4-4.24-6.28-6.08-2.77-2.23-8.39-5.13-8.63-5.25l-1.74-.89v18.03h2.39v-14.08c1.87,1.03,4.81,2.71,6.49,4.06,3.79,3.05,8.01,8.09,8.05,8.14l2.11,2.52v-18.58h-2.39v12.13Z"/>
    <path class="cls-2" d="M228.4,36.54v12.13c-1.64-1.79-4-4.24-6.28-6.08-2.77-2.23-8.39-5.13-8.63-5.26l-1.74-.89v18.03h2.39v-14.08c1.87,1.03,4.81,2.71,6.49,4.06,3.79,3.05,8.01,8.09,8.05,8.14l2.11,2.52v-18.58h-2.38Z"/>
    <path class="cls-2" d="M178.39,44.52h-11.8c-.27-.02-1.97-.21-1.97-2.77,0-2.31,1.84-2.66,2.3-2.72h13.58v-2.39h-13.73c-1.57.13-4.53,1.35-4.53,5.1,0,3.96,2.81,5.1,4.29,5.15h11.71c.23.03,1.56.33,1.56,2.78,0,2.19-1.59,2.46-2.1,2.49h-15.14v2.38h15.19c1.78-.04,4.43-1.38,4.43-4.87,0-3.85-2.47-5.06-3.78-5.16"/>
    <rect class="cls-2" x="183.46" y="36.87" width="2.39" height="17.6"/>
    <path class="cls-2" d="M203.2,36.02c-.78-.13-3.65-.14-4.51-.14-2.48,0-3.95.06-4.37.17-1.1.28-6.57,2.05-6.57,9.3,0,6.58,4.78,8.87,6.63,9.19.58.1,1.62.15,3.1.15h0c.53,0,.94,0,1.02,0,.06,0,.26,0,.55,0,1.47,0,3.39-.02,4.18-.14,1.43-.21,6.77-2.34,6.77-8.94,0-6.64-4.28-9.14-6.81-9.57M202.9,52.17c-.5.07-1.93.12-3.84.12-.34,0-.55,0-.55,0h-.04s-.42,0-.99,0h0c-1.28,0-2.26-.04-2.69-.12-.05,0-4.65-1.08-4.65-6.84,0-5.31,3.6-6.68,4.75-6.98.26-.04,1.48-.1,3.8-.1s3.8.06,4.11.11c.2.03,4.83.89,4.83,7.22,0,5.45-4.69,6.57-4.73,6.58"/>
    <path class="cls-2" d="M88.72,31.13V13.2h2v1.69c.47-.66,1.01-1.15,1.6-1.49.59-.33,1.31-.49,2.16-.49,1.11,0,2.08.29,2.93.86.85.57,1.49,1.37,1.92,2.41.43,1.03.65,2.17.65,3.41,0,1.33-.24,2.52-.71,3.58-.47,1.07-1.17,1.88-2.08,2.44-.91.57-1.86.85-2.86.85-.73,0-1.39-.15-1.97-.46-.58-.31-1.06-.7-1.43-1.17v6.31h-2.2ZM90.71,19.75c0,1.67.34,2.9,1.01,3.7.68.8,1.5,1.2,2.45,1.2s1.81-.41,2.51-1.24c.69-.83,1.04-2.11,1.04-3.84s-.34-2.89-1.02-3.71c-.68-.82-1.49-1.23-2.44-1.23s-1.76.44-2.49,1.31c-.72.88-1.08,2.15-1.08,3.82"/>
    <path class="cls-2" d="M102.01,19.68c0-2.4.67-4.18,2-5.33,1.12-.96,2.47-1.44,4.08-1.44,1.78,0,3.24.58,4.37,1.75,1.13,1.17,1.7,2.78,1.7,4.84,0,1.67-.25,2.98-.75,3.94-.5.96-1.23,1.7-2.19,2.23-.95.53-2,.79-3.13.79-1.81,0-3.28-.58-4.4-1.75-1.12-1.17-1.68-2.84-1.68-5.03M104.27,19.68c0,1.66.36,2.9,1.09,3.73.73.83,1.63,1.24,2.73,1.24s2-.42,2.72-1.24c.73-.83,1.09-2.1,1.09-3.8,0-1.6-.36-2.82-1.09-3.65-.73-.82-1.63-1.24-2.71-1.24s-2.01.41-2.73,1.23c-.73.82-1.09,2.06-1.09,3.72"/>
    <path class="cls-2" d="M119.32,26.16l-3.97-12.96h2.27l2.06,7.48.77,2.78c.03-.14.26-1.03.67-2.67l2.06-7.59h2.26l1.94,7.52.65,2.48.74-2.5,2.22-7.5h2.14l-4.05,12.96h-2.28l-2.06-7.76-.5-2.21-2.62,9.97h-2.29Z"/>
    <path class="cls-2" d="M144.06,21.99l2.27.28c-.36,1.33-1.02,2.36-1.99,3.09-.97.73-2.21,1.1-3.71,1.1-1.9,0-3.4-.58-4.51-1.75-1.11-1.17-1.67-2.81-1.67-4.91s.56-3.88,1.68-5.08c1.12-1.2,2.58-1.81,4.37-1.81s3.15.59,4.25,1.77c1.1,1.18,1.65,2.84,1.65,4.98,0,.13,0,.33-.01.59h-9.67c.08,1.42.48,2.52,1.21,3.27.73.76,1.63,1.14,2.71,1.14.81,0,1.49-.21,2.06-.64.57-.42,1.02-1.1,1.36-2.03M136.85,18.43h7.24c-.1-1.09-.37-1.91-.83-2.45-.7-.85-1.61-1.27-2.72-1.27-1.01,0-1.86.34-2.55,1.01-.69.68-1.07,1.58-1.14,2.71"/>
    <path class="cls-2" d="M149.27,26.16v-12.96h1.98v1.96c.5-.92.97-1.53,1.4-1.82.42-.29.9-.44,1.41-.44.74,0,1.49.24,2.26.71l-.76,2.04c-.54-.32-1.07-.48-1.61-.48-.48,0-.91.14-1.29.43-.38.29-.65.69-.82,1.2-.24.78-.37,1.64-.37,2.56v6.79h-2.2Z"/>
    <path class="cls-2" d="M166.69,21.99l2.27.28c-.36,1.33-1.02,2.36-1.99,3.09-.97.73-2.2,1.1-3.71,1.1-1.9,0-3.4-.58-4.51-1.75-1.11-1.17-1.67-2.81-1.67-4.91s.56-3.88,1.68-5.08c1.12-1.2,2.58-1.81,4.37-1.81s3.15.59,4.25,1.77c1.1,1.18,1.65,2.84,1.65,4.98,0,.13,0,.33-.01.59h-9.67c.08,1.42.48,2.52,1.21,3.27.73.76,1.63,1.14,2.71,1.14.81,0,1.49-.21,2.06-.64.57-.42,1.02-1.1,1.36-2.03M159.48,18.43h7.24c-.1-1.09-.37-1.91-.83-2.45-.7-.85-1.61-1.27-2.72-1.27-1.01,0-1.86.34-2.55,1.01-.69.68-1.07,1.58-1.14,2.71"/>
    <path class="cls-2" d="M180.34,26.16v-1.63c-.82,1.29-2.03,1.93-3.63,1.93-1.03,0-1.98-.28-2.85-.85-.87-.57-1.54-1.37-2.02-2.39-.47-1.02-.71-2.2-.71-3.52s.21-2.47.65-3.52c.43-1.05,1.08-1.86,1.94-2.42.86-.56,1.83-.84,2.89-.84.78,0,1.48.17,2.09.49.61.33,1.11.76,1.49,1.29v-6.42h2.18v17.9h-2.04ZM173.39,19.69c0,1.66.35,2.9,1.05,3.72.7.82,1.53,1.23,2.48,1.23s1.78-.39,2.45-1.18c.67-.79,1.01-1.99,1.01-3.6,0-1.77-.34-3.08-1.02-3.91-.68-.83-1.53-1.24-2.53-1.24s-1.79.4-2.45,1.2c-.66.8-.98,2.06-.98,3.77"/>
    <path class="cls-2" d="M195.2,26.16h-2.04V8.27h2.2v6.39c.93-1.17,2.11-1.75,3.55-1.75.8,0,1.55.16,2.26.48.71.32,1.3.77,1.76,1.35.46.58.82,1.28,1.08,2.11.26.82.39,1.7.39,2.64,0,2.22-.55,3.94-1.65,5.15-1.1,1.21-2.42,1.82-3.96,1.82s-2.73-.64-3.6-1.92v1.62ZM195.18,19.58c0,1.56.21,2.68.63,3.37.69,1.13,1.63,1.7,2.81,1.7.96,0,1.79-.42,2.49-1.25.7-.83,1.05-2.08,1.05-3.73s-.33-2.94-1.01-3.75c-.67-.8-1.48-1.21-2.43-1.21s-1.79.42-2.49,1.25c-.7.83-1.05,2.04-1.05,3.62"/>
    <path class="cls-2" d="M207.18,31.16l-.24-2.06c.48.13.9.2,1.26.2.49,0,.88-.08,1.17-.24.29-.16.53-.39.72-.68.14-.22.36-.76.67-1.64.04-.12.1-.3.19-.54l-4.92-12.99h2.37l2.7,7.51c.35.95.66,1.95.94,3,.25-1.01.55-1.99.9-2.95l2.77-7.56h2.2l-4.93,13.19c-.53,1.42-.94,2.4-1.23,2.94-.39.73-.84,1.26-1.34,1.59-.51.34-1.11.51-1.81.51-.42,0-.9-.09-1.42-.27"/>
    <path class="cls-1" d="M35.12,7.26L1.29,17.93l33.92,26.32,33.22-25.66L35.12,7.26ZM48.21,31.2l-7.38,5.65-6.3-4.05,4.83-3.96c.88-.79,1.12-1.33,1.12-1.33v-7.53c.06-1.29-1.72-2-1.72-2-2.23-1.08-5.64-1.03-5.64-1.03-3.15-.05-8.98,2.19-8.98,2.19v6.97l-8.72-5.61c5.56-2.24,8.09-2.83,8.09-2.83,5.51-1.54,9.37-1.62,9.37-1.62,6.18-.33,11.09,1.37,11.09,1.37,4.91,1.36,6.95,3.07,6.95,3.07,4.07,3.04,3.15,6.18,3.15,6.18-.64.58-5.85,4.53-5.85,4.53"/>
    <polygon class="cls-3" points=".04 26.12 .04 17.73 35.3 44.55 69.69 18.36 69.69 26.07 35.2 57.4 .04 26.12"/>
    <path class="cls-3" d="M15.2,20.6l-5.65-3.51s7.46-2.92,13.66-4.1c6.21-1.18,8.46-1.25,12-1.11,3.54.14,10.34,1.49,14.81,3.68,4.47,2.19,5.41,4.48,5.69,5.73.28,1.25.21,4.13-.8,5.04l-1.01.9s.73-1.63-.31-3.68c-1.04-2.05-3.29-4.03-7.39-5.42-4.09-1.39-7.74-2.19-12.16-2.12-4.42.07-8.44,1.04-11.53,1.95-3.09.9-7.32,2.64-7.32,2.64"/>
    <path class="cls-3" d="M24.15,19.33v6.95l10.16,6.7s2.22-1.74,3.78-3.02c1.56-1.29,2.23-2.06,2.4-2.45v-7.67s.19,1.2-2.51,2.72c-2.68,1.51-3.54,2-3.54,2l-10.3-5.23Z"/>
    <path class="cls-3" d="M35.22,45.02L0,17.7,35.13,6.62l.09.03,34.48,11.73-34.49,26.64ZM1.29,17.93l33.93,26.32,33.22-25.66L35.13,7.26,1.29,17.93Z"/>
    <path class="cls-3" d="M40.87,37.6l-.18-.12L8.88,17.02l.56-.22c.07-.03,7.55-2.94,13.72-4.11,4.54-.86,7.1-1.17,9.81-1.17.65,0,1.34.02,2.26.05,3.84.15,10.64,1.61,14.93,3.71,3.37,1.65,5.34,3.65,5.85,5.94.29,1.32.24,4.31-.89,5.33l-1.01.9-13.23,10.15ZM10.22,17.16l30.62,19.7,12.88-9.87.99-.89c.89-.8.96-3.57.7-4.74-.47-2.1-2.32-3.96-5.52-5.52-4.22-2.06-10.91-3.5-14.69-3.65-.91-.04-1.6-.05-2.23-.05-2.29,0-4.6.19-9.7,1.16-5.13.98-11.2,3.18-13.05,3.87"/>
    <path class="cls-3" d="M34.23,24.71l-10.15-5.18.09-.17-.07-.19c.24-.09,5.75-2.21,9.04-2.21h.07c3.45.03,5.64.86,6.55,1.63.84.71.96,1.5.37,2.42-.43.67-1.67,1.57-3.39,2.48-1.68.89-2.41,1.18-2.44,1.2l-.07.03ZM24.43,19.37l9.81,5.01c.21-.09.95-.42,2.35-1.16,1.65-.87,2.87-1.76,3.27-2.38.51-.79.41-1.41-.31-2.02-.87-.73-2.99-1.53-6.36-1.56-.02,0-.04,0-.06,0-2.86,0-7.6,1.69-8.7,2.1"/>
    <path class="cls-3" d="M233.22,9.66h-1.16l-.94-2.5h-1.54v2.5h-1.1V3.58h2.64c.73,0,1.27.17,1.62.5.35.33.52.76.52,1.29,0,.78-.37,1.32-1.1,1.61l1.07,2.69ZM229.57,6.28h1.36c.39,0,.69-.08.88-.25.19-.17.29-.39.29-.69,0-.27-.1-.48-.29-.65s-.46-.25-.8-.25h-1.45v1.83Z"/>
    <path class="cls-3" d="M230.78,0c-3.66,0-6.62,2.96-6.62,6.62s2.96,6.62,6.62,6.62,6.62-2.96,6.62-6.62-2.96-6.62-6.62-6.62M230.78,12.21c-3.09,0-5.59-2.5-5.59-5.59s2.5-5.59,5.59-5.59,5.59,2.5,5.59,5.59-2.5,5.59-5.59,5.59"/>
  </g>
</svg>