<?xml version="1.0" encoding="UTF-8"?>
<svg id="Capa_2" xmlns="http://www.w3.org/2000/svg" version="1.1" viewBox="0 0 472 139.7">
  <!-- Generator: Adobe Illustrator 29.1.0, SVG Export Plug-In . SVG Version: 2.1.0 Build 142)  -->
  <defs>
    <style>
      .st0 {
        fill: #9d9a9c;
      }

      .st1 {
        isolation: isolate;
      }

      .st2 {
        fill: #d21047;
      }
    </style>
  </defs>
  <g id="Capa_1-2">
    <g>
      <path class="st0" d="M107.9,64.7h-3.2c0,.2,0,0,0-.6v-18.8c0-1.2.5-2.4,1.4-3.6.9-1.2,2.1-2.1,3.4-2.9s2.6-1.1,3.8-1.1h6c1.9,0,3.5.2,4.9.8s2.5,1.4,3.4,2.4,1.5,2,2,3.1c.4,1.1.6,2,.6,2.9v1.1c0,0,0,.1,0,.7,0,.5-.2,1.1-.4,1.8-.2.7-.6,1.5-1,2.3-.5.8-1.1,1.6-2,2.3-.8.7-1.9,1.3-3.3,1.7-1.3.4-2.9.6-4.7.5h-10.9v7.4h0ZM107.9,54.1h12.2c2,0,3.5-.4,4.5-1.2,1-.8,1.7-1.7,2-2.6.3-.9.4-1.6.4-2.2v-1c0-.7-.2-1.5-.5-2.4s-1-1.8-2-2.6-2.5-1.2-4.5-1.2h-6.6c-.9,0-1.7.3-2.6.8s-1.6,1.2-2.2,2c-.6.8-.8,1.6-.8,2.3v8h0Z"/>
      <path class="st0" d="M151.6,37.6c1.8,0,3.3,0,4.6.5,1.3.4,2.4,1,3.2,1.7.8.7,1.5,1.5,2,2.3.5.8.8,1.6,1,2.3.2.7.4,1.3.4,1.9s0,.7,0,.7v1.2c0,.9-.2,1.8-.6,2.9-.4,1.1-1.1,2.1-1.9,3.1s-2,1.8-3.4,2.4c-1.4.6-3,.9-4.9.8h-3.7c-1.8,0-3.5-.2-4.9-.8s-2.5-1.4-3.4-2.4c-.9-1-1.5-2-1.9-3.1s-.6-2.1-.6-2.9v-1.2c0,0,0-.1,0-.7s.2-1.1.4-1.9.6-1.5,1-2.3c.5-.8,1.1-1.6,2-2.3.8-.7,1.9-1.3,3.2-1.7,1.3-.4,2.9-.6,4.6-.5h2.7ZM152.9,54.1c2.5,0,4.2-.6,5.2-1.8,1-1.2,1.6-2.5,1.7-3.8v-.6s0-.9,0-.9v-.6c-.2-1.3-.8-2.5-1.8-3.7s-2.7-1.8-5.2-1.8h-5.3c-2.5,0-4.2.6-5.2,1.8s-1.6,2.5-1.7,3.7v.6c0,0,0,.9,0,.9v.6c.2,1.4.8,2.6,1.8,3.8s2.7,1.8,5.2,1.8h5.3,0Z"/>
      <path class="st0" d="M209.2,37.5l-12,20c-2.4-3.3-4.2-5.7-5.4-7.1s-1.9-2.3-2.3-2.6c-.3.3-1.1,1.1-2.3,2.6-1.2,1.4-3,3.8-5.4,7.1l-12.1-20h3.9l8.9,14.8c1.8-2.4,3.2-4.3,4.2-5.6s2-2.4,2.8-3.2c.8.8,1.8,1.9,2.8,3.2,1,1.3,2.4,3.2,4.2,5.6l8.9-14.7h3.8Z"/>
      <path class="st0" d="M238.9,38.7c1,.8,1.6,1.6,1.9,2.6.3.9.5,1.8.5,2.5,0,3.5-2,5.4-5.9,5.6h-15.7s0,.8,0,.8c0,.9,0,1.6.2,2.2s.4.9.8,1.2.9.4,1.6.5c.6,0,1.6.1,2.8.1h14.7c.4,0,.6.2.6.6v2c0,.4-.2.6-.6.6h-15.2c-2.1,0-3.8-.2-5-.7s-2.1-1.2-2.6-2.3c-.5-1-.8-2.4-.8-4.2v-5.1c0-1.2.4-2.3,1.3-3.5s2-2.2,3.4-3c1.4-.8,2.8-1.2,4.3-1.2h9.6c1.8,0,3.1.4,4.1,1.2h0ZM236.6,45.9c.3-.1.6-.3.9-.7.2-.2.4-.5.4-.8s.1-.7.2-1.2c0-.2,0-.5-.2-.9s-.4-.7-.7-1-.9-.5-1.5-.5h-10.4c-.7,0-1.6.2-2.4.7-.9.5-1.6,1.1-2.2,1.9-.6.8-.9,1.7-.9,2.6h15.5c.6,0,1.1,0,1.4-.2h0Z"/>
      <path class="st0" d="M270.9,40.6h-11.3c-.6,0-1.2,0-1.9,0-.7,0-1.4,0-2,.3-.6.2-1.1.5-1.6.9-.5.4-.8,1-1,1.6-.2.6-.3,1.2-.3,1.6,0,.4,0,1.2,0,2.4v9.9c0,.2,0,.3-.2.3h-2.8c-.2,0-.2,0-.2-.3v-10.1c0-.4,0-1.1,0-2.2,0-1,.2-2.1.6-3.1.4-1,1.1-2,2.1-2.8.6-.5,1.3-.9,2.1-1.1.7-.3,1.5-.5,2.1-.5s1.3-.1,1.9-.1h12.5v3.3h0Z"/>
      <path class="st0" d="M301.3,38.7c1,.8,1.6,1.6,1.9,2.6.3.9.5,1.8.5,2.5,0,3.5-2,5.4-5.9,5.6h-15.7s0,.8,0,.8c0,.9,0,1.6.2,2.2s.4.9.8,1.2.9.4,1.6.5c.6,0,1.6.1,2.8.1h14.7c.4,0,.6.2.6.6v2c0,.4-.2.6-.6.6h-15.2c-2.1,0-3.8-.2-5-.7s-2.1-1.2-2.6-2.3c-.5-1-.8-2.4-.8-4.2v-5.1c0-1.2.4-2.3,1.3-3.5.9-1.2,2-2.2,3.4-3,1.4-.8,2.8-1.2,4.3-1.2h9.6c1.8,0,3.1.4,4.1,1.2h0ZM299,45.9c.3-.1.6-.3.9-.7.2-.2.4-.5.4-.8s.1-.7.2-1.2c0-.2,0-.5-.2-.9-.1-.4-.4-.7-.7-1s-.9-.5-1.5-.5h-10.4c-.7,0-1.6.2-2.4.7-.9.5-1.6,1.1-2.2,1.9s-.9,1.7-.9,2.6h15.5c.6,0,1.1,0,1.4-.2h0Z"/>
      <path class="st0" d="M334.2,30.3h3.2c0-.2,0,0,0,.6v19.1c0,1.3-.1,2.5-.4,3.4-.3.9-.7,1.7-1.4,2.3s-1.5,1-2.5,1.3c-1.1.3-2.4.4-3.9.4h-6.5c-1.9,0-3.5-.2-4.9-.8-1.4-.6-2.6-1.4-3.5-2.4-.9-1-1.6-2-2-3.1-.4-1.1-.6-2-.6-2.9v-1.2c0,0,0-.1,0-.7,0-.5.2-1.1.4-1.8.2-.7.6-1.5,1.1-2.3.5-.8,1.1-1.6,2-2.3s1.9-1.3,3.3-1.7c1.3-.4,2.9-.6,4.7-.5h11v-7.5h0ZM334.2,41h-12.3c-2,0-3.5.4-4.6,1.2-1,.8-1.7,1.7-2,2.6s-.5,1.6-.5,2.2v1c0,.7.2,1.5.5,2.4s1,1.8,2,2.6,2.5,1.2,4.5,1.2h8.5c1,0,1.7-.2,2.3-.6s.9-1,1.2-1.7c.2-.7.3-1.7.3-2.7v-8h0Z"/>
      <path class="st0" d="M359.1,37.8h0,11c1.8,0,3.4,0,4.7.5s2.4,1,3.3,1.7c.9.7,1.5,1.5,2,2.3.5.8.8,1.6,1,2.3s.4,1.3.4,1.9,0,.7,0,.6v1.2c0,.9-.2,1.8-.6,2.9-.4,1.1-1.1,2.1-2,3.1-.9,1-2,1.8-3.4,2.4-1.4.6-3,.9-4.9.8h-6.5c-1.6,0-2.9-.1-3.9-.4-1.1-.3-1.9-.7-2.5-1.3s-1.1-1.3-1.4-2.3-.4-2.1-.4-3.4v-19.1c0-.6,0-.8,0-.6h3.2v7.5h0ZM359.1,49c0,1.1.1,2,.3,2.7.2.7.6,1.3,1.2,1.7s1.3.6,2.3.6h8.5c2,0,3.5-.4,4.5-1.2s1.7-1.6,2-2.6c.3-.9.5-1.7.5-2.4v-1c0-.5-.2-1.3-.4-2.2s-1-1.8-2-2.6-2.6-1.2-4.6-1.2h-12.3v8h0Z"/>
      <path class="st0" d="M414.6,37.4v17.3c-.1,2-.6,3.7-1.4,5.1-1.1,1.8-2.3,3.1-3.6,3.9-1.4.8-3.1,1.2-5.1,1.2h-14.1c-.2,0-.3,0-.3-.3v-2.8c0-.2,0-.3.3-.3h14.1c.7,0,1.3,0,1.9-.2s1.1-.3,1.5-.6c.6-.4,1.1-.8,1.5-1.1s.7-.7.9-1.2l.5-1h-12.8c-1.5,0-2.9-.3-4.1-.9-1.2-.6-2.2-1.3-3-2-.7-.8-1.4-1.8-2-3-.6-1.2-.9-2.5-.9-3.8v-10.4s0-.3,0-.3h3.4c0,0,0,0,0,.3v10.6c0,.7.1,1.4.4,2.1.3.7.5,1.2.8,1.5.1.2.4.4.8.8.4.4.9.7,1.6,1.1s1.5.5,2.5.7h14.1s0-16.7,0-16.7c0-.2,0-.3.3-.3h2.8c.2,0,.3,0,.3.3h0Z"/>
    </g>
    <g class="st1">
      <g class="st1">
        <path class="st2" d="M45.2,79.7c.7,0,1.8.4,3.3.9,1.5.5,3.3,1.6,5.3,3.1,2,1.5,3.8,3.8,5.3,6.9,1.5,3.1,2.3,6.9,2.3,11.6s-.9,8.2-2.7,11.2c-1.8,3-3.9,5.2-6.3,6.6-2.5,1.4-4.8,2.3-7,2.6H8v-42.9h37.2ZM44.9,116.8c1.2-.2,2.5-.7,4.1-1.5,1.6-.8,3.1-2.3,4.5-4.4s2.1-5.1,2.1-8.7-.7-7.7-2.2-10.2c-1.5-2.5-3-4.1-4.7-5-1.6-.9-3-1.4-4.1-1.6H13.8v31.4h31.1Z"/>
        <path class="st2" d="M73.3,79.8h5.8v42.8h-5.8v-42.8Z"/>
        <path class="st2" d="M117.7,91.4c3.8,0,7.2-.6,10.2-1.7,3-1.1,5.3-2.1,6.9-3.2s2.7-1.9,3.2-2.4l4.7-4.5v43h-5.6v-31.1c-2.5,1.5-5.3,2.7-8.6,3.8-3.2,1-6.8,1.6-10.7,1.6-4.1,0-7.9-.5-11.4-1.6-3.5-1.1-6.7-2.4-9.4-4v31.3h-5.6v-43l4.9,4.3c.7.6,1.9,1.5,3.7,2.6s4.2,2.2,7.4,3.3c3.2,1.1,6.6,1.6,10.4,1.6Z"/>
        <path class="st2" d="M156.8,79.7h42.9v5.8h-37.1v11.7h37.1v5.9h-37.1v13.7h37.1v5.8h-42.9v-42.9Z"/>
        <path class="st2" d="M255.3,79.8h5.7v44.4l-5.1-6.1c-1.7-2.1-4.4-5.1-8.1-9-3.7-3.9-7.4-7.4-11.2-10.5-3.1-2.5-8.3-5.8-15.5-9.7v33.7h-5.7v-43.1l4.2,2.2c2.4,1.3,5.8,3.1,10.1,5.5,4.3,2.4,7.8,4.8,10.6,7,4.4,3.6,9.4,8.4,15,14.5v-29Z"/>
        <path class="st2" d="M314.6,98.5c1.3,0,2.6.6,4,1.4,1.4.8,2.6,2.1,3.6,4s1.5,4.1,1.5,6.9-.6,4.7-1.7,6.5c-1.1,1.7-2.5,3-4.2,3.8s-3.3,1.3-4.9,1.3h-36.9v-5.8h36.8c1.1,0,2.3-.4,3.4-1.2,1.1-.8,1.7-2.4,1.7-4.6,0-2.5-.4-4.2-1.3-5.1s-1.7-1.4-2.5-1.5h-28.4c-1.5,0-3-.5-4.6-1.3-1.6-.8-3-2.1-4.1-3.9-1.1-1.8-1.7-4.2-1.7-7.1s.6-5,1.8-6.8c1.2-1.8,2.7-3.1,4.4-3.9s3.3-1.3,4.8-1.4h33.3v5.8h-32.9c-.6,0-1.3.2-2.2.5-.9.3-1.6,1-2.4,2-.7,1-1.1,2.3-1.1,3.9,0,2.6.6,4.3,1.7,5.2,1.1.9,2.2,1.3,3.1,1.4h28.6Z"/>
        <path class="st2" d="M336.1,79.8h5.8v42.8h-5.8v-42.8Z"/>
        <path class="st2" d="M389.4,80c2.3.4,4.6,1.4,7,3,2.4,1.6,4.4,4,6.1,7.1,1.7,3.2,2.5,7.1,2.5,11.7,0,3.5-.6,6.5-1.8,9.1-1.2,2.6-2.7,4.7-4.4,6.3s-3.4,2.8-5.1,3.6c-1.7.8-3.1,1.3-4.1,1.4-1.5.2-4.6.3-9.5.3h-1.3c-.6,0-1.4,0-2.3,0-3.4,0-5.7-.1-7.1-.4-1.3-.2-2.8-.8-4.4-1.6s-3.3-2.1-5-3.8-3-3.8-4.1-6.4c-1.1-2.6-1.6-5.7-1.6-9.2,0-5,1-9,2.9-12.1s4-5.3,6.2-6.6c2.2-1.3,4.2-2.2,5.8-2.6,1-.2,4.3-.4,10-.4s9,.1,10.3.3ZM388.7,116.8c.3,0,1-.3,2.1-.8s2.3-1.3,3.6-2.4c1.3-1.1,2.5-2.6,3.5-4.6,1-2,1.5-4.4,1.5-7.3,0-4.3-.8-7.7-2.4-10.1s-3.2-4.1-4.8-4.9c-1.6-.8-2.9-1.3-3.8-1.5-1-.2-4.1-.2-9.4-.2s-7.7,0-8.7.2c-1.4.4-2.9,1-4.5,2.1-1.6,1-3.1,2.7-4.4,4.9-1.3,2.3-2,5.3-2,8.9s.5,5.6,1.5,7.6c1,2.1,2.1,3.7,3.5,4.8s2.5,1.9,3.5,2.4,1.8.7,2.1.8c1,.2,3.1.3,6.1.3s2.1,0,2.3,0h1.3c4.6,0,7.5,0,8.7-.3Z"/>
        <path class="st2" d="M456.8,79.8h5.7v44.4l-5.1-6.1c-1.7-2.1-4.4-5.1-8.1-9-3.7-3.9-7.4-7.4-11.2-10.5-3.1-2.5-8.3-5.8-15.5-9.7v33.7h-5.7v-43.1l4.2,2.2c2.4,1.3,5.8,3.1,10.1,5.5,4.3,2.4,7.8,4.8,10.6,7,4.4,3.6,9.4,8.4,15,14.5v-29Z"/>
      </g>
    </g>
    <g>
      <path class="st2" d="M435.7,11.6c-7.7,0-14,6.2-14,14s6.2,14,14,14,14-6.2,14-14-6.2-14-14-14ZM435.7,35.7c-5.6,0-10.2-4.5-10.2-10.2s4.5-10.2,10.2-10.2,10.2,4.5,10.2,10.2-4.5,10.2-10.2,10.2Z"/>
      <path class="st2" d="M438,32.5l-3.3-5.8h-1.8v5.8h-2.4v-14.4h5c1.1,0,2,.2,2.8.6s1.3.9,1.7,1.6c.4.7.6,1.4.6,2.2s-.3,1.8-.8,2.6c-.5.8-1.4,1.3-2.5,1.6l3.6,6h-2.8ZM432.9,24.8h2.6c.9,0,1.6-.2,2-.7.4-.4.7-1,.7-1.8s-.2-1.3-.7-1.8c-.4-.4-1.1-.6-2-.6h-2.6v4.8h0Z"/>
    </g>
  </g>
</svg>