<?xml version="1.0" encoding="UTF-8"?><svg id="Capa_1" xmlns="http://www.w3.org/2000/svg" xmlns:xlink="http://www.w3.org/1999/xlink" viewBox="0 0 494 187"><defs><style>.cls-1{fill:url(#Degradado_sin_nombre_8);}.cls-1,.cls-2,.cls-3,.cls-4,.cls-5,.cls-6{stroke-width:0px;}.cls-3{fill:#fff;}.cls-4{fill:#ff6e00;}.cls-5{fill:#6d6d6d;}.cls-6{fill:#fcfcfc;}</style><linearGradient id="Degradado_sin_nombre_8" x1="21.43" y1="153.41" x2="479.98" y2="153.41" gradientUnits="userSpaceOnUse"><stop offset="0" stop-color="#ff5d00"/><stop offset=".12" stop-color="#ff5206"/><stop offset=".44" stop-color="#ff3b13"/><stop offset=".74" stop-color="#ff2d1b"/><stop offset="1" stop-color="#ff291e"/></linearGradient></defs><rect class="cls-3" width="494" height="187"/><path class="cls-5" d="m279.1,71.47v42.9h-12.05l.09-76.22c.31-6.21-5.87-11.08-11.57-11.08h-2.39v-2.86h42.07c31.14,0,28.25,20.78,28.25,24.99,0,23.9-25.52,22.24-26.82,22.24-3.56,0-13.16.03-17.58.03Zm.03-4.57c.44,0,4.77.02,9.68.03,2.16,0,3.95,0,4.93-.18,16.54-2.91,16.04-15.65,16.04-17.07,0-1.31.01-4.87.01-5.47,0-8.88-9.96-13.05-13.55-13.52-5.23-.68-17.11-1.83-17.11,4.77v31.44Z"/><path class="cls-5" d="m398.85,115.7h-14.03l-26.7-45.09c-1.11.07-3.72.03-6.62.03v27.76c0,3.17,0,15.97,0,15.97h-11.5l-.12-77.84c.15-5.18-7.4-9.45-10.72-9.45l-2.96-.04v-2.83h32.33c4.75,0,9.02-.02,12.48.24,21.92,1.66,24.44,14.02,24.44,22.97,0,5.62-1.76,10.45-5.27,14.48-3.52,4.03-8.95,7.17-18.04,8.27v.65c2.09,3.69,26.73,44.89,26.73,44.89Zm-46.97-49.64c.86,0,8.43-.02,8.83-.02,6.26,0,12.2-3.51,14.38-5.19,2.18-1.67,3.82-3.64,4.91-5.9,1.09-2.26,1.64-4.72,1.64-7.39s-.46-5-1.39-7.2c-.93-2.2-2.25-4.09-3.97-5.67-1.72-1.58-3.77-2.8-6.15-3.67-2.38-.87-4.99-1.3-7.84-1.3s-10.41-1.39-10.41,6.34v29.99Z"/><path class="cls-5" d="m443.89,117.22c-5.16,0-9.86-.89-14.1-2.66-4.24-1.77-7.87-4.54-10.9-8.29s-5.38-8.55-7.03-14.39c-1.66-5.84-2.48-12.82-2.48-20.95,0-10.02.25-17.44,2.85-26.04s7.4-13.56,12.89-17.23c6.09-4.07,13.25-4.57,20.13-4.57,7.65,0,14.51,1.46,19.74,4.99,5.23,3.53,9.35,8.83,12,15.68,2.64,6.85,3.36,15.38,3.36,25.21,0,10.51-.64,20.49-3.65,27.72-3.01,7.23-7.11,12.45-12.59,16.04-5.48,3.59-12.89,4.48-20.2,4.48Zm-20.73-48.07c0,13.88,1.23,24.95,5.07,32.18,3.85,7.23,9.57,10.69,16.97,10.69,4.69,0,8.91-1.76,12.18-4.9,3.27-3.14,5.59-8.05,7.22-14.11,1.63-6.06,2.17-13.26,2.17-21.35,0-9.86.13-17.97-1.78-24.46-1.91-6.49-4.58-11.77-7.89-14.71-3.31-2.94-7.85-4.24-12.24-4.24-3.87,0-8.26,1.35-11.03,3.25-2.77,1.9-4.68,4.67-6.5,8.17-1.83,3.5-2.56,7.74-3.39,12.72-.84,4.97-.76,10.66-.76,16.76Z"/><path class="cls-2" d="m234.13,113.92l-2.08.06-45.53-78.71-.03,42.21c0,12.7-.06,36.74-.06,36.74l-7.49-.02s0-6.13,0-13.13c0-4.49,0-10.86,0-23.7l.03-41.58c0-3.95-.67-3.29-2.5-6.39-1.93-3.53-6.28-3.06-11.26-3.77v-2.58h27.62l41.24,71.58.06,19.31Z"/><path class="cls-2" d="m62.42,65.53c13.13,1.95,20.94,11.55,20.94,21.65,0,11.7-3.79,18.68-12.12,23.17-7.34,4.07-17.4,3.74-25.66,3.78h-22.57s0-6.36,0-17.44l.03-56.13c0-11.65-1.58-13.63-13.01-14.61v-3.03h37.81c10.58,0,17.47,1.38,21.98,4.47,4.94,3.37,8.33,5.88,8.33,16.13,0,16.84-7.83,20.05-15.73,22.01Zm-16.6-2.38c13.18.51,18.87-6.35,19.27-17.24.38-10.3-6.19-17.93-19.94-17.93-3.95,0-6.49.43-7.9,1.43-1.13.86-2,2.44-2,7.03v26.73l10.57-.02Zm-10.57,33.7c0,13.15.45,12.24,12.86,12.24,11.01,0,21.73-5.2,21.73-19.99,0-13.87-10.16-19.85-27.37-19.85h-7.22v27.6Z"/><path class="cls-2" d="m131.24,23.03h-23.29l.09,2.88c14.41.68,9.18,9.59,9.18,9.59l-29.23,78.71h9.09l10.87-30.29h33.27l11.64,30.29h13.37l-34.99-91.18Zm-21.33,55.87l14.67-38.88h.89l14.55,38.88h-30.12Z"/><rect class="cls-4" x="235.2" y="25.52" width="10.69" height="45.09"/><rect class="cls-1" x="21.43" y="134.02" width="458.55" height="38.79"/><path class="cls-6" d="m269.53,140.76h12.85v2.49h-10.29v7.97h10.29v2.49h-10.29v12.48h-2.56v-25.42Z"/><path class="cls-6" d="m296.36,140.76l11.96,25.42h-2.77l-4.04-8.36h-11.05l-4,8.36h-2.86l12.12-25.42h.63Zm-.32,5.4l-4.4,9.2h8.77l-4.38-9.2Z"/><path class="cls-6" d="m335.24,145.48l-2.02,1.54c-1.12-1.44-2.46-2.53-4.02-3.27-1.56-.74-3.28-1.11-5.15-1.11-2.05,0-3.94.49-5.69,1.46-1.74.97-3.1,2.28-4.06,3.92-.96,1.64-1.44,3.49-1.44,5.54,0,3.1,1.07,5.68,3.22,7.76,2.15,2.07,4.85,3.11,8.12,3.11,3.59,0,6.6-1.39,9.02-4.18l2.02,1.52c-1.28,1.61-2.88,2.86-4.79,3.74-1.91.88-4.05,1.32-6.41,1.32-4.49,0-8.03-1.48-10.62-4.44-2.17-2.5-3.26-5.52-3.26-9.05,0-3.72,1.32-6.85,3.95-9.39s5.93-3.81,9.9-3.81c2.39,0,4.56.47,6.49,1.41,1.93.94,3.51,2.25,4.74,3.95Z"/><path class="cls-6" d="m336.87,143.25v-2.49h14.06v2.49h-5.72v22.93h-2.62v-22.93h-5.72Z"/><path class="cls-6" d="m365.88,140.12c3.89,0,7.14,1.29,9.76,3.85,2.62,2.57,3.93,5.73,3.93,9.49s-1.31,6.88-3.92,9.47c-2.61,2.59-5.8,3.89-9.56,3.89s-7.02-1.29-9.63-3.87c-2.62-2.58-3.93-5.7-3.93-9.37,0-2.44.6-4.71,1.79-6.79,1.19-2.08,2.82-3.72,4.88-4.9s4.29-1.77,6.68-1.77Zm.11,2.47c-1.9,0-3.7.49-5.4,1.47-1.7.98-3.03,2.3-3.98,3.96-.96,1.66-1.43,3.51-1.43,5.55,0,3.02,1.06,5.57,3.17,7.65,2.11,2.08,4.66,3.12,7.64,3.12,1.99,0,3.83-.48,5.53-1.43s3.02-2.27,3.97-3.93c.95-1.66,1.42-3.5,1.42-5.53s-.47-3.84-1.42-5.47c-.95-1.63-2.29-2.94-4.01-3.92-1.72-.98-3.55-1.47-5.49-1.47Z"/><path class="cls-6" d="m383.88,140.76h5.11c2.85,0,4.78.12,5.79.35,1.52.35,2.76,1.09,3.71,2.22.95,1.14,1.43,2.54,1.43,4.2,0,1.38-.33,2.6-.99,3.65-.66,1.05-1.6,1.84-2.82,2.38-1.22.54-2.91.81-5.06.82l9.23,11.8h-3.17l-9.23-11.8h-1.45v11.8h-2.56v-25.42Zm2.56,2.49v8.64l4.42.04c1.71,0,2.98-.16,3.8-.48.82-.32,1.46-.84,1.92-1.55.46-.71.69-1.5.69-2.38s-.23-1.63-.7-2.32-1.08-1.2-1.83-1.5c-.76-.3-2.02-.45-3.77-.45h-4.53Z"/><path class="cls-6" d="m404.09,140.76h2.56v25.42h-2.56v-25.42Z"/><path class="cls-6" d="m411.59,165.96v-24.86h.91s16.5,18.75,16.5,18.75v-19.09h2.45v25.2h-1.01l-16.2-18.18v18.18h-2.65Z"/><path class="cls-6" d="m461.78,145.03l-1.99,1.87c-1.43-1.39-3-2.45-4.7-3.17s-3.36-1.08-4.98-1.08c-2.01,0-3.93.49-5.75,1.47-1.82.98-3.23,2.31-4.23,3.98-1,1.68-1.5,3.45-1.5,5.31s.52,3.73,1.55,5.45c1.03,1.72,2.46,3.08,4.29,4.06,1.83.98,3.83,1.48,6,1.48,2.64,0,4.87-.74,6.7-2.21,1.83-1.47,2.91-3.39,3.24-5.74h-8.18v-2.45h11.06c-.02,3.93-1.2,7.05-3.53,9.36-2.33,2.31-5.45,3.46-9.36,3.46-4.74,0-8.5-1.6-11.27-4.8-2.13-2.46-3.19-5.32-3.19-8.55,0-2.41.61-4.65,1.83-6.72,1.22-2.07,2.9-3.69,5.02-4.86,2.13-1.17,4.53-1.75,7.22-1.75,2.17,0,4.22.39,6.14,1.17,1.92.78,3.79,2.02,5.62,3.74Z"/></svg>