<?xml version="1.0" encoding="UTF-8"?><svg id="Capa_13" xmlns="http://www.w3.org/2000/svg" viewBox="0 0 752.64 299.39"><defs><style>.cls-1{fill:#005a90;}.cls-1,.cls-2{stroke-width:0px;}.cls-2{fill:#009043;}</style></defs><path class="cls-2" d="m204.82,154.31v72.87h-13.29v-72.87h13.29Z"/><path class="cls-2" d="m213.96,190.36c0-6.02-.21-11.1-.42-15.61h11.32l.64,7.86h.32c2.33-4.09,7.94-9.05,16.51-9.05,9,0,18.31,5.92,18.31,22.5v31.12h-13.02v-29.6c0-7.54-2.75-13.24-9.84-13.24-5.18,0-8.78,3.76-10.16,7.75-.43,1.08-.63,2.69-.63,4.2v30.9h-13.02v-36.82Z"/><path class="cls-2" d="m286.09,160.77v13.54h12.68v9.98h-12.68v23.3c0,6.5,1.73,9.75,6.83,9.75,2.38,0,3.68-.11,5.2-.55l.21,10.08c-1.95.76-5.52,1.41-9.65,1.41-4.98,0-9-1.63-11.48-4.33-2.93-3.04-4.23-7.91-4.23-14.85v-24.82h-7.48v-9.98h7.48v-9.86l13.11-3.69Z"/><path class="cls-2" d="m314.27,204.39c.32,9.56,7.71,13.69,16.3,13.69,6.19,0,10.54-.98,14.67-2.39l1.96,9.13c-4.56,1.96-10.87,3.37-18.47,3.37-17.17,0-27.28-10.54-27.28-26.73,0-14.67,8.91-28.48,25.86-28.48s22.82,14.13,22.82,25.76c0,2.5-.21,4.46-.43,5.65h-35.42Zm23.26-9.34c.11-4.9-2.07-12.93-10.98-12.93-8.26,0-11.74,7.49-12.28,12.93h23.26Z"/><path class="cls-2" d="m357.54,191.47c0-7.14-.1-12.33-.42-16.99h11.22l.53,9.96h.32c2.54-7.36,8.57-11.15,14.18-11.15,1.27,0,2.01.12,3.07.33v12.44c-1.16-.21-2.33-.32-3.91-.32-6.14,0-10.48,4-11.65,10.06-.21,1.2-.32,2.6-.32,4.01v27.38h-13.03v-35.71Z"/><path class="cls-2" d="m393.4,190.32c0-6.03-.21-11.1-.43-15.62h11.53l.65,7.87h.32c2.37-4.1,8.08-9.06,16.81-9.06,9.16,0,18.65,5.93,18.65,22.53v31.15h-13.25v-29.64c0-7.55-2.81-13.25-10.03-13.25-5.28,0-8.95,3.77-10.35,7.75-.43,1.08-.64,2.69-.64,4.2v30.93h-13.26v-36.86Z"/><path class="cls-2" d="m491.58,214.5c0,4.74.22,9.38.86,12.6h-11.95l-.97-5.81h-.32c-3.12,4.09-8.62,7-15.51,7-10.55,0-16.48-7.65-16.48-15.62,0-13.13,11.74-19.92,31.12-19.81v-.86c0-3.45-1.4-9.15-10.66-9.15-5.17,0-10.55,1.62-14.11,3.88l-2.58-8.62c3.88-2.37,10.66-4.63,18.95-4.63,16.8,0,21.65,10.66,21.65,22.19v18.84Zm-12.92-13.03c-9.37-.11-18.3,1.83-18.3,9.8,0,5.17,3.33,7.54,7.54,7.54,5.38,0,9.15-3.45,10.44-7.22.32-.97.32-1.94.32-2.9v-7.22Z"/><path class="cls-2" d="m540.47,225.47c-2.82,1.3-8.35,2.71-14.97,2.71-16.48,0-27.21-10.63-27.21-26.99s10.84-28.08,29.38-28.08c4.88,0,9.86,1.08,12.9,2.39l-2.38,10.08c-2.17-1.08-5.31-2.06-10.08-2.06-10.19,0-16.26,7.48-16.16,17.13,0,10.84,7.05,17.02,16.16,17.02,4.55,0,7.92-.98,10.52-2.06l1.85,9.86Z"/><path class="cls-2" d="m560.86,159.47c0,3.91-2.94,7.17-7.6,7.17s-7.39-3.26-7.39-7.17c0-4.12,3.04-7.28,7.5-7.28s7.38,3.16,7.49,7.28Zm-14.23,67.71v-52.92h13.37v52.92h-13.37Z"/><path class="cls-2" d="m620.44,200.34c0,19.32-13.59,27.94-26.97,27.94-14.78,0-26.32-10.14-26.32-27.09s11.32-27.83,27.19-27.83,26.11,11.01,26.11,26.97Zm-39.59.54c0,10.13,5.07,17.8,13.05,17.8,7.55,0,12.84-7.34,12.84-18.01,0-8.21-3.67-17.7-12.72-17.7s-13.16,9.18-13.16,17.92Z"/><path class="cls-2" d="m628.16,190.38c0-6.02-.21-11.08-.43-15.6h11.52l.64,7.86h.32c2.37-4.09,8.07-9.05,16.78-9.05,9.15,0,18.62,5.92,18.62,22.49v31.1h-13.24v-29.59c0-7.54-2.79-13.24-10-13.24-5.27,0-8.93,3.77-10.33,7.75-.43,1.06-.64,2.69-.64,4.2v30.88h-13.24v-36.8Z"/><path class="cls-2" d="m726.95,214.47c0,4.75.22,9.39.86,12.62h-11.97l-.97-5.82h-.32c-3.13,4.1-8.63,7.01-15.53,7.01-10.56,0-16.49-7.67-16.49-15.64,0-13.16,11.75-19.95,31.16-19.84v-.86c0-3.45-1.4-9.17-10.68-9.17-5.17,0-10.56,1.62-14.12,3.88l-2.59-8.63c3.88-2.37,10.67-4.63,18.98-4.63,16.82,0,21.68,10.68,21.68,22.21v18.87Zm-12.94-13.05c-9.38-.11-18.34,1.83-18.34,9.82,0,5.17,3.35,7.55,7.55,7.55,5.39,0,9.17-3.46,10.46-7.23.32-.97.32-1.95.32-2.91v-7.23Z"/><path class="cls-2" d="m736.27,149.97h13.38v77.21h-13.38v-77.21Z"/><path class="cls-1" d="m191.5,95.04c2.68-.55,7.56-1.03,12.37-1.03,6.19,0,10.11.83,13.2,2.96,2.89,1.72,4.81,4.74,4.81,8.73,0,4.26-2.68,8.12-7.69,9.97v.21c4.88,1.24,9.34,5.09,9.34,11.41,0,4.12-1.79,7.35-4.4,9.62-3.3,2.82-8.73,4.27-17.25,4.27-4.67,0-8.18-.35-10.38-.62v-45.5Zm8.38,18.28h4.33c5.91,0,9.15-2.74,9.15-6.66,0-4.4-3.3-6.39-8.67-6.39-2.47,0-3.91.14-4.81.35v12.71Zm0,21.24c1.1.2,2.54.2,4.47.2,5.43,0,10.31-1.99,10.31-7.69s-4.74-7.63-10.59-7.63h-4.19v15.12Z"/><path class="cls-1" d="m254.88,132.63c0,3.03.14,5.98.55,8.04h-7.63l-.62-3.71h-.21c-1.99,2.61-5.5,4.46-9.9,4.46-6.73,0-10.52-4.88-10.52-9.96,0-8.39,7.49-12.72,19.86-12.65v-.55c0-2.2-.89-5.84-6.8-5.84-3.3,0-6.74,1.03-9,2.47l-1.65-5.49c2.48-1.51,6.8-2.96,12.1-2.96,10.72,0,13.81,6.81,13.81,14.16v12.03Zm-8.25-8.31c-5.98-.07-11.68,1.17-11.68,6.25,0,3.3,2.13,4.81,4.81,4.81,3.44,0,5.85-2.2,6.67-4.61.21-.62.21-1.24.21-1.85v-4.61Z"/><path class="cls-1" d="m262.22,117.17c0-3.85-.14-7.08-.27-9.97h7.35l.41,5.02h.21c1.51-2.61,5.15-5.78,10.72-5.78s11.89,3.78,11.89,14.37v19.86h-8.45v-18.9c0-4.81-1.79-8.46-6.39-8.46-3.37,0-5.7,2.41-6.59,4.95-.28.69-.42,1.72-.42,2.68v19.72h-8.46v-23.5Z"/><path class="cls-1" d="m324.31,139.3c-1.79.82-5.29,1.72-9.48,1.72-10.45,0-17.25-6.73-17.25-17.11s6.87-17.8,18.63-17.8c3.09,0,6.25.69,8.17,1.51l-1.51,6.39c-1.38-.69-3.37-1.31-6.39-1.31-6.46,0-10.31,4.75-10.24,10.87,0,6.87,4.47,10.79,10.24,10.79,2.89,0,5.02-.62,6.67-1.3l1.17,6.25Z"/><path class="cls-1" d="m359.74,123.25c0,12.31-8.66,17.8-17.18,17.8-9.42,0-16.77-6.46-16.77-17.25s7.22-17.73,17.32-17.73,16.64,7.01,16.64,17.18Zm-25.22.35c0,6.46,3.23,11.34,8.31,11.34,4.82,0,8.18-4.67,8.18-11.48,0-5.22-2.34-11.27-8.11-11.27s-8.38,5.84-8.38,11.41Z"/><path class="cls-2" d="m163.35,146.32s-10.12-66.92-88.89-65.7c0,0,17.79-.15,31.48,21.14,0,0,3.19,5.78,4.71,9.12,0,0,2.51,7.72,11.52,8.29,0,0,32.13,1.44,41.18,27.14Z"/><path class="cls-2" d="m77.19,240.31s73.46,5.48,87.52-70.49c0,0,3.12-17.42-16.8-27.76,0,0-24.08-14.6-26.87,6.23,0,0,7.55,82.9-43.85,92.01Z"/><path class="cls-1" d="m17.8,160.77s20.3-17.85,49.96-23.68c0,0,30.34-6.05,37.64,25.88,0,0,.84,22.28-3.73,38.25,0,0-7.91,34.83-27.22,38.48,0,0-55.74-1.45-71.94-58.71,0,0-16.42-54.66,34.68-86.99,0,0,11.86-8.06,27.53-11.42,0,0,12.78-3.5,21.6,9.89,0,0,10.04,9.88,2.43,22.36,0,0-2.4,7.42-15.86,10.27,0,0-35.58,10.31-55.09,35.67Z"/></svg>