<?xml version="1.0" encoding="UTF-8"?><svg id="Capa_15" xmlns="http://www.w3.org/2000/svg" viewBox="0 0 752.64 299.39"><defs><style>.cls-1{fill:#502d7f;}.cls-1,.cls-2,.cls-3,.cls-4{fill-rule:evenodd;stroke-width:0px;}.cls-2{fill:#8b4591;}.cls-3{fill:#f2ae4d;}.cls-4{fill:#e32f37;}</style></defs><path class="cls-1" d="m139.29,129.11c2.24.03,4.47-.38,6.55-1.21,1.9-.77,3.62-1.94,5.05-3.42,1.4-1.48,2.48-3.26,3.25-5.33.77-2.07,1.15-4.38,1.15-6.91.03-2.35-.36-4.69-1.15-6.91-.71-1.98-1.81-3.79-3.25-5.32-1.42-1.49-3.14-2.66-5.05-3.42-2.08-.83-4.31-1.24-6.55-1.21-1.14,0-2.27.09-3.4.27-1.14.18-2.13.33-3,.47-1.07.28-2.1.56-3.1.84v30.57c1.01.28,2.04.53,3.11.74.93.28,1.95.49,3.04.63,1.1.15,2.22.21,3.35.21Zm-9.49-43.75c1.01-.28,2.04-.57,3.11-.85.93-.21,1.95-.38,3.04-.53,1.1-.14,2.22-.21,3.35-.21,4.4,0,8.4.74,12,2.22,3.47,1.39,6.63,3.45,9.3,6.06,2.59,2.57,4.61,5.59,6.04,9.07,1.44,3.48,2.16,7.19,2.16,11.12.02,3.82-.71,7.6-2.16,11.13-1.38,3.4-3.44,6.48-6.04,9.06-2.67,2.61-5.83,4.67-9.3,6.06-3.6,1.48-7.6,2.22-12,2.22-2.87,0-5.64-.25-8.35-.74-2.44-.43-4.86-1-7.25-1.69-2.35-.61-4.65-1.38-6.9-2.32v-70.7c0-.26.19-.46.43-.46h12.12c.25,0,.44.21.44.45h0v20.11h0Z"/><path class="cls-1" d="m335.16,134.31c.11.2.06.45-.11.6-1.46,1.14-3.03,2.11-4.7,2.92-1.9.91-3.87,1.65-5.9,2.21-2.2.64-4.74.95-7.6.95-4.4,0-8.4-.74-12-2.21-3.47-1.39-6.62-3.45-9.3-6.06-2.61-2.58-4.66-5.67-6.04-9.06-1.44-3.53-2.17-7.31-2.15-11.13-.02-3.81.71-7.59,2.15-11.12,1.38-3.4,3.44-6.48,6.04-9.07,2.68-2.61,5.83-4.66,9.3-6.06,3.6-1.48,7.6-2.22,12-2.22,2.49-.03,4.98.28,7.4.9,2.2.59,4.1,1.24,5.7,1.95,1.67.85,3.18,1.75,4.56,2.72.19.14.25.4.14.61l-4.57,8.68c-.1.21-.35.29-.55.2-.02,0-.04-.02-.06-.03-.93-.61-1.9-1.16-2.91-1.63-1.25-.53-2.54-.95-3.86-1.26-1.59-.37-3.21-.55-4.84-.53-2.41,0-4.64.46-6.7,1.37-2.02.88-3.85,2.13-5.4,3.68-1.53,1.55-2.75,3.37-3.59,5.38-.87,2.03-1.31,4.22-1.3,6.43.02,4.43,1.78,8.67,4.9,11.81,1.53,1.55,3.34,2.78,5.4,3.69,2.11.92,4.39,1.39,6.7,1.37,3.16.04,6.28-.69,9.09-2.11,1.1-.55,2.1-1.15,3-1.81.19-.14.45-.1.6.08.02.02.03.04.04.07l4.57,8.68h0Z"/><path class="cls-1" d="m378.31,112.52c0-2.53-.38-4.83-1.15-6.91-.69-1.95-1.75-3.76-3.1-5.33-1.27-1.46-2.84-2.62-4.6-3.42-1.77-.81-3.7-1.23-5.65-1.22-2,0-3.89.41-5.65,1.22-1.76.8-3.33,1.96-4.6,3.42-1.3,1.48-2.34,3.26-3.1,5.33-.79,2.22-1.18,4.55-1.15,6.91,0,2.53.38,4.84,1.15,6.9.69,1.95,1.74,3.76,3.1,5.33,2.58,2.96,6.32,4.65,10.25,4.63,2,0,3.88-.41,5.65-1.21,1.76-.8,3.33-1.96,4.6-3.42,1.3-1.48,2.34-3.26,3.1-5.33.77-2.07,1.15-4.38,1.15-6.91m-42.48,0c-.03-3.81.7-7.59,2.14-11.12,1.44-3.48,3.41-6.5,5.91-9.07,2.52-2.58,5.53-4.64,8.85-6.06,3.4-1.48,7.1-2.22,11.09-2.22,7.53-.07,14.76,2.92,20.05,8.28,2.52,2.61,4.51,5.69,5.85,9.07,1.41,3.54,2.12,7.32,2.1,11.13.03,3.81-.69,7.59-2.1,11.13-1.34,3.37-3.32,6.45-5.85,9.06-2.53,2.59-5.56,4.65-8.9,6.06-3.52,1.5-7.31,2.25-11.14,2.22-7.5.08-14.71-2.91-19.94-8.28-2.53-2.61-4.54-5.69-5.91-9.06-1.44-3.53-2.17-7.31-2.15-11.13"/><path class="cls-1" d="m444.62,95.64c-1.14,0-2.22.13-3.25.37-1.04.26-1.92.48-2.65.68-.93.39-1.79.79-2.59,1.19v40.53c0,.25-.19.45-.44.46h-12.12c-.25,0-.45-.21-.44-.46h0v-49.62c1.97-.95,4.01-1.76,6.1-2.42,2.16-.67,4.36-1.22,6.59-1.64,2.41-.46,5-.68,7.81-.68,2.46,0,4.71.21,6.74.63,2.03.42,3.81.91,5.35,1.48,1.65.58,3.17,1.23,4.55,1.93.2.11.29.35.22.57l-3.21,10.22c-.09.28-.41.41-.64.26-.94-.6-1.92-1.13-2.94-1.59-1.31-.54-2.67-.98-4.05-1.33-1.65-.4-3.35-.59-5.04-.57"/><path class="cls-1" d="m467.47,86.15h12.11c.24,0,.44.21.44.47v51.79c0,.25-.18.45-.43.46,0,0,0,0,0,0h-11.92c-.36,0-.64-.31-.64-.67h0v-51.58c0-.25.19-.47.44-.47m-1.94-15.28c0-2.11.76-3.95,2.29-5.54,1.53-1.58,3.44-2.37,5.7-2.37s4.16.79,5.7,2.37c1.54,1.59,2.31,3.44,2.31,5.54s-.77,3.95-2.31,5.53c-1.48,1.56-3.55,2.42-5.69,2.37-2.27,0-4.17-.79-5.7-2.37-1.54-1.58-2.29-3.43-2.29-5.54"/><path class="cls-1" d="m513.76,95.37c-1.14,0-2.27.09-3.41.26-1.13.18-2.14.33-3,.48-1.06.27-2.1.56-3.09.84v30.57c.99.28,2.03.52,3.09.73.93.29,1.96.5,3.05.63,1.1.15,2.22.22,3.36.22,2.24.03,4.46-.39,6.54-1.21,1.96-.81,3.65-1.95,5.05-3.43,1.4-1.48,2.48-3.25,3.25-5.33.79-2.21,1.18-4.55,1.15-6.9,0-2.53-.39-4.83-1.15-6.91-.71-1.98-1.81-3.79-3.25-5.33-1.42-1.48-3.14-2.65-5.05-3.42-2.08-.83-4.3-1.24-6.54-1.21m-9.95,63.25h-12.11c-.25,0-.45-.21-.44-.46v-69.33c0-.19.11-.36.28-.44,2.16-.88,4.37-1.65,6.62-2.31,2.42-.67,4.88-1.21,7.35-1.64,2.63-.46,5.37-.68,8.25-.68,4.4,0,8.39.74,11.99,2.21,3.59,1.48,6.7,3.5,9.3,6.06,2.6,2.59,4.66,5.67,6.04,9.07,1.43,3.48,2.15,7.19,2.15,11.13.02,3.81-.71,7.59-2.15,11.12-1.38,3.4-3.44,6.49-6.04,9.07-2.67,2.61-5.83,4.67-9.3,6.06-3.6,1.48-7.6,2.22-11.99,2.22-1.14,0-2.27-.1-3.41-.27-1.13-.17-2.14-.33-3-.47-1.03-.27-2.06-.55-3.09-.84v19.04c0,.25-.19.46-.44.46"/><path class="cls-1" d="m553.11,138.87c-.25,0-.44-.21-.44-.46v-62.27l-.04-10.6c0-.26.21-.47.45-.47h12.14c.25,0,.44.21.44.47v72.87c0,.25-.2.45-.44.46h0"/><path class="cls-1" d="m612.94,107.5c-.53-3.44-1.93-6.33-4.2-8.64-2.15-2.27-5.17-3.54-8.3-3.48-3.26,0-6.06,1.16-8.35,3.48-2.29,2.32-3.71,5.2-4.25,8.65h25.1Zm7.32,11.07h-32.42c1.08,2.9,2.91,5.47,5.3,7.43,2.47,2.07,6.06,3.11,10.79,3.11,1.82.02,3.64-.19,5.4-.63,1.41-.35,2.78-.85,4.09-1.48,1.16-.55,2.19-1.15,3.1-1.81.19-.14.46-.1.6.09.02.02.03.04.04.07l4.57,8.67c.11.21.05.46-.13.61-1.52,1.14-3.16,2.12-4.88,2.92-1.94.93-3.97,1.67-6.06,2.22-2.53.66-5.13.98-7.74.95-4.4,0-8.38-.73-11.95-2.16-3.42-1.35-6.53-3.38-9.14-5.96-2.55-2.57-4.55-5.63-5.85-9.01-1.37-3.48-2.05-7.26-2.05-11.33s.65-8.07,1.95-11.54c1.21-3.34,3.08-6.41,5.5-9.02,2.35-2.53,5.22-4.52,8.4-5.86,3.22-1.37,6.77-2.05,10.64-2.05s7.41.68,10.64,2.05c3.23,1.37,6.03,3.33,8.4,5.86,2.41,2.61,4.28,5.68,5.5,9.02,1.28,3.42,1.93,7.2,1.95,11.33,0,.13-.05.26-.15.36l-6.22,6.06c-.08.08-.19.12-.3.13h0Z"/><path class="cls-1" d="m685.02,134.32c0,3.14-.64,6.24-1.9,9.12-1.29,2.95-3.2,5.59-5.6,7.75-2.47,2.25-5.45,4.05-8.95,5.38-3.5,1.33-7.51,2-12.05,2-2.99,0-5.69-.33-8.1-1-2.09-.56-4.12-1.28-6.1-2.16-1.88-.84-3.66-1.91-5.3-3.16l4.78-9.07c.1-.21.35-.29.55-.2.02,0,.03.02.05.03,1.1.67,2.34,1.3,3.72,1.86,1.33.56,2.87,1.05,4.59,1.48,1.74.42,3.66.63,5.8.63,3.41,0,6.12-.6,8.15-1.79,2.04-1.2,3.58-2.54,4.65-4.01,1.26-1.69,2.16-3.62,2.69-5.8v-1.05c-1.2.21-2.4.39-3.6.53-1.12.14-2.33.26-3.59.36-1.27.11-2.54.15-3.8.15-4.27,0-8.04-.59-11.3-1.79-3.27-1.2-6.03-2.85-8.3-4.96-2.25-2.08-4.01-4.64-5.15-7.49-1.19-3.02-1.78-6.24-1.75-9.49v-27.47c0-.26.2-.47.44-.47h12.11c.24,0,.44.21.44.47v27.47c0,3.44,1.18,6.33,3.55,8.64,2.37,2.32,5.68,3.48,9.94,3.48,1.4,0,2.74-.09,4.05-.26,1.3-.18,2.48-.37,3.55-.58,1.2-.21,2.33-.46,3.39-.74v-38.01c0-.26.2-.47.44-.47h12.11c.24,0,.44.21.44.47v50.14h0Z"/><path class="cls-1" d="m230.28,137.91v-48.43c0-.41.25-.77.61-.9,2.33-.84,4.69-1.57,7.08-2.21,2.47-.63,5.08-1.17,7.84-1.63,2.79-.46,5.62-.69,8.45-.69,4.26,0,8.04.6,11.34,1.79,3.31,1.2,6.06,2.85,8.3,4.96,2.22,2.1,3.96,4.65,5.1,7.48,1.18,3.02,1.77,6.24,1.74,9.48v30.14c.01.51-.38.93-.89.94h-11.2c-.51-.01-.91-.44-.9-.94v-30.14c0-3.44-1.18-6.33-3.54-8.63-2.37-2.32-5.68-3.48-9.94-3.48-1.4,0-2.75.13-4.05.37-1.2.23-2.4.46-3.61.69-.95.31-1.86.63-2.74.95-.37.14-.6.5-.59.89v39.36c.01.51-.39.93-.9.94h-11.2c-.51-.02-.91-.44-.9-.94"/><path class="cls-1" d="m208.93,127.45c-1.07.28-2.24.53-3.5.74-1.07.21-2.28.4-3.64.58-1.44.18-2.9.27-4.36.26-4.26,0-7.24-.69-8.95-2.06-1.7-1.37-2.55-2.96-2.55-4.79s.85-3.43,2.55-4.8c1.7-1.37,4.68-2.05,8.95-2.05,1.54,0,2.97.05,4.3.16,1.34.11,2.57.23,3.7.37,1.27.15,2.43.32,3.5.53v11.07Zm13-20.56c0-7.17-2.07-12.82-6.2-16.97-4.13-4.15-10.23-6.22-18.29-6.22-2.99,0-5.65.28-7.95.84-2.07.49-4.09,1.16-6.05,2-1.64.76-3.2,1.67-4.67,2.72-.2.13-.24.39-.14.61l4.59,8.71c.12.22.38.3.59.19,1.16-.65,2.37-1.21,3.62-1.68,1.27-.42,2.75-.82,4.45-1.21,1.82-.4,3.68-.59,5.54-.58,4,0,6.91.85,8.75,2.54,1.83,1.69,2.75,4.01,2.75,6.96-1.09-.22-2.19-.4-3.3-.53-1.23-.15-2.46-.28-3.69-.37-1.41-.1-2.9-.15-4.5-.15-4.4,0-8.16.47-11.29,1.41-3.13.95-5.72,2.23-7.75,3.85-1.96,1.52-3.51,3.52-4.49,5.8-.99,2.34-1.48,4.85-1.45,7.38,0,2.59.48,5.04,1.45,7.32.96,2.29,2.46,4.24,4.49,5.85,2.04,1.63,4.62,2.91,7.75,3.86,3.13.95,6.9,1.42,11.29,1.42,3.27,0,6.33-.18,9.2-.53,2.44-.3,4.87-.68,7.28-1.15l8.01-7.5v-24.57Z"/><path class="cls-4" d="m553.56,196.77h-128.37c-1.14,0-2.07-.41-2.07-.91v-16.92c0-.5.93-.91,2.07-.91h128.37v18.73"/><path class="cls-3" d="m593.33,196.77h-39.78s.02-.85.02-1.9v-16.84h39.76"/><path class="cls-2" d="m683.27,196.77h-89.94v-18.73h90.81c.88,0,.88.41.88.91v16.92c0,.5.08.91-.61.91h-1.14Z"/></svg>