<?xml version="1.0" encoding="UTF-8"?><svg id="Capa_1" xmlns="http://www.w3.org/2000/svg" viewBox="0 0 626.65 188.15"><defs><style>.cls-1{fill:#0c457e;stroke-width:0px;}</style></defs><path class="cls-1" d="M139.16,138.25c.16-14.1-6.19-23.31-6.19-23.31-8.29-12.43-19.47-15.29-19.47-15.29,6.38-3.31,10.05-8.13,10.05-8.13,8.88-10.44,8.07-24.57,8.07-24.57.73-11.55-5.25-21.23-5.25-21.23-12.43-22.53-41.1-21.88-41.1-21.88H2.81c-1.55,0-2.81,1.26-2.81,2.81v158.62c0,1.59,1.29,2.87,2.87,2.87h79.82c14.8,0,26.48-4.2,26.48-4.2,16.85-5.44,23.25-17.65,23.25-17.65,7.7-11.57,6.73-28.04,6.73-28.04ZM26.98,50.51c0-1.63,1.33-2.96,2.96-2.96h50.7c10.66,0,23.95,5.11,23.95,19.92v3.51c0,13.13-11.37,19.63-24.57,19.63H29.97c-1.65,0-2.99-1.34-2.99-2.99v-37.11ZM112.19,142.39c-1.08,14.84-9.72,21.5-30.3,21.96H30.02c-1.7,0-3.07-1.38-3.07-3.07v-43.77c0-1.75,1.42-3.16,3.16-3.16h51c25.75.11,30.23,11.66,31.02,21.31.05.55.06,1.1.06,1.65v5.08Z"/><path class="cls-1" d="M304.78,138.19c.16-14.1-6.19-23.31-6.19-23.31-8.29-12.43-19.47-15.29-19.47-15.29,6.38-3.31,10.05-8.13,10.05-8.13,8.88-10.44,8.07-24.57,8.07-24.57.73-11.55-5.25-21.23-5.25-21.23-12.43-22.53-41.1-21.88-41.1-21.88h-82.17c-1.71,0-3.11,1.39-3.11,3.1v158.98c0,1.23.99,2.22,2.22,2.22h80.47c14.8,0,26.48-4.2,26.48-4.2,16.85-5.44,23.25-17.65,23.25-17.65,7.7-11.57,6.73-28.04,6.73-28.04ZM192.73,50.45c0-1.63,1.33-2.96,2.96-2.96h50.7c10.66,0,23.95,5.11,23.95,19.92v3.51c0,13.13-11.37,19.63-24.57,19.63h-50.06c-1.65,0-2.99-1.34-2.99-2.99v-37.11ZM277.91,142.28c-1.08,14.84-9.72,21.5-30.3,21.96h-51.87c-1.7,0-3.07-1.38-3.07-3.07v-43.77c0-1.75,1.42-3.16,3.16-3.16h51c25.75.11,30.23,11.66,31.02,21.31.05.55.06,1.1.06,1.65v5.08Z"/><path class="cls-1" d="M480.1,23.78l-25.91-.06c-1.22,0-2.33.67-2.9,1.75l-53.98,102.85c-1.18,2.25-4.41,2.25-5.59,0l-53.98-102.85c-.56-1.08-1.68-1.75-2.9-1.75l-25.91.06c-1.81,0-2.97,1.93-2.11,3.53l72.35,135.54.07-.14c-.04.08-.04.19,0,.27l12.49,23.41c1.12,2.18,4.16,2.48,5.6,0l12.43-23.41c.05-.08.05-.18,0-.27l.07.14L482.22,27.31c.85-1.6-.3-3.53-2.11-3.53Z"/><path class="cls-1" d="M453.1,164.29l25.91.06c1.22,0,2.33-.67,2.9-1.75l53.98-102.85c1.18-2.25,4.41-2.25,5.59,0l53.98,102.85c.56,1.08,1.68,1.75,2.9,1.75l25.91-.06c1.81,0,2.97-1.93,2.11-3.53l-72.35-135.54-.07.14c.04-.08.04-.19,0-.27l-12.49-23.41c-1.06-2.02-4.15-2.43-5.6,0l-12.43,23.41c-.05.08-.05.18,0,.27l-.07-.14-72.35,135.54c-.85,1.6.3,3.53,2.11,3.53Z"/></svg>