<?xml version="1.0" encoding="UTF-8"?><svg id="Capa_8" xmlns="http://www.w3.org/2000/svg" viewBox="0 0 710.01 299.39"><defs><style>.cls-1{fill:#00953b;}.cls-1,.cls-2,.cls-3,.cls-4,.cls-5,.cls-6,.cls-7{stroke-width:0px;}.cls-2{fill:#f5333f;}.cls-2,.cls-4{fill-rule:evenodd;}.cls-3{fill:#0071ce;}.cls-4,.cls-5{fill:#201a19;}.cls-6{fill:#1a1413;}.cls-7{fill:#ffd600;}</style></defs><path class="cls-4" d="m329.88,125.52c-2.31,0-3.48.9-3.48,2.73v44.37c0,10.84,7.39,16.28,22.13,16.28,11.74,0,20.67-3.27,26.81-9.83,5.42-5.78,8.12-13.47,8.12-23.15s-3.17-16.84-9.47-22.28c-6.32-5.41-15.38-8.12-27.19-8.12h-16.92Zm45.08-5.46c23.89,3.96,35.82,16.32,35.82,37.09,0,11.93-4.75,21.47-14.2,28.69-9.46,7.22-21.74,10.83-36.87,10.83-5.51,0-47.29.21-58.29.21V57.65c7.35,0,25.01.69,34.5.58,51.03-.58,65.85,11.1,65.85,33.3,0,13.88-8.94,23.38-26.8,28.52m-48.56-8.12c0,3.11.43,4.98,1.27,5.66.86.66,3.24,1.01,7.15,1.01h3.62c24.75,0,37.09-8.59,37.09-25.78,0-18.28-11.1-27.44-33.36-27.44-5.96,0-9.98.57-12.04,1.7-2.47,1.41-3.73,4.34-3.73,8.77v36.09Z"/><path class="cls-5" d="m468.72,107.37c6.4,0,12.51.83,18.31,2.46,7.75,2.19,11.64,5.32,11.64,9.35,0,10.42-2.34,15.63-6.96,15.63-2.28,0-4.6-1.89-6.92-5.65l-1.28-2.28c-5.63-9.68-11.42-14.52-17.41-14.52-9.09,0-16.17,4.88-21.31,14.64-3.86,7.46-5.81,15.16-5.81,23.11,0,9.9,2.57,18.31,7.68,25.27,6.4,8.62,15.74,12.96,28.04,12.96,3.51,0,8.34-1.36,14.47-4.04,1.98-.86,3.56-1.56,4.81-2.17,0,0,.41-.21,1.05-.46,1.35-.61,3.67-1.47,4.62-.8.6.43.88,1.08.88,1.93,0,4.32-4.74,8.22-14.26,11.7-8.16,3.06-15.47,4.59-21.96,4.59-15.63,0-27.84-4.77-36.57-14.36-7.67-8.32-11.5-18.58-11.5-30.79,0-12.88,4.32-23.62,12.99-32.19,9.59-9.56,22.75-14.36,39.5-14.36"/><path class="cls-5" d="m507.79,196.82l.02-85.14s6.13.32,10.61.65c6.11.49,9.82.58,9.82.58l.15,83.91h-20.59Z"/><path class="cls-5" d="m507.81,90.93c0-6.22,4.47-11.27,9.97-11.27s9.98,5.05,9.98,11.27-4.47,11.3-9.98,11.3-9.97-5.04-9.97-11.3"/><path class="cls-2" d="m232.62,123.9c6.47-4.62,11.7-10.86,15.6-17.73,2.2-3.9,4-7.92,5.76-12.01,2.41-5.67,4.35-13.05,10.3-15.96,4.22-2.09,9.77-.94,12.97,2.48,3.15,3.33,3.87,8.21,3.05,12.59-1.79,9.25-7.13,17.62-13.84,24.06-3.95,3.78-8.43,6.58-13.08,9.36-2.75,1.65-5.48,3.26-8.23,4.87-.76-2.77-5.02-4.29-7.38-5.38-1.67-.8-3.41-1.51-5.15-2.28m-68.06,53.82c4.75-14.15,18.32-22.08,30.13-29.77,8.68-5.69,17.57-11.07,26.36-16.6l.4-.27c4.03,2.29,8.19,4.25,12.31,5.89.49.15.99.25,1.53.35l-.49.28c-8.18,4.79-16.26,9.34-23.91,14.91-7.71,5.64-14.76,11.84-21.36,18.71-4.91,5.08-7.98,11.14-11.23,17.34-1.19,2.26-2.31,5.51-4.45,7.06-1.49,1.1-3.96,1.4-5.54.45-5.69-3.45-5.29-12.94-3.75-18.36"/><path class="cls-1" d="m266.26,181.7c-3.87-2.96-2.51-8.36-2.77-12.58-.33-5.04-1.24-10.62-3.47-15.2-2.43-4.94-7.88-6.06-12.2-8.71-4.04-2.5-3.73-7.53.45-9.76,8.57-4.57,18.52.94,23.11,8.47,2.88,4.7,4.67,10.14,6.39,15.37,1.76,5.31,4.08,12.2,1.3,17.55-2.17,4.21-8.45,8.19-12.81,4.86"/><path class="cls-3" d="m233.77,136.98c-19.66-7.82-40.14-22.85-42.31-45.69-.55-5.81.4-11.69,1.94-17.31,1.29-4.71,2.75-9.76,5.1-14.06,4.09-7.51,13.94-9.2,20.86-4.44,8.16,5.58,3.04,15.64,1.06,23.12-1.31,5.01-2.47,10.13-3.29,15.22-.82,5.06-.95,10.27.72,15.17,1.37,4.05,3.86,7.7,7.14,10.47,3.7,3.11,8.46,4.68,12.78,6.72,3,1.4,9.06,3.43,7.13,7.91-1.81,4.26-7.49,3.86-11.12,2.89"/><path class="cls-7" d="m189,192.4c.5,1.87,2.23,3.97,7.49,4.31,9.2.53,18.76-.75,28.12-2.72,15.61-3.24,22.13-7.45,22.13-7.45,0,0,9.55-5.02,9.04-18.75-.53-13.77-9.78-20.09-9.78-20.09,0,0-3.74-2.5-9.88-.37-4.19,1.47-16.02,8.12-23.68,12.79-4.14,2.54-8.24,5.94-11.66,9.37-3.44,3.42-7.45,7.96-10.16,14.22-.42.98-.75,1.89-1,2.7-.53,1.72-1.1,4.14-.62,5.97"/><path class="cls-6" d="m177.79,211.11v17.53h8.12c1.86,0,3.23-.41,4.09-1.23.87-.82,1.44-2.45,1.73-4.88h1.21v15.09h-1.21c-.03-1.73-.25-3-.68-3.81-.43-.81-1.02-1.42-1.78-1.82-.76-.4-1.88-.61-3.37-.61h-8.12v14.01c0,2.26.14,3.75.43,4.47.22.55.68,1.02,1.38,1.41.96.53,1.97.79,3.03.79h1.61v1.22h-19.14v-1.22h1.58c1.84,0,3.18-.54,4.01-1.61.52-.7.79-2.39.79-5.06v-28.8c0-2.26-.15-3.75-.43-4.47-.22-.55-.67-1.02-1.35-1.41-.94-.53-1.95-.79-3.03-.79h-1.58v-1.22h33.18l.43,9.8h-1.15c-.57-2.08-1.23-3.61-1.99-4.59-.76-.98-1.69-1.68-2.79-2.12-1.11-.44-2.82-.66-5.15-.66h-9.83Z"/><path class="cls-6" d="m234.1,248.92c-3.09,2.39-5.03,3.77-5.82,4.14-1.18.55-2.44.82-3.78.82-2.08,0-3.8-.71-5.15-2.14-1.35-1.43-2.02-3.3-2.02-5.62,0-1.47.33-2.74.99-3.81.9-1.49,2.46-2.89,4.68-4.21,2.23-1.32,5.92-2.91,11.1-4.8v-1.18c0-3-.48-5.06-1.43-6.18-.95-1.12-2.34-1.68-4.16-1.68-1.38,0-2.48.37-3.29,1.12-.83.75-1.25,1.6-1.25,2.56l.07,1.91c0,1.01-.26,1.79-.77,2.33-.52.55-1.19.82-2.02.82s-1.47-.29-1.99-.86c-.52-.57-.77-1.35-.77-2.33,0-1.89.96-3.62,2.89-5.2,1.93-1.58,4.64-2.37,8.12-2.37,2.67,0,4.87.45,6.58,1.35,1.29.68,2.25,1.74,2.86,3.19.4.94.59,2.87.59,5.79v10.22c0,2.87.05,4.63.17,5.28.11.65.29,1.08.54,1.3.25.22.54.33.87.33.35,0,.66-.08.92-.23.46-.29,1.35-1.09,2.66-2.4v1.84c-2.45,3.29-4.8,4.93-7.04,4.93-1.07,0-1.93-.37-2.56-1.12-.64-.75-.96-2.02-.99-3.81Zm0-2.14v-11.47c-3.31,1.31-5.45,2.25-6.41,2.79-1.73.96-2.97,1.97-3.72,3.02-.74,1.05-1.12,2.2-1.12,3.45,0,1.58.47,2.89,1.42,3.93.94,1.04,2.03,1.56,3.25,1.56,1.67,0,3.86-1.1,6.58-3.29Z"/><path class="cls-6" d="m285.97,241.82c-.81,3.97-2.4,7.02-4.77,9.16-2.37,2.14-4.99,3.21-7.86,3.21-3.42,0-6.4-1.44-8.94-4.31-2.54-2.87-3.81-6.75-3.81-11.64s1.41-8.58,4.23-11.54c2.82-2.96,6.2-4.44,10.14-4.44,2.96,0,5.39.78,7.3,2.35,1.91,1.57,2.86,3.19,2.86,4.88,0,.83-.27,1.51-.81,2.02-.54.52-1.29.77-2.25.77-1.29,0-2.27-.42-2.93-1.25-.37-.46-.62-1.34-.74-2.63-.12-1.29-.57-2.28-1.33-2.96-.77-.66-1.83-.99-3.19-.99-2.19,0-3.96.81-5.3,2.43-1.77,2.15-2.66,4.99-2.66,8.52s.88,6.77,2.65,9.52c1.76,2.75,4.15,4.13,7.15,4.13,2.15,0,4.07-.73,5.79-2.2,1.2-1.01,2.38-2.84,3.52-5.49l.95.46Z"/><path class="cls-6" d="m312.49,213.25v9.9h7.04v2.3h-7.04v19.53c0,1.95.28,3.27.84,3.94.56.68,1.27,1.02,2.15,1.02.72,0,1.42-.23,2.1-.67.68-.45,1.21-1.11,1.58-1.99h1.28c-.77,2.15-1.86,3.76-3.26,4.85-1.4,1.08-2.85,1.63-4.34,1.63-1.01,0-1.99-.28-2.96-.84-.96-.56-1.68-1.36-2.14-2.4-.46-1.04-.69-2.65-.69-4.82v-20.25h-4.77v-1.08c1.2-.48,2.44-1.3,3.7-2.45,1.26-1.15,2.38-2.52,3.37-4.09.5-.83,1.2-2.36,2.1-4.57h1.02Z"/><path class="cls-6" d="m350.65,222.26c4.56,0,8.22,1.73,10.98,5.2,2.35,2.96,3.52,6.36,3.52,10.19,0,2.7-.65,5.43-1.94,8.19-1.29,2.76-3.07,4.84-5.34,6.25-2.27,1.4-4.79,2.1-7.58,2.1-4.54,0-8.14-1.81-10.82-5.43-2.26-3.05-3.38-6.47-3.38-10.26,0-2.76.68-5.51,2.05-8.24,1.37-2.73,3.17-4.75,5.41-6.05,2.23-1.3,4.6-1.96,7.1-1.96Zm-1.02,2.14c-1.16,0-2.33.35-3.5,1.04-1.17.69-2.12,1.9-2.84,3.63-.72,1.73-1.09,3.96-1.09,6.67,0,4.38.87,8.16,2.62,11.34,1.74,3.18,4.04,4.77,6.89,4.77,2.13,0,3.88-.88,5.26-2.63,1.38-1.75,2.07-4.77,2.07-9.04,0-5.35-1.15-9.56-3.45-12.63-1.56-2.1-3.54-3.16-5.95-3.16Z"/><path class="cls-6" d="m391.87,222.26v6.77c2.52-4.51,5.11-6.77,7.76-6.77,1.21,0,2.2.37,2.99,1.1.79.73,1.18,1.58,1.18,2.55,0,.85-.29,1.58-.86,2.17-.57.59-1.25.89-2.04.89s-1.63-.38-2.58-1.13c-.96-.76-1.66-1.13-2.12-1.13-.4,0-.82.22-1.28.66-.99.9-2.01,2.38-3.06,4.44v14.43c0,1.67.21,2.93.63,3.78.28.59.79,1.08,1.51,1.48.72.39,1.76.59,3.12.59v1.18h-15.42v-1.18c1.53,0,2.67-.24,3.42-.72.55-.35.93-.91,1.15-1.68.11-.37.16-1.43.16-3.19v-11.67c0-3.51-.07-5.59-.21-6.26-.14-.67-.41-1.16-.79-1.46-.38-.31-.86-.46-1.43-.46-.68,0-1.45.16-2.3.49l-.33-1.18,9.11-3.68h1.38Z"/><path class="cls-6" d="m429.34,222.26v24.2c0,1.88.14,3.14.41,3.76.27.62.68,1.09,1.22,1.4.54.31,1.52.46,2.94.46v1.18h-14.63v-1.18c1.47,0,2.45-.14,2.96-.43.5-.28.9-.76,1.2-1.41.3-.66.44-1.92.44-3.78v-11.61c0-3.27-.1-5.38-.3-6.35-.15-.7-.39-1.19-.72-1.46-.33-.27-.78-.41-1.35-.41-.61,0-1.36.16-2.24.49l-.46-1.18,9.08-3.68h1.44Zm-2.73-15.75c.92,0,1.7.32,2.35.97.65.65.97,1.43.97,2.35s-.32,1.71-.97,2.37c-.65.66-1.43.99-2.35.99s-1.71-.33-2.37-.99c-.66-.66-.99-1.45-.99-2.37s.32-1.7.97-2.35c.65-.65,1.44-.97,2.38-.97Z"/><path class="cls-6" d="m459.9,228.64c3.53-4.25,6.89-6.38,10.09-6.38,1.65,0,3.06.41,4.24,1.23,1.18.82,2.12,2.18,2.83,4.06.48,1.32.72,3.33.72,6.05v12.86c0,1.91.15,3.2.46,3.88.24.55.63.98,1.17,1.28.54.31,1.53.46,2.97.46v1.18h-14.89v-1.18h.62c1.4,0,2.38-.21,2.94-.64.56-.43.95-1.06,1.17-1.89.09-.33.13-1.36.13-3.09v-12.33c0-2.74-.36-4.73-1.07-5.97-.71-1.24-1.91-1.86-3.6-1.86-2.61,0-5.21,1.43-7.79,4.27v15.88c0,2.04.12,3.3.36,3.78.31.64.73,1.1,1.27,1.4.54.3,1.63.44,3.27.44v1.18h-14.89v-1.18h.66c1.53,0,2.57-.39,3.11-1.17.54-.78.81-2.26.81-4.45v-11.18c0-3.62-.08-5.82-.25-6.61-.17-.79-.42-1.33-.76-1.61-.34-.29-.79-.43-1.36-.43-.62,0-1.35.16-2.2.49l-.5-1.18,9.08-3.68h1.41v6.38Z"/><path class="cls-6" d="m506.31,242.28c-1.84-.9-3.25-2.15-4.24-3.77-.99-1.61-1.48-3.39-1.48-5.34,0-2.98,1.12-5.55,3.37-7.69,2.25-2.15,5.12-3.22,8.63-3.22,2.87,0,5.36.7,7.47,2.1h6.38c.94,0,1.49.03,1.64.08.15.05.26.15.33.28.13.2.2.55.2,1.05,0,.57-.06.97-.17,1.18-.06.11-.18.2-.34.26-.17.07-.72.1-1.66.1h-3.91c1.23,1.58,1.84,3.6,1.84,6.05,0,2.81-1.07,5.21-3.22,7.2-2.15,1.99-5.03,2.99-8.65,2.99-1.49,0-3.01-.22-4.57-.66-.97.83-1.62,1.56-1.96,2.19-.34.62-.51,1.16-.51,1.59,0,.37.18.73.54,1.09.36.35,1.07.6,2.12.76.62.09,2.15.17,4.6.23,4.52.11,7.44.26,8.78.46,2.04.29,3.67,1.04,4.88,2.27,1.21,1.23,1.82,2.74,1.82,4.54,0,2.48-1.16,4.8-3.49,6.97-3.42,3.2-7.88,4.8-13.38,4.8-4.23,0-7.8-.95-10.72-2.86-1.65-1.1-2.47-2.24-2.47-3.42,0-.53.12-1.05.36-1.58.37-.81,1.14-1.94,2.3-3.39.16-.2,1.27-1.38,3.35-3.55-1.14-.68-1.95-1.29-2.42-1.82-.47-.54-.71-1.15-.71-1.83,0-.77.31-1.67.94-2.7.62-1.03,2.07-2.49,4.32-4.37Zm-.33,10.98c-1.03,1.12-1.81,2.16-2.33,3.12-.53.96-.79,1.85-.79,2.66,0,1.05.63,1.97,1.91,2.76,2.19,1.36,5.36,2.04,9.5,2.04s6.85-.7,8.73-2.09c1.88-1.39,2.81-2.88,2.81-4.46,0-1.14-.56-1.95-1.68-2.43-1.14-.48-3.4-.77-6.77-.86-4.93-.13-8.72-.38-11.38-.76Zm6.05-29.43c-1.62,0-2.98.65-4.07,1.94-1.1,1.29-1.65,3.28-1.65,5.95,0,3.46.74,6.15,2.24,8.06,1.14,1.45,2.59,2.17,4.34,2.17s3.04-.62,4.11-1.87c1.07-1.25,1.61-3.21,1.61-5.89,0-3.48-.76-6.21-2.27-8.19-1.12-1.45-2.56-2.17-4.31-2.17Z"/></svg>