<?xml version="1.0" encoding="UTF-8"?><svg id="Capa_34" xmlns="http://www.w3.org/2000/svg" viewBox="0 0 752.64 336.34"><defs><style>.cls-1,.cls-2{fill:none;}.cls-1,.cls-3,.cls-4{stroke-width:0px;}.cls-2{stroke:#1a1413;stroke-miterlimit:10;stroke-width:1.38px;}.cls-3{fill:#a3201e;}.cls-4{fill:#1a1413;}</style></defs><line class="cls-2" x1="123.4" y1="181.02" x2="123.4" y2="225.16"/><line class="cls-2" x1="122.61" y1="223.74" x2="157.22" y2="243.89"/><line class="cls-2" x1="123.48" y1="223.88" x2="89.16" y2="244.53"/><path class="cls-3" d="m129.59,179.45c0,3.42-2.77,6.2-6.2,6.2s-6.2-2.78-6.2-6.2,2.77-6.2,6.2-6.2,6.2,2.77,6.2,6.2Z"/><path class="cls-3" d="m91.1,245.39c0,3.42-2.77,6.2-6.2,6.2s-6.19-2.78-6.19-6.2,2.77-6.2,6.19-6.2,6.2,2.77,6.2,6.2Z"/><path class="cls-3" d="m167.27,245.39c0,3.42-2.77,6.2-6.2,6.2s-6.2-2.78-6.2-6.2,2.77-6.2,6.2-6.2,6.2,2.77,6.2,6.2Z"/><line class="cls-2" x1="204.41" y1="163.79" x2="204.41" y2="273.42"/><path class="cls-4" d="m265.78,257.03h-12.66v-18.09h12.23v1.89l-10.95-.03v6.15h10.27v1.32h-10.27v6.89l11.39-.07v1.93Z"/><path class="cls-4" d="m528.08,257.15h-12.66v-18.09h12.23v1.89l-10.95-.03v6.16h10.26v1.32h-10.26v6.89l11.38-.07v1.93Z"/><path class="cls-4" d="m285.46,257.04h-1.49s-.4-7.66-2.91-7.16h-9.51v7.16h-1.4v-18.09h8.61c5.4-.02,6.23,3.57,6.27,4.79.11,3.18-2.24,5.05-2.89,4.88,2.83.72,3.32,8.42,3.32,8.42Zm-13.91-8.37l7.87-.04c.95,0,4.52-1.67,4.47-4.85-.02-1.25-1.12-3.14-5.3-3.14l-7.04.04v7.98Z"/><path class="cls-4" d="m304.63,238.95l-6.83,18.09h-1.64l-6.83-18.09h1.42l6.24,16.44,6.24-16.44h1.4Z"/><path class="cls-4" d="m310.45,257.04h-1.4v-18.09h1.4v18.09Z"/><path class="cls-4" d="m331.1,244.01c-.12-.53-.33-1.03-.66-1.49-.32-.46-.72-.86-1.2-1.2-.48-.34-1.03-.61-1.66-.8-.62-.2-1.3-.3-2.01-.3-1.02,0-1.94.17-2.77.5-.82.34-1.53.83-2.11,1.49-.58.66-1.03,1.47-1.35,2.45-.32.98-.47,2.12-.47,3.42s.16,2.44.47,3.44c.32.99.76,1.83,1.35,2.49.58.67,1.28,1.18,2.1,1.52.82.35,1.73.52,2.73.52,1.52,0,2.77-.34,3.75-1.03.98-.69,1.59-1.69,1.82-3.01h1.33c-.13.84-.39,1.6-.79,2.27-.39.67-.89,1.23-1.49,1.68-.6.45-1.29.8-2.07,1.04-.78.24-1.63.36-2.53.36-1.24,0-2.35-.22-3.34-.66-.98-.44-1.83-1.05-2.52-1.86-.69-.8-1.23-1.77-1.6-2.91-.38-1.14-.56-2.42-.56-3.85s.18-2.67.56-3.8c.37-1.13.91-2.08,1.61-2.88.7-.8,1.55-1.41,2.54-1.84.98-.43,2.09-.64,3.32-.64.84,0,1.65.13,2.41.38.76.25,1.45.6,2.06,1.05.61.45,1.12.99,1.54,1.61.42.62.71,1.31.86,2.06h-1.33Z"/><path class="cls-4" d="m498.61,243.86c-.11-.53-.34-1.03-.65-1.49-.32-.46-.72-.86-1.2-1.2-.48-.34-1.03-.61-1.66-.8-.63-.2-1.3-.3-2.01-.3-1.01,0-1.94.17-2.77.51-.83.34-1.53.83-2.11,1.49-.58.66-1.03,1.47-1.35,2.45-.32.98-.47,2.12-.47,3.42s.15,2.44.47,3.44c.32.99.77,1.82,1.35,2.49.58.67,1.28,1.18,2.1,1.53.82.35,1.73.52,2.73.52,1.52,0,2.77-.35,3.76-1.03.98-.69,1.59-1.7,1.82-3.02h1.33c-.13.84-.39,1.6-.79,2.27-.39.66-.89,1.23-1.49,1.68-.6.45-1.28.8-2.06,1.04-.78.24-1.63.36-2.53.36-1.24,0-2.35-.22-3.34-.66-.98-.44-1.83-1.05-2.52-1.86-.69-.8-1.23-1.77-1.6-2.91-.37-1.15-.56-2.42-.56-3.84s.18-2.68.56-3.8c.38-1.13.91-2.09,1.61-2.88.7-.8,1.55-1.41,2.54-1.84.98-.43,2.1-.64,3.32-.64.84,0,1.64.12,2.41.37.76.25,1.45.6,2.06,1.05.61.45,1.12.99,1.54,1.61.42.62.7,1.31.86,2.06h-1.33Z"/><path class="cls-4" d="m340.31,257.04h-1.4v-18.09h1.4v18.09Z"/><path class="cls-4" d="m509.08,257.04h-1.4v-18.09h1.4v18.09Z"/><path class="cls-4" d="m418.25,257.15h-1.4v-18.09h1.4v18.09Z"/><path class="cls-4" d="m356.16,238.62c1.16,0,2.23.22,3.22.66.98.44,1.83,1.07,2.54,1.88.71.81,1.27,1.79,1.66,2.94.4,1.14.6,2.42.6,3.83s-.2,2.68-.59,3.83c-.39,1.16-.94,2.15-1.65,2.98-.71.83-1.56,1.48-2.54,1.93-.98.46-2.06.68-3.24.68s-2.26-.23-3.25-.68c-.98-.46-1.83-1.1-2.54-1.92-.7-.83-1.26-1.82-1.66-2.98-.39-1.16-.59-2.44-.59-3.85s.2-2.71.6-3.85c.4-1.15.96-2.12,1.67-2.93.72-.81,1.56-1.44,2.55-1.88.98-.44,2.05-.66,3.22-.66Zm-.01,17.43c.97,0,1.87-.18,2.7-.54.83-.36,1.54-.89,2.14-1.58.6-.69,1.07-1.55,1.4-2.55.33-1.01.5-2.16.5-3.44s-.17-2.44-.5-3.44c-.34-.99-.8-1.82-1.4-2.5-.6-.68-1.3-1.19-2.12-1.54-.81-.35-1.7-.52-2.66-.52s-1.89.18-2.72.53c-.82.35-1.54.87-2.14,1.54-.6.68-1.07,1.51-1.4,2.5-.34.99-.51,2.13-.51,3.42s.17,2.44.5,3.44c.33,1.01.79,1.86,1.39,2.55.6.69,1.3,1.22,2.13,1.58.83.36,1.72.54,2.7.54Z"/><path class="cls-4" d="m376.8,257.51c-1.29.09-2.42-.13-3.39-.39-.96-.26-1.78-.63-2.44-1.11-.66-.48-1.16-1.05-1.51-1.74-.35-.68-.56-1.44-.61-2.29h1.38c.14.81.4,1.49.79,2.03.38.54.86.97,1.43,1.29.56.32,1.2.55,1.93.67.72.13,1.49.24,2.3.2,3.61-.17,3.51-3.13,3.51-3.7,0-.61.52-3.08-4.68-4.19-1.04-.22-1.95-.47-2.7-.76-.75-.29-1.37-.62-1.86-1-.49-.38-.85-.81-1.08-1.31-.23-.49-.35-1.06-.35-1.71,0-.71.16-1.35.47-1.94.31-.59.76-1.08,1.34-1.51.57-.42,1.27-.74,2.08-.97.81-.23,1.7-.35,2.68-.35,1.88,0,5.15,1.28,5.05,6.09h-1.24c-.07-3.57-1.88-4.65-3.68-4.77-1.71-.11-3.01.3-3.89.9-.88.6-1.32,1.41-1.32,2.44,0,.48.08.89.24,1.24.17.35.44.67.83.95.39.28.9.53,1.54.74.64.21,1.44.42,2.39.6.56.11,5.83.92,5.67,5.4-.03.77.01,4.83-4.88,5.16Z"/><path class="cls-4" d="m548.47,257.46h-1.49s-.4-7.66-2.91-7.16h-9.51v7.16h-1.4v-18.09h8.61c5.39-.02,6.23,3.57,6.27,4.79.11,3.17-2.24,5.04-2.89,4.88,2.83.72,3.32,8.42,3.32,8.42Zm-13.91-8.37l7.86-.05c.95,0,4.53-1.66,4.47-4.84-.02-1.25-1.12-3.14-5.3-3.14l-7.03.04v7.98Z"/><path class="cls-4" d="m560.38,238.99c1.16,0,2.23.22,3.22.66.98.44,1.83,1.07,2.54,1.88.71.82,1.27,1.8,1.66,2.94.4,1.14.6,2.42.6,3.83s-.2,2.68-.59,3.83c-.39,1.16-.95,2.15-1.66,2.98-.71.83-1.55,1.48-2.53,1.93-.98.45-2.06.69-3.24.69s-2.26-.23-3.25-.69c-.98-.46-1.83-1.1-2.54-1.93-.7-.82-1.26-1.82-1.66-2.97-.39-1.16-.59-2.44-.59-3.85s.2-2.7.6-3.85c.4-1.15.96-2.12,1.67-2.93.72-.81,1.56-1.44,2.54-1.88.98-.44,2.05-.66,3.22-.66Zm-.01,17.43c.97,0,1.86-.18,2.69-.53.83-.36,1.54-.88,2.14-1.58.6-.69,1.07-1.55,1.4-2.55.33-1.01.5-2.16.5-3.45s-.17-2.44-.51-3.43c-.34-.99-.8-1.83-1.4-2.5-.6-.68-1.3-1.19-2.12-1.54-.81-.35-1.7-.52-2.66-.52s-1.89.18-2.72.53c-.83.35-1.54.87-2.14,1.54-.6.67-1.07,1.51-1.41,2.5-.34.99-.51,2.13-.51,3.42s.17,2.44.5,3.45c.33,1.01.79,1.86,1.39,2.55.6.69,1.3,1.22,2.13,1.58.83.36,1.72.53,2.7.53Z"/><path class="cls-4" d="m582.01,258.16c-1.27,0-2.38-.13-3.33-.4-.95-.27-1.75-.65-2.4-1.15-.64-.5-1.14-1.1-1.48-1.8-.34-.7-.54-1.5-.6-2.38h1.36c.14.85.4,1.55.77,2.11.38.56.84,1.01,1.4,1.34.56.33,1.18.57,1.9.7.71.14,1.46.21,2.26.21s1.59-.09,2.26-.26c.67-.18,1.24-.43,1.72-.77.47-.34.83-.74,1.09-1.21.25-.48.38-1.01.38-1.61,0-.63-.11-1.16-.32-1.59-.22-.43-.59-.8-1.1-1.13-.51-.32-1.19-.6-2.03-.86-.84-.25-1.88-.51-3.13-.77-1.03-.23-1.91-.49-2.65-.79-.74-.3-1.35-.64-1.83-1.04-.48-.39-.84-.84-1.06-1.35-.23-.51-.34-1.1-.34-1.77,0-.73.15-1.4.47-2.01.31-.61.75-1.13,1.31-1.56.57-.43,1.24-.77,2.04-1.01.79-.24,1.67-.36,2.63-.36s1.84.11,2.64.33c.8.22,1.5.55,2.1.97.6.42,1.08.94,1.46,1.54.37.61.61,1.3.71,2.06h-1.32c-.13-.5-.33-.97-.62-1.41-.28-.43-.65-.81-1.11-1.12-.45-.32-.99-.56-1.61-.74-.63-.18-1.33-.26-2.14-.26-1.68,0-2.95.31-3.82.92-.86.62-1.29,1.47-1.29,2.54,0,.49.08.92.24,1.29.16.37.44.7.82.99.38.29.89.55,1.51.77.63.22,1.41.43,2.36.63.55.12,1.11.24,1.69.36.59.13,1.16.27,1.71.45.56.17,1.08.39,1.59.64.5.25.94.56,1.31.92.37.37.67.81.89,1.31.23.51.34,1.11.34,1.81,0,.8-.17,1.53-.51,2.2-.34.67-.81,1.25-1.41,1.74-.6.49-1.31.86-2.14,1.13-.83.27-1.73.4-2.71.4Z"/><path class="cls-4" d="m240.98,257.88c-1.27,0-2.38-.13-3.33-.4-.95-.26-1.75-.65-2.39-1.15-.65-.5-1.14-1.1-1.48-1.8-.35-.71-.55-1.5-.6-2.37h1.36c.13.84.39,1.55.77,2.1.38.57.84,1.01,1.4,1.34.55.33,1.19.56,1.9.7.71.14,1.47.21,2.27.21s1.59-.09,2.26-.26c.67-.18,1.24-.44,1.71-.77.48-.34.84-.74,1.09-1.22.25-.48.37-1.01.37-1.61,0-.63-.11-1.16-.32-1.59-.22-.43-.59-.8-1.1-1.12-.51-.32-1.19-.61-2.03-.86-.84-.25-1.88-.51-3.13-.77-1.03-.23-1.91-.49-2.65-.79-.74-.3-1.35-.65-1.83-1.04-.48-.4-.83-.85-1.06-1.36-.23-.51-.34-1.1-.34-1.78,0-.73.15-1.4.46-2.01.31-.61.75-1.13,1.31-1.56.57-.43,1.25-.77,2.04-1.01.79-.24,1.67-.36,2.63-.36s1.84.12,2.64.34c.8.22,1.5.55,2.1.97.6.42,1.09.94,1.46,1.55.37.6.61,1.29.71,2.06h-1.32c-.13-.5-.33-.97-.62-1.4-.29-.44-.65-.81-1.11-1.13-.45-.31-.99-.56-1.61-.74-.62-.18-1.33-.27-2.14-.27-1.68,0-2.95.31-3.82.93-.86.62-1.3,1.46-1.3,2.54,0,.49.08.92.24,1.29.16.36.43.69.82.98.38.29.89.55,1.52.77.63.22,1.41.43,2.36.63.55.12,1.11.24,1.69.36.58.13,1.15.27,1.71.45.55.17,1.08.39,1.59.63.5.25.94.56,1.31.93.37.36.67.8.89,1.31.22.51.33,1.11.33,1.81,0,.8-.17,1.54-.51,2.2-.34.67-.81,1.25-1.41,1.73-.6.49-1.32.87-2.14,1.13-.83.27-1.73.4-2.7.4Z"/><path class="cls-4" d="m266.49,215.2c0,11.57-10.58,13.08-16.36,13.08h-17.68v-48.13h17.59c11.87,0,14.43,7.21,14.43,11.23,0,2.15.13,8.48-8.32,11.36,2.17-.74,10.34,4.26,10.34,12.46Zm-28.53-13.91h11.11c9.75-.09,11.64-7.2,11.64-10.45,0-2.93-2.96-7.22-10.97-7.22l-11.64.04-.13,17.62Zm-.13,23.47h12.26c9.18,0,12.09-3.59,12.09-10.24,0-1.73-1.61-9.91-13.07-9.72h-11.29v19.96Z"/><path class="cls-4" d="m315.62,228.28h-4.45l.13-22.77h-27.45l-.13,22.77h-5.24v-48.13h5.24v20.66h27.32l.27-20.66h4.32v48.13Z"/><polygon class="cls-1" points="646.02 156.6 645.98 156.6 647.35 160.1 646.02 156.6"/><rect class="cls-4" x="537.46" y="179.62" width="5.18" height="49.23"/><polygon class="cls-4" points="549.48 184.61 565.69 184.7 565.69 228.86 571.88 228.86 571.88 184.7 588.78 184.79 588.78 179.62 549.48 179.62 549.48 184.61"/><polygon class="cls-4" points="653.89 225.26 653.89 179.62 650.29 179.62 650.29 228.86 679.29 228.86 679.29 225.26 653.89 225.26"/><polygon class="cls-4" points="647.35 160.1 647.44 160.34 647.44 160.34 647.35 160.1"/><polygon class="cls-4" points="481.08 231.26 486.92 231.26 466.95 181.2 462.03 181.2 441.8 231.26 448.15 231.26 464.58 188.61 464.99 188.61 481.08 231.26"/><polygon class="cls-4" points="328.68 179.58 322.83 179.58 342.8 229.65 347.72 229.65 367.96 179.58 361.6 179.58 345.17 222.23 344.76 222.23 328.68 179.58"/><polygon class="cls-4" points="631.98 230.54 637.82 230.54 617.86 180.48 612.94 180.48 592.7 230.54 599.06 230.54 615.49 187.89 615.9 187.89 631.98 230.54"/><path class="cls-4" d="m514.78,179.62h-17.9v49.23h3.36v-22.13h13.59s11.78-1.21,12.51-14.26c0,0-.94-12.83-11.57-12.83Zm-2.5,22.33l-11.9.13-.09-17.92,15.79-.14c7,.81,6.64,8.57,6.64,8.57-.19,9.63-10.44,9.36-10.44,9.36Z"/><path class="cls-4" d="m427.04,187.88l4.71-2.38s-7.36-11.76-27.81-5.88c0,0-16.33,6.51-14.89,25.76,0,0-1.3,22.9,23.86,25.88,0,0,15.34,0,21.17-10.59l-5.74-.54s-4,5.83-13.82,5.56c0,0-17.22,2.69-20.09-19.47,0,0-2.22-20.01,17.1-23.06,0,0,7.7-1.98,15.51,4.71Z"/><path class="cls-4" d="m478.76,257.21h-1.66l-10.56-16.62v16.62h-1.27v-18.2h1.74l10.48,16.59v-16.59h1.27v18.2Z"/><path class="cls-4" d="m438.88,257.09h-1.66l-10.57-16.62v16.62h-1.26v-18.2h1.74l10.48,16.59v-16.59h1.27v18.2Z"/><path class="cls-4" d="m410.7,240.22h-9.71v6.85h8.44v1.34h-8.44v8.73h-1.23v-18.25h10.94v1.33Z"/><path class="cls-4" d="m460.28,257.25h-1.58l-2.21-5.93h-8.86c-.32.93-.67,1.92-1.04,2.95-.37,1.04-.73,2.03-1.07,2.98h-1.4c.59-1.6,1.17-3.16,1.75-4.69.57-1.53,1.15-3.05,1.72-4.56.57-1.51,1.14-3.03,1.71-4.56.58-1.53,1.16-3.09,1.75-4.67h1.86l7.35,18.48Zm-4.16-7l-3.66-8.99-.93-.09-3.55,9.08h8.14Z"/></svg>