<?xml version="1.0" encoding="UTF-8"?><svg id="Capa_11" xmlns="http://www.w3.org/2000/svg" viewBox="0 0 720.31 299.39"><defs><style>.cls-1{fill:#003c6f;stroke-width:0px;}</style></defs><path class="cls-1" d="m308.95,169.35v-63.89h33.73v7.47h-27.21v19.86h23.94v7.52h-23.94v29.03h-6.52Z"/><path class="cls-1" d="m372.75,169.35l-5.23-19.3h-18.97l-5.23,19.3h-6.99l18.31-63.89h7.45l17.64,63.89h-6.98Zm-7.05-26.25l-7.68-28.29-7.65,28.29h15.33Z"/><path class="cls-1" d="m417.15,124.41c-.6-2.55-1.33-4.61-2.22-6.17-1.19-2.12-2.74-3.78-4.64-5-1.9-1.22-4.06-1.83-6.49-1.83-3.18,0-5.99,1.01-8.43,3.02-2.44,2.01-4.37,4.98-5.79,8.91-1.43,3.92-2.14,8.65-2.14,14.19,0,8.2,1.53,14.56,4.59,19.08,3.06,4.52,6.78,6.78,11.17,6.78,3.62,0,6.74-1.51,9.37-4.54,2.63-3.03,4.28-7.15,4.97-12.36h6.29c-.4,3.94-1.18,7.36-2.33,10.26-1.16,2.9-2.66,5.42-4.49,7.56-1.84,2.14-3.88,3.79-6.14,4.93-2.26,1.14-4.9,1.72-7.93,1.72-3.86,0-7.14-.9-9.83-2.69-2.7-1.8-4.9-4.06-6.6-6.78-1.71-2.72-3-5.69-3.86-8.91-1.19-4.46-1.79-9.33-1.79-14.6,0-6.78.91-12.81,2.75-18.1,1.83-5.29,4.51-9.28,8.03-11.97,3.52-2.69,7.52-4.04,12-4.04,3.62,0,6.95.91,9.98,2.72,3.03,1.81,5.47,4.54,7.3,8.19,1.3,2.64,2.16,5.85,2.58,9.65h-6.36Z"/><path class="cls-1" d="m423.63,112.94v-7.47h39.6v7.47h-16.52v56.41h-6.52v-56.41h-16.55Z"/><path class="cls-1" d="m508.55,137.01c0,5.24-.66,10.16-1.99,14.73-1.66,5.77-4.37,10.41-8.13,13.93-3.76,3.52-8.41,5.28-13.95,5.28-4.66,0-8.73-1.29-12.23-3.87-3.5-2.58-6.24-6.39-8.21-11.45-1.98-5.06-2.96-11.08-2.96-18.06,0-5.04.54-9.67,1.62-13.88,1.08-4.22,2.68-7.81,4.8-10.78,2.12-2.97,4.64-5.22,7.55-6.76,2.92-1.54,6.17-2.3,9.77-2.3s6.81.76,9.7,2.28c2.89,1.52,5.34,3.66,7.33,6.43,2,2.77,3.53,5.89,4.59,9.37,1.41,4.64,2.12,9.66,2.12,15.08Zm-6.62.65c0-8.37-1.6-14.84-4.8-19.4-3.2-4.56-7.31-6.85-12.31-6.85-5.48,0-9.7,2.45-12.68,7.34-2.98,4.9-4.47,11.2-4.47,18.9,0,5.56.74,10.33,2.22,14.3,1.48,3.97,3.49,6.87,6.02,8.69,2.54,1.82,5.5,2.74,8.91,2.74,3.81,0,7.04-1.13,9.68-3.39,2.64-2.26,4.53-5.37,5.69-9.34,1.16-3.97,1.74-8.3,1.74-13Z"/><path class="cls-1" d="m517.16,169.35v-63.89h22.22c3.75,0,6.75.61,9,1.83,2.27,1.22,4.05,3.17,5.33,5.87,1.28,2.69,1.92,5.82,1.92,9.39,0,4.06-.61,7.3-1.82,9.71-1.22,2.42-2.9,4.31-5.04,5.67,1.94.93,3.39,2.29,4.34,4.08.95,1.8,1.47,4.45,1.55,7.95l.23,8.56c.09,2.61.18,4.27.26,5,.16.99.41,1.83.76,2.54.35.71.88,1.32,1.59,1.85v1.44h-8.11c-.27-1.04-.44-1.97-.53-2.78-.15-1.07-.27-2.55-.33-4.43l-.33-9.78c-.11-2.78-.44-4.85-.99-6.22-.55-1.36-1.45-2.4-2.68-3.13-1.24-.72-3.19-1.09-5.86-1.09h-15v27.42h-6.52Zm6.52-34.6h14.53c2.78,0,4.74-.25,5.86-.74,1.63-.69,2.82-1.74,3.55-3.13.95-1.85,1.42-4.27,1.42-7.26,0-3.91-.97-6.82-2.91-8.74-1.32-1.3-3.49-1.96-6.49-1.96h-15.96v21.82Z"/><path class="cls-1" d="m566.29,169.35v-63.89h6.52v63.89h-6.52Z"/><path class="cls-1" d="m584.14,169.35v-63.89h7.78l24.57,51.72v-51.72h6.26v63.89h-7.38l-24.93-51.72v51.72h-6.29Z"/><path class="cls-1" d="m674.85,124.84h-6.49c-.44-2.66-1.15-4.85-2.12-6.56-1.23-2.26-2.86-3.97-4.88-5.13-2.02-1.16-4.27-1.74-6.73-1.74-5.76,0-10.11,2.9-13.05,8.69-2.52,5.01-3.78,11.05-3.78,18.12s1.38,12.96,4.14,17.84c2.76,4.88,6.89,7.32,12.38,7.32,2.69,0,5-.58,6.94-1.74,1.93-1.16,3.51-2.67,4.74-4.54,1.22-1.87,2.11-3.94,2.67-6.21.55-2.27.84-5.12.86-8.54h-15.23v-7.21h21.35v34.2h-4.24l-1.56-8.26c-1.21,1.94-2.33,3.42-3.35,4.43-1.57,1.59-3.44,2.9-5.63,3.91-2.18,1.01-4.68,1.52-7.48,1.52-4.31,0-8.11-1.25-11.42-3.76-3.31-2.51-5.93-6.3-7.86-11.39-1.93-5.08-2.9-11.15-2.9-18.19s.99-12.68,2.97-17.77c1.97-5.1,4.77-9.04,8.38-11.82,3.61-2.78,7.59-4.17,11.94-4.17,4.68,0,8.81,1.52,12.41,4.56,4.44,3.74,7.08,9.21,7.95,16.43Z"/><path class="cls-1" d="m109.27,140h-59.01v11.33h59.01v-11.33Zm0,15.87h-59.01v11.32h59.01v-11.32Zm155.8-2.89v-8.08h23.34v-14.22h-23.34v-8.25h25.69v-15.84h-42v62h42.75v-15.61h-26.44Zm-155.8-28.83h-59.01v11.33h59.01v-11.33Zm26.25,29.4v-11.34h9.53c3.6,0,5.34,1.93,5.34,5.52,0,4.7-2.76,5.81-5.93,5.81h-8.94Zm0-31.9h8.02c3.12,0,5.19,1.09,5.19,4.16,0,3.92-2.01,5.04-5.19,5.04h-8.02v-9.2Zm30.66,27.9c0-8.62-3.78-13.12-8.04-15.29,3.35-2.51,5.53-5.95,5.53-11.85,0-6.4-2.86-15.81-16.31-15.81h-27.62v62h28.57c9.01,0,17.86-6.54,17.86-19.04m-56.92-41.25h-59.01v11.32h59.01v-11.32Zm110.03,61.75c14.88,0,23.12-13.42,23.12-25.9v-.54h-15.96l-.07.47c-.93,5.74-2.87,9.68-7.5,9.68-6.55,0-8.89-7.87-8.89-16.16s2.34-16.18,8.89-16.18c5.76,0,7.12,6.17,7.42,8.47l.05.48h15.89l-.05-.59c-1.34-15.48-8.96-24.56-22.92-24.65-15.64,0-25.6,13.08-25.6,32.46,0,18.12,9.18,32.44,25.6,32.44m-31.92-63.45h-16.34v62h16.34v-62Z"/></svg>