<?xml version="1.0" encoding="UTF-8"?><svg id="Capa_33" xmlns="http://www.w3.org/2000/svg" viewBox="0 0 752.64 336.34"><defs><style>.cls-1{fill:#233984;}.cls-1,.cls-2{stroke-width:0px;}.cls-2{fill:#fff;}</style></defs><path class="cls-1" d="m284.21,30.31h206.7s15.25.54,17.87,18.01v206.38s-.59,15.49-17.57,17.58h-207s-14.4-.41-17.4-17.88V48.1s1.01-16.09,17.4-17.79Z"/><path class="cls-2" d="m285.29,32.36h204.22s15.24,1.08,17.25,17.36v204.44s-1.94,14.01-16.28,16.07h-205.63s-13.05-.78-16.2-16.71V49.72s1.21-16.28,16.63-17.36Z"/><path class="cls-1" d="m285.83,39.31h203.47s9.33.59,10.46,10.41v135.11h-223.96V49.99s-.27-9.38,10.03-10.67Z"/><path class="cls-1" d="m489.75,263.25h-203.47s-10.46.25-10.46-10.75v-60.53h223.96v61.42s.27,9.22-10.03,9.86Z"/><path class="cls-2" d="m394.3,80.04h23.66v55.51s-.44,1.72,1.05,1.72h69.64v24.09h-84.44s-9.91-1.84-9.91-10.74v-70.57Z"/><path class="cls-2" d="m378.75,110.05v-21.36c0-7.09-8.01-8.65-8.01-8.65h-83.24v81.19h89.47c7.67,0,8.47-8.04,8.47-8.04v-34.86c0-6.2-6.69-8.29-6.69-8.29Zm-67.13-11.05h40.56s4.32.7,4.32,5.2c0,0,.1,5.34-4.52,5.34h-40.36v-10.54Zm47.37,40.38h-47.37v-10.54h47.6s5.07.7,5.07,5.2c0,0,.12,5.34-5.31,5.34Z"/><path class="cls-2" d="m281.78,207.69h17.61v8h-7.21v7.58h6.42v7.61h-6.42v16.79h-10.39v-39.98Z"/><path class="cls-2" d="m318.35,207.69l5.95,39.98h-10.62l-.56-7.19h-3.72l-.63,7.19h-10.75l5.3-39.98h15.03Zm-5.51,25.7c-.53-4.53-1.06-10.12-1.58-16.79-1.06,7.65-1.73,13.25-2,16.79h3.58Z"/><path class="cls-2" d="m349.83,225.1h-10.39v-6.95c0-2.02-.11-3.28-.33-3.78-.22-.5-.71-.75-1.47-.75-.86,0-1.4.3-1.63.91-.23.61-.35,1.93-.35,3.95v18.57c0,1.94.12,3.21.35,3.8.23.59.75.89,1.56.89s1.28-.29,1.52-.89c.24-.6.36-1.99.36-4.18v-5.02h10.39v1.56c0,4.14-.29,7.07-.88,8.8-.59,1.73-1.88,3.25-3.88,4.55-2,1.3-4.46,1.95-7.39,1.95s-5.56-.55-7.53-1.65-3.28-2.63-3.93-4.58c-.64-1.95-.96-4.89-.96-8.8v-11.68c0-2.88.1-5.04.3-6.48.2-1.44.79-2.83,1.77-4.16.98-1.33,2.34-2.38,4.07-3.15,1.74-.77,3.73-1.15,5.99-1.15,3.06,0,5.59.59,7.58,1.78,1.99,1.19,3.3,2.66,3.93,4.43.63,1.77.94,4.52.94,8.25v3.8Z"/><path class="cls-2" d="m373.99,207.69v8h-6.17v31.97h-10.39v-31.97h-6.15v-8h22.72Z"/><path class="cls-2" d="m399.61,231.1c0,4.02-.09,6.86-.28,8.53s-.78,3.2-1.78,4.58c-1,1.38-2.34,2.45-4.04,3.19-1.69.74-3.67,1.11-5.93,1.11s-4.06-.35-5.77-1.05c-1.7-.7-3.07-1.75-4.11-3.15-1.04-1.4-1.65-2.92-1.85-4.57s-.3-4.53-.3-8.64v-6.84c0-4.02.09-6.86.28-8.53.19-1.67.78-3.2,1.78-4.58,1-1.38,2.34-2.45,4.04-3.18,1.69-.74,3.67-1.11,5.93-1.11s4.06.35,5.77,1.05c1.71.7,3.07,1.75,4.11,3.15,1.04,1.4,1.65,2.92,1.85,4.57.2,1.64.29,4.52.29,8.64v6.84Zm-10.39-13.13c0-1.86-.1-3.05-.31-3.57-.21-.52-.63-.78-1.27-.78-.54,0-.96.21-1.25.63-.29.42-.43,1.66-.43,3.72v18.67c0,2.32.09,3.75.28,4.3.19.54.63.81,1.32.81s1.16-.31,1.36-.94.29-2.11.29-4.47v-18.37Z"/><path class="cls-2" d="m402.98,207.69h7.36c4.91,0,8.23.19,9.96.57,1.74.38,3.16,1.35,4.25,2.9,1.09,1.56,1.64,4.04,1.64,7.44,0,3.11-.39,5.2-1.16,6.27-.77,1.07-2.3,1.71-4.57,1.92,2.06.51,3.44,1.19,4.15,2.05.71.86,1.15,1.64,1.32,2.36.17.71.26,2.69.26,5.91v10.54h-9.66v-13.28c0-2.14-.17-3.47-.5-3.97-.34-.51-1.22-.77-2.66-.77v18.03h-10.39v-39.98Zm10.39,6.84v8.89c1.17,0,1.99-.16,2.46-.48.47-.32.7-1.36.7-3.12v-2.2c0-1.27-.23-2.1-.68-2.49-.45-.4-1.28-.59-2.48-.59Z"/><path class="cls-2" d="m440.1,207.69v39.98h-10.39v-39.98h10.39Z"/><path class="cls-2" d="m466.98,207.69v39.98h-9.11l-5.41-18.17v18.17h-8.69v-39.98h8.69l5.83,18v-18h8.69Z"/><path class="cls-2" d="m494.5,222.41h-10.39v-3.63c0-2.29-.1-3.72-.3-4.3-.2-.58-.67-.86-1.4-.86-.64,0-1.08.25-1.31.74-.23.5-.34,1.76-.34,3.81v19.18c0,1.8.11,2.98.34,3.54.23.57.69.85,1.38.85.76,0,1.27-.32,1.54-.96.27-.64.41-1.89.41-3.75v-4.74h-2.1v-6.07h12.17v21.46h-6.53l-.96-2.86c-.71,1.23-1.6,2.16-2.68,2.78-1.08.62-2.35.92-3.82.92-1.74,0-3.38-.42-4.9-1.27-1.53-.85-2.68-1.9-3.47-3.15-.79-1.25-1.28-2.57-1.48-3.94-.2-1.38-.29-3.44-.29-6.19v-11.88c0-3.82.21-6.59.62-8.32.41-1.73,1.59-3.31,3.54-4.75,1.95-1.44,4.47-2.16,7.57-2.16s5.57.63,7.58,1.88c2.01,1.25,3.32,2.74,3.93,4.46.61,1.72.91,4.22.91,7.49v1.73Z"/></svg>