<?xml version="1.0" encoding="UTF-8"?><svg id="Capa_16" xmlns="http://www.w3.org/2000/svg" viewBox="0 0 752.64 299.39"><defs><style>.cls-1{fill:#222c56;fill-rule:evenodd;stroke-width:0px;}</style></defs><path class="cls-1" d="m613.05,93.83h-12.44l-1.03,4.56h13.48c12.33,0,16.49,3.35,16.49,13.29v4.81c-3.06-3.13-8.46-4.71-16.1-4.71-12.19,0-18.11,5.28-18.11,16.14v.79c0,10.18,5.83,15.35,17.34,15.35h3.1c12.19,0,18.37-5.16,18.37-15.35v-17.03c0-12.68-6.11-17.85-21.08-17.85Zm16.49,35.54c0,7.29-3.9,10.13-13.91,10.13h-1.94c-9.66,0-13.78-3.23-13.78-10.78v-.79c0-8.21,3.93-11.71,13.13-11.71h.77c11.01,0,15.71,3.38,15.71,11.31v1.85Zm-336.04-26.59l2.45-12.19h-21.07v-16.65l-14.79,2.28v49.72c0,17.19,6.6,22.3,24.58,22.3h7.87l2.45-12.08h-9.26c-8.19,0-10.85-2.06-10.85-11.21v-22.19h18.63Zm-101.63-34.6v53.42c0,19.8,8.94,28.07,28.41,28.07s29.16-8.05,29.16-27.96v-5.11c0-18.71-8.3-27.85-26.39-27.85-5.75,0-12.03,1.2-16.28,4.57v-27.53l-14.9,2.39h0Zm28.94,32.53c10.22,0,13.84,4.14,13.84,16.43v4.57c0,11.97-3.62,16.1-14.05,16.1s-14.05-4.14-14.05-16.21v-6.2c0-10.99,3.62-14.69,14.26-14.69h0Zm108.44-11.97c-19.48,0-28.41,8.38-28.41,27.53v2.94c0,18.17,7.77,26.98,26.07,26.98,5.85,0,11.71-1.09,15.86-4.46v2.18c0,10.23-4.36,13.6-14.58,13.6h-6.12c-3.5.06-5.09.7-7.19,4.23h-.01c-17.55,28.39-48.01,45.73-81.21,45.73-52.97,0-96.07-44.06-96.07-98.21S180.68,11.04,233.65,11.04c37.21,0,71.06,22.03,86.89,56.31h4.41c-16.14-36.71-51.92-60.41-91.31-60.41-55.18,0-100.07,45.89-100.07,102.31s44.89,102.31,100.07,102.31c32.45,0,62.4-15.91,81.07-42.3h14.32c18.84,0,28.52-7.29,28.52-25.89v-28.07c0-18.5-9.26-26.55-28.31-26.55h0Zm13.62,32.31c0,10.23-3.51,13.38-13.62,13.38-11.39,0-13.62-4.03-13.62-15.88v-1.85c0-11.75,2.02-16,13.62-16s13.62,4.14,13.62,16.1v4.24h0Zm300.74,23h4.59v-69.1h-4.59v69.1h0Zm-103.44-45.66l1.03-4.56h-20.54v-13.04l-4.72.86v44.69c0,12.73,4.66,17.46,17.21,17.46h6.78l.86-4.56h-7.64c-9.45,0-12.49-3.07-12.49-12.64v-28.2h19.51,0Zm42.51,25.83c0,11.76-3.6,15.53-14.81,15.53s-14.55-3.92-14.55-15.53v-30.39h-4.72v30.39c0,14.46,5.4,20.1,19.27,20.1s19.4-5.82,19.4-20.1v-30.39h-4.59v30.39Zm-103.85-3.3v-4.22c0-13.52,4.52-18.31,17.26-18.31h10.77l1.03-4.56h-11.79c-15.2,0-21.98,7.05-21.98,22.87v4.23c0,15.82,6.78,22.87,21.98,22.87h10.89l1.03-4.56h-11.92c-12.42,0-17.26-5.13-17.26-18.31h0Zm-33.99-27.09h-12.45l-1.03,4.56h13.47c12.23,0,16.36,3.35,16.36,13.29v4.81c-3.05-3.13-8.46-4.71-16.1-4.71-12.18,0-18.11,5.28-18.11,16.14v.79c0,10.18,5.87,15.35,17.46,15.35h3.1c12.1,0,18.24-5.16,18.24-15.35v-17.03c0-12.68-6.07-17.85-20.95-17.85h0Zm16.36,35.54c0,7.38-3.73,10.13-13.78,10.13h-1.94c-9.75,0-13.91-3.23-13.91-10.78v-.79c0-8.21,3.93-11.71,13.13-11.71h.77c11.01,0,15.71,3.38,15.71,11.31v1.85Zm-62.57-36.33c-14.56,0-21.34,7.35-21.34,23.13v42.93h4.59v-22.05c3.32,4.42,9.52,7,17,7,14.49,0,20.95-7.14,20.95-23.13v-4.88c0-15.91-6.54-23-21.21-23h0Zm16.49,27.88c0,13.54-4.4,18.57-16.23,18.57-11.2,0-16.87-5.58-16.87-16.59v-6.73c0-13.19,4.81-18.57,16.62-18.57s16.49,5.17,16.49,18.44v4.88h0Z"/></svg>