<?xml version="1.0" encoding="UTF-8"?><svg id="Capa_31" xmlns="http://www.w3.org/2000/svg" viewBox="0 0 752.64 331.33"><defs><style>.cls-1{fill:#666264;}.cls-1,.cls-2,.cls-3{stroke-width:0px;}.cls-2{fill:#e7442f;}.cls-3{fill:#00689b;}</style></defs><path class="cls-3" d="m109.82,121.89h70.35c.58,0,26.68-.49,26.68,15.06,0,7.21,1.03,12.69-13.81,17.49,12.99,2.14,19.12,9.46,18.66,18.1-.93,17.33-21.36,20.03-33.09,20.03h-68.79v-70.68Zm24.87,28.78h28.99c5.64,0,10.03.35,13.04-1.13,3.01-1.48,4.44-4.65,4.44-7.33s-1.42-4.98-4.18-6.36c-2.76-1.38-7.39-1.79-13.94-1.79h-28.35v16.62Zm0,29.69h30.83c6.18,0,11.14-.09,14.5-1.7,3.36-1.6,4.85-4.89,4.85-8.45,0-2.58-1.72-4.94-4.94-6.45-3.22-1.51-7.55-1.95-13.18-1.95h-32.06v18.54Z"/><path class="cls-3" d="m290.09,121.89h27.02l-42.09,70.68h-26.23l-42.68-70.68h27.54l28.14,53.56h.35l27.94-53.56Z"/><path class="cls-2" d="m164.03,201.94h23.31s26.06,36.72,74.27,22.28c0,0,39.82-13.41,44.56-58.18l16.3-27.23s20.22,70.97-52.4,102.54c0,0-64.78,26.75-106.05-39.41Z"/><path class="cls-1" d="m365.21,158.03h-9.48l-11.29,35.46h-5.9l11.22-35.46h-8.43l1.32-4.06h8.33l1.77-5.74c.45-1.43,1.02-2.73,1.71-3.91s1.58-2.17,2.66-2.99c1.09-.82,2.37-1.44,3.86-1.88,1.49-.43,3.23-.65,5.23-.65,1.06,0,2.09.03,3.09.07.99.05,1.99.2,2.97.46l-1.22,3.98c-.62-.1-1.23-.2-1.81-.31-.59-.1-1.19-.15-1.82-.15-2.75,0-4.74.45-5.96,1.34s-2.17,2.31-2.82,4.25l-1.67,5.51h9.56l-1.32,4.06Z"/><path class="cls-1" d="m364.79,165.96c.4-2.23,1.25-4.16,2.55-5.78,1.3-1.62,2.91-2.95,4.85-3.99,1.93-1.04,4.11-1.81,6.55-2.32,2.43-.51,5.05-.76,7.84-.76,1.73,0,3.65.13,5.74.38,2.1.25,4.05.71,5.85,1.37,1.8.66,3.3,1.56,4.5,2.7,1.2,1.14,1.8,2.58,1.8,4.3,0,.96-.12,2.03-.35,3.2-.23,1.17-.52,2.35-.85,3.54-.33,1.19-.68,2.36-1.05,3.5-.37,1.14-.68,2.14-.95,3-.6,2.23-1.1,4.06-1.5,5.48-.4,1.42-.75,2.61-1.05,3.58s-.52,1.75-.65,2.36c-.14.61-.2,1.22-.2,1.82,0,.71.36,1.15,1.1,1.33.73.18,1.46.27,2.2.27.47,0,.88-.01,1.25-.04.36-.03.78-.06,1.25-.12l-.9,3.81c-.73.1-1.57.19-2.5.26-.93.08-1.84.12-2.7.12-1.74,0-3.06-.38-4-1.14-.93-.76-1.43-1.8-1.5-3.12,0-.35.02-.71.05-1.07.04-.35.09-.71.15-1.06l-.2-.15c-1.8,2.28-4.33,4.06-7.59,5.33-3.26,1.27-6.7,1.9-10.29,1.9-2.33,0-4.51-.2-6.55-.61-2.03-.41-3.78-1.05-5.25-1.94-1.47-.89-2.62-2.01-3.45-3.38-.83-1.37-1.25-3.02-1.25-4.95,0-2.08.5-3.83,1.5-5.25,1-1.42,2.33-2.59,4-3.5,1.66-.92,3.56-1.64,5.69-2.17,2.13-.53,4.37-.95,6.7-1.26,3.33-.4,6.4-.59,9.19-.57,2.8.03,5.2-.16,7.19-.57,2.07-.4,3.61-1.14,4.65-2.2,1.03-1.06,1.55-2.89,1.55-5.48,0-1.17-.35-2.12-1.05-2.86-.7-.73-1.56-1.3-2.6-1.71-1.03-.4-2.2-.68-3.5-.83-1.3-.15-2.55-.23-3.75-.23-2,0-3.89.15-5.69.46-1.8.3-3.43.8-4.9,1.48-1.47.68-2.68,1.6-3.65,2.74-.97,1.14-1.61,2.52-1.95,4.15h-6.29Zm31.18,6.54l-.2-.15c-.53.46-1.26.83-2.2,1.11-.93.28-1.95.49-3.05.64-1.1.15-2.2.25-3.3.31-1.1.05-2.05.1-2.85.15-1.93.1-4.08.24-6.45.42-2.37.18-4.58.56-6.65,1.14-2.06.58-3.79,1.46-5.2,2.62-1.4,1.17-2.1,2.77-2.1,4.79,0,1.27.32,2.35.95,3.23.63.89,1.48,1.62,2.55,2.21,1.07.58,2.28,1,3.65,1.25,1.36.25,2.81.38,4.35.38,5.06,0,9.16-1.05,12.29-3.16,3.13-2.11,5.2-4.88,6.2-8.33l2-6.62Z"/><path class="cls-1" d="m449.23,166.49c.13-1.47-.1-2.79-.71-3.96-.61-1.17-1.48-2.14-2.6-2.93-1.12-.79-2.48-1.4-4.07-1.82-1.59-.43-3.34-.65-5.24-.65-3.87,0-7.22.64-10.03,1.9-2.82,1.27-5.18,2.92-7.08,4.95-1.9,2.03-3.31,4.31-4.23,6.85-.92,2.54-1.38,5.07-1.38,7.61,0,1.78.29,3.4.87,4.87.57,1.47,1.47,2.75,2.7,3.84,1.22,1.09,2.75,1.94,4.58,2.55,1.83.61,4.01.91,6.51.91,4.28,0,7.89-.91,10.85-2.74,2.95-1.82,5.11-4.18,6.47-7.08h6.41c-1.97,4.52-4.95,7.95-8.96,10.31-4.01,2.36-9.2,3.54-15.58,3.54-3.26,0-6.14-.39-8.66-1.18-2.51-.79-4.63-1.89-6.36-3.31-1.73-1.42-3.04-3.12-3.92-5.1-.88-1.98-1.32-4.18-1.32-6.62,0-3.04.64-6.09,1.93-9.13,1.29-3.04,3.16-5.75,5.6-8.14,2.44-2.39,5.43-4.32,8.96-5.82,3.53-1.5,7.54-2.24,12.02-2.24,2.85,0,5.5.27,7.94.8,2.44.53,4.55,1.36,6.32,2.47,1.76,1.12,3.12,2.51,4.07,4.18.95,1.67,1.39,3.65,1.33,5.93h-6.42Z"/><path class="cls-1" d="m459.91,154.62h8.38s3.46-11.78,3.46-11.78h5.67s-3.46,11.78-3.46,11.78h9.27s-1.07,4.01-1.07,4.01h-9.45s-7.44,25-7.44,25c-.28.91-.47,1.6-.58,2.08-.11.48-.18,1.02-.2,1.62-.03.71.17,1.33.6,1.89.43.55,1.18.83,2.26.83,2.16,0,4.39-.15,6.68-.45l-1.16,4.15c-.96.1-1.93.18-2.89.23-.96.05-1.92.08-2.88.08-1.08,0-2.13-.08-3.14-.23-1.02-.15-1.92-.43-2.71-.83-.79-.4-1.41-.97-1.87-1.7s-.65-1.67-.6-2.83c.02-.4.09-.96.2-1.66s.32-1.48.59-2.34l7.48-25.83h-8.38s1.25-4.01,1.25-4.01Z"/><path class="cls-1" d="m509.55,153.1c3.05,0,5.85.34,8.39,1.03,2.55.68,4.73,1.69,6.56,3,1.83,1.32,3.26,2.93,4.27,4.83,1.02,1.9,1.53,4.07,1.53,6.51,0,3.3-.61,6.52-1.83,9.66-1.22,3.15-3.04,5.93-5.44,8.37-2.41,2.43-5.43,4.4-9.06,5.9-3.63,1.5-7.89,2.24-12.77,2.24-3.39,0-6.39-.39-9-1.18-2.61-.79-4.8-1.89-6.56-3.31-1.76-1.42-3.1-3.14-4.02-5.17-.91-2.03-1.37-4.26-1.37-6.7,0-3.19.64-6.32,1.93-9.36,1.29-3.04,3.19-5.73,5.7-8.07,2.51-2.33,5.58-4.21,9.21-5.63,3.63-1.42,7.78-2.13,12.46-2.13Zm-7.12,37.51c3.53,0,6.63-.67,9.31-2.01,2.68-1.34,4.92-3.06,6.72-5.14,1.8-2.08,3.15-4.36,4.07-6.85.92-2.49,1.38-4.87,1.38-7.15,0-3.65-1.29-6.62-3.87-8.9-2.58-2.28-6.44-3.42-11.6-3.42-3.53,0-6.65.65-9.36,1.94-2.71,1.29-4.99,2.94-6.82,4.95-1.83,2.01-3.23,4.24-4.17,6.7-.95,2.46-1.43,4.83-1.43,7.11,0,3.8,1.29,6.89,3.87,9.25,2.58,2.36,6.55,3.54,11.91,3.54Z"/><path class="cls-1" d="m541.04,153.93h5.52l-2.83,9.06h.19c1.02-1.42,2.13-2.71,3.33-3.88,1.2-1.17,2.56-2.18,4.07-3.04,1.51-.86,3.17-1.52,4.96-1.98,1.79-.45,3.81-.68,6.07-.68h1.64c.58,0,1.13.03,1.64.07l-1.52,4.79c-.58,0-1.16,0-1.74-.04-.58-.03-1.16-.04-1.74-.04-2.71.05-5.15.48-7.3,1.29-2.16.81-4.02,1.89-5.58,3.23-1.56,1.34-2.87,2.88-3.93,4.6-1.06,1.72-1.88,3.5-2.46,5.33l-6.32,20.54h-6.1l12.1-39.26Z"/><path class="cls-1" d="m567.76,154.34h5.7l-11.33,38.86h-5.69l11.33-38.86Zm4.39-14.91h5.7l-2.24,7.61h-5.7l2.24-7.61Z"/><path class="cls-1" d="m582.16,154.24h5.76l-2.13,7.15h.2c2.03-2.33,4.69-4.3,7.98-5.9,3.29-1.6,6.85-2.4,10.7-2.4,2.25,0,4.31.2,6.18.61,1.87.41,3.48,1.03,4.83,1.86,1.35.84,2.37,1.93,3.07,3.27s1,2.96.91,4.83c-.06,1.17-.4,2.71-1.02,4.64l-8.27,25.18h-6.26l8.37-25.34c.23-.61.42-1.25.59-1.94.16-.68.26-1.35.3-2.01.06-1.27-.18-2.36-.74-3.27-.55-.91-1.31-1.65-2.28-2.2-.97-.56-2.09-.96-3.37-1.22-1.28-.25-2.61-.38-4.01-.38-2.25,0-4.45.38-6.61,1.14-2.16.76-4.15,1.84-5.97,3.23-1.82,1.4-3.46,3.09-4.91,5.1-1.45,2.01-2.57,4.25-3.35,6.73l-6.64,20.16h-6.26l12.92-39.26Z"/><path class="cls-1" d="m664.69,189.43c-.95,3.45-2.1,6.41-3.45,8.89-1.35,2.48-3.04,4.52-5.07,6.11s-4.48,2.78-7.35,3.57c-2.88.79-6.34,1.18-10.39,1.18-2.64,0-5.18-.23-7.61-.68-2.43-.46-4.56-1.18-6.39-2.17-1.83-.99-3.3-2.29-4.41-3.91-1.12-1.62-1.71-3.6-1.78-5.92h6.39c0,1.67.42,3.06,1.27,4.18.85,1.11,1.95,2,3.3,2.66,1.35.66,2.9,1.13,4.67,1.4,1.76.28,3.58.42,5.48.42,2.71,0,5.04-.33,7-.99,1.96-.66,3.63-1.52,5.02-2.58,1.39-1.07,2.54-2.29,3.45-3.68.91-1.39,1.69-2.81,2.33-4.25.64-1.44,1.15-2.86,1.52-4.25s.76-2.64,1.17-3.76l-.2-.15c-.88,1.16-1.98,2.19-3.3,3.08-1.32.89-2.76,1.63-4.31,2.24-1.56.61-3.21,1.08-4.97,1.41-1.76.33-3.52.49-5.27.49-3.18,0-5.97-.4-8.37-1.21-2.4-.81-4.41-1.94-6.04-3.38-1.62-1.44-2.86-3.12-3.7-5.05-.85-1.92-1.27-4.03-1.27-6.3,0-2.89.61-5.73,1.83-8.54,1.22-2.81,2.97-5.33,5.27-7.56,2.3-2.23,5.1-4.03,8.42-5.39,3.31-1.37,7.07-2.05,11.26-2.05,1.96,0,3.89.19,5.78.57,1.89.38,3.63.95,5.22,1.71,1.59.76,2.92,1.72,4.01,2.89,1.08,1.16,1.79,2.51,2.13,4.03h.21l2.23-8.05h5.88l-9.94,35.09Zm-35.9-13.06c0,1.67.27,3.24.81,4.71.54,1.47,1.4,2.77,2.59,3.91,1.18,1.14,2.65,2.04,4.41,2.7,1.76.66,3.86.98,6.29.98,3.24,0,6.15-.59,8.72-1.78,2.57-1.19,4.77-2.74,6.59-4.63s3.21-3.99,4.16-6.26c.94-2.28,1.42-4.53,1.42-6.76,0-1.72-.25-3.31-.76-4.78-.51-1.47-1.33-2.73-2.48-3.8-1.15-1.06-2.64-1.9-4.46-2.51-1.83-.61-4.02-.91-6.59-.91-3.24,0-6.15.58-8.72,1.75-2.57,1.16-4.75,2.67-6.54,4.52-1.79,1.85-3.14,3.91-4.06,6.19-.91,2.28-1.37,4.5-1.37,6.68Z"/></svg>