<?xml version="1.0" encoding="UTF-8"?><svg id="Capa_29" xmlns="http://www.w3.org/2000/svg" viewBox="0 0 752.64 331.33"><defs><style>.cls-1{fill:#00a5ba;}.cls-1,.cls-2,.cls-3{stroke-width:0px;}.cls-2{fill:#00637d;}.cls-3{fill:#ed703d;}</style></defs><path class="cls-1" d="m252.61,252.71c-34.62,0-63.9-29.29-63.9-64.17s29.05-64.19,63.67-64.19c18.16,0,34.45,6.7,45.9,19.12l6-5.62c-14.32-14.02-30.9-21.58-51.77-21.58-39.71,0-71.9,32.43-71.9,72.44s33.08,72.11,71.82,72.11c20.38,0,38.83-7.94,51.92-21.66l-6.23-5.4c-11.39,11.82-27.86,18.96-45.5,18.96Z"/><path class="cls-2" d="m252.17,233.38c-24.52,0-44.51-20.23-44.51-44.83s19.82-44.78,44.34-44.78c12.89,0,23.9,4.61,32,13.1l9.28-9.17c-11.53-11.25-24.17-17.21-41.02-17.21-31.95,0-57.85,25.99-57.85,58.06s25.9,58.06,57.85,58.06c16.34,0,30.72-6.13,41.24-17.06l-9.53-9.42c-9.57,9.23-19.46,13.26-31.81,13.26Z"/><circle class="cls-3" cx="250.81" cy="188.4" r="11.7"/><path class="cls-2" d="m342.94,164.4l-6.15,8.29c-21.8-19.71-40.42,2-40.07,14.56.12,4.25-.24,16.13,14.95,22.99,8.37,3.78,19.57-.28,24.97-6.3l6.3,8.04c-7.82,8.77-17.46,9.96-22.84,9.96-9.91,0-17.96-3.55-24.27-9.84-6.31-6.29-9.47-14.35-9.47-24.19,0-6.36,1.44-12.02,4.31-16.97,2.88-4.95,6.99-8.92,12.35-11.93,5.36-3.01,10.45-4.51,16.63-4.51,5.26,0,14.21,1.1,23.29,9.9Z"/><path class="cls-2" d="m378.95,137.29h9.74l-10.75,12.73h-6.54l7.55-12.73Z"/><path class="cls-2" d="m376.77,154.77h.6l31.73,66.41h-11.52l-4.92-10.75-30.24-.05-5.19,10.8h-11.69l31.23-66.41Zm.54,20.94l-11.93,26.68h24.1l-12.17-26.68Z"/><path class="cls-2" d="m560.75,154.8h.6l31.51,66.41h-11.44l-4.89-10.75-30.04-.05-5.16,10.8h-11.61l31.02-66.41Zm.54,20.94l-11.85,26.68h23.94l-12.09-26.68Z"/><path class="cls-2" d="m416.36,155.6h21.64c17.85,0,22.61,14.9,23.02,19.01.97,9.63-5.08,24.17-23.47,24-2.67-.02-6.54-.06-10.86-.06v22.63h-10.33v-65.58Zm10.33,32.41h6.59c5.18,0,8.78-.37,10.8-1.11,2.03-.74,3.62-1.95,4.78-3.65,1.16-1.7,1.74-3.75,1.74-6.17,0-4.19-1.63-7.23-4.88-9.16-2.37-1.43-6.76-2.14-13.17-2.14h-5.85v22.22Z"/><path class="cls-2" d="m470.06,155.51h10.39v65.67h-10.39v-65.67Z"/><path class="cls-2" d="m489.19,155.6h45.79v10.25h-17.73v55.33h-10.4v-55.31h-17.66v-10.27Z"/></svg>