<?xml version="1.0" encoding="UTF-8"?><svg id="Capa_26" xmlns="http://www.w3.org/2000/svg" xmlns:xlink="http://www.w3.org/1999/xlink" viewBox="0 0 752.64 331.33"><defs><style>.cls-1{fill:#9a9b9b;}.cls-1,.cls-2,.cls-3,.cls-4,.cls-5,.cls-6,.cls-7,.cls-8{stroke-width:0px;}.cls-2{fill:#737071;}.cls-3{fill:#7e7b80;}.cls-3,.cls-6,.cls-7{fill-rule:evenodd;}.cls-4{fill:none;}.cls-5{fill:#969599;}.cls-6{fill:#acb0b2;}.cls-7{fill:#fff;}.cls-9{clip-path:url(#clippath);}.cls-8{fill:#969898;}</style><clipPath id="clippath"><polygon class="cls-4" points="314.03 84.37 398.41 0 483.06 84.37 398.68 168.74 314.03 84.37"/></clipPath></defs><polygon class="cls-2" points="314.03 84.37 398.41 0 483.06 84.37 398.68 168.74 314.03 84.37"/><path class="cls-7" d="m395.46,54.36s-31.27,14.65-32.57,58.17c-1.22,41.04,3.7,36.12,3.7,36.12l66.25-2.66s4.56-31.94-7.98-57.41c-12.55-25.47-29.4-34.22-29.4-34.22Z"/><g class="cls-9"><path class="cls-1" d="m399.17,188.44c-18.31.04-33.16-14.71-33.16-32.95s14.85-33.06,33.16-33.1c18.32-.04,33.17,14.71,33.17,32.95s-14.85,33.06-33.17,33.1Z"/></g><path class="cls-3" d="m593.51,224.06c.26,2.63,1,4.64,2.22,6.04,2.24,2.54,6.13,3.81,11.67,3.81,3.29,0,6.2-.62,8.7-1.88,2.5-1.28,3.76-3.26,3.76-5.91,0-2.02-1-3.55-3.01-4.6-1.29-.64-3.83-1.39-7.62-2.23l-7.07-1.58c-4.52-.99-7.85-2.1-9.99-3.33-3.83-2.13-5.74-5.08-5.74-8.84,0-4.43,1.8-8.03,5.39-10.77,3.63-2.74,8.49-4.12,14.59-4.12,7.98,0,13.73,2.07,17.26,6.21,2.21,2.63,3.28,5.46,3.22,8.5h-8.41c-.16-1.78-.88-3.4-2.12-4.86-2.05-2.07-5.59-3.11-10.64-3.11-3.36,0-5.92.57-7.67,1.71-1.72,1.13-2.57,2.64-2.57,4.51,0,2.04,1.14,3.68,3.41,4.9,1.32.73,3.27,1.37,5.84,1.93l5.88,1.26c6.4,1.38,10.68,2.7,12.86,3.99,3.46,2.01,5.19,5.18,5.19,9.5s-1.8,7.78-5.39,10.81c-3.56,3.03-9,4.55-16.32,4.55-7.88,0-13.47-1.57-16.76-4.73-3.27-3.18-5.01-7.11-5.25-11.78h8.56Z"/><path class="cls-6" d="m204.11,194.38c3.76,2.57,6.01,6.99,6.77,13.27h-8.65c-.53-2.89-1.73-5.28-3.61-7.18-1.88-1.93-4.9-2.89-9.05-2.89-5.67,0-9.73,2.45-12.16,7.36-1.58,3.18-2.38,7.1-2.38,11.78s1.12,8.65,3.37,11.86c2.24,3.21,5.77,4.82,10.58,4.82,3.69,0,6.61-.99,8.75-2.98,2.18-2.01,3.67-4.76,4.5-8.23h8.65c-.99,6.22-3.46,10.77-7.42,13.66-3.96,2.86-9.02,4.29-15.18,4.29-6.93,0-12.45-2.24-16.57-6.7-4.12-4.49-6.18-10.1-6.18-16.81,0-8.23,2.26-14.63,6.77-19.22,4.52-4.58,10.27-6.87,17.26-6.87,5.97,0,10.81,1.28,14.54,3.85Z"/><path class="cls-6" d="m259.47,196.57c4.72,4.03,7.07,9.95,7.07,17.78s-2.08,13.8-6.23,18.73c-4.15,4.94-10.6,7.4-19.34,7.4-7.29,0-13.07-2.17-17.36-6.52-4.29-4.38-6.43-10.24-6.43-17.6,0-7.88,2.26-14.16,6.78-18.83,4.51-4.67,10.58-7,18.2-7,6.82,0,12.59,2.01,17.31,6.04Zm-5.54,31.22c2.21-3.97,3.31-8.37,3.31-13.22,0-4.38-.79-7.94-2.38-10.68-2.5-4.32-6.82-6.48-12.96-6.48-5.44,0-9.4,1.84-11.87,5.52-2.47,3.67-3.71,8.12-3.71,13.31s1.23,9.15,3.71,12.48c2.47,3.33,6.4,4.99,11.77,4.99,5.9,0,9.94-1.97,12.12-5.91Z"/><path class="cls-6" d="m278.14,191.88h8.46v6.66c2.51-2.74,5.16-4.72,7.96-5.91,2.8-1.19,5.92-1.79,9.35-1.79,7.52,0,12.59,2.32,15.23,6.96,1.45,2.54,2.18,6.17,2.18,10.9v30.08h-9.05v-29.55c0-2.86-.48-5.16-1.43-6.92-1.58-2.92-4.45-4.38-8.61-4.38-2.11,0-3.84.19-5.19.57-2.44.64-4.58,1.92-6.43,3.85-1.49,1.55-2.46,3.15-2.92,4.81-.43,1.64-.64,3.99-.64,7.05v24.56h-8.9v-46.89Z"/><path class="cls-3" d="m370.44,194.38c3.76,2.57,6.02,6.99,6.78,13.27h-8.66c-.53-2.89-1.73-5.28-3.61-7.18-1.88-1.93-4.89-2.89-9.05-2.89-5.67,0-9.73,2.45-12.16,7.36-1.58,3.18-2.38,7.1-2.38,11.78s1.12,8.65,3.37,11.86c2.24,3.21,5.77,4.82,10.58,4.82,3.7,0,6.61-.99,8.75-2.98,2.18-2.01,3.68-4.76,4.5-8.23h8.66c-.99,6.22-3.46,10.77-7.42,13.66-3.96,2.86-9.02,4.29-15.18,4.29-6.92,0-12.44-2.24-16.57-6.7-4.12-4.49-6.18-10.1-6.18-16.81,0-8.23,2.26-14.63,6.77-19.22,4.52-4.58,10.27-6.87,17.26-6.87,5.97,0,10.81,1.28,14.54,3.85Z"/><path class="cls-3" d="m387.38,191.88h8.46v8.1c.69-1.57,2.39-3.49,5.09-5.73,2.7-2.28,5.82-3.41,9.35-3.41.16,0,.44.01.84.04.4.03,1.08.09,2.03.18v8.32c-.53-.09-1.02-.14-1.49-.17-.43-.03-.9-.04-1.43-.04-4.49,0-7.93,1.28-10.34,3.85-2.41,2.54-3.61,5.47-3.61,8.8v26.97h-8.91v-46.89Z"/><path class="cls-3" d="m458.13,211.58c-.36-3.41-1.2-6.14-2.52-8.19-2.44-3.79-6.51-5.69-12.21-5.69-4.09,0-7.52,1.31-10.29,3.94-2.77,2.6-4.24,5.91-4.4,9.94h29.43Zm-3.26-18.39c3.53,1.55,6.22,3.56,8.06,6.04,1.78,2.37,2.97,5.12,3.56,8.28.53,2.16.79,5.6.79,10.33h-38.82c.16,4.76,1.43,8.58,3.81,11.47,2.37,2.86,6.05,4.29,11.03,4.29,4.65,0,8.36-1.36,11.13-4.07,1.58-1.58,2.7-3.4,3.36-5.47h8.75c-.23,1.72-1.01,3.65-2.33,5.78-1.28,2.1-2.73,3.83-4.35,5.17-2.7,2.34-6.05,3.91-10.04,4.73-2.14.47-4.57.7-7.27.7-6.6,0-12.18-2.12-16.76-6.35-4.58-4.26-6.88-10.21-6.88-17.86s2.31-13.65,6.92-18.34c4.61-4.7,10.65-7.05,18.1-7.05,3.76,0,7.4.79,10.93,2.36Z"/><path class="cls-3" d="m514.18,194.38c3.76,2.57,6.02,6.99,6.78,13.27h-8.66c-.53-2.89-1.73-5.28-3.61-7.18-1.88-1.93-4.89-2.89-9.05-2.89-5.67,0-9.73,2.45-12.16,7.36-1.58,3.18-2.38,7.1-2.38,11.78s1.12,8.65,3.36,11.86c2.24,3.21,5.77,4.82,10.58,4.82,3.69,0,6.61-.99,8.75-2.98,2.18-2.01,3.67-4.76,4.5-8.23h8.66c-.99,6.22-3.46,10.77-7.42,13.66-3.95,2.86-9.02,4.29-15.18,4.29-6.93,0-12.45-2.24-16.57-6.7-4.12-4.49-6.18-10.1-6.18-16.81,0-8.23,2.26-14.63,6.77-19.22,4.52-4.58,10.27-6.87,17.26-6.87,5.97,0,10.81,1.28,14.54,3.85Z"/><path class="cls-3" d="m567.12,211.58c-.36-3.41-1.2-6.14-2.52-8.19-2.44-3.79-6.51-5.69-12.22-5.69-4.09,0-7.51,1.31-10.28,3.94-2.77,2.6-4.24,5.91-4.4,9.94h29.43Zm-3.26-18.39c3.53,1.55,6.22,3.56,8.06,6.04,1.78,2.37,2.97,5.12,3.56,8.28.53,2.16.79,5.6.79,10.33h-38.82c.16,4.76,1.43,8.58,3.81,11.47,2.37,2.86,6.05,4.29,11.03,4.29,4.65,0,8.36-1.36,11.13-4.07,1.58-1.58,2.71-3.4,3.36-5.47h8.76c-.23,1.72-1.01,3.65-2.32,5.78-1.29,2.1-2.74,3.83-4.35,5.17-2.7,2.34-6.05,3.91-10.04,4.73-2.14.47-4.56.7-7.27.7-6.6,0-12.18-2.12-16.77-6.35-4.58-4.26-6.87-10.21-6.87-17.86s2.31-13.65,6.93-18.34c4.61-4.7,10.65-7.05,18.1-7.05,3.76,0,7.4.79,10.93,2.36Z"/><rect class="cls-5" x="162.49" y="252.88" width="470.92" height="2.92"/><rect class="cls-5" x="162.49" y="294.04" width="470.92" height="2.92"/><path class="cls-8" d="m169.11,263.5h12.23v3.71h-7.69v4.57h7.18v3.68h-7.18v8.04h-4.54v-20Z"/><path class="cls-8" d="m225.99,278.36l-1.42,5.13h-4.69l6.11-20h5.93l6.2,20h-4.86l-1.54-5.13h-5.72Zm5.07-3.38l-1.25-4.24c-.36-1.18-.71-2.67-1.01-3.86h-.06c-.3,1.18-.59,2.7-.92,3.86l-1.18,4.24h4.42Z"/><path class="cls-8" d="m294.49,282.93c-.83.41-2.7.86-5.14.86-6.91,0-10.47-4.3-10.47-10,0-6.83,4.87-10.62,10.92-10.62,2.34,0,4.12.47,4.92.89l-.92,3.59c-.91-.38-2.19-.74-3.79-.74-3.59,0-6.38,2.17-6.38,6.62,0,4,2.38,6.52,6.41,6.52,1.37,0,2.87-.29,3.76-.65l.69,3.53Z"/><path class="cls-8" d="m341.07,267.29h-5.37v-3.79h15.36v3.79h-5.46v16.2h-4.54v-16.2Z"/><path class="cls-8" d="m409.88,273.29c0,6.56-3.97,10.53-9.82,10.53s-9.4-4.48-9.4-10.18c0-5.99,3.83-10.47,9.73-10.47s9.49,4.59,9.49,10.11Zm-14.45.27c0,3.92,1.84,6.67,4.87,6.67s4.81-2.91,4.81-6.79c0-3.59-1.72-6.68-4.84-6.68s-4.84,2.91-4.84,6.8Z"/><path class="cls-8" d="m450.01,263.76c1.45-.24,3.62-.41,6.02-.41,2.97,0,5.05.45,6.47,1.57,1.19.95,1.84,2.35,1.84,4.19,0,2.55-1.81,4.3-3.53,4.92v.09c1.39.57,2.16,1.9,2.67,3.73.63,2.26,1.25,4.87,1.63,5.64h-4.63c-.32-.57-.8-2.2-1.39-4.66-.53-2.49-1.39-3.18-3.24-3.21h-1.36v7.86h-4.48v-19.73Zm4.48,8.6h1.78c2.25,0,3.59-1.12,3.59-2.87,0-1.84-1.24-2.76-3.32-2.79-1.1,0-1.72.09-2.05.15v5.52Z"/><path class="cls-8" d="m510.91,263.5v20h-4.54v-20h4.54Z"/><path class="cls-8" d="m552.09,283.5v-20h5.28l4.15,7.33c1.19,2.1,2.37,4.6,3.26,6.85h.09c-.29-2.64-.38-5.34-.38-8.34v-5.84h4.15v20h-4.75l-4.27-7.71c-1.19-2.14-2.49-4.72-3.47-7.06l-.09.03c.12,2.64.18,5.45.18,8.72v6.02h-4.15Z"/><path class="cls-8" d="m628.67,282.57c-1.39.48-4.04,1.13-6.67,1.13-3.65,0-6.29-.92-8.13-2.7-1.84-1.72-2.85-4.33-2.82-7.27.03-6.65,4.87-10.45,11.43-10.45,2.58,0,4.57.51,5.55.98l-.95,3.62c-1.1-.48-2.46-.86-4.66-.86-3.77,0-6.61,2.14-6.61,6.47s2.58,6.56,6.29,6.56c1.04,0,1.86-.12,2.22-.29v-4.19h-3.09v-3.53h7.45v10.53Z"/></svg>