<?xml version="1.0" encoding="UTF-8"?><svg id="Capa_7" xmlns="http://www.w3.org/2000/svg" xmlns:xlink="http://www.w3.org/1999/xlink" viewBox="0 0 710.01 299.39"><defs><style>.cls-1{fill:#1d1e1c;}.cls-1,.cls-2,.cls-3{stroke-width:0px;}.cls-4{clip-path:url(#clippath-2);}.cls-2{fill:#e4087e;}.cls-3{fill:none;}.cls-5{clip-path:url(#clippath-1);}.cls-6{clip-path:url(#clippath-4);}.cls-7{clip-path:url(#clippath);}.cls-8{clip-path:url(#clippath-3);}</style><clipPath id="clippath"><path class="cls-3" d="m411.86,40.44c7.63-18.66,25.47-13.06,25.47-13.06,20.69,6.81,13.46,25.47,13.46,25.47l-38.49,108.28c-10.05,19.47-28.29,18.74-28.29,18.74-22.27.89-30.85-18.52-30.85-18.52l-37.66-106.79c-6.96-19.42,12.05-26.78,12.05-26.78,22.66-5.75,28.4,13.67,28.4,13.67l27.88,92.65,28.01-93.67h0Z"/></clipPath><clipPath id="clippath-1"><path class="cls-3" d="m496.78,71.93l27.88,92.65s5.74,19.42,28.4,13.67c0,0,19.01-7.36,12.05-26.78l-37.66-106.79s-8.58-19.41-30.85-18.52c0,0-18.23-.74-28.29,18.74l-38.49,108.28s-7.22,18.66,13.46,25.47c0,0,17.84,5.61,25.47-13.06l28.01-93.67h0Z"/></clipPath><clipPath id="clippath-2"><path class="cls-3" d="m131.71,55.88c7.98-.03,15.45,1.7,22.22,5.13,1.96,1,4.3.9,6.17-.25,1.88-1.16,3.02-3.2,3.01-5.4l-.06-17.03c0-2.62-1.63-4.95-4.08-5.89-8.79-3.33-18-5-27.36-4.97-20.42.07-39.69,8.15-54.28,22.73-14.61,14.62-22.62,33.9-22.54,54.29.15,43.03,34.15,76.61,77.38,76.45,9.39-.04,18.55-1.69,27.24-4.91,2.49-.92,4.13-3.29,4.12-5.94l-.06-17.63c0-2.22-1.18-4.27-3.09-5.4-1.9-1.14-4.27-1.18-6.22-.13-6.79,3.65-14.43,5.59-22.09,5.62-26.26.1-47.7-21.51-47.8-48.17-.1-27.56,20.3-48.42,47.45-48.52h0Z"/></clipPath><clipPath id="clippath-3"><path class="cls-3" d="m295.52,49.37c-14.68-14.48-34.01-22.41-54.44-22.34-20.42.07-39.69,8.15-54.28,22.73-14.61,14.62-22.62,33.9-22.54,54.29.15,43.03,34.15,76.61,77.38,76.46,43.23-.16,76.97-33.99,76.81-77.02-.07-20.39-8.22-39.61-22.94-54.12h0Zm-53.98,102.75c-26.26.1-47.7-21.51-47.8-48.17-.1-27.56,20.3-48.42,47.45-48.52,27.15-.1,47.7,20.61,47.8,48.17.1,26.65-21.19,48.42-47.45,48.52h0Z"/></clipPath><clipPath id="clippath-4"><path class="cls-3" d="m652.22,150.11l-48.28.18-.43-118.48c0-3.64-2.98-6.59-6.62-6.58l-17.6.06c-3.64,0-6.59,2.98-6.58,6.62l.51,141.18c0,3.64,2.98,6.59,6.62,6.58l72.49-.26c3.64,0,6.59-2.98,6.58-6.62l-.06-16.1c0-3.64-2.98-6.59-6.62-6.58h0Z"/></clipPath></defs><path class="cls-1" d="m76.69,227.63h-1.31c-1.1,0-1.79-.61-1.8-1.79l-.02-4.55c-.02-4.61-1.88-6.61-6.22-6.59-4.34.02-6.19,2.02-6.17,6.63v3.37c.03,3.24,1.13,4.2,4.37,5.98l6.9,3.76c3.72,2.06,6.22,4.59,6.23,8.66l.03,6.41c.03,7.03-3.75,10.07-11.06,10.1h-.13c-7.31.03-11.1-2.93-11.13-10.02l-.03-6.2c0-1.17.61-1.79,1.79-1.79h1.31c1.1,0,1.79.61,1.79,1.78l.02,5.1c.02,4.55,1.88,6.75,6.29,6.73,4.41-.02,6.26-2.23,6.25-6.78l-.02-3.86c0-3.23-1.26-4.47-4.57-6.32l-6.77-3.7c-4.21-2.32-6.15-4.32-6.17-8.52l-.02-5.79c-.03-6.75,4.37-9.93,10.98-9.96h.13c6.61-.03,11.03,3.13,11.06,9.88l.02,5.64c0,1.18-.61,1.79-1.79,1.8h.03Z"/><path class="cls-1" d="m107.53,258.94l-16.12.06c-1.17,0-1.79-.61-1.79-1.79l-.16-44.64c0-1.17.61-1.79,1.79-1.79l15.91-.05c1.17,0,1.79.61,1.79,1.79v.9c0,1.17-.61,1.79-1.78,1.79l-12.74.04.06,17.09,10.61-.04c1.17,0,1.79.61,1.79,1.79v.83c0,1.17-.61,1.79-1.78,1.79l-10.61.04.06,17.78,12.95-.04c1.17,0,1.79.61,1.8,1.79v.9c0,1.18-.61,1.79-1.79,1.8v-.03Z"/><path class="cls-1" d="m141.58,258.81h-1.44c-1.03,0-1.72-.47-2.07-1.44l-6.96-18.85h-.41l-6.69.03.07,18.53c0,1.18-.68,1.79-1.86,1.8h-1.31c-1.17,0-1.79-.61-1.79-1.79l-.16-44.64c0-1.17.61-1.79,1.79-1.79l9.85-.04c7.31-.03,11.31,3.27,11.33,10.16l.03,7.5c.02,5.03-2.11,8.14-6.03,9.46l7.1,18.99c.42,1.17-.13,2.06-1.44,2.07h0Zm-17.59-24.67l6.41-.03c4.62-.02,6.61-1.96,6.59-6.98l-.02-5.1c-.02-5.03-2.02-6.96-6.64-6.94l-6.41.03.07,19.02Z"/><path class="cls-1" d="m175.58,212.47l-9.14,44.67c-.2,1.1-.89,1.59-1.99,1.59h-2.06c-1.1,0-1.79-.47-2-1.57l-9.46-44.6c-.21-1.31.4-2,1.64-2h1.44c1.03,0,1.72.47,1.93,1.64l7.58,38.13,7.3-38.19c.21-1.18.83-1.66,1.92-1.66h1.17c1.24,0,1.86.67,1.66,1.99h0Z"/><path class="cls-1" d="m188.58,258.64h-1.31c-1.17,0-1.79-.61-1.79-1.79l-.16-44.64c0-1.17.61-1.79,1.79-1.79h1.31c1.17,0,1.86.61,1.87,1.78l.16,44.64c0,1.18-.68,1.79-1.85,1.8h0Z"/><path class="cls-1" d="m225.03,241.08l.03,7.78c.03,7.03-3.96,10.21-11.26,10.24h-.13c-7.31.03-11.31-3.06-11.33-10.16l-.11-28.93c-.03-6.76,3.96-10.21,11.26-10.24h.13c7.31-.03,11.31,3.4,11.33,10.16l.03,6.61c0,1.17-.62,1.79-1.79,1.79h-1.31c-1.17,0-1.87-.61-1.87-1.78l-.02-5.38c-.02-4.96-1.88-6.96-6.43-6.94-4.55.02-6.4,2.02-6.38,6.98l.1,26.46c.02,4.96,1.88,6.96,6.43,6.94,4.55-.02,6.4-2.02,6.38-6.98l-.03-6.54c0-1.17.68-1.79,1.86-1.79h1.31c1.17,0,1.79.61,1.8,1.78h-.02Z"/><path class="cls-1" d="m239.92,258.45h-1.31c-1.18,0-1.79-.61-1.8-1.79l-.16-44.64c0-1.17.61-1.79,1.79-1.79h1.31c1.17,0,1.86.61,1.87,1.78l.16,44.64c0,1.18-.68,1.79-1.85,1.8h0Z"/><path class="cls-1" d="m264.81,209.59h.55c7.31-.03,11.31,3.27,11.33,10.15l.11,28.93c.03,6.89-3.96,10.21-11.26,10.24h-.55c-7.31.03-11.31-3.27-11.33-10.15l-.11-28.93c-.03-6.96,3.96-10.21,11.26-10.24Zm.44,44.84c4.62-.02,6.61-1.96,6.59-6.98l-.1-26.46c-.02-5.03-2.02-6.96-6.64-6.94-4.61.02-6.61,1.96-6.59,6.98l.1,26.46c.02,5.03,2.03,6.96,6.64,6.94Z"/><path class="cls-1" d="m307.88,226.79h-1.31c-1.1,0-1.79-.61-1.8-1.79l-.02-4.55c-.02-4.61-1.88-6.61-6.22-6.59-4.34.02-6.19,2.02-6.17,6.63v3.37c.03,3.24,1.13,4.2,4.37,5.98l6.9,3.76c3.72,2.06,6.22,4.59,6.23,8.66l.03,6.41c.03,7.03-3.75,10.07-11.06,10.1h-.13c-7.31.03-11.1-2.93-11.13-10.02l-.03-6.2c0-1.17.61-1.79,1.79-1.79h1.31c1.1,0,1.79.61,1.79,1.78l.02,5.1c.02,4.55,1.88,6.75,6.29,6.73,4.41-.02,6.26-2.23,6.25-6.78l-.02-3.86c0-3.23-1.26-4.47-4.57-6.32l-6.77-3.7c-4.21-2.32-6.15-4.32-6.17-8.52l-.02-5.79c-.03-6.75,4.37-9.93,10.98-9.96h.13c6.61-.03,11.03,3.13,11.06,9.88l.02,5.64c0,1.18-.61,1.79-1.79,1.8h.03Z"/><path class="cls-1" d="m335.28,256.32l-.16-44.64c0-1.17.61-1.79,1.79-1.79l15.63-.05c1.17,0,1.79.61,1.8,1.79v.9c0,1.17-.61,1.79-1.79,1.79l-12.47.04.06,17.43,10.33-.04c1.18,0,1.79.61,1.8,1.79v.83c0,1.17-.61,1.79-1.79,1.79l-10.33.04.07,20.11c0,1.18-.68,1.79-1.86,1.8h-1.31c-1.17,0-1.79-.61-1.79-1.79h0Z"/><path class="cls-1" d="m366.71,257.99h-1.31c-1.17,0-1.79-.61-1.79-1.79l-.16-44.64c0-1.17.61-1.79,1.79-1.79h1.31c1.17,0,1.86.61,1.87,1.78l.16,44.64c0,1.18-.68,1.79-1.85,1.8h0Z"/><path class="cls-1" d="m383.59,257.93h-1.03c-1.17,0-1.79-.61-1.79-1.79l-.16-44.64c0-1.17.61-1.79,1.79-1.79h1.72c1.03,0,1.72.47,2,1.44l13.77,35.08-.13-34.79c0-1.17.62-1.79,1.79-1.79h1.03c1.17,0,1.79.61,1.79,1.78l.16,44.64c0,1.18-.61,1.79-1.79,1.8h-1.44c-1.03,0-1.72-.47-2.07-1.44l-13.97-35.77.13,35.48c0,1.18-.61,1.79-1.79,1.8h0Z"/><path class="cls-1" d="m418.72,256.15c-.21,1.18-.83,1.66-1.92,1.66h-1.17c-1.24,0-1.86-.68-1.66-1.99l9.34-44.67c.21-1.1.89-1.59,1.99-1.59h2.62c1.1-.02,1.79.47,2,1.57l9.81,44.6c.21,1.31-.4,2-1.64,2h-1.44c-1.03,0-1.72-.47-1.93-1.64l-8.14-39.65-7.84,39.71h-.02Z"/><path class="cls-1" d="m452.02,257.68h-1.03c-1.17,0-1.79-.61-1.79-1.79l-.16-44.64c0-1.17.61-1.79,1.79-1.79h1.72c1.03,0,1.72.47,2,1.44l13.77,35.08-.13-34.79c0-1.17.62-1.79,1.79-1.79h1.03c1.17,0,1.79.61,1.79,1.78l.16,44.64c0,1.18-.61,1.79-1.79,1.8h-1.44c-1.03,0-1.72-.47-2.07-1.44l-13.97-35.77.13,35.48c0,1.18-.61,1.79-1.79,1.8h0Z"/><path class="cls-1" d="m507.36,240.05l.03,7.78c.03,7.03-3.96,10.21-11.26,10.24h-.13c-7.31.03-11.31-3.06-11.33-10.16l-.11-28.93c-.03-6.76,3.96-10.21,11.26-10.24h.13c7.31-.03,11.31,3.4,11.33,10.16l.03,6.61c0,1.17-.62,1.79-1.79,1.79h-1.31c-1.17,0-1.87-.61-1.87-1.78l-.02-5.38c-.02-4.96-1.88-6.96-6.43-6.94-4.55.02-6.4,2.02-6.38,6.98l.1,26.46c.02,4.96,1.88,6.96,6.43,6.94,4.55-.02,6.4-2.02,6.38-6.98l-.03-6.54c0-1.17.68-1.79,1.86-1.79h1.31c1.17,0,1.79.61,1.8,1.78h-.02Z"/><path class="cls-1" d="m522.23,257.43h-1.31c-1.18,0-1.79-.61-1.8-1.79l-.16-44.64c0-1.17.61-1.79,1.79-1.79h1.31c1.17,0,1.86.61,1.87,1.78l.16,44.64c0,1.18-.68,1.79-1.85,1.8h0Z"/><path class="cls-1" d="m554.2,257.31l-16.12.06c-1.17,0-1.79-.61-1.79-1.79l-.16-44.64c0-1.17.61-1.79,1.79-1.79l15.91-.05c1.17,0,1.79.61,1.79,1.79v.9c0,1.17-.61,1.79-1.78,1.79l-12.74.04.06,17.09,10.61-.04c1.17,0,1.79.61,1.79,1.79v.83c0,1.17-.61,1.79-1.78,1.79l-10.61.04.06,17.78,12.95-.04c1.17,0,1.79.61,1.79,1.79v.9c0,1.18-.61,1.79-1.78,1.8v-.03Z"/><path class="cls-1" d="m588.24,257.19h-1.44c-1.03,0-1.72-.47-2.07-1.44l-6.96-18.85h-.41l-6.69.03.07,18.53c0,1.18-.68,1.79-1.86,1.8h-1.31c-1.17,0-1.79-.61-1.79-1.79l-.16-44.64c0-1.17.61-1.79,1.79-1.79l9.85-.04c7.31-.03,11.31,3.27,11.33,10.16l.03,7.5c.02,5.03-2.1,8.14-6.03,9.46l7.1,18.99c.42,1.17-.13,2.06-1.44,2.07h0Zm-17.58-24.67l6.41-.03c4.62-.02,6.61-1.96,6.59-6.98l-.02-5.1c-.02-5.03-2.02-6.96-6.64-6.94l-6.41.03.07,19.02Z"/><path class="cls-1" d="m611.15,208.33h.55c7.31-.03,11.31,3.27,11.33,10.15l.11,28.93c.03,6.89-3.96,10.21-11.26,10.24h-.55c-7.31.03-11.31-3.27-11.33-10.15l-.11-28.93c-.03-6.96,3.96-10.21,11.26-10.24Zm.44,44.84c4.62-.02,6.61-1.96,6.59-6.98l-.1-26.46c-.02-5.03-2.02-6.96-6.64-6.94-4.61.02-6.61,1.96-6.59,6.98l.1,26.46c.02,5.03,2.03,6.96,6.64,6.94Z"/><path class="cls-1" d="m654.21,225.53h-1.31c-1.1,0-1.79-.61-1.8-1.79l-.02-4.55c-.02-4.61-1.88-6.61-6.22-6.59-4.34.02-6.19,2.02-6.17,6.63v3.37c.03,3.24,1.13,4.2,4.37,5.98l6.9,3.76c3.72,2.06,6.22,4.59,6.23,8.66l.03,6.41c.03,7.03-3.75,10.07-11.06,10.1h-.13c-7.31.03-11.1-2.93-11.13-10.02l-.03-6.2c0-1.17.61-1.79,1.79-1.79h1.31c1.1,0,1.79.61,1.79,1.78l.02,5.1c.02,4.55,1.88,6.75,6.29,6.73,4.41-.02,6.26-2.23,6.25-6.78l-.02-3.86c0-3.23-1.26-4.47-4.57-6.32l-6.77-3.7c-4.21-2.32-6.15-4.32-6.17-8.52l-.02-5.79c-.03-6.75,4.37-9.93,10.98-9.96h.13c6.61-.03,11.03,3.13,11.06,9.88l.02,5.64c0,1.18-.61,1.79-1.79,1.8h.03Z"/><path class="cls-2" d="m411.86,40.44c7.63-18.66,25.47-13.06,25.47-13.06,20.69,6.81,13.46,25.47,13.46,25.47l-38.49,108.28c-10.05,19.47-28.29,18.74-28.29,18.74-22.27.89-30.85-18.52-30.85-18.52l-37.66-106.79c-6.96-19.42,12.05-26.78,12.05-26.78,22.66-5.75,28.4,13.67,28.4,13.67l27.88,92.65,28.01-93.67h0Z"/><g class="cls-7"><rect class="cls-2" x="31.86" y="1.16" width="634.25" height="212.03" transform="translate(-.39 1.28) rotate(-.21)"/></g><path class="cls-2" d="m496.78,71.93l27.88,92.65s5.74,19.42,28.4,13.67c0,0,19.01-7.36,12.05-26.78l-37.66-106.79s-8.58-19.41-30.85-18.52c0,0-18.23-.74-28.29,18.74l-38.49,108.28s-7.22,18.66,13.46,25.47c0,0,17.84,5.61,25.47-13.06l28.01-93.67h0Z"/><g class="cls-5"><rect class="cls-2" x="31.86" y="1.16" width="634.25" height="212.03" transform="translate(-.39 1.28) rotate(-.21)"/></g><path class="cls-1" d="m131.71,55.88c7.98-.03,15.45,1.7,22.22,5.13,1.96,1,4.3.9,6.17-.25,1.88-1.16,3.02-3.2,3.01-5.4l-.06-17.03c0-2.62-1.63-4.95-4.08-5.89-8.79-3.33-18-5-27.36-4.97-20.42.07-39.69,8.15-54.28,22.73-14.61,14.62-22.62,33.9-22.54,54.29.15,43.03,34.15,76.61,77.38,76.45,9.39-.04,18.55-1.69,27.24-4.91,2.49-.92,4.13-3.29,4.12-5.94l-.06-17.63c0-2.22-1.18-4.27-3.09-5.4-1.9-1.14-4.27-1.18-6.22-.13-6.79,3.65-14.43,5.59-22.09,5.62-26.26.1-47.7-21.51-47.8-48.17-.1-27.56,20.3-48.42,47.45-48.52h0Z"/><g class="cls-4"><rect class="cls-1" x="53.52" y="1.16" width="634.25" height="212.03" transform="translate(-.39 1.36) rotate(-.21)"/></g><path class="cls-1" d="m295.52,49.37c-14.68-14.48-34.01-22.41-54.44-22.34-20.42.07-39.69,8.15-54.28,22.73-14.61,14.62-22.62,33.9-22.54,54.29.15,43.03,34.15,76.61,77.38,76.46,43.23-.16,76.97-33.99,76.81-77.02-.07-20.39-8.22-39.61-22.94-54.12h0Zm-53.98,102.75c-26.26.1-47.7-21.51-47.8-48.17-.1-27.56,20.3-48.42,47.45-48.52,27.15-.1,47.7,20.61,47.8,48.17.1,26.65-21.19,48.42-47.45,48.52h0Z"/><g class="cls-8"><rect class="cls-1" x="41.79" y="1.16" width="634.25" height="212.03" transform="translate(-.39 1.32) rotate(-.21)"/></g><path class="cls-1" d="m652.22,150.11l-48.28.18-.43-118.48c0-3.64-2.98-6.59-6.62-6.58l-17.6.06c-3.64,0-6.59,2.98-6.58,6.62l.51,141.18c0,3.64,2.98,6.59,6.62,6.58l72.49-.26c3.64,0,6.59-2.98,6.58-6.62l-.06-16.1c0-3.64-2.98-6.59-6.62-6.58h0Z"/><g class="cls-6"><rect class="cls-1" x="27.35" y="1.16" width="634.25" height="212.03" transform="translate(-.39 1.26) rotate(-.21)"/></g></svg>