<?xml version="1.0" encoding="UTF-8"?><svg id="Capa_17" xmlns="http://www.w3.org/2000/svg" viewBox="0 0 752.64 299.39"><defs><style>.cls-1{fill:#bd1f2d;}.cls-1,.cls-2{stroke-width:0px;}.cls-2{fill:#7f8083;}</style></defs><path class="cls-2" d="m311.65,155.65h-43.66c-1.12,0-2.33-.15-3.6-.44-1.29-.28-2.57-.74-3.82-1.33-1.26-.6-2.46-1.38-3.61-2.35-1.15-.96-2.17-2.12-3.05-3.49-.88-1.36-1.59-2.95-2.12-4.74-.53-1.81-.79-3.84-.79-6.1v-35.63c0-1.21.13-2.52.39-3.93.27-1.4.68-2.79,1.23-4.14.56-1.38,1.3-2.68,2.19-3.93.9-1.25,1.97-2.35,3.24-3.31,1.25-.96,2.71-1.73,4.35-2.3,1.64-.57,3.5-.86,5.58-.86h43.66v13.16h-43.66c-1.58,0-2.79.46-3.62,1.36-.84.92-1.26,2.26-1.26,4.05v35.53c0,1.69.42,2.99,1.27,3.93.85.93,2.05,1.38,3.6,1.38h43.66v13.17Z"/><path class="cls-1" d="m386.13,107.47c0,2.99-.34,5.68-1.03,8.04-.68,2.37-1.6,4.45-2.76,6.25-1.17,1.81-2.52,3.35-4.02,4.63-1.53,1.28-3.13,2.34-4.78,3.16-1.66.83-3.34,1.43-5.03,1.8-1.68.37-3.27.56-4.77.56l25.27,23.74h-18.71l-25.23-23.74h-8.71v-13.15h27.37c1.53-.13,2.92-.48,4.17-1.04,1.25-.56,2.35-1.31,3.26-2.26.92-.94,1.62-2.07,2.12-3.42.49-1.32.75-2.85.75-4.57v-8.3c0-.74-.09-1.31-.26-1.7-.17-.38-.39-.68-.65-.86-.26-.19-.54-.29-.83-.33-.3-.02-.57-.05-.82-.05h-39.93v59.41h-12.1v-65.94c0-.91.15-1.77.47-2.58.31-.82.74-1.53,1.28-2.12.55-.61,1.18-1.08,1.94-1.42.74-.33,1.54-.5,2.41-.5h45.94c2.71,0,4.98.53,6.85,1.59,1.85,1.06,3.36,2.39,4.53,3.99,1.16,1.61,2,3.34,2.51,5.19.51,1.86.78,3.61.78,5.21v8.41Z"/><path class="cls-2" d="m454.93,155.65h-43.65c-1.68,0-3.51-.32-5.49-.96-1.98-.65-3.83-1.7-5.53-3.17-1.69-1.46-3.1-3.37-4.23-5.72-1.14-2.34-1.69-5.21-1.69-8.62v-47.47c0-.91.14-1.77.46-2.58.31-.82.73-1.53,1.29-2.12.53-.61,1.17-1.08,1.93-1.42.74-.33,1.55-.5,2.42-.5h54.5v13.16h-48.49v40.94c0,1.71.41,3.04,1.25,3.95.83.91,2.05,1.36,3.68,1.36h43.56v13.17Zm-5.44-29.66h-38.21v-13.26h38.21v13.26Z"/><path class="cls-2" d="m522.3,155.65h-43.66c-1.12,0-2.32-.15-3.61-.44-1.28-.28-2.55-.74-3.81-1.33-1.25-.6-2.46-1.38-3.61-2.35-1.16-.96-2.16-2.12-3.05-3.49-.88-1.36-1.59-2.95-2.12-4.74-.53-1.81-.79-3.84-.79-6.1v-35.63c0-1.21.14-2.52.4-3.93.26-1.4.67-2.79,1.24-4.14.56-1.38,1.28-2.68,2.18-3.93.9-1.25,1.98-2.35,3.23-3.31,1.27-.96,2.71-1.73,4.36-2.3,1.64-.57,3.5-.86,5.58-.86h43.66v13.16h-43.66c-1.59,0-2.79.46-3.63,1.36-.84.92-1.26,2.26-1.26,4.05v35.53c0,1.69.43,2.99,1.27,3.93.87.93,2.07,1.38,3.61,1.38h43.66v13.17Z"/><path class="cls-2" d="m590.39,155.65h-43.66c-1.67,0-3.5-.32-5.47-.96-2-.65-3.84-1.7-5.53-3.17-1.69-1.46-3.1-3.37-4.24-5.72-1.13-2.34-1.7-5.21-1.7-8.62v-47.47c0-.91.15-1.77.46-2.58.32-.82.74-1.53,1.29-2.12.54-.61,1.18-1.08,1.93-1.42.75-.33,1.55-.5,2.42-.5h54.5v13.16h-48.49v40.94c0,1.71.42,3.04,1.26,3.95.83.91,2.06,1.36,3.67,1.36h43.56v13.17Zm-5.45-29.66h-38.22v-13.26h38.22v13.26Z"/><path class="cls-2" d="m665.12,107.47c0,2.99-.34,5.68-1.04,8.04-.67,2.37-1.59,4.45-2.75,6.25-1.17,1.81-2.52,3.35-4.03,4.63-1.52,1.28-3.12,2.34-4.78,3.16-1.66.83-3.33,1.43-5.02,1.8-1.69.37-3.28.56-4.78.56l25.27,23.74h-18.71l-25.22-23.74h-8.71v-13.15h27.36c1.53-.13,2.92-.48,4.17-1.04,1.26-.56,2.34-1.31,3.26-2.26.92-.94,1.61-2.07,2.11-3.42.49-1.32.75-2.85.75-4.57v-8.3c0-.74-.08-1.31-.25-1.7-.17-.38-.38-.68-.66-.86-.25-.19-.54-.29-.83-.33-.3-.02-.57-.05-.82-.05h-39.94v59.41h-12.09v-65.94c0-.91.15-1.77.46-2.58.31-.82.73-1.53,1.27-2.12.54-.61,1.19-1.08,1.94-1.42.74-.33,1.55-.5,2.41-.5h45.94c2.7,0,4.98.53,6.84,1.59,1.87,1.06,3.37,2.39,4.54,3.99,1.16,1.61,2,3.34,2.5,5.19.51,1.86.78,3.61.78,5.21v8.41Z"/><polygon class="cls-1" points="133.45 54.07 133.45 83.07 183.33 132.94 211.57 104.67 182.53 75.64 182.53 54.07 133.45 54.07"/><polygon class="cls-2" points="236.81 54.32 208.56 54.32 185.59 74.57 214.29 103.27 236.81 103.27 236.81 54.32"/><polygon class="cls-2" points="130.11 155.65 158.37 155.65 181.4 135.14 152.9 106.69 130.11 106.69 130.11 155.65"/><polygon class="cls-2" points="234.01 155.65 234.01 130 213.57 106.84 185.06 135.24 185.06 155.65 234.01 155.65"/></svg>