<?xml version="1.0" encoding="UTF-8"?><svg id="Capa_18" xmlns="http://www.w3.org/2000/svg" viewBox="0 0 752.64 299.39"><defs><style>.cls-1{fill:#87a1b4;}.cls-1,.cls-2,.cls-3{stroke-width:0px;}.cls-2{fill:#0077d0;}.cls-3{fill:#415364;}</style></defs><path class="cls-2" d="m157.02,113.12h-11.2c-4.37,0-7.92-2.81-7.92-7.18s3.54-7.18,7.92-7.18h10.84c1.39-23.64,13.71-47.59,35.86-64.46,1.64-1.25,3.29-2.16,4.91-3.26-11.09-5.45-23.55-8.39-36.74-8.39-46.06,0-83.4,37.41-83.4,83.47s37.34,83.43,83.4,83.43c11.79,0,23-2.44,33.16-6.85-.46-.34-.91-1.96-1.37-2.31-14.88-11.47-32.35-30.96-35.47-67.28Z"/><path class="cls-1" d="m172.54,98.76h27.75c4.37,0,7.92,2.81,7.92,7.18s-3.54,7.18-7.92,7.18h-27.34c2.36,27.02,12.14,41.58,29.22,54.74,2.37,1.83,4.74,4.07,7.04,5.51,21.12-15.13,34.89-39.54,34.89-67.5s-12.45-50.09-31.83-65.36c-3.4,2-6.97,3.87-10.54,6.61-18.07,13.9-27.86,34.75-29.19,51.64Z"/><path class="cls-1" d="m180.33,197.54s1.41-.35,3.87-.95c1.24-.27,2.73-.68,4.38-1.24,1.67-.53,3.55-1.08,5.55-1.91,1-.39,2.04-.79,3.12-1.21,1.05-.48,2.13-.98,3.25-1.49,2.25-.96,4.48-2.29,6.82-3.53,1.15-.66,2.28-1.41,3.44-2.13,1.17-.7,2.31-1.47,3.42-2.3,2.29-1.56,4.47-3.34,6.62-5.13,1.08-.88,2.07-1.89,3.1-2.81,1.04-.92,2.02-1.89,2.95-2.91,1.94-1.93,3.66-4,5.32-5.99,1.6-2.04,3.12-4.02,4.42-5.99,1.3-1.98,2.53-3.82,3.5-5.63.51-.89.99-1.74,1.45-2.55.41-.84.8-1.63,1.17-2.38.74-1.48,1.38-2.77,1.8-3.88.91-2.18,1.44-3.43,1.44-3.43l.13-.3c1.36-3.25,5.1-4.78,8.35-3.42,3.25,1.36,4.78,5.1,3.42,8.35-.11.26-.25.54-.39.78,0,0-.79,1.33-2.16,3.66-.66,1.18-1.57,2.54-2.63,4.08-.52.77-1.08,1.6-1.67,2.47-.64.83-1.31,1.71-2.01,2.62-1.35,1.85-3,3.72-4.73,5.68-1.73,1.96-3.7,3.9-5.74,5.87-2.1,1.92-4.27,3.88-6.64,5.67-1.14.94-2.34,1.84-3.58,2.67-1.24.84-2.43,1.75-3.71,2.53-2.55,1.59-5.09,3.13-7.72,4.45-1.28.71-2.58,1.35-3.9,1.91-1.31.58-2.58,1.19-3.87,1.71-2.61.96-5.07,1.99-7.52,2.67-1.21.37-2.38.72-3.52,1.06-1.15.27-2.27.54-3.34.79-2.12.56-4.12.86-5.87,1.16-1.75.33-3.27.53-4.54.63-2.52.26-3.96.41-3.96.41Z"/><path class="cls-2" d="m355.5,112.38v6.43h-13.59v-4.22c-4.24,3.22-8.3,4.83-12.18,4.83-2.46,0-4.5-.54-6.11-1.62-1.61-1.08-2.68-2.47-3.22-4.19-.53-1.71-.8-4.47-.8-8.28v-16.94h-5.21v-6.43h12.44v22.45c0,2.72.08,4.54.23,5.48.15.94.6,1.71,1.33,2.32.74.61,1.66.91,2.78.91,3.35,0,6.93-1.6,10.73-4.79v-19.94h-6.51v-6.43h13.74v30.41h6.36Z"/><path class="cls-2" d="m365.39,112.38v-23.98h-7.42v-6.43h13.21v8.3c.81-2.16,1.94-3.94,3.39-5.37,1.45-1.42,2.97-2.36,4.59-2.82,1.61-.46,3.81-.69,6.6-.69h1.9v7.31h-1.45c-3.68,0-6.43.37-8.24,1.1-1.81.74-3.16,2.07-4.03,4.01-.88,1.94-1.31,5.42-1.31,10.45v8.11h8.03v6.43h-22.68v-6.43h7.42Z"/><path class="cls-2" d="m388.61,100.39c0-5.68,1.88-10.35,5.63-13.99,3.75-3.64,8.33-5.46,13.74-5.46s9.86,1.8,13.66,5.39c3.81,3.59,5.71,8.28,5.71,14.06s-1.9,10.48-5.69,14.08c-3.79,3.6-8.35,5.4-13.68,5.4s-10.08-1.83-13.8-5.48c-3.72-3.65-5.58-8.32-5.58-14.01Zm7.65-.02c0,3.64,1.14,6.62,3.41,8.94,2.27,2.32,5.04,3.49,8.32,3.49s6.11-1.17,8.35-3.52c2.25-2.35,3.37-5.32,3.37-8.9s-1.14-6.58-3.43-8.92c-2.28-2.34-5.05-3.5-8.3-3.5s-6.2,1.19-8.41,3.58c-2.21,2.39-3.31,5.34-3.31,8.84Z"/><path class="cls-1" d="m478.92,97.27l6.89,3.84c-1.55,5.89-4.68,10.45-9.38,13.68-4.71,3.24-10.12,4.85-16.23,4.85-8.02,0-14.45-2.6-19.3-7.8-4.85-5.2-7.27-11.63-7.27-19.3,0-8.4,2.44-15.08,7.31-20.06,4.87-4.97,11.23-7.46,19.07-7.46,6.93,0,12.75,1.89,17.47,5.67v-4.83h6.85v17.01h-6.85c-1.52-3.45-3.87-6.12-7.04-8.01-3.17-1.89-6.51-2.84-10.01-2.84-5.28,0-9.61,1.9-13,5.71-3.39,3.81-5.08,8.61-5.08,14.42s1.81,10.83,5.44,14.61c3.63,3.78,7.93,5.67,12.9,5.67,4.08,0,7.8-1.31,11.15-3.94,3.35-2.63,5.71-6.37,7.08-11.25Z"/><path class="cls-1" d="m529.91,112.38v6.43h-12.64v-4.49c-3.5,3.4-7.41,5.1-11.72,5.1-3.35,0-6.26-1.09-8.73-3.27-2.47-2.18-3.71-4.97-3.71-8.37s1.31-6.27,3.94-8.52c2.63-2.26,5.79-3.39,9.5-3.39,3.45,0,6.79,1.04,10.01,3.12v-3.65c0-1.88-.18-3.32-.53-4.34-.36-1.01-1.19-1.93-2.49-2.74-1.31-.81-3.01-1.22-5.12-1.22-3.63,0-6.25,1.45-7.88,4.34l-6.93-1.83c3.07-5.73,8.37-8.6,15.91-8.6,2.77,0,5.16.37,7.17,1.12,2.02.75,3.52,1.71,4.51,2.89.99,1.18,1.66,2.46,2,3.83.34,1.37.51,3.55.51,6.55v17.05h6.2Zm-13.36-7.27c-3.12-2.44-6.28-3.65-9.48-3.65-2,0-3.68.58-5.02,1.75-1.35,1.17-2.02,2.68-2.02,4.53,0,1.73.59,3.17,1.77,4.34,1.18,1.17,2.78,1.75,4.81,1.75,3.5,0,6.81-1.47,9.93-4.41v-4.3Z"/><path class="cls-1" d="m538.17,128.89v-40.49h-6.2v-6.43h13.43v5.78c3.6-4.24,7.97-6.36,13.09-6.36s9.46,1.78,12.84,5.33c3.39,3.55,5.08,8.17,5.08,13.85,0,5.96-1.84,10.67-5.52,14.12-3.68,3.45-7.87,5.18-12.56,5.18s-9.19-1.88-12.94-5.63v14.65h7.15v6.43h-21.12v-6.43h6.74Zm7.12-27.97c0,2.03.42,3.97,1.26,5.82.84,1.85,2.17,3.41,4,4.66,1.83,1.26,3.97,1.88,6.43,1.88,3.45,0,6.3-1.15,8.54-3.46,2.25-2.31,3.37-5.48,3.37-9.51s-1.17-7-3.52-9.21c-2.35-2.21-5.02-3.31-8.01-3.31-3.2,0-6.01,1.2-8.43,3.6-2.42,2.4-3.63,5.58-3.63,9.53Z"/><path class="cls-1" d="m587.88,112.38v-23.98h-5.71v-6.43h12.94v30.41h5.71v6.43h-18.65v-6.43h5.71Zm-1.03-42.93c0-1.17.41-2.18,1.24-3.04.82-.86,1.87-1.29,3.14-1.29,1.19,0,2.22.42,3.08,1.26.86.84,1.29,1.86,1.29,3.08s-.43,2.25-1.29,3.1c-.86.85-1.89,1.27-3.08,1.27s-2.25-.43-3.1-1.29c-.85-.86-1.27-1.89-1.27-3.08Z"/><path class="cls-1" d="m604.74,88.4v-6.43h4.8v-5.67l7.23-6.62v12.29h6.81v6.43h-6.81v17.89c0,2.87.16,4.64.48,5.31.32.67,1.11,1.01,2.38,1.01,1.34,0,2.66-.25,3.96-.76v6.58c-1.85.66-3.7.99-5.56.99-2.21,0-4-.49-5.37-1.47-1.37-.98-2.23-2.2-2.59-3.67-.36-1.47-.53-4.01-.53-7.61v-18.27h-4.8Z"/><path class="cls-1" d="m666.28,112.38v6.43h-12.64v-4.49c-3.5,3.4-7.41,5.1-11.72,5.1-3.35,0-6.26-1.09-8.73-3.27-2.47-2.18-3.71-4.97-3.71-8.37s1.31-6.27,3.94-8.52c2.63-2.26,5.79-3.39,9.5-3.39,3.45,0,6.79,1.04,10.01,3.12v-3.65c0-1.88-.18-3.32-.53-4.34-.36-1.01-1.19-1.93-2.49-2.74-1.31-.81-3.01-1.22-5.12-1.22-3.63,0-6.25,1.45-7.88,4.34l-6.93-1.83c3.07-5.73,8.37-8.6,15.91-8.6,2.77,0,5.16.37,7.17,1.12,2.02.75,3.52,1.71,4.51,2.89.99,1.18,1.66,2.46,2,3.83.34,1.37.51,3.55.51,6.55v17.05h6.2Zm-13.36-7.27c-3.12-2.44-6.28-3.65-9.48-3.65-2,0-3.68.58-5.02,1.75-1.35,1.17-2.02,2.68-2.02,4.53,0,1.73.59,3.17,1.77,4.34,1.18,1.17,2.78,1.75,4.81,1.75,3.5,0,6.81-1.47,9.93-4.41v-4.3Z"/><path class="cls-1" d="m675.37,112.38v-40.07h-6.55v-6.43h13.78v46.51h5.63v6.43h-19.41v-6.43h6.55Z"/><path class="cls-2" d="m308.35,117.09c-.16.66-.63,1.11-1.39,1.36-.77.25-1.37.37-1.81.37h-35.38c-1.37,0-2.05-.71-2.05-2.13,0-.87.85-1.59,2.54-2.13,1.7-.55,2.54-1.64,2.54-3.28v-41.79c0-1.53-.85-2.57-2.54-3.12-1.7-.55-2.54-1.31-2.54-2.3,0-1.42.68-2.13,2.05-2.13h33.58c1.37,0,2.38.4,3.04,1.19.66.79,1.29,1.88,1.89,3.24.38.77.68,1.53.9,2.3.22.77.4,3.66.31,4.06-.1.48-.27.78-.35,1.08s-.19.59-.33.86c-.14.27-.32.47-.53.57-.22.11-.52.03-.9-.25-.49-.33-1.05-.7-1.68-1.11-.63-.41-1.25-.81-1.85-1.19-.6-.38-1.15-.74-1.64-1.07-.49-.33-.85-.57-1.07-.74-.71-.44-1.93-.77-3.65-.99-1.72-.22-3.85-.33-6.36-.33-1.97,0-3.34.26-4.11.78-.77.52-1.15,1.27-1.15,2.26v8.04c0,.55.11.97.33,1.27.22.3.51.52.86.66.36.14.73.22,1.11.25.38.03.74.04,1.07.04s.74-.01,1.23-.04c.49-.03,1.01-.07,1.56-.12.55-.05,1.08-.1,1.6-.12.52-.03.94-.04,1.27-.04,1.48,0,2.69.26,3.65.78.96.52,1.44,1.46,1.44,2.83s-.48,2.3-1.44,2.79c-.96.49-2.29.74-3.98.74-.77,0-1.64-.05-2.63-.16-.99-.11-1.89-.16-2.71-.16-.77,0-1.52.16-2.26.49-.74.33-1.11,1.01-1.11,2.05v16.66c0,1.26.19,2.05.57,2.38.38.33,1.23.52,2.54.57.66.06,1.61.08,2.87.08h3.82c1.29,0,2.46-.01,3.53-.04,1.07-.03,1.77-.04,2.09-.04.44.27,1.09.11,1.97-.49.87-.6,1.79-1.33,2.75-2.18.96-.85,1.83-1.64,2.63-2.38.79-.74,1.33-1.11,1.6-1.11.6,0,1.11.15,1.52.45.41.3.62.75.62,1.35,0,.38-.16,2.32-.49,3.16-.33.85-.71,1.72-1.15,2.63-.44.9-.88,1.75-1.31,2.55-.44.79-.79,1.33-1.07,1.6Z"/><path class="cls-3" d="m351.26,144.38c-.71-1.19-1.62-1.8-3.07-1.8-1.52,0-3.19,1.04-3.19,2.71,0,1.49,1.47,2.28,2.66,2.74l1.37.53c2.71,1.06,4.74,2.56,4.74,5.75,0,3.47-2.69,5.95-6.1,5.95-3.09,0-5.5-2.28-5.9-5.35l2.41-.51c-.03,2.1,1.65,3.62,3.7,3.62s3.52-1.72,3.52-3.72-1.65-2.94-3.29-3.62l-1.32-.56c-2.18-.94-4.15-2.18-4.15-4.84,0-3.09,2.74-4.94,5.62-4.94,2.13,0,3.88,1.04,4.91,2.89l-1.9,1.14Z"/><path class="cls-3" d="m360.02,154.31c.03,2.03,1.39,3.93,3.57,3.93,1.75,0,2.69-.89,3.55-2.3l1.93,1.09c-1.11,2.05-3.19,3.24-5.5,3.24-3.62,0-5.83-2.74-5.83-6.23s1.95-6.38,5.78-6.38,5.55,2.79,5.55,6.31v.35h-9.04Zm6.76-1.72c-.28-1.77-1.44-2.96-3.27-2.96s-3.09,1.27-3.37,2.96h6.64Z"/><path class="cls-3" d="m375.98,149.92h.08c.56-1.39,1.72-2.28,3.24-2.28.66,0,1.32.23,1.87.58l-1.04,2.08c-.41-.35-.86-.48-1.39-.48-2.46,0-2.76,2.28-2.76,4.2v5.83h-2.28v-11.86h2.28v1.92Z"/><path class="cls-3" d="m390.04,155.4l3.42-7.4h2.56l-5.98,12.26-5.95-12.26h2.56l3.39,7.4Z"/><path class="cls-3" d="m403.01,142.58c0,.86-.71,1.55-1.57,1.55s-1.57-.68-1.57-1.55.71-1.6,1.57-1.6,1.57.71,1.57,1.6Zm-.43,17.28h-2.28v-11.86h2.28v11.86Z"/><path class="cls-3" d="m417.48,151.37c-.91-1.04-2.03-1.6-3.39-1.6-2.23,0-3.95,1.98-3.95,4.15,0,2.43,1.7,4.2,4.1,4.2,1.32,0,2.38-.61,3.24-1.57v2.91c-1.04.56-2.08.79-3.27.79-3.5,0-6.36-2.69-6.36-6.23s2.84-6.38,6.49-6.38c1.06,0,2.23.25,3.14.79v2.94Z"/><path class="cls-3" d="m425.69,142.58c0,.86-.71,1.55-1.57,1.55s-1.57-.68-1.57-1.55.71-1.6,1.57-1.6,1.57.71,1.57,1.6Zm-.43,17.28h-2.28v-11.86h2.28v11.86Z"/><path class="cls-3" d="m443.04,153.95c0,3.57-2.79,6.31-6.33,6.31s-6.33-2.74-6.33-6.31,2.79-6.31,6.33-6.31,6.33,2.74,6.33,6.31Zm-10.39,0c0,2.23,1.8,4.13,4.05,4.13s4.05-1.9,4.05-4.13-1.8-4.13-4.05-4.13-4.05,1.87-4.05,4.13Z"/><path class="cls-3" d="m452.41,150.71c-.28-.58-.86-1.04-1.52-1.04s-1.24.51-1.24,1.17c0,1.04,1.37,1.5,2.76,2.13,1.39.63,2.74,1.49,2.74,3.37,0,2.25-1.87,3.93-4.08,3.93-1.72,0-3.47-.99-4.1-2.66l1.95-.89c.48.89,1.06,1.52,2.15,1.52.96,0,1.8-.66,1.8-1.67,0-.63-.3-.94-.84-1.29l-2.23-1.19c-1.32-.71-2.28-1.37-2.28-2.99,0-1.93,1.57-3.45,3.5-3.45,1.44,0,2.61.79,3.24,2.08l-1.85.99Z"/><path class="cls-3" d="m472.38,142.93v5.37h6.64v2.18h-6.64v9.37h-2.38v-19.1h9.25v2.18h-6.86Z"/><path class="cls-3" d="m487.53,142.58c0,.86-.71,1.55-1.57,1.55s-1.57-.68-1.57-1.55.71-1.6,1.57-1.6,1.57.71,1.57,1.6Zm-.43,17.28h-2.28v-11.86h2.28v11.86Z"/><path class="cls-3" d="m495.56,149.6h.05c.71-1.27,2.13-1.95,3.57-1.95,3.34,0,4.2,2.25,4.2,5.14v7.07h-2.28v-6.79c0-2.03-.28-3.4-2.61-3.4-2.94,0-2.94,2.58-2.94,4.74v5.45h-2.28v-11.86h2.28v1.6Z"/><path class="cls-3" d="m520.18,159.86h-2.28v-1.85h-.05c-.91,1.34-2.33,2.25-4.03,2.25-3.62,0-5.68-3.01-5.68-6.41s2.15-6.21,5.6-6.21c1.75,0,3.17.91,4.1,2.33h.05v-1.98h2.28v11.86Zm-2.15-5.93c0-2.3-1.39-4.26-3.85-4.26s-3.75,2.05-3.75,4.26,1.34,4.31,3.75,4.31,3.85-1.98,3.85-4.31Z"/><path class="cls-3" d="m527.96,149.6h.05c.71-1.27,2.13-1.95,3.57-1.95,3.34,0,4.2,2.25,4.2,5.14v7.07h-2.28v-6.79c0-2.03-.28-3.4-2.61-3.4-2.94,0-2.94,2.58-2.94,4.74v5.45h-2.28v-11.86h2.28v1.6Z"/><path class="cls-3" d="m550.17,151.37c-.91-1.04-2.03-1.6-3.39-1.6-2.23,0-3.95,1.98-3.95,4.15,0,2.43,1.7,4.2,4.1,4.2,1.32,0,2.38-.61,3.24-1.57v2.91c-1.04.56-2.08.79-3.27.79-3.5,0-6.36-2.69-6.36-6.23s2.84-6.38,6.49-6.38c1.06,0,2.23.25,3.14.79v2.94Z"/><path class="cls-3" d="m558.38,142.58c0,.86-.71,1.55-1.57,1.55s-1.57-.68-1.57-1.55.71-1.6,1.57-1.6,1.57.71,1.57,1.6Zm-.43,17.28h-2.28v-11.86h2.28v11.86Z"/><path class="cls-3" d="m565.5,154.31c.03,2.03,1.39,3.93,3.57,3.93,1.75,0,2.69-.89,3.55-2.3l1.93,1.09c-1.11,2.05-3.19,3.24-5.5,3.24-3.62,0-5.83-2.74-5.83-6.23s1.95-6.38,5.78-6.38,5.55,2.79,5.55,6.31v.35h-9.04Zm6.76-1.72c-.28-1.77-1.44-2.96-3.27-2.96s-3.09,1.27-3.37,2.96h6.64Z"/><path class="cls-3" d="m581.46,149.92h.08c.56-1.39,1.72-2.28,3.24-2.28.66,0,1.32.23,1.87.58l-1.04,2.08c-.4-.35-.86-.48-1.39-.48-2.46,0-2.76,2.28-2.76,4.2v5.83h-2.28v-11.86h2.28v1.92Z"/><path class="cls-3" d="m602.06,153.95c0,3.57-2.79,6.31-6.33,6.31s-6.33-2.74-6.33-6.31,2.79-6.31,6.33-6.31,6.33,2.74,6.33,6.31Zm-10.39,0c0,2.23,1.8,4.13,4.05,4.13s4.05-1.9,4.05-4.13-1.8-4.13-4.05-4.13-4.05,1.87-4.05,4.13Z"/><path class="cls-3" d="m611.43,150.71c-.28-.58-.86-1.04-1.52-1.04s-1.24.51-1.24,1.17c0,1.04,1.37,1.5,2.76,2.13,1.39.63,2.74,1.49,2.74,3.37,0,2.25-1.87,3.93-4.08,3.93-1.72,0-3.47-.99-4.1-2.66l1.95-.89c.48.89,1.06,1.52,2.15,1.52.96,0,1.8-.66,1.8-1.67,0-.63-.3-.94-.84-1.29l-2.23-1.19c-1.32-.71-2.28-1.37-2.28-2.99,0-1.93,1.57-3.45,3.5-3.45,1.44,0,2.61.79,3.24,2.08l-1.85.99Z"/></svg>