<?xml version="1.0" encoding="UTF-8"?><svg id="Capa_3" xmlns="http://www.w3.org/2000/svg" viewBox="0 0 636.13 297.97"><defs><style>.cls-1{fill:#0077d0;}.cls-1,.cls-2,.cls-3{stroke-width:0px;}.cls-2{fill:#a7bac3;}.cls-3{fill:#415364;}</style></defs><path class="cls-3" d="m205.28,206.77h8.77v1.95h-7.02v6.24h7.02v1.95h-7.02v9.77h-1.75v-19.91Z"/><path class="cls-3" d="m483.25,206.73h8.77v1.95h-7.02v6.24h7.02v1.95h-7.02v9.77h-1.75v-19.91Z"/><path class="cls-3" d="m231.71,214.46v11.91h-1.48v-2.05c-.62.78-1.33,1.37-2.11,1.76-.78.39-1.63.59-2.56.59-1.64,0-3.05-.61-4.22-1.83-1.17-1.22-1.75-2.71-1.75-4.46s.59-3.18,1.76-4.4c1.18-1.22,2.59-1.83,4.24-1.83.96,0,1.82.21,2.59.62.77.42,1.45,1.04,2.03,1.87v-2.19h1.48Zm-5.98,1.17c-.83,0-1.6.21-2.31.63-.7.42-1.27,1.01-1.68,1.76-.42.76-.62,1.56-.62,2.41s.21,1.64.63,2.4c.42.77.98,1.36,1.69,1.79.71.43,1.47.64,2.28.64s1.59-.21,2.33-.63c.73-.42,1.29-1,1.69-1.72.39-.72.59-1.53.59-2.44,0-1.38-.44-2.53-1.33-3.46-.89-.93-1.98-1.39-3.27-1.39Z"/><path class="cls-3" d="m426.19,215.85l.04,1.91c-.13-.17-.26-.33-.4-.48-.98-1.05-2.24-1.56-3.8-1.56-1.42,0-2.6.46-3.53,1.37-.94.91-1.4,2.02-1.4,3.32,0,.85.22,1.65.65,2.39.43.75,1.02,1.33,1.77,1.74.75.41,1.6.62,2.53.62,1.71,0,3.11-.68,4.19-2.04v2c-.38.34-.77.59-1.06.73-.94.46-2.01.69-3.2.69-1.84,0-3.37-.59-4.58-1.76-1.21-1.17-1.82-2.59-1.82-4.27,0-1.13.28-2.17.85-3.14.56-.96,1.34-1.72,2.34-2.26.99-.54,2.1-.82,3.33-.82.77,0,1.51.12,2.23.35.72.24,1.55.71,1.87,1.2Z"/><path class="cls-3" d="m247.44,215.85l.04,1.91c-.13-.17-.26-.33-.4-.48-.98-1.04-2.25-1.56-3.8-1.56-1.42,0-2.6.46-3.53,1.37-.94.91-1.41,2.02-1.41,3.32,0,.85.22,1.64.65,2.39.43.75,1.02,1.33,1.78,1.74.75.41,1.59.62,2.52.62,1.71,0,3.11-.68,4.19-2.04v2c-.37.34-.77.59-1.06.73-.94.46-2,.69-3.2.69-1.84,0-3.37-.59-4.58-1.76-1.21-1.17-1.82-2.59-1.82-4.27,0-1.13.28-2.17.85-3.14.57-.96,1.35-1.72,2.34-2.26.99-.54,2.1-.82,3.33-.82.77,0,1.51.12,2.23.35.72.24,1.55.71,1.87,1.2Z"/><path class="cls-3" d="m535.67,214.34v11.92h-1.5v-2.05c-.64.78-1.35,1.37-2.14,1.76-.79.39-1.66.59-2.6.59-1.67,0-3.1-.61-4.28-1.83-1.18-1.22-1.77-2.71-1.77-4.46s.59-3.18,1.79-4.4c1.19-1.22,2.63-1.83,4.31-1.83.97,0,1.85.21,2.64.62.79.42,1.48,1.04,2.07,1.87v-2.19h1.5Zm-6.08,1.17c-.84,0-1.63.21-2.34.63-.72.42-1.29,1.01-1.71,1.77-.43.76-.63,1.56-.63,2.41s.21,1.64.64,2.41c.43.77,1,1.36,1.72,1.79.72.43,1.49.64,2.31.64s1.62-.21,2.36-.64c.75-.42,1.32-.99,1.72-1.72.4-.72.6-1.53.6-2.44,0-1.38-.45-2.53-1.35-3.46-.9-.93-2.01-1.39-3.32-1.39Z"/><path class="cls-3" d="m568.19,215.96l.04,1.91c-.13-.17-.26-.33-.4-.48-.98-1.04-2.25-1.56-3.8-1.56-1.42,0-2.59.45-3.53,1.37-.94.91-1.41,2.02-1.41,3.32,0,.85.22,1.65.65,2.39.43.75,1.02,1.33,1.77,1.74.75.42,1.6.62,2.53.62,1.71,0,3.11-.68,4.19-2.04v2c-.38.34-.77.59-1.05.73-.94.46-2.01.69-3.2.69-1.84,0-3.37-.58-4.58-1.75-1.21-1.17-1.82-2.59-1.82-4.27,0-1.13.28-2.17.85-3.14.57-.97,1.35-1.72,2.34-2.26.99-.54,2.1-.81,3.33-.81.77,0,1.52.12,2.23.36.71.24,1.55.71,1.87,1.19Z"/><path class="cls-3" d="m253.64,209.79h1.67v4.49h2.64v1.35h-2.64v10.76h-1.67v-10.76h-2.27v-1.35h2.27v-4.49Z"/><path class="cls-3" d="m267.69,213.95c1.86,0,3.41.68,4.63,2.06,1.11,1.25,1.67,2.74,1.67,4.45s-.59,3.22-1.76,4.51c-1.18,1.29-2.68,1.93-4.53,1.93s-3.37-.64-4.54-1.93c-1.18-1.29-1.76-2.79-1.76-4.51s.56-3.18,1.67-4.43c1.22-1.38,2.77-2.07,4.64-2.07Zm0,1.55c-1.29,0-2.4.49-3.33,1.46-.93.97-1.39,2.15-1.39,3.53,0,.89.21,1.72.64,2.49.42.77.99,1.36,1.72,1.78.72.42,1.51.63,2.37.63s1.65-.21,2.37-.63c.72-.42,1.29-1.01,1.72-1.78.42-.77.63-1.6.63-2.49,0-1.38-.47-2.56-1.4-3.53-.93-.98-2.04-1.46-3.33-1.46Z"/><path class="cls-3" d="m446.98,213.82c1.86,0,3.4.69,4.63,2.06,1.11,1.25,1.67,2.74,1.67,4.45s-.59,3.22-1.76,4.51c-1.18,1.29-2.69,1.93-4.53,1.93s-3.37-.64-4.54-1.93c-1.17-1.29-1.76-2.79-1.76-4.51s.56-3.18,1.67-4.43c1.22-1.38,2.77-2.07,4.64-2.07Zm0,1.55c-1.29,0-2.4.49-3.33,1.46-.93.97-1.39,2.15-1.39,3.53,0,.89.21,1.72.63,2.49.42.77.99,1.36,1.72,1.78.72.42,1.51.63,2.37.63s1.65-.21,2.37-.63c.72-.42,1.29-1.01,1.71-1.78.42-.77.64-1.6.64-2.49,0-1.38-.47-2.56-1.4-3.53-.93-.97-2.04-1.46-3.32-1.46Z"/><path class="cls-3" d="m280.02,214.29h1.7v1.77c.51-.7,1.04-1.22,1.61-1.56.56-.35,1.15-.52,1.76-.52.46,0,.95.14,1.48.41l-.87,1.31c-.35-.14-.64-.21-.88-.21-.55,0-1.09.21-1.61.64-.52.43-.91,1.09-1.18,1.99-.21.69-.31,2.09-.31,4.18v4.1h-1.7v-12.11Z"/><path class="cls-3" d="m380.01,214.52h1.7v1.77c.51-.7,1.04-1.22,1.61-1.56.56-.35,1.15-.52,1.76-.52.46,0,.95.14,1.47.41l-.87,1.31c-.35-.14-.64-.21-.88-.21-.56,0-1.09.21-1.61.64-.52.43-.91,1.09-1.18,1.99-.21.69-.31,2.09-.31,4.19v4.1h-1.7v-12.11Z"/><path class="cls-3" d="m616.62,213.91c1.86,0,3.4.69,4.62,2.06,1.11,1.25,1.67,2.73,1.67,4.44s-.59,3.22-1.76,4.51c-1.18,1.28-2.68,1.93-4.53,1.93s-3.37-.65-4.54-1.93c-1.18-1.29-1.76-2.79-1.76-4.51s.55-3.18,1.67-4.43c1.22-1.38,2.77-2.07,4.64-2.07Zm0,1.55c-1.29,0-2.4.49-3.33,1.46-.93.97-1.39,2.15-1.39,3.53,0,.89.21,1.72.64,2.49.42.77.99,1.36,1.72,1.78.72.42,1.51.63,2.37.63s1.65-.21,2.37-.63c.72-.42,1.29-1.01,1.72-1.78.42-.77.64-1.6.64-2.49,0-1.38-.47-2.56-1.4-3.53-.93-.97-2.04-1.46-3.32-1.46Z"/><path class="cls-3" d="m599.87,214.48h1.7v1.77c.51-.7,1.04-1.22,1.61-1.56.56-.35,1.15-.52,1.76-.52.46,0,.95.14,1.48.41l-.87,1.31c-.35-.14-.64-.21-.88-.21-.56,0-1.09.21-1.61.64-.52.43-.91,1.09-1.18,1.99-.21.69-.31,2.09-.31,4.18v4.1h-1.7v-12.11Z"/><path class="cls-3" d="m292.76,208.12c.38,0,.7.14.97.4.27.27.41.6.41.98s-.13.69-.41.96c-.27.27-.59.4-.97.4s-.69-.14-.96-.4c-.27-.27-.4-.59-.4-.96s.13-.71.4-.98.59-.4.96-.4Zm-.83,6.09h1.67v12.19h-1.67v-12.19Z"/><path class="cls-3" d="m408.69,208.37c.38,0,.7.13.97.4.27.27.4.6.4.97s-.14.7-.4.96c-.27.27-.59.4-.97.4s-.69-.13-.96-.4c-.27-.27-.4-.59-.4-.96s.13-.7.4-.97c.27-.27.59-.4.96-.4Zm-.83,6.09h1.67v12.19h-1.67v-12.19Z"/><path class="cls-3" d="m433.44,208.13c.38,0,.7.13.97.41.27.27.4.59.4.97s-.13.69-.4.96c-.27.27-.59.4-.97.4s-.69-.13-.96-.4-.4-.59-.4-.96.13-.71.4-.97c.27-.27.59-.41.96-.41Zm-.82,6.09h1.66v12.19h-1.66v-12.19Z"/><path class="cls-3" d="m499.71,208.13c.38,0,.7.13.97.41.27.27.4.59.4.97s-.13.69-.4.96-.59.4-.97.4-.69-.13-.96-.4c-.27-.27-.4-.59-.4-.96s.13-.71.4-.97c.27-.27.59-.41.96-.41Zm-.82,6.09h1.67v12.19h-1.67v-12.19Z"/><path class="cls-3" d="m575.39,208.25c.38,0,.7.14.97.41.27.27.4.6.4.98s-.13.7-.4.96c-.27.27-.59.41-.97.41s-.69-.13-.96-.41c-.27-.27-.4-.59-.4-.96s.13-.71.4-.98c.27-.27.59-.41.96-.41Zm-.83,6.09h1.67v12.19h-1.67v-12.19Z"/><path class="cls-3" d="m301.26,214.25h1.4v2.18c.56-.83,1.18-1.46,1.86-1.87.68-.41,1.42-.62,2.22-.62s1.54.23,2.17.69c.63.46,1.09,1.08,1.4,1.87.3.78.45,2,.45,3.65v6.25h-1.4v-5.8c0-1.4-.05-2.33-.16-2.8-.16-.8-.47-1.41-.93-1.81-.46-.41-1.06-.61-1.8-.61-.85,0-1.61.31-2.28.94-.67.62-1.12,1.4-1.33,2.32-.13.6-.2,1.71-.2,3.31v4.45h-1.4v-12.15Z"/><path class="cls-3" d="m508.18,214.37h1.4v2.18c.56-.83,1.18-1.46,1.86-1.87.68-.41,1.42-.62,2.22-.62s1.54.23,2.17.69c.63.46,1.09,1.08,1.4,1.87.3.78.45,2,.45,3.65v6.25h-1.4v-5.79c0-1.4-.05-2.33-.16-2.8-.16-.8-.47-1.41-.93-1.81-.46-.41-1.06-.61-1.8-.61-.85,0-1.61.31-2.28.94-.67.62-1.11,1.4-1.33,2.32-.13.6-.2,1.7-.2,3.31v4.45h-1.4v-12.15Z"/><path class="cls-3" d="m542.7,214.37h1.4v2.18c.56-.83,1.18-1.46,1.86-1.87.68-.41,1.42-.62,2.22-.62s1.54.23,2.17.69c.63.46,1.1,1.08,1.4,1.87.3.78.45,2,.45,3.65v6.25h-1.4v-5.79c0-1.4-.05-2.33-.16-2.8-.16-.8-.47-1.41-.93-1.81-.46-.41-1.06-.61-1.8-.61-.85,0-1.61.31-2.28.94-.67.62-1.11,1.4-1.33,2.32-.13.6-.2,1.7-.2,3.31v4.45h-1.4v-12.15Z"/><path class="cls-3" d="m327.11,214.29h1.53v10.81c0,1.9-.14,3.3-.44,4.18-.4,1.25-1.1,2.21-2.09,2.88-.99.67-2.18,1.01-3.58,1.01-1.02,0-1.94-.16-2.75-.49-.82-.33-1.48-.77-1.99-1.33-.51-.55-1.34-1.92-1.46-3.64l1.76-.02c.05,1.42.98,2.79,1.7,3.22.72.43,1.6.65,2.66.65,3.16-.01,3.43-1.64,3.79-2.4.44-.92.34-4.25.34-4.25-.68,1.48-3.2,1.99-4.16,1.99-5.21,0-6.2-4.68-6.2-5.94s.27-2.43.82-3.51c.55-1.09,1.3-1.94,2.27-2.57.97-.63,1.99-.95,3.06-.95.89,0,1.72.21,2.5.63.77.42,1.51,1.11,2.23,2.08v-2.36Zm-4.61,1.33c-.81,0-1.57.22-2.27.66-.7.44-1.24,1.05-1.64,1.82-.39.78-.59,1.61-.59,2.52,0,1.37.41,2.5,1.23,3.39.82.89,1.88,1.34,3.19,1.34s2.38-.44,3.18-1.33c.8-.89,1.2-2.05,1.2-3.49,0-.94-.18-1.78-.55-2.51-.37-.74-.89-1.32-1.57-1.75-.68-.43-1.41-.64-2.18-.64Z"/><path class="cls-3" d="m345.58,222.55l1.72-1c1.27,2.05,2.71,3.05,4.31,3.02.69-.01,1.33-.18,1.92-.48.6-.31,1.05-.71,1.35-1.21.3-.5.45-1.03.44-1.58-.02-.63-.26-1.25-.74-1.84-.66-.82-1.85-1.8-3.57-2.94-1.73-1.15-2.81-1.98-3.24-2.5-.74-.87-1.13-1.82-1.15-2.85-.02-.82.18-1.57.59-2.26.41-.68,1-1.23,1.77-1.63.77-.4,1.6-.62,2.51-.64.96-.02,1.87.18,2.72.6.85.42,1.76,1.21,2.72,2.36l-1.64,1.2c-.79-.92-1.46-1.53-2.01-1.81-.55-.29-1.14-.42-1.78-.41-.83.02-1.5.26-2.01.73-.52.47-.76,1.05-.75,1.72,0,.41.11.8.3,1.18.2.38.54.79,1.04,1.23.27.23,1.17.84,2.69,1.82,1.8,1.16,3.03,2.21,3.71,3.13.68.92,1.03,1.86,1.05,2.8.03,1.37-.51,2.56-1.61,3.59-1.1,1.03-2.47,1.57-4.08,1.6-1.24.03-2.38-.25-3.4-.84-1.03-.59-1.98-1.59-2.86-3Z"/><path class="cls-3" d="m458.4,224.18l1.07-.62c.79,1.28,1.69,1.9,2.69,1.88.43,0,.82-.11,1.2-.3.37-.19.65-.44.84-.76.19-.31.28-.64.27-.99,0-.39-.16-.78-.46-1.15-.41-.51-1.15-1.12-2.23-1.83-1.08-.72-1.75-1.23-2.02-1.56-.46-.54-.7-1.14-.72-1.78-.01-.51.11-.98.37-1.4.25-.43.62-.76,1.1-1.02.48-.25,1-.39,1.56-.4.6-.02,1.16.11,1.7.37.53.26,1.09.75,1.69,1.47l-1.03.75c-.49-.57-.91-.95-1.25-1.13-.34-.18-.71-.26-1.11-.25-.51.01-.93.17-1.25.46-.32.29-.47.65-.46,1.07,0,.25.07.5.19.73.12.24.34.49.65.77.17.15.73.52,1.67,1.14,1.12.72,1.89,1.38,2.32,1.95.42.58.64,1.16.65,1.75.02.85-.32,1.6-1,2.24-.69.64-1.54.98-2.54,1-.77.02-1.48-.16-2.12-.52-.64-.36-1.23-.99-1.78-1.87Z"/><path class="cls-3" d="m372.55,222.33l1.23.69c-.41.84-.87,1.53-1.4,2.04-.53.52-1.12.91-1.79,1.19-.66.27-1.41.4-2.25.4-1.86,0-3.3-.64-4.35-1.94-1.04-1.29-1.57-2.76-1.57-4.39,0-1.53.44-2.9,1.33-4.1,1.12-1.53,2.62-2.29,4.5-2.29s3.48.78,4.64,2.35c.82,1.1,1.24,2.48,1.26,4.13h-10.23c.03,1.4.45,2.56,1.27,3.46.81.9,1.82,1.35,3.02,1.35.58,0,1.14-.11,1.69-.32.55-.21,1.01-.5,1.4-.85.38-.35.8-.93,1.25-1.72Zm0-3.26c-.2-.83-.48-1.49-.85-1.99-.38-.5-.87-.9-1.48-1.2-.61-.3-1.26-.45-1.93-.45-1.12,0-2.07.38-2.88,1.14-.59.56-1.03,1.39-1.33,2.5h8.47Z"/><path class="cls-3" d="m592.65,222.56l1.23.69c-.4.84-.87,1.53-1.4,2.04-.53.52-1.12.91-1.79,1.18-.66.27-1.41.41-2.25.41-1.85,0-3.3-.65-4.35-1.94-1.05-1.3-1.57-2.75-1.57-4.39,0-1.53.44-2.9,1.33-4.1,1.12-1.53,2.62-2.29,4.51-2.29s3.48.78,4.64,2.35c.82,1.1,1.24,2.48,1.26,4.13h-10.23c.03,1.4.45,2.56,1.26,3.45.82.9,1.82,1.35,3.02,1.35.58,0,1.14-.11,1.69-.32.55-.21,1.01-.5,1.4-.85.38-.35.8-.93,1.24-1.72Zm0-3.26c-.2-.83-.48-1.49-.85-1.99-.37-.5-.87-.9-1.48-1.2-.62-.31-1.26-.46-1.94-.46-1.12,0-2.07.38-2.87,1.14-.59.56-1.03,1.39-1.33,2.5h8.47Z"/><path class="cls-3" d="m390.6,214.21h1.67l4.1,9.44,4.05-9.44h1.68l-5.59,12.95h-.29l-5.63-12.95Z"/><path class="cls-3" d="m635.79,215.02l-1.07,1.11c-.89-.87-1.76-1.3-2.61-1.3-.54,0-1.01.18-1.39.53-.39.35-.58.77-.58,1.25,0,.42.16.82.48,1.2.32.39.99.84,2.01,1.37,1.24.64,2.08,1.26,2.53,1.86.44.6.66,1.28.66,2.03,0,1.06-.37,1.96-1.12,2.7-.75.74-1.68,1.11-2.8,1.11-.75,0-1.46-.16-2.14-.49-.68-.32-1.24-.77-1.69-1.34l1.05-1.19c.85.96,1.75,1.44,2.71,1.44.67,0,1.24-.22,1.71-.64.47-.43.7-.93.7-1.51,0-.48-.15-.9-.46-1.27-.31-.36-1.01-.82-2.1-1.38-1.17-.6-1.97-1.2-2.39-1.79-.42-.59-.63-1.26-.63-2.01,0-.98.33-1.8,1.01-2.45.67-.65,1.52-.98,2.54-.98,1.19,0,2.39.58,3.6,1.75Z"/><path class="cls-2" d="m132.27,95.91s32.34,21.63,31.18,65.58c0,0,1.59,40.71-33.96,65.67,0,0-32.61-16.66-35.69-56.79l27.78.19s7.05-.97,7.05-7.81c0,0-.3-7.52-7.53-7.52h-27.78s-1.13-33.55,38.95-59.3Z"/><path class="cls-1" d="m117.44,86.91s-40.09-24.21-86.29,9c0,0-51.8,37.6-21.79,103.48,0,0,13.83,29.28,50.26,40.01,0,0,29.44,8.3,54.49-3.9,0,0-31.88-19.52-35.95-64.9l-12.68-.24s-6.35-.73-6.35-7.48c0,0-.65-5.12,6.1-7.64l12.61.08s-3.58-35.46,39.61-68.4Z"/><path class="cls-2" d="m165.99,194.67s2.77-4.96,8.54-2.52c0,0,4.88,2.52,2.93,7.56,0,0-6.1,13.83-22.45,28.1,0,0-22.08,20.37-53.18,22.2,0,0,46.84-6.87,64.16-55.34Z"/><path class="cls-2" d="m337.82,142.25l9.82,5.48c-2.21,8.4-6.67,14.9-13.37,19.51-6.71,4.61-14.42,6.92-23.13,6.92-11.43,0-20.59-3.71-27.5-11.13-6.91-7.42-10.36-16.59-10.36-27.52,0-11.98,3.47-21.51,10.41-28.61,6.94-7.09,16-10.64,27.17-10.64,9.87,0,18.17,2.7,24.89,8.09v-6.89h9.76v24.26h-9.76c-2.17-4.92-5.52-8.73-10.03-11.43-4.52-2.7-9.27-4.05-14.27-4.05-7.52,0-13.69,2.71-18.52,8.14-4.83,5.43-7.24,12.28-7.24,20.57s2.58,15.45,7.76,20.84c5.17,5.39,11.3,8.09,18.39,8.09,5.82,0,11.12-1.87,15.89-5.62,4.77-3.75,8.14-9.09,10.09-16.04Z"/><path class="cls-2" d="m410.5,163.79v9.18h-18v-6.41c-4.99,4.85-10.56,7.28-16.7,7.28-4.78,0-8.93-1.56-12.45-4.67-3.53-3.11-5.29-7.09-5.29-11.94s1.87-8.94,5.61-12.16c3.74-3.22,8.25-4.83,13.53-4.83,4.91,0,9.67,1.48,14.26,4.45v-5.21c0-2.68-.25-4.74-.76-6.19-.51-1.45-1.69-2.75-3.55-3.91-1.86-1.16-4.29-1.74-7.3-1.74-5.17,0-8.91,2.06-11.23,6.19l-9.87-2.61c4.38-8.18,11.94-12.27,22.67-12.27,3.94,0,7.35.54,10.23,1.6,2.87,1.07,5.02,2.44,6.43,4.13,1.41,1.68,2.36,3.5,2.85,5.46.49,1.95.73,5.07.73,9.34v24.31h8.84Zm-19.03-10.37c-4.45-3.47-8.95-5.21-13.51-5.21-2.86,0-5.24.83-7.16,2.5-1.92,1.66-2.87,3.82-2.87,6.46,0,2.46.84,4.52,2.52,6.19,1.68,1.67,3.97,2.5,6.86,2.5,4.99,0,9.71-2.1,14.16-6.3v-6.13Z"/><path class="cls-2" d="m422.27,187.35v-57.76h-8.84v-9.17h19.14v8.25c5.14-6.04,11.35-9.06,18.66-9.06s13.48,2.53,18.31,7.6c4.83,5.07,7.24,11.65,7.24,19.76,0,8.5-2.62,15.22-7.86,20.14-5.24,4.92-11.21,7.38-17.9,7.38s-13.09-2.67-18.44-8.03v20.9h10.2v9.17h-30.1v-9.17h9.6Zm10.14-39.9c0,2.89.6,5.66,1.79,8.3,1.19,2.64,3.09,4.86,5.69,6.65,2.6,1.79,5.66,2.69,9.17,2.69,4.92,0,8.97-1.65,12.18-4.94,3.2-3.29,4.8-7.82,4.8-13.57s-1.67-9.99-5.02-13.14c-3.35-3.15-7.15-4.72-11.42-4.72-4.56,0-8.56,1.71-12.01,5.13-3.46,3.42-5.18,7.95-5.18,13.6Z"/><path class="cls-2" d="m493.1,163.79v-34.2h-8.14v-9.17h18.44v43.37h8.13v9.18h-26.58v-9.18h8.14Zm-1.46-61.23c0-1.67.59-3.11,1.76-4.34,1.17-1.23,2.67-1.85,4.48-1.85,1.7,0,3.16.6,4.39,1.79,1.23,1.19,1.85,2.66,1.85,4.4s-.62,3.21-1.85,4.42c-1.23,1.21-2.69,1.82-4.39,1.82s-3.21-.62-4.42-1.85c-1.21-1.23-1.82-2.69-1.82-4.39Z"/><path class="cls-2" d="m517.13,129.6v-9.17h6.83v-8.09l10.31-9.45v17.53h9.71v9.17h-9.71v25.51c0,4.09.23,6.61.68,7.58.45.96,1.58,1.44,3.39,1.44,1.92,0,3.8-.36,5.64-1.09v9.39c-2.64.94-5.28,1.41-7.92,1.41-3.15,0-5.7-.7-7.65-2.09-1.95-1.39-3.18-3.14-3.69-5.24-.51-2.1-.76-5.72-.76-10.86v-26.06h-6.83Z"/><path class="cls-2" d="m604.83,163.79v9.18h-18.01v-6.41c-4.99,4.85-10.56,7.28-16.71,7.28-4.77,0-8.92-1.56-12.45-4.67-3.52-3.11-5.29-7.09-5.29-11.94s1.87-8.94,5.62-12.16c3.74-3.22,8.25-4.83,13.53-4.83,4.92,0,9.67,1.48,14.27,4.45v-5.21c0-2.68-.25-4.74-.76-6.19-.51-1.45-1.69-2.75-3.55-3.91-1.86-1.16-4.29-1.74-7.3-1.74-5.17,0-8.91,2.06-11.23,6.19l-9.87-2.61c4.37-8.18,11.93-12.27,22.67-12.27,3.94,0,7.35.54,10.23,1.6,2.87,1.07,5.01,2.44,6.43,4.13,1.41,1.68,2.36,3.5,2.85,5.46.49,1.95.73,5.07.73,9.34v24.31h8.84Zm-19.03-10.37c-4.45-3.47-8.95-5.21-13.51-5.21-2.86,0-5.25.83-7.16,2.5-1.92,1.66-2.87,3.82-2.87,6.46,0,2.46.84,4.52,2.52,6.19,1.68,1.67,3.97,2.5,6.86,2.5,4.99,0,9.71-2.1,14.16-6.3v-6.13Z"/><path class="cls-2" d="m617.79,163.79v-57.16h-9.33v-9.17h19.64v66.33h8.03v9.18h-27.66v-9.18h9.33Z"/><path class="cls-1" d="m207.34,96.27h46.23s3.05.04,4.63,1.93c0,0,7.2,8.3,2.93,16.29,0,0-.98.85-2.13-.37,0,0-8.54-6.83-13.6-6.83l-10.49-.18s-4.95-.19-4.95,4.69l-.06,10.37s.09,3.05,2.44,3.05c0,0,5.55.15,7.59-.33,0,0,9.55-1.95,9.55,4.48,0,0,1.07,7.11-10.95,4.76,0,0-8.51-1.31-8.51,3.11v23.3s-.2,4.01,3.78,4.01h17.65s1.44.3,2.76-1.02l7.81-6.95s3.9-2.77,4.39,2.6c0,0,.24,5.65-5.73,13.42,0,0-.96,1.85-4.43,1.85h-48.67s-3.54-.92-1.95-4.09c0,0,.73-1.42,3.42-1.99,0,0,3.29-1.12,3.29-4.08v-58.1s-.88-3.63-4.21-3.63c0,0-2.91-.97-2.91-3.42,0,0-.26-2.15,2.12-2.87Z"/></svg>