<?xml version="1.0" encoding="UTF-8"?><svg id="Capa_27" xmlns="http://www.w3.org/2000/svg" viewBox="0 0 752.64 331.33"><defs><style>.cls-1{fill:#e4202d;}.cls-1,.cls-2,.cls-3{stroke-width:0px;}.cls-2{fill:#fff;}.cls-3{fill:#1a1413;}</style></defs><path class="cls-1" d="m172.73,42.32s111.78,40.27,197.25,41.1c0,0,101.09-.82,201.36-41.1,0,0-180.81,125.75-398.61,0Z"/><path class="cls-1" d="m394.46,50.55c0,14.08-11.42,25.49-25.49,25.49s-25.49-11.41-25.49-25.49,11.41-25.49,25.49-25.49,25.49,11.41,25.49,25.49Z"/><path class="cls-3" d="m198.61,203.88h-16.4v-78.71h45.79v8.65h-28.77l-.31,25.41h24.95v8.65h-24.95l-.31,36Z"/><path class="cls-3" d="m231.59,203.88l28.41-78.71h8.23l29.63,78.71h-14.18l-5.32-16.17-27.97.34-4.31,15.83h-14.49Zm32.44-66.47c-3.48,9.8-12.89,44.52-12.89,44.52l25.87-.31s-9.42-34.56-12.75-44.22h-.23Z"/><path class="cls-3" d="m320.97,165.26c0,40.09,32.24,30.22,33.58,29.89,1.34-.33,2.54-.7,3.59-1.09v8.47c-2.2.9-4.75,1.6-7.65,2.09-2.9.49-5.88.74-8.93.74-6.21,0-11.72-.91-16.53-2.73-4.8-1.82-8.83-4.44-12.09-7.86-3.26-3.41-5.72-7.58-7.39-12.5-1.68-4.92-2.52-10.5-2.52-16.74s.89-11.75,2.65-16.88c1.77-5.14,4.32-9.55,7.65-13.24,3.33-3.68,7.37-6.56,12.12-8.62,4.74-2.06,10.08-3.09,16-3.09,1.56,0,3.11.07,4.64.21,1.52.14,2.98.33,4.38.59,1.39.26,2.69.56,3.88.91,1.19.36,2.21.73,3.07,1.12v8.47c-2.26-.78-4.73-1.44-7.41-1.97-2.67-.53-29.04-4.04-29.04,32.24Z"/><path class="cls-3" d="m384.16,146c0,7.27,16.87,15.21,19.79,16.11,2.92.9,5.52,2.15,7.8,3.74,2.28,1.59,4.13,3.66,5.54,6.2,1.41,2.55,2.11,5.83,2.11,9.82s-.77,7.6-2.3,10.56c-1.52,2.96-3.63,5.39-6.33,7.3-2.7,1.9-5.9,3.31-9.58,4.24-3.68.92-7.72,1.38-12.09,1.38-2.02,0-4.08-.13-6.19-.38-2.11-.26-4.13-.6-6.05-1.03-1.92-.43-3.65-.92-5.21-1.47-1.55-.55-2.78-1.1-3.67-1.65v-8.77c1.4.71,2.97,1.35,4.71,1.94,1.75.59,3.54,1.09,5.41,1.5,1.86.41,3.74.73,5.64.97,1.9.23,3.68.35,5.35.35,2.71,0,15.7-.4,15.7-14.7,0-7.89-18.66-15.32-21.55-16.21-2.89-.88-15.26-9.56-15.26-19.21,0-3.99.72-7.44,2.17-10.32,1.45-2.88,3.41-5.27,5.87-7.15,2.47-1.88,5.31-3.27,8.53-4.18,3.22-.9,6.65-1.35,10.3-1.35,4.15,0,8.01.4,11.6,1.21,3.58.81,6.87,1.85,9.85,3.15v8.88c-3.22-1.37-6.54-2.49-9.97-3.35-3.43-.86-22.19-3.74-22.19,12.41Z"/><path class="cls-3" d="m463.62,196.82c13.31,0,13.62-5.95,13.62-22.82v-48.83h13.97v48.59c0,1.84-.09,3.76-.26,5.77-.18,2-.46,3.86-.85,5.59-.67,2.9-1.67,5.59-3.01,8.06-1.34,2.47-3.08,4.61-5.23,6.41-2.15,1.8-4.73,3.21-7.74,4.24-3.01,1.02-6.55,1.53-10.6,1.53s-7.28-.47-10.2-1.41c-2.93-.94-5.44-2.24-7.54-3.91-2.09-1.67-3.81-3.65-5.15-5.94-1.34-2.29-2.38-4.79-3.12-7.5-.53-1.96-.91-4.06-1.13-6.29-.23-2.23-.35-4.41-.35-6.53v-48.59h14.09l-.31,48.83c0,14.1,1.54,22.82,13.81,22.82Z"/><path class="cls-3" d="m526.86,171.3v32.59h-13.84v-78.71h19.35c3.27,0,6.05.13,8.33.38,2.29.26,4.38.66,6.28,1.21,5.2,1.49,9.18,4.03,11.93,7.62,2.75,3.59,4.13,8.07,4.13,13.44s-5.35,16.7-17.54,16.7l.47,2.33,24.19,37.02h-16.18l-20.86-32.59h-6.26Zm-.15-39.75l.15,29.74s5.43-.46,7.07-.46c13.89,0,14.97-11.38,14.97-14.98-.04-3.37-4.47-14.19-13.87-14.19-1.41,0-8.33-.1-8.33-.1Z"/><rect class="cls-1" x="178.89" y="218.75" width="392.45" height="46.71"/><path class="cls-2" d="m190.84,244.31c0-.36-.09-.65-.27-.88-.17-.23-.41-.41-.71-.55-.31-.14-.64-.26-1.02-.35-.38-.09-.77-.18-1.19-.26-.55-.12-1.07-.27-1.57-.43-.5-.17-.94-.4-1.32-.69-.38-.3-.68-.67-.91-1.13-.22-.45-.33-1.02-.33-1.71,0-.76.13-1.41.39-1.97.26-.56.62-1.02,1.06-1.39.45-.37.97-.64,1.57-.82.6-.18,1.28-.27,2.03-.27s1.51.07,2.27.22c.76.15,1.41.34,1.96.58v2.24c-.73-.29-1.43-.5-2.1-.64-.67-.13-1.3-.2-1.89-.2-.85,0-1.51.16-1.97.47-.46.31-.69.78-.69,1.41,0,.36.07.66.23.9.15.24.36.43.62.58.26.15.56.27.9.37.33.09.69.18,1.07.26.6.13,1.17.28,1.71.45.55.17,1.03.4,1.45.7.42.3.76.69,1,1.17.25.48.37,1.09.37,1.84s-.14,1.44-.42,2c-.28.56-.68,1.03-1.2,1.39-.51.36-1.14.64-1.88.82-.74.18-1.55.27-2.43.27-.76,0-1.52-.08-2.26-.23-.74-.15-1.36-.37-1.85-.65v-2.21c.7.31,1.37.53,2.03.67.66.14,1.34.21,2.05.21.41,0,.81-.03,1.2-.1.39-.07.75-.18,1.06-.35.31-.17.56-.39.75-.67.19-.28.28-.63.28-1.04Z"/><path class="cls-2" d="m198.95,246.22h6.94v2.19h-9.52v-14.28h9.15v2.19h-6.56v3.69h5.63v2.19h-5.63v4.02Z"/><path class="cls-2" d="m219.07,238.42c0,.99-.27,1.84-.82,2.53-.55.69-1.39,1.21-2.53,1.54v.04l4.2,5.87h-3.1l-3.84-5.53h-1.77v5.53h-2.58v-14.28h4.29c.71,0,1.37.04,1.98.12.61.08,1.14.21,1.57.37.83.32,1.47.8,1.92,1.42.45.63.67,1.42.67,2.38Zm-6.58,2.27c.59,0,1.09-.03,1.5-.08.41-.05.76-.13,1.04-.24.52-.2.88-.47,1.08-.81.2-.35.3-.74.3-1.19,0-.39-.08-.72-.24-1.02-.16-.3-.43-.53-.8-.7-.25-.11-.56-.2-.93-.25-.37-.05-.83-.08-1.38-.08h-1.85v4.37h1.28Z"/><path class="cls-2" d="m227.43,244.92c.26-.77.45-1.33.56-1.66.12-.33.36-1.01.73-2.03l2.62-7.09h2.73l-5.52,14.28h-2.32l-5.51-14.28h2.75l2.62,7.09c.37,1.03.62,1.7.73,2.03.12.33.3.89.56,1.66h.04Z"/><path class="cls-2" d="m235.97,248.41v-14.28h2.58v14.28h-2.58Z"/><path class="cls-2" d="m248.8,236.07c-.7,0-1.35.12-1.94.35-.6.24-1.1.58-1.53,1.03-.43.45-.76,1-1,1.66-.24.66-.36,1.41-.36,2.26s.11,1.58.33,2.21c.22.64.53,1.17.94,1.59.41.43.91.75,1.49.96.58.22,1.25.33,2,.33.54,0,1.08-.04,1.64-.13.55-.08,1.08-.21,1.56-.37v2.25c-.49.14-1.02.26-1.59.34-.57.08-1.16.12-1.77.12-1.19,0-2.25-.17-3.15-.52-.91-.35-1.67-.83-2.27-1.46-.61-.63-1.07-1.39-1.37-2.26-.31-.88-.46-1.85-.46-2.91s.16-2.1.49-3.03c.32-.93.8-1.74,1.41-2.42.61-.68,1.38-1.22,2.31-1.61.93-.39,1.97-.59,3.14-.6.6,0,1.17.04,1.7.12.53.08,1.02.2,1.44.35v2.22c-.56-.17-1.09-.3-1.57-.37-.49-.07-.96-.11-1.43-.11Z"/><path class="cls-2" d="m254.56,248.41v-14.28h2.58v14.28h-2.58Z"/><path class="cls-2" d="m273.63,241.27c0,1.09-.15,2.09-.46,2.99-.31.91-.75,1.68-1.34,2.34-.59.65-1.31,1.17-2.16,1.53-.85.36-1.83.54-2.92.54s-2.06-.18-2.91-.54c-.86-.36-1.58-.87-2.16-1.53-.59-.65-1.03-1.43-1.34-2.34-.31-.91-.46-1.9-.46-2.99s.15-2.08.46-2.99c.31-.91.75-1.69,1.34-2.34.59-.65,1.31-1.16,2.16-1.53.85-.36,1.82-.54,2.91-.54s2.06.18,2.92.54c.85.36,1.57.87,2.16,1.53.59.65,1.03,1.43,1.34,2.34.3.91.46,1.9.46,2.99Zm-2.67,0c0-.87-.11-1.63-.32-2.28-.21-.65-.5-1.19-.87-1.63-.37-.43-.82-.76-1.33-.97-.51-.21-1.08-.32-1.69-.32s-1.17.11-1.69.32c-.51.22-.96.54-1.33.97-.37.43-.67.98-.87,1.63-.21.65-.32,1.41-.32,2.28s.11,1.63.32,2.28c.21.65.5,1.19.87,1.62.37.43.82.75,1.33.97.51.22,1.08.33,1.69.33s1.18-.11,1.69-.33c.51-.22.96-.54,1.33-.97.37-.43.66-.97.87-1.62.21-.65.32-1.41.32-2.28Z"/><path class="cls-2" d="m283.32,244.31c0-.36-.09-.65-.27-.88-.18-.23-.41-.41-.71-.55-.3-.14-.64-.26-1.02-.35-.37-.09-.77-.18-1.19-.26-.55-.12-1.07-.27-1.57-.43-.5-.17-.94-.4-1.32-.69-.38-.3-.68-.67-.91-1.13-.22-.45-.33-1.02-.33-1.71,0-.76.13-1.41.39-1.97.26-.56.62-1.02,1.06-1.39.45-.37.97-.64,1.57-.82.6-.18,1.28-.27,2.03-.27s1.51.07,2.27.22c.76.15,1.41.34,1.96.58v2.24c-.73-.29-1.43-.5-2.11-.64-.67-.13-1.3-.2-1.89-.2-.85,0-1.51.16-1.96.47-.46.31-.69.78-.69,1.41,0,.36.07.66.23.9.15.24.36.43.62.58.26.15.56.27.9.37.34.09.7.18,1.07.26.6.13,1.17.28,1.71.45.55.17,1.03.4,1.45.7.42.3.76.69,1,1.17.25.48.37,1.09.37,1.84s-.14,1.44-.42,2c-.28.56-.68,1.03-1.2,1.39-.51.36-1.14.64-1.88.82-.74.18-1.55.27-2.43.27-.77,0-1.52-.08-2.26-.23-.74-.15-1.36-.37-1.85-.65v-2.21c.7.31,1.37.53,2.03.67.66.14,1.34.21,2.05.21.41,0,.81-.03,1.2-.1.4-.07.75-.18,1.06-.35.31-.17.56-.39.76-.67.19-.28.28-.63.28-1.04Z"/><path class="cls-2" d="m295.88,248.41h-2.59v-14.28h8.99v2.19h-6.4v3.69h5.47v2.19h-5.47v6.21Z"/><path class="cls-2" d="m304.55,248.41v-14.28h2.58v14.28h-2.58Z"/><path class="cls-2" d="m317.86,240.77c1.01,1.46,1.84,2.75,2.47,3.88h.06c-.08-1.86-.13-3.21-.13-4.05v-6.47h2.59v14.28h-2.71l-4.6-6.57c-.81-1.14-1.64-2.46-2.51-3.96h-.06c.08,1.75.13,3.1.13,4.06v6.47h-2.58v-14.28h2.71l4.64,6.64Z"/><path class="cls-2" d="m334.3,244.77h-5.31l-1.38,3.64h-2.75l5.6-14.28h2.36l5.6,14.28h-2.73l-1.38-3.64Zm-2.68-7.2c-.49,1.5-.93,2.74-1.32,3.75l-.48,1.27h3.65l-.48-1.27c-.38-1.01-.82-2.26-1.32-3.75h-.04Z"/><path class="cls-2" d="m347.77,240.77c1.01,1.46,1.84,2.75,2.47,3.88h.06c-.08-1.86-.13-3.21-.13-4.05v-6.47h2.59v14.28h-2.71l-4.6-6.57c-.81-1.14-1.64-2.46-2.51-3.96h-.06c.08,1.75.13,3.1.13,4.06v6.47h-2.58v-14.28h2.71l4.64,6.64Z"/><path class="cls-2" d="m363,236.07c-.7,0-1.35.12-1.94.35-.6.24-1.1.58-1.53,1.03-.43.45-.76,1-1,1.66-.24.66-.36,1.41-.36,2.26s.11,1.58.33,2.21c.22.64.53,1.17.94,1.59.41.43.91.75,1.49.96.59.22,1.25.33,2,.33.54,0,1.08-.04,1.64-.13.55-.08,1.07-.21,1.56-.37v2.25c-.49.14-1.02.26-1.59.34-.57.08-1.16.12-1.77.12-1.2,0-2.25-.17-3.15-.52-.91-.35-1.66-.83-2.27-1.46-.61-.63-1.06-1.39-1.37-2.26-.31-.88-.46-1.85-.46-2.91s.16-2.1.49-3.03c.33-.93.8-1.74,1.41-2.42.62-.68,1.39-1.22,2.31-1.61.92-.39,1.97-.59,3.14-.6.6,0,1.16.04,1.69.12.54.08,1.02.2,1.45.35v2.22c-.56-.17-1.09-.3-1.57-.37-.49-.07-.96-.11-1.43-.11Z"/><path class="cls-2" d="m368.76,248.41v-14.28h2.58v14.28h-2.58Z"/><path class="cls-2" d="m377.3,246.22h6.94v2.19h-9.52v-14.28h9.14v2.19h-6.56v3.69h5.64v2.19h-5.64v4.02Z"/><path class="cls-2" d="m397.42,238.42c0,.99-.27,1.84-.82,2.53-.55.69-1.39,1.21-2.53,1.54v.04l4.2,5.87h-3.1l-3.84-5.53h-1.77v5.53h-2.58v-14.28h4.29c.71,0,1.37.04,1.98.12.61.08,1.14.21,1.57.37.83.32,1.47.8,1.92,1.42.45.63.67,1.42.67,2.38Zm-6.58,2.27c.59,0,1.09-.03,1.5-.08.41-.05.76-.13,1.04-.24.52-.2.88-.47,1.08-.81.2-.35.3-.74.3-1.19,0-.39-.08-.72-.23-1.02-.16-.3-.43-.53-.81-.7-.25-.11-.56-.2-.93-.25-.37-.05-.83-.08-1.38-.08h-1.84v4.37h1.28Z"/><path class="cls-2" d="m413.67,241.27c0,1.09-.15,2.09-.46,2.99-.31.91-.75,1.68-1.34,2.34-.59.65-1.31,1.17-2.16,1.53-.85.36-1.83.54-2.91.54s-2.06-.18-2.92-.54c-.85-.36-1.57-.87-2.16-1.53-.59-.65-1.03-1.43-1.34-2.34-.3-.91-.46-1.9-.46-2.99s.15-2.08.46-2.99c.31-.91.75-1.69,1.34-2.34.59-.65,1.31-1.16,2.16-1.53.85-.36,1.83-.54,2.92-.54s2.06.18,2.91.54c.86.36,1.58.87,2.16,1.53.59.65,1.03,1.43,1.34,2.34.31.91.46,1.9.46,2.99Zm-2.67,0c0-.87-.11-1.63-.32-2.28-.21-.65-.5-1.19-.87-1.63-.37-.43-.82-.76-1.33-.97-.51-.21-1.08-.32-1.69-.32s-1.18.11-1.69.32c-.51.22-.96.54-1.33.97-.37.43-.66.98-.87,1.63-.21.65-.32,1.41-.32,2.28s.11,1.63.32,2.28c.21.65.5,1.19.87,1.62.37.43.82.75,1.33.97.51.22,1.08.33,1.69.33s1.17-.11,1.69-.33c.51-.22.96-.54,1.33-.97.37-.43.67-.97.87-1.62.21-.65.32-1.41.32-2.28Z"/><path class="cls-2" d="m423.35,244.31c0-.36-.09-.65-.27-.88-.18-.23-.41-.41-.71-.55-.3-.14-.64-.26-1.02-.35-.37-.09-.77-.18-1.19-.26-.55-.12-1.07-.27-1.57-.43-.5-.17-.94-.4-1.32-.69-.38-.3-.68-.67-.91-1.13-.22-.45-.34-1.02-.34-1.71,0-.76.13-1.41.39-1.97.26-.56.62-1.02,1.06-1.39.45-.37.97-.64,1.57-.82.6-.18,1.28-.27,2.03-.27s1.51.07,2.27.22c.76.15,1.41.34,1.96.58v2.24c-.73-.29-1.43-.5-2.11-.64-.67-.13-1.3-.2-1.89-.2-.85,0-1.51.16-1.96.47-.46.31-.69.78-.69,1.41,0,.36.07.66.22.9.15.24.36.43.62.58.26.15.56.27.9.37.33.09.69.18,1.07.26.6.13,1.17.28,1.71.45.54.17,1.03.4,1.45.7.43.3.76.69,1,1.17.25.48.37,1.09.37,1.84s-.14,1.44-.42,2-.68,1.03-1.2,1.39c-.51.36-1.14.64-1.88.82-.74.18-1.55.27-2.43.27-.77,0-1.52-.08-2.26-.23-.74-.15-1.36-.37-1.85-.65v-2.21c.7.31,1.37.53,2.03.67.66.14,1.34.21,2.05.21.41,0,.81-.03,1.2-.1.4-.07.75-.18,1.06-.35.31-.17.56-.39.76-.67.19-.28.28-.63.28-1.04Z"/><path class="cls-2" d="m436.13,240.28l3.76-6.15h2.87l-5.35,8.52v5.75h-2.58v-5.75l-5.35-8.52h2.87l3.76,6.15h.03Z"/><path class="cls-2" d="m451.69,248.41h-2.58v-14.28h8.99v2.19h-6.41v3.69h5.47v2.19h-5.47v6.21Z"/><path class="cls-2" d="m467.38,244.77h-5.31l-1.38,3.64h-2.75l5.6-14.28h2.36l5.6,14.28h-2.73l-1.38-3.64Zm-2.68-7.2c-.49,1.5-.93,2.74-1.32,3.75l-.48,1.27h3.65l-.48-1.27c-.38-1.01-.82-2.26-1.32-3.75h-.04Z"/><path class="cls-2" d="m480.15,236.07c-.71,0-1.35.12-1.95.35-.59.24-1.1.58-1.53,1.03-.42.45-.76,1-1,1.66-.24.66-.36,1.41-.36,2.26s.11,1.58.33,2.21c.22.64.53,1.17.94,1.59.4.43.9.75,1.49.96.59.22,1.25.33,2,.33.53,0,1.08-.04,1.63-.13.55-.08,1.07-.21,1.56-.37v2.25c-.49.14-1.02.26-1.59.34-.57.08-1.16.12-1.77.12-1.2,0-2.25-.17-3.16-.52-.91-.35-1.66-.83-2.27-1.46-.61-.63-1.07-1.39-1.37-2.26-.31-.88-.46-1.85-.46-2.91s.16-2.1.49-3.03c.33-.93.8-1.74,1.41-2.42.61-.68,1.38-1.22,2.31-1.61.92-.39,1.97-.59,3.14-.6.6,0,1.16.04,1.7.12.53.08,1.01.2,1.44.35v2.22c-.56-.17-1.09-.3-1.57-.37-.49-.07-.96-.11-1.43-.11Z"/><path class="cls-2" d="m491.68,248.41h-2.58v-12.09h-4.56v-2.19h11.69v2.19h-4.55v12.09Z"/><path class="cls-2" d="m510.82,241.27c0,1.09-.15,2.09-.46,2.99-.31.91-.75,1.68-1.34,2.34-.59.65-1.31,1.17-2.16,1.53-.85.36-1.83.54-2.91.54s-2.06-.18-2.91-.54c-.86-.36-1.58-.87-2.16-1.53-.59-.65-1.03-1.43-1.34-2.34-.31-.91-.46-1.9-.46-2.99s.15-2.08.46-2.99c.31-.91.75-1.69,1.34-2.34.59-.65,1.31-1.16,2.16-1.53.85-.36,1.82-.54,2.91-.54s2.06.18,2.91.54c.86.36,1.58.87,2.16,1.53.59.65,1.03,1.43,1.34,2.34.31.91.46,1.9.46,2.99Zm-2.67,0c0-.87-.11-1.63-.32-2.28-.21-.65-.5-1.19-.87-1.63-.37-.43-.82-.76-1.33-.97-.51-.21-1.08-.32-1.69-.32s-1.18.11-1.69.32c-.51.22-.96.54-1.33.97-.37.43-.67.98-.87,1.63-.21.65-.32,1.41-.32,2.28s.11,1.63.32,2.28c.21.65.5,1.19.87,1.62.37.43.82.75,1.33.97.51.22,1.08.33,1.69.33s1.17-.11,1.69-.33c.51-.22.96-.54,1.33-.97.37-.43.66-.97.87-1.62.21-.65.32-1.41.32-2.28Z"/><path class="cls-2" d="m524.01,238.42c0,.99-.27,1.84-.82,2.53-.55.69-1.39,1.21-2.53,1.54v.04l4.2,5.87h-3.1l-3.84-5.53h-1.77v5.53h-2.58v-14.28h4.29c.71,0,1.37.04,1.98.12.61.08,1.14.21,1.57.37.83.32,1.47.8,1.92,1.42.45.63.67,1.42.67,2.38Zm-6.58,2.27c.59,0,1.09-.03,1.5-.08.41-.05.76-.13,1.04-.24.52-.2.88-.47,1.08-.81.2-.35.3-.74.3-1.19,0-.39-.08-.72-.23-1.02-.16-.3-.43-.53-.81-.7-.25-.11-.56-.2-.93-.25-.37-.05-.83-.08-1.38-.08h-1.84v4.37h1.28Z"/><path class="cls-2" d="m527.13,248.41v-14.28h2.58v14.28h-2.58Z"/><path class="cls-2" d="m540.44,240.77c1.01,1.46,1.83,2.75,2.47,3.88h.06c-.08-1.86-.13-3.21-.13-4.05v-6.47h2.58v14.28h-2.71l-4.6-6.57c-.81-1.14-1.64-2.46-2.51-3.96h-.07c.09,1.75.13,3.1.13,4.06v6.47h-2.58v-14.28h2.71l4.64,6.64Z"/><path class="cls-2" d="m557.58,242.95h-3.16v-2.19h5.75v7.2c-.21.08-.48.16-.81.24-.33.09-.69.16-1.1.23-.4.07-.82.12-1.25.17-.43.04-.86.06-1.28.06-1.27,0-2.37-.17-3.32-.52-.95-.35-1.73-.83-2.36-1.46-.63-.63-1.1-1.37-1.41-2.23-.31-.86-.47-1.82-.47-2.86,0-.74.08-1.44.25-2.12.17-.67.41-1.3.73-1.87.32-.57.71-1.09,1.17-1.55.46-.46.98-.86,1.57-1.19.58-.33,1.23-.58,1.93-.75.7-.17,1.45-.26,2.25-.26.71,0,1.39.05,2.02.15.64.1,1.17.23,1.57.38v2.22c-.55-.18-1.1-.31-1.66-.41-.56-.09-1.12-.14-1.69-.14-.76,0-1.48.12-2.15.35-.67.23-1.25.57-1.74,1.02-.49.45-.87,1.01-1.16,1.67-.28.66-.42,1.43-.42,2.29,0,1.69.44,2.95,1.31,3.8.87.84,2.09,1.26,3.68,1.26.3,0,.6-.01.92-.05.32-.03.59-.08.83-.12v-3.34Z"/></svg>