<?xml version="1.0" encoding="UTF-8"?><svg id="Capa_2" xmlns="http://www.w3.org/2000/svg" viewBox="0 0 518.49 297.97"><defs><style>.cls-1{fill:#009142;}.cls-1,.cls-2,.cls-3,.cls-4{stroke-width:0px;}.cls-2{fill:#fff;}.cls-3{fill:#36424a;}.cls-4{fill:#1a1413;}</style></defs><path class="cls-3" d="m167.9,257.78c-.04-.52-.13-1.13-.26-1.84-.13-.71-.43-1.41-.88-2.1-.46-.69-1.12-1.27-2-1.74-.87-.47-2.1-.71-3.67-.71-2.22,0-3.93.6-5.11,1.81-1.18,1.21-1.77,3.08-1.77,5.62v18.01c0,2.54.6,4.41,1.8,5.62,1.2,1.2,2.94,1.81,5.21,1.81,1.48,0,2.66-.24,3.54-.71.87-.47,1.53-1.05,1.96-1.74.44-.69.73-1.43.88-2.23.15-.79.25-1.54.3-2.23.09-.99.52-1.68,1.31-2.07.78-.39,1.74-.58,2.88-.58,1.48,0,2.58.28,3.27.84.7.56,1.05,1.66,1.05,3.29,0,1.94-.38,3.7-1.15,5.29-.77,1.59-1.85,2.94-3.24,4.03-1.4,1.1-3.06,1.95-4.98,2.55-1.92.6-4.02.9-6.29.9-2.05,0-4-.27-5.83-.81-1.83-.54-3.44-1.39-4.81-2.55-1.38-1.16-2.46-2.68-3.24-4.55-.79-1.87-1.18-4.17-1.18-6.88v-18.01c0-2.71.4-5,1.21-6.88.81-1.87,1.9-3.39,3.27-4.55,1.38-1.16,2.98-2.01,4.81-2.55s3.78-.81,5.83-.81c2.27,0,4.37.29,6.29.87,1.92.58,3.57,1.4,4.95,2.45,1.37,1.05,2.44,2.35,3.21,3.87.76,1.53,1.15,3.22,1.15,5.07,0,1.68-.35,2.79-1.05,3.32-.7.54-1.77.81-3.21.81-1.22,0-2.23-.19-3.01-.58-.79-.39-1.2-1.07-1.24-2.06Z"/><path class="cls-3" d="m184.2,291.22c-.57,0-1.17-.09-1.8-.26-.63-.17-1.21-.41-1.74-.71-.53-.3-.96-.67-1.31-1.1-.35-.43-.53-.9-.53-1.42,0-.09.04-.3.13-.65l12.64-40.61c.31-.99.98-1.71,2.04-2.16,1.05-.45,2.18-.68,3.41-.68s2.42.23,3.47.68c1.05.45,1.72,1.17,2.03,2.16l12.64,40.61c.09.35.13.56.13.65,0,.52-.17.98-.53,1.39-.35.41-.78.77-1.31,1.1-.52.32-1.1.57-1.74.74-.63.17-1.24.26-1.8.26-.74,0-1.37-.13-1.86-.39-.5-.26-.84-.69-1.02-1.29l-2.49-8.59h-15l-2.49,8.59c-.17.6-.51,1.03-1.02,1.29-.5.26-1.12.39-1.86.39Zm18.54-16.85l-5.7-19.82-5.7,19.82h11.4Z"/><path class="cls-3" d="m219.84,246.61c0-.69.28-1.29.85-1.81.57-.52,1.35-.77,2.36-.77h13.16c2.09,0,4.04.26,5.83.77,1.79.52,3.36,1.36,4.72,2.52,1.35,1.16,2.41,2.67,3.18,4.52.76,1.85,1.14,4.09,1.14,6.71v.39c0,2.67-.39,4.93-1.18,6.78-.79,1.85-1.88,3.36-3.27,4.52-1.4,1.16-3.04,2.01-4.91,2.55-1.88.54-3.89.81-6.03.81h-7.33v14.98c0,.86-.45,1.52-1.34,1.97-.9.45-1.87.68-2.92.68s-2.08-.23-2.95-.68c-.87-.45-1.31-1.11-1.31-1.97v-41.97Zm8.52,4.78v15.62h7.33c2.14,0,3.82-.6,5.04-1.81,1.22-1.2,1.84-3.08,1.84-5.62v-.77c0-2.54-.61-4.41-1.84-5.62-1.22-1.2-2.9-1.81-5.04-1.81h-7.33Z"/><path class="cls-3" d="m256.32,246.61c0-.9.44-1.56,1.31-1.97.87-.41,1.86-.61,2.95-.61s2.02.21,2.92.61c.89.41,1.34,1.07,1.34,1.97v41.97c0,.86-.45,1.52-1.34,1.97-.9.45-1.87.68-2.92.68s-2.08-.23-2.95-.68c-.87-.45-1.31-1.11-1.31-1.97v-41.97Z"/><path class="cls-3" d="m299.95,244.03c.91,0,1.59.4,2.03,1.2s.65,1.65.65,2.55c0,.99-.23,1.87-.68,2.65-.46.77-1.12,1.16-2,1.16h-9.56v36.99c0,.86-.45,1.52-1.34,1.97-.9.45-1.86.68-2.92.68s-2.07-.23-2.95-.68c-.88-.45-1.31-1.11-1.31-1.97v-36.99h-9.63c-.87,0-1.54-.38-2-1.13-.46-.75-.69-1.65-.69-2.68,0-.9.22-1.75.65-2.55s1.11-1.2,2.03-1.2h27.71Z"/><path class="cls-3" d="m305.52,291.22c-.57,0-1.17-.09-1.8-.26-.63-.17-1.21-.41-1.74-.71-.53-.3-.96-.67-1.31-1.1-.35-.43-.53-.9-.53-1.42,0-.09.04-.3.13-.65l12.64-40.61c.31-.99.98-1.71,2.03-2.16,1.05-.45,2.18-.68,3.41-.68s2.42.23,3.47.68c1.05.45,1.72,1.17,2.03,2.16l12.64,40.61c.09.35.13.56.13.65,0,.52-.17.98-.53,1.39-.35.41-.78.77-1.31,1.1-.52.32-1.1.57-1.74.74-.63.17-1.24.26-1.8.26-.74,0-1.37-.13-1.86-.39-.5-.26-.84-.69-1.02-1.29l-2.49-8.59h-15l-2.49,8.59c-.17.6-.51,1.03-1.02,1.29-.5.26-1.12.39-1.86.39Zm18.54-16.85l-5.7-19.82-5.7,19.82h11.4Z"/><path class="cls-3" d="m344.88,291.22c-.96,0-1.82-.23-2.59-.68-.77-.45-1.15-1.11-1.15-1.97v-41.97c0-.9.44-1.56,1.31-1.97.87-.41,1.86-.61,2.95-.61s2.02.21,2.92.61c.89.41,1.34,1.07,1.34,1.97v37.25h15.98c.87,0,1.52.38,1.93,1.13.41.75.62,1.6.62,2.55s-.21,1.74-.62,2.52c-.41.77-1.06,1.16-1.93,1.16h-20.77Z"/><rect class="cls-1" x="141.14" width="227.06" height="227.06"/><path class="cls-4" d="m286.09,45.4V7.51h-83.29s-38.96,3.85-38.96,50.79v146.85h38.18v-78.86h67.53v-37.24h-68.16v-27.93s.23-15.73,18.07-15.73h66.62Z"/><path class="cls-2" d="m277.21,66.99h32.16v33.56h22.53v28.87h-22.53v48.82s-1.41,17.6,16.8,19.39l42.03-.3v29.73h-60.24s-31.1-10.21-31.1-35.32l.35-124.75Z"/></svg>