<?xml version="1.0" encoding="UTF-8"?><svg id="Capa_9" xmlns="http://www.w3.org/2000/svg" viewBox="0 0 710.01 299.39"><defs><style>.cls-1{fill:#2c3f91;}.cls-1,.cls-2,.cls-3,.cls-4{stroke-width:0px;}.cls-2{fill:#28316b;}.cls-3{fill:#49719c;}.cls-4{fill:#22254b;}</style></defs><path class="cls-2" d="m588.7,183.03c-.33,0-.61.28-.61.61s.28.61.61.61.61-.28.61-.61-.28-.61-.61-.61Zm0,1.06c-.25,0-.46-.21-.46-.46s.21-.46.46-.46.46.21.46.46-.21.46-.46.46Z"/><path class="cls-2" d="m588.98,183.93c0-.2-.14-.28-.14-.28v-.02c.14,0,.13-.13.13-.13,0-.14-.16-.14-.16-.14h-.3v.56h.13v-.23h.11c.11.06.1.23.1.23h.14-.01Zm-.14-.4c0,.1-.09.09-.09.09h-.11v-.17h.11c.11,0,.09.09.09.09h0Z"/><path class="cls-1" d="m588.18,183.6s-.06.02-.06.06.02.06.06.06.06-.02.06-.06-.02-.06-.06-.06Zm0,.1s-.05-.02-.05-.05.02-.05.05-.05.05.02.05.05-.02.05-.05.05Z"/><path class="cls-1" d="m588.21,183.7v-.02h-.01.01s-.01-.02-.01-.02h-.03v.06h.01v-.02h.01v.02h.02Zm-.01-.05h-.01v-.02h.01v.02Z"/><path class="cls-4" d="m148.02,189.99c-.22,0-.44-.02-.64-.1-2.03-.79-.93-2.8.43-2.98,4-.38,4.69-.82,6.13-1.98,2.41-1.94,3.24-7.1,3.24-10.45v-66.75c0-4.02-.08-8.71-1.32-10.53-1-1.47-1.67-3.93-10.2-5.37-2.56-.63-1.17-3.01.28-2.84,1.74,0,9.55,1.25,16.97,1.07,6.05-.15,12.77-.75,14.33-.75,1.05,0,2.14,1.77.33,2.69-.09.05-.21.08-.31.11-3.07.82-4.14.94-6.49,2.92-1.63,1.37-2.47,4.22-2.46,8.01v28.21c.05,3.41,1.77,3.76,3.39,3.76h48.04c1.18,0,2.33-1.53,2.26-2.7l-.03-27.53c0-4.02-.75-6.84-2.6-9.09-1.13-1.37-1.95-2.33-7.05-3.51-2.17-.66-1.23-2.67-.13-2.67,1.64,0,6.01.55,15.24.55,10.3,0,12.61-.37,14.35-.37,1.02,0,2.18,1.57.52,2.46-.18.09-.38.15-.59.17-3.55.41-4.8,1.26-5.98,2.6-1.02,1.16-2.53,3.91-2.53,7.26l-.09,70.6c0,3.92.52,8.35,2.38,10.72s5.35,3.41,9.2,3.56c1.26.15,1.82,1.63.99,2.49-.3.31-.74.46-1.17.45-2.44-.07-9.93-.6-16.3-.57-5.87.02-13.01.64-14.76.64-1.24.1-2.34-1.89-.44-2.76.14-.07.3-.09.45-.11,3.84-.44,5.93-2.49,6.98-4.63.68-1.39,1.64-3.26,1.63-7.99v-31.74c0-1.32-1.09-2.18-2.41-2.18l-47.27.06c-3.66,0-4.13,2.28-4.13,4.17l.06,28.27c0,4.02.69,8.23,3.13,10.44,2.72,2.47,5.17,2.47,9.35,3.16,1.7.16,2.61,2.64.28,3.2-.13.03-.26.03-.4.03-2.62-.11-7.97-.66-16.61-.75-4.52-.05-13.71.68-16.07.75l.05-.02Z"/><path class="cls-4" d="m287.3,186.98c1.66.03,2.8,2.79-.05,2.94s-10.75-.7-21.38-.03c-2.15.14-1.7.24-3.69.24-2.63.03-1.87-2.53-.75-2.85,1.06-.38,5.02-1.57,5.44-4.44.18-1.31.38-3.2.38-6.01v-28.59c0-3.32-.1-5.78-.3-7.4-.2-1.61-.82-2.75-1.84-3.38-1.02-.64-2.24-.59-5.79-.85-1.24-.09-1.22-1.78.1-2.22,2.92-.98,11.22-4.61,16.09-7.2.82-.44,1.68-.05,1.78.87v.17c-.05,3.38-.02,11.27-.02,13.13v34.2c0,3.32.15,5.7.45,7.15s1.05,2.18,1.99,2.75c1.66.99,5.07,1.39,6.44,1.45.09,0,1.08.07,1.15.08h0Z"/><path class="cls-4" d="m264.1,107.05c0-1.89.67-3.47,2-4.78,1.33-1.3,2.94-1.95,4.83-1.95s3.39.66,4.72,1.95,2,2.86,2,4.68c0,1.69-.66,3.23-1.95,4.63-1.3,1.4-2.95,2.09-4.97,2.09-1.82,0-3.38-.64-4.68-1.95-1.3-1.3-1.95-2.86-1.95-4.68h0Z"/><path class="cls-4" d="m300.67,190.13c-1.1-.05-1.74-1.43-.83-2.36,1.79-1.83,7,.36,6.4-10.61v-28.59c0-3.32-.15-5.78-.44-7.4-.29-1.61-1.17-4.08-4.1-4.17-.72-.02-2.08-.03-4.01,0-2.37.03-1.67-2.45-.31-2.6,3.33-.66,10.52-3.1,16.2-6.69.36-.22.77-.32,1.2-.32h.45c.6,0,1.07.48,1.07,1.07v9.89c4.44-5.32,10.69-9.41,18-9.56,6.23-.13,13.74.89,19.06,10.78,7.61-10.01,15.08-10.51,18.9-10.69,17.39-.83,21.58,13.94,21.58,20.15v26.84c.02,3.49,1.14,7.03,2.46,8.35,1.16,1.15,2.91,2.67,6.29,2.94,1.77.14,2.44.59,2.57,1.53,0,.57-.21,1.29-1.69,1.33-2.32.07-5.51-.47-12.1-.39-7.38.09-9.63.44-11.71.44-.75,0-1.92-.07-1.92-1.37,0-.84.76-1.34,2-1.72s2.61-1.24,3.47-2.29c1.25-1.52.91-4.03.91-6.84l-.13-25.67c-.21-5.07-1.92-9.76-3.8-12.02-3.57-4.29-7.28-5.62-11.76-5.62-5.56,0-11.93,3.48-13.86,8.43.02,1.34.67,3.94.67,5.47l-.05,27.29c-.08,3.59.34,6.48,1.32,7.93.84,1.24,2.28,2.4,3.52,2.78s2.6.76,5.17.93c1.85.39,1.99,2.77-.33,2.68-2.32-.08-10.32-.46-13.48-.46s-9.7.48-11.77.48c-1.83-.51-1.1-2.12-.18-2.46,1.39-.53,2.28-.25,4.45-2.07,1.09-.91,1.41-1.8,1.37-8.45l-.05-25.73c-.05-6.69-1.39-8.37-2.8-10.92s-5.6-5.74-12.37-5.77c-5.23-.03-12.16,2.6-13.77,10.29l.05,32.17c-.33,10.68,8.7,9.76,10,10.09,1.44.37,2.1,2.38,0,2.86-2.32,0-8.51-.59-13.56-.54-2.99.02-9.6.55-12.09.55l.05.03Z"/><path class="cls-4" d="m393.52,138.03c4.93-5.66,10.64-9.12,17.82-9.21,6.61-.08,13.25.75,18.87,10.82,7.72-9.87,15.02-10.66,18.84-10.79,17.35-.63,21.9,14.17,21.9,20.38l-.06,26.71c.02,3.49.93,7.03,2.25,8.35,1.16,1.15,2.91,2.67,6.29,2.94,1.77.14,2.44.59,2.57,1.53,0,.57-.21,1.29-1.69,1.33-2.32.07-9.06-.54-12.13-.54s-9.61.59-11.68.59c-.75,0-1.92-.07-1.92-1.37,0-.84.76-1.34,2-1.72s2.61-1.24,3.47-2.29c1.25-1.52.91-4.03.91-6.84l.15-25.63c-.06-5.08-2.45-10.1-4.33-12.36-3.57-4.29-7.01-5.32-11.51-5.32-5.45,0-11.68,3.35-13.74,8.13-.09.21-.13.43-.1.66.13,1.4.83,3.71.83,5.12l-.05,27.37c-.08,3.59.17,6.41,1.15,7.85.84,1.24,2.28,2.4,3.52,2.78s2.6.76,5.17.93c1.85.39,1.99,2.77-.33,2.68-2.32-.08-10.32-.46-13.48-.46s-9.7.48-11.77.48c-1.83-.51-1.1-2.12-.18-2.46,1.39-.53,2.28-.25,4.45-2.07,1.09-.91,1.41-1.8,1.37-8.45l-.05-25.73c-.05-6.69-1.39-8.37-2.8-10.92s-5.2-5.69-11.97-5.74c-4.13-.02-9.39,1.38-12.4,5.77-.08.11-.26.11-.32-.02-.54-1.08-1.13-2.41-1.05-2.51h0Z"/><path class="cls-4" d="m511.8,190.11c-20.09-.51-27.91-18.75-27.5-30.63.29-8.1.49-12.74,5.67-20.02,5.61-7.9,12.71-11.71,21.52-11.93,14.63-.37,21.54,11.05,24.07,18.33.31.9,1.15,3.87,1.1,4.49s-.49,2.07-3.71,2.05l-38.67-.06-.06,2.07c.37,7.91,1.52,12.31,4.7,17.4,5,8,11.89,11.33,18.77,11.29,7.61-.05,13.38-4.13,16.61-6.69.66-.39,1.8-1.33,2.56-.57.95,1.1-.49,2.84-1.01,3.43-5.52,6.31-15.35,11.07-24.07,10.85h.01Zm-2-59.45c-3.66,0-7.47,1.02-10.62,5.3-2.24,3.03-3.71,6.49-4.39,12.29l25.66-.03c5.89.22,4.4-4,4.38-4.08-2.49-9.74-10.72-13.47-15.02-13.47Z"/><path class="cls-4" d="m575.98,189.91c-1.87,0-11.44-.45-13.82-.45s-11.6.66-13.54.66c-1.17,0-2.16-1.83-.49-2.77,1.94-1.09,4.68-.89,6.05-3.8,1-2.14.62-5.23.62-8.36v-71.29c0-4.03.59-6.64-1.06-9.48-1.53-2.63-5.74-1.45-8.28-1.78-1.02-.03-1.86-2.21.67-2.78,2.57-.47,6.06-2.1,8.77-3.1,2.52-.92,5.3-2.3,7.95-3.94.4-.24.87-.31,1.32-.17h0c.4.13.68.51.67.93-.06,2.01-.09,4.59-.13,6.95-.03,2.66-.05,5.55-.05,8.68v75.45c0,3.7,1.21,7.83,3.15,9.38,2.34,1.85,4.37,2.33,8.16,2.98,2.23.56,1.17,3,0,2.9h0Z"/><circle class="cls-3" cx="109.4" cy="136.58" r="8.3"/><circle class="cls-3" cx="109.4" cy="182.45" r="8.3"/><path class="cls-4" d="m594.34,177.17c-3.57,0-6.47,2.9-6.47,6.47s2.9,6.47,6.47,6.47,6.47-2.9,6.47-6.47-2.9-6.47-6.47-6.47Zm0,11.36c-2.69,0-4.87-2.18-4.87-4.87s2.18-4.87,4.87-4.87,4.87,2.18,4.87,4.87-2.18,4.87-4.87,4.87Z"/><path class="cls-4" d="m597.23,186.71c0-2.09-1.48-2.97-1.48-2.97v-.21c1.51,0,1.38-1.4,1.38-1.4,0-1.51-1.77-1.45-1.77-1.45h-3.25v6.02h1.32v-2.48h1.24c1.22.61,1.06,2.48,1.06,2.48,0,0,1.51,0,1.51,0Zm-1.53-4.36c0,1.08-1.03.93-1.03.93h-1.26v-1.87h1.26c1.2,0,1.03.93,1.03.93h0Z"/><path class="cls-4" d="m361.57,224.76h5.79v6.4c-1.57,1.43-4.53,1.48-5.54,1.48-2.39,0-4.16-.57-5.46-1.9-1.3-1.33-1.97-3.1-1.97-5.53,0-2.1.84-4.17,2.3-5.52,1.46-1.34,3.32-2.06,5.89-2.06,1.64,0,3.02.14,4.49.74l-.7,2.49c-1.24-.47-2.31-.57-3.59-.57-1.68,0-3.06.41-4.03,1.4-.98.99-1.3,1.8-1.3,3.52,0,1.82.64,3.01,1.66,3.82.76.6,1.49,1.03,3.14,1.03.66,0,2.16-.34,2.29-.6v-2.22h-2.97v-2.49h0Z"/><path class="cls-4" d="m375.26,227.07v5.47h-2.85v-14.82h4.46c2.03,0,3.54.36,4.52,1.07.98.71,1.47,1.79,1.47,3.24,0,1.84-.61,3.21-2.57,4.14l4.24,6.36h-3.48l-3.37-5.48h-2.4v.02Zm-.05-2.6h1.56c1.05,0,1.8-.18,2.28-.54.47-.36.7-.89.7-1.59s-.25-1.23-.76-1.54-1.28-.47-2.29-.47h-1.48v4.13h-.01Z"/><path class="cls-4" d="m400.1,217.73v9.59c0,1.09-.32,2.06-.82,2.87-.49.82-1.2,1.45-2.13,1.9s-2.03.67-3.32.67c-1.92,0-3.41-.48-4.47-1.46-1.07-.98-1.6-2.31-1.6-4.01v-9.55h3.06v8.75c0,3.05,1.99,3.4,3.22,3.4,1.8,0,3.1-1.13,3.1-3.43v-8.74h2.95,0Z"/><path class="cls-4" d="m415.7,222.28c0,1.55-.57,2.95-1.66,3.77-1.07.83-2.52,1.21-4.54,1.16h-1.44v5.4h-2.75v-14.82h4.52c1.95,0,3.43.38,4.4,1.14.98.76,1.46,1.87,1.46,3.35h0Zm-7.63,2.45h1.2c1.15,0,1.99-.18,2.53-.55s.8-.93.8-1.71c0-.72-.24-1.25-.72-1.61s-1.23-.53-2.25-.53h-1.55v4.4h0Z"/><path class="cls-4" d="m433.97,225.17c0,2.39-.82,4.15-2.06,5.48s-2.92,2.09-5.21,2.09-3.94-.72-5.17-2.05c-1.24-1.32-2-3.13-2-5.55s.74-4.21,1.98-5.51,2.91-2.05,5.22-2.05,4.03.67,5.28,1.98c1.24,1.32,1.97,3.18,1.97,5.59h0Zm-11.38-.08c0,1.57.4,2.71,1.1,3.53s1.67,1.39,3.05,1.39,2.36-.6,3.05-1.4c.7-.8,1.09-1.92,1.09-3.51s-.45-2.68-1.14-3.49c-.69-.8-1.62-1.29-2.98-1.29s-2.36.47-3.06,1.28c-.7.8-1.12,1.93-1.12,3.51h0Z"/><rect class="cls-4" x="452.34" y="208.43" width="1.68" height="36.74"/><path class="cls-3" d="m594.11,224.76h5.79v6.4c-1.57,1.43-4.53,1.48-5.54,1.48-2.39,0-4.16-.57-5.46-1.9-1.3-1.33-1.97-3.1-1.97-5.53,0-2.1.84-4.17,2.3-5.52,1.46-1.34,3.32-2.06,5.89-2.06,1.64,0,3.02.14,4.49.74l-.7,2.49c-1.24-.47-2.31-.57-3.59-.57-1.68,0-3.06.41-4.03,1.4s-1.3,1.8-1.3,3.52c0,1.82.64,3.01,1.66,3.82.76.6,1.49,1.03,3.14,1.03.66,0,2.16-.34,2.29-.6v-2.22h-2.97v-2.49h0Z"/><path class="cls-3" d="m548.8,227.07v5.47h-2.85v-14.82h4.46c2.03,0,3.54.36,4.52,1.07s1.47,1.79,1.47,3.24c0,1.84-.61,3.21-2.57,4.14l4.24,6.36h-3.48l-3.37-5.48h-2.4v.02Zm-.05-2.6h1.56c1.05,0,1.8-.18,2.28-.54s.7-.89.7-1.59-.25-1.23-.76-1.54-1.28-.47-2.29-.47h-1.48v4.13h-.01Z"/><path class="cls-3" d="m541.38,225.17c0,2.39-.82,4.15-2.06,5.48s-2.92,2.09-5.21,2.09-3.94-.72-5.17-2.05c-1.24-1.32-2-3.13-2-5.55s.74-4.21,1.98-5.51,2.91-2.05,5.22-2.05,4.03.67,5.28,1.98c1.24,1.32,1.97,3.18,1.97,5.59h0Zm-11.38-.08c0,1.57.4,2.71,1.1,3.53s1.67,1.39,3.05,1.39,2.36-.6,3.05-1.4c.7-.8,1.09-1.92,1.09-3.51s-.45-2.68-1.14-3.49c-.69-.8-1.62-1.29-2.98-1.29s-2.36.47-3.06,1.28c-.7.8-1.12,1.93-1.12,3.51h0Z"/><path class="cls-3" d="m468.59,217.89h9v2.56h-6.15v3.91h5.52v2.53h-5.53v5.7h-2.84v-14.7h0Z"/><path class="cls-3" d="m484.37,228.63l-1.48,3.9h-3.15l5.37-14.69h3.29l5.59,14.69h-3.26l-1.39-3.9h-4.95Zm4.15-2.41s-1.46-4.39-1.74-5.25l-1.72,5.25h3.46Z"/><path class="cls-3" d="m509.27,231.36c-.68.31-2.48,1.29-4.37,1.34-5.21.14-7.95-2.91-7.95-7.35,0-4.79,4.38-9.67,12.1-7.05l-.64,2.51c-4.84-1.77-8.36.86-8.36,4.37,0,3.22,2.93,6.38,8.2,3.91l1.02,2.28h0Z"/><path class="cls-3" d="m516.55,220.47h-4.31v-2.57h11.43v2.57h-4.36v12.04h-2.76s0-12.04,0-12.04Z"/><path class="cls-3" d="m564.4,217.79v14.7h-2.85v-14.7h2.85Z"/><path class="cls-3" d="m569.61,232.49v-14.67h2.97s5.63,8.14,6.86,9.99v-9.99h2.78v14.67h-2.8s-5.91-8.62-7.12-10.38v10.38h-2.69Z"/></svg>