<?xml version="1.0" encoding="UTF-8"?><svg id="Capa_19" xmlns="http://www.w3.org/2000/svg" viewBox="0 0 752.64 299.39"><defs><style>.cls-1{fill:#898a8d;}.cls-1,.cls-2,.cls-3{stroke-width:0px;}.cls-2{fill:#ce0e2d;}.cls-3{fill:#fff;}</style></defs><path class="cls-1" d="m439.18,193.7c0-.23.04-.6.13-1.14.08-.54.19-1.1.29-1.69.11-.6.25-1.22.42-1.86.16-.66.37-1.25.59-1.82.23-.56.48-1.01.76-1.36.28-.33.62-.5,1.01-.5s.77.04,1.14.12c.36.09.76.17,1.18.26.43.08.93.17,1.52.24.59.09,1.34.14,2.24.14,2.37,0,4.41-.38,6.13-1.1,1.72-.73,3.18-1.88,4.4-3.42,1.21-1.56,2.22-3.51,3.04-5.87.82-2.38,1.56-5.21,2.24-8.54l15.86-75.1h-10.81c-.56,0-1-.18-1.31-.55-.31-.37-.46-1.06-.46-2.07,0-.45.02-1,.09-1.65.06-.64.15-1.31.29-1.99.15-.68.33-1.33.55-1.95.23-.61.51-1.18.85-1.69.34-.51.69-.92,1.06-1.23.36-.31.82-.46,1.39-.46h10.66l3.89-16.84c.9-4.68,2.19-8.74,3.89-12.21,1.69-3.47,3.71-6.35,6.08-8.63,1.99-1.91,4.25-3.4,6.75-4.5H97.06c-9.87,0-17.94,8.08-17.94,17.93v120.61c0,9.87,8.07,17.94,17.94,17.94h342.23c-.07-.31-.12-.66-.12-1.1"/><path class="cls-1" d="m280.58,236.57c0,1.65-.3,3.11-.9,4.38-.61,1.28-1.44,2.36-2.51,3.25-1.07.9-2.33,1.56-3.78,2.02-1.45.45-3.01.68-4.68.68-1.17,0-2.25-.1-3.26-.3-1-.2-1.89-.44-2.67-.73-.78-.29-1.44-.58-1.97-.89-.53-.31-.9-.58-1.11-.78-.21-.22-.36-.5-.46-.83-.1-.33-.15-.78-.15-1.33,0-.39.02-.73.05-.99.04-.26.09-.47.17-.64.08-.17.16-.27.27-.34.11-.06.23-.08.38-.08.25,0,.61.15,1.06.45.46.31,1.05.64,1.77,1,.72.36,1.58.7,2.6,1.01,1.02.31,2.2.47,3.53.47,1.01,0,1.93-.13,2.76-.4.84-.27,1.56-.66,2.16-1.14.6-.5,1.06-1.1,1.39-1.83.33-.72.49-1.53.49-2.45,0-.99-.23-1.84-.67-2.54-.45-.71-1.05-1.33-1.78-1.85-.74-.53-1.58-1.02-2.52-1.46-.95-.44-1.92-.89-2.91-1.35-.99-.45-1.95-.96-2.89-1.52-.94-.56-1.78-1.22-2.51-1.97-.74-.76-1.33-1.65-1.8-2.66-.46-1.01-.69-2.24-.69-3.67s.27-2.75.79-3.89c.53-1.14,1.27-2.11,2.22-2.88.94-.77,2.07-1.37,3.37-1.77,1.31-.41,2.71-.61,4.23-.61.77,0,1.55.06,2.33.2.78.13,1.52.31,2.21.54.69.22,1.31.48,1.85.75.53.29.89.51,1.06.68.17.17.28.31.34.41.05.09.09.23.13.38.04.15.07.33.09.55.01.21.02.5.02.84,0,.32-.01.61-.04.86-.02.25-.07.46-.12.64-.06.17-.13.29-.23.37-.1.08-.21.13-.34.13-.2,0-.51-.13-.93-.38-.42-.25-.94-.53-1.55-.85-.61-.33-1.33-.61-2.17-.87-.84-.26-1.78-.39-2.82-.39-.97,0-1.82.13-2.54.39-.72.27-1.31.61-1.78,1.04-.47.43-.81.94-1.05,1.54-.23.6-.35,1.23-.35,1.89,0,.96.23,1.8.68,2.5.45.71,1.05,1.33,1.79,1.87.75.54,1.6,1.04,2.55,1.48.96.45,1.93.91,2.92,1.37.99.46,1.96.96,2.92,1.51.95.56,1.8,1.2,2.55,1.95.75.76,1.35,1.64,1.81,2.65.45,1.01.68,2.21.68,3.6"/><path class="cls-1" d="m300.2,231.18c.05-2.34-.47-4.18-1.56-5.51-1.09-1.33-2.72-2-4.88-2-1.1,0-2.07.21-2.9.62-.83.42-1.53.96-2.1,1.65-.56.69-.99,1.48-1.31,2.39-.3.91-.47,1.85-.51,2.85h13.26Zm4.48,1.33c0,.7-.18,1.2-.53,1.49-.35.3-.75.45-1.21.45h-16.01c0,1.35.14,2.56.41,3.65.27,1.08.72,2.02,1.35,2.78.64.77,1.45,1.37,2.47,1.78,1.01.42,2.25.62,3.72.62,1.16,0,2.2-.1,3.1-.29.9-.18,1.69-.4,2.34-.64.67-.23,1.21-.44,1.63-.64.43-.19.75-.28.96-.28.13,0,.25.03.34.09.1.07.17.16.23.28.06.13.09.31.12.53.03.23.04.5.04.83,0,.24,0,.43-.03.62-.02.17-.04.32-.07.45-.03.13-.07.25-.14.37-.06.1-.14.21-.25.31-.09.1-.39.26-.87.49-.49.23-1.11.44-1.89.66-.77.22-1.67.42-2.68.58-1.02.17-2.11.26-3.25.26-2,0-3.75-.28-5.25-.84-1.5-.55-2.77-1.38-3.8-2.48-1.02-1.1-1.8-2.47-2.32-4.13-.52-1.66-.78-3.59-.78-5.79,0-2.09.27-3.96.81-5.63.54-1.66,1.32-3.08,2.33-4.24,1.02-1.16,2.25-2.06,3.69-2.68,1.44-.62,3.05-.93,4.83-.93,1.91,0,3.53.31,4.87.92,1.34.61,2.44,1.43,3.31,2.46.86,1.04,1.5,2.26,1.91,3.65.41,1.4.61,2.89.61,4.48v.81Z"/><path class="cls-1" d="m322.9,222.99c0,.4,0,.73-.03,1-.02.27-.05.48-.1.63-.06.16-.12.28-.21.35-.08.09-.19.12-.33.12-.15,0-.33-.04-.53-.12-.21-.08-.44-.17-.7-.24-.26-.08-.55-.16-.87-.23-.33-.07-.68-.1-1.06-.1-.45,0-.89.08-1.32.26-.43.19-.88.48-1.37.9-.47.41-.97.96-1.49,1.65-.52.68-1.1,1.52-1.73,2.51v15.99c0,.14-.04.27-.11.36-.07.1-.19.19-.35.26-.17.07-.39.12-.68.16-.29.03-.66.04-1.1.04s-.79-.02-1.08-.04c-.29-.04-.52-.1-.69-.16-.17-.07-.29-.16-.35-.26-.07-.09-.1-.22-.1-.36v-24.31c0-.14.03-.26.08-.36.06-.1.16-.19.33-.28.16-.08.37-.13.62-.16.26-.03.59-.04,1-.04s.73.01.98.04c.26.02.47.08.61.16.15.09.25.17.32.28.06.1.09.22.09.36v3.54c.67-.97,1.29-1.76,1.88-2.37.58-.62,1.13-1.09,1.66-1.45.52-.35,1.04-.59,1.55-.73.52-.14,1.03-.2,1.56-.2.23,0,.5.02.8.04.3.02.61.07.93.14.33.08.62.16.88.24.26.1.44.18.55.28.11.09.18.17.22.26.03.08.07.18.09.31.03.13.05.31.06.56,0,.24.01.57.01.98"/><path class="cls-1" d="m345.65,221.34c0,.08,0,.15-.01.24,0,.08-.02.17-.04.26-.02.09-.04.19-.06.29-.03.12-.06.23-.1.35l-8.29,23.08c-.07.2-.17.36-.28.49-.12.14-.29.23-.53.3-.23.07-.53.12-.89.15-.36.02-.81.04-1.35.04s-1-.02-1.35-.05c-.36-.04-.66-.1-.88-.17-.22-.07-.4-.17-.52-.3-.13-.12-.23-.27-.3-.46l-8.26-23.08c-.07-.22-.14-.4-.18-.56-.04-.16-.08-.29-.08-.37-.01-.08-.01-.15-.01-.2,0-.14.03-.27.1-.38.07-.11.19-.2.36-.26.17-.06.4-.11.68-.12.28-.01.63-.03,1.04-.03.52,0,.94.02,1.25.04.31.02.56.08.73.15.17.06.3.16.38.27.08.11.16.24.23.4l6.86,20.05.11.32.08-.32,6.78-20.05c.03-.16.1-.29.19-.4.09-.11.22-.21.39-.27.17-.07.4-.13.7-.15.3-.03.69-.04,1.18-.04.41,0,.76.02,1.03.03.27.02.48.07.64.14.15.07.26.16.33.26.06.1.09.22.09.36"/><path class="cls-1" d="m352.39,245.71c0,.14-.04.27-.1.36-.08.1-.19.19-.36.26-.16.07-.39.12-.68.16-.28.03-.66.05-1.1.05s-.79-.02-1.08-.05c-.29-.04-.52-.09-.69-.16-.17-.07-.29-.16-.35-.26-.06-.1-.1-.22-.1-.36v-24.31c0-.12.03-.25.1-.35.06-.11.18-.2.35-.27.17-.07.4-.13.69-.16.29-.03.65-.06,1.08-.06s.82.02,1.1.06c.29.04.52.09.68.16.17.07.28.17.36.27.07.1.1.22.1.35v24.31Zm.52-32.51c0,1.04-.2,1.75-.59,2.13-.4.39-1.13.58-2.19.58s-1.76-.19-2.15-.56c-.39-.37-.58-1.06-.58-2.09s.2-1.75.6-2.13c.39-.37,1.12-.57,2.18-.57s1.76.19,2.15.56c.39.37.58,1.06.58,2.1"/><path class="cls-1" d="m375.34,242c0,.31-.01.58-.03.8-.02.22-.05.42-.1.57-.04.16-.1.29-.16.41-.06.12-.21.29-.44.51-.22.23-.6.5-1.14.83-.54.34-1.15.64-1.82.9-.68.27-1.41.48-2.2.64-.79.16-1.61.25-2.45.25-1.75,0-3.3-.29-4.65-.87-1.35-.58-2.48-1.41-3.39-2.52-.91-1.1-1.6-2.46-2.08-4.07-.47-1.62-.72-3.48-.72-5.58,0-2.39.29-4.45.88-6.17.58-1.72,1.38-3.13,2.4-4.22,1.02-1.1,2.22-1.92,3.59-2.44,1.38-.53,2.87-.8,4.47-.8.78,0,1.52.08,2.26.21.73.15,1.4.34,2.01.57.61.23,1.15.5,1.64.81.47.31.82.56,1.04.78.21.22.36.39.45.52.08.13.15.27.2.45.06.17.09.36.11.57.02.22.03.5.03.82,0,.7-.08,1.19-.24,1.47-.16.27-.36.42-.59.42-.27,0-.58-.15-.94-.45-.35-.3-.79-.62-1.33-.98-.54-.36-1.19-.69-1.96-.99-.77-.3-1.67-.45-2.71-.45-2.15,0-3.79.82-4.93,2.47-1.14,1.65-1.71,4.03-1.71,7.17,0,1.56.15,2.94.45,4.11.3,1.18.73,2.17,1.31,2.96.57.78,1.28,1.37,2.12,1.76.84.39,1.79.58,2.88.58,1.02,0,1.92-.17,2.7-.49.77-.32,1.45-.69,2.01-1.07.57-.39,1.04-.74,1.43-1.05.39-.31.69-.47.9-.47.13,0,.23.03.33.1.09.08.17.19.23.37.06.17.11.39.14.66.02.26.04.57.04.92"/><path class="cls-1" d="m382.94,245.71c0,.14-.04.27-.11.36-.07.1-.19.19-.35.26-.16.07-.39.12-.68.16-.29.03-.65.05-1.1.05s-.79-.02-1.08-.05c-.28-.04-.51-.09-.69-.16-.17-.07-.28-.16-.35-.26-.06-.1-.1-.22-.1-.36v-24.31c0-.12.04-.25.1-.35.07-.11.18-.2.35-.27.18-.07.41-.13.69-.16.29-.03.65-.06,1.08-.06s.82.02,1.1.06c.29.04.52.09.68.16.16.07.28.17.35.27.07.1.11.22.11.35v24.31Zm.52-32.51c0,1.04-.2,1.75-.6,2.13-.39.39-1.12.58-2.19.58s-1.76-.19-2.15-.56c-.39-.37-.58-1.06-.58-2.09s.2-1.75.6-2.13c.39-.37,1.12-.57,2.19-.57s1.76.19,2.15.56c.39.37.58,1.06.58,2.1"/><path class="cls-1" d="m406.4,233.58c0-1.31-.12-2.56-.37-3.73-.25-1.17-.65-2.19-1.21-3.07-.56-.88-1.33-1.58-2.29-2.09-.96-.52-2.16-.77-3.6-.77-1.32,0-2.46.24-3.42.71-.96.46-1.74,1.12-2.36,1.99-.62.85-1.08,1.87-1.37,3.03-.3,1.17-.45,2.45-.45,3.84s.13,2.59.37,3.75c.24,1.18.66,2.2,1.23,3.07.57.87,1.34,1.56,2.3,2.08.96.51,2.16.77,3.6.77,1.31,0,2.44-.23,3.41-.71.96-.46,1.75-1.12,2.37-1.97.62-.85,1.07-1.85,1.36-3.02.29-1.17.44-2.45.44-3.86m4.61-.3c0,1.98-.26,3.81-.78,5.47-.53,1.66-1.3,3.1-2.34,4.3-1.03,1.21-2.33,2.15-3.89,2.82-1.55.68-3.36,1.01-5.41,1.01s-3.74-.3-5.22-.9c-1.49-.6-2.72-1.45-3.72-2.59-.99-1.13-1.73-2.51-2.21-4.13-.49-1.62-.73-3.46-.73-5.51s.26-3.8.77-5.46c.51-1.67,1.28-3.11,2.32-4.31,1.04-1.21,2.33-2.14,3.87-2.81,1.55-.67,3.36-1,5.43-1s3.74.3,5.23.89c1.49.6,2.72,1.46,3.71,2.59.99,1.14,1.73,2.51,2.23,4.14.5,1.62.74,3.45.74,5.48"/><path class="cls-1" d="m430.07,239.08c0,1.25-.23,2.35-.69,3.33-.46.97-1.11,1.79-1.96,2.46-.85.66-1.86,1.17-3.03,1.51-1.17.34-2.46.51-3.86.51-.86,0-1.69-.06-2.47-.2-.79-.14-1.49-.31-2.11-.51-.62-.2-1.15-.43-1.58-.65-.43-.22-.74-.43-.94-.61-.19-.18-.34-.44-.43-.75-.1-.33-.14-.76-.14-1.33,0-.34.02-.64.05-.86.03-.24.08-.43.14-.57.05-.15.13-.25.23-.31.1-.06.21-.09.34-.09.2,0,.49.12.88.37.39.24.86.5,1.43.79.56.29,1.23.56,2.01.79.78.24,1.66.37,2.67.37.76,0,1.44-.09,2.05-.25.61-.17,1.14-.4,1.59-.72.45-.32.8-.71,1.04-1.2.24-.49.37-1.06.37-1.73s-.18-1.27-.53-1.74c-.35-.46-.81-.88-1.39-1.24-.58-.35-1.23-.68-1.94-.96-.72-.27-1.47-.57-2.23-.87-.77-.31-1.51-.66-2.25-1.04-.73-.4-1.38-.86-1.95-1.42-.58-.55-1.04-1.22-1.39-1.99-.35-.77-.53-1.7-.53-2.78,0-.95.18-1.87.56-2.74.38-.87.92-1.64,1.66-2.29.73-.67,1.66-1.19,2.77-1.59,1.1-.39,2.39-.6,3.87-.6.65,0,1.29.06,1.94.17.65.11,1.23.24,1.75.41.52.16.97.33,1.34.52.37.2.65.36.83.5.19.15.32.28.38.38.06.11.11.24.14.37.03.13.05.31.08.5.02.2.04.44.04.73s-.02.56-.04.79c-.03.23-.07.41-.14.56-.06.14-.14.24-.23.31-.09.06-.19.09-.3.09-.16,0-.39-.1-.7-.29-.3-.2-.7-.41-1.19-.63-.49-.23-1.06-.44-1.71-.64-.66-.2-1.41-.3-2.26-.3-.76,0-1.42.09-2,.26-.57.17-1.05.41-1.42.72-.37.31-.65.69-.83,1.12-.19.43-.29.9-.29,1.4,0,.7.19,1.29.54,1.77.36.48.82.9,1.4,1.26.58.35,1.23.68,1.97.96.74.29,1.49.59,2.26.9.76.3,1.52.65,2.26,1.03.76.38,1.41.83,1.99,1.37.58.54,1.04,1.19,1.39,1.94.35.76.52,1.66.52,2.7"/><path class="cls-2" d="m462.29,213.43c0,.35-.02.64-.05.89-.04.25-.1.46-.19.6-.09.16-.19.27-.31.35-.12.07-.24.1-.36.1h-12.8v11.88h12.1c.13,0,.25.03.36.1.12.06.22.17.31.31.09.15.15.35.19.58.03.25.05.56.05.93,0,.35-.02.64-.05.88-.04.24-.1.44-.19.6-.09.15-.19.27-.31.35-.11.08-.23.12-.36.12h-12.1v14.55c0,.14-.04.25-.11.37-.07.12-.2.21-.38.27-.18.06-.42.12-.7.16-.29.04-.67.06-1.14.06-.43,0-.8-.02-1.11-.06-.31-.05-.55-.1-.73-.16-.18-.06-.31-.15-.38-.27-.07-.12-.11-.23-.11-.37v-32.34c0-.71.19-1.19.55-1.48.38-.27.76-.41,1.18-.41h15.71c.12,0,.24.04.36.11.12.07.22.19.31.35.09.16.15.38.19.64.03.27.05.57.05.9"/><path class="cls-2" d="m470.51,245.71c0,.14-.04.27-.1.36-.07.1-.19.19-.35.26-.16.07-.39.12-.68.16-.29.03-.66.05-1.11.05s-.79-.02-1.08-.05c-.29-.04-.52-.09-.69-.16-.17-.07-.29-.16-.35-.26-.07-.1-.09-.22-.09-.36v-24.31c0-.12.02-.25.09-.35.06-.11.18-.2.35-.27.17-.07.4-.13.69-.16.29-.03.65-.06,1.08-.06s.82.02,1.11.06c.29.04.51.09.68.16.16.07.28.17.35.27.07.1.1.22.1.35v24.31Zm.52-32.51c0,1.04-.2,1.75-.6,2.13-.4.39-1.12.58-2.18.58s-1.76-.19-2.15-.56c-.38-.37-.58-1.06-.58-2.09s.2-1.75.6-2.13c.39-.37,1.12-.57,2.18-.57s1.76.19,2.14.56c.39.37.58,1.06.58,2.1"/><path class="cls-2" d="m496.91,245.71c0,.14-.04.26-.11.36-.07.1-.19.19-.35.26-.16.07-.38.13-.68.17-.28.03-.65.05-1.08.05s-.82-.02-1.1-.05c-.29-.04-.52-.09-.68-.17-.16-.07-.28-.16-.35-.26-.07-.1-.11-.22-.11-.36v-14.23c0-1.39-.11-2.5-.32-3.35-.22-.85-.53-1.58-.95-2.19-.41-.6-.95-1.08-1.61-1.4-.66-.32-1.41-.49-2.28-.49-1.11,0-2.23.39-3.35,1.18-1.12.79-2.29,1.96-3.51,3.48v17c0,.14-.04.26-.1.36-.07.1-.19.19-.35.26-.16.07-.39.13-.68.17-.29.03-.66.05-1.1.05s-.79-.02-1.08-.05c-.29-.04-.52-.09-.69-.17-.16-.07-.28-.16-.35-.26-.06-.1-.1-.22-.1-.36v-24.31c0-.14.03-.26.09-.36.05-.1.16-.19.32-.27.16-.08.37-.13.62-.16.25-.03.59-.05,1-.05.39,0,.72.02.98.05.26.02.47.08.6.16.15.08.25.17.32.27.06.1.09.22.09.36v3.22c1.37-1.53,2.73-2.65,4.09-3.37,1.36-.71,2.73-1.07,4.12-1.07,1.62,0,2.98.29,4.09.83,1.11.54,2,1.28,2.68,2.2.68.91,1.17,1.99,1.47,3.23.29,1.23.44,2.72.44,4.44v14.83Z"/><path class="cls-2" d="m516.15,234.63h-3.81c-1.22,0-2.29.1-3.18.31-.9.21-1.64.51-2.24.91-.6.41-1.03.9-1.31,1.47-.28.56-.42,1.22-.42,1.96,0,1.25.4,2.26,1.2,3.01.8.75,1.92,1.12,3.36,1.12,1.17,0,2.25-.3,3.25-.89,1-.6,2.05-1.51,3.15-2.73v-5.16Zm4.43,11.1c0,.22-.07.39-.22.49-.14.11-.34.19-.59.25-.26.05-.62.08-1.11.08s-.84-.02-1.12-.08c-.28-.06-.48-.14-.61-.25-.13-.1-.19-.27-.19-.49v-2.43c-1.06,1.14-2.24,2.02-3.55,2.65-1.3.62-2.68.94-4.14.94-1.28,0-2.44-.17-3.47-.5-1.04-.33-1.92-.81-2.65-1.43-.73-.64-1.3-1.41-1.7-2.33-.4-.91-.61-1.97-.61-3.13,0-1.37.28-2.55.83-3.56.56-1.01,1.37-1.84,2.41-2.51,1.04-.67,2.32-1.16,3.83-1.5,1.51-.33,3.21-.5,5.1-.5h3.35v-1.88c0-.94-.1-1.77-.3-2.49-.2-.72-.52-1.31-.96-1.79-.44-.48-1.01-.84-1.71-1.08-.7-.25-1.57-.36-2.59-.36-1.1,0-2.09.12-2.96.39-.88.27-1.64.55-2.3.87-.66.32-1.21.61-1.65.86-.44.26-.77.39-.98.39-.15,0-.27-.04-.38-.11-.11-.07-.21-.19-.29-.33-.08-.15-.14-.33-.17-.56-.04-.23-.06-.47-.06-.74,0-.45.03-.81.1-1.06.06-.27.21-.51.46-.75.24-.24.66-.51,1.25-.82.59-.31,1.28-.6,2.05-.87.77-.25,1.62-.47,2.54-.64.92-.17,1.84-.26,2.78-.26,1.74,0,3.23.2,4.46.6,1.22.4,2.22.98,2.97,1.74.75.77,1.3,1.72,1.65,2.85.34,1.14.51,2.45.51,3.97v16.39Z"/><path class="cls-2" d="m546.93,245.71c0,.14-.04.26-.1.36-.08.1-.19.19-.35.26-.17.07-.39.13-.68.17-.29.03-.65.05-1.07.05-.46,0-.82-.02-1.11-.05-.29-.04-.52-.09-.68-.17-.16-.07-.28-.16-.35-.26-.07-.1-.11-.22-.11-.36v-14.23c0-1.39-.11-2.5-.32-3.35-.22-.85-.53-1.58-.94-2.19-.41-.6-.95-1.08-1.61-1.4-.66-.32-1.42-.49-2.29-.49-1.11,0-2.23.39-3.35,1.18-1.11.79-2.28,1.96-3.51,3.48v17c0,.14-.04.26-.11.36-.07.1-.19.19-.35.26-.16.07-.39.13-.68.17-.29.03-.66.05-1.11.05s-.8-.02-1.08-.05c-.29-.04-.52-.09-.69-.17-.17-.07-.28-.16-.35-.26-.06-.1-.09-.22-.09-.36v-24.31c0-.14.02-.26.08-.36.06-.1.17-.19.32-.27.17-.08.37-.13.63-.16.25-.03.59-.05,1-.05.39,0,.72.02.98.05.26.02.46.08.6.16.15.08.25.17.32.27.06.1.09.22.09.36v3.22c1.37-1.53,2.73-2.65,4.09-3.37,1.36-.71,2.74-1.07,4.12-1.07,1.62,0,2.99.29,4.09.83,1.11.54,2.01,1.28,2.69,2.2.68.91,1.18,1.99,1.47,3.23.3,1.23.45,2.72.45,4.44v14.83Z"/><path class="cls-2" d="m569.76,242c0,.31,0,.58-.03.8-.02.22-.05.42-.1.57-.05.16-.1.29-.16.41-.06.12-.21.29-.43.51-.23.23-.61.5-1.15.83-.54.34-1.15.64-1.83.9-.68.27-1.41.48-2.2.64-.8.16-1.62.25-2.46.25-1.74,0-3.29-.29-4.64-.87-1.35-.58-2.49-1.41-3.39-2.52-.91-1.1-1.61-2.46-2.08-4.07-.48-1.62-.72-3.48-.72-5.58,0-2.39.29-4.45.88-6.17.58-1.72,1.39-3.13,2.4-4.22,1.02-1.1,2.22-1.92,3.59-2.44,1.38-.53,2.87-.8,4.47-.8.78,0,1.53.08,2.26.21.73.15,1.4.34,2.01.57.62.23,1.16.5,1.64.81.48.31.82.56,1.04.78.22.22.37.39.45.52.08.13.15.27.2.45.06.17.09.36.11.57.02.22.03.5.03.82,0,.7-.08,1.19-.25,1.47-.16.27-.36.42-.59.42-.27,0-.58-.15-.93-.45-.35-.3-.8-.62-1.34-.98-.54-.36-1.19-.69-1.96-.99-.76-.3-1.67-.45-2.71-.45-2.14,0-3.78.82-4.93,2.47-1.14,1.65-1.72,4.03-1.72,7.17,0,1.56.15,2.94.45,4.11.3,1.18.73,2.17,1.31,2.96.57.78,1.28,1.37,2.12,1.76.84.39,1.8.58,2.88.58s1.93-.17,2.7-.49c.77-.32,1.44-.69,2.01-1.07.56-.39,1.05-.74,1.43-1.05.39-.31.69-.47.9-.47.13,0,.23.03.32.1.09.08.17.19.23.37.06.17.11.39.14.66.03.26.04.57.04.92"/><path class="cls-2" d="m577.37,245.71c0,.14-.04.27-.11.36-.08.1-.19.19-.35.26-.16.07-.39.12-.68.16-.29.03-.66.05-1.11.05s-.79-.02-1.08-.05c-.29-.04-.52-.09-.69-.16-.17-.07-.29-.16-.35-.26-.06-.1-.1-.22-.1-.36v-24.31c0-.12.03-.25.1-.35.06-.11.18-.2.35-.27.17-.07.4-.13.69-.16.29-.03.65-.06,1.08-.06s.82.02,1.11.06c.29.04.51.09.68.16.16.07.28.17.35.27.07.1.11.22.11.35v24.31Zm.51-32.51c0,1.04-.2,1.75-.59,2.13-.39.39-1.12.58-2.19.58s-1.76-.19-2.15-.56c-.39-.37-.58-1.06-.58-2.09s.2-1.75.59-2.13c.4-.37,1.13-.57,2.19-.57s1.76.19,2.14.56c.4.37.58,1.06.58,2.1"/><path class="cls-2" d="m599.1,231.18c.05-2.34-.47-4.18-1.57-5.51-1.09-1.33-2.72-2-4.88-2-1.1,0-2.07.21-2.9.62-.83.42-1.54.96-2.1,1.65-.56.69-.99,1.48-1.3,2.39-.31.91-.48,1.85-.52,2.85h13.26Zm4.48,1.33c0,.7-.18,1.2-.53,1.49-.35.3-.75.45-1.21.45h-16c0,1.35.13,2.56.41,3.65.27,1.08.72,2.02,1.36,2.78.63.77,1.45,1.37,2.47,1.78,1.01.42,2.25.62,3.72.62,1.16,0,2.19-.1,3.1-.29.9-.18,1.68-.4,2.34-.64.66-.23,1.2-.44,1.63-.64.43-.19.75-.28.96-.28.13,0,.25.03.34.09.1.07.17.16.23.28.06.13.1.31.12.53.03.23.04.5.04.83,0,.24,0,.43-.03.62-.02.17-.04.32-.06.45-.03.13-.07.25-.13.37-.07.1-.15.21-.25.31-.1.1-.39.26-.87.49-.49.23-1.11.44-1.89.66-.77.22-1.67.42-2.68.58-1.02.17-2.11.26-3.25.26-2,0-3.76-.28-5.25-.84-1.51-.55-2.77-1.38-3.79-2.48-1.03-1.1-1.8-2.47-2.32-4.13-.53-1.66-.78-3.59-.78-5.79,0-2.09.27-3.96.81-5.63.54-1.66,1.32-3.08,2.34-4.24,1.01-1.16,2.24-2.06,3.69-2.68,1.44-.62,3.05-.93,4.83-.93,1.9,0,3.53.31,4.87.92,1.34.61,2.44,1.43,3.31,2.46.86,1.04,1.5,2.26,1.9,3.65.4,1.4.61,2.89.61,4.48v.81Z"/><path class="cls-2" d="m621.79,222.99c0,.4,0,.73-.03,1-.02.27-.05.48-.1.63-.06.16-.13.28-.21.35-.08.09-.2.12-.34.12s-.32-.04-.53-.12c-.21-.08-.44-.17-.7-.24-.26-.08-.56-.16-.88-.23-.33-.07-.68-.1-1.06-.1-.45,0-.89.08-1.32.26-.43.19-.88.48-1.36.9-.48.41-.98.96-1.5,1.65-.52.68-1.09,1.52-1.73,2.51v15.99c0,.14-.04.27-.11.36-.07.1-.19.19-.35.26-.16.07-.38.12-.67.16-.29.03-.66.04-1.1.04s-.79-.02-1.08-.04c-.29-.04-.52-.1-.69-.16-.17-.07-.29-.16-.35-.26-.06-.09-.1-.22-.1-.36v-24.31c0-.14.03-.26.08-.36.06-.1.16-.19.32-.28.16-.08.37-.13.62-.16.26-.03.59-.04,1-.04s.73.01.99.04c.26.02.46.08.61.16.15.09.25.17.31.28.06.1.09.22.09.36v3.54c.67-.97,1.29-1.76,1.88-2.37.59-.62,1.13-1.09,1.66-1.45.52-.35,1.04-.59,1.55-.73.52-.14,1.03-.2,1.56-.2.23,0,.5.02.79.04.3.02.61.07.93.14.32.08.62.16.88.24.26.1.45.18.56.28.1.09.18.17.21.26.04.08.07.18.09.31.03.13.05.31.06.56.02.24.02.57.02.98"/><path class="cls-2" d="m641.2,233.58c0-1.31-.13-2.56-.37-3.73-.25-1.17-.65-2.19-1.22-3.07-.56-.88-1.32-1.58-2.29-2.09-.96-.52-2.16-.77-3.59-.77-1.33,0-2.47.24-3.42.71-.96.46-1.75,1.12-2.36,1.99-.62.85-1.08,1.87-1.38,3.03-.3,1.17-.45,2.45-.45,3.84s.13,2.59.37,3.75c.25,1.18.65,2.2,1.23,3.07.58.87,1.33,1.56,2.3,2.08.97.51,2.17.77,3.61.77,1.3,0,2.44-.23,3.41-.71.96-.46,1.75-1.12,2.36-1.97.62-.85,1.08-1.85,1.37-3.02.29-1.17.44-2.45.44-3.86m4.61-.3c0,1.98-.26,3.81-.78,5.47-.52,1.66-1.3,3.1-2.33,4.3-1.04,1.21-2.33,2.15-3.89,2.82-1.56.68-3.36,1.01-5.41,1.01s-3.74-.3-5.23-.9c-1.48-.6-2.72-1.45-3.71-2.59-.99-1.13-1.73-2.51-2.21-4.13-.49-1.62-.73-3.46-.73-5.51s.25-3.8.77-5.46c.51-1.67,1.29-3.11,2.31-4.31,1.04-1.21,2.33-2.14,3.88-2.81,1.54-.67,3.36-1,5.43-1s3.74.3,5.22.89c1.49.6,2.72,1.46,3.72,2.59.99,1.14,1.72,2.51,2.22,4.14.5,1.62.75,3.45.75,5.48"/><path class="cls-2" d="m664.87,239.08c0,1.25-.24,2.35-.69,3.33-.45.97-1.11,1.79-1.95,2.46-.85.66-1.86,1.17-3.03,1.51-1.17.34-2.45.51-3.86.51-.86,0-1.69-.06-2.46-.2-.8-.14-1.49-.31-2.11-.51-.62-.2-1.14-.43-1.58-.65-.43-.22-.75-.43-.95-.61-.19-.18-.34-.44-.42-.75-.1-.33-.14-.76-.14-1.33,0-.34.02-.64.05-.86.03-.24.09-.43.14-.57.05-.15.13-.25.23-.31.11-.06.21-.09.35-.09.2,0,.48.12.87.37.39.24.86.5,1.43.79.56.29,1.23.56,2.01.79.78.24,1.66.37,2.67.37.76,0,1.45-.09,2.06-.25.62-.17,1.15-.4,1.6-.72.45-.32.79-.71,1.03-1.2.25-.49.37-1.06.37-1.73s-.17-1.27-.53-1.74c-.35-.46-.82-.88-1.4-1.24-.57-.35-1.22-.68-1.94-.96-.72-.27-1.47-.57-2.23-.87-.77-.31-1.51-.66-2.25-1.04-.73-.4-1.38-.86-1.95-1.42-.58-.55-1.04-1.22-1.39-1.99-.36-.77-.53-1.7-.53-2.78,0-.95.18-1.87.55-2.74.37-.87.92-1.64,1.66-2.29.74-.67,1.66-1.19,2.77-1.59,1.11-.39,2.39-.6,3.87-.6.65,0,1.3.06,1.95.17.64.11,1.23.24,1.75.41.53.16.96.33,1.34.52.37.2.65.36.83.5.19.15.31.28.39.38.07.11.11.24.13.37.03.13.06.31.08.5.03.2.04.44.04.73s0,.56-.04.79c-.02.23-.07.41-.14.56-.06.14-.14.24-.23.31-.1.06-.19.09-.3.09-.16,0-.39-.1-.7-.29-.31-.2-.71-.41-1.19-.63-.48-.23-1.06-.44-1.72-.64-.65-.2-1.41-.3-2.25-.3-.75,0-1.42.09-1.99.26-.58.17-1.05.41-1.42.72-.37.31-.65.69-.83,1.12-.2.43-.29.9-.29,1.4,0,.7.18,1.29.54,1.77.36.48.83.9,1.41,1.26.58.35,1.23.68,1.97.96.74.29,1.49.59,2.26.9.77.3,1.52.65,2.27,1.03.75.38,1.41.83,1.99,1.37.58.54,1.03,1.19,1.39,1.94.35.76.53,1.66.53,2.7"/><path class="cls-2" d="m654.26,38.32h-128.32c.09.07.22.15.28.24.28.28.48.64.59,1.09.12.45.17.96.17,1.52,0,.17-.03.5-.08.97-.05.48-.14,1.01-.25,1.61-.11.59-.24,1.21-.39,1.9-.13.68-.32,1.29-.54,1.81-.23.54-.5.98-.8,1.31-.32.35-.64.51-.98.51-.4,0-.84-.09-1.35-.25-.52-.17-1.11-.35-1.82-.55-.7-.2-1.52-.4-2.45-.6-.93-.2-2.01-.29-3.25-.29-2.31,0-4.3.37-5.96,1.09-1.66.74-3.07,1.88-4.22,3.42-1.15,1.55-2.16,3.52-3.01,5.88-.84,2.37-1.57,5.16-2.19,8.37l-3.22,14.13h43.86c1.52,0,2.53.39,3,1.18.48.79.61,1.84.38,3.13l-14.7,73.96c-.12.46-.32.83-.6,1.14-.28.31-.72.58-1.31.81-.59.22-1.35.39-2.28.5-.93.11-2.07.16-3.43.16s-2.46-.06-3.33-.16c-.88-.11-1.54-.28-1.99-.5-.44-.22-.76-.49-.92-.81-.17-.31-.23-.68-.17-1.14l13.35-66.69h-34.23l-16.45,77.96c-.95,4.73-2.25,8.83-3.89,12.3-1.63,3.46-3.64,6.34-6,8.62-1.46,1.41-3.08,2.58-4.82,3.52,1.85.21,4.04.33,6.48.33h184.86c9.86,0,17.94-8.07,17.94-17.94V56.25c0-9.86-8.08-17.93-17.94-17.93"/><path class="cls-3" d="m220.12,158.75c-.12.45-.31.83-.59,1.14-.29.31-.71.58-1.27.81-.56.22-1.31.39-2.24.5-.93.11-2.07.17-3.42.17s-2.55-.05-3.42-.17c-.88-.11-1.55-.28-2.03-.5-.49-.23-.79-.5-.94-.81-.14-.31-.15-.68-.04-1.14l15.13-76.08c.06-.39.23-.75.5-1.09.28-.34.71-.62,1.27-.85.56-.22,1.31-.4,2.24-.5.93-.12,2.1-.17,3.51-.17s2.46.06,3.34.17c.87.1,1.55.28,2.03.5.47.23.79.51.93.85.14.34.18.7.13,1.09l-15.13,76.08Z"/><path class="cls-3" d="m311.53,99.5c0,1.98-.11,3.93-.33,5.83-.22,1.92-.53,3.89-.92,5.92l-9.55,47.5c-.12.45-.3.83-.55,1.14-.26.31-.67.58-1.26.81-.59.22-1.34.4-2.24.5-.9.11-2.06.17-3.47.17s-2.47-.06-3.34-.17c-.87-.11-1.55-.28-2.03-.5-.49-.22-.79-.49-.93-.81-.14-.31-.19-.68-.13-1.14l9.38-46.99c.4-1.75.66-3.44.81-5.07.14-1.64.21-3.07.21-4.31,0-3.44-.74-6.21-2.2-8.33-1.46-2.11-3.91-3.18-7.36-3.18-2.98,0-6.04.86-9.16,2.58-3.13,1.71-6.03,4.08-8.71,7.1-2.67,3.01-5.07,6.59-7.18,10.73-2.11,4.14-3.65,8.64-4.61,13.48l-6.76,33.98c-.12.45-.31.83-.6,1.14-.28.31-.7.58-1.27.81-.56.22-1.31.4-2.24.5-.93.11-2.07.17-3.43.17s-2.54-.06-3.42-.17c-.88-.11-1.55-.28-2.03-.5-.47-.22-.79-.49-.94-.81-.14-.31-.14-.68-.03-1.14l15.29-76.15c.05-.4.22-.77.47-1.1.25-.34.65-.62,1.18-.85.53-.22,1.21-.37,2.03-.46.82-.08,1.79-.12,2.92-.12,1.18,0,2.16.04,2.92.12.76.09,1.35.25,1.77.46.42.23.69.51.81.85.1.33.14.71.08,1.1l-2.87,14.53c.85-1.92,2.23-3.95,4.15-6.09,1.91-2.14,4.19-4.11,6.84-5.91,2.64-1.8,5.57-3.31,8.75-4.48,3.19-1.18,6.49-1.77,9.93-1.77,3.78,0,6.93.58,9.46,1.74,2.53,1.15,4.59,2.67,6.17,4.56,1.58,1.89,2.71,4.07,3.38,6.56.68,2.47,1.01,5.07,1.01,7.77"/><path class="cls-3" d="m384.28,89.37c0,1.01-.1,2.06-.29,3.12-.21,1.07-.5,2.07-.88,3-.4.94-.86,1.7-1.4,2.33-.54.62-1.14.93-1.83.93-.79,0-1.6-.42-2.44-1.23-.85-.81-1.96-1.73-3.34-2.74-1.38-1.01-3.13-1.94-5.24-2.79-2.12-.84-4.81-1.27-8.08-1.27-3.61,0-6.81.75-9.6,2.25-2.78,1.49-5.2,3.44-7.26,5.83-2.05,2.4-3.76,5.11-5.11,8.15-1.35,3.05-2.45,6.12-3.3,9.22-.85,3.1-1.45,6.1-1.82,9-.37,2.91-.55,5.43-.55,7.57,0,5.8,1.26,10.19,3.8,13.18,2.53,2.99,6.31,4.49,11.33,4.49,3.66,0,6.81-.46,9.43-1.36,2.61-.89,4.84-1.92,6.67-3.08,1.83-1.15,3.33-2.18,4.52-3.08,1.18-.9,2.23-1.36,3.13-1.36.44,0,.8.22,1.06.64.25.42.37,1.03.37,1.82,0,.67-.05,1.48-.16,2.41-.12.92-.29,1.88-.55,2.87-.25.98-.57,1.9-.93,2.74-.36.86-.87,1.62-1.56,2.33-.67.71-1.85,1.56-3.56,2.58-1.68,1.02-3.64,1.93-5.86,2.74-2.23.83-4.64,1.49-7.22,2.03-2.6.54-5.28.81-8.04.81-9.06,0-15.84-2.31-20.33-6.93-4.48-4.63-6.72-11.49-6.72-20.63,0-3.43.29-7.19.89-11.28.6-4.08,1.58-8.2,3-12.35,1.4-4.13,3.21-8.15,5.41-12.04,2.2-3.88,4.91-7.33,8.11-10.36,3.21-3.01,6.94-5.42,11.16-7.22,4.23-1.81,9.07-2.7,14.54-2.7,2.25,0,4.41.18,6.5.54,2.08.37,4.04.86,5.88,1.48,1.83.62,3.49,1.41,4.99,2.33,1.49.93,2.64,1.76,3.46,2.49.82.74,1.32,1.36,1.53,1.87.2.49.29,1.06.29,1.69"/><path class="cls-3" d="m441.89,108.72c0-2.81-.3-5.35-.88-7.61-.59-2.25-1.59-4.15-2.97-5.71-1.37-1.54-3.18-2.74-5.4-3.59-2.23-.85-4.93-1.27-8.07-1.27-3.39,0-6.46.61-9.22,1.83-2.76,1.2-5.22,2.84-7.4,4.89-2.17,2.06-4.05,4.47-5.66,7.23-1.61,2.76-2.94,5.7-3.97,8.83-1.05,3.13-1.82,6.34-2.33,9.64-.51,3.29-.76,6.52-.76,9.68,0,2.82.31,5.35.93,7.61.63,2.25,1.63,4.17,3,5.74,1.38,1.58,3.16,2.8,5.36,3.64,2.2.85,4.88,1.27,8.03,1.27,3.44,0,6.53-.61,9.27-1.82,2.73-1.21,5.18-2.86,7.35-4.95,2.17-2.08,4.06-4.51,5.67-7.27,1.61-2.76,2.93-5.71,3.97-8.88,1.04-3.15,1.81-6.37,2.32-9.63.51-3.27.76-6.48.76-9.64m14.71-.85c0,4.17-.4,8.43-1.19,12.77-.79,4.33-1.99,8.52-3.59,12.54-1.61,4.03-3.65,7.82-6.13,11.37-2.48,3.55-5.4,6.65-8.75,9.3-3.36,2.65-7.16,4.75-11.42,6.3-4.25,1.55-9,2.32-14.24,2.32s-10.04-.65-13.9-1.95c-3.85-1.29-7.02-3.18-9.51-5.67-2.47-2.47-4.31-5.52-5.49-9.12-1.18-3.61-1.78-7.69-1.78-12.26,0-4.17.38-8.42,1.14-12.76.76-4.34,1.95-8.5,3.59-12.5,1.64-4,3.68-7.8,6.13-11.37,2.45-3.58,5.36-6.69,8.71-9.33,3.35-2.66,7.16-4.75,11.41-6.31,4.25-1.55,9-2.32,14.24-2.32s10.04.67,13.9,1.99c3.86,1.33,7.04,3.23,9.56,5.71,2.5,2.48,4.35,5.52,5.53,9.13,1.18,3.61,1.78,7.67,1.78,12.16"/><path class="cls-3" d="m620.41,99.5c0,1.98-.11,3.93-.34,5.83-.23,1.92-.54,3.89-.93,5.92l-9.55,47.5c-.12.45-.29.83-.56,1.14-.25.31-.67.58-1.27.81-.59.22-1.33.4-2.23.5-.9.11-2.06.17-3.47.17s-2.47-.06-3.33-.17c-.88-.11-1.55-.28-2.04-.5-.48-.22-.79-.49-.93-.81-.14-.31-.18-.68-.13-1.14l9.39-46.99c.39-1.75.66-3.44.81-5.07.13-1.64.21-3.07.21-4.31,0-3.44-.74-6.21-2.2-8.33-1.46-2.11-3.91-3.18-7.36-3.18-2.98,0-6.04.86-9.17,2.58-3.13,1.71-6.03,4.08-8.71,7.1-2.67,3.01-5.07,6.59-7.18,10.73-2.11,4.14-3.65,8.64-4.6,13.48l-6.77,33.98c-.11.45-.31.83-.59,1.14-.29.31-.71.58-1.27.81-.57.22-1.31.4-2.24.5-.92.11-2.07.17-3.42.17-1.41,0-2.55-.06-3.42-.17-.88-.11-1.55-.28-2.03-.5-.48-.22-.8-.49-.93-.81-.14-.31-.17-.68-.04-1.14l15.3-76.15c.06-.4.21-.77.47-1.1.25-.34.65-.62,1.18-.85.54-.22,1.22-.37,2.03-.46.82-.08,1.79-.12,2.91-.12,1.19,0,2.16.04,2.92.12.75.09,1.35.25,1.77.46.42.23.69.51.8.85.12.33.14.71.08,1.1l-2.87,14.53c.85-1.92,2.23-3.95,4.14-6.09,1.91-2.14,4.2-4.11,6.85-5.91,2.64-1.8,5.55-3.31,8.74-4.48,3.18-1.18,6.49-1.77,9.93-1.77,3.78,0,6.93.58,9.46,1.74,2.53,1.15,4.59,2.67,6.17,4.56,1.58,1.89,2.7,4.07,3.38,6.56.67,2.47,1.01,5.07,1.01,7.77"/><path class="cls-3" d="m238.89,65.91c-.25,1.41-.59,2.58-1.01,3.54-.42.95-.99,1.71-1.7,2.28-.7.58-1.58,1-2.62,1.24-1.06.25-2.33.38-3.84.38s-2.65-.13-3.61-.38c-.95-.25-1.65-.66-2.11-1.24-.45-.57-.7-1.33-.75-2.28-.05-.96.05-2.13.3-3.54.3-1.39.68-2.56,1.13-3.49.46-.93,1.02-1.7,1.7-2.32.68-.63,1.53-1.05,2.59-1.28,1.05-.22,2.33-.33,3.84-.33s2.63.11,3.56.33c.93.23,1.64.65,2.11,1.28.48.63.74,1.4.79,2.32.05.93-.07,2.1-.37,3.49"/><path class="cls-3" d="m548.89,65.91c-.25,1.41-.58,2.58-1.02,3.54-.42.95-.99,1.71-1.68,2.28-.71.58-1.58,1-2.63,1.24-1.05.25-2.33.38-3.83.38s-2.65-.13-3.61-.38c-.95-.25-1.65-.66-2.1-1.24-.45-.57-.7-1.33-.76-2.28-.05-.96.05-2.13.3-3.54.3-1.39.67-2.56,1.12-3.49.45-.93,1.02-1.7,1.7-2.32.67-.63,1.53-1.05,2.59-1.28,1.05-.22,2.32-.33,3.83-.33s2.64.11,3.57.33c.93.23,1.63.65,2.1,1.28.48.63.74,1.4.8,2.32.05.93-.08,2.1-.38,3.49"/><path class="cls-3" d="m540.32,80.49c1.53,0,2.53.39,3,1.18.49.79.61,1.84.38,3.13l-14.71,73.96c-.12.45-.31.83-.59,1.14-.28.31-.72.58-1.31.81-.59.22-1.35.4-2.28.5-.93.11-2.07.16-3.42.16s-2.46-.06-3.34-.16c-.87-.11-1.53-.28-1.99-.5-.44-.23-.76-.49-.92-.81-.17-.31-.23-.68-.17-1.14l13.35-66.69h-34.23l-16.44,77.96c-.96,4.74-2.26,8.83-3.89,12.3-1.63,3.46-3.63,6.34-6,8.62-2.36,2.29-5.09,3.97-8.2,5.07-3.09,1.1-6.58,1.66-10.47,1.66-2.54,0-4.61-.2-6.22-.6-1.6-.39-2.6-.76-3-1.11-.23-.28-.4-.59-.51-.92-.1-.34-.17-.78-.17-1.35,0-.23.04-.6.13-1.14.08-.54.18-1.1.29-1.69.11-.6.25-1.22.42-1.86.17-.66.37-1.26.6-1.82.22-.56.47-1.01.76-1.36.29-.33.62-.5,1.01-.5s.77.04,1.14.13c.37.09.76.17,1.18.26.43.08.93.17,1.52.24.6.09,1.34.13,2.25.13,2.37,0,4.4-.37,6.12-1.1,1.72-.73,3.18-1.88,4.4-3.42,1.21-1.55,2.22-3.51,3.04-5.87.81-2.37,1.56-5.21,2.23-8.54l15.86-75.09h-10.82c-.56,0-1-.18-1.31-.55-.31-.37-.47-1.06-.47-2.07,0-.45.02-1,.09-1.65.06-.64.15-1.31.29-1.99.14-.68.33-1.33.55-1.95.23-.61.51-1.18.85-1.69.34-.51.69-.92,1.06-1.22.36-.31.82-.46,1.4-.46h10.65l3.9-16.84c.9-4.68,2.19-8.74,3.89-12.21,1.69-3.47,3.71-6.34,6.08-8.62,2.37-2.28,5.1-3.98,8.2-5.11,3.09-1.13,6.56-1.69,10.4-1.69,1.29,0,2.56.07,3.8.21,1.24.14,2.36.34,3.38.6,1.01.25,1.89.52,2.62.8.73.28,1.24.6,1.52.93.28.29.48.65.59,1.09.12.45.17.96.17,1.52,0,.17-.03.5-.09.97-.05.48-.14,1.01-.25,1.61-.11.59-.24,1.22-.38,1.9-.14.68-.32,1.29-.54,1.81-.23.54-.5.98-.8,1.31-.32.35-.64.51-.97.51-.4,0-.85-.09-1.35-.25-.51-.17-1.11-.35-1.82-.55-.7-.2-1.52-.4-2.45-.59-.93-.2-2.01-.29-3.25-.29-2.31,0-4.3.37-5.96,1.09-1.66.74-3.07,1.88-4.22,3.42-1.16,1.56-2.16,3.52-3.01,5.88-.84,2.37-1.57,5.16-2.2,8.37l-3.22,14.14h43.86Z"/></svg>