<?xml version="1.0" encoding="UTF-8"?><svg id="Capa_35" xmlns="http://www.w3.org/2000/svg" xmlns:xlink="http://www.w3.org/1999/xlink" viewBox="0 0 752.64 336.34"><defs><style>.cls-1{fill:url(#Degradado_sin_nombre_913);}.cls-1,.cls-2,.cls-3,.cls-4,.cls-5,.cls-6,.cls-7{stroke-width:0px;}.cls-2{fill:url(#Degradado_sin_nombre_947);}.cls-3{fill:#2b2523;}.cls-4{fill:#097abc;}.cls-5{fill:#1d1d1b;}.cls-6{fill:url(#Degradado_sin_nombre_913-2);}.cls-7{fill:url(#Degradado_sin_nombre_913-3);}</style><radialGradient id="Degradado_sin_nombre_947" cx="198.48" cy="70.94" fx="198.48" fy="70.94" r="49.4" gradientUnits="userSpaceOnUse"><stop offset="0" stop-color="#30a2d9"/><stop offset=".11" stop-color="#2e9ed4"/><stop offset=".23" stop-color="#2992c8"/><stop offset=".35" stop-color="#217fb3"/><stop offset=".47" stop-color="#176698"/><stop offset=".76" stop-color="#114568"/><stop offset=".99" stop-color="#00000f"/></radialGradient><radialGradient id="Degradado_sin_nombre_913" cx="193.16" cy="119.18" fx="193.16" fy="119.18" r="64.85" gradientUnits="userSpaceOnUse"><stop offset=".07" stop-color="#30a2d9"/><stop offset=".16" stop-color="#2c99d0"/><stop offset=".31" stop-color="#2383b8"/><stop offset=".47" stop-color="#176698"/><stop offset=".76" stop-color="#114568"/><stop offset=".99" stop-color="#00000f"/></radialGradient><radialGradient id="Degradado_sin_nombre_913-2" cx="190.26" cy="178.77" fx="190.26" fy="178.77" r="64.3" xlink:href="#Degradado_sin_nombre_913"/><radialGradient id="Degradado_sin_nombre_913-3" cx="186.59" cy="205.16" fx="186.59" fy="205.16" r="43.58" xlink:href="#Degradado_sin_nombre_913"/></defs><path class="cls-2" d="m172.74,51.54s-12.71,2.07-28.98,13.16c0,0,73.33,36.66,104.23,22.32,0,0,9.17-5.77-2.51-17.3,0,0-6.21-5.47-11.68-7.24,0,0,6.21,6.06-2.37,7.24,0,0-21.44,1.92-58.69-18.18Z"/><path class="cls-1" d="m125.84,81.92s50.12,23.51,87.37,28.5c0,0,47.79,7.54,51.89-13.08,0,0,3.44-14.41-22.29-32.38l.22-.3s22.51,12.27,32.93,44.2c0,0,14.16,36.11-42.62,34.63,0,0-46.79,2.14-122.81-31.22,0,0,3.65-15.5,15.29-30.35Z"/><path class="cls-6" d="m107.77,139.58s63.87,31.27,119.53,31.27c0,0,48.34,1.49,52.56-27.31,0,0-.81,18.58-13.23,37.95,0,0-13.38,27.28-83.01,12.64,0,0-34.96-6.28-68.38-23.43,0,0-6.95-13.9-7.47-31.12Z"/><path class="cls-7" d="m126.95,189.58s30.86,17.93,72.7,22.07c0,0,29.57,3.55,46.57-8.13,0,0-27.65,26.32-74.36,13.9,0,0-14.34-3.4-25.28-9.91,0,0-12.64-8.35-19.63-17.93Z"/><path class="cls-5" d="m308.8,216.17h3.67l4.59,13.93,4.63-13.93h3.67l3.32,19.97h-3.64l-2.12-12.61-4.2,12.61h-3.32l-4.17-12.61-2.17,12.61h-3.67l3.43-19.97Z"/><path class="cls-5" d="m337.71,216.17h3.82l7.61,19.97h-3.91l-1.55-4.11h-8.07l-1.61,4.11h-3.91l7.63-19.97Zm1.93,5.29l-2.66,6.85h5.29l-2.64-6.85Zm.64-12.16h4.35l-4.92,5.32h-2.64l3.21-5.32Z"/><path class="cls-5" d="m362.44,218.88l-2.79,2.48c-.98-1.38-1.98-2.06-2.99-2.06-.49,0-.9.13-1.21.4s-.47.57-.47.9.11.65.34.95c.3.4,1.23,1.25,2.76,2.57,1.44,1.21,2.31,1.98,2.61,2.29.76.78,1.3,1.52,1.62,2.23.32.71.48,1.49.48,2.33,0,1.64-.56,2.99-1.68,4.06-1.12,1.07-2.59,1.6-4.39,1.6-1.41,0-2.64-.35-3.68-1.04-1.05-.7-1.94-1.79-2.69-3.28l3.17-1.93c.95,1.77,2.05,2.65,3.29,2.65.65,0,1.19-.19,1.63-.57.44-.38.66-.82.66-1.32,0-.45-.17-.9-.5-1.36-.33-.45-1.06-1.14-2.2-2.08-2.16-1.77-3.55-3.14-4.18-4.11-.63-.97-.94-1.93-.94-2.88,0-1.39.52-2.57,1.57-3.56,1.05-.99,2.34-1.49,3.87-1.49.99,0,1.93.23,2.82.69.89.46,1.86,1.3,2.9,2.52Z"/><path class="cls-5" d="m372.68,216.17h4.04l3.69,7.18,3.67-7.18h3.99l-5.79,11.32v8.65h-3.79v-8.65l-5.82-11.32Z"/><path class="cls-5" d="m400.8,216.17h3.67l4.59,13.93,4.63-13.93h3.67l3.32,19.97h-3.64l-2.12-12.61-4.2,12.61h-3.32l-4.16-12.61-2.17,12.61h-3.67l3.43-19.97Z"/><path class="cls-5" d="m423.68,216.17h10.8v3.72h-7.06v3.61h7.06v3.65h-7.06v5.25h7.06v3.73h-10.8v-19.97Z"/><path class="cls-5" d="m442.92,216.17h3.78v13.25c0,2.11-.17,3.59-.5,4.44-.33.85-.88,1.53-1.64,2.03-.76.5-1.68.75-2.74.75-2.18,0-4.04-.96-5.57-2.89l2.72-2.57c.6.69,1.11,1.15,1.54,1.38.42.24.83.35,1.22.35s.71-.17.9-.52c.2-.34.3-1.1.3-2.27v-13.97Z"/><path class="cls-5" d="m460.56,215.67c2.8,0,5.21,1.02,7.22,3.07,2.01,2.04,3.02,4.54,3.02,7.48s-.99,5.38-2.98,7.4c-1.99,2.02-4.4,3.03-7.24,3.03s-5.44-1.04-7.4-3.11c-1.96-2.07-2.95-4.53-2.95-7.38,0-1.91.46-3.67,1.37-5.27.91-1.6,2.17-2.87,3.78-3.81,1.6-.94,3.33-1.41,5.18-1.41Zm-.04,3.72c-1.83,0-3.37.64-4.62,1.93-1.25,1.29-1.87,2.92-1.87,4.9,0,2.21.79,3.95,2.36,5.24,1.22,1,2.62,1.51,4.2,1.51,1.79,0,3.31-.65,4.57-1.96,1.26-1.3,1.89-2.91,1.89-4.82s-.63-3.51-1.9-4.83c-1.27-1.32-2.81-1.98-4.62-1.98Z"/><path class="cls-5" d="m474.61,216.17h3.99c2.19,0,3.74.2,4.67.59.93.39,1.67,1.05,2.24,1.96.56.91.85,2,.85,3.24,0,1.31-.31,2.41-.93,3.29-.62.88-1.56,1.55-2.82,2l4.69,8.88h-4.12l-4.45-8.46h-.34v8.46h-3.77v-19.97Zm3.77,7.8h1.18c1.2,0,2.02-.16,2.47-.48.45-.32.68-.84.68-1.58,0-.43-.11-.81-.33-1.14-.22-.32-.52-.55-.9-.69s-1.06-.21-2.07-.21h-1.03v4.1Z"/><path class="cls-5" d="m490.35,216.17h10.8v3.72h-7.06v3.61h7.06v3.65h-7.06v5.25h7.06v3.73h-10.8v-19.97Z"/><path class="cls-5" d="m515.05,218.88l-2.79,2.48c-.98-1.38-1.98-2.06-2.99-2.06-.5,0-.9.13-1.21.4-.32.27-.47.57-.47.9s.11.65.34.95c.3.4,1.23,1.25,2.76,2.57,1.44,1.21,2.31,1.98,2.61,2.29.76.78,1.3,1.52,1.62,2.23s.48,1.49.48,2.33c0,1.64-.56,2.99-1.68,4.06-1.12,1.07-2.58,1.6-4.39,1.6-1.41,0-2.64-.35-3.68-1.04-1.05-.7-1.94-1.79-2.69-3.28l3.17-1.93c.95,1.77,2.05,2.65,3.29,2.65.65,0,1.19-.19,1.63-.57.44-.38.66-.82.66-1.32,0-.45-.17-.9-.5-1.36-.33-.45-1.07-1.14-2.2-2.08-2.16-1.77-3.55-3.14-4.18-4.11-.63-.97-.94-1.93-.94-2.88,0-1.39.52-2.57,1.57-3.56,1.04-.99,2.34-1.49,3.87-1.49.99,0,1.93.23,2.82.69.89.46,1.86,1.3,2.9,2.52Z"/><path class="cls-5" d="m526.71,216.17h3.61l8.47,13.14v-13.14h3.77v19.97h-3.62l-8.46-13.1v13.1h-3.77v-19.97Z"/><path class="cls-5" d="m547.09,216.17h10.8v3.72h-7.06v3.61h7.06v3.65h-7.06v5.25h7.06v3.73h-10.8v-19.97Z"/><path class="cls-5" d="m579.68,219.42l-2.65,2.65c-1.68-1.79-3.64-2.69-5.87-2.69-1.95,0-3.58.65-4.89,1.95-1.31,1.3-1.97,2.89-1.97,4.75s.68,3.56,2.05,4.9c1.37,1.34,3.05,2.01,5.05,2.01,1.3,0,2.4-.28,3.29-.83.89-.55,1.61-1.42,2.16-2.59h-5.73v-3.57h9.95l.03.84c0,1.75-.45,3.4-1.34,4.97-.9,1.56-2.06,2.76-3.49,3.58-1.43.82-3.1,1.24-5.02,1.24-2.05,0-3.88-.45-5.49-1.35-1.61-.9-2.88-2.18-3.82-3.85-.94-1.66-1.41-3.46-1.41-5.39,0-2.64.86-4.94,2.6-6.9,2.05-2.33,4.72-3.49,8.02-3.49,1.72,0,3.33.32,4.83.96,1.26.54,2.5,1.48,3.71,2.8Z"/><path class="cls-5" d="m593.89,215.67c2.8,0,5.21,1.02,7.22,3.07,2.01,2.04,3.02,4.54,3.02,7.48s-.99,5.38-2.98,7.4c-1.99,2.02-4.4,3.03-7.24,3.03s-5.44-1.04-7.4-3.11c-1.96-2.07-2.95-4.53-2.95-7.38,0-1.91.46-3.67,1.37-5.27.91-1.6,2.17-2.87,3.78-3.81,1.6-.94,3.33-1.41,5.18-1.41Zm-.04,3.72c-1.83,0-3.37.64-4.62,1.93-1.25,1.29-1.87,2.92-1.87,4.9,0,2.21.79,3.95,2.36,5.24,1.22,1,2.62,1.51,4.2,1.51,1.79,0,3.31-.65,4.57-1.96,1.26-1.3,1.89-2.91,1.89-4.82s-.63-3.51-1.9-4.83c-1.27-1.32-2.81-1.98-4.62-1.98Z"/><path class="cls-5" d="m625.87,219.68l-2.63,2.53c-1.79-1.91-3.81-2.87-6.05-2.87-1.89,0-3.48.65-4.78,1.96-1.3,1.3-1.94,2.91-1.94,4.82,0,1.33.29,2.51.86,3.55s1.38,1.84,2.43,2.43c1.05.59,2.21.88,3.49.88,1.09,0,2.09-.21,3-.62.91-.41,1.9-1.16,2.99-2.25l2.55,2.69c-1.46,1.44-2.84,2.44-4.14,3-1.3.56-2.78.84-4.45.84-3.08,0-5.59-.98-7.55-2.95-1.96-1.97-2.94-4.49-2.94-7.57,0-1.99.45-3.76,1.34-5.31.89-1.55,2.17-2.79,3.83-3.73,1.66-.94,3.45-1.41,5.37-1.41,1.63,0,3.2.35,4.71,1.04,1.51.7,2.81,1.69,3.91,2.97Z"/><path class="cls-5" d="m628.9,216.17h3.74v19.97h-3.74v-19.97Z"/><path class="cls-5" d="m646.22,215.67c2.8,0,5.21,1.02,7.22,3.07,2.01,2.04,3.02,4.54,3.02,7.48s-.99,5.38-2.98,7.4c-1.99,2.02-4.4,3.03-7.24,3.03s-5.44-1.04-7.4-3.11c-1.96-2.07-2.95-4.53-2.95-7.38,0-1.91.46-3.67,1.37-5.27.91-1.6,2.17-2.87,3.78-3.81,1.6-.94,3.33-1.41,5.18-1.41Zm-.04,3.72c-1.83,0-3.37.64-4.62,1.93-1.25,1.29-1.87,2.92-1.87,4.9,0,2.21.79,3.95,2.36,5.24,1.22,1,2.62,1.51,4.2,1.51,1.79,0,3.31-.65,4.57-1.96,1.26-1.3,1.89-2.91,1.89-4.82s-.63-3.51-1.9-4.83c-1.27-1.32-2.81-1.98-4.62-1.98Z"/><path class="cls-5" d="m670.4,218.88l-2.79,2.48c-.98-1.38-1.98-2.06-2.99-2.06-.5,0-.9.13-1.21.4-.32.27-.47.57-.47.9s.11.65.34.95c.3.4,1.23,1.25,2.76,2.57,1.44,1.21,2.31,1.98,2.61,2.29.76.78,1.3,1.52,1.62,2.23s.48,1.49.48,2.33c0,1.64-.56,2.99-1.68,4.06-1.12,1.07-2.58,1.6-4.39,1.6-1.41,0-2.64-.35-3.68-1.04-1.05-.7-1.94-1.79-2.69-3.28l3.17-1.93c.95,1.77,2.05,2.65,3.29,2.65.65,0,1.19-.19,1.63-.57.44-.38.66-.82.66-1.32,0-.45-.17-.9-.5-1.36-.33-.45-1.07-1.14-2.2-2.08-2.16-1.77-3.55-3.14-4.18-4.11-.63-.97-.94-1.93-.94-2.88,0-1.39.52-2.57,1.57-3.56,1.04-.99,2.34-1.49,3.87-1.49.99,0,1.93.23,2.82.69.89.46,1.86,1.3,2.9,2.52Z"/><rect class="cls-3" x="306.47" y="101.08" width="18.78" height="93.14"/><polygon class="cls-3" points="343.87 114.35 367.49 114.35 408.18 170.13 408.18 114.35 426.92 114.35 426.92 194.41 403.08 194.41 362.61 138.41 362.61 194.22 343.87 194.22 343.87 114.35"/><path class="cls-4" d="m524.5,133.09l17.52-9.76s-22.95-38.66-72.33-20.03c0,0-29.12,12.86-28.68,44.35,0,0-1.77,36.37,37.85,47.6,0,0,35.63,8.87,56.48-15.52,0,0,12.86-12.12,11.38-37.55h-58.4v18.92h34.89s-5.99,17.81-29.64,16.71c0,0-31.82,1.74-33.15-31.08,0,0,.37-28.05,33.5-29.16,0,0,18.06-1.88,30.59,15.52Z"/><polygon class="cls-4" points="560.86 114.13 636.04 114.13 636.04 133.42 579.94 133.42 579.94 143.18 618.86 143.18 618.86 162.48 579.97 162.48 579.97 175.23 638.22 175.23 638.22 194.45 560.86 194.45 560.86 114.13"/><polygon class="cls-3" points="651.01 104.04 667.98 104.04 667.79 112.28 664.54 168.24 654.23 168.24 651.38 111.95 651.01 104.04"/><rect class="cls-3" x="651.01" y="178.28" width="16.96" height="13.19"/></svg>