<?xml version="1.0" encoding="UTF-8"?><svg id="Capa_24" xmlns="http://www.w3.org/2000/svg" viewBox="0 0 752.64 299.39"><defs><style>.cls-1{fill:#3f5464;}.cls-1,.cls-2{stroke-width:0px;}.cls-2{fill:#e1231d;}</style></defs><path class="cls-2" d="m498.58,139.42l35.4,24.73s46.8,1.53,93.93-10.21c0,0,44.07-12.76,30.29-27.91,0,0-14.63-17.58-78.5-22.86l-2.6,6.99s4.18-.06,7.53.55c2.71.49,4.47,1.2,8.22,2.04,11.89,2.67,26.75,8.27,26.8,12.93,0,0,4.51,16.51-121.08,13.73Z"/><path class="cls-1" d="m149.38,48.23c1.73,0,3.2.61,4.42,1.84,1.22,1.23,1.83,2.71,1.83,4.45s-.61,3.16-1.83,4.39c-1.22,1.23-2.69,1.84-4.42,1.84s-3.15-.61-4.37-1.84c-1.22-1.23-1.83-2.69-1.83-4.39s.61-3.22,1.83-4.45c1.22-1.23,2.68-1.84,4.37-1.84Z"/><rect class="cls-1" x="145.11" y="66.45" width="9.27" height="59"/><path class="cls-1" d="m165.38,66.45h8.98l-.03,5.52c.06-.08,1.38.02,1.45-.06,4.37-5.3,13.47-6.98,17.55-6.98s7.83,1.12,11.04,3.36c3.21,2.24,5.59,5.26,7.12,9.06,1.53,3.8,2.3,9.71,2.3,17.73v30.36h-9.78v-38.33c0-2.04-2.16-6.76-4.51-8.74-2.35-1.97-6.44-2.72-10.21-2.72-4.81,0-13.97,4.34-13.97,11.4l-.03,38.39h-9.92v-59Z"/><path class="cls-1" d="m226.94,47.3l9.75-.06v19.02h7.54s.06,9.51.06,9.51l-7.66.04-.03,49.63h-9.66v-49.57h-7.62s-.02-9.61-.02-9.61h7.63v-18.96Z"/><path class="cls-1" d="m501.93,47.3l9.75-.06v19.02h7.54s.06,9.51.06,9.51l-7.66.04-.03,49.63h-9.66v-49.57h-7.62s-.02-9.61-.02-9.61h7.63v-18.96Z"/><path class="cls-1" d="m291.71,106.32l12,.03c-.65,4.65-4.71,9.93-7.45,12.45-2.74,2.52-5.81,4.44-9.23,5.75-3.42,1.31-7.29,1.97-11.61,1.97-9.57,0-17.06-3.14-22.46-9.43-5.4-6.28-8.1-13.39-8.1-21.31,0-7.45,2.29-14.1,6.86-19.93,5.79-7.42,13.55-11.13,23.27-11.13s18,3.8,23.97,11.4c4.25,5.37,6.41,14.53,6.48,22.56l-49.35.06c0,7.27,6.81,17.07,19.06,17.07,4.82,0,12.89-1.19,16.56-9.5Zm2.03-15.29c-.55-3.67-1.85-6.6-3.52-8.79-1.67-2.19-3.88-3.96-6.63-5.3-2.75-1.34-5.64-2.01-8.67-2.01-5,0-9.29,1.69-12.88,5.06-2.62,2.46-5.1,5.49-5.1,11.05h36.8Z"/><path class="cls-1" d="m312.92,66.45h7.6l.03,7.25h.54c3.83-5.05,9.93-7.8,14.46-7.46v9.59c-5.56-.96-13.26,6.64-13.26,9.59v40.03h-9.38v-59Z"/><path class="cls-1" d="m366.38,47.18v9.59c-6.83-.72-9.66,1.96-9.66,5.9l.06,3.78h9.59v9.44l-9.59.06.06,49.5h-9.67v-49.56l-7.46.03v-9.46h7.46v-7.3c0-4.23,3.94-8.64,5.88-9.77,3.38-1.97,8.72-2.2,13.34-2.2Z"/><path class="cls-1" d="m427.27,66.45v59h-9.27v-7.82c-4.17,3.33-4.57,4.27-8.52,6.22-3.95,1.95-8.65,2.52-13.35,2.52-8.34,0-16.22-3.12-21.36-8.49-5.85-6.11-8.85-13.42-8.85-22.1s2.98-15.76,8.93-21.8c5.96-6.04,13.12-9.06,21.5-9.06,7.06,0,16.72,2.86,20.46,8.9v-7.38h10.46Zm-30.3,9c-3.59,0-6.91.88-9.95,2.65-3.04,1.77-5.46,4.25-7.25,7.45-1.8,3.2-2.69,6.58-2.69,10.14s.91,6.92,2.72,10.15c1.81,3.23,4.24,5.74,7.3,7.54,3.05,1.8,6.33,2.7,9.83,2.7s6.88-.89,10.04-2.67c3.16-1.78,5.6-4.2,7.3-7.24,1.7-3.04,2.55-6.47,2.55-10.28,0-5.81-1.91-10.67-5.73-14.57-3.82-3.9-8.53-5.86-14.11-5.86Z"/><path class="cls-1" d="m492.77,86.64l-12.85-.09c-1.13-4.99-6.72-11.1-16.17-11.1-6.62,0-18.95,3.72-18.95,20.61,0,18.29,14.28,20.36,18.63,20.36,7.98,0,14.68-5.28,16.34-11h12.17c-.62,6.49-8.81,21.66-28.88,21.66-8.59,0-15.71-2.96-21.37-8.89-5.66-5.93-8.49-13.14-8.49-21.64,0-5.71,1.13-11.07,3.61-16.06,6.98-14.1,21.08-15.44,26.81-15.44,15.11,0,24.88,7.09,29.16,21.59Z"/><path class="cls-1" d="m587.92,66.31h7.6l.03,7.25h.54c3.83-5.05,9.93-7.8,14.46-7.46v9.59c-5.56-.96-13.26,6.64-13.26,9.59v40.03h-9.38v-59Z"/><path class="cls-1" d="m550.05,64.93c9.01,0,16.47,3.26,22.39,9.79,5.38,5.96,8.07,13.01,8.07,21.15s-2.84,15.33-8.53,21.44c-5.69,6.12-13,9.17-21.94,9.17s-16.3-3.06-21.99-9.17c-5.69-6.12-8.53-13.27-8.53-21.44s2.69-15.14,8.07-21.09c5.92-6.56,13.4-9.85,22.45-9.85Zm-.18,10.56c-5.37,0-9.99,1.99-13.85,5.96s-5.79,8.78-5.79,14.42c0,3.64.88,7.03,2.64,10.17,1.76,3.14,4.14,5.57,7.13,7.28,3,1.71,6.29,2.57,9.87,2.57s6.87-.86,9.87-2.57c3-1.71,5.37-4.14,7.13-7.28,1.76-3.14,2.64-6.53,2.64-10.17,0-5.64-1.94-10.45-5.81-14.42-3.88-3.98-8.49-5.96-13.83-5.96Z"/><path class="cls-1" d="m152.51,154.35h-5.62v7.46h-2v-16.86h9.29v1.8h-7.28v5.81h5.62v1.8Z"/><path class="cls-1" d="m165.83,161.81h-2.08v-16.86h2.08v16.86Z"/><path class="cls-1" d="m186.99,161.81h-2.07l-7.37-12.88-.06.02v12.86h-2.07v-16.86h2.07l7.37,12.87.06-.02v-12.85h2.07v16.86Z"/><path class="cls-1" d="m357.91,161.81h-2.07l-7.37-12.88-.06.02v12.86h-2.07v-16.86h2.07l7.37,12.87.06-.02v-12.85h2.07v16.86Z"/><path class="cls-1" d="m204.95,157.9h-5.85s-1.2,3.91-1.2,3.91h-2.05l5.36-16.86h1.73l5.25,16.86h-2.05l-1.18-3.91Zm-5.3-1.84h4.75l-2.31-7.74h-.06l-2.37,7.74Z"/><path class="cls-1" d="m279.15,157.9h-5.94s-1.22,3.91-1.22,3.91h-2.08l5.44-16.86h1.75l5.33,16.86h-2.08l-1.2-3.91Zm-5.38-1.84h4.82l-2.35-7.74h-.06l-2.41,7.74Z"/><path class="cls-1" d="m228.94,161.81h-2.07l-7.37-12.88-.06.02v12.86h-2.07v-16.86h2.07l7.37,12.87.06-.02v-12.85h2.07v16.86Z"/><path class="cls-1" d="m249.12,156.41l.02.07c.03,1.58-.47,2.91-1.48,3.97-1.01,1.07-2.35,1.6-4.01,1.6s-3.06-.68-4.12-2.03c-1.06-1.35-1.59-3.07-1.59-5.14v-3c0-2.08.53-3.79,1.59-5.15,1.06-1.36,2.44-2.03,4.12-2.03s3.03.51,4.03,1.52c1,1.02,1.48,2.36,1.46,4.04l-.02.07h-1.94c0-1.18-.31-2.11-.92-2.8-.61-.69-1.48-1.03-2.6-1.03s-2.03.51-2.7,1.54c-.67,1.03-1,2.3-1,3.82v3.02c0,1.54.33,2.82,1,3.85.67,1.03,1.57,1.54,2.7,1.54s1.99-.34,2.6-1.03c.61-.68.92-1.63.92-2.83h1.94Z"/><path class="cls-1" d="m260.58,161.81h-2.08v-16.86h2.08v16.86Z"/><path class="cls-1" d="m298.53,158.64h.06l4.49-13.7h2.36v16.86h-1.9v-12.64h-.06s-4.25,12.64-4.25,12.64h-1.32l-4.38-13.07h-.06v13.07h-1.9v-16.86h2.5l4.47,13.7Z"/><path class="cls-1" d="m466.58,158.64h.06l4.49-13.7h2.36v16.86h-1.9v-12.64h-.06s-4.25,12.64-4.25,12.64h-1.32l-4.38-13.07h-.06v13.07h-1.9v-16.86h2.5l4.47,13.7Z"/><path class="cls-1" d="m318.01,161.81h-2.08v-16.86h2.08v16.86Z"/><path class="cls-1" d="m336.44,153.99h-6.29v6.03h7.36v1.78h-9.44v-16.86h9.32v1.8h-7.25v5.45h6.29v1.8Z"/><path class="cls-1" d="m377.89,146.74h-4.72v15.07h-1.94v-15.07h-4.66v-1.8h11.32v1.8Z"/><path class="cls-1" d="m397.93,154.88c0,2.06-.58,3.77-1.74,5.13-1.16,1.36-2.67,2.04-4.52,2.04s-3.24-.68-4.36-2.04c-1.12-1.36-1.68-3.07-1.68-5.13v-3c0-2.05.56-3.76,1.68-5.13,1.12-1.37,2.57-2.05,4.36-2.05s3.36.68,4.52,2.04c1.16,1.36,1.74,3.08,1.74,5.14v3Zm-2.07-3.02c0-1.54-.38-2.81-1.14-3.8-.76-.99-1.77-1.48-3.05-1.48-1.21,0-2.17.49-2.89,1.48-.72.99-1.08,2.25-1.08,3.8v3.02c0,1.56.36,2.83,1.08,3.82.72.99,1.68,1.48,2.89,1.48,1.28,0,2.3-.49,3.06-1.48.75-.98,1.13-2.26,1.13-3.83v-3.02Z"/><path class="cls-1" d="m421.38,155.04v6.76h-1.96v-16.86h5.53c1.54,0,2.74.46,3.6,1.39.86.93,1.29,2.15,1.29,3.66s-.43,2.75-1.29,3.67c-.86.92-2.06,1.38-3.6,1.38h-3.58Zm0-1.78h3.58c.98,0,1.71-.31,2.2-.92.48-.62.73-1.39.73-2.32s-.24-1.71-.73-2.34c-.49-.63-1.22-.94-2.19-.94h-3.58v6.52Z"/><path class="cls-1" d="m443.77,153.51l4-8.57h2.37l-5.37,10.93v5.93h-2.06v-6.1l-5.29-10.76h2.37l4,8.57Z"/><path class="cls-1" d="m491.25,153.99h-6.29v6.03h7.36v1.78h-9.44v-16.86h9.32v1.8h-7.25v5.45h6.29v1.8Z"/></svg>