<?xml version="1.0" encoding="UTF-8"?><svg id="Capa_14" xmlns="http://www.w3.org/2000/svg" viewBox="0 0 752.64 299.39"><defs><style>.cls-1{fill:#322b7c;}.cls-1,.cls-2{fill-rule:evenodd;stroke-width:0px;}.cls-2{fill:#f8dd00;}</style></defs><path class="cls-1" d="m320.26,18.19h169.39c11.8,0,21.63,4.21,29.78,12.36,8.43,8.15,12.64,18.26,12.64,30.06v169.39c0,11.52-4.21,21.63-12.64,29.77-8.15,8.15-17.98,12.36-29.78,12.36h-169.39c-11.8,0-21.91-4.21-30.06-12.36-8.15-8.15-12.36-18.26-12.36-29.77V60.61c0-11.8,4.21-21.91,12.36-30.06,8.15-8.15,18.26-12.36,30.06-12.36h0Z"/><path class="cls-2" d="m471.95,162.3h13.76l16.85-17.14h-18.54l-12.08,17.14h0Zm-5.06,4.21h-19.66v36.8c0,9.83,2.53,17.13,7.3,21.91,4.21,4.22,9.83,6.18,16.86,6.18,9.83,0,17.14-3.93,21.63-11.52h.28v10.11h17.42v-63.49h-19.66v37.08c0,1.68-.28,3.09-.56,3.93-2.25,5.34-6.18,8.15-12.08,8.15-7.59,0-11.52-5.34-11.52-15.73v-33.43h0Zm-50.56,21.07c-12.92,0-22.76,1.97-29.5,6.18-7.02,4.21-10.68,10.39-10.68,18.54,0,5.06,1.97,9.55,5.62,13.2,4.21,3.93,9.55,5.9,16.01,5.9,8.71,0,15.17-2.81,19.66-8.15h.56v6.74h17.98v-37.36c0-8.43-2.25-14.89-6.46-19.66-5.06-5.34-12.64-8.15-22.75-8.15s-19.1,1.97-25.84,6.18l3.65,12.36c5.62-3.37,11.8-5.06,18.82-5.06,8.71,0,12.92,2.81,12.92,8.71v.56h0Zm-48.04-21.07h-12.08v-21.35h-19.1v21.35h-8.99v14.61h8.99v25.56c0,8.71,1.68,15.17,5.34,18.82,3.65,3.93,8.99,5.9,15.45,5.9,4.22,0,7.59-.56,10.68-1.69l-.28-14.89c-.56.56-1.69.84-3.65.84-3.09,0-5.34-1.12-6.74-3.37-1.12-1.69-1.68-4.49-1.68-8.71v-22.47h12.08v-14.61h0Zm26.13,44.1c0-7.58,7.58-10.96,22.47-10.67v6.74l-.28,3.65c-.84,2.53-2.53,4.49-4.78,5.9-2.25,1.97-5.06,2.81-8.15,2.81-6.18,0-9.27-2.81-9.27-8.43h0Zm-95.51-65.45v84.84h19.95v-84.84h-19.95Z"/></svg>