<?xml version="1.0" encoding="UTF-8"?><svg id="Capa_4" xmlns="http://www.w3.org/2000/svg" xmlns:xlink="http://www.w3.org/1999/xlink" viewBox="0 0 710.01 297.97"><defs><style>.cls-1{fill:url(#Degradado_sin_nombre_8);}.cls-1,.cls-2,.cls-3,.cls-4{stroke-width:0px;}.cls-2{fill:none;}.cls-3{fill:#0968a9;}.cls-4{fill:gray;}.cls-5{clip-path:url(#clippath);}</style><clipPath id="clippath"><path class="cls-2" d="m105.43,50.76c-12.43-4.44-25.92-5.27-38.84-2.49,9.53,3.55,18.42,8.62,26.15,14.94l21.98-8.36c-2.96-1.57-6.05-2.94-9.26-4.09,0,0-.02,0-.02,0Zm-44,3.71l6.87,18.06,16.1-6.12c-6.92-5.08-14.71-9.13-22.97-11.93Zm-7.19,2.73c-4.31,7.59-7.44,15.78-9.23,24.18l16.1-6.12-6.87-18.06Zm-7.98-1.2c-11.5,6.51-21.04,16.1-27.38,27.69-.01.02-.02.04-.04.06-1.61,2.95-2.99,5.99-4.15,9.08l21.96-8.35c1.57-9.84,4.85-19.52,9.6-28.48Zm76.43,3.83l-15.52,5.9c-.11.05-.22.1-.34.15l-7.85,2.98c8.13,8.05,14.64,17.6,19.15,28.07l26.59-10.11c-4.83-10.81-12.46-20.08-22.03-26.99Zm-51.37,19.56l-.37.14,11.69,30.73,28.24-10.74c-4.57-10.47-11.34-19.9-19.82-27.64l-19.74,7.51Zm-24.06,44.5l28.25-10.74-11.74-30.89-20.11,7.65c-1.2,11.47.03,23.08,3.61,33.98Zm100.14-30.07l-26.59,10.11c3.26,9.81,4.74,20,4.43,30.43l22.17-8.43c.7-.26,1.41-.32,2.09-.2,1.9-10.62,1.21-21.5-2.1-31.91Zm-111.67-.89c-.21.07-.42.13-.63.17l-23.08,8.78c-2.58,11.54-2.12,23.56,1.46,34.87l26.59-10.11c-3.59-10.82-5.07-22.29-4.34-33.7Zm77.83,13.59l-28.25,10.74,10.48,27.56.25.67,19.29-7.34c.11-.05.22-.1.34-.15l1.77-.67c.7-10.58-.6-20.92-3.88-30.82Zm-35.39,13.63l-24.63,9.37-3.63,1.38c4.12,9.5,9.98,18.02,17.48,25.42.21-.08.43-.14.65-.18l20.8-7.91-.25-.67-10.42-27.41Zm-35.45,13.48l-26.59,10.11c4.34,9.77,10.86,18.2,19.08,24.81l24.38-9.27c-7.15-7.57-12.8-16.17-16.87-25.65Zm73.73,12.11l-17.75,6.75,7.93,20.86c4.86-8.58,8.19-17.95,9.82-27.61Zm31.06-11.83l-14.55,5.53c-.11.05-.22.1-.34.15l-8,3.04c-1.34,11.12-4.76,21.98-10.03,31.95,12.54-7.06,22.63-17.7,28.95-30.66,0-.01.01-.02.02-.03,1.59-3.26,2.9-6.6,3.95-9.98Zm-48.07,42.17l-7.93-20.86-17.76,6.75c7.63,6.14,16.35,10.92,25.69,14.11Zm-33.86-11l-4,1.52c-.23.09-.47.15-.7.2l-18.24,6.94c3.05,1.84,6.26,3.47,9.64,4.86.02,0,.04.01.05.02,13.32,5.49,27.92,6.72,41.98,3.67-10.56-3.94-20.33-9.78-28.73-17.21Zm-10.8-121.18c17.27-6.23,36.21-6.3,53.34-.2.02,0,.05.02.07.03,20.95,7.49,37.42,23.46,45.16,43.83,7.36,19.36,6.34,40.46-2.87,59.42,0,.01-.01.02-.02.04-8.57,17.61-23.44,31.36-41.87,38.7l-.31.14c-.27.13-.55.25-.84.36h-.03c-.3.12-.6.22-.9.31l-.34.1c-18.64,6.75-38.87,6.37-56.96-1.09-.01,0-.02,0-.03-.01-19.48-8.04-34.27-23.11-41.64-42.45,0-.02-.02-.04-.03-.07,0-.02-.01-.03-.02-.05C-.22,122.59,1.47,99.74,12.14,80.24c0,0,0-.02.01-.03,8.74-15.96,22.95-28.51,40.03-35.34.04-.02.09-.04.13-.05l.3-.13c.25-.12.51-.23.77-.34.02,0,.05-.02.07-.03.02,0,.05-.02.07-.03.27-.1.53-.18.8-.26l.3-.09c.05-.02.1-.04.15-.05Z"/></clipPath><linearGradient id="Degradado_sin_nombre_8" x1="0" y1="115.29" x2="160.93" y2="115.29" gradientUnits="userSpaceOnUse"><stop offset="0" stop-color="#076bab"/><stop offset="1" stop-color="#4ca9db"/></linearGradient></defs><polygon class="cls-4" points="226.84 104.47 226.84 101.38 201.8 101.38 201.8 59.86 198.71 59.86 198.71 104.47 226.84 104.47"/><path class="cls-4" d="m261.43,66.93l-10.71,23.13h20.93l-10.22-23.13Zm-12.15,26.21l-5.28,11.32h-3.43l21-45.15,19.83,45.15h-3.36l-5.01-11.32h-23.74Z"/><polygon class="cls-4" points="325.52 59.86 325.52 63.02 307.89 63.02 307.89 104.47 304.73 104.47 304.73 63.02 287.03 63.02 287.03 59.86 325.52 59.86"/><path class="cls-4" d="m352.15,66.93l-10.71,23.13h20.93l-10.22-23.13Zm-12.15,26.21l-5.28,11.32h-3.43l21-45.15,19.83,45.15h-3.36l-5.01-11.32h-23.74Z"/><polygon class="cls-4" points="432.64 104.47 432.64 59.31 409.79 91.98 386.67 59.31 386.67 104.47 389.75 104.47 389.75 69.12 409.79 97.4 429.56 69.19 429.56 104.47 432.64 104.47"/><polygon class="cls-4" points="513.55 59.86 513.55 63.02 495.92 63.02 495.92 104.47 492.76 104.47 492.76 63.02 475.05 63.02 475.05 59.86 513.55 59.86"/><path class="cls-4" d="m554.65,104.47l-18.52-22.51h5.49c3.38,0,6.13-.44,8.23-1.3,1.55-.73,2.9-1.84,4.05-3.33,1.15-1.49,1.71-3.12,1.71-4.91,0-1.6-.48-3.12-1.44-4.56-.96-1.44-2.34-2.62-4.12-3.53-1.79-.91-3.84-1.37-6.17-1.37h-12.49v41.52h-3.09v-44.6h15.58c2.11,0,4.07.33,5.9.99,1.83.66,3.44,1.61,4.81,2.85,1.32,1.19,2.34,2.54,3.06,4.05.71,1.51,1.06,3.07,1.06,4.67,0,2.52-.76,4.77-2.27,6.76-1.51,1.99-3.3,3.42-5.35,4.29-1.42.64-2.8,1.04-4.15,1.2-1.35.16-2.78.24-4.29.24l16.13,19.56h-4.12Z"/><path class="cls-4" d="m592.88,66.93l-10.7,23.13h20.93l-10.22-23.13Zm-12.15,26.21l-5.28,11.32h-3.44l21-45.15,19.83,45.15h-3.36l-5.01-11.32h-23.74Z"/><path class="cls-4" d="m630.42,63.02h9.74c5.49,0,10,1.9,13.52,5.7,1.61,1.74,2.83,3.76,3.67,6.07.85,2.31,1.26,4.75,1.26,7.31s-.42,5.07-1.26,7.38c-.85,2.31-2.07,4.33-3.67,6.07-3.47,3.89-7.98,5.83-13.52,5.83h-9.74v-38.36Zm9.74,41.45c3.15,0,6.08-.58,8.79-1.75,2.7-1.17,5.03-2.85,7-5.04,1.87-2.1,3.32-4.48,4.32-7.14s1.51-5.47,1.51-8.44-.51-5.79-1.51-8.44c-1-2.65-2.45-5.01-4.32-7.07-1.97-2.15-4.3-3.81-7-4.98-2.7-1.17-5.63-1.75-8.79-1.75h-12.83v44.6h12.83Z"/><polygon class="cls-4" points="705.83 104.47 705.83 101.24 680.03 101.24 680.03 83.74 700.14 83.74 700.14 80.59 680.03 80.59 680.03 63.02 705.83 63.02 705.83 59.86 676.95 59.86 676.95 104.47 705.83 104.47"/><path class="cls-4" d="m221.04,173.7c3.44,0,6.69-.74,9.76-2.23,3.07-1.49,5.68-3.58,7.83-6.29l-2.47-1.92c-1.88,2.29-4.13,4.08-6.77,5.36-2.63,1.28-5.42,1.92-8.35,1.92-3.53,0-6.78-.88-9.76-2.65-2.98-1.76-5.35-4.16-7.11-7.18-1.76-3.02-2.65-6.32-2.65-9.9s.88-6.87,2.65-9.9c1.76-3.02,4.13-5.42,7.11-7.18,2.98-1.76,6.23-2.65,9.76-2.65,2.75,0,5.37.57,7.87,1.72,2.5,1.14,4.66,2.75,6.49,4.81l2.41-2.13c-2.2-2.38-4.75-4.23-7.66-5.53-2.91-1.31-5.94-1.96-9.1-1.96-4.08,0-7.86,1.03-11.34,3.09-3.48,2.06-6.23,4.83-8.25,8.31-2.02,3.48-3.02,7.28-3.02,11.41s1.01,7.94,3.02,11.44c2.02,3.5,4.76,6.29,8.25,8.35,3.48,2.06,7.26,3.09,11.34,3.09Z"/><path class="cls-4" d="m270.86,135.63l-10.72,23.16h20.96l-10.24-23.16Zm-12.16,26.25l-5.29,11.34h-3.44l21.03-45.22,19.86,45.22h-3.37l-5.02-11.34h-23.78Z"/><path class="cls-4" d="m308.45,131.72h12.85c2.06,0,3.96.42,5.7,1.27,1.74.85,3.13,1.99,4.16,3.44,1.03,1.44,1.55,3.04,1.55,4.78s-.52,3.26-1.55,4.71c-1.03,1.44-2.42,2.59-4.16,3.44-1.74.85-3.64,1.27-5.7,1.27h-12.78l-.07-18.9Zm.07,41.51v-19.38h12.78c2.61,0,5.03-.57,7.25-1.72,2.22-1.15,3.99-2.69,5.29-4.64,1.31-1.95,1.96-4.04,1.96-6.29s-.65-4.4-1.96-6.32c-1.31-1.92-3.07-3.46-5.29-4.6-2.22-1.15-4.64-1.72-7.25-1.72h-15.94l.07,44.67h3.09Z"/><rect class="cls-4" x="351.88" y="128.56" width="3.09" height="44.67"/><polygon class="cls-4" points="408.78 128.56 408.78 131.72 391.12 131.72 391.12 173.22 387.96 173.22 387.96 131.72 370.23 131.72 370.23 128.56 408.78 128.56"/><path class="cls-4" d="m435.45,135.63l-10.73,23.16h20.96l-10.24-23.16Zm-12.16,26.25l-5.3,11.34h-3.43l21.03-45.22,19.86,45.22h-3.37l-5.01-11.34h-23.78Z"/><polygon class="cls-4" points="498.12 173.22 498.12 170.13 473.04 170.13 473.04 128.56 469.95 128.56 469.95 173.22 498.12 173.22"/><path class="cls-3" d="m218.17,214.69l.03.09c.04,2.11-.7,3.87-2.22,5.29-1.52,1.42-3.53,2.13-6.03,2.13s-4.61-.9-6.2-2.7c-1.6-1.8-2.4-4.08-2.4-6.84v-3.99c0-2.76.8-5.05,2.4-6.85,1.6-1.8,3.66-2.71,6.2-2.71s4.56.68,6.06,2.03c1.5,1.35,2.23,3.14,2.19,5.37l-.03.09h-2.91c0-1.57-.46-2.82-1.39-3.73-.93-.91-2.23-1.37-3.91-1.37s-3.05.68-4.05,2.05c-1.01,1.37-1.51,3.06-1.51,5.09v4.02c0,2.05.5,3.75,1.51,5.12,1.01,1.37,2.36,2.05,4.05,2.05s2.99-.45,3.91-1.36c.93-.91,1.39-2.16,1.39-3.77h2.91Z"/><path class="cls-3" d="m226.02,207.43c.57-.8,1.28-1.43,2.12-1.87.84-.45,1.77-.67,2.78-.67,1.78,0,3.16.53,4.15,1.6.99,1.07,1.49,2.71,1.49,4.93v10.45h-3.04v-10.48c0-1.38-.3-2.4-.89-3.05-.59-.66-1.47-.99-2.64-.99-.9,0-1.69.18-2.36.53-.67.35-1.21.85-1.62,1.49v12.5h-3.04v-24.05h3.04v9.6Z"/><path class="cls-3" d="m254.69,221.87h-3.04v-23.59h3.04v23.59Z"/><path class="cls-3" d="m267.53,222.2c-2.4,0-4.26-.77-5.61-2.3-1.34-1.53-2.01-3.55-2.01-6.04v-.68c0-2.39.69-4.37,2.07-5.94,1.38-1.57,3.07-2.35,5.06-2.35,2.23,0,3.9.69,5.02,2.08,1.11,1.39,1.67,3.23,1.67,5.53v1.6h-10.67l-.05.08c0,1.68.37,3.03,1.11,4.08.74,1.04,1.87,1.56,3.39,1.56,2.21,0,3.64-1.89,4.2-2.4l1.74.97c-1.52,3.35-4.56,3.8-5.94,3.8Zm-.48-14.92c-1.06,0-1.93.41-2.63,1.22-.69.82-1.12,1.86-1.27,3.14l.03.08h7.52v-.25c0-1.21-.3-2.21-.89-3.01-.6-.79-1.52-1.19-2.76-1.19Z"/><path class="cls-3" d="m323.62,214.39l.03.09c.04,2.11-.7,3.87-2.22,5.29-1.52,1.42-3.53,2.13-6.03,2.13s-4.61-.9-6.2-2.7c-1.6-1.8-2.4-4.08-2.4-6.84v-3.99c0-2.76.8-5.05,2.4-6.85,1.6-1.8,3.67-2.71,6.2-2.71s4.56.68,6.06,2.03c1.5,1.35,2.23,3.14,2.19,5.37l-.03.09h-2.91c0-1.57-.46-2.82-1.39-3.73s-2.23-1.37-3.91-1.37-3.05.68-4.05,2.05c-1.01,1.37-1.51,3.06-1.51,5.09v4.02c0,2.05.5,3.75,1.51,5.12,1.01,1.37,2.36,2.05,4.05,2.05s2.99-.45,3.91-1.36,1.39-2.17,1.39-3.77h2.91Z"/><path class="cls-3" d="m327.83,213.08c0-2.47.67-4.5,2-6.1,1.34-1.6,3.15-2.4,5.44-2.4s4.14.8,5.48,2.39c1.34,1.59,2.01,3.63,2.01,6.1v.34c0,2.49-.67,4.52-2,6.1-1.34,1.58-3.15,2.37-5.46,2.37s-4.12-.79-5.46-2.38c-1.34-1.59-2.01-3.62-2.01-6.1v-.34Zm3.04.34c0,1.77.37,3.23,1.12,4.38.75,1.15,1.85,1.73,3.32,1.73s2.55-.57,3.3-1.73c.75-1.15,1.13-2.61,1.13-4.38v-.34c0-1.75-.38-3.2-1.13-4.36-.75-1.16-1.86-1.74-3.32-1.74s-2.55.58-3.29,1.74c-.74,1.16-1.12,2.61-1.12,4.36v.34Z"/><path class="cls-3" d="m351.12,221.57h-3.04v-23.24h3.04v23.24Z"/><path class="cls-3" d="m356.44,213.08c0-2.47.67-4.5,2-6.1,1.34-1.6,3.15-2.4,5.44-2.4s4.14.8,5.48,2.39c1.34,1.59,2.01,3.63,2.01,6.1v.34c0,2.49-.67,4.52-2,6.1-1.34,1.58-3.15,2.37-5.46,2.37s-4.12-.79-5.46-2.38c-1.34-1.59-2.01-3.62-2.01-6.1v-.34Zm3.04.34c0,1.77.37,3.23,1.12,4.38.75,1.15,1.85,1.73,3.32,1.73s2.55-.57,3.3-1.73c.75-1.15,1.13-2.61,1.13-4.38v-.34c0-1.75-.38-3.2-1.13-4.36-.75-1.16-1.86-1.74-3.32-1.74s-2.55.58-3.29,1.74c-.74,1.16-1.12,2.61-1.12,4.36v.34Z"/><path class="cls-3" d="m379.16,204.9l.22,2.19c.54-.79,1.24-1.41,2.07-1.84.84-.44,1.81-.65,2.92-.65s2.06.26,2.86.77c.8.51,1.4,1.28,1.8,2.31.53-.96,1.23-1.71,2.09-2.26.86-.55,1.86-.82,3.01-.82,1.69,0,3.04.58,4.02,1.75.99,1.17,1.48,2.92,1.48,5.26v9.97h-3.04v-10c0-1.64-.28-2.81-.85-3.49-.57-.68-1.41-1.02-2.53-1.02-1.04,0-1.88.36-2.52,1.08-.64.72-1.02,1.63-1.13,2.73v10.71h-3.05v-10c0-1.56-.29-2.71-.87-3.43-.58-.72-1.42-1.09-2.5-1.09-.93,0-1.69.19-2.28.57-.6.38-1.05.91-1.37,1.6v12.35h-3.04v-16.68h2.71Z"/><path class="cls-3" d="m419.64,213.87c0,2.41-.58,4.34-1.74,5.82-1.16,1.47-2.75,2.21-4.77,2.21-1.11,0-2.07-.22-2.89-.65-.82-.44-1.49-1.08-2.03-1.93l-.49,2.27h-2.33v-23.31h3.04v8.61c.52-.74,1.17-1.31,1.95-1.7.78-.39,1.68-.59,2.72-.59,2.06,0,3.66.82,4.81,2.47,1.15,1.64,1.73,3.81,1.73,6.49v.32Zm-3.04-.32c0-1.91-.35-3.47-1.06-4.68-.7-1.21-1.78-1.81-3.21-1.81-.93,0-1.72.23-2.37.69s-1.15,1.07-1.53,1.84v7.23c.39.82.9,1.46,1.53,1.93.63.46,1.43.69,2.4.69,1.43,0,2.49-.51,3.19-1.53.7-1.02,1.05-2.36,1.05-4.04v-.32Z"/><rect class="cls-3" x="424.81" y="199.1" width="3.04" height="3.1" rx="1.52" ry="1.52"/><rect class="cls-3" x="424.95" y="204.9" width="3.04" height="16.68"/><rect class="cls-3" x="242.38" y="199.1" width="3.04" height="3.1" rx="1.52" ry="1.52"/><rect class="cls-3" x="242.51" y="204.9" width="3.04" height="16.68"/><path class="cls-3" d="m443.39,221.57c-.1-.5-.18-.95-.24-1.33-.06-.39-.09-.77-.1-1.16-.56.8-1.3,1.47-2.21,2.01-.91.54-1.89.81-2.94.81-1.74,0-3.06-.44-3.97-1.33-.91-.89-1.37-2.11-1.37-3.68s.65-2.84,1.93-3.74c1.29-.9,3.04-1.35,5.25-1.35h3.3v-1.65c0-.98-.3-1.75-.89-2.32-.6-.57-1.44-.86-2.53-.86-.99,0-1.78.25-2.39.74s-.91,1.08-.91,1.77l-2.88.03-.03-.09c-.07-1.21.5-2.32,1.7-3.33,1.21-1.01,2.77-1.51,4.68-1.51s3.41.48,4.56,1.44c1.15.96,1.73,2.35,1.73,4.15v8.03c0,.6.03,1.17.09,1.73.06.56.17,1.1.34,1.63h-3.13Zm-5.04-2.22c1.1,0,2.09-.28,2.97-.85.88-.57,1.46-1.21,1.73-1.94v-2.71h-3.41c-1.22,0-2.2.31-2.94.92-.74.62-1.1,1.34-1.1,2.17,0,.74.23,1.32.69,1.76s1.15.65,2.05.65Z"/><path class="cls-3" d="m483.82,212.87v9h-3.04v-22.44h8.59c2.39,0,4.25.62,5.59,1.85,1.33,1.23,2,2.86,2,4.87s-.67,3.66-2,4.89c-1.33,1.22-3.19,1.83-5.59,1.83h-5.55Zm0-2.37h5.55c1.52,0,2.66-.41,3.4-1.22.75-.82,1.13-1.85,1.13-3.09s-.38-2.28-1.13-3.11c-.75-.83-1.89-1.25-3.4-1.25h-5.55v8.68Z"/><path class="cls-3" d="m527.72,207.85l-1.87-.07c-.8,0-1.48.19-2.03.57-.55.38-.97.91-1.27,1.6v11.92h-3.04v-16.68h2.71l.29,2.43c.47-.86,1.06-1.54,1.75-2.02.69-.48,1.49-.72,2.4-.72.22,0,.44.02.65.05.21.04.37.07.51.12l-.11,2.8Z"/><path class="cls-3" d="m541.79,219.41c-.51.9-1.16,1.58-1.96,2.07-.8.48-1.72.72-2.76.72-1.76,0-3.14-.58-4.12-1.74-.99-1.16-1.48-2.97-1.48-5.43v-9.83h2.94v9.86c0,1.78.26,3,.76,3.67.51.67,1.3,1,2.37,1s1.91-.22,2.59-.66c.68-.44,1.2-1.06,1.54-1.86v-12.02h2.95v16.68h-2.65l-.19-2.47Z"/><polygon class="cls-3" points="539.39 198.44 542.93 198.44 542.96 198.54 538.82 202.54 536.53 202.54 539.39 198.44"/><path class="cls-3" d="m594.62,199.43v14.91c0,2.47-.74,4.39-2.21,5.78-1.47,1.39-3.37,2.08-5.69,2.08s-4.07-.7-5.49-2.09c-1.42-1.39-2.14-3.32-2.14-5.77v-14.91h2.79v14.91c0,1.72.45,3.06,1.35,4.03.9.97,2.06,1.46,3.49,1.46,1.51,0,2.74-.49,3.69-1.46.95-.97,1.42-2.31,1.42-4.03v-14.91h2.79Z"/><path class="cls-3" d="m607.06,211.73h-.44s-2.37,2.07-2.37,2.07v8.08h-3.04v-22.44h3.04v9.93h.71l9.27-9.93h3.42l.03.08-8.48,9.19.03,1.29,9.1,11.81-.03.08h-3.68l-7.57-10.14Z"/><path class="cls-3" d="m666.39,199.43v14.91c0,2.47-.77,4.39-2.3,5.78-1.53,1.39-3.51,2.08-5.92,2.08s-4.23-.7-5.72-2.09c-1.48-1.39-2.22-3.32-2.22-5.77v-14.91h2.9v14.91c0,1.72.47,3.06,1.41,4.03.94.97,2.15,1.46,3.63,1.46,1.57,0,2.85-.49,3.84-1.46.99-.97,1.48-2.31,1.48-4.03v-14.91h2.9Z"/><path class="cls-3" d="m684.24,216.22c0-1.02-.37-1.87-1.11-2.56-.74-.69-2.05-1.27-3.92-1.76-2.32-.57-4.14-1.4-5.44-2.5-1.3-1.1-1.95-2.48-1.95-4.15,0-1.76.7-3.22,2.1-4.39s3.22-1.76,5.46-1.76c2.41,0,4.32.67,5.75,2.01,1.43,1.34,2.12,2.91,2.08,4.69l-.05.09h-2.95c0-1.27-.45-2.33-1.36-3.16-.91-.83-2.06-1.25-3.48-1.25s-2.55.34-3.32,1.03c-.77.69-1.15,1.58-1.15,2.68,0,.98.42,1.79,1.26,2.44.84.65,2.21,1.23,4.1,1.72,2.3.59,4.05,1.45,5.26,2.59,1.2,1.14,1.8,2.55,1.8,4.22,0,1.81-.72,3.26-2.17,4.36-1.45,1.1-3.34,1.65-5.67,1.65-2.21,0-4.16-.61-5.85-1.82-1.69-1.21-2.51-2.84-2.46-4.87l.03-.09h2.95c0,1.41.54,2.49,1.63,3.26,1.09.77,2.32,1.15,3.69,1.15,1.46,0,2.62-.32,3.48-.97.85-.65,1.28-1.53,1.28-2.64Z"/><path class="cls-3" d="m704.66,216.09h-8.92l-2.12,5.78h-3.27l8.54-22.44h2.75l8.36,22.44h-3.27l-2.08-5.78Zm-7.99-2.54h7.08l-3.45-9.63h-.1l-3.53,9.63Z"/><path class="cls-3" d="m293.59,213.05h-7.36v-2.1h7.36v2.1Z"/><path class="cls-3" d="m467.35,213.05h-7.36v-2.1h7.36v2.1Z"/><path class="cls-3" d="m565.34,213.05h-7.36v-2.1h7.36v2.1Z"/><path class="cls-3" d="m636.74,213.05h-7.36v-2.1h7.36v2.1Z"/><path class="cls-3" d="m508.63,222.2c-2.4,0-4.26-.77-5.61-2.3-1.34-1.53-2.01-3.55-2.01-6.04v-.68c0-2.39.69-4.37,2.07-5.94,1.38-1.57,3.07-2.35,5.06-2.35,2.23,0,3.9.69,5.02,2.08,1.11,1.39,1.67,3.23,1.67,5.53v1.6h-10.67l-.05.08c0,1.68.37,3.03,1.11,4.08.74,1.04,1.87,1.56,3.39,1.56,2.21,0,3.64-1.89,4.2-2.4l1.74.97c-1.52,3.35-4.56,3.8-5.94,3.8Zm-.48-14.92c-1.06,0-1.93.41-2.63,1.22-.69.82-1.12,1.86-1.27,3.14l.03.08h7.52v-.25c0-1.21-.3-2.21-.89-3.01-.6-.79-1.52-1.19-2.76-1.19Z"/><g class="cls-5"><rect class="cls-1" y="37.39" width="160.93" height="155.79"/></g></svg>