<?xml version="1.0" encoding="UTF-8"?><svg id="Capa_23" xmlns="http://www.w3.org/2000/svg" xmlns:xlink="http://www.w3.org/1999/xlink" viewBox="0 0 752.64 299.39"><defs><style>.cls-1{fill:url(#Degradado_sin_nombre_8);}.cls-1,.cls-2,.cls-3,.cls-4{stroke-width:0px;}.cls-2{fill:none;}.cls-3{fill:#0968a9;}.cls-4{fill:gray;}.cls-5{clip-path:url(#clippath);}</style><clipPath id="clippath"><path class="cls-2" d="m187.3,53.11c-9.98-3.56-20.8-4.22-31.16-2,7.65,2.85,14.78,6.91,20.98,11.99l17.63-6.71c-2.38-1.26-4.86-2.36-7.43-3.28,0,0-.01,0-.02,0Zm-35.3,2.98l5.51,14.49,12.92-4.91c-5.55-4.08-11.8-7.32-18.43-9.58Zm-5.77,2.19c-3.45,6.09-5.97,12.67-7.41,19.4l12.92-4.91-5.51-14.49Zm-6.4-.97c-9.23,5.23-16.88,12.92-21.97,22.22,0,.02-.02.03-.03.05-1.29,2.37-2.4,4.8-3.33,7.29l17.62-6.7c1.26-7.9,3.89-15.66,7.71-22.86Zm61.33,3.07l-12.45,4.74c-.09.04-.18.08-.27.12l-6.3,2.39c6.52,6.46,11.75,14.12,15.36,22.52l21.33-8.11c-3.87-8.67-9.99-16.11-17.68-21.66Zm-41.22,15.69l-.29.11,9.38,24.66,22.66-8.62c-3.67-8.4-9.1-15.97-15.9-22.18l-15.84,6.02Zm-19.31,35.71l22.67-8.62-9.42-24.78-16.14,6.14c-.96,9.2.02,18.52,2.89,27.27Zm80.35-24.13l-21.33,8.11c2.62,7.87,3.81,16.05,3.55,24.42l17.79-6.77c.56-.21,1.13-.26,1.67-.16,1.53-8.52.97-17.25-1.69-25.61Zm-89.61-.72c-.17.06-.33.1-.5.13l-18.52,7.04c-2.07,9.26-1.7,18.91,1.17,27.98l21.33-8.11c-2.88-8.68-4.07-17.88-3.48-27.04Zm62.45,10.9l-22.67,8.62,8.41,22.11.2.53,15.48-5.89c.09-.04.18-.08.27-.12l1.42-.54c.56-8.49-.48-16.78-3.11-24.73Zm-28.39,10.94l-19.76,7.51-2.91,1.11c3.31,7.62,8.01,14.46,14.03,20.39.17-.06.35-.11.52-.14l16.69-6.35-.2-.53-8.36-21.99Zm-28.44,10.82l-21.33,8.11c3.48,7.84,8.71,14.6,15.31,19.9l19.56-7.44c-5.74-6.08-10.27-12.97-13.54-20.58Zm59.16,9.71l-14.25,5.42,6.37,16.74c3.9-6.89,6.57-14.41,7.88-22.15Zm24.92-9.49l-11.68,4.44c-.09.04-.18.08-.27.12l-6.42,2.44c-1.08,8.93-3.82,17.64-8.05,25.63,10.06-5.67,18.16-14.2,23.23-24.6,0,0,0-.02.01-.03,1.27-2.62,2.33-5.29,3.17-8.01Zm-38.57,33.84l-6.36-16.74-14.25,5.42c6.12,4.93,13.12,8.77,20.61,11.32Zm-27.17-8.83l-3.21,1.22c-.19.07-.38.12-.56.16l-14.64,5.57c2.44,1.48,5.03,2.78,7.73,3.9.01,0,.03.01.04.02,10.69,4.4,22.41,5.39,33.69,2.94-8.47-3.16-16.32-7.85-23.05-13.81Zm-8.67-97.23c13.86-5,29.05-5.06,42.8-.16.02,0,.04.01.06.02,16.81,6.01,30.02,18.83,36.24,35.17,5.9,15.53,5.09,32.46-2.3,47.68,0,0,0,.02-.01.03-6.88,14.13-18.8,25.16-33.6,31.05l-.25.11c-.22.1-.44.2-.67.29h-.02c-.24.1-.48.17-.72.25l-.27.08c-14.96,5.42-31.19,5.11-45.71-.88,0,0-.02,0-.03-.01-15.63-6.45-27.5-18.54-33.41-34.06,0-.02-.01-.04-.02-.05,0-.01,0-.03-.01-.04-6.2-16.33-4.84-34.67,3.73-50.32,0,0,0-.01.01-.02,7.02-12.81,18.42-22.88,32.12-28.35.04-.02.07-.03.11-.04l.24-.11c.2-.09.41-.19.62-.27.02,0,.04-.01.06-.02.02,0,.04-.01.06-.02.21-.08.43-.15.64-.21l.24-.08s.08-.03.12-.04Z"/></clipPath><linearGradient id="Degradado_sin_nombre_8" x1="102.71" y1="104.89" x2="231.84" y2="104.89" gradientUnits="userSpaceOnUse"><stop offset="0" stop-color="#076bab"/><stop offset="1" stop-color="#4ca9db"/></linearGradient></defs><polygon class="cls-4" points="284.72 96.2 284.72 93.73 264.63 93.73 264.63 60.41 262.15 60.41 262.15 96.2 284.72 96.2"/><path class="cls-4" d="m312.48,66.08l-8.59,18.56h16.79l-8.2-18.56Zm-9.75,21.03l-4.24,9.09h-2.75l16.85-36.23,15.91,36.23h-2.7l-4.02-9.09h-19.05Z"/><polygon class="cls-4" points="363.9 60.41 363.9 62.95 349.75 62.95 349.75 96.2 347.22 96.2 347.22 62.95 333.01 62.95 333.01 60.41 363.9 60.41"/><path class="cls-4" d="m385.27,66.08l-8.59,18.56h16.79l-8.2-18.56Zm-9.75,21.03l-4.24,9.09h-2.75l16.85-36.23,15.91,36.23h-2.7l-4.02-9.09h-19.05Z"/><polygon class="cls-4" points="449.86 96.2 449.86 59.97 431.52 86.18 412.97 59.97 412.97 96.2 415.44 96.2 415.44 67.85 431.52 90.53 447.38 67.9 447.38 96.2 449.86 96.2"/><polygon class="cls-4" points="514.77 60.41 514.77 62.95 500.63 62.95 500.63 96.2 498.09 96.2 498.09 62.95 483.89 62.95 483.89 60.41 514.77 60.41"/><path class="cls-4" d="m547.76,96.2l-14.86-18.06h4.4c2.72,0,4.92-.35,6.61-1.05,1.25-.59,2.33-1.48,3.25-2.67.92-1.19,1.37-2.51,1.37-3.94,0-1.29-.38-2.51-1.15-3.66s-1.87-2.1-3.31-2.84c-1.43-.73-3.08-1.1-4.95-1.1h-10.02v33.31h-2.48v-35.79h12.5c1.69,0,3.26.27,4.73.8,1.47.53,2.76,1.29,3.86,2.29,1.06.95,1.88,2.04,2.45,3.25.57,1.21.85,2.46.85,3.74,0,2.02-.61,3.83-1.82,5.42-1.21,1.6-2.64,2.74-4.29,3.44-1.14.51-2.25.84-3.33.96-1.09.13-2.23.19-3.44.19l12.94,15.69h-3.31Z"/><path class="cls-4" d="m578.43,66.08l-8.59,18.56h16.79l-8.2-18.56Zm-9.75,21.03l-4.24,9.09h-2.76l16.85-36.23,15.91,36.23h-2.7l-4.02-9.09h-19.05Z"/><path class="cls-4" d="m608.55,62.95h7.82c4.4,0,8.02,1.52,10.85,4.57,1.29,1.39,2.27,3.02,2.95,4.87.68,1.85,1.01,3.81,1.01,5.86s-.33,4.07-1.01,5.92c-.68,1.85-1.66,3.48-2.95,4.87-2.79,3.12-6.4,4.68-10.85,4.68h-7.82v-30.78Zm7.82,33.26c2.53,0,4.88-.47,7.05-1.4,2.17-.94,4.03-2.29,5.62-4.05,1.5-1.69,2.66-3.6,3.47-5.73s1.21-4.39,1.21-6.77-.41-4.64-1.21-6.77c-.81-2.13-1.96-4.02-3.47-5.67-1.58-1.72-3.45-3.06-5.62-3.99-2.17-.94-4.52-1.4-7.05-1.4h-10.3v35.79h10.3Z"/><polygon class="cls-4" points="669.06 96.2 669.06 93.62 648.36 93.62 648.36 79.57 664.49 79.57 664.49 77.04 648.36 77.04 648.36 62.95 669.06 62.95 669.06 60.41 645.88 60.41 645.88 96.2 669.06 96.2"/><path class="cls-4" d="m280.07,151.76c2.76,0,5.37-.6,7.83-1.79,2.46-1.19,4.56-2.88,6.29-5.05l-1.98-1.54c-1.51,1.84-3.32,3.27-5.43,4.3-2.11,1.03-4.35,1.54-6.7,1.54-2.83,0-5.44-.71-7.83-2.12-2.39-1.41-4.29-3.34-5.71-5.76-1.42-2.43-2.12-5.07-2.12-7.94s.71-5.51,2.12-7.94c1.42-2.43,3.32-4.35,5.71-5.76,2.39-1.42,5-2.12,7.83-2.12,2.21,0,4.31.46,6.31,1.38,2,.92,3.74,2.21,5.21,3.86l1.93-1.71c-1.76-1.91-3.81-3.39-6.15-4.44-2.33-1.05-4.77-1.57-7.31-1.57-3.27,0-6.3.83-9.1,2.48-2.79,1.65-5,3.88-6.62,6.67-1.62,2.79-2.43,5.85-2.43,9.15s.81,6.37,2.43,9.18c1.62,2.81,3.82,5.05,6.62,6.7,2.79,1.65,5.83,2.48,9.1,2.48Z"/><path class="cls-4" d="m320.05,121.21l-8.6,18.58h16.82l-8.22-18.58Zm-9.76,21.06l-4.25,9.1h-2.76l16.87-36.28,15.94,36.28h-2.7l-4.02-9.1h-19.08Z"/><path class="cls-4" d="m350.21,118.07h10.31c1.65,0,3.18.34,4.58,1.02,1.4.68,2.51,1.6,3.34,2.76.83,1.16,1.24,2.44,1.24,3.83s-.41,2.62-1.24,3.78c-.83,1.16-1.94,2.08-3.34,2.76-1.4.68-2.92,1.02-4.58,1.02h-10.26l-.05-15.16Zm.05,33.3v-15.55h10.26c2.1,0,4.03-.46,5.82-1.38,1.78-.92,3.2-2.16,4.25-3.72,1.05-1.56,1.57-3.24,1.57-5.05s-.52-3.53-1.57-5.07c-1.05-1.54-2.46-2.78-4.25-3.69-1.78-.92-3.72-1.38-5.82-1.38h-12.79l.05,35.84h2.48Z"/><rect class="cls-4" x="385.06" y="115.53" width="2.48" height="35.84"/><polygon class="cls-4" points="430.71 115.53 430.71 118.07 416.54 118.07 416.54 151.37 414.01 151.37 414.01 118.07 399.78 118.07 399.78 115.53 430.71 115.53"/><path class="cls-4" d="m452.11,121.21l-8.61,18.58h16.82l-8.21-18.58Zm-9.76,21.06l-4.25,9.1h-2.76l16.87-36.28,15.93,36.28h-2.7l-4.02-9.1h-19.08Z"/><polygon class="cls-4" points="502.39 151.37 502.39 148.89 482.27 148.89 482.27 115.53 479.79 115.53 479.79 151.37 502.39 151.37"/><path class="cls-3" d="m277.76,184.65l.02.07c.03,1.69-.56,3.1-1.78,4.24-1.22,1.14-2.83,1.71-4.84,1.71s-3.7-.72-4.98-2.16c-1.28-1.44-1.92-3.27-1.92-5.49v-3.2c0-2.22.64-4.05,1.92-5.5,1.28-1.45,2.94-2.17,4.98-2.17s3.66.54,4.86,1.63c1.2,1.08,1.79,2.52,1.76,4.31l-.02.07h-2.34c0-1.26-.37-2.26-1.11-2.99s-1.79-1.1-3.14-1.1-2.45.55-3.25,1.64c-.81,1.1-1.21,2.46-1.21,4.08v3.23c0,1.64.4,3.01,1.21,4.11.81,1.1,1.89,1.64,3.25,1.64s2.4-.36,3.14-1.09c.74-.73,1.11-1.74,1.11-3.02h2.34Z"/><path class="cls-3" d="m284.07,178.82c.46-.64,1.03-1.14,1.7-1.5.67-.36,1.42-.54,2.23-.54,1.42,0,2.54.43,3.33,1.29.8.86,1.19,2.18,1.19,3.96v8.39h-2.44v-8.41c0-1.11-.24-1.92-.71-2.45-.48-.53-1.18-.79-2.12-.79-.73,0-1.36.14-1.89.43-.54.28-.97.68-1.3,1.19v10.03h-2.44v-19.29h2.44v7.71Z"/><path class="cls-3" d="m307.07,190.41h-2.44v-18.93h2.44v18.93Z"/><path class="cls-3" d="m317.37,190.67c-1.92,0-3.42-.61-4.5-1.84-1.07-1.23-1.61-2.84-1.61-4.85v-.54c0-1.92.55-3.51,1.66-4.77,1.11-1.26,2.46-1.89,4.06-1.89,1.79,0,3.13.56,4.03,1.67.89,1.11,1.34,2.59,1.34,4.44v1.29h-8.56l-.04.06c0,1.34.3,2.43.89,3.27.59.84,1.5,1.26,2.72,1.26,1.78,0,2.92-1.51,3.37-1.93l1.4.78c-1.22,2.69-3.66,3.05-4.76,3.05Zm-.38-11.97c-.85,0-1.55.33-2.11.98-.55.66-.9,1.49-1.02,2.52l.02.06h6.04v-.2c0-.97-.24-1.78-.72-2.41-.48-.63-1.22-.95-2.22-.95Z"/><path class="cls-3" d="m362.38,184.41l.02.07c.03,1.69-.56,3.1-1.78,4.24-1.22,1.14-2.83,1.71-4.84,1.71s-3.7-.72-4.98-2.16c-1.28-1.44-1.92-3.27-1.92-5.49v-3.2c0-2.22.64-4.05,1.92-5.5s2.94-2.17,4.98-2.17,3.66.54,4.86,1.63c1.2,1.08,1.79,2.52,1.76,4.31l-.02.07h-2.34c0-1.26-.37-2.26-1.11-2.99-.74-.73-1.79-1.1-3.14-1.1s-2.44.55-3.25,1.65-1.21,2.46-1.21,4.08v3.23c0,1.64.4,3.01,1.21,4.11s1.89,1.64,3.25,1.64,2.4-.36,3.14-1.09c.74-.73,1.11-1.74,1.11-3.02h2.34Z"/><path class="cls-3" d="m365.76,183.36c0-1.98.54-3.61,1.61-4.89,1.07-1.28,2.53-1.92,4.37-1.92s3.32.64,4.4,1.92c1.08,1.28,1.61,2.91,1.61,4.9v.27c0,2-.54,3.63-1.61,4.9-1.07,1.27-2.53,1.9-4.38,1.9s-3.31-.64-4.38-1.91c-1.08-1.27-1.61-2.9-1.61-4.89v-.27Zm2.44.27c0,1.42.3,2.59.9,3.51.6.92,1.49,1.39,2.67,1.39s2.04-.46,2.65-1.39c.6-.92.9-2.09.9-3.51v-.27c0-1.4-.3-2.57-.91-3.5-.61-.93-1.49-1.4-2.66-1.4s-2.04.47-2.64,1.4c-.6.93-.9,2.1-.9,3.5v.27Z"/><path class="cls-3" d="m384.45,190.17h-2.44v-18.65h2.44v18.65Z"/><path class="cls-3" d="m388.72,183.36c0-1.98.54-3.61,1.61-4.89,1.07-1.28,2.53-1.92,4.37-1.92s3.32.64,4.4,1.92c1.08,1.28,1.61,2.91,1.61,4.9v.27c0,2-.54,3.63-1.61,4.9-1.07,1.27-2.53,1.9-4.38,1.9s-3.31-.64-4.38-1.91c-1.08-1.27-1.61-2.9-1.61-4.89v-.27Zm2.44.27c0,1.42.3,2.59.9,3.51.6.92,1.49,1.39,2.67,1.39s2.04-.46,2.65-1.39c.6-.92.9-2.09.9-3.51v-.27c0-1.4-.3-2.57-.91-3.5-.61-.93-1.49-1.4-2.66-1.4s-2.04.47-2.64,1.4c-.6.93-.9,2.1-.9,3.5v.27Z"/><path class="cls-3" d="m406.95,176.79l.17,1.76c.44-.63.99-1.13,1.66-1.48.67-.35,1.45-.53,2.34-.53s1.66.21,2.29.62c.64.41,1.12,1.03,1.44,1.85.43-.77.99-1.37,1.68-1.81s1.49-.66,2.42-.66c1.36,0,2.44.47,3.23,1.4s1.19,2.34,1.19,4.22v8h-2.44v-8.03c0-1.32-.23-2.25-.68-2.8-.45-.55-1.13-.82-2.03-.82-.83,0-1.51.29-2.02.87s-.82,1.31-.91,2.19v8.6h-2.45v-8.03c0-1.25-.23-2.17-.7-2.75-.47-.58-1.14-.87-2.01-.87-.74,0-1.35.15-1.83.46s-.85.73-1.1,1.29v9.91h-2.44v-13.38h2.18Z"/><path class="cls-3" d="m439.43,183.99c0,1.93-.46,3.49-1.39,4.67-.93,1.18-2.2,1.77-3.83,1.77-.89,0-1.66-.17-2.32-.53-.65-.35-1.2-.87-1.63-1.55l-.4,1.82h-1.87v-18.71h2.44v6.91c.42-.59.94-1.05,1.56-1.36.62-.31,1.35-.47,2.18-.47,1.65,0,2.94.66,3.86,1.98.92,1.32,1.39,3.05,1.39,5.21v.26Zm-2.44-.26c0-1.53-.28-2.79-.85-3.75-.56-.97-1.42-1.45-2.58-1.45-.75,0-1.38.18-1.9.55s-.93.86-1.23,1.48v5.8c.31.66.72,1.17,1.23,1.55.51.37,1.15.56,1.92.56,1.15,0,2-.41,2.56-1.22s.84-1.9.84-3.24v-.26Z"/><rect class="cls-3" x="443.57" y="172.14" width="2.44" height="2.49" rx="1.22" ry="1.22"/><rect class="cls-3" x="443.68" y="176.79" width="2.44" height="13.38"/><rect class="cls-3" x="297.19" y="172.14" width="2.44" height="2.49" rx="1.22" ry="1.22"/><rect class="cls-3" x="297.3" y="176.79" width="2.44" height="13.38"/><path class="cls-3" d="m458.48,190.17c-.08-.4-.15-.76-.19-1.07-.04-.31-.07-.62-.08-.93-.45.64-1.05,1.18-1.77,1.61-.73.43-1.51.65-2.36.65-1.39,0-2.46-.36-3.18-1.07-.73-.71-1.1-1.7-1.1-2.95s.52-2.28,1.55-3c1.04-.72,2.44-1.08,4.21-1.08h2.65v-1.32c0-.78-.24-1.4-.72-1.86s-1.15-.69-2.03-.69c-.79,0-1.43.2-1.92.59-.49.4-.73.87-.73,1.42l-2.31.02-.02-.07c-.06-.97.4-1.86,1.37-2.67.97-.81,2.22-1.21,3.75-1.21s2.74.39,3.66,1.16c.92.77,1.39,1.88,1.39,3.33v6.44c0,.48.02.94.07,1.39.05.45.14.88.27,1.31h-2.51Zm-4.04-1.78c.88,0,1.68-.23,2.39-.68.71-.45,1.17-.97,1.39-1.56v-2.18h-2.73c-.98,0-1.77.25-2.36.74-.59.49-.88,1.08-.88,1.74,0,.59.18,1.06.56,1.41s.92.52,1.64.52Z"/><path class="cls-3" d="m490.92,183.19v7.22h-2.44v-18.01h6.89c1.92,0,3.41.49,4.48,1.48,1.07.99,1.6,2.29,1.6,3.91s-.54,2.94-1.6,3.92c-1.07.98-2.56,1.47-4.48,1.47h-4.45Zm0-1.91h4.45c1.22,0,2.13-.33,2.73-.98.6-.66.9-1.48.9-2.48s-.3-1.83-.91-2.5-1.52-1-2.73-1h-4.45v6.96Z"/><path class="cls-3" d="m526.15,179.16l-1.5-.05c-.64,0-1.18.15-1.63.46-.44.31-.78.73-1.02,1.29v9.56h-2.44v-13.38h2.18l.24,1.95c.38-.69.85-1.23,1.41-1.62.55-.39,1.2-.58,1.92-.58.18,0,.36.01.52.04.17.03.3.06.41.09l-.09,2.24Z"/><path class="cls-3" d="m537.43,188.43c-.41.72-.93,1.27-1.57,1.66-.64.39-1.38.58-2.22.58-1.42,0-2.52-.47-3.31-1.4-.79-.93-1.19-2.38-1.19-4.35v-7.89h2.36v7.92c0,1.43.2,2.41.61,2.94.41.54,1.04.8,1.9.8s1.53-.18,2.08-.53.96-.85,1.24-1.49v-9.65h2.36v13.38h-2.12l-.16-1.98Z"/><polygon class="cls-3" points="535.51 171.61 538.35 171.61 538.38 171.68 535.05 174.9 533.22 174.9 535.51 171.61"/><path class="cls-3" d="m579.83,172.4v11.96c0,1.98-.59,3.52-1.77,4.64-1.18,1.11-2.7,1.67-4.57,1.67s-3.26-.56-4.4-1.68c-1.14-1.12-1.72-2.66-1.72-4.63v-11.96h2.24v11.96c0,1.38.36,2.45,1.08,3.23.72.78,1.66,1.17,2.8,1.17,1.21,0,2.2-.39,2.96-1.17.76-.78,1.14-1.86,1.14-3.23v-11.96h2.24Z"/><path class="cls-3" d="m589.81,182.27h-.35s-1.9,1.66-1.9,1.66v6.48h-2.44v-18.01h2.44v7.96h.57l7.44-7.96h2.75l.02.06-6.8,7.38.02,1.03,7.3,9.48-.02.06h-2.96l-6.07-8.14Z"/><path class="cls-3" d="m637.41,172.4v11.96c0,1.98-.61,3.52-1.84,4.64-1.23,1.11-2.81,1.67-4.75,1.67s-3.4-.56-4.59-1.68c-1.19-1.12-1.79-2.66-1.79-4.63v-11.96h2.33v11.96c0,1.38.38,2.45,1.13,3.23.75.78,1.72,1.17,2.91,1.17,1.26,0,2.29-.39,3.08-1.17.79-.78,1.19-1.86,1.19-3.23v-11.96h2.33Z"/><path class="cls-3" d="m651.74,185.87c0-.82-.3-1.5-.89-2.05-.6-.55-1.65-1.02-3.15-1.41-1.86-.45-3.32-1.12-4.36-2-1.04-.88-1.57-1.99-1.57-3.33,0-1.41.56-2.58,1.69-3.52s2.59-1.41,4.38-1.41c1.93,0,3.47.54,4.62,1.61,1.14,1.08,1.7,2.33,1.67,3.77l-.04.07h-2.37c0-1.02-.36-1.87-1.09-2.54-.73-.67-1.66-1-2.79-1s-2.05.28-2.66.83c-.62.55-.93,1.27-.93,2.15,0,.78.34,1.44,1.01,1.96.68.52,1.77.98,3.29,1.38,1.85.47,3.25,1.16,4.22,2.08.96.91,1.45,2.04,1.45,3.39,0,1.45-.58,2.62-1.74,3.5-1.16.88-2.68,1.32-4.55,1.32-1.77,0-3.34-.49-4.69-1.46-1.36-.97-2.01-2.28-1.97-3.91l.02-.07h2.37c0,1.13.44,2,1.31,2.62.87.61,1.86.92,2.96.92,1.18,0,2.1-.26,2.79-.78.68-.52,1.03-1.22,1.03-2.11Z"/><path class="cls-3" d="m668.12,185.77h-7.15l-1.7,4.64h-2.62l6.85-18.01h2.21l6.71,18.01h-2.62l-1.67-4.64Zm-6.41-2.04h5.68l-2.77-7.73h-.08l-2.83,7.73Z"/><path class="cls-3" d="m338.28,183.33h-5.91v-1.68h5.91v1.68Z"/><path class="cls-3" d="m477.71,183.33h-5.91v-1.68h5.91v1.68Z"/><path class="cls-3" d="m556.34,183.33h-5.91v-1.68h5.91v1.68Z"/><path class="cls-3" d="m613.63,183.33h-5.91v-1.68h5.91v1.68Z"/><path class="cls-3" d="m510.83,190.67c-1.92,0-3.42-.61-4.5-1.84-1.07-1.23-1.61-2.84-1.61-4.85v-.54c0-1.92.55-3.51,1.66-4.77,1.11-1.26,2.46-1.89,4.06-1.89,1.79,0,3.13.56,4.03,1.67.89,1.11,1.34,2.59,1.34,4.44v1.29h-8.56l-.04.06c0,1.34.3,2.43.89,3.27.59.84,1.5,1.26,2.72,1.26,1.78,0,2.92-1.51,3.37-1.93l1.4.78c-1.22,2.69-3.66,3.05-4.76,3.05Zm-.38-11.97c-.85,0-1.55.33-2.11.98-.55.66-.9,1.49-1.02,2.52l.02.06h6.04v-.2c0-.97-.24-1.78-.72-2.41-.48-.63-1.22-.95-2.22-.95Z"/><g class="cls-5"><rect class="cls-1" x="102.71" y="42.39" width="129.13" height="125"/></g></svg>