<?xml version="1.0" encoding="UTF-8"?><svg id="Capa_21" xmlns="http://www.w3.org/2000/svg" xmlns:xlink="http://www.w3.org/1999/xlink" viewBox="0 0 752.64 299.39"><defs><style>.cls-1{fill:url(#Degradado_sin_nombre_3);}.cls-1,.cls-2,.cls-3,.cls-4,.cls-5{stroke-width:0px;}.cls-2{fill:url(#Degradado_sin_nombre_2-2);}.cls-3{fill:url(#Degradado_sin_nombre_3-2);}.cls-4{fill:url(#Degradado_sin_nombre_2);}.cls-5{fill:#4e4d4d;}</style><linearGradient id="Degradado_sin_nombre_2" x1="149.21" y1="76.47" x2="231.51" y2="76.47" gradientUnits="userSpaceOnUse"><stop offset="0" stop-color="#213565"/><stop offset=".1" stop-color="#263e6d"/><stop offset=".26" stop-color="#365784"/><stop offset=".47" stop-color="#4f80aa"/><stop offset=".69" stop-color="#6fb3d9"/></linearGradient><linearGradient id="Degradado_sin_nombre_3" x1="394.41" y1="75.67" x2="478.99" y2="75.67" gradientUnits="userSpaceOnUse"><stop offset=".09" stop-color="#127f41"/><stop offset=".19" stop-color="#188143"/><stop offset=".32" stop-color="#2b8a4b"/><stop offset=".48" stop-color="#499858"/><stop offset=".66" stop-color="#73ab6a"/><stop offset=".79" stop-color="#97bb79"/></linearGradient><linearGradient id="Degradado_sin_nombre_3-2" x1="228.12" y1="68.38" x2="313.32" y2="68.38" xlink:href="#Degradado_sin_nombre_3"/><linearGradient id="Degradado_sin_nombre_2-2" x1="305.82" y1="68.78" x2="395.13" y2="68.78" xlink:href="#Degradado_sin_nombre_2"/></defs><path class="cls-5" d="m310.79,206.58l-9.85-27.53h-11.31v1.48c5.62,0,4.96,2.67,4.96,2.67v29.01h3.1v-29.55l10.59,29.55h3.56l10.39-29.41v29.41h4.69v-33.16h-6.32l-9.82,27.53Z"/><path class="cls-5" d="m341.5,189.03s-10.08-1.18-10.08,11.27c0,0-.53,17.46,18.77,11.35v-2.24s-12.65,5.44-13.47-11.21l14.17-.05s1.05-9.12-9.38-9.12Zm-4.85,7.15c.92-6.53,5.02-5.74,5.02-5.74,4.48,0,4.31,5.74,4.31,5.74h-9.33Z"/><path class="cls-5" d="m361.44,195.81v-6.78l-8.83,1.61v1.17c4.33-.55,3.82,3.12,3.82,3.12v17.28h5v-11.61c.67-10.05,8.78-6.65,8.78-6.65v-4.72c-7.38-1.7-8.78,6.57-8.78,6.57Z"/><path class="cls-5" d="m597.11,193.69l.82-4.75h-3.28s-4.55,23.26-4.55,23.26h3.2l2.72-12.65c2.96-8.32,9.09-7.63,9.09-7.63l.6-3.23c-6.33-.61-8.59,5-8.59,5Z"/><polygon class="cls-5" points="605.9 212.2 609.09 212.2 613.73 188.79 610.45 188.78 605.9 212.2"/><polygon class="cls-5" points="611.17 182.46 615.34 182.46 616.19 178.2 612.07 178.2 611.17 182.46"/><path class="cls-5" d="m432.14,189c-6.93,0-8.81,6.79-8.81,6.79v-6.79l-8.83,1.61v1.17c4.33-.55,3.83,3.12,3.83,3.12v17.3h5v-11.62c1.44-8.44,5.88-8.12,5.88-8.12,3.97-.29,3.45,4.9,3.45,4.9v14.84h4.96v-16.91c0-6.37-5.49-6.29-5.49-6.29Z"/><path class="cls-5" d="m632.97,188.69c-5.67-.67-8.55,5.72-8.55,5.72l1.08-5.42h-3.5l-4.53,23.22h3.45l2.39-11.76c3.64-9.17,7.69-8.7,7.69-8.7,4.04-.47,2.62,5.81,2.62,5.81l-2.76,14.65h3.28l3.03-15c1.88-8.89-4.18-8.51-4.18-8.51Z"/><path class="cls-5" d="m459.84,191.6c4.33-.55,3.83,3.15,3.83,3.15v17.45h5v-23.41l-8.83,1.62v1.18Z"/><path class="cls-5" d="m472.42,180.12c4.33-.55,3.83,3.32,3.83,3.32v28.76h5v-34.49l-8.83,1.39v1.01Z"/><path class="cls-5" d="m381.84,190.64s3.18-.04,3.18,4.76h5.87s.14-6.15-9.09-6.4c0,0-9.91-.51-9.86,11.59,0,0-.43,17.21,17.9,11.1l-.05-2.29s-10.97,5.29-12.27-8.81c0,0-1.08-10.49,4.33-9.95Z"/><path class="cls-5" d="m404.36,189c-9.05,0-9.48,6.43-9.48,6.43l5.65-.02c-.02-5.34,3.68-4.89,3.68-4.89,2.94,0,2.94,4.05,2.94,4.05v5.34c-13.66-.21-12.99,7.15-12.99,7.15.82,6.39,6.83,5.94,6.83,5.94,3.8,0,6.21-3.69,6.21-3.69v2.9h4.72v-16.53c.24-7.01-7.55-6.67-7.55-6.67Zm-1.32,21.34s-3.68.91-3.68-4.4c0,0,0-4.62,7.77-4.4v2.81s.31,5.56-4.09,5.99Z"/><path class="cls-5" d="m449.88,181.23l-4.96,4.38.02,3.7h-3.92v1.97h3.9v16.19c0,7.96,10.63,4.98,10.63,4.98v-1.83c-6.25,1.01-5.73-3.51-5.73-3.51v-15.93h6.45v-1.88h-6.4v-8.08Z"/><path class="cls-5" d="m560.84,181.48l-4,1.7-1.04,5.6h-3.68l-.5,2.81,3.64-.02-2.52,13.32c-2.12,10.85,7.95,7.4,7.95,7.4l.65-2.4c-1.47.08-2.97.09-3.78-.04-2.31-.36-1.49-3.35-1.49-3.35l2.83-14.95,6.12.02.55-2.76-6.11-.02,1.38-7.31Z"/><path class="cls-5" d="m498.81,188.79l.77-3.81c1.11-6.88,9-3.71,9-3.71l.53-3.03c-12.13-2.62-12.89,6.78-12.89,6.78l-.83,3.76h-3.75l-.91,2.74h4.04l-4.04,20.68h3.61l3.95-20.68h6.64l.48-2.74h-6.59Z"/><path class="cls-5" d="m521.23,193.05c-1.54-4.83-5.73-4.59-5.73-4.59-9.6.22-10.3,15.59-10.3,15.59-.19,9.51,6.06,8.89,6.06,8.89,4.81,0,6.88-4.45,6.88-4.45l-.67,3.72h3.61l4.33-23.27h-3.46l-.72,4.11Zm-1.58,8.5c-1.33,6.14-4.73,9.23-7.61,8.59-3.5-.79-3.64-5.14-2.6-10.42,1.04-5.28,3.86-9.17,7-8.55,2.9.57,4.35,5.13,3.21,10.39Z"/><path class="cls-5" d="m579.3,188.53c-7.12,0-10.29,3.58-12.01,9.84-3.12,11.39,2.49,14.23,6.82,14.44,6.11.3,9.98-3.48,11.54-10.11,1.56-6.63,1.01-14.17-6.35-14.17Zm2.74,14.15c-1.21,5.13-3.42,7.43-7.14,7.43-2.64,0-5.81-1.8-4.08-10.79.95-4.94,3.19-8.38,7.77-8.22,4.51.16,4.67,6.45,3.46,11.58Z"/><path class="cls-5" d="m659.13,188.87l-.84,4.17c-.96-3.98-4.6-4.52-4.6-4.52-5.97-1.17-9.19,5.96-9.19,5.96-4.81,11.04-.1,16.31-.1,16.31,6.04,5.08,11.11-2.8,11.11-2.8-1.01,8.06-3.42,9.38-3.42,9.38-4.16,3.67-11.63.68-11.63.68l-.54,3.16c17.27,4.7,18.28-8.99,18.28-8.99l4.52-23.36h-3.61Zm-2.51,12.8c-1.47,6.14-5.01,8.48-7.74,7.85-2.73-.63-3.36-4.61-2.14-10.14,1.55-7.04,4.35-8.73,7.08-8.09,2.73.63,4.11,4.89,2.8,10.38Z"/><path class="cls-5" d="m540.43,191.09c3.61,0,3.46,3.28,3.46,3.28l.1,1.44h3.85c.38-7.51-6.28-7.35-6.28-7.35-5.43-.51-8.14,3.01-8.14,3.01-7.74,9.47-2.47,18-2.47,18,3.75,5.49,13.33,2.73,13.33,2.73v-2.73c-12.41,3.32-11.45-7.55-11.45-7.55.87-11.64,7.6-10.83,7.6-10.83Z"/><circle class="cls-5" cx="466.04" cy="181.9" r="2.94"/><path class="cls-4" d="m149.21,147.02l26.66-.11s20.54-7.48,32.89-76.16c0,0,7.26-47.48,22.75-60.49l-3.39-4.34s-23.24-1.45-35.82,46.27l-11.62,37.59s-9.68,43.98-31.47,57.24Z"/><path class="cls-1" d="m478.99,146.2h-25.18s-19.49-6.77-33.36-77.42c0,0-13.29-55.31-25.32-58.76l-.73-4.15s28.32-10.07,43.09,44.41l11.19,37.59s9.32,45.07,30.3,58.32Z"/><path class="cls-3" d="m231.51,10.26s12.07-8.68,34.61,70.85c0,0,15.25,52.29,39.7,50.61l7.5-3.86s-13.58-11.45-30.74-60.25c0,0-12.59-54.6-40.91-62.48,0,0-7.09-.6-13.55.79l3.39,4.34Z"/><path class="cls-2" d="m305.82,131.72l23.48.04s25.17-4.86,36.79-51.37c0,0,9.44-52.78,29.05-70.37l-.73-4.15s-28.08-4.28-43.93,53.31c0,0-18.63,67.75-37.15,68.68l-7.5,3.86Z"/></svg>