<?xml version="1.0" encoding="UTF-8"?><svg id="Capa_5" xmlns="http://www.w3.org/2000/svg" viewBox="0 0 710.01 297.97"><defs><style>.cls-1,.cls-2{fill:#0d4593;stroke-width:0px;}.cls-2{fill-rule:evenodd;}</style></defs><g id="Capa_2"><g id="logo"><polygon class="cls-1" points="347.41 71.37 347.41 123.19 337.55 123.19 311.69 91.74 311.69 123.19 299.87 123.19 299.87 71.37 309.76 71.37 335.55 102.82 335.55 71.37 347.41 71.37"/><path class="cls-1" d="m380.43,117.95c-4.37-4.76-6.61-11.1-6.2-17.55v-29.02h12.01v28.56c0,9.26,3.85,13.91,11.55,13.93,3.23.22,6.38-1.02,8.58-3.39,2.22-3.05,3.27-6.79,2.96-10.55v-28.56h11.86v29.02c.41,6.45-1.83,12.79-6.2,17.55-10.09,8.21-24.55,8.21-34.64,0"/><polygon class="cls-1" points="487.79 113.56 487.79 123.19 447.64 123.19 447.64 71.37 486.83 71.37 486.83 81 459.57 81 459.57 92.24 483.63 92.24 483.63 101.59 459.57 101.59 459.57 113.56 487.79 113.56"/><polygon class="cls-1" points="561.23 71.37 538.79 123.19 526.94 123.19 504.57 71.37 517.54 71.37 533.33 108.4 549.3 71.37 561.23 71.37"/><path class="cls-1" d="m590.29,120.61c-4.2-2.21-7.71-5.52-10.16-9.58-4.88-8.51-4.88-18.97,0-27.48,2.46-4.04,5.97-7.32,10.16-9.51,9.14-4.62,19.92-4.62,29.06,0,4.18,2.22,7.68,5.53,10.12,9.58,4.98,8.48,4.98,19,0,27.48-2.44,4.05-5.94,7.37-10.12,9.58-9.14,4.62-19.92,4.62-29.06,0m22.83-8.85c2.51-1.39,4.57-3.46,5.97-5.97,2.82-5.38,2.82-11.79,0-17.17-1.34-2.48-3.35-4.52-5.81-5.89-5.17-2.82-11.42-2.82-16.59,0-2.45,1.38-4.46,3.42-5.81,5.89-2.77,5.39-2.77,11.78,0,17.17,1.36,2.46,3.37,4.49,5.81,5.89,5.17,2.82,11.42,2.82,16.59,0"/><path class="cls-1" d="m310.65,200.36c-4.1-2.17-7.5-5.45-9.82-9.47-4.78-8.43-4.78-18.75,0-27.18,2.36-4,5.76-7.27,9.85-9.47,4.33-2.26,9.17-3.37,14.05-3.23,3.8-.05,7.58.63,11.12,2,3.25,1.24,6.18,3.18,8.58,5.7l-4.81,4.81c-3.76-4.04-9.07-6.27-14.59-6.12-3.64-.06-7.24.83-10.43,2.58-3.05,1.67-5.58,4.15-7.31,7.16-3.49,6.34-3.49,14.02,0,20.36,1.74,3,4.27,5.46,7.31,7.12,3.19,1.76,6.79,2.67,10.43,2.62,5.53.12,10.85-2.16,14.59-6.24l4.81,4.66c-2.37,2.67-5.32,4.75-8.62,6.08-3.55,1.42-7.34,2.12-11.16,2.08-4.89.07-9.72-1.12-14.01-3.46"/><path class="cls-1" d="m401.6,190.28h-27.56l-5.7,12.93h-7.7l23.63-51.81h7.31l23.48,51.81h-7.7l-5.77-12.93Zm-2.62-5.93l-11.16-25.41-11.24,25.41h22.4Z"/><path class="cls-1" d="m473.62,156.21c7.32,6.83,7.73,18.3.9,25.62-.29.31-.59.61-.9.9-4.54,3.42-10.14,5.13-15.82,4.81h-12.82v15.67h-7.39v-51.81h20.21c5.68-.32,11.28,1.39,15.82,4.81m-5.31,21.75c4.76-4.52,4.95-12.05.43-16.82-.14-.15-.28-.29-.43-.43-3.13-2.2-6.92-3.26-10.74-3h-12.59v23.1h12.43c3.82.26,7.61-.8,10.74-3"/><rect class="cls-1" x="505.11" y="151.4" width="7.39" height="51.85"/><polygon class="cls-1" points="553.15 157.83 535.4 157.83 535.4 151.4 578.25 151.4 578.25 157.83 560.5 157.83 560.5 203.21 553.15 203.21 553.15 157.83"/><path class="cls-1" d="m631.56,190.28h-27.52l-5.7,12.93h-7.7l23.44-51.81h7.35l23.52,51.81h-7.7l-5.7-12.93Zm-2.58-5.93l-11.16-25.41-11.2,25.41h22.36Z"/><polygon class="cls-1" points="667.55 151.4 674.94 151.4 674.94 196.78 703.04 196.78 703.04 203.21 667.55 203.21 667.55 151.4"/><path class="cls-2" d="m272.92,216.45c-72.06-57.51-165.79-54.66-254.32,56.93L116.41.89l58.01,117.63c-11.9-6.63-26.31-6.95-38.49-.85l-9.16-18.01-17.09,51.35c58.28-19.82,118.25,3.85,163.25,65.44"/></g></g></svg>