<?xml version="1.0" encoding="UTF-8"?><svg id="Capa_32" xmlns="http://www.w3.org/2000/svg" viewBox="0 0 752.64 336.34"><defs><style>.cls-1{fill:#e0e7e3;}.cls-1,.cls-2,.cls-3,.cls-4{stroke-width:0px;}.cls-2{fill:#342b68;}.cls-3{fill:#506e6a;}.cls-4{fill:#3c3568;}</style></defs><rect class="cls-1" x="152.33" width="468.87" height="336.34"/><path class="cls-2" d="m343.78,171.17s-37.76-56.64-113.28-31.65l10.55-32.76,8.61,15.55h23.6l-33.59-82.46-72.19,183.52s83.85-116.89,176.31-52.2Z"/><path class="cls-3" d="m234.34,218.65l13.18,21.34v-21.54c0-1.4.28-2.45.84-3.15.56-.7,1.32-1.05,2.27-1.05s1.76.35,2.33,1.05c.57.71.85,1.75.85,3.15v28.48c0,3.18-1.23,4.77-3.69,4.77-.62,0-1.17-.1-1.66-.28-.49-.19-.95-.49-1.38-.9-.43-.42-.83-.9-1.2-1.45-.37-.55-.74-1.11-1.11-1.69l-12.86-21.1v21.22c0,1.38-.3,2.43-.9,3.13-.6.71-1.37,1.06-2.31,1.06s-1.75-.36-2.33-1.08c-.59-.72-.88-1.75-.88-3.12v-27.94c0-1.19.12-2.12.37-2.8.29-.74.78-1.34,1.45-1.81.68-.47,1.41-.71,2.2-.71.61,0,1.14.11,1.58.32.43.21.82.5,1.15.87.33.36.67.83,1.01,1.41.35.58.7,1.18,1.07,1.8Z"/><path class="cls-3" d="m261.36,236.11v-17.41c0-1.48.32-2.6.93-3.34.63-.74,1.45-1.11,2.46-1.11,1.06,0,1.9.37,2.53,1.11.63.74.93,1.85.93,3.34v17.81c0,2.03.21,3.72.64,5.07.42,1.36,1.17,2.42,2.25,3.16,1.07.75,2.59,1.12,4.52,1.12,2.67,0,4.57-.76,5.68-2.28,1.1-1.52,1.66-3.83,1.66-6.93v-17.96c0-1.5.31-2.62.93-3.35.61-.73,1.44-1.1,2.47-1.1s1.86.37,2.5,1.1c.64.74.96,1.85.96,3.35v17.41c0,2.83-.26,5.2-.77,7.09-.52,1.89-1.49,3.55-2.92,4.99-1.23,1.22-2.66,2.1-4.29,2.67-1.63.56-3.54.84-5.72.84-2.6,0-4.84-.3-6.72-.91-1.87-.6-3.41-1.53-4.59-2.79-1.18-1.26-2.05-2.87-2.61-4.84-.55-1.97-.83-4.32-.83-7.05Z"/><path class="cls-3" d="m318.66,220.53h-14.7v8.89h13.53c1,0,1.74.25,2.23.75.49.5.74,1.16.74,1.99s-.24,1.49-.73,2.01c-.48.52-1.23.78-2.24.78h-13.53v10.3h15.21c1.02,0,1.8.27,2.32.81.52.53.78,1.25.78,2.14s-.26,1.55-.78,2.08c-.52.54-1.29.81-2.32.81h-17.73c-1.42,0-2.44-.35-3.06-1.06-.62-.71-.93-1.86-.93-3.44v-27.22c0-1.05.14-1.91.41-2.58.28-.67.72-1.16,1.31-1.46.6-.31,1.35-.46,2.28-.46h17.23c1.04,0,1.82.26,2.32.78.5.52.76,1.2.76,2.04s-.25,1.54-.76,2.06c-.5.52-1.28.78-2.32.78Z"/><path class="cls-3" d="m333.76,219.07l7.66,24.28,7.68-24.46c.4-1.28.7-2.18.9-2.68.2-.5.53-.96.99-1.36.46-.4,1.09-.61,1.89-.61.59,0,1.13.16,1.63.47.5.31.89.73,1.18,1.25.28.52.42,1.04.42,1.56,0,.36-.04.76-.13,1.17-.09.42-.21.83-.35,1.24-.14.4-.28.82-.41,1.25l-8.2,23.66c-.29.91-.59,1.77-.87,2.58-.29.82-.63,1.53-1.02,2.15-.39.62-.9,1.12-1.54,1.52-.64.4-1.42.6-2.34.6s-1.7-.2-2.34-.59c-.64-.38-1.16-.9-1.55-1.53-.39-.64-.74-1.35-1.03-2.16-.29-.81-.59-1.66-.88-2.57l-8.05-23.47c-.14-.43-.28-.85-.43-1.26-.15-.41-.27-.86-.37-1.33-.1-.48-.15-.88-.15-1.21,0-.84.31-1.61.94-2.3.63-.69,1.42-1.04,2.38-1.04,1.17,0,2,.39,2.48,1.15.48.77.98,1.99,1.49,3.67Z"/><path class="cls-3" d="m374.49,214.25c3.17,0,5.9.77,8.17,2.29,2.28,1.52,4,3.69,5.17,6.5,1.16,2.81,1.75,6.11,1.75,9.9,0,2.8-.32,5.34-.96,7.63-.64,2.29-1.6,4.27-2.88,5.95-1.28,1.68-2.85,2.96-4.72,3.86-1.86.89-4,1.33-6.41,1.33s-4.54-.46-6.43-1.37c-1.9-.92-3.47-2.2-4.75-3.86-1.26-1.66-2.22-3.66-2.86-6-.65-2.34-.97-4.86-.97-7.58s.34-5.34,1.01-7.66c.68-2.32,1.65-4.3,2.93-5.93,1.28-1.63,2.84-2.87,4.68-3.74,1.84-.87,3.92-1.3,6.26-1.3Zm8.81,18.63c0-2.65-.36-4.95-1.08-6.89-.72-1.94-1.76-3.41-3.1-4.41-1.35-.99-2.88-1.49-4.63-1.49-1.24,0-2.39.28-3.44.83-1.05.55-1.95,1.35-2.71,2.41-.76,1.06-1.35,2.4-1.79,4.04-.44,1.64-.66,3.48-.66,5.52s.22,3.92.66,5.58c.44,1.66,1.05,3.04,1.86,4.14.8,1.09,1.72,1.92,2.76,2.46,1.04.55,2.17.82,3.41.82,1.59,0,3.05-.47,4.38-1.4,1.32-.94,2.39-2.39,3.17-4.35.78-1.96,1.18-4.37,1.18-7.24Z"/><path class="cls-3" d="m437.67,239.65c0,1.15-.26,2.4-.8,3.74-.53,1.34-1.37,2.66-2.5,3.95-1.14,1.29-2.6,2.34-4.36,3.15-1.77.81-3.83,1.21-6.18,1.21-1.79,0-3.41-.18-4.87-.55-1.46-.36-2.79-.93-3.98-1.69-1.19-.76-2.29-1.77-3.29-3.02-.89-1.13-1.65-2.41-2.28-3.81-.63-1.41-1.1-2.91-1.42-4.51-.31-1.6-.47-3.3-.47-5.09,0-2.92.4-5.53,1.19-7.83.79-2.31,1.93-4.28,3.4-5.92,1.48-1.64,3.21-2.89,5.19-3.75,1.99-.85,4.1-1.28,6.35-1.28,2.74,0,5.17.59,7.31,1.75,2.14,1.17,3.78,2.62,4.91,4.34,1.14,1.72,1.71,3.35,1.71,4.88,0,.84-.28,1.58-.83,2.23-.55.64-1.22.96-2.01.96-.88,0-1.54-.22-1.97-.67-.44-.44-.93-1.21-1.46-2.3-.89-1.79-1.94-3.14-3.15-4.03-1.21-.89-2.7-1.33-4.47-1.33-2.82,0-5.06,1.14-6.73,3.44-1.67,2.29-2.5,5.54-2.5,9.76,0,2.81.37,5.15,1.11,7.02.74,1.87,1.79,3.27,3.14,4.19,1.35.93,2.94,1.38,4.75,1.38,1.97,0,3.64-.52,5-1.57,1.36-1.04,2.39-2.58,3.08-4.61.29-.95.65-1.73,1.09-2.34.43-.6,1.12-.91,2.07-.91.82,0,1.52.31,2.1.92.58.61.88,1.37.88,2.27Z"/><path class="cls-3" d="m463.26,247.29l-1.61-4.55h-13.75l-1.62,4.65c-.63,1.81-1.17,3.03-1.61,3.67-.44.63-1.17.95-2.19.95-.86,0-1.62-.34-2.28-1.01-.66-.68-.99-1.44-.99-2.3,0-.49.08-1,.23-1.53.15-.53.41-1.26.76-2.2l8.65-23.52c.24-.68.54-1.48.89-2.43.34-.95.71-1.73,1.1-2.36.39-.63.91-1.13,1.55-1.52.64-.38,1.43-.58,2.37-.58s1.75.2,2.39.58c.64.39,1.15.89,1.54,1.5.39.61.73,1.26.99,1.96.27.7.61,1.63,1.03,2.8l8.84,23.37c.69,1.78,1.04,3.07,1.04,3.88s-.33,1.61-.98,2.31c-.65.7-1.44,1.05-2.36,1.05-.54,0-1-.1-1.38-.31-.39-.21-.71-.49-.97-.84-.26-.36-.54-.9-.84-1.63-.3-.73-.56-1.38-.77-1.94Zm-13.57-10.06h10.1l-5.1-14.94-5.01,14.94Z"/><path class="cls-3" d="m490,236.98h-6.62v10.25c0,1.46-.34,2.58-1.02,3.33-.68.76-1.55,1.14-2.58,1.14s-1.96-.38-2.62-1.12c-.67-.75-1-1.85-1-3.3v-27.91c0-1.61.36-2.77,1.09-3.46.73-.7,1.89-1.04,3.48-1.04h9.27c2.74,0,4.84.22,6.32.64,1.46.42,2.72,1.1,3.78,2.05,1.06.96,1.87,2.13,2.42,3.51.55,1.38.83,2.94.83,4.67,0,3.69-1.12,6.49-3.36,8.39-2.24,1.9-5.57,2.86-9.99,2.86Zm-1.75-16.6h-4.86v11.06h4.86c1.7,0,3.12-.18,4.27-.54,1.14-.36,2.01-.96,2.61-1.78.6-.83.9-1.9.9-3.24,0-1.59-.46-2.89-1.38-3.9-1.04-1.07-3.17-1.61-6.4-1.61Z"/><path class="cls-3" d="m509.63,247.23v-28.53c0-1.48.32-2.6.95-3.34.63-.74,1.45-1.11,2.45-1.11s1.87.37,2.51,1.1c.64.74.96,1.85.96,3.35v28.53c0,1.5-.32,2.62-.96,3.36-.64.74-1.47,1.11-2.51,1.11-.98,0-1.8-.38-2.43-1.12-.64-.75-.96-1.86-.96-3.35Z"/><path class="cls-3" d="m546.11,220.92h-7.48v26.31c0,1.51-.31,2.64-.95,3.37-.63.73-1.45,1.1-2.45,1.1s-1.84-.37-2.48-1.11c-.64-.74-.96-1.86-.96-3.36v-26.31h-7.48c-1.17,0-2.04-.28-2.61-.83-.57-.55-.86-1.28-.86-2.19s.3-1.68.89-2.22c.59-.55,1.45-.82,2.57-.82h21.78c1.18,0,2.06.29,2.64.84.58.56.87,1.29.87,2.2s-.29,1.63-.88,2.19c-.59.55-1.46.83-2.63.83Z"/><path class="cls-3" d="m572.35,246.98l-1.61-4.55h-13.76l-1.61,4.65c-.64,1.81-1.17,3.03-1.62,3.66-.44.63-1.17.96-2.19.96-.86,0-1.63-.34-2.28-1.01-.66-.67-.99-1.44-.99-2.3,0-.5.08-1,.23-1.53.15-.53.41-1.26.77-2.2l8.65-23.52c.24-.68.54-1.49.89-2.44.34-.94.71-1.73,1.11-2.36.39-.63.91-1.13,1.54-1.52.64-.39,1.43-.58,2.37-.58s1.75.2,2.39.58c.64.38,1.15.89,1.55,1.49.39.61.73,1.26.99,1.96.27.7.61,1.64,1.02,2.81l8.84,23.37c.69,1.78,1.04,3.07,1.04,3.88s-.32,1.61-.98,2.31c-.65.7-1.44,1.05-2.37,1.05-.54,0-1-.11-1.38-.31-.39-.21-.71-.49-.97-.84-.26-.35-.55-.9-.84-1.63-.3-.74-.56-1.38-.77-1.94Zm-13.57-10.06h10.11l-5.1-14.94-5.01,14.94Z"/><path class="cls-3" d="m592.13,218.7v26.35h13.89c1.11,0,1.96.29,2.55.87.59.58.89,1.3.89,2.18s-.3,1.61-.88,2.16c-.59.55-1.44.83-2.56.83h-16.55c-1.49,0-2.57-.35-3.22-1.06-.65-.71-.98-1.86-.98-3.44v-27.88c0-1.48.31-2.6.93-3.34.62-.74,1.44-1.11,2.46-1.11s1.87.37,2.51,1.1c.64.74.96,1.85.96,3.35Z"/><path class="cls-4" d="m225.18,299.19c1.21.67,2.95,1.17,4.81,1.17,2.76,0,4.37-1.25,4.37-3.06,0-1.65-1.12-2.64-3.94-3.54-3.41-1.06-5.52-2.61-5.52-5.11,0-2.8,2.7-4.87,6.76-4.87,2.11,0,3.69.43,4.59.88l-.74,1.89c-.65-.35-2.05-.85-3.94-.85-2.85,0-3.94,1.46-3.94,2.69,0,1.68,1.27,2.5,4.15,3.46,3.54,1.17,5.3,2.64,5.3,5.28,0,2.77-2.36,5.19-7.29,5.19-2.02,0-4.22-.53-5.33-1.17l.71-1.95Z"/><path class="cls-4" d="m253.98,293.6h-6.7v6.47h7.49v1.95h-9.75v-17.96h9.37v1.95h-7.11v5.67h6.7v1.92Z"/><path class="cls-4" d="m263.08,284.3c1.26-.22,3.08-.38,4.76-.38,2.65,0,4.39.48,5.55,1.46.94.8,1.51,2.03,1.51,3.44,0,2.34-1.59,3.91-3.59,4.55v.08c1.45.48,2.34,1.76,2.79,3.62.63,2.51,1.08,4.24,1.48,4.93h-2.57c-.31-.53-.74-2.05-1.25-4.29-.57-2.48-1.62-3.41-3.87-3.49h-2.34v7.78h-2.48v-17.71Zm2.48,8.18h2.54c2.65,0,4.32-1.36,4.32-3.41,0-2.32-1.79-3.33-4.41-3.33-1.2,0-2.02.08-2.45.19v6.56Z"/><path class="cls-4" d="m286.98,301.95l-6.85-17.96h2.94l3.25,8.84c.87,2.42,1.64,4.61,2.23,6.71h.06c.59-2.08,1.43-4.34,2.39-6.69l3.54-8.87h2.89l-7.48,17.96h-2.98Z"/><path class="cls-4" d="m305.05,284.06v17.96h-2.73v-17.96h2.73Z"/><path class="cls-4" d="m327.64,301.39c-.84.43-2.62.85-4.87.85-5.2,0-9.09-3.2-9.09-9.11s3.92-9.43,9.64-9.43c2.28,0,3.76.48,4.39.8l-.6,1.89c-.88-.43-2.16-.75-3.7-.75-4.33,0-7.2,2.69-7.2,7.4,0,4.42,2.6,7.22,7.07,7.22,1.48,0,2.96-.29,3.92-.75l.46,1.87Z"/><path class="cls-4" d="m518.78,301.39c-.85.43-2.63.85-4.87.85-5.21,0-9.1-3.2-9.1-9.11s3.92-9.43,9.64-9.43c2.28,0,3.76.48,4.39.8l-.61,1.89c-.87-.43-2.17-.75-3.7-.75-4.33,0-7.2,2.69-7.2,7.4,0,4.42,2.6,7.22,7.07,7.22,1.48,0,2.96-.29,3.92-.75l.46,1.87Z"/><path class="cls-4" d="m337.46,284.06v17.96h-2.73v-17.96h2.73Z"/><path class="cls-4" d="m363.55,292.85c0,6.15-3.87,9.46-8.59,9.46s-8.31-3.7-8.31-9.13c0-5.7,3.62-9.43,8.56-9.43s8.34,3.76,8.34,9.11Zm-14.37.27c0,3.86,2.13,7.3,5.92,7.3s5.93-3.38,5.93-7.46c0-3.6-1.92-7.32-5.9-7.32s-5.95,3.57-5.95,7.48Z"/><path class="cls-4" d="m370.21,299.19c1.21.67,2.95,1.17,4.81,1.17,2.76,0,4.37-1.25,4.37-3.06,0-1.65-1.12-2.64-3.94-3.54-3.41-1.06-5.52-2.61-5.52-5.11,0-2.8,2.7-4.87,6.76-4.87,2.11,0,3.69.43,4.59.88l-.75,1.89c-.65-.35-2.05-.85-3.94-.85-2.85,0-3.93,1.46-3.93,2.69,0,1.68,1.27,2.5,4.15,3.46,3.54,1.17,5.3,2.64,5.3,5.28,0,2.77-2.36,5.19-7.29,5.19-2.02,0-4.22-.53-5.34-1.17l.71-1.95Z"/><path class="cls-4" d="m409.39,284.06h9.32v1.95h-7.06v5.97h6.52v1.92h-6.52v8.13h-2.26v-17.96Z"/><path class="cls-4" d="m429.62,284.06v17.96h-2.73v-17.96h2.73Z"/><path class="cls-4" d="m439.29,302.02v-17.96h2.7l6.05,9.08c1.38,2.11,2.51,4,3.38,5.83l.08-.02c-.22-2.4-.28-4.59-.28-7.38v-7.51h2.31v17.96h-2.48l-6.02-9.11c-1.32-2-2.59-4.05-3.52-6l-.08.03c.14,2.27.17,4.42.17,7.4v7.67h-2.31Z"/><path class="cls-4" d="m483.17,302.02v-17.96h2.7l6.05,9.08c1.38,2.11,2.5,4,3.38,5.83l.08-.02c-.22-2.4-.28-4.59-.28-7.38v-7.51h2.31v17.96h-2.48l-6.02-9.11c-1.32-2-2.59-4.05-3.52-6l-.08.03c.14,2.27.17,4.42.17,7.4v7.67h-2.31Z"/><path class="cls-4" d="m464.39,296.36l-2.17,5.65h-2.79l7.13-17.96h3.22l7.13,17.96h-2.89l-2.23-5.65h-7.41Zm6.88-1.81l-2.08-5.17c-.47-1.17-.77-2.24-1.08-3.28h-.06c-.31,1.04-.62,2.16-1.06,3.25l-2.04,5.2h6.32Z"/><path class="cls-4" d="m530.11,284.06v17.96h-2.73v-17.96h2.73Z"/><path class="cls-4" d="m547.36,293.6h-6.77v6.47h7.58v1.95h-9.86v-17.96h9.47v1.95h-7.19v5.67h6.77v1.92Z"/><path class="cls-4" d="m556.59,284.3c1.29-.22,3.17-.38,4.9-.38,2.73,0,4.52.48,5.72,1.46.97.8,1.55,2.03,1.55,3.44,0,2.34-1.64,3.91-3.7,4.55v.08c1.5.48,2.41,1.76,2.87,3.62.65,2.51,1.12,4.24,1.53,4.93h-2.64c-.32-.53-.76-2.05-1.29-4.29-.59-2.48-1.67-3.41-3.98-3.49h-2.41v7.78h-2.55v-17.71Zm2.55,8.18h2.61c2.73,0,4.46-1.36,4.46-3.41,0-2.32-1.85-3.33-4.54-3.33-1.23,0-2.08.08-2.52.19v6.56Z"/><path class="cls-4" d="m592.37,292.85c0,6.15-3.86,9.46-8.56,9.46s-8.28-3.7-8.28-9.13c0-5.7,3.61-9.43,8.53-9.43s8.31,3.76,8.31,9.11Zm-14.33.27c0,3.86,2.14,7.3,5.91,7.3s5.9-3.38,5.9-7.46c0-3.6-1.91-7.32-5.88-7.32s-5.93,3.57-5.93,7.48Z"/><path class="cls-4" d="m599.69,299.19c1.21.67,2.95,1.17,4.81,1.17,2.76,0,4.38-1.25,4.38-3.06,0-1.65-1.12-2.64-3.94-3.54-3.41-1.06-5.52-2.61-5.52-5.11,0-2.8,2.7-4.87,6.76-4.87,2.11,0,3.69.43,4.59.88l-.74,1.89c-.65-.35-2.05-.85-3.94-.85-2.85,0-3.94,1.46-3.94,2.69,0,1.68,1.27,2.5,4.16,3.46,3.53,1.17,5.3,2.64,5.3,5.28,0,2.77-2.35,5.19-7.29,5.19-2.02,0-4.22-.53-5.34-1.17l.71-1.95Z"/><rect class="cls-4" x="225.51" y="268.2" width="386.09" height="2.64"/></svg>