<?xml version="1.0" encoding="UTF-8"?><svg id="Capa_25" xmlns="http://www.w3.org/2000/svg" viewBox="0 0 752.64 299.39"><defs><style>.cls-1{fill:#273c7f;}.cls-1,.cls-2{stroke-width:0px;}.cls-3{stroke-width:.33px;}.cls-3,.cls-4{fill:none;stroke:#fff;stroke-miterlimit:3.86;}.cls-4{stroke-width:1.31px;}.cls-2{fill:#fff;}</style></defs><rect class="cls-1" x="120.35" y="41.5" width="568.59" height="159.35"/><line class="cls-4" x1="139.14" y1="165.17" x2="399.9" y2="165.17"/><path class="cls-2" d="m410.94,163.91c-.07,3.61,3,5.2,6.23,5.2,4,0,6.09-2.01,6.09-4.69,0-3.3-3.26-4.01-4.35-4.26-3.67-.92-4.36-1.09-4.36-2.22,0-1.22,1.19-1.65,2.21-1.65,1.57,0,2.79.47,2.89,2.21h3.12c0-3.37-2.8-4.71-5.86-4.71-2.64,0-5.47,1.41-5.47,4.43,0,2.71,2.18,3.62,4.37,4.16,2.13.59,4.34.81,4.34,2.42,0,1.5-1.72,1.82-2.85,1.82-1.72,0-3.24-.76-3.24-2.7h-3.12Z"/><path class="cls-2" d="m428.9,161.51c0-2.56,1.08-5.02,3.97-5.02s3.98,2.46,3.98,5.02-1.09,4.89-3.98,4.89-3.97-2.45-3.97-4.89m-3.22,0c0,4.21,2.69,7.6,7.19,7.6s7.2-3.39,7.2-7.6-2.69-7.73-7.2-7.73-7.19,3.38-7.19,7.73"/><polygon class="cls-2" points="443.42 168.76 446.44 168.76 446.44 158.5 446.48 158.5 450.06 168.76 452.54 168.76 456.13 158.4 456.17 158.4 456.17 168.76 459.18 168.76 459.18 154.13 454.66 154.13 451.42 164.19 451.37 164.19 447.94 154.13 443.42 154.13 443.42 168.76"/><path class="cls-2" d="m465.75,161.51c0-2.56,1.09-5.02,3.97-5.02s3.98,2.46,3.98,5.02-1.08,4.89-3.98,4.89-3.97-2.45-3.97-4.89m-3.21,0c0,4.21,2.68,7.6,7.19,7.6s7.19-3.39,7.19-7.6-2.68-7.73-7.19-7.73-7.19,3.38-7.19,7.73"/><path class="cls-2" d="m479.35,163.91c-.07,3.61,2.99,5.2,6.22,5.2,4,0,6.09-2.01,6.09-4.69,0-3.3-3.26-4.01-4.34-4.26-3.68-.92-4.37-1.09-4.37-2.22,0-1.22,1.19-1.65,2.21-1.65,1.56,0,2.79.47,2.88,2.21h3.12c0-3.37-2.8-4.71-5.86-4.71-2.64,0-5.47,1.41-5.47,4.43,0,2.71,2.19,3.62,4.36,4.16,2.13.59,4.34.81,4.34,2.42,0,1.5-1.72,1.82-2.85,1.82-1.72,0-3.24-.76-3.24-2.7h-3.1Z"/><path class="cls-2" d="m500.67,163.91c-.07,3.61,2.99,5.2,6.22,5.2,4,0,6.09-2.01,6.09-4.69,0-3.3-3.26-4.01-4.34-4.26-3.67-.92-4.37-1.09-4.37-2.22,0-1.22,1.19-1.65,2.22-1.65,1.56,0,2.79.47,2.88,2.21h3.12c0-3.37-2.8-4.71-5.85-4.71-2.64,0-5.47,1.41-5.47,4.43,0,2.71,2.19,3.62,4.36,4.16,2.12.59,4.34.81,4.34,2.42,0,1.5-1.72,1.82-2.85,1.82-1.72,0-3.24-.76-3.24-2.7h-3.11Z"/><path class="cls-2" d="m518.62,161.51c0-2.56,1.08-5.02,3.98-5.02s3.97,2.46,3.97,5.02-1.08,4.89-3.97,4.89-3.98-2.45-3.98-4.89m-3.21,0c0,4.21,2.69,7.6,7.19,7.6s7.19-3.39,7.19-7.6-2.69-7.73-7.19-7.73-7.19,3.38-7.19,7.73"/><path class="cls-2" d="m546.01,159.06c-.39-3.38-3.12-5.27-6.31-5.27-4.5,0-7.19,3.38-7.19,7.73s2.68,7.59,7.19,7.59c3.62,0,6.11-2.31,6.44-5.98h-3.12c-.24,1.94-1.35,3.27-3.32,3.27-2.88,0-3.96-2.45-3.96-4.89,0-2.57,1.08-5.02,3.96-5.02,1.57,0,2.97,1.1,3.19,2.56h3.12Z"/><rect class="cls-2" x="549.49" y="154.13" width="3.21" height="14.62"/><path class="cls-2" d="m559.27,161.51c0-2.56,1.09-5.02,3.98-5.02s3.98,2.46,3.98,5.02-1.09,4.89-3.98,4.89-3.98-2.45-3.98-4.89m-3.21,0c0,4.21,2.68,7.6,7.19,7.6s7.19-3.39,7.19-7.6-2.69-7.73-7.19-7.73-7.19,3.38-7.19,7.73"/><path class="cls-2" d="m572.87,163.91c-.06,3.61,3,5.2,6.23,5.2,4,0,6.09-2.01,6.09-4.69,0-3.3-3.26-4.01-4.35-4.26-3.68-.92-4.36-1.09-4.36-2.22,0-1.22,1.18-1.65,2.21-1.65,1.56,0,2.78.47,2.89,2.21h3.11c0-3.37-2.8-4.71-5.85-4.71-2.65,0-5.48,1.41-5.48,4.43,0,2.71,2.19,3.62,4.37,4.16,2.13.59,4.34.81,4.34,2.42,0,1.5-1.72,1.82-2.84,1.82-1.73,0-3.25-.76-3.25-2.7h-3.11Z"/><path class="cls-2" d="m648.34,167.09l-1.28-3.66c.75-.3,1.26-.94,1.26-2.1,0-1.58-1.06-2.21-2.23-2.21h-2.24v7.97h1.12v-3.48h.92l1.2,3.48h1.24Zm-1.17-5.73c0,.83-.44,1.18-1.16,1.18h-1.04v-2.34h1.04c.67,0,1.16.34,1.16,1.16"/><path class="cls-3" d="m640.65,163.32c0-2.94,2.39-5.32,5.31-5.32s5.33,2.38,5.33,5.32-2.38,5.32-5.33,5.32-5.31-2.39-5.31-5.32Z"/><path class="cls-2" d="m174.9,149.36c9.34,0,18.56-2.94,24.96-8.8,7.21-6.55,10.69-17.76,10.69-29.51s-3.48-22.97-10.69-29.5c-6.4-5.87-15.62-8.81-24.96-8.81s-18.55,2.94-24.96,8.81c-7.21,6.53-10.68,17.76-10.68,29.5s3.47,22.96,10.68,29.51c6.42,5.87,15.62,8.8,24.96,8.8m0-60.6c4.68,0,9.88,2.14,13.36,8.14,1.46,2.81,3.46,8.15,3.46,14.15s-2,11.34-3.46,14.15c-3.48,6.01-8.68,8.14-13.36,8.14s-9.88-2.13-13.35-8.14c-1.47-2.81-3.47-8.15-3.47-14.15s2-11.34,3.47-14.15c3.47-6,8.68-8.14,13.35-8.14"/><path class="cls-2" d="m222.42,147h14.32v-31.2c1.74-12.07,10.95-11.25,17.09-10.53v-14.62c-4.51-.72-7.78,1.12-10.23,2.96-5.01,3.49-5.74,5.42-6.65,8.69h-.2v-10.73h-14.32v55.43Z"/><path class="cls-2" d="m278.07,91.57h-14.31v55.43h14.31v-55.43Zm0-19.13h-14.31v12.79h14.31v-12.79Z"/><path class="cls-2" d="m340.06,123.79c.31-6.64.31-14.12-4.7-22.19-3.48-5.53-10.23-10.95-21.07-10.95-6.33,0-21.37,1.02-24.95,22.7-.72,4.28-.72,8.58-.51,11.86.3,3.38.82,5.83,1.01,6.75,1.44,4.81,4.81,9.83,9.93,13.19,3.89,2.47,9,4.2,14.42,4.2,9.72,0,22.81-7.27,25.26-18h-14.12c-.72,2.86-4.19,5.42-8.29,6.25-4.09.7-8.8-.41-12.06-4.92-2.06-2.87-2.06-5.93-1.74-8.9h36.82Zm-36.82-9.62c-.11-5.22,3.17-11.97,11.97-11.56,8.58.41,10.03,7.37,10.03,11.56h-22Z"/><path class="cls-2" d="m351.02,147h14.31v-34.37c0-4.5,1.74-9.3,10.43-9.3,9.72,0,10.33,5.82,10.33,10.73v32.94h14.32v-37.13c0-13.91-8.59-19.22-21.28-19.22-5.52,0-10.84,3.47-13.6,9.3h-.21v-8.38h-14.31v55.43Z"/><path class="cls-2" d="m461.49,112.22c0-4.5-3.47-14.61-9.71-18.51-3.18-2.04-9.1-3.38-14.63-3.07-9.21.61-16.67.82-23.21,15.65-3.08,7.06-2.57,16.57-1.95,21.48,1.02,8.08,7.16,22.2,24.45,21.57,8.99-.3,12.06-1.52,16.26-5,2.03-1.74,8.9-9.1,8.79-16.66h-13.7c-2.25,9.4-6.75,10.01-10.33,9.81-4.5-.11-8.27-1.33-10.54-10.03-1.73-6.64-.09-14.52.42-16.16,1.54-5.31,5.02-8.5,9.93-8.18,4.39.2,8.39.3,10.53,9.09h13.7Z"/><path class="cls-2" d="m496.99,149.36c7.16,0,14.22-2.24,19.13-6.75,5.52-5.01,8.18-13.6,8.18-22.6s-2.66-17.6-8.18-22.6c-4.91-4.5-11.97-6.76-19.13-6.76s-14.22,2.26-19.12,6.76c-5.53,5-8.19,13.61-8.19,22.6s2.65,17.59,8.19,22.6c4.9,4.51,11.97,6.75,19.12,6.75m0-46.44c3.58,0,7.57,1.64,10.24,6.23,1.12,2.15,2.66,6.24,2.66,10.85s-1.54,8.7-2.66,10.83c-2.67,4.61-6.65,6.25-10.24,6.25s-7.57-1.63-10.22-6.25c-1.13-2.14-2.66-6.23-2.66-10.83s1.53-8.69,2.66-10.85c2.65-4.6,6.64-6.23,10.22-6.23"/><path class="cls-2" d="m560.63,149.36c7.16,0,14.23-2.24,19.13-6.75,5.52-5.01,8.18-13.6,8.18-22.6s-2.67-17.6-8.18-22.6c-4.9-4.5-11.97-6.76-19.13-6.76s-14.21,2.26-19.12,6.76c-5.53,5-8.19,13.61-8.19,22.6s2.66,17.59,8.19,22.6c4.91,4.51,11.96,6.75,19.12,6.75m0-46.44c3.58,0,7.57,1.64,10.22,6.23,1.13,2.15,2.67,6.24,2.67,10.85s-1.54,8.7-2.67,10.83c-2.65,4.61-6.64,6.25-10.22,6.25s-7.57-1.63-10.22-6.25c-1.14-2.14-2.66-6.23-2.66-10.83s1.52-8.69,2.66-10.85c2.65-4.6,6.64-6.23,10.22-6.23"/><path class="cls-2" d="m599.3,91.57v77.83h14.32v-28.13c4.31,4.69,7.37,8.07,14.93,8.07s11.46-1.54,15.96-6.14c10.65-10.85,9.72-35.18-.61-45.92-2.75-2.76-7.88-7.16-15.55-6.66-8.79.52-10.73,4.62-14.73,9.32v-8.38h-14.32Zm26.39,11.76c3.27,0,7.06,1.63,9.51,6.23,1.03,2.16,2.46,6.25,2.46,10.84s-1.43,8.7-2.46,10.85c-2.45,4.6-6.24,6.23-9.51,6.23s-7.17-1.64-9.62-6.23c-1.01-2.15-2.46-6.24-2.46-10.85s1.44-8.68,2.46-10.84c2.45-4.59,6.24-6.23,9.62-6.23"/><path class="cls-2" d="m300.81,76.71c-.1-3.03-3.04-4.77-5.77-4.77-3.81,0-6.27,2.92-6.27,6.57s2.47,6.57,6.27,6.57c3.2,0,5.58-1.91,5.77-5.17h-3.29c-.12,1.45-1,2.33-2.55,2.33-2.12,0-2.93-1.86-2.93-3.73s.82-3.75,2.93-3.75c1.38,0,2.37.67,2.55,1.94h3.29Z"/><path class="cls-2" d="m302.6,78.52c0,3.65,2.24,6.57,6.22,6.57s6.22-2.92,6.22-6.57-2.25-6.57-6.22-6.57-6.22,2.92-6.22,6.57m3.28,0c0-1.88.82-3.75,2.94-3.75s2.93,1.87,2.93,3.75-.82,3.74-2.93,3.74-2.94-1.87-2.94-3.74"/><path class="cls-2" d="m316.86,78.52c0,3.65,2.24,6.57,6.21,6.57s6.22-2.92,6.22-6.57-2.24-6.57-6.22-6.57-6.21,2.92-6.21,6.57m3.28,0c0-1.88.81-3.75,2.93-3.75s2.92,1.87,2.92,3.75-.81,3.74-2.92,3.74-2.93-1.87-2.93-3.74"/><path class="cls-2" d="m331.59,84.82h3.29v-4.2h2.7c2.77,0,4.54-1.22,4.54-4.35s-2.21-4.06-4.54-4.06h-5.99v12.6Zm3.29-9.98h2.2c1.01,0,1.76.49,1.76,1.66s-.73,1.58-1.76,1.58h-2.2v-3.24Z"/><polygon class="cls-2" points="344.21 84.82 354.43 84.82 354.43 82 347.49 82 347.49 79.6 353.67 79.6 353.67 77.05 347.49 77.05 347.49 74.84 354.25 74.84 354.25 72.22 344.21 72.22 344.21 84.82"/><path class="cls-2" d="m356.83,84.82h3.28v-4.59h2.49c1.54,0,1.75,1.3,1.84,2.57.04.36.1,1.59.37,2.02h3.25c-.43-.46-.5-2.31-.53-2.83-.1-1.2-.49-2.71-1.83-3.04v-.03c1.32-.53,1.97-1.8,1.97-3.16,0-2.55-2.19-3.55-4.4-3.55h-6.43v12.6Zm3.28-9.98h2.62c.91,0,1.66.43,1.66,1.36s-.53,1.48-1.52,1.48h-2.75v-2.84Z"/><path class="cls-2" d="m375.17,75.71h.04l1.39,4.42h-2.86l1.43-4.42Zm-6.35,9.11h3.37l.79-2.25h4.4l.78,2.25h3.42l-4.71-12.6h-3.34l-4.71,12.6Z"/><polygon class="cls-2" points="391.41 72.22 380.61 72.22 380.61 75.04 384.38 75.04 384.38 84.82 387.65 84.82 387.65 75.04 391.41 75.04 391.41 72.22"/><rect class="cls-2" x="393.4" y="72.22" width="3.28" height="12.6"/><polygon class="cls-2" points="409.98 72.22 406.56 72.22 404.09 81.59 404.04 81.59 401.58 72.22 398.17 72.22 402.13 84.82 405.9 84.82 409.98 72.22"/><path class="cls-2" d="m415.63,75.71h.02l1.4,4.42h-2.86l1.44-4.42Zm-6.36,9.11h3.38l.78-2.25h4.4l.78,2.25h3.42l-4.71-12.6h-3.34l-4.71,12.6Z"/><path class="cls-2" d="m429.6,84.82h5.41c3.84,0,6.18-2.23,6.18-6.35,0-3.9-2.32-6.25-6.18-6.25h-5.41v12.6Zm3.28-9.77h1.56c2.24,0,3.48,1.1,3.48,3.4,0,2.53-1,3.49-3.48,3.55h-1.56v-6.95Z"/><polygon class="cls-2" points="443.53 84.82 453.75 84.82 453.75 82 446.8 82 446.8 79.6 452.99 79.6 452.99 77.05 446.8 77.05 446.8 74.84 453.57 74.84 453.57 72.22 443.53 72.22 443.53 84.82"/><path class="cls-2" d="m467.29,75.71h.03l1.4,4.42h-2.86l1.43-4.42Zm-6.35,9.11h3.37l.79-2.25h4.41l.77,2.25h3.43l-4.71-12.6h-3.35l-4.71,12.6Z"/><polygon class="cls-2" points="475.15 84.82 478.43 84.82 478.43 79.63 482.75 79.63 482.75 84.82 486.04 84.82 486.04 72.22 482.75 72.22 482.75 76.8 478.43 76.8 478.43 72.22 475.15 72.22 475.15 84.82"/><path class="cls-2" d="m488.31,78.52c0,3.65,2.25,6.57,6.22,6.57s6.21-2.92,6.21-6.57-2.24-6.57-6.21-6.57-6.22,2.92-6.22,6.57m3.28,0c0-1.88.82-3.75,2.94-3.75s2.93,1.87,2.93,3.75-.81,3.74-2.93,3.74-2.94-1.87-2.94-3.74"/><path class="cls-2" d="m503.05,84.82h3.28v-4.59h2.49c1.54,0,1.76,1.3,1.85,2.57.03.36.09,1.59.38,2.02h3.24c-.44-.46-.49-2.31-.53-2.83-.11-1.2-.49-2.71-1.83-3.04v-.03c1.32-.53,1.96-1.8,1.96-3.16,0-2.55-2.18-3.55-4.4-3.55h-6.43v12.6Zm3.28-9.98h2.62c.92,0,1.66.43,1.66,1.36s-.53,1.48-1.52,1.48h-2.75v-2.84Z"/><path class="cls-2" d="m516.32,84.82h3.28v-4.59h2.5c1.54,0,1.75,1.3,1.83,2.57.03.36.08,1.59.37,2.02h3.24c-.43-.46-.48-2.31-.52-2.83-.11-1.2-.5-2.71-1.84-3.04v-.03c1.33-.53,1.97-1.8,1.97-3.16,0-2.55-2.19-3.55-4.41-3.55h-6.43v12.6Zm3.28-9.98h2.62c.91,0,1.66.43,1.66,1.36s-.54,1.48-1.52,1.48h-2.76v-2.84Z"/><path class="cls-2" d="m529.11,78.52c0,3.65,2.25,6.57,6.22,6.57s6.22-2.92,6.22-6.57-2.24-6.57-6.22-6.57-6.22,2.92-6.22,6.57m3.28,0c0-1.88.82-3.75,2.94-3.75s2.92,1.87,2.92,3.75-.82,3.74-2.92,3.74-2.94-1.87-2.94-3.74"/><polygon class="cls-2" points="560.93 72.22 557.22 72.22 554.7 77.33 552.2 72.22 548.47 72.22 553.06 80.12 553.06 84.82 556.35 84.82 556.35 80.12 560.93 72.22"/><path class="cls-2" d="m579.97,76.71c-.08-3.03-3.03-4.77-5.75-4.77-3.81,0-6.29,2.92-6.29,6.57s2.48,6.57,6.29,6.57c3.19,0,5.58-1.91,5.75-5.17h-3.27c-.12,1.45-1.01,2.33-2.55,2.33-2.12,0-2.93-1.86-2.93-3.73s.82-3.75,2.93-3.75c1.37,0,2.37.67,2.55,1.94h3.27Z"/><path class="cls-2" d="m582.25,84.82h3.28v-4.59h2.49c1.54,0,1.75,1.3,1.84,2.57.03.36.09,1.59.36,2.02h3.24c-.44-.46-.49-2.31-.52-2.83-.1-1.2-.5-2.71-1.84-3.04v-.03c1.33-.53,1.98-1.8,1.98-3.16,0-2.55-2.19-3.55-4.42-3.55h-6.42v12.6Zm3.28-9.98h2.61c.92,0,1.66.43,1.66,1.36s-.54,1.48-1.51,1.48h-2.76v-2.84Z"/><polygon class="cls-2" points="595.52 84.82 605.74 84.82 605.74 82 598.8 82 598.8 79.6 604.98 79.6 604.98 77.05 598.8 77.05 598.8 74.84 605.56 74.84 605.56 72.22 595.52 72.22 595.52 84.82"/><path class="cls-2" d="m608.14,84.82h5.41c3.83,0,6.18-2.23,6.18-6.35,0-3.9-2.32-6.25-6.18-6.25h-5.41v12.6Zm3.28-9.77h1.56c2.23,0,3.48,1.1,3.48,3.4,0,2.53-1,3.49-3.48,3.55h-1.56v-6.95Z"/><rect class="cls-2" x="622.06" y="72.22" width="3.28" height="12.6"/><polygon class="cls-2" points="638.14 72.22 627.33 72.22 627.33 75.04 631.1 75.04 631.1 84.82 634.38 84.82 634.38 75.04 638.14 75.04 638.14 72.22"/><path class="cls-2" d="m639.63,78.52c0,3.65,2.25,6.57,6.22,6.57s6.22-2.92,6.22-6.57-2.24-6.57-6.22-6.57-6.22,2.92-6.22,6.57m3.28,0c0-1.88.82-3.75,2.94-3.75s2.92,1.87,2.92,3.75-.82,3.74-2.92,3.74-2.94-1.87-2.94-3.74"/></svg>