<?xml version="1.0" encoding="UTF-8"?><svg id="Capa_20" xmlns="http://www.w3.org/2000/svg" viewBox="0 0 752.64 299.39"><defs><style>.cls-1{fill:#0059a5;stroke-width:0px;}</style></defs><path class="cls-1" d="m290.54,167.92c-24.45,0-44.36-18.31-44.36-44.23s19.9-44.11,44.36-44.11,44.11,18.18,44.11,44.11-19.66,44.23-44.11,44.23Zm-.21-20.38c13.36,0,22.07-9.42,22.07-23.71s-8.71-23.71-22.07-23.71-22.19,9.18-22.19,23.71,8.59,23.71,22.19,23.71Z"/><path class="cls-1" d="m367.87,123.37v43.59h-20.77v-85.26h34.86c19.38,0,30.71,12.89,30.71,26.65s-3.42,21.1-15.04,26.37l19.58,31.36-21.92.05-23.68-42.76h8.3c4.16,0,11.05-4.21,11.05-11.44,0-6.84-4.95-11.44-11.05-11.44h-12.04v22.88Z"/><path class="cls-1" d="m457.01,167.92c-14.2,0-31.47-7.25-35.26-26.66l18.71-4.69c4.92,9.67,10.8,12.99,17.43,12.99s10.61-3.21,10.64-7.64c.09-12.47-43.52-7.55-43.66-36.7-.07-14.61,13.1-25.63,30.09-25.63,20.86,0,34.04,14.58,34.04,23.42l-19.03,5.27c-2.35-7.34-8.83-10.62-14.75-10.62-4.28,0-9.51,2.21-9.51,6.06,0,12.68,44.25,8.55,44.25,37.67,0,14.5-11.84,26.54-32.94,26.54Z"/><path class="cls-1" d="m551.42,152.3l-32.49.03-5,13.82-22.26-.02,33.89-84.94h19.83l33.3,84.99h-22.54s-4.73-13.88-4.73-13.88Zm-16.2-46.04l-10.04,28.81h20.2l-10.16-28.81Z"/><path class="cls-1" d="m663.25,81.19v85h-19.24l-36.07-49.51v49.51h-20.7v-85h19.28l36.03,49.75v-49.75h20.7Z"/><path class="cls-1" d="m183.31,63.44l-.02-.02-52.2,52.2h0s-9.36,9.36-9.36,9.36l25.36,25.36,9.36-9.36-16-16,45.34-45.34c16.38,8.9,27.51,26.17,27.51,46.04,0,28.98-23.63,52.46-52.78,52.46-2.07,0-4.11-.13-6.12-.36l.03.02-10.27,10.96c5.32,1.37,10.91,2.11,16.66,2.11,36.49,0,66.07-29.4,66.07-65.67,0-28.42-18.16-52.62-43.57-61.76Z"/><path class="cls-1" d="m147.64,176.57l42.3-42.3h0s9.36-9.36,9.36-9.36l-25.36-25.36-9.36,9.36,16,16-46.29,46.29c-15.86-9.05-26.55-26.04-26.55-45.52,0-28.98,23.63-52.46,52.78-52.46,1.72,0,3.41.09,5.08.25l11.42-11.94c-5.19-1.3-10.61-2-16.2-2-36.49,0-66.07,29.4-66.07,65.67,0,28.13,17.79,52.11,42.8,61.47l10.1-10.1h0Z"/><path class="cls-1" d="m331.49,190.36h2.64v8.55c0,.74.77,2.57,3.11,2.57,2.81,0,3.18-2,3.18-2.88l.02-8.24h2.67v7.89c0,1.33-.1,2.25-.29,2.77-.19.52-.57,1.01-1.11,1.49s-1.18.83-1.9,1.07c-.72.23-1.55.35-2.5.35-1.24,0-2.33-.22-3.25-.66-.92-.44-1.58-.99-1.98-1.65-.4-.66-.59-1.78-.59-3.36v-7.89Z"/><path class="cls-1" d="m355.79,190.23h4.76c4.53,0,4.51,3.08,4.51,3.93,0,.94.43,4.99-6.3,4.99v4.61h-2.97v-13.54Zm2.97,6.24h.99c.77,0,1.31-.07,1.62-.2s.54-.35.71-.65c.17-.3.26-.66.26-1.09,0-.74-.24-1.28-.73-1.62-.35-.25-1.01-.38-1.97-.38h-.87v3.93Z"/><path class="cls-1" d="m383.66,190.02c1.9,0,3.53.68,4.9,2.03,1.37,1.35,2.05,3,2.05,4.95s-.67,3.56-2.02,4.89c-1.35,1.33-2.98,2-4.9,2s-3.69-.69-5.02-2.06c-1.33-1.37-2-3-2-4.88,0-1.26.31-2.42.93-3.48.62-1.06,1.47-1.9,2.56-2.52,1.09-.62,2.26-.93,3.51-.93Zm-.03,2.46c-1.24,0-2.29.43-3.13,1.28-.85.85-1.27,1.93-1.27,3.24,0,1.46.53,2.62,1.6,3.47.83.66,1.78,1,2.85,1,1.21,0,2.24-.43,3.09-1.29.85-.86,1.28-1.92,1.28-3.19s-.43-2.32-1.29-3.19c-.86-.87-1.9-1.31-3.13-1.31Z"/><path class="cls-1" d="m618.29,190.02c1.9,0,3.53.68,4.9,2.03,1.37,1.35,2.05,3,2.05,4.95s-.67,3.56-2.02,4.89c-1.35,1.33-2.98,2-4.9,2s-3.69-.69-5.02-2.06c-1.33-1.37-2-3-2-4.88,0-1.26.31-2.42.93-3.48.62-1.06,1.47-1.9,2.56-2.52,1.09-.62,2.26-.93,3.51-.93Zm-.03,2.46c-1.24,0-2.29.43-3.13,1.28-.85.85-1.27,1.93-1.27,3.24,0,1.46.53,2.62,1.6,3.47.83.66,1.78,1,2.85,1,1.21,0,2.24-.43,3.09-1.29.85-.86,1.28-1.92,1.28-3.19s-.43-2.32-1.29-3.19-1.9-1.31-3.13-1.31Z"/><path class="cls-1" d="m418.16,190.29h9.07v2.5h-6.29v2.45h4.53v2.47h-4.53v6.07h-2.78v-13.48Z"/><path class="cls-1" d="m439.54,190.29h2.54v13.48h-2.54v-13.48Z"/><path class="cls-1" d="m455.26,190.29h2.71l6.34,8.87v-8.87h2.82v13.48h-2.71l-6.34-8.84v8.84h-2.82v-13.48Z"/><path class="cls-1" d="m503.25,190.29h2.71l6.34,8.87v-8.87h2.82v13.48h-2.71l-6.34-8.84v8.84h-2.82v-13.48Z"/><path class="cls-1" d="m483.5,190.29h2.78l5.53,13.48h-2.85l-1.13-2.78h-5.87l-1.17,2.78h-2.85l5.55-13.48Zm1.41,3.57l-1.93,4.63h3.85l-1.92-4.63Z"/><path class="cls-1" d="m540.08,193.9l-2.88-.08c-1.06-1.18-1.96-1.23-3.46-1.23-1.27,0-2.34.43-3.21,1.28-.87.86-1.31,1.91-1.31,3.17,0,.87.19,1.65.58,2.33.39.68.93,1.21,1.64,1.6s1.49.58,2.35.58c.73,0,1.41-.13,2.02-.41.61-.27,1.45-.97,1.84-1.79l2.58.02c-.39,2.49-2.61,3.66-3.48,4.02-.87.36-1.87.55-2.99.55-2.07,0-3.76-.65-5.08-1.94-1.32-1.29-1.98-2.95-1.98-4.97,0-1.31.3-2.47.9-3.48s1.46-1.83,2.58-2.45c1.12-.62,2.32-.93,3.61-.93,1.1,0,2.15.23,3.17.68,1.02.46,2.63,1.49,3.13,3.04Z"/><path class="cls-1" d="m552.06,190.18h2.54v13.58h-2.54v-13.58Z"/><path class="cls-1" d="m567.5,190.18h9.77v2.53h-7.22l.02,2.46h5.47l-.02,2.48h-5.43l-.02,3.57h7.21v2.54h-9.77v-13.58Z"/><path class="cls-1" d="m597.08,198.91c3.24-1.5,2.87-4.37,2.87-4.37-.34-4.22-4.78-4.22-4.78-4.22h-5.1v13.49h2.48v-5.01h1.89l2.78,5.01h2.87l-3.01-4.9Zm-2.06-1.84h-2.45v-4.63h2.06s2.51-.13,2.76,2.11c0,0,.26,2.16-2.37,2.52Z"/><path class="cls-1" d="m316.72,198.82c3.24-1.5,2.87-4.37,2.87-4.37-.34-4.22-4.78-4.22-4.78-4.22h-5.1v13.49h2.48v-5.01h1.89l2.78,5.01h2.87l-3.01-4.9Zm-2.06-1.84h-2.45v-4.63h2.06s2.51-.13,2.76,2.11c0,0,.26,2.16-2.37,2.52Z"/><path class="cls-1" d="m297.01,197.43l-.02-.86-6.06.03v1.87h3.55c-.27,1.23-1.14,2.05-1.73,2.41-.59.36-1.32.54-2.19.54-1.33,0-2.45-.43-3.35-1.3-.91-.87-1.36-1.93-1.36-3.17s.44-2.23,1.31-3.08c.87-.84,1.96-1.43,3.25-1.43,1.48,0,2.77.37,3.49,1.39h2.73c-.72-1.9-2.2-2.66-3.04-3.01-.99-.42-2.06-.62-3.21-.62-2.18,0-3.96.75-5.32,2.26-1.15,1.27-1.72,2.76-1.72,4.47,0,1.25.31,2.41.93,3.49.62,1.08,1.47,1.91,2.54,2.49,1.07.58,2.28.87,3.65.87,1.27,0,2.38-.27,3.33-.8.5-.28.95-.64,1.36-1.06v1.98h1.83v-6.2c0-.09.02-.18.02-.27Z"/></svg>