<?xml version="1.0" encoding="UTF-8"?><svg id="Capa_12" xmlns="http://www.w3.org/2000/svg" viewBox="0 0 733.85 299.39"><defs><style>.cls-1{fill:#e31b21;}.cls-1,.cls-2,.cls-3{stroke-width:0px;}.cls-2{fill:#e31921;}.cls-3{fill:#e41d28;}</style></defs><path class="cls-3" d="m698.14,140.67c-6.52,0-11.81,5.29-11.81,11.81s5.29,11.81,11.81,11.81,11.81-5.29,11.81-11.81-5.29-11.81-11.81-11.81Zm.05,21.14c-5.17,0-9.37-4.19-9.37-9.37s4.19-9.37,9.37-9.37,9.37,4.19,9.37,9.37-4.19,9.37-9.37,9.37Z"/><path class="cls-2" d="m172.61,95.53c-19.42,0-35.16,15.74-35.16,35.16s15.74,35.16,35.16,35.16,35.16-15.74,35.16-35.16-15.74-35.16-35.16-35.16Zm0,50.82c-8.57,0-15.52-7.01-15.52-15.66s6.95-15.66,15.52-15.66,15.52,7.01,15.52,15.66-6.95,15.66-15.52,15.66Z"/><circle class="cls-2" cx="272.47" cy="76.56" r="11.75"/><polygon class="cls-2" points="252.24 97.13 242.81 97.13 242.81 76.56 221.75 76.56 221.75 97.13 212.22 97.13 212.22 116.2 221.75 116.2 221.75 163.98 242.81 163.98 242.81 116.2 252.24 116.2 252.24 97.13"/><path class="cls-2" d="m110.65,146.27c-8.56,0-15.49-6.97-15.49-15.57s6.94-15.57,15.49-15.57c4.9,0,9.27,2.29,12.11,5.87l13.94-13.92c-6.54-7.1-15.99-11.55-26.5-11.55-19.75,0-35.76,15.74-35.76,35.16s16.01,35.16,35.76,35.16c10.52,0,19.98-4.47,26.52-11.58l-14-13.82c-2.84,3.55-7.19,5.82-12.07,5.82Z"/><path class="cls-2" d="m344.64,97.26v7.23c-5.15-5.3-11.97-9.01-20.25-9.01-15.93,0-32.89,15.65-32.89,34.95s15.51,35.47,33.31,35.47c7.91,0,14.66-3.64,19.83-8.93v7.15h20.37v-66.85h-20.37Zm-16.2,49.4c-8.81,0-15.96-7.14-15.96-15.96s7.14-15.96,15.96-15.96,15.96,7.14,15.96,15.96-7.14,15.96-15.96,15.96Z"/><path class="cls-2" d="m396.3,164.11v-7.23c5.15,5.3,11.97,9.01,20.25,9.01,15.93,0,32.89-15.65,32.89-34.95s-15.51-35.47-33.31-35.47c-7.91,0-14.66,3.64-19.83,8.93v-37.87h-20.37v97.57h20.37Zm16.2-49.4c8.81,0,15.96,7.14,15.96,15.96s-7.14,15.96-15.96,15.96-15.96-7.14-15.96-15.96,7.14-15.96,15.96-15.96Z"/><path class="cls-2" d="m509.61,97.26v7.23c-5.15-5.3-11.97-9.01-20.25-9.01-15.93,0-32.89,15.65-32.89,34.95s15.51,35.47,33.31,35.47c7.91,0,14.66-3.64,19.83-8.93v7.15h20.37v-66.85h-20.37Zm-16.2,49.4c-8.81,0-15.96-7.14-15.96-15.96s7.14-15.96,15.96-15.96,15.96,7.14,15.96,15.96-7.14,15.96-15.96,15.96Z"/><path class="cls-2" d="m583.6,96.01s-6.85-.99-12.05,1.82c0,0-5.73,2.42-10.69,10.46v-10.76h-21.06v66.45h21.06v-37.7s1.09-10.5,12.49-11.05c0,0,9.98-.7,12.64,10.83l-.07,38.08h20.99v-40.26s.53-25.23-23.31-27.88Z"/><polygon class="cls-2" points="683.48 164.13 657.65 130.75 681.69 97.28 657.01 97.28 637.71 124.3 637.71 66.47 616.85 66.47 616.85 164.14 637.71 164.14 637.71 136.52 659.04 164.13 683.48 164.13"/><path class="cls-1" d="m62.92,72.23l-8.87,17.81s-4.17-2.42-9.04-4.04c0,0-3.44-1.26-5.83-.96,0,0-4.97-.17-9.01,2.05,0,0-2.81,1.46-3.58,4.67,0,0-2.09,6.46,5.36,10.3,0,0,3.18,1.75,9.2,3.31,0,0,10.56,3.58,15.06,6.99,0,0,9.07,4.9,10.83,16.69,0,0,2.12,12.13-3.84,20.73,0,0-4.5,10-19.87,14.2,0,0-11.82,3.97-26.02,0,0,0-8.74-1.94-17.33-8.94l10.73-18.28s4.85,3.41,12.1,6.29c0,0,5.26,2.22,12.78,1.52,0,0,6.75-.79,8.48-6.59,0,0,1.89-5.43-2.88-9.07,0,0-2.58-2.02-7.85-3.91l-9.44-3.24s-6.82-2.95-8.84-4.8c0,0-6.52-3.87-9.54-11.19,0,0-3.54-6.92-1.62-16.22,0,0,1.32-9.3,8.51-15.93,0,0,5-5.3,11.82-7.25,0,0,6.56-2.45,18.38-1.19,0,0,10.2.66,20.3,7.05Z"/><path class="cls-1" d="m703.07,149.95c.04,2.61-1.15,3.5-2.24,4.12v.07s2.63,4.73,2.63,4.73h-2.8l-2.47-4.49-1.91.02v4.48h-2.23v-12.75h4.58c2.64,0,3.46,1.15,3.85,1.71s.57,1.27.58,2.12Zm-5.63,2.36c.53,0,.99-.02,1.36-.07.37-.05.68-.12.94-.22.47-.18.8-.43.98-.75.18-.32.27-.68.27-1.09,0-.35-.07-.66-.21-.93s-.39-.48-.73-.64c-.22-.1-.5-.18-.84-.23-.34-.05-.75-.07-1.25-.07h-1.67v4.01h1.15Z"/><rect class="cls-2" x="262.06" y="97.18" width="21" height="66.8"/></svg>