<?xml version="1.0" encoding="UTF-8"?><svg id="Capa_10" xmlns="http://www.w3.org/2000/svg" viewBox="0 0 720.31 299.39"><defs><style>.cls-1{fill:#2a2f69;}.cls-1,.cls-2,.cls-3{stroke-width:0px;}.cls-2{fill:#fff;}.cls-3{fill:#73328a;}</style></defs><rect class="cls-3" y="99.1" width="331.87" height="100.65"/><rect class="cls-1" x="331.87" y="99.1" width="330.96" height="100.65"/><path class="cls-2" d="m391.2,147.08c-.31,4.48.83,9.25,2.72,11.62,2.18,2.69,4.87,4.82,8.98,4.82,3.29,0,4.71-.54,7.09-1.93,3.02-2.16,3.67-3.56,3.67-3.56h1.2v2.15c0,.29-1.93,2.47-4.71,4.47-2.11,1.55-5.22,2.58-7.72,2.58-5.13,0-9.55-.82-13.62-4.74-2.93-2.82-4.8-6.52-4.8-11.3s1.41-9.05,4.23-12.41c3.08-3.69,7.19-5.54,12.32-5.54,4.54,0,7.92,1.26,10.2,3.74,2.09,2.26,2.99,3.99,3.56,6.91.27,1.4.26,3.17.26,3.17h-23.41.01Zm8.67-11.17c-4.11,0-6.76,2.01-7.97,6.04-.36,1.2-.59,2.38-.7,3.54h16.09c.23-6.38-2.25-9.57-7.44-9.57h.01Z"/><path class="cls-2" d="m436.16,133.43c3.74,0,5.51,1.18,7.13,1.76,1.99.79,2.31-.28,2.31-.14l.02-1.63h2.44v11.11h-2.48v-1.29c.01-.96-.86-3.15-3.04-4.89-1.88-1.36-3.04-2.38-7.02-2.44-3.49-.05-5.99,1.57-8.49,4.93-1.77,2.37-1.99,6.37-1.99,9.64,0,9.1,6.57,13.13,12.09,13.13,4.26,0,9.17-2.61,10.89-5.57h1.25v1.77s-1.5,2.16-3.95,4.11c-1.91,1.61-5.92,3.02-9.68,3.02-5.25,0-9.55-1.31-12.63-4.26-3.07-2.88-4.59-6.7-4.59-11.48,0-5.01,1.6-9.35,4.98-12.78,3.51-3.52,7.3-5,12.8-5h-.04Z"/><path class="cls-2" d="m478.71,161.24c-2.82,3.06-5.06,5.71-11.01,5.71-2.85,0-5.24-.42-7.05-2.07-1.88-1.71-3.96-4.58-3.96-8.22v-18.23c0-1.1.28-1.12-2.99-1.64l-1.33-.21c-.71-.16-.68-.22-.68-.58v-1.31c0-.25.1-.37.29-.37l11.92-.88v22.02c0,4.65,1.76,7.24,6.43,7.24,2.42,0,3.36-.56,5.9-2.14,1.08-.77,2.48-2.11,2.48-3.52v-18.96c0-.79-.28-.93-3.94-1.42l-1.37-.21c-.81-.12-.82-.25-.82-.49v-1.28c.01-.25.23-.37.45-.37l11.81-.8h0v27.69c0,1.35,1.12,2.98,3.31,2.98h2.79v2.27h-10.43c-.22.01-1.79,0-1.79,0v-5.22h-.01Z"/><path class="cls-2" d="m516.27,133.1c.76,0,2.12-.05,3.33.33s1.93.95,2.59,1.34c.56.55,1.34.65.11,2.47l-1.44,2.26c-.66.98-1.04.76-1.84.44-1.09-.43-2.22-.9-3.67-1.5-1.47-.79-3.22-.71-4.14-.05-1.33.96-3.25,2.33-3.25,2.33-.2.22-1.72.88-1.72,2.2v16.19c-.26,4.04,2.33,5.11,3.41,5.11h1.8c.27,0,.38-.02.38.22v2.04h-17.18v-2.3h2.48c3.39,0,2.98-3.92,3.04-5.17v-21.14c0-1.02-.48-1.71-2.33-1.91l-3.99-.39c-.29-.05-.48-.12-.48-.37v-1.23c0-.25.17-.37.37-.37l12.13-.33c.25,0,.37-.02.37-.02v6.43l3.17-3.23c1.93-1.95,4.39-3.36,6.86-3.36h0Z"/><path class="cls-2" d="m538.2,142.91v16.19c-.26,4.04,2.33,5.11,3.41,5.11h1.8c.27,0,.38-.02.38.22v2.04h-17.18v-2.3h2.48c3.39,0,2.98-3.92,3.04-5.17v-20.65c0-1.02.21-1.46-1.39-1.72l-4.39-.7c-.29-.05-.48-.12-.48-.37v-1.23c0-.25.17-.37.37-.37l11.6-.71c.25,0,.37-.02.37-.02v9.67Z"/><path class="cls-2" d="m535.18,121.11c1.17,0,2.14.37,2.88,1.12s1.13,1.71,1.13,2.87-.38,2.12-1.13,2.87c-.76.75-1.72,1.12-2.88,1.12s-2.14-.37-2.91-1.12-1.15-1.71-1.15-2.87.38-2.12,1.15-2.87,1.74-1.12,2.91-1.12Z"/><path class="cls-2" d="m551.79,136.45c0-.43.01-.38-.23-.38h-5.35v-1.33c8.04-6.74,9.83-11.35,9.83-11.08h2.06v9.44c0,.26.12.38.38.38h10.09c.1,0,.17.01.17.14v2.16q0,.28-.18.28h-10.08c-.43,0-.38-.04-.38.54v19.98c0,3.72,2.28,6.31,5.01,6.31,3.63,0,4.89-1.1,5.78-2.41h1.41v1.06c-1.34,1.91-2.6,2.82-3.9,3.62-2.42,1.47-5.45,1.29-7.09,1.3-1.91,0-3.81-1.06-5.16-2.33-2.12-2-2.37-5.34-2.37-7.45v-20.23h.01Z"/><path class="cls-2" d="m378.04,133.48v9.83h-1.74c-.18-1.33-.49-2.2-.99-3.36s-1.23-2-1.94-2.65c-.71-.64-1.51-1.1-2.42-1.37-.91-.27-1.89-.38-2.95-.41-1.55-.04-2.95.66-3.45,1.04-.49.37-.87.8-1.14,1.28s-.41.97-.41,1.47c0,.65.09,1.24.25,1.78.16.54.45,1.06.87,1.52.43.48,1.01.95,1.73,1.42s1.66.98,2.79,1.52l4.65,2.53c4.81,2.25,7.01,5.22,7.01,8.91,0,1.42-.31,2.72-.93,3.89s-1.36,2.34-2.39,3.17c-1.03.81-2.06,1.47-3.38,1.94-1.31.45-2.66.61-4.01.61-1.03,0-2.27.06-3.94-.58-.9-.34-1.93-1.85-3.63-1.88-2.3-.02-2.32,1.62-2.41,2.28h-1.24l.07-10.9h1.17c.32,1.6.32,2.1,1.03,3.28s1.12,1.74,2,2.64c.97.98,2.9,2.27,3.72,2.58,1.08.41,2.15.54,3.28.54.81,0,1.56-.12,2.23-.36.68-.23,1.25-.56,1.76-.99.49-.43.88-.92,1.17-1.5s.43-1.19.43-1.83c0-.79-.12-1.49-.37-2.11-.25-.63-.69-1.24-1.33-1.83s-1.51-1.22-2.63-1.85-2.55-1.39-4.33-2.25c-1.73-.81-3.14-1.58-4.22-2.3-1.08-.71-1.93-1.42-2.55-2.14-.61-.71-1.03-1.46-1.25-2.25-.21-.79-.32-1.66-.32-2.65,0-1.29.25-2.49.71-3.58.48-1.1,1.15-2.06,2.05-2.87s1.93-1.45,3.13-1.91c1.2-.45,2.53-.69,3.99-.69.47,0,1.04.07,1.76.21s2.5.82,3.12.96c.6.14.93.29,1.46.31s1.14-.22,1.33-.39c.31-.31.39-.45.43-1.07h1.87-.01Z"/><path class="cls-2" d="m569.13,133.49h15.18v2.5h-.44c-.69,0-1.08.11-1.56.6-.49.5-.74,1.13-.74,1.89,0,1.03,1.62,4.65,2.34,6.38l5.89,12.85,3.39-11.19c.36-1.07,2.74-7.46,2.74-8.51,0-2.41-1.78-2.03-3.12-2.03v-2.5h11.05v2.5c-2.04.01-3.18.21-4,1.17-1.04,1.22-1.73,3.03-2.38,4.76l-8.7,25.92c-.91,2.52-3.24,8.42-3.99,9.77-.95,1.72-2.59,4.19-3.47,5.13s-2.69,2.91-5.02,2.99c-.65.02-1.39,0-1.91-.23s-1.01-.54-1.4-.95c-.39-.41-.7-.86-.91-1.37-.21-.52-.22-.49-.22-1.06,0-1.07.31-1.93.91-2.58s1.42-.97,2.47-.97c.23,0,.58.07,1.06.23.48.15,1.42.64,1.95.63,2.31-.09,3.9-2.43,5.22-5.31,1.41-3.09,1.51-3.67,2.2-5.39,1.56-3.87,1.2-3.18-1.03-7.78l-4.16-8.68-4.8-11.46c-1.13-3.77-4.16-4.64-6.52-4.79v-2.54Z"/><path class="cls-2" d="m77.94,138.3h-10.61v8.78h11.53v4.76h-11.53v13.51h-5.13v-31.88h18.94l-3.19,4.81h-.01Z"/><path class="cls-2" d="m94.26,141.42c-.12.95-8.78,24.19-8.78,24.19h-6.48l12.5-32.12h5.71l12.41,32.12h-6.33l-9.02-24.19Z"/><path class="cls-2" d="m136.59,164.12c-2.54,1.18-5.73,1.77-9.59,1.77-4.96,0-8.94-1.44-11.92-4.31-2.99-2.87-4.48-6.67-4.48-11.38s1.66-8.97,4.97-12.16c3.31-3.19,7.59-4.77,12.8-4.77,3.29,0,6.03.42,8.21,1.26v5.36c-2.42-1.25-5.09-1.88-8.04-1.88-3.73,0-6.3,1.04-8.56,3.31s-3.39,4.81-3.39,8.47,1.06,5.88,3.18,8.04c2.11,2.16,4.52,3.33,8.08,3.33,3.3,0,6.21-.7,8.73-2.1v5.06Z"/><path class="cls-2" d="m163.18,138.35h-8.52v27h-5.16v-27h-9.5v-4.87h25.72l-2.54,4.87Z"/><path class="cls-2" d="m165.41,149.85c0-5.03,1.5-9.11,4.48-12.21,2.98-3.11,7.02-4.66,12.09-4.66,4.75,0,8.57,1.51,11.45,4.53s4.32,6.89,4.32,11.61c0,5.01-1.47,9.06-4.41,12.16s-6.91,4.65-11.91,4.65-8.63-1.5-11.59-4.48c-2.96-2.99-4.44-6.85-4.44-11.59h0Zm5.5-.36c0,3.51.96,6.41,2.86,8.68s4.48,3.4,7.72,3.4c3.4,0,6.05-1.08,7.94-3.24s2.84-5.08,2.84-8.75-.91-6.74-2.74-8.94c-1.83-2.2-4.42-3.29-7.79-3.29s-5.92,1.14-7.88,3.41c-1.96,2.28-2.95,5.18-2.95,8.73Z"/><path class="cls-2" d="m227.52,165.36h-6.7l-3.55-5.79c-1.03-1.76-2.96-4.59-3.65-5.35-.85-.96-1.44-1.94-2.5-1.94h-2.16v13.08h-5.36v-31.88h10.03c3.27,0,5.79,1.14,7.57,2.63,1.78,1.49,2.68,3.6,2.68,6.32,0,2.14-.61,3.98-1.85,5.5s-2.96,2.18-5.17,2.79v.09c1.41.49,2.99,2.17,4.74,5.02l5.92,9.53h.01Zm-18.47-26.98v9.88h3.67c1.73,0,3.11-.49,4.14-1.47s1.55-2.23,1.55-3.76c0-3.11-1.87-4.65-5.61-4.65h-3.74,0Z"/><path class="cls-2" d="m236.97,137.52v27.84h-5.17v-31.88h5.17v4.04Z"/><path class="cls-2" d="m273.07,165.39h-5.98l-10.59-14.37c-.61-.86-6.05-7.87-6.84-8.92h-.38v23.3h-5.2v-31.88h6.35l14.01,18.66c.81,1.12,2.05,2.72,2.61,3.4h.55c-.16-.98,0-2.45,0-4.5l-.02-17.55h5.51v31.88h-.01Z"/><path class="cls-2" d="m307.4,162.75c-3.3,1.79-7.78,3.14-12.1,3.14-4.95,0-9.24-1.78-12.21-4.68-2.97-2.9-4.44-6.79-4.44-11.69s1.64-9.01,4.93-12.18c3.29-3.17,7.86-4.41,13.04-4.41,3.56,0,6.62.53,9.16,1.58v5.31c-2.61-1.55-5.08-2.32-8.79-2.32-3.5,0-6.63,1.13-8.85,3.4-2.22,2.26-3.34,5.23-3.34,8.91s1.02,6.19,3.07,8.3c2.05,2.12,4.81,3.18,8.31,3.18,2.31,0,4.2-.47,5.78-1.29l-.02-10.57h5.49v13.31h-.01Z"/></svg>