<?xml version="1.0" encoding="UTF-8"?><svg id="Capa_36" xmlns="http://www.w3.org/2000/svg" xmlns:xlink="http://www.w3.org/1999/xlink" viewBox="0 0 752.64 336.34"><defs><style>.cls-1{fill:url(#Degradado_sin_nombre_44);}.cls-1,.cls-2,.cls-3,.cls-4{stroke-width:0px;}.cls-2{fill:url(#Degradado_sin_nombre_44-2);}.cls-3{fill:#60605f;}.cls-4{fill:#363434;}</style><linearGradient id="Degradado_sin_nombre_44" x1="295.52" y1="133.16" x2="758.16" y2="133.16" gradientTransform="translate(-145.25 -61.73) rotate(8.23)" gradientUnits="userSpaceOnUse"><stop offset="0" stop-color="#1fa198" stop-opacity="0"/><stop offset=".21" stop-color="#1fa198" stop-opacity="0"/><stop offset=".29" stop-color="#22a19b" stop-opacity=".04"/><stop offset=".34" stop-color="#26a2a0" stop-opacity=".09"/><stop offset=".39" stop-color="#2ca3a8" stop-opacity=".17"/><stop offset=".42" stop-color="#34a4b2" stop-opacity=".27"/><stop offset=".46" stop-color="#3ea5bd" stop-opacity=".4"/><stop offset=".49" stop-color="#49a7cb" stop-opacity=".54"/><stop offset=".51" stop-color="#55a9d9" stop-opacity=".68"/><stop offset=".52" stop-color="#55a9d9" stop-opacity=".67"/><stop offset=".6" stop-color="#55a9d9" stop-opacity=".46"/><stop offset=".68" stop-color="#56a9d9" stop-opacity=".3"/><stop offset=".76" stop-color="#57a9d9" stop-opacity=".17"/><stop offset=".84" stop-color="#57a9d9" stop-opacity=".07"/><stop offset=".92" stop-color="#57a9d9" stop-opacity=".02"/><stop offset="1" stop-color="#58a9da" stop-opacity="0"/></linearGradient><linearGradient id="Degradado_sin_nombre_44-2" x1="-205.58" y1="-2241.18" x2="260.09" y2="-2241.18" gradientTransform="translate(747.06 -2092.17) rotate(-171.77)" xlink:href="#Degradado_sin_nombre_44"/></defs><path class="cls-4" d="m170.52,248.74v3.7c-3.77-2.22-7.02-3.33-9.73-3.33s-4.79.79-6.54,2.38c-1.75,1.59-2.63,3.55-2.63,5.89,0,1.68.52,3.19,1.56,4.54,1.04,1.35,3.2,2.64,6.5,3.89,3.29,1.24,5.7,2.28,7.21,3.11,1.51.83,2.8,2.03,3.86,3.61,1.06,1.58,1.59,3.62,1.59,6.12,0,3.34-1.22,6.16-3.67,8.46-2.45,2.3-5.43,3.45-8.95,3.45s-7.32-1.27-11.13-3.79v-3.95c4.21,3.09,7.86,4.63,10.95,4.63,2.57,0,4.74-.83,6.51-2.5,1.77-1.67,2.66-3.72,2.66-6.14,0-1.85-.55-3.51-1.65-4.99-1.1-1.48-3.33-2.87-6.68-4.16-3.36-1.29-5.76-2.33-7.2-3.11-1.44-.79-2.67-1.91-3.67-3.37-1.01-1.46-1.51-3.34-1.51-5.64,0-3.19,1.22-5.91,3.67-8.16,2.45-2.25,5.39-3.37,8.83-3.37s6.73.91,10.04,2.74Z"/><path class="cls-4" d="m183.27,246.56v43.44h-3.36v-43.44h3.36Z"/><path class="cls-4" d="m216.97,246.56v2.8h-20.33v17.38h19.81v2.83h-19.81v17.63h20.83v2.8h-24.19v-43.44h23.69Z"/><path class="cls-4" d="m255.62,246.56v2.8h-16.29v40.64h-3.39v-40.64h-16.29v-2.8h35.97Z"/><path class="cls-4" d="m284.69,246.56v2.8h-20.33v17.38h19.81v2.83h-19.81v17.63h20.83v2.8h-24.19v-43.44h23.69Z"/><path class="cls-4" d="m290.49,267.85v-.13c0-12.67,9.55-23.04,23.23-23.04,8.4,0,13.43,2.8,17.57,6.87l-6.24,7.19c-3.44-3.12-6.94-5.03-11.39-5.03-7.51,0-12.92,6.24-12.92,13.88v.13c0,7.64,5.28,14,12.92,14,5.09,0,8.21-2.04,11.71-5.22l6.24,6.3c-4.58,4.9-9.67,7.96-18.27,7.96-13.11,0-22.85-10.12-22.85-22.92Z"/><path class="cls-4" d="m338.75,270.9v-25.46h9.8v25.21c0,7.25,3.63,11.01,9.61,11.01s9.61-3.63,9.61-10.69v-25.52h9.8v25.14c0,13.5-7.57,20.11-19.54,20.11s-19.29-6.68-19.29-19.8Z"/><path class="cls-4" d="m387.59,245.44h10.57l11.71,18.84,11.71-18.84h10.57v44.56h-9.74v-29.09l-12.54,19.03h-.26l-12.41-18.84v28.9h-9.61v-44.56Z"/><path class="cls-4" d="m442.87,245.44h20.69c5.09,0,9.1,1.4,11.65,3.94,2.04,2.04,3.05,4.52,3.05,7.57v.13c0,5.03-2.67,7.83-5.86,9.61,5.16,1.97,8.34,4.97,8.34,10.95v.13c0,8.15-6.62,12.22-16.68,12.22h-21.2v-44.56Zm25.65,13.18c0-2.93-2.29-4.58-6.43-4.58h-9.67v9.42h9.04c4.33,0,7.06-1.4,7.06-4.71v-.13Zm-4.77,12.99h-11.33v9.8h11.65c4.33,0,6.94-1.53,6.94-4.84v-.13c0-2.99-2.23-4.84-7.25-4.84Z"/><path class="cls-4" d="m488.84,245.44h20.37c5.67,0,10.06,1.59,12.99,4.52,2.48,2.48,3.82,5.99,3.82,10.19v.13c0,7.19-3.88,11.71-9.55,13.81l10.89,15.91h-11.46l-9.55-14.26h-7.7v14.26h-9.8v-44.56Zm19.73,21.64c4.77,0,7.51-2.55,7.51-6.3v-.13c0-4.2-2.93-6.36-7.7-6.36h-9.74v12.79h9.93Z"/><path class="cls-4" d="m534.88,245.44h33.61v8.72h-23.87v9.04h21.01v8.72h-21.01v9.36h24.19v8.72h-33.93v-44.56Z"/><path class="cls-4" d="m574.48,283.5l5.79-6.94c4.01,3.31,8.21,5.41,13.31,5.41,4.01,0,6.43-1.59,6.43-4.2v-.13c0-2.48-1.53-3.76-8.98-5.67-8.98-2.29-14.77-4.78-14.77-13.62v-.13c0-8.09,6.49-13.43,15.6-13.43,6.49,0,12.03,2.04,16.55,5.67l-5.09,7.38c-3.95-2.74-7.83-4.39-11.59-4.39s-5.73,1.72-5.73,3.88v.13c0,2.93,1.91,3.88,9.61,5.85,9.04,2.36,14.13,5.6,14.13,13.37v.13c0,8.85-6.75,13.81-16.36,13.81-6.75,0-13.56-2.36-18.91-7.13Z"/><path class="cls-1" d="m121.71,156.94s117.44-132.16,251.05,12.57c133.61,144.73,206.55-15.19,222.77-56.63"/><path class="cls-2" d="m636.29,110.5s-118.1,137.05-252.46-8.49c-134.37-145.54-207.71,8.17-224.02,49.85"/><path class="cls-3" d="m194.64,307.28h14.72v3.87h-10.47v4.11h9.22v3.86h-9.22v7.49h-4.25v-19.33Z"/><path class="cls-3" d="m243.71,307.14h3.92l8.28,19.47h-4.45l-1.77-4.34h-8.17l-1.77,4.34h-4.34l8.29-19.47Zm4.47,11.38l-2.57-6.27-2.57,6.27h5.14Z"/><path class="cls-3" d="m283.34,317v-.06c0-5.5,4.14-10,10.08-10,3.65,0,5.83,1.22,7.62,2.98l-2.71,3.12c-1.49-1.35-3.01-2.18-4.94-2.18-3.26,0-5.61,2.71-5.61,6.02v.06c0,3.31,2.29,6.08,5.61,6.08,2.21,0,3.56-.88,5.08-2.26l2.71,2.73c-1.99,2.12-4.2,3.45-7.93,3.45-5.69,0-9.91-4.39-9.91-9.94Z"/><path class="cls-3" d="m335.62,311.2h-5.88v-3.92h16.02v3.92h-5.88v15.41h-4.25v-15.41Z"/><path class="cls-3" d="m373.86,317v-.06c0-5.5,4.34-10,10.3-10s10.25,4.45,10.25,9.94v.06c0,5.5-4.34,10-10.3,10s-10.25-4.45-10.25-9.94Zm16.1,0v-.06c0-3.31-2.43-6.08-5.85-6.08s-5.8,2.71-5.8,6.02v.06c0,3.31,2.43,6.08,5.85,6.08s5.8-2.71,5.8-6.02Z"/><path class="cls-3" d="m424.73,307.28h8.84c2.46,0,4.36.69,5.63,1.96,1.08,1.07,1.66,2.6,1.66,4.42v.06c0,3.12-1.68,5.08-4.14,5.99l4.72,6.9h-4.97l-4.14-6.19h-3.34v6.19h-4.26v-19.33Zm8.56,9.39c2.07,0,3.26-1.11,3.26-2.73v-.06c0-1.82-1.27-2.76-3.34-2.76h-4.22v5.55h4.31Z"/><path class="cls-3" d="m471.43,307.28h4.25v19.33h-4.25v-19.33Z"/><path class="cls-3" d="m507.05,307.28h3.92l9.06,11.9v-11.9h4.2v19.33h-3.62l-9.36-12.29v12.29h-4.2v-19.33Z"/><path class="cls-3" d="m554.55,317v-.06c0-5.5,4.28-10,10.14-10,3.48,0,5.58.94,7.59,2.65l-2.68,3.23c-1.49-1.24-2.81-1.96-5.05-1.96-3.09,0-5.55,2.73-5.55,6.02v.06c0,3.53,2.43,6.13,5.86,6.13,1.55,0,2.93-.39,4-1.16v-2.76h-4.28v-3.67h8.39v8.39c-1.99,1.68-4.72,3.07-8.26,3.07-6.02,0-10.16-4.23-10.16-9.94Z"/></svg>