<?xml version="1.0" encoding="UTF-8"?><svg id="Capa_6" xmlns="http://www.w3.org/2000/svg" xmlns:xlink="http://www.w3.org/1999/xlink" viewBox="0 0 710.01 297.97"><defs><style>.cls-1{fill:#211b41;}.cls-1,.cls-2,.cls-3{stroke-width:0px;}.cls-2{fill:url(#Degradado_sin_nombre_4);}.cls-3{fill:url(#Degradado_sin_nombre_5);}</style><linearGradient id="Degradado_sin_nombre_5" x1="188.21" y1="203.33" x2="-25.61" y2="140.93" gradientTransform="translate(0 298.02) scale(1 -1)" gradientUnits="userSpaceOnUse"><stop offset="0" stop-color="#2c4d9c"/><stop offset="1" stop-color="#d089b9"/></linearGradient><linearGradient id="Degradado_sin_nombre_4" x1="-165.38" y1="57.03" x2="201.88" y2="171.62" gradientTransform="translate(0 298.02) scale(1 -1)" gradientUnits="userSpaceOnUse"><stop offset="0" stop-color="#2c4d9c"/><stop offset="1" stop-color="#d089b9"/></linearGradient></defs><path class="cls-1" d="m216.47,162.58l12.16-14.56c8.41,6.95,17.22,11.36,27.91,11.36,8.41,0,13.48-3.34,13.48-8.81v-.26c0-5.25-3.2-7.87-18.83-11.89-18.82-4.8-30.96-10.02-30.96-28.58v-.26c0-16.97,13.61-28.13,32.71-28.13,12.59-.23,24.87,3.95,34.71,11.8l-10.67,15.5c-8.29-5.74-16.43-9.18-24.3-9.18s-12.03,3.61-12.03,8.14v.28c0,6.14,4.01,8.14,20.17,12.27,18.96,4.94,29.64,11.8,29.64,28.05v.26c0,18.57-14.15,28.98-34.32,28.98-14.61.05-28.72-5.27-39.66-14.96"/><path class="cls-1" d="m306.6,78.72h21.38v18.03h-21.38v-18.03Zm.54,25.91h20.3v71.58h-20.3v-71.58Z"/><path class="cls-1" d="m346.53,104.63h20.3v10.15c4.67-6.01,10.82-11.49,21.1-11.49,9.34,0,16.42,4.14,20.16,11.36,6.28-7.34,13.76-11.36,23.51-11.36,15.08,0,24.17,9.07,24.17,26.31v46.61h-20.3v-39.93c0-9.61-4.28-14.56-11.88-14.56s-12.29,4.94-12.29,14.56v39.93h-20.3v-39.93c0-9.61-4.28-14.56-11.88-14.56s-12.29,4.94-12.29,14.56v39.93h-20.3v-71.58Z"/><path class="cls-1" d="m473.4,104.63h20.29v10.28c4.94-6.67,11.8-11.62,22.29-11.62,16.69,0,32.59,13.11,32.59,36.99v.26c0,23.91-15.63,36.99-32.59,36.99-10.82,0-17.49-4.94-22.29-10.69v44h-20.29v-106.22Zm54.88,35.92v-.26c0-11.89-8.01-19.76-17.49-19.76s-17.36,7.87-17.36,19.76v.26c0,11.89,7.87,19.76,17.36,19.76s17.49-7.74,17.49-19.76"/><rect class="cls-1" x="564.46" y="60.46" width="20.3" height="115.74"/><path class="cls-1" d="m604.26,78.72h21.36v18.03h-21.36v-18.03Zm.52,25.91h20.3v71.58h-20.3v-71.58Z"/><path class="cls-3" d="m117.59,78.63c-16.3,0-35.67,13.44-43.28,30.02-7.61,16.58-.55,30.02,15.74,30.02h77.95l27.54-60.04h-77.95Z"/><path class="cls-2" d="m138.48,175.34c17.51,0,38.32-14.43,46.48-32.25,8.16-17.82-1.31-36.4-18.87-36.4L5.15,175.34h133.33Z"/></svg>