<?xml version="1.0" encoding="UTF-8"?><svg id="Capa_37" xmlns="http://www.w3.org/2000/svg" viewBox="0 0 752.64 362.18"><defs><style>.cls-1{fill:#b4b5b0;}.cls-1,.cls-2,.cls-3,.cls-4{stroke-width:0px;}.cls-2{fill:#0075bd;}.cls-3{fill:#fff;}.cls-4{fill:#555b5e;}</style></defs><circle class="cls-3" cx="367.64" cy="121.37" r="88.99"/><rect class="cls-2" x="456.26" width="32.7" height="32.7"/><path class="cls-1" d="m375.22,32.7h-14.61l-6.62.77v53.71h35.47v120.23h.55l2.58-.73c29.51-8.36,52.37-31.75,60.05-61.45l3.62-14.03V32.7h-81.03Z"/><path class="cls-4" d="m353.99,87.18h-22.25c-1.66.05-4.89.37-4.89.37-7.85.92-12,5.82-12,5.82-4.99,4.34-3.88,12.28-3.88,12.28.92,8.22,11.91,12.65,11.91,12.65l12.74,5.54c9.34,3.47,15.09,6.57,18.37,8.65,2.65,1.68,3.7,2.7,3.7,2.7,16.16,11.64,12.74,28.9,12.74,28.9-1.73,13.67-10.27,20.82-16.44,24.26-3.7,2.07-6.55,2.79-6.55,2.79-17.82,4.8-33.48.78-33.48.78,35.68,27.61,75.5,15.61,75.5,15.61v-120.37h-35.47Z"/><path class="cls-4" d="m292.06,167.67s11.98,8.86,34,11.21c0,0,14.09,1.29,21.01-4.99,0,0,6.65-4.43,5.54-13.67,0,0-.37-7.3-8.96-12.93,0,0-5.96-3.74-18.08-8.52l-9.21-3.74s-11.5-5.47-15.58-10.6c0,0-6.79-5.89-7.55-18.21,0,0,0-11.7,5.33-18.08,0,0,5.75-9.28,17.11-12.81,0,0,5.68-2.22,12.05-2.42h114.66s-15.23-26.32-48.81-36.78c0,0-23.14-6.19-40.09-2.59,0,0-26.31,2.45-49.38,25.83,0,0-16.86,16.51-22.5,40.49,0,0-4.91,23.03-1.24,37,0,0,1.93,15.44,11.69,30.81Z"/><path class="cls-4" d="m406.45,87.18h43.6s5.71,13.49,6.21,25.58c0,0,1.39,21.97-3.1,33.86,0,0-3.36,14.86-17.23,31.91,0,0-13.78,15.97-29.48,22.88v-114.24Z"/><path class="cls-4" d="m187.78,338.59h-8.08v-13.89h7.89v1.53l-6.38.02v4.8l5.18-.02v1.36l-5.18-.02v4.94h6.57v1.28Z"/><path class="cls-4" d="m511.16,338.59h-8.08v-13.89h7.89v1.53l-6.38.02v4.8l5.18-.02v1.36l-5.18-.02v4.94h6.57v1.28Z"/><path class="cls-4" d="m207.48,332.58c.8.26,1.22,1.42,1.68,2.74.4,1.16.76,2.39,1.4,3.43l-1.82.02c-.61-1.14-.75-1.94-1.26-3.27-.74-1.94-1.09-2.27-2.18-2.79l-2.53.02v6.04h-1.64v-13.97c1.04-.01,3.14-.02,4.32-.02,3.67,0,4.29,2.56,4.34,3.61.1,1.88-.47,3.55-2.31,4v.21Zm-1.79-1.08c1.88,0,2.52-1.21,2.52-2.91,0-.76-.72-2.71-2.46-2.7-.89,0-2.58-.02-2.98,0v5.61h2.93Z"/><path class="cls-4" d="m531.19,332.58c.8.26,1.22,1.42,1.68,2.74.4,1.16.76,2.39,1.4,3.43l-1.82.02c-.61-1.14-.75-1.94-1.26-3.27-.74-1.94-1.09-2.27-2.18-2.79l-2.53.02v6.04h-1.64v-13.97c1.04-.01,3.14-.02,4.32-.02,3.67,0,4.29,2.56,4.34,3.61.1,1.88-.47,3.55-2.31,4v.21Zm-1.79-1.08c1.88,0,2.52-1.21,2.52-2.91,0-.76-.72-2.71-2.46-2.7-.89,0-2.58-.02-2.98,0v5.61h2.93Z"/><path class="cls-4" d="m232.18,324.7l-4.35,13.89h-2.03l-4.39-13.87h1.64s3.45,10.61,3.82,12.23h.15c.59-1.63,3.54-12.25,3.54-12.25h1.62Z"/><path class="cls-4" d="m244.64,324.7h1.51v13.98h-1.51v-13.98Z"/><path class="cls-4" d="m283.03,324.66h1.51v13.98h-1.51v-13.98Z"/><path class="cls-4" d="m379.27,324.7h1.51v13.98h-1.51v-13.98Z"/><path class="cls-4" d="m487.43,324.65h1.51v13.98h-1.51v-13.98Z"/><path class="cls-4" d="m308.98,331.61c0,4.95-2.55,7.39-5.61,7.39-3.21,0-5.49-2.75-5.49-7.15s2.4-7.37,5.64-7.37,5.46,2.88,5.46,7.13Zm-9.62.2c0,2.99,1.43,5.91,4.06,5.91s4.08-2.83,4.08-6.04c0-2.83-1.27-5.93-4.05-5.93s-4.1,3.07-4.1,6.06Z"/><path class="cls-4" d="m557.01,331.61c0,4.95-2.55,7.39-5.61,7.39-3.21,0-5.49-2.75-5.49-7.15s2.4-7.37,5.64-7.37,5.46,2.88,5.46,7.13Zm-9.62.2c0,2.99,1.43,5.91,4.06,5.91s4.08-2.83,4.08-6.04c0-2.83-1.27-5.93-4.05-5.93s-4.1,3.07-4.1,6.06Z"/><path class="cls-4" d="m329.39,326.97c-.64-.55-1.52-1.1-2.88-1.1-2.25,0-3.28,1.24-3.28,2.24,0,1.37,1.16,2.01,3.32,2.79,2.61.95,3.95,2.22,3.95,4.2,0,2.21-1.61,3.91-5.09,3.91-1.58,0-3.71-1.18-4.52-1.67l.92-1.21c4.57,3.17,7.11.73,7.11-.94,0-1.07-1.06-2.37-3.19-3.01-2.51-.76-4.1-2.01-4.1-3.92,0-2.12,1.99-3.66,4.95-3.66,1.53,0,2.35.22,3.61,1.16l-.8,1.21Z"/><path class="cls-4" d="m577.42,326.97c-.64-.55-1.52-1.1-2.88-1.1-2.25,0-3.28,1.24-3.28,2.24,0,1.37,1.16,2.01,3.32,2.79,2.61.95,3.95,2.22,3.95,4.2,0,2.21-1.61,3.91-5.09,3.91-1.58,0-3.71-1.18-4.52-1.67l.92-1.21c4.57,3.17,7.11.73,7.11-.94,0-1.07-1.06-2.37-3.19-3.01-2.51-.76-4.1-2.01-4.1-3.92,0-2.12,1.99-3.66,4.95-3.66,1.53,0,2.35.22,3.61,1.16l-.8,1.21Z"/><path class="cls-4" d="m165.26,326.97c-.64-.55-1.52-1.1-2.88-1.1-2.25,0-3.28,1.24-3.28,2.24,0,1.37,1.16,2.01,3.32,2.79,2.61.95,3.95,2.22,3.95,4.2,0,2.21-1.61,3.91-5.09,3.91-1.58,0-3.71-1.18-4.52-1.67l.92-1.21c4.57,3.17,7.11.73,7.11-.94,0-1.07-1.06-2.37-3.19-3.01-2.51-.76-4.1-2.01-4.1-3.92,0-2.12,1.99-3.66,4.95-3.66,1.53,0,2.35.22,3.61,1.16l-.8,1.21Z"/><path class="cls-4" d="m358.52,338.68v-13.98h7.76v1.29h-6.19v4.97h5.25v1.26h-5.25v6.46h-1.57Z"/><path class="cls-4" d="m404.62,338.68h-1.98s-5.47-9.99-6.14-11.53h-.16c0,.37-.01,11.53-.01,11.53h-1.5v-13.98h2.02s5.54,10.39,6.26,11.77h.13c0-1.88-.12-11.77-.12-11.77h1.5v13.98Z"/><path class="cls-4" d="m450.9,338.68h-1.98s-5.47-9.99-6.14-11.53h-.16c0,.37-.01,11.53-.01,11.53h-1.5v-13.98h2.02s5.54,10.39,6.26,11.77h.13c0-1.88-.12-11.77-.12-11.77h1.5v13.98Z"/><path class="cls-4" d="m428.38,338.59h-1.63l-1.23-3.64h-5.4s-1.27,3.64-1.27,3.64h-1.57l4.66-13.89h1.78l4.66,13.89Zm-3.17-4.78s-2.21-6.86-2.4-7.69h-.06c-.18.84-2.33,7.69-2.33,7.69h4.78Z"/><path class="cls-4" d="m269.76,327.75s.17,1.35-.8,1.56c0,0-.8.31-.9-1.11,0,0-.07-.87-.64-1.37,0,0-.88-.93-2.46-.93,0,0-2.45-.35-3.56,3.55,0,0-1.32,8.01,3.65,8.1,0,0,1.8.18,3.19-1.2,0,0,.44-.58.69-.35l.55.48s.37.25-.14.88c0,0-1.82,1.71-4.29,1.71,0,0-2.56.28-4.46-2.31,0,0-1.43-1.8-1.02-7.11,0,0,.72-5.15,5.38-5.33,0,0,3.58-.07,4.8,3.43Z"/><path class="cls-4" d="m474.29,327.69s.17,1.35-.8,1.56c0,0-.8.31-.9-1.11,0,0-.07-.87-.64-1.37,0,0-.88-.93-2.46-.93,0,0-2.45-.35-3.56,3.55,0,0-1.32,8.01,3.65,8.1,0,0,1.8.18,3.19-1.2,0,0,.44-.58.69-.35l.55.48s.37.25-.14.88c0,0-1.82,1.71-4.29,1.71,0,0-2.56.28-4.46-2.31,0,0-1.43-1.8-1.02-7.11,0,0,.72-5.15,5.38-5.33,0,0,3.58-.07,4.8,3.43Z"/><path class="cls-4" d="m197.48,245.46s-8.68-5.17-19.39-4.99c0,0-19.95-1.29-22.16,16.71,0,0-1.02,10.71,9.79,16.07,0,0,3.76,1.89,9.58,4.18,0,0,6.23,2.22,7.9,4.5,0,0,1.73,1.85,1.73,4.06,0,0,.69,4.48-5.54,6.14,0,0-4.2.83-10.53-1.02,0,0-6.14-2.4-9.6-4.52,0,0-4.39,3.05-5.17,9.79,0,0,8.73,6.88,22.9,6.56,0,0,12.74.83,18.79-8.17,0,0,4.2-4.71,3-13.3,0,0-.65-6.28-6.69-10.67,0,0-4.11-3.42-12.56-6.23,0,0-4.62-1.71-6.83-3.14,0,0-3.09-1.66-3.09-4.71,0,0-.6-3,4.16-5.17,0,0,5.54-2.45,19.21,3.79,0,0,4.43-3.37,4.52-9.88Z"/><path class="cls-4" d="m202.3,241.76s-1.11,6.93,0,11.01h14.96v49.03s6.37,1.04,13.23,0v-48.96h9.63s8.8.55,5.4-11.08h-43.22Z"/><path class="cls-4" d="m448.82,241.76s-.96,3.14-.15,7.21h15.84s-.07,52.52-.07,52.52c0,0,2.48,1.03,8.8,0v-52.49h12.15s5.71.28,3.26-7.24h-39.83Z"/><path class="cls-4" d="m306.12,261.99s7.9,2.49,8.59-3.46c0,0,1.39-11.31-11.91-16.39,0,0-3.97-1.62-9-1.57,0,0-7.53-.65-13.76,4.43,0,0-6.79,5.59-8.22,12.33,0,0-2.33,8.86-1.99,14.69,0,0,.07,9.15,2.29,15.11,0,0,2.84,9.9,10.6,13.51,0,0,3.56,2.03,9.56,2.03,0,0,6.88.55,13.89-3,0,0,5.36-2.72,7.99-5.63,0,0-1.11-3.83-4.39-5.59,0,0-5.4,4.71-11.77,6.46,0,0-6.74,1.89-12.14-2.54,0,0-4.85-3.74-6.33-13.07,0,0-1.15-10.07.05-16.25,0,0,.55-6,4.62-11.36,0,0,3.06-3.97,9.5-4.18,0,0,5.23-.21,8.76,3.74,0,0,4.67,4.16,3.67,10.73Z"/><path class="cls-4" d="m418.22,260.37c0-6.23-2.33-9.97-2.33-9.97-4.22-8.75-15.77-8.98-15.77-8.98h-19.07c-1.11,0-1.14.83-1.14.83v59.26c4.63,1.11,8.71,0,8.71,0v-21.65h13.16c6.56-.18,11.31-4.85,11.31-4.85,5.96-5.45,5.12-14.64,5.12-14.64Zm-10.43,7.48s-2.75,5.17-8.88,5.45h-10.28v-24.84h10.46s8.01-.51,9.86,8.82c0,0,1.06,6.6-1.15,10.57Z"/><path class="cls-4" d="m350.16,241.69c-5.13-.9-10.04,0-10.04,0l-20.02,59.49c3.74,1.66,8.45.42,8.45.42l4.64-14.75h22.99c1.39,5.12,4.29,12.88,4.29,12.88,2.42,4.43,9.49,1.32,9.49,1.32l-19.81-59.35Zm-14.61,38.16c4.09-10.48,8.84-29.46,8.84-29.46h.65c1.52,7.29,8.8,29.46,8.8,29.46-9.3-.71-18.28,0-18.28,0Z"/><path class="cls-4" d="m516.56,241.69c-5.13-.9-9.98,0-9.98,0l-20.07,59.49c3.74,1.66,8.45.42,8.45.42l4.64-14.75h22.99c1.39,5.12,4.29,12.88,4.29,12.88,2.42,4.43,9.49,1.32,9.49,1.32l-19.81-59.35Zm-14.61,38.16c4.09-10.48,8.84-29.46,8.84-29.46h.65c1.52,7.29,8.8,29.46,8.8,29.46-9.3-.71-18.28,0-18.28,0Z"/><path class="cls-4" d="m546.25,242.04s.05-.75,1.06-.75c0,0,7.57-1.47,7.76,4.26v48.78h25.53s.92,7.18-4.57,7.32h-25.39s-3.92.14-4.39-4.94v-54.67Z"/><path class="cls-4" d="m429.9,241.76s4.34-.65,8.77,0v59.77s-3.97.83-8.77,0v-59.77Z"/></svg>