<?xml version="1.0" encoding="UTF-8"?><svg id="Capa_38" xmlns="http://www.w3.org/2000/svg" xmlns:xlink="http://www.w3.org/1999/xlink" viewBox="0 0 752.64 367.83"><defs><style>.cls-1{fill:#105490;}.cls-1,.cls-2,.cls-3,.cls-4,.cls-5,.cls-6,.cls-7,.cls-8,.cls-9{stroke-width:0px;}.cls-2{fill:#65b230;}.cls-3{fill:#0f5590;}.cls-10{filter:url(#drop-shadow-3);}.cls-4{fill:#f4991a;}.cls-11{filter:url(#drop-shadow-1);}.cls-5{fill:#34a836;}.cls-6{fill:#eb691b;}.cls-7{fill:#ec6b1b;}.cls-12{filter:url(#drop-shadow-2);}.cls-8{fill:#ef7e16;}.cls-9{fill:#f3971a;}.cls-13{fill:none;stroke:#7fa6c1;stroke-miterlimit:10;stroke-width:1.06px;}</style><filter id="drop-shadow-1" filterUnits="userSpaceOnUse"><feOffset dx="14.9" dy="14.9"/><feGaussianBlur result="blur" stdDeviation="10.64"/><feFlood flood-color="#000" flood-opacity=".75"/><feComposite in2="blur" operator="in"/><feComposite in="SourceGraphic"/></filter><filter id="drop-shadow-2" filterUnits="userSpaceOnUse"><feOffset dx="14.9" dy="14.9"/><feGaussianBlur result="blur-2" stdDeviation="10.64"/><feFlood flood-color="#000" flood-opacity=".75"/><feComposite in2="blur-2" operator="in"/><feComposite in="SourceGraphic"/></filter><filter id="drop-shadow-3" filterUnits="userSpaceOnUse"><feOffset dx="14.9" dy="14.9"/><feGaussianBlur result="blur-3" stdDeviation="10.64"/><feFlood flood-color="#000" flood-opacity=".75"/><feComposite in2="blur-3" operator="in"/><feComposite in="SourceGraphic"/></filter></defs><g class="cls-11"><polygon class="cls-8" points="323.18 223.83 262.33 223.83 277.01 205.43 332.85 205.43 323.18 223.83"/><rect class="cls-9" x="262.33" y="223.83" width="61.13" height="79.44"/><polygon class="cls-6" points="332.85 205.37 323.46 223.83 323.46 303.27 325.34 303.27 332.85 283.46 332.85 205.37"/></g><g class="cls-12"><polygon class="cls-5" points="401.96 303.27 339.86 303.27 339.86 134.07 401.96 128 401.96 303.27"/><polygon class="cls-5" points="410.94 117.26 354.44 117.26 339.86 134.07 396.89 134.07 410.94 117.26"/><polygon class="cls-2" points="411.16 117.26 401.96 128 401.96 303.27 403.14 303.27 411.16 279.8 411.16 117.26"/></g><g class="cls-10"><polygon class="cls-8" points="477.73 49.37 417.64 49.37 417.64 45.52 430.31 29.47 488.9 29.47 477.73 49.37"/><polygon class="cls-4" points="417.98 49.43 479.2 49.43 479.2 299.23 479.2 303.27 417.98 303.27 417.98 49.43"/><polygon class="cls-7" points="488.9 29.4 478.08 48.66 479.2 303.27 481.02 302.29 488.9 274.63 488.9 29.4"/></g><path class="cls-13" d="m510.69,129.75s-27.7-55.49-33.71-63.76c0,0-1.6-2.54-4.13-2.25,0,0-3.38,0-4.98,1.69,0,0-39.16,37.65-50.05,46.2,0,0-14.46,9.58-13.62,18.12,0,0,4.01.31,6.64-.38,0,0,19.75-12.39,30.36-21.5,0,0,14.93-11.46,17.56-13.71,0,0,4.79-4.16,3.41,1.91,0,0-19.91,73.93-46.14,107.01,0,0-34.37,59.44-96.9,79.72,0,0-23.76,9.86-59.66,7.89l4.88,10.89s46.14,7.51,102.29-26.48c0,0,52.08-29.36,90.39-108.48,0,0,16.28-34.05,23.22-67.48,0,0,.47-3.38,2.25-.28,0,0,21.97,31.83,23.76,34.08,0,0,1.5,2.16,4.79,1.78,0,0,1.34-1.56-.38-4.98Z"/><path class="cls-1" d="m510.69,129.75s-27.7-55.49-33.71-63.76c0,0-1.6-2.54-4.13-2.25,0,0-3.38,0-4.98,1.69,0,0-39.16,37.65-50.05,46.2,0,0-14.46,9.58-13.62,18.12,0,0,4.01.31,6.64-.38,0,0,19.75-12.39,30.36-21.5,0,0,14.93-11.46,17.56-13.71,0,0,4.79-4.16,3.41,1.91,0,0-19.91,73.93-46.14,107.01,0,0-34.37,59.44-96.9,79.72,0,0-23.76,9.86-59.66,7.89l4.88,10.89s46.14,7.51,102.29-26.48c0,0,52.08-29.36,90.39-108.48,0,0,16.28-34.05,23.22-67.48,0,0,.47-3.38,2.25-.28,0,0,21.97,31.83,23.76,34.08,0,0,1.5,2.16,4.79,1.78,0,0,1.34-1.56-.38-4.98Z"/><path class="cls-3" d="m229.52,322.5h36.1v9.59l-11.59.03v29.75h-12.91v-29.75l-11.59-.03v-9.59Z"/><path class="cls-3" d="m263.65,362.43v-22.54h18.15v5.26h-11.05v4.43h9.77v4.93h-9.8l.06,7.92h-7.13Z"/><path class="cls-3" d="m285.51,338.48h6.74v4.44h-6.74v-4.44Zm0,23.95v-16.98h6.74v16.98h-6.74Z"/><path class="cls-3" d="m296.69,345.08h5.12l.49,2.2h.66c1.48-2.08,2.8-2.69,5.29-2.69,4.35,0,6.4,2.68,6.4,7.45v10.39h-6.56v-9.16c0-1.72-.41-3.58-2.27-3.58-2.02,0-2.58,1.69-2.58,3.91v8.84h-6.56v-17.34Z"/><path class="cls-3" d="m341.38,345.08h5.12l.49,2.2h.66c1.48-2.08,2.8-2.69,5.29-2.69,4.35,0,6.4,2.68,6.4,7.45v10.39h-6.56v-9.16c0-1.72-.41-3.58-2.27-3.58-2.02,0-2.58,1.69-2.58,3.91v8.84h-6.56v-17.34Z"/><path class="cls-3" d="m333.7,362.54c-1.07.02-2.42-.83-3.09-1.67h-.85c-1.99,1.67-3.26,1.67-5.9,1.67-3.35,0-6.34-1.59-6.34-5.12,0-4.08,4.39-5.2,7.99-5.61,1.27-.15,4.66-.02,4.66-.08,0,0-.02-1.05-.02-1.7,0-1.23-1.56-1.39-2.3-1.39-.98,0-3.49.18-3.49,1.93l-5.75-.02c0-3.6,1.48-5.96,9.69-5.96s8.15,4.14,8.28,7.04l-.03,6.64c0,.97,1.19.62,2.16.71v3.57h-5.01Zm-3.45-7.33c-2.74.65-6.12-.77-6.12,2.3,0,.91.84,1.56,2.43,1.56,2.84,0,3.88-1.32,3.68-3.85Z"/><path class="cls-3" d="m465.65,362.54c-1.07.02-2.42-.83-3.09-1.67h-.85c-1.99,1.67-3.26,1.67-5.9,1.67-3.35,0-6.34-1.59-6.34-5.12,0-4.08,4.39-5.2,7.99-5.61,1.27-.15,4.66-.02,4.66-.08,0,0-.02-1.05-.02-1.7,0-1.23-1.56-1.39-2.3-1.39-.98,0-3.49.18-3.49,1.93l-5.75-.02c0-3.6,1.48-5.96,9.69-5.96s8.15,4.14,8.28,7.04l-.03,6.64c0,.97,1.19.62,2.16.71v3.57h-5.01Zm-3.45-7.33c-2.74.65-6.12-.77-6.12,2.3,0,.91.84,1.56,2.43,1.56,2.84,0,3.88-1.32,3.68-3.85Z"/><path class="cls-3" d="m534.98,362.54c-1.07.02-2.42-.83-3.09-1.67h-.85c-1.99,1.67-3.26,1.67-5.9,1.67-3.35,0-6.34-1.59-6.34-5.12,0-4.08,4.39-5.2,7.99-5.61,1.27-.15,4.66-.02,4.66-.08,0,0-.02-1.05-.02-1.7,0-1.23-1.56-1.39-2.3-1.39-.98,0-3.49.18-3.49,1.93l-5.75-.02c0-3.6,1.48-5.96,9.69-5.96s8.15,4.14,8.28,7.04l-.03,6.64c0,.97,1.19.62,2.16.71v3.57h-5.01Zm-3.45-7.33c-2.74.65-6.12-.77-6.12,2.3,0,.91.84,1.56,2.43,1.56,2.84,0,3.88-1.32,3.68-3.85Z"/><path class="cls-3" d="m375.5,351.7c-.21-2.26-1.92-2.48-3.2-2.48-2.53,0-3.28,2.67-3.28,4.72,0,2.61,1.3,4.35,3.28,4.35,3.34,0,3.85-1.22,4.05-2.58h5.39c-.29,2.61-1.46,4.44-3.18,5.59-1.68,1.12-3.89,1.62-6.26,1.62-5.48,0-9.69-3.14-9.69-9s4.08-9.33,9.69-9.33c4.54,0,8.82,1.99,9.3,7.12h-6.1Z"/><path class="cls-3" d="m385.73,338.48h6.74v4.8h-6.74v-4.8Zm0,23.95v-16.98h6.74v16.98h-6.74Z"/><path class="cls-3" d="m405.79,344.59c6,0,9.69,3.61,9.69,9,0,6.35-4.22,9.33-9.66,9.33s-9.66-3.05-9.66-8.97,3.89-9.36,9.63-9.36Zm-3.53,9.28c0,3.53,1.46,5.06,3.56,5.06,2.21,0,3.56-1.53,3.56-5.06,0-2.74-1.34-4.81-3.48-4.71-2.81,0-3.64,2.6-3.64,4.71Z"/><path class="cls-3" d="m441.04,348.93c0-2.82-1.6-4.58-4.31-4.58-2.57,0-4.12,2.23-4.12,6.61,0,3.18.68,6.17,4.4,6.17,2.35,0,3.73-1.67,4.01-3.84h6.76c-.65,5.86-4.77,9.38-10.65,9.38-7.37,0-11.82-4.59-11.82-11.96s4.89-11.9,11.11-11.9c6.81,0,10.77,4.32,11.36,10.14l-6.74-.02Z"/><path class="cls-3" d="m478.08,344.66l.57,2.63h.68c.92-2.07,3.18-2.71,5.09-2.71,5.03,0,7.45,4.18,7.45,8.85,0,6.68-4.07,9.11-7.8,9.11-1.81,0-3.15-.75-4.26-2.17v7.46h-6.62v-23.14l4.9-.02Zm7.57,8.99c0-2.95-1.3-4.34-3.29-4.34-1.81,0-3.03,1.71-3.03,4.2s1.12,4.38,3.07,4.38,3.25-1.67,3.25-4.23Z"/><path class="cls-3" d="m494.97,338.1h6.74v4.8h-6.74v-4.8Zm0,23.95v-16.98h6.74v16.98h-6.74Z"/><path class="cls-3" d="m516.68,362.38c-8.85.49-9.59-.45-9.59-6.32l.02-7.1h-2.75v-4.23h3.36s.99-4.94.99-4.94h4.79v4.89l3.24.02v4.26h-3.24v6.16c0,3.6,3.18,2.92,3.18,2.92v4.34Z"/><path class="cls-3" d="m542.43,362.06v-23.7h6.59v23.7h-6.59Z"/></svg>