<?xml version="1.0" encoding="UTF-8"?><svg id="Capa_30" xmlns="http://www.w3.org/2000/svg" viewBox="0 0 752.64 331.33"><defs><style>.cls-1{fill:#213e40;}.cls-1,.cls-2,.cls-3{stroke-width:0px;}.cls-4{fill:#8ec1e8;stroke:#656264;stroke-width:1.33px;}.cls-4,.cls-5{stroke-miterlimit:10;}.cls-5{fill:none;stroke:#6b686a;stroke-width:7.56px;}.cls-2{fill:#e0141f;}.cls-3{fill:#1a1413;}</style></defs><rect class="cls-1" x="122.09" y="127.79" width="120.71" height="112.3"/><rect class="cls-4" x="242.8" y="127.79" width="393.97" height="112.3"/><rect class="cls-5" x="122.09" y="127.79" width="513.3" height="110.42"/><path class="cls-2" d="m137.67,148.22h48.98v7.04h-20.47v53.17h-8.05v-53.17h-20.47v-7.04Z"/><path class="cls-2" d="m213.15,208.44h-7.13v-6.12h-.17c-1.6,2.35-5.7,7.47-13.42,7.47-6.8,0-15.35-2.77-15.35-15.26v-29.94h7.55v27.17c0,7.63,2.18,11.49,9.39,11.49,4.2,0,11.57-2.68,11.57-14.59v-24.07h7.55v43.86Z"/><path class="cls-3" d="m267.86,208.44h-6.09v-60.21h31.5v7.04h-25.42v18.62h22.38v7.04h-22.38v27.51Z"/><path class="cls-3" d="m297.07,177.74c.31-10.73,7.13-14.51,16.65-14.51,7.82,0,15.41,3.35,15.41,12.16v25.49c0,1.42.7,2.6,2.25,2.6.7,0,1.47-.17,2.25-.34v5.2c-1.16.34-2.17.67-3.72.67-4.8,0-6.97-1.68-7.36-6.37-3.41,4.02-7.44,7.13-14.87,7.13-6.2,0-12.39-4.36-12.39-12.66,0-9.06,6.12-13,12.16-13.76l11.39-1.51c2.17-.25,3.48-1.68,3.48-5.12,0-5.28-3.33-7.47-9.29-7.47s-9.06,2.85-9.45,8.47h-6.5Zm25.09,8.39c-2.17,1.76-6.74,2.1-11.23,2.77-5.03.76-8.68,2.77-8.68,7.13,0,5.03,3.02,7.72,7.36,7.72,4.1,0,12.55-3.02,12.55-10.56v-7.05Z"/><path class="cls-3" d="m370.51,193.01c-.62,6.46-4.26,16.77-17.36,16.77-7.21,0-16.89-5.37-16.89-23.06,0-14.51,8.21-23.48,17.59-23.48,12.79,0,16.19,9.39,16.66,16.1h-6.51c-.7-5.95-3.8-9.56-9.38-9.56-7.67,0-11.39,7.05-11.39,17.36,0,11.57,4.11,16.6,10.93,16.6,4.88,0,8.84-3.94,9.84-10.73h6.51Z"/><path class="cls-3" d="m386.66,170.61v28.43c0,3.44,2.85,3.44,4.36,3.44h2.6v5.95c-2.26.34-4.28.59-5.53.59-7.38,0-8.98-4.11-8.98-9.39v-29.02h-5.87v-6.04h5.87v-12.24h7.55v12.24h6.96v6.04h-6.96Z"/><path class="cls-3" d="m413.17,209.78c-11.01,0-17.59-8.98-17.59-23.31s6.59-23.23,17.59-23.23,17.59,8.97,17.59,23.23-6.59,23.31-17.59,23.31Zm0-40.01c-7.24,0-11.08,6.96-11.08,16.69s3.84,16.77,11.08,16.77,11.08-6.96,11.08-16.77-3.84-16.69-11.08-16.69Z"/><path class="cls-3" d="m435.52,164.58h7.04v7.21h.17c2.94-5.12,6.79-8.55,12.33-8.55.93,0,1.34.08,1.93.25v7.55h-2.77c-6.79,0-11.15,5.45-11.15,11.83v25.58h-7.55v-43.86Z"/><path class="cls-3" d="m460.48,148.72h7.55v8.56h-7.55v-8.56Zm0,15.85h7.55v43.86h-7.55v-43.86Z"/><path class="cls-3" d="m473.52,164.58h7.13v6.12h.17c1.59-2.35,5.7-7.46,13.42-7.46,6.79,0,15.35,2.77,15.35,15.26v29.94h-7.55v-27.17c0-7.63-2.18-11.49-9.39-11.49-4.19,0-11.58,2.69-11.58,14.59v24.07h-7.55v-43.86Z"/><path class="cls-3" d="m548.09,204.75c0,6.29-.07,22.14-17.4,22.14-4.44,0-13.1-1.42-14.32-13.17h6.3c1.15,7.13,6.95,7.13,8.45,7.13,10.53,0,10.53-8.3,10.53-15.52v-1.42c-1.65,3.1-4.94,5.87-10.02,5.87-12.75,0-16.47-14.09-16.47-24.57,0-12.41,5.66-21.97,15.61-21.97,6.88,0,9.74,4.95,11.24,7.46h.14v-6.12h5.94v40.17Zm-26.5-18.54c0,9.65,3.22,17.02,10.1,17.02,4.01,0,10.24-3.1,10.24-14.84,0-7.05-1-18.62-10.1-18.62-9.74,0-10.24,10.9-10.24,16.44Z"/><path class="cls-3" d="m584.35,192.44c-.15-2.34-1.7-4.24-5.15-4.24s-4.94,1.34-4.94,3.66c0,1.52,1.29,2.34,3.57,2.89l4.18,1.03c3.83.94,5.59,2.66,5.59,5.62,0,5-4.36,6.41-8.48,6.41-5.56,0-8.19-3.22-8.19-6.99v-.35h2.63c0,3.19,2.58,4.88,5.62,4.88s5.62-1.02,5.62-3.51c0-1.96-1.08-2.87-4.06-3.57l-3.75-.94c-3.74-.94-5.35-2.58-5.35-5.32,0-3.42,2.46-6.26,7.43-6.26,4.68,0,7.93,2.28,7.93,6.7h-2.63Z"/><path class="cls-3" d="m590.33,204.11h2.98v3.16h-2.98v-3.16Z"/><path class="cls-3" d="m608.75,200.92h-8.19l-2.25,6.35h-3.01l7.9-21h3.22l7.6,21h-3.02l-2.25-6.35Zm-4.06-11.49h-.06l-3.28,9.21h6.61l-3.28-9.21Z"/><path class="cls-3" d="m616.05,204.11h2.98v3.16h-2.98v-3.16Z"/></svg>