<?xml version="1.0" encoding="UTF-8"?>
<svg id="Capa_2" xmlns="http://www.w3.org/2000/svg" viewBox="0 0 189.19 197.29">
  <defs>
    <style>
      .cls-1 {
        fill: #f9cf16;
      }

      .cls-2 {
        fill: #cd142a;
      }

      .cls-3 {
        fill: #ea86a1;
      }

      .cls-4 {
        fill: #646365;
      }

      .cls-5 {
        fill: #868486;
      }

      .cls-6 {
        fill: #fff;
      }

      .cls-7 {
        fill: #115a9f;
      }

      .cls-8 {
        fill: #625f60;
      }

      .cls-9 {
        fill: #db4c75;
      }

      .cls-10 {
        fill: #d00e4a;
      }

      .cls-11 {
        fill: #4780b4;
      }

      .cls-12 {
        fill: #d00e4d;
      }

      .cls-13 {
        fill: #d00e4c;
      }

      .cls-14 {
        fill: #d22e1f;
      }

      .cls-15 {
        fill: #efc89b;
      }

      .cls-16 {
        fill: #b1aeaf;
      }

      .cls-17 {
        fill: #636061;
      }

      .cls-18 {
        fill: #9d9a9c;
      }

      .cls-19 {
        fill: #d20f48;
      }

      .cls-20 {
        fill: #1d458c;
      }

      .cls-21 {
        fill: #e1222c;
      }

      .cls-22 {
        fill: #828384;
      }

      .cls-23 {
        fill: #1b4180;
      }
    </style>
  </defs>
  <g id="Capa_1-2" data-name="Capa_1">
    <g>
      <g>
        <path class="cls-8" d="M118.7,186.83h1.14v8.37h-1.14v-8.37Z"/>
        <path class="cls-8" d="M124.23,190.64c-.25.09-.46.21-.62.38s-.29.37-.38.63-.13.51-.13.76.04.5.13.76.21.46.38.63.37.29.62.38.5.13.75.13h4.61v.93h-4.61c-.51,0-.98-.13-1.41-.38-.43-.25-.77-.59-1.03-1.03-.25-.43-.38-.9-.38-1.41s.12-.98.38-1.41c.25-.43.6-.78,1.03-1.03.43-.25.9-.38,1.41-.38h4.61v.93h-4.61c-.25,0-.5.04-.75.13Z"/>
        <path class="cls-8" d="M135.72,189.56c.5-.02.94.02,1.32.14s.68.28.92.49.42.43.56.66.23.45.29.66.1.38.11.53.02.21.02.19v.33c0,.24-.06.52-.18.83s-.3.61-.55.89-.57.51-.97.69-.85.25-1.38.22h-1.05c-.52.03-.98-.05-1.38-.22s-.72-.4-.97-.69-.43-.58-.55-.89-.18-.59-.18-.83v-.33s0-.04.02-.19.05-.33.11-.53.16-.42.29-.66.32-.46.56-.66.55-.37.92-.49.81-.16,1.32-.14h.76ZM136.08,194.25c.7,0,1.19-.17,1.47-.51s.45-.7.49-1.09v-.16s.01-.26.01-.26v-.18c-.05-.37-.22-.72-.5-1.06s-.77-.51-1.48-.51h-1.49c-.7,0-1.2.17-1.48.51s-.44.7-.48,1.06l-.02.18v.25l.02.18c.04.39.2.75.49,1.09s.78.51,1.47.51h1.49Z"/>
        <path class="cls-8" d="M148.05,190.9c.25.44.38.92.38,1.44v2.87h-.94v-2.87c0-.26-.04-.52-.13-.77s-.21-.47-.38-.64c-.16-.17-.36-.3-.61-.39s-.49-.13-.74-.13h-1.78c-.48,0-1.1,0-1.86,0,0-.22,0-.01,0,.62s0,1.06,0,1.25v2.94h-.94v-5.74h4.58c.5,0,.97.13,1.4.38.43.26.77.61,1.03,1.05Z"/>
        <path class="cls-8" d="M154.57,189.56c.5-.02.94.02,1.32.14s.68.28.92.49.42.43.56.66.23.45.29.66.1.38.11.53.02.21.02.19v.33c0,.24-.06.52-.18.83s-.3.61-.55.89-.57.51-.97.69-.85.25-1.38.22h-1.05c-.52.03-.98-.05-1.38-.22s-.72-.4-.97-.69-.43-.58-.55-.89-.18-.59-.18-.83v-.33s0-.04.02-.19.05-.33.11-.53.16-.42.29-.66.32-.46.56-.66.55-.37.92-.49.81-.16,1.32-.14h.76ZM154.94,194.25c.7,0,1.19-.17,1.47-.51s.45-.7.49-1.09v-.16s.01-.26.01-.26v-.18c-.05-.37-.22-.72-.5-1.06s-.77-.51-1.48-.51h-1.49c-.7,0-1.2.17-1.48.51s-.44.7-.48,1.06l-.02.18v.25l.02.18c.04.39.2.75.49,1.09s.78.51,1.47.51h1.49Z"/>
        <path class="cls-8" d="M170,190.89c.23.4.35.9.35,1.49,0-.09,0-.07,0,.06h0v.66c0,.55-.11.98-.32,1.28s-.46.5-.76.61-.61.16-.93.17-.57.02-.73.02h-3.01c-.47,0-.87-.17-1.2-.52s-.5-.76-.5-1.24.17-.9.5-1.25c.33-.35.73-.52,1.2-.52h4.61c0-.07-.02-.13-.04-.19s-.04-.11-.05-.13c-.09-.18-.21-.34-.38-.48s-.34-.26-.54-.34c-.2-.08-.41-.12-.62-.12h-4.44v-.9c0-.08,0-.1,0-.08h4.44c.51,0,.99.13,1.43.4.21.12.39.27.55.45s.3.38.44.62ZM169.33,193.22c0-.08,0-.28-.01-.59h-4.83c-.17,0-.32.08-.45.23-.12.16-.18.34-.18.56s.06.4.18.56c.12.15.27.23.45.23h3.13c.36,0,.64,0,.85-.02s.38-.07.5-.16c.13-.09.22-.21.27-.34s.08-.29.09-.47Z"/>
        <path class="cls-8" d="M173.42,197.27h-.91c0,.05,0,0,0-.16v-5.33c0-.35.13-.69.4-1.02s.59-.6.98-.81.75-.31,1.08-.31h1.71c.53-.02.99.05,1.39.22s.72.39.97.67.44.57.56.88.18.58.18.82v.32s0,.04-.02.18-.05.32-.11.52-.16.42-.3.65-.33.45-.57.65-.55.36-.92.48-.82.16-1.32.14h-3.11v2.1ZM173.42,194.25h3.47c.57,0,1-.12,1.29-.35s.48-.47.57-.73.13-.46.13-.62v-.28c0-.19-.04-.42-.13-.68s-.28-.5-.57-.73-.72-.33-1.27-.33h-1.88c-.24,0-.49.07-.74.22s-.46.34-.62.56-.24.45-.24.66v2.26Z"/>
        <path class="cls-8" d="M182.83,197.27h-.91c0,.05,0,0,0-.16v-5.33c0-.35.13-.69.4-1.02s.59-.6.98-.81.75-.31,1.08-.31h1.71c.53-.02.99.05,1.39.22s.72.39.97.67.44.57.56.88.18.58.18.82v.32s0,.04-.02.18-.05.32-.11.52-.16.42-.3.65-.33.45-.57.65-.55.36-.92.48-.82.16-1.32.14h-3.11v2.1ZM182.83,194.25h3.47c.57,0,1-.12,1.29-.35s.48-.47.57-.73.13-.46.13-.62v-.28c0-.19-.04-.42-.13-.68s-.28-.5-.57-.73-.72-.33-1.27-.33h-1.88c-.24,0-.49.07-.74.22s-.46.34-.62.56-.24.45-.24.66v2.26Z"/>
      </g>
      <g>
        <g>
          <path class="cls-4" d="M122.9,21.38h-.28s0,0,0-.05v-1.65c0-.11.04-.21.12-.32.08-.1.18-.19.3-.25.12-.07.23-.1.33-.1h.53c.16,0,.31.02.43.07.12.05.22.12.3.21.08.09.14.18.17.27.04.09.06.18.06.25v.1s0,.01,0,.06c0,.04-.02.1-.04.16-.02.06-.05.13-.09.2-.04.07-.1.14-.17.2-.08.06-.17.11-.29.15-.12.04-.25.05-.41.04h-.96v.65ZM122.9,20.44h1.08c.17,0,.31-.04.4-.11.09-.07.15-.15.17-.22.03-.08.04-.14.04-.19v-.09c0-.06-.01-.13-.04-.21-.03-.08-.09-.16-.18-.23s-.22-.1-.39-.1h-.58c-.08,0-.15.02-.23.07-.08.05-.14.1-.19.17s-.07.14-.07.2v.7Z"/>
          <path class="cls-4" d="M127.31,19.25h-.99s-.11,0-.17,0c-.06,0-.12,0-.17.02-.05.02-.1.04-.14.08-.04.04-.07.08-.08.14s-.03.1-.03.14c0,.04,0,.11,0,.21v.87s0,.02-.02.02h-.25s-.02,0-.02-.02v-.89s0-.1,0-.19c0-.09.02-.18.05-.27.04-.09.1-.17.19-.24.06-.04.12-.08.18-.1.07-.02.13-.04.19-.05s.12-.01.17-.01h1.1v.29Z"/>
          <path class="cls-4" d="M129.12,18.99c.16,0,.29,0,.41.04.12.04.21.09.28.15.07.06.13.13.17.21.04.07.07.14.09.2s.03.12.04.16,0,.07,0,.06v.1c0,.08-.02.16-.06.26-.04.1-.09.19-.17.28-.08.09-.18.16-.3.21s-.26.08-.43.07h-.33c-.16,0-.3-.01-.43-.07s-.22-.12-.3-.21c-.08-.09-.13-.18-.17-.28-.04-.1-.05-.18-.05-.26v-.1s0-.01,0-.06.02-.1.04-.16.05-.13.09-.2c.04-.07.1-.14.17-.21.07-.06.17-.12.28-.15.11-.04.25-.05.41-.04h.24ZM129.23,20.45c.22,0,.37-.05.46-.16s.14-.22.15-.34v-.05s0-.08,0-.08v-.05c-.02-.11-.07-.22-.15-.33-.09-.11-.24-.16-.46-.16h-.46c-.22,0-.37.05-.46.16-.09.11-.14.22-.15.33v.05s0,.08,0,.08v.05c.02.12.07.23.16.34.09.1.24.16.46.16h.46Z"/>
          <path class="cls-4" d="M132.69,18.35h.28s0,0,0,.05v1.68c0,.12-.01.22-.04.3-.02.08-.07.15-.12.2-.06.05-.13.09-.22.11-.09.02-.21.04-.35.04h-.57c-.16,0-.31-.01-.43-.07-.12-.05-.23-.12-.3-.21-.08-.09-.14-.18-.17-.27-.04-.1-.06-.18-.06-.26v-.1s0-.01,0-.06c0-.05.02-.1.04-.16.02-.06.05-.13.09-.2s.1-.14.17-.2c.08-.06.17-.11.29-.15.12-.04.25-.05.41-.04h.97v-.66ZM132.69,19.29h-1.08c-.18,0-.31.04-.4.11s-.15.15-.18.23c-.03.08-.04.14-.04.19v.08c0,.06.01.13.04.21.03.08.09.16.18.23.09.07.22.1.4.1h.75c.09,0,.15-.02.2-.06.05-.04.08-.09.1-.15.02-.07.03-.15.03-.24v-.71Z"/>
          <path class="cls-4" d="M135.17,20.4c.08-.03.14-.07.19-.12s.09-.12.12-.2.04-.16.04-.24v-.9h.29v.9c0,.16-.04.31-.12.45-.08.14-.19.25-.32.33-.13.08-.28.12-.44.12h-.56c-.16,0-.3-.04-.44-.12-.13-.08-.24-.19-.32-.33-.08-.14-.12-.29-.12-.45v-.9h.29s0,0,0,.02v.87c0,.08.01.16.04.24.03.08.07.15.12.2s.11.09.19.12c.08.03.15.04.23.04h.56c.08,0,.15-.01.23-.04Z"/>
          <path class="cls-4" d="M136.95,19.32c-.08.03-.14.07-.19.12s-.09.12-.12.19c-.03.08-.04.16-.04.23s.01.16.04.23c.03.08.07.14.12.19s.12.09.19.12.16.04.23.04h1.43v.29h-1.43c-.16,0-.3-.04-.44-.12-.13-.08-.24-.18-.32-.32-.08-.13-.12-.28-.12-.44s.04-.3.12-.44c.08-.13.18-.24.32-.32.13-.08.28-.12.44-.12h1.43v.29h-1.43c-.08,0-.16.01-.23.04Z"/>
          <path class="cls-4" d="M140.64,20.45v.29h-.54c-.15,0-.3-.04-.43-.11-.13-.08-.24-.18-.32-.31-.08-.13-.12-.27-.12-.43v-1.55h.29s0,0,0,.02v.64h.67s0,0,0,.02v.26s0,0-.03,0h-.65v.62c0,.13.03.23.1.32s.13.15.21.19c.04.02.09.04.16.05.07,0,.13,0,.18,0h.48Z"/>
          <path class="cls-4" d="M142.5,18.99c.16,0,.29,0,.41.04s.21.09.28.15c.07.06.13.13.17.21.04.07.07.14.09.2.02.06.03.12.04.16s0,.07,0,.06v.1c0,.08-.02.16-.06.26-.04.1-.09.19-.17.28-.08.09-.18.16-.3.21s-.26.08-.43.07h-.33c-.16,0-.3-.01-.43-.07-.12-.05-.22-.12-.3-.21-.08-.09-.13-.18-.17-.28-.04-.1-.06-.18-.06-.26v-.1s0-.01,0-.06.02-.1.04-.16.05-.13.09-.2c.04-.07.1-.14.17-.21.08-.06.17-.12.28-.15.12-.04.25-.05.41-.04h.24ZM142.61,20.45c.22,0,.37-.05.46-.16.09-.1.14-.22.15-.34v-.05s0-.08,0-.08v-.05c-.02-.11-.07-.22-.15-.33-.09-.11-.24-.16-.46-.16h-.46c-.22,0-.37.05-.46.16-.09.11-.14.22-.15.33v.05s0,.08,0,.08v.05c.02.12.07.23.16.34.09.1.24.16.46.16h.46Z"/>
          <path class="cls-4" d="M145.93,19.74c.12,0,.22.05.31.12s.13.21.13.41c0,.11-.03.2-.08.27-.05.07-.12.12-.2.16-.08.03-.16.05-.24.05h-1.78v-.29s1.77,0,1.77,0c.06,0,.12-.01.17-.04.05-.03.08-.09.08-.19,0-.06-.02-.11-.05-.14-.04-.03-.08-.04-.12-.05s-.07,0-.08,0h-1.29c-.07,0-.14-.02-.22-.06-.08-.04-.14-.09-.2-.18-.06-.08-.08-.19-.08-.32,0-.11.03-.21.09-.28.06-.07.13-.13.21-.16.08-.04.16-.05.23-.06h1.61v.29h-1.59c-.07,0-.13.01-.18.04-.06.03-.08.1-.08.21,0,.09.03.15.08.18.05.03.1.04.15.04h1.38Z"/>
          <path class="cls-4" d="M150.02,18.98v1.52c-.01.17-.05.33-.13.45-.09.16-.2.27-.32.34-.12.07-.27.11-.45.11h-1.24s-.02,0-.02-.02v-.25s0-.02.02-.02h1.24c.06,0,.12,0,.17-.01.05,0,.09-.03.13-.05.05-.04.1-.07.13-.1s.06-.06.08-.11l.04-.09h-1.13c-.13,0-.25-.02-.36-.08-.11-.05-.19-.11-.26-.18-.07-.07-.12-.15-.18-.26-.05-.11-.08-.22-.08-.33v-.92s0-.02,0-.02h.3s0,0,0,.02v.94c0,.06.01.12.04.18s.04.11.07.13c.01.01.04.04.07.07.03.03.08.07.14.09.06.03.13.05.22.06h1.24s0-1.47,0-1.47c0-.02,0-.02.02-.02h.25s.02,0,.02.02Z"/>
          <path class="cls-4" d="M153.24,19.74c.12,0,.22.05.31.12.09.07.13.21.13.41,0,.11-.03.2-.08.27-.05.07-.12.12-.2.16-.08.03-.16.05-.24.05h-1.78v-.29s1.77,0,1.77,0c.06,0,.12-.01.17-.04.05-.03.08-.09.08-.19,0-.06-.02-.11-.05-.14-.04-.03-.08-.04-.12-.05s-.07,0-.08,0h-1.29c-.07,0-.14-.02-.22-.06-.08-.04-.14-.09-.2-.18-.06-.08-.08-.19-.08-.32,0-.11.03-.21.09-.28.06-.07.13-.13.21-.16.08-.04.16-.05.23-.06h1.61v.29h-1.59c-.07,0-.13.01-.18.04-.06.03-.08.1-.08.21,0,.09.03.15.08.18.05.03.1.04.15.04h1.38Z"/>
          <path class="cls-4" d="M156.23,19.09c.08.07.14.14.17.23.03.08.04.16.04.22,0,.31-.17.48-.52.49h-1.38s0,.07,0,.07c0,.08,0,.14.02.19s.04.08.07.1c.03.02.08.04.14.04.06,0,.14.01.24.01h1.29s.06.02.06.05v.17s-.02.06-.06.06h-1.33c-.19,0-.33-.02-.44-.06-.11-.04-.18-.11-.23-.2s-.07-.21-.07-.37v-.44c0-.1.04-.21.12-.31.08-.1.18-.19.3-.26.12-.07.25-.1.38-.1h.84c.15,0,.27.03.36.1ZM156.03,19.72s.05-.03.08-.06c.02-.02.03-.04.04-.07s.01-.06.01-.11c0-.02,0-.05-.02-.08-.01-.03-.03-.06-.07-.09-.03-.03-.08-.04-.13-.04h-.92c-.07,0-.14.02-.21.06s-.14.1-.19.17-.08.15-.08.23h1.37c.06,0,.1,0,.12-.01Z"/>
          <path class="cls-4" d="M158.95,19.25h-.99s-.11,0-.17,0c-.06,0-.12,0-.17.02-.05.02-.1.04-.14.08-.04.04-.07.08-.08.14-.02.05-.03.1-.03.14,0,.04,0,.11,0,.21v.87s0,.02-.02.02h-.25s-.02,0-.02-.02v-.89s0-.1,0-.19c0-.09.02-.18.05-.27.03-.09.1-.17.19-.24.06-.04.12-.08.18-.1.07-.02.13-.04.19-.05.06,0,.12-.01.17-.01h1.1v.29Z"/>
          <path class="cls-4" d="M159.65,18.95l1.03,1.55h.03l1.03-1.55h.35l-1.04,1.55c-.08.13-.14.21-.16.24h-.41c-.05-.07-.1-.15-.16-.24l-1.03-1.55h.35Z"/>
          <path class="cls-4" d="M162.79,18.14v.31h-.31v-.31h.31ZM162.79,18.86v1.88h-.31v-1.88h.31Z"/>
          <path class="cls-4" d="M164.03,19.32c-.08.03-.14.07-.19.12s-.09.12-.12.19c-.03.08-.04.16-.04.23s.01.16.04.23c.03.08.07.14.12.19s.12.09.19.12.16.04.23.04h1.43v.29h-1.43c-.16,0-.3-.04-.44-.12-.13-.08-.24-.18-.32-.32-.08-.13-.12-.28-.12-.44s.04-.3.12-.44c.08-.13.18-.24.32-.32.13-.08.28-.12.44-.12h1.43v.29h-1.43c-.08,0-.16.01-.23.04Z"/>
          <path class="cls-4" d="M166.62,18.14v.31h-.31v-.31h.31ZM166.62,18.86v1.88h-.31v-1.88h.31Z"/>
          <path class="cls-4" d="M168.49,18.99c.16,0,.29,0,.41.04s.21.09.28.15c.07.06.13.13.17.21.04.07.07.14.09.2.02.06.03.12.04.16s0,.07,0,.06v.1c0,.08-.02.16-.05.26-.04.1-.09.19-.17.28-.08.09-.18.16-.3.21s-.26.08-.43.07h-.33c-.16,0-.3-.01-.43-.07-.12-.05-.22-.12-.3-.21-.08-.09-.13-.18-.17-.28-.04-.1-.06-.18-.06-.26v-.1s0-.01,0-.06.02-.1.04-.16.05-.13.09-.2c.04-.07.1-.14.17-.21.08-.06.17-.12.28-.15.12-.04.25-.05.41-.04h.24ZM168.61,20.45c.22,0,.37-.05.46-.16.09-.1.14-.22.15-.34v-.05s0-.08,0-.08v-.05c-.02-.11-.07-.22-.15-.33-.09-.11-.24-.16-.46-.16h-.46c-.22,0-.37.05-.46.16-.09.11-.14.22-.15.33v.05s0,.08,0,.08v.05c.02.12.07.23.16.34.09.1.24.16.46.16h.46Z"/>
          <path class="cls-4" d="M171.92,19.74c.12,0,.22.05.31.12.09.07.13.21.13.41,0,.11-.03.2-.08.27-.05.07-.12.12-.2.16-.08.03-.16.05-.24.05h-1.78v-.29s1.77,0,1.77,0c.06,0,.12-.01.17-.04.05-.03.08-.09.08-.19,0-.06-.02-.11-.05-.14-.04-.03-.08-.04-.12-.05s-.07,0-.08,0h-1.29c-.07,0-.14-.02-.22-.06-.08-.04-.14-.09-.2-.18-.06-.08-.08-.19-.08-.32,0-.11.03-.21.09-.28.06-.07.13-.13.21-.16.08-.04.16-.05.23-.06h1.61v.29h-1.59c-.07,0-.13.01-.18.04-.06.03-.08.1-.08.21,0,.09.03.15.08.18.05.03.1.04.15.04h1.38Z"/>
        </g>
        <rect class="cls-1" x="184.39" y="18.11" width="4.16" height="1.32"/>
        <rect class="cls-23" x="184.39" y="19.43" width="4.16" height=".66"/>
        <rect class="cls-2" x="184.39" y="20.09" width="4.16" height=".66"/>
        <rect class="cls-21" x="179.3" y="18.11" width="1.39" height="2.63"/>
        <rect class="cls-21" x="182.07" y="18.11" width="1.39" height="2.63"/>
        <rect class="cls-6" x="180.69" y="18.11" width="1.39" height="2.63"/>
        <polyline class="cls-14" points="178.37 20.75 174.21 20.75 174.21 19.43 178.37 19.43"/>
        <rect class="cls-20" x="174.21" y="18.11" width="1.39" height="1.32"/>
        <rect class="cls-6" x="175.6" y="18.11" width="2.77" height="1.32"/>
        <polygon class="cls-6" points="174.82 18.67 174.57 18.67 174.77 18.81 174.7 19.04 174.9 18.9 175.11 19.04 175.03 18.81 175.23 18.67 174.98 18.67 174.9 18.44 174.82 18.67"/>
        <path class="cls-6" d="M14.84.27L.55,4.78l14.33,11.12,14.04-10.84L14.84.27ZM20.37,10.39l-3.12,2.39-2.66-1.71,2.04-1.67c.37-.33.47-.56.47-.56v-3.18c.03-.54-.73-.85-.73-.85-.94-.45-2.38-.43-2.38-.43-1.33-.02-3.8.92-3.8.92v2.95l-3.69-2.37c2.35-.95,3.42-1.2,3.42-1.2,2.33-.65,3.96-.69,3.96-.69,2.61-.14,4.69.58,4.69.58,2.08.57,2.94,1.3,2.94,1.3,1.72,1.29,1.33,2.61,1.33,2.61-.27.24-2.47,1.91-2.47,1.91"/>
        <polygon class="cls-13" points=".02 8.24 .02 4.69 14.92 16.03 29.45 4.96 29.45 8.22 14.87 21.46 .02 8.24"/>
        <path class="cls-13" d="M6.42,5.91l-2.39-1.48s3.15-1.23,5.77-1.73,3.58-.53,5.07-.47,4.37.63,6.26,1.55c1.89.93,2.29,1.89,2.4,2.42.12.53.09,1.75-.34,2.13l-.42.38s.31-.69-.13-1.56c-.44-.87-1.39-1.7-3.12-2.29-1.73-.59-3.27-.92-5.14-.89-1.87.03-3.56.44-4.87.82-1.3.38-3.09,1.11-3.09,1.11"/>
        <path class="cls-13" d="M10.2,5.37v2.94l4.29,2.83s.94-.73,1.6-1.28c.66-.54.94-.87,1.01-1.03v-3.24s.08.51-1.06,1.15c-1.13.64-1.49.85-1.49.85l-4.35-2.21Z"/>
        <path class="cls-13" d="M14.88,16.23L0,4.68,14.85,0h.04s14.57,4.97,14.57,4.97l-14.57,11.26ZM.55,4.78l14.34,11.12,14.04-10.84L14.84.27.55,4.78Z"/>
        <path class="cls-13" d="M17.27,13.09l-.08-.05L3.75,4.39l.23-.09s3.19-1.24,5.8-1.74c1.92-.37,3-.49,4.14-.49.27,0,.57,0,.95.02,1.62.06,4.5.68,6.31,1.57,1.43.7,2.26,1.54,2.47,2.51.12.56.1,1.82-.38,2.25l-.43.38-5.59,4.29ZM4.32,4.45l12.94,8.32,5.44-4.17.42-.38c.38-.34.41-1.51.3-2-.2-.89-.98-1.67-2.33-2.33-1.78-.87-4.61-1.48-6.2-1.54-.38-.01-.68-.02-.95-.02-.97,0-1.94.08-4.1.49-2.17.41-4.73,1.34-5.51,1.63"/>
        <path class="cls-13" d="M14.47,7.64l-4.29-2.19.04-.07-.03-.08c.1-.04,2.43-.93,3.82-.93h.03c1.46.01,2.38.36,2.77.69.36.3.41.63.16,1.02-.18.28-.7.67-1.43,1.05-.71.38-1.02.5-1.03.51h-.03ZM10.32,5.39l4.15,2.12c.09-.04.4-.18.99-.49.7-.37,1.21-.74,1.38-1,.21-.33.17-.6-.13-.85-.37-.31-1.27-.65-2.69-.66h-.03c-1.21,0-3.21.72-3.68.89"/>
        <path class="cls-13" d="M40.5,6.74c.14.02.36.08.68.19.31.11.68.32,1.09.63.41.31.77.78,1.08,1.4.31.62.46,1.41.46,2.36s-.18,1.67-.54,2.27c-.36.61-.79,1.06-1.29,1.35-.5.29-.97.47-1.42.53h-7.62V6.73h7.57ZM40.44,14.29c.23-.04.52-.14.84-.3.32-.16.63-.46.92-.9.29-.43.43-1.03.43-1.78,0-.88-.15-1.57-.45-2.07-.3-.5-.62-.84-.95-1.01-.33-.18-.61-.28-.84-.32h-6.28v6.38h6.33Z"/>
        <rect class="cls-13" x="44.63" y="6.75" width="1.19" height="8.7"/>
        <path class="cls-13" d="M52.3,9.12c.77-.01,1.46-.13,2.06-.34.61-.22,1.08-.43,1.4-.65.33-.22.55-.38.66-.49l.96-.91v8.75h-1.14v-6.32c-.5.3-1.08.55-1.75.76-.66.21-1.39.32-2.18.33-.83,0-1.61-.1-2.33-.32-.72-.22-1.36-.49-1.92-.82v6.36h-1.14V6.73l1,.86c.14.13.39.3.75.53.36.23.86.45,1.51.68.64.23,1.35.33,2.11.32"/>
        <rect class="cls-12" x="59.08" y="10.44" width="2.29" height="1.16"/>
        <g>
          <path class="cls-22" d="M70.35,6.69c.51,0,.96.09,1.36.28.39.19.7.46.93.83.22.37.34.81.34,1.32s-.07.96-.21,1.3c-.06.15-.16.3-.28.47-.06.07-.09.12-.11.14l.18.23c.27.39.43.83.47,1.32.04.49-.03.96-.21,1.41-.13.31-.3.58-.51.8-.21.22-.45.39-.72.51-.27.12-.55.18-.86.18h-7.84V6.69h7.47ZM64.06,7.87v2.47h6.73c.13,0,.26-.03.37-.09.12-.06.22-.15.3-.26.09-.13.15-.25.19-.36.04-.11.06-.25.06-.42,0-.15,0-.28-.02-.39s-.04-.22-.09-.33c-.08-.2-.19-.35-.34-.46-.15-.11-.31-.16-.5-.16h-6.71ZM70.84,14.29c.25,0,.46-.13.62-.4.16-.27.25-.61.25-1.02,0-.26-.03-.5-.1-.73-.16-.47-.41-.71-.76-.71h-6.79v2.85h6.79Z"/>
          <path class="cls-22" d="M79.25,14.34c.26-.09.47-.23.64-.41.17-.17.3-.4.4-.67s.14-.54.14-.81v-3.03h.99v3.03c0,.55-.13,1.05-.39,1.52-.27.46-.63.83-1.08,1.1-.45.27-.94.41-1.47.41h-1.88c-.54,0-1.03-.13-1.48-.41-.45-.27-.81-.64-1.07-1.1-.27-.47-.4-.97-.4-1.52v-3.03h.99s0,0,0,.08v2.95c0,.27.05.54.14.81.09.27.23.49.4.67.17.18.39.32.65.41s.52.14.78.14h1.88c.26,0,.52-.05.78-.14Z"/>
          <path class="cls-22" d="M88.57,10.46h-3.35c-.17,0-.36,0-.57,0-.21,0-.41.03-.58.08-.18.05-.34.15-.48.28-.13.13-.23.29-.29.47-.05.18-.09.34-.09.47s0,.37,0,.71v2.92c0,.05-.02.08-.07.08h-.83s-.07-.03-.07-.08v-3.01c0-.12,0-.34,0-.64,0-.3.06-.61.18-.92.12-.31.33-.58.63-.82.19-.15.4-.26.62-.34.22-.08.43-.13.64-.16.2-.03.39-.04.56-.04h3.7v.99Z"/>
          <path class="cls-22" d="M93.59,9.57c.53-.02.99.02,1.38.15.39.12.71.29.96.51.25.22.44.45.59.69.14.25.24.48.31.69.06.21.1.4.12.55s.02.22.02.2v.35c0,.25-.06.54-.19.87-.12.33-.32.64-.58.93-.26.3-.6.54-1.01.72-.41.18-.89.26-1.44.23h-1.1c-.55.03-1.03-.05-1.44-.23s-.75-.42-1.01-.72c-.26-.3-.46-.61-.58-.93-.12-.32-.19-.61-.19-.87v-.35s0-.04.02-.2.06-.34.12-.55c.06-.21.17-.44.31-.69.14-.25.34-.48.59-.69.25-.22.57-.39.96-.51.39-.12.85-.17,1.38-.15h.8ZM93.97,14.48c.73,0,1.25-.18,1.54-.53.3-.35.47-.73.51-1.14v-.17s.01-.28.01-.28v-.18c-.06-.38-.23-.75-.52-1.11-.29-.36-.81-.54-1.54-.54h-1.56c-.74,0-1.25.18-1.54.54-.29.36-.46.73-.5,1.11l-.02.18v.26l.02.18c.04.4.21.78.51,1.14.3.35.81.53,1.54.53h1.56ZM93.93,7.37h1.2s-.75.77-.75.77l-.79.75h-.74l1.08-1.53Z"/>
          <path class="cls-22" d="M104.07,12.08c.4.02.74.15,1.04.39.3.24.45.7.45,1.38,0,.36-.09.67-.27.91s-.41.42-.68.54-.54.18-.8.18h-6v-.98s5.97,0,5.97,0c.21,0,.4-.05.57-.14.17-.09.25-.31.25-.65,0-.21-.06-.37-.18-.46-.12-.09-.26-.15-.41-.17-.16-.02-.25-.02-.29-.02h-4.35c-.23,0-.48-.07-.74-.19-.26-.12-.48-.32-.67-.6-.19-.28-.28-.63-.28-1.07,0-.38.1-.7.3-.95.2-.25.43-.44.71-.55.27-.12.54-.18.78-.2h5.42v.98h-5.36c-.22,0-.43.05-.62.14-.19.1-.29.33-.29.71,0,.3.09.5.26.59.18.09.35.14.51.15h4.66Z"/>
          <path class="cls-22" d="M106.58,6.71h1.2v8.75h-1.2V6.71Z"/>
          <path class="cls-22" d="M116.14,10.97c.26.46.39.96.39,1.51v3h-.99v-3c0-.27-.05-.54-.14-.81s-.22-.49-.4-.67c-.17-.18-.38-.31-.64-.41-.26-.09-.51-.14-.77-.14h-1.86c-.5,0-1.15,0-1.95,0,0-.23,0-.02,0,.65,0,.67,0,1.1,0,1.31v3.07h-.99v-6.01h4.79c.52,0,1.01.13,1.46.4.45.27.81.64,1.07,1.1Z"/>
          <path class="cls-22" d="M119.64,10.79c-.22.12-.37.28-.46.47-.09.19-.14.37-.15.53-.01.17-.02.4-.02.69v.56h4.8v1h-4.8v4.04h-1.01v-4.3c0-.3,0-.7,0-1.2s0-.7,0-.61c0-.2,0-.38.02-.52.01-.14.06-.3.15-.49.09-.19.22-.37.42-.56.22-.22.44-.39.64-.5.21-.12.41-.19.61-.22.2-.03.43-.05.69-.05h3.95s0,.99,0,.99h-3.95c-.38,0-.67.06-.89.18Z"/>
          <path class="cls-22" d="M130.02,9.57c.53-.02.99.02,1.38.15.39.12.71.29.96.51.25.22.44.45.58.69.14.25.24.48.31.69.06.21.1.4.12.55.02.16.02.22.02.2v.35c0,.25-.06.54-.19.87-.12.33-.32.64-.58.93-.26.3-.6.54-1.01.72s-.89.26-1.44.23h-1.1c-.55.03-1.03-.05-1.44-.23s-.75-.42-1.01-.72c-.26-.3-.45-.61-.58-.93-.12-.32-.19-.61-.19-.87v-.35s0-.04.02-.2c.02-.16.06-.34.12-.55.06-.21.17-.44.31-.69s.34-.48.59-.69c.25-.22.57-.39.96-.51.39-.12.85-.17,1.38-.15h.8ZM130.4,14.48c.73,0,1.25-.18,1.54-.53.3-.35.47-.73.51-1.14v-.17s.01-.28.01-.28v-.18c-.06-.38-.23-.75-.52-1.11s-.81-.54-1.54-.54h-1.56c-.74,0-1.25.18-1.54.54s-.46.73-.5,1.11l-.02.18v.26l.02.18c.04.4.21.78.51,1.14.3.35.81.53,1.54.53h1.56Z"/>
          <path class="cls-22" d="M140.7,10.46h-3.35c-.17,0-.36,0-.57,0-.21,0-.41.03-.58.08s-.34.15-.48.28c-.13.13-.23.29-.29.47-.05.18-.09.34-.09.47s0,.37,0,.71v2.92c0,.05-.02.08-.07.08h-.83s-.07-.03-.07-.08v-3.01c0-.12,0-.34,0-.64s.06-.61.18-.92.33-.58.63-.82c.19-.15.4-.26.62-.34.22-.08.44-.13.64-.16.2-.03.39-.04.56-.04h3.7v.99Z"/>
          <path class="cls-22" d="M152.85,11.22c.11.22.18.43.23.62s.07.42.08.7v2.92h-.96v-3.02c0-.17-.03-.33-.08-.48-.05-.16-.11-.29-.17-.4s-.16-.25-.28-.39c-.13-.15-.29-.27-.48-.36-.19-.09-.37-.15-.56-.18-.18-.03-.41-.05-.7-.06h-2.15c0,.64,0,1.28,0,1.92v2.97h-.96v-3c0-.18-.02-.35-.07-.5-.05-.16-.1-.29-.15-.39-.06-.11-.14-.22-.25-.35-.15-.16-.32-.29-.52-.39-.19-.09-.38-.16-.55-.19-.18-.03-.4-.05-.66-.06-1.1,0-1.83,0-2.2,0,0,.38,0,1.6,0,3.67v1.22h-.96v-5.84h8.48c.3-.02.58,0,.84.06.26.05.49.13.68.22s.36.19.49.29c.13.1.27.23.43.39.18.2.33.42.44.64Z"/>
          <path class="cls-22" d="M161.24,10.95c.24.42.36.94.36,1.56,0-.1,0-.08,0,.06h0v.69c0,.58-.12,1.03-.33,1.34-.22.31-.48.53-.79.63s-.63.17-.97.17c-.34,0-.6.02-.76.02h-3.15c-.49,0-.91-.18-1.26-.54-.35-.36-.52-.79-.52-1.3s.17-.95.52-1.31c.35-.36.77-.55,1.26-.55h4.83c0-.07-.02-.14-.04-.2s-.04-.11-.05-.13c-.09-.18-.22-.35-.39-.5s-.36-.27-.56-.36c-.21-.08-.42-.12-.65-.12h-4.64v-.94c0-.08,0-.11,0-.08h4.64c.54,0,1.03.14,1.5.42.22.13.41.29.57.47.16.18.31.4.46.65ZM160.54,13.4c0-.09,0-.29-.01-.62h-5.06c-.18,0-.33.08-.47.24-.13.16-.19.36-.19.58s.06.42.19.58c.13.16.29.24.47.24h3.28c.37,0,.67,0,.89-.02s.39-.07.52-.16c.14-.1.23-.22.28-.35.05-.14.08-.3.1-.49Z"/>
          <path class="cls-22" d="M164.4,10.69c-.26.09-.48.22-.65.4-.17.17-.3.39-.4.66-.09.27-.14.53-.14.79s.05.53.14.79.22.48.4.66c.17.17.39.3.65.4s.53.14.79.14h4.82v.97h-4.82c-.53,0-1.02-.13-1.48-.4-.45-.26-.81-.62-1.07-1.07-.26-.45-.39-.94-.39-1.48s.13-1.03.39-1.48c.27-.45.62-.81,1.07-1.07.45-.27.95-.4,1.48-.4h4.82v.97h-4.82c-.26,0-.52.05-.79.14Z"/>
          <path class="cls-22" d="M172.05,6.69v1.04h-1.04v-1.04h1.04ZM172.05,9.11v6.35h-1.04v-6.35h1.04Z"/>
          <path class="cls-22" d="M177.31,9.57c.53-.02.99.02,1.38.15.39.12.71.29.96.51.25.22.44.45.58.69.14.25.24.48.31.69.06.21.1.4.12.55.02.16.02.22.02.2v.35c0,.25-.06.54-.19.87-.12.33-.32.64-.58.93-.26.3-.6.54-1.01.72s-.89.26-1.44.23h-1.1c-.55.03-1.03-.05-1.44-.23-.41-.18-.75-.42-1.01-.72-.26-.3-.45-.61-.58-.93-.12-.32-.19-.61-.19-.87v-.35s0-.04.02-.2.06-.34.12-.55c.06-.21.17-.44.31-.69.14-.25.34-.48.59-.69.25-.22.57-.39.96-.51.39-.12.85-.17,1.38-.15h.8ZM177.69,14.48c.73,0,1.25-.18,1.54-.53.3-.35.47-.73.51-1.14v-.17s.01-.28.01-.28v-.18c-.06-.38-.23-.75-.52-1.11-.29-.36-.81-.54-1.54-.54h-1.56c-.74,0-1.25.18-1.54.54-.29.36-.46.73-.5,1.11l-.02.18v.26l.02.18c.04.4.21.78.51,1.14.3.35.81.53,1.54.53h1.56ZM177.64,7.37h1.2s-.75.77-.75.77l-.78.75h-.74l1.08-1.53Z"/>
          <path class="cls-22" d="M188.79,10.97c.26.46.39.96.39,1.51v3h-.99v-3c0-.27-.05-.54-.14-.81s-.22-.49-.4-.67c-.17-.18-.38-.31-.64-.41-.26-.09-.51-.14-.77-.14h-1.86c-.5,0-1.15,0-1.95,0,0-.23,0-.02,0,.65,0,.67,0,1.1,0,1.31v3.07h-.99v-6.01h4.79c.52,0,1.01.13,1.46.4.45.27.81.64,1.07,1.1Z"/>
        </g>
      </g>
      <g>
        <path class="cls-13" d="M40.5,25.64c.14.02.36.08.68.19.31.11.68.32,1.09.63.41.31.77.78,1.08,1.4.31.62.46,1.41.46,2.36s-.18,1.67-.54,2.27c-.36.6-.79,1.06-1.29,1.35-.5.29-.97.47-1.42.53h-7.62v-8.73h7.57ZM40.44,33.19c.23-.04.52-.14.84-.3.32-.16.63-.46.92-.9.29-.43.43-1.03.43-1.78,0-.88-.15-1.57-.45-2.07-.3-.5-.62-.84-.95-1.01-.33-.18-.61-.28-.84-.32h-6.28v6.38h6.33Z"/>
        <rect class="cls-13" x="44.63" y="25.65" width="1.19" height="8.7"/>
        <path class="cls-13" d="M52.3,28.02c.77-.01,1.46-.13,2.06-.34.61-.22,1.08-.43,1.4-.65.33-.22.55-.38.66-.49l.96-.91v8.75h-1.14v-6.32c-.5.3-1.08.55-1.75.76-.66.21-1.39.32-2.18.33-.83,0-1.61-.1-2.33-.32-.72-.22-1.36-.49-1.92-.82v6.36h-1.14v-8.75l1,.87c.14.13.39.3.75.53.36.23.86.45,1.51.68.64.23,1.35.33,2.11.32"/>
        <rect class="cls-12" x="59.08" y="29.34" width="2.29" height="1.16"/>
        <g>
          <path class="cls-22" d="M70.35,25.58c.51,0,.96.09,1.36.28.39.19.7.46.93.83.22.37.34.81.34,1.32s-.07.96-.21,1.3c-.06.15-.16.3-.28.47-.06.07-.09.12-.11.14l.18.23c.27.39.43.83.47,1.32.04.49-.03.96-.21,1.41-.13.31-.3.58-.51.8-.21.22-.45.39-.72.51-.27.12-.55.18-.86.18h-7.84v-8.79h7.47ZM64.06,26.77v2.47h6.73c.13,0,.26-.03.37-.09.12-.06.22-.15.3-.26.09-.13.15-.25.19-.36.04-.11.06-.25.06-.42,0-.15,0-.28-.02-.39s-.04-.22-.09-.33c-.08-.2-.19-.35-.34-.46s-.31-.16-.5-.16h-6.71ZM70.84,33.19c.25,0,.46-.13.62-.4.16-.27.25-.61.25-1.02,0-.26-.03-.5-.1-.73-.16-.47-.41-.71-.76-.71h-6.79v2.85h6.79Z"/>
          <path class="cls-22" d="M79.25,33.24c.26-.09.47-.23.64-.41.17-.17.3-.4.4-.67s.14-.54.14-.81v-3.03h.99v3.03c0,.55-.13,1.05-.39,1.52-.27.46-.63.83-1.08,1.1-.45.27-.94.41-1.47.41h-1.88c-.54,0-1.03-.13-1.48-.41-.45-.27-.81-.64-1.07-1.1-.27-.47-.4-.97-.4-1.52v-3.03h.99s0,0,0,.08v2.95c0,.27.05.54.14.81.09.27.23.49.4.67.17.18.39.32.65.41s.52.14.78.14h1.88c.26,0,.52-.05.78-.14Z"/>
          <path class="cls-22" d="M88.57,29.36h-3.35c-.17,0-.36,0-.57,0-.21,0-.41.03-.58.08-.18.05-.34.15-.48.28-.13.13-.23.29-.29.47-.05.18-.09.34-.09.47s0,.37,0,.71v2.92c0,.05-.02.08-.07.08h-.83s-.07-.03-.07-.08v-3.01c0-.12,0-.34,0-.64,0-.3.06-.61.18-.92.12-.31.33-.58.63-.82.19-.15.4-.26.62-.34.22-.08.43-.13.64-.16.2-.03.39-.04.56-.04h3.7v.99Z"/>
          <path class="cls-22" d="M93.59,28.47c.53-.02.99.02,1.38.15.39.12.71.29.96.51.25.22.44.45.59.69.14.25.24.48.31.69.06.21.1.4.12.55s.02.22.02.2v.35c0,.25-.06.54-.19.87-.12.33-.32.64-.58.93-.26.3-.6.54-1.01.72-.41.18-.89.26-1.44.23h-1.1c-.55.03-1.03-.05-1.44-.23s-.75-.42-1.01-.72c-.26-.3-.46-.61-.58-.93-.12-.32-.19-.61-.19-.87v-.35s0-.04.02-.2c.02-.16.06-.34.12-.55.06-.21.17-.44.31-.69.14-.25.34-.48.59-.69.25-.22.57-.39.96-.51.39-.12.85-.17,1.38-.15h.8ZM93.97,33.38c.73,0,1.25-.18,1.54-.53.3-.35.47-.73.51-1.14v-.17s.01-.28.01-.28v-.18c-.06-.38-.23-.75-.52-1.11-.29-.36-.81-.54-1.54-.54h-1.56c-.74,0-1.25.18-1.54.54-.29.36-.46.73-.5,1.11l-.02.18v.26l.02.18c.04.4.21.78.51,1.14.3.35.81.53,1.54.53h1.56ZM93.93,26.27h1.2s-.75.77-.75.77l-.79.75h-.74l1.08-1.53Z"/>
          <path class="cls-22" d="M104.07,30.98c.4.02.74.15,1.04.39.3.24.45.7.45,1.38,0,.36-.09.67-.27.91s-.41.42-.68.54-.54.18-.8.18h-6v-.98s5.97,0,5.97,0c.21,0,.4-.05.57-.14.17-.09.25-.31.25-.65,0-.21-.06-.37-.18-.46-.12-.09-.26-.15-.41-.17-.16-.02-.25-.02-.29-.02h-4.35c-.23,0-.48-.07-.74-.19-.26-.12-.48-.32-.67-.6-.19-.28-.28-.63-.28-1.07,0-.38.1-.7.3-.95.2-.25.43-.44.71-.55.27-.12.54-.18.79-.2h5.42v.98h-5.36c-.22,0-.43.05-.62.14-.19.1-.29.33-.29.71,0,.3.09.5.26.59.18.09.35.14.51.15h4.66Z"/>
          <path class="cls-22" d="M106.58,25.6h1.2v8.75h-1.2v-8.75Z"/>
          <path class="cls-22" d="M116.14,29.86c.26.46.39.96.39,1.51v3h-.99v-3c0-.27-.05-.54-.14-.81s-.22-.49-.4-.67c-.17-.18-.38-.31-.64-.41-.26-.09-.51-.14-.77-.14h-1.86c-.5,0-1.15,0-1.95,0,0-.23,0-.02,0,.65,0,.67,0,1.1,0,1.31v3.07h-.99v-6.01h4.79c.52,0,1.01.13,1.46.4.45.27.81.64,1.07,1.1Z"/>
          <path class="cls-22" d="M119.64,29.69c-.22.12-.37.28-.46.47-.09.19-.14.37-.15.53-.01.17-.02.4-.02.69v.56h4.8v1h-4.8v4.04h-1.01v-4.3c0-.3,0-.7,0-1.2s0-.7,0-.61c0-.2,0-.38.02-.52.01-.14.06-.3.15-.49.09-.19.22-.37.42-.56.22-.22.44-.39.64-.5.21-.12.41-.19.61-.22.2-.03.43-.05.69-.05h3.95s0,.99,0,.99h-3.95c-.38,0-.67.06-.89.18Z"/>
          <path class="cls-22" d="M130.02,28.47c.53-.02.99.02,1.38.15.39.12.71.29.96.51.25.22.44.45.58.69.14.25.24.48.31.69.06.21.1.4.12.55.02.16.02.22.02.2v.35c0,.25-.06.54-.19.87-.12.33-.32.64-.58.93-.26.3-.6.54-1.01.72s-.89.26-1.44.23h-1.1c-.55.03-1.03-.05-1.44-.23s-.75-.42-1.01-.72c-.26-.3-.45-.61-.58-.93-.12-.32-.19-.61-.19-.87v-.35s0-.04.02-.2c.02-.16.06-.34.12-.55.06-.21.17-.44.31-.69s.34-.48.59-.69c.25-.22.57-.39.96-.51.39-.12.85-.17,1.38-.15h.8ZM130.4,33.38c.73,0,1.25-.18,1.54-.53.3-.35.47-.73.51-1.14v-.17s.01-.28.01-.28v-.18c-.06-.38-.23-.75-.52-1.11s-.81-.54-1.54-.54h-1.56c-.74,0-1.25.18-1.54.54s-.46.73-.5,1.11l-.02.18v.26l.02.18c.04.4.21.78.51,1.14.3.35.81.53,1.54.53h1.56Z"/>
          <path class="cls-22" d="M140.7,29.36h-3.35c-.17,0-.36,0-.57,0-.21,0-.41.03-.59.08s-.34.15-.48.28c-.13.13-.23.29-.29.47-.05.18-.08.34-.09.47,0,.13,0,.37,0,.71v2.92c0,.05-.02.08-.07.08h-.83s-.07-.03-.07-.08v-3.01c0-.12,0-.34,0-.64s.06-.61.18-.92.33-.58.63-.82c.19-.15.4-.26.62-.34.22-.08.44-.13.64-.16.2-.03.39-.04.56-.04h3.7v.99Z"/>
          <path class="cls-22" d="M152.85,30.12c.11.22.18.43.23.62s.07.42.08.7v2.92h-.96v-3.02c0-.17-.03-.33-.08-.48-.05-.16-.11-.29-.17-.4s-.16-.25-.28-.39c-.13-.15-.29-.27-.48-.36-.19-.09-.37-.15-.55-.18-.18-.03-.41-.05-.7-.06h-2.15c0,.64,0,1.28,0,1.92v2.97h-.96v-3c0-.18-.02-.35-.07-.5-.05-.16-.1-.29-.15-.39-.06-.11-.14-.22-.25-.35-.15-.16-.32-.29-.52-.39-.19-.09-.38-.16-.55-.19-.18-.03-.4-.05-.66-.06-1.1,0-1.83,0-2.2,0,0,.38,0,1.6,0,3.67v1.22h-.96v-5.84h8.48c.3-.02.58,0,.84.06.26.05.49.13.68.22s.36.19.49.29c.13.1.27.23.43.39.18.2.33.42.44.64Z"/>
          <path class="cls-22" d="M161.24,29.85c.24.42.36.94.36,1.56,0-.1,0-.08,0,.06h0v.69c0,.58-.12,1.03-.33,1.34-.22.31-.48.53-.79.63s-.63.17-.97.17c-.34,0-.6.02-.76.02h-3.14c-.49,0-.91-.18-1.26-.54-.35-.36-.52-.79-.52-1.3s.17-.95.52-1.31c.35-.36.77-.55,1.26-.55h4.82c0-.07-.02-.14-.04-.2s-.04-.11-.05-.13c-.09-.18-.22-.35-.39-.5s-.36-.27-.56-.36c-.21-.08-.42-.12-.65-.12h-4.64v-.94c0-.08,0-.11,0-.08h4.64c.54,0,1.03.14,1.5.42.22.13.41.29.57.47.16.18.31.4.46.65ZM160.54,32.3c0-.09,0-.29-.01-.62h-5.06c-.18,0-.33.08-.47.24-.13.16-.19.36-.19.58s.06.42.19.58c.13.16.29.24.47.24h3.28c.37,0,.67,0,.89-.02s.39-.07.52-.16c.14-.1.23-.22.28-.35.05-.14.08-.3.1-.49Z"/>
          <path class="cls-22" d="M164.4,29.59c-.26.09-.48.22-.65.4s-.3.39-.4.66c-.09.27-.14.53-.14.79s.05.53.14.79.22.48.4.66.39.3.65.4.53.14.79.14h4.82v.97h-4.82c-.53,0-1.02-.13-1.48-.4-.45-.26-.81-.62-1.07-1.07-.26-.45-.39-.94-.39-1.48s.13-1.03.39-1.48c.27-.45.62-.81,1.07-1.07.45-.27.95-.4,1.48-.4h4.82v.97h-4.82c-.26,0-.52.05-.79.14Z"/>
          <path class="cls-22" d="M172.05,25.58v1.04h-1.04v-1.04h1.04ZM172.05,28.01v6.35h-1.04v-6.35h1.04Z"/>
          <path class="cls-22" d="M177.31,28.47c.53-.02.99.02,1.38.15.39.12.71.29.96.51.25.22.44.45.58.69.14.25.24.48.31.69.06.21.1.4.12.55.02.16.02.22.02.2v.35c0,.25-.06.54-.19.87-.12.33-.32.64-.58.93-.26.3-.6.54-1.01.72-.41.18-.89.26-1.44.23h-1.1c-.55.03-1.03-.05-1.44-.23-.42-.18-.75-.42-1.01-.72-.26-.3-.46-.61-.58-.93-.12-.32-.19-.61-.19-.87v-.35s0-.04.02-.2.06-.34.12-.55c.06-.21.17-.44.31-.69.14-.25.34-.48.59-.69.25-.22.57-.39.96-.51.39-.12.85-.17,1.38-.15h.8ZM177.69,33.38c.73,0,1.25-.18,1.54-.53.3-.35.47-.73.51-1.14v-.17s.01-.28.01-.28v-.18c-.06-.38-.23-.75-.52-1.11-.29-.36-.81-.54-1.54-.54h-1.56c-.74,0-1.25.18-1.54.54-.29.36-.46.73-.5,1.11l-.02.18v.26l.02.18c.04.4.21.78.51,1.14.3.35.81.53,1.54.53h1.56ZM177.64,26.27h1.2s-.75.77-.75.77l-.78.75h-.74l1.08-1.53Z"/>
          <path class="cls-22" d="M188.79,29.86c.26.46.39.96.39,1.51v3h-.99v-3c0-.27-.05-.54-.14-.81s-.22-.49-.4-.67c-.17-.18-.38-.31-.64-.41-.26-.09-.51-.14-.77-.14h-1.86c-.5,0-1.15,0-1.95,0,0-.23,0-.02,0,.65,0,.67,0,1.1,0,1.31v3.07h-.99v-6.01h4.79c.52,0,1.01.13,1.47.4.45.27.81.64,1.07,1.1Z"/>
        </g>
      </g>
      <g>
        <path class="cls-19" d="M155.76,174.55s-.01-.01-.02-.02c0,0-.01-.01-.02-.02-1.07-1.06-1.58-2.28-1.66-3.46,0-.08-.01-.16-.01-.24-.29.32-.57.64-.83.98-1.45-1.29-2.79-4.81-1.16-8.86-.39.25-3.68,4.81-.48,9.83-.48.16-1.12.31-1.12.31,0,0,2.45,1.69,5.3,1.48"/>
        <path class="cls-19" d="M182.27,174.18s.01-.02.02-.03c0-.01.02-.02.02-.04,1.15-1.82,1.48-3.67,1.22-5.34-.02-.11-.03-.22-.06-.33.51.35,1,.71,1.46,1.1,1.61-2.25,2.37-7.57-1.18-12.7.62.23,6.65,5.55,3.77,13.54.72.08,1.66.08,1.66.08,0,0-2.89,3.13-6.92,3.73"/>
        <path class="cls-7" d="M152.72,147.6s.68-3.3,4.45-2.25c0,0,2.23-2.93,6.23-1.73,0,0,3.22.92,3.54,4.09,0,0,3.76.72,3.76,4.37,0,0,.39,4.72-4.99,4.72h-11.79s-5.66.71-5.66-4.83c0,0,.26-4.36,4.45-4.36"/>
        <path class="cls-6" d="M153.26,148.02s.63-2.9,4.1-1.98c0,0,2.19-2.83,5.88-1.77,0,0,2.9.85,3.11,3.84,0,0,3.46.63,3.46,3.84,0,0,.36,4.14-4.59,4.14h-10.85s-5.21.62-5.21-4.24c0,0,.24-3.83,4.1-3.83"/>
        <path class="cls-7" d="M158.31,152.2s.93-4.5,6.08-3.07c0,0,3.04-4,8.51-2.36,0,0,4.4,1.25,4.83,5.57,0,0,5.13.98,5.13,5.97,0,0,.54,6.43-6.81,6.43h-16.08s-7.72.97-7.72-6.59c0,0,.36-5.95,6.08-5.95"/>
        <path class="cls-6" d="M159.05,152.77s.86-3.95,5.59-2.7c0,0,2.98-3.86,8.02-2.42,0,0,3.95,1.16,4.25,5.24,0,0,4.72.86,4.72,5.24,0,0,.49,5.65-6.26,5.65h-14.8s-7.1.85-7.1-5.79c0,0,.33-5.22,5.59-5.22"/>
        <path class="cls-8" d="M179.5,178.28h-19.91c-1.11,0-2.01-.9-2.01-2.01v-13.4c0-1.11.9-2.01,2.01-2.01h19.91c1.11,0,2.01.9,2.01,2.01v13.4c0,1.11-.9,2.01-2.01,2.01"/>
        <rect class="cls-6" x="158.48" y="161.72" width="22.12" height="15.69"/>
        <rect class="cls-18" x="159.38" y="176.09" width="19.18" height=".28"/>
        <rect class="cls-18" x="159.36" y="164.52" width=".28" height="11.85"/>
        <rect class="cls-10" x="163.39" y="168.53" width=".47" height="4.9" transform="translate(-56.04 259.04) rotate(-68.1)"/>
        <rect class="cls-10" x="164.49" y="169.47" width="4.9" height=".46" transform="translate(-42.82 282.27) rotate(-73.69)"/>
        <rect class="cls-10" x="167.71" y="166.36" width="6.19" height=".46" transform="translate(-13.56 15.14) rotate(-4.88)"/>
        <rect class="cls-10" x="173.16" y="164.52" width="3.72" height=".46" transform="translate(-63.19 196.89) rotate(-50.95)"/>
        <path class="cls-3" d="M162.49,170.13c0,.66-.53,1.19-1.19,1.19s-1.19-.53-1.19-1.19.53-1.19,1.19-1.19,1.19.53,1.19,1.19"/>
        <path class="cls-5" d="M166.97,171.69c0,.41-.33.74-.74.74s-.74-.33-.74-.74.33-.74.74-.74.74.33.74.74"/>
        <path class="cls-9" d="M168.98,167.11c0,.58-.47,1.06-1.06,1.06s-1.06-.47-1.06-1.06.47-1.06,1.06-1.06,1.06.47,1.06,1.06"/>
        <path class="cls-19" d="M175.14,166.15c0,.68-.55,1.24-1.24,1.24s-1.23-.55-1.23-1.24.55-1.24,1.23-1.24,1.24.55,1.24,1.24"/>
        <polygon class="cls-19" points="176.91 163.03 176.8 163.82 176.17 163.33 175.54 162.84 176.28 162.54 177.02 162.24 176.91 163.03"/>
        <rect class="cls-3" x="174.26" y="170.74" width=".37" height="3.93" transform="translate(-69.49 145.21) rotate(-38.28)"/>
        <rect class="cls-3" x="164.21" y="173.46" width="3.93" height=".37" transform="translate(-17.97 19.19) rotate(-6.27)"/>
        <rect class="cls-3" x="168.33" y="172.12" width="4.97" height=".37" transform="translate(-58.7 93.62) rotate(-26.32)"/>
        <polygon class="cls-3" points="175.57 173.75 178.24 172.42 178.4 172.75 175.74 174.08 175.57 173.75"/>
        <polygon class="cls-3" points="178.76 172.59 178.51 172.99 178.3 172.57 178.09 172.16 178.55 172.18 179.01 172.2 178.76 172.59"/>
        <path class="cls-16" d="M164.97,173.94c0,.55-.44.99-.99.99s-.99-.44-.99-.99.44-.99.99-.99.99.44.99.99"/>
        <path class="cls-5" d="M169.09,173.5c0,.41-.34.75-.75.75s-.75-.34-.75-.75.34-.75.75-.75.75.34.75.75"/>
        <path class="cls-17" d="M176.61,173.99c0,.55-.44.99-.99.99s-.99-.44-.99-.99.44-.99.99-.99.99.44.99.99"/>
        <path class="cls-10" d="M173.97,170.99c0,.46-.38.84-.84.84s-.84-.38-.84-.84.38-.84.84-.84.84.38.84.84"/>
        <rect class="cls-8" x="161.22" y="152.06" width="11.86" height="14.94"/>
        <rect class="cls-6" x="162.06" y="152.79" width="10.24" height="13.33"/>
        <path class="cls-11" d="M171.02,161.08h-8.08c-.16,0-.28-.13-.28-.28s.13-.28.28-.28h8.08c.16,0,.28.13.28.28s-.13.28-.28.28"/>
        <path class="cls-11" d="M170.96,156.38h-7.93c-.16,0-.28-.13-.28-.28s.13-.28.28-.28h7.93c.16,0,.28.13.28.28s-.13.28-.28.28"/>
        <path class="cls-11" d="M171.02,162.81h-8.08c-.16,0-.28-.13-.28-.28s.13-.28.28-.28h8.08c.16,0,.28.13.28.28s-.13.28-.28.28"/>
        <path class="cls-11" d="M168.22,164.6h-5.29c-.16,0-.28-.13-.28-.28s.13-.28.28-.28h5.29c.16,0,.28.13.28.28s-.13.28-.28.28"/>
        <path class="cls-11" d="M170.98,154.47h-5.06c-.16,0-.28-.13-.28-.28s.13-.28.28-.28h5.06c.16,0,.28.13.28.28s-.13.28-.28.28"/>
        <path class="cls-8" d="M166.96,159.23h-3.64c-.35,0-.63-.28-.63-.63s.28-.63.63-.63h3.64c.35,0,.63.28.63.63s-.28.63-.63.63"/>
        <path class="cls-8" d="M170.55,159.23h-1.45c-.35,0-.63-.28-.63-.63s.28-.63.63-.63h1.45c.35,0,.63.28.63.63s-.28.63-.63.63"/>
      </g>
      <g>
        <path class="cls-19" d="M140.53,104.18s-.02-.01-.03-.02c-.01,0-.02-.02-.04-.02-1.75-1.2-2.77-2.76-3.19-4.37-.03-.11-.05-.22-.08-.32-.33.51-.63,1.03-.9,1.57-2.34-1.41-5.09-5.95-3.86-11.98-.48.45-3.88,7.61,1.84,13.74-.62.35-1.47.71-1.47.71,0,0,3.83,1.72,7.72.69"/>
        <path class="cls-19" d="M179.44,100.58s.02-.03.03-.05c.01-.02.02-.04.03-.06,1.48-2.82,1.75-5.58,1.18-8.01-.04-.16-.08-.32-.12-.48.79.45,1.55.93,2.28,1.45,2.11-3.5,2.6-11.43-3.23-18.56.95.27,10.43,7.38,7.14,19.49,1.07.03,2.45-.08,2.45-.08,0,0-3.88,4.94-9.75,6.3"/>
        <path class="cls-7" d="M161.49,65.72s.74-3.57,4.81-2.44c0,0,2.41-3.17,6.74-1.87,0,0,3.48.99,3.82,4.42,0,0,4.06.78,4.06,4.73,0,0,.42,5.1-5.39,5.1h-12.74s-6.12.76-6.12-5.22c0,0,.28-4.72,4.81-4.72"/>
        <path class="cls-6" d="M162.08,66.18s.68-3.13,4.43-2.14c0,0,2.36-3.06,6.35-1.92,0,0,3.13.92,3.37,4.15,0,0,3.74.68,3.74,4.15,0,0,.39,4.48-4.96,4.48h-11.73s-5.63.67-5.63-4.59c0,0,.26-4.14,4.43-4.14"/>
        <path class="cls-7" d="M128.18,65.94s.96-4.65,6.27-3.17c0,0,3.14-4.13,8.78-2.44,0,0,4.54,1.29,4.98,5.76,0,0,5.3,1.02,5.3,6.16,0,0,.55,6.64-7.03,6.64h-16.61s-7.97,1-7.97-6.81c0,0,.37-6.14,6.27-6.14"/>
        <path class="cls-6" d="M128.95,66.53s.88-4.08,5.77-2.79c0,0,3.08-3.99,8.28-2.5,0,0,4.08,1.2,4.39,5.41,0,0,4.87.89,4.87,5.41,0,0,.51,5.83-6.47,5.83h-15.28s-7.33.88-7.33-5.98c0,0,.34-5.39,5.77-5.39"/>
        <path class="cls-7" d="M138.74,71.21s1.31-6.34,8.56-4.33c0,0,4.28-5.64,11.98-3.32,0,0,6.19,1.76,6.8,7.86,0,0,7.23,1.38,7.23,8.41,0,0,.76,9.06-9.59,9.06h-22.66s-10.88,1.36-10.88-9.29c0,0,.5-8.38,8.56-8.38"/>
        <path class="cls-6" d="M139.78,72.02s1.2-5.57,7.88-3.8c0,0,4.2-5.44,11.29-3.41,0,0,5.57,1.63,5.99,7.38,0,0,6.65,1.22,6.65,7.38,0,0,.69,7.96-8.82,7.96h-20.85s-10.01,1.19-10.01-8.15c0,0,.46-7.36,7.88-7.36"/>
        <path class="cls-8" d="M172.79,107.58h-29.19c-1.24,0-2.25-1.01-2.25-2.25v-20.03c0-1.24,1.01-2.25,2.25-2.25h29.19c1.24,0,2.25,1.01,2.25,2.25v20.03c0,1.24-1.01,2.25-2.25,2.25"/>
        <path class="cls-8" d="M173.12,107.53h-29.98c-1.03,0-1.87-.84-1.87-1.87v-20.81c0-1.03.84-1.87,1.87-1.87h29.98c1.03,0,1.87.84,1.87,1.87v20.81c0,1.03-.84,1.87-1.87,1.87"/>
        <rect class="cls-6" x="142.53" y="84.2" width="31.19" height="22.11"/>
        <rect class="cls-18" x="143.8" y="104.45" width="27.03" height=".39"/>
        <rect class="cls-18" x="143.78" y="88.13" width=".39" height="16.7"/>
        <rect class="cls-10" x="149.45" y="93.79" width=".65" height="6.91" transform="translate(3.68 199.94) rotate(-68.1)"/>
        <rect class="cls-10" x="151.01" y="95.12" width="6.91" height=".65" transform="translate(19.48 216.89) rotate(-73.69)"/>
        <rect class="cls-10" x="155.54" y="90.73" width="8.73" height=".66" transform="translate(-7.17 13.93) rotate(-4.88)"/>
        <rect class="cls-10" x="163.22" y="88.14" width="5.24" height=".66" transform="translate(-7.34 161.52) rotate(-50.95)"/>
        <path class="cls-3" d="M148.19,96.04c0,.93-.75,1.68-1.68,1.68s-1.68-.75-1.68-1.68.75-1.68,1.68-1.68,1.68.75,1.68,1.68"/>
        <path class="cls-5" d="M154.49,98.24c0,.58-.47,1.05-1.05,1.05s-1.05-.47-1.05-1.05.47-1.05,1.05-1.05,1.05.47,1.05,1.05"/>
        <path class="cls-9" d="M157.33,91.79c0,.82-.67,1.49-1.49,1.49s-1.49-.67-1.49-1.49.67-1.49,1.49-1.49,1.49.67,1.49,1.49"/>
        <path class="cls-19" d="M166.02,90.43c0,.96-.78,1.74-1.74,1.74s-1.74-.78-1.74-1.74.78-1.74,1.74-1.74,1.74.78,1.74,1.74"/>
        <polygon class="cls-19" points="168.51 86.04 168.35 87.15 167.46 86.46 166.58 85.77 167.62 85.35 168.67 84.93 168.51 86.04"/>
        <rect class="cls-3" x="164.77" y="96.91" width=".53" height="5.55" transform="translate(-26.27 123.68) rotate(-38.28)"/>
        <rect class="cls-3" x="150.6" y="100.74" width="5.55" height=".53" transform="translate(-10.11 17.34) rotate(-6.27)"/>
        <rect class="cls-3" x="156.42" y="98.85" width="7" height=".53" transform="translate(-27.37 81.18) rotate(-26.32)"/>
        <rect class="cls-3" x="166.52" y="100.18" width="4.2" height=".53" transform="translate(-27.12 86.03) rotate(-26.57)"/>
        <polygon class="cls-3" points="171.12 99.52 170.77 100.07 170.47 99.49 170.17 98.9 170.82 98.94 171.48 98.97 171.12 99.52"/>
        <path class="cls-16" d="M151.68,101.41c0,.77-.63,1.4-1.4,1.4s-1.4-.63-1.4-1.4.63-1.4,1.4-1.4,1.4.63,1.4,1.4"/>
        <path class="cls-5" d="M157.49,100.8c0,.58-.47,1.06-1.06,1.06s-1.06-.47-1.06-1.06.47-1.06,1.06-1.06,1.06.47,1.06,1.06"/>
        <path class="cls-17" d="M168.09,101.49c0,.77-.63,1.4-1.4,1.4s-1.4-.63-1.4-1.4.63-1.4,1.4-1.4,1.4.63,1.4,1.4"/>
        <path class="cls-10" d="M164.36,97.26c0,.65-.53,1.18-1.18,1.18s-1.19-.53-1.19-1.18.53-1.18,1.19-1.18,1.18.53,1.18,1.18"/>
        <rect class="cls-8" x="137.55" y="74.27" width="16.71" height="21.05"/>
        <rect class="cls-6" x="138.73" y="75.29" width="14.43" height="18.78"/>
        <path class="cls-11" d="M151.49,86.97h-11.63c-.15,0-.27-.12-.27-.27v-.25c0-.15.12-.27.27-.27h11.63c.15,0,.27.12.27.27v.25c0,.15-.12.27-.27.27"/>
        <path class="cls-11" d="M151.4,80.35h-11.43c-.15,0-.27-.12-.27-.27v-.25c0-.15.12-.27.27-.27h11.43c.15,0,.27.12.27.27v.25c0,.15-.12.27-.27.27"/>
        <path class="cls-11" d="M151.49,89.41h-11.63c-.15,0-.27-.12-.27-.27v-.25c0-.15.12-.27.27-.27h11.63c.15,0,.27.12.27.27v.25c0,.15-.12.27-.27.27"/>
        <path class="cls-11" d="M147.55,91.93h-7.71c-.15,0-.27-.12-.27-.27v-.25c0-.15.12-.27.27-.27h7.71c.15,0,.27.12.27.27v.25c0,.15-.12.27-.27.27"/>
        <path class="cls-11" d="M151.43,77.66h-7.38c-.15,0-.27-.12-.27-.27v-.25c0-.15.12-.27.27-.27h7.38c.15,0,.27.12.27.27v.25c0,.15-.12.27-.27.27"/>
        <path class="cls-8" d="M145.93,84.36h-5.7c-.34,0-.61-.27-.61-.61v-.57c0-.34.27-.61.61-.61h5.7c.34,0,.61.27.61.61v.57c0,.34-.27.61-.61.61"/>
        <path class="cls-8" d="M150.99,84.36h-2.61c-.34,0-.61-.27-.61-.61v-.57c0-.34.27-.61.61-.61h2.61c.34,0,.61.27.61.61v.57c0,.34-.27.61-.61.61"/>
        <path class="cls-8" d="M166.97,121.03h9.66v-3.31s1.63-.69,1.63-6.15v-3.74s-.14-1.87-3.12-1.43c0,0-.85-1.38-2.71-.52,0,0-1.19-.98-2.77-.64v-7.04s.08-1.48-2.07-1.48c0,0-2.01,0-2.01,1.41v7.99s-3.23-.91-3.23,1.43c0,0-.1.48.13.88l2.07,5.84s1.24,3.15,2.38,3.72v2.84l.05.21Z"/>
        <path class="cls-15" d="M177.45,108.27c0-.44-.25-.8-.6-1.03-.73-.47-1.75.03-1.76.86-.02.63-.03,1.14-.03,1.14,0,0-.1-.92-.18-1.8-.03-.28-.24-1.03-1.21-1.03-.79,0-1.25.41-1.26,1.03-.01.87-.02,1.7-.02,1.7,0,0,0,0,0-.01-.01-.13-.15-1.36-.23-2.3-.02-.26-.14-.52-.36-.69-.07-.06-.16-.11-.24-.16-.74-.4-2.31-.27-2.31.88,0,.01,0,.02,0,.03-.03.8-.07,1.65-.09,1.89h0s0,.04,0,.05c0,0,0,.01,0,.02h0s-.11-1.86-.12-2.65v-7.36c.04-1.56-2.81-1.86-2.78.03l.02,9.28h0s.01,4,.01,4l-.37-4.07c-.02-.17-.08-.33-.17-.48-.41-.59-.98-1.29-2.08-.83-1.03.43-.28,1.67-.08,2.36l1.44,3.78s.02.06.03.1c.16.59.94,2.45,1.66,3.28.28.54.7,1.07,1.23,1.51-.12.17-.18.36-.18.57l.02,1.93.08.07h7.06c.63,0,1.14-.47,1.14-1.06l-.02-1.36c0-.18-.06-.35-.15-.5,1.05-1.01,1.56-2.4,1.57-3.82l.02-5.38Z"/>
      </g>
    </g>
  </g>
</svg>