<?xml version="1.0" encoding="UTF-8"?>
<svg id="Capa_2" xmlns="http://www.w3.org/2000/svg" viewBox="0 0 177.04 204.18">
  <defs>
    <style>
      .cls-1 {
        fill: #f9cf16;
      }

      .cls-2 {
        fill: #cd142a;
      }

      .cls-3 {
        fill: #4a4a4a;
      }

      .cls-4 {
        fill: #646365;
      }

      .cls-5 {
        fill: #868486;
      }

      .cls-6 {
        fill: #fff;
      }

      .cls-7 {
        fill: #115a9f;
      }

      .cls-8 {
        fill: #625f60;
      }

      .cls-9 {
        fill: #505050;
      }

      .cls-10 {
        fill: #dbac85;
      }

      .cls-11 {
        fill: #d00e4d;
      }

      .cls-12 {
        fill: #d7d5d6;
      }

      .cls-13 {
        fill: #d00e4c;
      }

      .cls-14 {
        fill: #d22e1f;
      }

      .cls-15 {
        fill: #9d9a9c;
      }

      .cls-16 {
        fill: #1d458c;
      }

      .cls-17 {
        fill: #48a98e;
      }

      .cls-18 {
        fill: #e1222c;
      }

      .cls-19 {
        fill: #828384;
      }

      .cls-20 {
        fill: #1b4180;
      }

      .cls-21 {
        fill: #f9c294;
      }
    </style>
  </defs>
  <g id="Capa_1-2" data-name="Capa_1">
    <g>
      <g>
        <path class="cls-8" d="M106.56,193.72h1.14v8.37h-1.14v-8.37Z"/>
        <path class="cls-8" d="M112.09,197.53c-.25.09-.46.21-.62.38s-.29.37-.38.63-.13.51-.13.76.04.5.13.76.21.46.38.63.37.29.62.38.5.13.75.13h4.61v.93h-4.61c-.51,0-.98-.13-1.41-.38-.43-.25-.77-.59-1.03-1.03-.25-.43-.38-.9-.38-1.41s.12-.98.38-1.41c.25-.43.6-.78,1.03-1.03.43-.25.9-.38,1.41-.38h4.61v.93h-4.61c-.25,0-.5.04-.75.13Z"/>
        <path class="cls-8" d="M123.57,196.46c.5-.02.94.02,1.32.14s.68.28.92.49.42.43.56.66.23.45.29.66.1.38.11.53.02.21.02.19v.33c0,.24-.06.52-.18.83s-.3.61-.55.89-.57.51-.97.69-.85.25-1.38.22h-1.05c-.52.03-.98-.05-1.38-.22s-.72-.4-.97-.69-.43-.58-.55-.89-.18-.59-.18-.83v-.33s0-.04.02-.19.05-.33.11-.53.16-.42.29-.66.32-.46.56-.66.55-.37.92-.49.81-.16,1.32-.14h.76ZM123.94,201.15c.7,0,1.19-.17,1.47-.51s.45-.7.49-1.09v-.16s.01-.26.01-.26v-.18c-.05-.37-.22-.72-.5-1.06s-.77-.51-1.48-.51h-1.49c-.7,0-1.2.17-1.48.51s-.44.7-.48,1.06l-.02.18v.25l.02.18c.04.39.2.75.49,1.09s.78.51,1.47.51h1.49Z"/>
        <path class="cls-8" d="M135.9,197.79c.25.44.38.92.38,1.44v2.87h-.94v-2.87c0-.26-.04-.52-.13-.77s-.21-.47-.38-.64c-.16-.17-.36-.3-.61-.39s-.49-.13-.74-.13h-1.78c-.48,0-1.1,0-1.86,0,0-.22,0-.01,0,.62s0,1.06,0,1.25v2.94h-.94v-5.74h4.58c.5,0,.97.13,1.4.38.43.26.77.61,1.03,1.05Z"/>
        <path class="cls-8" d="M142.43,196.46c.5-.02.94.02,1.32.14s.68.28.92.49.42.43.56.66.23.45.29.66.1.38.11.53.02.21.02.19v.33c0,.24-.06.52-.18.83s-.3.61-.55.89-.57.51-.97.69-.85.25-1.38.22h-1.05c-.52.03-.98-.05-1.38-.22s-.72-.4-.97-.69-.43-.58-.55-.89-.18-.59-.18-.83v-.33s0-.04.02-.19.05-.33.11-.53.16-.42.29-.66.32-.46.56-.66.55-.37.92-.49.81-.16,1.32-.14h.76ZM142.79,201.15c.7,0,1.19-.17,1.47-.51s.45-.7.49-1.09v-.16s.01-.26.01-.26v-.18c-.05-.37-.22-.72-.5-1.06s-.77-.51-1.48-.51h-1.49c-.7,0-1.2.17-1.48.51s-.44.7-.48,1.06l-.02.18v.25l.02.18c.04.39.2.75.49,1.09s.78.51,1.47.51h1.49Z"/>
        <path class="cls-8" d="M157.85,197.78c.23.4.35.9.35,1.49,0-.09,0-.07,0,.06h0v.66c0,.55-.11.98-.32,1.28s-.46.5-.76.61-.61.16-.93.17-.57.02-.73.02h-3.01c-.47,0-.87-.17-1.2-.52s-.5-.76-.5-1.24.17-.9.5-1.25c.33-.35.73-.52,1.2-.52h4.61c0-.07-.02-.13-.04-.19s-.04-.11-.05-.13c-.09-.18-.21-.34-.38-.48s-.34-.26-.54-.34c-.2-.08-.41-.12-.62-.12h-4.44v-.9c0-.08,0-.1,0-.08h4.44c.51,0,.99.13,1.43.4.21.12.39.27.55.45s.3.38.44.62ZM157.18,200.12c0-.08,0-.28-.01-.59h-4.83c-.17,0-.32.08-.45.23-.12.16-.18.34-.18.56s.06.4.18.56c.12.15.27.23.45.23h3.13c.36,0,.64,0,.85-.02s.38-.07.5-.16c.13-.09.22-.21.27-.34s.08-.29.09-.47Z"/>
        <path class="cls-8" d="M161.27,204.16h-.91c0,.05,0,0,0-.16v-5.33c0-.35.13-.69.4-1.02s.59-.6.98-.81.75-.31,1.08-.31h1.71c.53-.02.99.05,1.39.22s.72.39.97.67.44.57.56.88.18.58.18.82v.32s0,.04-.02.18-.05.32-.11.52-.16.42-.3.65-.33.45-.57.65-.55.36-.92.48-.82.16-1.32.14h-3.11v2.1ZM161.27,201.14h3.47c.57,0,1-.12,1.29-.35s.48-.47.57-.73.13-.46.13-.62v-.28c0-.19-.04-.42-.13-.68s-.28-.5-.57-.73-.72-.33-1.27-.33h-1.88c-.24,0-.49.07-.74.22s-.46.34-.62.56-.24.45-.24.66v2.26Z"/>
        <path class="cls-8" d="M170.69,204.16h-.91c0,.05,0,0,0-.16v-5.33c0-.35.13-.69.4-1.02s.59-.6.98-.81.75-.31,1.08-.31h1.71c.53-.02.99.05,1.39.22s.72.39.97.67.44.57.56.88.18.58.18.82v.32s0,.04-.02.18-.05.32-.11.52-.16.42-.3.65-.33.45-.57.65-.55.36-.92.48-.82.16-1.32.14h-3.11v2.1ZM170.69,201.14h3.47c.57,0,1-.12,1.29-.35s.48-.47.57-.73.13-.46.13-.62v-.28c0-.19-.04-.42-.13-.68s-.28-.5-.57-.73-.72-.33-1.27-.33h-1.88c-.24,0-.49.07-.74.22s-.46.34-.62.56-.24.45-.24.66v2.26Z"/>
      </g>
      <g>
        <path class="cls-13" d="M40.5,28.23c.14.02.36.08.68.19.31.11.68.32,1.09.63.41.31.77.78,1.08,1.4.31.62.46,1.41.46,2.36s-.18,1.67-.54,2.27c-.36.6-.79,1.06-1.29,1.35-.5.29-.97.47-1.42.53h-7.62v-8.73h7.57ZM40.44,35.78c.23-.04.52-.14.84-.3.32-.16.63-.46.92-.9.29-.43.43-1.03.43-1.78,0-.88-.15-1.57-.45-2.07-.3-.5-.62-.84-.95-1.01-.33-.18-.61-.28-.84-.32h-6.28v6.38h6.33Z"/>
        <rect class="cls-13" x="44.63" y="28.24" width="1.19" height="8.7"/>
        <path class="cls-13" d="M52.3,30.61c.77-.01,1.46-.13,2.06-.34.61-.22,1.08-.43,1.4-.65.33-.22.55-.38.66-.49l.96-.91v8.75h-1.14v-6.32c-.5.3-1.08.55-1.75.76-.66.21-1.39.32-2.18.33-.83,0-1.61-.1-2.33-.32-.72-.22-1.36-.49-1.92-.82v6.36h-1.14v-8.75l1,.87c.14.13.39.3.75.53.36.23.86.45,1.51.68.64.23,1.35.33,2.11.32"/>
        <rect class="cls-11" x="59.08" y="31.93" width="2.29" height="1.16"/>
        <g>
          <path class="cls-19" d="M63.63,28.22h1.2v7.56h6.24v1.2h-7.43v-8.75Z"/>
          <path class="cls-19" d="M72.73,30.6h1.05v6.35h-1.05v-6.35ZM73.92,28.65h1.2s-.75.77-.75.77l-.78.75h-.74l1.08-1.53Z"/>
          <path class="cls-19" d="M82.11,32.46c.26.46.39.96.39,1.51v3h-.99v-3c0-.27-.05-.54-.14-.81s-.22-.49-.4-.67c-.17-.18-.38-.31-.64-.41-.26-.09-.51-.14-.77-.14h-1.86c-.5,0-1.15,0-1.95,0,0-.23,0-.02,0,.65,0,.67,0,1.1,0,1.31v3.07h-.99v-6.01h4.79c.52,0,1.01.13,1.47.4.45.27.81.64,1.07,1.1Z"/>
          <path class="cls-19" d="M90.12,31.4c.29.23.48.49.57.77.09.28.14.53.15.74,0,1.05-.58,1.6-1.76,1.66h-4.67s0,.25,0,.25c0,.27.02.49.07.64s.13.27.25.34c.11.07.27.12.46.15s.47.04.82.04h4.36c.13,0,.19.06.19.18v.59c0,.13-.06.19-.19.19h-4.51c-.63,0-1.12-.07-1.48-.21-.36-.14-.62-.36-.77-.67s-.23-.72-.23-1.24v-1.5c0-.35.13-.7.4-1.05s.61-.65,1.02-.88c.42-.23.84-.35,1.28-.35h2.84c.52,0,.92.12,1.21.35ZM89.43,33.53c.09-.03.17-.09.26-.19.06-.07.1-.15.13-.24.03-.09.04-.21.05-.37,0-.07-.02-.16-.06-.27s-.11-.21-.22-.3-.26-.14-.45-.14h-3.1c-.22,0-.46.07-.72.21-.26.14-.48.33-.65.56-.18.24-.27.5-.27.79h4.61c.19,0,.33-.02.42-.05Z"/>
          <path class="cls-19" d="M99.13,32.44c.24.42.36.94.36,1.56,0-.1,0-.08,0,.06h0v.69c0,.58-.12,1.03-.33,1.34-.22.31-.48.53-.79.63s-.63.17-.97.17c-.34,0-.6.02-.76.02h-3.15c-.49,0-.91-.18-1.26-.54s-.52-.79-.52-1.3.17-.95.52-1.31c.35-.36.77-.55,1.26-.55h4.83c0-.07-.02-.14-.04-.2s-.04-.11-.06-.13c-.09-.18-.22-.35-.39-.5-.17-.15-.36-.27-.56-.36-.21-.08-.42-.12-.65-.12h-4.64v-.94c0-.08,0-.11,0-.08h4.64c.54,0,1.03.14,1.5.42.22.13.41.29.57.47.16.18.31.4.46.65ZM98.43,34.89c0-.09,0-.29-.01-.62h-5.06c-.18,0-.33.08-.47.24-.13.16-.19.36-.19.58s.06.42.19.58c.13.16.29.24.47.24h3.28c.37,0,.67,0,.89-.02s.39-.07.52-.16c.14-.1.23-.22.29-.35.05-.14.08-.3.09-.49Z"/>
          <path class="cls-19" d="M112.08,28.19v1.18h-4.52v7.58h-1.18v-7.58h-4.52v-1.18h10.22Z"/>
          <path class="cls-19" d="M119.25,31.95h-3.35c-.17,0-.36,0-.57,0-.21,0-.41.03-.58.08-.18.05-.34.15-.48.28-.13.13-.23.29-.29.47-.05.18-.09.34-.09.47s0,.37,0,.71v2.92c0,.05-.02.08-.07.08h-.83s-.07-.03-.07-.08v-3.01c0-.12,0-.34,0-.64,0-.3.06-.61.18-.92.12-.31.33-.58.63-.82.19-.15.4-.26.62-.34.22-.08.43-.13.64-.16.2-.03.39-.04.56-.04h3.7v.99Z"/>
          <path class="cls-19" d="M121.32,28.18v1.04h-1.04v-1.04h1.04ZM121.32,30.6v6.35h-1.04v-6.35h1.04Z"/>
          <path class="cls-19" d="M129.72,32.44c.24.42.36.94.36,1.56,0-.1,0-.08,0,.06h0v.69c0,.58-.12,1.03-.33,1.34-.22.31-.48.53-.79.63s-.63.17-.97.17c-.34,0-.6.02-.76.02h-3.14c-.49,0-.91-.18-1.26-.54s-.52-.79-.52-1.3.17-.95.52-1.31c.35-.36.77-.55,1.26-.55h4.83c0-.07-.02-.14-.04-.2s-.04-.11-.06-.13c-.09-.18-.22-.35-.39-.5-.17-.15-.36-.27-.56-.36-.21-.08-.43-.12-.65-.12h-4.64v-.94c0-.08,0-.11,0-.08h4.64c.54,0,1.03.14,1.5.42.22.13.41.29.57.47s.31.4.46.65ZM129.02,34.89c0-.09,0-.29-.01-.62h-5.06c-.18,0-.33.08-.47.24-.13.16-.19.36-.19.58s.06.42.19.58c.13.16.29.24.47.24h3.28c.37,0,.67,0,.89-.02s.39-.07.52-.16c.14-.1.23-.22.29-.35.05-.14.08-.3.09-.49Z"/>
          <path class="cls-19" d="M138.05,32.46c.26.46.39.96.39,1.51v3h-.99v-3c0-.27-.05-.54-.14-.81s-.22-.49-.4-.67c-.17-.18-.38-.31-.64-.41-.26-.09-.51-.14-.77-.14h-1.86c-.5,0-1.15,0-1.95,0,0-.23,0-.02,0,.65s0,1.1,0,1.31v3.07h-.99v-6.01h4.79c.52,0,1.01.13,1.47.4.45.27.81.64,1.07,1.1Z"/>
          <path class="cls-19" d="M145.96,31.36c.26.14.47.35.63.61.16.26.25.57.25.92v3.18c-.03.51-.15.98-.36,1.42-.22.44-.52.79-.9,1.06-.38.27-.82.42-1.33.45h-4.82v-.94h4.7c.3,0,.6-.09.9-.27.3-.18.53-.45.68-.8l.03-.08h-3.58c-.58,0-1.09-.14-1.53-.42-.44-.28-.77-.64-1-1.07-.23-.43-.35-.87-.35-1.32v-.21c0-.42.12-.84.36-1.27s.57-.78,1-1.06c.43-.28.91-.42,1.45-.42h3.07c.27,0,.54.07.8.21ZM145.9,35.97v-3.18c0-.17-.06-.33-.18-.47-.12-.15-.28-.22-.47-.22h-2.98c-.5,0-.9.09-1.2.27-.3.18-.52.41-.64.68-.12.27-.19.56-.19.86v.23c0,.39.09.72.26,1,.17.28.4.48.67.62.28.14.56.21.86.21h3.87Z"/>
          <path class="cls-19" d="M153.25,35.83c.26-.09.47-.23.64-.41.17-.17.3-.4.4-.67.09-.27.14-.54.14-.81v-3.03h.99v3.03c0,.55-.13,1.05-.39,1.52-.27.46-.63.83-1.08,1.1-.45.27-.94.41-1.47.41h-1.88c-.54,0-1.03-.13-1.48-.41-.45-.27-.81-.64-1.07-1.1-.27-.47-.4-.97-.4-1.52v-3.03h.99s0,0,0,.08v2.95c0,.27.05.54.14.81.09.27.23.49.4.67.17.18.39.32.65.41s.52.14.78.14h1.88c.26,0,.52-.05.78-.14Z"/>
          <path class="cls-19" d="M156.14,28.18h1.05s0,0,0,0v5.65c0,.41.1.78.3,1.1.2.32.44.57.73.75.29.18.57.27.83.27h2.15v1.05h-2.18c-.55,0-1.04-.17-1.48-.51-.44-.34-.78-.76-1.02-1.27s-.37-1.01-.37-1.49v-5.29c0-.27,0-.35,0-.26Z"/>
          <path class="cls-19" d="M169.51,32.44c.24.42.36.94.36,1.56,0-.1,0-.08,0,.06h0v.69c0,.58-.12,1.03-.33,1.34-.22.31-.48.53-.79.63s-.63.17-.97.17c-.34,0-.6.02-.76.02h-3.14c-.49,0-.91-.18-1.26-.54s-.52-.79-.52-1.3.17-.95.52-1.31c.35-.36.77-.55,1.26-.55h4.83c0-.07-.02-.14-.04-.2-.03-.07-.04-.11-.06-.13-.09-.18-.22-.35-.39-.5-.17-.15-.36-.27-.56-.36-.21-.08-.43-.12-.65-.12h-4.64v-.94c0-.08,0-.11,0-.08h4.64c.54,0,1.03.14,1.5.42.22.13.41.29.57.47s.31.4.46.65ZM168.81,34.89c0-.09,0-.29-.01-.62h-5.06c-.18,0-.33.08-.47.24-.13.16-.19.36-.19.58s.06.42.19.58c.13.16.29.24.47.24h3.28c.37,0,.67,0,.89-.02s.39-.07.52-.16c.14-.1.23-.22.29-.35.05-.14.08-.3.09-.49Z"/>
          <path class="cls-19" d="M177.04,31.95h-3.35c-.17,0-.36,0-.57,0-.21,0-.41.03-.58.08s-.34.15-.48.28c-.13.13-.23.29-.29.47-.05.18-.09.34-.09.47s0,.37,0,.71v2.92c0,.05-.03.08-.07.08h-.83s-.07-.03-.07-.08v-3.01c0-.12,0-.34,0-.64,0-.3.06-.61.18-.92s.33-.58.63-.82c.19-.15.4-.26.62-.34.22-.08.44-.13.64-.16.2-.03.39-.04.56-.04h3.7v.99Z"/>
        </g>
      </g>
      <g>
        <path class="cls-6" d="M14.84.27L.55,4.78l14.33,11.12,14.04-10.84L14.84.27ZM20.37,10.39l-3.12,2.39-2.66-1.71,2.04-1.67c.37-.33.47-.56.47-.56v-3.18c.03-.54-.73-.85-.73-.85-.94-.45-2.38-.43-2.38-.43-1.33-.02-3.8.92-3.8.92v2.95l-3.69-2.37c2.35-.95,3.42-1.2,3.42-1.2,2.33-.65,3.96-.69,3.96-.69,2.61-.14,4.69.58,4.69.58,2.08.57,2.94,1.3,2.94,1.3,1.72,1.29,1.33,2.61,1.33,2.61-.27.24-2.47,1.91-2.47,1.91"/>
        <polygon class="cls-13" points=".02 8.24 .02 4.69 14.92 16.03 29.45 4.96 29.45 8.22 14.87 21.46 .02 8.24"/>
        <path class="cls-13" d="M6.42,5.91l-2.39-1.48s3.15-1.23,5.77-1.73,3.58-.53,5.07-.47,4.37.63,6.26,1.55c1.89.93,2.29,1.89,2.4,2.42.12.53.09,1.75-.34,2.13l-.42.38s.31-.69-.13-1.56c-.44-.87-1.39-1.7-3.12-2.29-1.73-.59-3.27-.92-5.14-.89-1.87.03-3.56.44-4.87.82-1.3.38-3.09,1.11-3.09,1.11"/>
        <path class="cls-13" d="M10.2,5.37v2.94l4.29,2.83s.94-.73,1.6-1.28c.66-.54.94-.87,1.01-1.03v-3.24s.08.51-1.06,1.15c-1.13.64-1.49.85-1.49.85l-4.35-2.21Z"/>
        <path class="cls-13" d="M14.88,16.23L0,4.68,14.85,0h.04s14.57,4.97,14.57,4.97l-14.57,11.26ZM.55,4.78l14.34,11.12,14.04-10.84L14.84.27.55,4.78Z"/>
        <path class="cls-13" d="M17.27,13.09l-.08-.05L3.75,4.39l.24-.09s3.19-1.24,5.8-1.74c1.92-.37,3-.49,4.14-.49.27,0,.57,0,.95.02,1.62.06,4.5.68,6.31,1.57,1.43.7,2.26,1.54,2.47,2.51.12.56.1,1.82-.38,2.25l-.43.38-5.59,4.29ZM4.32,4.45l12.94,8.32,5.44-4.17.42-.38c.38-.34.41-1.51.3-2-.2-.89-.98-1.67-2.33-2.33-1.78-.87-4.61-1.48-6.2-1.54-.38-.01-.68-.02-.95-.02-.97,0-1.94.08-4.1.49-2.17.41-4.73,1.34-5.51,1.63"/>
        <path class="cls-13" d="M14.47,7.64l-4.29-2.19.04-.07-.03-.08c.1-.04,2.43-.93,3.82-.93h.03c1.46.01,2.38.36,2.77.69.36.3.41.63.16,1.02-.18.28-.7.67-1.43,1.05-.71.38-1.02.5-1.03.51h-.03ZM10.32,5.39l4.15,2.12c.09-.04.4-.18.99-.49.7-.37,1.21-.74,1.38-1,.21-.33.17-.6-.13-.85-.37-.31-1.27-.65-2.69-.66h-.03c-1.21,0-3.21.72-3.68.89"/>
        <path class="cls-13" d="M40.5,6.74c.14.02.36.08.68.19.31.11.68.32,1.09.63.41.31.77.78,1.08,1.4.31.62.46,1.41.46,2.36s-.18,1.67-.54,2.27c-.36.61-.79,1.06-1.29,1.35-.5.29-.97.47-1.42.53h-7.62V6.73h7.57ZM40.44,14.29c.23-.04.52-.14.84-.3.32-.16.63-.46.92-.9.29-.43.43-1.03.43-1.78,0-.88-.15-1.57-.45-2.07-.3-.5-.62-.84-.95-1.01-.33-.18-.61-.28-.84-.32h-6.28v6.38h6.33Z"/>
        <rect class="cls-13" x="44.63" y="6.75" width="1.19" height="8.7"/>
        <path class="cls-13" d="M52.3,9.12c.77-.01,1.46-.13,2.06-.34.61-.22,1.08-.43,1.4-.65.33-.22.55-.38.66-.49l.96-.91v8.75h-1.14v-6.32c-.5.3-1.08.55-1.75.76-.66.21-1.39.32-2.18.33-.83,0-1.61-.1-2.33-.32-.72-.22-1.36-.49-1.92-.82v6.36h-1.14V6.73l1,.86c.14.13.39.3.75.53.36.23.86.45,1.51.68.64.23,1.35.33,2.11.32"/>
        <rect class="cls-11" x="59.08" y="10.44" width="2.29" height="1.16"/>
        <g>
          <path class="cls-19" d="M63.63,6.73h1.2v7.56h6.24v1.2h-7.43V6.73Z"/>
          <path class="cls-19" d="M72.73,9.11h1.05v6.35h-1.05v-6.35ZM73.92,7.16h1.2s-.75.77-.75.77l-.78.75h-.74l1.08-1.53Z"/>
          <path class="cls-19" d="M82.11,10.97c.26.46.39.96.39,1.51v3h-.99v-3c0-.27-.05-.54-.14-.81s-.22-.49-.4-.67c-.17-.18-.38-.31-.64-.41-.26-.09-.51-.14-.77-.14h-1.86c-.5,0-1.15,0-1.95,0,0-.23,0-.02,0,.65,0,.67,0,1.1,0,1.31v3.07h-.99v-6.01h4.79c.52,0,1.01.13,1.47.4.45.27.81.64,1.07,1.1Z"/>
          <path class="cls-19" d="M90.12,9.91c.29.23.48.49.57.77.09.28.14.53.15.74,0,1.05-.58,1.6-1.76,1.66h-4.67s0,.25,0,.25c0,.27.02.49.07.64s.13.27.25.34c.11.07.27.12.46.15s.47.04.82.04h4.36c.13,0,.19.06.19.18v.59c0,.13-.06.19-.19.19h-4.51c-.63,0-1.12-.07-1.48-.21-.36-.14-.62-.36-.77-.67-.16-.3-.23-.72-.23-1.24v-1.5c0-.35.13-.7.4-1.05s.61-.65,1.02-.88c.42-.23.84-.35,1.28-.35h2.84c.52,0,.92.12,1.21.35ZM89.43,12.04c.09-.03.17-.09.26-.19.06-.07.1-.15.13-.24.03-.09.04-.21.05-.37,0-.07-.02-.16-.06-.27s-.11-.21-.22-.3-.26-.14-.45-.14h-3.1c-.22,0-.46.07-.72.21-.26.14-.48.33-.65.56-.18.24-.27.5-.27.79h4.61c.19,0,.33-.02.42-.05Z"/>
          <path class="cls-19" d="M99.13,10.95c.24.42.36.94.36,1.56,0-.1,0-.08,0,.06h0v.69c0,.58-.12,1.03-.33,1.34-.22.31-.48.53-.79.63s-.63.17-.97.17c-.34,0-.6.02-.76.02h-3.15c-.49,0-.91-.18-1.26-.54s-.52-.79-.52-1.3.17-.95.52-1.31c.35-.36.77-.55,1.26-.55h4.83c0-.07-.02-.14-.04-.2s-.04-.11-.06-.13c-.09-.18-.22-.35-.39-.5-.17-.15-.36-.27-.56-.36-.21-.08-.42-.12-.65-.12h-4.64v-.94c0-.08,0-.11,0-.08h4.64c.54,0,1.03.14,1.5.42.22.13.41.29.57.47.16.18.31.4.46.65ZM98.43,13.4c0-.09,0-.29-.01-.62h-5.06c-.18,0-.34.08-.47.24-.13.16-.19.36-.19.58s.06.42.19.58c.13.16.29.24.47.24h3.28c.37,0,.67,0,.89-.02s.39-.07.52-.16c.14-.1.23-.22.29-.35.05-.14.08-.3.09-.49Z"/>
          <path class="cls-19" d="M112.08,6.71v1.18h-4.52v7.58h-1.18v-7.58h-4.52v-1.18h10.22Z"/>
          <path class="cls-19" d="M119.25,10.46h-3.35c-.17,0-.36,0-.57,0-.21,0-.41.03-.58.08-.18.05-.34.15-.48.28-.13.13-.23.29-.29.47-.05.18-.09.34-.09.47s0,.37,0,.71v2.92c0,.05-.03.08-.07.08h-.83s-.07-.03-.07-.08v-3.01c0-.12,0-.34,0-.64,0-.3.06-.61.18-.92s.33-.58.63-.82c.19-.15.4-.26.62-.34.22-.08.44-.13.64-.16.2-.03.39-.04.56-.04h3.7v.99Z"/>
          <path class="cls-19" d="M121.32,6.69v1.04h-1.04v-1.04h1.04ZM121.32,9.11v6.35h-1.04v-6.35h1.04Z"/>
          <path class="cls-19" d="M129.72,10.95c.24.42.36.94.36,1.56,0-.1,0-.08,0,.06h0v.69c0,.58-.12,1.03-.33,1.34-.22.31-.48.53-.79.63s-.63.17-.97.17c-.34,0-.6.02-.76.02h-3.15c-.49,0-.91-.18-1.26-.54s-.52-.79-.52-1.3.17-.95.52-1.31c.35-.36.77-.55,1.26-.55h4.83c0-.07-.02-.14-.04-.2s-.04-.11-.06-.13c-.09-.18-.22-.35-.39-.5-.17-.15-.36-.27-.56-.36-.21-.08-.42-.12-.65-.12h-4.64v-.94c0-.08,0-.11,0-.08h4.64c.54,0,1.03.14,1.5.42.22.13.41.29.57.47s.31.4.46.65ZM129.02,13.4c0-.09,0-.29-.01-.62h-5.06c-.18,0-.33.08-.47.24-.13.16-.19.36-.19.58s.06.42.19.58c.13.16.29.24.47.24h3.28c.37,0,.67,0,.89-.02s.39-.07.52-.16c.14-.1.23-.22.29-.35.05-.14.08-.3.09-.49Z"/>
          <path class="cls-19" d="M138.05,10.97c.26.46.39.96.39,1.51v3h-.99v-3c0-.27-.05-.54-.14-.81s-.22-.49-.4-.67c-.17-.18-.38-.31-.64-.41-.26-.09-.51-.14-.77-.14h-1.86c-.5,0-1.15,0-1.95,0,0-.23,0-.02,0,.65s0,1.1,0,1.31v3.07h-.99v-6.01h4.79c.52,0,1.01.13,1.47.4.45.27.81.64,1.07,1.1Z"/>
          <path class="cls-19" d="M145.96,9.88c.26.14.47.35.63.61.16.26.25.57.25.92v3.18c-.02.51-.15.98-.36,1.42-.22.44-.52.79-.9,1.06-.38.27-.83.42-1.33.45h-4.82v-.94h4.7c.3,0,.6-.09.9-.27.3-.18.53-.45.68-.8l.03-.08h-3.58c-.58,0-1.09-.14-1.53-.42-.44-.28-.77-.64-1-1.07-.23-.43-.35-.87-.35-1.32v-.21c0-.42.12-.84.36-1.27s.57-.78,1-1.06c.43-.28.91-.42,1.45-.42h3.07c.27,0,.54.07.8.21ZM145.9,14.48v-3.18c0-.17-.06-.33-.18-.47-.12-.15-.28-.22-.47-.22h-2.98c-.5,0-.9.09-1.2.27-.3.18-.52.41-.64.68-.12.27-.19.56-.19.86v.23c0,.39.09.72.26,1,.17.28.4.48.67.62.28.14.56.21.86.21h3.87Z"/>
          <path class="cls-19" d="M153.25,14.34c.26-.09.47-.23.64-.41.17-.17.3-.4.4-.67s.14-.54.14-.81v-3.03h.99v3.03c0,.55-.13,1.05-.39,1.52-.27.46-.63.83-1.08,1.1-.45.27-.94.41-1.47.41h-1.88c-.54,0-1.03-.13-1.48-.41-.45-.27-.81-.64-1.07-1.1-.27-.47-.4-.97-.4-1.52v-3.03h.99s0,0,0,.08v2.95c0,.27.05.54.14.81.09.27.23.49.4.67.17.18.39.32.65.41s.52.14.78.14h1.88c.26,0,.52-.05.78-.14Z"/>
          <path class="cls-19" d="M156.14,6.69h1.05s0,0,0,0v5.65c0,.41.1.78.3,1.1.2.32.44.57.73.75.29.18.57.27.83.27h2.15v1.05h-2.18c-.55,0-1.04-.17-1.48-.51-.44-.34-.78-.76-1.02-1.27s-.37-1.01-.37-1.49v-5.29c0-.27,0-.35,0-.26Z"/>
          <path class="cls-19" d="M169.51,10.95c.24.42.36.94.36,1.56,0-.1,0-.08,0,.06h0v.69c0,.58-.12,1.03-.33,1.34-.22.31-.48.53-.79.63s-.63.17-.97.17c-.34,0-.6.02-.76.02h-3.14c-.49,0-.91-.18-1.26-.54s-.52-.79-.52-1.3.17-.95.52-1.31c.35-.36.77-.55,1.26-.55h4.83c0-.07-.02-.14-.04-.2s-.04-.11-.06-.13c-.09-.18-.22-.35-.39-.5-.17-.15-.36-.27-.56-.36-.21-.08-.43-.12-.65-.12h-4.64v-.94c0-.08,0-.11,0-.08h4.64c.54,0,1.03.14,1.5.42.22.13.41.29.57.47s.31.4.46.65ZM168.81,13.4c0-.09,0-.29-.01-.62h-5.06c-.18,0-.33.08-.47.24-.13.16-.19.36-.19.58s.06.42.19.58c.13.16.29.24.47.24h3.28c.37,0,.67,0,.89-.02s.39-.07.52-.16c.14-.1.23-.22.29-.35.05-.14.08-.3.09-.49Z"/>
          <path class="cls-19" d="M177.04,10.46h-3.35c-.17,0-.36,0-.57,0-.21,0-.41.03-.58.08s-.34.15-.48.28c-.13.13-.23.29-.29.47-.05.18-.09.34-.09.47s0,.37,0,.71v2.92c0,.05-.02.08-.07.08h-.83s-.07-.03-.07-.08v-3.01c0-.12,0-.34,0-.64,0-.3.06-.61.18-.92s.33-.58.63-.82c.19-.15.4-.26.62-.34.22-.08.44-.13.64-.16.2-.03.39-.04.56-.04h3.7v.99Z"/>
        </g>
        <g>
          <path class="cls-4" d="M111.24,21.38h-.28s0,0,0-.05v-1.65c0-.11.04-.21.12-.32.08-.1.18-.19.3-.25.12-.07.23-.1.33-.1h.53c.16,0,.31.02.43.07.12.05.22.12.3.21.08.09.14.18.17.27.04.09.06.18.06.25v.1s0,.01,0,.06c0,.04-.02.1-.04.16-.02.06-.05.13-.09.2-.04.07-.1.14-.17.2-.08.06-.17.11-.29.15-.12.04-.25.05-.41.04h-.96v.65ZM111.24,20.44h1.08c.17,0,.31-.04.4-.11.09-.07.15-.15.17-.22s.04-.14.04-.19v-.09c0-.06-.01-.13-.04-.21-.03-.08-.09-.16-.18-.23s-.22-.1-.39-.1h-.58c-.08,0-.15.02-.23.07-.08.05-.14.1-.19.17s-.07.14-.07.2v.7Z"/>
          <path class="cls-4" d="M115.64,19.25h-.99s-.11,0-.17,0c-.06,0-.12,0-.17.02-.05.02-.1.04-.14.08-.04.04-.07.08-.08.14s-.03.1-.03.14c0,.04,0,.11,0,.21v.87s0,.02-.02.02h-.25s-.02,0-.02-.02v-.89s0-.1,0-.19c0-.09.02-.18.05-.27.04-.09.1-.17.19-.24.06-.04.12-.08.18-.1.07-.02.13-.04.19-.05s.12-.01.17-.01h1.1v.29Z"/>
          <path class="cls-4" d="M117.45,18.99c.16,0,.29,0,.41.04.12.04.21.09.28.15.07.06.13.13.17.21.04.07.07.14.09.2s.03.12.04.16,0,.07,0,.06v.1c0,.08-.02.16-.05.26-.04.1-.09.19-.17.28-.08.09-.18.16-.3.21s-.26.08-.43.07h-.33c-.16,0-.31-.01-.43-.07-.12-.05-.22-.12-.3-.21-.08-.09-.13-.18-.17-.28-.04-.1-.05-.18-.05-.26v-.1s0-.01,0-.06.02-.1.04-.16.05-.13.09-.2c.04-.07.1-.14.17-.21.07-.06.17-.12.28-.15.11-.04.25-.05.41-.04h.24ZM117.56,20.44c.22,0,.37-.05.46-.16s.14-.22.15-.34v-.05s0-.08,0-.08v-.05c-.02-.11-.07-.22-.15-.33-.09-.11-.24-.16-.46-.16h-.46c-.22,0-.37.05-.46.16-.09.11-.14.22-.15.33v.05s0,.08,0,.08v.05c.02.12.07.23.16.34.09.1.24.16.46.16h.46Z"/>
          <path class="cls-4" d="M121.02,18.35h.28s0,0,0,.05v1.68c0,.12-.01.22-.04.3s-.07.15-.12.2c-.06.05-.13.09-.22.11-.09.02-.21.04-.35.04h-.57c-.16,0-.31-.01-.43-.07-.12-.05-.23-.12-.3-.21-.08-.09-.14-.18-.17-.27-.04-.1-.06-.18-.06-.26v-.1s0-.01,0-.06c0-.05.02-.1.04-.16.02-.06.05-.13.09-.2s.1-.14.17-.2c.08-.06.17-.11.29-.15.12-.04.25-.05.41-.04h.97v-.66ZM121.02,19.29h-1.08c-.18,0-.31.04-.4.11s-.15.15-.18.23c-.03.08-.04.14-.04.19v.08c0,.06.01.13.04.21.03.08.09.16.18.23.09.07.22.1.4.1h.75c.09,0,.15-.02.2-.06.05-.04.08-.09.1-.15.02-.07.03-.15.03-.24v-.71Z"/>
          <path class="cls-4" d="M123.5,20.4c.08-.03.14-.07.19-.12s.09-.12.12-.2c.03-.08.04-.16.04-.24v-.9h.29v.9c0,.16-.04.31-.12.45-.08.14-.19.25-.32.33-.13.08-.28.12-.44.12h-.56c-.16,0-.3-.04-.44-.12-.13-.08-.24-.19-.32-.33-.08-.14-.12-.29-.12-.45v-.9h.29s0,0,0,.02v.87c0,.08.01.16.04.24.03.08.07.15.12.2s.11.09.19.12c.08.03.15.04.23.04h.56c.08,0,.15-.01.23-.04Z"/>
          <path class="cls-4" d="M125.29,19.32c-.08.03-.14.07-.19.12s-.09.12-.12.19c-.03.08-.04.16-.04.23s.01.16.04.23c.03.08.07.14.12.19s.12.09.19.12.16.04.23.04h1.43v.29h-1.43c-.16,0-.3-.04-.44-.12-.13-.08-.24-.18-.32-.32-.08-.13-.12-.28-.12-.44s.04-.3.12-.44c.08-.13.18-.24.32-.32.13-.08.28-.12.44-.12h1.43v.29h-1.43c-.08,0-.16.01-.23.04Z"/>
          <path class="cls-4" d="M128.98,20.44v.29h-.54c-.15,0-.3-.04-.43-.11-.13-.08-.24-.18-.32-.31-.08-.13-.12-.27-.12-.43v-1.55h.29s0,0,0,.02v.64h.67s0,0,0,.02v.26s0,0-.03,0h-.65v.62c0,.13.03.23.1.32s.13.15.21.19c.04.02.09.04.16.05.07,0,.13,0,.18,0h.48Z"/>
          <path class="cls-4" d="M130.83,18.99c.16,0,.29,0,.41.04.12.04.21.09.28.15.07.06.13.13.17.21.04.07.07.14.09.2.02.06.03.12.04.16s0,.07,0,.06v.1c0,.08-.02.16-.06.26-.04.1-.09.19-.17.28-.08.09-.18.16-.3.21s-.26.08-.43.07h-.33c-.16,0-.3-.01-.43-.07-.12-.05-.22-.12-.3-.21-.08-.09-.13-.18-.17-.28-.04-.1-.06-.18-.06-.26v-.1s0-.01,0-.06.02-.1.04-.16.05-.13.09-.2c.04-.07.1-.14.17-.21.08-.06.17-.12.28-.15.12-.04.25-.05.41-.04h.24ZM130.95,20.44c.22,0,.37-.05.46-.16s.14-.22.15-.34v-.05s0-.08,0-.08v-.05c-.02-.11-.07-.22-.15-.33-.09-.11-.24-.16-.46-.16h-.46c-.22,0-.37.05-.46.16-.09.11-.14.22-.15.33v.05s0,.08,0,.08v.05c.02.12.07.23.16.34.09.1.24.16.46.16h.46Z"/>
          <path class="cls-4" d="M134.26,19.73c.12,0,.22.05.31.12s.13.21.13.41c0,.11-.03.2-.08.27-.05.07-.12.12-.2.16-.08.03-.16.05-.24.05h-1.78v-.29s1.77,0,1.77,0c.06,0,.12-.01.17-.04.05-.03.08-.09.08-.19,0-.06-.02-.11-.05-.14-.04-.03-.08-.04-.12-.05s-.07,0-.08,0h-1.29c-.07,0-.14-.02-.22-.06-.08-.04-.14-.09-.2-.18-.06-.08-.08-.19-.08-.32,0-.11.03-.21.09-.28.06-.07.13-.13.21-.16.08-.04.16-.05.23-.06h1.61v.29h-1.59c-.07,0-.13.01-.18.04-.06.03-.08.1-.08.21,0,.09.03.15.08.18.05.03.1.04.15.04h1.38Z"/>
          <path class="cls-4" d="M138.35,18.97v1.52c-.01.17-.05.33-.13.45-.09.16-.2.27-.32.34-.12.07-.27.11-.45.11h-1.24s-.02,0-.02-.02v-.25s0-.02.02-.02h1.24c.06,0,.12,0,.17-.01.05,0,.09-.03.13-.05.05-.04.1-.07.13-.1s.06-.06.08-.11l.04-.09h-1.13c-.13,0-.25-.02-.36-.08-.11-.05-.19-.11-.26-.18-.07-.07-.12-.15-.18-.26-.05-.11-.08-.22-.08-.33v-.92s0-.02,0-.02h.3s0,0,0,.02v.94c0,.06.01.12.04.18s.04.11.07.13c.01.01.04.04.07.07.03.03.08.07.14.09.06.03.13.05.22.06h1.24s0-1.47,0-1.47c0-.02,0-.02.02-.02h.25s.02,0,.02.02Z"/>
          <path class="cls-4" d="M141.57,19.73c.12,0,.22.05.31.12.09.07.13.21.13.41,0,.11-.03.2-.08.27-.05.07-.12.12-.2.16-.08.03-.16.05-.24.05h-1.78v-.29s1.77,0,1.77,0c.06,0,.12-.01.17-.04.05-.03.08-.09.08-.19,0-.06-.02-.11-.05-.14-.04-.03-.08-.04-.12-.05s-.07,0-.08,0h-1.29c-.07,0-.14-.02-.22-.06-.08-.04-.14-.09-.2-.18-.06-.08-.08-.19-.08-.32,0-.11.03-.21.09-.28.06-.07.13-.13.21-.16.08-.04.16-.05.23-.06h1.61v.29h-1.59c-.07,0-.13.01-.18.04-.06.03-.08.1-.08.21,0,.09.03.15.08.18.05.03.1.04.15.04h1.38Z"/>
          <path class="cls-4" d="M144.56,19.09c.08.07.14.14.17.23.03.08.04.16.04.22,0,.31-.17.48-.52.49h-1.38s0,.07,0,.07c0,.08,0,.14.02.19s.04.08.07.1c.03.02.08.04.14.04.06,0,.14.01.24.01h1.29s.06.02.06.05v.17s-.02.06-.06.06h-1.33c-.19,0-.33-.02-.44-.06-.11-.04-.18-.11-.23-.2s-.07-.21-.07-.37v-.44c0-.1.04-.21.12-.31.08-.1.18-.19.3-.26s.25-.1.38-.1h.84c.15,0,.27.03.36.1ZM144.36,19.72s.05-.03.08-.06c.02-.02.03-.04.04-.07s.01-.06.01-.11c0-.02,0-.05-.02-.08-.01-.03-.03-.06-.07-.09-.03-.03-.08-.04-.13-.04h-.92c-.07,0-.14.02-.21.06s-.14.1-.19.17-.08.15-.08.23h1.37c.06,0,.1,0,.12-.01Z"/>
          <path class="cls-4" d="M147.28,19.25h-.99s-.11,0-.17,0c-.06,0-.12,0-.17.02-.05.02-.1.04-.14.08-.04.04-.07.08-.08.14-.02.05-.03.1-.03.14,0,.04,0,.11,0,.21v.87s0,.02-.02.02h-.25s-.02,0-.02-.02v-.89s0-.1,0-.19c0-.09.02-.18.05-.27.03-.09.1-.17.19-.24.06-.04.12-.08.18-.1.07-.02.13-.04.19-.05.06,0,.12-.01.17-.01h1.1v.29Z"/>
          <path class="cls-4" d="M147.98,18.95l1.03,1.55h.04l1.03-1.55h.35l-1.04,1.55c-.08.13-.14.21-.16.24h-.4c-.05-.07-.1-.15-.16-.24l-1.03-1.55h.35Z"/>
          <path class="cls-4" d="M151.12,18.14v.31h-.31v-.31h.31ZM151.12,18.85v1.88h-.31v-1.88h.31Z"/>
          <path class="cls-4" d="M152.36,19.32c-.08.03-.14.07-.19.12s-.09.12-.12.19c-.03.08-.04.16-.04.23s.01.16.04.23c.03.08.07.14.12.19s.12.09.19.12.16.04.23.04h1.43v.29h-1.43c-.16,0-.3-.04-.44-.12-.13-.08-.24-.18-.32-.32-.08-.13-.12-.28-.12-.44s.04-.3.12-.44c.08-.13.18-.24.32-.32.13-.08.28-.12.44-.12h1.43v.29h-1.43c-.08,0-.16.01-.23.04Z"/>
          <path class="cls-4" d="M154.95,18.14v.31h-.31v-.31h.31ZM154.95,18.85v1.88h-.31v-1.88h.31Z"/>
          <path class="cls-4" d="M156.83,18.99c.16,0,.29,0,.41.04s.21.09.28.15c.07.06.13.13.17.21.04.07.07.14.09.2.02.06.03.12.04.16s0,.07,0,.06v.1c0,.08-.02.16-.05.26-.04.1-.09.19-.17.28-.08.09-.18.16-.3.21s-.26.08-.43.07h-.33c-.16,0-.3-.01-.43-.07-.12-.05-.22-.12-.3-.21-.08-.09-.13-.18-.17-.28-.04-.1-.06-.18-.06-.26v-.1s0-.01,0-.06.02-.1.04-.16.05-.13.09-.2c.04-.07.1-.14.17-.21.08-.06.17-.12.28-.15.12-.04.25-.05.41-.04h.24ZM156.94,20.44c.22,0,.37-.05.46-.16.09-.1.14-.22.15-.34v-.05s0-.08,0-.08v-.05c-.02-.11-.07-.22-.15-.33-.09-.11-.24-.16-.46-.16h-.46c-.22,0-.37.05-.46.16-.09.11-.14.22-.15.33v.05s0,.08,0,.08v.05c.02.12.07.23.16.34.09.1.24.16.46.16h.46Z"/>
          <path class="cls-4" d="M160.25,19.73c.12,0,.22.05.31.12.09.07.13.21.13.41,0,.11-.03.2-.08.27-.05.07-.12.12-.2.16-.08.03-.16.05-.24.05h-1.78v-.29s1.77,0,1.77,0c.06,0,.12-.01.17-.04.05-.03.08-.09.08-.19,0-.06-.02-.11-.05-.14-.04-.03-.08-.04-.12-.05s-.07,0-.08,0h-1.29c-.07,0-.14-.02-.22-.06-.08-.04-.14-.09-.2-.18-.06-.08-.08-.19-.08-.32,0-.11.03-.21.09-.28.06-.07.13-.13.21-.16.08-.04.16-.05.23-.06h1.61v.29h-1.59c-.07,0-.13.01-.18.04-.06.03-.08.1-.08.21,0,.09.03.15.08.18.05.03.1.04.15.04h1.38Z"/>
        </g>
        <rect class="cls-1" x="172.72" y="18.11" width="4.16" height="1.32"/>
        <rect class="cls-20" x="172.72" y="19.43" width="4.16" height=".66"/>
        <rect class="cls-2" x="172.72" y="20.08" width="4.16" height=".66"/>
        <rect class="cls-18" x="167.63" y="18.11" width="1.39" height="2.63"/>
        <rect class="cls-18" x="170.41" y="18.11" width="1.39" height="2.63"/>
        <rect class="cls-6" x="169.02" y="18.11" width="1.39" height="2.63"/>
        <polyline class="cls-14" points="166.7 20.74 162.54 20.74 162.54 19.43 166.7 19.43"/>
        <rect class="cls-16" x="162.54" y="18.11" width="1.39" height="1.32"/>
        <rect class="cls-6" x="163.93" y="18.11" width="2.77" height="1.32"/>
        <polygon class="cls-6" points="162.9 18.67 163.16 18.67 163.24 18.44 163.31 18.67 163.56 18.67 163.36 18.81 163.44 19.04 163.23 18.89 163.03 19.04 163.11 18.81 162.9 18.67"/>
      </g>
      <g>
        <path class="cls-9" d="M146.89,160.64h11.37c.5,0,.98.2,1.34.55l4.1,4.08c.36.36.56.84.56,1.34v15.24c0,1.05-.85,1.9-1.9,1.9h-13.57c-1.05,0-1.9-.85-1.9-1.9v-21.21Z"/>
        <polygon class="cls-6" points="148.47 161.97 158.35 161.97 158.35 166.47 162.67 166.47 162.67 182.4 148.47 182.4 148.47 161.97"/>
        <path class="cls-9" d="M161.03,175.13h-10.84c-.22,0-.4-.18-.4-.4s.18-.4.4-.4h10.84c.22,0,.4.18.4.4s-.18.4-.4.4"/>
        <path class="cls-9" d="M161.06,170.62h-10.84c-.22,0-.4-.18-.4-.4s.18-.4.4-.4h10.84c.22,0,.4.18.4.4s-.18.4-.4.4"/>
        <path class="cls-9" d="M155.71,166.35h-5.88c-.22,0-.4-.18-.4-.4s.18-.4.4-.4h5.88c.22,0,.4.18.4.4s-.18.4-.4.4"/>
        <path class="cls-3" d="M159.51,185.7c0,1.66-1.35,3.01-3.01,3.01s-3.01-1.35-3.01-3.01,1.35-3.01,3.01-3.01,3.01,1.35,3.01,3.01"/>
        <path class="cls-6" d="M158.95,185.7c0,1.35-1.09,2.44-2.44,2.44s-2.44-1.09-2.44-2.44,1.09-2.44,2.44-2.44,2.44,1.09,2.44,2.44"/>
        <path class="cls-3" d="M168.11,170.61c0,1.66-1.35,3.01-3.01,3.01s-3.01-1.35-3.01-3.01,1.34-3.01,3.01-3.01,3.01,1.35,3.01,3.01"/>
        <path class="cls-6" d="M167.55,170.61c0,1.35-1.09,2.44-2.44,2.44s-2.44-1.09-2.44-2.44,1.09-2.44,2.44-2.44,2.44,1.09,2.44,2.44"/>
        <path class="cls-3" d="M177.04,185.7c0,1.66-1.35,3.01-3.01,3.01s-3.01-1.35-3.01-3.01,1.35-3.01,3.01-3.01,3.01,1.35,3.01,3.01"/>
        <path class="cls-6" d="M176.48,185.7c0,1.35-1.09,2.44-2.44,2.44s-2.44-1.09-2.44-2.44,1.09-2.44,2.44-2.44,2.44,1.09,2.44,2.44"/>
        <path class="cls-12" d="M156.56,185.22l8.25-14.29c.19-.34.68-.34.87,0l8.25,14.29c.16.27-.04.61-.35.61h-16.67c-.31,0-.51-.34-.35-.61"/>
        <path class="cls-9" d="M167.04,180.03l-1.68-9.27c-.02-.12-.19-.12-.21,0l-1.68,9.27,1.79-3.1,1.79,3.1Z"/>
        <path class="cls-9" d="M164.95,182.64l8.86,3.03c.1.03.17-.09.09-.16l-7.19-6.04,1.83,3.17h-3.59Z"/>
        <path class="cls-9" d="M163.74,179.52l-7.17,6.01c-.07.06,0,.18.08.15l8.91-3.05-3.66.04,1.84-3.14Z"/>
        <polygon class="cls-6" points="161.95 182.64 165.24 176.93 168.54 182.64 161.95 182.64"/>
      </g>
      <g>
        <path class="cls-12" d="M110.78,101.58l21.07-36.49c.5-.86,1.74-.86,2.23,0l21.07,36.49c.4.69-.1,1.56-.9,1.56h-42.56c-.8,0-1.3-.87-.9-1.56"/>
        <path class="cls-9" d="M137.52,88.33l-4.29-23.68c-.05-.3-.49-.3-.54,0l-4.31,23.68,4.58-7.91,4.56,7.91Z"/>
        <path class="cls-9" d="M132.2,94.99l22.61,7.73c.25.09.44-.24.23-.41l-18.36-15.43,4.69,8.1h-9.18Z"/>
        <path class="cls-9" d="M129.12,87.03l-18.32,15.34c-.19.16-.02.46.22.38l22.76-7.79-9.35.09,4.69-8.03Z"/>
        <polygon class="cls-6" points="124.53 94.99 132.94 80.42 141.36 94.99 124.53 94.99"/>
        <path class="cls-9" d="M142.95,107.91c.86,0,.99-.4.27-.89l-8.83-7.02c-.71-.49-1.88-.49-2.6,0l-8.97,7.03c-.72.48-.6.88.27.88h19.85Z"/>
        <rect class="cls-9" x="131.57" y="111.14" width="3.29" height="7.79" rx=".63" ry=".63"/>
        <rect class="cls-9" x="138.54" y="111.14" width="3.29" height="7.79" rx=".63" ry=".63"/>
        <rect class="cls-9" x="124.6" y="111.14" width="3.29" height="7.79" rx=".63" ry=".63"/>
        <path class="cls-9" d="M138.54,119.71s0,.01,0,.01c0,0,0-.01,0-.02t0,0"/>
        <path class="cls-9" d="M124.6,119.71s0,.01,0,.01c0,0,0-.01,0-.02t0,0"/>
        <path class="cls-9" d="M122.24,120.86c0,.35.28.63.63.63h20.19c.34,0,.63-.28.63-.63v-.37c0-.35-.28-.63-.63-.63h-.63c-.35,0-.62-.02-.62-.05,0-.03-.05-.25-.13-.41-.08-.17-.77-.31-1.11-.31h-.78c-.34,0-.77.06-.94.14-.17.08-.32.5-.31.53,0,.03-.26.11-.61.11h-2.48c-.34,0-.62-.02-.62-.05,0-.03-.05-.25-.13-.41-.08-.17-.77-.31-1.11-.31h-.78c-.35,0-.77.06-.94.14-.17.08-.32.5-.31.53,0,.03-.26.11-.61.11h-2.48c-.35,0-.62-.02-.62-.05,0-.03-.05-.25-.13-.41-.08-.17-.77-.31-1.11-.31h-.78c-.35,0-.77.06-.94.14-.17.08-.32.5-.31.53s-.26.11-.61.11h-1.13c-.35,0-.63.28-.63.63v.37Z"/>
        <path class="cls-9" d="M138.85,110.75c.17.08.6.14.94.14h.78c.35,0,.77-.06.94-.14.17-.08.31-.57.31-.68s.28-.19.63-.19h.6c.35,0,.63-.28.63-.63v-.37c0-.35-.28-.63-.63-.63h-20.19c-.35,0-.63.28-.63.63v.37c0,.35.28.63.63.63h1.1c.35,0,.63.09.63.19s.06.33.14.51c.08.17.77.31,1.12.31h.78c.35,0,.77-.06.94-.14.17-.08.31-.57.31-.68s.28-.19.63-.19h2.42c.34,0,.63.09.63.19s.06.33.14.51c.08.17.77.31,1.11.31h.78c.35,0,.77-.06.94-.14.17-.08.31-.57.31-.68s.28-.19.63-.19h2.42c.35,0,.63.09.63.19s.14.6.31.68"/>
        <rect class="cls-9" x="120.06" y="121.71" width="25.8" height="1.62" rx=".69" ry=".69"/>
        <path class="cls-6" d="M134.94,106.91c-.14.25-.34.45-.6.62-.26.16-.58.26-.95.28v.69h-.46v-.69c-.51-.04-.93-.21-1.26-.5s-.49-.65-.49-1.09h.82c.02.24.11.45.27.62.16.18.38.29.66.33v-2.13c-.38-.1-.69-.2-.92-.3s-.43-.26-.6-.48c-.16-.21-.25-.5-.25-.87,0-.46.16-.84.48-1.14.32-.3.75-.47,1.28-.5v-.71h.46v.71c.48.04.87.19,1.16.46.29.27.46.62.51,1.05h-.82c-.03-.2-.12-.38-.26-.54-.15-.16-.34-.27-.59-.32v2.07c.37.1.68.19.91.29.23.1.43.26.59.47.16.21.24.51.24.88,0,.27-.07.53-.2.78M132.21,104c.16.15.41.27.72.37v-1.96c-.29.03-.53.12-.7.28-.18.16-.26.39-.26.68s.08.49.25.64M134.11,106.84c.17-.19.26-.41.26-.67,0-.28-.08-.49-.25-.64-.17-.15-.41-.27-.72-.36v2.01c.31-.03.55-.14.72-.33"/>
        <path class="cls-9" d="M164.91,70.43l-8.01-.04v.02l-5.84-.03c-.9,0-1.64.73-1.65,1.63v.02c0,.69.42,1.28,1.02,1.52h-1.74c-.9-.01-1.64.72-1.65,1.62v.02c0,.53.25,1,.64,1.3h-.08c-.9,0-1.64.73-1.65,1.63v.02c0,.91.73,1.64,1.63,1.65h2.04c-.79.12-1.4.79-1.41,1.62,0,.9.73,1.64,1.63,1.65l6.98.03h1s14.08.07,14.08.07l.07-10.05h-1.77c-1.08-3.22-5.3-2.71-5.3-2.71"/>
        <path class="cls-10" d="M174.48,82.69l.04-9.08h-4.5s-1.28-1.56-2.03-2.19c-.65-.56-1.42-.56-2.38-.56-.54,0-14.12-.03-14.12-.03-.72,0-1.31.58-1.31,1.3,0,.72.58,1.31,1.3,1.31l5.08.04v.46l-7.57-.05c-.72,0-1.31.58-1.31,1.29,0,.72.58,1.31,1.3,1.31l7.57.05v.46s-8.68-.06-8.68-.06c-.72,0-1.31.58-1.31,1.3,0,.72.58,1.31,1.3,1.31l8.67.06v.46s-6.27-.04-6.27-.04c-.72,0-1.31.58-1.31,1.3,0,.72.58,1.31,1.3,1.31l9.01.05s.01,0,.02,0h15.21Z"/>
        <rect class="cls-5" x="143.37" y="65.41" width="17.47" height="22.01"/>
        <rect class="cls-15" x="144.3" y="66.24" width="15.69" height="20.43"/>
        <path class="cls-6" d="M158.06,78.87h-11.9c-.23,0-.42-.19-.42-.42s.19-.42.42-.42h11.9c.23,0,.42.19.42.42s-.19.42-.42.42"/>
        <path class="cls-6" d="M157.73,70.86h-11.48c-.23,0-.42-.19-.42-.42s.19-.42.42-.42h11.48c.23,0,.42.19.42.42s-.19.42-.42.42"/>
        <path class="cls-6" d="M157.77,72.72h-11.48c-.23,0-.42-.19-.42-.42s.19-.42.42-.42h11.48c.23,0,.42.19.42.42s-.19.42-.42.42"/>
        <path class="cls-6" d="M158.06,80.66h-11.9c-.23,0-.42-.19-.42-.42s.19-.42.42-.42h11.9c.23,0,.42.19.42.42s-.19.42-.42.42"/>
        <path class="cls-6" d="M158.06,82.35h-11.9c-.23,0-.42-.19-.42-.42s.19-.42.42-.42h11.9c.23,0,.42.19.42.42s-.19.42-.42.42"/>
        <path class="cls-6" d="M153.94,84.05h-7.79c-.23,0-.42-.19-.42-.42s.19-.42.42-.42h7.79c.23,0,.42.19.42.42s-.19.42-.42.42"/>
        <path class="cls-6" d="M157.8,69.13h-7.32c-.23,0-.42-.19-.42-.42s.19-.42.42-.42h7.32c.23,0,.42.19.42.42s-.19.42-.42.42"/>
        <path class="cls-6" d="M151.88,76.55h-4.96c-.63,0-1.14-.51-1.14-1.14s.51-1.14,1.14-1.14h4.96c.63,0,1.14.51,1.14,1.14s-.51,1.14-1.14,1.14"/>
        <path class="cls-6" d="M157.17,76.55h-1.73c-.63,0-1.14-.51-1.14-1.14s.51-1.14,1.14-1.14h1.73c.63,0,1.14.51,1.14,1.14s-.51,1.14-1.14,1.14"/>
        <path class="cls-17" d="M154.54,69.23c0,4.33-3.51,7.84-7.84,7.84s-7.85-3.51-7.85-7.84,3.51-7.84,7.85-7.84,7.84,3.51,7.84,7.84"/>
        <path class="cls-6" d="M153.35,69.23c0,3.68-2.98,6.66-6.66,6.66s-6.66-2.98-6.66-6.66,2.98-6.66,6.66-6.66,6.66,2.98,6.66,6.66"/>
        <path class="cls-8" d="M149.46,72.55c-.21.38-.52.7-.93.96-.41.26-.9.4-1.47.44v1.07h-.71v-1.07c-.8-.07-1.45-.33-1.96-.77-.5-.45-.76-1.01-.77-1.7h1.28c.04.37.17.69.42.97.24.27.58.44,1.02.52v-3.31c-.59-.15-1.07-.3-1.43-.46-.36-.16-.67-.4-.92-.74-.26-.34-.38-.79-.38-1.35,0-.71.25-1.3.75-1.77.5-.47,1.16-.73,1.99-.78v-1.1h.71v1.1c.75.06,1.35.3,1.81.72.46.42.72.96.79,1.63h-1.28c-.04-.31-.18-.59-.41-.84-.23-.25-.53-.42-.91-.5v3.23c.58.15,1.05.3,1.42.46.37.15.67.4.92.73.25.34.38.79.38,1.36,0,.42-.11.83-.32,1.21M145.22,68.02c.26.23.63.42,1.12.57v-3.05c-.46.04-.82.19-1.1.44-.27.25-.41.6-.41,1.05s.13.76.38.99M148.17,72.45c.27-.29.4-.64.4-1.04,0-.43-.13-.77-.4-1-.26-.23-.64-.42-1.12-.56v3.12c.48-.05.85-.22,1.12-.52"/>
        <path class="cls-21" d="M164.23,77.83h-5.9c-.64-.01-1.41-.73-1.41-1.71,0-.6.45-1.45,1.43-1.45h4.87s1.76-3.58,1.76-3.58c1.59,0,1.89.03,2.95.73.62.41,1.98,2.04,1.98,2.04l4.6.06-.04,8.77-5.1-.02-5.15-4.83Z"/>
        <path class="cls-9" d="M174.48,82.43v.28s-5.15-.03-5.15-.03l-5.15-4.83h-5.85c-.36-.01-.75-.21-1.05-.54-.32-.36-.5-.82-.5-1.31h0c0-.66.49-1.59,1.57-1.59h4.87v.29h-4.87c-.89-.01-1.29.75-1.29,1.3h0c0,.42.15.82.43,1.12.24.27.56.44.84.44h5.96s5.15,4.85,5.15,4.85l5.04.02Z"/>
        <rect class="cls-9" x="169" y="75.33" width="10.98" height="5.06" transform="translate(95.78 251.96) rotate(-89.72)"/>
        <path class="cls-9" d="M117,86.45v-17.47h2.26v-3.58h-3.03l-5.47-3.64c-1.08-.72-2.66-.72-3.73,0l-5.47,3.64h-3.03v3.58h2.26v17.47h-4.85v3.25h25.92v-3.25h-4.85Z"/>
        <rect class="cls-6" x="103.61" y="69.8" width="4.15" height="2.8"/>
        <rect class="cls-6" x="110.47" y="69.8" width="4.15" height="2.8"/>
        <rect class="cls-6" x="103.61" y="73.6" width="4.15" height="2.8"/>
        <rect class="cls-6" x="110.47" y="73.6" width="4.15" height="2.8"/>
        <rect class="cls-6" x="103.61" y="77.48" width="4.15" height="2.8"/>
        <rect class="cls-6" x="110.47" y="77.48" width="4.15" height="2.8"/>
        <rect class="cls-6" x="103.61" y="81.3" width="4.15" height="2.8"/>
        <rect class="cls-6" x="110.47" y="81.3" width="4.15" height="2.8"/>
        <path class="cls-6" d="M111.78,65.43c0,1.26-1.29,2.27-2.89,2.27s-2.88-1.02-2.88-2.27,1.29-2.27,2.88-2.27,2.89,1.02,2.89,2.27"/>
        <path class="cls-9" d="M111.38,65.43c0,1.09-1.12,1.96-2.49,1.96s-2.49-.88-2.49-1.96,1.12-1.96,2.49-1.96,2.49.88,2.49,1.96"/>
        <path class="cls-7" d="M95.16,73.39c0,.77-.62,1.39-1.39,1.39s-1.39-.62-1.39-1.39.62-1.39,1.39-1.39,1.39.62,1.39,1.39"/>
        <path class="cls-7" d="M96.1,75.26c-.13-.07-.28-.12-.44-.12h-4.09c-.24,0-.46.1-.62.26-.27.17-.54.47-.54.58v5.76c0,.17.24.32.53.32s.53-.14.53-.32v-4.45s.07,0,.1,0h.38v11.49c0,.36.34.66.77.66s.77-.3.77-.66v-6.65s.06,0,.09,0h.4s.01,0,.02,0v6.65c0,.36.34.66.77.66s.77-.3.77-.66v-11.49h.13c.08,0,.16-.01.24-.03v4.47c0,.17.24.32.53.32s.53-.14.53-.32v-5.76c0-.17-.56-.69-.86-.72"/>
        <path class="cls-7" d="M100.6,75.26c0,.77-.62,1.39-1.39,1.39s-1.39-.62-1.39-1.39.62-1.39,1.39-1.39,1.39.62,1.39,1.39"/>
        <path class="cls-7" d="M101.54,77.14c-.13-.07-.28-.12-.44-.12h-4.09c-.24,0-.46.1-.62.26-.27.17-.54.47-.54.58v5.76c0,.17.24.32.53.32s.53-.14.53-.32v-4.45s.07,0,.1,0h.38v11.49c0,.36.34.66.77.66s.77-.3.77-.66v-6.65s.06,0,.09,0h.4s.01,0,.02,0v6.65c0,.36.34.66.77.66s.77-.3.77-.66v-11.49h.13c.08,0,.16-.01.24-.03v4.47c0,.17.24.32.53.32s.53-.14.53-.32v-5.76c0-.17-.56-.69-.86-.72"/>
      </g>
    </g>
  </g>
</svg>