<?xml version="1.0" encoding="UTF-8"?>
<svg id="Capa_2" xmlns="http://www.w3.org/2000/svg" viewBox="0 0 128.76 204.39">
  <defs>
    <style>
      .cls-1 {
        fill: #f9cf16;
      }

      .cls-2 {
        fill: #cd142a;
      }

      .cls-3 {
        fill: #646365;
      }

      .cls-4 {
        fill: #888688;
      }

      .cls-5 {
        fill: #868486;
      }

      .cls-6 {
        fill: #fff;
      }

      .cls-7 {
        fill: #625f60;
      }

      .cls-8 {
        fill: #4780b4;
      }

      .cls-9 {
        fill: #d00e4d;
      }

      .cls-10 {
        fill: #d00e4c;
      }

      .cls-11 {
        fill: #d22e1f;
      }

      .cls-12 {
        fill: #efc89b;
      }

      .cls-13 {
        fill: #636061;
      }

      .cls-14 {
        fill: #9d9a9c;
      }

      .cls-15 {
        fill: #d20f48;
      }

      .cls-16 {
        fill: #5a5a5b;
      }

      .cls-17 {
        fill: #1d458c;
      }

      .cls-18 {
        fill: #48a98e;
      }

      .cls-19 {
        fill: #e1222c;
      }

      .cls-20 {
        fill: #feffff;
      }

      .cls-21 {
        fill: #4eb692;
      }

      .cls-22 {
        fill: #828384;
      }

      .cls-23 {
        fill: #038461;
      }

      .cls-24 {
        fill: #1b4180;
      }
    </style>
  </defs>
  <g id="Capa_1-2" data-name="Capa_1">
    <g>
      <path class="cls-7" d="M58.28,193.93h1.14v8.37h-1.14v-8.37Z"/>
      <path class="cls-7" d="M63.81,197.74c-.25.09-.46.21-.62.38s-.29.37-.38.63-.13.51-.13.76.04.5.13.76.21.46.38.63.37.29.62.38.5.13.75.13h4.61v.93h-4.61c-.51,0-.98-.13-1.41-.38-.43-.25-.77-.59-1.03-1.03-.25-.43-.38-.9-.38-1.41s.12-.98.38-1.41c.25-.43.6-.78,1.03-1.03.43-.25.9-.38,1.41-.38h4.61v.93h-4.61c-.25,0-.5.04-.75.13Z"/>
      <path class="cls-7" d="M75.3,196.66c.5-.02.94.02,1.32.14s.68.28.92.49.42.43.56.66.23.45.29.66.1.38.11.53.02.21.02.19v.33c0,.24-.06.52-.18.83s-.3.61-.55.89-.57.51-.97.69-.85.25-1.38.22h-1.05c-.52.03-.98-.05-1.38-.22s-.72-.4-.97-.69-.43-.58-.55-.89-.18-.59-.18-.83v-.33s0-.04.02-.19.05-.33.11-.53.16-.42.29-.66.32-.46.56-.66.55-.37.92-.49.81-.16,1.32-.14h.76ZM75.66,201.36c.7,0,1.19-.17,1.47-.51s.45-.7.49-1.09v-.16s.01-.26.01-.26v-.18c-.05-.37-.22-.72-.5-1.06s-.77-.51-1.48-.51h-1.49c-.7,0-1.2.17-1.48.51s-.44.7-.48,1.06l-.02.18v.25l.02.18c.04.39.2.75.49,1.09s.78.51,1.47.51h1.49Z"/>
      <path class="cls-7" d="M87.63,198c.25.44.38.92.38,1.44v2.87h-.94v-2.87c0-.26-.04-.52-.13-.77s-.21-.47-.38-.64c-.16-.17-.36-.3-.61-.39s-.49-.13-.74-.13h-1.78c-.48,0-1.1,0-1.86,0,0-.22,0-.01,0,.62s0,1.06,0,1.25v2.94h-.94v-5.74h4.58c.5,0,.97.13,1.4.38.43.26.77.61,1.03,1.05Z"/>
      <path class="cls-7" d="M94.15,196.66c.5-.02.94.02,1.32.14s.68.28.92.49.42.43.56.66.23.45.29.66.1.38.11.53.02.21.02.19v.33c0,.24-.06.52-.18.83s-.3.61-.55.89-.57.51-.97.69-.85.25-1.38.22h-1.05c-.52.03-.98-.05-1.38-.22s-.72-.4-.97-.69-.43-.58-.55-.89-.18-.59-.18-.83v-.33s0-.04.02-.19.05-.33.11-.53.16-.42.29-.66.32-.46.56-.66.55-.37.92-.49.81-.16,1.32-.14h.76ZM94.52,201.36c.7,0,1.19-.17,1.47-.51s.45-.7.49-1.09v-.16s.01-.26.01-.26v-.18c-.05-.37-.22-.72-.5-1.06s-.77-.51-1.48-.51h-1.49c-.7,0-1.2.17-1.48.51s-.44.7-.48,1.06l-.02.18v.25l.02.18c.04.39.2.75.49,1.09s.78.51,1.47.51h1.49Z"/>
      <path class="cls-7" d="M109.58,197.99c.23.4.35.9.35,1.49,0-.09,0-.07,0,.06h0v.66c0,.55-.11.98-.32,1.28s-.46.5-.76.61-.61.16-.93.17-.57.02-.73.02h-3.01c-.47,0-.87-.17-1.2-.52s-.5-.76-.5-1.24.17-.9.5-1.25c.33-.35.73-.52,1.2-.52h4.61c0-.07-.02-.13-.04-.19s-.04-.11-.05-.13c-.09-.18-.21-.34-.38-.48s-.34-.26-.54-.34c-.2-.08-.41-.12-.62-.12h-4.44v-.9c0-.08,0-.1,0-.08h4.44c.51,0,.99.13,1.43.4.21.12.39.27.55.45s.3.38.44.62ZM108.91,200.32c0-.08,0-.28-.01-.59h-4.83c-.17,0-.32.08-.45.23-.12.16-.18.34-.18.56s.06.4.18.56c.12.15.27.23.45.23h3.13c.36,0,.64,0,.85-.02s.38-.07.5-.16c.13-.09.22-.21.27-.34s.08-.29.09-.47Z"/>
      <path class="cls-7" d="M113,204.37h-.91c0,.05,0,0,0-.16v-5.33c0-.35.13-.69.4-1.02s.59-.6.98-.81.75-.31,1.08-.31h1.71c.53-.02.99.05,1.39.22s.72.39.97.67.44.57.56.88.18.58.18.82v.32s0,.04-.02.18-.05.32-.11.52-.16.42-.3.65-.33.45-.57.65-.55.36-.92.48-.82.16-1.32.14h-3.11v2.1ZM113,201.35h3.47c.57,0,1-.12,1.29-.35s.48-.47.57-.73.13-.46.13-.62v-.28c0-.19-.04-.42-.13-.68s-.28-.5-.57-.73-.72-.33-1.27-.33h-1.88c-.24,0-.49.07-.74.22s-.46.34-.62.56-.24.45-.24.66v2.26Z"/>
      <path class="cls-7" d="M122.41,204.37h-.91c0,.05,0,0,0-.16v-5.33c0-.35.13-.69.4-1.02s.59-.6.98-.81.75-.31,1.08-.31h1.71c.53-.02.99.05,1.39.22s.72.39.97.67.44.57.56.88.18.58.18.82v.32s0,.04-.02.18-.05.32-.11.52-.16.42-.3.65-.33.45-.57.65-.55.36-.92.48-.82.16-1.32.14h-3.11v2.1ZM122.41,201.35h3.47c.57,0,1-.12,1.29-.35s.48-.47.57-.73.13-.46.13-.62v-.28c0-.19-.04-.42-.13-.68s-.28-.5-.57-.73-.72-.33-1.27-.33h-1.88c-.24,0-.49.07-.74.22s-.46.34-.62.56-.24.45-.24.66v2.26Z"/>
    </g>
    <g>
      <path class="cls-10" d="M40.5,24.67c.14.02.36.08.68.19.31.11.68.32,1.09.63.41.31.77.78,1.08,1.4.31.62.46,1.41.46,2.36s-.18,1.67-.54,2.27c-.36.6-.79,1.06-1.29,1.35-.5.29-.97.47-1.42.53h-7.62v-8.73h7.57ZM40.44,32.22c.23-.04.52-.14.84-.3.32-.16.63-.46.92-.9.29-.43.43-1.03.43-1.78,0-.88-.15-1.57-.45-2.07-.3-.5-.62-.84-.95-1.01-.33-.18-.61-.28-.84-.32h-6.28v6.38h6.33Z"/>
      <rect class="cls-10" x="44.63" y="24.68" width="1.19" height="8.7"/>
      <path class="cls-10" d="M52.3,27.06c.77-.01,1.46-.13,2.06-.34.61-.22,1.08-.43,1.4-.65.33-.22.55-.38.66-.49l.96-.91v8.75h-1.14v-6.32c-.5.3-1.08.55-1.75.76-.66.21-1.39.32-2.18.33-.83,0-1.61-.1-2.33-.32-.72-.22-1.36-.49-1.92-.82v6.36h-1.14v-8.75l1,.87c.14.13.39.3.75.53.36.23.86.45,1.51.68.64.23,1.35.33,2.11.32"/>
      <rect class="cls-9" x="59.08" y="28.37" width="2.29" height="1.16"/>
      <g>
        <path class="cls-22" d="M63.14,24.64h1.2v8.75h-1.2v-8.75Z"/>
        <path class="cls-22" d="M76.8,29.15c.11.22.18.43.23.62s.07.42.08.7v2.92h-.96v-3.02c0-.17-.03-.33-.08-.48-.05-.16-.11-.29-.17-.4s-.16-.25-.28-.39c-.13-.15-.29-.27-.48-.36-.19-.09-.37-.15-.55-.18-.18-.03-.41-.05-.7-.06h-2.15c0,.64,0,1.28,0,1.92v2.97h-.96v-3c0-.18-.02-.35-.07-.5-.05-.16-.1-.29-.15-.39-.06-.11-.14-.22-.25-.35-.15-.16-.32-.29-.52-.39-.19-.09-.38-.16-.55-.19-.18-.03-.4-.05-.66-.06-1.1,0-1.83,0-2.2,0,0,.38,0,1.6,0,3.67v1.22h-.96v-5.84h8.48c.3-.02.58,0,.84.06.26.05.49.13.68.22s.36.19.49.29c.13.1.27.23.43.39.18.2.33.42.44.64Z"/>
        <path class="cls-22" d="M85.19,28.89c.24.42.36.94.36,1.56,0-.1,0-.08,0,.06h0v.69c0,.58-.12,1.03-.33,1.34-.22.31-.48.53-.79.63s-.63.17-.97.17c-.34,0-.6.02-.76.02h-3.15c-.49,0-.91-.18-1.26-.54-.35-.36-.52-.79-.52-1.3s.17-.95.52-1.31c.35-.36.77-.55,1.26-.55h4.83c0-.07-.02-.14-.04-.2s-.04-.11-.05-.13c-.09-.18-.22-.35-.39-.5s-.36-.27-.56-.36c-.21-.08-.42-.12-.65-.12h-4.64v-.94c0-.08,0-.11,0-.08h4.64c.54,0,1.03.14,1.5.42.22.13.41.29.57.47.16.18.31.4.46.65ZM84.49,31.33c0-.09,0-.29-.01-.62h-5.06c-.18,0-.33.08-.47.24-.13.16-.19.36-.19.58s.06.42.19.58c.13.16.29.24.47.24h3.28c.37,0,.67,0,.89-.02s.39-.07.52-.16c.14-.1.23-.22.28-.35.05-.14.08-.3.1-.49ZM81.95,25.02h1.2s-.75.77-.75.77l-.78.75h-.74l1.08-1.53Z"/>
        <path class="cls-22" d="M92.98,27.81c.26.14.47.35.63.61.16.26.25.57.25.92v3.18c-.02.51-.15.98-.36,1.42-.22.44-.52.79-.9,1.06-.38.27-.82.42-1.33.45h-4.83v-.94h4.7c.3,0,.6-.09.9-.27s.53-.45.68-.8l.03-.08h-3.58c-.58,0-1.09-.14-1.53-.42-.43-.28-.77-.64-1-1.07-.23-.43-.35-.87-.35-1.32v-.21c0-.42.12-.84.36-1.27s.57-.78,1-1.06c.43-.28.91-.42,1.45-.42h3.07c.27,0,.54.07.8.21ZM92.92,32.41v-3.18c0-.17-.06-.33-.18-.47-.12-.15-.28-.22-.47-.22h-2.98c-.5,0-.9.09-1.21.27s-.52.41-.64.68c-.12.27-.19.56-.19.86v.23c0,.39.09.72.26,1,.17.28.4.48.67.62.28.14.56.21.86.21h3.87Z"/>
        <path class="cls-22" d="M101.54,27.84c.29.23.48.49.57.77.09.28.14.53.15.74,0,1.05-.58,1.6-1.76,1.66h-4.67s0,.25,0,.25c0,.27.02.49.07.64s.13.27.25.34c.11.07.27.12.46.15s.47.04.82.04h4.36c.13,0,.19.06.19.18v.59c0,.13-.06.19-.19.19h-4.51c-.63,0-1.12-.07-1.48-.21s-.62-.36-.77-.67-.23-.72-.23-1.24v-1.5c0-.35.13-.7.4-1.05s.61-.65,1.02-.88c.42-.23.84-.35,1.28-.35h2.84c.52,0,.92.12,1.21.35ZM100.86,29.97c.09-.03.17-.09.26-.19.06-.07.11-.15.13-.24.03-.09.04-.21.05-.37,0-.07-.02-.16-.06-.27s-.11-.21-.22-.3-.26-.14-.45-.14h-3.1c-.22,0-.46.07-.72.21-.26.14-.47.33-.65.56-.18.24-.27.5-.27.79h4.61c.19,0,.33-.02.42-.05Z"/>
        <path class="cls-22" d="M110.43,28.9c.26.46.39.96.39,1.51v3h-.99v-3c0-.27-.05-.54-.14-.81s-.22-.49-.4-.67c-.17-.18-.38-.31-.64-.41-.26-.09-.51-.14-.77-.14h-1.86c-.5,0-1.15,0-1.95,0,0-.23,0-.02,0,.65,0,.67,0,1.1,0,1.31v3.07h-.99v-6.01h4.79c.52,0,1.01.13,1.46.4.45.27.81.64,1.07,1.1Z"/>
        <path class="cls-22" d="M118.44,27.84c.29.23.48.49.57.77.09.28.14.53.15.74,0,1.05-.58,1.6-1.76,1.66h-4.67s0,.25,0,.25c0,.27.02.49.07.64s.13.27.25.34c.11.07.27.12.46.15s.47.04.82.04h4.36c.13,0,.19.06.19.18v.59c0,.13-.06.19-.19.19h-4.51c-.63,0-1.12-.07-1.48-.21-.36-.14-.62-.36-.77-.67s-.23-.72-.23-1.24v-1.5c0-.35.13-.7.4-1.05s.61-.65,1.02-.88c.42-.23.84-.35,1.28-.35h2.84c.52,0,.92.12,1.21.35ZM117.75,29.97c.09-.03.17-.09.26-.19.06-.07.11-.15.13-.24.03-.09.04-.21.05-.37,0-.07-.02-.16-.06-.27s-.11-.21-.22-.3-.26-.14-.45-.14h-3.1c-.22,0-.46.07-.72.21-.26.14-.47.33-.65.56-.18.24-.27.5-.27.79h4.61c.19,0,.33-.02.42-.05Z"/>
        <path class="cls-22" d="M126.32,30.01c.4.02.74.15,1.04.39.3.24.45.7.45,1.38,0,.36-.09.67-.27.91-.18.24-.41.42-.68.54s-.54.18-.8.18h-6v-.98s5.97,0,5.97,0c.21,0,.4-.05.57-.14.17-.09.25-.31.25-.65,0-.21-.06-.37-.18-.46-.12-.09-.26-.15-.41-.17-.16-.02-.25-.02-.29-.02h-4.35c-.23,0-.48-.07-.74-.19-.26-.12-.48-.32-.67-.6-.19-.28-.28-.63-.28-1.07,0-.38.1-.7.3-.95.2-.25.43-.44.71-.55.27-.12.54-.18.78-.2h5.42v.98h-5.36c-.22,0-.43.05-.62.14-.19.1-.29.33-.29.71,0,.3.09.5.26.59.18.09.35.14.51.15h4.66Z"/>
      </g>
    </g>
    <g>
      <path class="cls-6" d="M14.84.27L.55,4.78l14.33,11.12,14.04-10.84L14.84.27ZM20.37,10.39l-3.12,2.39-2.66-1.71,2.04-1.67c.37-.33.47-.56.47-.56v-3.18c.03-.54-.73-.85-.73-.85-.94-.45-2.38-.43-2.38-.43-1.33-.02-3.8.92-3.8.92v2.95l-3.69-2.37c2.35-.95,3.42-1.2,3.42-1.2,2.33-.65,3.96-.69,3.96-.69,2.61-.14,4.68.58,4.68.58,2.08.57,2.94,1.3,2.94,1.3,1.72,1.29,1.33,2.61,1.33,2.61-.27.24-2.47,1.91-2.47,1.91"/>
      <polygon class="cls-10" points=".02 8.24 .02 4.69 14.92 16.03 29.45 4.96 29.45 8.22 14.87 21.46 .02 8.24"/>
      <path class="cls-10" d="M6.42,5.91l-2.39-1.48s3.15-1.23,5.77-1.73,3.57-.53,5.07-.47c1.49.06,4.37.63,6.26,1.55,1.89.93,2.29,1.89,2.4,2.42.12.53.09,1.75-.34,2.13l-.42.38s.31-.69-.13-1.56c-.44-.87-1.39-1.7-3.12-2.29-1.73-.59-3.27-.92-5.14-.89-1.86.03-3.56.44-4.87.82-1.3.38-3.09,1.11-3.09,1.11"/>
      <path class="cls-10" d="M10.2,5.37v2.94l4.29,2.83s.94-.73,1.6-1.28c.66-.54.94-.87,1.01-1.03v-3.24s.08.51-1.06,1.15c-1.13.64-1.49.85-1.49.85l-4.35-2.21Z"/>
      <path class="cls-10" d="M14.88,16.23L0,4.68,14.85,0h.04s14.57,4.97,14.57,4.97l-14.57,11.26ZM.55,4.78l14.34,11.12,14.04-10.84L14.84.27.55,4.78Z"/>
      <path class="cls-10" d="M17.27,13.09l-.08-.05L3.75,4.39l.24-.09s3.19-1.24,5.8-1.74c1.92-.37,3-.49,4.14-.49.27,0,.57,0,.95.02,1.62.06,4.5.68,6.31,1.57,1.43.7,2.26,1.54,2.47,2.51.12.56.1,1.82-.38,2.25l-.43.38-5.59,4.29ZM4.32,4.45l12.94,8.32,5.44-4.17.42-.38c.38-.34.41-1.51.3-2-.2-.89-.98-1.67-2.33-2.33-1.78-.87-4.61-1.48-6.21-1.54-.38-.01-.68-.02-.94-.02-.97,0-1.94.08-4.1.49-2.17.41-4.73,1.34-5.51,1.63"/>
      <path class="cls-10" d="M14.47,7.64l-4.29-2.19.04-.07-.03-.08c.1-.04,2.43-.93,3.82-.93h.03c1.46.01,2.38.36,2.77.69.36.3.41.63.16,1.02-.18.28-.71.67-1.43,1.05-.71.38-1.02.5-1.03.51h-.03ZM10.32,5.39l4.15,2.12c.09-.04.4-.18.99-.49.7-.37,1.21-.74,1.38-1,.21-.33.18-.6-.13-.85-.37-.31-1.27-.65-2.69-.66h-.03c-1.21,0-3.21.72-3.68.89"/>
      <path class="cls-10" d="M40.5,6.74c.14.02.36.08.68.19.31.11.68.32,1.09.63.41.31.77.78,1.08,1.4.31.62.46,1.41.46,2.36s-.18,1.67-.54,2.27c-.36.61-.79,1.06-1.29,1.35-.5.29-.97.47-1.42.53h-7.62V6.73h7.57ZM40.44,14.29c.23-.04.52-.14.84-.3.32-.16.63-.46.92-.9.29-.43.43-1.03.43-1.78,0-.88-.15-1.57-.45-2.07-.3-.5-.62-.84-.95-1.01-.33-.18-.61-.28-.84-.32h-6.28v6.38h6.33Z"/>
      <rect class="cls-10" x="44.63" y="6.75" width="1.19" height="8.7"/>
      <path class="cls-10" d="M52.3,9.12c.77-.01,1.46-.13,2.06-.34.61-.22,1.08-.43,1.4-.65.33-.22.55-.38.66-.49l.96-.91v8.75h-1.14v-6.32c-.5.3-1.08.55-1.75.76-.66.21-1.39.32-2.18.33-.83,0-1.61-.1-2.33-.32-.72-.22-1.36-.49-1.92-.82v6.36h-1.14V6.73l1,.86c.14.13.39.3.75.53.36.23.86.45,1.51.68.64.23,1.35.33,2.11.32"/>
      <rect class="cls-9" x="59.08" y="10.44" width="2.29" height="1.16"/>
      <g>
        <path class="cls-22" d="M63.14,6.7h1.2v8.75h-1.2V6.7Z"/>
        <path class="cls-22" d="M76.8,11.22c.11.22.18.43.23.62s.07.42.08.7v2.92h-.96v-3.02c0-.17-.03-.33-.08-.48-.05-.16-.11-.29-.17-.4s-.16-.25-.28-.39c-.13-.15-.29-.27-.48-.36-.19-.09-.37-.15-.55-.18-.18-.03-.41-.05-.7-.06h-2.15c0,.64,0,1.28,0,1.92v2.97h-.96v-3c0-.18-.02-.35-.07-.5s-.1-.29-.15-.39c-.06-.11-.14-.22-.25-.35-.15-.16-.32-.29-.52-.39s-.38-.16-.55-.19c-.18-.03-.4-.05-.66-.06-1.1,0-1.83,0-2.2,0,0,.38,0,1.6,0,3.67v1.22h-.96v-5.84h8.48c.3-.02.58,0,.84.06.26.05.49.13.68.22s.36.19.49.29c.13.1.27.23.43.39.18.2.33.42.44.64Z"/>
        <path class="cls-22" d="M85.19,10.95c.24.42.36.94.36,1.56,0-.1,0-.08,0,.06h0v.69c0,.58-.12,1.03-.33,1.34-.22.31-.48.53-.79.63s-.63.17-.97.17c-.34,0-.6.02-.76.02h-3.14c-.49,0-.91-.18-1.26-.54-.35-.36-.52-.79-.52-1.3s.17-.95.52-1.31c.35-.36.77-.55,1.26-.55h4.82c0-.07-.02-.14-.04-.2s-.04-.11-.05-.13c-.09-.18-.22-.35-.39-.5s-.36-.27-.56-.36c-.21-.08-.43-.12-.65-.12h-4.64v-.94c0-.08,0-.11,0-.08h4.64c.54,0,1.03.14,1.5.42.22.13.41.29.57.47.16.18.31.4.46.65ZM84.49,13.4c0-.09,0-.29-.01-.62h-5.06c-.18,0-.33.08-.47.24-.13.16-.19.36-.19.58s.06.42.19.58c.13.16.29.24.47.24h3.28c.37,0,.67,0,.89-.02s.39-.07.52-.16c.14-.1.23-.22.29-.35.05-.14.08-.3.09-.49ZM81.95,7.09h1.2s-.75.77-.75.77l-.79.75h-.74l1.08-1.53Z"/>
        <path class="cls-22" d="M92.98,9.87c.26.14.47.35.63.61s.25.57.25.92v3.18c-.02.51-.15.98-.36,1.42-.22.44-.52.79-.9,1.06-.38.27-.82.42-1.33.45h-4.83v-.94h4.7c.3,0,.6-.09.9-.27s.53-.45.68-.8l.03-.08h-3.58c-.58,0-1.09-.14-1.53-.42-.43-.28-.77-.64-1-1.07-.23-.43-.35-.87-.35-1.32v-.21c0-.42.12-.84.36-1.27.24-.43.57-.78,1-1.06.43-.28.91-.42,1.45-.42h3.07c.27,0,.54.07.8.21ZM92.92,14.48v-3.18c0-.17-.06-.33-.18-.47-.12-.15-.28-.22-.47-.22h-2.98c-.5,0-.9.09-1.21.27s-.52.41-.64.68c-.12.27-.19.56-.19.86v.23c0,.39.09.72.26,1,.17.28.4.48.67.62.28.14.56.21.86.21h3.87Z"/>
        <path class="cls-22" d="M101.54,9.91c.29.23.48.49.57.77.09.28.14.53.15.74,0,1.05-.58,1.6-1.76,1.66h-4.67s0,.25,0,.25c0,.27.02.49.07.64s.13.27.25.34c.11.07.27.12.46.15s.47.04.82.04h4.36c.13,0,.19.06.19.18v.59c0,.13-.06.19-.19.19h-4.51c-.63,0-1.12-.07-1.48-.21s-.62-.36-.77-.67-.23-.72-.23-1.24v-1.5c0-.35.13-.7.4-1.05s.61-.65,1.02-.88c.42-.23.84-.35,1.28-.35h2.84c.52,0,.92.12,1.21.35ZM100.86,12.04c.09-.03.17-.09.26-.19.06-.07.11-.15.13-.24.03-.09.04-.21.05-.37,0-.07-.02-.16-.06-.27s-.11-.21-.22-.3-.26-.14-.45-.14h-3.1c-.22,0-.46.07-.72.21-.26.14-.47.33-.65.56-.18.24-.27.5-.27.79h4.61c.19,0,.33-.02.42-.05Z"/>
        <path class="cls-22" d="M110.43,10.97c.26.46.39.96.39,1.51v3h-.99v-3c0-.27-.05-.54-.14-.81s-.22-.49-.4-.67c-.17-.18-.38-.31-.64-.41-.26-.09-.51-.14-.77-.14h-1.86c-.5,0-1.15,0-1.95,0,0-.23,0-.02,0,.65,0,.67,0,1.1,0,1.31v3.07h-.99v-6.01h4.79c.52,0,1.01.13,1.47.4.45.27.81.64,1.07,1.1Z"/>
        <path class="cls-22" d="M118.44,9.91c.29.23.48.49.57.77.09.28.14.53.15.74,0,1.05-.58,1.6-1.76,1.66h-4.67s0,.25,0,.25c0,.27.02.49.07.64s.13.27.25.34c.11.07.27.12.46.15s.47.04.82.04h4.36c.13,0,.19.06.19.18v.59c0,.13-.06.19-.19.19h-4.51c-.63,0-1.12-.07-1.48-.21-.36-.14-.62-.36-.77-.67s-.23-.72-.23-1.24v-1.5c0-.35.13-.7.4-1.05s.61-.65,1.02-.88c.42-.23.84-.35,1.28-.35h2.84c.52,0,.92.12,1.21.35ZM117.75,12.04c.09-.03.17-.09.26-.19.06-.07.1-.15.13-.24.03-.09.04-.21.05-.37,0-.07-.02-.16-.06-.27s-.11-.21-.22-.3-.26-.14-.45-.14h-3.1c-.22,0-.46.07-.72.21-.26.14-.47.33-.65.56-.18.24-.27.5-.27.79h4.61c.19,0,.33-.02.42-.05Z"/>
        <path class="cls-22" d="M126.32,12.08c.4.02.74.15,1.04.39.3.24.45.7.45,1.38,0,.36-.09.67-.27.91-.18.24-.41.42-.68.54s-.54.18-.8.18h-6v-.98s5.97,0,5.97,0c.21,0,.4-.05.57-.14.17-.09.25-.31.25-.65,0-.21-.06-.37-.18-.46-.12-.09-.26-.15-.41-.17-.16-.02-.25-.02-.29-.02h-4.35c-.23,0-.48-.07-.74-.19-.26-.12-.48-.32-.67-.6-.19-.28-.28-.63-.28-1.07,0-.38.1-.7.3-.95.2-.25.43-.44.71-.55.27-.12.54-.18.78-.2h5.42v.98h-5.36c-.22,0-.43.05-.62.14-.19.1-.29.33-.29.71,0,.3.09.5.26.59.18.09.35.14.51.15h4.66Z"/>
      </g>
      <g>
        <path class="cls-3" d="M62.13,21.38h-.28s0,0,0-.05v-1.65c0-.11.04-.21.12-.32s.18-.19.3-.25c.12-.07.23-.1.33-.1h.53c.16,0,.31.02.43.07.12.05.22.12.3.21.08.09.13.18.17.27.04.09.06.18.06.25v.1s0,.01,0,.06c0,.04-.02.1-.04.16-.02.06-.05.13-.09.2-.04.07-.1.14-.17.2-.08.06-.17.11-.29.15-.12.04-.25.05-.41.04h-.96v.65ZM62.13,20.45h1.08c.17,0,.31-.04.4-.11.09-.07.15-.15.17-.22s.04-.14.04-.19v-.09c0-.06-.01-.13-.04-.21-.03-.08-.09-.16-.18-.23s-.22-.1-.39-.1h-.58c-.08,0-.15.02-.23.07-.08.05-.14.1-.19.17s-.07.14-.07.2v.7Z"/>
        <path class="cls-3" d="M66.54,19.26h-.99s-.11,0-.17,0c-.06,0-.12,0-.17.02-.05.02-.1.04-.14.08-.04.04-.07.08-.08.14s-.03.1-.03.14c0,.04,0,.11,0,.21v.87s0,.02-.02.02h-.25s-.02,0-.02-.02v-.89s0-.1,0-.19c0-.09.02-.18.05-.27.04-.09.1-.17.19-.24.06-.04.12-.08.18-.1.07-.02.13-.04.19-.05s.12-.01.17-.01h1.1v.29Z"/>
        <path class="cls-3" d="M68.35,18.99c.16,0,.29,0,.41.04.12.04.21.09.28.15.07.06.13.13.17.21.04.07.07.14.09.2.02.06.03.12.04.16s0,.07,0,.06v.1c0,.08-.02.16-.05.26-.04.1-.09.19-.17.28-.08.09-.18.16-.3.21s-.26.08-.43.07h-.33c-.16,0-.31-.01-.43-.07-.12-.05-.22-.12-.3-.21-.08-.09-.13-.18-.17-.28-.04-.1-.06-.18-.06-.26v-.1s0-.01,0-.06.02-.1.04-.16.05-.13.09-.2c.04-.07.1-.14.17-.21.07-.06.17-.12.28-.15.11-.04.25-.05.41-.04h.24ZM68.46,20.45c.22,0,.37-.05.46-.16s.14-.22.15-.34v-.05s0-.08,0-.08v-.05c-.02-.11-.07-.22-.15-.33-.09-.11-.24-.16-.46-.16h-.46c-.22,0-.37.05-.46.16-.09.11-.14.22-.15.33v.05s0,.08,0,.08v.05c.02.12.07.23.16.34.09.1.24.16.46.16h.46Z"/>
        <path class="cls-3" d="M71.92,18.35h.28s0,0,0,.05v1.68c0,.12-.01.22-.04.3s-.07.15-.12.2c-.06.05-.13.09-.22.11-.09.02-.21.04-.35.04h-.57c-.16,0-.31-.01-.43-.07-.12-.05-.23-.12-.3-.21-.08-.09-.14-.18-.17-.27-.04-.1-.06-.18-.06-.26v-.1s0-.01,0-.06c0-.05.02-.1.04-.16.02-.06.05-.13.09-.2.04-.07.1-.14.17-.2.08-.06.17-.11.29-.15.12-.04.25-.05.41-.04h.97v-.66ZM71.92,19.29h-1.08c-.18,0-.31.04-.4.11s-.15.15-.18.23c-.03.08-.04.14-.04.19v.08c0,.06.01.13.04.21.03.08.09.16.18.23.09.07.22.1.4.1h.75c.09,0,.15-.02.2-.06.05-.04.08-.09.1-.15.02-.07.03-.15.03-.24v-.71Z"/>
        <path class="cls-3" d="M74.4,20.4c.08-.03.14-.07.19-.12s.09-.12.12-.2c.03-.08.04-.16.04-.24v-.9h.29v.9c0,.16-.04.31-.12.45-.08.14-.19.25-.32.33-.13.08-.28.12-.44.12h-.56c-.16,0-.3-.04-.44-.12-.13-.08-.24-.19-.32-.33-.08-.14-.12-.29-.12-.45v-.9h.29s0,0,0,.02v.87c0,.08.01.16.04.24.03.08.07.15.12.2s.11.09.19.12c.08.03.15.04.23.04h.56c.08,0,.15-.01.23-.04Z"/>
        <path class="cls-3" d="M76.18,19.33c-.08.03-.14.07-.19.12s-.09.12-.12.19c-.03.08-.04.16-.04.23s.01.16.04.23c.03.08.07.14.12.19s.12.09.19.12.16.04.23.04h1.43v.29h-1.43c-.16,0-.3-.04-.44-.12-.13-.08-.24-.18-.32-.32-.08-.13-.12-.28-.12-.44s.04-.3.12-.44c.08-.13.18-.24.32-.32.13-.08.28-.12.44-.12h1.43v.29h-1.43c-.08,0-.16.01-.23.04Z"/>
        <path class="cls-3" d="M79.87,20.45v.29h-.54c-.15,0-.3-.04-.43-.11-.13-.08-.24-.18-.32-.31-.08-.13-.12-.27-.12-.43v-1.55h.29s0,0,0,.02v.64h.67s0,0,0,.02v.26s0,0-.03,0h-.65v.62c0,.13.03.23.1.32s.13.15.21.19c.04.02.09.04.16.05.07,0,.13,0,.18,0h.48Z"/>
        <path class="cls-3" d="M81.73,18.99c.16,0,.29,0,.41.04.12.04.21.09.28.15.07.06.13.13.17.21.04.07.07.14.09.2.02.06.03.12.04.16s0,.07,0,.06v.1c0,.08-.02.16-.06.26-.04.1-.09.19-.17.28-.08.09-.18.16-.3.21s-.26.08-.43.07h-.33c-.16,0-.3-.01-.43-.07s-.22-.12-.3-.21c-.08-.09-.13-.18-.17-.28-.04-.1-.06-.18-.06-.26v-.1s0-.01,0-.06c0-.05.02-.1.04-.16s.05-.13.09-.2c.04-.07.1-.14.17-.21.08-.06.17-.12.28-.15s.25-.05.41-.04h.24ZM81.84,20.45c.22,0,.37-.05.46-.16s.14-.22.15-.34v-.05s0-.08,0-.08v-.05c-.02-.11-.07-.22-.15-.33-.09-.11-.24-.16-.46-.16h-.46c-.22,0-.37.05-.46.16-.09.11-.14.22-.15.33v.05s0,.08,0,.08v.05c.02.12.07.23.16.34.09.1.24.16.46.16h.46Z"/>
        <path class="cls-3" d="M85.16,19.74c.12,0,.22.05.31.12.09.07.13.21.13.41,0,.11-.03.2-.08.27-.05.07-.12.12-.2.16-.08.03-.16.05-.24.05h-1.78v-.29s1.77,0,1.77,0c.06,0,.12-.01.17-.04.05-.03.08-.09.08-.19,0-.06-.02-.11-.05-.14-.04-.03-.08-.04-.12-.05s-.07,0-.08,0h-1.29c-.07,0-.14-.02-.22-.06-.08-.04-.14-.09-.2-.18-.06-.08-.08-.19-.08-.32,0-.11.03-.21.09-.28s.13-.13.21-.16c.08-.04.16-.05.23-.06h1.61v.29h-1.59c-.07,0-.13.01-.18.04-.06.03-.08.1-.08.21,0,.09.03.15.08.18.05.03.1.04.15.04h1.38Z"/>
        <path class="cls-3" d="M89.25,18.98v1.52c-.01.17-.05.33-.13.45-.09.16-.2.27-.32.34-.12.07-.27.11-.45.11h-1.24s-.02,0-.02-.02v-.25s0-.02.02-.02h1.24c.06,0,.12,0,.17-.01.05,0,.09-.03.13-.05.05-.04.1-.07.13-.1s.06-.06.08-.11l.04-.09h-1.13c-.13,0-.25-.02-.36-.08-.11-.05-.19-.11-.26-.18-.07-.07-.12-.15-.18-.26-.05-.11-.08-.22-.08-.33v-.92s0-.02,0-.02h.3s0,0,0,.02v.94c0,.06.01.12.04.18s.04.11.07.13c.01.01.04.04.07.07.03.03.08.07.14.09.06.03.13.05.22.06h1.24s0-1.47,0-1.47c0-.02,0-.02.02-.02h.25s.02,0,.02.02Z"/>
        <path class="cls-3" d="M92.47,19.74c.12,0,.22.05.31.12.09.07.13.21.13.41,0,.11-.03.2-.08.27-.05.07-.12.12-.2.16-.08.03-.16.05-.24.05h-1.78v-.29s1.77,0,1.77,0c.06,0,.12-.01.17-.04.05-.03.08-.09.08-.19,0-.06-.02-.11-.05-.14-.04-.03-.08-.04-.12-.05s-.07,0-.08,0h-1.29c-.07,0-.14-.02-.22-.06-.08-.04-.14-.09-.2-.18-.06-.08-.08-.19-.08-.32,0-.11.03-.21.09-.28.06-.07.13-.13.21-.16.08-.04.16-.05.23-.06h1.61v.29h-1.59c-.07,0-.13.01-.18.04-.06.03-.08.1-.08.21,0,.09.03.15.08.18.05.03.1.04.15.04h1.38Z"/>
        <path class="cls-3" d="M95.46,19.09c.08.07.14.14.17.23.03.08.04.16.04.22,0,.31-.17.48-.52.49h-1.38s0,.07,0,.07c0,.08,0,.14.02.19s.04.08.07.1c.03.02.08.04.14.04.06,0,.14.01.24.01h1.29s.06.02.06.05v.17s-.02.06-.06.06h-1.33c-.19,0-.33-.02-.44-.06-.11-.04-.18-.11-.23-.2s-.07-.21-.07-.37v-.44c0-.1.04-.21.12-.31.08-.1.18-.19.3-.26s.25-.1.38-.1h.84c.15,0,.27.03.36.1ZM95.26,19.73s.05-.03.08-.06c.02-.02.03-.04.04-.07,0-.03.01-.06.01-.11,0-.02,0-.05-.02-.08-.01-.03-.03-.06-.07-.09-.03-.03-.08-.04-.13-.04h-.92c-.07,0-.14.02-.21.06s-.14.1-.19.17-.08.15-.08.23h1.37c.06,0,.1,0,.12-.01Z"/>
        <path class="cls-3" d="M98.18,19.26h-.99s-.11,0-.17,0c-.06,0-.12,0-.17.02-.05.02-.1.04-.14.08-.04.04-.07.08-.08.14-.02.05-.03.1-.03.14,0,.04,0,.11,0,.21v.87s0,.02-.02.02h-.25s-.02,0-.02-.02v-.89s0-.1,0-.19c0-.09.02-.18.05-.27.03-.09.1-.17.19-.24.06-.04.12-.08.18-.1.07-.02.13-.04.19-.05.06,0,.12-.01.17-.01h1.1v.29Z"/>
        <path class="cls-3" d="M98.88,18.95l1.03,1.55h.04l1.03-1.55h.35l-1.04,1.55c-.08.13-.14.21-.16.24h-.4c-.05-.07-.1-.15-.16-.24l-1.03-1.55h.35Z"/>
        <path class="cls-3" d="M102.02,18.14v.31h-.31v-.31h.31ZM102.02,18.86v1.88h-.31v-1.88h.31Z"/>
        <path class="cls-3" d="M103.26,19.33c-.08.03-.14.07-.19.12s-.09.12-.12.19c-.03.08-.04.16-.04.23s.01.16.04.23c.03.08.07.14.12.19s.12.09.19.12.16.04.23.04h1.43v.29h-1.43c-.16,0-.3-.04-.44-.12-.13-.08-.24-.18-.32-.32-.08-.13-.12-.28-.12-.44s.04-.3.12-.44c.08-.13.18-.24.32-.32.13-.08.28-.12.44-.12h1.43v.29h-1.43c-.08,0-.16.01-.23.04Z"/>
        <path class="cls-3" d="M105.85,18.14v.31h-.31v-.31h.31ZM105.85,18.86v1.88h-.31v-1.88h.31Z"/>
        <path class="cls-3" d="M107.72,18.99c.16,0,.29,0,.41.04s.21.09.28.15c.07.06.13.13.17.21.04.07.07.14.09.2.02.06.03.12.04.16s0,.07,0,.06v.1c0,.08-.02.16-.06.26-.04.1-.09.19-.17.28-.08.09-.18.16-.3.21s-.26.08-.43.07h-.33c-.16,0-.3-.01-.43-.07-.12-.05-.22-.12-.3-.21-.08-.09-.13-.18-.17-.28-.04-.1-.06-.18-.06-.26v-.1s0-.01,0-.06.02-.1.04-.16.05-.13.09-.2c.04-.07.1-.14.17-.21.08-.06.17-.12.28-.15.12-.04.25-.05.41-.04h.24ZM107.84,20.45c.22,0,.37-.05.46-.16.09-.1.14-.22.15-.34v-.05s0-.08,0-.08v-.05c-.02-.11-.07-.22-.15-.33-.09-.11-.24-.16-.46-.16h-.46c-.22,0-.37.05-.46.16-.09.11-.14.22-.15.33v.05s0,.08,0,.08v.05c.02.12.07.23.16.34.09.1.24.16.46.16h.46Z"/>
        <path class="cls-3" d="M111.15,19.74c.12,0,.22.05.31.12.09.07.13.21.13.41,0,.11-.03.2-.08.27-.05.07-.12.12-.2.16-.08.03-.16.05-.24.05h-1.78v-.29s1.77,0,1.77,0c.06,0,.12-.01.17-.04.05-.03.08-.09.08-.19,0-.06-.02-.11-.05-.14-.04-.03-.08-.04-.12-.05s-.07,0-.08,0h-1.29c-.07,0-.14-.02-.22-.06-.08-.04-.14-.09-.2-.18-.06-.08-.08-.19-.08-.32,0-.11.03-.21.09-.28.06-.07.13-.13.21-.16.08-.04.16-.05.23-.06h1.61v.29h-1.59c-.07,0-.13.01-.18.04-.06.03-.08.1-.08.21,0,.09.03.15.08.18.05.03.1.04.15.04h1.38Z"/>
      </g>
      <rect class="cls-1" x="123.62" y="18.11" width="4.16" height="1.32"/>
      <rect class="cls-24" x="123.62" y="19.43" width="4.16" height=".66"/>
      <rect class="cls-2" x="123.62" y="20.09" width="4.16" height=".66"/>
      <rect class="cls-19" x="118.53" y="18.11" width="1.39" height="2.63"/>
      <rect class="cls-19" x="121.3" y="18.11" width="1.39" height="2.63"/>
      <rect class="cls-6" x="119.92" y="18.11" width="1.39" height="2.63"/>
      <polyline class="cls-11" points="117.6 20.75 113.44 20.75 113.44 19.43 117.6 19.43"/>
      <rect class="cls-17" x="113.44" y="18.11" width="1.39" height="1.32"/>
      <rect class="cls-6" x="114.83" y="18.11" width="2.77" height="1.32"/>
      <polygon class="cls-6" points="113.8 18.67 114.06 18.67 114.13 18.44 114.21 18.67 114.46 18.67 114.26 18.81 114.34 19.04 114.13 18.9 113.93 19.04 114.01 18.81 113.8 18.67"/>
    </g>
    <g>
      <rect class="cls-16" x="68.76" y="103.63" width="15.91" height="1.07" transform="translate(-51.58 87.54) rotate(-46.24)"/>
      <rect class="cls-16" x="95.27" y="87.41" width="7.21" height="1.07" transform="translate(-31.65 66.17) rotate(-32.18)"/>
      <path class="cls-16" d="M91.08,83.35l-.96-.48.26-.53.96.48-.27.53ZM91.82,81.87l-.96-.48.96-1.92.96.48-.96,1.92ZM93.27,78.99l-.96-.48.96-1.92.96.48-.96,1.92ZM94.72,76.1l-.96-.48.96-1.92.96.48-.97,1.92ZM96.17,73.22l-.96-.48.96-1.92.96.48-.96,1.92Z"/>
      <rect class="cls-16" x="77.3" y="68.94" width="1.07" height="16.47" transform="translate(-29.46 54.77) rotate(-32.96)"/>
      <rect class="cls-16" x="71.91" y="87.44" width="1.07" height="13.53" transform="translate(-34.25 146.53) rotate(-78.56)"/>
      <rect class="cls-16" x="103.51" y="87.28" width="1.07" height="21.75" transform="translate(-25.19 159.46) rotate(-68.71)"/>
      <path class="cls-15" d="M87.37,85.93c-2.14,0-3.88,1.74-3.88,3.88,0,1.45.79,2.71,1.97,3.37v-2.73h3.74v2.78c1.22-.65,2.05-1.94,2.05-3.42,0-2.14-1.74-3.88-3.88-3.88"/>
      <path class="cls-15" d="M87.37,84.46c-2.95,0-5.35,2.4-5.35,5.35,0,2.28,1.43,4.23,3.44,5v-.74c-1.62-.73-2.76-2.36-2.76-4.26,0-2.57,2.09-4.67,4.67-4.67s4.67,2.09,4.67,4.67c0,1.92-1.17,3.58-2.83,4.29v.74c2.05-.75,3.52-2.72,3.52-5.03,0-2.95-2.4-5.35-5.35-5.35"/>
      <path class="cls-4" d="M77.59,87.88c-1.11,5.4,2.37,10.68,7.77,11.79,5.4,1.11,10.68-2.37,11.79-7.77,1.11-5.4-2.37-10.68-7.77-11.79-5.4-1.11-10.68,2.37-11.79,7.77M80.83,88.54c.74-3.61,4.27-5.94,7.89-5.2,3.61.74,5.94,4.27,5.2,7.89-.74,3.61-4.27,5.94-7.89,5.2s-5.94-4.27-5.2-7.89"/>
      <path class="cls-7" d="M86.03,96.43c3.61.74,7.15-1.59,7.89-5.2.74-3.61-1.59-7.15-5.2-7.89l.66-3.24c5.4,1.11,8.88,6.39,7.77,11.79-1.11,5.4-6.39,8.88-11.79,7.77l.66-3.24Z"/>
      <rect class="cls-14" x="95.02" y="55.5" width="12.07" height="14.72"/>
      <rect class="cls-6" x="95.02" y="56.23" width="11.47" height="13.98"/>
      <rect class="cls-14" x="93.75" y="56.91" width="12.07" height="14.72"/>
      <rect class="cls-6" x="102.32" y="61.88" width="1.53" height="2.95" transform="translate(39.49 166.28) rotate(-89.86)"/>
      <rect class="cls-6" x="96.72" y="60.56" width="1.53" height="5.41" transform="translate(33.99 160.6) rotate(-89.86)"/>
      <path class="cls-6" d="M102.2,68.7h-6.92c-.18,0-.33.15-.33.33s.15.33.33.33h6.92c.18,0,.33-.15.33-.33s-.15-.33-.33-.33"/>
      <path class="cls-6" d="M103.89,67.25h-8.6c-.18,0-.33.15-.33.33s.15.33.33.33h8.6c.18,0,.33-.15.33-.33s-.15-.33-.33-.33"/>
      <path class="cls-6" d="M103.93,65.87h-8.6c-.18,0-.33.15-.33.33s.15.33.33.33h8.6c.18,0,.33-.15.33-.33s-.15-.33-.33-.33"/>
      <path class="cls-6" d="M100.29,60.4h-5.26c-.18,0-.33.15-.33.33s.15.33.33.33h5.26c.18,0,.33-.15.33-.33s-.15-.33-.33-.33"/>
      <path class="cls-6" d="M100.32,59.02h-5.26c-.18,0-.33.15-.33.33s.15.33.33.33h5.26c.18,0,.33-.15.33-.33s-.15-.33-.33-.33"/>
      <rect class="cls-14" x="50.8" y="81.17" width="16.76" height="17.09"/>
      <path class="cls-6" d="M65.57,97.49h-12.8c-.53,0-.96-.43-.96-.96v-13.63c0-.53.43-.96.96-.96h12.8c.53,0,.96.43.96.96v13.63c0,.53-.43.96-.96.96"/>
      <path class="cls-15" d="M54.49,84.69c0,.25-.21.45-.47.45s-.47-.2-.47-.45.21-.45.47-.45.47.2.47.45"/>
      <rect class="cls-15" x="55.27" y="84.25" width="9.5" height=".71"/>
      <path class="cls-15" d="M54.49,86.19c0,.25-.21.45-.47.45s-.47-.2-.47-.45.21-.45.47-.45.47.2.47.45"/>
      <rect class="cls-15" x="55.27" y="85.87" width="9.5" height=".71"/>
      <path class="cls-15" d="M54.49,87.6c0,.25-.21.45-.47.45s-.47-.2-.47-.45.21-.45.47-.45.47.2.47.45"/>
      <rect class="cls-15" x="55.24" y="87.38" width="9.5" height=".71"/>
      <path class="cls-15" d="M54.49,90.13c0,.25-.21.45-.47.45s-.47-.2-.47-.45.21-.45.47-.45.47.2.47.45"/>
      <rect class="cls-15" x="55.27" y="89.68" width="9.5" height=".71"/>
      <path class="cls-15" d="M54.49,91.62c0,.25-.21.45-.47.45s-.47-.2-.47-.45.21-.45.47-.45.47.2.47.45"/>
      <rect class="cls-15" x="55.27" y="91.3" width="9.5" height=".71"/>
      <path class="cls-15" d="M54.49,93.03c0,.25-.21.45-.47.45s-.47-.2-.47-.45.21-.45.47-.45.47.2.47.45"/>
      <rect class="cls-15" x="55.24" y="92.81" width="9.5" height=".71"/>
      <rect class="cls-14" x="60.33" y="53.5" width="15.41" height="19.41"/>
      <rect class="cls-21" x="61.15" y="54.23" width="13.84" height="18.02"/>
      <path class="cls-6" d="M73.65,65.37h-10.49c-.2,0-.37-.16-.37-.37s.16-.37.37-.37h10.49c.2,0,.37.16.37.37s-.17.37-.37.37"/>
      <path class="cls-6" d="M73.37,58.31h-10.13c-.2,0-.37-.16-.37-.37s.17-.37.37-.37h10.13c.2,0,.37.16.37.37s-.17.37-.37.37"/>
      <path class="cls-6" d="M73.39,59.95h-10.13c-.2,0-.37-.16-.37-.37s.17-.37.37-.37h10.13c.2,0,.37.16.37.37s-.17.37-.37.37"/>
      <path class="cls-6" d="M73.65,66.95h-10.49c-.2,0-.37-.16-.37-.37s.16-.37.37-.37h10.49c.2,0,.37.16.37.37s-.17.37-.37.37"/>
      <path class="cls-6" d="M73.65,68.44h-10.49c-.2,0-.37-.16-.37-.37s.16-.37.37-.37h10.49c.2,0,.37.16.37.37s-.17.37-.37.37"/>
      <path class="cls-6" d="M70.02,69.95h-6.87c-.2,0-.37-.16-.37-.37s.17-.37.37-.37h6.87c.2,0,.37.16.37.37s-.17.37-.37.37"/>
      <path class="cls-6" d="M73.42,56.79h-6.46c-.2,0-.37-.16-.37-.37s.17-.37.37-.37h6.46c.2,0,.37.16.37.37s-.17.37-.37.37"/>
      <path class="cls-6" d="M68.2,63.33h-4.37c-.55,0-1-.45-1-1s.45-1,1-1h4.37c.55,0,1,.45,1,1s-.45,1-1,1"/>
      <path class="cls-6" d="M72.86,63.33h-1.52c-.55,0-1-.45-1-1s.45-1,1-1h1.52c.55,0,1,.45,1,1s-.45,1-1,1"/>
      <path class="cls-13" d="M122.84,91.86h-10.56c-.54,0-.98.45-.98,1v19.89c0,.55.44,1,.98,1h14.55c.54,0,.97-.45.97-1v-15.61l-4.97-5.28Z"/>
      <path class="cls-18" d="M122.47,92.83h-9.35c-.48,0-.86.41-.86.91v18.12c0,.5.39.91.86.91h12.88c.48,0,.86-.41.86-.91v-14.23l-4.4-4.81Z"/>
      <path class="cls-20" d="M121.15,98.08l-.05-4.44c0-.23-.19-.42-.41-.42h-7.58c-.23,0-.41.19-.41.42v18.31c0,.23.18.42.41.42h12.9c.23,0,.41-.19.41-.42v-13.04c0-.23-.18-.42-.41-.42h-4.45c-.23,0-.41-.19-.41-.42"/>
      <path class="cls-8" d="M115.72,99.59c0,.38-.31.69-.69.69s-.69-.31-.69-.69.31-.69.69-.69.69.31.69.69"/>
      <rect class="cls-8" x="116.96" y="99.07" width="8.35" height="1.03"/>
      <path class="cls-8" d="M115.72,101.77c0,.38-.31.69-.69.69s-.69-.31-.69-.69.31-.69.69-.69.69.31.69.69"/>
      <rect class="cls-8" x="116.96" y="101.18" width="8.35" height="1.03"/>
      <path class="cls-8" d="M115.72,104.06c0,.38-.31.69-.69.69s-.69-.31-.69-.69.31-.69.69-.69.69.31.69.69"/>
      <rect class="cls-8" x="116.96" y="103.5" width="8.35" height="1.03"/>
      <path class="cls-8" d="M115.72,106.29c0,.38-.31.69-.69.69s-.69-.31-.69-.69.31-.69.69-.69.69.31.69.69"/>
      <rect class="cls-8" x="116.96" y="105.78" width="8.35" height="1.03"/>
      <rect class="cls-8" x="113.84" y="110.73" width="11.46" height="1.03"/>
      <rect class="cls-8" x="113.84" y="108.63" width="11.46" height="1.03"/>
      <rect class="cls-18" x="56.04" y="107.73" width="16.48" height="17.69"/>
      <path class="cls-6" d="M70.56,124.58h-12.56c-.53,0-.96-.43-.96-.96v-14.17c0-.53.43-.96.96-.96h12.56c.53,0,.96.43.96.96v14.17c0,.53-.43.96-.96.96"/>
      <path class="cls-5" d="M59.49,111.09c0,.4-.32.72-.72.72s-.72-.32-.72-.72.32-.72.72-.72.72.32.72.72"/>
      <path class="cls-5" d="M69.68,111.55h-9.24c-.22,0-.39-.18-.39-.39s.18-.39.39-.39h9.24c.22,0,.39.18.39.39s-.18.39-.39.39"/>
      <path class="cls-5" d="M59.49,113.16c0,.4-.32.72-.72.72s-.72-.32-.72-.72.32-.72.72-.72.72.32.72.72"/>
      <path class="cls-5" d="M69.69,113.57h-9.24c-.22,0-.39-.18-.39-.39s.18-.39.39-.39h9.24c.22,0,.39.18.39.39s-.18.39-.39.39"/>
      <path class="cls-5" d="M59.48,115.15c0,.39-.32.71-.71.71s-.71-.32-.71-.71.32-.71.71-.71.71.32.71.71"/>
      <path class="cls-5" d="M69.64,115.55h-9.24c-.22,0-.39-.18-.39-.39s.18-.39.39-.39h9.24c.22,0,.39.18.39.39s-.18.39-.39.39"/>
      <path class="cls-5" d="M64.69,118.74h-5.36c-.25,0-.45-.2-.45-.45s.2-.45.45-.45h5.36c.25,0,.45.2.45.45s-.2.45-.45.45"/>
      <path class="cls-5" d="M64.69,120.81h-5.36c-.25,0-.45-.2-.45-.45s.2-.45.45-.45h5.36c.25,0,.45.2.45.45s-.2.45-.45.45"/>
      <path class="cls-5" d="M64.69,122.75h-5.36c-.25,0-.45-.2-.45-.45s.2-.45.45-.45h5.36c.25,0,.45.2.45.45s-.2.45-.45.45"/>
      <polygon class="cls-23" points="73.55 114.47 72.91 113.83 68.75 117.99 66.76 115.99 66.12 116.63 68.11 118.63 68.1 118.64 68.74 119.28 68.75 119.27 68.76 119.28 69.4 118.64 69.39 118.63 73.55 114.47"/>
      <polygon class="cls-23" points="73.45 119.22 72.81 118.58 68.65 122.74 66.65 120.74 66.01 121.38 68.01 123.38 68 123.39 68.64 124.03 68.65 124.02 68.66 124.03 69.3 123.39 69.29 123.38 73.45 119.22"/>
      <rect class="cls-7" x="101.36" y="75.82" width="16.97" height="12.89"/>
      <rect class="cls-14" x="102.38" y="76.71" width="14.94" height="11.14"/>
      <path class="cls-6" d="M114.92,79.89h-10.15c-.47,0-.86-.38-.86-.86s.38-.86.86-.86h10.15c.47,0,.86.38.86.86s-.38.86-.86.86"/>
      <path class="cls-6" d="M114.92,83.12h-10.15c-.47,0-.86-.38-.86-.86s.38-.86.86-.86h10.15c.47,0,.86.38.86.86s-.38.86-.86.86"/>
      <path class="cls-6" d="M114.92,86.59h-10.15c-.47,0-.86-.38-.86-.86s.38-.86.86-.86h10.15c.47,0,.86.38.86.86s-.38.86-.86.86"/>
      <path class="cls-7" d="M87.38,121.3h13.02v-4.76s2.34-.99,2.34-8.83v-5.38s-.19-2.69-4.49-2.05c0,0-1.22-1.99-3.9-.75,0,0-.85-1.4-3.11-.92v-6.85s.11-2.12-2.97-2.12c0,0-2.89,0-2.89,2.02v8.22s-4.64-1.3-4.64,2.05c0,0-.15.68.18,1.27l2.97,8.39s1.78,4.52,3.41,5.34v4.07l.07.31Z"/>
      <path class="cls-12" d="M101.57,102.97c0-.64-.36-1.15-.86-1.47-1.05-.68-2.51.05-2.54,1.23-.02.91-.04,1.64-.04,1.64,0,0-.14-1.32-.26-2.58-.04-.41-.24-.79-.59-1.04-.33-.23-.73-.39-1.14-.45-.95-.14-1.8.59-1.81,1.48-.02,1.25-.04,2.44-.04,2.44,0,0,0,0,0-.01-.02-.18-.21-1.95-.33-3.3-.03-.38-.21-.74-.52-.99-.11-.09-.22-.16-.34-.23-1.06-.58-2.41.12-2.45,1.26,0,.01,0,.03,0,.05-.05,1.16-.11,2.37-.12,2.72v.02s0,.04,0,.05c0,.01,0,.02,0,.02s0,0,0,0c0,0-.16-2.68-.18-3.81v-7.31c.05-2.24-4.03-2.67-4,.05l.03,10.07h0s0,0,0,0l.02,5.75-.54-5.84c-.02-.24-.11-.48-.25-.68-.59-.85-1.41-1.85-2.98-1.2-1.48.62-.41,2.4-.11,3.39l2.06,5.43s.03.09.04.14c.22.85,1.35,3.52,2.38,4.71.4.77,1,1.53,1.76,2.17-.17.24-.26.52-.26.82l.02,2.77.11.1h9.27c.91,0,1.64-.68,1.64-1.52l-.02-1.95c0-.26-.08-.51-.21-.72,1.5-1.45,2.25-3.45,2.25-5.49l.03-7.72Z"/>
    </g>
    <g>
      <rect class="cls-16" x="93.52" y="172.14" width="11.02" height=".74" transform="translate(-94.06 124.74) rotate(-46.25)"/>
      <rect class="cls-16" x="112.85" y="164.45" width="4.99" height=".74" transform="translate(-70.04 86.68) rotate(-32.16)"/>
      <path class="cls-16" d="M107.45,160.09l-.67-.33.18-.37.67.33-.18.37ZM107.97,159.06l-.67-.33.67-1.33.67.33-.67,1.33ZM108.97,157.07l-.67-.33.67-1.33.67.33-.67,1.33ZM109.97,155.07l-.66-.33.67-1.33.66.33-.67,1.33ZM110.97,153.08l-.67-.33.67-1.33.67.33-.67,1.33Z"/>
      <rect class="cls-16" x="98.87" y="156.08" width=".74" height="9.37" transform="translate(-89.09 145.75) rotate(-53.75)"/>
      <path class="cls-4" d="M101.5,163.76c-.68,3.34,1.47,6.6,4.8,7.29,3.34.68,6.6-1.47,7.29-4.8.68-3.34-1.47-6.6-4.8-7.29-3.34-.68-6.6,1.47-7.29,4.8"/>
      <path class="cls-7" d="M106.71,169.04c2.23.46,4.42-.98,4.88-3.21.46-2.23-.98-4.42-3.21-4.88l.41-2c3.34.68,5.49,3.95,4.8,7.29-.69,3.34-3.95,5.49-7.29,4.8l.41-2Z"/>
      <rect class="cls-14" x="87.66" y="150.57" width="10.33" height="10.54"/>
      <path class="cls-6" d="M96.37,160.63h-7.08c-.55,0-1-.45-1-1v-7.59c0-.55.45-1,1-1h7.08c.55,0,1,.45,1,1v7.59c0,.55-.45,1-1,1"/>
      <path class="cls-15" d="M89.94,152.74c0,.15-.13.28-.29.28s-.29-.12-.29-.28.13-.28.29-.28.29.12.29.28"/>
      <rect class="cls-15" x="90.42" y="152.47" width="5.85" height=".44"/>
      <path class="cls-15" d="M89.94,154.53c0,.15-.13.28-.29.28s-.29-.12-.29-.28.13-.28.29-.28.29.12.29.28"/>
      <rect class="cls-15" x="90.4" y="154.4" width="5.85" height=".44"/>
      <path class="cls-15" d="M89.94,156.71c0,.15-.13.28-.29.28s-.29-.12-.29-.28.13-.28.29-.28.29.12.29.28"/>
      <rect class="cls-15" x="90.42" y="156.43" width="5.85" height=".44"/>
      <path class="cls-15" d="M89.94,158.5c0,.15-.13.28-.29.28s-.29-.12-.29-.28.13-.28.29-.28.29.12.29.28"/>
      <rect class="cls-15" x="90.4" y="158.36" width="5.85" height=".44"/>
      <rect class="cls-18" x="87.03" y="171.07" width="9.67" height="10.38"/>
      <path class="cls-6" d="M95.11,180.96h-6.5c-.55,0-1-.45-1-1v-7.45c0-.55.45-1,1-1h6.5c.55,0,1,.45,1,1v7.45c0,.55-.45,1-1,1"/>
      <path class="cls-5" d="M89.05,173.04c0,.23-.19.42-.42.42s-.42-.19-.42-.42.19-.42.42-.42.42.19.42.42"/>
      <path class="cls-5" d="M95.03,173.31h-5.42c-.13,0-.23-.1-.23-.23s.1-.23.23-.23h5.42c.13,0,.23.1.23.23s-.1.23-.23.23"/>
      <path class="cls-5" d="M89.05,175.42c0,.23-.19.41-.41.41s-.42-.18-.42-.41.19-.41.42-.41.41.19.41.41"/>
      <path class="cls-5" d="M95.01,175.66h-5.42c-.13,0-.23-.1-.23-.23s.1-.23.23-.23h5.42c.13,0,.23.1.23.23s-.1.23-.23.23"/>
      <path class="cls-5" d="M92.1,177.53h-3.15c-.15,0-.27-.12-.27-.27s.12-.27.27-.27h3.15c.15,0,.27.12.27.27s-.12.27-.27.27"/>
      <path class="cls-5" d="M92.1,179.88h-3.15c-.15,0-.27-.12-.27-.27s.12-.27.27-.27h3.15c.15,0,.27.12.27.27s-.12.27-.27.27"/>
      <polygon class="cls-23" points="97.31 175.03 96.93 174.65 94.49 177.09 93.32 175.92 92.94 176.3 94.11 177.47 94.11 177.47 94.48 177.85 94.49 177.84 94.49 177.85 94.87 177.47 94.86 177.47 97.31 175.03"/>
      <polygon class="cls-23" points="97.24 177.81 96.87 177.44 94.43 179.88 93.26 178.71 92.88 179.08 94.05 180.26 94.04 180.26 94.42 180.64 94.43 180.63 94.43 180.64 94.81 180.26 94.8 180.26 97.24 177.81"/>
      <rect class="cls-7" x="117.07" y="156.43" width="10.74" height="8.16"/>
      <rect class="cls-14" x="117.71" y="156.99" width="9.45" height="7.05"/>
      <path class="cls-6" d="M125.65,159h-6.42c-.3,0-.54-.24-.54-.54s.24-.54.54-.54h6.42c.3,0,.54.24.54.54s-.24.54-.54.54"/>
      <path class="cls-6" d="M125.65,161.05h-6.42c-.3,0-.54-.24-.54-.54s.24-.54.54-.54h6.42c.3,0,.54.24.54.54s-.24.54-.54.54"/>
      <path class="cls-6" d="M125.65,163.24h-6.42c-.3,0-.54-.24-.54-.54s.24-.54.54-.54h6.42c.3,0,.54.24.54.54s-.24.54-.54.54"/>
      <path class="cls-6" d="M103.5,164.17c.46-2.23,2.64-3.67,4.88-3.21,2.23.46,3.67,2.64,3.21,4.88-.46,2.23-2.64,3.67-4.88,3.21-2.23-.46-3.67-2.64-3.21-4.88"/>
      <path class="cls-7" d="M110.32,165c0,1.54-1.25,2.78-2.78,2.78s-2.78-1.25-2.78-2.78,1.25-2.78,2.78-2.78,2.78,1.25,2.78,2.78"/>
      <path class="cls-7" d="M107.35,183.4h7.51v-2.74s1.35-.57,1.35-5.09v-3.1s-.11-1.55-2.59-1.18c0,0-.71-1.14-2.25-.43,0,0-.49-.81-1.8-.53v-3.95s.06-1.22-1.71-1.22c0,0-1.67,0-1.67,1.17v4.74s-2.67-.75-2.67,1.18c0,0-.09.39.11.73l1.71,4.84s1.03,2.61,1.97,3.08v2.35l.04.18Z"/>
      <path class="cls-12" d="M115.53,172.83c0-.37-.21-.66-.5-.85-.61-.39-1.45.03-1.46.71-.01.52-.02.95-.02.95,0,0-.08-.76-.15-1.49-.02-.23-.14-.46-.34-.6-.19-.13-.42-.22-.66-.26-.55-.08-1.04.34-1.04.86,0,.72-.02,1.41-.02,1.41,0,0,0,0,0,0-.01-.1-.12-1.12-.19-1.91-.02-.22-.12-.43-.3-.57-.06-.05-.13-.09-.2-.13-.61-.33-1.39.07-1.41.73,0,0,0,.02,0,.03-.03.67-.06,1.37-.07,1.57,0,0,0,0,0,0,0,.01,0,.02,0,.03,0,0,0,.01,0,.01h0s-.09-1.54-.1-2.19v-4.22c.03-1.29-2.32-1.54-2.3.03l.02,5.8h0v3.31s-.3-3.37-.3-3.37c-.01-.14-.06-.28-.14-.39-.34-.49-.81-1.07-1.72-.69-.86.36-.23,1.38-.06,1.95l1.19,3.13s.02.05.02.08c.13.49.78,2.03,1.37,2.71.23.45.58.88,1.01,1.25-.1.14-.15.3-.15.47v1.6s.08.06.08.06h5.35c.52,0,.95-.39.94-.87v-1.12c-.01-.15-.06-.29-.14-.42.87-.84,1.29-1.99,1.3-3.16l.02-4.45Z"/>
      <path class="cls-7" d="M108.09,145.13h4.62c.2,0,.4.08.54.22l1.67,1.66c.15.14.23.34.23.55v6.19c0,.43-.35.77-.77.77h-5.52c-.43,0-.77-.35-.77-.77v-8.62Z"/>
      <polygon class="cls-6" points="108.72 145.66 112.74 145.66 112.74 147.49 114.5 147.49 114.5 153.97 108.72 153.97 108.72 145.66"/>
      <path class="cls-7" d="M113.89,152.59h-4.52s-.08-.04-.08-.08h0c0-.05.04-.09.08-.09h4.52s.08.04.08.08h0c0,.05-.04.09-.08.09"/>
      <path class="cls-7" d="M110.99,147.99c-.06.4.28.74.68.68.25-.04.46-.24.49-.49.06-.4-.28-.74-.68-.68-.25.04-.46.24-.49.49"/>
      <path class="cls-7" d="M113.25,151.45h-3.43c-.28,0-.47-.28-.37-.54l.74-1.97c.11-.29.49-.35.69-.11l.9,1.13c.14.17.38.2.55.07l.14-.11c.18-.14.45-.09.57.1l.54.81c.18.27-.01.62-.33.62"/>
    </g>
  </g>
</svg>