<?xml version="1.0" encoding="UTF-8"?>
<svg id="Capa_2" xmlns="http://www.w3.org/2000/svg" viewBox="0 0 120.86 214.61">
  <defs>
    <style>
      .cls-1 {
        fill: #f9cf16;
      }

      .cls-2 {
        fill: #cd142a;
      }

      .cls-3 {
        fill: #ea86a1;
      }

      .cls-4 {
        fill: #646365;
      }

      .cls-5 {
        fill: #868486;
      }

      .cls-6 {
        fill: #fff;
      }

      .cls-7 {
        fill: #115a9f;
      }

      .cls-8 {
        fill: #625f60;
      }

      .cls-9 {
        fill: #db4c75;
      }

      .cls-10 {
        fill: #d00e4a;
      }

      .cls-11 {
        fill: #4780b4;
      }

      .cls-12 {
        fill: #d00e4d;
      }

      .cls-13 {
        fill: #d00e4c;
      }

      .cls-14 {
        fill: #d22e1f;
      }

      .cls-15 {
        fill: #efc89b;
      }

      .cls-16 {
        fill: #b1aeaf;
      }

      .cls-17 {
        fill: #636061;
      }

      .cls-18 {
        fill: #9d9a9c;
      }

      .cls-19 {
        fill: #d20f48;
      }

      .cls-20 {
        fill: #1d458c;
      }

      .cls-21 {
        fill: #e1222c;
      }

      .cls-22 {
        fill: #828384;
      }

      .cls-23 {
        fill: #1b4180;
      }

      .cls-24 {
        fill: #ac2082;
      }
    </style>
  </defs>
  <g id="Capa_1-2" data-name="Capa_1">
    <g>
      <path class="cls-8" d="M50.38,204.15h1.14v8.37h-1.14v-8.37Z"/>
      <path class="cls-8" d="M55.91,207.96c-.25.09-.46.21-.62.38s-.29.37-.38.63-.13.51-.13.76.04.5.13.76.21.46.38.63.37.29.62.38.5.13.75.13h4.61v.93h-4.61c-.51,0-.98-.13-1.41-.38-.43-.25-.77-.59-1.03-1.03-.25-.43-.38-.9-.38-1.41s.12-.98.38-1.41c.25-.43.6-.78,1.03-1.03.43-.25.9-.38,1.41-.38h4.61v.93h-4.61c-.25,0-.5.04-.75.13Z"/>
      <path class="cls-8" d="M67.4,206.88c.5-.02.94.02,1.32.14s.68.28.92.49.42.43.56.66.23.45.29.66.1.38.11.53.02.21.02.19v.33c0,.24-.06.52-.18.83s-.3.61-.55.89-.57.51-.97.69-.85.25-1.38.22h-1.05c-.52.03-.98-.05-1.38-.22s-.72-.4-.97-.69-.43-.58-.55-.89-.18-.59-.18-.83v-.33s0-.04.02-.19.05-.33.11-.53.16-.42.29-.66.32-.46.56-.66.55-.37.92-.49.81-.16,1.32-.14h.76ZM67.76,211.58c.7,0,1.19-.17,1.47-.51s.45-.7.49-1.09v-.16s.01-.26.01-.26v-.18c-.05-.37-.22-.72-.5-1.06s-.77-.51-1.48-.51h-1.49c-.7,0-1.2.17-1.48.51s-.44.7-.48,1.06l-.02.18v.25l.02.18c.04.39.2.75.49,1.09s.78.51,1.47.51h1.49Z"/>
      <path class="cls-8" d="M79.72,208.22c.25.44.38.92.38,1.44v2.87h-.94v-2.87c0-.26-.04-.52-.13-.77s-.21-.47-.38-.64c-.16-.17-.36-.3-.61-.39s-.49-.13-.74-.13h-1.78c-.48,0-1.1,0-1.86,0,0-.22,0-.01,0,.62s0,1.06,0,1.25v2.94h-.94v-5.74h4.58c.5,0,.97.13,1.4.38.43.26.77.61,1.03,1.05Z"/>
      <path class="cls-8" d="M86.25,206.88c.5-.02.94.02,1.32.14s.68.28.92.49.42.43.56.66.23.45.29.66.1.38.11.53.02.21.02.19v.33c0,.24-.06.52-.18.83s-.3.61-.55.89-.57.51-.97.69-.85.25-1.38.22h-1.05c-.52.03-.98-.05-1.38-.22s-.72-.4-.97-.69-.43-.58-.55-.89-.18-.59-.18-.83v-.33s0-.04.02-.19.05-.33.11-.53.16-.42.29-.66.32-.46.56-.66.55-.37.92-.49.81-.16,1.32-.14h.76ZM86.62,211.58c.7,0,1.19-.17,1.47-.51s.45-.7.49-1.09v-.16s.01-.26.01-.26v-.18c-.05-.37-.22-.72-.5-1.06s-.77-.51-1.48-.51h-1.49c-.7,0-1.2.17-1.48.51s-.44.7-.48,1.06l-.02.18v.25l.02.18c.04.39.2.75.49,1.09s.78.51,1.47.51h1.49Z"/>
      <path class="cls-8" d="M101.67,208.21c.23.4.35.9.35,1.49,0-.09,0-.07,0,.06h0v.66c0,.55-.11.98-.32,1.28s-.46.5-.76.61-.61.16-.93.17-.57.02-.73.02h-3.01c-.47,0-.87-.17-1.2-.52s-.5-.76-.5-1.24.17-.9.5-1.25c.33-.35.73-.52,1.2-.52h4.61c0-.07-.02-.13-.04-.19s-.04-.11-.05-.13c-.09-.18-.21-.34-.38-.48s-.34-.26-.54-.34c-.2-.08-.41-.12-.62-.12h-4.44v-.9c0-.08,0-.1,0-.08h4.44c.51,0,.99.13,1.43.4.21.12.39.27.55.45s.3.38.44.62ZM101.01,210.55c0-.08,0-.28-.01-.59h-4.83c-.17,0-.32.08-.45.23-.12.16-.18.34-.18.56s.06.4.18.56c.12.15.27.23.45.23h3.13c.36,0,.64,0,.85-.02s.38-.07.5-.16c.13-.09.22-.21.27-.34s.08-.29.09-.47Z"/>
      <path class="cls-8" d="M105.1,214.59h-.91c0,.05,0,0,0-.16v-5.33c0-.35.13-.69.4-1.02s.59-.6.98-.81.75-.31,1.08-.31h1.71c.53-.02.99.05,1.39.22s.72.39.97.67.44.57.56.88.18.58.18.82v.32s0,.04-.02.18-.05.32-.11.52-.16.42-.3.65-.33.45-.57.65-.55.36-.92.48-.82.16-1.32.14h-3.11v2.1ZM105.1,211.57h3.47c.57,0,1-.12,1.29-.35s.48-.47.57-.73.13-.46.13-.62v-.28c0-.19-.04-.42-.13-.68s-.28-.5-.57-.73-.72-.33-1.27-.33h-1.88c-.24,0-.49.07-.74.22s-.46.34-.62.56-.24.45-.24.66v2.26Z"/>
      <path class="cls-8" d="M114.51,214.59h-.91c0,.05,0,0,0-.16v-5.33c0-.35.13-.69.4-1.02s.59-.6.98-.81.75-.31,1.08-.31h1.71c.53-.02.99.05,1.39.22s.72.39.97.67.44.57.56.88.18.58.18.82v.32s0,.04-.02.18-.05.32-.11.52-.16.42-.3.65-.33.45-.57.65-.55.36-.92.48-.82.16-1.32.14h-3.11v2.1ZM114.51,211.57h3.47c.57,0,1-.12,1.29-.35s.48-.47.57-.73.13-.46.13-.62v-.28c0-.19-.04-.42-.13-.68s-.28-.5-.57-.73-.72-.33-1.27-.33h-1.88c-.24,0-.49.07-.74.22s-.46.34-.62.56-.24.45-.24.66v2.26Z"/>
    </g>
    <g>
      <g>
        <path class="cls-4" d="M54.86,21.38h-.28s0,0,0-.05v-1.65c0-.11.04-.21.12-.32.08-.1.18-.19.3-.25.12-.07.23-.1.33-.1h.53c.16,0,.31.02.43.07.12.05.22.12.3.21.08.09.14.18.17.27.04.09.06.18.06.25v.1s0,.01,0,.06c0,.04-.02.1-.04.16-.02.06-.05.13-.09.2-.04.07-.1.14-.17.2-.08.06-.17.11-.29.15-.12.04-.25.05-.41.04h-.96v.65ZM54.86,20.44h1.08c.17,0,.31-.04.4-.11.09-.07.15-.15.17-.22.03-.08.04-.14.04-.19v-.09c0-.06-.01-.13-.04-.21-.03-.08-.09-.16-.18-.23s-.22-.1-.39-.1h-.58c-.08,0-.15.02-.23.07-.08.05-.14.1-.19.17s-.07.14-.07.2v.7Z"/>
        <path class="cls-4" d="M59.27,19.25h-.99s-.11,0-.17,0c-.06,0-.12,0-.17.02-.05.02-.1.04-.14.08-.04.04-.07.08-.08.14s-.03.1-.03.14c0,.04,0,.11,0,.21v.87s0,.02-.02.02h-.25s-.02,0-.02-.02v-.89s0-.1,0-.19c0-.09.02-.18.05-.27.04-.09.1-.17.19-.24.06-.04.12-.08.18-.1.07-.02.13-.04.19-.05s.12-.01.17-.01h1.1v.29Z"/>
        <path class="cls-4" d="M61.08,18.99c.16,0,.29,0,.41.04.12.04.21.09.28.15.07.06.13.13.17.21.04.07.07.14.09.2s.03.12.04.16,0,.07,0,.06v.1c0,.08-.02.16-.06.26-.04.1-.09.19-.17.28-.08.09-.18.16-.3.21s-.26.08-.43.07h-.33c-.16,0-.3-.01-.43-.07s-.22-.12-.3-.21c-.08-.09-.13-.18-.17-.28-.04-.1-.05-.18-.05-.26v-.1s0-.01,0-.06.02-.1.04-.16.05-.13.09-.2c.04-.07.1-.14.17-.21.07-.06.17-.12.28-.15.11-.04.25-.05.41-.04h.24ZM61.19,20.45c.22,0,.37-.05.46-.16s.14-.22.15-.34v-.05s0-.08,0-.08v-.05c-.02-.11-.07-.22-.15-.33-.09-.11-.24-.16-.46-.16h-.46c-.22,0-.37.05-.46.16-.09.11-.14.22-.15.33v.05s0,.08,0,.08v.05c.02.12.07.23.16.34.09.1.24.16.46.16h.46Z"/>
        <path class="cls-4" d="M64.64,18.35h.28s0,0,0,.05v1.68c0,.12-.01.22-.04.3-.02.08-.06.15-.12.2-.06.05-.13.09-.22.11-.09.02-.21.04-.35.04h-.57c-.16,0-.31-.01-.43-.07-.12-.05-.23-.12-.3-.21-.08-.09-.14-.18-.17-.27-.04-.1-.06-.18-.06-.26v-.1s0-.01,0-.06c0-.05.02-.1.04-.16.02-.06.05-.13.09-.2s.1-.14.17-.2c.08-.06.17-.11.29-.15.12-.04.25-.05.41-.04h.97v-.66ZM64.64,19.29h-1.08c-.18,0-.31.04-.4.11s-.15.15-.18.23c-.03.08-.04.14-.04.19v.08c0,.06.01.13.04.21.03.08.09.16.18.23.09.07.22.1.4.1h.75c.09,0,.15-.02.2-.06.05-.04.08-.09.1-.15.02-.07.03-.15.03-.24v-.71Z"/>
        <path class="cls-4" d="M67.13,20.4c.08-.03.14-.07.19-.12s.09-.12.12-.2.04-.16.04-.24v-.9h.29v.9c0,.16-.04.31-.12.45-.08.14-.19.25-.32.33-.13.08-.28.12-.44.12h-.56c-.16,0-.3-.04-.44-.12-.13-.08-.24-.19-.32-.33-.08-.14-.12-.29-.12-.45v-.9h.29s0,0,0,.02v.87c0,.08.01.16.04.24.03.08.07.15.12.2s.11.09.19.12c.08.03.15.04.23.04h.56c.08,0,.15-.01.23-.04Z"/>
        <path class="cls-4" d="M68.91,19.32c-.08.03-.14.07-.19.12s-.09.12-.12.19c-.03.08-.04.16-.04.23s.01.16.04.23c.03.08.07.14.12.19s.12.09.19.12.16.04.23.04h1.43v.29h-1.43c-.16,0-.3-.04-.44-.12-.13-.08-.24-.18-.32-.32-.08-.13-.12-.28-.12-.44s.04-.3.12-.44c.08-.13.18-.24.32-.32.13-.08.28-.12.44-.12h1.43v.29h-1.43c-.08,0-.16.01-.23.04Z"/>
        <path class="cls-4" d="M72.6,20.45v.29h-.54c-.15,0-.3-.04-.43-.11-.13-.08-.24-.18-.32-.31-.08-.13-.12-.27-.12-.43v-1.55h.29s0,0,0,.02v.64h.67s0,0,0,.02v.26s0,0-.03,0h-.65v.62c0,.13.03.23.1.32s.13.15.21.19c.04.02.09.04.16.05.07,0,.13,0,.18,0h.48Z"/>
        <path class="cls-4" d="M74.46,18.99c.16,0,.29,0,.41.04s.21.09.28.15c.07.06.13.13.17.21.04.07.07.14.09.2.02.06.03.12.04.16s0,.07,0,.06v.1c0,.08-.02.16-.06.26-.04.1-.09.19-.17.28-.08.09-.18.16-.3.21s-.26.08-.43.07h-.33c-.16,0-.3-.01-.43-.07-.12-.05-.22-.12-.3-.21-.08-.09-.13-.18-.17-.28-.04-.1-.06-.18-.06-.26v-.1s0-.01,0-.06.02-.1.04-.16.05-.13.09-.2c.04-.07.1-.14.17-.21.08-.06.17-.12.28-.15.12-.04.25-.05.41-.04h.24ZM74.57,20.45c.22,0,.37-.05.46-.16.09-.1.14-.22.15-.34v-.05s0-.08,0-.08v-.05c-.02-.11-.07-.22-.15-.33-.09-.11-.24-.16-.46-.16h-.46c-.22,0-.37.05-.46.16-.09.11-.14.22-.15.33v.05s0,.08,0,.08v.05c.02.12.07.23.16.34.09.1.24.16.46.16h.46Z"/>
        <path class="cls-4" d="M77.88,19.74c.12,0,.22.05.31.12.09.07.13.21.13.41,0,.11-.03.2-.08.27-.05.07-.12.12-.2.16-.08.03-.16.05-.24.05h-1.78v-.29s1.77,0,1.77,0c.06,0,.12-.01.17-.04.05-.03.08-.09.08-.19,0-.06-.02-.11-.05-.14-.04-.03-.08-.04-.12-.05s-.07,0-.08,0h-1.29c-.07,0-.14-.02-.22-.06-.08-.04-.14-.09-.2-.18-.06-.08-.08-.19-.08-.32,0-.11.03-.21.09-.28.06-.07.13-.13.21-.16.08-.04.16-.05.23-.06h1.61v.29h-1.59c-.07,0-.13.01-.18.04-.06.03-.08.1-.08.21,0,.09.03.15.08.18.05.03.1.04.15.04h1.38Z"/>
        <path class="cls-4" d="M81.98,18.98v1.52c-.01.17-.05.33-.13.45-.09.16-.2.27-.32.34-.12.07-.27.11-.45.11h-1.24s-.02,0-.02-.02v-.25s0-.02.02-.02h1.24c.06,0,.12,0,.17-.01.05,0,.09-.03.13-.05.05-.04.1-.07.13-.1s.06-.06.08-.11l.04-.09h-1.13c-.13,0-.25-.02-.36-.08-.11-.05-.19-.11-.26-.18-.07-.07-.12-.15-.18-.26-.05-.11-.08-.22-.08-.33v-.92s0-.02,0-.02h.3s0,0,0,.02v.94c0,.06.01.12.04.18s.04.11.07.13c.01.01.04.04.07.07.03.03.08.07.14.09.06.03.13.05.22.06h1.24s0-1.47,0-1.47c0-.02,0-.02.02-.02h.25s.02,0,.02.02Z"/>
        <path class="cls-4" d="M85.19,19.74c.12,0,.22.05.31.12.09.07.13.21.13.41,0,.11-.03.2-.08.27-.05.07-.12.12-.2.16-.08.03-.16.05-.24.05h-1.78v-.29s1.77,0,1.77,0c.06,0,.12-.01.17-.04.05-.03.08-.09.08-.19,0-.06-.02-.11-.05-.14-.04-.03-.08-.04-.12-.05s-.07,0-.08,0h-1.29c-.07,0-.14-.02-.22-.06-.08-.04-.14-.09-.2-.18-.06-.08-.08-.19-.08-.32,0-.11.03-.21.09-.28.06-.07.13-.13.21-.16.08-.04.16-.05.23-.06h1.61v.29h-1.59c-.07,0-.13.01-.18.04-.06.03-.08.1-.08.21,0,.09.03.15.08.18.05.03.1.04.15.04h1.38Z"/>
        <path class="cls-4" d="M88.18,19.09c.08.07.14.14.17.23.03.08.04.16.04.22,0,.31-.17.48-.52.49h-1.38s0,.07,0,.07c0,.08,0,.14.02.19s.04.08.07.1c.03.02.08.04.14.04.06,0,.14.01.24.01h1.29s.06.02.06.05v.17s-.02.06-.06.06h-1.33c-.19,0-.33-.02-.44-.06-.11-.04-.18-.11-.23-.2s-.07-.21-.07-.37v-.44c0-.1.04-.21.12-.31.08-.1.18-.19.3-.26.12-.07.25-.1.38-.1h.84c.15,0,.27.03.36.1ZM87.98,19.72s.05-.03.08-.06c.02-.02.03-.04.04-.07s.01-.06.01-.11c0-.02,0-.05-.02-.08-.01-.03-.03-.06-.07-.09-.03-.03-.08-.04-.13-.04h-.92c-.07,0-.14.02-.21.06s-.14.1-.19.17-.08.15-.08.23h1.37c.06,0,.1,0,.12-.01Z"/>
        <path class="cls-4" d="M90.9,19.25h-.99s-.11,0-.17,0c-.06,0-.12,0-.17.02-.05.02-.1.04-.14.08-.04.04-.07.08-.08.14-.02.05-.03.1-.03.14,0,.04,0,.11,0,.21v.87s0,.02-.02.02h-.25s-.02,0-.02-.02v-.89s0-.1,0-.19c0-.09.02-.18.05-.27.03-.09.1-.17.19-.24.06-.04.12-.08.18-.1.07-.02.13-.04.19-.05.06,0,.12-.01.17-.01h1.1v.29Z"/>
        <path class="cls-4" d="M91.6,18.95l1.03,1.55h.03l1.03-1.55h.35l-1.04,1.55c-.08.13-.14.21-.16.24h-.41c-.05-.07-.1-.15-.16-.24l-1.03-1.55h.35Z"/>
        <path class="cls-4" d="M94.75,18.14v.31h-.31v-.31h.31ZM94.75,18.86v1.88h-.31v-1.88h.31Z"/>
        <path class="cls-4" d="M95.99,19.32c-.08.03-.14.07-.19.12s-.09.12-.12.19c-.03.08-.04.16-.04.23s.01.16.04.23c.03.08.07.14.12.19s.12.09.19.12.16.04.23.04h1.43v.29h-1.43c-.16,0-.3-.04-.44-.12-.13-.08-.24-.18-.32-.32-.08-.13-.12-.28-.12-.44s.04-.3.12-.44c.08-.13.18-.24.32-.32.13-.08.28-.12.44-.12h1.43v.29h-1.43c-.08,0-.16.01-.23.04Z"/>
        <path class="cls-4" d="M98.57,18.14v.31h-.31v-.31h.31ZM98.57,18.86v1.88h-.31v-1.88h.31Z"/>
        <path class="cls-4" d="M100.45,18.99c.16,0,.29,0,.41.04s.21.09.28.15c.07.06.13.13.17.21.04.07.07.14.09.2.02.06.03.12.04.16s0,.07,0,.06v.1c0,.08-.02.16-.05.26-.04.1-.09.19-.17.28-.08.09-.18.16-.3.21s-.26.08-.43.07h-.33c-.16,0-.3-.01-.43-.07-.12-.05-.22-.12-.3-.21-.08-.09-.13-.18-.17-.28-.04-.1-.06-.18-.06-.26v-.1s0-.01,0-.06.02-.1.04-.16.05-.13.09-.2c.04-.07.1-.14.17-.21.08-.06.17-.12.28-.15.12-.04.25-.05.41-.04h.24ZM100.56,20.45c.22,0,.37-.05.46-.16.09-.1.14-.22.15-.34v-.05s0-.08,0-.08v-.05c-.02-.11-.07-.22-.15-.33-.09-.11-.24-.16-.46-.16h-.46c-.22,0-.37.05-.46.16-.09.11-.14.22-.15.33v.05s0,.08,0,.08v.05c.02.12.07.23.16.34.09.1.24.16.46.16h.46Z"/>
        <path class="cls-4" d="M103.87,19.74c.12,0,.22.05.31.12.09.07.13.21.13.41,0,.11-.03.2-.08.27-.05.07-.12.12-.2.16-.08.03-.16.05-.24.05h-1.78v-.29s1.77,0,1.77,0c.06,0,.12-.01.17-.04.05-.03.08-.09.08-.19,0-.06-.02-.11-.05-.14-.04-.03-.08-.04-.12-.05s-.07,0-.08,0h-1.29c-.07,0-.14-.02-.22-.06-.08-.04-.14-.09-.2-.18-.06-.08-.08-.19-.08-.32,0-.11.03-.21.09-.28.06-.07.13-.13.21-.16.08-.04.16-.05.23-.06h1.61v.29h-1.59c-.07,0-.13.01-.18.04-.06.03-.08.1-.08.21,0,.09.03.15.08.18.05.03.1.04.15.04h1.38Z"/>
      </g>
      <rect class="cls-1" x="116.35" y="18.11" width="4.16" height="1.32"/>
      <rect class="cls-23" x="116.35" y="19.43" width="4.16" height=".66"/>
      <rect class="cls-2" x="116.35" y="20.09" width="4.16" height=".66"/>
      <rect class="cls-21" x="111.26" y="18.11" width="1.39" height="2.63"/>
      <rect class="cls-21" x="114.03" y="18.11" width="1.39" height="2.63"/>
      <rect class="cls-6" x="112.64" y="18.11" width="1.39" height="2.63"/>
      <polyline class="cls-14" points="110.32 20.75 106.17 20.75 106.17 19.43 110.32 19.43"/>
      <rect class="cls-20" x="106.17" y="18.11" width="1.39" height="1.32"/>
      <rect class="cls-6" x="107.55" y="18.11" width="2.77" height="1.32"/>
      <polygon class="cls-6" points="106.78 18.67 106.53 18.67 106.73 18.81 106.65 19.04 106.86 18.9 107.06 19.04 106.98 18.81 107.19 18.67 106.94 18.67 106.86 18.44 106.78 18.67"/>
      <path class="cls-6" d="M14.84.27L.55,4.78l14.33,11.12,14.04-10.84L14.84.27ZM20.37,10.39l-3.12,2.39-2.66-1.71,2.04-1.67c.37-.33.47-.56.47-.56v-3.18c.03-.54-.73-.85-.73-.85-.94-.45-2.38-.43-2.38-.43-1.33-.02-3.8.92-3.8.92v2.95l-3.69-2.37c2.35-.95,3.42-1.2,3.42-1.2,2.33-.65,3.96-.69,3.96-.69,2.61-.14,4.68.58,4.68.58,2.08.57,2.94,1.3,2.94,1.3,1.72,1.29,1.33,2.61,1.33,2.61-.27.24-2.47,1.91-2.47,1.91"/>
      <polygon class="cls-13" points=".02 8.24 .02 4.69 14.92 16.03 29.45 4.96 29.45 8.22 14.87 21.46 .02 8.24"/>
      <path class="cls-13" d="M6.42,5.91l-2.39-1.48s3.15-1.23,5.77-1.73c2.62-.5,3.58-.53,5.07-.47,1.5.06,4.37.63,6.26,1.55,1.89.93,2.29,1.89,2.4,2.42.12.53.09,1.75-.34,2.13l-.42.38s.31-.69-.13-1.56c-.44-.87-1.39-1.7-3.12-2.29-1.73-.59-3.27-.92-5.14-.89-1.87.03-3.57.44-4.87.82-1.3.38-3.09,1.11-3.09,1.11"/>
      <path class="cls-13" d="M10.2,5.37v2.94l4.29,2.83s.94-.73,1.6-1.28c.66-.54.94-.87,1.01-1.03v-3.24s.08.51-1.06,1.15c-1.13.64-1.49.85-1.49.85l-4.35-2.21Z"/>
      <path class="cls-13" d="M14.88,16.23L0,4.68,14.85,0h.04s14.57,4.97,14.57,4.97l-14.57,11.26ZM.55,4.78l14.34,11.12,14.04-10.84L14.84.27.55,4.78Z"/>
      <path class="cls-13" d="M17.27,13.09l-.08-.05L3.75,4.39l.24-.09s3.19-1.24,5.8-1.74c1.92-.37,3-.49,4.14-.49.27,0,.57,0,.95.02,1.62.06,4.5.68,6.31,1.57,1.43.7,2.26,1.54,2.47,2.51.12.56.1,1.82-.38,2.25l-.43.38-5.59,4.29ZM4.32,4.45l12.94,8.32,5.44-4.17.42-.38c.38-.34.41-1.51.3-2-.2-.89-.98-1.67-2.33-2.33-1.78-.87-4.61-1.48-6.21-1.54-.38-.01-.68-.02-.94-.02-.97,0-1.94.08-4.1.49-2.17.41-4.73,1.34-5.51,1.63"/>
      <path class="cls-13" d="M14.47,7.64l-4.29-2.19.04-.07-.03-.08c.1-.04,2.43-.93,3.82-.93h.03c1.46.01,2.38.36,2.77.69.36.3.41.63.16,1.02-.18.28-.71.67-1.43,1.05-.71.38-1.02.5-1.03.51h-.03ZM10.32,5.39l4.15,2.12c.09-.04.4-.18.99-.49.7-.37,1.21-.74,1.38-1,.21-.33.18-.6-.13-.85-.37-.31-1.27-.65-2.69-.66h-.03c-1.21,0-3.21.72-3.68.89"/>
      <path class="cls-13" d="M40.5,6.74c.14.02.36.08.68.19.31.11.68.32,1.09.63.41.31.77.78,1.08,1.4.31.62.46,1.41.46,2.36s-.18,1.67-.54,2.27c-.36.61-.79,1.06-1.29,1.35-.5.29-.97.47-1.42.53h-7.62V6.73h7.57ZM40.44,14.29c.23-.04.52-.14.84-.3.32-.16.63-.46.92-.9.29-.43.43-1.03.43-1.78,0-.88-.15-1.57-.45-2.07-.3-.5-.62-.84-.95-1.01-.33-.18-.61-.28-.84-.32h-6.28v6.38h6.33Z"/>
      <rect class="cls-13" x="44.63" y="6.75" width="1.19" height="8.7"/>
      <path class="cls-13" d="M52.3,9.12c.77-.01,1.46-.13,2.06-.34.61-.22,1.08-.43,1.4-.65.33-.22.55-.38.66-.49l.96-.91v8.75h-1.14v-6.32c-.5.3-1.08.55-1.75.76-.66.21-1.39.32-2.18.33-.83,0-1.61-.1-2.33-.32-.72-.22-1.36-.49-1.92-.82v6.36h-1.14V6.73l1,.86c.14.13.39.3.75.53.36.23.86.45,1.51.68.64.23,1.35.33,2.11.32"/>
      <rect class="cls-12" x="59.08" y="10.44" width="2.29" height="1.16"/>
      <g>
        <path class="cls-22" d="M71.08,10.55c.26.02.54.12.82.29.29.17.54.44.75.81.21.37.31.84.31,1.42,0,.53-.12.97-.35,1.32-.23.35-.52.62-.85.79-.34.17-.67.26-1,.27h-7.55v-1.18h7.52c.23,0,.46-.08.69-.25.23-.17.34-.48.34-.94,0-.51-.08-.85-.26-1.04-.18-.19-.35-.29-.5-.32h-5.82c-.3,0-.61-.09-.94-.26-.33-.16-.61-.43-.84-.81s-.35-.86-.35-1.45c0-.56.12-1.02.37-1.39.25-.36.55-.63.89-.8.35-.17.67-.27.98-.29h6.82v1.18h-6.74c-.12,0-.27.04-.44.11-.18.07-.34.21-.48.4-.15.2-.22.46-.22.8,0,.53.11.89.34,1.07.23.18.44.28.64.29h5.86Z"/>
        <path class="cls-22" d="M80.56,9.91c.29.23.48.49.57.77s.14.53.15.74c0,1.05-.58,1.6-1.76,1.66h-4.67s0,.25,0,.25c0,.27.02.49.07.64.05.16.13.27.25.34.12.07.27.12.46.15.19.02.47.04.82.04h4.36c.13,0,.19.06.19.18v.59c0,.13-.06.19-.19.19h-4.51c-.63,0-1.12-.07-1.48-.21-.36-.14-.62-.36-.77-.67s-.23-.72-.23-1.24v-1.5c0-.35.13-.7.4-1.05s.61-.65,1.02-.88c.42-.23.84-.35,1.27-.35h2.84c.52,0,.92.12,1.21.35ZM79.88,12.04c.09-.03.17-.09.26-.19.06-.07.11-.15.13-.24s.04-.21.05-.37c0-.07-.02-.16-.06-.27s-.11-.21-.22-.3-.26-.14-.45-.14h-3.1c-.22,0-.46.07-.72.21-.26.14-.48.33-.65.56-.18.24-.27.5-.27.79h4.61c.19,0,.33-.02.42-.05Z"/>
        <path class="cls-22" d="M89.46,10.97c.26.46.39.96.39,1.51v3h-.99v-3c0-.27-.05-.54-.14-.81-.09-.27-.22-.49-.4-.67-.17-.18-.38-.31-.64-.41-.26-.09-.52-.14-.77-.14h-1.86c-.5,0-1.15,0-1.95,0,0-.23,0-.02,0,.65s0,1.1,0,1.31v3.07h-.99v-6.01h4.79c.52,0,1.01.13,1.46.4.45.27.81.64,1.07,1.1Z"/>
        <path class="cls-22" d="M95.64,14.48v.96h-1.81c-.52,0-1.01-.13-1.46-.39-.45-.26-.81-.61-1.07-1.05-.26-.44-.4-.92-.41-1.44v-5.25h.97s0,0,0,.07v2.16h2.27s0,0,0,.07v.89s-.03,0-.09,0h-2.18v2.08c0,.42.11.78.33,1.06s.45.5.69.64c.12.08.3.13.55.15.24.02.44.03.59.02h1.61Z"/>
        <path class="cls-22" d="M97.86,6.69v1.04h-1.04v-1.04h1.04ZM97.86,9.11v6.35h-1.04v-6.35h1.04Z"/>
        <path class="cls-22" d="M106.14,10.97c.26.46.39.96.39,1.51v3h-.99v-3c0-.27-.05-.54-.14-.81s-.22-.49-.4-.67c-.17-.18-.38-.31-.64-.41-.26-.09-.51-.14-.77-.14h-1.86c-.5,0-1.15,0-1.95,0,0-.23,0-.02,0,.65s0,1.1,0,1.31v3.07h-.99v-6.01h4.79c.52,0,1.01.13,1.46.4.45.27.81.64,1.07,1.1Z"/>
        <path class="cls-22" d="M114.15,9.91c.29.23.48.49.57.77.09.28.14.53.15.74,0,1.05-.58,1.6-1.76,1.66h-4.67s0,.25,0,.25c0,.27.03.49.07.64s.13.27.25.34c.11.07.27.12.46.15.19.02.47.04.82.04h4.36c.13,0,.19.06.19.18v.59c0,.13-.06.19-.19.19h-4.51c-.63,0-1.12-.07-1.48-.21s-.62-.36-.77-.67-.23-.72-.23-1.24v-1.5c0-.35.13-.7.4-1.05.27-.35.61-.65,1.02-.88.42-.23.84-.35,1.28-.35h2.84c.52,0,.92.12,1.21.35ZM113.46,12.04c.09-.03.17-.09.26-.19.06-.07.11-.15.13-.24s.04-.21.05-.37c0-.07-.02-.16-.06-.27-.04-.11-.11-.21-.22-.3s-.26-.14-.45-.14h-3.1c-.22,0-.46.07-.72.21-.26.14-.47.33-.65.56-.18.24-.27.5-.27.79h4.61c.19,0,.33-.02.42-.05Z"/>
        <path class="cls-22" d="M115.81,6.69h1.05s0,0,0,0v5.65c0,.41.1.78.3,1.1.2.32.44.57.73.75.29.18.57.27.83.27h2.15v1.05h-2.18c-.55,0-1.04-.17-1.48-.51-.44-.34-.78-.76-1.02-1.27s-.37-1.01-.37-1.49v-5.29c0-.27,0-.35,0-.26Z"/>
      </g>
    </g>
    <g>
      <path class="cls-13" d="M40.5,28.82c.14.02.36.08.68.19.31.11.68.32,1.09.63.41.31.77.78,1.08,1.4.31.62.46,1.41.46,2.36s-.18,1.67-.54,2.27c-.36.6-.79,1.06-1.29,1.35-.5.29-.97.47-1.42.53h-7.62v-8.73h7.57ZM40.44,36.37c.23-.04.52-.14.84-.3.32-.16.63-.46.92-.9.29-.43.43-1.03.43-1.78,0-.88-.15-1.57-.45-2.07-.3-.5-.62-.84-.95-1.01-.33-.18-.61-.28-.84-.32h-6.28v6.38h6.33Z"/>
      <rect class="cls-13" x="44.63" y="28.83" width="1.19" height="8.7"/>
      <path class="cls-13" d="M52.3,31.2c.77-.01,1.46-.13,2.06-.34.61-.22,1.08-.43,1.4-.65.33-.22.55-.38.66-.49l.96-.91v8.75h-1.14v-6.32c-.5.3-1.08.55-1.75.76-.66.21-1.39.32-2.18.33-.83,0-1.61-.1-2.33-.32-.72-.22-1.36-.49-1.92-.82v6.36h-1.14v-8.75l1,.87c.14.13.39.3.75.53.36.23.86.45,1.51.68.64.23,1.35.33,2.11.32"/>
      <rect class="cls-12" x="59.08" y="32.52" width="2.29" height="1.16"/>
      <g>
        <path class="cls-22" d="M71.08,32.63c.26.02.54.12.82.29.29.17.54.44.75.81.21.37.31.84.31,1.42,0,.53-.12.97-.35,1.32-.23.35-.52.62-.85.79-.34.17-.67.26-1,.27h-7.55v-1.18h7.52c.23,0,.46-.08.69-.25.23-.17.34-.48.34-.94,0-.51-.08-.85-.26-1.04-.18-.19-.35-.29-.5-.32h-5.82c-.3,0-.61-.09-.94-.26-.33-.16-.61-.43-.84-.81s-.35-.86-.35-1.45c0-.56.12-1.02.37-1.39.25-.36.55-.63.89-.8.35-.17.67-.27.98-.29h6.82v1.18h-6.74c-.12,0-.27.04-.44.11-.18.07-.34.21-.48.4-.15.2-.22.46-.22.8,0,.53.11.89.34,1.07.23.18.44.28.64.29h5.86Z"/>
        <path class="cls-22" d="M80.56,31.99c.29.23.48.49.57.77s.14.53.15.74c0,1.05-.58,1.6-1.76,1.66h-4.67s0,.25,0,.25c0,.27.02.49.07.64.05.16.13.27.25.34.12.07.27.12.46.15.19.02.47.04.82.04h4.36c.13,0,.19.06.19.18v.59c0,.13-.06.19-.19.19h-4.51c-.63,0-1.12-.07-1.48-.21-.36-.14-.62-.36-.77-.67s-.23-.72-.23-1.24v-1.5c0-.35.13-.7.4-1.05s.61-.65,1.02-.88c.42-.23.84-.35,1.27-.35h2.84c.52,0,.92.12,1.21.35ZM79.88,34.12c.09-.03.17-.09.26-.19.06-.07.11-.15.13-.24s.04-.21.05-.37c0-.07-.02-.16-.06-.27s-.11-.21-.22-.3-.26-.14-.45-.14h-3.1c-.22,0-.46.07-.72.21-.26.14-.48.33-.65.56-.18.24-.27.5-.27.79h4.61c.19,0,.33-.02.42-.05Z"/>
        <path class="cls-22" d="M89.46,33.04c.26.46.39.96.39,1.51v3h-.99v-3c0-.27-.05-.54-.14-.81-.09-.27-.22-.49-.4-.67-.17-.18-.38-.31-.64-.41-.26-.09-.52-.14-.77-.14h-1.86c-.5,0-1.15,0-1.95,0,0-.23,0-.02,0,.65s0,1.1,0,1.31v3.07h-.99v-6.01h4.79c.52,0,1.01.13,1.46.4.45.27.81.64,1.07,1.1Z"/>
        <path class="cls-22" d="M95.64,36.56v.96h-1.81c-.52,0-1.01-.13-1.46-.39-.45-.26-.8-.61-1.07-1.05-.26-.44-.4-.92-.41-1.44v-5.25h.97s0,0,0,.07v2.16h2.27s0,0,0,.07v.89s-.03,0-.09,0h-2.18v2.08c0,.42.11.78.33,1.06s.45.5.69.64c.12.08.3.13.55.15.24.02.44.03.59.02h1.61Z"/>
        <path class="cls-22" d="M97.86,28.77v1.04h-1.04v-1.04h1.04ZM97.86,31.19v6.35h-1.04v-6.35h1.04Z"/>
        <path class="cls-22" d="M106.14,33.04c.26.46.39.96.39,1.51v3h-.99v-3c0-.27-.05-.54-.14-.81s-.22-.49-.4-.67c-.17-.18-.38-.31-.64-.41-.26-.09-.52-.14-.77-.14h-1.86c-.5,0-1.15,0-1.95,0,0-.23,0-.02,0,.65s0,1.1,0,1.31v3.07h-.99v-6.01h4.79c.52,0,1.01.13,1.46.4.45.27.81.64,1.07,1.1Z"/>
        <path class="cls-22" d="M114.15,31.99c.29.23.48.49.57.77.09.28.14.53.15.74,0,1.05-.58,1.6-1.76,1.66h-4.67s0,.25,0,.25c0,.27.03.49.07.64s.13.27.25.34c.11.07.27.12.46.15.19.02.47.04.82.04h4.36c.13,0,.19.06.19.18v.59c0,.13-.06.19-.19.19h-4.51c-.63,0-1.12-.07-1.48-.21s-.62-.36-.77-.67-.23-.72-.23-1.24v-1.5c0-.35.13-.7.4-1.05.27-.35.61-.65,1.02-.88.42-.23.84-.35,1.28-.35h2.84c.52,0,.92.12,1.21.35ZM113.46,34.12c.09-.03.17-.09.26-.19.06-.07.11-.15.13-.24s.04-.21.05-.37c0-.07-.02-.16-.06-.27-.04-.11-.11-.21-.22-.3s-.26-.14-.45-.14h-3.1c-.22,0-.46.07-.72.21s-.47.33-.65.56c-.18.24-.27.5-.27.79h4.61c.19,0,.33-.02.42-.05Z"/>
        <path class="cls-22" d="M115.81,28.77h1.05s0,0,0,0v5.65c0,.41.1.78.3,1.1.2.32.44.57.73.75.29.18.57.27.83.27h2.15v1.05h-2.18c-.55,0-1.04-.17-1.48-.51-.44-.34-.78-.76-1.02-1.27s-.37-1.01-.37-1.49v-5.29c0-.27,0-.35,0-.26Z"/>
      </g>
    </g>
    <g>
      <path class="cls-19" d="M65.56,107.52s-.02-.02-.04-.03c-.01,0-.03-.02-.04-.03-1.99-1.37-3.15-3.13-3.62-4.97-.03-.12-.06-.25-.09-.37-.37.58-.71,1.18-1.02,1.78-2.65-1.61-5.79-6.76-4.39-13.62-.54.51-4.4,8.65,2.09,15.62-.71.4-1.67.81-1.67.81,0,0,4.36,1.95,8.78.79"/>
      <path class="cls-19" d="M109.78,103.43s.02-.04.03-.06c.01-.02.02-.04.03-.06,1.69-3.2,1.99-6.35,1.34-9.1-.04-.19-.09-.37-.14-.55.9.51,1.76,1.06,2.59,1.65,2.4-3.98,2.96-12.99-3.67-21.1,1.07.3,11.86,8.39,8.12,22.15,1.22.03,2.78-.09,2.78-.09,0,0-4.41,5.62-11.08,7.16"/>
      <path class="cls-7" d="M89.39,63.8s.84-4.06,5.47-2.77c0,0,2.74-3.61,7.66-2.12,0,0,3.96,1.13,4.35,5.02,0,0,4.62.88,4.62,5.38,0,0,.48,5.79-6.13,5.79h-14.49s-6.95.87-6.95-5.94c0,0,.32-5.36,5.47-5.36"/>
      <path class="cls-6" d="M90.05,64.32s.77-3.56,5.03-2.43c0,0,2.69-3.48,7.22-2.18,0,0,3.56,1.04,3.83,4.72,0,0,4.25.78,4.25,4.72,0,0,.44,5.09-5.64,5.09h-13.33s-6.4.76-6.4-5.21c0,0,.3-4.7,5.03-4.7"/>
      <path class="cls-7" d="M51.52,64.05s1.09-5.28,7.13-3.61c0,0,3.57-4.7,9.98-2.77,0,0,5.16,1.47,5.66,6.54,0,0,6.02,1.15,6.02,7.01,0,0,.63,7.55-7.99,7.55h-18.88s-9.06,1.13-9.06-7.74c0,0,.42-6.98,7.13-6.98"/>
      <path class="cls-6" d="M52.39,64.73s1-4.64,6.56-3.17c0,0,3.5-4.53,9.41-2.84,0,0,4.64,1.36,4.99,6.15,0,0,5.54,1.01,5.54,6.15,0,0,.58,6.63-7.35,6.63h-17.37s-8.34.99-8.34-6.79c0,0,.39-6.13,6.56-6.13"/>
      <path class="cls-7" d="M63.52,70.05s1.49-7.21,9.73-4.92c0,0,4.86-6.41,13.62-3.78,0,0,7.04,2,7.73,8.93,0,0,8.21,1.57,8.21,9.56,0,0,.86,10.3-10.9,10.3h-25.76s-12.36,1.55-12.36-10.56c0,0,.57-9.53,9.73-9.53"/>
      <path class="cls-6" d="M64.7,70.97s1.37-6.33,8.95-4.32c0,0,4.78-6.18,12.84-3.87,0,0,6.33,1.86,6.81,8.39,0,0,7.56,1.38,7.56,8.39,0,0,.79,9.04-10.03,9.04h-23.7s-11.37,1.36-11.37-9.27c0,0,.53-8.36,8.95-8.36"/>
      <path class="cls-8" d="M102.23,111.39h-33.18c-1.41,0-2.56-1.15-2.56-2.56v-22.76c0-1.41,1.15-2.56,2.56-2.56h33.18c1.41,0,2.56,1.15,2.56,2.56v22.76c0,1.41-1.15,2.56-2.56,2.56"/>
      <path class="cls-8" d="M102.6,111.32h-34.08c-1.17,0-2.12-.95-2.12-2.12v-23.66c0-1.17.95-2.12,2.12-2.12h34.08c1.17,0,2.12.95,2.12,2.12v23.66c0,1.17-.95,2.12-2.12,2.12"/>
      <rect class="cls-6" x="67.83" y="84.8" width="35.45" height="25.14"/>
      <rect class="cls-18" x="69.27" y="107.82" width="30.73" height=".44"/>
      <rect class="cls-18" x="69.25" y="89.28" width=".44" height="18.99"/>
      <rect class="cls-10" x="75.7" y="95.71" width=".74" height="7.86" transform="translate(-44.75 133.05) rotate(-68.1)"/>
      <rect class="cls-10" x="77.47" y="97.22" width="7.86" height=".74" transform="translate(-35.13 148.3) rotate(-73.69)"/>
      <rect class="cls-10" x="82.61" y="92.23" width="9.92" height=".75" transform="translate(-7.56 7.79) rotate(-4.88)"/>
      <rect class="cls-10" x="91.35" y="89.29" width="5.95" height=".74" transform="translate(-34.73 106.43) rotate(-50.95)"/>
      <path class="cls-3" d="M74.26,98.27c0,1.06-.86,1.91-1.91,1.91s-1.91-.86-1.91-1.91.86-1.91,1.91-1.91,1.91.86,1.91,1.91"/>
      <path class="cls-5" d="M81.43,100.77c0,.66-.53,1.19-1.19,1.19s-1.19-.53-1.19-1.19.53-1.19,1.19-1.19,1.19.53,1.19,1.19"/>
      <path class="cls-9" d="M84.65,93.43c0,.94-.76,1.69-1.69,1.69s-1.69-.76-1.69-1.69.76-1.69,1.69-1.69,1.69.76,1.69,1.69"/>
      <path class="cls-19" d="M94.53,91.89c0,1.09-.89,1.98-1.98,1.98s-1.98-.89-1.98-1.98.89-1.98,1.98-1.98,1.98.89,1.98,1.98"/>
      <polygon class="cls-19" points="97.36 86.9 97.18 88.17 96.17 87.38 95.17 86.59 96.35 86.11 97.54 85.63 97.36 86.9"/>
      <rect class="cls-3" x="93.12" y="99.26" width=".6" height="6.3" transform="translate(-43.36 79.9) rotate(-38.28)"/>
      <rect class="cls-3" x="77.01" y="103.61" width="6.31" height=".6" transform="translate(-10.86 9.37) rotate(-6.27)"/>
      <rect class="cls-3" x="83.62" y="101.46" width="7.96" height=".6" transform="translate(-36.04 49.39) rotate(-26.32)"/>
      <rect class="cls-3" x="95.09" y="102.97" width="4.78" height=".6" transform="translate(-35.9 54.51) rotate(-26.57)"/>
      <polygon class="cls-3" points="100.33 102.22 99.93 102.85 99.59 102.18 99.25 101.52 99.99 101.56 100.73 101.59 100.33 102.22"/>
      <path class="cls-16" d="M78.23,104.38c0,.88-.71,1.59-1.59,1.59s-1.59-.71-1.59-1.59.71-1.59,1.59-1.59,1.59.71,1.59,1.59"/>
      <path class="cls-5" d="M84.84,103.68c0,.67-.54,1.2-1.2,1.2s-1.2-.54-1.2-1.2.54-1.2,1.2-1.2,1.2.54,1.2,1.2"/>
      <path class="cls-17" d="M96.89,104.46c0,.88-.71,1.59-1.59,1.59s-1.59-.71-1.59-1.59.71-1.59,1.59-1.59,1.59.71,1.59,1.59"/>
      <path class="cls-10" d="M92.65,99.66c0,.74-.6,1.35-1.35,1.35s-1.35-.6-1.35-1.35.6-1.35,1.35-1.35,1.35.6,1.35,1.35"/>
      <rect class="cls-8" x="62.17" y="73.52" width="18.99" height="23.93"/>
      <rect class="cls-6" x="63.51" y="74.68" width="16.4" height="21.35"/>
      <path class="cls-11" d="M78.02,87.96h-13.22c-.17,0-.31-.14-.31-.31v-.29c0-.17.14-.31.31-.31h13.22c.17,0,.31.14.31.31v.29c0,.17-.14.31-.31.31"/>
      <path class="cls-11" d="M78.02,90.73h-13.22c-.17,0-.31-.14-.31-.31v-.29c0-.17.14-.31.31-.31h13.22c.17,0,.31.14.31.31v.29c0,.17-.14.31-.31.31"/>
      <path class="cls-11" d="M73.53,93.6h-8.76c-.17,0-.31-.14-.31-.31v-.29c0-.17.14-.31.31-.31h8.76c.17,0,.31.14.31.31v.29c0,.17-.14.31-.31.31"/>
      <path class="cls-8" d="M71.69,84.99h-6.48c-.38,0-.69-.31-.69-.69v-.65c0-.38.31-.69.69-.69h6.48c.38,0,.69.31.69.69v.65c0,.38-.31.69-.69.69"/>
      <path class="cls-8" d="M77.44,84.99h-2.97c-.38,0-.69-.31-.69-.69v-.65c0-.38.31-.69.69-.69h2.97c.38,0,.69.31.69.69v.65c0,.38-.31.69-.69.69"/>
      <path class="cls-8" d="M95.61,126.67h10.98v-3.77s1.85-.79,1.85-6.99v-4.26s-.15-2.13-3.55-1.63c0,0-.97-1.57-3.08-.6,0,0-1.36-1.11-3.15-.73v-8s.09-1.68-2.35-1.68c0,0-2.29,0-2.29,1.6v9.08s-3.67-1.03-3.67,1.63c0,0-.12.54.15,1l2.35,6.64s1.41,3.58,2.7,4.23v3.22l.06.24Z"/>
      <path class="cls-15" d="M107.53,112.17c0-.5-.28-.91-.68-1.17-.83-.54-1.98.04-2.01.98-.02.72-.03,1.3-.03,1.3,0,0-.11-1.04-.21-2.04-.03-.32-.28-1.18-1.37-1.18-.89,0-1.42.47-1.43,1.17-.01.99-.03,1.93-.03,1.93,0,0,0,0,0-.01-.02-.14-.17-1.54-.26-2.61-.03-.3-.16-.59-.41-.78-.08-.07-.18-.13-.27-.18-.84-.46-2.62-.31-2.62,1,0,.01,0,.03,0,.04-.04.92-.08,1.87-.1,2.15h0s0,.04,0,.05c0,0,0,.02,0,.02h0s-.13-2.11-.14-3.01v-8.37c.04-1.77-3.19-2.12-3.16.04l.03,10.54h0s.01,4.55.01,4.55l-.43-4.62c-.02-.19-.09-.38-.2-.54-.46-.68-1.12-1.46-2.36-.95-1.17.49-.32,1.9-.09,2.68l1.63,4.3s.02.07.03.11c.18.67,1.06,2.79,1.88,3.73.32.61.79,1.21,1.39,1.72-.13.19-.21.41-.21.65l.02,2.19.09.08h8.02c.72,0,1.3-.54,1.3-1.2l-.02-1.54c0-.21-.06-.4-.17-.57,1.19-1.15,1.78-2.73,1.78-4.34l.02-6.11Z"/>
      <path class="cls-6" d="M62.97,72.18s2.54-2.87,5.7.3v-1.28s6.37-.99,6.37,2.23v-4.03h7.43v3.81-2.05s6.48-.92,6.48,2.05c0,0,2.75-4.32,6.48,0v-3.95h3v6.7s-.11,1.24,2.12,1.24v3.04s-5.01.39-5.01-1.7c0,0-3.18,3.27-6.64,0v1.21h-2.61v-4.28s-.47-.93-.99,0v4.31h-8.37s-1.78-.08-1.78-1.79v1.87h-2.58v-4.26h-1.04v4.31h-3.18v-1.62s-2.61,3.32-5.82,0c0,0-2.66,3.84-7.6,0v-1.54l1.26-1.4s-3.62-1.84,0-5.79c0,0,3.32-2.99,6.81.36v2.26Z"/>
      <path class="cls-24" d="M57.58,78.01c-.46-.17-.84-.39-1.12-.63-.06-.06-.06-.1-.01-.16l.27-.34c.06-.06.1-.07.16-.01.68.53,1.41.79,2.2.79,1.22,0,1.99-.62,1.99-1.57,0-.82-.5-1.32-1.84-1.49l-.35-.04c-1.48-.19-2.22-.87-2.22-2.04,0-1.32.94-2.16,2.42-2.16.87,0,1.6.21,2.19.64.07.03.08.09.02.16l-.23.35c-.04.06-.1.06-.16.02-.62-.37-1.24-.56-1.87-.56-1.09,0-1.74.6-1.74,1.51,0,.81.54,1.29,1.81,1.46l.35.04c1.5.19,2.25.88,2.25,2.07,0,1.35-.99,2.23-2.71,2.23-.49,0-.96-.09-1.43-.26"/>
      <path class="cls-24" d="M63.68,76.85c-.1-.34-.16-.8-.16-1.39s.06-1.06.16-1.4c.28-.9,1.02-1.4,2-1.4s1.73.5,2.01,1.4c.1.32.16.79.16,1.44,0,.08-.04.11-.12.11h-3.52s-.07.02-.07.08c0,.4.03.71.11.95.24.7.75,1.05,1.53,1.05.63,0,1.13-.23,1.5-.69.04-.06.1-.07.16-.02l.26.24c.06.04.06.1.01.16-.45.6-1.11.9-1.97.9-1.07,0-1.76-.47-2.07-1.43M67.17,75.08s.07-.02.07-.07c0-.31-.03-.56-.1-.78-.21-.68-.7-1.02-1.45-1.02s-1.22.34-1.44,1.02c-.07.21-.1.47-.1.78,0,.04.02.07.07.07h2.95Z"/>
      <path class="cls-24" d="M73.63,78.16c-.08,0-.11-.03-.11-.11v-3.19c0-1.07-.47-1.62-1.41-1.62-.85,0-1.47.59-1.47,1.5v3.3c0,.08-.03.11-.11.11h-.39c-.08,0-.11-.03-.11-.11v-5.17c0-.08.03-.11.11-.11h.39c.08,0,.11.03.11.11v.65h.01c.29-.58.83-.87,1.59-.87,1.21,0,1.89.75,1.89,2.06v3.34c0,.08-.03.11-.11.11h-.39Z"/>
      <path class="cls-24" d="M78.14,78.19c-1.03,0-1.4-.41-1.4-1.46v-3.36s-.02-.07-.07-.07h-.56c-.08,0-.11-.03-.11-.11v-.32c0-.08.03-.11.11-.11h.56s.07-.02.07-.07v-1.55c0-.08.03-.11.11-.11h.39c.08,0,.11.03.11.11v1.55s.02.07.07.07h1.02c.08,0,.11.03.11.11v.32c0,.08-.03.11-.11.11h-1.02s-.07.02-.07.07v3.33c0,.71.23.9.87.9h.21c.08,0,.11.03.11.11v.36c0,.08-.03.11-.11.11h-.29Z"/>
      <path class="cls-24" d="M80.62,71.33c-.08,0-.11-.03-.11-.11v-.63c0-.08.03-.11.11-.11h.5c.08,0,.11.03.11.11v.63c0,.08-.03.11-.11.11h-.5ZM80.67,78.16c-.08,0-.11-.03-.11-.11v-5.17c0-.08.03-.11.11-.11h.39c.08,0,.11.03.11.11v5.17c0,.08-.03.11-.11.11h-.39Z"/>
      <path class="cls-24" d="M87.31,78.16c-.08,0-.11-.03-.11-.11v-3.19c0-1.07-.47-1.62-1.41-1.62-.85,0-1.47.59-1.47,1.5v3.3c0,.08-.03.11-.11.11h-.39c-.08,0-.11-.03-.11-.11v-5.17c0-.08.03-.11.11-.11h.39c.08,0,.11.03.11.11v.65h.01c.29-.58.83-.87,1.59-.87,1.21,0,1.89.75,1.89,2.06v3.34c0,.08-.03.11-.11.11h-.39Z"/>
      <path class="cls-24" d="M90.07,76.85c-.1-.34-.16-.8-.16-1.39s.06-1.06.16-1.4c.28-.9,1.02-1.4,2-1.4s1.73.5,2.01,1.4c.1.32.16.79.16,1.44,0,.08-.04.11-.12.11h-3.52s-.07.02-.07.08c0,.4.03.71.11.95.24.7.75,1.05,1.53,1.05.63,0,1.13-.23,1.51-.69.04-.06.1-.07.16-.02l.26.24c.06.04.06.1.01.16-.45.6-1.11.9-1.97.9-1.07,0-1.76-.47-2.07-1.43M93.56,75.08s.07-.02.07-.07c0-.31-.03-.56-.1-.78-.21-.68-.7-1.02-1.45-1.02s-1.22.34-1.44,1.02c-.07.21-.1.47-.1.78,0,.04.02.07.07.07h2.95Z"/>
      <path class="cls-24" d="M97.52,78.19c-.81,0-1.12-.36-1.12-1.27v-6.35c0-.08.03-.11.11-.11h.39c.08,0,.11.03.11.11v6.32c0,.53.16.7.58.7h.19c.08,0,.11.03.11.11v.36c0,.08-.03.11-.11.11h-.26Z"/>
    </g>
    <g>
      <path class="cls-19" d="M82.7,185.19s-.02-.01-.02-.02c0,0-.02-.02-.02-.02-1.22-1.22-1.81-2.6-1.9-3.95,0-.09-.01-.18-.01-.27-.34.36-.65.73-.95,1.12-1.65-1.47-3.19-5.49-1.32-10.11-.45.29-4.21,5.5-.55,11.23-.55.19-1.28.35-1.28.35,0,0,2.8,1.93,6.05,1.69"/>
      <path class="cls-19" d="M112.96,184.77s.02-.02.02-.04c0-.01.02-.03.03-.04,1.32-2.08,1.69-4.2,1.4-6.1-.02-.13-.04-.26-.07-.38.58.4,1.14.81,1.67,1.26,1.84-2.57,2.7-8.65-1.35-14.5.71.26,7.59,6.33,4.31,15.46.82.09,1.89.09,1.89.09,0,0-3.3,3.57-7.9,4.26"/>
      <path class="cls-7" d="M79.22,154.41s.78-3.77,5.08-2.57c0,0,2.54-3.35,7.12-1.97,0,0,3.68,1.05,4.04,4.67,0,0,4.29.82,4.29,5,0,0,.45,5.38-5.7,5.38h-13.46s-6.46.81-6.46-5.52c0,0,.3-4.98,5.08-4.98"/>
      <path class="cls-6" d="M79.84,154.89s.72-3.31,4.68-2.26c0,0,2.5-3.23,6.71-2.02,0,0,3.31.97,3.56,4.39,0,0,3.95.72,3.95,4.38,0,0,.41,4.73-5.24,4.73h-12.39s-5.95.71-5.95-4.84c0,0,.27-4.37,4.68-4.37"/>
      <path class="cls-7" d="M85.61,159.67s1.06-5.14,6.94-3.51c0,0,3.47-4.57,9.71-2.69,0,0,5.02,1.43,5.51,6.37,0,0,5.86,1.12,5.86,6.82,0,0,.61,7.35-7.78,7.35h-18.37s-8.82,1.1-8.82-7.53c0,0,.41-6.8,6.94-6.8"/>
      <path class="cls-6" d="M86.45,160.33s.98-4.51,6.38-3.08c0,0,3.41-4.41,9.15-2.76,0,0,4.51,1.33,4.85,5.99,0,0,5.39.99,5.39,5.98,0,0,.56,6.45-7.15,6.45h-16.9s-8.11.97-8.11-6.61c0,0,.38-5.96,6.38-5.96"/>
      <path class="cls-8" d="M109.8,189.45h-22.74c-1.26,0-2.29-1.03-2.29-2.29v-15.31c0-1.27,1.03-2.29,2.29-2.29h22.74c1.27,0,2.29,1.02,2.29,2.29v15.31c0,1.26-1.02,2.29-2.29,2.29"/>
      <rect class="cls-6" x="85.8" y="170.55" width="25.26" height="17.91"/>
      <rect class="cls-18" x="86.83" y="186.95" width="21.9" height=".32"/>
      <rect class="cls-18" x="86.81" y="173.74" width=".32" height="13.53"/>
      <rect class="cls-10" x="91.41" y="178.32" width=".53" height="5.6" transform="translate(-110.57 198.64) rotate(-68.1)"/>
      <rect class="cls-10" x="92.67" y="179.4" width="5.6" height=".53" transform="translate(-103.77 220.83) rotate(-73.69)"/>
      <rect class="cls-10" x="96.34" y="175.84" width="7.07" height=".53" transform="translate(-14.62 9.14) rotate(-4.88)"/>
      <rect class="cls-10" x="102.56" y="173.74" width="4.24" height=".53" transform="translate(-96.4 145.69) rotate(-50.95)"/>
      <path class="cls-3" d="M90.39,180.14c0,.75-.61,1.36-1.36,1.36s-1.36-.61-1.36-1.36.61-1.36,1.36-1.36,1.36.61,1.36,1.36"/>
      <path class="cls-5" d="M95.49,181.92c0,.47-.38.85-.85.85s-.85-.38-.85-.85.38-.85.85-.85.85.38.85.85"/>
      <path class="cls-9" d="M97.79,176.7c0,.67-.54,1.21-1.21,1.21s-1.21-.54-1.21-1.21.54-1.21,1.21-1.21,1.21.54,1.21,1.21"/>
      <path class="cls-19" d="M104.83,175.6c0,.78-.63,1.41-1.41,1.41s-1.41-.63-1.41-1.41.63-1.41,1.41-1.41,1.41.63,1.41,1.41"/>
      <polygon class="cls-19" points="106.84 172.04 106.72 172.94 106 172.38 105.28 171.82 106.13 171.48 106.97 171.14 106.84 172.04"/>
      <rect class="cls-3" x="103.82" y="180.85" width=".43" height="4.49" transform="translate(-91.06 103.82) rotate(-38.28)"/>
      <rect class="cls-3" x="92.34" y="183.95" width="4.49" height=".43" transform="translate(-19.55 11.43) rotate(-6.27)"/>
      <rect class="cls-3" x="97.06" y="182.42" width="5.67" height=".43" transform="translate(-70.63 63.23) rotate(-26.32)"/>
      <polygon class="cls-3" points="105.32 184.28 108.36 182.75 108.55 183.14 105.51 184.66 105.32 184.28"/>
      <polygon class="cls-3" points="108.96 182.96 108.67 183.41 108.43 182.93 108.19 182.46 108.72 182.49 109.25 182.51 108.96 182.96"/>
      <path class="cls-16" d="M93.21,184.5c0,.62-.51,1.13-1.13,1.13s-1.13-.51-1.13-1.13.51-1.13,1.13-1.13,1.13.51,1.13,1.13"/>
      <path class="cls-5" d="M97.92,184c0,.47-.38.86-.86.86s-.86-.38-.86-.86.38-.86.86-.86.86.38.86.86"/>
      <path class="cls-17" d="M106.51,184.55c0,.62-.51,1.13-1.13,1.13s-1.13-.51-1.13-1.13.51-1.13,1.13-1.13,1.13.51,1.13,1.13"/>
      <path class="cls-10" d="M103.49,181.13c0,.53-.43.96-.96.96s-.96-.43-.96-.96.43-.96.96-.96.96.43.96.96"/>
      <rect class="cls-8" x="88.94" y="159.48" width="13.54" height="17.06"/>
      <rect class="cls-6" x="89.93" y="160.54" width="11.7" height="15.23"/>
      <path class="cls-11" d="M100.17,170.01h-9.22c-.18,0-.32-.15-.32-.32s.15-.32.32-.32h9.22c.18,0,.32.14.32.32s-.14.32-.32.32"/>
      <path class="cls-11" d="M100.1,164.64h-9.06c-.18,0-.32-.15-.32-.32s.15-.32.32-.32h9.06c.18,0,.32.14.32.32s-.14.32-.32.32"/>
      <path class="cls-11" d="M100.17,171.99h-9.22c-.18,0-.32-.15-.32-.32s.15-.32.32-.32h9.22c.18,0,.32.14.32.32s-.14.32-.32.32"/>
      <path class="cls-11" d="M96.97,174.03h-6.04c-.18,0-.32-.15-.32-.32s.14-.32.32-.32h6.04c.18,0,.32.14.32.32s-.14.32-.32.32"/>
      <path class="cls-11" d="M100.12,162.46h-5.78c-.18,0-.32-.15-.32-.32s.15-.32.32-.32h5.78c.18,0,.32.14.32.32s-.14.32-.32.32"/>
      <path class="cls-8" d="M95.54,167.89h-4.16c-.4,0-.72-.32-.72-.72s.32-.72.72-.72h4.16c.4,0,.72.32.72.72s-.32.72-.72.72"/>
      <path class="cls-8" d="M99.63,167.89h-1.66c-.4,0-.72-.32-.72-.72s.32-.72.72-.72h1.66c.4,0,.72.32.72.72s-.32.72-.72.72"/>
      <path class="cls-6" d="M98.99,172.03s-2.46,3.58-7.02,0v-1.43l1.17-1.3s-3.21-2.64.17-5.69c0,0,2.9-2.49,6.12.63v2.11h-.87l-.72.39s3.34,1.47,1.16,5.29"/>
      <path class="cls-24" d="M94.25,172.07c-.5-.18-.9-.42-1.21-.68-.06-.06-.06-.11-.01-.17l.29-.37c.06-.06.11-.07.17-.01.73.57,1.52.85,2.38.85,1.32,0,2.15-.67,2.15-1.7,0-.88-.54-1.43-1.99-1.61l-.38-.05c-1.6-.21-2.39-.94-2.39-2.2,0-1.43,1.01-2.33,2.61-2.33.94,0,1.72.23,2.37.7.07.04.09.1.02.17l-.24.38c-.05.06-.11.06-.17.02-.67-.4-1.34-.61-2.01-.61-1.17,0-1.88.65-1.88,1.62,0,.88.59,1.39,1.95,1.57l.38.05c1.62.21,2.43.95,2.43,2.23,0,1.45-1.06,2.4-2.93,2.4-.53,0-1.04-.1-1.54-.28"/>
    </g>
  </g>
</svg>