<?xml version="1.0" encoding="UTF-8"?>
<svg xmlns="http://www.w3.org/2000/svg" xmlns:xlink="http://www.w3.org/1999/xlink" viewBox="0 0 152.38 207.81">
  <defs>
    <style>
      .cls-1 {
        fill: #f9cf16;
      }

      .cls-2 {
        fill: #cd142a;
      }

      .cls-3 {
        fill: #4a4a4a;
      }

      .cls-4 {
        fill: #ea86a1;
      }

      .cls-5 {
        fill: #b4b4b4;
      }

      .cls-6 {
        fill: #646365;
      }

      .cls-7 {
        fill: #888688;
      }

      .cls-8 {
        clip-path: url(#clippath-4);
      }

      .cls-9 {
        fill: #868486;
      }

      .cls-10 {
        fill: #f8f8f8;
      }

      .cls-11 {
        fill: #fff;
      }

      .cls-12 {
        fill: #115a9f;
      }

      .cls-13, .cls-14 {
        fill: #625f60;
      }

      .cls-15 {
        fill: #505050;
      }

      .cls-16 {
        fill: none;
      }

      .cls-17 {
        fill: #d00e4a;
      }

      .cls-18 {
        fill: #4780b4;
      }

      .cls-19 {
        clip-path: url(#clippath-1);
      }

      .cls-20 {
        fill: #d00e4d;
      }

      .cls-21 {
        isolation: isolate;
      }

      .cls-22 {
        clip-path: url(#clippath-5);
      }

      .cls-23 {
        clip-path: url(#clippath-3);
      }

      .cls-24 {
        fill: #d00e4c;
      }

      .cls-25 {
        fill: #d22e1f;
      }

      .cls-26 {
        fill: #f2c1cf;
      }

      .cls-27 {
        fill: #b1aeaf;
      }

      .cls-28 {
        fill: #636061;
      }

      .cls-14 {
        font-family: DimRegular, Dim-Regular;
        font-size: 12px;
      }

      .cls-29 {
        fill: #9d9a9c;
      }

      .cls-30 {
        fill: #d20f48;
      }

      .cls-31 {
        fill: #333233;
      }

      .cls-32 {
        fill: #1d458c;
      }

      .cls-33 {
        fill: #e8f5f9;
      }

      .cls-34 {
        clip-path: url(#clippath-2);
      }

      .cls-35 {
        fill: #e1222c;
      }

      .cls-36 {
        mix-blend-mode: screen;
        opacity: .1;
      }

      .cls-37 {
        clip-path: url(#clippath);
      }

      .cls-38 {
        fill: #828384;
      }

      .cls-39 {
        opacity: .5;
      }

      .cls-40 {
        fill: #038461;
      }

      .cls-41 {
        fill: #1b4180;
      }
    </style>
    <clipPath id="clippath">
      <rect class="cls-16" x="120.65" y="158.8" width="18.06" height="18.07"/>
    </clipPath>
    <clipPath id="clippath-1">
      <rect class="cls-16" x="76.78" y="64.1" width="24.99" height="24.98"/>
    </clipPath>
    <clipPath id="clippath-2">
      <rect class="cls-16" x="73.6" y="85.5" width="24.92" height="24.93"/>
    </clipPath>
    <clipPath id="clippath-3">
      <rect class="cls-16" x="119.2" y="82.88" width="27.54" height="27.54"/>
    </clipPath>
    <clipPath id="clippath-4">
      <rect class="cls-16" x="107.99" y="72.31" width="37.64" height="37.64"/>
    </clipPath>
    <clipPath id="clippath-5">
      <rect class="cls-16" x="117.23" y="82.27" width="20" height="20.02"/>
    </clipPath>
  </defs>
  <g class="cls-21">
    <g id="Capa_2">
      <g id="Capa_1-2" data-name="Capa_1">
        <text class="cls-14" transform="translate(79.57 203.68)"><tspan x="0" y="0">Icono app</tspan></text>
        <g>
          <path class="cls-24" d="M40.5,29.04c.14.02.36.08.68.19.31.11.68.32,1.09.63.41.31.77.78,1.08,1.4.31.62.46,1.41.46,2.36s-.18,1.67-.54,2.27c-.36.6-.79,1.06-1.29,1.35-.5.29-.97.47-1.42.53h-7.62v-8.73h7.57ZM40.44,36.6c.23-.04.52-.14.84-.3.32-.16.63-.46.92-.9.29-.43.43-1.03.43-1.78,0-.88-.15-1.57-.45-2.07-.3-.5-.62-.84-.95-1.01-.33-.18-.61-.28-.84-.32h-6.28v6.38h6.33Z"/>
          <rect class="cls-24" x="44.63" y="29.05" width="1.19" height="8.7"/>
          <path class="cls-24" d="M52.29,31.43c.77-.01,1.46-.13,2.06-.34.61-.22,1.08-.43,1.4-.65.33-.22.55-.38.66-.49l.96-.91v8.75h-1.14v-6.32c-.5.3-1.08.55-1.75.76-.66.21-1.39.32-2.18.33-.83,0-1.61-.1-2.33-.32-.72-.22-1.36-.49-1.92-.82v6.36h-1.14v-8.75l1,.87c.14.13.39.3.75.53.36.23.86.45,1.51.68.64.23,1.35.33,2.11.32"/>
          <rect class="cls-20" x="59.07" y="32.74" width="2.29" height="1.16"/>
          <g>
            <path class="cls-38" d="M72.14,30.64c.44.52.66,1.08.66,1.7v5.47h-1.14v-3.5h-7.51v3.5h-1.15v-5.47c0-.66.2-1.23.61-1.7.22-.27.49-.52.78-.75.3-.23.73-.44,1.31-.62.58-.18,1.29-.28,2.15-.28s1.58.09,2.16.28c.58.19,1.03.39,1.33.62.31.23.57.48.79.74ZM65.18,30.72c-.25.16-.46.3-.62.45-.16.14-.29.32-.39.54-.1.22-.15.49-.15.81v.74h7.51v-.74c0-.43-.11-.8-.34-1.1-.23-.3-.58-.58-1.05-.82-.2-.11-.41-.19-.63-.24-.22-.06-.48-.1-.76-.14-.32-.04-.66-.07-1.02-.07-.33,0-.67.03-1.02.09-.33.06-.63.13-.91.22-.28.09-.48.18-.62.26Z"/>
            <path class="cls-38" d="M80.96,33.27c.26.46.39.96.39,1.51v3h-.99v-3c0-.27-.05-.54-.14-.81s-.22-.49-.4-.67c-.17-.18-.38-.31-.64-.41-.26-.09-.51-.14-.77-.14h-1.86c-.5,0-1.15,0-1.95,0,0-.23,0-.02,0,.65s0,1.1,0,1.31v3.07h-.99v-6.01h4.79c.52,0,1.01.13,1.47.4.45.27.81.64,1.07,1.1Z"/>
            <path class="cls-38" d="M89.53,33.26c.24.42.36.94.36,1.56,0-.1,0-.08,0,.06h0v.69c0,.58-.12,1.03-.33,1.34-.22.31-.48.53-.79.63s-.63.17-.97.17c-.34,0-.6.02-.76.02h-3.14c-.49,0-.91-.18-1.26-.54-.35-.36-.52-.79-.52-1.3s.17-.95.52-1.31c.35-.36.77-.55,1.26-.55h4.82c0-.07-.02-.14-.04-.2-.02-.07-.04-.11-.05-.13-.09-.18-.22-.35-.39-.5s-.36-.27-.56-.36c-.21-.08-.43-.12-.65-.12h-4.64v-.94c0-.08,0-.11,0-.08h4.64c.54,0,1.03.14,1.5.42.22.13.41.29.57.47s.31.4.46.65ZM88.83,35.71c0-.09,0-.29-.01-.62h-5.06c-.18,0-.33.08-.47.24-.13.16-.19.36-.19.58s.06.42.19.58c.13.16.29.24.47.24h3.28c.37,0,.67,0,.89-.02s.39-.07.52-.16c.14-.1.23-.22.29-.35.05-.14.08-.3.09-.49ZM86.29,29.4h1.2s-.75.77-.75.77l-.79.75h-.74l1.08-1.53Z"/>
            <path class="cls-38" d="M90.63,28.99h1.05s-.01,0,0,0v5.65c0,.41.1.78.3,1.1.2.32.44.57.73.75.29.18.57.27.83.27h2.15v1.05h-2.18c-.55,0-1.04-.17-1.48-.51s-.78-.76-1.02-1.27-.37-1.01-.37-1.49v-5.29c0-.27,0-.35,0-.26Z"/>
            <path class="cls-38" d="M97.89,28.99v1.04h-1.04v-1.04h1.04ZM97.89,31.42v6.35h-1.04v-6.35h1.04Z"/>
            <path class="cls-38" d="M105.16,34.39c.4.02.74.15,1.04.39.3.24.45.7.45,1.38,0,.36-.09.67-.27.91s-.41.42-.68.54-.54.18-.8.18h-6v-.98s5.97,0,5.97,0c.21,0,.4-.05.57-.14.17-.09.25-.31.25-.65,0-.21-.06-.37-.18-.46s-.26-.15-.41-.17c-.16-.02-.25-.02-.29-.02h-4.35c-.23,0-.48-.07-.74-.19-.26-.12-.48-.32-.67-.6-.19-.28-.28-.63-.28-1.07,0-.38.1-.7.3-.95.2-.25.43-.44.71-.55.27-.12.54-.18.79-.2h5.42v.98h-5.36c-.22,0-.43.05-.62.14-.19.1-.29.33-.29.71,0,.3.09.5.26.59.18.09.35.14.52.15h4.66Z"/>
            <path class="cls-38" d="M108.62,28.99v1.04h-1.04v-1.04h1.04ZM108.62,31.42v6.35h-1.04v-6.35h1.04Z"/>
            <path class="cls-38" d="M115.89,34.39c.4.02.74.15,1.04.39.3.24.45.7.45,1.38,0,.36-.09.67-.27.91s-.41.42-.68.54-.54.18-.8.18h-6v-.98s5.97,0,5.97,0c.21,0,.4-.05.57-.14.17-.09.25-.31.25-.65,0-.21-.06-.37-.18-.46-.12-.09-.26-.15-.41-.17-.16-.02-.25-.02-.29-.02h-4.35c-.23,0-.48-.07-.74-.19-.26-.12-.48-.32-.67-.6-.19-.28-.28-.63-.28-1.07,0-.38.1-.7.3-.95.2-.25.43-.44.71-.55.27-.12.54-.18.79-.2h5.42v.98h-5.36c-.22,0-.43.05-.62.14-.19.1-.29.33-.29.71,0,.3.09.5.26.59.18.09.35.14.51.15h4.66Z"/>
            <path class="cls-38" d="M130.03,37.77h-1.47l-.22-.29-2.42-3.23h-4.93v3.52h-1.18v-8.77h7.8c.45,0,.86.12,1.23.35.23.15.41.3.55.45.14.15.27.34.38.57.1.21.17.41.21.6.04.2.06.37.06.5,0,.38-.01.68-.03.9-.02.23-.09.44-.21.65-.16.31-.41.59-.74.85-.33.25-.82.38-1.48.38h-.2l2.63,3.52ZM121.03,33.05h6.63c.21,0,.4-.03.56-.09.16-.06.29-.14.37-.24.1-.12.17-.25.21-.39.04-.14.06-.25.06-.32s0-.25,0-.54c0-.39-.12-.7-.35-.94-.24-.24-.53-.36-.88-.36h-6.65l.04,2.88Z"/>
            <path class="cls-38" d="M140.78,28.97v1.19h-6.39c-.25,0-.53.08-.84.23-.32.15-.63.39-.93.71-.22.23-.41.53-.57.9-.16.37-.25.83-.25,1.37,0,.36.06.72.17,1.06s.28.67.49.97c.19.27.44.53.75.78.31.26.7.39,1.17.4h6.39v1.19h-6.39c-.71,0-1.37-.2-1.97-.59-.6-.4-1.08-.93-1.43-1.61-.35-.67-.52-1.41-.52-2.21s.17-1.53.52-2.21c.35-.67.83-1.21,1.43-1.6.6-.4,1.26-.59,1.97-.59h6.39Z"/>
            <path class="cls-38" d="M149.06,29c.14.02.37.08.68.19.32.11.68.32,1.09.63.41.31.77.78,1.08,1.41.31.62.46,1.42.46,2.37s-.18,1.68-.54,2.29c-.36.61-.79,1.06-1.3,1.36-.5.3-.98.47-1.43.53h-7.67v-8.79h7.61ZM149,36.6c.24-.04.52-.14.85-.31.33-.16.63-.46.92-.9.29-.44.43-1.03.43-1.79,0-.89-.15-1.58-.45-2.08-.3-.5-.62-.84-.95-1.02-.33-.18-.61-.28-.84-.32h-6.32v6.42h6.37Z"/>
          </g>
        </g>
        <g>
          <rect class="cls-15" x="114.4" y="150.14" width="25.35" height="33.35"/>
          <path class="cls-11" d="M137.35,182.2h-20.56c-.55,0-1.01-.45-1.01-1.01v-28.75c0-.56.45-1.01,1.01-1.01h20.56c.56,0,1.01.45,1.01,1.01v28.75c0,.56-.45,1.01-1.01,1.01"/>
          <path class="cls-15" d="M136.63,156.48h-11.88c-.17,0-.31-.14-.31-.31s.14-.31.31-.31h11.88c.17,0,.31.14.31.31s-.14.31-.31.31"/>
          <path class="cls-15" d="M122.04,156.56h-4.71c-.2,0-.35-.16-.35-.35s.16-.35.35-.35h4.71c.2,0,.35.16.35.35s-.16.35-.35.35"/>
          <path class="cls-15" d="M122.04,162.24h-4.71c-.2,0-.35-.16-.35-.35s.16-.35.35-.35h4.71c.2,0,.35.16.35.35s-.16.35-.35.35"/>
          <path class="cls-15" d="M122.04,167.92h-4.71c-.2,0-.35-.16-.35-.35s.16-.35.35-.35h4.71c.2,0,.35.16.35.35s-.16.35-.35.35"/>
          <path class="cls-15" d="M136.04,173.26h-18.71c-.2,0-.35-.16-.35-.35s.16-.35.35-.35h18.71c.2,0,.35.16.35.35s-.16.35-.35.35"/>
          <path class="cls-15" d="M136.21,178.38h-18.71c-.2,0-.35-.16-.35-.35s.16-.35.35-.35h18.71c.2,0,.35.16.35.35s-.16.35-.35.35"/>
          <rect class="cls-15" x="142.53" y="171.72" width="1.95" height="19.87" transform="translate(-86.43 154.72) rotate(-45.01)"/>
          <path class="cls-15" d="M129.68,179c-1.96,0-3.89-.52-5.58-1.49-1.69-.98-3.11-2.39-4.09-4.09-.97-1.69-1.5-3.62-1.5-5.58s.53-3.89,1.5-5.59c.97-1.69,2.4-3.11,4.09-4.09,3.38-1.95,7.78-1.95,11.16,0,1.7.99,3.11,2.4,4.09,4.09.99,1.69,1.5,3.62,1.5,5.59s-.51,3.89-1.5,5.58c-.97,1.69-2.39,3.11-4.09,4.09-1.69.98-3.62,1.49-5.59,1.49M129.68,158.94c-1.56,0-3.1.41-4.45,1.19-1.35.78-2.47,1.91-3.26,3.26-.77,1.35-1.19,2.88-1.19,4.45s.41,3.1,1.19,4.45c.78,1.35,1.9,2.47,3.26,3.26,2.7,1.56,6.21,1.56,8.9,0,1.35-.78,2.48-1.91,3.26-3.26.78-1.35,1.2-2.89,1.2-4.45s-.41-3.11-1.2-4.45c-.78-1.35-1.9-2.48-3.26-3.26-1.34-.78-2.89-1.19-4.45-1.19"/>
          <path class="cls-15" d="M151.53,190.15c-.51.5-1.32.5-1.83,0l-10.77-10.77c-.12-.12-.19-.29-.19-.46s.07-.34.19-.46l1.38-1.37c.25-.25.66-.25.91,0l10.77,10.77c.25.24.25,1.59,0,1.83l-.46.46Z"/>
          <g class="cls-39">
            <g class="cls-37">
              <path class="cls-10" d="M138.71,167.84c0,1.65-.44,3.19-1.21,4.52-.78,1.37-1.93,2.51-3.3,3.31-1.33.77-2.87,1.21-4.52,1.21s-3.18-.44-4.51-1.21c-1.36-.8-2.52-1.94-3.3-3.31-.77-1.33-1.21-2.87-1.21-4.52s.44-3.19,1.21-4.52c.78-1.37,1.94-2.51,3.3-3.31,1.33-.77,2.88-1.21,4.51-1.21s3.19.44,4.52,1.21c1.38.8,2.52,1.94,3.3,3.31.77,1.33,1.21,2.87,1.21,4.52"/>
            </g>
          </g>
          <path class="cls-15" d="M141.22,177.09c-.25-.25-.66-.25-.91,0l-.65.64,12.15,12.15.19-.18c.24-.24.38-.57.38-.91s-.15-.67-.38-.91l-10.78-10.78Z"/>
          <path class="cls-3" d="M122.61,160.76c3.86-3.86,10.13-3.86,13.99,0,3.87,3.86,3.87,10.13,0,13.99-3.86,3.87-10.13,3.87-13.99,0-3.86-3.86-3.86-10.13,0-13.99"/>
          <path class="cls-11" d="M123.34,161.5c3.46-3.46,9.06-3.46,12.52,0,3.46,3.46,3.46,9.06,0,12.52-3.46,3.46-9.06,3.46-12.52,0-3.46-3.46-3.46-9.06,0-12.52"/>
          <rect class="cls-3" x="122.98" y="171.28" width="12.48" height=".35"/>
          <polygon class="cls-3" points="134.51 162.84 134.72 163.06 130.52 165.21 128.01 162.58 122.33 165.52 122.33 165.99 127.89 163.12 130.4 165.73 135.03 163.38 135.24 163.6 135.96 162.65 134.51 162.84"/>
          <polygon class="cls-3" points="123.32 170.7 124.9 170.7 124.9 165.17 123.32 166.03 123.32 170.7"/>
          <polygon class="cls-3" points="134.63 164.25 133.4 164.87 133.4 170.7 134.79 170.7 134.77 164.48 134.63 164.25"/>
          <polygon class="cls-3" points="130.92 166.07 130.92 170.7 132.28 170.7 132.28 165.34 130.92 166.07 130.92 166.07"/>
          <polygon class="cls-3" points="125.83 164.77 125.83 170.7 127.33 170.7 127.33 164.02 125.83 164.77"/>
          <polygon class="cls-3" points="128.38 164.53 128.38 170.7 129.77 170.7 129.77 166.11 128.38 164.53"/>
        </g>
        <g>
          <rect class="cls-31" x="105.06" y="109.49" width="10.35" height="5.69"/>
          <path class="cls-13" d="M123.63,117.23h-26.79v-.53c0-.83,1.27-1.51,2.83-1.51h21.13c1.56,0,2.83.67,2.83,1.51v.53Z"/>
          <path class="cls-13" d="M74.57,61.54h71.34c.51,0,.92.41.92.92v47.12c0,.5-.41.91-.91.91h-71.34c-.51,0-.92-.41-.92-.92v-47.12c0-.51.41-.92.92-.92Z"/>
          <rect class="cls-11" x="76.22" y="64.1" width="68.03" height="42.81"/>
          <g class="cls-36">
            <g class="cls-19">
              <polygon class="cls-11" points="101.78 64.1 76.78 89.09 76.78 75.24 87.91 64.1 101.78 64.1"/>
            </g>
          </g>
          <g class="cls-36">
            <g class="cls-34">
              <polygon class="cls-11" points="73.6 85.5 98.51 110.43 84.71 110.43 73.6 99.32 73.6 85.5"/>
            </g>
          </g>
          <rect class="cls-11" x="76.13" y="64.06" width="68.34" height="42.83"/>
          <rect class="cls-30" x="76.13" y="64.06" width="68.34" height="4.96"/>
          <path class="cls-11" d="M142.78,66.53c0,.67-.55,1.22-1.22,1.22s-1.22-.55-1.22-1.22.55-1.22,1.22-1.22,1.22.54,1.22,1.22"/>
          <path class="cls-11" d="M138.45,66.53c0,.67-.55,1.22-1.22,1.22s-1.22-.55-1.22-1.22.55-1.22,1.22-1.22,1.22.54,1.22,1.22"/>
          <path class="cls-11" d="M134.13,66.53c0,.67-.55,1.22-1.22,1.22s-1.22-.55-1.22-1.22.55-1.22,1.22-1.22,1.22.54,1.22,1.22"/>
          <g class="cls-36">
            <g class="cls-23">
              <polygon class="cls-11" points="146.74 82.88 146.74 100.81 137.12 110.41 119.2 110.41 146.74 82.88"/>
            </g>
          </g>
          <path class="cls-29" d="M79.24,101.8h0c0-.84,1.06-1.52,2.38-1.52h18.79c1.31,0,2.38.68,2.38,1.52s-1.06,1.52-2.38,1.52h-18.79c-1.31,0-2.38-.68-2.38-1.52"/>
          <path class="cls-26" d="M111.34,95.39h-30.97c-.7,0-1.27-.57-1.27-1.27v-20.05c0-.7.57-1.27,1.27-1.27h30.97c.7,0,1.27.57,1.27,1.27v20.05c0,.7-.57,1.27-1.27,1.27"/>
          <path class="cls-18" d="M83.28,77c0,.5-.4.9-.9.9s-.9-.4-.9-.9.4-.9.9-.9.9.4.9.9"/>
          <path class="cls-11" d="M99.38,77.67h-13.8c-.37,0-.66-.3-.66-.67v-.03c0-.37.3-.67.66-.67h13.8c.37,0,.67.3.67.67v.03c0,.37-.3.67-.67.67"/>
          <path class="cls-18" d="M83.28,79.66c0,.5-.4.9-.9.9s-.9-.4-.9-.9.4-.9.9-.9.9.4.9.9"/>
          <path class="cls-11" d="M99.38,80.26h-13.8c-.37,0-.66-.3-.66-.67v-.03c0-.37.3-.67.66-.67h13.8c.37,0,.67.3.67.67v.03c0,.37-.3.67-.67.67"/>
          <rect class="cls-12" x="81.09" y="83.49" width="9.97" height="1.36"/>
          <rect class="cls-12" x="81.09" y="86.27" width="9.97" height="1.36"/>
          <path class="cls-29" d="M99.68,91.56h-8.73c-.33,0-.59.27-.59.59v.03c0,.33.27.59.59.59h8.73c.33,0,.59-.27.59-.59v-.03c0-.33-.27-.59-.59-.59"/>
          <path class="cls-29" d="M99.73,89h-8.73c-.33,0-.59.27-.59.59v.03c0,.33.27.59.59.59h8.73c.33,0,.59-.27.59-.59v-.03c0-.33-.27-.59-.59-.59"/>
          <rect class="cls-29" x="103.47" y="76.06" width="6.04" height="3.35"/>
          <rect class="cls-29" x="103.54" y="81.67" width="6.04" height="6.04"/>
          <path class="cls-5" d="M140.02,75.63h-21.52c-1.29,0-2.34-1.05-2.34-2.34v-.1c0-1.29,1.05-2.34,2.34-2.34h21.52c1.29,0,2.34,1.05,2.34,2.34v.1c0,1.29-1.05,2.34-2.34,2.34"/>
          <polygon class="cls-9" points="141.5 97.03 115.33 97.03 115.33 78.5 116.04 78.5 116.04 96.32 141.5 96.32 141.5 97.03"/>
          <path class="cls-5" d="M140.52,101.04h-23.86c-.54,0-.97-.44-.97-.97h0c0-.54.44-.98.97-.98h23.86c.54,0,.97.44.97.97h0c0,.54-.44.98-.97.98"/>
          <path class="cls-5" d="M140.52,105.11h-23.86c-.54,0-.97-.44-.97-.97s.44-.97.97-.97h23.86c.54,0,.97.44.97.97s-.44.97-.97.97"/>
          <rect class="cls-5" x="126.47" y="78.35" width="4.16" height=".94"/>
          <rect class="cls-5" x="120.95" y="78.35" width="4.57" height=".94"/>
          <rect class="cls-5" x="118.18" y="78.35" width="1.83" height=".94"/>
          <rect class="cls-5" x="124.37" y="80.48" width="6.25" height=".94"/>
          <rect class="cls-5" x="118.18" y="80.48" width="5.25" height=".94"/>
          <rect class="cls-5" x="127.15" y="82.6" width="3.48" height=".94"/>
          <rect class="cls-5" x="120.63" y="82.6" width="5.58" height=".94"/>
          <rect class="cls-5" x="118.18" y="82.6" width="1.5" height=".94"/>
          <rect class="cls-4" x="135.74" y="86.96" width=".62" height="6.58" transform="translate(-26.65 103.71) rotate(-38.29)"/>
          <rect class="cls-4" x="118.93" y="91.5" width="6.58" height=".62" transform="translate(-9.29 13.89) rotate(-6.27)"/>
          <rect class="cls-4" x="125.84" y="89.26" width="8.31" height=".62" transform="translate(-26.24 66.92) rotate(-26.32)"/>
          <rect class="cls-4" x="137.81" y="90.83" width="4.99" height=".62" transform="translate(-25.95 72.38) rotate(-26.57)"/>
          <polygon class="cls-4" points="143.27 90.05 142.85 90.7 142.5 90.01 142.14 89.32 142.92 89.36 143.69 89.4 143.27 90.05"/>
          <path class="cls-27" d="M120.21,92.3c0,.91-.74,1.66-1.66,1.66s-1.66-.74-1.66-1.66.74-1.66,1.66-1.66,1.66.74,1.66,1.66"/>
          <path class="cls-9" d="M127.1,91.57c0,.69-.56,1.26-1.26,1.26s-1.26-.56-1.26-1.26.56-1.26,1.26-1.26,1.26.56,1.26,1.26"/>
          <path class="cls-28" d="M139.68,92.39c0,.91-.74,1.66-1.66,1.66s-1.66-.74-1.66-1.66.74-1.66,1.66-1.66,1.66.74,1.66,1.66"/>
          <path class="cls-17" d="M135.25,87.37c0,.78-.63,1.4-1.4,1.4s-1.41-.63-1.41-1.4.63-1.4,1.41-1.4,1.4.63,1.4,1.4"/>
          <g class="cls-39">
            <g class="cls-8">
              <path class="cls-33" d="M145.62,91.13c0,10.39-8.43,18.82-18.82,18.82s-18.82-8.43-18.82-18.82,8.43-18.82,18.82-18.82,18.82,8.43,18.82,18.82"/>
            </g>
          </g>
          <path class="cls-40" d="M126.81,79.69c-.58,0-1.09-.5-1.09-1.09v-8.35c0-.58.5-1.09,1.09-1.09s1.09.5,1.09,1.09v8.35c-.08.58-.5,1.09-1.09,1.09"/>
          <path class="cls-40" d="M126.81,113.1c-.58,0-1.09-.5-1.09-1.09v-8.35c0-.58.5-1.09,1.09-1.09s1.09.5,1.09,1.09v8.35c-.08.58-.5,1.09-1.09,1.09"/>
          <path class="cls-40" d="M147.69,92.22h-8.35c-.59,0-1.09-.5-1.09-1.09s.5-1.09,1.09-1.09h8.35c.59,0,1.09.5,1.09,1.09-.08.59-.5,1.09-1.09,1.09"/>
          <path class="cls-40" d="M114.28,92.22h-8.35c-.58,0-1.09-.5-1.09-1.09s.5-1.09,1.09-1.09h8.35c.58,0,1.09.5,1.09,1.09-.08.59-.5,1.09-1.09,1.09"/>
          <path class="cls-40" d="M129.89,110.68c-.5,0-.92-.33-1-.84-.08-.58.25-1.09.84-1.17,7.43-1.25,13.28-7.1,14.53-14.53.08-.58.67-.92,1.17-.83.58.08.92.67.83,1.17-1.42,8.35-7.93,14.87-16.29,16.29.08-.08,0-.08-.08-.08"/>
          <path class="cls-40" d="M108.26,89.04h-.17c-.58-.08-.92-.67-.84-1.17,1.42-8.35,7.94-14.87,16.29-16.29.58-.08,1.09.25,1.17.84.08.59-.25,1.09-.84,1.17-7.43,1.25-13.28,7.1-14.53,14.53-.17.58-.58.92-1.09.92"/>
          <path class="cls-40" d="M123.63,110.68h-.17c-8.35-1.42-14.87-7.93-16.2-16.2-.08-.58.25-1.09.84-1.17.58-.08,1.09.25,1.17.83,1.25,7.43,7.1,13.28,14.53,14.53.58.08.92.67.84,1.17,0,.5-.5.84-1,.84"/>
          <path class="cls-40" d="M145.35,89.04c-.5,0-.92-.33-1-.84-1.25-7.43-7.1-13.28-14.53-14.53-.59-.08-.92-.67-.84-1.17.08-.59.67-.92,1.17-.84,8.35,1.42,14.87,7.93,16.29,16.29.08.58-.25,1.09-.84,1.17-.17-.08-.25-.08-.25-.08"/>
          <rect class="cls-31" x="141.47" y="96.58" width="2.16" height="22.01" transform="translate(-34.32 132.34) rotate(-45.01)"/>
          <path class="cls-13" d="M127.23,104.64c-2.17,0-4.3-.57-6.18-1.66-1.87-1.09-3.45-2.65-4.53-4.53-1.08-1.87-1.66-4.01-1.66-6.18s.58-4.31,1.66-6.19c1.08-1.87,2.65-3.44,4.53-4.53,3.75-2.16,8.62-2.16,12.36,0,1.88,1.09,3.45,2.65,4.53,4.53,1.09,1.87,1.66,4.01,1.66,6.19s-.57,4.31-1.66,6.18c-1.08,1.87-2.64,3.44-4.53,4.53-1.87,1.09-4.01,1.66-6.19,1.66M127.23,82.41c-1.72,0-3.44.46-4.92,1.32-1.5.86-2.74,2.11-3.61,3.61-.86,1.49-1.32,3.19-1.32,4.93s.46,3.44,1.32,4.93c.87,1.49,2.11,2.74,3.61,3.61,2.99,1.72,6.88,1.72,9.86,0,1.5-.87,2.74-2.11,3.61-3.61.87-1.49,1.33-3.2,1.33-4.93s-.46-3.44-1.33-4.93c-.87-1.49-2.11-2.75-3.61-3.61-1.49-.86-3.2-1.32-4.93-1.32"/>
          <path class="cls-7" d="M151.43,116.99c-.56.56-1.47.56-2.03,0l-11.94-11.94c-.13-.13-.21-.32-.21-.51s.08-.37.21-.51l1.53-1.52c.28-.28.73-.28,1.01,0l11.93,11.93c.27.27.27,1.76,0,2.03l-.51.51Z"/>
          <g class="cls-39">
            <g class="cls-22">
              <path class="cls-33" d="M137.24,92.27c0,1.82-.48,3.53-1.34,5-.87,1.52-2.13,2.78-3.66,3.66-1.48.85-3.18,1.34-5.01,1.34s-3.52-.49-5-1.34c-1.51-.88-2.79-2.14-3.66-3.66-.86-1.48-1.34-3.18-1.34-5s.48-3.53,1.34-5c.87-1.52,2.15-2.78,3.66-3.66,1.48-.85,3.19-1.34,5-1.34s3.53.49,5.01,1.34c1.53.88,2.79,2.15,3.66,3.66.86,1.47,1.34,3.18,1.34,5"/>
            </g>
          </g>
          <path class="cls-29" d="M140.02,102.52c-.27-.28-.73-.28-1,0l-.72.71,13.46,13.46.21-.2c.26-.27.42-.63.42-1.01s-.16-.74-.42-1.01l-11.94-11.94Z"/>
        </g>
        <g>
          <g>
            <path class="cls-6" d="M86.64,21.39h-.28s0,0,0-.05v-1.65c0-.11.04-.21.12-.32s.18-.19.3-.25c.12-.07.23-.1.33-.1h.53c.16,0,.31.02.43.07.12.05.22.12.3.21.08.09.13.18.17.27.04.09.06.18.06.25v.1s0,.01,0,.06c0,.04-.02.1-.04.16-.02.06-.05.13-.09.2-.04.07-.1.14-.17.2-.08.06-.17.11-.29.15-.12.04-.25.05-.41.04h-.96v.65ZM86.64,20.46h1.08c.17,0,.31-.04.4-.11.09-.07.15-.15.17-.22s.04-.14.04-.19v-.09c0-.06-.01-.13-.04-.21-.03-.08-.09-.16-.18-.23s-.22-.1-.39-.1h-.58c-.08,0-.15.02-.23.07-.08.05-.14.1-.19.17s-.07.14-.07.2v.7Z"/>
            <path class="cls-6" d="M91.05,19.27h-.99s-.11,0-.17,0c-.06,0-.12,0-.17.02-.05.02-.1.04-.14.08-.04.04-.07.08-.08.14s-.03.1-.03.14c0,.04,0,.11,0,.21v.87s0,.02-.02.02h-.25s-.02,0-.02-.02v-.89s0-.1,0-.19c0-.09.02-.18.05-.27.04-.09.1-.17.19-.24.06-.04.12-.08.18-.1.07-.02.13-.04.19-.05s.12-.01.17-.01h1.1v.29Z"/>
            <path class="cls-6" d="M92.85,19c.16,0,.29,0,.41.04.12.04.21.09.28.15.07.06.13.13.17.21.04.07.07.14.09.2.02.06.03.12.04.16s0,.07,0,.06v.1c0,.08-.02.16-.05.26-.04.1-.09.19-.17.28-.08.09-.18.16-.3.21s-.26.08-.43.07h-.33c-.16,0-.31-.01-.43-.07-.12-.05-.22-.12-.3-.21-.08-.09-.13-.18-.17-.28-.04-.1-.06-.18-.06-.26v-.1s0-.01,0-.06.02-.1.04-.16.05-.13.09-.2c.04-.07.1-.14.17-.21.07-.06.17-.12.28-.15.11-.04.25-.05.41-.04h.24ZM92.97,20.46c.22,0,.37-.05.46-.16s.14-.22.15-.34v-.05s0-.08,0-.08v-.05c-.02-.11-.07-.22-.15-.33-.09-.11-.24-.16-.46-.16h-.46c-.22,0-.37.05-.46.16-.09.11-.14.22-.15.33v.05s0,.08,0,.08v.05c.02.12.07.23.16.34.09.1.24.16.46.16h.46Z"/>
            <path class="cls-6" d="M96.42,18.36h.28s0,0,0,.05v1.68c0,.12-.01.22-.04.3s-.07.15-.12.2c-.06.05-.13.09-.22.11-.09.02-.21.04-.35.04h-.57c-.16,0-.31-.01-.43-.07-.12-.05-.23-.12-.3-.21-.08-.09-.14-.18-.17-.27-.04-.1-.06-.18-.06-.26v-.1s0-.01,0-.06c0-.05.02-.1.04-.16.02-.06.05-.13.09-.2.04-.07.1-.14.17-.2.08-.06.17-.11.29-.15.12-.04.25-.05.41-.04h.97v-.66ZM96.42,19.3h-1.08c-.18,0-.31.04-.4.11s-.15.15-.18.23c-.03.08-.04.14-.04.19v.08c0,.06.01.13.04.21.03.08.09.16.18.23.09.07.22.1.4.1h.75c.09,0,.15-.02.2-.06.05-.04.08-.09.1-.15.02-.07.03-.15.03-.24v-.71Z"/>
            <path class="cls-6" d="M98.9,20.42c.08-.03.14-.07.19-.12s.09-.12.12-.2c.03-.08.04-.16.04-.24v-.9h.29v.9c0,.16-.04.31-.12.45-.08.14-.19.25-.32.33-.13.08-.28.12-.44.12h-.56c-.16,0-.3-.04-.44-.12-.13-.08-.24-.19-.32-.33-.08-.14-.12-.29-.12-.45v-.9h.29s0,0,0,.02v.87c0,.08.01.16.04.24.03.08.07.15.12.2s.11.09.19.12c.08.03.15.04.23.04h.56c.08,0,.15-.01.23-.04Z"/>
            <path class="cls-6" d="M100.69,19.34c-.08.03-.14.07-.19.12s-.09.12-.12.19c-.03.08-.04.16-.04.23s.01.16.04.23c.03.08.07.14.12.19s.12.09.19.12.16.04.23.04h1.43v.29h-1.43c-.16,0-.3-.04-.44-.12-.13-.08-.24-.18-.32-.32-.08-.13-.12-.28-.12-.44s.04-.3.12-.44c.08-.13.18-.24.32-.32.13-.08.28-.12.44-.12h1.43v.29h-1.43c-.08,0-.16.01-.23.04Z"/>
            <path class="cls-6" d="M104.38,20.46v.29h-.54c-.15,0-.3-.04-.43-.11-.13-.08-.24-.18-.32-.31-.08-.13-.12-.27-.12-.43v-1.55h.29s0,0,0,.02v.64h.67s0,0,0,.02v.26s0,0-.03,0h-.65v.62c0,.13.03.23.1.32s.13.15.21.19c.04.02.09.04.16.05.07,0,.13,0,.18,0h.48Z"/>
            <path class="cls-6" d="M106.24,19c.16,0,.29,0,.41.04.12.04.21.09.28.15.07.06.13.13.17.21.04.07.07.14.09.2.02.06.03.12.04.16s0,.07,0,.06v.1c0,.08-.02.16-.06.26-.04.1-.09.19-.17.28-.08.09-.18.16-.3.21s-.26.08-.43.07h-.33c-.16,0-.3-.01-.43-.07s-.22-.12-.3-.21c-.08-.09-.13-.18-.17-.28-.04-.1-.06-.18-.06-.26v-.1s0-.01,0-.06c0-.05.02-.1.04-.16s.05-.13.09-.2c.04-.07.1-.14.17-.21.07-.06.17-.12.28-.15s.25-.05.41-.04h.24ZM106.35,20.46c.22,0,.37-.05.46-.16s.14-.22.15-.34v-.05s0-.08,0-.08v-.05c-.02-.11-.07-.22-.15-.33-.09-.11-.24-.16-.46-.16h-.46c-.22,0-.37.05-.46.16-.09.11-.14.22-.15.33v.05s0,.08,0,.08v.05c.02.12.07.23.16.34.09.1.24.16.46.16h.46Z"/>
            <path class="cls-6" d="M109.66,19.75c.12,0,.22.05.31.12.09.07.13.21.13.41,0,.11-.03.2-.08.27-.05.07-.12.12-.2.16-.08.03-.16.05-.24.05h-1.78v-.29s1.77,0,1.77,0c.06,0,.12-.01.17-.04.05-.03.08-.09.08-.19,0-.06-.02-.11-.05-.14-.04-.03-.08-.04-.12-.05s-.07,0-.08,0h-1.29c-.07,0-.14-.02-.22-.06-.08-.04-.14-.09-.2-.18-.06-.08-.08-.19-.08-.32,0-.11.03-.21.09-.28s.13-.13.21-.16c.08-.04.16-.05.23-.06h1.61v.29h-1.59c-.07,0-.13.01-.18.04-.06.03-.08.1-.08.21,0,.09.03.15.08.18.05.03.1.04.15.04h1.38Z"/>
            <path class="cls-6" d="M113.76,18.99v1.52c-.01.17-.05.33-.13.45-.09.16-.2.27-.32.34-.12.07-.27.11-.45.11h-1.24s-.02,0-.02-.02v-.25s0-.02.02-.02h1.24c.06,0,.12,0,.17-.01.05,0,.09-.03.13-.05.05-.04.1-.07.13-.1s.06-.06.08-.11l.04-.09h-1.13c-.13,0-.25-.02-.36-.08-.11-.05-.19-.11-.26-.18-.07-.07-.12-.15-.18-.26-.05-.11-.08-.22-.08-.33v-.92s0-.02,0-.02h.3s0,0,0,.02v.94c0,.06.01.12.04.18s.04.11.07.13c.01.01.03.04.07.07.03.03.08.07.14.09.06.03.13.05.22.06h1.24s0-1.47,0-1.47c0-.02,0-.02.02-.02h.25s.02,0,.02.02Z"/>
            <path class="cls-6" d="M116.97,19.75c.12,0,.22.05.31.12.09.07.13.21.13.41,0,.11-.03.2-.08.27-.05.07-.12.12-.2.16-.08.03-.16.05-.24.05h-1.78v-.29s1.77,0,1.77,0c.06,0,.12-.01.17-.04.05-.03.08-.09.08-.19,0-.06-.02-.11-.05-.14-.04-.03-.08-.04-.12-.05s-.07,0-.08,0h-1.29c-.07,0-.14-.02-.22-.06-.08-.04-.14-.09-.2-.18-.06-.08-.08-.19-.08-.32,0-.11.03-.21.09-.28.06-.07.13-.13.21-.16.08-.04.16-.05.23-.06h1.61v.29h-1.59c-.07,0-.13.01-.18.04-.06.03-.08.1-.08.21,0,.09.03.15.08.18.05.03.1.04.15.04h1.38Z"/>
            <path class="cls-6" d="M119.96,19.1c.08.07.14.14.17.23.03.08.04.16.04.22,0,.31-.17.48-.52.49h-1.38s0,.07,0,.07c0,.08,0,.14.02.19s.04.08.07.1c.03.02.08.04.14.04.06,0,.14.01.24.01h1.29s.06.02.06.05v.17s-.02.06-.06.06h-1.33c-.19,0-.33-.02-.44-.06-.11-.04-.18-.11-.23-.2s-.07-.21-.07-.37v-.44c0-.1.04-.21.12-.31.08-.1.18-.19.3-.26s.25-.1.38-.1h.84c.15,0,.27.03.36.1ZM119.76,19.74s.05-.03.08-.06c.02-.02.03-.04.04-.07,0-.03.01-.06.01-.11,0-.02,0-.05-.02-.08-.01-.03-.03-.06-.07-.09-.03-.03-.08-.04-.13-.04h-.92c-.07,0-.14.02-.21.06s-.14.1-.19.17-.08.15-.08.23h1.37c.06,0,.1,0,.12-.01Z"/>
            <path class="cls-6" d="M122.68,19.27h-.99s-.11,0-.17,0c-.06,0-.12,0-.17.02-.05.02-.1.04-.14.08-.04.04-.07.08-.08.14-.02.05-.03.1-.03.14,0,.04,0,.11,0,.21v.87s0,.02-.02.02h-.25s-.02,0-.02-.02v-.89s0-.1,0-.19c0-.09.02-.18.05-.27.03-.09.1-.17.19-.24.06-.04.12-.08.18-.1.07-.02.13-.04.19-.05.06,0,.12-.01.17-.01h1.1v.29Z"/>
            <path class="cls-6" d="M123.38,18.96l1.03,1.55h.04l1.03-1.55h.35l-1.04,1.55c-.08.13-.14.21-.16.24h-.4c-.05-.07-.1-.15-.16-.24l-1.03-1.55h.35Z"/>
            <path class="cls-6" d="M126.53,18.15v.31h-.31v-.31h.31ZM126.53,18.87v1.88h-.31v-1.88h.31Z"/>
            <path class="cls-6" d="M127.76,19.34c-.08.03-.14.07-.19.12s-.09.12-.12.19c-.03.08-.04.16-.04.23s.01.16.04.23c.03.08.07.14.12.19s.12.09.19.12.16.04.23.04h1.43v.29h-1.43c-.16,0-.3-.04-.44-.12-.13-.08-.24-.18-.32-.32-.08-.13-.12-.28-.12-.44s.04-.3.12-.44c.08-.13.18-.24.32-.32.13-.08.28-.12.44-.12h1.43v.29h-1.43c-.08,0-.16.01-.23.04Z"/>
            <path class="cls-6" d="M130.35,18.15v.31h-.31v-.31h.31ZM130.35,18.87v1.88h-.31v-1.88h.31Z"/>
            <path class="cls-6" d="M132.23,19c.16,0,.29,0,.41.04s.21.09.28.15c.07.06.13.13.17.21.04.07.07.14.09.2.02.06.03.12.04.16s0,.07,0,.06v.1c0,.08-.02.16-.06.26-.04.1-.09.19-.17.28-.08.09-.18.16-.3.21s-.26.08-.43.07h-.33c-.16,0-.3-.01-.43-.07-.12-.05-.22-.12-.3-.21-.08-.09-.13-.18-.17-.28-.04-.1-.06-.18-.06-.26v-.1s0-.01,0-.06.02-.1.04-.16.05-.13.09-.2c.04-.07.1-.14.17-.21.08-.06.17-.12.28-.15.12-.04.25-.05.41-.04h.24ZM132.34,20.46c.22,0,.37-.05.46-.16.09-.1.14-.22.15-.34v-.05s0-.08,0-.08v-.05c-.02-.11-.07-.22-.15-.33-.09-.11-.24-.16-.46-.16h-.46c-.22,0-.37.05-.46.16-.09.11-.14.22-.15.33v.05s0,.08,0,.08v.05c.02.12.07.23.16.34.09.1.24.16.46.16h.46Z"/>
            <path class="cls-6" d="M135.65,19.75c.12,0,.22.05.31.12s.13.21.13.41c0,.11-.03.2-.08.27-.05.07-.12.12-.2.16-.08.03-.16.05-.24.05h-1.78v-.29s1.77,0,1.77,0c.06,0,.12-.01.17-.04.05-.03.08-.09.08-.19,0-.06-.02-.11-.05-.14-.04-.03-.08-.04-.12-.05s-.07,0-.08,0h-1.29c-.07,0-.14-.02-.22-.06-.08-.04-.14-.09-.2-.18-.06-.08-.08-.19-.08-.32,0-.11.03-.21.09-.28.06-.07.13-.13.21-.16.08-.04.16-.05.23-.06h1.61v.29h-1.59c-.07,0-.13.01-.18.04-.06.03-.08.1-.08.21,0,.09.03.15.08.18.05.03.1.04.15.04h1.38Z"/>
          </g>
          <rect class="cls-1" x="148.12" y="18.12" width="4.16" height="1.32"/>
          <rect class="cls-41" x="148.12" y="19.44" width="4.16" height=".66"/>
          <rect class="cls-2" x="148.12" y="20.1" width="4.16" height=".66"/>
          <rect class="cls-35" x="143.04" y="18.12" width="1.39" height="2.63"/>
          <rect class="cls-35" x="145.81" y="18.12" width="1.39" height="2.63"/>
          <rect class="cls-11" x="144.42" y="18.12" width="1.39" height="2.63"/>
          <polyline class="cls-25" points="142.1 20.76 137.94 20.76 137.94 19.44 142.1 19.44"/>
          <rect class="cls-32" x="137.94" y="18.12" width="1.39" height="1.32"/>
          <rect class="cls-11" x="139.33" y="18.12" width="2.77" height="1.32"/>
          <polygon class="cls-11" points="138.3 18.68 138.56 18.68 138.64 18.45 138.71 18.68 138.96 18.68 138.76 18.82 138.84 19.05 138.64 18.91 138.43 19.05 138.51 18.82 138.3 18.68"/>
          <path class="cls-11" d="M14.84.27L.55,4.78l14.33,11.12,14.04-10.84L14.84.27ZM20.37,10.39l-3.12,2.39-2.66-1.71,2.04-1.67c.37-.33.47-.56.47-.56v-3.18c.03-.54-.73-.85-.73-.85-.94-.45-2.38-.43-2.38-.43-1.33-.02-3.8.92-3.8.92v2.95l-3.69-2.37c2.35-.95,3.42-1.2,3.42-1.2,2.33-.65,3.96-.69,3.96-.69,2.61-.14,4.69.58,4.69.58,2.08.57,2.94,1.3,2.94,1.3,1.72,1.29,1.33,2.61,1.33,2.61-.27.24-2.47,1.91-2.47,1.91"/>
          <polygon class="cls-24" points=".02 8.24 .02 4.69 14.92 16.03 29.45 4.96 29.45 8.22 14.87 21.46 .02 8.24"/>
          <path class="cls-24" d="M6.42,5.91l-2.39-1.48s3.15-1.23,5.77-1.73,3.58-.53,5.07-.47,4.37.63,6.26,1.55c1.89.93,2.29,1.89,2.4,2.42.12.53.09,1.75-.34,2.13l-.42.38s.31-.69-.13-1.56c-.44-.87-1.39-1.7-3.12-2.29-1.73-.59-3.27-.92-5.14-.89-1.87.03-3.56.44-4.87.82-1.3.38-3.09,1.11-3.09,1.11"/>
          <path class="cls-24" d="M10.2,5.37v2.94l4.29,2.83s.94-.73,1.6-1.28c.66-.54.94-.87,1.01-1.03v-3.24s.08.51-1.06,1.15c-1.13.64-1.49.85-1.49.85l-4.35-2.21Z"/>
          <path class="cls-24" d="M14.88,16.23L0,4.68,14.85,0h.04s14.57,4.97,14.57,4.97l-14.57,11.26ZM.55,4.78l14.34,11.12,14.04-10.84L14.84.27.55,4.78Z"/>
          <path class="cls-24" d="M17.27,13.09l-.08-.05L3.75,4.39l.24-.09s3.19-1.24,5.8-1.74c1.92-.37,3-.49,4.14-.49.27,0,.57,0,.95.02,1.62.06,4.5.68,6.31,1.57,1.43.7,2.26,1.54,2.47,2.51.12.56.1,1.82-.38,2.25l-.43.38-5.59,4.29ZM4.32,4.45l12.94,8.32,5.44-4.17.42-.38c.38-.34.41-1.51.3-2-.2-.89-.98-1.67-2.33-2.33-1.78-.87-4.61-1.48-6.2-1.54-.38-.01-.68-.02-.95-.02-.97,0-1.94.08-4.1.49-2.17.41-4.73,1.34-5.51,1.63"/>
          <path class="cls-24" d="M14.47,7.64l-4.29-2.19.04-.07-.03-.08c.1-.04,2.43-.93,3.82-.93h.03c1.46.01,2.38.36,2.77.69.36.3.41.63.16,1.02-.18.28-.7.67-1.43,1.05-.71.38-1.02.5-1.03.51h-.03ZM10.32,5.39l4.15,2.12c.09-.04.4-.18.99-.49.7-.37,1.21-.74,1.38-1,.21-.33.17-.6-.13-.85-.37-.31-1.27-.65-2.69-.66h-.03c-1.21,0-3.21.72-3.68.89"/>
          <path class="cls-24" d="M40.5,6.74c.14.02.36.08.68.19.31.11.68.32,1.09.63.41.31.77.78,1.08,1.4.31.62.46,1.41.46,2.36s-.18,1.67-.54,2.27c-.36.61-.79,1.06-1.29,1.35-.5.29-.97.47-1.42.53h-7.62V6.73h7.57ZM40.44,14.29c.23-.04.52-.14.84-.3.32-.16.63-.46.92-.9.29-.43.43-1.03.43-1.78,0-.88-.15-1.57-.45-2.07-.3-.5-.62-.84-.95-1.01-.33-.18-.61-.28-.84-.32h-6.28v6.38h6.33Z"/>
          <rect class="cls-24" x="44.63" y="6.75" width="1.19" height="8.7"/>
          <path class="cls-24" d="M52.3,9.12c.77-.01,1.46-.13,2.06-.34.61-.22,1.08-.43,1.4-.65.33-.22.55-.38.66-.49l.96-.91v8.75h-1.14v-6.32c-.5.3-1.08.55-1.75.76-.66.21-1.39.32-2.18.33-.83,0-1.61-.1-2.33-.32-.72-.22-1.36-.49-1.92-.82v6.36h-1.14V6.73l1,.86c.14.13.39.3.75.53.36.23.86.45,1.51.68.64.23,1.35.33,2.11.32"/>
          <rect class="cls-20" x="59.08" y="10.44" width="2.29" height="1.16"/>
          <g>
            <path class="cls-38" d="M72.14,8.33c.44.52.66,1.08.66,1.7v5.47h-1.14v-3.5h-7.51v3.5h-1.15v-5.47c0-.66.2-1.23.61-1.7.22-.27.49-.52.78-.75.3-.23.73-.44,1.31-.62.58-.18,1.29-.28,2.15-.28s1.58.09,2.16.28c.58.19,1.03.39,1.33.62.31.23.57.48.79.74ZM65.18,8.41c-.25.16-.46.3-.62.45-.16.14-.29.32-.39.54-.1.22-.15.49-.15.81v.74h7.51v-.74c0-.43-.11-.8-.34-1.1-.23-.3-.58-.58-1.05-.82-.2-.11-.41-.19-.63-.24-.22-.06-.47-.1-.76-.14-.32-.04-.66-.07-1.02-.07-.33,0-.67.03-1.02.09-.33.06-.63.13-.91.22-.28.09-.48.18-.62.26Z"/>
            <path class="cls-38" d="M80.96,10.97c.26.46.39.96.39,1.51v3h-.99v-3c0-.27-.05-.54-.14-.81s-.22-.49-.4-.67c-.17-.18-.38-.31-.64-.41-.26-.09-.51-.14-.77-.14h-1.86c-.5,0-1.15,0-1.95,0,0-.23,0-.02,0,.65s0,1.1,0,1.31v3.07h-.99v-6.01h4.79c.52,0,1.01.13,1.47.4.45.27.81.64,1.07,1.1Z"/>
            <path class="cls-38" d="M89.53,10.95c.24.42.36.94.36,1.56,0-.1,0-.08,0,.06h0v.69c0,.58-.12,1.03-.33,1.34-.22.31-.48.53-.79.63s-.63.17-.97.17c-.34,0-.6.02-.76.02h-3.14c-.49,0-.91-.18-1.26-.54-.35-.36-.52-.79-.52-1.3s.17-.95.52-1.31c.35-.36.77-.55,1.26-.55h4.82c0-.07-.02-.14-.04-.2s-.04-.11-.05-.13c-.09-.18-.22-.35-.39-.5s-.36-.27-.56-.36c-.21-.08-.42-.12-.65-.12h-4.64v-.94c0-.08,0-.11,0-.08h4.64c.54,0,1.03.14,1.5.42.22.13.41.29.57.47.16.18.31.4.46.65ZM88.83,13.4c0-.09,0-.29-.01-.62h-5.06c-.18,0-.33.08-.47.24-.13.16-.19.36-.19.58s.06.42.19.58c.13.16.29.24.47.24h3.28c.37,0,.67,0,.89-.02s.39-.07.52-.16c.14-.1.23-.22.29-.35.05-.14.08-.3.09-.49ZM86.29,7.09h1.2s-.75.77-.75.77l-.78.75h-.74l1.08-1.53Z"/>
            <path class="cls-38" d="M90.63,6.69h1.05s-.01,0,0,0v5.65c0,.41.1.78.3,1.1.2.32.44.57.73.75.29.18.57.27.83.27h2.15v1.05h-2.18c-.55,0-1.04-.17-1.48-.51s-.78-.76-1.02-1.27c-.25-.51-.37-1.01-.37-1.49v-5.29c0-.27,0-.35,0-.26Z"/>
            <path class="cls-38" d="M97.89,6.69v1.04h-1.04v-1.04h1.04ZM97.89,9.11v6.35h-1.04v-6.35h1.04Z"/>
            <path class="cls-38" d="M105.16,12.08c.4.02.74.15,1.04.39.3.24.45.7.45,1.38,0,.36-.09.67-.27.91s-.41.42-.68.54-.54.18-.8.18h-6v-.98s5.97,0,5.97,0c.21,0,.4-.05.57-.14.17-.09.25-.31.25-.65,0-.21-.06-.37-.18-.46-.12-.09-.26-.15-.41-.17-.16-.02-.25-.02-.29-.02h-4.35c-.23,0-.48-.07-.74-.19-.26-.12-.48-.32-.67-.6-.19-.28-.28-.63-.28-1.07,0-.38.1-.7.3-.95.2-.25.43-.44.71-.55.27-.12.54-.18.79-.2h5.42v.98h-5.36c-.22,0-.43.05-.62.14-.19.1-.29.33-.29.71,0,.3.09.5.26.59.18.09.35.14.52.15h4.66Z"/>
            <path class="cls-38" d="M108.62,6.69v1.04h-1.04v-1.04h1.04ZM108.62,9.11v6.35h-1.04v-6.35h1.04Z"/>
            <path class="cls-38" d="M115.89,12.08c.4.02.74.15,1.04.39.3.24.45.7.45,1.38,0,.36-.09.67-.27.91-.18.24-.41.42-.68.54s-.54.18-.8.18h-6v-.98s5.97,0,5.97,0c.21,0,.4-.05.57-.14.17-.09.25-.31.25-.65,0-.21-.06-.37-.18-.46-.12-.09-.26-.15-.41-.17-.16-.02-.25-.02-.29-.02h-4.35c-.23,0-.48-.07-.74-.19-.26-.12-.48-.32-.67-.6-.19-.28-.28-.63-.28-1.07,0-.38.1-.7.3-.95.2-.25.43-.44.71-.55.27-.12.54-.18.78-.2h5.42v.98h-5.36c-.22,0-.43.05-.62.14-.19.1-.29.33-.29.71,0,.3.09.5.26.59.18.09.35.14.51.15h4.66Z"/>
            <path class="cls-38" d="M130.03,15.46h-1.47l-.22-.29-2.42-3.23h-4.93v3.52h-1.18V6.69h7.8c.45,0,.86.12,1.23.35.23.15.41.3.55.45.14.15.27.34.38.57.1.21.17.41.21.6.04.2.06.37.06.5,0,.38-.01.68-.03.9-.02.23-.09.44-.21.65-.16.31-.41.59-.74.85-.33.25-.82.38-1.48.38h-.2l2.63,3.52ZM121.03,10.75h6.63c.21,0,.4-.03.56-.09.16-.06.29-.14.37-.24.1-.12.17-.25.21-.39.04-.14.06-.25.06-.32s0-.25,0-.54c0-.39-.12-.7-.35-.94-.24-.24-.53-.36-.88-.36h-6.65l.04,2.88Z"/>
            <path class="cls-38" d="M140.78,6.66v1.19h-6.39c-.25,0-.53.08-.84.23-.32.15-.63.39-.93.71-.22.23-.41.53-.57.9-.16.37-.25.83-.25,1.37,0,.36.06.72.17,1.06s.28.67.49.97c.19.27.44.53.75.78.31.26.7.39,1.17.4h6.39v1.19h-6.39c-.71,0-1.37-.2-1.97-.59-.6-.4-1.08-.93-1.43-1.61-.35-.67-.52-1.41-.52-2.21s.17-1.53.52-2.21c.35-.67.83-1.21,1.43-1.6.6-.4,1.26-.59,1.97-.59h6.39Z"/>
            <path class="cls-38" d="M149.06,6.69c.14.02.37.08.68.19.32.11.68.32,1.09.63.41.31.77.78,1.08,1.41.31.62.46,1.42.46,2.37s-.18,1.68-.54,2.29c-.36.61-.79,1.06-1.3,1.36-.5.3-.98.47-1.43.53h-7.67V6.69h7.61ZM149,14.3c.24-.04.52-.14.85-.31.33-.16.63-.46.92-.9.29-.44.43-1.03.43-1.79,0-.89-.15-1.58-.45-2.08-.3-.5-.62-.84-.95-1.02-.33-.18-.61-.28-.84-.32h-6.32v6.42h6.37Z"/>
          </g>
        </g>
      </g>
    </g>
  </g>
</svg>