<?xml version="1.0" encoding="UTF-8"?>
<svg id="Capa_2" xmlns="http://www.w3.org/2000/svg" viewBox="0 0 173.32 209.24">
  <defs>
    <style>
      .cls-1 {
        fill: #f9cf16;
      }

      .cls-2 {
        fill: #cd142a;
      }

      .cls-3 {
        fill: #4a4a4a;
      }

      .cls-4 {
        fill: #646365;
      }

      .cls-5 {
        fill: #fff;
      }

      .cls-6 {
        fill: #625f60;
      }

      .cls-7 {
        fill: #505050;
      }

      .cls-8 {
        fill: #dbac85;
      }

      .cls-9 {
        fill: #d00e4d;
      }

      .cls-10 {
        fill: #d00e4c;
      }

      .cls-11 {
        fill: #d22e1f;
      }

      .cls-12 {
        fill: #efc89b;
      }

      .cls-13 {
        fill: #3e8151;
      }

      .cls-14 {
        fill: #9d9a9c;
      }

      .cls-15 {
        fill: #1d458c;
      }

      .cls-16 {
        fill: #e1222c;
      }

      .cls-17 {
        fill: #feffff;
      }

      .cls-18 {
        fill: #828384;
      }

      .cls-19 {
        fill: #1b4180;
      }

      .cls-20 {
        fill: #f9c294;
      }
    </style>
  </defs>
  <g id="Capa_1-2" data-name="Capa_1">
    <g>
      <path class="cls-17" d="M143.44,167.03l-.18.39.25.11.17-.38c.23.1.42.11.57.1l.02-.3c-.1,0-.3.03-.55-.09-.3-.14-.31-.36-.23-.52.05-.11.12-.17.24-.2h2.77c-.03.25-.09.5-.21.74-.55,1.2-1.99,1.73-3.19,1.18-.79-.36-1.29-1.11-1.38-1.92h1.42c-.14.32-.03.67.3.89"/>
      <path class="cls-5" d="M132.34,182.11c.06,1.74.29,3.39.65,4.92,4.14-.65,8.28-.65,12.39,0,.35-1.52.58-3.17.64-4.91h-13.68Z"/>
      <path class="cls-5" d="M131.27,182.08h-5.82c.19,2.25.99,4.35,2.26,6.17,1.43-.4,2.85-.74,4.28-1.01-.4-1.59-.65-3.33-.71-5.16"/>
      <path class="cls-5" d="M131.27,180.04c.07-1.94.35-3.78.8-5.45-1.39-.26-2.78-.59-4.18-.98-1.38,1.88-2.25,4.07-2.45,6.43h5.82Z"/>
      <path class="cls-5" d="M144.69,172.77c-1.26-3.51-3.28-5.84-5.51-5.84s-4.24,2.33-5.5,5.83c3.68.54,7.36.55,11.01,0"/>
      <path class="cls-5" d="M133.56,189.06c1.25,3.68,3.32,6.14,5.61,6.14s4.37-2.46,5.62-6.15c-3.73-.56-7.48-.56-11.23,0"/>
      <path class="cls-5" d="M132.6,189.21c-1.15.22-2.31.48-3.46.78,1.62,1.67,3.69,3,6.04,3.83-1.04-1.23-1.92-2.8-2.58-4.61"/>
      <path class="cls-5" d="M132.71,172.63c.65-1.69,1.48-3.14,2.46-4.31-2.23.79-4.2,2.02-5.78,3.58,1.1.29,2.21.53,3.31.74"/>
      <path class="cls-5" d="M146.02,180.01c-.07-1.85-.32-3.61-.72-5.21-2.02.31-4.04.48-6.07.48s-4.11-.17-6.17-.49c-.4,1.6-.65,3.37-.72,5.22h13.68Z"/>
      <path class="cls-3" d="M151.21,172.62c-.05-.1-.11-.18-.19-.25-2.7-3.61-6.99-5.97-11.84-5.97s-9.14,2.35-11.83,5.97c-.08.07-.15.17-.2.27-1.71,2.41-2.73,5.35-2.73,8.53,0,8.15,6.62,14.77,14.77,14.77s14.77-6.63,14.77-14.77c0-3.18-1.02-6.13-2.74-8.54"/>
      <path class="cls-5" d="M139.18,195.2c-2.29,0-4.36-2.46-5.61-6.14,3.75-.57,7.51-.57,11.23-.01-1.25,3.68-3.33,6.15-5.62,6.15"/>
      <path class="cls-5" d="M132.99,187.02c-.36-1.52-.58-3.18-.65-4.91h13.68c-.07,1.73-.29,3.39-.65,4.9-4.11-.64-8.25-.64-12.39,0"/>
      <path class="cls-5" d="M125.45,182.08h5.82c.07,1.83.31,3.57.71,5.16-1.43.27-2.85.61-4.28,1.01-1.27-1.82-2.07-3.92-2.26-6.17"/>
      <path class="cls-5" d="M127.89,173.61c1.39.39,2.78.72,4.18.98-.45,1.67-.73,3.51-.8,5.45h-5.82c.2-2.36,1.07-4.55,2.45-6.43"/>
      <path class="cls-5" d="M139.18,166.93c2.23,0,4.25,2.33,5.51,5.84-3.65.54-7.33.54-11.01-.01,1.26-3.5,3.27-5.83,5.5-5.83"/>
      <path class="cls-5" d="M139.23,175.28c2.03,0,4.05-.16,6.07-.48.4,1.6.65,3.36.72,5.21h-13.68c.07-1.85.32-3.62.72-5.22,2.06.32,4.11.49,6.17.49"/>
      <path class="cls-5" d="M135.17,168.32c-.98,1.17-1.82,2.63-2.47,4.31-1.11-.21-2.21-.45-3.32-.74,1.58-1.55,3.55-2.79,5.78-3.58"/>
      <path class="cls-5" d="M129.14,189.99c1.15-.3,2.31-.57,3.46-.78.66,1.81,1.54,3.38,2.58,4.61-2.35-.83-4.42-2.16-6.04-3.83"/>
      <path class="cls-5" d="M147.07,181.95h5.82c-.19,2.25-.99,4.35-2.26,6.17-1.43-.4-2.85-.74-4.28-1.01.41-1.59.65-3.33.72-5.16"/>
      <path class="cls-5" d="M147.07,179.91c-.07-1.94-.35-3.78-.8-5.45,1.39-.26,2.78-.59,4.18-.98,1.38,1.88,2.25,4.07,2.45,6.43h-5.82Z"/>
      <path class="cls-5" d="M145.74,189.07c1.15.22,2.31.48,3.46.78-1.62,1.67-3.69,3-6.04,3.83,1.04-1.23,1.92-2.8,2.58-4.61"/>
      <path class="cls-5" d="M145.63,172.49c-.65-1.69-1.48-3.14-2.47-4.31,2.23.79,4.2,2.02,5.78,3.58-1.1.29-2.21.53-3.31.74"/>
      <path class="cls-5" d="M150.63,188.11c-1.43-.4-2.85-.74-4.28-1.01.4-1.59.65-3.33.71-5.16h5.82c-.19,2.25-.99,4.34-2.26,6.17"/>
      <path class="cls-5" d="M152.89,179.91h-5.82c-.07-1.94-.35-3.78-.8-5.45,1.39-.26,2.78-.59,4.18-.98,1.38,1.88,2.25,4.07,2.45,6.43"/>
      <path class="cls-5" d="M148.94,171.76c-1.1.29-2.21.53-3.31.74-.65-1.69-1.48-3.14-2.47-4.31,2.23.79,4.2,2.02,5.78,3.58"/>
      <path class="cls-5" d="M143.16,193.69c1.04-1.23,1.92-2.8,2.58-4.61,1.15.22,2.31.48,3.46.78-1.62,1.67-3.69,3-6.04,3.83"/>
      <path class="cls-7" d="M126.61,183c.7,0,.8-.32.22-.72l-7.14-5.67c-.58-.39-1.52-.4-2.1,0l-7.25,5.68c-.58.39-.48.71.22.71h16.05Z"/>
      <path class="cls-7" d="M117.92,185.61h1.64c.28,0,.51.23.51.51v5.28c0,.28-.23.51-.51.51h-1.64c-.28,0-.51-.23-.51-.51v-5.28c0-.28.23-.51.51-.51Z"/>
      <path class="cls-7" d="M123.55,185.61h1.64c.28,0,.51.23.51.51v5.28c0,.28-.23.51-.51.51h-1.64c-.28,0-.51-.23-.51-.51v-5.28c0-.28.23-.51.51-.51Z"/>
      <rect class="cls-7" x="111.78" y="185.61" width="2.66" height="6.29" rx=".51" ry=".51"/>
      <path class="cls-7" d="M123.04,192.53s0,.01,0,0c0,0,0-.01,0-.01,0,0,0,0,0,0"/>
      <path class="cls-7" d="M111.78,192.53s0,.01,0,0c0,0,0-.01,0-.01,0,0,0,0,0,0"/>
      <path class="cls-7" d="M109.87,193.47c0,.28.23.51.51.51h16.32c.28,0,.51-.23.51-.51v-.3c0-.28-.23-.51-.51-.51h-.51c-.28,0-.5-.02-.5-.04,0-.02-.04-.2-.11-.34-.06-.14-.62-.25-.9-.25h-.63c-.28,0-.62.05-.76.11-.14.06-.26.4-.25.43,0,.02-.21.09-.49.09h-2c-.28,0-.5-.02-.5-.04,0-.02-.04-.2-.11-.34-.06-.14-.62-.25-.9-.25h-.63c-.28,0-.62.05-.76.11-.14.06-.25.4-.25.43,0,.02-.21.09-.49.09h-2c-.28,0-.5-.02-.5-.04,0-.02-.04-.2-.1-.34-.06-.14-.62-.25-.9-.25h-.63c-.28,0-.62.05-.76.11-.14.06-.25.4-.25.43,0,.02-.21.09-.49.09h-.91c-.28,0-.51.23-.51.51v.3Z"/>
      <path class="cls-7" d="M123.3,185.3c.14.06.48.11.76.11h.63c.28,0,.62-.05.76-.11.14-.06.25-.46.25-.55s.23-.16.51-.16h.49c.28,0,.51-.23.51-.51v-.3c0-.28-.23-.51-.51-.51h-16.32c-.28,0-.51.23-.51.51v.3c0,.28.23.51.51.51h.89c.28,0,.51.07.51.16s.05.27.11.41c.06.14.62.25.9.25h.63c.28,0,.62-.05.76-.11.14-.06.25-.46.25-.55s.23-.16.51-.16h1.96c.28,0,.51.07.51.16s.05.27.11.41c.06.14.62.25.9.25h.63c.28,0,.62-.05.76-.11.14-.06.25-.46.25-.55s.23-.16.51-.16h1.96c.28,0,.51.07.51.16s.11.48.25.55"/>
      <path class="cls-7" d="M108.67,194.15h19.73c.31,0,.56.25.56.56v.2c0,.31-.25.56-.56.56h-19.73c-.31,0-.56-.25-.56-.56v-.2c0-.31.25-.56.56-.56Z"/>
      <rect class="cls-5" x="133.79" y="159.85" width="16.13" height="9.1"/>
      <path class="cls-17" d="M136.43,162.44c-.56.56-1.41.66-2.08.3v3.23c.26-.15.56-.23.85-.23.45,0,.9.17,1.25.52.21.21.37.48.45.76l-.29.62s0-.09,0-.14c0-.38-.15-.73-.41-1-.51-.5-1.29-.54-1.85-.12v-6.01,1.95c.55.41,1.33.36,1.83-.14.27-.27.41-.62.41-1,0-.3-.09-.58-.27-.82h.4c.13.25.21.53.21.82,0,.47-.18.91-.52,1.25"/>
      <path class="cls-17" d="M149.34,162.72c-.67.38-1.54.29-2.11-.28-.33-.33-.52-.78-.52-1.25,0-.29.08-.57.21-.82h.4c-.17.24-.27.52-.27.82,0,.38.15.73.41,1,.51.51,1.31.54,1.86.11v-1.93h.01v5.49h-.01v-3.14Z"/>
      <path class="cls-17" d="M144.27,168.36h2.7c-.15-.26-.23-.55-.23-.86,0-.16.02-.32.07-.47.2.41.29.87.24,1.33h-2.77,0"/>
      <polygon class="cls-17" points="136.6 167.64 136.6 167.64 136.89 167.02 136.6 167.64"/>
      <path class="cls-17" d="M136.31,168.36c.16-.21.27-.46.29-.72l.29-.63c.04.16.07.32.07.49,0,.31-.09.6-.23.86h1.97-2.43.04Z"/>
      <path class="cls-17" d="M146.8,167.03c.08-.29.23-.55.45-.77.34-.34.79-.52,1.25-.52.29,0,.58.08.85.23v-.1h.01v2.5h-.01v-1.99c-.55-.42-1.34-.38-1.85.12-.27.27-.41.62-.41,1,0,.32.11.61.3.86h-.35c.05-.46-.03-.93-.24-1.33"/>
      <polygon class="cls-13" points="134.35 160.37 136.33 160.37 136.33 160.37 134.35 160.37 134.35 160.37"/>
      <path class="cls-13" d="M136.18,162.19c-.5.5-1.28.54-1.84.14v-1.95h1.98c.17.24.27.52.27.82,0,.38-.15.73-.41,1"/>
      <path class="cls-13" d="M136.2,166.5c.27.27.41.62.41,1,0,.05,0,.09,0,.14l-.33.72h-1.92v-1.99h0c.55-.42,1.34-.38,1.85.12"/>
      <path class="cls-13" d="M147.5,166.5c.5-.5,1.29-.54,1.85-.12v1.99h-1.96c-.19-.25-.3-.55-.3-.86,0-.38.15-.73.41-1"/>
      <polyline class="cls-13" points="147.34 160.37 149.34 160.37 149.34 160.37 147.33 160.37 147.34 160.37"/>
      <path class="cls-13" d="M147.48,162.19c-.27-.27-.41-.62-.41-1,0-.3.1-.58.27-.82h2.01v1.93c-.55.43-1.35.39-1.86-.11"/>
      <polyline class="cls-13" points="136.31 160.36 147.36 160.36 147.35 160.37 136.31 160.37 136.31 160.36"/>
      <path class="cls-13" d="M149.36,165.87h0s-.01-.01-.01-.01v-3.14c-.67.38-1.54.29-2.11-.28-.33-.33-.52-.78-.52-1.25,0-.29.08-.57.21-.82h-10.19c.13.25.21.53.21.82,0,.47-.18.91-.51,1.25-.56.56-1.41.66-2.08.3v3.23c.26-.15.56-.23.85-.23.45,0,.9.17,1.25.52.21.22.37.48.45.76.04.16.07.32.07.49,0,.31-.08.6-.23.86h10.24c-.15-.26-.23-.55-.23-.86,0-.16.02-.32.06-.47.08-.29.23-.56.45-.77.34-.34.79-.52,1.25-.52.29,0,.58.08.85.23v-.1h.01Z"/>
      <path class="cls-5" d="M145.67,164.37c0,2.03-1.65,3.68-3.68,3.68s-3.68-1.65-3.68-3.68,1.65-3.68,3.68-3.68,3.68,1.65,3.68,3.68"/>
      <path class="cls-13" d="M143.72,166.35c-.13.23-.31.42-.56.57-.25.15-.54.24-.88.26v.64h-.43v-.64c-.48-.04-.87-.2-1.17-.46-.3-.27-.45-.61-.46-1.02h.77c.02.22.1.42.25.58.15.16.35.27.61.31v-1.98c-.35-.09-.64-.18-.85-.28-.22-.1-.4-.24-.55-.44-.15-.2-.23-.47-.23-.81,0-.43.15-.78.45-1.06.3-.28.69-.43,1.19-.47v-.66h.43v.66c.45.04.81.18,1.08.43.28.25.43.58.48.98h-.77c-.03-.18-.11-.35-.25-.5-.14-.15-.32-.25-.55-.3v1.93c.35.09.63.18.85.27.22.09.4.24.55.44.15.2.23.47.23.82,0,.25-.06.49-.19.72M141.18,163.64c.15.14.38.25.67.34v-1.83c-.27.03-.49.11-.66.26-.16.15-.25.36-.25.63s.08.46.23.59M142.95,166.29c.16-.17.24-.38.24-.62,0-.26-.08-.46-.24-.6-.16-.14-.38-.25-.67-.34v1.87c.29-.03.51-.13.67-.31"/>
      <rect class="cls-5" x="140.58" y="160.71" width="9.1" height="16.13" transform="translate(-67.59 234.31) rotate(-66.43)"/>
      <path class="cls-17" d="M140.94,164.8c-.74.29-1.56.04-2.03-.56l-1.29,2.96c.3-.03.6.01.87.13.42.18.76.52.94.97.11.28.15.58.11.88l-.51.46s.04-.08.06-.12c.15-.35.16-.73.02-1.08-.26-.66-.97-1.01-1.64-.85l2.4-5.5-.78,1.79c.34.59,1.08.87,1.74.61.35-.14.63-.4.78-.75.12-.27.15-.57.08-.86l.37.16c.02.28-.02.57-.14.83-.19.43-.53.76-.97.94"/>
      <path class="cls-17" d="M152.67,170.23c-.77.08-1.53-.35-1.82-1.1-.17-.44-.16-.92.02-1.35.12-.27.3-.49.52-.67l.37.16c-.25.15-.45.37-.57.64-.15.35-.16.73-.02,1.08.26.67.98,1.02,1.66.85l.77-1.77h.01s-2.2,5.04-2.2,5.04h0s1.26-2.89,1.26-2.89Z"/>
      <path class="cls-17" d="M145.76,173.37l2.47,1.08c-.03-.3,0-.6.13-.88.06-.15.15-.28.25-.41.02.46-.08.91-.32,1.32l-2.54-1.11h0"/>
      <polygon class="cls-17" points="139.02 169.64 139.02 169.64 139.53 169.19 139.02 169.64"/>
      <path class="cls-17" d="M138.46,170.19c.23-.13.43-.31.56-.54l.51-.46c-.02.16-.07.32-.13.47-.12.28-.32.52-.56.7l1.81.79-2.22-.97.04.02Z"/>
      <path class="cls-17" d="M148.61,173.16c.19-.23.43-.42.72-.53.45-.18.93-.15,1.35.03.27.12.5.31.69.55l.04-.09h0s-1,2.29-1,2.29h-.01s.79-1.82.79-1.82c-.34-.61-1.08-.89-1.74-.63-.35.14-.63.4-.78.75-.13.29-.15.61-.07.91l-.32-.14c.23-.4.34-.86.32-1.32"/>
      <polygon class="cls-13" points="139.86 162.07 141.67 162.86 141.68 162.87 139.86 162.08 139.86 162.07"/>
      <path class="cls-13" d="M140.81,164.48c-.66.26-1.39-.02-1.74-.61l.78-1.79,1.82.79c.06.29.03.58-.08.86-.15.35-.43.61-.78.75"/>
      <path class="cls-13" d="M139.1,168.44c.14.35.13.74-.02,1.08-.02.04-.04.08-.06.12l-.59.53-1.76-.77.79-1.82c.68-.16,1.38.19,1.65.85"/>
      <path class="cls-13" d="M149.46,172.95c.66-.26,1.4.02,1.74.63l-.79,1.82-1.8-.78c-.08-.3-.06-.62.07-.91.15-.35.43-.61.78-.75"/>
      <polyline class="cls-13" points="151.77 167.27 153.61 168.07 153.6 168.08 151.76 167.27 151.77 167.27"/>
      <path class="cls-13" d="M151.17,169c-.14-.35-.13-.74.02-1.08.12-.27.32-.49.57-.64l1.84.8-.77,1.77c-.68.17-1.4-.18-1.66-.85"/>
      <polyline class="cls-13" points="141.66 162.86 151.79 167.27 151.78 167.28 141.66 162.87 141.66 162.86"/>
      <path class="cls-13" d="M151.42,173.12h0s0-.02,0-.02l1.26-2.88c-.77.08-1.53-.35-1.82-1.1-.17-.44-.16-.92.02-1.35.12-.27.3-.49.52-.67l-9.34-4.08c.02.28-.02.57-.14.83-.19.43-.53.76-.97.94-.74.29-1.56.04-2.03-.56l-1.29,2.96c.3-.03.6.01.87.13.42.18.76.52.94.97.11.28.15.58.11.88-.02.16-.07.32-.13.47-.12.28-.32.52-.56.7l1.81.79.32.14,2.95,1.29,1.3.57.54.23,2.47,1.08c-.03-.3,0-.6.13-.88.07-.15.15-.29.25-.41.19-.23.43-.42.72-.53.45-.18.93-.15,1.35.03.27.12.5.31.69.55l.04-.09h0Z"/>
      <path class="cls-5" d="M148.64,170.27c-.81,1.86-2.98,2.71-4.84,1.9-1.86-.81-2.71-2.98-1.9-4.84.81-1.86,2.98-2.71,4.84-1.9s2.71,2.98,1.9,4.84"/>
      <path class="cls-13" d="M146.06,171.31c-.21.16-.45.26-.74.3-.29.04-.59,0-.91-.11l-.26.59-.39-.17.26-.59c-.42-.23-.72-.53-.89-.89-.17-.36-.17-.74-.01-1.12l.7.31c-.07.21-.07.42,0,.63.07.21.21.38.44.53l.79-1.81c-.29-.22-.51-.42-.67-.6-.16-.17-.27-.38-.33-.63-.06-.24-.02-.52.11-.83.17-.39.45-.66.83-.79.39-.14.81-.12,1.28.05l.26-.6.39.17-.26.6c.4.21.67.49.82.83.15.34.17.7.04,1.08l-.7-.31c.05-.18.04-.37-.02-.56-.07-.19-.19-.36-.38-.49l-.77,1.77c.28.22.51.42.67.59s.27.38.33.62c.06.24.02.52-.12.84-.1.23-.26.43-.46.59M144.82,167.81c.08.19.25.38.48.58l.73-1.67c-.26-.08-.5-.09-.71-.02-.21.07-.37.23-.48.48-.1.24-.11.45-.03.64M145.38,170.94c.22-.09.37-.25.47-.48.1-.24.11-.45.02-.64-.09-.19-.25-.38-.48-.58l-.75,1.71c.27.08.52.08.74-.02"/>
      <path class="cls-5" d="M121.79,157.24h2.35l4.06.33,4.29-1.15s1.76-.8,3.5.98l2.15,1.98s.68,1.2-.95,1.3h3.02s1.2,0,1.2,2.08c0,0,.05,1.85-2.2,1.85h-5.08l-3.4,1.18-7.06-1.85-1.78-.05-.1-6.63Z"/>
      <path class="cls-12" d="M124.15,157.94l4.08.28,4.61-1.21s1.35-.17,2.3.7l2.15,1.94c.19.15.11.46-.13.5l-2.99.34s-.87.11-.84.46c0,0,.21.23.93.25h5.06s1.3-.05,1.3,1.2c0,0,.28,1.3-1.25,1.7h-5.46l-3.28.88-6.41-1.55s-.14-5.42-.07-5.48"/>
      <rect class="cls-7" x="121.47" y="157.12" width="3.84" height="7.36"/>
      <path class="cls-5" d="M164.68,185.67l-5.71-.03v.02l-4.16-.02c-.65,0-1.17.52-1.17,1.16v.02c0,.49.3.91.72,1.08h-1.24c-.65,0-1.17.51-1.17,1.16v.02c0,.38.18.71.46.93h-.06c-.64,0-1.17.52-1.17,1.16v.02c0,.65.52,1.17,1.16,1.17h1.45c-.56.09-1,.57-1,1.15,0,.65.52,1.17,1.16,1.17l4.97.02h.71s10.03.05,10.03.05l.05-7.16h-1.26c-.77-2.29-3.78-1.93-3.78-1.93"/>
      <path class="cls-8" d="M171.5,194.4l.03-6.47h-3.2s-.91-1.11-1.44-1.56c-.47-.4-1.01-.4-1.7-.4-.38,0-10.06-.02-10.06-.02-.51,0-.93.41-.93.92,0,.51.41.93.92.93l3.62.03v.33s-5.39-.04-5.39-.04c-.51,0-.93.41-.93.92,0,.51.41.93.92.94l5.39.04v.33s-6.18-.04-6.18-.04c-.51,0-.93.41-.93.92,0,.51.41.93.92.94l6.18.04v.33s-4.46-.03-4.46-.03c-.51,0-.93.41-.93.92,0,.51.41.93.92.93l6.42.04h10.84Z"/>
      <rect class="cls-14" x="147.02" y="181.35" width="16.64" height="12.5" transform="translate(-33.02 342.03) rotate(-89.72)"/>
      <rect class="cls-5" x="147.59" y="182.02" width="15.45" height="11.23" transform="translate(-33.08 342.03) rotate(-89.72)"/>
      <path class="cls-6" d="M155.09,189.46l4.82.02c.15,0,.27-.12.27-.27v-.1c0-.15-.12-.27-.26-.27l-4.82-.02c-.15,0-.27.12-.27.27v.1c0,.15.12.27.27.27"/>
      <path class="cls-6" d="M155.26,183.41l4.65.02c.15,0,.27-.12.27-.27v-.1c0-.15-.12-.27-.26-.27l-4.65-.02c-.15,0-.27.12-.27.27v.1c0,.15.12.27.27.27"/>
      <path class="cls-6" d="M155.24,184.81l4.65.02c.15,0,.27-.12.27-.27v-.1c0-.15-.12-.27-.26-.27l-4.65-.02c-.15,0-.27.12-.27.27v.1c0,.15.12.27.27.27"/>
      <path class="cls-6" d="M155.09,190.82l4.82.02c.15,0,.27-.12.27-.27v-.1c0-.15-.12-.27-.26-.27l-4.82-.02c-.15,0-.27.12-.27.27v.1c0,.15.12.27.27.27"/>
      <path class="cls-6" d="M155.08,192.09l4.82.02c.15,0,.27-.12.27-.27v-.1c0-.15-.12-.27-.26-.27l-4.82-.02c-.15,0-.27.12-.27.27v.1c0,.15.12.27.27.27"/>
      <path class="cls-6" d="M156.81,193.39l3.1.02c.15,0,.27-.12.27-.27v-.1c0-.15-.12-.27-.27-.27l-3.1-.02c-.15,0-.27.12-.27.27v.1c0,.15.12.27.27.27"/>
      <path class="cls-6" d="M155.24,182.1h2.9c.15.02.27-.1.27-.25v-.1c0-.15-.12-.27-.27-.27h-2.9c-.15-.01-.27.1-.27.25v.1c0,.15.12.27.27.27"/>
      <path class="cls-14" d="M155.42,187.71l4.01.02c.4,0,.73-.32.73-.72v-.27c0-.4-.32-.73-.72-.73l-4.01-.02c-.4,0-.73.32-.73.72v.27c0,.4.32.73.72.73"/>
      <path class="cls-14" d="M151.42,187.69h1.57c.4.01.73-.31.73-.71v-.27c0-.4-.32-.73-.72-.73h-1.57c-.4,0-.73.31-.73.72v.27c0,.4.32.73.72.73"/>
      <path class="cls-20" d="M164.2,190.94h-4.2c-.46,0-1-.52-1-1.22,0-.43.32-1.03,1.02-1.03h3.47s1.25-2.55,1.25-2.55c1.13,0,1.34.02,2.1.52.44.29,1.41,1.46,1.41,1.46l3.28.04-.03,6.25-3.63-.02-3.67-3.44Z"/>
      <path class="cls-5" d="M171.5,194.21v.2s-3.67-.02-3.67-.02l-3.67-3.44h-4.16c-.26,0-.54-.15-.75-.39-.23-.25-.36-.59-.35-.93h0c0-.47.35-1.13,1.12-1.13h3.47s0,.21,0,.21h-3.47c-.63,0-.92.54-.92.92h0c0,.3.11.58.3.8.17.19.4.31.6.31h4.24s3.67,3.45,3.67,3.45l3.59.02Z"/>
      <rect class="cls-7" x="167.6" y="189.16" width="7.82" height="3.6" transform="translate(-20.26 361.56) rotate(-89.73)"/>
      <path class="cls-6" d="M155.78,189.72c-.21.38-.52.7-.94.96-.41.26-.9.4-1.48.44v1.07h-.72v-1.07c-.81-.07-1.46-.33-1.96-.78-.5-.45-.76-1.02-.77-1.71h1.29c.04.37.18.69.42.97.24.28.58.45,1.03.52v-3.32c-.59-.15-1.07-.3-1.43-.46-.36-.16-.67-.41-.93-.74-.26-.34-.38-.79-.38-1.35,0-.72.25-1.31.75-1.78.5-.47,1.17-.73,2-.78v-1.1h.72v1.1c.75.06,1.36.3,1.82.72.46.42.72.97.8,1.64h-1.29c-.04-.31-.18-.59-.41-.84s-.54-.42-.91-.5v3.24c.58.15,1.06.3,1.43.46.37.16.68.4.93.74.25.34.38.79.38,1.37,0,.42-.11.83-.32,1.21M151.52,185.17c.26.23.63.42,1.13.57v-3.06c-.46.05-.83.19-1.1.44-.27.25-.41.6-.41,1.06s.13.76.38,1M154.49,189.62c.27-.29.4-.64.4-1.05,0-.43-.13-.77-.4-1-.27-.23-.64-.42-1.13-.56v3.13c.48-.05.85-.22,1.12-.52"/>
    </g>
    <g>
      <path class="cls-6" d="M102.84,198.78h1.14v8.37h-1.14v-8.37Z"/>
      <path class="cls-6" d="M108.37,202.59c-.25.09-.46.21-.62.38s-.29.37-.38.63-.13.51-.13.76.04.5.13.76.21.46.38.63.37.29.62.38.5.13.75.13h4.61v.93h-4.61c-.51,0-.98-.13-1.41-.38-.43-.25-.77-.59-1.03-1.03-.25-.43-.38-.9-.38-1.41s.12-.98.38-1.41c.25-.43.6-.78,1.03-1.03.43-.25.9-.38,1.41-.38h4.61v.93h-4.61c-.25,0-.5.04-.75.13Z"/>
      <path class="cls-6" d="M119.86,201.52c.5-.02.94.02,1.32.14s.68.28.92.49.42.43.56.66.23.45.29.66.1.38.11.53.02.21.02.19v.33c0,.24-.06.52-.18.83s-.3.61-.55.89-.57.51-.97.69-.85.25-1.38.22h-1.05c-.52.03-.98-.05-1.38-.22s-.72-.4-.97-.69-.43-.58-.55-.89-.18-.59-.18-.83v-.33s0-.04.02-.19.05-.33.11-.53.16-.42.29-.66.32-.46.56-.66.55-.37.92-.49.81-.16,1.32-.14h.76ZM120.22,206.21c.7,0,1.19-.17,1.47-.51s.45-.7.49-1.09v-.16s.01-.26.01-.26v-.18c-.05-.37-.22-.72-.5-1.06s-.77-.51-1.48-.51h-1.49c-.7,0-1.2.17-1.48.51s-.44.7-.48,1.06l-.02.18v.25l.02.18c.04.39.2.75.49,1.09s.78.51,1.47.51h1.49Z"/>
      <path class="cls-6" d="M132.19,202.85c.25.44.38.92.38,1.44v2.87h-.94v-2.87c0-.26-.04-.52-.13-.77s-.21-.47-.38-.64c-.16-.17-.36-.3-.61-.39s-.49-.13-.74-.13h-1.78c-.48,0-1.1,0-1.86,0,0-.22,0-.01,0,.62s0,1.06,0,1.25v2.94h-.94v-5.74h4.58c.5,0,.97.13,1.4.38.43.26.77.61,1.03,1.05Z"/>
      <path class="cls-6" d="M138.71,201.52c.5-.02.94.02,1.32.14s.68.28.92.49.42.43.56.66.23.45.29.66.1.38.11.53.02.21.02.19v.33c0,.24-.06.52-.18.83s-.3.61-.55.89-.57.51-.97.69-.85.25-1.38.22h-1.05c-.52.03-.98-.05-1.38-.22s-.72-.4-.97-.69-.43-.58-.55-.89-.18-.59-.18-.83v-.33s0-.04.02-.19.05-.33.11-.53.16-.42.29-.66.32-.46.56-.66.55-.37.92-.49.81-.16,1.32-.14h.76ZM139.08,206.21c.7,0,1.19-.17,1.47-.51s.45-.7.49-1.09v-.16s.01-.26.01-.26v-.18c-.05-.37-.22-.72-.5-1.06s-.77-.51-1.48-.51h-1.49c-.7,0-1.2.17-1.48.51s-.44.7-.48,1.06l-.02.18v.25l.02.18c.04.39.2.75.49,1.09s.78.51,1.47.51h1.49Z"/>
      <path class="cls-6" d="M154.13,202.84c.23.4.35.9.35,1.49,0-.09,0-.07,0,.06h0v.66c0,.55-.11.98-.32,1.28s-.46.5-.76.61-.61.16-.93.17-.57.02-.73.02h-3.01c-.47,0-.87-.17-1.2-.52s-.5-.76-.5-1.24.17-.9.5-1.25c.33-.35.73-.52,1.2-.52h4.61c0-.07-.02-.13-.04-.19s-.04-.11-.05-.13c-.09-.18-.21-.34-.38-.48s-.34-.26-.54-.34c-.2-.08-.41-.12-.62-.12h-4.44v-.9c0-.08,0-.1,0-.08h4.44c.51,0,.99.13,1.43.4.21.12.39.27.55.45s.3.38.44.62ZM153.47,205.18c0-.08,0-.28-.01-.59h-4.83c-.17,0-.32.08-.45.23-.12.16-.18.34-.18.56s.06.4.18.56c.12.15.27.23.45.23h3.13c.36,0,.64,0,.85-.02s.38-.07.5-.16c.13-.09.22-.21.27-.34s.08-.29.09-.47Z"/>
      <path class="cls-6" d="M157.56,209.22h-.91c0,.05,0,0,0-.16v-5.33c0-.35.13-.69.4-1.02s.59-.6.98-.81.75-.31,1.08-.31h1.71c.53-.02.99.05,1.39.22s.72.39.97.67.44.57.56.88.18.58.18.82v.32s0,.04-.02.18-.05.32-.11.52-.16.42-.3.65-.33.45-.57.65-.55.36-.92.48-.82.16-1.32.14h-3.11v2.1ZM157.56,206.2h3.47c.57,0,1-.12,1.29-.35s.48-.47.57-.73.13-.46.13-.62v-.28c0-.19-.04-.42-.13-.68s-.28-.5-.57-.73-.72-.33-1.27-.33h-1.88c-.24,0-.49.07-.74.22s-.46.34-.62.56-.24.45-.24.66v2.26Z"/>
      <path class="cls-6" d="M166.97,209.22h-.91c0,.05,0,0,0-.16v-5.33c0-.35.13-.69.4-1.02s.59-.6.98-.81.75-.31,1.08-.31h1.71c.53-.02.99.05,1.39.22s.72.39.97.67.44.57.56.88.18.58.18.82v.32s0,.04-.02.18-.05.32-.11.52-.16.42-.3.65-.33.45-.57.65-.55.36-.92.48-.82.16-1.32.14h-3.11v2.1ZM166.97,206.2h3.47c.57,0,1-.12,1.29-.35s.48-.47.57-.73.13-.46.13-.62v-.28c0-.19-.04-.42-.13-.68s-.28-.5-.57-.73-.72-.33-1.27-.33h-1.88c-.24,0-.49.07-.74.22s-.46.34-.62.56-.24.45-.24.66v2.26Z"/>
    </g>
    <g>
      <path class="cls-10" d="M40.5,27.29c.14.02.36.08.68.19.31.11.68.32,1.09.63.41.31.77.78,1.08,1.4.31.62.46,1.41.46,2.36s-.18,1.67-.54,2.27c-.36.6-.79,1.06-1.29,1.35-.5.29-.97.47-1.42.53h-7.62v-8.73h7.57ZM40.44,34.84c.23-.04.52-.14.84-.3.32-.16.63-.46.92-.9.29-.43.43-1.03.43-1.78,0-.88-.15-1.57-.45-2.07-.3-.5-.62-.84-.95-1.01-.33-.18-.61-.28-.84-.32h-6.28v6.38h6.33Z"/>
      <rect class="cls-10" x="44.63" y="27.3" width="1.19" height="8.7"/>
      <path class="cls-10" d="M52.3,29.68c.77-.01,1.46-.13,2.06-.34.61-.22,1.08-.43,1.4-.65.33-.22.55-.38.66-.49l.96-.91v8.75h-1.14v-6.32c-.5.3-1.08.55-1.75.76-.66.21-1.39.32-2.18.33-.83,0-1.61-.1-2.33-.32-.72-.22-1.36-.49-1.92-.82v6.36h-1.14v-8.75l1,.87c.14.13.39.3.75.53.36.23.86.45,1.51.68.64.23,1.35.33,2.11.32"/>
      <rect class="cls-9" x="59.08" y="30.99" width="2.29" height="1.16"/>
      <g>
        <path class="cls-18" d="M72.92,27.21v1.19h-6.39c-.25,0-.53.08-.84.23s-.63.39-.93.71c-.22.23-.41.53-.57.9-.16.37-.25.83-.25,1.37,0,.36.06.72.17,1.06s.28.67.49.97c.19.27.44.53.75.78.31.26.7.39,1.17.4h6.39v1.19h-6.39c-.71,0-1.37-.2-1.97-.59-.6-.4-1.08-.93-1.43-1.61-.35-.67-.52-1.41-.52-2.21s.17-1.53.52-2.21c.35-.67.83-1.21,1.43-1.6.6-.4,1.26-.59,1.97-.59h6.39Z"/>
        <path class="cls-18" d="M77.89,30.12c.53-.02.99.02,1.38.15.39.12.71.29.96.51.25.22.44.45.58.69.14.25.24.48.31.69.06.21.1.4.12.55.02.16.02.22.02.2v.35c0,.25-.06.54-.19.87-.12.33-.32.64-.58.93-.26.3-.6.54-1.01.72s-.89.26-1.44.23h-1.1c-.55.03-1.03-.05-1.44-.23s-.75-.42-1.01-.72c-.26-.3-.45-.61-.58-.93-.12-.32-.19-.61-.19-.87v-.35s0-.04.02-.2c.02-.16.06-.34.12-.55.06-.21.17-.44.31-.69s.34-.48.59-.69c.25-.22.57-.39.96-.51.39-.12.85-.17,1.38-.15h.8ZM78.27,35.03c.73,0,1.25-.18,1.54-.53.3-.35.47-.73.51-1.14v-.17s.01-.28.01-.28v-.18c-.06-.38-.23-.75-.52-1.11s-.81-.54-1.54-.54h-1.56c-.74,0-1.25.18-1.54.54-.29.36-.46.73-.5,1.11l-.02.18v.26l.02.18c.04.4.21.78.51,1.14.3.35.81.53,1.54.53h1.56Z"/>
        <path class="cls-18" d="M89.38,31.52c.26.46.39.96.39,1.51v3h-.99v-3c0-.27-.05-.54-.14-.81-.09-.27-.22-.49-.4-.67-.17-.18-.38-.31-.64-.41-.26-.09-.52-.14-.77-.14h-1.86c-.5,0-1.15,0-1.95,0,0-.23,0-.02,0,.65s0,1.1,0,1.31v3.07h-.99v-6.01h4.79c.52,0,1.01.13,1.47.4.45.27.81.64,1.07,1.1Z"/>
        <path class="cls-18" d="M92.88,31.35c-.22.12-.37.28-.46.47-.09.19-.14.37-.15.53-.01.17-.02.4-.02.69v.56h4.8v1h-4.8v4.04h-1v-4.3c0-.3,0-.7,0-1.2s0-.7,0-.61c0-.2,0-.38.02-.52s.06-.3.15-.49c.09-.19.22-.37.42-.56.22-.22.43-.39.64-.5.21-.12.41-.19.61-.22.2-.03.43-.05.69-.05h3.95s0,.99,0,.99h-3.96c-.38,0-.67.06-.89.18Z"/>
        <path class="cls-18" d="M100.3,27.24v1.04h-1.04v-1.04h1.04ZM100.3,29.66v6.35h-1.04v-6.35h1.04Z"/>
        <path class="cls-18" d="M107.78,31.01h-3.35c-.17,0-.36,0-.57,0s-.41.03-.59.08c-.18.05-.34.15-.48.28-.13.13-.23.29-.29.47-.06.18-.09.34-.09.47,0,.13,0,.37,0,.71v2.92c0,.05-.02.08-.07.08h-.83s-.07-.03-.07-.08v-3.01c0-.12,0-.34,0-.64s.06-.61.18-.92c.12-.31.33-.58.63-.82.19-.15.4-.26.62-.34.22-.08.43-.13.64-.16.2-.03.39-.04.56-.04h3.7v.99Z"/>
        <path class="cls-18" d="M119.93,31.77c.11.22.19.43.23.62s.07.42.08.7v2.92h-.96v-3.02c0-.17-.03-.33-.08-.48-.05-.16-.11-.29-.17-.4-.07-.11-.16-.25-.28-.39-.13-.15-.29-.27-.48-.36-.19-.09-.37-.15-.55-.18-.18-.03-.41-.05-.7-.06h-2.15c0,.64,0,1.28,0,1.92v2.97h-.96v-3c0-.18-.02-.35-.07-.5s-.1-.29-.15-.39c-.06-.11-.14-.22-.25-.35-.15-.16-.32-.29-.52-.39s-.38-.16-.55-.19c-.18-.03-.4-.05-.66-.06-1.1,0-1.83,0-2.2,0,0,.38,0,1.6,0,3.67v1.22h-.96v-5.84h8.48c.3-.02.58,0,.84.06.26.05.49.13.68.22s.36.19.49.29c.13.1.27.23.43.39.18.2.33.42.44.64Z"/>
        <path class="cls-18" d="M122.21,27.24v1.04h-1.04v-1.04h1.04ZM122.21,29.66v6.35h-1.04v-6.35h1.04Z"/>
        <path class="cls-18" d="M130.49,31.52c.26.46.39.96.39,1.51v3h-.99v-3c0-.27-.05-.54-.14-.81s-.22-.49-.4-.67c-.17-.18-.38-.31-.64-.41-.26-.09-.51-.14-.77-.14h-1.86c-.5,0-1.15,0-1.95,0,0-.23,0-.02,0,.65,0,.67,0,1.1,0,1.31v3.07h-.99v-6.01h4.79c.52,0,1.01.13,1.47.4.45.27.81.64,1.07,1.1Z"/>
        <path class="cls-18" d="M138.4,30.43c.26.14.47.35.63.61.16.26.25.57.25.92v3.18c-.02.51-.14.98-.36,1.42-.22.44-.52.79-.9,1.06-.38.27-.82.42-1.33.45h-4.83v-.94h4.7c.3,0,.6-.09.9-.27.3-.18.53-.45.68-.8l.03-.08h-3.58c-.58,0-1.09-.14-1.53-.42-.44-.28-.77-.64-1-1.07-.23-.43-.35-.87-.35-1.32v-.21c0-.42.12-.84.36-1.27.24-.43.57-.78,1-1.06.43-.28.91-.42,1.45-.42h3.07c.27,0,.54.07.8.21ZM138.33,35.03v-3.18c0-.17-.06-.33-.18-.47-.12-.15-.28-.22-.47-.22h-2.98c-.5,0-.9.09-1.21.27-.3.18-.52.41-.64.68-.12.27-.19.56-.19.86v.23c0,.39.09.72.26,1,.17.28.4.48.67.62.28.14.56.21.86.21h3.87Z"/>
        <path class="cls-18" d="M156.55,27.21l-4.57,8.79c-.92-1.46-1.6-2.51-2.05-3.14-.45-.63-.74-1.01-.86-1.15-.13.13-.42.52-.86,1.15-.45.63-1.13,1.68-2.05,3.14l-4.57-8.79h1.34l3.46,6.65c.69-1.12,1.23-1.98,1.63-2.57s.75-1.08,1.07-1.45c.31.37.67.86,1.07,1.45s.94,1.46,1.63,2.57l3.46-6.65h1.33Z"/>
        <path class="cls-18" d="M163.91,30.46c.29.23.48.49.57.77s.14.53.15.74c0,1.05-.58,1.6-1.76,1.66h-4.67s0,.25,0,.25c0,.27.02.49.07.64.05.16.13.27.25.34.11.07.27.12.46.15.19.02.47.04.82.04h4.36c.13,0,.19.06.19.18v.59c0,.13-.06.19-.19.19h-4.51c-.63,0-1.12-.07-1.48-.21s-.62-.36-.77-.67-.23-.72-.23-1.24v-1.5c0-.35.13-.7.4-1.05s.61-.65,1.02-.88c.42-.23.84-.35,1.28-.35h2.84c.52,0,.92.12,1.21.35ZM163.23,32.59c.09-.03.17-.09.26-.19.06-.07.11-.15.13-.24s.04-.21.05-.37c0-.07-.02-.16-.06-.27-.04-.11-.11-.21-.22-.3-.11-.09-.26-.14-.45-.14h-3.1c-.22,0-.46.07-.72.21s-.48.33-.65.56c-.18.24-.27.5-.27.79h4.61c.19,0,.33-.02.42-.05Z"/>
        <path class="cls-18" d="M166.66,30.19h0,3.26c.54-.03,1,.02,1.39.14.39.12.71.29.97.5.25.21.45.44.59.68.14.24.24.47.31.68s.11.4.12.55c.02.15.02.22.02.19v.34c0,.25-.06.54-.19.86-.13.32-.32.62-.59.92-.26.29-.6.53-1.02.71s-.9.25-1.46.23h-1.92c-.47,0-.85-.04-1.17-.12s-.56-.21-.75-.38c-.19-.17-.32-.4-.41-.67-.08-.28-.13-.61-.13-1v-5.67c0-.17,0-.23,0-.17h.96v2.21ZM166.66,33.52c0,.32.03.59.1.82s.18.39.35.51c.17.12.39.18.68.18h2.51c.58,0,1.03-.12,1.34-.35.31-.24.51-.49.6-.76.09-.27.14-.51.14-.71v-.29c0-.16-.04-.38-.13-.65-.09-.27-.29-.52-.59-.76s-.76-.36-1.35-.36h-3.64v2.37Z"/>
      </g>
    </g>
    <g>
      <g>
        <path class="cls-4" d="M107.64,21.82h-.28s0,0,0-.05v-1.65c-.01-.11.03-.21.11-.32.08-.1.18-.19.3-.25.12-.07.23-.1.33-.1h.53c.16-.01.31,0,.43.06.12.05.22.12.3.21s.14.18.17.27c.04.09.06.18.06.25v.1s0,.01,0,.06c0,.04-.02.1-.03.16-.02.06-.05.13-.09.2-.04.07-.1.14-.17.2-.07.06-.17.11-.28.15-.12.04-.25.05-.41.04h-.96s0,.66,0,.66ZM107.64,20.88h1.08c.18,0,.31-.04.4-.12.09-.07.15-.15.17-.23s.04-.14.04-.19v-.09c0-.06-.02-.13-.04-.21s-.09-.16-.18-.22c-.09-.07-.22-.1-.39-.1h-.58c-.08,0-.15.03-.23.08-.08.05-.14.1-.19.17s-.07.14-.07.2v.7Z"/>
        <path class="cls-4" d="M112.04,19.66h-.99s-.11,0-.17,0-.12,0-.17.03c-.05.02-.1.04-.14.08-.04.04-.07.08-.08.14-.02.06-.03.1-.03.14,0,.04,0,.11,0,.21v.87s0,.02-.02.02h-.25s-.02,0-.02-.02v-.89s0-.1,0-.19c0-.09.02-.18.05-.27s.1-.17.19-.24c.06-.04.12-.08.18-.1.07-.02.13-.04.19-.05.06,0,.12-.01.17-.01.05,0,.08,0,.1,0h.99s0,.29,0,.29Z"/>
        <path class="cls-4" d="M113.84,19.39c.16,0,.29,0,.41.04.12.04.21.08.29.15.07.06.13.13.17.2.04.07.07.14.09.2s.03.12.04.16c0,.05,0,.07,0,.06v.1c0,.08-.02.16-.05.26-.04.1-.09.19-.17.28-.08.09-.18.16-.3.21s-.26.08-.43.07h-.33c-.16.01-.3,0-.43-.06-.12-.05-.22-.12-.3-.21s-.14-.18-.17-.27c-.04-.1-.06-.18-.06-.26v-.1s0-.01,0-.06c0-.05.02-.1.03-.16.02-.06.05-.13.09-.21s.1-.14.17-.21.17-.12.28-.15c.11-.04.25-.05.41-.05h.24ZM113.97,20.84c.22,0,.37-.06.46-.16.09-.11.14-.22.15-.34v-.05s0-.08,0-.08v-.05c-.02-.11-.07-.22-.16-.33s-.24-.16-.46-.16h-.46c-.22,0-.37.06-.46.17-.09.11-.13.22-.15.33v.05s0,.08,0,.08v.05c.02.12.07.23.16.34.09.1.24.16.46.15h.46Z"/>
        <path class="cls-4" d="M117.41,18.72h.28s0,0,0,.05v1.68c.01.12,0,.22-.02.3-.02.08-.06.15-.12.2-.05.05-.13.09-.22.12-.09.02-.21.04-.35.04h-.57c-.16.01-.31,0-.43-.06-.12-.05-.23-.12-.31-.21s-.14-.18-.18-.27c-.04-.1-.06-.18-.06-.26v-.1s0-.01,0-.06c0-.05.02-.1.04-.16.02-.06.05-.13.09-.2.04-.07.1-.14.17-.2.07-.06.17-.11.29-.15.12-.04.25-.05.41-.05h.97s0-.66,0-.66ZM117.41,19.66h-1.08c-.18,0-.31.05-.4.12s-.15.15-.18.23c-.03.08-.04.14-.04.19v.08c0,.06.02.13.04.21.03.08.09.16.18.23s.22.1.4.1h.75c.09,0,.15-.02.2-.06.05-.04.08-.09.1-.15.02-.07.03-.15.03-.24v-.71Z"/>
        <path class="cls-4" d="M119.91,20.76c.08-.03.14-.07.19-.12.05-.05.09-.12.12-.2.03-.08.04-.16.04-.24v-.87s0-.02,0-.02h.29s0,.9,0,.9c0,.16-.04.31-.11.45-.08.14-.18.25-.32.33-.13.08-.28.12-.44.12h-.56c-.16,0-.3-.03-.44-.11-.14-.08-.24-.19-.32-.32-.08-.14-.12-.29-.12-.45v-.87s0-.02,0-.02h.29s0,0,0,.02v.87c0,.08.02.16.05.24.03.08.07.15.12.2.05.05.12.09.19.12.08.03.15.04.23.04h.56c.08,0,.15-.02.23-.05Z"/>
        <path class="cls-4" d="M121.68,19.67c-.08.03-.14.07-.19.12-.05.05-.09.12-.12.19s-.04.16-.04.24c0,.08.01.16.04.23.03.08.07.14.12.19.05.05.12.09.19.12.08.03.16.04.23.04h1.43s0,.28,0,.28h-1.43c-.16.01-.3-.03-.44-.1-.13-.08-.24-.18-.32-.32-.08-.13-.12-.28-.12-.44,0-.16.04-.31.11-.44.08-.13.18-.24.32-.32.13-.08.28-.12.44-.12h1.43s0,.28,0,.28h-1.43c-.08.01-.15.03-.23.05Z"/>
        <path class="cls-4" d="M125.38,20.76v.29s-.53,0-.53,0c-.16,0-.3-.04-.43-.11s-.24-.18-.32-.31c-.08-.13-.12-.27-.12-.43v-1.53s-.01-.02-.01-.02h.29s0,0,0,.02v.64s.68,0,.68,0c0,0,0,0,0,.02v.26s0,0-.02,0h-.65s0,.62,0,.62c0,.13.03.23.1.31.07.08.13.15.21.19.04.02.09.04.16.04.07,0,.13,0,.18,0h.46s.02,0,.02,0Z"/>
        <path class="cls-4" d="M127.23,19.29c.16,0,.29,0,.41.04.12.04.21.09.29.15s.13.13.17.2c.04.07.07.14.09.2s.03.12.04.16c0,.05,0,.07,0,.06v.1c0,.08-.02.16-.05.26s-.09.19-.17.28c-.08.09-.18.16-.3.22-.12.05-.26.08-.43.07h-.33c-.16.01-.3-.01-.43-.06-.12-.05-.22-.12-.3-.21-.08-.09-.14-.18-.17-.27-.04-.1-.06-.18-.06-.26v-.1s0-.01,0-.06c0-.05.02-.1.03-.17.02-.06.05-.13.09-.2.04-.07.1-.14.17-.21.07-.07.17-.12.28-.15.12-.04.25-.05.41-.04h.24ZM127.35,20.75c.22,0,.37-.05.46-.16s.14-.22.15-.34v-.05s0-.08,0-.08v-.05c-.02-.11-.07-.22-.16-.33-.09-.1-.24-.16-.46-.16h-.46c-.22,0-.37.06-.46.17-.09.11-.14.22-.15.33v.05s0,.08,0,.08v.05c.02.12.07.23.16.34.09.1.24.16.46.15h.46Z"/>
        <path class="cls-4" d="M130.66,20.01c.12,0,.22.04.31.11.09.07.13.21.14.41,0,.11-.03.2-.08.27-.05.07-.12.13-.2.16-.08.03-.16.05-.24.05h-1.78s0-.28,0-.28h1.77c.06-.01.12-.03.17-.05.05-.03.07-.09.07-.19,0-.06-.02-.11-.05-.14-.04-.03-.08-.04-.12-.05-.05,0-.07,0-.08,0h-1.29c-.07,0-.14-.01-.22-.05-.08-.04-.14-.09-.2-.18-.06-.08-.08-.19-.09-.32,0-.11.03-.21.09-.28.06-.07.13-.13.21-.16.08-.04.16-.06.23-.06h1.61s0,.28,0,.28h-1.59c-.07.01-.13.03-.18.05-.06.03-.08.1-.08.21,0,.09.03.15.08.18.05.03.1.04.15.04h1.38Z"/>
        <path class="cls-4" d="M134.75,19.23v1.52c0,.17-.04.33-.11.45-.09.16-.2.27-.32.34-.12.07-.27.11-.45.11h-1.24s-.02,0-.02-.01v-.25s0-.02.02-.02h1.24c.06,0,.12-.01.17-.02.05,0,.09-.03.13-.05.05-.04.1-.07.13-.1s.06-.06.08-.11l.04-.09h-1.13c-.13.01-.25-.01-.36-.07-.11-.05-.19-.11-.26-.18-.07-.07-.13-.15-.18-.26s-.08-.22-.08-.33v-.92s0-.02,0-.02h.3s0,0,0,.02v.94c0,.06.02.12.04.18.02.06.04.11.07.13.01.01.04.04.07.07.03.03.08.07.14.09.06.03.13.05.22.06h1.24s0-1.48,0-1.48c0-.02,0-.02.02-.02h.25s.02,0,.02.02Z"/>
        <path class="cls-4" d="M137.97,19.96c.12,0,.22.04.31.11.09.07.13.21.14.41,0,.11-.03.2-.08.27-.05.07-.12.13-.2.16-.08.03-.16.05-.24.06h-1.78s0-.28,0-.28h1.77c.06-.01.12-.03.17-.05s.07-.09.07-.19c0-.06-.02-.11-.05-.14-.04-.03-.08-.04-.12-.05s-.07,0-.09,0h-1.29c-.07,0-.14-.01-.22-.05-.08-.04-.14-.09-.2-.17-.06-.08-.08-.19-.09-.32,0-.11.03-.21.09-.28.06-.08.13-.13.21-.17s.16-.06.23-.06h1.61s0,.28,0,.28h-1.59c-.07.01-.13.03-.18.06-.06.03-.08.1-.08.21,0,.09.03.15.08.18.05.03.1.04.15.04h1.38Z"/>
        <path class="cls-4" d="M140.95,19.3c.08.07.14.14.17.23.03.08.04.16.04.22,0,.31-.17.48-.52.5h-1.38s0,.08,0,.08c0,.08,0,.14.02.19.01.05.04.08.07.1s.08.04.14.04c.06,0,.14,0,.24,0h1.29s.06,0,.06.05v.17s-.02.06-.05.06h-1.33c-.19.01-.33,0-.44-.05-.11-.04-.18-.11-.23-.2-.05-.09-.07-.21-.07-.37v-.44c0-.1.03-.21.11-.31.08-.1.18-.19.3-.26s.25-.1.38-.11h.84c.15,0,.27.03.36.09ZM140.76,19.93s.05-.03.08-.06c.02-.02.03-.04.04-.07s.01-.06.01-.11c0-.02,0-.05-.02-.08-.01-.03-.03-.06-.07-.09-.03-.03-.08-.04-.13-.04h-.92c-.07,0-.14.03-.21.07-.08.04-.14.1-.19.17-.05.07-.08.15-.08.23h1.37c.06,0,.1-.02.12-.02Z"/>
        <path class="cls-4" d="M143.67,19.44h-.99s-.11,0-.17,0-.12,0-.17.03c-.05.02-.1.04-.14.08-.04.04-.07.08-.08.14-.02.05-.02.1-.03.14,0,.04,0,.11,0,.21v.87s0,.02-.02.02h-.25s-.02,0-.02-.02v-.89s0-.1,0-.19c0-.09.02-.18.05-.27s.1-.17.19-.24c.06-.04.12-.08.18-.1.07-.02.13-.04.19-.05.06,0,.12-.01.17-.01h1.1s0,.29,0,.29Z"/>
        <path class="cls-4" d="M144.37,19.13l1.04,1.54h.04l1.02-1.56h.35s-1.02,1.55-1.02,1.55c-.08.13-.14.21-.16.24h-.41c-.05-.07-.1-.15-.16-.24l-1.04-1.54h.35Z"/>
        <path class="cls-4" d="M147.51,18.3v.31s-.31,0-.31,0v-.31s.31,0,.31,0ZM147.51,19.02v1.88s-.29,0-.29,0v-1.88s.29,0,.29,0Z"/>
        <path class="cls-4" d="M148.76,19.48c-.08.03-.14.07-.19.12s-.09.12-.12.2c-.03.08-.04.16-.04.23,0,.08.01.16.04.23.03.08.07.14.12.19s.12.09.19.12c.08.03.16.04.23.04h1.43s0,.28,0,.28h-1.43c-.16.01-.3-.03-.44-.11-.13-.08-.24-.18-.32-.32-.08-.13-.12-.28-.12-.44,0-.16.04-.3.11-.44.08-.13.18-.24.32-.32.13-.08.28-.12.44-.12h1.43s0,.28,0,.28h-1.43c-.08,0-.16.02-.23.05Z"/>
        <path class="cls-4" d="M151.33,18.27v.31s-.31,0-.31,0v-.31s.31,0,.31,0ZM151.34,18.99v1.88s-.3,0-.3,0v-1.88s.3,0,.3,0Z"/>
        <path class="cls-4" d="M153.22,19.11c.16,0,.29,0,.41.04s.21.09.29.15.13.13.17.2c.04.07.07.14.09.2.02.06.03.12.04.16s0,.07,0,.06v.1c0,.08-.02.16-.05.26s-.09.19-.17.28-.18.16-.3.21c-.12.05-.26.08-.43.07h-.33c-.16.01-.31-.01-.43-.06s-.22-.12-.3-.21c-.08-.09-.14-.18-.17-.27-.04-.1-.06-.18-.06-.26v-.1s0-.01,0-.06.02-.1.03-.17c.02-.06.05-.13.09-.2.04-.07.1-.14.17-.21.07-.07.17-.12.28-.15.11-.04.25-.05.41-.05h.24ZM153.34,20.57c.22,0,.37-.05.46-.16.09-.11.14-.22.15-.34v-.05s0-.08,0-.08v-.05c-.02-.11-.07-.22-.16-.33-.09-.1-.24-.16-.46-.16h-.46c-.22,0-.37.06-.46.17-.09.11-.13.22-.15.33v.05s0,.08,0,.08v.05c.02.12.07.23.16.34.09.1.24.16.46.15h.46Z"/>
        <path class="cls-4" d="M156.65,19.84c.12,0,.22.04.31.11.09.07.13.21.14.41,0,.11-.03.2-.08.27-.05.07-.12.13-.2.16-.08.03-.16.05-.24.05h-1.78s0-.28,0-.28h1.77c.06-.01.12-.03.17-.05s.08-.09.07-.19c0-.06-.02-.11-.05-.14-.04-.03-.08-.04-.12-.05s-.07,0-.08,0h-1.29c-.07,0-.14-.01-.22-.05-.08-.04-.14-.09-.2-.17-.06-.08-.08-.19-.08-.32,0-.11.03-.21.09-.28.06-.08.13-.13.21-.17.08-.04.16-.06.23-.06h1.61s0,.28,0,.28h-1.59c-.07.01-.13.03-.18.06-.06.03-.08.1-.08.21,0,.09.03.15.08.18.05.03.1.04.15.04h1.38Z"/>
      </g>
      <rect class="cls-1" x="169.04" y="18.12" width="4.16" height="1.32" transform="translate(-.13 1.19) rotate(-.4)"/>
      <rect class="cls-19" x="169.05" y="19.44" width="4.16" height=".66" transform="translate(-.13 1.19) rotate(-.4)"/>
      <rect class="cls-2" x="169.05" y="20.1" width="4.16" height=".66" transform="translate(-.14 1.19) rotate(-.4)"/>
      <rect class="cls-16" x="163.96" y="18.17" width="1.39" height="2.63" transform="translate(-.14 1.19) rotate(-.41)"/>
      <rect class="cls-16" x="166.73" y="18.15" width="1.39" height="2.63" transform="translate(-.14 1.21) rotate(-.41)"/>
      <rect class="cls-5" x="165.34" y="18.16" width="1.39" height="2.63" transform="translate(-.14 1.2) rotate(-.41)"/>
      <polyline class="cls-11" points="163.03 20.81 158.88 20.84 158.87 19.52 163.02 19.49"/>
      <rect class="cls-15" x="158.86" y="18.2" width="1.39" height="1.32" transform="translate(-.13 1.15) rotate(-.41)"/>
      <rect class="cls-5" x="160.25" y="18.18" width="2.77" height="1.32" transform="translate(-.13 1.11) rotate(-.39)"/>
      <polygon class="cls-5" points="159.22 18.76 159.48 18.76 159.55 18.53 159.63 18.76 159.88 18.75 159.68 18.89 159.76 19.12 159.55 18.98 159.35 19.13 159.43 18.9 159.22 18.76"/>
      <path class="cls-5" d="M14.84.27L.55,4.78l14.33,11.12,14.04-10.84L14.84.27ZM20.37,10.39l-3.12,2.39-2.66-1.71,2.04-1.67c.37-.33.47-.56.47-.56v-3.18c.03-.54-.73-.85-.73-.85-.94-.45-2.38-.43-2.38-.43-1.33-.02-3.8.92-3.8.92v2.95l-3.69-2.37c2.35-.95,3.42-1.2,3.42-1.2,2.33-.65,3.96-.69,3.96-.69,2.61-.14,4.69.58,4.69.58,2.08.57,2.94,1.3,2.94,1.3,1.72,1.29,1.33,2.61,1.33,2.61-.27.24-2.47,1.91-2.47,1.91"/>
      <polygon class="cls-10" points=".02 8.24 .02 4.69 14.92 16.03 29.45 4.96 29.45 8.22 14.87 21.46 .02 8.24"/>
      <path class="cls-10" d="M6.42,5.91l-2.39-1.48s3.15-1.23,5.77-1.73,3.58-.53,5.07-.47,4.37.63,6.26,1.55c1.89.93,2.29,1.89,2.4,2.42.12.53.09,1.75-.34,2.13l-.42.38s.31-.69-.13-1.56c-.44-.87-1.39-1.7-3.12-2.29-1.73-.59-3.27-.92-5.14-.89-1.87.03-3.56.44-4.87.82-1.3.38-3.09,1.11-3.09,1.11"/>
      <path class="cls-10" d="M10.2,5.37v2.94l4.29,2.83s.94-.73,1.6-1.28c.66-.54.94-.87,1.01-1.03v-3.24s.08.51-1.06,1.15c-1.13.64-1.49.85-1.49.85l-4.35-2.21Z"/>
      <path class="cls-10" d="M14.88,16.23L0,4.68,14.85,0h.04s14.57,4.97,14.57,4.97l-14.57,11.26ZM.55,4.78l14.34,11.12,14.04-10.84L14.84.27.55,4.78Z"/>
      <path class="cls-10" d="M17.27,13.09l-.08-.05L3.75,4.39l.24-.09s3.19-1.24,5.8-1.74c1.92-.37,3-.49,4.14-.49.27,0,.57,0,.95.02,1.62.06,4.5.68,6.31,1.57,1.43.7,2.26,1.54,2.47,2.51.12.56.1,1.82-.38,2.25l-.43.38-5.59,4.29ZM4.32,4.45l12.94,8.32,5.44-4.17.42-.38c.38-.34.41-1.51.3-2-.2-.89-.98-1.67-2.33-2.33-1.78-.87-4.61-1.48-6.2-1.54-.38-.01-.68-.02-.95-.02-.97,0-1.94.08-4.1.49-2.17.41-4.73,1.34-5.51,1.63"/>
      <path class="cls-10" d="M14.47,7.64l-4.29-2.19.04-.07-.03-.08c.1-.04,2.43-.93,3.82-.93h.03c1.46.01,2.38.36,2.77.69.36.3.41.63.16,1.02-.18.28-.7.67-1.43,1.05-.71.38-1.02.5-1.03.51h-.03ZM10.32,5.39l4.15,2.12c.09-.04.4-.18.99-.49.7-.37,1.21-.74,1.38-1,.21-.33.17-.6-.13-.85-.37-.31-1.27-.65-2.69-.66h-.03c-1.21,0-3.21.72-3.68.89"/>
      <path class="cls-10" d="M40.5,6.74c.14.02.36.08.68.19.31.11.68.32,1.09.63.41.31.77.78,1.08,1.4.31.62.46,1.41.46,2.36s-.18,1.67-.54,2.27c-.36.61-.79,1.06-1.29,1.35-.5.29-.97.47-1.42.53h-7.62V6.73h7.57ZM40.44,14.29c.23-.04.52-.14.84-.3.32-.16.63-.46.92-.9.29-.43.43-1.03.43-1.78,0-.88-.15-1.57-.45-2.07-.3-.5-.62-.84-.95-1.01-.33-.18-.61-.28-.84-.32h-6.28v6.38h6.33Z"/>
      <rect class="cls-10" x="44.63" y="6.75" width="1.19" height="8.7"/>
      <path class="cls-10" d="M52.3,9.12c.77-.01,1.46-.13,2.06-.34.61-.22,1.08-.43,1.4-.65.33-.22.55-.38.66-.49l.96-.91v8.75h-1.14v-6.32c-.5.3-1.08.55-1.75.76-.66.21-1.39.32-2.18.33-.83,0-1.61-.1-2.33-.32-.72-.22-1.36-.49-1.92-.82v6.36h-1.14V6.73l1,.86c.14.13.39.3.75.53.36.23.86.45,1.51.68.64.23,1.35.33,2.11.32"/>
      <rect class="cls-9" x="59.08" y="10.44" width="2.29" height="1.16"/>
      <g>
        <path class="cls-18" d="M72.92,6.66v1.19h-6.39c-.25,0-.53.08-.84.23s-.63.39-.93.71c-.22.23-.41.53-.57.9-.16.37-.25.83-.25,1.37,0,.36.06.72.17,1.06s.28.67.49.97c.19.27.44.53.75.78.31.26.7.39,1.17.4h6.39v1.19h-6.39c-.71,0-1.37-.2-1.97-.59-.6-.4-1.08-.93-1.43-1.61-.35-.67-.52-1.41-.52-2.21s.17-1.53.52-2.21c.35-.67.83-1.21,1.43-1.6.6-.4,1.26-.59,1.97-.59h6.39Z"/>
        <path class="cls-18" d="M77.88,9.57c.53-.02.99.02,1.38.15.39.12.71.29.96.51.25.22.44.45.58.69.14.25.24.48.31.69.06.21.1.4.12.55.02.16.02.22.02.2v.35c0,.25-.06.54-.19.87-.12.33-.32.64-.58.93-.26.3-.6.54-1.01.72s-.89.26-1.44.23h-1.1c-.55.03-1.03-.05-1.44-.23-.41-.18-.75-.42-1.01-.72-.26-.3-.45-.61-.58-.93-.12-.32-.19-.61-.19-.87v-.35s0-.04.02-.2.06-.34.12-.55c.06-.21.17-.44.31-.69.14-.25.34-.48.59-.69.25-.22.57-.39.96-.51.39-.12.85-.17,1.38-.15h.8ZM78.26,14.48c.73,0,1.25-.18,1.54-.53s.47-.73.51-1.14v-.17s.01-.28.01-.28v-.18c-.06-.38-.23-.75-.52-1.11-.29-.36-.81-.54-1.54-.54h-1.56c-.74,0-1.25.18-1.54.54-.29.36-.46.73-.5,1.11l-.02.18v.26l.02.18c.04.4.21.78.51,1.14.3.35.81.53,1.54.53h1.56Z"/>
        <path class="cls-18" d="M89.38,10.97c.26.46.39.96.39,1.51v3h-.99v-3c0-.27-.05-.54-.14-.81-.09-.27-.22-.49-.39-.67-.17-.18-.38-.31-.64-.41-.26-.09-.52-.14-.77-.14h-1.86c-.5,0-1.15,0-1.95,0,0-.23,0-.02,0,.65s0,1.1,0,1.31v3.07h-.99v-6.01h4.79c.52,0,1.01.13,1.46.4.45.27.81.64,1.07,1.1Z"/>
        <path class="cls-18" d="M92.88,10.79c-.22.12-.37.28-.46.47-.09.19-.14.37-.15.53-.01.17-.02.4-.02.69v.56h4.8v1h-4.8v4.04h-1v-4.3c0-.3,0-.7,0-1.2s0-.7,0-.61c0-.2,0-.38.02-.52s.06-.3.15-.49c.09-.19.22-.37.42-.56.22-.22.43-.39.64-.5.21-.12.41-.19.61-.22.2-.03.43-.05.69-.05h3.95s0,.99,0,.99h-3.95c-.38,0-.67.06-.89.18Z"/>
        <path class="cls-18" d="M100.3,6.69v1.04h-1.04v-1.04h1.04ZM100.3,9.11v6.35h-1.04v-6.35h1.04Z"/>
        <path class="cls-18" d="M107.78,10.46h-3.35c-.17,0-.36,0-.57,0-.21,0-.41.03-.58.08-.18.05-.34.15-.48.28-.13.13-.23.29-.29.47-.06.18-.09.34-.09.47s0,.37,0,.71v2.92c0,.05-.02.08-.07.08h-.83s-.07-.03-.07-.08v-3.01c0-.12,0-.34,0-.64,0-.3.06-.61.18-.92.12-.31.33-.58.63-.82.19-.15.4-.26.62-.34.22-.08.43-.13.64-.16.2-.03.39-.04.56-.04h3.7v.99Z"/>
        <path class="cls-18" d="M119.93,11.22c.11.22.19.43.23.62s.07.42.08.7v2.92h-.96v-3.02c0-.17-.03-.33-.08-.48-.05-.16-.11-.29-.17-.4s-.16-.25-.28-.39c-.13-.15-.29-.27-.48-.36-.19-.09-.37-.15-.55-.18-.18-.03-.41-.05-.7-.06h-2.15c0,.64,0,1.28,0,1.92v2.97h-.96v-3c0-.18-.02-.35-.07-.5s-.1-.29-.15-.39c-.06-.11-.14-.22-.25-.35-.15-.16-.32-.29-.52-.39s-.38-.16-.55-.19c-.18-.03-.4-.05-.66-.06-1.1,0-1.83,0-2.2,0,0,.38,0,1.6,0,3.67v1.22h-.96v-5.84h8.48c.3-.02.58,0,.84.06.26.05.49.13.68.22s.36.19.49.29c.13.1.27.23.43.39.18.2.33.42.44.64Z"/>
        <path class="cls-18" d="M122.21,6.69v1.04h-1.04v-1.04h1.04ZM122.21,9.11v6.35h-1.04v-6.35h1.04Z"/>
        <path class="cls-18" d="M130.49,10.97c.26.46.39.96.39,1.51v3h-.99v-3c0-.27-.05-.54-.14-.81s-.22-.49-.4-.67c-.17-.18-.38-.31-.64-.41-.26-.09-.51-.14-.77-.14h-1.86c-.5,0-1.15,0-1.95,0,0-.23,0-.02,0,.65,0,.67,0,1.1,0,1.31v3.07h-.99v-6.01h4.79c.52,0,1.01.13,1.47.4.45.27.81.64,1.07,1.1Z"/>
        <path class="cls-18" d="M138.4,9.88c.26.14.47.35.63.61.16.26.25.57.25.92v3.18c-.02.51-.14.98-.36,1.42-.22.44-.52.79-.9,1.06-.38.27-.82.42-1.33.45h-4.83v-.94h4.7c.3,0,.6-.09.9-.27.3-.18.53-.45.68-.8l.03-.08h-3.58c-.58,0-1.09-.14-1.53-.42-.44-.28-.77-.64-1-1.07-.23-.43-.35-.87-.35-1.32v-.21c0-.42.12-.84.36-1.27s.57-.78,1-1.06c.43-.28.91-.42,1.45-.42h3.07c.27,0,.54.07.8.21ZM138.33,14.48v-3.18c0-.17-.06-.33-.18-.47-.12-.15-.28-.22-.47-.22h-2.98c-.5,0-.9.09-1.2.27-.3.18-.52.41-.64.68-.12.27-.19.56-.19.86v.23c0,.39.09.72.26,1,.17.28.4.48.67.62.28.14.56.21.86.21h3.87Z"/>
        <path class="cls-18" d="M156.55,6.66l-4.57,8.79c-.92-1.46-1.6-2.51-2.05-3.14-.45-.63-.74-1.01-.86-1.15-.13.13-.42.52-.86,1.15-.45.63-1.13,1.68-2.05,3.14l-4.57-8.79h1.34l3.46,6.65c.69-1.12,1.23-1.98,1.63-2.57s.76-1.08,1.07-1.45c.31.37.67.86,1.07,1.45s.94,1.46,1.63,2.57l3.46-6.65h1.33Z"/>
        <path class="cls-18" d="M163.91,9.91c.29.23.48.49.57.77s.14.53.15.74c0,1.05-.58,1.6-1.76,1.66h-4.67s0,.25,0,.25c0,.27.02.49.07.64.05.16.13.27.25.34.11.07.27.12.46.15.19.02.47.04.82.04h4.36c.13,0,.19.06.19.18v.59c0,.13-.06.19-.19.19h-4.51c-.63,0-1.12-.07-1.48-.21s-.62-.36-.77-.67-.23-.72-.23-1.24v-1.5c0-.35.13-.7.4-1.05s.61-.65,1.02-.88c.42-.23.84-.35,1.28-.35h2.84c.52,0,.92.12,1.21.35ZM163.23,12.04c.09-.03.17-.09.26-.19.06-.07.11-.15.13-.24s.04-.21.05-.37c0-.07-.02-.16-.06-.27-.04-.11-.11-.21-.22-.3-.11-.09-.26-.14-.45-.14h-3.1c-.22,0-.46.07-.72.21s-.48.33-.65.56c-.18.24-.27.5-.27.79h4.61c.19,0,.33-.02.42-.05Z"/>
        <path class="cls-18" d="M166.66,9.64h0,3.26c.54-.03,1,.02,1.39.14.39.12.71.29.97.5.25.21.45.44.59.68.14.24.24.47.31.68s.11.4.12.55c.02.15.03.22.03.19v.34c0,.25-.06.54-.19.86-.13.32-.32.62-.59.92-.26.29-.6.53-1.02.71s-.9.25-1.46.23h-1.92c-.47,0-.85-.04-1.17-.12s-.56-.21-.75-.38c-.19-.17-.32-.4-.41-.67-.08-.28-.13-.61-.13-1v-5.67c0-.17,0-.23,0-.17h.96v2.21ZM166.66,12.97c0,.32.03.59.1.82s.18.39.35.51c.17.12.39.18.68.18h2.51c.58,0,1.03-.12,1.34-.35.31-.24.51-.49.6-.76.09-.27.14-.51.14-.71v-.29c0-.16-.04-.38-.13-.65-.09-.27-.29-.52-.59-.76s-.76-.36-1.35-.36h-3.64v2.37Z"/>
      </g>
    </g>
    <g>
      <path class="cls-17" d="M132.79,82.95l-.24.53.33.15.24-.51c.32.13.57.15.77.13l.03-.41c-.14.01-.41.03-.75-.12-.41-.19-.41-.49-.31-.7.07-.15.17-.23.33-.28h3.75c-.04.34-.13.68-.28,1-.75,1.63-2.69,2.35-4.33,1.6-1.07-.49-1.75-1.51-1.87-2.6h1.93c-.2.44-.04.91.4,1.21"/>
      <polygon class="cls-17" points="131.95 81.25 131.95 81.25 130.02 81.25 130.02 81.25 131.95 81.25"/>
      <polygon class="cls-17" points="125.66 81.25 125.66 81.25 125.19 81.25 125.19 81.25 125.66 81.25"/>
      <rect class="cls-17" x="125.66" y="81.25" width="4.36" height="0"/>
      <polyline class="cls-17" points="132.75 81.25 131.95 81.25 131.95 81.24 132.75 81.24 132.75 81.25"/>
      <path class="cls-5" d="M146.27,102.05c0,3.56-.95,6.9-2.61,9.78-1.71,2.97-4.19,5.44-7.16,7.16-2.88,1.67-6.22,2.62-9.78,2.62s-6.91-.96-9.78-2.62c-2.97-1.71-5.44-4.19-7.16-7.16-1.66-2.88-2.62-6.22-2.62-9.78s.96-6.9,2.62-9.78c1.71-2.97,4.19-5.45,7.16-7.17,2.87-1.66,6.22-2.62,9.78-2.62s6.9.96,9.78,2.62c2.97,1.72,5.45,4.2,7.16,7.17,1.66,2.88,2.61,6.22,2.61,9.78"/>
      <path class="cls-3" d="M143.02,90.46c-.07-.13-.15-.25-.26-.34-3.66-4.9-9.49-8.1-16.06-8.1s-12.4,3.19-16.05,8.1c-.11.1-.2.22-.27.37-2.33,3.27-3.71,7.26-3.71,11.57,0,11.05,8.99,20.04,20.03,20.04s20.04-8.99,20.04-20.04c0-4.32-1.39-8.31-3.72-11.59M141.56,111.16c-1.59-.51-3.19-.95-4.79-1.29.45-2.02.72-4.22.8-6.53h6.52c-.21,2.85-1.11,5.51-2.54,7.83M126.7,119.5c-2.77,0-5.27-3.04-6.79-7.58,4.54-.7,9.08-.7,13.59-.01-1.52,4.55-4.03,7.59-6.8,7.59M119.22,109.4c-.43-1.88-.7-3.92-.78-6.07h16.54c-.08,2.14-.35,4.18-.78,6.05-4.97-.8-9.97-.79-14.98.01M109.32,103.34h6.53c.08,2.32.35,4.52.8,6.55-1.6.34-3.2.77-4.8,1.28-1.42-2.31-2.32-4.97-2.53-7.83M112.07,92.59c1.56.49,3.12.91,4.68,1.24-.51,2.13-.81,4.46-.9,6.92h-6.53c.22-2.99,1.19-5.78,2.74-8.16M126.7,84.61c2.7,0,5.14,2.88,6.67,7.2-4.42.66-8.86.66-13.31-.01,1.53-4.32,3.96-7.19,6.65-7.19M126.77,94.9c2.45,0,4.9-.2,7.34-.59.48,1.97.79,4.15.87,6.43h-16.54c.08-2.29.39-4.46.87-6.44,2.49.4,4.97.6,7.46.6M137.57,100.75c-.08-2.46-.39-4.78-.9-6.9,1.56-.34,3.12-.76,4.68-1.25,1.55,2.38,2.52,5.17,2.74,8.16h-6.52ZM139.67,90.41c-1.23.37-2.47.68-3.71.94-.72-2.14-1.66-4-2.77-5.48,2.5,1,4.71,2.57,6.48,4.54M120.23,85.86c-1.1,1.48-2.04,3.33-2.76,5.47-1.24-.26-2.48-.57-3.72-.93,1.77-1.97,3.98-3.54,6.48-4.54M113.46,113.38c1.29-.39,2.59-.72,3.88-.99.74,2.3,1.72,4.29,2.89,5.85-2.64-1.06-4.95-2.74-6.77-4.86M133.18,118.23c1.17-1.57,2.15-3.56,2.89-5.87,1.3.28,2.59.61,3.88,1-1.82,2.12-4.14,3.81-6.77,4.86"/>
      <path class="cls-7" d="M109.94,104.62c.95,0,1.08-.44.3-.97l-9.68-7.7c-.78-.54-2.06-.54-2.85,0l-9.83,7.71c-.78.53-.65.96.29.96h21.77Z"/>
      <path class="cls-7" d="M98.16,108.16h2.23c.38,0,.69.31.69.69v7.16c0,.38-.31.69-.69.69h-2.23c-.38,0-.69-.31-.69-.69v-7.16c0-.38.31-.69.69-.69Z"/>
      <path class="cls-7" d="M105.8,108.16h2.23c.38,0,.69.31.69.69v7.16c0,.38-.31.69-.69.69h-2.23c-.38,0-.69-.31-.69-.69v-7.16c0-.38.31-.69.69-.69Z"/>
      <path class="cls-7" d="M90.51,108.16h2.23c.38,0,.69.31.69.69v7.16c0,.38-.31.69-.69.69h-2.23c-.38,0-.69-.31-.69-.69v-7.16c0-.38.31-.69.69-.69Z"/>
      <path class="cls-7" d="M105.11,117.55s0,.01,0,.01c0,0,0-.01,0-.02t0,0"/>
      <path class="cls-7" d="M108.72,117.54s0,0,0,.01c0,0,0,0,0,0,0-.01,0,0,0,0"/>
      <path class="cls-7" d="M89.82,117.55s0,.01,0,.01v-.02s0,0,0,0"/>
      <path class="cls-7" d="M87.24,118.82c0,.38.31.69.69.69h22.14c.38,0,.69-.31.69-.69v-.4c0-.38-.31-.69-.69-.69h-.69c-.38,0-.68-.03-.68-.06,0-.03-.06-.27-.14-.46-.09-.18-.84-.34-1.22-.34h-.85c-.38,0-.84.07-1.03.15-.19.08-.35.55-.34.58s-.29.12-.67.12h-2.72c-.38,0-.68-.03-.68-.06,0-.03-.06-.27-.14-.46-.09-.18-.84-.34-1.22-.34h-.85c-.38,0-.84.07-1.03.15-.19.08-.35.55-.34.58,0,.03-.29.12-.67.12h-2.72c-.38,0-.68-.03-.68-.06,0-.03-.06-.27-.14-.46-.09-.18-.84-.34-1.22-.34h-.85c-.38,0-.84.07-1.03.15-.19.08-.35.55-.34.58s-.29.12-.67.12h-1.24c-.38,0-.69.31-.69.69v.4Z"/>
      <path class="cls-7" d="M105.45,107.73c.19.09.65.16,1.03.16h.85c.38,0,.84-.07,1.03-.16.19-.08.34-.63.34-.74s.31-.21.69-.21h.66c.38,0,.69-.31.69-.69v-.4c0-.38-.31-.69-.69-.69h-22.14c-.38,0-.69.31-.69.69v.4c0,.38.31.69.69.69h1.21c.38,0,.69.09.69.21s.07.36.15.55c.09.19.84.34,1.22.34h.85c.38,0,.84-.07,1.03-.16.19-.08.34-.63.34-.74s.31-.21.69-.21h2.66c.38,0,.69.09.69.21s.07.36.16.55c.08.19.84.34,1.22.34h.85c.38,0,.84-.07,1.03-.16.19-.08.35-.63.35-.74s.31-.21.69-.21h2.66c.38,0,.69.09.69.21s.15.66.34.74"/>
      <path class="cls-7" d="M85.61,119.75h26.77c.42,0,.76.34.76.76v.27c0,.42-.34.76-.76.76h-26.77c-.42,0-.76-.34-.76-.76v-.27c0-.42.34-.75.75-.75Z"/>
      <rect class="cls-5" x="119.69" y="73.21" width="21.88" height="12.34"/>
      <path class="cls-17" d="M123.27,76.72c-.76.76-1.92.89-2.82.4v4.39c.36-.2.75-.31,1.15-.31.61,0,1.22.23,1.69.7.29.29.5.64.61,1.03l-.39.85c0-.06.01-.12.01-.19,0-.51-.2-.99-.56-1.36-.68-.68-1.76-.74-2.51-.17v-8.15,2.65c.75.55,1.81.49,2.49-.18.36-.36.56-.84.56-1.36,0-.4-.13-.79-.36-1.11h.55c.18.34.29.71.29,1.11,0,.64-.25,1.24-.7,1.69"/>
      <path class="cls-17" d="M140.79,77.1c-.91.51-2.09.39-2.86-.38-.45-.45-.7-1.05-.7-1.69,0-.39.11-.77.29-1.11h.55c-.23.32-.36.71-.36,1.11,0,.51.2.99.56,1.36.69.69,1.77.74,2.53.15v-2.62h.02v7.45h-.02v-4.27Z"/>
      <path class="cls-17" d="M133.91,84.76h3.66c-.2-.35-.32-.75-.32-1.17,0-.22.03-.43.09-.64.27.56.39,1.18.32,1.81h-3.75s0,0,0,0"/>
      <polygon class="cls-17" points="123.5 83.78 123.5 83.78 123.89 82.93 123.5 83.78"/>
      <path class="cls-17" d="M123.11,84.76c.22-.28.36-.62.4-.98l.39-.85c.06.21.09.43.09.66,0,.42-.12.82-.32,1.17h2.67s-3.29,0-3.29,0h0s.06,0,.06,0Z"/>
      <path class="cls-17" d="M137.34,82.95c.11-.39.31-.75.61-1.05.46-.47,1.08-.7,1.69-.7.4,0,.79.11,1.15.31v-.14h.02v3.39h-.02v-2.69c-.75-.57-1.82-.52-2.51.17-.36.36-.56.85-.56,1.36,0,.43.15.84.41,1.17h-.47c.07-.63-.05-1.26-.32-1.81"/>
      <polygon class="cls-13" points="120.45 73.91 123.13 73.91 123.14 73.92 120.45 73.92 120.45 73.91"/>
      <path class="cls-13" d="M122.94,76.38c-.68.68-1.74.74-2.49.18v-2.65h2.69c.23.32.36.71.36,1.11,0,.51-.2.99-.56,1.36"/>
      <path class="cls-13" d="M122.95,82.23c.36.36.56.84.56,1.36,0,.06,0,.13-.01.19l-.45.98h-2.61v-2.69c.75-.57,1.82-.52,2.51.17"/>
      <path class="cls-13" d="M138.28,82.23c.68-.68,1.76-.74,2.51-.17v2.69h-2.66c-.26-.33-.41-.74-.41-1.17,0-.51.2-.99.56-1.36"/>
      <polyline class="cls-13" points="138.07 73.91 140.79 73.91 140.79 73.92 138.06 73.92 138.07 73.91"/>
      <path class="cls-13" d="M138.26,76.38c-.36-.36-.56-.84-.56-1.36,0-.4.13-.79.36-1.11h2.73v2.62c-.75.58-1.84.54-2.53-.15"/>
      <polyline class="cls-13" points="123.1 73.91 138.1 73.91 138.09 73.92 123.11 73.92 123.1 73.91"/>
      <path class="cls-13" d="M140.81,81.38h0s-.02-.02-.02-.02v-4.26c-.91.51-2.09.39-2.86-.38-.45-.45-.7-1.05-.7-1.69,0-.4.11-.77.29-1.11h-13.83c.18.34.28.71.28,1.11,0,.64-.25,1.24-.7,1.69-.76.76-1.92.89-2.82.4v4.39c.36-.2.75-.31,1.15-.31.61,0,1.22.24,1.69.7.29.29.5.65.61,1.03.06.21.09.43.09.66,0,.42-.12.81-.32,1.17h13.89c-.2-.35-.32-.75-.32-1.17,0-.22.03-.43.09-.64.11-.39.32-.75.61-1.05.47-.47,1.08-.7,1.69-.7.4,0,.79.11,1.15.31v-.14h.02Z"/>
      <path class="cls-5" d="M135.81,79.34c0,2.76-2.23,4.99-4.99,4.99s-4.99-2.23-4.99-4.99,2.23-4.99,4.99-4.99,4.99,2.23,4.99,4.99"/>
      <path class="cls-13" d="M133.17,82.03c-.17.31-.43.57-.76.78-.33.21-.73.32-1.2.35v.87h-.58v-.87c-.65-.06-1.18-.27-1.59-.63-.41-.36-.62-.82-.62-1.38h1.04c.03.3.14.56.34.78.2.22.47.36.83.42v-2.68c-.48-.12-.87-.25-1.16-.38-.29-.13-.54-.33-.75-.6-.21-.27-.31-.64-.31-1.1,0-.58.2-1.06.61-1.44.4-.38.94-.59,1.61-.63v-.89h.58v.89c.61.05,1.1.24,1.47.58.37.34.59.78.64,1.33h-1.04c-.03-.25-.15-.48-.33-.68-.19-.2-.43-.34-.74-.4v2.62c.47.12.86.25,1.15.37.3.12.55.32.75.6.2.27.31.64.31,1.1,0,.34-.09.67-.26.98M129.72,78.35c.21.19.51.34.91.46v-2.48c-.37.04-.67.15-.89.36-.22.2-.33.49-.33.85s.1.62.31.8M132.12,81.95c.22-.24.33-.52.33-.85,0-.35-.11-.62-.32-.81-.21-.19-.52-.34-.91-.46v2.53c.39-.04.69-.18.91-.42"/>
      <rect class="cls-5" x="128.9" y="74.38" width="12.34" height="21.88" transform="translate(2.87 175.01) rotate(-66.43)"/>
      <path class="cls-17" d="M129.39,79.93c-1.01.39-2.11.05-2.75-.76l-1.75,4.02c.41-.04.81.02,1.18.18.56.25,1.03.71,1.27,1.32.15.38.2.79.14,1.19l-.7.62c.03-.05.06-.11.09-.17.21-.47.21-.99.03-1.47-.35-.9-1.32-1.38-2.23-1.16h0l3.26-7.47-1.06,2.43c.47.81,1.46,1.18,2.35.83.48-.19.85-.55,1.06-1.02.16-.37.2-.77.11-1.16l.5.22c.03.38-.02.77-.18,1.13-.25.58-.72,1.04-1.32,1.27"/>
      <path class="cls-17" d="M145.3,87.29c-1.04.11-2.07-.47-2.47-1.49-.23-.6-.22-1.25.03-1.83.16-.36.4-.66.71-.9l.5.22c-.34.2-.61.5-.78.87-.2.47-.21.99-.03,1.47.36.91,1.33,1.38,2.25,1.15l1.05-2.4h.01s-2.98,6.83-2.98,6.83h-.01s1.7-3.92,1.7-3.92Z"/>
      <path class="cls-17" d="M135.93,91.55l3.35,1.46c-.04-.4,0-.82.18-1.2.09-.2.2-.39.34-.55.03.62-.12,1.24-.43,1.79l-3.44-1.5h0"/>
      <polygon class="cls-17" points="126.78 86.5 126.78 86.5 127.48 85.87 126.78 86.5"/>
      <path class="cls-17" d="M126.03,87.23c.32-.17.58-.42.75-.74l.7-.62c-.03.22-.09.43-.18.64-.17.38-.43.7-.76.94l2.45,1.07h0s-3.02-1.32-3.02-1.32h0s.05.02.05.02Z"/>
      <path class="cls-17" d="M139.79,91.27c.26-.32.59-.56.98-.72.61-.24,1.27-.21,1.83.03.36.16.68.42.93.74l.05-.13h.01s-1.35,3.11-1.35,3.11h-.01s1.08-2.47,1.08-2.47c-.46-.82-1.46-1.2-2.36-.85-.48.19-.85.55-1.06,1.02-.17.39-.2.82-.09,1.24l-.43-.19c.32-.55.46-1.17.43-1.79"/>
      <path class="cls-13" d="M127.93,76.23l2.46,1.07s0,0,0,.01l-2.47-1.08h0Z"/>
      <path class="cls-13" d="M129.22,79.49c-.89.35-1.89-.02-2.36-.83l1.06-2.43,2.47,1.08c.08.39.05.79-.11,1.16-.21.47-.58.83-1.06,1.02"/>
      <path class="cls-13" d="M126.9,84.86c.19.48.18,1-.03,1.47-.03.06-.05.11-.09.17l-.81.72-2.39-1.04,1.08-2.47h0c.92-.22,1.88.26,2.23,1.16"/>
      <path class="cls-13" d="M140.95,90.99c.9-.35,1.9.03,2.36.85l-1.08,2.47-2.44-1.06c-.1-.41-.08-.84.09-1.24.21-.47.58-.83,1.06-1.02"/>
      <polyline class="cls-13" points="144.08 83.27 146.57 84.36 146.57 84.37 144.07 83.28 144.08 83.27"/>
      <path class="cls-13" d="M143.27,85.62c-.19-.48-.18-1,.03-1.47.16-.37.43-.67.77-.87l2.5,1.09-1.05,2.4c-.92.23-1.9-.24-2.25-1.15"/>
      <path class="cls-13" d="M130.36,77.29l13.74,5.99s0,0,0,0l-13.73-5.99h0"/>
      <path class="cls-13" d="M143.6,91.21h0s-.01-.02-.01-.02l1.7-3.9c-1.04.11-2.07-.47-2.47-1.49-.23-.6-.22-1.24.03-1.83.16-.36.41-.66.71-.9l-12.68-5.53c.03.38-.02.77-.18,1.13-.25.58-.72,1.04-1.32,1.27-1,.39-2.11.05-2.75-.76l-1.75,4.02c.41-.04.81.02,1.18.18.56.25,1.03.71,1.27,1.32.15.38.2.79.14,1.19-.03.22-.09.43-.18.64-.17.38-.43.7-.76.94l2.45,1.07.44.19,4,1.75,1.77.77.73.32,3.35,1.46c-.04-.4.01-.81.18-1.2.09-.2.2-.39.34-.55.26-.32.59-.56.98-.72.61-.24,1.27-.21,1.83.03.36.16.68.42.93.74l.06-.13h.01Z"/>
      <path class="cls-5" d="M139.83,87.34c-1.1,2.53-4.04,3.68-6.57,2.58-2.53-1.1-3.68-4.04-2.58-6.57,1.1-2.52,4.04-3.68,6.57-2.58,2.52,1.1,3.68,4.04,2.58,6.57"/>
      <path class="cls-13" d="M136.34,88.75c-.28.22-.62.35-1,.41-.39.06-.8,0-1.24-.15l-.35.8-.53-.23.35-.8c-.57-.31-.97-.72-1.2-1.21-.23-.49-.24-1-.02-1.51l.96.42c-.1.29-.1.57,0,.85.09.28.29.52.6.72l1.07-2.46c-.39-.3-.7-.57-.91-.81-.22-.24-.37-.52-.45-.85-.08-.33-.03-.71.15-1.13.23-.53.61-.89,1.13-1.08.52-.19,1.1-.16,1.73.07l.36-.82.53.23-.36.82c.54.29.91.66,1.11,1.12.2.46.22.95.06,1.47l-.95-.42c.07-.24.06-.5-.03-.76-.09-.26-.26-.48-.52-.67l-1.05,2.4c.38.3.69.57.91.8.22.23.37.51.45.85.08.33.02.71-.16,1.14-.14.32-.35.58-.63.8M134.65,84c.12.25.33.52.65.79l.99-2.27c-.36-.12-.68-.12-.96-.03-.29.1-.5.32-.65.65-.14.32-.15.61-.04.86M135.41,88.26c.29-.13.51-.34.64-.65.14-.32.15-.61.03-.87-.12-.26-.34-.52-.65-.78l-1.01,2.32c.37.11.71.11,1-.02"/>
      <path class="cls-5" d="M103.41,69.66h3.19l5.5.44,5.82-1.57s2.38-1.09,4.74,1.32l2.92,2.69s.92,1.63-1.29,1.77h4.1s1.63,0,1.63,2.82c0,0,.07,2.51-2.99,2.51h-6.89l-4.62,1.6-9.58-2.51-2.41-.07-.14-9Z"/>
      <path class="cls-12" d="M106.61,70.62l5.54.37,6.26-1.64s1.83-.24,3.12.95l2.92,2.63c.26.21.15.62-.18.67l-4.06.46s-1.19.15-1.14.62c0,0,.28.32,1.26.34h6.87s1.77-.07,1.77,1.63c0,0,.37,1.77-1.7,2.31h-7.41l-4.45,1.19-8.69-2.1s-.19-7.35-.1-7.44"/>
      <rect class="cls-7" x="102.98" y="69.5" width="5.21" height="9.99"/>
      <path class="cls-5" d="M161.6,108.24l-7.74-.04v.02s-5.64-.03-5.64-.03c-.88,0-1.59.7-1.59,1.58v.02c0,.66.4,1.23.98,1.47h-1.68c-.88-.01-1.59.69-1.59,1.57v.02c0,.51.24.97.62,1.26h-.08c-.88,0-1.59.7-1.59,1.58v.02c0,.88.7,1.59,1.58,1.59h1.97c-.76.12-1.35.77-1.36,1.56,0,.87.7,1.59,1.58,1.59l6.75.03h.96s13.61.07,13.61.07l.07-9.71h-1.71c-1.04-3.11-5.13-2.61-5.13-2.61"/>
      <path class="cls-8" d="M170.85,120.08l.04-8.78h-4.35s-1.23-1.5-1.96-2.12c-.63-.54-1.38-.54-2.3-.54-.52,0-13.64-.03-13.64-.03-.7,0-1.26.56-1.27,1.25,0,.7.56,1.26,1.25,1.27l4.91.03v.44l-7.32-.05c-.7,0-1.26.56-1.27,1.25,0,.7.56,1.26,1.25,1.27l7.32.05v.44s-8.38-.05-8.38-.05c-.7,0-1.26.56-1.27,1.25,0,.7.56,1.26,1.25,1.27l8.38.05v.45s-6.05-.04-6.05-.04c-.7,0-1.26.56-1.27,1.25,0,.7.56,1.26,1.25,1.27l8.71.05s.01,0,.01,0h14.7Z"/>
      <rect class="cls-14" x="137.64" y="102.38" width="22.57" height="16.96" transform="translate(37.34 259.26) rotate(-89.72)"/>
      <rect class="cls-5" x="138.41" y="103.28" width="20.96" height="15.24" transform="translate(37.26 259.25) rotate(-89.72)"/>
      <path class="cls-6" d="M148.5,113.38l6.74.03c.15,0,.27-.12.27-.27v-.32c0-.15-.12-.27-.26-.27l-6.74-.03c-.15,0-.27.12-.27.27v.32c0,.15.12.27.26.27"/>
      <path class="cls-6" d="M148.72,105.17l6.5.03c.15,0,.27-.12.27-.27v-.32c0-.15-.12-.27-.26-.27l-6.5-.03c-.15,0-.27.12-.27.27v.32c0,.15.12.27.26.27"/>
      <path class="cls-6" d="M148.69,107.07l6.5.03c.15,0,.27-.12.27-.27v-.32c0-.15-.12-.27-.26-.27l-6.5-.03c-.15,0-.27.12-.27.27v.32c0,.15.12.27.26.27"/>
      <path class="cls-6" d="M148.49,115.22l6.74.03c.15,0,.27-.12.27-.27v-.32c0-.15-.12-.27-.26-.27l-6.74-.03c-.15,0-.27.12-.27.27v.32c0,.15.12.27.26.27"/>
      <path class="cls-6" d="M148.48,116.95l6.74.03c.15,0,.27-.12.27-.27v-.32c0-.15-.12-.27-.26-.27l-6.74-.03c-.15,0-.27.12-.27.27v.32c0,.15.12.27.26.27"/>
      <path class="cls-6" d="M150.83,118.71l4.39.02c.15,0,.27-.12.27-.27v-.32c0-.15-.12-.27-.26-.27l-4.39-.02c-.15,0-.27.12-.27.27v.32c0,.15.12.27.26.27"/>
      <path class="cls-6" d="M148.69,103.4l4.12.02c.15,0,.27-.12.27-.27v-.32c0-.15-.12-.27-.26-.27l-4.12-.02c-.15,0-.27.12-.27.27v.32c0,.15.12.27.26.27"/>
      <path class="cls-14" d="M148.77,111l5.96.03c.4,0,.73-.32.73-.72v-.88c0-.4-.32-.73-.72-.73l-5.96-.03c-.4,0-.73.32-.73.72v.88c0,.4.32.73.72.73"/>
      <path class="cls-14" d="M143.35,110.98h2.65c.4.02.73-.31.73-.71v-.88c0-.4-.32-.73-.72-.73h-2.65c-.4-.01-.73.31-.73.71v.88c0,.4.32.73.72.73"/>
      <path class="cls-20" d="M160.95,115.39h-5.7c-.62-.01-1.36-.71-1.36-1.66,0-.58.44-1.4,1.38-1.4h4.71s1.7-3.46,1.7-3.46c1.54,0,1.82.03,2.85.7.6.4,1.92,1.98,1.92,1.98l4.45.06-.04,8.47-4.92-.02-4.97-4.67Z"/>
      <path class="cls-5" d="M170.85,119.83v.27s-4.98-.02-4.98-.02l-4.98-4.67h-5.65c-.35-.01-.73-.2-1.01-.53-.31-.35-.48-.8-.48-1.27h0c0-.64.47-1.54,1.52-1.54h4.71s0,.28,0,.28h-4.71c-.85-.01-1.24.73-1.24,1.26h0c0,.41.15.79.41,1.09.24.26.54.42.81.42h5.76s4.97,4.68,4.97,4.68l4.87.02Z"/>
      <rect class="cls-7" x="165.55" y="112.97" width="10.61" height="4.89" transform="translate(54.6 285.7) rotate(-89.72)"/>
      <path class="cls-6" d="M149.52,113.73c-.29.52-.71.96-1.27,1.3-.56.35-1.23.55-2.01.59v1.46h-.97v-1.46c-1.09-.1-1.98-.45-2.66-1.05s-1.03-1.38-1.04-2.31h1.75c.05.5.24.94.57,1.31.33.37.79.61,1.39.7v-4.5c-.8-.2-1.45-.41-1.94-.63-.49-.21-.91-.55-1.26-1.01-.35-.46-.52-1.07-.52-1.84,0-.97.34-1.78,1.02-2.41.68-.64,1.58-.99,2.71-1.06v-1.49h.97v1.49c1.02.08,1.84.41,2.47.98.62.57.98,1.31,1.08,2.22h-1.75c-.06-.42-.25-.8-.56-1.14-.31-.34-.73-.57-1.24-.68v4.39c.79.21,1.44.41,1.93.62.5.21.92.54,1.26,1,.34.46.51,1.07.51,1.85,0,.58-.14,1.12-.43,1.65M143.74,107.57c.35.31.86.57,1.53.77v-4.16c-.62.06-1.12.26-1.49.6-.37.34-.56.82-.56,1.43s.17,1.04.52,1.35M147.77,113.6c.37-.4.55-.87.55-1.42,0-.59-.18-1.04-.54-1.36-.36-.32-.87-.57-1.53-.76v4.25c.65-.07,1.15-.31,1.52-.7"/>
    </g>
  </g>
</svg>