<?xml version="1.0" encoding="UTF-8"?>
<svg id="Capa_2" xmlns="http://www.w3.org/2000/svg" viewBox="0 0 142.23 213.06">
  <defs>
    <style>
      .cls-1 {
        fill: #f9cf16;
      }

      .cls-2 {
        fill: #cd142a;
      }

      .cls-3 {
        fill: #87bfe0;
      }

      .cls-4 {
        fill: #646365;
      }

      .cls-5 {
        fill: #d45a93;
      }

      .cls-6 {
        fill: #84bd7a;
      }

      .cls-7 {
        fill: #fff;
      }

      .cls-8 {
        fill: #625f60;
      }

      .cls-9 {
        fill: #505050;
      }

      .cls-10 {
        fill: #d00e4d;
      }

      .cls-11 {
        fill: #d00e4c;
      }

      .cls-12 {
        fill: #d22e1f;
      }

      .cls-13 {
        fill: #dcdcdc;
      }

      .cls-14 {
        fill: #d20f48;
      }

      .cls-15 {
        fill: #1d458c;
      }

      .cls-16 {
        fill: #e1222c;
      }

      .cls-17 {
        fill: #828384;
      }

      .cls-18 {
        fill: #1b4180;
      }
    </style>
  </defs>
  <g id="Capa_1-2" data-name="Capa_1">
    <g>
      <path class="cls-8" d="M134.85,120.92h-53.89c-2.35,0-4.26-1.91-4.26-4.26v-39.85c0-2.35,1.91-4.26,4.26-4.26h53.89c2.35,0,4.26,1.91,4.26,4.26v39.85c0,2.35-1.91,4.26-4.26,4.26"/>
      <path class="cls-7" d="M135.17,117.6h-54.51c-.83,0-1.49-.67-1.49-1.49v-39.05c0-.82.67-1.49,1.49-1.49h54.51c.82,0,1.49.67,1.49,1.49v39.05c0,.82-.67,1.49-1.49,1.49"/>
      <polygon class="cls-8" points="133.62 96.11 115.51 96.11 115.51 83.28 116 83.28 116 95.62 133.62 95.62 133.62 96.11"/>
      <path class="cls-8" d="M131.98,86.96c-.18-.78-.15-1.87-.03-2.7-.63.55-1.53,1.17-2.28,1.45l1.09.16-3.26,6.01-2.32-.95-2.18,2.76-2.35-3.58-3.87,4.8.43.35,3.4-4.21,2.35,3.59,2.4-3.04,2.4.98,3.5-6.45.73.82Z"/>
      <rect class="cls-9" x="87.15" y="84.45" width="2.51" height="11.49"/>
      <rect class="cls-9" x="93.79" y="88.03" width="2.51" height="7.9"/>
      <rect class="cls-9" x="100.43" y="85.76" width="2.51" height="10.17"/>
      <rect class="cls-9" x="106.53" y="90.33" width="2.51" height="5.6"/>
      <polygon class="cls-14" points="110.4 96.21 82.49 96.21 82.49 80.64 83.11 80.64 83.11 95.65 110.4 95.65 110.4 96.21"/>
      <path class="cls-9" d="M108.05,109l5.14-3.74c2.06,2.84,1.43,6.82-1.41,8.88-2.84,2.06-6.81,1.43-8.88-1.4-2.06-2.84-1.43-6.82,1.41-8.88,1.14-.82,2.33-1.21,3.74-1.21v6.36Z"/>
      <path class="cls-13" d="M108.05,109v-6.36c2.11,0,3.9.92,5.14,2.62l-5.14,3.74Z"/>
      <path class="cls-9" d="M91.24,104.62l-3.34-5.6c4.5-2.01,8.35.45,9.74,3.14l-6.4,2.46Z"/>
      <path class="cls-14" d="M130.79,114.15c-2.85,2.07-6.82,1.43-8.88-1.41-2.07-2.84-1.43-6.81,1.41-8.88,1.13-.82,2.33-1.21,3.74-1.21v6.35l5.14-3.74c.63.89,1.02,1.88,1.16,2.89.29,2.24-.61,4.57-2.57,5.99"/>
      <path class="cls-13" d="M132.2,105.27l-5.14,3.74v-6.35c2.11,0,3.9.92,5.14,2.61"/>
      <path class="cls-13" d="M133.36,108.16h-.01s-6.29.85-6.29.85v-6.35c2.1,0,3.9.92,5.14,2.61.63.89,1.02,1.88,1.16,2.89"/>
      <path class="cls-14" d="M90.1,107.88l7.58-1.88c.15.62.23,1.25.23,1.88,0,4.29-3.53,7.81-7.81,7.81s-7.81-3.53-7.81-7.81c0-2.68,1.38-5.18,3.65-6.61l4.16,6.61Z"/>
      <path class="cls-7" d="M95.29,107.88c0,2.87-2.32,5.19-5.19,5.19s-5.19-2.32-5.19-5.19,2.32-5.19,5.19-5.19,5.19,2.32,5.19,5.19"/>
      <path class="cls-8" d="M93.09,107.88c0,1.65-1.34,2.98-2.98,2.98s-2.98-1.34-2.98-2.98,1.33-2.98,2.98-2.98,2.98,1.34,2.98,2.98"/>
      <polygon class="cls-7" points="108.79 57.38 135.79 57.38 142.23 69.88 128.81 95.86 115.82 95.86 102.35 69.88 108.79 57.38"/>
      <path class="cls-5" d="M108.97,57.75l-.21.4,19.41,37.55h.41l-19.62-37.95ZM108.01,59.61l18.65,36.08h.41l-18.86-36.48-.2.4ZM107.26,61.07l17.9,34.63h.41l-18.11-35.03-.2.4ZM106.51,62.53l17.15,33.17h.41l-17.35-33.57-.21.4ZM105.75,63.99l16.39,31.71h.41l-16.6-32.11-.21.4ZM105,65.45l15.64,30.25h.41l-15.84-30.65-.21.4ZM104.25,66.91l14.88,28.79h.41l-15.09-29.18-.21.4ZM103.5,68.37l14.13,27.33h.41l-14.33-27.73-.2.4ZM102.74,69.83l13.37,25.87h.41l-13.58-26.26-.2.4Z"/>
      <path class="cls-6" d="M135.73,57.77l-19.61,37.93h.41l19.4-37.53-.21-.4ZM136.48,59.23l-18.86,36.47h.41l18.65-36.07-.21-.4ZM137.24,60.69l-18.1,35.01h.41l17.9-34.61-.21-.4ZM137.99,62.15l-17.35,33.55h.41l17.14-33.15-.21-.4ZM138.74,63.61l-16.59,32.09h.41l16.38-31.69-.21-.4ZM139.49,65.07l-15.84,30.63h.41l15.63-30.23-.21-.4ZM140.25,66.53l-15.08,29.17h.41l14.88-28.77-.21-.4ZM141,67.99l-14.33,27.71h.41l14.12-27.32-.21-.4ZM141.75,69.45l-13.57,26.25h.41l13.37-25.86-.21-.4Z"/>
      <path class="cls-3" d="M102.74,69.81h39.22l-.21-.4h-38.81l-.21.4ZM103.5,68.36h37.71l-.21-.4h-37.3l-.21.4ZM104.25,66.9h36.21l-.21-.4h-35.8l-.21.4ZM105,65.44h34.71l-.21-.4h-34.29l-.2.4ZM105.75,63.98h33.2l-.2-.4h-32.79l-.2.4ZM106.5,62.52h31.7l-.21-.4h-31.29l-.21.4ZM107.25,61.07h30.19l-.21-.4h-29.78l-.21.4ZM108,59.61h28.69l-.21-.4h-28.28l-.21.4ZM135.74,57.75h-26.78l-.2.4h27.19l-.21-.4Z"/>
      <path class="cls-7" d="M14.84.27L.55,4.78l14.33,11.12,14.04-10.84L14.84.27ZM20.37,10.39l-3.12,2.39-2.66-1.71,2.04-1.67c.37-.33.47-.56.47-.56v-3.18c.03-.54-.73-.85-.73-.85-.94-.45-2.38-.43-2.38-.43-1.33-.02-3.8.92-3.8.92v2.95l-3.69-2.37c2.35-.95,3.42-1.2,3.42-1.2,2.33-.65,3.96-.69,3.96-.69,2.61-.14,4.68.58,4.68.58,2.08.57,2.94,1.3,2.94,1.3,1.72,1.29,1.33,2.61,1.33,2.61-.27.24-2.47,1.91-2.47,1.91"/>
      <polygon class="cls-11" points=".02 8.24 .02 4.69 14.92 16.03 29.45 4.96 29.45 8.22 14.87 21.46 .02 8.24"/>
      <path class="cls-11" d="M6.42,5.91l-2.39-1.48s3.15-1.23,5.77-1.73,3.57-.53,5.07-.47c1.49.06,4.37.63,6.26,1.55,1.89.93,2.29,1.89,2.4,2.42.12.53.09,1.75-.34,2.13l-.42.38s.31-.69-.13-1.56c-.44-.87-1.39-1.7-3.12-2.29-1.73-.59-3.27-.92-5.14-.89-1.86.03-3.56.44-4.87.82-1.3.38-3.09,1.11-3.09,1.11"/>
      <path class="cls-11" d="M10.2,5.37v2.94l4.29,2.83s.94-.73,1.6-1.28c.66-.54.94-.87,1.01-1.03v-3.24s.08.51-1.06,1.15c-1.13.64-1.49.85-1.49.85l-4.35-2.21Z"/>
      <path class="cls-11" d="M14.88,16.23L0,4.68,14.85,0h.04s14.57,4.97,14.57,4.97l-14.57,11.26ZM.55,4.78l14.34,11.12,14.04-10.84L14.84.27.55,4.78Z"/>
      <path class="cls-11" d="M17.27,13.09l-.08-.05L3.75,4.39l.24-.09s3.19-1.24,5.8-1.74c1.92-.37,3-.49,4.14-.49.27,0,.57,0,.95.02,1.62.06,4.5.68,6.31,1.57,1.43.7,2.26,1.54,2.47,2.51.12.56.1,1.82-.38,2.25l-.43.38-5.59,4.29ZM4.32,4.45l12.94,8.32,5.44-4.17.42-.38c.38-.34.41-1.51.3-2-.2-.89-.98-1.67-2.33-2.33-1.78-.87-4.61-1.48-6.2-1.54-.38-.01-.68-.02-.95-.02-.97,0-1.94.08-4.1.49-2.17.41-4.73,1.34-5.51,1.63"/>
      <path class="cls-11" d="M14.47,7.64l-4.29-2.19.04-.07-.03-.08c.1-.04,2.43-.93,3.82-.93h.03c1.46.01,2.38.36,2.77.69.36.3.41.63.16,1.02-.18.28-.71.67-1.43,1.05-.71.38-1.02.5-1.03.51h-.03ZM10.32,5.39l4.15,2.12c.09-.04.4-.18.99-.49.7-.37,1.21-.74,1.38-1,.21-.33.18-.6-.13-.85-.37-.31-1.27-.65-2.69-.66h-.03c-1.21,0-3.21.72-3.68.89"/>
      <g>
        <path class="cls-4" d="M76.58,21.38h-.28s0,0,0-.05v-1.65c0-.11.04-.21.12-.32.08-.1.18-.19.3-.25.12-.07.23-.1.33-.1h.53c.16,0,.31.02.43.07s.22.12.3.21c.08.09.13.18.17.27.04.09.06.18.06.25v.1s0,.01,0,.06c0,.04-.02.1-.04.16-.02.06-.05.13-.09.2-.04.07-.1.14-.18.2-.07.06-.17.11-.29.15-.12.04-.25.05-.41.04h-.96v.65ZM76.58,20.44h1.08c.18,0,.31-.04.4-.11.09-.07.15-.15.18-.22s.04-.14.04-.19v-.09c0-.06-.01-.13-.04-.21s-.09-.16-.18-.23-.22-.1-.39-.1h-.58c-.07,0-.15.02-.23.07-.08.05-.14.1-.19.17-.05.07-.07.14-.07.2v.7Z"/>
        <path class="cls-4" d="M80.99,19.25h-.99s-.11,0-.17,0c-.06,0-.12,0-.17.02s-.1.04-.14.08c-.04.04-.07.08-.08.14s-.03.1-.03.14c0,.04,0,.11,0,.21v.87s0,.02-.02.02h-.25s-.02,0-.02-.02v-.89s0-.1,0-.19c0-.09.02-.18.05-.27.03-.09.1-.17.19-.24.06-.04.12-.08.18-.1s.13-.04.19-.05.12-.01.17-.01h1.1v.29Z"/>
        <path class="cls-4" d="M82.79,18.99c.16,0,.29,0,.41.04.12.04.21.09.28.15.07.06.13.13.17.21.04.07.07.14.09.2.02.06.03.12.04.16s0,.07,0,.06v.1c0,.08-.02.16-.06.26-.04.1-.09.19-.17.28-.08.09-.18.16-.3.21-.12.05-.26.08-.43.07h-.33c-.16,0-.3-.01-.43-.07-.12-.05-.22-.12-.3-.21-.08-.09-.13-.18-.17-.28-.04-.1-.06-.18-.06-.26v-.1s0-.01,0-.06.02-.1.04-.16c.02-.06.05-.13.09-.2.04-.07.1-.14.17-.21.07-.06.17-.12.28-.15.12-.04.25-.05.41-.04h.24ZM82.91,20.44c.22,0,.37-.05.46-.16.09-.1.14-.22.15-.34v-.05s0-.08,0-.08v-.05c-.02-.11-.07-.22-.15-.33-.09-.11-.24-.16-.46-.16h-.46c-.22,0-.37.05-.46.16-.09.11-.14.22-.15.33v.05s0,.08,0,.08v.05c.02.12.07.23.16.34s.24.16.46.16h.46Z"/>
        <path class="cls-4" d="M86.36,18.35h.28s0,0,0,.05v1.68c0,.12-.01.22-.04.3s-.06.15-.12.2c-.06.05-.13.09-.22.11-.09.02-.21.04-.35.04h-.57c-.16,0-.31-.01-.43-.07-.12-.05-.23-.12-.3-.21-.08-.09-.14-.18-.17-.27-.04-.1-.06-.18-.06-.26v-.1s0-.01,0-.06c0-.05.02-.1.04-.16.02-.06.05-.13.09-.2s.1-.14.18-.2c.07-.06.17-.11.29-.15.12-.04.25-.05.41-.04h.97v-.66ZM86.36,19.29h-1.08c-.18,0-.31.04-.4.11s-.15.15-.18.23c-.03.08-.04.14-.04.19v.08c0,.06.01.13.04.21.03.08.09.16.18.23.09.07.22.1.4.1h.75c.09,0,.15-.02.2-.06.05-.04.08-.09.1-.15s.03-.15.03-.24v-.71Z"/>
        <path class="cls-4" d="M88.85,20.4c.08-.03.14-.07.19-.12s.09-.12.12-.2.04-.16.04-.24v-.9h.29v.9c0,.16-.04.31-.12.45-.08.14-.19.25-.32.33-.13.08-.28.12-.44.12h-.56c-.16,0-.3-.04-.44-.12-.13-.08-.24-.19-.32-.33-.08-.14-.12-.29-.12-.45v-.9h.29s0,0,0,.02v.87c0,.08.01.16.04.24s.07.15.12.2.11.09.19.12c.08.03.15.04.23.04h.56c.08,0,.15-.01.23-.04Z"/>
        <path class="cls-4" d="M90.63,19.32c-.08.03-.14.07-.19.12-.05.05-.09.12-.12.19-.03.08-.04.16-.04.23s.01.16.04.23c.03.08.07.14.12.19.05.05.12.09.19.12.08.03.16.04.23.04h1.43v.29h-1.43c-.16,0-.3-.04-.44-.12-.13-.08-.24-.18-.32-.32-.08-.13-.12-.28-.12-.44s.04-.3.12-.44c.08-.13.18-.24.32-.32.13-.08.28-.12.44-.12h1.43v.29h-1.43c-.08,0-.16.01-.23.04Z"/>
        <path class="cls-4" d="M94.32,20.44v.29h-.54c-.15,0-.3-.04-.43-.11-.13-.08-.24-.18-.32-.31-.08-.13-.12-.27-.12-.43v-1.55h.29s0,0,0,.02v.64h.67s0,0,0,.02v.26s0,0-.03,0h-.65v.62c0,.13.03.23.1.32.06.08.13.15.21.19.04.02.09.04.16.05.07,0,.13,0,.18,0h.48Z"/>
        <path class="cls-4" d="M96.18,18.99c.16,0,.29,0,.41.04.12.04.21.09.28.15.07.06.13.13.17.21.04.07.07.14.09.2.02.06.03.12.04.16s0,.07,0,.06v.1c0,.08-.02.16-.06.26-.04.1-.09.19-.17.28-.08.09-.18.16-.3.21-.12.05-.26.08-.43.07h-.33c-.16,0-.3-.01-.43-.07-.12-.05-.22-.12-.3-.21-.08-.09-.13-.18-.17-.28-.04-.1-.06-.18-.06-.26v-.1s0-.01,0-.06.02-.1.04-.16c.02-.06.05-.13.09-.2.04-.07.1-.14.17-.21.07-.06.17-.12.28-.15.11-.04.25-.05.41-.04h.24ZM96.29,20.44c.22,0,.37-.05.46-.16.09-.1.14-.22.15-.34v-.05s0-.08,0-.08v-.05c-.02-.11-.07-.22-.15-.33-.09-.11-.24-.16-.46-.16h-.46c-.22,0-.37.05-.46.16-.09.11-.14.22-.15.33v.05s0,.08,0,.08v.05c.02.12.07.23.16.34s.24.16.46.16h.46Z"/>
        <path class="cls-4" d="M99.6,19.73c.12,0,.22.05.31.12s.13.21.13.41c0,.11-.03.2-.08.27-.05.07-.12.12-.2.16s-.16.05-.24.05h-1.78v-.29s1.77,0,1.77,0c.06,0,.12-.01.17-.04.05-.03.08-.09.08-.19,0-.06-.02-.11-.05-.14-.04-.03-.08-.04-.12-.05s-.07,0-.09,0h-1.29c-.07,0-.14-.02-.22-.06-.08-.04-.14-.09-.2-.18-.06-.08-.08-.19-.08-.32,0-.11.03-.21.09-.28.06-.07.13-.13.21-.16.08-.04.16-.05.23-.06h1.61v.29h-1.59c-.07,0-.13.01-.18.04-.06.03-.08.1-.08.21,0,.09.03.15.08.18.05.03.1.04.15.04h1.38Z"/>
        <path class="cls-4" d="M103.7,18.97v1.52c-.01.17-.05.33-.13.45-.09.16-.2.27-.32.34-.12.07-.27.11-.45.11h-1.24s-.02,0-.02-.02v-.25s0-.02.02-.02h1.24c.06,0,.12,0,.17-.01.05,0,.09-.03.13-.05.05-.04.1-.07.13-.1.03-.03.06-.06.08-.11l.04-.09h-1.13c-.13,0-.25-.02-.36-.08s-.19-.11-.26-.18c-.07-.07-.12-.15-.18-.26s-.08-.22-.08-.33v-.92s0-.02,0-.02h.3s0,0,0,.02v.94c0,.06.01.12.04.18.02.06.04.11.07.13.01.01.03.04.07.07.03.03.08.07.14.09s.13.05.22.06h1.24s0-1.47,0-1.47c0-.02,0-.02.02-.02h.25s.02,0,.02.02Z"/>
        <path class="cls-4" d="M106.91,19.73c.12,0,.22.05.31.12s.13.21.13.41c0,.11-.03.2-.08.27-.05.07-.12.12-.2.16-.08.03-.16.05-.24.05h-1.78v-.29s1.77,0,1.77,0c.06,0,.12-.01.17-.04.05-.03.08-.09.08-.19,0-.06-.02-.11-.05-.14-.04-.03-.08-.04-.12-.05-.05,0-.07,0-.08,0h-1.29c-.07,0-.14-.02-.22-.06-.08-.04-.14-.09-.2-.18-.06-.08-.08-.19-.08-.32,0-.11.03-.21.09-.28s.13-.13.21-.16c.08-.04.16-.05.23-.06h1.61v.29h-1.59c-.07,0-.13.01-.18.04-.06.03-.08.1-.08.21,0,.09.03.15.08.18.05.03.1.04.15.04h1.38Z"/>
        <path class="cls-4" d="M109.9,19.09c.08.07.14.14.17.23s.04.16.04.22c0,.31-.17.48-.52.49h-1.38s0,.07,0,.07c0,.08,0,.14.02.19.01.05.04.08.07.1s.08.04.14.04c.06,0,.14.01.24.01h1.29s.06.02.06.05v.17s-.02.06-.06.06h-1.33c-.19,0-.33-.02-.44-.06-.11-.04-.18-.11-.23-.2-.05-.09-.07-.21-.07-.37v-.44c0-.1.04-.21.12-.31s.18-.19.3-.26.25-.1.38-.1h.84c.15,0,.27.03.36.1ZM109.7,19.72s.05-.03.08-.06c.02-.02.03-.04.04-.07s.01-.06.01-.11c0-.02,0-.05-.02-.08-.01-.03-.03-.06-.07-.09-.03-.03-.08-.04-.13-.04h-.92c-.07,0-.14.02-.21.06-.08.04-.14.1-.19.17-.05.07-.08.15-.08.23h1.37c.06,0,.1,0,.12-.01Z"/>
        <path class="cls-4" d="M112.62,19.25h-.99s-.11,0-.17,0c-.06,0-.12,0-.17.02s-.1.04-.14.08c-.04.04-.07.08-.08.14-.02.05-.03.1-.03.14,0,.04,0,.11,0,.21v.87s0,.02-.02.02h-.25s-.02,0-.02-.02v-.89s0-.1,0-.19c0-.09.02-.18.05-.27.03-.09.1-.17.19-.24.06-.04.12-.08.18-.1.07-.02.13-.04.19-.05s.12-.01.17-.01h1.1v.29Z"/>
        <path class="cls-4" d="M113.32,18.94l1.03,1.55h.03l1.03-1.55h.35l-1.04,1.55c-.08.13-.14.21-.16.24h-.41c-.05-.07-.1-.15-.16-.24l-1.03-1.55h.35Z"/>
        <path class="cls-4" d="M116.47,18.13v.31h-.31v-.31h.31ZM116.47,18.85v1.88h-.31v-1.88h.31Z"/>
        <path class="cls-4" d="M117.71,19.32c-.08.03-.14.07-.19.12s-.09.12-.12.19c-.03.08-.04.16-.04.23s.01.16.04.23c.03.08.07.14.12.19s.12.09.19.12.16.04.23.04h1.43v.29h-1.43c-.16,0-.3-.04-.44-.12-.13-.08-.24-.18-.32-.32-.08-.13-.12-.28-.12-.44s.04-.3.12-.44c.08-.13.18-.24.32-.32.13-.08.28-.12.44-.12h1.43v.29h-1.43c-.08,0-.16.01-.23.04Z"/>
        <path class="cls-4" d="M120.29,18.13v.31h-.31v-.31h.31ZM120.29,18.85v1.88h-.31v-1.88h.31Z"/>
        <path class="cls-4" d="M122.17,18.99c.16,0,.29,0,.41.04s.21.09.28.15c.07.06.13.13.17.21.04.07.07.14.09.2.02.06.03.12.04.16,0,.05,0,.07,0,.06v.1c0,.08-.02.16-.06.26-.04.1-.09.19-.17.28-.08.09-.18.16-.3.21-.12.05-.26.08-.43.07h-.33c-.16,0-.31-.01-.43-.07-.12-.05-.22-.12-.3-.21-.08-.09-.13-.18-.17-.28-.04-.1-.06-.18-.06-.26v-.1s0-.01,0-.06.02-.1.04-.16c.02-.06.05-.13.09-.2.04-.07.1-.14.17-.21.07-.06.17-.12.28-.15.11-.04.25-.05.41-.04h.24ZM122.28,20.44c.22,0,.37-.05.46-.16s.14-.22.15-.34v-.05s0-.08,0-.08v-.05c-.02-.11-.07-.22-.15-.33-.09-.11-.24-.16-.46-.16h-.46c-.22,0-.37.05-.46.16-.09.11-.14.22-.15.33v.05s0,.08,0,.08v.05c.02.12.07.23.16.34s.24.16.46.16h.46Z"/>
        <path class="cls-4" d="M125.59,19.73c.12,0,.22.05.31.12s.13.21.13.41c0,.11-.03.2-.08.27-.05.07-.12.12-.2.16s-.16.05-.24.05h-1.78v-.29s1.77,0,1.77,0c.06,0,.12-.01.17-.04.05-.03.08-.09.08-.19,0-.06-.02-.11-.05-.14-.04-.03-.08-.04-.12-.05-.05,0-.07,0-.08,0h-1.29c-.07,0-.14-.02-.22-.06-.08-.04-.14-.09-.2-.18-.06-.08-.08-.19-.08-.32,0-.11.03-.21.09-.28s.13-.13.21-.16c.08-.04.16-.05.23-.06h1.61v.29h-1.59c-.07,0-.13.01-.18.04-.06.03-.08.1-.08.21,0,.09.03.15.08.18.05.03.1.04.15.04h1.38Z"/>
      </g>
      <rect class="cls-1" x="138.07" y="18.11" width="4.16" height="1.32"/>
      <rect class="cls-18" x="138.07" y="19.43" width="4.16" height=".66"/>
      <rect class="cls-2" x="138.07" y="20.3" width="4.16" height=".44"/>
      <rect class="cls-16" x="132.98" y="18.11" width="1.39" height="2.63"/>
      <rect class="cls-16" x="135.75" y="18.11" width="1.39" height="2.63"/>
      <rect class="cls-7" x="134.36" y="18.11" width="1.39" height="2.63"/>
      <polyline class="cls-12" points="132.04 20.74 127.89 20.74 127.89 19.43 132.04 19.43"/>
      <rect class="cls-15" x="127.89" y="18.11" width="1.39" height="1.32"/>
      <rect class="cls-7" x="129.27" y="18.11" width="2.77" height="1.32"/>
      <polygon class="cls-7" points="128.24 18.67 128.5 18.67 128.58 18.44 128.65 18.67 128.9 18.67 128.7 18.8 128.78 19.03 128.58 18.89 128.37 19.03 128.45 18.81 128.24 18.67"/>
      <path class="cls-11" d="M40.48,6.74c.14.02.36.08.68.19.31.11.68.32,1.09.63.41.31.77.78,1.08,1.4.31.62.46,1.41.46,2.36s-.18,1.67-.54,2.27c-.36.61-.79,1.06-1.29,1.35-.5.29-.97.47-1.42.53h-7.62V6.73h7.57ZM40.42,14.29c.23-.04.52-.14.84-.3.32-.16.63-.46.92-.9.29-.43.43-1.03.43-1.78,0-.88-.15-1.57-.45-2.07-.3-.5-.62-.84-.95-1.01-.33-.18-.61-.28-.84-.32h-6.28v6.38h6.33Z"/>
      <rect class="cls-11" x="44.61" y="6.75" width="1.19" height="8.7"/>
      <path class="cls-11" d="M52.27,9.12c.77-.01,1.46-.13,2.06-.34.61-.22,1.08-.43,1.4-.65.33-.22.55-.38.66-.49l.96-.91v8.75h-1.14v-6.32c-.5.3-1.08.55-1.75.76-.66.21-1.39.32-2.18.33-.83,0-1.61-.1-2.33-.32-.72-.22-1.36-.49-1.92-.82v6.36h-1.14V6.73l1,.86c.14.13.39.3.75.53.36.23.86.45,1.51.68.64.23,1.35.33,2.11.32"/>
      <rect class="cls-10" x="59.06" y="10.44" width="2.29" height="1.16"/>
      <rect class="cls-17" x="95.17" y="10.44" width="2.29" height="1.16"/>
      <path class="cls-17" d="M72.9,6.66v1.19h-6.39c-.25,0-.53.08-.84.23-.32.15-.63.39-.93.71-.22.23-.41.53-.57.9-.16.37-.24.83-.24,1.37,0,.36.06.72.17,1.06.11.35.28.67.49.97.19.26.44.53.75.78.31.26.7.39,1.17.4h6.39v1.19h-6.39c-.71,0-1.37-.2-1.97-.59-.6-.4-1.08-.93-1.43-1.61-.35-.67-.52-1.41-.52-2.21s.17-1.53.52-2.21c.35-.67.83-1.21,1.43-1.6.6-.4,1.26-.59,1.97-.59h6.39Z"/>
      <polygon class="cls-17" points="74.25 6.7 83.04 6.7 83.04 7.89 75.45 7.89 75.45 10.29 83.04 10.29 83.04 11.49 75.45 11.49 75.45 14.29 83.04 14.29 83.04 15.48 74.25 15.48 74.25 6.7"/>
      <polygon class="cls-17" points="84.46 6.68 94.46 6.68 94.46 7.88 85.66 7.88 85.66 10.28 92.33 10.28 92.33 11.49 85.66 11.49 85.66 15.48 84.46 15.48 84.46 6.68"/>
      <path class="cls-17" d="M108.57,6.66v1.19h-6.39c-.25,0-.53.08-.84.23-.32.15-.63.39-.93.71-.22.23-.41.53-.57.9-.16.37-.24.83-.24,1.37,0,.36.06.72.17,1.06.11.35.28.67.49.97.19.26.44.53.75.78.31.26.7.39,1.17.4h6.39v1.19h-6.39c-.71,0-1.37-.2-1.97-.59-.6-.4-1.08-.93-1.43-1.61-.35-.67-.52-1.41-.52-2.21s.17-1.53.52-2.21c.35-.67.83-1.21,1.43-1.6.6-.4,1.26-.59,1.97-.59h6.39Z"/>
      <path class="cls-17" d="M116.67,10.95c.24.42.36.94.36,1.56,0-.1,0-.08,0,.06h0v.69c0,.58-.12,1.03-.33,1.34-.22.31-.48.53-.79.63-.31.11-.63.17-.98.17-.34,0-.6.02-.76.02h-3.15c-.49,0-.91-.18-1.26-.54-.35-.36-.52-.79-.52-1.3s.17-.95.52-1.31c.35-.36.76-.54,1.26-.54h4.83c0-.07-.02-.14-.04-.2-.02-.07-.04-.11-.06-.14-.09-.18-.23-.35-.39-.5-.17-.15-.36-.27-.57-.36-.21-.08-.42-.12-.65-.12h-4.64v-1.02h4.64c.54,0,1.03.14,1.5.42.22.13.41.29.57.46.16.18.31.4.46.65M115.97,13.4c0-.09,0-.29-.01-.62h-5.06c-.18,0-.33.08-.47.24-.13.16-.19.36-.19.58s.06.42.19.58c.13.16.29.24.47.24h3.28c.37,0,.67,0,.89-.02.22-.01.39-.07.53-.16.14-.1.23-.22.29-.35.05-.14.08-.3.1-.49"/>
      <path class="cls-17" d="M118.22,9.42l3.49,5.23h.12l3.49-5.23h1.18l-3.49,5.23c-.29.43-.47.71-.55.82h-1.37c-.15-.23-.34-.51-.55-.82l-3.49-5.23h1.17Z"/>
      <path class="cls-17" d="M133.85,10.95c.24.42.36.94.36,1.56,0-.1,0-.08,0,.06h0v.69c0,.58-.12,1.03-.33,1.34-.22.31-.48.53-.79.63-.31.11-.63.17-.98.17-.34,0-.6.02-.76.02h-3.15c-.49,0-.91-.18-1.26-.54-.35-.36-.52-.79-.52-1.3s.17-.95.52-1.31c.35-.36.76-.54,1.26-.54h4.83c0-.07-.02-.14-.04-.2-.02-.07-.04-.11-.06-.14-.09-.18-.23-.35-.39-.5-.17-.15-.36-.27-.57-.36-.21-.08-.42-.12-.65-.12h-4.64v-1.02h4.64c.54,0,1.03.14,1.5.42.22.13.41.29.57.46.16.18.31.4.46.65M133.16,13.4c0-.09,0-.29-.01-.62h-5.06c-.18,0-.33.08-.47.24-.13.16-.19.36-.19.58s.06.42.19.58c.13.16.29.24.47.24h3.28c.37,0,.67,0,.89-.02.22-.01.39-.07.53-.16.14-.1.23-.22.29-.35.05-.14.08-.3.1-.49"/>
      <path class="cls-17" d="M134.95,6.68h1.05,0v5.65c0,.41.1.78.3,1.1.2.32.44.57.73.75.29.18.57.27.83.27h2.15v1.05h-2.18c-.55,0-1.04-.17-1.48-.51-.44-.34-.78-.76-1.02-1.27-.25-.51-.37-1.01-.37-1.49v-5.56Z"/>
      <path class="cls-17" d="M142.19,7.73h-1.04v-1.04h1.04v1.04ZM142.19,15.46h-1.04v-6.35h1.04v6.35Z"/>
      <path class="cls-11" d="M40.51,27.63c.14.02.36.08.68.19.31.11.68.32,1.09.63.41.31.77.78,1.08,1.4.31.62.46,1.41.46,2.36s-.18,1.67-.54,2.27c-.36.6-.79,1.06-1.29,1.35-.5.29-.97.47-1.42.53h-7.62v-8.73h7.57ZM40.45,35.18c.23-.04.52-.14.84-.3.32-.16.63-.46.92-.9.29-.43.43-1.03.43-1.78,0-.88-.15-1.57-.45-2.07-.3-.5-.62-.84-.95-1.01-.33-.18-.61-.28-.84-.32h-6.28v6.38h6.33Z"/>
      <rect class="cls-11" x="44.64" y="27.64" width="1.19" height="8.7"/>
      <path class="cls-11" d="M52.31,30.01c.77-.01,1.46-.13,2.06-.34.61-.22,1.08-.43,1.4-.65.33-.22.55-.38.66-.49l.96-.91v8.75h-1.14v-6.32c-.5.3-1.08.55-1.75.76-.66.21-1.39.32-2.18.33-.83,0-1.61-.1-2.33-.32-.72-.22-1.36-.49-1.92-.82v6.36h-1.14v-8.75l1,.87c.14.13.39.3.75.53.36.23.86.45,1.51.68.64.23,1.35.33,2.11.32"/>
      <rect class="cls-10" x="59.09" y="31.33" width="2.29" height="1.16"/>
      <rect class="cls-17" x="95.2" y="31.33" width="2.29" height="1.16"/>
      <path class="cls-17" d="M72.93,27.55v1.19h-6.39c-.25,0-.53.08-.84.23-.32.15-.63.39-.93.71-.22.23-.41.53-.57.9-.16.37-.24.83-.24,1.37,0,.36.06.72.17,1.06.11.35.28.67.49.97.19.26.44.53.75.78.31.26.7.39,1.17.4h6.39v1.19h-6.39c-.71,0-1.37-.2-1.97-.59-.6-.4-1.08-.93-1.43-1.61-.35-.68-.52-1.41-.52-2.21s.17-1.53.52-2.21c.35-.67.83-1.21,1.43-1.6.6-.4,1.26-.59,1.97-.59h6.39Z"/>
      <polygon class="cls-17" points="74.28 27.59 83.07 27.59 83.07 28.78 75.48 28.78 75.48 31.18 83.07 31.18 83.07 32.38 75.48 32.38 75.48 35.18 83.07 35.18 83.07 36.37 74.28 36.37 74.28 27.59"/>
      <polygon class="cls-17" points="84.5 27.57 94.49 27.57 94.49 28.77 85.7 28.77 85.7 31.17 92.36 31.17 92.36 32.38 85.7 32.38 85.7 36.37 84.5 36.37 84.5 27.57"/>
      <path class="cls-17" d="M108.61,27.55v1.19h-6.39c-.25,0-.53.08-.84.23-.32.15-.63.39-.93.71-.22.23-.41.53-.57.9-.16.37-.24.83-.24,1.37,0,.36.06.72.17,1.06.11.35.28.67.49.97.19.26.44.53.75.78.31.26.7.39,1.17.4h6.39v1.19h-6.39c-.71,0-1.37-.2-1.97-.59-.6-.4-1.08-.93-1.43-1.61-.35-.68-.52-1.41-.52-2.21s.17-1.53.52-2.21c.35-.67.83-1.21,1.43-1.6.6-.4,1.26-.59,1.97-.59h6.39Z"/>
      <path class="cls-17" d="M116.7,31.84c.24.42.36.94.36,1.56,0-.1,0-.08,0,.06h0v.69c0,.58-.12,1.03-.33,1.34-.22.32-.48.53-.79.63-.31.11-.63.17-.98.18-.34,0-.6.02-.76.02h-3.15c-.49,0-.91-.18-1.26-.54-.35-.36-.52-.79-.52-1.3s.17-.95.52-1.31c.35-.36.76-.54,1.26-.54h4.83c0-.07-.02-.14-.04-.2-.02-.07-.04-.11-.06-.14-.09-.18-.23-.35-.39-.5-.17-.15-.36-.27-.57-.36-.21-.08-.42-.12-.65-.12h-4.64v-1.02h4.64c.54,0,1.03.14,1.5.42.22.13.41.29.57.47.16.18.31.4.46.65M116.01,34.29c0-.09,0-.29-.01-.62h-5.06c-.18,0-.33.08-.47.24-.13.16-.19.36-.19.58s.06.42.19.58c.13.16.29.24.47.24h3.28c.37,0,.67,0,.89-.02.22-.01.39-.07.53-.16.14-.1.23-.22.29-.35.05-.14.08-.3.1-.49"/>
      <path class="cls-17" d="M118.25,30.31l3.49,5.23h.12l3.49-5.23h1.18l-3.49,5.23c-.29.43-.47.71-.55.82h-1.37c-.15-.23-.34-.51-.55-.82l-3.49-5.23h1.17Z"/>
      <path class="cls-17" d="M133.89,31.84c.24.42.36.94.36,1.56,0-.1,0-.08,0,.06h0v.69c0,.58-.12,1.03-.33,1.34-.22.32-.48.53-.79.63-.31.11-.63.17-.98.18-.34,0-.6.02-.76.02h-3.15c-.49,0-.91-.18-1.26-.54-.35-.36-.52-.79-.52-1.3s.17-.95.52-1.31c.35-.36.76-.54,1.26-.54h4.83c0-.07-.02-.14-.04-.2-.02-.07-.04-.11-.06-.14-.09-.18-.23-.35-.39-.5-.17-.15-.36-.27-.57-.36-.21-.08-.42-.12-.65-.12h-4.64v-1.02h4.64c.54,0,1.03.14,1.5.42.22.13.41.29.57.47.16.18.31.4.46.65M133.19,34.29c0-.09,0-.29-.01-.62h-5.06c-.18,0-.33.08-.47.24-.13.16-.19.36-.19.58s.06.42.19.58c.13.16.29.24.47.24h3.28c.37,0,.67,0,.89-.02.22-.01.39-.07.53-.16.14-.1.23-.22.29-.35.05-.14.08-.3.1-.49"/>
      <path class="cls-17" d="M134.98,27.57h1.05,0v5.65c0,.41.1.78.3,1.1.2.32.44.57.73.75.29.18.57.27.83.27h2.15v1.05h-2.18c-.55,0-1.04-.17-1.48-.51-.44-.34-.78-.76-1.02-1.27-.25-.51-.37-1.01-.37-1.49v-5.56Z"/>
      <path class="cls-17" d="M142.23,28.62h-1.04v-1.04h1.04v1.04ZM142.23,36.35h-1.04v-6.35h1.04v6.35Z"/>
      <g>
        <path class="cls-8" d="M129.32,196.44h-37.33c-2.35,0-4.26-1.91-4.26-4.26v-41.49c0-2.35,1.91-4.26,4.26-4.26h37.33c2.35,0,4.26,1.91,4.26,4.26v41.49c0,2.35-1.91,4.26-4.26,4.26"/>
        <path class="cls-7" d="M130.29,193.01h-39.26c-.83,0-1.49-.67-1.49-1.49v-40.48c0-.82.67-1.49,1.49-1.49h39.26c.82,0,1.49.67,1.49,1.49v40.48c0,.82-.67,1.49-1.49,1.49"/>
        <rect class="cls-9" x="99.53" y="158.73" width="2.59" height="11.87"/>
        <rect class="cls-9" x="106.39" y="162.44" width="2.59" height="8.17"/>
        <rect class="cls-9" x="113.26" y="160.09" width="2.59" height="10.52"/>
        <rect class="cls-9" x="119.56" y="164.82" width="2.59" height="5.79"/>
        <polygon class="cls-14" points="123.57 170.9 94.71 170.9 94.71 154.8 95.35 154.8 95.35 170.32 123.57 170.32 123.57 170.9"/>
        <path class="cls-9" d="M120.13,184.12l5.32-3.86c2.13,2.94,1.48,7.05-1.45,9.18-2.94,2.14-7.05,1.48-9.18-1.45-2.13-2.94-1.48-7.05,1.45-9.18,1.18-.85,2.41-1.26,3.86-1.26v6.57Z"/>
        <path class="cls-13" d="M120.13,184.12v-6.57c2.18,0,4.04.95,5.32,2.71l-5.32,3.86Z"/>
        <path class="cls-9" d="M102.75,179.58l-3.45-5.79c4.65-2.08,8.63.47,10.07,3.25l-6.61,2.54Z"/>
        <path class="cls-14" d="M101.57,182.96l7.84-1.94c.16.64.24,1.29.24,1.94,0,4.43-3.65,8.08-8.08,8.08s-8.08-3.65-8.08-8.08c0-2.77,1.43-5.36,3.77-6.84l4.3,6.84Z"/>
        <path class="cls-7" d="M106.95,182.95c0,2.96-2.4,5.36-5.37,5.36s-5.37-2.4-5.37-5.36,2.4-5.36,5.37-5.36,5.37,2.4,5.37,5.36"/>
        <path class="cls-8" d="M104.66,182.95c0,1.7-1.38,3.08-3.08,3.08s-3.08-1.38-3.08-3.08,1.38-3.08,3.08-3.08,3.08,1.38,3.08,3.08"/>
        <polygon class="cls-7" points="114.74 141.35 136.93 141.35 142.23 151.63 131.2 172.98 120.52 172.98 109.45 151.63 114.74 141.35"/>
        <path class="cls-9" d="M114.89,141.66l-.17.33,15.96,30.86h.34l-16.12-31.19ZM114.1,143.19l15.34,29.66h.34l-15.51-29.99-.17.33ZM113.48,144.39l14.72,28.46h.34l-14.89-28.79-.17.33ZM112.87,145.59l14.1,27.26h.34l-14.26-27.59-.17.33ZM112.25,146.79l13.47,26.06h.34l-13.64-26.39-.17.33ZM111.63,147.99l12.86,24.86h.34l-13.02-25.19-.17.33ZM111.01,149.19l12.23,23.66h.34l-12.4-23.99-.17.33ZM110.39,150.39l11.61,22.46h.34l-11.78-22.79-.17.33ZM109.77,151.59l10.99,21.26h.34l-11.16-21.59-.17.33Z"/>
        <path class="cls-9" d="M136.89,141.68l-16.12,31.18h.34l15.95-30.85-.17-.33ZM137.51,142.88l-15.5,29.98h.34l15.33-29.65-.17-.33ZM138.12,144.08l-14.88,28.78h.34l14.71-28.45-.17-.33ZM138.74,145.28l-14.26,27.58h.34l14.09-27.25-.17-.33ZM139.36,146.47l-13.64,26.38h.34l13.47-26.05-.17-.33ZM139.98,147.67l-13.02,25.18h.34l12.85-24.85-.17-.33ZM140.6,148.87l-12.4,23.98h.34l12.23-23.65-.17-.33ZM141.22,150.07l-11.78,22.78h.34l11.61-22.45-.17-.33ZM141.84,151.27l-11.16,21.58h.34l10.99-21.25-.17-.33Z"/>
        <path class="cls-9" d="M109.77,151.57h32.24l-.17-.33h-31.9l-.17.33ZM110.39,150.38h31l-.17-.33h-30.66l-.17.33ZM111.01,149.18h29.76l-.17-.33h-29.43l-.17.33ZM111.63,147.98h28.53l-.17-.33h-28.19l-.17.33ZM112.24,146.78h27.29l-.17-.33h-26.95l-.17.33ZM112.86,145.58h26.06l-.17-.33h-25.72l-.17.33ZM113.48,144.38h24.82l-.17-.33h-24.48l-.17.33ZM114.1,143.19h23.58l-.17-.33h-23.25l-.17.33ZM136.89,141.66h-22.01l-.17.33h22.35l-.17-.33Z"/>
      </g>
      <g>
        <path class="cls-8" d="M70.77,202.6h1.14v8.37h-1.14v-8.37Z"/>
        <path class="cls-8" d="M76.3,206.41c-.25.09-.46.21-.62.38s-.29.37-.38.63-.13.51-.13.76.04.5.13.76.21.46.38.63.37.29.62.38.5.13.75.13h4.61v.93h-4.61c-.51,0-.98-.13-1.41-.38-.43-.25-.77-.59-1.03-1.03-.25-.43-.38-.9-.38-1.41s.12-.98.38-1.41c.25-.43.6-.78,1.03-1.03.43-.25.9-.38,1.41-.38h4.61v.93h-4.61c-.25,0-.5.04-.75.13Z"/>
        <path class="cls-8" d="M87.78,205.34c.5-.02.94.02,1.32.14s.68.28.92.49.42.43.56.66.23.45.29.66.1.38.11.53.02.21.02.19v.33c0,.24-.06.52-.18.83s-.3.61-.55.89-.57.51-.97.69-.85.25-1.38.22h-1.05c-.52.03-.98-.05-1.38-.22s-.72-.4-.97-.69-.43-.58-.55-.89-.18-.59-.18-.83v-.33s0-.04.02-.19.05-.33.11-.53.16-.42.29-.66.32-.46.56-.66.55-.37.92-.49.81-.16,1.32-.14h.76ZM88.15,210.03c.7,0,1.19-.17,1.47-.51s.45-.7.49-1.09v-.16s.01-.26.01-.26v-.18c-.05-.37-.22-.72-.5-1.06s-.77-.51-1.48-.51h-1.49c-.7,0-1.2.17-1.48.51s-.44.7-.48,1.06l-.02.18v.25l.02.18c.04.39.2.75.49,1.09s.78.51,1.47.51h1.49Z"/>
        <path class="cls-8" d="M100.11,206.67c.25.44.38.92.38,1.44v2.87h-.94v-2.87c0-.26-.04-.52-.13-.77s-.21-.47-.38-.64c-.16-.17-.36-.3-.61-.39s-.49-.13-.74-.13h-1.78c-.48,0-1.1,0-1.86,0,0-.22,0-.01,0,.62s0,1.06,0,1.25v2.94h-.94v-5.74h4.58c.5,0,.97.13,1.4.38.43.26.77.61,1.03,1.05Z"/>
        <path class="cls-8" d="M106.64,205.34c.5-.02.94.02,1.32.14s.68.28.92.49.42.43.56.66.23.45.29.66.1.38.11.53.02.21.02.19v.33c0,.24-.06.52-.18.83s-.3.61-.55.89-.57.51-.97.69-.85.25-1.38.22h-1.05c-.52.03-.98-.05-1.38-.22s-.72-.4-.97-.69-.43-.58-.55-.89-.18-.59-.18-.83v-.33s0-.04.02-.19.05-.33.11-.53.16-.42.29-.66.32-.46.56-.66.55-.37.92-.49.81-.16,1.32-.14h.76ZM107,210.03c.7,0,1.19-.17,1.47-.51s.45-.7.49-1.09v-.16s.01-.26.01-.26v-.18c-.05-.37-.22-.72-.5-1.06s-.77-.51-1.48-.51h-1.49c-.7,0-1.2.17-1.48.51s-.44.7-.48,1.06l-.02.18v.25l.02.18c.04.39.2.75.49,1.09s.78.51,1.47.51h1.49Z"/>
        <path class="cls-8" d="M122.06,206.66c.23.4.35.9.35,1.49,0-.09,0-.07,0,.06h0v.66c0,.55-.11.98-.32,1.28s-.46.5-.76.61-.61.16-.93.17-.57.02-.73.02h-3.01c-.47,0-.87-.17-1.2-.52s-.5-.76-.5-1.24.17-.9.5-1.25c.33-.35.73-.52,1.2-.52h4.61c0-.07-.02-.13-.04-.19s-.04-.11-.05-.13c-.09-.18-.21-.34-.38-.48s-.34-.26-.54-.34c-.2-.08-.41-.12-.62-.12h-4.44v-.9c0-.08,0-.1,0-.08h4.44c.51,0,.99.13,1.43.4.21.12.39.27.55.45s.3.38.44.62ZM121.39,209c0-.08,0-.28-.01-.59h-4.83c-.17,0-.32.08-.45.23-.12.16-.18.34-.18.56s.06.4.18.56c.12.15.27.23.45.23h3.13c.36,0,.64,0,.85-.02s.38-.07.5-.16c.13-.09.22-.21.27-.34s.08-.29.09-.47Z"/>
        <path class="cls-8" d="M125.48,213.04h-.91c0,.05,0,0,0-.16v-5.33c0-.35.13-.69.4-1.02s.59-.6.98-.81.75-.31,1.08-.31h1.71c.53-.02.99.05,1.39.22s.72.39.97.67.44.57.56.88.18.58.18.82v.32s0,.04-.02.18-.05.32-.11.52-.16.42-.3.65-.33.45-.57.65-.55.36-.92.48-.82.16-1.32.14h-3.11v2.1ZM125.48,210.03h3.47c.57,0,1-.12,1.29-.35s.48-.47.57-.73.13-.46.13-.62v-.28c0-.19-.04-.42-.13-.68s-.28-.5-.57-.73-.72-.33-1.27-.33h-1.88c-.24,0-.49.07-.74.22s-.46.34-.62.56-.24.45-.24.66v2.26Z"/>
        <path class="cls-8" d="M134.9,213.04h-.91c0,.05,0,0,0-.16v-5.33c0-.35.13-.69.4-1.02s.59-.6.98-.81.75-.31,1.08-.31h1.71c.53-.02.99.05,1.39.22s.72.39.97.67.44.57.56.88.18.58.18.82v.32s0,.04-.02.18-.05.32-.11.52-.16.42-.3.65-.33.45-.57.65-.55.36-.92.48-.82.16-1.32.14h-3.11v2.1ZM134.9,210.03h3.47c.57,0,1-.12,1.29-.35s.48-.47.57-.73.13-.46.13-.62v-.28c0-.19-.04-.42-.13-.68s-.28-.5-.57-.73-.72-.33-1.27-.33h-1.88c-.24,0-.49.07-.74.22s-.46.34-.62.56-.24.45-.24.66v2.26Z"/>
      </g>
    </g>
  </g>
</svg>