<?xml version="1.0" encoding="UTF-8"?>
<svg id="Capa_2" xmlns="http://www.w3.org/2000/svg" xmlns:xlink="http://www.w3.org/1999/xlink" viewBox="0 0 94.68 207.56">
  <defs>
    <style>
      .cls-1 {
        fill: #f9cf16;
      }

      .cls-2 {
        fill: #cd142a;
      }

      .cls-3 {
        fill: #4a4a4a;
      }

      .cls-4 {
        fill: #e36a8c;
      }

      .cls-5 {
        fill: #b4b4b4;
      }

      .cls-6 {
        fill: #646365;
      }

      .cls-7 {
        fill: #888688;
      }

      .cls-8 {
        fill: #f8f8f8;
      }

      .cls-9 {
        fill: #fff;
      }

      .cls-10 {
        fill: #115a9f;
      }

      .cls-11 {
        fill: #625f60;
      }

      .cls-12 {
        fill: #505050;
      }

      .cls-13 {
        fill: none;
      }

      .cls-14 {
        fill: #4780b4;
      }

      .cls-15 {
        clip-path: url(#clippath-1);
      }

      .cls-16 {
        fill: #d00e4d;
      }

      .cls-17 {
        fill: #d7d5d6;
      }

      .cls-18 {
        fill: #d00e4c;
      }

      .cls-19 {
        fill: #d22e1f;
      }

      .cls-20 {
        fill: #9d9a9c;
      }

      .cls-21 {
        fill: #d20f48;
      }

      .cls-22 {
        fill: #333233;
      }

      .cls-23 {
        fill: #1d458c;
      }

      .cls-24 {
        fill: #dd4c75;
      }

      .cls-25 {
        fill: #e8f5f9;
      }

      .cls-26 {
        fill: #48a98e;
      }

      .cls-27 {
        fill: #e1222c;
      }

      .cls-28 {
        clip-path: url(#clippath);
      }

      .cls-29 {
        fill: #828384;
      }

      .cls-30 {
        opacity: .5;
      }

      .cls-31 {
        fill: #1b4180;
      }
    </style>
    <clipPath id="clippath">
      <rect class="cls-13" x="63.19" y="81.9" width="17.92" height="17.94"/>
    </clipPath>
    <clipPath id="clippath-1">
      <rect class="cls-13" x="51.34" y="161.93" width="14.17" height="14.16"/>
    </clipPath>
  </defs>
  <g id="Capa_1-2" data-name="Capa_1">
    <g>
      <path class="cls-18" d="M40.51,27.71c.14.02.36.08.68.18.32.11.68.32,1.09.63.41.31.77.78,1.08,1.4.31.62.46,1.41.47,2.36s-.18,1.67-.53,2.27c-.36.61-.79,1.06-1.29,1.35-.5.3-.97.47-1.42.53h-.04s-7.58.02-7.58.02l-.02-8.73,7.57-.02ZM40.47,35.27c.23-.04.52-.14.84-.31.32-.16.63-.46.91-.9.28-.43.43-1.03.42-1.78,0-.88-.15-1.57-.46-2.07-.3-.5-.62-.84-.95-1.01-.33-.18-.61-.28-.84-.32l-6.28.02.02,6.38,6.33-.02Z"/>
      <rect class="cls-18" x="44.65" y="27.71" width="1.19" height="8.7" transform="translate(-.09 .13) rotate(-.16)"/>
      <path class="cls-18" d="M52.31,30.07c.77-.01,1.46-.13,2.06-.35.61-.22,1.08-.44,1.4-.66.33-.22.54-.38.65-.49l.96-.92.02,8.75h-1.14s-.02-6.31-.02-6.31c-.5.3-1.08.56-1.74.77-.66.21-1.39.32-2.18.34-.83.01-1.61-.09-2.33-.31-.72-.22-1.36-.49-1.92-.81l.02,6.36h-1.14s-.02-8.75-.02-8.75l1,.86c.14.13.39.3.75.53.36.23.86.45,1.51.67.64.22,1.35.33,2.11.31"/>
      <rect class="cls-16" x="59.1" y="31.36" width="2.29" height="1.16" transform="translate(-.09 .17) rotate(-.16)"/>
      <g>
        <path class="cls-29" d="M72.93,27.55v1.19s-6.39.02-6.39.02c-.25,0-.53.08-.84.23s-.62.39-.93.71c-.22.23-.41.53-.57.91-.16.37-.24.83-.24,1.37,0,.36.06.72.17,1.06.12.35.28.67.49.96.19.26.44.53.75.78s.71.39,1.18.39l6.39-.02v1.19s-6.39.02-6.39.02c-.71,0-1.37-.19-1.97-.58-.6-.39-1.08-.93-1.43-1.6-.35-.67-.52-1.41-.53-2.21,0-.8.17-1.53.51-2.21.35-.68.82-1.21,1.42-1.6.6-.4,1.25-.6,1.97-.6l6.39-.02Z"/>
        <path class="cls-29" d="M74.29,27.58l8.79-.02v1.2s-7.59.02-7.59.02v2.4s7.6-.02,7.6-.02v1.2s-7.59.02-7.59.02v2.8s7.6-.02,7.6-.02v1.2s-8.78.02-8.78.02l-.02-8.79Z"/>
        <path class="cls-29" d="M94.65,27.49v1.19s-6.39.02-6.39.02c-.25,0-.53.08-.84.23s-.63.39-.93.71c-.22.23-.41.53-.57.91s-.24.83-.24,1.37c0,.36.06.72.17,1.06.12.35.28.67.49.96.19.26.44.53.75.78.31.26.71.39,1.18.39l6.39-.02v1.19s-6.39.02-6.39.02c-.71,0-1.37-.19-1.97-.58-.6-.39-1.08-.93-1.43-1.6-.35-.67-.52-1.41-.53-2.21,0-.8.17-1.53.52-2.21.35-.68.82-1.21,1.42-1.6.6-.4,1.26-.6,1.97-.6l6.39-.02Z"/>
      </g>
    </g>
    <g>
      <rect class="cls-20" x="13.74" y="61.3" width="64.33" height="44.46"/>
      <rect class="cls-9" x="15.75" y="63.33" width="60.31" height="40.42"/>
      <rect class="cls-21" x="15.75" y="63.33" width="60.31" height="4.37"/>
      <path class="cls-9" d="M74.56,65.51c0,.59-.48,1.08-1.08,1.08s-1.08-.48-1.08-1.08.48-1.08,1.08-1.08,1.08.48,1.08,1.08"/>
      <path class="cls-9" d="M70.74,65.51c0,.59-.48,1.08-1.08,1.08s-1.08-.48-1.08-1.08.48-1.08,1.08-1.08,1.08.48,1.08,1.08"/>
      <path class="cls-9" d="M66.92,65.51c0,.59-.48,1.08-1.08,1.08s-1.08-.48-1.08-1.08.48-1.08,1.08-1.08,1.08.48,1.08,1.08"/>
      <rect class="cls-5" x="29.97" y="89.9" width="5.97" height="1.36"/>
      <rect class="cls-5" x="22.05" y="89.9" width="6.57" height="1.36"/>
      <rect class="cls-5" x="18.07" y="89.9" width="2.63" height="1.36"/>
      <rect class="cls-5" x="26.97" y="92.95" width="8.98" height="1.35"/>
      <rect class="cls-5" x="18.07" y="92.95" width="7.54" height="1.35"/>
      <rect class="cls-5" x="30.95" y="96" width="5" height="1.36"/>
      <rect class="cls-5" x="21.58" y="96" width="8.01" height="1.36"/>
      <rect class="cls-5" x="18.07" y="96" width="2.16" height="1.36"/>
      <rect class="cls-5" x="61.67" y="70.24" width="6.42" height="1.25"/>
      <rect class="cls-5" x="53.15" y="70.24" width="7.06" height="1.25"/>
      <rect class="cls-5" x="48.87" y="70.24" width="2.82" height="1.25"/>
      <rect class="cls-5" x="58.44" y="73.06" width="9.66" height="1.25"/>
      <rect class="cls-5" x="48.87" y="73.06" width="8.11" height="1.25"/>
      <rect class="cls-5" x="62.71" y="75.88" width="5.38" height="1.25"/>
      <rect class="cls-5" x="52.65" y="75.88" width="8.61" height="1.25"/>
      <rect class="cls-5" x="48.87" y="75.88" width="2.32" height="1.25"/>
      <rect class="cls-17" x="18.09" y="69.74" width="28.51" height="17"/>
      <polygon class="cls-11" points="44.17 84.87 19.92 84.87 19.92 72.3 20.29 72.3 20.29 84.49 44.17 84.49 44.17 84.87"/>
      <path class="cls-11" d="M45.28,84.68c-.52-.2-1.17-.55-1.57-.92l.31.92-.31.92c.4-.37,1.05-.71,1.57-.92"/>
      <path class="cls-11" d="M20.1,71.14c.19.55.52,1.23.88,1.65l-.88-.33-.87.33c.35-.42.68-1.1.87-1.65"/>
      <rect class="cls-21" x="23.63" y="73.43" width="2.82" height="9.19"/>
      <rect class="cls-24" x="27.47" y="74.41" width="2.81" height="8.21"/>
      <rect class="cls-24" x="39.19" y="74.38" width="2.81" height="8.21"/>
      <rect class="cls-4" x="31.31" y="78.43" width="2.82" height="4.19"/>
      <rect class="cls-21" x="35.15" y="76.96" width="2.82" height="5.66"/>
      <rect class="cls-17" x="39.58" y="79.19" width="31.85" height="20.94"/>
      <polygon class="cls-11" points="68.75 97.57 41.63 97.57 41.63 82.99 42.04 82.99 42.04 97.13 68.75 97.13 68.75 97.57"/>
      <path class="cls-11" d="M69.99,97.35c-.58-.23-1.31-.63-1.75-1.06l.35,1.06-.35,1.06c.45-.42,1.17-.83,1.75-1.06"/>
      <path class="cls-11" d="M41.84,81.65c.22.63.59,1.42.98,1.91l-.98-.38-.97.38c.39-.49.76-1.27.97-1.91"/>
      <polygon class="cls-20" points="66.83 83.55 62.69 90.06 56.41 91.68 51.46 86.84 44.22 91.42 43.94 90.91 51.54 86.11 56.43 90.89 62.28 89.42 66.22 83.21 66.83 83.55"/>
      <path class="cls-11" d="M45.07,91.16c0,.6-.44,1.08-.99,1.08s-.99-.48-.99-1.08.44-1.08.99-1.08.99.48.99,1.08"/>
      <path class="cls-26" d="M52.49,86.47c0,.6-.44,1.08-.99,1.08s-.99-.48-.99-1.08.44-1.08.99-1.08.99.48.99,1.08"/>
      <path class="cls-21" d="M57.5,91.67c0,.6-.44,1.08-.99,1.08s-.99-.48-.99-1.08.45-1.08.99-1.08.99.48.99,1.08"/>
      <path class="cls-14" d="M63.29,90.18c0,.6-.45,1.08-.99,1.08s-.99-.48-.99-1.08.44-1.08.99-1.08.99.48.99,1.08"/>
      <path class="cls-21" d="M67.39,83.61c0,.6-.45,1.08-.99,1.08s-1-.48-1-1.08.45-1.08,1-1.08.99.48.99,1.08"/>
      <path class="cls-10" d="M80.06,58.57h-21.4c-1.09,0-1.98.91-1.98,2.03v40.32c0,1.12.89,2.03,1.98,2.03h29.5c1.09,0,1.98-.91,1.98-2.03v-31.65l-10.07-10.69Z"/>
      <path class="cls-26" d="M79.29,60.53h-18.95c-.97,0-1.75.83-1.75,1.85v36.74c0,1.02.78,1.85,1.75,1.85h26.12c.97,0,1.75-.83,1.75-1.85v-28.85l-8.92-9.75Z"/>
      <path class="cls-9" d="M76.63,71.18l-.1-9c0-.47-.38-.85-.84-.85h-15.37c-.46,0-.84.38-.84.86v37.13c0,.47.37.86.84.86h26.15c.46,0,.84-.38.84-.86v-26.43c0-.47-.37-.86-.84-.86h-9.01c-.46,0-.83-.38-.84-.85"/>
      <path class="cls-21" d="M65.48,74.85c0,.96-.78,1.74-1.74,1.74s-1.74-.78-1.74-1.74.78-1.74,1.74-1.74,1.74.78,1.74,1.74"/>
      <rect class="cls-21" x="67.02" y="73.68" width="17.1" height="2.35"/>
      <path class="cls-21" d="M65.48,80.29c0,.96-.78,1.74-1.74,1.74s-1.74-.78-1.74-1.74.78-1.74,1.74-1.74,1.74.78,1.74,1.74"/>
      <rect class="cls-21" x="67.02" y="79.11" width="17.1" height="2.35"/>
      <path class="cls-21" d="M65.48,85.58c0,.96-.78,1.74-1.74,1.74s-1.74-.78-1.74-1.74.78-1.74,1.74-1.74,1.74.78,1.74,1.74"/>
      <rect class="cls-21" x="67.02" y="84.41" width="17.1" height="2.35"/>
      <path class="cls-21" d="M65.48,90.94c0,.96-.78,1.74-1.74,1.74s-1.74-.78-1.74-1.74.78-1.74,1.74-1.74,1.74.78,1.74,1.74"/>
      <rect class="cls-21" x="67.07" y="89.76" width="17.1" height="2.35"/>
      <path class="cls-20" d="M61.94,64.75h0c0-.68.57-1.24,1.28-1.24h10.14c.71,0,1.28.56,1.28,1.24s-.57,1.24-1.28,1.24h-10.14c-.71,0-1.28-.56-1.28-1.24"/>
      <path class="cls-14" d="M6.16,90h12.78c.12,0,.23.03.33.09l6.59,3.77c.1.06.21.09.33.09h25.69c.33,0,.6.23.6.51v24.76c0,.28-.27.51-.6.51H6.16c-.33,0-.6-.23-.6-.51v-28.71c0-.28.27-.51.6-.51"/>
      <path class="cls-9" d="M44.66,116.77H13.61c-.68,0-1.24-.55-1.24-1.24s.55-1.24,1.24-1.24h31.05c.68,0,1.24.55,1.24,1.24s-.55,1.24-1.24,1.24"/>
      <rect class="cls-11" x="14.97" y="115.12" width="13.34" height=".81"/>
      <rect class="cls-11" x="30.16" y="115.12" width="13.34" height=".81"/>
      <rect class="cls-22" x="84.9" y="94.73" width="1.93" height="19.72" transform="translate(-48.81 91.37) rotate(-45.01)"/>
      <path class="cls-11" d="M72.14,101.95c-1.95,0-3.86-.51-5.53-1.48-1.68-.97-3.09-2.37-4.06-4.06-.97-1.68-1.49-3.59-1.49-5.54s.52-3.86,1.49-5.54c.97-1.68,2.38-3.08,4.06-4.06,3.36-1.94,7.72-1.94,11.08,0,1.69.98,3.09,2.38,4.06,4.06.98,1.68,1.49,3.59,1.49,5.54s-.51,3.86-1.49,5.54c-.97,1.68-2.37,3.08-4.06,4.06-1.68.97-3.59,1.48-5.54,1.48M72.14,82.04c-1.54,0-3.08.41-4.41,1.18-1.35.77-2.46,1.89-3.23,3.23-.77,1.34-1.18,2.86-1.18,4.42s.41,3.08,1.18,4.42c.78,1.34,1.89,2.46,3.23,3.23,2.68,1.54,6.17,1.54,8.83,0,1.34-.78,2.46-1.89,3.23-3.23.78-1.34,1.19-2.87,1.19-4.42s-.41-3.08-1.19-4.42c-.78-1.34-1.89-2.46-3.23-3.23-1.33-.77-2.87-1.18-4.42-1.18"/>
      <path class="cls-7" d="M93.83,113.02c-.5.5-1.31.5-1.82,0l-10.69-10.7c-.12-.12-.19-.28-.19-.46s.07-.33.19-.45l1.37-1.36c.25-.25.66-.25.91,0l10.69,10.69c.24.24.24,1.58,0,1.82l-.46.46Z"/>
      <g class="cls-30">
        <g class="cls-28">
          <path class="cls-25" d="M81.11,90.87c0,1.63-.43,3.16-1.2,4.48-.78,1.36-1.91,2.49-3.28,3.28-1.32.76-2.85,1.2-4.49,1.2s-3.16-.44-4.48-1.2c-1.36-.79-2.5-1.92-3.28-3.28-.77-1.32-1.2-2.85-1.2-4.48s.43-3.17,1.2-4.48c.78-1.36,1.92-2.49,3.28-3.28,1.32-.76,2.86-1.2,4.48-1.2s3.17.44,4.49,1.2c1.37.79,2.5,1.92,3.28,3.28.77,1.32,1.2,2.85,1.2,4.48"/>
        </g>
      </g>
      <path class="cls-20" d="M83.6,100.05c-.24-.25-.66-.25-.9,0l-.64.63,12.06,12.06.19-.18c.23-.24.38-.57.38-.91s-.15-.67-.38-.91l-10.7-10.7Z"/>
    </g>
    <g>
      <rect class="cls-1" x="90.49" y="17.9" width="4.16" height="1.32" transform="translate(-.05 .26) rotate(-.16)"/>
      <rect class="cls-31" x="90.5" y="19.22" width="4.16" height=".66" transform="translate(-.05 .26) rotate(-.16)"/>
      <rect class="cls-2" x="90.5" y="19.87" width="4.16" height=".66" transform="translate(-.06 .26) rotate(-.16)"/>
      <rect class="cls-27" x="85.41" y="17.92" width="1.39" height="2.63" transform="translate(-.05 .24) rotate(-.16)"/>
      <rect class="cls-27" x="88.18" y="17.91" width="1.39" height="2.63" transform="translate(-.05 .25) rotate(-.16)"/>
      <rect class="cls-9" x="86.79" y="17.91" width="1.39" height="2.63" transform="translate(-.05 .24) rotate(-.16)"/>
      <polyline class="cls-19" points="84.48 20.56 80.32 20.57 80.31 19.25 84.47 19.24"/>
      <rect class="cls-23" x="80.31" y="17.93" width="1.39" height="1.32" transform="translate(-.05 .22) rotate(-.16)"/>
      <rect class="cls-9" x="81.7" y="17.92" width="2.77" height="1.32" transform="translate(-.05 .23) rotate(-.16)"/>
      <polygon class="cls-9" points="80.67 18.49 80.93 18.49 81 18.26 81.08 18.49 81.33 18.49 81.13 18.63 81.21 18.86 81 18.71 80.8 18.86 80.88 18.63 80.67 18.49"/>
      <path class="cls-6" d="M33.16,21.27h-.26s0-.05,0-.05v-1.51c0-.1.03-.2.11-.29.08-.09.17-.17.28-.23.11-.06.21-.09.31-.09h.48c.15,0,.28.01.39.06.11.05.21.11.28.19.07.08.12.16.16.25.03.09.05.16.05.23v.09s0,.01,0,.05c0,.04-.01.09-.03.15-.02.06-.04.12-.08.18-.04.07-.09.13-.16.18-.07.06-.15.1-.26.14-.11.03-.23.05-.38.04h-.88s0,.6,0,.6ZM33.16,20.42h.99c.16,0,.28-.04.37-.1.08-.07.14-.13.16-.21.02-.07.03-.13.03-.17v-.08c0-.05-.01-.12-.04-.19-.03-.07-.08-.14-.16-.21-.08-.06-.2-.1-.36-.09h-.53c-.07,0-.14.02-.21.07-.07.04-.13.1-.17.16-.05.07-.07.13-.07.19v.64Z"/>
      <path class="cls-6" d="M37.19,19.32h-.91s-.1,0-.15,0-.11,0-.16.02c-.05.02-.09.04-.13.08-.04.04-.06.08-.08.13-.01.05-.02.09-.02.13,0,.04,0,.1,0,.19v.79s0,.02-.02.02h-.22s-.02,0-.02-.02v-.82s0-.09,0-.17c0-.08.02-.17.05-.25.03-.08.09-.16.17-.22.05-.04.11-.07.17-.09.06-.02.12-.04.17-.04s.11-.01.15-.01h.09s.91,0,.91,0v.27Z"/>
      <path class="cls-6" d="M38.84,19.07c.14,0,.27,0,.37.04.11.03.19.08.26.14.07.06.12.12.16.19.04.07.07.13.08.19.02.06.03.11.03.15,0,.04,0,.06,0,.05v.1c0,.07-.02.15-.05.24-.03.09-.09.17-.16.25-.07.08-.16.15-.27.2-.11.05-.24.07-.39.06h-.3c-.15,0-.28-.01-.39-.06-.11-.05-.2-.11-.28-.19-.07-.08-.12-.16-.16-.25-.03-.09-.05-.17-.05-.23v-.1s0-.01,0-.05c0-.04.02-.09.03-.15.02-.06.04-.12.08-.19.04-.07.09-.13.16-.19.07-.06.15-.11.26-.14.1-.03.23-.05.37-.04h.22ZM38.95,20.4c.2,0,.34-.05.42-.15.08-.1.13-.2.14-.31v-.04s0-.08,0-.08v-.05c-.02-.1-.06-.2-.14-.3-.08-.1-.22-.15-.42-.14h-.42c-.2,0-.34.05-.42.15-.08.1-.12.2-.14.3v.05s0,.07,0,.07v.05c.02.11.06.21.14.31.08.1.22.14.42.14h.42Z"/>
      <path class="cls-6" d="M42.1,18.47h.26s0,.05,0,.05v1.54c0,.11,0,.2-.03.27-.02.08-.06.14-.11.18-.05.05-.12.08-.2.1-.08.02-.19.03-.32.03h-.52c-.15,0-.28,0-.4-.06-.11-.05-.21-.11-.28-.19-.07-.08-.13-.16-.16-.25-.04-.09-.05-.16-.05-.23v-.09s0-.01,0-.05c0-.04.02-.09.03-.15.02-.06.05-.12.08-.19.04-.07.09-.13.16-.19.07-.06.16-.1.26-.14.11-.03.23-.05.38-.04h.89s0-.6,0-.6ZM42.1,19.33h-.99c-.16,0-.28.04-.37.1-.08.07-.14.14-.16.21s-.04.13-.04.18v.08c0,.05.01.12.04.19.03.07.08.14.16.21.08.06.21.1.36.09h.68c.08,0,.14-.02.18-.05.04-.03.08-.08.09-.14.02-.06.03-.13.03-.22v-.65Z"/>
      <path class="cls-6" d="M44.38,20.35c.07-.03.13-.06.17-.11.05-.05.08-.11.11-.18.02-.07.04-.15.04-.22v-.8s0-.02,0-.02h.27s0,.82,0,.82c0,.15-.04.29-.11.41-.07.13-.17.22-.29.3-.12.07-.26.11-.4.11h-.51c-.15,0-.28-.03-.4-.11-.12-.07-.22-.17-.29-.3-.07-.13-.11-.26-.11-.41v-.8s0-.02,0-.02h.27s0,.02,0,.02v.8c0,.07.02.15.04.22.03.07.06.13.11.18.05.05.11.09.18.11.07.03.14.04.21.04h.51c.07,0,.14-.01.21-.04"/>
      <path class="cls-6" d="M46.01,19.35c-.07.03-.13.06-.18.11-.05.05-.08.11-.11.18-.02.07-.04.14-.04.22s.01.14.04.21c.03.07.06.13.11.18.05.05.11.08.18.11.07.02.14.04.21.04h1.31s0,.26,0,.26h-1.31c-.14,0-.28-.03-.4-.1-.12-.07-.22-.17-.29-.29-.07-.12-.11-.25-.11-.4s.04-.28.11-.4c.07-.12.17-.22.29-.29.12-.07.26-.11.4-.11h1.31s0,.26,0,.26h-1.31c-.07,0-.14.02-.21.04"/>
      <path class="cls-6" d="M49.38,20.37v.26s-.49,0-.49,0c-.14,0-.27-.03-.4-.1-.12-.07-.22-.16-.29-.29-.07-.12-.11-.25-.11-.39v-1.4s0-.02,0-.02h.26s0,.02,0,.02v.59s.62,0,.62,0v.02s0,.24,0,.24c0,0,0,0-.02,0h-.59s0,.57,0,.57c0,.11.03.21.09.29.06.08.12.13.19.17.03.02.08.03.15.04.07,0,.12,0,.16,0h.42s.02,0,.02,0Z"/>
      <path class="cls-6" d="M51.08,19.04c.14,0,.27,0,.37.04.11.03.19.08.26.14.07.06.12.12.16.19.04.07.07.13.08.19.02.06.03.11.03.15,0,.04,0,.06,0,.05v.1c0,.07-.02.15-.05.24-.03.09-.09.17-.16.25-.07.08-.16.15-.27.2-.11.05-.24.07-.39.06h-.3c-.15,0-.28-.01-.39-.06-.11-.05-.2-.11-.28-.19-.07-.08-.12-.16-.16-.25-.03-.09-.05-.17-.05-.23v-.1s0-.01,0-.05c0-.04.02-.09.03-.15.02-.06.04-.12.08-.19.04-.07.09-.13.16-.19.07-.06.15-.11.26-.14.1-.03.23-.05.37-.04h.22ZM51.18,20.37c.2,0,.34-.05.42-.15.08-.1.13-.2.14-.31v-.04s0-.08,0-.08v-.05c-.02-.1-.06-.2-.14-.3-.08-.1-.22-.15-.42-.14h-.42c-.2,0-.34.05-.42.15-.08.1-.12.2-.14.3v.05s0,.07,0,.07v.05c.02.11.06.21.14.31.08.1.22.14.42.14h.42Z"/>
      <path class="cls-6" d="M54.21,19.71c.11,0,.2.04.28.11.08.06.12.19.12.37,0,.1-.02.18-.07.25-.05.07-.11.12-.18.15-.07.03-.15.05-.22.05h-1.63s0-.26,0-.26h1.62c.06,0,.11-.02.15-.04.05-.03.07-.08.07-.18,0-.06-.02-.1-.05-.12-.03-.03-.07-.04-.11-.04-.04,0-.07,0-.08,0h-1.18c-.06,0-.13-.02-.2-.05-.07-.03-.13-.09-.18-.16-.05-.08-.08-.17-.08-.29,0-.1.03-.19.08-.26.05-.07.12-.12.19-.15.07-.03.15-.05.21-.05h.01s1.46,0,1.46,0v.27s-1.46,0-1.46,0c-.06,0-.11.01-.17.04s-.08.09-.08.19c0,.08.03.13.07.16.05.03.1.04.14.04h1.26Z"/>
      <path class="cls-6" d="M57.96,19v1.39c0,.16-.04.3-.11.41-.08.14-.18.25-.29.31-.11.07-.25.1-.41.1h-1.13s-.02,0-.02-.02v-.23s0-.02.02-.02h1.13c.06,0,.11,0,.15-.02.04,0,.08-.03.12-.05.05-.03.09-.06.12-.09.03-.03.05-.06.07-.1l.04-.08h-1.03c-.12,0-.23-.02-.33-.07-.1-.05-.18-.1-.24-.16-.06-.06-.11-.14-.16-.24-.05-.1-.07-.2-.07-.3v-.84s0-.02,0-.02h.27s0,.02,0,.02v.86c0,.05.01.11.03.17.02.06.04.1.06.12.01.01.03.04.06.07.03.03.07.06.12.09.05.03.12.04.2.05h1.14s0-1.35,0-1.35c0-.01,0-.02.02-.02h.23s.02,0,.02.02"/>
      <path class="cls-6" d="M60.9,19.69c.11,0,.2.04.28.11.08.06.12.19.12.37,0,.1-.02.18-.07.25-.05.07-.11.12-.18.15-.07.03-.15.05-.22.05h-1.63s0-.26,0-.26h1.62c.06,0,.11-.02.15-.04.05-.03.07-.08.07-.18,0-.06-.02-.1-.05-.12-.03-.03-.07-.04-.11-.04-.04,0-.07,0-.08,0h-1.18c-.06,0-.13-.02-.2-.05-.07-.03-.13-.09-.18-.16-.05-.08-.08-.17-.08-.29,0-.1.03-.19.08-.26.05-.07.12-.12.19-.15.07-.03.15-.05.21-.05h.01s1.46,0,1.46,0v.27s-1.46,0-1.46,0c-.06,0-.11.01-.17.04s-.08.09-.08.19c0,.08.03.13.07.16.05.03.1.04.14.04h1.26Z"/>
      <path class="cls-6" d="M63.63,19.09c.08.06.13.13.16.21.03.08.04.14.04.2,0,.28-.16.44-.48.45h-1.27s0,.07,0,.07c0,.07,0,.13.02.17.01.04.04.07.07.09.03.02.07.03.13.04.05,0,.13,0,.22,0h1.18s.05.01.05.05v.16s-.02.05-.05.05h-1.22c-.17,0-.3-.01-.4-.05-.1-.04-.17-.1-.21-.18-.04-.08-.06-.19-.06-.34v-.41c0-.09.03-.19.11-.29.07-.1.16-.18.28-.24.11-.06.23-.09.35-.09h.77c.14,0,.25.03.33.09M63.45,19.67s.05-.03.07-.05c.02-.02.03-.04.03-.06,0-.03.01-.06.01-.1,0-.02,0-.04-.02-.07-.01-.03-.03-.06-.06-.08-.03-.02-.07-.04-.12-.04h-.84c-.06,0-.12.02-.19.06-.07.04-.13.09-.18.15-.05.07-.07.14-.07.21h1.25c.05,0,.09,0,.11-.02"/>
      <path class="cls-6" d="M66.12,19.24h-.91s-.1,0-.15,0c-.06,0-.11,0-.16.02-.05.02-.09.04-.13.08-.04.04-.06.08-.08.13-.01.05-.02.09-.02.13,0,.04,0,.1,0,.19v.79s0,.02-.02.02h-.23s-.02,0-.02-.02v-.82s0-.09,0-.17c0-.08.02-.17.05-.25.03-.08.09-.16.17-.22.05-.04.11-.07.17-.09.06-.02.12-.04.17-.04.05,0,.11-.01.15-.01h.09s.91,0,.91,0v.27Z"/>
      <path class="cls-6" d="M66.75,18.95l.95,1.42h.02s.01,0,.01,0l.94-1.42h.32s-.94,1.42-.94,1.42c-.08.12-.13.19-.15.22h-.37c-.04-.06-.09-.14-.15-.22l-.95-1.42h.32Z"/>
      <path class="cls-6" d="M69.63,18.48h-.28s0-.28,0-.28h.28s0,.28,0,.28ZM69.63,20.58h-.28s0-1.72,0-1.72h.28s0,1.72,0,1.72Z"/>
      <path class="cls-6" d="M70.76,19.29c-.07.03-.13.06-.18.11-.05.05-.08.11-.11.18-.02.07-.04.14-.04.22s.01.14.04.21c.03.07.06.13.11.18.05.05.11.08.18.11.07.02.14.04.21.04h1.31s0,.26,0,.26h-1.31c-.14,0-.28-.03-.4-.1-.12-.07-.22-.17-.29-.29-.07-.12-.11-.25-.11-.4s.04-.28.11-.4c.07-.12.17-.22.29-.29.12-.07.26-.11.4-.11h1.31s0,.26,0,.26h-1.31c-.07,0-.14.02-.21.04"/>
      <path class="cls-6" d="M73.13,18.48h-.28s0-.28,0-.28h.28s0,.28,0,.28ZM73.13,20.57h-.28s0-1.72,0-1.72h.28s0,1.72,0,1.72Z"/>
      <path class="cls-6" d="M74.84,18.97c.14,0,.27,0,.37.04.11.03.19.08.26.14.07.06.12.12.16.19.04.07.07.13.08.19.02.06.03.11.03.15,0,.04,0,.06,0,.05v.1c0,.07-.02.15-.05.24-.03.09-.09.17-.16.25-.07.08-.16.15-.27.2-.11.05-.24.07-.39.06h-.3c-.15,0-.28-.01-.39-.06-.11-.05-.2-.11-.28-.19-.07-.08-.12-.16-.16-.25-.03-.09-.05-.17-.05-.23v-.1s0-.01,0-.05c0-.04.02-.09.03-.15.02-.06.04-.12.08-.19.04-.07.09-.13.16-.19.07-.06.15-.11.26-.14.1-.03.23-.05.37-.04h.22ZM74.95,20.3c.2,0,.34-.05.42-.15.08-.1.13-.2.14-.31v-.04s0-.08,0-.08v-.05c-.02-.1-.06-.2-.14-.3-.08-.1-.22-.15-.42-.14h-.42c-.2,0-.34.05-.42.15-.08.1-.12.2-.14.3v.05s0,.07,0,.07v.05c.02.11.06.21.14.31.08.1.22.14.42.14h.42Z"/>
      <path class="cls-6" d="M77.98,19.64c.11,0,.2.04.28.11.08.06.12.19.12.37,0,.1-.02.18-.07.25-.05.07-.11.12-.18.15-.07.03-.15.05-.22.05h-1.63s0-.26,0-.26h1.62c.06,0,.11-.02.15-.04.05-.03.07-.08.07-.18,0-.06-.02-.1-.05-.12-.03-.03-.07-.04-.11-.04-.04,0-.07,0-.08,0h-1.18c-.06,0-.13-.02-.2-.05-.07-.03-.13-.09-.18-.16-.05-.08-.08-.17-.08-.29,0-.1.03-.19.08-.26.05-.07.12-.12.19-.15.07-.03.15-.05.21-.05h0s1.46,0,1.46,0v.27s-1.46,0-1.46,0c-.06,0-.11.01-.17.04s-.08.09-.08.19c0,.08.03.13.07.16.05.03.1.04.14.04h1.26Z"/>
      <path class="cls-9" d="M14.83.27L.55,4.82l14.37,11.08,14.01-10.88L14.83.27ZM20.39,10.37l-3.11,2.4-2.67-1.71,2.04-1.68c.37-.33.47-.56.47-.56v-3.18c.02-.54-.74-.84-.74-.84-.95-.45-2.38-.43-2.38-.43-1.33-.02-3.79.93-3.79.93v2.95s-3.69-2.36-3.69-2.36c2.35-.95,3.41-1.21,3.41-1.21,2.33-.66,3.96-.7,3.96-.7,2.61-.15,4.69.57,4.69.57,2.08.57,2.94,1.29,2.94,1.29,1.72,1.28,1.34,2.61,1.34,2.61-.27.24-2.47,1.92-2.47,1.92"/>
      <polygon class="cls-18" points=".03 8.28 .02 4.73 14.95 16.03 29.45 4.92 29.46 8.18 14.92 21.46 .03 8.28"/>
      <path class="cls-18" d="M6.43,5.93l-2.39-1.48s3.15-1.24,5.77-1.75,3.57-.54,5.07-.48c1.5.05,4.37.62,6.26,1.54,1.89.92,2.29,1.89,2.41,2.41.12.53.09,1.75-.33,2.13l-.42.38s.31-.69-.14-1.56c-.44-.86-1.4-1.7-3.13-2.28-1.73-.58-3.27-.92-5.14-.88-1.86.03-3.56.45-4.87.84-1.3.38-3.09,1.12-3.09,1.12"/>
      <path class="cls-18" d="M10.21,5.39v2.94s4.31,2.82,4.31,2.82c0,0,.94-.74,1.59-1.28.66-.54.94-.87,1.01-1.04v-3.24s.07.51-1.06,1.15c-1.13.64-1.49.85-1.49.85l-4.36-2.2Z"/>
      <path class="cls-18" d="M14.92,16.23L0,4.72,14.83,0h.04s14.59,4.93,14.59,4.93l-14.54,11.3ZM.55,4.82l14.37,11.08,14.01-10.88L14.83.27.55,4.82Z"/>
      <path class="cls-18" d="M17.29,13.08l-.08-.05L3.75,4.43l.23-.09s3.19-1.25,5.79-1.75c1.92-.37,3-.5,4.14-.51.27,0,.57,0,.95.02,1.62.06,4.5.67,6.31,1.55,1.43.69,2.26,1.53,2.48,2.5.13.56.11,1.82-.37,2.25l-.42.38-5.58,4.3ZM4.32,4.48l12.96,8.29,5.43-4.19.41-.38c.38-.34.4-1.51.29-2-.2-.89-.99-1.67-2.34-2.33-1.79-.87-4.61-1.47-6.21-1.53-.38-.01-.68-.02-.95-.02-.97,0-1.94.09-4.1.5-2.17.42-4.73,1.36-5.51,1.65"/>
      <path class="cls-18" d="M14.47,7.65l-4.3-2.18.04-.07-.03-.08c.1-.04,2.43-.94,3.82-.94h.03c1.46,0,2.39.36,2.77.68.36.3.41.63.16,1.02-.18.28-.7.67-1.43,1.05-.71.38-1.02.5-1.03.51h-.03ZM10.33,5.4l4.15,2.11c.09-.04.4-.18.99-.49.69-.37,1.21-.75,1.38-1.01.21-.33.17-.6-.13-.85-.37-.31-1.27-.64-2.69-.65h-.03c-1.21,0-3.21.72-3.67.9"/>
      <path class="cls-18" d="M40.51,6.67c.14.02.36.08.68.18.32.11.68.32,1.09.63.41.31.77.78,1.08,1.4.31.62.46,1.41.47,2.36s-.18,1.67-.53,2.27c-.36.61-.79,1.06-1.29,1.35-.5.3-.97.47-1.42.53h-.04s-7.58.02-7.58.02l-.02-8.73,7.57-.02ZM40.47,14.22c.23-.04.52-.14.84-.31.32-.16.63-.46.91-.9.28-.43.43-1.03.42-1.78,0-.88-.15-1.57-.46-2.07-.3-.5-.62-.84-.95-1.01-.33-.18-.61-.28-.84-.32l-6.28.02.02,6.38,6.33-.02Z"/>
      <rect class="cls-18" x="44.65" y="6.66" width="1.19" height="8.7" transform="translate(-.03 .13) rotate(-.16)"/>
      <path class="cls-18" d="M52.31,9.02c.77-.01,1.46-.13,2.06-.35.61-.22,1.08-.44,1.4-.66.33-.22.54-.38.65-.49l.96-.92.02,8.75h-1.14s-.02-6.31-.02-6.31c-.5.3-1.08.56-1.74.77-.66.21-1.39.32-2.18.34-.83.01-1.61-.09-2.33-.31-.72-.22-1.36-.49-1.92-.81l.02,6.36h-1.14s-.02-8.75-.02-8.75l1,.86c.14.13.39.3.75.53.36.23.86.45,1.51.67.64.22,1.35.33,2.11.31"/>
      <rect class="cls-16" x="59.1" y="10.31" width="2.29" height="1.16" transform="translate(-.03 .17) rotate(-.16)"/>
      <g>
        <path class="cls-29" d="M72.93,6.5v1.19s-6.39.02-6.39.02c-.25,0-.53.08-.84.23s-.62.39-.93.71c-.22.23-.41.53-.57.91-.16.37-.24.83-.24,1.37,0,.36.06.72.17,1.06.12.35.28.67.49.96.19.26.44.53.75.78.31.26.71.39,1.18.4l6.39-.02v1.19s-6.39.02-6.39.02c-.71,0-1.37-.19-1.97-.58-.6-.39-1.08-.93-1.43-1.6-.35-.67-.52-1.41-.53-2.21,0-.8.17-1.53.52-2.21.35-.68.82-1.21,1.42-1.6.6-.4,1.25-.6,1.97-.6l6.39-.02Z"/>
        <path class="cls-29" d="M74.29,6.53l8.79-.02v1.2s-7.59.02-7.59.02v2.4s7.6-.02,7.6-.02v1.2s-7.59.02-7.59.02v2.8s7.6-.02,7.6-.02v1.2s-8.78.02-8.78.02l-.02-8.79Z"/>
        <path class="cls-29" d="M94.65,6.44v1.19s-6.39.02-6.39.02c-.25,0-.53.08-.84.23s-.63.39-.93.71c-.22.23-.41.53-.57.91s-.24.83-.24,1.37c0,.36.06.72.17,1.06.12.34.28.67.49.96.19.27.44.53.75.78.31.26.71.39,1.18.4l6.39-.02v1.19s-6.39.02-6.39.02c-.71,0-1.37-.19-1.97-.58-.6-.39-1.08-.93-1.43-1.6-.35-.67-.52-1.41-.53-2.21,0-.8.17-1.53.52-2.21.35-.68.82-1.21,1.42-1.6.6-.4,1.26-.6,1.97-.6l6.39-.02Z"/>
      </g>
    </g>
    <g>
      <g>
        <path class="cls-26" d="M89.56,151.63c0,.08,0,.16,0,.25,0,.08,0,.16-.02.24-.01.12-.03.24-.05.36-.02.13-.05.25-.08.38-.06.24-.14.47-.23.69-.01.03-.03.06-.04.1-.05.11-.1.22-.16.33-.02.03-.04.06-.05.09-.21.38-.47.72-.77,1.02-.03.03-.06.06-.09.08-.05.05-.1.09-.15.14-.03.03-.07.06-.1.09-.08.06-.16.12-.24.18-.01,0-.02.02-.04.02-.11.08-.22.15-.33.21-.1.06-.21.11-.31.17,0,0-.01,0-.02,0-.21.1-.43.18-.66.25-.05.01-.1.03-.15.04-.23.06-.46.1-.71.12-.08,0-.16,0-.23.01-.04,0-.08,0-.12,0s-.08,0-.12,0c-.08,0-.16,0-.23-.01-.24-.02-.48-.06-.71-.12-.05-.01-.1-.03-.15-.04-.23-.06-.45-.15-.66-.25,0,0-.01,0-.02,0-.1-.05-.19-.09-.28-.15-.13-.07-.25-.15-.37-.23-.01,0-.02-.02-.04-.02-.08-.06-.16-.12-.24-.18-.04-.03-.07-.06-.1-.09-.05-.05-.1-.09-.15-.14-.06-.05-.11-.11-.16-.16-.27-.28-.5-.6-.7-.94-.02-.03-.04-.06-.05-.09-.06-.11-.11-.21-.16-.33-.01-.03-.03-.06-.04-.1-.09-.22-.17-.45-.23-.69-.03-.12-.06-.25-.08-.38-.02-.12-.04-.24-.05-.36,0-.08-.01-.16-.02-.24,0-.08,0-.16,0-.25s0-.16,0-.25c0-.05,0-.1,0-.15h0s0-.06.01-.09c0-.03,0-.06.01-.09,0-.09.02-.18.04-.27.02-.13.05-.25.08-.38.06-.24.14-.47.23-.69,0-.02.01-.03.02-.05,0-.02.01-.03.02-.05.05-.11.1-.22.16-.33.02-.03.03-.06.05-.09.21-.38.47-.72.78-1.02.03-.03.06-.06.09-.08.05-.05.1-.09.15-.14.03-.03.07-.06.1-.09.08-.06.16-.12.24-.18.01,0,.02-.02.04-.02.2-.14.42-.27.65-.38,0,0,.01,0,.02,0,.21-.1.43-.18.66-.25.05-.01.1-.03.15-.04.23-.06.46-.1.71-.12.08,0,.16,0,.23-.01.04,0,.08,0,.12,0s.08,0,.12,0c.08,0,.16,0,.23.01.24.02.48.06.71.12.05.01.1.03.15.04.23.06.45.15.66.25,0,0,.01,0,.02,0,.23.11.44.23.65.38.01,0,.02.02.04.02.08.06.16.12.24.18.04.03.07.06.1.09.05.05.1.09.15.14.03.03.06.06.09.08.3.3.56.64.78,1.02.02.03.04.06.05.09.06.11.11.21.16.33.01.03.03.06.04.1.09.22.17.45.23.69.03.12.06.25.08.38.02.12.04.24.05.36,0,.04,0,.07,0,.11,0,.04,0,.09,0,.13,0,.08,0,.16,0,.25"/>
        <path class="cls-3" d="M80.45,151.24s0,0,0,0h0s0,0,0,0M80.37,151.19s0,0,.01,0c.02.01.04.02.07.04,0,0,0,0-.01,0-.02-.01-.05-.02-.07-.03"/>
        <path class="cls-3" d="M80.37,151.19s.05.02.07.03c-.02,0-.04-.02-.06-.03,0,0,0,0-.01,0"/>
        <polyline class="cls-3" points="80.45 151.24 80.45 151.24 80.45 151.24 80.45 151.24"/>
        <path class="cls-26" d="M92.63,160.98v4.94c0,.1-.09.11-.18.11h-14.9c-.09,0-.21,0-.21-.11v-4.94c0-.08.01-.16.02-.24.05-1.18.51-2.25,1.22-3.05.02-.02.04-.05.07-.07.35-.38.76-.7,1.22-.94.03-.01.06-.03.08-.04.13-.06.25-.12.38-.17.03-.01.06-.02.09-.03.12-.04.24-.07.36-.1.15.15.3.29.46.42.41.34.86.62,1.33.84.09.04.18.08.27.12.35.14.71.25,1.07.32.36.07.72.1,1.09.1.42,0,.84-.05,1.24-.14.05-.01.1-.04.15-.04h.23c.2,0,.39-.16.58-.24.08-.03.15-.11.23-.14.37-.17.72-.4,1.05-.67h0s.07-.03.11-.06c.22-.17.42-.34.62-.54,1.87.46,3.3,2.25,3.4,4.4,0,.08.03.16.03.24"/>
        <path class="cls-14" d="M72.55,163.21c-.61,0-1.11-.52-1.11-1.16v-3.34c0-.64-.5-1.16-1.11-1.16h-14.05c-.61,0-1.11.52-1.11,1.16v3.34c0,.64-.5,1.16-1.11,1.16h-.49c-.61,0-1.11.52-1.11,1.16v23.15c0,.64.5,1.16,1.11,1.16h33.04c.61,0,1.11-.52,1.11-1.16v-23.15c0-.64-.5-1.16-1.11-1.16h-14.05Z"/>
        <path class="cls-9" d="M70.11,165.18c-.66,0-1.2-.54-1.2-1.2v-3.47c0-.66-.54-1.2-1.2-1.2h-9.34c-.66,0-1.2.54-1.2,1.2v3.47c0,.66-.54,1.2-1.2,1.2h-.53c-.66,0-1.2.54-1.2,1.2v18.16c0,.66.54,1.2,1.2,1.2h29.91c.66,0,1.2-.54,1.2-1.2v-18.16c0-.66-.54-1.2-1.2-1.2h-15.22Z"/>
        <path class="cls-14" d="M89.64,187.53c-.17.64-.84,1.16-1.47,1.16h-34.31c-.64,0-1.01-.52-.84-1.16l5-18.25c.17-.64.84-1.16,1.47-1.16h34.31c.64,0,1.01.52.84,1.16l-5,18.25Z"/>
        <path class="cls-14" d="M86.15,185.74c.63,0,1.3-.52,1.47-1.16l3.39-12.37c.17-.64-.2-1.16-.84-1.16h-28.68c-.63,0-1.3.52-1.47,1.16l-3.39,12.37c-.17.64.2,1.16.84,1.16h28.68Z"/>
        <g class="cls-30">
          <g class="cls-15">
            <path class="cls-8" d="M58.42,176.09c-1.29,0-2.5-.34-3.54-.95-1.08-.61-1.97-1.51-2.59-2.59-.6-1.05-.95-2.25-.95-3.55s.35-2.49.95-3.54c.62-1.07,1.52-1.97,2.59-2.59,1.04-.61,2.25-.95,3.54-.95s2.5.34,3.54.95c1.08.61,1.97,1.52,2.59,2.59.6,1.04.95,2.26.95,3.54s-.35,2.5-.95,3.55c-.62,1.08-1.52,1.97-2.59,2.59-1.04.61-2.25.95-3.54.95"/>
          </g>
        </g>
        <path class="cls-12" d="M42.72,186.51l8.45-8.45c.15-.15.18-.37.11-.55-.02-.06-.06-.12-.11-.17l1.64-1.64c.39.33.8.63,1.24.89,1.32.77,2.83,1.17,4.37,1.17s3.05-.4,4.38-1.17c1.32-.76,2.43-1.87,3.2-3.2,1.53-2.65,1.53-6.1,0-8.75-.77-1.33-1.88-2.44-3.2-3.2-1.33-.76-2.84-1.18-4.38-1.18s-3.05.41-4.37,1.18c-1.33.76-2.44,1.88-3.2,3.2-.77,1.32-1.17,2.83-1.17,4.37s.4,3.05,1.17,4.38c.26.44.56.85.89,1.24l-1.63,1.63h0c-.09-.1-.22-.15-.36-.15s-.26.05-.36.15l-8.45,8.45c-.4.4-.4,1.04,0,1.43l.22.22h0s.15.15.15.15c.19.18.45.3.71.3s.53-.11.72-.3M52.38,172.5c-1.22-2.11-1.22-4.86,0-6.98.61-1.06,1.5-1.94,2.55-2.55,1.06-.61,2.26-.93,3.49-.93s2.43.32,3.49.93c1.06.61,1.94,1.49,2.55,2.55.61,1.05.93,2.26.93,3.48s-.32,2.44-.93,3.49c-.61,1.06-1.5,1.94-2.55,2.55-1.05.62-2.26.94-3.49.94s-2.43-.32-3.49-.94c-1.06-.61-1.94-1.49-2.55-2.55"/>
      </g>
      <g>
        <path class="cls-11" d="M23.22,197.09h1.14v8.37h-1.14v-8.37Z"/>
        <path class="cls-11" d="M28.75,200.9c-.25.09-.46.21-.62.38s-.29.37-.38.63-.13.51-.13.76.04.5.13.76.21.46.38.63.37.29.62.38.5.13.75.13h4.61v.93h-4.61c-.51,0-.98-.13-1.41-.38-.43-.25-.77-.59-1.03-1.03-.25-.43-.38-.9-.38-1.41s.12-.98.38-1.41c.25-.43.6-.78,1.03-1.03.43-.25.9-.38,1.41-.38h4.61v.93h-4.61c-.25,0-.5.04-.75.13Z"/>
        <path class="cls-11" d="M40.23,199.83c.5-.02.94.02,1.32.14s.68.28.92.49.42.43.56.66.23.45.29.66.1.38.11.53.02.21.02.19v.33c0,.24-.06.52-.18.83s-.3.61-.55.89-.57.51-.97.69-.85.25-1.38.22h-1.05c-.52.03-.98-.05-1.38-.22s-.72-.4-.97-.69-.43-.58-.55-.89-.18-.59-.18-.83v-.33s0-.04.02-.19.05-.33.11-.53.16-.42.29-.66.32-.46.56-.66.55-.37.92-.49.81-.16,1.32-.14h.76ZM40.6,204.52c.7,0,1.19-.17,1.47-.51s.45-.7.49-1.09v-.16s.01-.26.01-.26v-.18c-.05-.37-.22-.72-.5-1.06s-.77-.51-1.48-.51h-1.49c-.7,0-1.2.17-1.48.51s-.44.7-.48,1.06l-.02.18v.25l.02.18c.04.39.2.75.49,1.09s.78.51,1.47.51h1.49Z"/>
        <path class="cls-11" d="M52.56,201.17c.25.44.38.92.38,1.44v2.87h-.94v-2.87c0-.26-.04-.52-.13-.77s-.21-.47-.38-.64c-.16-.17-.36-.3-.61-.39s-.49-.13-.74-.13h-1.78c-.48,0-1.1,0-1.86,0,0-.22,0-.01,0,.62s0,1.06,0,1.25v2.94h-.94v-5.74h4.58c.5,0,.97.13,1.4.38.43.26.77.61,1.03,1.05Z"/>
        <path class="cls-11" d="M59.09,199.83c.5-.02.94.02,1.32.14s.68.28.92.49.42.43.56.66.23.45.29.66.1.38.11.53.02.21.02.19v.33c0,.24-.06.52-.18.83s-.3.61-.55.89-.57.51-.97.69-.85.25-1.38.22h-1.05c-.52.03-.98-.05-1.38-.22s-.72-.4-.97-.69-.43-.58-.55-.89-.18-.59-.18-.83v-.33s0-.04.02-.19.05-.33.11-.53.16-.42.29-.66.32-.46.56-.66.55-.37.92-.49.81-.16,1.32-.14h.76ZM59.45,204.52c.7,0,1.19-.17,1.47-.51s.45-.7.49-1.09v-.16s.01-.26.01-.26v-.18c-.05-.37-.22-.72-.5-1.06s-.77-.51-1.48-.51h-1.49c-.7,0-1.2.17-1.48.51s-.44.7-.48,1.06l-.02.18v.25l.02.18c.04.39.2.75.49,1.09s.78.51,1.47.51h1.49Z"/>
        <path class="cls-11" d="M74.51,201.15c.23.4.35.9.35,1.49,0-.09,0-.07,0,.06h0v.66c0,.55-.11.98-.32,1.28s-.46.5-.76.61-.61.16-.93.17-.57.02-.73.02h-3.01c-.47,0-.87-.17-1.2-.52s-.5-.76-.5-1.24.17-.9.5-1.25c.33-.35.73-.52,1.2-.52h4.61c0-.07-.02-.13-.04-.19s-.04-.11-.05-.13c-.09-.18-.21-.34-.38-.48s-.34-.26-.54-.34c-.2-.08-.41-.12-.62-.12h-4.44v-.9c0-.08,0-.1,0-.08h4.44c.51,0,.99.13,1.43.4.21.12.39.27.55.45s.3.38.44.62ZM73.84,203.49c0-.08,0-.28-.01-.59h-4.83c-.17,0-.32.08-.45.23-.12.16-.18.34-.18.56s.06.4.18.56c.12.15.27.23.45.23h3.13c.36,0,.64,0,.85-.02s.38-.07.5-.16c.13-.09.22-.21.27-.34s.08-.29.09-.47Z"/>
        <path class="cls-11" d="M77.93,207.53h-.91c0,.05,0,0,0-.16v-5.33c0-.35.13-.69.4-1.02s.59-.6.98-.81.75-.31,1.08-.31h1.71c.53-.02.99.05,1.39.22s.72.39.97.67.44.57.56.88.18.58.18.82v.32s0,.04-.02.18-.05.32-.11.52-.16.42-.3.65-.33.45-.57.65-.55.36-.92.48-.82.16-1.32.14h-3.11v2.1ZM77.93,204.52h3.47c.57,0,1-.12,1.29-.35s.48-.47.57-.73.13-.46.13-.62v-.28c0-.19-.04-.42-.13-.68s-.28-.5-.57-.73-.72-.33-1.27-.33h-1.88c-.24,0-.49.07-.74.22s-.46.34-.62.56-.24.45-.24.66v2.26Z"/>
        <path class="cls-11" d="M87.35,207.53h-.91c0,.05,0,0,0-.16v-5.33c0-.35.13-.69.4-1.02s.59-.6.98-.81.75-.31,1.08-.31h1.71c.53-.02.99.05,1.39.22s.72.39.97.67.44.57.56.88.18.58.18.82v.32s0,.04-.02.18-.05.32-.11.52-.16.42-.3.65-.33.45-.57.65-.55.36-.92.48-.82.16-1.32.14h-3.11v2.1ZM87.35,204.52h3.47c.57,0,1-.12,1.29-.35s.48-.47.57-.73.13-.46.13-.62v-.28c0-.19-.04-.42-.13-.68s-.28-.5-.57-.73-.72-.33-1.27-.33h-1.88c-.24,0-.49.07-.74.22s-.46.34-.62.56-.24.45-.24.66v2.26Z"/>
      </g>
    </g>
  </g>
</svg>