<?xml version="1.0" encoding="UTF-8"?>
<svg id="Capa_2" xmlns="http://www.w3.org/2000/svg" viewBox="0 0 139.28 213.46">
  <defs>
    <style>
      .cls-1 {
        fill: #f9cf16;
      }

      .cls-2 {
        fill: #cd142a;
      }

      .cls-3 {
        fill: #646365;
      }

      .cls-4 {
        fill: #fff;
      }

      .cls-5 {
        fill: #625f60;
      }

      .cls-6 {
        fill: #505050;
      }

      .cls-7 {
        fill: #dbac85;
      }

      .cls-8 {
        fill: #d00e4d;
      }

      .cls-9 {
        fill: #d00e4c;
      }

      .cls-10 {
        fill: #d22e1f;
      }

      .cls-11 {
        fill: #efc89b;
      }

      .cls-12 {
        fill: #3e8151;
      }

      .cls-13 {
        fill: #9d9a9c;
      }

      .cls-14 {
        fill: #1d458c;
      }

      .cls-15 {
        fill: #48a98e;
      }

      .cls-16 {
        fill: #e1222c;
      }

      .cls-17 {
        fill: #feffff;
      }

      .cls-18 {
        fill: #828384;
      }

      .cls-19 {
        fill: #1b4180;
      }

      .cls-20 {
        fill: #f9c294;
      }
    </style>
  </defs>
  <g id="Capa_1-2" data-name="Capa_1">
    <g>
      <path class="cls-9" d="M40.6,25.8c.14.02.36.08.68.19.31.11.68.32,1.09.63.41.31.77.78,1.08,1.4.31.62.46,1.41.46,2.36s-.18,1.67-.54,2.27c-.36.6-.79,1.06-1.29,1.35-.5.29-.97.47-1.42.53h-7.62v-8.73h7.57ZM40.54,33.36c.23-.04.52-.14.84-.3.32-.16.63-.46.92-.9.29-.43.43-1.03.43-1.78,0-.88-.15-1.57-.45-2.07-.3-.5-.62-.84-.95-1.01-.33-.18-.61-.28-.84-.32h-6.28v6.38h6.33Z"/>
      <rect class="cls-9" x="44.73" y="25.82" width="1.19" height="8.7"/>
      <path class="cls-9" d="M52.4,28.19c.77-.01,1.46-.13,2.06-.34.61-.22,1.08-.43,1.4-.65.33-.22.55-.38.66-.49l.96-.91v8.75h-1.14v-6.32c-.5.3-1.08.55-1.75.76-.66.21-1.39.32-2.18.33-.83,0-1.61-.1-2.33-.32-.72-.22-1.36-.49-1.92-.82v6.36h-1.14v-8.75l1,.87c.14.13.39.3.75.53.36.23.86.45,1.51.68.64.23,1.35.33,2.11.32"/>
      <rect class="cls-8" x="59.18" y="29.51" width="2.29" height="1.16"/>
      <path class="cls-18" d="M73.02,25.73v1.19h-6.39c-.25,0-.53.08-.84.23-.32.15-.63.39-.93.71-.22.23-.41.53-.57.9-.16.37-.24.83-.24,1.37,0,.36.06.72.17,1.06.11.35.28.67.49.97.19.27.44.53.75.78.31.26.7.39,1.17.4h6.39v1.19h-6.39c-.71,0-1.37-.2-1.97-.59-.6-.4-1.08-.93-1.43-1.61-.35-.67-.52-1.41-.52-2.21s.17-1.53.52-2.21c.35-.68.83-1.21,1.43-1.6.6-.4,1.26-.6,1.97-.6h6.39Z"/>
      <path class="cls-18" d="M77.97,28.63c.53-.02.99.03,1.38.15.39.12.71.29.96.51.25.22.44.45.59.69.14.25.24.48.31.69.06.21.1.4.12.56.02.15.03.22.03.2v.35c0,.25-.06.54-.19.87s-.32.63-.58.93c-.26.3-.6.53-1.01.72-.41.18-.89.26-1.44.23h-1.1c-.55.03-1.03-.05-1.44-.23-.41-.18-.75-.42-1.01-.72-.26-.3-.46-.61-.58-.93-.12-.32-.19-.61-.19-.87v-.35s0-.04.02-.2c.02-.16.06-.34.12-.56.06-.21.17-.44.31-.69.14-.24.34-.48.59-.69.25-.22.57-.39.96-.51.39-.12.85-.17,1.38-.15h.8ZM78.35,33.55c.73,0,1.24-.18,1.54-.53.3-.35.47-.73.51-1.14v-.17s.01-.28.01-.28v-.18c-.06-.38-.23-.75-.52-1.11-.29-.36-.81-.54-1.54-.54h-1.56c-.74,0-1.25.18-1.54.54-.29.36-.46.73-.5,1.11l-.02.18v.26l.02.18c.04.4.21.78.51,1.14.3.35.81.53,1.54.53h1.56Z"/>
      <path class="cls-18" d="M89.45,30.03c.26.46.39.97.39,1.51v3h-.99v-3c0-.27-.05-.54-.14-.81-.09-.27-.22-.49-.4-.67-.17-.18-.38-.31-.64-.4-.26-.09-.51-.14-.77-.14h-1.86c-.5,0-1.15,0-1.95,0,0-.23,0-.01,0,.65,0,.67,0,1.1,0,1.31v3.07h-.99v-6.01h4.79c.52,0,1.01.13,1.46.4.45.27.81.64,1.07,1.1"/>
      <path class="cls-18" d="M92.94,29.86c-.22.12-.37.28-.46.47-.09.19-.14.37-.15.53-.01.17-.02.4-.02.69v.56h4.8v1h-4.8v4.04h-1.01v-4.3c0-.3,0-.7,0-1.2v-.61c0-.2,0-.38.02-.52.01-.14.07-.31.15-.49.09-.19.22-.37.42-.56.22-.22.44-.39.64-.5.21-.12.41-.19.61-.22.2-.03.43-.05.69-.05h3.95s0,.99,0,.99h-3.96c-.38,0-.67.06-.89.18"/>
      <path class="cls-18" d="M100.35,26.8h-1.04v-1.04h1.04v1.04ZM100.35,34.53h-1.04v-6.35h1.04v6.35Z"/>
      <path class="cls-18" d="M107.81,29.52h-3.35c-.17,0-.36,0-.57,0-.21,0-.41.03-.59.08-.18.05-.34.15-.48.28-.14.13-.23.29-.28.47-.05.18-.09.34-.09.47s0,.37,0,.71v2.93c0,.05-.02.08-.07.08h-.83s-.07-.03-.07-.08v-3.01c0-.12,0-.34,0-.64,0-.31.06-.61.18-.92.12-.31.33-.58.64-.82.19-.15.4-.26.62-.34.22-.08.43-.13.64-.16.2-.03.39-.04.56-.04h3.7v.99Z"/>
      <path class="cls-18" d="M119.95,30.29c.11.23.18.43.23.62.04.19.07.42.08.7v2.92h-.96v-3.02c0-.17-.03-.33-.08-.48s-.11-.29-.18-.4c-.07-.11-.16-.24-.28-.39-.13-.15-.29-.27-.48-.36-.19-.09-.37-.15-.56-.18-.18-.03-.41-.05-.7-.06h-2.14c0,.64,0,1.28,0,1.92v2.97h-.96v-3c0-.18-.02-.35-.07-.5-.04-.15-.1-.29-.15-.39-.06-.11-.14-.22-.25-.35-.15-.16-.32-.29-.52-.39-.19-.09-.38-.16-.55-.19-.18-.03-.4-.05-.66-.06-1.1,0-1.83,0-2.2,0,0,.38,0,1.6,0,3.67v1.22h-.96v-5.84h8.48c.3-.02.58,0,.84.06.26.05.49.13.68.22s.36.19.49.29c.13.1.27.23.43.39.18.2.33.42.44.64"/>
      <path class="cls-18" d="M122.23,26.8h-1.04v-1.04h1.04v1.04ZM122.23,34.53h-1.04v-6.35h1.04v6.35Z"/>
      <path class="cls-18" d="M130.5,30.03c.26.46.39.97.39,1.51v3h-.99v-3c0-.27-.05-.54-.14-.81-.09-.27-.22-.49-.4-.67-.17-.18-.38-.31-.64-.4-.26-.09-.51-.14-.77-.14h-1.86c-.5,0-1.15,0-1.95,0,0-.23,0-.01,0,.65,0,.67,0,1.1,0,1.31v3.07h-.99v-6.01h4.79c.52,0,1.01.13,1.46.4.45.27.81.64,1.07,1.1"/>
      <path class="cls-18" d="M138.4,28.94c.26.14.47.35.63.61.16.26.24.57.24.92v3.18c-.02.51-.14.98-.36,1.42-.22.44-.52.79-.9,1.06-.38.27-.82.42-1.33.45h-4.82v-.94h4.7c.3,0,.6-.09.9-.27.3-.18.53-.45.68-.8l.03-.08h-3.58c-.58,0-1.09-.14-1.53-.42-.44-.28-.77-.64-1-1.07-.23-.43-.35-.87-.35-1.32v-.21c0-.42.12-.85.36-1.27.24-.43.57-.78,1-1.06s.91-.42,1.45-.42h3.07c.27,0,.54.07.8.21M138.33,33.55v-3.18c0-.17-.06-.33-.18-.48-.12-.14-.28-.22-.47-.22h-2.98c-.5,0-.9.09-1.21.27-.3.18-.52.41-.64.68-.12.27-.19.56-.19.86v.23c0,.39.09.72.26,1,.17.27.4.48.67.62.28.14.56.21.86.21h3.87Z"/>
    </g>
    <g>
      <path class="cls-15" d="M133.28,180.7c0,9.68-7.85,17.53-17.53,17.53s-17.53-7.85-17.53-17.53,7.85-17.53,17.53-17.53,17.53,7.85,17.53,17.53"/>
      <path class="cls-4" d="M132.25,180.7c0,9.11-7.39,16.49-16.49,16.49s-16.49-7.38-16.49-16.49,7.38-16.49,16.49-16.49,16.49,7.38,16.49,16.49"/>
      <path class="cls-17" d="M115.89,171.35l-.17.36.23.11.16-.35c.22.09.39.1.52.09l.02-.28c-.1,0-.28.02-.51-.08-.28-.13-.28-.33-.21-.48.05-.1.11-.16.22-.19h2.54c-.03.23-.09.46-.19.68-.51,1.11-1.82,1.59-2.93,1.08-.73-.33-1.18-1.02-1.27-1.76h1.31c-.13.29-.03.62.27.82"/>
      <rect class="cls-4" x="107.02" y="164.75" width="14.83" height="8.36"/>
      <path class="cls-17" d="M109.44,167.13c-.52.52-1.3.6-1.91.27v2.97c.24-.14.51-.21.78-.21.42,0,.83.16,1.15.47.2.2.34.44.41.7l-.26.57s0-.08,0-.13c0-.35-.13-.67-.38-.92-.46-.46-1.19-.5-1.7-.11v-5.52,1.8c.51.37,1.23.33,1.69-.12.24-.25.38-.57.38-.92,0-.27-.09-.53-.24-.75h.37c.12.23.19.48.19.75,0,.43-.17.84-.47,1.15"/>
      <path class="cls-17" d="M121.31,167.39c-.62.35-1.41.27-1.94-.26-.31-.31-.47-.71-.47-1.15,0-.27.07-.52.19-.75h.37c-.16.22-.24.48-.24.75,0,.35.14.67.38.92.47.47,1.2.5,1.71.1v-1.78h.01v5.05h-.01v-2.89Z"/>
      <path class="cls-17" d="M116.65,172.58h2.48c-.14-.24-.21-.51-.21-.79,0-.15.02-.29.06-.43.19.38.26.8.22,1.23h-2.54,0"/>
      <polygon class="cls-17" points="109.6 171.92 109.6 171.92 109.86 171.34 109.6 171.92"/>
      <path class="cls-17" d="M109.33,172.58c.15-.19.24-.42.27-.66l.26-.58c.04.14.06.29.06.45,0,.28-.08.55-.21.79h1.81-2.23.04Z"/>
      <path class="cls-17" d="M118.97,171.35c.07-.27.21-.51.41-.71.32-.32.73-.47,1.15-.47.27,0,.54.07.78.21v-.09h.01v2.3h-.01v-1.83c-.51-.38-1.24-.35-1.7.11-.24.25-.38.57-.38.92,0,.29.1.56.28.79h-.32c.05-.43-.03-.85-.22-1.23"/>
      <polygon class="cls-12" points="107.53 165.23 109.34 165.23 109.35 165.23 107.53 165.23 107.53 165.23"/>
      <path class="cls-12" d="M109.21,166.9c-.46.46-1.18.5-1.69.12v-1.8h1.82c.16.22.24.48.24.75,0,.35-.14.67-.38.92"/>
      <path class="cls-12" d="M109.23,170.87c.25.25.38.57.38.92,0,.04,0,.09,0,.13l-.31.66h-1.77v-1.83c.51-.38,1.24-.35,1.7.11"/>
      <path class="cls-12" d="M119.61,170.87c.46-.46,1.19-.5,1.7-.11v1.83h-1.8c-.18-.23-.28-.5-.28-.79,0-.35.14-.67.38-.92"/>
      <polyline class="cls-12" points="119.47 165.23 121.31 165.23 121.31 165.23 119.46 165.23 119.47 165.23"/>
      <path class="cls-12" d="M119.6,166.9c-.25-.25-.38-.57-.38-.92,0-.27.09-.53.25-.75h1.85v1.78c-.51.39-1.24.36-1.71-.1"/>
      <polyline class="cls-12" points="109.33 165.23 119.49 165.23 119.48 165.23 109.33 165.23 109.33 165.23"/>
      <path class="cls-12" d="M121.32,170.29h0s-.01-.01-.01-.01v-2.89c-.62.35-1.41.26-1.94-.26-.31-.31-.48-.71-.48-1.15,0-.27.07-.52.19-.75h-9.37c.12.23.19.48.19.75,0,.43-.17.84-.47,1.15-.52.52-1.3.6-1.91.27v2.97c.24-.14.51-.21.78-.21.42,0,.83.16,1.15.47.2.2.34.44.41.7.04.14.06.29.06.45,0,.28-.08.55-.22.79h9.42c-.14-.24-.21-.51-.21-.79,0-.15.02-.29.06-.43.07-.27.21-.51.42-.71.32-.32.73-.47,1.15-.47.27,0,.54.07.78.21v-.09h.01Z"/>
      <path class="cls-4" d="M117.94,168.91c0,1.87-1.51,3.38-3.38,3.38s-3.38-1.51-3.38-3.38,1.51-3.38,3.38-3.38,3.38,1.51,3.38,3.38"/>
      <path class="cls-12" d="M116.14,170.73c-.12.21-.29.39-.51.53-.23.14-.5.22-.81.24v.59h-.39v-.59c-.44-.04-.8-.18-1.08-.43-.28-.24-.42-.56-.42-.93h.71c.02.2.1.38.23.53.13.15.32.25.56.28v-1.82c-.32-.08-.59-.17-.79-.25-.2-.09-.37-.22-.51-.41-.14-.18-.21-.43-.21-.74,0-.39.14-.72.41-.97.27-.26.64-.4,1.09-.43v-.6h.39v.6c.41.03.75.17,1,.4.25.23.4.53.44.9h-.7c-.03-.17-.1-.32-.23-.46s-.29-.23-.5-.27v1.77c.32.08.58.17.78.25.2.09.37.22.51.4.14.18.21.43.21.75,0,.23-.06.45-.17.66M113.81,168.24c.14.13.35.23.62.31v-1.68c-.25.02-.45.1-.6.24-.15.14-.23.33-.23.58s.07.42.21.54M115.44,170.67c.15-.16.22-.35.22-.57,0-.24-.07-.42-.22-.55-.15-.13-.35-.23-.62-.31v1.72c.26-.03.47-.12.62-.28"/>
      <rect class="cls-4" x="113.26" y="165.54" width="8.36" height="14.83" transform="translate(-88.05 211.44) rotate(-66.43)"/>
      <path class="cls-17" d="M113.59,169.31c-.68.27-1.43.03-1.86-.51l-1.19,2.72c.28-.03.55.01.8.12.38.17.7.48.86.89.1.26.13.53.1.8l-.47.42s.04-.08.06-.11c.14-.32.15-.67.02-.99-.24-.61-.89-.93-1.51-.78l2.21-5.06-.72,1.65c.32.54.99.8,1.6.56.32-.13.58-.37.72-.69.11-.25.13-.52.08-.79l.34.15c.02.26-.02.52-.12.77-.17.4-.49.7-.89.86"/>
      <path class="cls-17" d="M124.37,174.29c-.71.07-1.4-.32-1.67-1.01-.16-.4-.15-.84.02-1.24.11-.25.28-.45.48-.61l.34.15c-.23.14-.42.34-.52.59-.14.32-.15.67-.02,1,.24.61.9.94,1.53.78l.71-1.63h0s-2.02,4.63-2.02,4.63h0s1.15-2.65,1.15-2.65Z"/>
      <path class="cls-17" d="M118.02,177.18l2.27.99c-.03-.27,0-.55.12-.81.06-.14.14-.26.23-.37.02.42-.08.84-.29,1.21l-2.33-1.02h0"/>
      <polygon class="cls-17" points="111.82 173.76 111.82 173.76 112.29 173.34 111.82 173.76"/>
      <path class="cls-17" d="M111.31,174.26c.21-.12.39-.29.51-.5l.47-.42c-.02.15-.06.29-.12.43-.11.26-.29.48-.51.64l1.66.72h0l-2.04-.89h0s.03.01.03.01Z"/>
      <path class="cls-17" d="M120.64,176.99c.17-.21.4-.38.66-.49.42-.16.86-.14,1.24.02.25.11.46.28.63.5l.04-.08h0s-.92,2.11-.92,2.11h0s.73-1.68.73-1.68c-.31-.56-.99-.81-1.6-.57-.32.13-.58.37-.72.69-.12.27-.13.56-.06.84l-.29-.13c.21-.37.31-.79.29-1.21"/>
      <polygon class="cls-12" points="112.59 166.8 114.26 167.52 114.26 167.53 112.59 166.8 112.59 166.8"/>
      <path class="cls-12" d="M113.47,169.01c-.61.24-1.28-.01-1.6-.56l.72-1.65,1.67.73c.06.26.03.54-.08.79-.14.32-.39.56-.72.69"/>
      <path class="cls-12" d="M111.9,172.65c.13.32.12.68-.02,1-.02.04-.04.08-.06.11l-.55.49-1.62-.71.73-1.67c.62-.15,1.27.17,1.51.78"/>
      <path class="cls-12" d="M121.42,176.8c.61-.24,1.29.02,1.6.58l-.73,1.67-1.65-.72c-.07-.28-.05-.57.06-.84.14-.32.39-.56.72-.69"/>
      <polyline class="cls-12" points="123.54 171.57 125.23 172.31 125.23 172.32 123.53 171.58 123.54 171.57"/>
      <path class="cls-12" d="M122.99,173.16c-.13-.32-.12-.68.02-.99.11-.25.29-.45.52-.59l1.69.74-.71,1.63c-.62.16-1.29-.17-1.53-.78"/>
      <polyline class="cls-12" points="114.24 167.52 123.56 171.58 123.55 171.58 114.24 167.53 114.24 167.52"/>
      <path class="cls-12" d="M123.22,176.95h0s0-.01,0-.01l1.15-2.64c-.71.07-1.4-.32-1.67-1.01-.16-.4-.15-.84.02-1.24.11-.25.27-.45.48-.61l-8.59-3.75c.02.26-.02.52-.12.77-.17.4-.49.7-.89.86-.68.27-1.43.03-1.86-.51l-1.19,2.72c.28-.03.55.01.8.12.38.17.7.48.86.89.1.26.13.54.1.81-.02.15-.06.29-.12.43-.11.26-.29.47-.51.64l1.66.72.29.13,2.71,1.18,1.2.52.49.22,2.27.99c-.03-.27,0-.55.12-.81.06-.14.14-.26.23-.38.17-.21.4-.38.66-.49.41-.16.86-.14,1.24.02.25.11.46.28.63.5l.04-.09h0Z"/>
      <path class="cls-4" d="M120.66,174.33c-.75,1.71-2.74,2.49-4.45,1.75-1.71-.75-2.49-2.74-1.75-4.45.75-1.71,2.74-2.49,4.45-1.75,1.71.75,2.49,2.74,1.75,4.45"/>
      <path class="cls-12" d="M118.29,175.29c-.19.15-.42.24-.68.28-.26.04-.54,0-.84-.11l-.24.54-.36-.16.24-.54c-.39-.21-.66-.49-.82-.82-.16-.33-.16-.68-.01-1.03l.65.28c-.06.19-.06.39,0,.58.06.19.2.35.4.49l.73-1.67c-.26-.21-.47-.39-.62-.55-.15-.16-.25-.35-.3-.58s-.02-.48.1-.76c.16-.36.41-.6.77-.73.35-.13.74-.11,1.17.04l.24-.55.36.16-.24.55c.36.2.62.45.75.76.14.31.15.64.04,1l-.65-.28c.04-.17.04-.34-.02-.51-.06-.18-.18-.33-.35-.45l-.71,1.63c.26.2.47.39.62.54.15.16.25.35.31.57s.02.48-.11.77c-.09.21-.24.39-.43.54M117.15,172.07c.08.17.23.35.44.53l.67-1.54c-.24-.08-.46-.08-.65-.02s-.34.21-.44.44c-.1.22-.1.41-.03.58M117.67,174.95c.2-.09.34-.23.43-.44.1-.22.1-.42.02-.59-.08-.18-.23-.35-.44-.53l-.69,1.57c.25.08.48.07.68-.01"/>
      <path class="cls-4" d="M95.98,162.35h2.16l3.73.3,3.94-1.06s1.61-.74,3.21.9l1.98,1.82s.62,1.11-.88,1.2h2.78s1.1,0,1.1,1.91c0,0,.05,1.7-2.03,1.7h-4.67l-3.13,1.08-6.49-1.7-1.63-.05-.09-6.1Z"/>
      <path class="cls-11" d="M98.15,163l3.75.25,4.24-1.11s1.24-.16,2.12.64l1.98,1.78c.17.14.1.42-.12.46l-2.75.31s-.8.1-.77.42c0,0,.19.21.85.23h4.65s1.2-.05,1.2,1.1c0,0,.25,1.2-1.15,1.57h-5.02l-3.01.81-5.89-1.43s-.13-4.98-.07-5.04"/>
      <rect class="cls-6" x="95.69" y="162.24" width="3.53" height="6.77"/>
      <path class="cls-4" d="M131.32,186.44l-5.25-.02h0s-3.82,0-3.82,0c-.59,0-1.08.59-1.08,1.18v.46c0,.45.27.64.67.81h-1.14c-.59,0-1.09.46-1.1,1.06l.02.02c0,.63.17.85.42,1.05h-.05c-.59,0-1.08.47-1.08,1.07v.02c0,.59.48,1.08,1.07,1.08h1.34c-.52.08-.92.52-.92,1.06,0,.59.47,1.07,1.07,1.08l4.57.02h.65s9.22.05,9.22.05l.05-6.58h-1.16c-1.22-2.63-3.47-2.32-3.47-2.32"/>
      <path class="cls-7" d="M137.6,194.81l.03-5.95h-2.94s-.84-1.02-1.33-1.44c-.43-.36-.93-.36-1.56-.36-.35,0-9.24-.02-9.24-.02-.47,0-.86.38-.86.85,0,.47.38.86.85.86l3.33.02v.3s-4.96-.03-4.96-.03c-.47,0-.86.38-.86.85,0,.47.38.86.85.86l4.96.03v.3s-5.68-.04-5.68-.04c-.47,0-.86.38-.86.85,0,.47.38.85.85.86l5.68.04v.3s-4.1-.03-4.1-.03c-.47,0-.86.38-.86.85,0,.47.38.86.85.86l5.9.03h.01s0,0,0,0h9.95Z"/>
      <rect class="cls-13" x="115.1" y="182.82" width="15.3" height="11.5" transform="translate(-66.41 310.39) rotate(-89.72)"/>
      <rect class="cls-4" x="115.62" y="183.43" width="14.2" height="10.33" transform="translate(-66.46 310.39) rotate(-89.72)"/>
      <path class="cls-5" d="M122.54,190.27l4.39.02c.15,0,.27-.12.27-.27v-.05c0-.15-.12-.27-.27-.27l-4.39-.02c-.15,0-.27.12-.27.27v.05c0,.15.12.27.27.27"/>
      <path class="cls-5" d="M122.69,184.71l4.23.02c.15,0,.27-.12.27-.27v-.05c0-.15-.12-.27-.26-.27l-4.23-.02c-.15,0-.27.12-.27.27v.05c0,.15.12.27.27.27"/>
      <path class="cls-5" d="M122.67,185.99l4.23.02c.15,0,.27-.12.27-.27v-.05c0-.15-.12-.27-.26-.27l-4.23-.02c-.15,0-.27.12-.27.27v.05c0,.15.12.27.27.27"/>
      <path class="cls-5" d="M122.53,191.52l4.39.02c.15,0,.27-.12.27-.27v-.05c0-.15-.12-.27-.27-.27l-4.39-.02c-.15,0-.27.12-.27.27v.05c0,.15.12.27.27.27"/>
      <path class="cls-5" d="M122.53,192.69l4.39.02c.15,0,.27-.12.27-.27v-.05c0-.15-.12-.27-.27-.27l-4.39-.02c-.15,0-.27.12-.27.27v.05c0,.15.12.27.27.27"/>
      <path class="cls-5" d="M124.12,193.88h2.8c.15.01.27-.1.27-.25v-.05c0-.15-.12-.27-.27-.27h-2.8c-.15-.01-.27.1-.27.25v.05c0,.15.12.27.27.27"/>
      <path class="cls-5" d="M122.67,183.5h2.62c.15.01.27-.11.27-.25v-.05c0-.15-.12-.27-.27-.27h-2.62c-.15-.01-.27.11-.27.25v.05c0,.15.12.27.27.27"/>
      <path class="cls-13" d="M122.87,188.66l3.57.02c.4,0,.73-.32.73-.72v-.13c0-.4-.32-.73-.72-.73l-3.57-.02c-.4,0-.73.32-.73.72v.13c0,.4.32.73.72.73"/>
      <path class="cls-13" d="M119.2,188.64h1.33c.4,0,.73-.31.73-.72v-.13c0-.4-.32-.73-.72-.73h-1.33c-.4,0-.73.31-.73.72v.13c0,.4.32.73.72.73"/>
      <path class="cls-20" d="M130.89,191.63h-3.86c-.42,0-.92-.48-.92-1.12,0-.39.3-.95.94-.95h3.19s1.15-2.34,1.15-2.34c1.04,0,1.24.02,1.93.48.41.27,1.3,1.34,1.3,1.34l3.01.04-.03,5.74-3.34-.02-3.37-3.16Z"/>
      <path class="cls-4" d="M137.6,194.64v.18s-3.37-.02-3.37-.02l-3.37-3.16h-3.83c-.24,0-.49-.14-.69-.36-.21-.23-.33-.54-.32-.86h0c0-.44.32-1.04,1.03-1.04h3.19v.19h-3.19c-.58,0-.84.49-.84.85h0c0,.28.1.54.28.74.16.18.37.29.55.29h3.9s3.37,3.17,3.37,3.17l3.3.02Z"/>
      <rect class="cls-6" x="134.01" y="190.17" width="7.19" height="3.31" transform="translate(-54.88 328.5) rotate(-89.72)"/>
      <path class="cls-5" d="M123.15,190.51c-.2.35-.48.65-.86.88-.38.24-.83.37-1.36.4v.99h-.66v-.99c-.74-.06-1.34-.3-1.8-.71-.46-.41-.7-.93-.71-1.57h1.18c.03.34.16.64.38.89.22.25.54.41.94.47v-3.05c-.54-.14-.98-.28-1.32-.43-.33-.15-.62-.37-.85-.68-.24-.31-.35-.72-.35-1.24,0-.66.23-1.2.69-1.63.46-.43,1.07-.67,1.84-.72v-1.01h.66v1.01c.69.06,1.25.28,1.67.67.42.39.67.89.73,1.51h-1.18c-.04-.28-.17-.54-.38-.78-.21-.23-.49-.38-.84-.46v2.98c.54.14.97.28,1.31.42.34.14.62.37.85.68.23.31.35.73.35,1.26,0,.39-.1.76-.29,1.12M119.23,186.33c.24.21.58.39,1.04.53v-2.82c-.42.04-.76.18-1.01.41-.25.23-.38.56-.38.97s.12.7.35.91M121.96,190.41c.25-.27.37-.59.37-.96,0-.4-.12-.71-.37-.92-.24-.22-.59-.39-1.04-.52v2.88c.44-.05.78-.21,1.03-.48"/>
      <path class="cls-4" d="M104.9,196.76h6.62c.8,0,1.44-.66,1.44-1.46v-2.85h-1.11v-.93c-.79,0-1.44-.66-1.44-1.47v-3.41h1.08v-3.31c0-.43-.19-.85-.52-1.13l-8.61-6.91c-.51-.43-1.25-.45-1.79-.04l-8.9,6.92c-.36.28-.58.71-.58,1.17v3.27h1.08v3.41c0,.81-.65,1.47-1.44,1.47h-.11v.93h-1.08v2.88c0,.81.65,1.47,1.44,1.47h13.91Z"/>
      <path class="cls-6" d="M109.21,183.11c.69,0,.79-.32.22-.71l-7.03-5.59c-.57-.39-1.5-.39-2.07,0l-7.14,5.6c-.57.38-.47.7.21.7h15.81Z"/>
      <path class="cls-6" d="M100.65,185.68h1.62c.28,0,.5.22.5.5v5.2c0,.28-.22.5-.5.5h-1.62c-.28,0-.5-.22-.5-.5v-5.2c0-.28.22-.5.5-.5Z"/>
      <path class="cls-6" d="M106.2,185.68h1.62c.28,0,.5.22.5.5v5.2c0,.28-.22.5-.5.5h-1.62c-.28,0-.5-.22-.5-.5v-5.2c0-.28.22-.5.5-.5Z"/>
      <rect class="cls-6" x="94.6" y="185.68" width="2.62" height="6.2" rx=".5" ry=".5"/>
      <path class="cls-6" d="M105.7,192.5s0,.01,0,0,0-.01,0-.01c0,0,0,0,0,0"/>
      <path class="cls-6" d="M94.6,192.5s0,.01,0,0c0,0,0-.01,0-.01,0,0,0,0,0,0"/>
      <path class="cls-6" d="M92.72,193.42c0,.28.22.5.5.5h16.07c.28,0,.5-.22.5-.5v-.29c0-.27-.22-.5-.5-.5h-.5c-.28,0-.5-.02-.49-.04,0-.02-.04-.2-.1-.33-.06-.13-.61-.24-.88-.24h-.62c-.28,0-.61.05-.75.11-.14.06-.25.4-.25.42,0,.02-.21.08-.48.08h-1.97c-.27,0-.49-.02-.49-.04,0-.02-.04-.2-.1-.33-.06-.13-.61-.24-.89-.24h-.62c-.27,0-.61.05-.75.11-.14.06-.25.4-.25.42,0,.02-.21.08-.48.08h-1.97c-.28,0-.5-.02-.49-.04,0-.02-.04-.2-.1-.33-.06-.13-.61-.24-.89-.24h-.62c-.28,0-.61.05-.75.11-.14.06-.25.4-.25.42,0,.02-.21.08-.48.08h-.9c-.28,0-.5.23-.5.5v.29Z"/>
      <path class="cls-6" d="M105.95,185.37c.14.06.47.11.75.11h.62c.28,0,.61-.05.75-.11.14-.06.25-.46.25-.54s.22-.15.5-.15h.48c.27,0,.5-.23.5-.5v-.29c0-.28-.23-.5-.5-.5h-16.08c-.28,0-.5.22-.5.5v.29c0,.27.22.5.5.5h.88c.28,0,.5.07.5.15s.05.26.11.4c.06.14.61.25.89.25h.62c.28,0,.61-.05.75-.11.14-.06.25-.46.25-.54s.23-.15.5-.15h1.93c.28,0,.5.07.5.15s.05.26.11.4c.06.14.61.25.89.25h.62c.27,0,.61-.05.75-.11.14-.06.25-.46.25-.54s.22-.15.5-.15h1.93c.27,0,.5.07.5.15s.11.48.25.54"/>
      <rect class="cls-6" x="90.99" y="194.09" width="20.54" height="1.29" rx=".55" ry=".55"/>
    </g>
    <g>
      <path class="cls-17" d="M100.93,84.52l-.24.52.33.15.23-.51c.31.13.57.15.76.13l.03-.41c-.14.01-.41.03-.74-.12-.4-.18-.41-.48-.31-.7.07-.14.17-.23.33-.27h3.72c-.04.34-.12.67-.27.99-.74,1.62-2.67,2.33-4.28,1.58-1.06-.49-1.73-1.49-1.85-2.57h1.91c-.2.43-.04.9.4,1.2"/>
      <polygon class="cls-17" points="100.11 82.83 100.11 82.83 98.2 82.83 98.2 82.83 100.11 82.83"/>
      <polygon class="cls-17" points="93.88 82.83 93.88 82.83 93.41 82.83 93.41 82.83 93.88 82.83"/>
      <rect class="cls-17" x="93.88" y="82.83" width="4.32" height="0"/>
      <polyline class="cls-17" points="100.9 82.83 100.11 82.83 100.11 82.83 100.9 82.83 100.9 82.83"/>
      <polygon class="cls-6" points="73.2 92.83 71.32 95.49 73.29 96.87 75.17 94.22 77.12 95.6 79.17 86.47 71.25 91.45 73.2 92.83"/>
      <polygon class="cls-6" points="67.59 89.19 69.47 86.53 67.51 85.15 65.63 87.8 63.67 86.42 61.63 95.55 69.54 90.57 67.59 89.19"/>
      <polygon class="cls-6" points="95.99 122.41 92.73 122.4 92.73 124.81 95.98 124.81 95.98 127.2 104.62 123.62 95.99 120.01 95.99 122.41"/>
      <polygon class="cls-6" points="95.73 115.72 98.98 115.73 98.99 113.32 95.73 113.32 95.73 110.93 87.1 114.51 95.72 118.12 95.73 115.72"/>
      <polygon class="cls-6" points="119.52 98.06 121.34 100.76 123.33 99.42 121.52 96.72 123.5 95.38 115.7 90.23 117.54 99.4 119.52 98.06"/>
      <path class="cls-15" d="M133.88,117.88c0,7.76-6.29,14.05-14.05,14.05s-14.06-6.29-14.06-14.05,6.29-14.05,14.06-14.05,14.05,6.29,14.05,14.05"/>
      <path class="cls-4" d="M133.05,117.88c0,7.3-5.92,13.22-13.22,13.22s-13.22-5.92-13.22-13.22,5.92-13.22,13.22-13.22,13.22,5.92,13.22,13.22"/>
      <path class="cls-15" d="M109.86,80.31c0,7.76-6.29,14.05-14.05,14.05s-14.06-6.29-14.06-14.05,6.29-14.05,14.06-14.05,14.05,6.29,14.05,14.05"/>
      <path class="cls-4" d="M109.03,80.31c0,7.3-5.92,13.22-13.22,13.22s-13.22-5.92-13.22-13.22,5.92-13.22,13.22-13.22,13.22,5.92,13.22,13.22"/>
      <path class="cls-4" d="M127.68,113.35l-7.65-.04v.02l-5.57-.03c-.86,0-1.57.85-1.57,1.72v.67c0,.66.4.94.97,1.17h-1.66c-.86-.01-1.59.68-1.6,1.54l.02.03c0,.91.24,1.23.61,1.52h-.08c-.86,0-1.57.69-1.57,1.56v.02c0,.86.69,1.57,1.56,1.57h1.95c-.76.12-1.34.76-1.34,1.54,0,.86.69,1.57,1.56,1.57l6.66.03h.95s13.44.07,13.44.07l.07-10.09h-1.69c-.96-2.96-5.06-2.89-5.06-2.89"/>
      <path class="cls-7" d="M136.83,125.54l.04-8.67h-4.29s-1.22-1.49-1.93-2.09c-.62-.53-1.36-.53-2.27-.53-.51,0-13.48-.03-13.48-.03-.69,0-1.25.55-1.25,1.24,0,.69.55,1.25,1.24,1.25l4.85.03v.44s-7.23-.05-7.23-.05c-.69,0-1.25.55-1.25,1.24,0,.69.55,1.25,1.24,1.25l7.23.05v.44s-8.28-.06-8.28-.06c-.69,0-1.25.55-1.25,1.24,0,.69.55,1.25,1.24,1.25l8.28.05v.44s-5.98-.04-5.98-.04c-.69,0-1.25.55-1.25,1.24,0,.69.55,1.25,1.24,1.25l8.6.05s.01,0,.01,0h14.52Z"/>
      <rect class="cls-13" x="104.03" y="108.06" width="22.3" height="16.76" transform="translate(-1.81 231.05) rotate(-89.72)"/>
      <rect class="cls-4" x="104.79" y="108.95" width="20.7" height="15.05" transform="translate(-1.89 231.05) rotate(-89.72)"/>
      <path class="cls-5" d="M114.76,118.92l6.65.03c.15,0,.27-.12.27-.27v-.31c0-.15-.12-.27-.26-.27l-6.65-.03c-.15,0-.27.12-.27.27v.31c0,.15.12.27.26.27"/>
      <path class="cls-5" d="M114.98,110.81l6.41.03c.15,0,.27-.12.27-.27v-.31c0-.15-.12-.27-.26-.27l-6.41-.03c-.15,0-.27.12-.27.27v.31c0,.15.12.27.26.27"/>
      <path class="cls-5" d="M114.95,112.69l6.41.03c.15,0,.27-.12.27-.27v-.31c0-.15-.12-.27-.26-.27l-6.41-.03c-.15,0-.27.12-.27.27v.31c0,.15.12.27.26.27"/>
      <path class="cls-5" d="M114.75,120.74l6.65.03c.15,0,.27-.12.27-.27v-.31c0-.15-.12-.27-.26-.27l-6.65-.03c-.15,0-.27.12-.27.27v.31c0,.15.12.27.26.27"/>
      <path class="cls-5" d="M114.74,122.45l6.65.03c.15,0,.27-.12.27-.27v-.31c0-.15-.12-.27-.26-.27l-6.65-.03c-.15,0-.27.12-.27.27v.31c0,.15.12.27.26.27"/>
      <path class="cls-5" d="M117.06,124.19l4.33.02c.15,0,.27-.12.27-.27v-.31c0-.15-.12-.27-.26-.27l-4.33-.02c-.15,0-.27.12-.27.27v.31c0,.15.12.27.26.27"/>
      <path class="cls-5" d="M114.95,109.06l4.06.02c.15,0,.27-.12.27-.27v-.31c0-.15-.12-.27-.27-.27l-4.06-.02c-.15,0-.27.12-.27.27v.31c0,.15.12.27.26.27"/>
      <path class="cls-13" d="M115.03,116.57l5.87.03c.4,0,.73-.32.73-.72v-.85c0-.4-.32-.73-.72-.73l-5.87-.03c-.4,0-.73.32-.73.72v.85c0,.4.32.73.72.73"/>
      <path class="cls-13" d="M109.68,116.55h2.6c.4.02.73-.31.73-.71v-.85c0-.4-.32-.73-.72-.73h-2.6c-.4-.02-.73.31-.73.71v.85c0,.4.32.73.72.73"/>
      <path class="cls-20" d="M127.05,120.91h-5.63c-.61-.01-1.34-.7-1.34-1.63,0-.57.43-1.39,1.36-1.38h4.65s1.68-3.42,1.68-3.42c1.52,0,1.8.02,2.82.69.6.39,1.89,1.95,1.89,1.95l4.39.06-.04,8.37-4.86-.02-4.91-4.61Z"/>
      <path class="cls-4" d="M136.83,125.29v.27s-4.92-.02-4.92-.02l-4.91-4.61h-5.58c-.34-.01-.72-.2-1-.52-.31-.34-.47-.79-.47-1.25h0c0-.63.47-1.52,1.5-1.52h4.65s0,.28,0,.28h-4.65c-.85-.01-1.23.72-1.23,1.24h0c0,.4.14.78.41,1.07.23.26.53.42.8.42h5.68s4.91,4.62,4.91,4.62l4.81.02Z"/>
      <rect class="cls-6" x="131.6" y="118.77" width="10.48" height="4.83" transform="translate(15 257.45) rotate(-89.73)"/>
      <path class="cls-5" d="M115.77,119.27c-.28.51-.7.94-1.25,1.29-.55.34-1.21.54-1.98.59v1.44h-.96v-1.44c-1.08-.1-1.96-.44-2.63-1.04-.68-.6-1.02-1.36-1.03-2.28h1.72c.05.5.24.93.56,1.3.33.37.79.6,1.38.69v-4.44c-.79-.2-1.43-.41-1.92-.62-.49-.21-.9-.54-1.24-.99-.34-.45-.52-1.06-.52-1.81,0-.96.34-1.75,1.01-2.38.67-.63,1.56-.98,2.68-1.05v-1.48h.96v1.48c1.01.08,1.82.41,2.44.97.62.56.97,1.29,1.07,2.2h-1.73c-.06-.42-.24-.79-.55-1.13-.31-.34-.72-.56-1.23-.67v4.34c.78.2,1.42.41,1.91.61.49.21.91.54,1.24.99.34.45.51,1.06.51,1.83,0,.57-.14,1.11-.43,1.63M110.06,113.18c.34.31.85.56,1.51.76v-4.11c-.62.06-1.11.26-1.48.6-.37.34-.55.81-.55,1.41s.17,1.03.52,1.33M114.03,119.13c.36-.39.54-.86.54-1.4,0-.58-.18-1.03-.53-1.34-.36-.31-.86-.57-1.51-.76v4.2c.64-.07,1.14-.3,1.5-.69"/>
      <rect class="cls-4" x="87.98" y="74.88" width="21.65" height="12.21"/>
      <path class="cls-17" d="M91.52,78.35c-.76.75-1.9.88-2.79.4v4.34c.36-.2.75-.3,1.14-.3.61,0,1.21.23,1.68.69.29.29.49.64.6,1.02l-.39.84c0-.06.01-.12.01-.19,0-.51-.2-.98-.56-1.34-.68-.68-1.74-.73-2.48-.17v-8.06,2.62c.74.55,1.79.49,2.46-.18.36-.36.56-.83.56-1.34,0-.4-.13-.78-.36-1.1h.54c.18.33.28.71.28,1.1,0,.63-.25,1.22-.69,1.67"/>
      <path class="cls-17" d="M108.86,78.73c-.9.51-2.06.39-2.83-.38-.45-.45-.69-1.04-.69-1.67,0-.39.1-.76.28-1.1h.54c-.23.32-.36.7-.36,1.1,0,.51.2.98.56,1.34.68.68,1.76.73,2.5.15v-2.59h.01v7.37h-.01v-4.22Z"/>
      <path class="cls-17" d="M102.04,86.31h3.62c-.2-.35-.31-.74-.31-1.16,0-.22.03-.43.09-.63.27.55.39,1.17.32,1.79h-3.72s0,0,0,0"/>
      <polygon class="cls-17" points="91.75 85.34 91.75 85.34 92.14 84.5 91.75 85.34"/>
      <path class="cls-17" d="M91.36,86.31c.22-.28.36-.61.39-.97l.39-.84c.06.21.09.43.09.65,0,.41-.11.81-.31,1.16h2.65s0,0,0,0h-3.26s.05,0,.05,0Z"/>
      <path class="cls-17" d="M105.44,84.52c.11-.39.31-.75.6-1.04.46-.46,1.07-.69,1.67-.69.39,0,.79.11,1.14.31v-.14h.01v3.35h-.02v-2.67c-.74-.56-1.8-.51-2.48.17-.36.36-.56.84-.56,1.34,0,.43.15.83.4,1.16h-.47c.07-.62-.05-1.24-.32-1.79"/>
      <polygon class="cls-12" points="88.72 75.57 91.38 75.57 91.38 75.58 88.72 75.58 88.72 75.57"/>
      <path class="cls-12" d="M91.19,78.02c-.67.67-1.72.73-2.46.18v-2.62h2.66c.23.32.36.7.36,1.1,0,.51-.2.99-.55,1.34"/>
      <path class="cls-12" d="M91.2,83.81c.36.36.55.84.55,1.34,0,.06,0,.12,0,.19l-.45.97h-2.58v-2.67c.74-.56,1.81-.51,2.48.17"/>
      <path class="cls-12" d="M106.38,83.81c.68-.68,1.74-.73,2.48-.17v2.67h-2.63c-.26-.33-.4-.73-.4-1.16,0-.51.2-.98.56-1.34"/>
      <polyline class="cls-12" points="106.16 75.57 108.86 75.57 108.86 75.58 106.16 75.58 106.16 75.57"/>
      <path class="cls-12" d="M106.36,78.02c-.36-.36-.56-.83-.56-1.34,0-.4.13-.78.36-1.1h2.7v2.59c-.74.58-1.82.53-2.5-.15"/>
      <polyline class="cls-12" points="91.35 75.57 106.19 75.57 106.19 75.58 91.36 75.58 91.35 75.57"/>
      <path class="cls-12" d="M108.87,82.96h0s-.02-.02-.02-.02v-4.21c-.9.51-2.06.39-2.83-.38-.45-.45-.69-1.04-.69-1.67,0-.39.1-.76.28-1.1h-13.69c.18.34.28.71.28,1.1,0,.63-.25,1.23-.69,1.67-.76.76-1.9.88-2.79.4v4.34c.35-.2.74-.31,1.14-.31.61,0,1.21.23,1.67.69.29.29.49.64.6,1.02.06.21.09.43.09.65,0,.41-.11.81-.31,1.16h13.75c-.2-.35-.31-.74-.31-1.16,0-.22.03-.43.09-.63.11-.39.31-.75.61-1.04.46-.46,1.07-.69,1.67-.69.39,0,.79.11,1.14.31v-.14h.02Z"/>
      <path class="cls-4" d="M103.93,80.95c0,2.73-2.21,4.94-4.94,4.94s-4.94-2.21-4.94-4.94,2.21-4.94,4.94-4.94,4.94,2.21,4.94,4.94"/>
      <path class="cls-12" d="M101.31,83.61c-.17.31-.42.56-.75.77-.33.21-.72.32-1.18.35v.86h-.57v-.86c-.64-.06-1.17-.26-1.57-.62-.4-.36-.61-.81-.62-1.37h1.03c.03.3.14.56.33.78.19.22.47.36.82.41v-2.66c-.47-.12-.86-.24-1.15-.37-.29-.13-.54-.33-.74-.6-.21-.27-.31-.63-.31-1.08,0-.57.2-1.05.6-1.42.4-.38.93-.58,1.6-.63v-.88h.57v.88c.6.05,1.09.24,1.46.58.37.34.58.77.64,1.31h-1.03c-.04-.25-.15-.47-.33-.68-.18-.2-.43-.33-.73-.4v2.59c.47.12.85.24,1.14.37.29.12.54.32.74.59.2.27.3.63.3,1.1,0,.34-.08.66-.25.97M97.9,79.97c.2.18.51.34.9.46v-2.45c-.37.04-.66.15-.88.36-.22.2-.33.48-.33.85s.1.61.31.8M100.27,83.53c.22-.23.32-.51.32-.84,0-.35-.11-.61-.32-.8-.21-.19-.51-.34-.9-.45v2.51c.38-.04.68-.18.9-.41"/>
      <rect class="cls-4" x="97.09" y="76.03" width="12.21" height="21.65" transform="translate(-17.68 146.72) rotate(-66.43)"/>
      <path class="cls-17" d="M97.57,81.53c-1,.39-2.09.05-2.72-.75l-1.74,3.98c.4-.04.81.02,1.17.18.56.24,1.02.7,1.26,1.3.15.38.19.78.14,1.18l-.69.61c.03-.05.06-.11.08-.17.2-.46.21-.98.03-1.45-.35-.89-1.3-1.36-2.21-1.15l3.22-7.39-1.05,2.4c.46.8,1.45,1.17,2.33.82.47-.19.84-.54,1.05-1.01.16-.37.19-.76.11-1.15l.5.22c.03.38-.02.76-.18,1.12-.25.58-.71,1.02-1.3,1.26"/>
      <path class="cls-17" d="M113.32,88.81c-1.03.1-2.05-.47-2.44-1.48-.23-.59-.22-1.23.03-1.81.16-.36.4-.66.7-.89l.5.22c-.34.2-.61.5-.77.86-.2.47-.21.98-.03,1.45.35.9,1.32,1.37,2.23,1.14l1.04-2.38h.01s-2.95,6.76-2.95,6.76h-.01s1.69-3.88,1.69-3.88Z"/>
      <path class="cls-17" d="M104.04,93.04l3.32,1.45c-.04-.4.01-.81.18-1.19.09-.2.2-.38.33-.55.03.61-.11,1.23-.43,1.77l-3.41-1.49h0"/>
      <polygon class="cls-17" points="94.99 88.03 94.99 88.03 95.68 87.41 94.99 88.03"/>
      <path class="cls-17" d="M94.24,88.76c.31-.17.57-.42.75-.73l.69-.61c-.03.22-.09.43-.18.63-.17.38-.43.69-.75.93l2.43,1.06-2.99-1.3h0s.05.02.05.02Z"/>
      <path class="cls-17" d="M107.87,92.75c.25-.31.58-.56.97-.71.61-.24,1.26-.21,1.81.03.36.16.68.41.92.73l.05-.12h.01s-1.34,3.08-1.34,3.08h-.01s1.07-2.45,1.07-2.45c-.46-.81-1.45-1.19-2.34-.84-.47.19-.84.54-1.05,1.01-.17.39-.2.82-.09,1.22l-.43-.19c.31-.54.46-1.16.43-1.77"/>
      <path class="cls-12" d="M96.12,77.87l2.43,1.06s0,0,0,.01l-2.44-1.07h0Z"/>
      <path class="cls-12" d="M97.4,81.1c-.88.35-1.87-.02-2.33-.82l1.05-2.4,2.44,1.06c.08.39.05.78-.11,1.15-.2.47-.58.82-1.05,1.01"/>
      <path class="cls-12" d="M95.1,86.41c.18.47.17.99-.03,1.45-.02.06-.05.11-.08.17l-.8.71-2.36-1.03,1.07-2.44h0c.91-.22,1.86.25,2.21,1.14"/>
      <path class="cls-12" d="M109.01,92.48c.89-.35,1.88.03,2.34.84l-1.07,2.44-2.41-1.05c-.1-.41-.08-.83.09-1.22.2-.46.58-.82,1.05-1.01"/>
      <polyline class="cls-12" points="112.11 84.84 114.58 85.92 114.58 85.92 112.1 84.85 112.11 84.84"/>
      <path class="cls-12" d="M111.31,87.16c-.19-.47-.18-.99.03-1.45.16-.37.43-.66.77-.86l2.47,1.08-1.04,2.38c-.91.23-1.88-.24-2.23-1.14"/>
      <path class="cls-12" d="M98.54,78.92l13.6,5.93s0,0,0,0l-13.59-5.93h0"/>
      <path class="cls-12" d="M111.64,92.7h0s-.01-.02-.01-.02l1.68-3.86c-1.03.1-2.05-.47-2.44-1.48-.23-.59-.22-1.23.03-1.81.16-.36.4-.66.7-.9l-12.55-5.47c.03.38-.02.76-.18,1.12-.25.58-.72,1.02-1.3,1.26-1,.39-2.09.05-2.72-.75l-1.74,3.98c.4-.04.81.02,1.17.18.56.24,1.02.7,1.26,1.3.15.38.19.78.14,1.18-.03.22-.09.43-.18.63-.17.38-.43.69-.75.93l2.43,1.06.43.19,3.96,1.73,1.75.76.72.32,3.32,1.45c-.04-.4,0-.81.18-1.18.09-.2.2-.38.33-.55.25-.31.59-.56.97-.71.61-.24,1.26-.21,1.81.03.36.16.68.41.92.74l.06-.12h.01Z"/>
      <path class="cls-4" d="M107.91,88.87c-1.09,2.5-4,3.64-6.5,2.55-2.5-1.09-3.64-4-2.55-6.5,1.09-2.5,4-3.64,6.5-2.55,2.5,1.09,3.64,4,2.55,6.5"/>
      <path class="cls-12" d="M104.45,90.26c-.28.21-.61.35-1,.41-.38.06-.79,0-1.23-.15l-.34.79-.53-.23.34-.79c-.57-.31-.96-.71-1.19-1.2-.23-.49-.23-.99-.02-1.5l.94.41c-.09.28-.09.57,0,.85.09.28.29.51.59.71l1.06-2.44c-.39-.3-.69-.57-.9-.8-.21-.23-.36-.51-.44-.84-.08-.33-.03-.7.15-1.12.23-.53.6-.88,1.12-1.06.52-.18,1.09-.16,1.72.06l.35-.81.53.23-.35.81c.53.29.9.66,1.1,1.11.2.46.22.94.06,1.46l-.94-.41c.07-.24.06-.49-.03-.75-.09-.26-.26-.48-.51-.66l-1.04,2.38c.38.3.68.56.9.79s.37.51.45.84c.08.33.02.7-.16,1.12-.14.31-.34.57-.62.79M102.78,85.56c.11.25.33.51.65.78l.98-2.25c-.35-.11-.67-.12-.95-.03-.28.1-.5.31-.64.64-.14.32-.15.6-.04.85M103.53,89.78c.29-.13.5-.34.63-.64.14-.32.15-.6.03-.86-.12-.26-.34-.52-.65-.77l-1,2.3c.37.11.7.11.99-.02"/>
      <path class="cls-4" d="M71.86,71.37h3.16l5.45.44,5.76-1.55s2.36-1.07,4.69,1.31l2.89,2.66s.91,1.61-1.28,1.75h4.06s1.61,0,1.61,2.79c0,0,.07,2.49-2.96,2.49h-6.82l-4.57,1.58-9.48-2.49-2.39-.07-.13-8.91Z"/>
      <path class="cls-11" d="M75.02,72.31l5.48.37,6.19-1.62s1.82-.23,3.09.94l2.89,2.6c.26.21.15.62-.18.67l-4.02.46s-1.17.15-1.12.62c0,0,.28.31,1.24.34h6.8s1.75-.07,1.75,1.61c0,0,.37,1.75-1.68,2.29h-7.34l-4.4,1.18-8.61-2.08s-.19-7.28-.1-7.36"/>
      <rect class="cls-6" x="71.43" y="71.21" width="5.16" height="9.88"/>
      <path class="cls-15" d="M85.84,116.92c0,7.76-6.29,14.05-14.05,14.05s-14.06-6.29-14.06-14.05,6.29-14.05,14.06-14.05,14.05,6.29,14.05,14.05"/>
      <path class="cls-4" d="M85.01,116.92c0,7.3-5.92,13.22-13.22,13.22s-13.22-5.92-13.22-13.22,5.92-13.22,13.22-13.22,13.22,5.92,13.22,13.22"/>
      <path class="cls-4" d="M72.91,129.17h9.72c1.17,0,2.11-.91,2.11-2.03v-3.94h-1.63v-1.29c-1.17,0-2.12-.91-2.12-2.03v-4.72h1.59v-4.59c0-.6-.28-1.17-.76-1.56l-12.64-9.56c-.75-.6-1.84-.63-2.62-.06l-13.07,9.58c-.53.38-.84.98-.84,1.62v4.52h1.59v4.72c0,1.12-.95,2.03-2.11,2.03h-.16v1.29h-1.59v3.98c0,1.12.95,2.03,2.11,2.03h20.42Z"/>
      <path class="cls-6" d="M79.52,110.45c1.03,0,1.17-.45.33-.99l-10.5-7.84c-.85-.54-2.24-.55-3.09,0l-10.67,7.86c-.85.54-.71.98.32.98h23.61Z"/>
      <path class="cls-6" d="M69.16,122.76c.41,0,.75-.32.75-.7v-7.3c0-.39-.34-.7-.75-.7h-2.42c-.41,0-.75.32-.75.7v7.3c0,.39.34.7.75.7h2.42Z"/>
      <path class="cls-6" d="M77.45,122.76c.41,0,.75-.32.75-.7v-7.3c0-.39-.34-.7-.75-.7h-2.42c-.41,0-.75.32-.75.7v7.3c0,.39.34.7.75.7h2.42Z"/>
      <path class="cls-6" d="M60.87,122.76c.41,0,.75-.32.75-.7v-7.3c0-.39-.34-.7-.75-.7h-2.42c-.41,0-.75.32-.75.7v7.3c0,.39.34.7.75.7h2.42Z"/>
      <path class="cls-6" d="M74.28,123.63s0,.02,0,.01c0,0,0-.01,0-.02,0,0,0,0,0,0"/>
      <path class="cls-6" d="M78.19,123.62s0,0,0,.01c0,0,0,0,0,0,0-.01,0,0,0,0"/>
      <path class="cls-6" d="M57.7,123.63s0,.02,0,.01v-.02s0,0,0,0"/>
      <path class="cls-6" d="M54.9,124.92c0,.39.34.7.75.7h24.01c.41,0,.75-.32.75-.7v-.41c0-.39-.34-.7-.75-.7h-.75c-.41,0-.74-.03-.73-.06,0-.03-.06-.28-.15-.46-.09-.19-.91-.34-1.32-.34h-.93c-.41,0-.91.07-1.11.15-.2.08-.38.56-.37.59,0,.03-.31.12-.72.12h-2.94c-.41,0-.74-.03-.73-.06,0-.03-.06-.28-.15-.46-.09-.19-.91-.34-1.32-.34h-.93c-.41,0-.91.07-1.11.15-.2.08-.38.56-.37.59,0,.03-.31.12-.72.12h-2.95c-.41,0-.74-.03-.73-.06,0-.03-.06-.28-.15-.46-.09-.19-.91-.34-1.32-.34h-.93c-.41,0-.91.07-1.11.15-.2.08-.38.56-.37.59,0,.03-.31.12-.72.12h-1.34c-.41,0-.75.32-.75.7v.41Z"/>
      <path class="cls-6" d="M74.65,113.62c.21.09.71.16,1.12.16h.93c.41,0,.92-.07,1.12-.16.21-.09.37-.64.37-.76s.34-.21.75-.21h.72c.41,0,.75-.32.75-.7v-.41c0-.39-.34-.7-.75-.7h-24.01c-.41,0-.75.32-.75.7v.41c0,.39.34.7.75.7h1.31c.41,0,.75.1.75.21s.07.37.17.57c.09.19.92.35,1.33.35h.92c.41,0,.92-.07,1.12-.16.21-.09.37-.64.37-.76s.34-.21.75-.21h2.88c.41,0,.75.1.75.21s.07.37.17.57c.09.19.92.35,1.32.35h.93c.41,0,.92-.07,1.12-.16.2-.09.37-.64.37-.76s.34-.21.75-.21h2.88c.41,0,.75.1.75.21s.17.67.37.76"/>
      <path class="cls-6" d="M82.99,126.64c0-.42-.37-.77-.82-.77h-29.04c-.45,0-.82.35-.82.77v.28c0,.42.37.77.82.77h29.04c.45,0,.82-.35.82-.77v-.28Z"/>
    </g>
    <g>
      <path class="cls-5" d="M68.79,202.99h1.14v8.37h-1.14v-8.37Z"/>
      <path class="cls-5" d="M74.32,206.8c-.25.09-.46.21-.62.38s-.29.37-.38.63-.13.51-.13.76.04.5.13.76.21.46.38.63.37.29.62.38.5.13.75.13h4.61v.93h-4.61c-.51,0-.98-.13-1.41-.38-.43-.25-.77-.59-1.03-1.03-.25-.43-.38-.9-.38-1.41s.12-.98.38-1.41c.25-.43.59-.78,1.03-1.03.43-.25.9-.38,1.41-.38h4.61v.93h-4.61c-.25,0-.5.04-.75.13Z"/>
      <path class="cls-5" d="M85.81,205.73c.5-.02.94.02,1.31.14s.68.28.92.49c.24.21.42.43.56.66s.23.45.29.66.1.38.12.53c.01.15.02.21.02.19v.33c0,.24-.06.52-.18.83s-.3.61-.55.89c-.25.28-.57.51-.97.69-.4.17-.85.25-1.38.22h-1.05c-.52.03-.98-.05-1.38-.22s-.72-.4-.97-.69c-.25-.28-.44-.58-.55-.89s-.18-.59-.18-.83v-.33s0-.04.02-.19c.01-.15.05-.33.11-.53s.16-.42.29-.66.32-.46.56-.66.55-.37.92-.49c.37-.12.81-.16,1.32-.14h.76ZM86.17,210.42c.7,0,1.19-.17,1.47-.51s.45-.7.49-1.09v-.16s.01-.26.01-.26v-.18c-.06-.37-.22-.72-.5-1.06s-.77-.51-1.48-.51h-1.49c-.7,0-1.2.17-1.48.51s-.44.7-.48,1.06l-.02.18v.25l.02.18c.04.39.2.75.49,1.09.28.34.77.51,1.47.51h1.49Z"/>
      <path class="cls-5" d="M98.14,207.07c.25.44.38.92.38,1.44v2.87h-.94v-2.87c0-.26-.04-.52-.13-.77s-.21-.47-.38-.64c-.16-.17-.36-.3-.61-.39s-.49-.13-.74-.13h-1.78c-.48,0-1.1,0-1.86,0,0-.22,0-.01,0,.62,0,.64,0,1.06,0,1.25v2.94h-.94v-5.74h4.58c.5,0,.97.13,1.4.38.43.26.77.61,1.03,1.05Z"/>
      <path class="cls-5" d="M104.67,205.73c.5-.02.94.02,1.31.14s.68.28.92.49c.24.21.42.43.56.66s.23.45.29.66.1.38.12.53c.01.15.02.21.02.19v.33c0,.24-.06.52-.18.83s-.3.61-.55.89c-.25.28-.57.51-.97.69-.4.17-.85.25-1.38.22h-1.05c-.52.03-.98-.05-1.38-.22s-.72-.4-.97-.69c-.25-.28-.44-.58-.55-.89s-.18-.59-.18-.83v-.33s0-.04.02-.19c.01-.15.05-.33.11-.53s.16-.42.29-.66.32-.46.56-.66.55-.37.92-.49c.37-.12.81-.16,1.32-.14h.76ZM105.03,210.42c.7,0,1.19-.17,1.47-.51s.45-.7.49-1.09v-.16s.01-.26.01-.26v-.18c-.06-.37-.22-.72-.5-1.06s-.77-.51-1.48-.51h-1.49c-.7,0-1.2.17-1.48.51s-.44.7-.48,1.06l-.02.18v.25l.02.18c.04.39.2.75.49,1.09.28.34.77.51,1.47.51h1.49Z"/>
      <path class="cls-5" d="M120.09,207.05c.23.4.35.9.35,1.49,0-.09,0-.07,0,.06h0v.66c0,.55-.11.98-.32,1.28s-.46.5-.76.61-.61.16-.93.17-.57.02-.73.02h-3.01c-.47,0-.87-.17-1.2-.52-.33-.34-.5-.76-.5-1.24s.17-.9.5-1.25c.33-.35.73-.52,1.2-.52h4.61c0-.07-.02-.13-.04-.19s-.04-.11-.05-.13c-.09-.18-.22-.34-.38-.48-.16-.14-.34-.26-.54-.34-.2-.08-.41-.12-.62-.12h-4.44v-.9c0-.08,0-.1,0-.08h4.44c.51,0,.99.13,1.43.4.21.12.39.27.55.45s.3.38.44.62ZM119.42,209.39c0-.08,0-.28-.01-.59h-4.83c-.17,0-.32.08-.45.23-.12.16-.18.34-.18.56s.06.4.18.56c.12.15.27.23.45.23h3.13c.35,0,.64,0,.85-.02s.38-.07.5-.16c.13-.09.22-.21.27-.34s.08-.29.09-.47Z"/>
      <path class="cls-5" d="M123.51,213.43h-.91c0,.05,0,0,0-.16v-5.33c0-.35.13-.69.4-1.02.26-.33.59-.6.98-.81s.75-.31,1.08-.31h1.71c.53-.02.99.05,1.39.22s.72.39.97.67c.25.28.43.57.56.88.12.3.18.58.18.82v.32s0,.04-.02.18c-.02.15-.05.32-.12.52s-.16.42-.29.65c-.14.23-.33.45-.57.65s-.55.36-.92.48-.82.16-1.32.14h-3.11v2.1ZM123.51,210.42h3.47c.57,0,1-.12,1.29-.35s.48-.47.56-.73.13-.46.13-.62v-.28c0-.19-.05-.42-.13-.68-.09-.26-.28-.5-.57-.73s-.72-.33-1.27-.33h-1.88c-.24,0-.49.07-.74.22-.25.15-.46.34-.62.56-.16.23-.24.45-.24.66v2.26Z"/>
      <path class="cls-5" d="M132.93,213.43h-.91c0,.05,0,0,0-.16v-5.33c0-.35.13-.69.4-1.02.26-.33.59-.6.98-.81s.75-.31,1.08-.31h1.71c.53-.02.99.05,1.39.22s.72.39.97.67c.25.28.43.57.56.88.12.3.18.58.18.82v.32s0,.04-.02.18c-.02.15-.05.32-.12.52s-.16.42-.29.65c-.14.23-.33.45-.57.65s-.55.36-.92.48-.82.16-1.32.14h-3.11v2.1ZM132.93,210.42h3.47c.57,0,1-.12,1.29-.35s.48-.47.56-.73.13-.46.13-.62v-.28c0-.19-.05-.42-.13-.68-.09-.26-.28-.5-.57-.73s-.72-.33-1.27-.33h-1.88c-.24,0-.49.07-.74.22-.25.15-.46.34-.62.56-.16.23-.24.45-.24.66v2.26Z"/>
    </g>
    <g>
      <path class="cls-4" d="M14.84.27L.55,4.78l14.33,11.12,14.04-10.84L14.84.27ZM20.37,10.39l-3.12,2.39-2.66-1.71,2.04-1.67c.37-.33.47-.56.47-.56v-3.18c.03-.54-.73-.85-.73-.85-.94-.45-2.38-.43-2.38-.43-1.33-.02-3.8.92-3.8.92v2.95l-3.69-2.37c2.35-.95,3.42-1.2,3.42-1.2,2.33-.65,3.96-.69,3.96-.69,2.61-.14,4.68.58,4.68.58,2.08.57,2.94,1.3,2.94,1.3,1.72,1.29,1.33,2.61,1.33,2.61-.27.24-2.47,1.91-2.47,1.91"/>
      <polygon class="cls-9" points=".02 8.24 .02 4.69 14.92 16.03 29.45 4.96 29.45 8.22 14.87 21.46 .02 8.24"/>
      <path class="cls-9" d="M6.42,5.91l-2.39-1.48s3.15-1.23,5.77-1.73,3.58-.53,5.07-.47c1.49.06,4.37.63,6.26,1.56,1.89.93,2.29,1.89,2.4,2.42.12.53.09,1.75-.34,2.13l-.42.38s.31-.69-.13-1.56c-.44-.87-1.39-1.7-3.12-2.29-1.73-.59-3.27-.92-5.14-.89-1.87.03-3.56.44-4.87.82-1.3.38-3.09,1.11-3.09,1.11"/>
      <path class="cls-9" d="M10.2,5.37v2.94l4.29,2.83s.94-.73,1.6-1.28c.66-.54.94-.87,1.01-1.03v-3.24s.08.51-1.06,1.15c-1.13.64-1.49.85-1.49.85l-4.35-2.21Z"/>
      <path class="cls-9" d="M14.88,16.23L0,4.68,14.85,0h.04s14.57,4.97,14.57,4.97l-14.57,11.26ZM.55,4.78l14.34,11.12,14.04-10.84L14.84.27.55,4.78Z"/>
      <path class="cls-9" d="M17.27,13.09l-.08-.05L3.75,4.39l.24-.09s3.19-1.24,5.8-1.74c1.92-.37,3-.49,4.14-.49.27,0,.57,0,.95.02,1.62.06,4.5.68,6.31,1.57,1.43.7,2.26,1.54,2.47,2.51.12.56.1,1.82-.38,2.25l-.43.38-5.59,4.29ZM4.32,4.45l12.94,8.32,5.44-4.17.42-.38c.38-.34.41-1.51.3-2-.2-.89-.98-1.67-2.33-2.33-1.78-.87-4.61-1.48-6.2-1.54-.38-.01-.68-.02-.95-.02-.97,0-1.94.08-4.1.49-2.17.41-4.73,1.34-5.51,1.63"/>
      <path class="cls-9" d="M14.47,7.64l-4.29-2.19.04-.07-.03-.08c.1-.04,2.43-.93,3.82-.93h.03c1.46.01,2.38.36,2.77.69.36.3.41.63.16,1.02-.18.28-.7.67-1.43,1.05-.71.38-1.02.5-1.03.51h-.03ZM10.32,5.39l4.15,2.12c.09-.04.4-.18.99-.49.7-.37,1.21-.74,1.38-1,.21-.33.17-.6-.13-.85-.37-.31-1.26-.65-2.69-.66h-.03c-1.21,0-3.21.72-3.68.89"/>
      <path class="cls-9" d="M40.5,6.74c.14.02.36.08.68.19.31.11.68.32,1.09.63.41.31.77.78,1.08,1.4.31.62.46,1.41.46,2.36s-.18,1.67-.54,2.27c-.36.61-.79,1.06-1.29,1.35-.5.29-.97.47-1.42.53h-7.62V6.73h7.57ZM40.44,14.29c.23-.04.52-.14.84-.3.32-.16.63-.46.92-.9.29-.43.43-1.03.43-1.78,0-.88-.15-1.57-.45-2.07-.3-.5-.62-.84-.95-1.01-.33-.18-.61-.28-.84-.32h-6.28v6.38h6.33Z"/>
      <rect class="cls-9" x="44.63" y="6.75" width="1.19" height="8.7"/>
      <path class="cls-9" d="M52.3,9.12c.77-.01,1.46-.13,2.06-.34.61-.22,1.08-.43,1.4-.65.33-.22.55-.38.66-.49l.96-.91v8.75h-1.14v-6.32c-.5.3-1.08.55-1.75.76-.66.21-1.39.32-2.18.33-.83,0-1.61-.1-2.33-.32-.72-.22-1.36-.49-1.92-.82v6.36h-1.14V6.73l1,.86c.14.13.39.3.75.53.36.23.86.45,1.51.68.64.23,1.35.33,2.11.32"/>
      <rect class="cls-8" x="59.08" y="10.44" width="2.29" height="1.16"/>
      <g>
        <path class="cls-18" d="M72.92,6.66v1.19h-6.39c-.25,0-.53.08-.84.23s-.63.39-.93.71c-.22.23-.41.53-.57.9-.16.37-.25.83-.25,1.37,0,.36.06.72.17,1.06s.28.67.49.97c.19.27.44.53.75.78.31.26.7.39,1.17.4h6.39v1.19h-6.39c-.71,0-1.37-.2-1.97-.59-.6-.4-1.08-.93-1.43-1.61-.35-.67-.52-1.41-.52-2.21s.17-1.53.52-2.21c.35-.67.83-1.21,1.43-1.6.6-.4,1.26-.59,1.97-.59h6.39Z"/>
        <path class="cls-18" d="M77.88,9.57c.53-.02.99.02,1.38.15.39.12.71.29.96.51.25.22.44.45.58.69.14.25.24.48.31.69.06.21.1.4.12.55.02.16.02.22.02.2v.35c0,.25-.06.54-.19.87-.12.33-.32.64-.58.93-.26.3-.6.54-1.01.72s-.89.26-1.44.23h-1.1c-.55.03-1.03-.05-1.44-.23-.41-.18-.75-.42-1.01-.72-.26-.3-.45-.61-.58-.93-.12-.32-.19-.61-.19-.87v-.35s0-.04.02-.2c.02-.16.06-.34.12-.55.06-.21.17-.44.31-.69.14-.25.34-.48.59-.69.25-.22.57-.39.96-.51.39-.12.85-.17,1.38-.15h.8ZM78.26,14.48c.73,0,1.25-.18,1.54-.53s.47-.73.51-1.14v-.17s.01-.28.01-.28v-.18c-.06-.38-.23-.75-.52-1.11-.29-.36-.81-.54-1.54-.54h-1.56c-.74,0-1.25.18-1.54.54-.29.36-.46.73-.5,1.11l-.02.18v.26l.02.18c.04.4.21.78.51,1.14.3.35.81.53,1.54.53h1.56Z"/>
        <path class="cls-18" d="M89.38,10.97c.26.46.39.96.39,1.51v3h-.99v-3c0-.27-.05-.54-.14-.81-.09-.27-.22-.49-.39-.67-.17-.18-.38-.31-.64-.41-.26-.09-.52-.14-.77-.14h-1.86c-.5,0-1.15,0-1.95,0,0-.23,0-.02,0,.65s0,1.1,0,1.31v3.07h-.99v-6.01h4.79c.52,0,1.01.13,1.46.4.45.27.81.64,1.07,1.1Z"/>
        <path class="cls-18" d="M92.88,10.79c-.22.12-.37.28-.46.47-.09.19-.14.37-.15.53-.01.17-.02.4-.02.69v.56h4.8v1h-4.8v4.04h-1v-4.3c0-.3,0-.7,0-1.2s0-.7,0-.61c0-.2,0-.38.02-.52s.06-.3.15-.49c.09-.19.22-.37.42-.56.22-.22.43-.39.64-.5.21-.12.41-.19.61-.22.2-.03.43-.05.69-.05h3.95s0,.99,0,.99h-3.95c-.38,0-.67.06-.89.18Z"/>
        <path class="cls-18" d="M100.3,6.69v1.04h-1.04v-1.04h1.04ZM100.3,9.11v6.35h-1.04v-6.35h1.04Z"/>
        <path class="cls-18" d="M107.78,10.46h-3.35c-.17,0-.36,0-.57,0s-.41.03-.58.08c-.18.05-.34.15-.48.28-.13.13-.23.29-.29.47-.06.18-.09.34-.09.47,0,.13,0,.37,0,.71v2.92c0,.05-.02.08-.07.08h-.83s-.07-.03-.07-.08v-3.01c0-.12,0-.34,0-.64,0-.3.06-.61.18-.92.12-.31.33-.58.63-.82.19-.15.4-.26.62-.34.22-.08.43-.13.64-.16.2-.03.39-.04.56-.04h3.7v.99Z"/>
        <path class="cls-18" d="M119.93,11.22c.11.22.19.43.23.62s.07.42.08.7v2.92h-.96v-3.02c0-.17-.03-.33-.08-.48-.05-.16-.11-.29-.17-.4s-.16-.25-.28-.39c-.13-.15-.29-.27-.48-.36-.19-.09-.37-.15-.55-.18-.18-.03-.41-.05-.7-.06h-2.15c0,.64,0,1.28,0,1.92v2.97h-.96v-3c0-.18-.02-.35-.07-.5s-.1-.29-.15-.39c-.06-.11-.14-.22-.25-.35-.15-.16-.32-.29-.52-.39s-.38-.16-.55-.19c-.18-.03-.4-.05-.66-.06-1.1,0-1.83,0-2.2,0,0,.38,0,1.6,0,3.67v1.22h-.96v-5.84h8.48c.3-.02.58,0,.84.06.26.05.49.13.68.22s.36.19.49.29c.13.1.27.23.43.39.18.2.33.42.44.64Z"/>
        <path class="cls-18" d="M122.21,6.69v1.04h-1.04v-1.04h1.04ZM122.21,9.11v6.35h-1.04v-6.35h1.04Z"/>
        <path class="cls-18" d="M130.49,10.97c.26.46.39.96.39,1.51v3h-.99v-3c0-.27-.05-.54-.14-.81s-.22-.49-.4-.67c-.17-.18-.38-.31-.64-.41-.26-.09-.51-.14-.77-.14h-1.86c-.5,0-1.15,0-1.95,0,0-.23,0-.02,0,.65,0,.67,0,1.1,0,1.31v3.07h-.99v-6.01h4.79c.52,0,1.01.13,1.47.4.45.27.81.64,1.07,1.1Z"/>
        <path class="cls-18" d="M138.4,9.88c.26.14.47.35.63.61.16.26.25.57.25.92v3.18c-.02.51-.14.98-.36,1.42-.22.44-.52.79-.9,1.06-.38.27-.82.42-1.33.45h-4.83v-.94h4.7c.3,0,.6-.09.9-.27.3-.18.53-.45.68-.8l.03-.08h-3.58c-.58,0-1.09-.14-1.53-.42-.44-.28-.77-.64-1-1.07-.23-.43-.35-.87-.35-1.32v-.21c0-.42.12-.84.36-1.27s.57-.78,1-1.06c.43-.28.91-.42,1.45-.42h3.07c.27,0,.54.07.8.21ZM138.33,14.48v-3.18c0-.17-.06-.33-.18-.47-.12-.15-.28-.22-.47-.22h-2.98c-.5,0-.9.09-1.21.27-.3.18-.52.41-.64.68-.12.27-.19.56-.19.86v.23c0,.39.09.72.26,1,.17.28.4.48.67.62.28.14.56.21.86.21h3.87Z"/>
      </g>
      <g>
        <path class="cls-3" d="M73.58,21.66h-.28s0,0,0-.05v-1.65c0-.11.04-.21.12-.32.08-.1.18-.19.3-.25.12-.07.23-.1.33-.1h.53c.16,0,.31.02.43.07.12.05.22.12.3.21.08.09.14.18.17.27.04.09.06.18.06.25v.1s0,.01,0,.06c0,.04-.02.1-.04.16-.02.06-.05.13-.09.2-.04.07-.1.14-.17.2-.08.06-.17.11-.29.15-.12.04-.25.05-.41.04h-.96v.65ZM73.58,20.73h1.08c.17,0,.31-.04.4-.11.09-.07.15-.15.17-.22.03-.08.04-.14.04-.19v-.09c0-.06-.01-.13-.04-.21-.03-.08-.09-.16-.18-.23s-.22-.1-.39-.1h-.58c-.08,0-.15.02-.23.07-.08.05-.14.1-.19.17s-.07.14-.07.2v.7Z"/>
        <path class="cls-3" d="M77.99,19.54h-.99s-.11,0-.17,0c-.06,0-.12,0-.17.02-.05.02-.1.04-.14.08-.04.04-.07.08-.08.14s-.03.1-.03.14c0,.04,0,.11,0,.21v.87s0,.02-.02.02h-.25s-.02,0-.02-.02v-.89s0-.1,0-.19c0-.09.02-.18.05-.27.04-.09.1-.17.19-.24.06-.04.12-.08.18-.1.07-.02.13-.04.19-.05s.12-.01.17-.01h1.1v.29Z"/>
        <path class="cls-3" d="M79.8,19.28c.16,0,.29,0,.41.04.12.04.21.09.28.15.07.06.13.13.17.21.04.07.07.14.09.2s.03.12.04.16,0,.07,0,.06v.1c0,.08-.02.16-.06.26-.04.1-.09.19-.17.28-.08.09-.18.16-.3.21s-.26.08-.43.07h-.33c-.16,0-.3-.01-.43-.07s-.22-.12-.3-.21c-.08-.09-.13-.18-.17-.28-.04-.1-.05-.18-.05-.26v-.1s0-.01,0-.06.02-.1.04-.16.05-.13.09-.2c.04-.07.1-.14.17-.21.07-.06.17-.12.28-.15.11-.04.25-.05.41-.04h.24ZM79.91,20.73c.22,0,.37-.05.46-.16s.14-.22.15-.34v-.05s0-.08,0-.08v-.05c-.02-.11-.07-.22-.15-.33-.09-.11-.24-.16-.46-.16h-.46c-.22,0-.37.05-.46.16-.09.11-.14.22-.15.33v.05s0,.08,0,.08v.05c.02.12.07.23.16.34.09.1.24.16.46.16h.46Z"/>
        <path class="cls-3" d="M83.37,18.63h.28s0,0,0,.05v1.68c0,.12-.01.22-.04.3-.02.08-.07.15-.12.2-.06.05-.13.09-.22.11-.09.02-.21.04-.35.04h-.57c-.16,0-.31-.01-.43-.07-.12-.05-.23-.12-.3-.21-.08-.09-.14-.18-.17-.27-.04-.1-.06-.18-.06-.26v-.1s0-.01,0-.06c0-.05.02-.1.04-.16.02-.06.05-.13.09-.2s.1-.14.17-.2c.08-.06.17-.11.29-.15.12-.04.25-.05.41-.04h.97v-.66ZM83.37,19.57h-1.08c-.18,0-.31.04-.4.11s-.15.15-.18.23c-.03.08-.04.14-.04.19v.08c0,.06.01.13.04.21.03.08.09.16.18.23.09.07.22.1.4.1h.75c.09,0,.15-.02.2-.06.05-.04.08-.09.1-.15.02-.07.03-.15.03-.24v-.71Z"/>
        <path class="cls-3" d="M85.85,20.69c.08-.03.14-.07.19-.12s.09-.12.12-.2.04-.16.04-.24v-.9h.29v.9c0,.16-.04.31-.12.45-.08.14-.19.25-.32.33-.13.08-.28.12-.44.12h-.56c-.16,0-.3-.04-.44-.12-.13-.08-.24-.19-.32-.33-.08-.14-.12-.29-.12-.45v-.9h.29s0,0,0,.02v.87c0,.08.01.16.04.24.03.08.07.15.12.2s.11.09.19.12c.08.03.15.04.23.04h.56c.08,0,.15-.01.23-.04Z"/>
        <path class="cls-3" d="M87.63,19.61c-.08.03-.14.07-.19.12s-.09.12-.12.19c-.03.08-.04.16-.04.23s.01.16.04.23c.03.08.07.14.12.19s.12.09.19.12.16.04.23.04h1.43v.29h-1.43c-.16,0-.3-.04-.44-.12-.13-.08-.24-.18-.32-.32-.08-.13-.12-.28-.12-.44s.04-.3.12-.44c.08-.13.18-.24.32-.32.13-.08.28-.12.44-.12h1.43v.29h-1.43c-.08,0-.16.01-.23.04Z"/>
        <path class="cls-3" d="M91.32,20.73v.29h-.54c-.15,0-.3-.04-.43-.11-.13-.08-.24-.18-.32-.31-.08-.13-.12-.27-.12-.43v-1.55h.29s0,0,0,.02v.64h.67s0,0,0,.02v.26s0,0-.03,0h-.65v.62c0,.13.03.23.1.32s.13.15.21.19c.04.02.09.04.16.05.07,0,.13,0,.18,0h.48Z"/>
        <path class="cls-3" d="M93.18,19.28c.16,0,.29,0,.41.04s.21.09.28.15c.07.06.13.13.17.21.04.07.07.14.09.2.02.06.03.12.04.16s0,.07,0,.06v.1c0,.08-.02.16-.06.26-.04.1-.09.19-.17.28-.08.09-.18.16-.3.21s-.26.08-.43.07h-.33c-.16,0-.3-.01-.43-.07-.12-.05-.22-.12-.3-.21-.08-.09-.13-.18-.17-.28-.04-.1-.06-.18-.06-.26v-.1s0-.01,0-.06.02-.1.04-.16.05-.13.09-.2c.04-.07.1-.14.17-.21.08-.06.17-.12.28-.15.12-.04.25-.05.41-.04h.24ZM93.29,20.73c.22,0,.37-.05.46-.16.09-.1.14-.22.15-.34v-.05s0-.08,0-.08v-.05c-.02-.11-.07-.22-.15-.33-.09-.11-.24-.16-.46-.16h-.46c-.22,0-.37.05-.46.16-.09.11-.14.22-.15.33v.05s0,.08,0,.08v.05c.02.12.07.23.16.34.09.1.24.16.46.16h.46Z"/>
        <path class="cls-3" d="M96.61,20.02c.12,0,.22.05.31.12s.13.21.13.41c0,.11-.03.2-.08.27-.05.07-.12.12-.2.16-.08.03-.16.05-.24.05h-1.78v-.29s1.77,0,1.77,0c.06,0,.12-.01.17-.04.05-.03.08-.09.08-.19,0-.06-.02-.11-.05-.14-.04-.03-.08-.04-.12-.05s-.07,0-.08,0h-1.29c-.07,0-.14-.02-.22-.06-.08-.04-.14-.09-.2-.18-.06-.08-.08-.19-.08-.32,0-.11.03-.21.09-.28.06-.07.13-.13.21-.16.08-.04.16-.05.23-.06h1.61v.29h-1.59c-.07,0-.13.01-.18.04-.06.03-.08.1-.08.21,0,.09.03.15.08.18.05.03.1.04.15.04h1.38Z"/>
        <path class="cls-3" d="M100.7,19.26v1.52c-.01.17-.05.33-.13.45-.09.16-.2.27-.32.34-.12.07-.27.11-.45.11h-1.24s-.02,0-.02-.02v-.25s0-.02.02-.02h1.24c.06,0,.12,0,.17-.01.05,0,.09-.03.13-.05.05-.04.1-.07.13-.1s.06-.06.08-.11l.04-.09h-1.13c-.13,0-.25-.02-.36-.08-.11-.05-.19-.11-.26-.18-.07-.07-.12-.15-.18-.26-.05-.11-.08-.22-.08-.33v-.92s0-.02,0-.02h.3s0,0,0,.02v.94c0,.06.01.12.04.18s.04.11.07.13c.01.01.04.04.07.07.03.03.08.07.14.09.06.03.13.05.22.06h1.24s0-1.47,0-1.47c0-.02,0-.02.02-.02h.25s.02,0,.02.02Z"/>
        <path class="cls-3" d="M103.92,20.02c.12,0,.22.05.31.12.09.07.13.21.13.41,0,.11-.03.2-.08.27-.05.07-.12.12-.2.16-.08.03-.16.05-.24.05h-1.78v-.29s1.77,0,1.77,0c.06,0,.12-.01.17-.04.05-.03.08-.09.08-.19,0-.06-.02-.11-.05-.14-.04-.03-.08-.04-.12-.05s-.07,0-.08,0h-1.29c-.07,0-.14-.02-.22-.06-.08-.04-.14-.09-.2-.18-.06-.08-.08-.19-.08-.32,0-.11.03-.21.09-.28.06-.07.13-.13.21-.16.08-.04.16-.05.23-.06h1.61v.29h-1.59c-.07,0-.13.01-.18.04-.06.03-.08.1-.08.21,0,.09.03.15.08.18.05.03.1.04.15.04h1.38Z"/>
        <path class="cls-3" d="M106.91,19.38c.08.07.14.14.17.23.03.08.04.16.04.22,0,.31-.17.48-.52.49h-1.38s0,.07,0,.07c0,.08,0,.14.02.19s.04.08.07.1c.03.02.08.04.14.04.06,0,.14.01.24.01h1.29s.06.02.06.05v.17s-.02.06-.06.06h-1.33c-.19,0-.33-.02-.44-.06-.11-.04-.18-.11-.23-.2s-.07-.21-.07-.37v-.44c0-.1.04-.21.12-.31.08-.1.18-.19.3-.26.12-.07.25-.1.38-.1h.84c.15,0,.27.03.36.1ZM106.71,20.01s.05-.03.08-.06c.02-.02.03-.04.04-.07s.01-.06.01-.11c0-.02,0-.05-.02-.08-.01-.03-.03-.06-.07-.09-.03-.03-.08-.04-.13-.04h-.92c-.07,0-.14.02-.21.06s-.14.1-.19.17-.08.15-.08.23h1.37c.06,0,.1,0,.12-.01Z"/>
        <path class="cls-3" d="M109.63,19.54h-.99s-.11,0-.17,0c-.06,0-.12,0-.17.02-.05.02-.1.04-.14.08-.04.04-.07.08-.08.14-.02.05-.03.1-.03.14,0,.04,0,.11,0,.21v.87s0,.02-.02.02h-.25s-.02,0-.02-.02v-.89s0-.1,0-.19c0-.09.02-.18.05-.27.03-.09.1-.17.19-.24.06-.04.12-.08.18-.1.07-.02.13-.04.19-.05.06,0,.12-.01.17-.01h1.1v.29Z"/>
        <path class="cls-3" d="M110.32,19.23l1.03,1.55h.03l1.03-1.55h.35l-1.04,1.55c-.08.13-.14.21-.16.24h-.41c-.05-.07-.1-.15-.16-.24l-1.03-1.55h.35Z"/>
        <path class="cls-3" d="M113.47,18.42v.31h-.31v-.31h.31ZM113.47,19.14v1.88h-.31v-1.88h.31Z"/>
        <path class="cls-3" d="M114.71,19.61c-.08.03-.14.07-.19.12s-.09.12-.12.19c-.03.08-.04.16-.04.23s.01.16.04.23c.03.08.07.14.12.19s.12.09.19.12.16.04.23.04h1.43v.29h-1.43c-.16,0-.3-.04-.44-.12-.13-.08-.24-.18-.32-.32-.08-.13-.12-.28-.12-.44s.04-.3.12-.44c.08-.13.18-.24.32-.32.13-.08.28-.12.44-.12h1.43v.29h-1.43c-.08,0-.16.01-.23.04Z"/>
        <path class="cls-3" d="M117.3,18.42v.31h-.31v-.31h.31ZM117.3,19.14v1.88h-.31v-1.88h.31Z"/>
        <path class="cls-3" d="M119.17,19.28c.16,0,.29,0,.41.04s.21.09.28.15c.07.06.13.13.17.21.04.07.07.14.09.2.02.06.03.12.04.16s0,.07,0,.06v.1c0,.08-.02.16-.05.26-.04.1-.09.19-.17.28-.08.09-.18.16-.3.21s-.26.08-.43.07h-.33c-.16,0-.3-.01-.43-.07-.12-.05-.22-.12-.3-.21-.08-.09-.13-.18-.17-.28-.04-.1-.06-.18-.06-.26v-.1s0-.01,0-.06.02-.1.04-.16.05-.13.09-.2c.04-.07.1-.14.17-.21.08-.06.17-.12.28-.15.12-.04.25-.05.41-.04h.24ZM119.29,20.73c.22,0,.37-.05.46-.16.09-.1.14-.22.15-.34v-.05s0-.08,0-.08v-.05c-.02-.11-.07-.22-.15-.33-.09-.11-.24-.16-.46-.16h-.46c-.22,0-.37.05-.46.16-.09.11-.14.22-.15.33v.05s0,.08,0,.08v.05c.02.12.07.23.16.34.09.1.24.16.46.16h.46Z"/>
        <path class="cls-3" d="M122.6,20.02c.12,0,.22.05.31.12.09.07.13.21.13.41,0,.11-.03.2-.08.27-.05.07-.12.12-.2.16-.08.03-.16.05-.24.05h-1.78v-.29s1.77,0,1.77,0c.06,0,.12-.01.17-.04.05-.03.08-.09.08-.19,0-.06-.02-.11-.05-.14-.04-.03-.08-.04-.12-.05s-.07,0-.08,0h-1.29c-.07,0-.14-.02-.22-.06-.08-.04-.14-.09-.2-.18-.06-.08-.08-.19-.08-.32,0-.11.03-.21.09-.28.06-.07.13-.13.21-.16.08-.04.16-.05.23-.06h1.61v.29h-1.59c-.07,0-.13.01-.18.04-.06.03-.08.1-.08.21,0,.09.03.15.08.18.05.03.1.04.15.04h1.38Z"/>
      </g>
      <rect class="cls-1" x="135.07" y="18.4" width="4.16" height="1.32"/>
      <rect class="cls-19" x="135.07" y="19.71" width="4.16" height=".66"/>
      <rect class="cls-2" x="135.07" y="20.37" width="4.16" height=".66"/>
      <rect class="cls-16" x="129.98" y="18.4" width="1.39" height="2.63"/>
      <rect class="cls-16" x="132.76" y="18.4" width="1.39" height="2.63"/>
      <rect class="cls-4" x="131.37" y="18.4" width="1.39" height="2.63"/>
      <polyline class="cls-10" points="129.05 21.03 124.89 21.03 124.89 19.71 129.05 19.71"/>
      <rect class="cls-14" x="124.89" y="18.39" width="1.39" height="1.32"/>
      <rect class="cls-4" x="126.28" y="18.39" width="2.77" height="1.32"/>
      <polygon class="cls-4" points="125.25 18.95 125.51 18.95 125.58 18.72 125.66 18.95 125.91 18.95 125.71 19.09 125.79 19.32 125.58 19.18 125.38 19.32 125.46 19.09 125.25 18.95"/>
    </g>
  </g>
</svg>