<?xml version="1.0" encoding="UTF-8"?>
<svg id="Capa_2" xmlns="http://www.w3.org/2000/svg" viewBox="0 0 98.92 218.14">
  <defs>
    <style>
      .cls-1 {
        fill: #f9cf16;
      }

      .cls-2 {
        fill: #cd142a;
      }

      .cls-3 {
        fill: #b4b4b4;
      }

      .cls-4 {
        fill: #646365;
      }

      .cls-5 {
        fill: #868486;
      }

      .cls-6 {
        fill: #fff;
      }

      .cls-7 {
        fill: #115a9f;
      }

      .cls-8 {
        fill: #505050;
      }

      .cls-9 {
        fill: #4780b4;
      }

      .cls-10 {
        fill: #d00e4d;
      }

      .cls-11 {
        fill: #d7d5d6;
      }

      .cls-12 {
        fill: #d00e4c;
      }

      .cls-13 {
        fill: #d22e1f;
      }

      .cls-14 {
        fill: #636061;
      }

      .cls-15 {
        fill: #625f60;
        font-family: DimRegular, Dim-Regular;
        font-size: 12px;
      }

      .cls-16 {
        fill: #9d9a9c;
      }

      .cls-17 {
        fill: #d20f48;
      }

      .cls-18 {
        fill: #1d458c;
      }

      .cls-19 {
        fill: #dd4c75;
      }

      .cls-20 {
        fill: #48a98e;
      }

      .cls-21 {
        fill: #e1222c;
      }

      .cls-22 {
        fill: #feffff;
      }

      .cls-23 {
        fill: #828384;
      }

      .cls-24 {
        fill: #038461;
      }

      .cls-25 {
        fill: #1b4180;
      }
    </style>
  </defs>
  <g id="Capa_1-2" data-name="Capa_1">
    <g>
      <path class="cls-12" d="M44.73,29.18c.14.02.36.08.68.19.31.11.68.32,1.09.63.41.31.77.78,1.08,1.4.31.62.46,1.41.46,2.36s-.18,1.67-.54,2.27c-.36.6-.79,1.06-1.29,1.35-.5.29-.97.47-1.42.53h-7.62v-8.73h7.57ZM44.67,36.73c.23-.04.52-.14.84-.3.32-.16.63-.46.92-.9.29-.43.43-1.03.43-1.78,0-.88-.15-1.57-.45-2.07-.3-.5-.62-.84-.95-1.01-.33-.18-.61-.28-.84-.32h-6.28v6.38h6.33Z"/>
      <rect class="cls-12" x="48.86" y="29.19" width="1.19" height="8.7"/>
      <path class="cls-12" d="M56.52,31.56c.77-.01,1.46-.13,2.06-.34.61-.22,1.08-.43,1.4-.65.33-.22.55-.38.66-.49l.96-.91v8.75h-1.14v-6.32c-.5.3-1.08.55-1.75.76-.66.21-1.39.32-2.18.33-.83,0-1.61-.1-2.33-.32-.72-.22-1.36-.49-1.92-.82v6.36h-1.14v-8.75l1,.87c.14.13.39.3.75.53.36.23.86.45,1.51.68.64.23,1.35.33,2.11.32"/>
      <rect class="cls-10" x="63.31" y="32.88" width="2.29" height="1.16"/>
      <path class="cls-23" d="M77.17,29.15v1.19h-6.39c-.25,0-.53.08-.84.23-.32.15-.63.39-.93.71-.22.23-.41.53-.57.9-.16.37-.24.83-.24,1.37,0,.36.06.72.17,1.06.11.35.28.67.49.97.19.26.44.53.75.78.31.26.7.39,1.17.4h6.39v1.19h-6.39c-.71,0-1.37-.2-1.97-.59-.6-.4-1.08-.93-1.43-1.61-.35-.68-.52-1.41-.52-2.21s.17-1.53.52-2.21c.35-.67.83-1.21,1.43-1.6.6-.4,1.26-.59,1.97-.59h6.39Z"/>
      <polygon class="cls-23" points="78.41 29.19 87.19 29.19 87.19 30.38 79.6 30.38 79.6 32.78 87.19 32.78 87.19 33.98 79.6 33.98 79.6 36.78 87.19 36.78 87.19 37.97 78.41 37.97 78.41 29.19"/>
      <path class="cls-23" d="M95.74,29.24c.47.08.94.28,1.43.61.49.33.9.81,1.24,1.46.34.65.51,1.45.51,2.4,0,.71-.12,1.34-.37,1.87-.24.53-.55.96-.9,1.28-.35.33-.7.57-1.05.73-.34.16-.63.26-.85.29-.3.04-.95.07-1.95.07h-.26c-.12,0-.28,0-.48,0-.69,0-1.17-.02-1.45-.07-.26-.04-.56-.15-.9-.33-.34-.18-.68-.43-1.02-.77-.34-.34-.62-.77-.84-1.31-.22-.54-.34-1.16-.34-1.88,0-1.02.2-1.84.6-2.47.4-.63.82-1.07,1.28-1.34.45-.27.85-.45,1.19-.54.2-.05.88-.07,2.04-.07s1.85.02,2.11.07M95.6,36.78c.07,0,.21-.06.43-.16.22-.1.47-.26.74-.48.28-.23.52-.54.72-.95.2-.41.31-.9.31-1.49,0-.88-.16-1.57-.49-2.06-.33-.5-.65-.83-.99-1-.33-.17-.59-.27-.78-.31-.2-.03-.84-.05-1.92-.05-.98,0-1.57.01-1.77.04-.29.07-.59.22-.92.42-.33.21-.63.55-.9,1.01-.27.47-.4,1.08-.4,1.83,0,.62.1,1.14.3,1.56.2.43.44.75.71.98.27.23.51.39.73.48.21.09.36.15.43.16.21.04.63.05,1.26.05.27,0,.42,0,.46,0h.28c.95,0,1.54-.02,1.79-.06"/>
    </g>
    <g>
      <rect class="cls-16" x="5.9" y="74.65" width="79.55" height="54.98"/>
      <rect class="cls-6" x="8.38" y="77.15" width="74.58" height="49.98"/>
      <rect class="cls-17" x="8.38" y="77" width="74.58" height="5.41"/>
      <path class="cls-6" d="M79.37,79.94c0,.72-.59,1.31-1.31,1.31s-1.31-.59-1.31-1.31.59-1.31,1.31-1.31,1.31.59,1.31,1.31"/>
      <path class="cls-6" d="M74.71,79.94c0,.72-.59,1.31-1.31,1.31s-1.31-.59-1.31-1.31.59-1.31,1.31-1.31,1.31.59,1.31,1.31"/>
      <path class="cls-6" d="M70.06,79.94c0,.72-.59,1.31-1.31,1.31s-1.31-.59-1.31-1.31.59-1.31,1.31-1.31,1.31.59,1.31,1.31"/>
      <rect class="cls-16" x="32.64" y="55.92" width="25.4" height="32.06"/>
      <path class="cls-11" d="M55.68,86.77h-20.67c-.56,0-1.01-.45-1.01-1.01v-27.61c0-.56.45-1.01,1.01-1.01h20.67c.56,0,1.01.45,1.01,1.01v27.61c0,.56-.45,1.01-1.01,1.01"/>
      <path class="cls-9" d="M38.47,68.59c0,.49-.4.89-.89.89s-.89-.4-.89-.89.4-.89.89-.89.89.4.89.89"/>
      <path class="cls-6" d="M54.31,69.24h-13.57c-.37,0-.67-.3-.67-.67s.3-.67.67-.67h13.57c.37,0,.67.3.67.67s-.3.67-.67.67"/>
      <path class="cls-9" d="M38.47,71.21c0,.49-.4.89-.89.89s-.89-.4-.89-.89.4-.89.89-.89.89.4.89.89"/>
      <path class="cls-6" d="M54.31,71.8h-13.57c-.37,0-.67-.3-.67-.67s.3-.67.67-.67h13.57c.37,0,.67.3.67.67s-.3.67-.67.67"/>
      <rect class="cls-7" x="36.58" y="74.33" width="9.74" height="1.34"/>
      <rect class="cls-7" x="36.58" y="77.08" width="9.74" height="1.34"/>
      <rect class="cls-9" x="51.92" y="80.26" width="1.26" height="5.55"/>
      <rect class="cls-9" x="49.47" y="83.41" width="1.26" height="2.4"/>
      <rect class="cls-9" x="47.12" y="81.29" width="1.26" height="4.52"/>
      <rect class="cls-9" x="44.63" y="82.41" width="1.26" height="3.4"/>
      <rect class="cls-9" x="39.63" y="82.86" width="1.26" height="2.95"/>
      <rect class="cls-9" x="37.15" y="81.82" width="1.26" height="3.99"/>
      <rect class="cls-9" x="42.17" y="81.82" width="1.26" height="3.99"/>
      <path class="cls-6" d="M43.59,62.05c0,2.45-1.99,4.44-4.44,4.44s-4.44-1.99-4.44-4.44,1.99-4.44,4.44-4.44,4.44,1.99,4.44,4.44"/>
      <path class="cls-20" d="M40.99,64.26c-.14.26-.35.47-.62.64-.27.17-.6.27-.98.29v.71h-.48v-.71c-.53-.05-.97-.22-1.31-.52-.33-.3-.51-.68-.51-1.13h.86c.02.25.12.46.28.64.16.18.39.3.68.34v-2.21c-.39-.1-.71-.2-.95-.31-.24-.11-.45-.27-.62-.49-.17-.22-.26-.52-.26-.9,0-.48.17-.87.5-1.18.33-.31.77-.49,1.33-.52v-.73h.48v.73c.5.04.9.2,1.21.48.31.28.48.64.53,1.09h-.86c-.03-.21-.12-.39-.27-.56-.15-.17-.36-.28-.61-.33v2.15c.39.1.7.2.95.3.24.1.45.27.62.49s.25.53.25.91c0,.28-.07.55-.21.81M38.16,61.24c.17.15.42.28.75.38v-2.04c-.31.03-.55.13-.73.29-.18.17-.27.4-.27.7s.09.51.26.66M40.13,64.2c.18-.19.27-.43.27-.7,0-.29-.09-.51-.26-.67s-.43-.28-.75-.37v2.08c.32-.04.57-.15.75-.34"/>
      <path class="cls-7" d="M54.65,62.81h-8.98c-.34,0-.63.28-.63.62s.28.63.63.63h8.98c.34,0,.62-.28.62-.63s-.28-.62-.62-.62"/>
      <path class="cls-7" d="M54.7,60.18h-8.98c-.34,0-.63.28-.63.62s.28.63.63.63h8.98c.34,0,.62-.28.62-.63s-.28-.62-.62-.62"/>
      <path class="cls-14" d="M17.35,70.88H1.47c-.81,0-1.47.67-1.47,1.5v29.91c0,.83.66,1.5,1.47,1.5h21.88c.81,0,1.47-.67,1.47-1.5v-23.48l-7.47-7.93Z"/>
      <path class="cls-20" d="M16.78,72.34H2.72c-.72,0-1.3.61-1.3,1.37v27.26c0,.76.58,1.37,1.3,1.37h19.37c.72,0,1.3-.61,1.3-1.37v-21.4l-6.62-7.23Z"/>
      <path class="cls-22" d="M14.81,80.24l-.07-6.68c0-.35-.28-.63-.62-.63H2.71c-.34,0-.62.28-.62.64v27.54c0,.35.28.64.62.64h19.4c.34,0,.62-.28.62-.64v-19.61c0-.35-.28-.64-.62-.64h-6.68c-.34,0-.62-.28-.62-.63"/>
      <path class="cls-14" d="M21.02,82.09H4.12c-.38,0-.69-.23-.69-.52s.31-.52.69-.52h16.89c.38,0,.69.23.69.52s-.31.52-.69.52"/>
      <path class="cls-14" d="M21.02,84.38H4.12c-.38,0-.69-.23-.69-.52h0c0-.29.31-.53.69-.53h16.89c.38,0,.69.23.69.52h0c0,.29-.31.53-.69.53"/>
      <polygon class="cls-3" points="21.7 95.89 3.18 95.89 3.18 85.91 3.68 85.91 3.68 95.51 21.7 95.51 21.7 95.89"/>
      <polygon class="cls-19" points="5.26 94.68 4.87 94.44 8.39 91.12 10.51 93.6 12.49 91.69 14.6 92.35 17.7 88 18.14 88.18 14.83 92.83 12.65 92.15 10.47 94.25 8.34 91.77 5.26 94.68"/>
      <path class="cls-19" d="M18.64,87.08c-.11.57-.13,1.33.03,1.87l-.84-.72-1.25-.14c.68-.19,1.5-.62,2.07-1"/>
      <path class="cls-3" d="M21.02,98.06H4.12c-.38,0-.69-.23-.69-.52h0c0-.29.31-.53.69-.53h16.89c.38,0,.69.24.69.52h0c0,.29-.31.53-.69.53"/>
      <path class="cls-3" d="M21.02,100.25H4.12c-.38,0-.69-.23-.69-.52s.31-.52.69-.52h16.89c.38,0,.69.23.69.52s-.31.52-.69.52"/>
      <rect class="cls-3" x="11.07" y="85.83" width="2.95" height=".51"/>
      <rect class="cls-3" x="7.16" y="85.83" width="3.24" height=".51"/>
      <rect class="cls-3" x="5.2" y="85.83" width="1.29" height=".51"/>
      <rect class="cls-3" x="9.58" y="86.98" width="4.43" height=".51"/>
      <rect class="cls-3" x="5.2" y="86.98" width="3.72" height=".51"/>
      <rect class="cls-3" x="11.54" y="88.12" width="2.47" height=".51"/>
      <rect class="cls-3" x="6.93" y="88.12" width="3.95" height=".51"/>
      <rect class="cls-3" x="5.2" y="88.12" width="1.06" height=".51"/>
      <rect class="cls-20" x="69.42" y="87.44" width="27.76" height="29.79"/>
      <path class="cls-6" d="M94.67,115.83h-22.74c-.46,0-.83-.37-.83-.83v-25.46c0-.46.37-.83.83-.83h22.74c.46,0,.83.37.83.83v25.46c0,.46-.37.83-.83.83"/>
      <path class="cls-5" d="M75.24,93.1c0,.67-.54,1.21-1.21,1.21s-1.22-.54-1.22-1.21.54-1.21,1.22-1.21,1.21.54,1.21,1.21"/>
      <path class="cls-5" d="M92.39,93.88h-15.56c-.37,0-.66-.3-.66-.66s.3-.66.66-.66h15.56c.37,0,.66.3.66.66s-.3.66-.66.66"/>
      <path class="cls-5" d="M75.24,96.58c0,.67-.54,1.21-1.21,1.21s-1.21-.54-1.21-1.21.54-1.21,1.21-1.21,1.21.54,1.21,1.21"/>
      <path class="cls-5" d="M92.41,97.28h-15.56c-.37,0-.66-.3-.66-.66s.3-.66.66-.66h15.56c.37,0,.66.3.66.66s-.3.66-.66.66"/>
      <path class="cls-5" d="M75.22,99.93c0,.66-.53,1.19-1.19,1.19s-1.19-.53-1.19-1.19.53-1.19,1.19-1.19,1.19.53,1.19,1.19"/>
      <path class="cls-5" d="M92.33,100.6h-15.56c-.37,0-.66-.3-.66-.66s.3-.66.66-.66h15.56c.37,0,.66.3.66.66s-.3.66-.66.66"/>
      <path class="cls-5" d="M83.99,105.98h-9.04c-.42,0-.76-.34-.76-.76s.34-.76.76-.76h9.04c.42,0,.76.34.76.76s-.34.76-.76.76"/>
      <path class="cls-5" d="M83.99,109.47h-9.04c-.42,0-.76-.34-.76-.76s.34-.76.76-.76h9.04c.42,0,.76.34.76.76s-.34.76-.76.76"/>
      <path class="cls-5" d="M83.99,112.73h-9.04c-.42,0-.76-.34-.76-.76s.34-.76.76-.76h9.04c.42,0,.76.34.76.76s-.34.76-.76.76"/>
      <polygon class="cls-24" points="98.92 98.79 97.84 97.71 90.83 104.72 87.47 101.36 86.39 102.44 89.76 105.8 89.74 105.81 90.82 106.89 90.83 106.88 90.85 106.89 91.93 105.81 91.91 105.8 98.92 98.79"/>
      <polygon class="cls-24" points="98.74 106.79 97.66 105.71 90.66 112.72 87.3 109.35 86.22 110.43 89.58 113.79 89.56 113.81 90.64 114.89 90.66 114.87 90.67 114.89 91.75 113.81 91.74 113.79 98.74 106.79"/>
      <rect class="cls-9" x="16.96" y="107.29" width="1.42" height="7.39"/>
      <rect class="cls-9" x="16.96" y="113.25" width="18.47" height="1.42"/>
      <rect class="cls-9" x="44.63" y="91.59" width="1.42" height="28.06"/>
      <rect class="cls-9" x="34.09" y="113.25" width="1.42" height="6.48"/>
      <rect class="cls-9" x="54.56" y="100.12" width="1.42" height="19.41"/>
      <rect class="cls-9" x="54.56" y="99.98" width="11.95" height="1.42"/>
      <path class="cls-17" d="M20.65,104.56c0,1.86-1.51,3.37-3.37,3.37s-3.37-1.51-3.37-3.37,1.51-3.37,3.37-3.37,3.37,1.51,3.37,3.37"/>
      <path class="cls-17" d="M48.71,88.53c0,1.86-1.51,3.37-3.37,3.37s-3.37-1.51-3.37-3.37,1.51-3.37,3.37-3.37,3.37,1.51,3.37,3.37"/>
      <path class="cls-17" d="M72.38,100.16c0,1.86-1.51,3.37-3.37,3.37s-3.37-1.51-3.37-3.37,1.51-3.37,3.37-3.37,3.37,1.51,3.37,3.37"/>
      <path class="cls-19" d="M59.97,139.07h-28.62c-.53,0-.96-.43-.96-.96v-18.67c0-.53.43-.96.96-.96h28.62c.53,0,.96.43.96.96v18.67c0,.53-.43.96-.96.96"/>
      <path class="cls-9" d="M34.2,122.31c0,.46-.37.82-.82.82s-.82-.37-.82-.82.37-.82.82-.82.82.37.82.82"/>
      <path class="cls-6" d="M48.86,122.91h-12.56c-.34,0-.62-.28-.62-.62s.28-.62.62-.62h12.56c.34,0,.62.28.62.62s-.28.62-.62.62"/>
      <path class="cls-9" d="M34.2,124.74c0,.46-.37.82-.82.82s-.82-.37-.82-.82.37-.82.82-.82.82.37.82.82"/>
      <path class="cls-6" d="M48.86,125.28h-12.56c-.34,0-.62-.28-.62-.62s.28-.62.62-.62h12.56c.34,0,.62.28.62.62s-.28.62-.62.62"/>
      <rect class="cls-7" x="32.2" y="128.22" width="9.09" height="1.24"/>
      <rect class="cls-7" x="32.2" y="130.76" width="9.09" height="1.24"/>
      <path class="cls-16" d="M49.14,135.58h-7.93c-.31,0-.55.25-.55.55s.25.55.55.55h7.93c.31,0,.55-.25.55-.55s-.25-.55-.55-.55"/>
      <path class="cls-16" d="M49.18,133.25h-7.93c-.31,0-.55.25-.55.55s.25.55.55.55h7.93c.31,0,.55-.25.55-.55s-.25-.55-.55-.55"/>
      <rect class="cls-16" x="52.61" y="121.45" width="5.5" height="3.05"/>
      <rect class="cls-16" x="52.67" y="126.56" width="5.5" height="5.5"/>
    </g>
    <g>
      <rect class="cls-1" x="94.73" y="18.12" width="4.16" height="1.32"/>
      <rect class="cls-25" x="94.73" y="19.43" width="4.16" height=".66"/>
      <rect class="cls-2" x="94.73" y="20.09" width="4.16" height=".66"/>
      <rect class="cls-21" x="89.65" y="18.12" width="1.39" height="2.63"/>
      <rect class="cls-21" x="92.42" y="18.12" width="1.39" height="2.63"/>
      <rect class="cls-6" x="91.03" y="18.12" width="1.39" height="2.63"/>
      <polyline class="cls-13" points="88.71 20.75 84.55 20.75 84.55 19.43 88.71 19.43"/>
      <rect class="cls-18" x="84.55" y="18.12" width="1.39" height="1.32"/>
      <rect class="cls-6" x="85.94" y="18.12" width="2.77" height="1.32"/>
      <polygon class="cls-6" points="84.91 18.67 85.17 18.67 85.25 18.45 85.32 18.67 85.57 18.67 85.37 18.81 85.45 19.04 85.24 18.9 85.04 19.04 85.12 18.82 84.91 18.67"/>
      <path class="cls-4" d="M37.39,21.33h-.26v-1.56c0-.1.04-.2.11-.29.08-.09.17-.17.28-.23.11-.06.21-.09.31-.09h.48c.15,0,.28.01.39.06.11.05.21.11.28.19.07.08.12.16.16.25.03.09.05.16.05.23v.09s0,.01,0,.05c0,.04-.01.09-.03.15-.02.06-.04.12-.08.18-.04.07-.09.13-.16.18-.07.06-.15.1-.26.14-.11.03-.23.05-.38.04h-.88v.6ZM37.39,20.47h.99c.16,0,.28-.03.37-.1.08-.07.14-.13.16-.21.02-.07.04-.13.04-.17v-.08c0-.05-.01-.12-.04-.19-.03-.07-.08-.14-.16-.21-.08-.06-.2-.1-.36-.1h-.53c-.07,0-.14.02-.21.06-.07.04-.13.1-.18.16-.05.07-.07.13-.07.19v.64Z"/>
      <path class="cls-4" d="M41.43,19.38h-.91s-.1,0-.15,0-.11,0-.16.02c-.05.02-.09.04-.13.08-.04.04-.06.08-.08.13-.02.05-.02.09-.03.13,0,.04,0,.1,0,.19v.79s0,.02-.02.02h-.22s-.02,0-.02-.02v-.82s0-.09,0-.17c0-.08.02-.17.05-.25.03-.08.09-.16.17-.22.05-.04.11-.07.17-.09.06-.02.12-.04.17-.04s.11-.01.15-.01h1v.27Z"/>
      <path class="cls-4" d="M43.08,19.14c.14,0,.27,0,.37.04.11.03.19.08.26.14.07.06.12.12.16.19.04.07.07.13.08.19.02.06.03.11.03.15,0,.04,0,.06,0,.05v.1c0,.07-.02.15-.05.24-.03.09-.09.17-.16.25-.07.08-.16.15-.28.2-.11.05-.24.07-.39.06h-.3c-.15,0-.28-.01-.39-.06-.11-.05-.2-.12-.27-.2-.07-.08-.12-.17-.16-.25-.03-.09-.05-.17-.05-.24v-.1s0-.01,0-.05c0-.04.02-.09.03-.15.02-.06.05-.12.08-.19.04-.07.09-.13.16-.19.07-.06.15-.1.26-.14.1-.03.23-.05.37-.04h.22ZM43.18,20.47c.2,0,.34-.05.42-.14.08-.1.13-.2.14-.31v-.04s0-.08,0-.08v-.05c-.02-.1-.06-.21-.14-.3-.08-.1-.22-.15-.42-.15h-.42c-.2,0-.34.05-.42.15-.08.1-.12.2-.14.3v.05s0,.07,0,.07v.05c.02.11.06.21.14.31.08.1.22.14.42.14h.42Z"/>
      <path class="cls-4" d="M46.34,18.55h.26v1.59c0,.11-.01.2-.03.27-.02.08-.06.14-.11.18-.05.05-.12.08-.2.1-.08.02-.19.03-.32.03h-.52c-.15,0-.28-.01-.4-.06-.11-.05-.21-.11-.28-.19-.07-.08-.13-.16-.16-.25-.04-.09-.05-.17-.05-.23v-.09s0-.01,0-.05c0-.04.02-.09.03-.15.02-.06.05-.12.08-.19.04-.07.09-.13.16-.19.07-.06.16-.1.26-.14.11-.03.23-.05.38-.04h.89v-.6ZM46.34,19.41h-.99c-.16,0-.28.03-.37.1-.08.07-.14.13-.16.21s-.04.13-.04.18v.08c0,.05.01.12.04.19.03.08.08.14.16.21.08.06.21.1.36.1h.68c.08,0,.14-.02.19-.05.04-.03.08-.08.09-.14.02-.06.03-.13.03-.22v-.65Z"/>
      <path class="cls-4" d="M48.61,20.43c.07-.02.13-.06.17-.11.05-.05.08-.11.11-.18.03-.07.04-.15.04-.22v-.82h.27v.82c0,.15-.04.29-.11.41-.07.12-.17.22-.29.3-.12.07-.26.11-.4.11h-.51c-.15,0-.28-.04-.4-.11-.12-.08-.22-.17-.29-.3-.07-.13-.11-.26-.11-.41v-.82h.27v.82c0,.07.01.15.04.22.03.07.06.13.11.18.05.05.11.09.18.11.07.03.14.04.21.04h.51c.07,0,.14-.01.21-.04"/>
      <path class="cls-4" d="M50.24,19.44c-.07.03-.13.06-.18.11-.05.05-.08.11-.11.18-.03.07-.04.14-.04.21s.01.14.04.22c.03.07.06.13.11.18.05.05.1.08.18.11.07.03.14.04.21.04h1.31v.26h-1.31c-.14,0-.28-.04-.4-.11-.12-.07-.22-.17-.29-.29-.07-.12-.11-.26-.11-.4s.04-.28.11-.4c.07-.12.17-.22.29-.29.12-.07.26-.11.4-.11h1.31v.26h-1.31c-.07,0-.14.01-.21.04"/>
      <path class="cls-4" d="M53.62,20.47v.26h-.49c-.14,0-.27-.04-.39-.11-.12-.07-.22-.16-.29-.29-.07-.12-.11-.25-.11-.39v-1.42h.26v.61h.61v.26s0,0-.02,0h-.59v.56c0,.11.03.21.09.29.06.08.12.14.19.17.03.02.08.04.15.04.07,0,.12,0,.16,0h.44Z"/>
      <path class="cls-4" d="M55.32,19.14c.14,0,.27,0,.37.04.11.03.19.08.26.14.07.06.12.12.16.19.04.07.07.13.08.19.02.06.03.11.03.15,0,.04,0,.06,0,.05v.1c0,.07-.02.15-.05.24-.03.09-.09.17-.16.25-.07.08-.16.15-.28.2-.11.05-.24.07-.39.06h-.3c-.15,0-.28-.01-.39-.06-.11-.05-.2-.12-.27-.2-.07-.08-.12-.17-.16-.25-.03-.09-.05-.17-.05-.24v-.1s0-.01,0-.05c0-.04.02-.09.03-.15.02-.06.05-.12.08-.19.04-.07.09-.13.16-.19.07-.06.15-.1.26-.14.1-.03.23-.05.37-.04h.22ZM55.42,20.47c.2,0,.34-.05.42-.14.08-.1.13-.2.14-.31v-.04s0-.08,0-.08v-.05c-.02-.1-.06-.21-.14-.3-.08-.1-.22-.15-.42-.15h-.42c-.2,0-.34.05-.42.15-.08.1-.12.2-.14.3v.05s0,.07,0,.07v.05c.02.11.06.21.14.31.08.1.22.14.42.14h.42Z"/>
      <path class="cls-4" d="M58.45,19.82c.11,0,.2.04.28.11.08.06.12.19.12.38,0,.1-.03.18-.07.25-.05.07-.11.11-.18.15-.07.03-.15.05-.22.05h-1.63v-.27s1.62,0,1.62,0c.06,0,.11-.01.15-.04.05-.03.07-.08.07-.18,0-.06-.02-.1-.05-.12-.03-.03-.07-.04-.11-.05-.04,0-.07,0-.08,0h-1.18c-.06,0-.13-.02-.2-.05-.07-.03-.13-.09-.18-.16-.05-.08-.08-.17-.08-.29,0-.1.03-.19.08-.26.05-.07.12-.12.19-.15.08-.03.15-.05.21-.05h1.47v.27h-1.46c-.06,0-.11.01-.17.04s-.08.09-.08.19c0,.08.03.14.07.16.05.03.1.04.14.04h1.26Z"/>
      <path class="cls-4" d="M62.2,19.12v1.39c-.01.16-.05.3-.12.41-.08.14-.18.25-.29.31-.11.07-.25.1-.41.1h-1.13s-.02,0-.02-.02v-.23s0-.02.02-.02h1.13c.06,0,.11,0,.15-.01.04,0,.08-.02.12-.05.05-.03.09-.06.12-.09.03-.03.05-.06.07-.1l.04-.08h-1.04c-.12,0-.23-.02-.33-.07-.1-.05-.18-.1-.24-.16-.06-.06-.11-.14-.16-.24-.05-.1-.07-.2-.07-.3v-.84s0-.02,0-.02h.27v.88c0,.05.01.11.03.17.02.06.04.1.06.12.01.01.03.04.06.07.03.03.07.06.12.09.05.03.12.04.2.05h1.14s0-1.35,0-1.35c0-.01,0-.02.02-.02h.23s.02,0,.02.02"/>
      <path class="cls-4" d="M65.13,19.82c.11,0,.2.04.28.11.08.06.12.19.12.38,0,.1-.03.18-.07.25-.05.07-.11.11-.18.15-.07.03-.15.05-.22.05h-1.63v-.27s1.62,0,1.62,0c.06,0,.11-.01.15-.04.05-.03.07-.08.07-.18,0-.06-.02-.1-.05-.12-.03-.03-.07-.04-.11-.05-.04,0-.07,0-.08,0h-1.18c-.06,0-.13-.02-.2-.05-.07-.03-.13-.09-.18-.16-.05-.08-.08-.17-.08-.29,0-.1.03-.19.08-.26.05-.07.12-.12.19-.15.08-.03.15-.05.21-.05h1.47v.27h-1.46c-.06,0-.11.01-.17.04s-.08.09-.08.19c0,.08.03.14.07.16.05.03.1.04.14.04h1.26Z"/>
      <path class="cls-4" d="M67.87,19.23c.08.06.13.13.15.21.03.08.04.14.04.2,0,.29-.16.44-.48.45h-1.27s0,.07,0,.07c0,.07,0,.13.02.17.01.04.04.07.07.09.03.02.07.03.13.04.05,0,.13,0,.22,0h1.18s.05.02.05.05v.16s-.02.05-.05.05h-1.22c-.17,0-.3-.02-.4-.06s-.17-.1-.21-.18c-.04-.08-.06-.2-.06-.34v-.41c0-.09.04-.19.11-.28.07-.1.17-.18.28-.24.11-.06.23-.09.35-.09h.77c.14,0,.25.03.33.09M67.69,19.81s.05-.03.07-.05c.02-.02.03-.04.03-.06,0-.03.01-.06.01-.1,0-.02,0-.04-.02-.07-.01-.03-.03-.06-.06-.08-.03-.02-.07-.04-.12-.04h-.84c-.06,0-.12.02-.19.06-.07.04-.13.09-.18.15-.05.07-.07.14-.07.21h1.25c.05,0,.09,0,.11-.01"/>
      <path class="cls-4" d="M70.36,19.38h-.91s-.1,0-.15,0c-.06,0-.11,0-.16.02-.05.02-.09.04-.13.08-.04.04-.06.08-.08.13-.01.05-.02.09-.02.13,0,.04,0,.1,0,.19v.79s0,.02-.02.02h-.23s-.02,0-.02-.02v-.82s0-.09,0-.17c0-.08.02-.17.05-.25.03-.08.09-.16.17-.22.05-.04.11-.07.17-.09.06-.02.12-.04.17-.04.06,0,.11-.01.15-.01h1v.27Z"/>
      <path class="cls-4" d="M70.99,19.1l.95,1.42h.03l.95-1.42h.32l-.95,1.42c-.08.12-.13.19-.15.22h-.37c-.04-.06-.09-.14-.15-.22l-.95-1.42h.32Z"/>
      <path class="cls-4" d="M73.87,18.64h-.28v-.28h.28v.28ZM73.87,20.74h-.28v-1.72h.28v1.72Z"/>
      <path class="cls-4" d="M75,19.44c-.07.03-.13.06-.18.11-.05.05-.08.11-.11.18-.02.07-.04.14-.04.21s.01.14.04.22c.03.07.06.13.11.18.05.05.1.08.18.11.07.03.14.04.21.04h1.31v.26h-1.31c-.14,0-.28-.04-.4-.11-.12-.07-.22-.17-.29-.29-.07-.12-.11-.26-.11-.4s.04-.28.11-.4c.07-.12.17-.22.29-.29.12-.07.26-.11.4-.11h1.31v.26h-1.31c-.07,0-.14.01-.21.04"/>
      <path class="cls-4" d="M77.37,18.64h-.28v-.28h.28v.28ZM77.37,20.74h-.28v-1.72h.28v1.72Z"/>
      <path class="cls-4" d="M79.08,19.14c.14,0,.27,0,.37.04.11.03.19.08.26.14.07.06.12.12.16.19.04.07.07.13.08.19.02.06.03.11.03.15,0,.04,0,.06,0,.05v.1c0,.07-.02.15-.05.24-.03.09-.09.17-.16.25-.07.08-.16.15-.27.2-.11.05-.24.07-.39.06h-.3c-.15,0-.28-.01-.39-.06-.11-.05-.2-.12-.27-.2-.07-.08-.12-.17-.16-.25-.03-.09-.05-.17-.05-.24v-.1s0-.01,0-.05c0-.04.02-.09.03-.15.02-.06.04-.12.08-.19.04-.07.09-.13.16-.19.07-.06.15-.1.26-.14.1-.03.23-.05.37-.04h.22ZM79.19,20.47c.2,0,.34-.05.42-.14.08-.1.13-.2.14-.31v-.04s0-.08,0-.08v-.05c-.02-.1-.06-.21-.14-.3-.08-.1-.22-.15-.42-.15h-.42c-.2,0-.34.05-.42.15-.08.1-.12.2-.14.3v.05s0,.07,0,.07v.05c.02.11.06.21.14.31.08.1.22.14.42.14h.42Z"/>
      <path class="cls-4" d="M82.22,19.82c.11,0,.2.04.28.11.08.06.12.19.12.38,0,.1-.02.18-.07.25-.05.07-.11.11-.18.15-.07.03-.15.05-.22.05h-1.63v-.27s1.62,0,1.62,0c.06,0,.11-.01.15-.04.05-.03.07-.08.07-.18,0-.06-.02-.1-.05-.12-.03-.03-.07-.04-.11-.05-.04,0-.07,0-.08,0h-1.18c-.06,0-.13-.02-.2-.05-.07-.03-.13-.09-.18-.16-.05-.08-.08-.17-.08-.29,0-.1.03-.19.08-.26.05-.07.12-.12.19-.15.08-.03.15-.05.21-.05h1.47v.27h-1.46c-.06,0-.12.01-.17.04s-.08.09-.08.19c0,.08.03.14.07.16.05.03.1.04.14.04h1.26Z"/>
      <path class="cls-6" d="M18.84.27L4.54,4.78l14.33,11.12,14.04-10.84L18.84.27ZM24.37,10.39l-3.12,2.39-2.66-1.71,2.04-1.67c.37-.33.47-.56.47-.56v-3.18c.03-.54-.73-.85-.73-.85-.94-.45-2.38-.43-2.38-.43-1.33-.02-3.8.92-3.8.92v2.95l-3.69-2.37c2.35-.95,3.42-1.2,3.42-1.2,2.33-.65,3.96-.69,3.96-.69,2.61-.14,4.68.58,4.68.58,2.08.57,2.94,1.3,2.94,1.3,1.72,1.29,1.33,2.61,1.33,2.61-.27.24-2.47,1.91-2.47,1.91"/>
      <polygon class="cls-12" points="4.01 8.24 4.01 4.69 18.91 16.03 33.45 4.96 33.45 8.22 18.87 21.46 4.01 8.24"/>
      <path class="cls-12" d="M10.42,5.91l-2.39-1.48s3.15-1.23,5.77-1.73,3.58-.53,5.07-.47c1.5.06,4.37.63,6.26,1.55,1.89.93,2.29,1.89,2.4,2.42.12.53.09,1.75-.34,2.13l-.42.38s.31-.69-.13-1.56c-.44-.87-1.39-1.7-3.12-2.29-1.73-.59-3.27-.92-5.14-.89-1.87.03-3.57.44-4.87.82-1.3.38-3.09,1.11-3.09,1.11"/>
      <path class="cls-12" d="M14.2,5.37v2.94l4.29,2.83s.94-.73,1.6-1.28c.66-.54.94-.87,1.01-1.03v-3.24s.08.51-1.06,1.15c-1.13.64-1.49.85-1.49.85l-4.35-2.21Z"/>
      <path class="cls-12" d="M18.88,16.23L4,4.68,18.84,0h.04s14.57,4.97,14.57,4.97l-14.57,11.26ZM4.54,4.78l14.34,11.12,14.04-10.84L18.84.27,4.54,4.78Z"/>
      <path class="cls-12" d="M21.27,13.09l-.07-.05L7.75,4.39l.24-.09s3.19-1.24,5.8-1.74c1.92-.37,3-.49,4.14-.49.27,0,.57,0,.95.02,1.62.06,4.5.68,6.31,1.57,1.43.7,2.26,1.54,2.47,2.51.12.56.1,1.82-.38,2.25l-.43.38-5.59,4.29ZM8.31,4.45l12.94,8.32,5.44-4.17.42-.38c.38-.34.41-1.51.3-2-.2-.89-.98-1.67-2.33-2.33-1.78-.87-4.61-1.48-6.2-1.54-.38-.01-.68-.02-.95-.02-.97,0-1.94.08-4.1.49-2.17.41-4.73,1.34-5.51,1.63"/>
      <path class="cls-12" d="M18.46,7.64l-4.29-2.19.04-.07-.03-.08c.1-.04,2.43-.93,3.82-.93h.03c1.46.01,2.38.36,2.77.69.36.3.41.63.16,1.02-.18.28-.71.67-1.43,1.05-.71.38-1.02.5-1.03.51h-.03ZM14.32,5.39l4.15,2.12c.09-.04.4-.18.99-.49.7-.37,1.21-.74,1.38-1,.21-.33.18-.6-.13-.85-.37-.31-1.27-.65-2.69-.66h-.03c-1.21,0-3.21.72-3.68.89"/>
      <path class="cls-12" d="M44.5,6.74c.14.02.36.08.68.19.31.11.68.32,1.09.63.41.31.77.78,1.08,1.4.31.62.46,1.41.46,2.36s-.18,1.67-.54,2.27c-.36.61-.79,1.06-1.29,1.35-.5.29-.97.47-1.42.53h-7.62V6.73h7.57ZM44.44,14.29c.23-.04.52-.14.84-.3.32-.16.63-.46.92-.9.29-.43.43-1.03.43-1.78,0-.88-.15-1.57-.45-2.07-.3-.5-.62-.84-.95-1.01-.33-.18-.61-.28-.84-.32h-6.28v6.38h6.33Z"/>
      <rect class="cls-12" x="48.63" y="6.75" width="1.19" height="8.7"/>
      <path class="cls-12" d="M56.29,9.12c.77-.01,1.46-.13,2.06-.34.61-.22,1.08-.43,1.4-.65.33-.22.55-.38.66-.49l.96-.91v8.75h-1.14v-6.32c-.5.3-1.08.55-1.75.76-.66.21-1.39.32-2.18.33-.83,0-1.61-.1-2.33-.32-.72-.22-1.36-.49-1.92-.82v6.36h-1.14V6.73l1,.86c.14.13.39.3.75.53.36.23.86.45,1.51.68.64.23,1.35.33,2.11.32"/>
      <rect class="cls-10" x="63.08" y="10.44" width="2.29" height="1.16"/>
      <g>
        <path class="cls-23" d="M76.92,6.66v1.19h-6.39c-.25,0-.53.08-.84.23s-.63.39-.93.71c-.22.23-.41.53-.57.9-.16.37-.25.83-.25,1.37,0,.36.06.72.17,1.06s.28.67.49.97c.19.27.44.53.75.78.31.26.7.39,1.17.4h6.39v1.19h-6.39c-.71,0-1.37-.2-1.97-.59-.6-.4-1.08-.93-1.43-1.61-.35-.67-.52-1.41-.52-2.21s.17-1.53.52-2.21c.35-.67.83-1.21,1.43-1.6.6-.4,1.26-.59,1.97-.59h6.39Z"/>
        <path class="cls-23" d="M78.28,6.7h8.79v1.2h-7.59v2.4h7.59v1.2h-7.59v2.8h7.59v1.2h-8.79V6.7Z"/>
        <path class="cls-23" d="M95.74,6.75c.47.08.94.28,1.43.61s.9.81,1.24,1.46.51,1.45.51,2.4c0,.71-.12,1.34-.37,1.87-.25.53-.54.96-.9,1.29-.36.33-.71.57-1.05.73-.34.16-.62.26-.85.29-.3.04-.95.07-1.95.07h-.26c-.12,0-.28,0-.48,0-.69,0-1.17-.02-1.45-.07-.26-.04-.56-.16-.9-.33-.34-.18-.68-.43-1.02-.77-.34-.34-.62-.77-.84-1.31-.22-.54-.33-1.16-.33-1.88,0-1.02.2-1.84.6-2.47.4-.63.82-1.08,1.28-1.34.45-.27.85-.45,1.19-.54.2-.05.88-.07,2.04-.07s1.85.02,2.11.07ZM95.6,14.3c.07,0,.21-.06.44-.16s.47-.26.75-.48.52-.54.72-.95c.2-.41.31-.9.31-1.49,0-.88-.16-1.57-.49-2.06-.33-.5-.65-.83-.99-1s-.59-.27-.78-.31c-.2-.03-.84-.05-1.93-.05-.98,0-1.57.01-1.77.04-.29.07-.59.21-.92.42-.33.21-.63.55-.89,1.01-.27.47-.4,1.08-.4,1.83,0,.62.1,1.14.3,1.56.2.43.44.75.71.98.27.23.51.39.73.48s.36.15.43.16c.21.04.63.06,1.26.06.27,0,.42,0,.47,0h.28c.95,0,1.54-.02,1.79-.06Z"/>
      </g>
    </g>
    <g>
      <rect class="cls-16" x="46.95" y="149.37" width="20.89" height="26.36"/>
      <path class="cls-11" d="M65.54,174.73h-16.3c-.65,0-1.18-.53-1.18-1.18v-22.01c0-.65.53-1.18,1.18-1.18h16.3c.65,0,1.18.53,1.18,1.18v22.01c0,.65-.53,1.18-1.18,1.18"/>
      <path class="cls-8" d="M51.28,163.14c0,.41-.33.73-.73.73s-.73-.33-.73-.73.33-.73.73-.73.73.33.73.73"/>
      <path class="cls-7" d="M64.31,163.68h-11.16c-.3,0-.55-.25-.55-.55s.25-.55.55-.55h11.16c.3,0,.55.25.55.55s-.25.55-.55.55"/>
      <path class="cls-7" d="M65.11,155.56h-5.24c-.3,0-.55-.25-.55-.55s.25-.55.55-.55h5.24c.3,0,.55.25.55.55s-.25.55-.55.55"/>
      <rect class="cls-9" x="64" y="166.34" width="1.15" height="7.6"/>
      <rect class="cls-9" x="60.55" y="170.57" width="1.15" height="3.29"/>
      <rect class="cls-9" x="56.49" y="167.7" width="1.15" height="6.19"/>
      <rect class="cls-9" x="53.13" y="169.16" width="1.15" height="4.65"/>
      <rect class="cls-9" x="49.66" y="168.39" width="1.15" height="5.47"/>
      <path class="cls-6" d="M58.67,155.06c0,3.16-2.56,5.72-5.72,5.72s-5.72-2.56-5.72-5.72,2.56-5.72,5.72-5.72,5.72,2.56,5.72,5.72"/>
      <path class="cls-8" d="M55.33,157.91c-.18.33-.45.6-.8.82-.35.22-.77.35-1.27.38v.92h-.61v-.92c-.69-.06-1.25-.28-1.68-.66-.43-.38-.65-.87-.66-1.46h1.1c.03.32.15.6.36.83.21.24.5.38.88.44v-2.84c-.51-.13-.92-.26-1.23-.4-.31-.14-.58-.35-.79-.64-.22-.29-.33-.67-.33-1.16,0-.61.21-1.12.64-1.52.43-.4,1-.62,1.71-.67v-.94h.61v.94c.64.05,1.16.26,1.56.62.39.36.62.83.68,1.4h-1.1c-.04-.26-.15-.51-.35-.72-.2-.22-.46-.36-.78-.43v2.77c.5.13.91.26,1.22.39.31.13.58.34.8.63.22.29.32.68.32,1.17,0,.36-.09.71-.27,1.04M51.68,154.02c.22.2.54.36.96.49v-2.62c-.39.04-.71.17-.94.38-.23.22-.35.52-.35.9s.11.65.33.85M54.22,157.82c.23-.25.35-.55.35-.9,0-.37-.11-.66-.34-.86-.23-.2-.55-.36-.97-.48v2.68c.41-.05.73-.19.96-.44"/>
      <path class="cls-14" d="M34.73,165.7h-13.06c-.67,0-1.21.55-1.21,1.24v24.59c0,.68.54,1.24,1.21,1.24h18c.67,0,1.21-.55,1.21-1.24v-19.31l-6.14-6.52Z"/>
      <path class="cls-20" d="M34.27,166.9h-11.56c-.59,0-1.07.51-1.07,1.13v22.41c0,.62.48,1.13,1.07,1.13h15.93c.59,0,1.07-.51,1.07-1.13v-17.6l-5.44-5.95Z"/>
      <path class="cls-22" d="M32.64,173.39l-.06-5.49c0-.29-.23-.52-.51-.52h-9.37c-.28,0-.51.23-.51.52v22.65c0,.29.23.52.51.52h15.95c.28,0,.51-.23.51-.52v-16.13c0-.29-.23-.52-.51-.52h-5.5c-.28,0-.51-.23-.51-.52"/>
      <path class="cls-14" d="M31.17,171.21h-8.19c-.18,0-.33-.11-.33-.25s.15-.26.33-.26h8.19c.18,0,.33.11.33.26s-.15.25-.33.25"/>
      <polygon class="cls-14" points="38.49 184.16 23.26 184.16 23.26 175.95 23.67 175.95 23.67 183.85 38.49 183.85 38.49 184.16"/>
      <path class="cls-14" d="M35.86,176.62c-.47.31-1.31.87-1.86,1.03l.81.09-2.43,3.42-1.74-.54-1.62,1.57-1.75-2.03-2.89,2.73.44.4,2.44-2.29,1.72,1.97,1.83-1.69,1.82.55,2.67-3.76.46.48c-.13-.44.01-1.44.1-1.91"/>
      <rect class="cls-20" x="73.24" y="169.09" width="22.83" height="24.49"/>
      <path class="cls-6" d="M93.71,192.42h-18.13c-.53,0-.96-.43-.96-.96v-20.37c0-.53.43-.96.96-.96h18.13c.53,0,.96.43.96.96v20.37c0,.53-.43.96-.96.96"/>
      <path class="cls-5" d="M87.5,173.43h-8.19c-.3,0-.55-.24-.55-.55s.24-.55.55-.55h8.19c.3,0,.55.25.55.55s-.24.55-.55.55"/>
      <path class="cls-5" d="M78,179.36c0,.54-.44.98-.98.98s-.98-.44-.98-.98.44-.98.98-.98.98.44.98.98"/>
      <path class="cls-5" d="M90.15,177.5h-8.19c-.3,0-.55-.24-.55-.55s.24-.55.55-.55h8.19c.3,0,.55.25.55.55s-.24.55-.55.55"/>
      <path class="cls-5" d="M83.06,185.18h-5.28c-.35,0-.63-.28-.63-.63s.28-.63.63-.63h5.28c.35,0,.63.28.63.63s-.28.63-.63.63"/>
      <path class="cls-5" d="M83.06,189.88h-5.28c-.35,0-.63-.28-.63-.63s.28-.63.63-.63h5.28c.35,0,.63.28.63.63s-.28.63-.63.63"/>
      <polygon class="cls-24" points="98.92 176.82 97.78 175.68 90.38 183.08 86.83 179.53 85.69 180.67 89.24 184.22 89.22 184.24 90.36 185.38 90.38 185.36 90.4 185.38 91.54 184.24 91.52 184.22 98.92 176.82"/>
      <polygon class="cls-24" points="98.73 182.98 97.59 181.84 90.19 189.24 86.64 185.7 85.5 186.83 89.05 190.38 89.04 190.4 90.17 191.54 90.19 191.52 90.21 191.54 91.35 190.4 91.33 190.38 98.73 182.98"/>
      <rect class="cls-8" x="57.33" y="171.57" width="1.13" height="22.37"/>
      <path class="cls-8" d="M49.99,188.83h0s-12.49,0-12.49,0c-.61,0-1.1-.49-1.1-1.1v-3.66h-1.13v4.75h0v1.13h0s1.13,0,1.13,0h0s11.42,0,11.42,0c.61,0,1.1.49,1.1,1.1v2.93h1.13v-5.16h-.06Z"/>
      <polygon class="cls-8" points="74.76 178.25 65.24 178.25 65.24 179.38 65.24 179.38 65.24 193.83 66.37 193.83 66.37 179.38 74.76 179.38 74.76 178.25"/>
      <path class="cls-5" d="M38.21,181.91c0,1.48-1.2,2.68-2.68,2.68s-2.68-1.2-2.68-2.68,1.2-2.68,2.68-2.68,2.68,1.2,2.68,2.68"/>
      <path class="cls-5" d="M60.58,169.13c0,1.48-1.2,2.68-2.68,2.68s-2.68-1.2-2.68-2.68,1.2-2.68,2.68-2.68,2.68,1.2,2.68,2.68"/>
      <path class="cls-5" d="M79.44,178.4c0,1.48-1.2,2.68-2.68,2.68s-2.68-1.2-2.68-2.68,1.2-2.68,2.68-2.68,2.68,1.2,2.68,2.68"/>
      <path class="cls-19" d="M68.4,199.28h-19.75c-.62,0-1.12-.5-1.12-1.12v-12.59c0-.62.5-1.12,1.12-1.12h19.75c.62,0,1.12.5,1.12,1.12v12.59c0,.62-.5,1.12-1.12,1.12"/>
      <path class="cls-6" d="M65.3,195.81h-14.05c-.22,0-.4.18-.4.4s.18.4.4.4h14.05c.22,0,.4-.18.4-.4s-.18-.4-.4-.4"/>
      <rect class="cls-6" x="50.15" y="188.32" width="3.96" height="2.96"/>
      <rect class="cls-6" x="57" y="188.32" width="9.9" height="3.96"/>
    </g>
    <text class="cls-15" transform="translate(26.11 214)"><tspan x="0" y="0">Icono app</tspan></text>
  </g>
</svg>