<?xml version="1.0" encoding="UTF-8"?>
<svg id="Capa_2" xmlns="http://www.w3.org/2000/svg" viewBox="0 0 114.71 207.17">
  <defs>
    <style>
      .cls-1 {
        fill: #f9cf16;
      }

      .cls-2 {
        fill: #cd142a;
      }

      .cls-3 {
        fill: #e55317;
      }

      .cls-4 {
        fill: #646365;
      }

      .cls-5 {
        fill: #fff;
      }

      .cls-6 {
        fill: #625f60;
      }

      .cls-7 {
        fill: #505050;
      }

      .cls-8 {
        fill: #4780b4;
      }

      .cls-9 {
        fill: #d00e4d;
      }

      .cls-10 {
        fill: #d00e4c;
      }

      .cls-11 {
        fill: #d22e1f;
      }

      .cls-12 {
        fill: #005e99;
      }

      .cls-13 {
        fill: #dcdcdc;
      }

      .cls-14 {
        fill: #d20f48;
      }

      .cls-15 {
        fill: #1d458c;
      }

      .cls-16 {
        fill: #e1222c;
      }

      .cls-17 {
        fill: #828384;
      }

      .cls-18 {
        fill: #1b4180;
      }
    </style>
  </defs>
  <g id="Capa_1-2" data-name="Capa_1">
    <g>
      <g>
        <path class="cls-17" d="M72.92,28.69v1.19h-6.39c-.25,0-.53.08-.84.23s-.63.39-.93.71c-.22.23-.41.53-.57.9-.16.37-.25.83-.25,1.37,0,.36.06.72.17,1.06.11.35.28.67.49.97.19.27.44.53.75.78.31.26.7.39,1.17.4h6.39v1.19h-6.39c-.71,0-1.37-.2-1.97-.59-.6-.4-1.08-.93-1.43-1.61-.35-.67-.52-1.41-.52-2.21s.17-1.53.52-2.21c.35-.67.83-1.21,1.43-1.6.6-.4,1.26-.59,1.97-.59h6.39Z"/>
        <path class="cls-17" d="M74.29,28.73h8.79v1.2h-7.59v2.4h7.59v1.2h-7.59v2.8h7.59v1.2h-8.79v-8.79Z"/>
        <path class="cls-17" d="M84.51,28.71h10v1.2h-8.8v2.4h6.66v1.2h-6.66v4h-1.2v-8.8Z"/>
        <path class="cls-17" d="M94.9,34.06h3.29c.06,0,.09.03.09.08v.45c0,.05-.03.08-.09.08h-3.37v-.53c0-.05.04-.08.08-.08Z"/>
        <path class="cls-17" d="M108.48,32.57c.26.02.54.12.83.29.29.17.54.44.74.81.21.37.31.84.31,1.42,0,.53-.12.97-.35,1.32-.23.35-.52.62-.86.79-.34.17-.67.26-1,.27h-7.55v-1.18h7.52c.23,0,.46-.08.69-.25s.34-.48.34-.94c0-.51-.08-.85-.26-1.04-.18-.19-.35-.29-.5-.32h-5.82c-.3,0-.61-.09-.94-.26-.33-.16-.61-.43-.84-.81-.23-.37-.35-.86-.35-1.45,0-.56.12-1.02.37-1.39.25-.36.55-.63.89-.8.35-.17.67-.27.98-.29h6.82v1.18h-6.74c-.12,0-.27.04-.44.11-.18.07-.34.21-.48.4s-.22.46-.22.8c0,.53.11.89.34,1.07.23.18.44.28.64.29h5.86Z"/>
        <path class="cls-17" d="M112.42,28.71v1.04h-1.04v-1.04h1.04ZM112.42,31.13v6.35h-1.04v-6.35h1.04Z"/>
        <path class="cls-17" d="M114.71,28.71v1.04h-1.04v-1.04h1.04ZM114.71,31.13v6.35h-1.04v-6.35h1.04Z"/>
      </g>
      <g>
        <g>
          <path class="cls-4" d="M49.03,21.38h-.28s0,0,0-.05v-1.65c0-.11.04-.21.12-.32.08-.1.18-.19.3-.25.12-.07.23-.1.33-.1h.53c.16,0,.31.02.43.07s.22.12.3.21c.08.09.13.18.17.27.04.09.06.18.06.25v.1s0,.01,0,.06c0,.04-.02.1-.04.16-.02.06-.05.13-.09.2-.04.07-.1.14-.18.2-.07.06-.17.11-.29.15-.12.04-.25.05-.41.04h-.96v.65ZM49.03,20.44h1.08c.18,0,.31-.04.4-.11.09-.07.15-.15.18-.22s.04-.14.04-.19v-.09c0-.06-.01-.13-.04-.21s-.09-.16-.18-.23-.22-.1-.39-.1h-.58c-.07,0-.15.02-.23.07-.08.05-.14.1-.19.17-.05.07-.07.14-.07.2v.7Z"/>
          <path class="cls-4" d="M53.44,19.25h-.99s-.11,0-.17,0c-.06,0-.12,0-.17.02s-.1.04-.14.08c-.04.04-.07.08-.08.14s-.03.1-.03.14c0,.04,0,.11,0,.21v.87s0,.02-.02.02h-.25s-.02,0-.02-.02v-.89s0-.1,0-.19c0-.09.02-.18.05-.27.03-.09.1-.17.19-.24.06-.04.12-.08.18-.1s.13-.04.19-.05.12-.01.17-.01h1.1v.29Z"/>
          <path class="cls-4" d="M55.25,18.99c.16,0,.29,0,.41.04.12.04.21.09.28.15.07.06.13.13.17.21.04.07.07.14.09.2.02.06.03.12.04.16s0,.07,0,.06v.1c0,.08-.02.16-.06.26-.04.1-.09.19-.17.28-.08.09-.18.16-.3.21-.12.05-.26.08-.43.07h-.33c-.16,0-.3-.01-.43-.07-.12-.05-.22-.12-.3-.21-.08-.09-.13-.18-.17-.28-.04-.1-.06-.18-.06-.26v-.1s0-.01,0-.06.02-.1.04-.16c.02-.06.05-.13.09-.2.04-.07.1-.14.17-.21.07-.06.17-.12.28-.15.12-.04.25-.05.41-.04h.24ZM55.36,20.44c.22,0,.37-.05.46-.16.09-.1.14-.22.15-.34v-.05s0-.08,0-.08v-.05c-.02-.11-.07-.22-.15-.33-.09-.11-.24-.16-.46-.16h-.46c-.22,0-.37.05-.46.16-.09.11-.14.22-.15.33v.05s0,.08,0,.08v.05c.02.12.07.23.16.34s.24.16.46.16h.46Z"/>
          <path class="cls-4" d="M58.82,18.35h.28s0,0,0,.05v1.68c0,.12-.01.22-.04.3s-.06.15-.12.2c-.06.05-.13.09-.22.11-.09.02-.21.04-.35.04h-.57c-.16,0-.31-.01-.43-.07-.12-.05-.23-.12-.3-.21-.08-.09-.14-.18-.17-.27-.04-.1-.06-.18-.06-.26v-.1s0-.01,0-.06c0-.05.02-.1.04-.16.02-.06.05-.13.09-.2s.1-.14.18-.2c.07-.06.17-.11.29-.15.12-.04.25-.05.41-.04h.97v-.66ZM58.82,19.29h-1.08c-.18,0-.31.04-.4.11s-.15.15-.18.23c-.03.08-.04.14-.04.19v.08c0,.06.01.13.04.21.03.08.09.16.18.23.09.07.22.1.4.1h.75c.09,0,.15-.02.2-.06.05-.04.08-.09.1-.15s.03-.15.03-.24v-.71Z"/>
          <path class="cls-4" d="M61.3,20.4c.08-.03.14-.07.19-.12s.09-.12.12-.2.04-.16.04-.24v-.9h.29v.9c0,.16-.04.31-.12.45-.08.14-.19.25-.32.33-.13.08-.28.12-.44.12h-.56c-.16,0-.3-.04-.44-.12-.13-.08-.24-.19-.32-.33-.08-.14-.12-.29-.12-.45v-.9h.29s0,0,0,.02v.87c0,.08.01.16.04.24s.07.15.12.2.11.09.19.12c.08.03.15.04.23.04h.56c.08,0,.15-.01.23-.04Z"/>
          <path class="cls-4" d="M63.08,19.32c-.08.03-.14.07-.19.12-.05.05-.09.12-.12.19-.03.08-.04.16-.04.23s.01.16.04.23c.03.08.07.14.12.19.05.05.12.09.19.12.08.03.16.04.23.04h1.43v.29h-1.43c-.16,0-.3-.04-.44-.12-.13-.08-.24-.18-.32-.32-.08-.13-.12-.28-.12-.44s.04-.3.12-.44c.08-.13.18-.24.32-.32.13-.08.28-.12.44-.12h1.43v.29h-1.43c-.08,0-.16.01-.23.04Z"/>
          <path class="cls-4" d="M66.77,20.44v.29h-.54c-.15,0-.3-.04-.43-.11-.13-.08-.24-.18-.32-.31-.08-.13-.12-.27-.12-.43v-1.55h.29s0,0,0,.02v.64h.67s0,0,0,.02v.26s0,0-.03,0h-.65v.62c0,.13.03.23.1.32.06.08.13.15.21.19.04.02.09.04.16.05.07,0,.13,0,.18,0h.48Z"/>
          <path class="cls-4" d="M68.63,18.99c.16,0,.29,0,.41.04.12.04.21.09.28.15.07.06.13.13.17.21.04.07.07.14.09.2.02.06.03.12.04.16s0,.07,0,.06v.1c0,.08-.02.16-.06.26-.04.1-.09.19-.17.28-.08.09-.18.16-.3.21-.12.05-.26.08-.43.07h-.33c-.16,0-.3-.01-.43-.07-.12-.05-.22-.12-.3-.21-.08-.09-.13-.18-.17-.28-.04-.1-.06-.18-.06-.26v-.1s0-.01,0-.06.02-.1.04-.16c.02-.06.05-.13.09-.2.04-.07.1-.14.17-.21.07-.06.17-.12.28-.15.11-.04.25-.05.41-.04h.24ZM68.74,20.44c.22,0,.37-.05.46-.16.09-.1.14-.22.15-.34v-.05s0-.08,0-.08v-.05c-.02-.11-.07-.22-.15-.33-.09-.11-.24-.16-.46-.16h-.46c-.22,0-.37.05-.46.16-.09.11-.14.22-.15.33v.05s0,.08,0,.08v.05c.02.12.07.23.16.34s.24.16.46.16h.46Z"/>
          <path class="cls-4" d="M72.06,19.73c.12,0,.22.05.31.12s.13.21.13.41c0,.11-.03.2-.08.27-.05.07-.12.12-.2.16s-.16.05-.24.05h-1.78v-.29s1.77,0,1.77,0c.06,0,.12-.01.17-.04.05-.03.08-.09.08-.19,0-.06-.02-.11-.05-.14-.04-.03-.08-.04-.12-.05s-.07,0-.09,0h-1.29c-.07,0-.14-.02-.22-.06-.08-.04-.14-.09-.2-.18-.06-.08-.08-.19-.08-.32,0-.11.03-.21.09-.28.06-.07.13-.13.21-.16.08-.04.16-.05.23-.06h1.61v.29h-1.59c-.07,0-.13.01-.18.04-.06.03-.08.1-.08.21,0,.09.03.15.08.18.05.03.1.04.15.04h1.38Z"/>
          <path class="cls-4" d="M76.15,18.97v1.52c-.01.17-.05.33-.13.45-.09.16-.2.27-.32.34-.12.07-.27.11-.45.11h-1.24s-.02,0-.02-.02v-.25s0-.02.02-.02h1.24c.06,0,.12,0,.17-.01.05,0,.09-.03.13-.05.05-.04.1-.07.13-.1.03-.03.06-.06.08-.11l.04-.09h-1.13c-.13,0-.25-.02-.36-.08s-.19-.11-.26-.18c-.07-.07-.12-.15-.18-.26s-.08-.22-.08-.33v-.92s0-.02,0-.02h.3s0,0,0,.02v.94c0,.06.01.12.04.18.02.06.04.11.07.13.01.01.03.04.07.07.03.03.08.07.14.09s.13.05.22.06h1.24s0-1.47,0-1.47c0-.02,0-.02.02-.02h.25s.02,0,.02.02Z"/>
          <path class="cls-4" d="M79.37,19.73c.12,0,.22.05.31.12s.13.21.13.41c0,.11-.03.2-.08.27-.05.07-.12.12-.2.16-.08.03-.16.05-.24.05h-1.78v-.29s1.77,0,1.77,0c.06,0,.12-.01.17-.04.05-.03.08-.09.08-.19,0-.06-.02-.11-.05-.14-.04-.03-.08-.04-.12-.05-.05,0-.07,0-.08,0h-1.29c-.07,0-.14-.02-.22-.06-.08-.04-.14-.09-.2-.18-.06-.08-.08-.19-.08-.32,0-.11.03-.21.09-.28s.13-.13.21-.16c.08-.04.16-.05.23-.06h1.61v.29h-1.59c-.07,0-.13.01-.18.04-.06.03-.08.1-.08.21,0,.09.03.15.08.18.05.03.1.04.15.04h1.38Z"/>
          <path class="cls-4" d="M82.36,19.09c.08.07.14.14.17.23s.04.16.04.22c0,.31-.17.48-.52.49h-1.38s0,.07,0,.07c0,.08,0,.14.02.19.01.05.04.08.07.1s.08.04.14.04c.06,0,.14.01.24.01h1.29s.06.02.06.05v.17s-.02.06-.06.06h-1.33c-.19,0-.33-.02-.44-.06-.11-.04-.18-.11-.23-.2-.05-.09-.07-.21-.07-.37v-.44c0-.1.04-.21.12-.31s.18-.19.3-.26.25-.1.38-.1h.84c.15,0,.27.03.36.1ZM82.16,19.72s.05-.03.08-.06c.02-.02.03-.04.04-.07s.01-.06.01-.11c0-.02,0-.05-.02-.08-.01-.03-.03-.06-.07-.09-.03-.03-.08-.04-.13-.04h-.92c-.07,0-.14.02-.21.06-.08.04-.14.1-.19.17-.05.07-.08.15-.08.23h1.37c.06,0,.1,0,.12-.01Z"/>
          <path class="cls-4" d="M85.08,19.25h-.99s-.11,0-.17,0c-.06,0-.12,0-.17.02s-.1.04-.14.08c-.04.04-.07.08-.08.14-.02.05-.03.1-.03.14,0,.04,0,.11,0,.21v.87s0,.02-.02.02h-.25s-.02,0-.02-.02v-.89s0-.1,0-.19c0-.09.02-.18.05-.27.03-.09.1-.17.19-.24.06-.04.12-.08.18-.1.07-.02.13-.04.19-.05s.12-.01.17-.01h1.1v.29Z"/>
          <path class="cls-4" d="M85.77,18.94l1.03,1.55h.03l1.03-1.55h.35l-1.04,1.55c-.08.13-.14.21-.16.24h-.41c-.05-.07-.1-.15-.16-.24l-1.03-1.55h.35Z"/>
          <path class="cls-4" d="M88.92,18.14v.31h-.31v-.31h.31ZM88.92,18.85v1.88h-.31v-1.88h.31Z"/>
          <path class="cls-4" d="M90.16,19.32c-.08.03-.14.07-.19.12s-.09.12-.12.19c-.03.08-.04.16-.04.23s.01.16.04.23c.03.08.07.14.12.19s.12.09.19.12.16.04.23.04h1.43v.29h-1.43c-.16,0-.3-.04-.44-.12-.13-.08-.24-.18-.32-.32-.08-.13-.12-.28-.12-.44s.04-.3.12-.44c.08-.13.18-.24.32-.32.13-.08.28-.12.44-.12h1.43v.29h-1.43c-.08,0-.16.01-.23.04Z"/>
          <path class="cls-4" d="M92.75,18.14v.31h-.31v-.31h.31ZM92.75,18.85v1.88h-.31v-1.88h.31Z"/>
          <path class="cls-4" d="M94.62,18.99c.16,0,.29,0,.41.04s.21.09.28.15c.07.06.13.13.17.21.04.07.07.14.09.2.02.06.03.12.04.16,0,.05,0,.07,0,.06v.1c0,.08-.02.16-.06.26-.04.1-.09.19-.17.28-.08.09-.18.16-.3.21-.12.05-.26.08-.43.07h-.33c-.16,0-.31-.01-.43-.07-.12-.05-.22-.12-.3-.21-.08-.09-.13-.18-.17-.28-.04-.1-.06-.18-.06-.26v-.1s0-.01,0-.06.02-.1.04-.16c.02-.06.05-.13.09-.2.04-.07.1-.14.17-.21.07-.06.17-.12.28-.15.11-.04.25-.05.41-.04h.24ZM94.74,20.44c.22,0,.37-.05.46-.16s.14-.22.15-.34v-.05s0-.08,0-.08v-.05c-.02-.11-.07-.22-.15-.33-.09-.11-.24-.16-.46-.16h-.46c-.22,0-.37.05-.46.16-.09.11-.14.22-.15.33v.05s0,.08,0,.08v.05c.02.12.07.23.16.34s.24.16.46.16h.46Z"/>
          <path class="cls-4" d="M98.05,19.73c.12,0,.22.05.31.12s.13.21.13.41c0,.11-.03.2-.08.27-.05.07-.12.12-.2.16s-.16.05-.24.05h-1.78v-.29s1.77,0,1.77,0c.06,0,.12-.01.17-.04.05-.03.08-.09.08-.19,0-.06-.02-.11-.05-.14-.04-.03-.08-.04-.12-.05-.05,0-.07,0-.08,0h-1.29c-.07,0-.14-.02-.22-.06-.08-.04-.14-.09-.2-.18-.06-.08-.08-.19-.08-.32,0-.11.03-.21.09-.28s.13-.13.21-.16c.08-.04.16-.05.23-.06h1.61v.29h-1.59c-.07,0-.13.01-.18.04-.06.03-.08.1-.08.21,0,.09.03.15.08.18.05.03.1.04.15.04h1.38Z"/>
        </g>
        <rect class="cls-1" x="110.52" y="18.11" width="4.16" height="1.32"/>
        <rect class="cls-18" x="110.52" y="19.43" width="4.16" height=".66"/>
        <rect class="cls-2" x="110.52" y="20.08" width="4.16" height=".66"/>
        <rect class="cls-16" x="105.43" y="18.11" width="1.39" height="2.63"/>
        <rect class="cls-16" x="108.2" y="18.11" width="1.39" height="2.63"/>
        <rect class="cls-5" x="106.82" y="18.11" width="1.39" height="2.63"/>
        <polyline class="cls-11" points="104.5 20.74 100.34 20.74 100.34 19.43 104.5 19.43"/>
        <rect class="cls-15" x="100.34" y="18.11" width="1.39" height="1.32"/>
        <rect class="cls-5" x="101.73" y="18.11" width="2.77" height="1.32"/>
        <polygon class="cls-5" points="100.7 18.67 100.95 18.67 101.03 18.44 101.11 18.67 101.36 18.67 101.16 18.8 101.23 19.03 101.03 18.89 100.83 19.03 100.9 18.81 100.7 18.67"/>
        <path class="cls-5" d="M14.84.27L.55,4.78l14.33,11.12,14.04-10.84L14.84.27ZM20.37,10.39l-3.12,2.39-2.66-1.71,2.04-1.67c.37-.33.47-.56.47-.56v-3.18c.03-.54-.73-.85-.73-.85-.94-.45-2.38-.43-2.38-.43-1.33-.02-3.8.92-3.8.92v2.95l-3.69-2.37c2.35-.95,3.42-1.2,3.42-1.2,2.33-.65,3.96-.69,3.96-.69,2.61-.14,4.68.58,4.68.58,2.08.57,2.94,1.3,2.94,1.3,1.72,1.29,1.33,2.61,1.33,2.61-.27.24-2.47,1.91-2.47,1.91"/>
        <polygon class="cls-10" points=".02 8.24 .02 4.69 14.92 16.03 29.45 4.96 29.45 8.22 14.87 21.46 .02 8.24"/>
        <path class="cls-10" d="M6.42,5.9l-2.39-1.48s3.15-1.23,5.77-1.73,3.58-.53,5.07-.47c1.5.06,4.37.63,6.26,1.56,1.89.93,2.29,1.89,2.4,2.42.12.53.09,1.75-.34,2.13l-.42.38s.31-.69-.13-1.56c-.44-.87-1.39-1.7-3.12-2.29-1.73-.59-3.27-.92-5.14-.89-1.87.03-3.57.44-4.87.82-1.3.38-3.09,1.11-3.09,1.11"/>
        <path class="cls-10" d="M10.2,5.37v2.94l4.29,2.83s.94-.73,1.6-1.28c.66-.54.94-.87,1.01-1.03v-3.24s.08.51-1.06,1.15c-1.13.64-1.49.85-1.49.85l-4.35-2.21Z"/>
        <path class="cls-10" d="M14.88,16.23L0,4.68,14.85,0h.04s14.57,4.97,14.57,4.97l-14.57,11.26ZM.55,4.78l14.34,11.12,14.04-10.84L14.84.27.55,4.78Z"/>
        <path class="cls-10" d="M17.27,13.09l-.08-.05L3.75,4.39l.24-.09s3.19-1.24,5.8-1.74c1.92-.37,3-.49,4.14-.49.27,0,.57,0,.95.02,1.62.06,4.5.68,6.31,1.57,1.43.7,2.26,1.54,2.47,2.51.12.56.1,1.82-.38,2.25l-.43.38-5.59,4.29ZM4.32,4.45l12.94,8.32,5.44-4.17.42-.38c.38-.34.41-1.51.3-2-.2-.89-.98-1.67-2.33-2.33-1.78-.87-4.61-1.48-6.21-1.54-.38-.01-.68-.02-.94-.02-.97,0-1.94.08-4.1.49-2.17.41-4.73,1.34-5.51,1.63"/>
        <path class="cls-10" d="M14.47,7.64l-4.29-2.19.04-.07-.03-.08c.1-.04,2.43-.93,3.82-.93h.03c1.46.01,2.38.36,2.77.69.36.3.41.63.16,1.02-.18.28-.71.67-1.43,1.05-.71.38-1.02.5-1.03.51h-.03ZM10.32,5.39l4.15,2.12c.09-.04.4-.18.99-.49.7-.37,1.21-.74,1.38-1,.21-.33.18-.6-.13-.85-.37-.31-1.27-.65-2.69-.66h-.03c-1.21,0-3.21.72-3.68.89"/>
        <path class="cls-10" d="M40.5,6.74c.14.02.36.08.68.19.31.11.68.32,1.09.63.41.31.77.78,1.08,1.4.31.62.46,1.41.46,2.36s-.18,1.67-.54,2.27c-.36.61-.79,1.06-1.29,1.35-.5.29-.97.47-1.42.53h-7.62V6.73h7.57ZM40.44,14.29c.23-.04.52-.14.84-.3.32-.16.63-.46.92-.9.29-.43.43-1.03.43-1.78,0-.88-.15-1.57-.45-2.07-.3-.5-.62-.84-.95-1.01-.33-.18-.61-.28-.84-.32h-6.28v6.38h6.33Z"/>
        <rect class="cls-10" x="44.63" y="6.75" width="1.19" height="8.7"/>
        <path class="cls-10" d="M52.3,9.12c.77-.01,1.46-.13,2.06-.34.61-.22,1.08-.43,1.4-.65.33-.22.55-.38.66-.49l.96-.91v8.75h-1.14v-6.32c-.5.3-1.08.55-1.75.76-.66.21-1.39.32-2.18.33-.83,0-1.61-.1-2.33-.32-.72-.22-1.36-.49-1.92-.82v6.36h-1.14V6.73l1,.86c.14.13.39.3.75.53.36.23.86.45,1.51.68.64.23,1.35.33,2.11.32"/>
        <rect class="cls-9" x="59.08" y="10.44" width="2.29" height="1.16"/>
        <g>
          <path class="cls-17" d="M72.92,6.66v1.19h-6.39c-.25,0-.53.08-.84.23s-.63.39-.93.71c-.22.23-.41.53-.57.9-.16.37-.25.83-.25,1.37,0,.36.06.72.17,1.06.11.35.28.67.49.97.19.27.44.53.75.78.31.26.7.39,1.17.4h6.39v1.19h-6.39c-.71,0-1.37-.2-1.97-.59-.6-.4-1.08-.93-1.43-1.61-.35-.67-.52-1.41-.52-2.21s.17-1.53.52-2.21c.35-.67.83-1.21,1.43-1.6.6-.4,1.26-.59,1.97-.59h6.39Z"/>
          <path class="cls-17" d="M74.29,6.7h8.79v1.2h-7.59v2.4h7.59v1.2h-7.59v2.8h7.59v1.2h-8.79V6.7Z"/>
          <path class="cls-17" d="M84.51,6.68h10v1.2h-8.8v2.4h6.66v1.2h-6.66v4h-1.2V6.68Z"/>
          <path class="cls-17" d="M94.9,12.03h3.29c.06,0,.09.03.09.08v.45c0,.05-.03.08-.09.08h-3.37v-.53c0-.05.03-.08.08-.08Z"/>
          <path class="cls-17" d="M108.48,10.55c.26.02.54.12.82.29.29.17.54.44.75.81s.31.84.31,1.42c0,.53-.12.97-.35,1.32s-.52.62-.86.79c-.34.17-.67.26-1,.27h-7.55v-1.18h7.52c.23,0,.46-.08.69-.25s.34-.48.34-.94c0-.51-.08-.85-.26-1.04-.18-.19-.35-.29-.5-.32h-5.82c-.3,0-.61-.09-.94-.26-.33-.16-.61-.43-.84-.81s-.35-.86-.35-1.45c0-.56.12-1.02.37-1.39.25-.36.55-.63.89-.8.35-.17.67-.27.98-.29h6.82v1.18h-6.74c-.12,0-.27.04-.44.11-.18.07-.34.21-.48.4s-.22.46-.22.8c0,.53.11.89.34,1.07.23.18.44.28.64.29h5.86Z"/>
          <path class="cls-17" d="M112.42,6.69v1.04h-1.04v-1.04h1.04ZM112.42,9.11v6.35h-1.04v-6.35h1.04Z"/>
          <path class="cls-17" d="M114.71,6.69v1.04h-1.04v-1.04h1.04ZM114.71,9.11v6.35h-1.04v-6.35h1.04Z"/>
        </g>
      </g>
      <g>
        <path class="cls-6" d="M107.52,121.41h-55.74c-2.43,0-4.41-1.97-4.41-4.41v-41.23c0-2.43,1.97-4.41,4.41-4.41h55.74c2.43,0,4.41,1.97,4.41,4.41v41.23c0,2.43-1.97,4.41-4.41,4.41"/>
        <path class="cls-5" d="M107.85,117.98h-56.39c-.85,0-1.55-.69-1.55-1.54v-40.4c0-.85.69-1.54,1.55-1.54h56.39c.85,0,1.54.69,1.54,1.54v40.4c0,.85-.69,1.54-1.54,1.54"/>
        <polygon class="cls-6" points="106.24 95.75 87.52 95.75 87.52 82.48 88.02 82.48 88.02 95.24 106.24 95.24 106.24 95.75"/>
        <path class="cls-6" d="M104.55,86.29c-.18-.81-.15-1.94-.03-2.79-.65.57-1.58,1.21-2.36,1.5l1.13.17-3.37,6.22-2.4-.98-2.25,2.86-2.43-3.7-4.01,4.96.44.36,3.51-4.35,2.43,3.71,2.48-3.14,2.48,1.02,3.62-6.67.76.85Z"/>
        <rect class="cls-7" x="58.18" y="83.69" width="2.59" height="11.88"/>
        <rect class="cls-7" x="65.05" y="87.4" width="2.59" height="8.17"/>
        <rect class="cls-7" x="71.91" y="85.04" width="2.59" height="10.52"/>
        <rect class="cls-7" x="78.23" y="89.78" width="2.59" height="5.79"/>
        <polygon class="cls-14" points="82.23 95.86 53.35 95.86 53.35 79.75 54 79.75 54 95.28 82.23 95.28 82.23 95.86"/>
        <path class="cls-7" d="M79.79,109.09l5.32-3.87c2.13,2.94,1.48,7.05-1.46,9.18-2.94,2.14-7.05,1.48-9.18-1.45-2.14-2.94-1.48-7.05,1.45-9.19,1.18-.85,2.41-1.26,3.86-1.26v6.57Z"/>
        <path class="cls-13" d="M79.79,109.09v-6.57c2.18,0,4.04.95,5.32,2.71l-5.32,3.87Z"/>
        <path class="cls-7" d="M62.41,104.55l-3.45-5.79c4.66-2.08,8.64.47,10.07,3.25l-6.62,2.54Z"/>
        <path class="cls-14" d="M103.32,114.41c-2.95,2.14-7.06,1.48-9.19-1.45-2.14-2.94-1.48-7.05,1.46-9.19,1.17-.85,2.41-1.25,3.86-1.25v6.57l5.32-3.87c.66.92,1.06,1.94,1.2,2.99.3,2.32-.63,4.73-2.66,6.19"/>
        <path class="cls-13" d="M104.78,105.22l-5.32,3.87v-6.57c2.18,0,4.04.95,5.32,2.7"/>
        <path class="cls-13" d="M105.98,108.21h-.01s-6.51.87-6.51.87v-6.57c2.18,0,4.03.95,5.32,2.7.66.92,1.06,1.94,1.2,2.99"/>
        <path class="cls-14" d="M61.23,107.92l7.84-1.95c.16.64.24,1.29.24,1.95,0,4.43-3.65,8.08-8.08,8.08s-8.08-3.65-8.08-8.08c0-2.77,1.43-5.36,3.78-6.84l4.31,6.84Z"/>
        <path class="cls-5" d="M66.6,107.92c0,2.96-2.4,5.37-5.37,5.37s-5.37-2.4-5.37-5.37,2.4-5.37,5.37-5.37,5.37,2.4,5.37,5.37"/>
        <path class="cls-6" d="M64.32,107.92c0,1.7-1.38,3.08-3.08,3.08s-3.08-1.38-3.08-3.08,1.38-3.08,3.08-3.08,3.08,1.38,3.08,3.08"/>
        <path class="cls-5" d="M76.28,66.91h6.45v-7.66h8.65v7.8h4.25s-1.6-1.39-1.6-3.45c0,0-.14-4.61,4.56-4.61,0,0,4.77-.25,4.65,4.65,0,0,.14,2.46-1.81,3.62h6.1s-1.96-.97-1.96-3.57c0,0-.17-4.7,4.65-4.7,0,0,4.52-.18,4.47,4.84,0,0-.36,3.08-2.27,3.57h1.99v25.17h-20.06v-1.84h-5.96s-5.6,4.89-13.4-.57v-7.8s6.38,5.39,9.22,1.28c0,0,1.7-2.06-4.61-7.37,0,0-4.82-2.69-3.33-9.36"/>
        <rect class="cls-12" x="83.39" y="59.73" width="7.68" height="7.68"/>
        <rect class="cls-12" x="94.9" y="69.32" width="7.59" height="22.92"/>
        <rect class="cls-12" x="106.44" y="69.32" width="7.59" height="22.92"/>
        <path class="cls-3" d="M102.61,63.57c0,2.13-1.72,3.85-3.85,3.85s-3.85-1.72-3.85-3.85,1.73-3.85,3.85-3.85,3.85,1.72,3.85,3.85"/>
        <path class="cls-3" d="M114.07,63.57c0,2.13-1.72,3.85-3.85,3.85s-3.85-1.72-3.85-3.85,1.73-3.85,3.85-3.85,3.85,1.72,3.85,3.85"/>
        <path class="cls-12" d="M75.59,83.5v6.49s3.16,2.25,6.81,2.25c0,0,5.09.37,8.07-4.67,0,0,2.07-2.99.84-7.7,0,0-.61-2.11-2.44-3.83l-3.46-3.42s-1.48-1.28-2.02-2.55c0,0-.39-1.17,0-2.65h-6.59s-.61,4.44.78,6.05c0,0,1.22,1.78,2.48,2.67l2.52,2.23s1.81,1.65,2.27,3.39c0,0,.28,2.18-.73,3.05,0,0-.64,1.01-2.76,1.01,0,0-1.65.14-3.32-.81,0,0-1.85-1.01-2.44-1.51"/>
      </g>
      <g>
        <g>
          <path class="cls-6" d="M100.87,192.48h-37.33c-2.35,0-4.26-1.91-4.26-4.26v-41.49c0-2.35,1.91-4.26,4.26-4.26h37.33c2.35,0,4.26,1.91,4.26,4.26v41.49c0,2.35-1.91,4.26-4.26,4.26"/>
          <path class="cls-5" d="M101.83,189.05h-39.26c-.83,0-1.49-.67-1.49-1.49v-40.48c0-.82.67-1.49,1.49-1.49h39.26c.82,0,1.49.67,1.49,1.49v40.48c0,.82-.67,1.49-1.49,1.49"/>
          <rect class="cls-7" x="71.07" y="154.77" width="2.59" height="11.87"/>
          <rect class="cls-7" x="77.93" y="158.48" width="2.59" height="8.17"/>
          <rect class="cls-7" x="84.8" y="156.13" width="2.59" height="10.52"/>
          <rect class="cls-7" x="91.1" y="160.86" width="2.59" height="5.79"/>
          <polygon class="cls-14" points="95.11 166.94 66.25 166.94 66.25 150.84 66.89 150.84 66.89 166.36 95.11 166.36 95.11 166.94"/>
          <path class="cls-8" d="M91.67,180.16l5.32-3.86c2.13,2.94,1.48,7.05-1.45,9.18-2.94,2.14-7.05,1.48-9.18-1.45-2.14-2.94-1.48-7.05,1.45-9.18,1.18-.85,2.41-1.26,3.86-1.26v6.57Z"/>
          <path class="cls-13" d="M91.67,180.16v-6.57c2.18,0,4.04.95,5.32,2.71l-5.32,3.86Z"/>
          <path class="cls-7" d="M74.29,175.63l-3.45-5.79c4.65-2.08,8.63.47,10.07,3.25l-6.61,2.54Z"/>
          <path class="cls-14" d="M73.12,179l7.84-1.94c.16.64.24,1.29.24,1.94,0,4.43-3.65,8.08-8.08,8.08s-8.08-3.65-8.08-8.08c0-2.77,1.43-5.36,3.77-6.84l4.3,6.84Z"/>
          <path class="cls-5" d="M78.49,179c0,2.96-2.4,5.37-5.37,5.37s-5.37-2.4-5.37-5.37,2.4-5.36,5.37-5.36,5.37,2.4,5.37,5.36"/>
          <path class="cls-6" d="M76.2,179c0,1.7-1.38,3.08-3.08,3.08s-3.08-1.38-3.08-3.08,1.38-3.08,3.08-3.08,3.08,1.38,3.08,3.08"/>
          <path class="cls-5" d="M83.07,142.73h5.35v-6.35h7.18v6.47h3.53s-1.18-1.12-1.18-2.82c0,0-.29-3.65,3.65-3.65,0,0,3.65.06,3.65,3.71,0,0,.12,1.71-1.29,2.94h5.06s-1.41-1.18-1.41-2.88c0,0-.41-3.71,3.59-3.71,0,0,3.53.18,3.53,3.71,0,0-.06,2.59-1.65,3h1.65v20.88h-16.65v-1.53h-4.94s-4.65,4.06-11.12-.47v-6.47s5.29,4.47,7.65,1.06c0,0,1.41-1.71-3.82-6.12,0,0-4-2.24-2.76-7.77"/>
          <rect class="cls-12" x="88.96" y="136.78" width="6.38" height="6.38"/>
          <rect class="cls-12" x="98.52" y="144.73" width="6.3" height="19.02"/>
          <rect class="cls-12" x="108.09" y="144.73" width="6.3" height="19.02"/>
          <path class="cls-3" d="M104.91,139.96c0,1.77-1.43,3.2-3.2,3.2s-3.2-1.43-3.2-3.2,1.43-3.2,3.2-3.2,3.2,1.43,3.2,3.2"/>
          <path class="cls-3" d="M114.42,139.96c0,1.77-1.43,3.2-3.2,3.2s-3.2-1.43-3.2-3.2,1.43-3.2,3.2-3.2,3.2,1.43,3.2,3.2"/>
          <path class="cls-12" d="M82.49,156.5v5.39s2.62,1.86,5.65,1.86c0,0,4.22.31,6.7-3.87,0,0,1.72-2.48.7-6.39,0,0-.51-1.75-2.03-3.18l-2.87-2.84s-1.23-1.06-1.67-2.12c0,0-.32-.97,0-2.2h-5.47s-.51,3.69.64,5.02c0,0,1.01,1.47,2.06,2.21l2.09,1.85s1.51,1.37,1.89,2.82c0,0,.23,1.81-.6,2.53,0,0-.53.84-2.29.84,0,0-1.37.11-2.75-.68,0,0-1.54-.84-2.03-1.25"/>
        </g>
        <g>
          <path class="cls-6" d="M44.23,196.71h1.14v8.37h-1.14v-8.37Z"/>
          <path class="cls-6" d="M49.76,200.52c-.25.09-.46.21-.62.38s-.29.37-.38.63-.13.51-.13.76.04.5.13.76.21.46.38.63.37.29.62.38.5.13.75.13h4.61v.93h-4.61c-.51,0-.98-.13-1.41-.38-.43-.25-.77-.59-1.03-1.03-.25-.43-.38-.9-.38-1.41s.12-.98.38-1.41c.25-.43.6-.78,1.03-1.03.43-.25.9-.38,1.41-.38h4.61v.93h-4.61c-.25,0-.5.04-.75.13Z"/>
          <path class="cls-6" d="M61.25,199.44c.5-.02.94.02,1.32.14s.68.28.92.49.42.43.56.66.23.45.29.66.1.38.11.53.02.21.02.19v.33c0,.24-.06.52-.18.83s-.3.61-.55.89-.57.51-.97.69-.85.25-1.38.22h-1.05c-.52.03-.98-.05-1.38-.22s-.72-.4-.97-.69-.43-.58-.55-.89-.18-.59-.18-.83v-.33s0-.04.02-.19.05-.33.11-.53.16-.42.29-.66.32-.46.56-.66.55-.37.92-.49.81-.16,1.32-.14h.76ZM61.61,204.14c.7,0,1.19-.17,1.47-.51s.45-.7.49-1.09v-.16s.01-.26.01-.26v-.18c-.05-.37-.22-.72-.5-1.06s-.77-.51-1.48-.51h-1.49c-.7,0-1.2.17-1.48.51s-.44.7-.48,1.06l-.02.18v.25l.02.18c.04.39.2.75.49,1.09s.78.51,1.47.51h1.49Z"/>
          <path class="cls-6" d="M73.58,200.78c.25.44.38.92.38,1.44v2.87h-.94v-2.87c0-.26-.04-.52-.13-.77s-.21-.47-.38-.64c-.16-.17-.36-.3-.61-.39s-.49-.13-.74-.13h-1.78c-.48,0-1.1,0-1.86,0,0-.22,0-.01,0,.62s0,1.06,0,1.25v2.94h-.94v-5.74h4.58c.5,0,.97.13,1.4.38.43.26.77.61,1.03,1.05Z"/>
          <path class="cls-6" d="M80.1,199.44c.5-.02.94.02,1.32.14s.68.28.92.49.42.43.56.66.23.45.29.66.1.38.11.53.02.21.02.19v.33c0,.24-.06.52-.18.83s-.3.61-.55.89-.57.51-.97.69-.85.25-1.38.22h-1.05c-.52.03-.98-.05-1.38-.22s-.72-.4-.97-.69-.43-.58-.55-.89-.18-.59-.18-.83v-.33s0-.04.02-.19.05-.33.11-.53.16-.42.29-.66.32-.46.56-.66.55-.37.92-.49.81-.16,1.32-.14h.76ZM80.47,204.14c.7,0,1.19-.17,1.47-.51s.45-.7.49-1.09v-.16s.01-.26.01-.26v-.18c-.05-.37-.22-.72-.5-1.06s-.77-.51-1.48-.51h-1.49c-.7,0-1.2.17-1.48.51s-.44.7-.48,1.06l-.02.18v.25l.02.18c.04.39.2.75.49,1.09s.78.51,1.47.51h1.49Z"/>
          <path class="cls-6" d="M95.53,200.77c.23.4.35.9.35,1.49,0-.09,0-.07,0,.06h0v.66c0,.55-.11.98-.32,1.28s-.46.5-.76.61-.61.16-.93.17-.57.02-.73.02h-3.01c-.47,0-.87-.17-1.2-.52s-.5-.76-.5-1.24.17-.9.5-1.25c.33-.35.73-.52,1.2-.52h4.61c0-.07-.02-.13-.04-.19s-.04-.11-.05-.13c-.09-.18-.21-.34-.38-.48s-.34-.26-.54-.34c-.2-.08-.41-.12-.62-.12h-4.44v-.9c0-.08,0-.1,0-.08h4.44c.51,0,.99.13,1.43.4.21.12.39.27.55.45s.3.38.44.62ZM94.86,203.11c0-.08,0-.28-.01-.59h-4.83c-.17,0-.32.08-.45.23-.12.16-.18.34-.18.56s.06.4.18.56c.12.15.27.23.45.23h3.13c.36,0,.64,0,.85-.02s.38-.07.5-.16c.13-.09.22-.21.27-.34s.08-.29.09-.47Z"/>
          <path class="cls-6" d="M98.95,207.15h-.91c0,.05,0,0,0-.16v-5.33c0-.35.13-.69.4-1.02s.59-.6.98-.81.75-.31,1.08-.31h1.71c.53-.02.99.05,1.39.22s.72.39.97.67.44.57.56.88.18.58.18.82v.32s0,.04-.02.18-.05.32-.11.52-.16.42-.3.65-.33.45-.57.65-.55.36-.92.48-.82.16-1.32.14h-3.11v2.1ZM98.95,204.13h3.47c.57,0,1-.12,1.29-.35s.48-.47.57-.73.13-.46.13-.62v-.28c0-.19-.04-.42-.13-.68s-.28-.5-.57-.73-.72-.33-1.27-.33h-1.88c-.24,0-.49.07-.74.22s-.46.34-.62.56-.24.45-.24.66v2.26Z"/>
          <path class="cls-6" d="M108.36,207.15h-.91c0,.05,0,0,0-.16v-5.33c0-.35.13-.69.4-1.02s.59-.6.98-.81.75-.31,1.08-.31h1.71c.53-.02.99.05,1.39.22s.72.39.97.67.44.57.56.88.18.58.18.82v.32s0,.04-.02.18-.05.32-.11.52-.16.42-.3.65-.33.45-.57.65-.55.36-.92.48-.82.16-1.32.14h-3.11v2.1ZM108.36,204.13h3.47c.57,0,1-.12,1.29-.35s.48-.47.57-.73.13-.46.13-.62v-.28c0-.19-.04-.42-.13-.68s-.28-.5-.57-.73-.72-.33-1.27-.33h-1.88c-.24,0-.49.07-.74.22s-.46.34-.62.56-.24.45-.24.66v2.26Z"/>
        </g>
      </g>
    </g>
  </g>
</svg>