<?xml version="1.0" encoding="UTF-8"?>
<svg id="Capa_2" xmlns="http://www.w3.org/2000/svg" viewBox="0 0 122.25 198.4">
  <defs>
    <style>
      .cls-1 {
        fill: #f9cf16;
      }

      .cls-2 {
        fill: #cd142a;
      }

      .cls-3 {
        fill: #646365;
      }

      .cls-4, .cls-5 {
        fill: #fff;
      }

      .cls-6 {
        fill: #625f60;
      }

      .cls-5 {
        fill-rule: evenodd;
      }

      .cls-7 {
        fill: #505050;
      }

      .cls-8 {
        fill: #4780b4;
      }

      .cls-9 {
        fill: #d00e4d;
      }

      .cls-10 {
        fill: #d00e4c;
      }

      .cls-11 {
        fill: #d22e1f;
      }

      .cls-12 {
        fill: #f1f9fc;
      }

      .cls-13 {
        fill: #efc89b;
      }

      .cls-14 {
        fill: #636061;
      }

      .cls-15 {
        fill: #9d9a9c;
      }

      .cls-16 {
        fill: #1d458c;
      }

      .cls-17 {
        fill: #e1222c;
      }

      .cls-18 {
        fill: #4eb692;
      }

      .cls-19 {
        fill: #828384;
      }

      .cls-20 {
        fill: #1b4180;
      }

      .cls-21 {
        fill: #f9c294;
      }
    </style>
  </defs>
  <g id="Capa_1-2" data-name="Capa_1">
    <g>
      <path class="cls-6" d="M51.77,187.94h1.14v8.37h-1.14v-8.37Z"/>
      <path class="cls-6" d="M57.3,191.75c-.25.09-.46.21-.62.38s-.29.37-.38.63-.13.51-.13.76.04.5.13.76.21.46.38.63.37.29.62.38.5.13.75.13h4.61v.93h-4.61c-.51,0-.98-.13-1.41-.38-.43-.25-.77-.59-1.03-1.03-.25-.43-.38-.9-.38-1.41s.12-.98.38-1.41c.25-.43.6-.78,1.03-1.03.43-.25.9-.38,1.41-.38h4.61v.93h-4.61c-.25,0-.5.04-.75.13Z"/>
      <path class="cls-6" d="M68.78,190.68c.5-.02.94.02,1.32.14s.68.28.92.49.42.43.56.66.23.45.29.66.1.38.11.53.02.21.02.19v.33c0,.24-.06.52-.18.83s-.3.61-.55.89-.57.51-.97.69-.85.25-1.38.22h-1.05c-.52.03-.98-.05-1.38-.22s-.72-.4-.97-.69-.43-.58-.55-.89-.18-.59-.18-.83v-.33s0-.04.02-.19.05-.33.11-.53.16-.42.29-.66.32-.46.56-.66.55-.37.92-.49.81-.16,1.32-.14h.76ZM69.15,195.37c.7,0,1.19-.17,1.47-.51s.45-.7.49-1.09v-.16s.01-.26.01-.26v-.18c-.05-.37-.22-.72-.5-1.06s-.77-.51-1.48-.51h-1.49c-.7,0-1.2.17-1.48.51s-.44.7-.48,1.06l-.02.18v.25l.02.18c.04.39.2.75.49,1.09s.78.51,1.47.51h1.49Z"/>
      <path class="cls-6" d="M81.11,192.01c.25.44.38.92.38,1.44v2.87h-.94v-2.87c0-.26-.04-.52-.13-.77s-.21-.47-.38-.64c-.16-.17-.36-.3-.61-.39s-.49-.13-.74-.13h-1.78c-.48,0-1.1,0-1.86,0,0-.22,0-.01,0,.62s0,1.06,0,1.25v2.94h-.94v-5.74h4.58c.5,0,.97.13,1.4.38.43.26.77.61,1.03,1.05Z"/>
      <path class="cls-6" d="M87.64,190.68c.5-.02.94.02,1.32.14s.68.28.92.49.42.43.56.66.23.45.29.66.1.38.11.53.02.21.02.19v.33c0,.24-.06.52-.18.83s-.3.61-.55.89-.57.51-.97.69-.85.25-1.38.22h-1.05c-.52.03-.98-.05-1.38-.22s-.72-.4-.97-.69-.43-.58-.55-.89-.18-.59-.18-.83v-.33s0-.04.02-.19.05-.33.11-.53.16-.42.29-.66.32-.46.56-.66.55-.37.92-.49.81-.16,1.32-.14h.76ZM88,195.37c.7,0,1.19-.17,1.47-.51s.45-.7.49-1.09v-.16s.01-.26.01-.26v-.18c-.05-.37-.22-.72-.5-1.06s-.77-.51-1.48-.51h-1.49c-.7,0-1.2.17-1.48.51s-.44.7-.48,1.06l-.02.18v.25l.02.18c.04.39.2.75.49,1.09s.78.51,1.47.51h1.49Z"/>
      <path class="cls-6" d="M103.06,192c.23.4.35.9.35,1.49,0-.09,0-.07,0,.06h0v.66c0,.55-.11.98-.32,1.28s-.46.5-.76.61-.61.16-.93.17-.57.02-.73.02h-3.01c-.47,0-.87-.17-1.2-.52s-.5-.76-.5-1.24.17-.9.5-1.25c.33-.35.73-.52,1.2-.52h4.61c0-.07-.02-.13-.04-.19s-.04-.11-.05-.13c-.09-.18-.21-.34-.38-.48s-.34-.26-.54-.34c-.2-.08-.41-.12-.62-.12h-4.44v-.9c0-.08,0-.1,0-.08h4.44c.51,0,.99.13,1.43.4.21.12.39.27.55.45s.3.38.44.62ZM102.39,194.34c0-.08,0-.28-.01-.59h-4.83c-.17,0-.32.08-.45.23-.12.16-.18.34-.18.56s.06.4.18.56c.12.15.27.23.45.23h3.13c.36,0,.64,0,.85-.02s.38-.07.5-.16c.13-.09.22-.21.27-.34s.08-.29.09-.47Z"/>
      <path class="cls-6" d="M106.48,198.38h-.91c0,.05,0,0,0-.16v-5.33c0-.35.13-.69.4-1.02s.59-.6.98-.81.75-.31,1.08-.31h1.71c.53-.02.99.05,1.39.22s.72.39.97.67.44.57.56.88.18.58.18.82v.32s0,.04-.02.18-.05.32-.11.52-.16.42-.3.65-.33.45-.57.65-.55.36-.92.48-.82.16-1.32.14h-3.11v2.1ZM106.48,195.36h3.47c.57,0,1-.12,1.29-.35s.48-.47.57-.73.13-.46.13-.62v-.28c0-.19-.04-.42-.13-.68s-.28-.5-.57-.73-.72-.33-1.27-.33h-1.88c-.24,0-.49.07-.74.22s-.46.34-.62.56-.24.45-.24.66v2.26Z"/>
      <path class="cls-6" d="M115.9,198.38h-.91c0,.05,0,0,0-.16v-5.33c0-.35.13-.69.4-1.02s.59-.6.98-.81.75-.31,1.08-.31h1.71c.53-.02.99.05,1.39.22s.72.39.97.67.44.57.56.88.18.58.18.82v.32s0,.04-.02.18-.05.32-.11.52-.16.42-.3.65-.33.45-.57.65-.55.36-.92.48-.82.16-1.32.14h-3.11v2.1ZM115.9,195.36h3.47c.57,0,1-.12,1.29-.35s.48-.47.57-.73.13-.46.13-.62v-.28c0-.19-.04-.42-.13-.68s-.28-.5-.57-.73-.72-.33-1.27-.33h-1.88c-.24,0-.49.07-.74.22s-.46.34-.62.56-.24.45-.24.66v2.26Z"/>
    </g>
    <g>
      <path class="cls-10" d="M40.5,26.04c.14.02.36.08.68.19.31.11.68.32,1.09.63.41.31.77.78,1.08,1.4.31.62.46,1.41.46,2.36s-.18,1.67-.54,2.27c-.36.6-.79,1.06-1.29,1.35-.5.29-.97.47-1.42.53h-7.62v-8.73h7.57ZM40.44,33.6c.23-.04.52-.14.84-.3.32-.16.63-.46.92-.9.29-.43.43-1.03.43-1.78,0-.88-.15-1.57-.45-2.07-.3-.5-.62-.84-.95-1.01-.33-.18-.61-.28-.84-.32h-6.28v6.38h6.33Z"/>
      <rect class="cls-10" x="44.63" y="26.05" width="1.19" height="8.7"/>
      <path class="cls-10" d="M52.3,28.43c.77-.01,1.46-.13,2.06-.34.61-.22,1.08-.43,1.4-.65.33-.22.55-.38.66-.49l.96-.91v8.75h-1.14v-6.32c-.5.3-1.08.55-1.75.76-.66.21-1.39.32-2.18.33-.83,0-1.61-.1-2.33-.32-.72-.22-1.36-.49-1.92-.82v6.36h-1.14v-8.75l1,.87c.14.13.39.3.75.53.36.23.86.45,1.51.68.64.23,1.35.33,2.11.32"/>
      <rect class="cls-9" x="59.08" y="29.74" width="2.29" height="1.16"/>
      <g>
        <path class="cls-19" d="M72.92,25.97v1.19h-6.39c-.25,0-.53.08-.84.23s-.63.39-.93.71c-.22.23-.41.53-.57.9-.16.37-.25.83-.25,1.37,0,.36.06.72.17,1.06s.28.67.49.97c.19.27.44.53.75.78.31.26.7.39,1.17.4h6.39v1.19h-6.39c-.71,0-1.37-.2-1.97-.59-.6-.4-1.08-.93-1.43-1.61-.35-.67-.52-1.41-.52-2.21s.17-1.53.52-2.21c.35-.67.83-1.21,1.43-1.6.6-.4,1.26-.59,1.97-.59h6.39Z"/>
        <path class="cls-19" d="M80.1,29.76h-3.35c-.17,0-.36,0-.57,0-.21,0-.41.03-.59.08s-.34.15-.48.28c-.14.13-.23.29-.29.47-.06.18-.09.34-.09.47,0,.13,0,.37,0,.71v2.92c0,.05-.02.08-.07.08h-.83s-.07-.03-.07-.08v-3.01c0-.12,0-.34,0-.64s.06-.61.18-.92c.12-.31.33-.58.63-.82.19-.15.4-.26.62-.34.22-.08.44-.13.64-.16.2-.03.39-.04.56-.04h3.7v.99Z"/>
        <path class="cls-19" d="M87.71,29.21c.29.23.48.49.57.77s.14.53.15.74c0,1.05-.58,1.6-1.76,1.66h-4.67s0,.25,0,.25c0,.27.02.49.07.64.05.16.13.27.25.34.12.07.27.12.46.15.19.02.47.04.82.04h4.36c.13,0,.19.06.19.18v.59c0,.13-.06.19-.19.19h-4.51c-.63,0-1.12-.07-1.48-.21-.36-.14-.62-.36-.77-.67s-.23-.72-.23-1.24v-1.5c0-.35.13-.7.4-1.05s.61-.65,1.02-.88c.42-.23.84-.35,1.27-.35h2.84c.52,0,.92.12,1.21.35ZM87.03,31.35c.09-.03.17-.09.26-.19.06-.07.11-.15.13-.24s.04-.21.05-.37c0-.07-.02-.16-.06-.27s-.11-.21-.22-.3-.26-.14-.45-.14h-3.1c-.22,0-.46.07-.72.21-.26.14-.48.33-.65.56-.18.24-.27.5-.27.79h4.61c.19,0,.33-.02.42-.05ZM84.6,28.14h.74l.79-.75.75-.76h0s-1.2-.01-1.2-.01l-1.08,1.53Z"/>
        <path class="cls-19" d="M96.06,26.71h.96c0-.06,0,0,0,.18v5.68c0,.39-.04.73-.13,1.01s-.22.5-.41.68c-.19.17-.44.3-.75.38s-.7.12-1.17.12h-1.93c-.55.03-1.04-.05-1.46-.23s-.76-.42-1.03-.71c-.27-.29-.46-.6-.59-.92-.13-.32-.19-.61-.19-.86v-.34s0-.04.02-.19.06-.34.12-.55c.07-.21.17-.44.31-.68.14-.24.34-.47.59-.69.25-.21.58-.38.97-.5.4-.12.86-.17,1.39-.14h3.27v-2.22ZM96.06,29.89h-3.66c-.59,0-1.04.12-1.35.36s-.51.5-.6.77-.13.49-.13.65v.29c0,.2.05.44.14.71.09.28.29.53.6.77.31.23.75.35,1.34.35h2.53c.29,0,.52-.06.68-.19.17-.12.28-.3.35-.52s.1-.49.1-.82v-2.38Z"/>
        <path class="cls-19" d="M99.08,25.99v1.04h-1.04v-1.04h1.04ZM99.08,28.42v6.35h-1.04v-6.35h1.04Z"/>
        <path class="cls-19" d="M105.09,33.79v.96h-1.81c-.52,0-1.01-.13-1.46-.39-.45-.26-.81-.61-1.07-1.05-.26-.44-.4-.92-.41-1.44v-5.25h.97s0,0,0,.07v2.16h2.27s0,0,0,.07v.89s-.03,0-.09,0h-2.18v2.08c0,.42.11.78.33,1.06s.45.5.69.64c.12.08.3.13.55.15s.44.03.59.02h1.61Z"/>
        <path class="cls-19" d="M110.28,28.88c.53-.02.99.02,1.38.15.39.12.71.29.96.51.25.22.44.45.59.69.14.25.24.48.31.69.06.21.1.4.12.55s.02.22.02.2v.35c0,.25-.06.54-.19.87-.12.33-.32.64-.58.93-.26.3-.6.54-1.01.72-.41.18-.89.26-1.44.23h-1.1c-.55.03-1.03-.05-1.44-.23s-.75-.42-1.01-.72c-.26-.3-.46-.61-.58-.93-.12-.32-.19-.61-.19-.87v-.35s0-.04.02-.2c.02-.16.06-.34.12-.55.06-.21.17-.44.31-.69.14-.25.34-.48.59-.69.25-.22.57-.39.96-.51.39-.12.85-.17,1.38-.15h.8ZM110.66,33.79c.73,0,1.25-.18,1.54-.53.3-.35.47-.73.51-1.14v-.17s.01-.28.01-.28v-.18c-.06-.38-.23-.75-.52-1.11-.29-.36-.81-.54-1.54-.54h-1.56c-.74,0-1.25.18-1.54.54-.29.36-.46.73-.5,1.11l-.02.18v.26l.02.18c.04.4.21.78.51,1.14.3.35.81.53,1.54.53h1.56Z"/>
        <path class="cls-19" d="M120.76,31.39c.4.02.74.15,1.04.39.3.24.45.7.45,1.38,0,.36-.09.67-.27.91-.18.24-.41.42-.68.54s-.54.18-.8.18h-6v-.98s5.97,0,5.97,0c.21,0,.4-.05.57-.14s.25-.31.25-.65c0-.21-.06-.37-.18-.46-.12-.09-.26-.15-.41-.17-.16-.02-.25-.02-.29-.02h-4.35c-.23,0-.48-.07-.74-.19-.26-.12-.48-.32-.67-.6-.19-.28-.28-.63-.28-1.07,0-.38.1-.7.3-.95.2-.25.43-.44.71-.55.27-.12.54-.18.78-.2h5.42v.98h-5.36c-.22,0-.43.05-.62.14-.19.1-.29.33-.29.71,0,.3.09.5.26.59.18.09.35.14.51.15h4.66Z"/>
      </g>
    </g>
    <g>
      <g>
        <path class="cls-3" d="M56.52,21.38h-.28s0,0,0-.05v-1.65c0-.11.04-.21.12-.32s.18-.19.3-.25c.12-.07.23-.1.33-.1h.53c.16,0,.31.02.43.07.12.05.22.12.3.21.08.09.13.18.17.27.04.09.06.18.06.25v.1s0,.01,0,.06c0,.04-.02.1-.04.16-.02.06-.05.13-.09.2-.04.07-.1.14-.17.2-.08.06-.17.11-.29.15-.12.04-.25.05-.41.04h-.96v.65ZM56.52,20.45h1.08c.17,0,.31-.04.4-.11.09-.07.15-.15.17-.22s.04-.14.04-.19v-.09c0-.06-.01-.13-.04-.21-.03-.08-.09-.16-.18-.23s-.22-.1-.39-.1h-.58c-.08,0-.15.02-.23.07-.08.05-.14.1-.19.17s-.07.14-.07.2v.7Z"/>
        <path class="cls-3" d="M60.93,19.26h-.99s-.11,0-.17,0c-.06,0-.12,0-.17.02-.05.02-.1.04-.14.08-.04.04-.07.08-.08.14s-.03.1-.03.14c0,.04,0,.11,0,.21v.87s0,.02-.02.02h-.25s-.02,0-.02-.02v-.89s0-.1,0-.19c0-.09.02-.18.05-.27.04-.09.1-.17.19-.24.06-.04.12-.08.18-.1.07-.02.13-.04.19-.05s.12-.01.17-.01h1.1v.29Z"/>
        <path class="cls-3" d="M62.73,18.99c.16,0,.29,0,.41.04.12.04.21.09.28.15.07.06.13.13.17.21.04.07.07.14.09.2.02.06.03.12.04.16s0,.07,0,.06v.1c0,.08-.02.16-.05.26-.04.1-.09.19-.17.28-.08.09-.18.16-.3.21s-.26.08-.43.07h-.33c-.16,0-.3-.01-.43-.07-.12-.05-.22-.12-.3-.21-.08-.09-.13-.18-.17-.28-.04-.1-.06-.18-.06-.26v-.1s0-.01,0-.06.02-.1.04-.16.05-.13.09-.2c.04-.07.1-.14.17-.21.07-.06.17-.12.28-.15.11-.04.25-.05.41-.04h.24ZM62.85,20.45c.22,0,.37-.05.46-.16s.14-.22.15-.34v-.05s0-.08,0-.08v-.05c-.02-.11-.07-.22-.15-.33-.09-.11-.24-.16-.46-.16h-.46c-.22,0-.37.05-.46.16-.09.11-.14.22-.15.33v.05s0,.08,0,.08v.05c.02.12.07.23.16.34.09.1.24.16.46.16h.46Z"/>
        <path class="cls-3" d="M66.3,18.35h.28s0,0,0,.05v1.68c0,.12-.01.22-.04.3s-.07.15-.12.2c-.06.05-.13.09-.22.11-.09.02-.21.04-.35.04h-.57c-.16,0-.31-.01-.43-.07-.12-.05-.23-.12-.3-.21-.08-.09-.14-.18-.17-.27-.04-.1-.06-.18-.06-.26v-.1s0-.01,0-.06c0-.05.02-.1.04-.16.02-.06.05-.13.09-.2.04-.07.1-.14.17-.2.08-.06.17-.11.29-.15.12-.04.25-.05.41-.04h.97v-.66ZM66.3,19.29h-1.08c-.18,0-.31.04-.4.11s-.15.15-.18.23c-.03.08-.04.14-.04.19v.08c0,.06.01.13.04.21.03.08.09.16.18.23.09.07.22.1.4.1h.75c.09,0,.15-.02.2-.06.05-.04.08-.09.1-.15.02-.07.03-.15.03-.24v-.71Z"/>
        <path class="cls-3" d="M68.78,20.41c.08-.03.14-.07.19-.12s.09-.12.12-.2c.03-.08.04-.16.04-.24v-.9h.29v.9c0,.16-.04.31-.12.45-.08.14-.19.25-.32.33-.13.08-.28.12-.44.12h-.56c-.16,0-.3-.04-.44-.12-.13-.08-.24-.19-.32-.33-.08-.14-.12-.29-.12-.45v-.9h.29s0,0,0,.02v.87c0,.08.01.16.04.24.03.08.07.15.12.2s.11.09.19.12c.08.03.15.04.23.04h.56c.08,0,.15-.01.23-.04Z"/>
        <path class="cls-3" d="M70.57,19.33c-.08.03-.14.07-.19.12s-.09.12-.12.19c-.03.08-.04.16-.04.23s.01.16.04.23c.03.08.07.14.12.19s.12.09.19.12.16.04.23.04h1.43v.29h-1.43c-.16,0-.3-.04-.44-.12-.13-.08-.24-.18-.32-.32-.08-.13-.12-.28-.12-.44s.04-.3.12-.44c.08-.13.18-.24.32-.32.13-.08.28-.12.44-.12h1.43v.29h-1.43c-.08,0-.16.01-.23.04Z"/>
        <path class="cls-3" d="M74.26,20.45v.29h-.54c-.15,0-.3-.04-.43-.11-.13-.08-.24-.18-.32-.31-.08-.13-.12-.27-.12-.43v-1.55h.29s0,0,0,.02v.64h.67s0,0,0,.02v.26s0,0-.03,0h-.65v.62c0,.13.03.23.1.32s.13.15.21.19c.04.02.09.04.16.05.07,0,.13,0,.18,0h.48Z"/>
        <path class="cls-3" d="M76.12,18.99c.16,0,.29,0,.41.04.12.04.21.09.28.15.07.06.13.13.17.21.04.07.07.14.09.2.02.06.03.12.04.16s0,.07,0,.06v.1c0,.08-.02.16-.06.26-.04.1-.09.19-.17.28-.08.09-.18.16-.3.21s-.26.08-.43.07h-.33c-.16,0-.3-.01-.43-.07s-.22-.12-.3-.21c-.08-.09-.13-.18-.17-.28-.04-.1-.06-.18-.06-.26v-.1s0-.01,0-.06c0-.05.02-.1.04-.16s.05-.13.09-.2c.04-.07.1-.14.17-.21.08-.06.17-.12.28-.15s.25-.05.41-.04h.24ZM76.23,20.45c.22,0,.37-.05.46-.16s.14-.22.15-.34v-.05s0-.08,0-.08v-.05c-.02-.11-.07-.22-.15-.33-.09-.11-.24-.16-.46-.16h-.46c-.22,0-.37.05-.46.16-.09.11-.14.22-.15.33v.05s0,.08,0,.08v.05c.02.12.07.23.16.34.09.1.24.16.46.16h.46Z"/>
        <path class="cls-3" d="M79.54,19.74c.12,0,.22.05.31.12.09.07.13.21.13.41,0,.11-.03.2-.08.27-.05.07-.12.12-.2.16-.08.03-.16.05-.24.05h-1.78v-.29s1.77,0,1.77,0c.06,0,.12-.01.17-.04.05-.03.08-.09.08-.19,0-.06-.02-.11-.05-.14-.04-.03-.08-.04-.12-.05s-.07,0-.08,0h-1.29c-.07,0-.14-.02-.22-.06-.08-.04-.14-.09-.2-.18-.06-.08-.08-.19-.08-.32,0-.11.03-.21.09-.28s.13-.13.21-.16c.08-.04.16-.05.23-.06h1.61v.29h-1.59c-.07,0-.13.01-.18.04-.06.03-.08.1-.08.21,0,.09.03.15.08.18.05.03.1.04.15.04h1.38Z"/>
        <path class="cls-3" d="M83.64,18.98v1.52c-.01.17-.05.33-.13.45-.09.16-.2.27-.32.34-.12.07-.27.11-.45.11h-1.24s-.02,0-.02-.02v-.25s0-.02.02-.02h1.24c.06,0,.12,0,.17-.01.05,0,.09-.03.13-.05.05-.04.1-.07.13-.1s.06-.06.08-.11l.04-.09h-1.13c-.13,0-.25-.02-.36-.08-.11-.05-.19-.11-.26-.18-.07-.07-.12-.15-.18-.26-.05-.11-.08-.22-.08-.33v-.92s0-.02,0-.02h.3s0,0,0,.02v.94c0,.06.01.12.04.18s.04.11.07.13c.01.01.04.04.07.07.03.03.08.07.14.09.06.03.13.05.22.06h1.24s0-1.47,0-1.47c0-.02,0-.02.02-.02h.25s.02,0,.02.02Z"/>
        <path class="cls-3" d="M86.85,19.74c.12,0,.22.05.31.12.09.07.13.21.13.41,0,.11-.03.2-.08.27-.05.07-.12.12-.2.16-.08.03-.16.05-.24.05h-1.78v-.29s1.77,0,1.77,0c.06,0,.12-.01.17-.04.05-.03.08-.09.08-.19,0-.06-.02-.11-.05-.14-.04-.03-.08-.04-.12-.05s-.07,0-.08,0h-1.29c-.07,0-.14-.02-.22-.06-.08-.04-.14-.09-.2-.18-.06-.08-.08-.19-.08-.32,0-.11.03-.21.09-.28.06-.07.13-.13.21-.16.08-.04.16-.05.23-.06h1.61v.29h-1.59c-.07,0-.13.01-.18.04-.06.03-.08.1-.08.21,0,.09.03.15.08.18.05.03.1.04.15.04h1.38Z"/>
        <path class="cls-3" d="M89.84,19.09c.08.07.14.14.17.23.03.08.04.16.04.22,0,.31-.17.48-.52.49h-1.38s0,.07,0,.07c0,.08,0,.14.02.19s.04.08.07.1c.03.02.08.04.14.04.06,0,.14.01.24.01h1.29s.06.02.06.05v.17s-.02.06-.06.06h-1.33c-.19,0-.33-.02-.44-.06-.11-.04-.18-.11-.23-.2s-.07-.21-.07-.37v-.44c0-.1.04-.21.12-.31.08-.1.18-.19.3-.26s.25-.1.38-.1h.84c.15,0,.27.03.36.1ZM89.64,19.73s.05-.03.08-.06c.02-.02.03-.04.04-.07,0-.03.01-.06.01-.11,0-.02,0-.05-.02-.08-.01-.03-.03-.06-.07-.09-.03-.03-.08-.04-.13-.04h-.92c-.07,0-.14.02-.21.06s-.14.1-.19.17-.08.15-.08.23h1.37c.06,0,.1,0,.12-.01Z"/>
        <path class="cls-3" d="M92.56,19.26h-.99s-.11,0-.17,0c-.06,0-.12,0-.17.02-.05.02-.1.04-.14.08-.04.04-.07.08-.08.14-.02.05-.03.1-.03.14,0,.04,0,.11,0,.21v.87s0,.02-.02.02h-.25s-.02,0-.02-.02v-.89s0-.1,0-.19c0-.09.02-.18.05-.27.03-.09.1-.17.19-.24.06-.04.12-.08.18-.1.07-.02.13-.04.19-.05.06,0,.12-.01.17-.01h1.1v.29Z"/>
        <path class="cls-3" d="M93.26,18.95l1.03,1.55h.04l1.03-1.55h.35l-1.04,1.55c-.08.13-.14.21-.16.24h-.4c-.05-.07-.1-.15-.16-.24l-1.03-1.55h.35Z"/>
        <path class="cls-3" d="M96.41,18.14v.31h-.31v-.31h.31ZM96.41,18.86v1.88h-.31v-1.88h.31Z"/>
        <path class="cls-3" d="M97.65,19.33c-.08.03-.14.07-.19.12s-.09.12-.12.19c-.03.08-.04.16-.04.23s.01.16.04.23c.03.08.07.14.12.19s.12.09.19.12.16.04.23.04h1.43v.29h-1.43c-.16,0-.3-.04-.44-.12-.13-.08-.24-.18-.32-.32-.08-.13-.12-.28-.12-.44s.04-.3.12-.44c.08-.13.18-.24.32-.32.13-.08.28-.12.44-.12h1.43v.29h-1.43c-.08,0-.16.01-.23.04Z"/>
        <path class="cls-3" d="M100.23,18.14v.31h-.31v-.31h.31ZM100.23,18.86v1.88h-.31v-1.88h.31Z"/>
        <path class="cls-3" d="M102.11,18.99c.16,0,.29,0,.41.04s.21.09.28.15c.07.06.13.13.17.21.04.07.07.14.09.2.02.06.03.12.04.16s0,.07,0,.06v.1c0,.08-.02.16-.06.26-.04.1-.09.19-.17.28-.08.09-.18.16-.3.21s-.26.08-.43.07h-.33c-.16,0-.3-.01-.43-.07-.12-.05-.22-.12-.3-.21-.08-.09-.13-.18-.17-.28-.04-.1-.06-.18-.06-.26v-.1s0-.01,0-.06.02-.1.04-.16.05-.13.09-.2c.04-.07.1-.14.17-.21.08-.06.17-.12.28-.15.12-.04.25-.05.41-.04h.24ZM102.22,20.45c.22,0,.37-.05.46-.16.09-.1.14-.22.15-.34v-.05s0-.08,0-.08v-.05c-.02-.11-.07-.22-.15-.33-.09-.11-.24-.16-.46-.16h-.46c-.22,0-.37.05-.46.16-.09.11-.14.22-.15.33v.05s0,.08,0,.08v.05c.02.12.07.23.16.34.09.1.24.16.46.16h.46Z"/>
        <path class="cls-3" d="M105.53,19.74c.12,0,.22.05.31.12.09.07.13.21.13.41,0,.11-.03.2-.08.27-.05.07-.12.12-.2.16-.08.03-.16.05-.24.05h-1.78v-.29s1.77,0,1.77,0c.06,0,.12-.01.17-.04.05-.03.08-.09.08-.19,0-.06-.02-.11-.05-.14-.04-.03-.08-.04-.12-.05s-.07,0-.08,0h-1.29c-.07,0-.14-.02-.22-.06-.08-.04-.14-.09-.2-.18-.06-.08-.08-.19-.08-.32,0-.11.03-.21.09-.28.06-.07.13-.13.21-.16.08-.04.16-.05.23-.06h1.61v.29h-1.59c-.07,0-.13.01-.18.04-.06.03-.08.1-.08.21,0,.09.03.15.08.18.05.03.1.04.15.04h1.38Z"/>
      </g>
      <rect class="cls-1" x="118.01" y="18.11" width="4.16" height="1.32"/>
      <rect class="cls-20" x="118.01" y="19.43" width="4.16" height=".66"/>
      <rect class="cls-2" x="118.01" y="20.09" width="4.16" height=".66"/>
      <rect class="cls-17" x="112.92" y="18.11" width="1.39" height="2.63"/>
      <rect class="cls-17" x="115.69" y="18.11" width="1.39" height="2.63"/>
      <rect class="cls-4" x="114.3" y="18.11" width="1.39" height="2.63"/>
      <polyline class="cls-11" points="111.98 20.75 107.82 20.75 107.82 19.43 111.98 19.43"/>
      <rect class="cls-16" x="107.83" y="18.11" width="1.39" height="1.32"/>
      <rect class="cls-4" x="109.21" y="18.11" width="2.77" height="1.32"/>
      <polygon class="cls-4" points="108.18 18.67 108.44 18.67 108.52 18.44 108.59 18.67 108.84 18.67 108.64 18.81 108.72 19.04 108.52 18.9 108.31 19.04 108.39 18.81 108.18 18.67"/>
      <path class="cls-4" d="M14.84.27L.55,4.78l14.33,11.12,14.04-10.84L14.84.27ZM20.37,10.39l-3.12,2.39-2.66-1.71,2.04-1.67c.37-.33.47-.56.47-.56v-3.18c.03-.54-.73-.85-.73-.85-.94-.45-2.38-.43-2.38-.43-1.33-.02-3.8.92-3.8.92v2.95l-3.69-2.37c2.35-.95,3.42-1.2,3.42-1.2,2.33-.65,3.96-.69,3.96-.69,2.61-.14,4.68.58,4.68.58,2.08.57,2.94,1.3,2.94,1.3,1.72,1.29,1.33,2.61,1.33,2.61-.27.24-2.47,1.91-2.47,1.91"/>
      <polygon class="cls-10" points=".02 8.24 .02 4.69 14.92 16.03 29.45 4.96 29.45 8.22 14.87 21.46 .02 8.24"/>
      <path class="cls-10" d="M6.42,5.91l-2.39-1.48s3.15-1.23,5.77-1.73c2.62-.5,3.58-.53,5.07-.47,1.5.06,4.37.63,6.26,1.55,1.89.93,2.29,1.89,2.4,2.42.12.53.09,1.75-.34,2.13l-.42.38s.31-.69-.13-1.56c-.44-.87-1.39-1.7-3.12-2.29-1.73-.59-3.27-.92-5.14-.89-1.87.03-3.57.44-4.87.82-1.3.38-3.09,1.11-3.09,1.11"/>
      <path class="cls-10" d="M10.2,5.37v2.94l4.29,2.83s.94-.73,1.6-1.28c.66-.54.94-.87,1.01-1.03v-3.24s.08.51-1.06,1.15c-1.13.64-1.49.85-1.49.85l-4.35-2.21Z"/>
      <path class="cls-10" d="M14.88,16.23L0,4.68,14.85,0h.04s14.57,4.97,14.57,4.97l-14.57,11.26ZM.55,4.78l14.34,11.12,14.04-10.84L14.84.27.55,4.78Z"/>
      <path class="cls-10" d="M17.27,13.09l-.07-.05L3.75,4.39l.24-.09s3.19-1.24,5.8-1.74c1.92-.37,3-.49,4.14-.49.27,0,.57,0,.95.02,1.62.06,4.5.68,6.31,1.57,1.43.7,2.26,1.54,2.47,2.51.12.56.1,1.82-.38,2.25l-.43.38-5.59,4.29ZM4.32,4.45l12.94,8.32,5.44-4.17.42-.38c.38-.34.41-1.51.3-2-.2-.89-.98-1.67-2.33-2.33-1.78-.87-4.61-1.48-6.2-1.54-.38-.01-.68-.02-.95-.02-.97,0-1.94.08-4.1.49-2.17.41-4.73,1.34-5.51,1.63"/>
      <path class="cls-10" d="M14.47,7.64l-4.29-2.19.04-.07-.03-.08c.1-.04,2.43-.93,3.82-.93h.03c1.46.01,2.38.36,2.77.69.36.3.41.63.16,1.02-.18.28-.71.67-1.43,1.05-.71.38-1.02.5-1.03.51h-.03ZM10.32,5.39l4.15,2.12c.09-.04.4-.18.99-.49.7-.37,1.21-.74,1.38-1,.21-.33.18-.6-.13-.85-.37-.31-1.27-.65-2.69-.66h-.03c-1.21,0-3.21.72-3.68.89"/>
      <path class="cls-10" d="M40.5,6.74c.14.02.36.08.68.19.31.11.68.32,1.09.63.41.31.77.78,1.08,1.4.31.62.46,1.41.46,2.36s-.18,1.67-.54,2.27c-.36.61-.79,1.06-1.29,1.35-.5.29-.97.47-1.42.53h-7.62V6.73h7.57ZM40.44,14.29c.23-.04.52-.14.84-.3.32-.16.63-.46.92-.9.29-.43.43-1.03.43-1.78,0-.88-.15-1.57-.45-2.07-.3-.5-.62-.84-.95-1.01-.33-.18-.61-.28-.84-.32h-6.28v6.38h6.33Z"/>
      <rect class="cls-10" x="44.63" y="6.75" width="1.19" height="8.7"/>
      <path class="cls-10" d="M52.3,9.12c.77-.01,1.46-.13,2.06-.34.61-.22,1.08-.43,1.4-.65.33-.22.55-.38.66-.49l.96-.91v8.75h-1.14v-6.32c-.5.3-1.08.55-1.75.76-.66.21-1.39.32-2.18.33-.83,0-1.61-.1-2.33-.32-.72-.22-1.36-.49-1.92-.82v6.36h-1.14V6.73l1,.86c.14.13.39.3.75.53.36.23.86.45,1.51.68.64.23,1.35.33,2.11.32"/>
      <rect class="cls-9" x="59.08" y="10.44" width="2.29" height="1.16"/>
      <g>
        <path class="cls-19" d="M72.92,6.66v1.19h-6.39c-.25,0-.53.08-.84.23s-.63.39-.93.71c-.22.23-.41.53-.57.9-.16.37-.25.83-.25,1.37,0,.36.06.72.17,1.06s.28.67.49.97c.19.27.44.53.75.78.31.26.7.39,1.17.4h6.39v1.19h-6.39c-.71,0-1.37-.2-1.97-.59-.6-.4-1.08-.93-1.43-1.61-.35-.67-.52-1.41-.52-2.21s.17-1.53.52-2.21c.35-.67.83-1.21,1.43-1.6.6-.4,1.26-.59,1.97-.59h6.39Z"/>
        <path class="cls-19" d="M80.1,10.46h-3.35c-.17,0-.36,0-.57,0-.21,0-.41.03-.59.08s-.34.15-.48.28c-.14.13-.23.29-.29.47-.06.18-.09.34-.09.47,0,.13,0,.37,0,.71v2.92c0,.05-.02.08-.07.08h-.83s-.07-.03-.07-.08v-3.01c0-.12,0-.34,0-.64s.06-.61.18-.92c.12-.31.33-.58.63-.82.19-.15.4-.26.62-.34.22-.08.44-.13.64-.16.2-.03.39-.04.56-.04h3.7v.99Z"/>
        <path class="cls-19" d="M87.71,9.91c.29.23.48.49.57.77s.14.53.15.74c0,1.05-.58,1.6-1.76,1.66h-4.67s0,.25,0,.25c0,.27.02.49.07.64.05.16.13.27.25.34.12.07.27.12.46.15.19.02.47.04.82.04h4.36c.13,0,.19.06.19.18v.59c0,.13-.06.19-.19.19h-4.51c-.63,0-1.12-.07-1.48-.21-.36-.14-.62-.36-.77-.67-.16-.3-.23-.72-.23-1.24v-1.5c0-.35.13-.7.4-1.05s.61-.65,1.02-.88c.42-.23.84-.35,1.27-.35h2.84c.52,0,.92.12,1.21.35ZM87.03,12.04c.09-.03.17-.09.26-.19.06-.07.11-.15.13-.24s.04-.21.05-.37c0-.07-.02-.16-.06-.27s-.11-.21-.22-.3-.26-.14-.45-.14h-3.1c-.22,0-.46.07-.72.21-.26.14-.48.33-.65.56-.18.24-.27.5-.27.79h4.61c.19,0,.33-.02.42-.05ZM84.6,8.83h.74l.79-.75.75-.76h0s-1.2-.01-1.2-.01l-1.08,1.53Z"/>
        <path class="cls-19" d="M96.06,7.4h.96c0-.06,0,0,0,.18v5.68c0,.39-.04.73-.12,1.01s-.22.5-.41.68c-.19.17-.44.3-.75.38s-.7.12-1.17.12h-1.93c-.55.03-1.04-.05-1.46-.23s-.76-.42-1.03-.71c-.27-.29-.46-.6-.59-.92-.13-.32-.19-.61-.19-.86v-.34s0-.04.02-.19.06-.34.12-.55c.07-.21.17-.44.31-.68.14-.24.34-.47.59-.69.25-.21.58-.38.97-.5.4-.12.86-.17,1.39-.14h3.27v-2.22ZM96.06,10.58h-3.66c-.59,0-1.04.12-1.35.36s-.51.5-.6.77-.13.49-.13.65v.29c0,.2.05.44.14.71.09.28.29.53.6.77.31.23.75.35,1.34.35h2.53c.29,0,.52-.06.68-.19.17-.12.28-.3.35-.52.07-.22.1-.49.1-.82v-2.38Z"/>
        <path class="cls-19" d="M99.08,6.69v1.04h-1.04v-1.04h1.04ZM99.08,9.11v6.35h-1.04v-6.35h1.04Z"/>
        <path class="cls-19" d="M105.09,14.48v.96h-1.81c-.52,0-1.01-.13-1.46-.39-.45-.26-.81-.61-1.07-1.05-.26-.44-.4-.92-.41-1.44v-5.25h.97s0,0,0,.07v2.16h2.27s0,0,0,.07v.89s-.03,0-.09,0h-2.18v2.08c0,.42.11.78.33,1.06s.45.5.69.64c.12.08.3.13.55.15s.44.03.59.02h1.61Z"/>
        <path class="cls-19" d="M110.28,9.57c.53-.02.99.02,1.38.15.39.12.71.29.96.51.25.22.44.45.59.69.14.25.24.48.31.69.06.21.1.4.12.55s.02.22.02.2v.35c0,.25-.06.54-.19.87-.12.33-.32.64-.58.93-.26.3-.6.54-1.01.72-.41.18-.89.26-1.44.23h-1.1c-.55.03-1.03-.05-1.44-.23s-.75-.42-1.01-.72c-.26-.3-.46-.61-.58-.93-.12-.32-.19-.61-.19-.87v-.35s0-.04.02-.2c.02-.16.06-.34.12-.55.06-.21.17-.44.31-.69.14-.25.34-.48.59-.69.25-.22.57-.39.96-.51.39-.12.85-.17,1.38-.15h.8ZM110.66,14.48c.73,0,1.25-.18,1.54-.53.3-.35.47-.73.51-1.14v-.17s.01-.28.01-.28v-.18c-.06-.38-.23-.75-.52-1.11-.29-.36-.81-.54-1.54-.54h-1.56c-.74,0-1.25.18-1.54.54-.29.36-.46.73-.5,1.11l-.02.18v.26l.02.18c.04.4.21.78.51,1.14.3.35.81.53,1.54.53h1.56Z"/>
        <path class="cls-19" d="M120.76,12.08c.4.02.74.15,1.04.39.3.24.45.7.45,1.38,0,.36-.09.67-.27.91-.18.24-.41.42-.68.54s-.54.18-.8.18h-6v-.98s5.97,0,5.97,0c.21,0,.4-.05.57-.14s.25-.31.25-.65c0-.21-.06-.37-.18-.46-.12-.09-.26-.15-.41-.17-.16-.02-.25-.02-.29-.02h-4.35c-.23,0-.48-.07-.74-.19-.26-.12-.48-.32-.67-.6-.19-.28-.28-.63-.28-1.07,0-.38.1-.7.3-.95.2-.25.43-.44.71-.55.27-.12.54-.18.78-.2h5.42v.98h-5.36c-.22,0-.43.05-.62.14-.19.1-.29.33-.29.71,0,.3.09.5.26.59.18.09.35.14.51.15h4.66Z"/>
      </g>
    </g>
    <g>
      <path class="cls-14" d="M82.64,71.08h-16.28c-.83,0-1.51.68-1.51,1.51v30.07c0,.84.67,1.51,1.51,1.51h22.43c.83,0,1.51-.68,1.51-1.51v-23.61l-7.66-7.98Z"/>
      <path class="cls-18" d="M82.06,72.55h-14.41c-.74,0-1.33.62-1.33,1.38v27.41c0,.76.6,1.38,1.33,1.38h19.86c.74,0,1.33-.62,1.33-1.38v-21.52l-6.78-7.27Z"/>
      <path class="cls-4" d="M80.03,80.49l-.08-6.71c0-.35-.29-.63-.64-.63h-11.68c-.35,0-.64.29-.64.64v27.69c0,.35.29.64.64.64h19.88c.35,0,.64-.29.64-.64v-19.72c0-.35-.29-.64-.64-.64h-6.85c-.35,0-.63-.28-.64-.63"/>
      <rect class="cls-8" x="69.14" y="97.31" width="17.05" height="1.36"/>
      <rect class="cls-8" x="69.14" y="92.84" width="17.05" height="1.36"/>
      <rect class="cls-8" x="69.14" y="88.04" width="17.05" height="1.36"/>
      <rect class="cls-8" x="69.19" y="83.08" width="17.05" height="1.36"/>
      <rect class="cls-8" x="69.25" y="77.07" width="9.15" height="1.36"/>
      <path class="cls-15" d="M72.83,82.63h-15.31c-.78,0-1.42.64-1.42,1.44v28.81c-.01.8.62,1.45,1.4,1.45h21.1c.78,0,1.42-.64,1.42-1.44v-22.62s-7.19-7.64-7.19-7.64Z"/>
      <path class="cls-18" d="M72.29,84.03h-13.55c-.69,0-1.25.59-1.25,1.32v26.25c-.01.73.55,1.32,1.24,1.32h18.68c.69,0,1.25-.58,1.25-1.31v-20.61s-6.37-6.97-6.37-6.97Z"/>
      <path class="cls-4" d="M70.38,91.64l-.07-6.43c0-.34-.27-.61-.6-.61h-10.99c-.33,0-.6.27-.6.61v26.53c0,.34.26.61.59.61h18.7c.33,0,.6-.27.6-.61v-18.89c0-.34-.26-.61-.59-.61h-6.44c-.33,0-.59-.27-.6-.61"/>
      <rect class="cls-7" x="60.08" y="106.98" width="16.24" height=".79"/>
      <rect class="cls-7" x="60.08" y="101.51" width="16.24" height=".81"/>
      <rect class="cls-7" x="60.08" y="96" width="16.24" height=".81"/>
      <rect class="cls-7" x="59.78" y="89.88" width="9.32" height=".73"/>
      <path class="cls-15" d="M67.3,73.74h-15.24c-.78,0-1.41.64-1.41,1.44v28.68c-.01.8.62,1.44,1.4,1.44h21c.78,0,1.41-.64,1.41-1.43v-22.52s-7.16-7.61-7.16-7.61Z"/>
      <path class="cls-18" d="M66.75,75.14h-13.49c-.69,0-1.25.58-1.25,1.31v26.14c0,.73.55,1.32,1.24,1.32h18.6c.69,0,1.25-.58,1.25-1.31v-20.52s-6.34-6.94-6.34-6.94Z"/>
      <path class="cls-4" d="M64.85,82.72l-.07-6.4c0-.33-.27-.6-.6-.6h-10.94c-.33,0-.6.27-.6.61v26.41c-.01.34.26.61.58.61h18.62c.33,0,.6-.27.6-.6v-18.81c0-.34-.26-.61-.59-.61h-6.41c-.33,0-.59-.27-.6-.61"/>
      <rect class="cls-7" x="54.59" y="97.99" width="16.17" height=".78"/>
      <rect class="cls-7" x="54.6" y="92.54" width="16.17" height=".8"/>
      <rect class="cls-7" x="54.6" y="87.06" width="16.17" height=".8"/>
      <rect class="cls-7" x="54.3" y="80.97" width="9.28" height=".73"/>
      <path class="cls-14" d="M68.24,99.74c0,1.07-.86,1.94-1.91,1.94h-30.23c-1.06,0-1.91-.87-1.91-1.94v-19.85c0-1.07.86-1.94,1.91-1.94h30.23c1.06,0,1.91.87,1.91,1.94v19.85Z"/>
      <rect class="cls-15" x="34.74" y="78.47" width="33.04" height="22.75" rx="1.86" ry="1.86"/>
      <rect class="cls-12" x="34.72" y="83.03" width="33.01" height="4.47"/>
      <rect class="cls-12" x="35.61" y="95.15" width="31.21" height=".45"/>
      <rect class="cls-12" x="42.79" y="93.73" width="17.23" height=".45"/>
      <path class="cls-15" d="M105.86,79.22c0,5.35-4.34,9.69-9.69,9.69s-9.69-4.34-9.69-9.69,4.34-9.69,9.69-9.69,9.69,4.34,9.69,9.69"/>
      <path class="cls-4" d="M104.4,79.22c0,4.54-3.68,8.22-8.22,8.22s-8.22-3.68-8.22-8.22,3.68-8.22,8.22-8.22,8.22,3.68,8.22,8.22"/>
      <path class="cls-6" d="M99.59,83.32c-.26.47-.64.87-1.15,1.18-.51.32-1.11.5-1.82.54v1.32h-.88v-1.32c-.99-.09-1.8-.41-2.42-.96-.62-.55-.94-1.25-.95-2.1h1.58c.04.46.22.85.51,1.19.3.34.72.55,1.26.64v-4.08c-.73-.18-1.32-.37-1.76-.57-.45-.2-.83-.5-1.14-.91-.32-.41-.47-.97-.47-1.66,0-.88.31-1.61.92-2.19.61-.58,1.43-.9,2.46-.96v-1.35h.88v1.35c.93.08,1.67.37,2.24.89.57.52.89,1.19.98,2.02h-1.58c-.05-.38-.22-.73-.51-1.04-.28-.31-.66-.51-1.13-.61v3.98c.72.19,1.3.37,1.76.56.45.19.83.49,1.14.91.31.41.47.97.47,1.68,0,.52-.13,1.02-.39,1.49M94.35,77.73c.32.28.78.52,1.39.7v-3.77c-.57.05-1.02.24-1.35.55-.34.31-.51.74-.51,1.3s.16.94.47,1.22M98,83.19c.33-.36.5-.79.5-1.29,0-.53-.16-.94-.49-1.23-.33-.29-.79-.52-1.39-.69v3.85c.59-.07,1.05-.28,1.38-.64"/>
      <path class="cls-4" d="M121.79,64.32h-3.34l-5.76.46-6.09-1.64s-2.49-1.14-4.97,1.39l-3.06,2.81s-.96,1.71,1.35,1.85h-4.29s-1.71,0-1.71,2.95c0,0-.07,2.63,3.13,2.63h7.21l4.84,1.67,10.03-2.63,2.53-.07.14-9.42Z"/>
      <path class="cls-13" d="M118.45,65.32l-5.8.39-6.55-1.71s-1.92-.25-3.27,1l-3.06,2.75c-.27.22-.16.65.19.71l4.25.48s1.24.16,1.19.65c0,0-.29.33-1.32.35h-7.19s-1.85-.07-1.85,1.71c0,0-.39,1.85,1.78,2.42h7.76l4.66,1.24,9.1-2.2s.2-7.7.11-7.79"/>
      <rect class="cls-7" x="116.8" y="64.15" width="5.45" height="10.46"/>
      <path class="cls-5" d="M81.81,90.52l4-1.8s2.9-1.23,7.26,2.93h.9s2.54-2.26,3.77-1.03c0,0,1.1-1.51,2.62,0,0,0,1.32-1.37,2.69,0,0,0,2.46-.74,2.46,2.46l-.36.85-4.72,4.87-4.41,2.51s-1.51.85-2.36,0l-5.88-2.67-1.88-.06-4.1-8.07Z"/>
      <path class="cls-21" d="M104.35,91.8c-.93-1.25-2.62.85-2.62.85,1.37-1.15.26-1.78.26-1.78-.82-.55-2.23.69-2.23.69-.36-1.51-1.59-.51-2.4.25.21-.52-.29-.53-.29-.53-.4-.04-1.06.23-1.06.23-1.06.49-1.06.8-1.06.8.62.38,1.03.26,1.03.26l1.67.13c1.81.25,1.42,2.37,1.42,2.37-.29,1.63-2.54,1.69-2.54,1.69h-3.01c-1.22-.19-1.26-.23-1.9-.58-.29-.16-.4-.49-.07-.45,1.01.1,4.61.2,5.05.14,1.58-.19,1.39-1.44,1.39-1.44.14-1.53-2.78-1.31-2.78-1.31-2.42-.84-4.84-2.13-4.84-2.13-1.81-2.04-4.79-1.18-4.79-1.18l-3.43,1.58,3.17,6.34,2.49-.03,2.85,1.52c4.36,2.22,5.41,1.07,5.41,1.07l3.41-1.78,4.03-4.06c1.92-1.7.86-2.67.86-2.67"/>
      <rect class="cls-14" x="78.29" y="90.99" width="5.6" height="9.36" transform="translate(-34.36 46.68) rotate(-26.72)"/>
    </g>
    <g>
      <path class="cls-15" d="M95.45,154.15h-10.99c-.56,0-1.02.46-1.02,1.04v20.68c0,.58.45,1.04,1.01,1.04h15.14c.56,0,1.02-.46,1.02-1.03v-16.24s-5.16-5.49-5.16-5.49Z"/>
      <path class="cls-18" d="M95.05,155.16h-9.73c-.5,0-.9.42-.9.94v18.85c0,.52.4.95.89.95h13.41c.5,0,.9-.42.9-.94v-14.8s-4.57-5-4.57-5Z"/>
      <path class="cls-4" d="M93.69,160.62l-.05-4.62c0-.24-.19-.44-.43-.44h-7.89c-.24,0-.43.19-.43.44v19.04c0,.24.18.44.42.44h13.43c.24,0,.43-.19.43-.43v-13.56c0-.24-.19-.44-.42-.44h-4.63c-.24,0-.43-.2-.43-.44"/>
      <rect class="cls-7" x="86.29" y="171.63" width="11.66" height=".57"/>
      <rect class="cls-7" x="86.29" y="167.7" width="11.66" height=".58"/>
      <rect class="cls-7" x="86.29" y="163.75" width="11.66" height=".58"/>
      <rect class="cls-7" x="86.07" y="159.36" width="6.69" height=".53"/>
      <path class="cls-15" d="M91.47,147.77h-10.94c-.56,0-1.01.46-1.01,1.03v20.59c0,.57.44,1.04,1,1.04h15.08c.56,0,1.01-.46,1.01-1.03v-16.16s-5.14-5.46-5.14-5.46Z"/>
      <path class="cls-18" d="M91.08,148.78h-9.69c-.49,0-.89.42-.9.94v18.76c0,.52.39.94.89.94h13.35c.49,0,.89-.42.89-.94v-14.73s-4.55-4.98-4.55-4.98Z"/>
      <path class="cls-4" d="M89.72,154.21l-.05-4.6c0-.24-.19-.43-.43-.43h-7.85c-.24,0-.43.19-.43.43v18.96c0,.24.18.44.42.44h13.37c.24,0,.43-.19.43-.43v-13.5c0-.24-.19-.44-.42-.44h-4.61c-.23,0-.42-.19-.43-.44"/>
      <rect class="cls-7" x="82.35" y="165.18" width="11.61" height=".56"/>
      <rect class="cls-7" x="82.35" y="161.27" width="11.61" height=".58"/>
      <rect class="cls-7" x="82.36" y="157.33" width="11.61" height=".58"/>
      <rect class="cls-7" x="82.14" y="152.96" width="6.66" height=".52"/>
      <path class="cls-14" d="M92.15,166.44c0,.77-.62,1.39-1.37,1.39h-21.7c-.76,0-1.37-.62-1.37-1.39v-14.25c0-.77.62-1.39,1.37-1.39h21.7c.76,0,1.37.62,1.37,1.39v14.25Z"/>
      <rect class="cls-15" x="68.1" y="151.17" width="23.72" height="16.33" rx="1.33" ry="1.33"/>
      <rect class="cls-12" x="68.09" y="154.44" width="23.69" height="3.21"/>
      <rect class="cls-12" x="68.73" y="163.14" width="22.4" height=".33"/>
      <rect class="cls-12" x="73.88" y="162.12" width="12.37" height=".33"/>
      <path class="cls-15" d="M110.48,153.07c0,3.84-3.11,6.95-6.95,6.95s-6.95-3.11-6.95-6.95,3.11-6.95,6.95-6.95,6.95,3.11,6.95,6.95"/>
      <path class="cls-4" d="M109.43,153.07c0,3.26-2.64,5.9-5.9,5.9s-5.9-2.64-5.9-5.9,2.64-5.9,5.9-5.9,5.9,2.64,5.9,5.9"/>
      <path class="cls-6" d="M105.99,156.01c-.19.34-.46.62-.83.85-.36.23-.8.36-1.31.39v.95h-.63v-.95c-.71-.06-1.29-.29-1.73-.69-.45-.39-.67-.9-.68-1.5h1.14c.03.33.15.61.37.86.21.24.52.39.91.46v-2.93c-.52-.13-.95-.27-1.26-.41-.32-.14-.6-.36-.82-.66-.23-.3-.34-.69-.34-1.19,0-.63.22-1.16.66-1.57.44-.42,1.03-.65,1.76-.69v-.97h.63v.97c.66.06,1.2.27,1.6.64.41.37.64.85.7,1.45h-1.14c-.04-.27-.16-.52-.36-.74-.2-.22-.47-.37-.81-.44v2.86c.52.13.93.27,1.26.4.32.14.6.35.82.65.22.3.33.7.33,1.21,0,.37-.09.73-.28,1.07M102.22,152c.23.2.56.37,1,.5v-2.71c-.41.04-.73.17-.97.39-.24.22-.36.53-.36.93s.11.68.34.88M104.84,155.92c.24-.26.36-.57.36-.93,0-.38-.12-.68-.35-.89-.24-.21-.57-.37-1-.5v2.77c.42-.05.75-.2.99-.46"/>
      <path class="cls-4" d="M121.92,142.37h-2.4l-4.13.33-4.37-1.18s-1.79-.82-3.57.99l-2.2,2.02s-.69,1.22.97,1.33h-3.08s-1.23,0-1.23,2.12c0,0-.05,1.89,2.25,1.89h5.18l3.47,1.2,7.2-1.89,1.81-.05.1-6.77Z"/>
      <path class="cls-13" d="M119.52,143.09l-4.16.28-4.7-1.23s-1.38-.18-2.35.72l-2.2,1.97c-.19.15-.11.47.13.51l3.05.35s.89.11.85.47c0,0-.21.24-.94.26h-5.16s-1.33-.05-1.33,1.23c0,0-.28,1.33,1.28,1.74h5.57l3.34.89,6.54-1.58s.14-5.53.08-5.59"/>
      <rect class="cls-7" x="118.33" y="142.25" width="3.91" height="7.5"/>
    </g>
  </g>
</svg>