<?xml version="1.0" encoding="UTF-8"?>
<svg id="Capa_2" xmlns="http://www.w3.org/2000/svg" viewBox="0 0 154.98 208.97">
  <defs>
    <style>
      .cls-1 {
        fill: #f9cf16;
      }

      .cls-2 {
        fill: #cd142a;
      }

      .cls-3 {
        fill: #646365;
      }

      .cls-4 {
        fill: #fff;
      }

      .cls-5 {
        fill: #115a9f;
      }

      .cls-6 {
        fill: #ecebeb;
      }

      .cls-7 {
        fill: #625f60;
      }

      .cls-8 {
        fill: #505050;
      }

      .cls-9 {
        fill: #d00e4d;
      }

      .cls-10 {
        fill: #d00e4c;
      }

      .cls-11 {
        fill: #d22e1f;
      }

      .cls-12 {
        fill: #d20f48;
      }

      .cls-13 {
        fill: #1d458c;
      }

      .cls-14 {
        fill: #48a98e;
      }

      .cls-15 {
        fill: #e1222c;
      }

      .cls-16 {
        fill: #828384;
      }

      .cls-17 {
        fill: #1b4180;
      }
    </style>
  </defs>
  <g id="Capa_1-2" data-name="Capa_1">
    <g>
      <path class="cls-10" d="M40.5,26.63c.14.02.36.08.68.19.31.11.68.32,1.09.63.41.31.77.78,1.08,1.4.31.62.46,1.41.46,2.36s-.18,1.67-.54,2.27c-.36.6-.79,1.06-1.29,1.35-.5.29-.97.47-1.42.53h-7.62v-8.73h7.57ZM40.44,34.18c.23-.04.52-.14.84-.3.32-.16.63-.46.92-.9.29-.43.43-1.03.43-1.78,0-.88-.15-1.57-.45-2.07-.3-.5-.62-.84-.95-1.01-.33-.18-.61-.28-.84-.32h-6.28v6.38h6.33Z"/>
      <rect class="cls-10" x="44.63" y="26.64" width="1.19" height="8.7"/>
      <path class="cls-10" d="M52.3,29.01c.77-.01,1.46-.13,2.06-.34.61-.22,1.08-.43,1.4-.65.33-.22.55-.38.66-.49l.96-.91v8.75h-1.14v-6.32c-.5.3-1.08.55-1.75.76-.66.21-1.39.32-2.18.33-.83,0-1.61-.1-2.33-.32-.72-.22-1.36-.49-1.92-.82v6.36h-1.14v-8.75l1,.87c.14.13.39.3.75.53.36.23.86.45,1.51.68.64.23,1.35.33,2.11.32"/>
      <rect class="cls-9" x="59.08" y="30.33" width="2.29" height="1.16"/>
      <g>
        <path class="cls-16" d="M72.92,26.55v1.19h-6.39c-.25,0-.53.08-.84.23s-.63.39-.93.71c-.22.23-.41.53-.57.9-.16.37-.25.83-.25,1.37,0,.36.06.72.17,1.06.11.35.28.67.49.97.19.27.44.53.75.78.31.26.7.39,1.17.4h6.39v1.19h-6.39c-.71,0-1.37-.2-1.97-.59-.6-.4-1.08-.93-1.43-1.61-.35-.67-.52-1.41-.52-2.21s.17-1.53.52-2.21c.35-.67.83-1.21,1.43-1.6.6-.4,1.26-.59,1.97-.59h6.39Z"/>
        <path class="cls-16" d="M81.03,30.84c.24.42.36.94.36,1.56,0-.1,0-.08,0,.06h0v.69c0,.58-.12,1.03-.33,1.34-.22.31-.48.53-.79.63s-.63.17-.98.17c-.34,0-.6.02-.76.02h-3.15c-.49,0-.91-.18-1.26-.54-.35-.36-.52-.79-.52-1.3s.17-.95.52-1.31c.35-.36.77-.55,1.26-.55h4.82c0-.07-.02-.14-.04-.2-.02-.07-.04-.11-.06-.13-.09-.18-.22-.35-.39-.5s-.36-.27-.56-.36c-.21-.08-.43-.12-.65-.12h-4.64v-.94c0-.08,0-.11,0-.08h4.64c.54,0,1.03.14,1.5.42.22.13.41.29.57.47.16.18.31.4.46.65ZM80.33,33.29c0-.09,0-.29-.01-.62h-5.06c-.18,0-.34.08-.47.24-.13.16-.19.36-.19.58s.06.42.19.58c.13.16.29.24.47.24h3.28c.37,0,.67,0,.89-.02.22-.01.39-.07.52-.16.14-.1.23-.22.29-.35.05-.14.08-.3.09-.49Z"/>
        <path class="cls-16" d="M88.56,30.34h-3.35c-.17,0-.36,0-.57,0s-.41.03-.59.08c-.18.05-.34.15-.48.28-.13.13-.23.29-.28.47-.06.18-.09.34-.09.47,0,.13,0,.37,0,.71v2.92c0,.05-.02.08-.07.08h-.83s-.07-.03-.07-.08v-3.01c0-.12,0-.34,0-.64,0-.3.06-.61.18-.92.12-.31.33-.58.63-.82.19-.15.4-.26.62-.34.22-.08.44-.13.64-.16.2-.03.39-.04.56-.04h3.7v.99Z"/>
        <path class="cls-16" d="M96.07,29.76c.26.14.47.35.63.61s.25.57.25.92v3.18c-.02.51-.15.98-.36,1.42-.22.44-.52.79-.9,1.06-.38.27-.82.42-1.33.45h-4.83v-.94h4.7c.3,0,.6-.09.9-.27s.53-.45.68-.8l.03-.08h-3.58c-.58,0-1.09-.14-1.53-.42-.44-.28-.77-.64-1-1.07-.23-.43-.35-.87-.35-1.32v-.21c0-.42.12-.84.36-1.27s.57-.78,1-1.06.91-.42,1.45-.42h3.07c.27,0,.54.07.8.21ZM96.01,34.36v-3.18c0-.17-.06-.33-.18-.47-.12-.15-.28-.22-.47-.22h-2.98c-.5,0-.9.09-1.2.27-.3.18-.52.41-.64.68-.12.27-.19.56-.19.86v.23c0,.39.09.72.26,1,.17.28.4.48.67.62s.56.21.86.21h3.87Z"/>
        <path class="cls-16" d="M105.2,30.84c.24.42.36.94.36,1.56,0-.1,0-.08,0,.06h0v.69c0,.58-.12,1.03-.33,1.34-.22.31-.48.53-.79.63s-.63.17-.97.17c-.34,0-.6.02-.76.02h-3.15c-.49,0-.91-.18-1.26-.54-.35-.36-.52-.79-.52-1.3s.17-.95.52-1.31c.35-.36.77-.55,1.26-.55h4.82c0-.07-.02-.14-.04-.2s-.04-.11-.06-.13c-.09-.18-.22-.35-.39-.5-.17-.15-.36-.27-.56-.36-.21-.08-.43-.12-.65-.12h-4.64v-.94c0-.08,0-.11,0-.08h4.64c.54,0,1.03.14,1.5.42.22.13.41.29.57.47s.31.4.46.65ZM104.5,33.29c0-.09,0-.29-.01-.62h-5.06c-.18,0-.34.08-.47.24-.13.16-.19.36-.19.58s.06.42.19.58c.13.16.29.24.47.24h3.28c.37,0,.67,0,.89-.02s.39-.07.52-.16c.14-.1.23-.22.29-.35.05-.14.08-.3.09-.49Z"/>
        <path class="cls-16" d="M113.35,28.98c.77-.01,1.47-.13,2.08-.35.61-.22,1.08-.44,1.41-.66s.55-.38.66-.49l.97-.92v8.81h-1.15v-6.36c-.51.3-1.09.56-1.76.77-.66.21-1.4.32-2.2.33-.84,0-1.62-.1-2.34-.32-.72-.22-1.37-.5-1.93-.83v6.4h-1.15v-8.81l1.01.87c.14.13.4.3.76.53.36.23.87.46,1.51.68.65.23,1.36.33,2.12.32Z"/>
        <path class="cls-16" d="M126.69,30.84c.24.42.36.94.36,1.56,0-.1,0-.08,0,.06h0v.69c0,.58-.12,1.03-.33,1.34-.22.31-.48.53-.79.63s-.63.17-.97.17c-.34,0-.6.02-.76.02h-3.15c-.49,0-.91-.18-1.26-.54-.35-.36-.52-.79-.52-1.3s.17-.95.52-1.31c.35-.36.77-.55,1.26-.55h4.83c0-.07-.02-.14-.04-.2s-.04-.11-.06-.13c-.09-.18-.22-.35-.39-.5-.17-.15-.36-.27-.56-.36-.21-.08-.42-.12-.65-.12h-4.64v-.94c0-.08,0-.11,0-.08h4.64c.54,0,1.03.14,1.5.42.22.13.41.29.57.47s.31.4.46.65ZM125.99,33.29c0-.09,0-.29-.01-.62h-5.06c-.18,0-.33.08-.47.24-.13.16-.19.36-.19.58s.06.42.19.58c.13.16.29.24.47.24h3.28c.37,0,.67,0,.89-.02s.39-.07.52-.16c.14-.1.23-.22.28-.35.05-.14.08-.3.1-.49Z"/>
        <path class="cls-16" d="M134.01,31.97c.4.02.74.15,1.04.39.3.24.45.7.45,1.38,0,.36-.09.67-.27.91-.18.24-.41.42-.68.54-.27.12-.54.18-.8.18h-6v-.98s5.97,0,5.97,0c.21,0,.4-.05.57-.14.17-.09.25-.31.25-.65,0-.21-.06-.37-.18-.46s-.26-.15-.41-.17c-.16-.02-.25-.02-.29-.02h-4.35c-.23,0-.48-.07-.74-.19-.26-.12-.48-.32-.67-.6-.19-.28-.28-.63-.28-1.07,0-.38.1-.7.3-.95.2-.25.43-.44.71-.55.27-.12.54-.18.79-.2h5.42v.98h-5.36c-.22,0-.43.05-.62.14-.19.1-.29.33-.29.71,0,.3.09.5.26.59.18.09.35.14.51.15h4.66Z"/>
        <path class="cls-16" d="M137.48,26.57v1.04h-1.04v-1.04h1.04ZM137.48,28.99v6.35h-1.04v-6.35h1.04Z"/>
        <path class="cls-16" d="M138.99,29.31l3.49,5.23h.12l3.49-5.23h1.18l-3.49,5.23c-.29.43-.47.71-.55.82h-1.37c-.16-.23-.34-.5-.55-.82l-3.49-5.23h1.17Z"/>
        <path class="cls-16" d="M154.62,30.84c.24.42.36.94.36,1.56,0-.1,0-.08,0,.06h0v.69c0,.58-.12,1.03-.33,1.34-.22.31-.48.53-.79.63s-.63.17-.97.17c-.34,0-.6.02-.76.02h-3.15c-.49,0-.91-.18-1.26-.54-.35-.36-.52-.79-.52-1.3s.17-.95.52-1.31c.35-.36.77-.55,1.26-.55h4.82c0-.07-.02-.14-.04-.2s-.04-.11-.06-.13c-.09-.18-.22-.35-.39-.5-.17-.15-.36-.27-.56-.36-.21-.08-.43-.12-.65-.12h-4.64v-.94c0-.08,0-.11,0-.08h4.64c.54,0,1.03.14,1.5.42.22.13.41.29.57.47s.31.4.46.65ZM153.92,33.29c0-.09,0-.29-.01-.62h-5.06c-.18,0-.34.08-.47.24-.13.16-.19.36-.19.58s.06.42.19.58c.13.16.29.24.47.24h3.28c.37,0,.67,0,.89-.02s.39-.07.52-.16c.14-.1.23-.22.29-.35.05-.14.08-.3.09-.49Z"/>
      </g>
    </g>
    <g>
      <g>
        <path class="cls-3" d="M89.26,21.37h-.28s0,0,0-.05v-1.65c0-.11.04-.21.12-.32.08-.1.18-.19.3-.25.12-.07.23-.1.33-.1h.53c.16,0,.31.02.43.07s.22.12.3.21c.08.09.13.18.17.27.04.09.06.18.06.25v.1s0,.01,0,.06c0,.04-.02.1-.04.16-.02.06-.05.13-.09.2-.04.07-.1.14-.18.2-.07.06-.17.11-.29.15-.12.04-.25.05-.41.04h-.96v.65ZM89.26,20.44h1.08c.18,0,.31-.04.4-.11.09-.07.15-.15.18-.22.03-.08.04-.14.04-.19v-.09c0-.06-.01-.13-.04-.21s-.09-.16-.18-.23-.22-.1-.39-.1h-.58c-.07,0-.15.02-.23.07s-.14.1-.19.17c-.05.07-.07.14-.07.2v.7Z"/>
        <path class="cls-3" d="M93.67,19.25h-.99s-.11,0-.17,0c-.06,0-.12,0-.17.02s-.1.04-.14.08c-.04.04-.07.08-.08.14-.02.05-.03.1-.03.14,0,.04,0,.11,0,.21v.87s0,.02-.02.02h-.25s-.02,0-.02-.02v-.89s0-.1,0-.19c0-.09.02-.18.05-.27.03-.09.1-.17.19-.24.06-.04.12-.08.18-.1s.13-.04.19-.05.12-.01.17-.01h1.1v.29Z"/>
        <path class="cls-3" d="M95.48,18.98c.16,0,.29,0,.41.04.12.04.21.09.28.15.07.06.13.13.17.21.04.07.07.14.09.2.02.06.03.12.04.16s0,.07,0,.06v.1c0,.08-.02.16-.06.26-.04.1-.09.19-.17.28-.08.09-.18.16-.3.21-.12.05-.26.08-.43.07h-.33c-.16,0-.3-.01-.43-.07-.12-.05-.22-.12-.3-.21-.08-.09-.13-.18-.17-.28-.04-.1-.06-.18-.06-.26v-.1s0-.01,0-.06.02-.1.04-.16c.02-.06.05-.13.09-.2.04-.07.1-.14.17-.21.07-.06.17-.12.28-.15.12-.04.25-.05.41-.04h.24ZM95.59,20.44c.22,0,.37-.05.46-.16.09-.1.14-.22.15-.34v-.05s0-.08,0-.08v-.05c-.02-.11-.07-.22-.15-.33-.09-.11-.24-.16-.46-.16h-.46c-.22,0-.37.05-.46.16-.09.11-.14.22-.15.33v.05s0,.08,0,.08v.05c.02.12.07.23.16.34s.24.16.46.16h.46Z"/>
        <path class="cls-3" d="M99.04,18.34h.28s0,0,0,.05v1.68c0,.12-.01.22-.04.3s-.06.15-.12.2c-.06.05-.13.09-.22.11-.09.02-.21.04-.35.04h-.57c-.16,0-.31-.01-.43-.07-.12-.05-.23-.12-.3-.21-.08-.09-.14-.18-.17-.27-.04-.1-.06-.18-.06-.26v-.1s0-.01,0-.06c0-.05.02-.1.04-.16.02-.06.05-.13.09-.2s.1-.14.18-.2c.07-.06.17-.11.29-.15.12-.04.25-.05.41-.04h.97v-.66ZM99.04,19.28h-1.08c-.18,0-.31.04-.4.11s-.15.15-.18.23c-.03.08-.04.14-.04.19v.08c0,.06.01.13.04.21.03.08.09.16.18.23.09.07.22.1.4.1h.75c.09,0,.15-.02.2-.06s.08-.09.1-.15.03-.15.03-.24v-.71Z"/>
        <path class="cls-3" d="M101.53,20.4c.08-.03.14-.07.19-.12s.09-.12.12-.2.04-.16.04-.24v-.9h.29v.9c0,.16-.04.31-.12.45-.08.14-.19.25-.32.33-.13.08-.28.12-.44.12h-.56c-.16,0-.31-.04-.44-.12-.13-.08-.24-.19-.32-.33-.08-.14-.12-.29-.12-.45v-.9h.29s0,0,0,.02v.87c0,.08.01.16.04.24s.07.15.12.2.11.09.19.12c.08.03.15.04.23.04h.56c.08,0,.15-.01.23-.04Z"/>
        <path class="cls-3" d="M103.31,19.32c-.08.03-.14.07-.19.12-.05.05-.09.12-.12.19-.03.08-.04.16-.04.23s.01.16.04.23c.03.08.07.14.12.19.05.05.12.09.19.12s.16.04.23.04h1.43v.29h-1.43c-.16,0-.3-.04-.44-.12-.13-.08-.24-.18-.32-.32-.08-.13-.12-.28-.12-.44s.04-.3.12-.44c.08-.13.19-.24.32-.32.13-.08.28-.12.44-.12h1.43v.29h-1.43c-.08,0-.16.01-.23.04Z"/>
        <path class="cls-3" d="M107,20.44v.29h-.54c-.16,0-.3-.04-.43-.11-.13-.08-.24-.18-.32-.31-.08-.13-.12-.27-.12-.43v-1.55h.29s0,0,0,.02v.64h.67s0,0,0,.02v.26s0,0-.03,0h-.65v.62c0,.13.03.23.1.32.06.08.13.15.21.19.04.02.09.04.16.05.07,0,.13,0,.18,0h.48Z"/>
        <path class="cls-3" d="M108.86,18.98c.16,0,.29,0,.41.04s.21.09.28.15c.07.06.13.13.17.21.04.07.07.14.09.2.02.06.03.12.04.16s0,.07,0,.06v.1c0,.08-.02.16-.06.26-.04.1-.09.19-.17.28-.08.09-.18.16-.3.21-.12.05-.26.08-.43.07h-.33c-.16,0-.3-.01-.43-.07-.12-.05-.22-.12-.3-.21-.08-.09-.13-.18-.17-.28-.04-.1-.06-.18-.06-.26v-.1s0-.01,0-.06.02-.1.04-.16c.02-.06.05-.13.09-.2.04-.07.1-.14.17-.21.07-.06.17-.12.28-.15.11-.04.25-.05.41-.04h.24ZM108.97,20.44c.22,0,.37-.05.46-.16.09-.1.14-.22.15-.34v-.05s0-.08,0-.08v-.05c-.02-.11-.07-.22-.15-.33-.09-.11-.24-.16-.46-.16h-.46c-.22,0-.37.05-.46.16-.09.11-.14.22-.15.33v.05s0,.08,0,.08v.05c.02.12.07.23.16.34s.24.16.46.16h.46Z"/>
        <path class="cls-3" d="M112.28,19.73c.12,0,.22.05.31.12s.13.21.13.41c0,.11-.03.2-.08.27-.05.07-.12.12-.2.16s-.16.05-.24.05h-1.78v-.29s1.77,0,1.77,0c.06,0,.12-.01.17-.04.05-.03.08-.09.08-.19,0-.06-.02-.11-.05-.14-.04-.03-.08-.04-.12-.05-.05,0-.07,0-.09,0h-1.29c-.07,0-.14-.02-.22-.06-.08-.04-.14-.09-.2-.18-.06-.08-.08-.19-.08-.32,0-.11.03-.21.09-.28.06-.07.13-.13.21-.16.08-.04.16-.05.23-.06h1.61v.29h-1.59c-.07,0-.13.01-.18.04-.06.03-.08.1-.08.21,0,.09.03.15.08.18.05.03.1.04.15.04h1.38Z"/>
        <path class="cls-3" d="M116.38,18.97v1.52c-.01.17-.05.33-.13.45-.09.16-.2.27-.32.34-.12.07-.27.11-.45.11h-1.24s-.02,0-.02-.02v-.25s0-.02.02-.02h1.24c.06,0,.12,0,.17-.01.05,0,.09-.03.13-.05.05-.04.1-.07.13-.1.03-.03.06-.06.08-.11l.04-.09h-1.13c-.13,0-.25-.02-.36-.08-.11-.05-.19-.11-.26-.18-.07-.07-.12-.15-.18-.26s-.08-.22-.08-.33v-.92s0-.02,0-.02h.3s0,0,0,.02v.94c0,.06.01.12.04.18s.04.11.07.13c.01.01.03.04.07.07.03.03.08.07.14.09s.13.05.22.06h1.24s0-1.47,0-1.47c0-.02,0-.02.02-.02h.25s.02,0,.02.02Z"/>
        <path class="cls-3" d="M119.59,19.73c.12,0,.22.05.31.12s.13.21.13.41c0,.11-.03.2-.08.27-.05.07-.12.12-.2.16-.08.03-.16.05-.24.05h-1.78v-.29s1.77,0,1.77,0c.06,0,.12-.01.17-.04.05-.03.08-.09.08-.19,0-.06-.02-.11-.05-.14-.04-.03-.08-.04-.12-.05-.05,0-.07,0-.09,0h-1.29c-.07,0-.14-.02-.22-.06-.08-.04-.14-.09-.2-.18-.06-.08-.08-.19-.08-.32,0-.11.03-.21.09-.28s.13-.13.21-.16c.08-.04.16-.05.23-.06h1.6v.29h-1.59c-.07,0-.13.01-.18.04-.06.03-.08.1-.08.21,0,.09.03.15.08.18.05.03.1.04.15.04h1.38Z"/>
        <path class="cls-3" d="M122.58,19.08c.08.07.14.14.17.23s.04.16.04.22c0,.31-.17.48-.52.49h-1.38s0,.07,0,.07c0,.08,0,.14.02.19.01.05.04.08.07.1.03.02.08.04.14.04.06,0,.14.01.24.01h1.29s.06.02.06.05v.17s-.02.06-.06.06h-1.33c-.19,0-.33-.02-.44-.06-.11-.04-.18-.11-.23-.2-.05-.09-.07-.21-.07-.37v-.44c0-.1.04-.21.12-.31s.18-.19.3-.26.25-.1.38-.1h.84c.15,0,.27.03.36.1ZM122.38,19.72s.05-.03.08-.06c.02-.02.03-.04.04-.07s.01-.06.01-.11c0-.02,0-.05-.02-.08-.01-.03-.03-.06-.07-.09-.03-.03-.08-.04-.13-.04h-.92c-.07,0-.14.02-.21.06-.08.04-.14.1-.19.17-.05.07-.08.15-.08.23h1.37c.06,0,.1,0,.12-.01Z"/>
        <path class="cls-3" d="M125.3,19.25h-.99s-.11,0-.17,0c-.06,0-.12,0-.17.02s-.1.04-.14.08c-.04.04-.07.08-.08.14-.02.05-.03.1-.03.14,0,.04,0,.11,0,.21v.87s0,.02-.02.02h-.25s-.02,0-.02-.02v-.89s0-.1,0-.19c0-.09.02-.18.05-.27.03-.09.1-.17.19-.24.06-.04.12-.08.18-.1.07-.02.13-.04.19-.05.06,0,.12-.01.17-.01h1.1v.29Z"/>
        <path class="cls-3" d="M126,18.94l1.03,1.55h.03l1.03-1.55h.35l-1.04,1.55c-.08.13-.14.21-.16.24h-.4c-.05-.07-.1-.15-.16-.24l-1.03-1.55h.35Z"/>
        <path class="cls-3" d="M129.15,18.13v.31h-.31v-.31h.31ZM129.15,18.85v1.88h-.31v-1.88h.31Z"/>
        <path class="cls-3" d="M130.39,19.32c-.08.03-.14.07-.19.12s-.09.12-.12.19c-.03.08-.04.16-.04.23s.01.16.04.23c.03.08.07.14.12.19s.12.09.19.12.16.04.23.04h1.43v.29h-1.43c-.16,0-.3-.04-.44-.12-.13-.08-.24-.18-.32-.32-.08-.13-.12-.28-.12-.44s.04-.3.12-.44c.08-.13.18-.24.32-.32.13-.08.28-.12.44-.12h1.43v.29h-1.43c-.08,0-.16.01-.23.04Z"/>
        <path class="cls-3" d="M132.97,18.13v.31h-.31v-.31h.31ZM132.97,18.85v1.88h-.31v-1.88h.31Z"/>
        <path class="cls-3" d="M134.85,18.98c.16,0,.29,0,.41.04s.21.09.28.15c.07.06.13.13.17.21.04.07.07.14.09.2s.03.12.04.16c0,.05,0,.07,0,.06v.1c0,.08-.02.16-.06.26-.04.1-.09.19-.17.28-.08.09-.18.16-.3.21s-.26.08-.43.07h-.33c-.16,0-.31-.01-.43-.07-.12-.05-.22-.12-.3-.21-.08-.09-.13-.18-.17-.28-.04-.1-.06-.18-.06-.26v-.1s0-.01,0-.06.02-.1.04-.16c.02-.06.05-.13.09-.2.04-.07.1-.14.17-.21.07-.06.17-.12.28-.15.11-.04.25-.05.41-.04h.24ZM134.96,20.44c.22,0,.37-.05.46-.16s.14-.22.15-.34v-.05s0-.08,0-.08v-.05c-.02-.11-.07-.22-.15-.33-.09-.11-.24-.16-.46-.16h-.46c-.22,0-.37.05-.46.16-.09.11-.14.22-.15.33v.05s0,.08,0,.08v.05c.02.12.07.23.16.34s.24.16.46.16h.46Z"/>
        <path class="cls-3" d="M138.27,19.73c.12,0,.22.05.31.12s.13.21.13.41c0,.11-.03.2-.08.27-.05.07-.12.12-.2.16-.08.03-.16.05-.24.05h-1.78v-.29s1.77,0,1.77,0c.06,0,.12-.01.17-.04.05-.03.08-.09.08-.19,0-.06-.02-.11-.05-.14-.04-.03-.08-.04-.12-.05-.05,0-.07,0-.09,0h-1.29c-.07,0-.14-.02-.22-.06-.08-.04-.14-.09-.2-.18-.06-.08-.08-.19-.08-.32,0-.11.03-.21.09-.28s.13-.13.21-.16c.08-.04.16-.05.23-.06h1.6v.29h-1.59c-.07,0-.13.01-.18.04-.06.03-.08.1-.08.21,0,.09.03.15.08.18.05.03.1.04.15.04h1.38Z"/>
      </g>
      <rect class="cls-1" x="150.75" y="18.1" width="4.16" height="1.32"/>
      <rect class="cls-17" x="150.75" y="19.42" width="4.16" height=".66"/>
      <rect class="cls-2" x="150.75" y="20.08" width="4.16" height=".66"/>
      <rect class="cls-15" x="145.66" y="18.1" width="1.39" height="2.63"/>
      <rect class="cls-15" x="148.43" y="18.1" width="1.39" height="2.63"/>
      <rect class="cls-4" x="147.04" y="18.1" width="1.39" height="2.63"/>
      <polyline class="cls-11" points="144.72 20.74 140.57 20.74 140.57 19.42 144.72 19.42"/>
      <rect class="cls-13" x="140.56" y="18.1" width="1.39" height="1.32"/>
      <rect class="cls-4" x="141.95" y="18.1" width="2.77" height="1.32"/>
      <polygon class="cls-4" points="140.92 18.66 141.18 18.66 141.26 18.43 141.34 18.66 141.58 18.66 141.38 18.8 141.46 19.03 141.26 18.89 141.05 19.03 141.13 18.8 140.92 18.66"/>
      <path class="cls-4" d="M14.84.27L.55,4.78l14.33,11.12,14.04-10.84L14.84.27ZM20.37,10.39l-3.12,2.39-2.66-1.71,2.04-1.67c.37-.33.47-.56.47-.56v-3.18c.03-.54-.73-.85-.73-.85-.94-.45-2.38-.43-2.38-.43-1.33-.02-3.8.92-3.8.92v2.95l-3.69-2.37c2.35-.95,3.42-1.2,3.42-1.2,2.33-.65,3.96-.69,3.96-.69,2.61-.14,4.69.58,4.69.58,2.08.57,2.94,1.3,2.94,1.3,1.72,1.29,1.33,2.61,1.33,2.61-.27.24-2.47,1.91-2.47,1.91"/>
      <polygon class="cls-10" points=".02 8.24 .02 4.69 14.92 16.03 29.45 4.96 29.45 8.22 14.87 21.46 .02 8.24"/>
      <path class="cls-10" d="M6.42,5.91l-2.39-1.48s3.15-1.23,5.77-1.73,3.58-.53,5.07-.47,4.37.63,6.26,1.55c1.89.93,2.29,1.89,2.4,2.42.12.53.09,1.75-.34,2.13l-.42.38s.31-.69-.13-1.56c-.44-.87-1.39-1.7-3.12-2.29-1.73-.59-3.27-.92-5.14-.89-1.87.03-3.56.44-4.87.82-1.3.38-3.09,1.11-3.09,1.11"/>
      <path class="cls-10" d="M10.2,5.37v2.94l4.29,2.83s.94-.73,1.6-1.28c.66-.54.94-.87,1.01-1.03v-3.24s.08.51-1.06,1.15c-1.13.64-1.49.85-1.49.85l-4.35-2.21Z"/>
      <path class="cls-10" d="M14.88,16.23L0,4.68,14.85,0h.04s14.57,4.97,14.57,4.97l-14.57,11.26ZM.55,4.78l14.34,11.12,14.04-10.84L14.84.27.55,4.78Z"/>
      <path class="cls-10" d="M17.27,13.09l-.08-.05L3.75,4.39l.24-.09s3.19-1.24,5.8-1.74c1.92-.37,3-.49,4.14-.49.27,0,.57,0,.95.02,1.62.06,4.5.68,6.31,1.57,1.43.7,2.26,1.54,2.47,2.51.12.56.1,1.82-.38,2.25l-.43.38-5.59,4.29ZM4.32,4.45l12.94,8.32,5.44-4.17.42-.38c.38-.34.41-1.51.3-2-.2-.89-.98-1.67-2.33-2.33-1.78-.87-4.61-1.48-6.2-1.54-.38-.01-.68-.02-.95-.02-.97,0-1.94.08-4.1.49-2.17.41-4.73,1.34-5.51,1.63"/>
      <path class="cls-10" d="M14.47,7.64l-4.29-2.19.04-.07-.03-.08c.1-.04,2.43-.93,3.82-.93h.03c1.46.01,2.38.36,2.77.69.36.3.41.63.16,1.02-.18.28-.7.67-1.43,1.05-.71.38-1.02.5-1.03.51h-.03ZM10.32,5.39l4.15,2.12c.09-.04.4-.18.99-.49.7-.37,1.21-.74,1.38-1,.21-.33.17-.6-.13-.85-.37-.31-1.27-.65-2.69-.66h-.03c-1.21,0-3.21.72-3.68.89"/>
      <path class="cls-10" d="M40.5,6.74c.14.02.36.08.68.19.31.11.68.32,1.09.63.41.31.77.78,1.08,1.4.31.62.46,1.41.46,2.36s-.18,1.67-.54,2.27c-.36.61-.79,1.06-1.29,1.35-.5.29-.97.47-1.42.53h-7.62V6.73h7.57ZM40.44,14.29c.23-.04.52-.14.84-.3.32-.16.63-.46.92-.9.29-.43.43-1.03.43-1.78,0-.88-.15-1.57-.45-2.07-.3-.5-.62-.84-.95-1.01-.33-.18-.61-.28-.84-.32h-6.28v6.38h6.33Z"/>
      <rect class="cls-10" x="44.63" y="6.75" width="1.19" height="8.7"/>
      <path class="cls-10" d="M52.3,9.12c.77-.01,1.46-.13,2.06-.34.61-.22,1.08-.43,1.4-.65.33-.22.55-.38.66-.49l.96-.91v8.75h-1.14v-6.32c-.5.3-1.08.55-1.75.76-.66.21-1.39.32-2.18.33-.83,0-1.61-.1-2.33-.32-.72-.22-1.36-.49-1.92-.82v6.36h-1.14V6.73l1,.86c.14.13.39.3.75.53.36.23.86.45,1.51.68.64.23,1.35.33,2.11.32"/>
      <rect class="cls-9" x="59.08" y="10.44" width="2.29" height="1.16"/>
      <g>
        <path class="cls-16" d="M72.92,6.66v1.19h-6.39c-.25,0-.53.08-.84.23s-.63.39-.93.71c-.22.23-.41.53-.57.9-.16.37-.25.83-.25,1.37,0,.36.06.72.17,1.06.11.35.28.67.49.97.19.27.44.53.75.78.31.26.7.39,1.17.4h6.39v1.19h-6.39c-.71,0-1.37-.2-1.97-.59-.6-.4-1.08-.93-1.43-1.61-.35-.67-.52-1.41-.52-2.21s.17-1.53.52-2.21c.35-.67.83-1.21,1.43-1.6.6-.4,1.26-.59,1.97-.59h6.39Z"/>
        <path class="cls-16" d="M81.03,10.95c.24.42.36.94.36,1.56,0-.1,0-.08,0,.06h0v.69c0,.58-.12,1.03-.33,1.34-.22.31-.48.53-.79.63s-.63.17-.98.17c-.34,0-.6.02-.76.02h-3.15c-.49,0-.91-.18-1.26-.54s-.52-.79-.52-1.3.17-.95.52-1.31c.35-.36.77-.55,1.26-.55h4.82c0-.07-.02-.14-.04-.2-.02-.07-.04-.11-.06-.13-.09-.18-.23-.35-.39-.5s-.36-.27-.56-.36c-.21-.08-.43-.12-.65-.12h-4.64v-.94c0-.08,0-.11,0-.08h4.64c.54,0,1.03.14,1.5.42.22.13.41.29.57.47.16.18.31.4.46.65ZM80.33,13.4c0-.09,0-.29-.01-.62h-5.06c-.18,0-.34.08-.47.24-.13.16-.19.36-.19.58s.06.42.19.58c.13.16.29.24.47.24h3.28c.37,0,.67,0,.89-.02.22-.01.39-.07.52-.16.14-.1.23-.22.29-.35.05-.14.08-.3.1-.49Z"/>
        <path class="cls-16" d="M88.56,10.46h-3.35c-.17,0-.36,0-.57,0s-.41.03-.59.08c-.18.05-.34.15-.48.28-.13.13-.23.29-.28.47-.06.18-.09.34-.09.47,0,.13,0,.37,0,.71v2.92c0,.05-.02.08-.07.08h-.83s-.07-.03-.07-.08v-3.01c0-.12,0-.34,0-.64,0-.3.06-.61.18-.92s.33-.58.63-.82c.19-.15.4-.26.62-.34.22-.08.44-.13.64-.16.2-.03.39-.04.56-.04h3.7v.99Z"/>
        <path class="cls-16" d="M96.07,9.88c.26.14.47.35.63.61s.25.57.25.92v3.18c-.02.51-.15.98-.36,1.42-.22.44-.52.79-.9,1.06-.38.27-.82.42-1.33.45h-4.83v-.94h4.7c.3,0,.6-.09.9-.27s.53-.45.68-.8l.03-.08h-3.58c-.58,0-1.09-.14-1.53-.42-.44-.28-.77-.64-1-1.07-.23-.43-.35-.87-.35-1.32v-.21c0-.42.12-.84.36-1.27s.57-.78,1-1.06.91-.42,1.45-.42h3.07c.27,0,.54.07.8.21ZM96.01,14.48v-3.18c0-.17-.06-.33-.18-.47-.12-.15-.28-.22-.47-.22h-2.98c-.5,0-.9.09-1.2.27-.3.18-.52.41-.64.68-.12.27-.19.56-.19.86v.23c0,.39.09.72.26,1,.17.28.4.48.67.62s.56.21.86.21h3.87Z"/>
        <path class="cls-16" d="M105.2,10.95c.24.42.36.94.36,1.56,0-.1,0-.08,0,.06h0v.69c0,.58-.12,1.03-.33,1.34-.22.31-.48.53-.79.63s-.63.17-.97.17c-.34,0-.6.02-.76.02h-3.15c-.49,0-.91-.18-1.26-.54-.35-.36-.52-.79-.52-1.3s.17-.95.52-1.31c.35-.36.77-.55,1.26-.55h4.82c0-.07-.02-.14-.04-.2s-.04-.11-.06-.13c-.09-.18-.22-.35-.39-.5-.17-.15-.36-.27-.56-.36-.21-.08-.43-.12-.65-.12h-4.64v-.94c0-.08,0-.11,0-.08h4.64c.54,0,1.03.14,1.5.42.22.13.41.29.57.47s.31.4.46.65ZM104.5,13.4c0-.09,0-.29-.01-.62h-5.06c-.18,0-.34.08-.47.24-.13.16-.19.36-.19.58s.06.42.19.58c.13.16.29.24.47.24h3.28c.37,0,.67,0,.89-.02s.39-.07.52-.16c.14-.1.23-.22.29-.35.05-.14.08-.3.09-.49Z"/>
        <path class="cls-16" d="M113.35,9.1c.77-.01,1.47-.13,2.08-.35.61-.22,1.08-.44,1.41-.66s.55-.38.66-.49l.97-.92v8.81h-1.15v-6.36c-.51.3-1.09.56-1.76.77-.66.21-1.4.32-2.2.33-.84,0-1.62-.1-2.34-.32-.72-.22-1.37-.5-1.93-.83v6.4h-1.15V6.69l1.01.87c.14.13.4.3.76.53.36.23.87.46,1.51.68.65.23,1.36.33,2.12.32Z"/>
        <path class="cls-16" d="M126.69,10.95c.24.42.36.94.36,1.56,0-.1,0-.08,0,.06h0v.69c0,.58-.12,1.03-.33,1.34-.22.31-.48.53-.79.63s-.63.17-.97.17c-.34,0-.6.02-.76.02h-3.15c-.49,0-.91-.18-1.26-.54-.35-.36-.52-.79-.52-1.3s.17-.95.52-1.31c.35-.36.77-.55,1.26-.55h4.82c0-.07-.02-.14-.04-.2s-.04-.11-.06-.13c-.09-.18-.22-.35-.39-.5-.17-.15-.36-.27-.56-.36-.21-.08-.42-.12-.65-.12h-4.64v-.94c0-.08,0-.11,0-.08h4.64c.54,0,1.03.14,1.5.42.22.13.41.29.57.47s.31.4.46.65ZM125.99,13.4c0-.09,0-.29-.01-.62h-5.06c-.18,0-.33.08-.47.24-.13.16-.19.36-.19.58s.06.42.19.58c.13.16.29.24.47.24h3.28c.37,0,.67,0,.89-.02s.39-.07.52-.16c.14-.1.23-.22.28-.35.05-.14.08-.3.1-.49Z"/>
        <path class="cls-16" d="M134.01,12.08c.4.02.74.15,1.04.39.3.24.45.7.45,1.38,0,.36-.09.67-.27.91-.18.24-.41.42-.68.54-.27.12-.54.18-.8.18h-6v-.98s5.97,0,5.97,0c.21,0,.4-.05.57-.14.17-.09.25-.31.25-.65,0-.21-.06-.37-.18-.46s-.26-.15-.41-.17c-.16-.02-.25-.02-.29-.02h-4.35c-.23,0-.48-.07-.74-.19-.26-.12-.48-.32-.67-.6-.19-.28-.28-.63-.28-1.07,0-.38.1-.7.3-.95.2-.25.43-.44.71-.55.27-.12.54-.18.79-.2h5.42v.98h-5.36c-.22,0-.43.05-.62.14-.19.1-.29.33-.29.71,0,.3.09.5.26.59.18.09.35.14.52.15h4.66Z"/>
        <path class="cls-16" d="M137.48,6.69v1.04h-1.04v-1.04h1.04ZM137.48,9.11v6.35h-1.04v-6.35h1.04Z"/>
        <path class="cls-16" d="M138.99,9.42l3.49,5.23h.12l3.49-5.23h1.18l-3.49,5.23c-.29.43-.47.71-.55.82h-1.37c-.16-.23-.34-.5-.55-.82l-3.49-5.23h1.17Z"/>
        <path class="cls-16" d="M154.62,10.95c.24.42.36.94.36,1.56,0-.1,0-.08,0,.06h0v.69c0,.58-.12,1.03-.33,1.34-.22.31-.48.53-.79.63s-.63.17-.97.17c-.34,0-.6.02-.76.02h-3.15c-.49,0-.91-.18-1.26-.54-.35-.36-.52-.79-.52-1.3s.17-.95.52-1.31c.35-.36.77-.55,1.26-.55h4.82c0-.07-.02-.14-.04-.2-.02-.07-.04-.11-.06-.13-.09-.18-.22-.35-.39-.5-.17-.15-.36-.27-.56-.36-.21-.08-.43-.12-.65-.12h-4.64v-.94c0-.08,0-.11,0-.08h4.64c.54,0,1.03.14,1.5.42.22.13.41.29.57.47s.31.4.46.65ZM153.92,13.4c0-.09,0-.29-.01-.62h-5.06c-.18,0-.34.08-.47.24-.13.16-.19.36-.19.58s.06.42.19.58c.13.16.29.24.47.24h3.28c.37,0,.67,0,.89-.02s.39-.07.52-.16c.14-.1.23-.22.29-.35.05-.14.08-.3.09-.49Z"/>
      </g>
    </g>
    <g>
      <g>
        <path class="cls-5" d="M136.31,151.25h-13.44c-.69,0-1.24.57-1.24,1.27v25.31c0,.7.56,1.27,1.24,1.27h18.52c.69,0,1.24-.57,1.24-1.27v-19.87l-6.32-6.71Z"/>
        <path class="cls-14" d="M135.83,152.49h-11.9c-.61,0-1.1.52-1.1,1.16v23.07c0,.64.49,1.16,1.1,1.16h16.4c.61,0,1.1-.52,1.1-1.16v-18.11l-5.6-6.12Z"/>
        <path class="cls-4" d="M134.16,159.17l-.06-5.65c0-.3-.24-.53-.53-.53h-9.65c-.29,0-.53.24-.53.54v23.31c0,.3.24.54.53.54h16.42c.29,0,.52-.24.52-.54v-16.6c0-.3-.23-.54-.52-.54h-5.66c-.29,0-.52-.24-.52-.53"/>
        <path class="cls-12" d="M138.64,163.25h-13.61c-.11,0-.21-.09-.21-.21v-.59c0-.11.09-.21.21-.21h13.61c.11,0,.21.09.21.21v.59c0,.12-.09.21-.21.21"/>
        <path class="cls-12" d="M138.64,167.6h-13.61c-.11,0-.21-.09-.21-.21v-.59c0-.11.09-.21.21-.21h13.61c.11,0,.21.09.21.21v.59c0,.12-.09.21-.21.21"/>
        <path class="cls-12" d="M132.74,158.47h-7.72c-.11,0-.21-.09-.21-.21v-.59c0-.11.09-.21.21-.21h7.72c.11,0,.21.09.21.21v.59c0,.12-.09.21-.21.21"/>
        <path class="cls-12" d="M138.68,172.32h-13.61c-.11,0-.21-.09-.21-.21v-.59c0-.11.09-.21.21-.21h13.61c.11,0,.21.09.21.21v.59c0,.12-.09.21-.21.21"/>
        <path class="cls-5" d="M122.9,145.44h-13.44c-.69,0-1.24.57-1.24,1.27v25.31c0,.7.56,1.27,1.24,1.27h18.52c.69,0,1.24-.57,1.24-1.27v-19.87l-6.32-6.71Z"/>
        <path class="cls-14" d="M122.42,146.68h-11.9c-.61,0-1.1.52-1.1,1.16v23.07c0,.64.49,1.16,1.1,1.16h16.4c.61,0,1.1-.52,1.1-1.16v-18.11l-5.6-6.12Z"/>
        <path class="cls-4" d="M120.75,153.36l-.06-5.65c0-.3-.24-.53-.53-.53h-9.65c-.29,0-.53.24-.53.54v23.31c0,.3.24.54.53.54h16.42c.29,0,.52-.24.52-.54v-16.6c0-.3-.23-.54-.52-.54h-5.66c-.29,0-.52-.24-.52-.53"/>
        <path class="cls-5" d="M130.2,157.81h-13.44c-.69,0-1.24.57-1.24,1.27v25.31c0,.7.56,1.27,1.24,1.27h18.52c.69,0,1.24-.57,1.24-1.27v-19.87l-6.32-6.71Z"/>
        <path class="cls-14" d="M129.72,159.05h-11.9c-.61,0-1.1.52-1.1,1.16v23.07c0,.64.49,1.16,1.1,1.16h16.4c.61,0,1.1-.52,1.1-1.16v-18.11l-5.6-6.12Z"/>
        <path class="cls-4" d="M128.05,165.73l-.06-5.65c0-.3-.24-.53-.53-.53h-9.65c-.29,0-.53.24-.53.54v23.31c0,.3.24.54.53.54h16.42c.29,0,.52-.24.52-.54v-16.6c0-.3-.24-.54-.52-.54h-5.66c-.29,0-.52-.24-.52-.53"/>
        <path class="cls-12" d="M132.53,170.52h-13.61c-.11,0-.21-.09-.21-.21v-.59c0-.11.09-.21.21-.21h13.61c.11,0,.21.09.21.21v.59c0,.12-.09.21-.21.21"/>
        <path class="cls-12" d="M132.53,175.46h-13.61c-.11,0-.21-.09-.21-.21v-.59c0-.11.09-.21.21-.21h13.61c.11,0,.21.09.21.21v.59c0,.12-.09.21-.21.21"/>
        <path class="cls-12" d="M126.64,165.03h-7.72c-.11,0-.21-.09-.21-.21v-.59c0-.11.09-.21.21-.21h7.72c.11,0,.21.09.21.21v.59c0,.12-.09.21-.21.21"/>
        <path class="cls-12" d="M132.58,180.58h-13.61c-.11,0-.21-.09-.21-.21v-.59c0-.11.09-.21.21-.21h13.61c.11,0,.21.09.21.21v.59c0,.12-.09.21-.21.21"/>
        <path class="cls-8" d="M154.94,179.96l-4.59-15.02c-.24-.78-1.26-1.04-1.84-.46l-11.17,11.05c-.73.72-.06,1.93.98,1.78l4.48-.67c-.11,9.69-3.59,13.5-6.12,15.15-.54.35-.64,1.27-.45,1.91l.11.36c.3.99,1.18,1.5,2.08,1.2l.82-.27c.18-.06.33-.19.5-.28,4.32-2.29,7.76-9.45,9.66-16.5l3.82,2.86c.84.63,2-.12,1.71-1.1"/>
      </g>
      <g>
        <path class="cls-7" d="M83.52,198.51h1.14v8.37h-1.14v-8.37Z"/>
        <path class="cls-7" d="M89.05,202.32c-.25.09-.46.21-.62.38s-.29.37-.38.63-.13.51-.13.76.04.5.13.76.21.46.38.63.37.29.62.38.5.13.75.13h4.61v.93h-4.61c-.51,0-.98-.13-1.41-.38-.43-.25-.77-.59-1.03-1.03-.25-.43-.38-.9-.38-1.41s.12-.98.38-1.41c.25-.43.6-.78,1.03-1.03.43-.25.9-.38,1.41-.38h4.61v.93h-4.61c-.25,0-.5.04-.75.13Z"/>
        <path class="cls-7" d="M100.54,201.25c.5-.02.94.02,1.32.14s.68.28.92.49.42.43.56.66.23.45.29.66.1.38.11.53.02.21.02.19v.33c0,.24-.06.52-.18.83s-.3.61-.55.89-.57.51-.97.69-.85.25-1.38.22h-1.05c-.52.03-.98-.05-1.38-.22s-.72-.4-.97-.69-.43-.58-.55-.89-.18-.59-.18-.83v-.33s0-.04.02-.19.05-.33.11-.53.16-.42.29-.66.32-.46.56-.66.55-.37.92-.49.81-.16,1.32-.14h.76ZM100.9,205.94c.7,0,1.19-.17,1.47-.51s.45-.7.49-1.09v-.16s.01-.26.01-.26v-.18c-.05-.37-.22-.72-.5-1.06s-.77-.51-1.48-.51h-1.49c-.7,0-1.2.17-1.48.51s-.44.7-.48,1.06l-.02.18v.25l.02.18c.04.39.2.75.49,1.09s.78.51,1.47.51h1.49Z"/>
        <path class="cls-7" d="M112.87,202.58c.25.44.38.92.38,1.44v2.87h-.94v-2.87c0-.26-.04-.52-.13-.77s-.21-.47-.38-.64c-.16-.17-.36-.3-.61-.39s-.49-.13-.74-.13h-1.78c-.48,0-1.1,0-1.86,0,0-.22,0-.01,0,.62s0,1.06,0,1.25v2.94h-.94v-5.74h4.58c.5,0,.97.13,1.4.38.43.26.77.61,1.03,1.05Z"/>
        <path class="cls-7" d="M119.39,201.25c.5-.02.94.02,1.32.14s.68.28.92.49.42.43.56.66.23.45.29.66.1.38.11.53.02.21.02.19v.33c0,.24-.06.52-.18.83s-.3.61-.55.89-.57.51-.97.69-.85.25-1.38.22h-1.05c-.52.03-.98-.05-1.38-.22s-.72-.4-.97-.69-.43-.58-.55-.89-.18-.59-.18-.83v-.33s0-.04.02-.19.05-.33.11-.53.16-.42.29-.66.32-.46.56-.66.55-.37.92-.49.81-.16,1.32-.14h.76ZM119.76,205.94c.7,0,1.19-.17,1.47-.51s.45-.7.49-1.09v-.16s.01-.26.01-.26v-.18c-.05-.37-.22-.72-.5-1.06s-.77-.51-1.48-.51h-1.49c-.7,0-1.2.17-1.48.51s-.44.7-.48,1.06l-.02.18v.25l.02.18c.04.39.2.75.49,1.09s.78.51,1.47.51h1.49Z"/>
        <path class="cls-7" d="M134.82,202.57c.23.4.35.9.35,1.49,0-.09,0-.07,0,.06h0v.66c0,.55-.11.98-.32,1.28s-.46.5-.76.61-.61.16-.93.17-.57.02-.73.02h-3.01c-.47,0-.87-.17-1.2-.52s-.5-.76-.5-1.24.17-.9.5-1.25c.33-.35.73-.52,1.2-.52h4.61c0-.07-.02-.13-.04-.19s-.04-.11-.05-.13c-.09-.18-.21-.34-.38-.48s-.34-.26-.54-.34c-.2-.08-.41-.12-.62-.12h-4.44v-.9c0-.08,0-.1,0-.08h4.44c.51,0,.99.13,1.43.4.21.12.39.27.55.45s.3.38.44.62ZM134.15,204.91c0-.08,0-.28-.01-.59h-4.83c-.17,0-.32.08-.45.23-.12.16-.18.34-.18.56s.06.4.18.56c.12.15.27.23.45.23h3.13c.36,0,.64,0,.85-.02s.38-.07.5-.16c.13-.09.22-.21.27-.34s.08-.29.09-.47Z"/>
        <path class="cls-7" d="M138.24,208.95h-.91c0,.05,0,0,0-.16v-5.33c0-.35.13-.69.4-1.02s.59-.6.98-.81.75-.31,1.08-.31h1.71c.53-.02.99.05,1.39.22s.72.39.97.67.44.57.56.88.18.58.18.82v.32s0,.04-.02.18-.05.32-.11.52-.16.42-.3.65-.33.45-.57.65-.55.36-.92.48-.82.16-1.32.14h-3.11v2.1ZM138.24,205.93h3.47c.57,0,1-.12,1.29-.35s.48-.47.57-.73.13-.46.13-.62v-.28c0-.19-.04-.42-.13-.68s-.28-.5-.57-.73-.72-.33-1.27-.33h-1.88c-.24,0-.49.07-.74.22s-.46.34-.62.56-.24.45-.24.66v2.26Z"/>
        <path class="cls-7" d="M147.65,208.95h-.91c0,.05,0,0,0-.16v-5.33c0-.35.13-.69.4-1.02s.59-.6.98-.81.75-.31,1.08-.31h1.71c.53-.02.99.05,1.39.22s.72.39.97.67.44.57.56.88.18.58.18.82v.32s0,.04-.02.18-.05.32-.11.52-.16.42-.3.65-.33.45-.57.65-.55.36-.92.48-.82.16-1.32.14h-3.11v2.1ZM147.65,205.93h3.47c.57,0,1-.12,1.29-.35s.48-.47.57-.73.13-.46.13-.62v-.28c0-.19-.04-.42-.13-.68s-.28-.5-.57-.73-.72-.33-1.27-.33h-1.88c-.24,0-.49.07-.74.22s-.46.34-.62.56-.24.45-.24.66v2.26Z"/>
      </g>
    </g>
    <g>
      <path class="cls-5" d="M141.42,57.5h-18.94c-.97,0-1.75.8-1.75,1.79v35.67c0,.99.78,1.79,1.75,1.79h26.1c.97,0,1.75-.8,1.75-1.79v-28l-8.91-9.46Z"/>
      <path class="cls-14" d="M140.75,59.24h-16.76c-.86,0-1.55.73-1.55,1.64v32.5c0,.9.69,1.64,1.55,1.64h23.1c.86,0,1.55-.73,1.55-1.64v-25.52l-7.89-8.62Z"/>
      <path class="cls-4" d="M138.39,68.66l-.09-7.96c0-.42-.34-.75-.74-.75h-13.59c-.41,0-.74.34-.74.76v32.85c0,.42.33.76.74.76h23.13c.41,0,.74-.34.74-.76v-23.39c0-.42-.33-.76-.74-.76h-7.97c-.41,0-.74-.33-.74-.75"/>
      <path class="cls-12" d="M144.29,74.41h-18.34c-.39,0-.71-.32-.71-.71s.32-.71.71-.71h18.34c.39,0,.71.32.71.71s-.32.71-.71.71"/>
      <path class="cls-12" d="M144.29,80.54h-18.34c-.39,0-.71-.32-.71-.71s.32-.71.71-.71h18.34c.39,0,.71.32.71.71s-.32.71-.71.71"/>
      <path class="cls-12" d="M135.99,67.67h-10.04c-.39,0-.71-.32-.71-.71s.32-.71.71-.71h10.04c.39,0,.71.32.71.71s-.32.71-.71.71"/>
      <path class="cls-12" d="M144.35,87.18h-18.34c-.39,0-.71-.32-.71-.71s.32-.71.71-.71h18.34c.39,0,.71.32.71.71s-.32.71-.71.71"/>
      <path class="cls-5" d="M120.38,51.3h-18.94c-.97,0-1.75.8-1.75,1.79v35.67c0,.99.78,1.79,1.75,1.79h26.1c.97,0,1.75-.8,1.75-1.79v-28l-8.91-9.46Z"/>
      <path class="cls-14" d="M119.7,53.04h-16.76c-.86,0-1.55.73-1.55,1.64v32.5c0,.9.69,1.64,1.55,1.64h23.1c.86,0,1.55-.73,1.55-1.64v-25.52l-7.89-8.62Z"/>
      <path class="cls-4" d="M117.35,62.46l-.09-7.96c0-.42-.33-.75-.74-.75h-13.59c-.41,0-.74.34-.74.76v32.85c0,.42.33.76.74.76h23.13c.41,0,.74-.34.74-.76v-23.39c0-.42-.33-.76-.74-.76h-7.97c-.4,0-.73-.33-.74-.75"/>
      <path class="cls-5" d="M126.19,67.24h-18.94c-.97,0-1.75.8-1.75,1.79v35.67c0,.99.78,1.79,1.75,1.79h26.1c.97,0,1.75-.8,1.75-1.79v-28l-8.91-9.46Z"/>
      <path class="cls-14" d="M125.51,68.98h-16.76c-.86,0-1.55.73-1.55,1.64v32.5c0,.9.69,1.64,1.55,1.64h23.1c.86,0,1.55-.73,1.55-1.64v-25.52l-7.89-8.62Z"/>
      <path class="cls-4" d="M123.15,78.4l-.09-7.96c0-.42-.33-.75-.74-.75h-13.59c-.41,0-.74.34-.74.76v32.85c0,.42.33.76.74.76h23.13c.41,0,.74-.34.74-.76v-23.39c0-.42-.33-.76-.74-.76h-7.97c-.41,0-.74-.33-.74-.75"/>
      <path class="cls-12" d="M129.05,84.15h-18.34c-.39,0-.71-.32-.71-.71s.32-.71.71-.71h18.34c.39,0,.71.32.71.71s-.32.71-.71.71"/>
      <path class="cls-12" d="M129.05,90.28h-18.34c-.39,0-.71-.32-.71-.71s.32-.71.71-.71h18.34c.39,0,.71.32.71.71s-.32.71-.71.71"/>
      <path class="cls-12" d="M120.75,77.41h-10.04c-.39,0-.71-.32-.71-.71s.32-.71.71-.71h10.04c.39,0,.71.32.71.71s-.32.71-.71.71"/>
      <path class="cls-12" d="M129.12,96.92h-18.34c-.39,0-.71-.32-.71-.71s.32-.71.71-.71h18.34c.39,0,.71.32.71.71s-.32.71-.71.71"/>
      <path class="cls-8" d="M133.18,102.98c-.84,0-1.59.49-2.05,1.24v-.53c0-1.3-.93-2.47-2.21-2.63-1.16-.15-2.17.49-2.62,1.45v-.46c0-1.36-1.02-2.57-2.38-2.66-1.16-.07-2.16.65-2.54,1.66v-9.85c0-1.38-1.25-2.83-2.97-2.83-1.94,0-3.16,1.09-3.16,2.54v18.93l-1.35-2.25c-.81-1.36-3.54-2.4-4.9-1.59l-.05.03c-1.36.81-1.3,2.19-.49,3.54l7.02,11.78.54,4.04c.11.84.83,1.47,1.69,1.47l3.51.15h10.83c.8,0,1.49-.55,1.66-1.33l1.95-8.7c.04-.2.07-.4.07-.6v-10.39c0-1.65-1.14-2.99-2.54-2.99"/>
      <path class="cls-6" d="M133.19,105.03c-.63,0-1.14.51-1.14,1.14v3.47l-2.34-.45v-5.23c0-.63-.51-1.14-1.14-1.14s-1.14.51-1.14,1.14v4.8l-2.64-.51v-5.77c0-.63-.51-1.14-1.14-1.14s-1.14.51-1.14,1.14v5.33l-2.64-.51v-15.5c0-.63-.54-1.78-1.65-1.78-1.04,0-1.61,1-1.61,1.63v15.08h-.02s0,6.95,0,6.95l-4.81-5.97c-.34-.53-1.04-.69-1.57-.35-.53.33-.69,1.04-.35,1.57l6.74,11.75.11.53.61,3.73h.14l2.42.15h12.52l1.39-6.8.54-2.09v-10.01c0-.63-.51-1.14-1.14-1.14"/>
      <path class="cls-12" d="M154.94,91.29l-3.38-14.05c-.21-.88-1.15-1.12-1.68-.43l-8.54,10.97c-.53.69-.27,1.79.48,1.98l2.21-.5c.21-.05.4.13.37.34l-2.86,20.26.98.25c1.99.52,4.04-.85,4.78-3.18l4.04-15.53c.06-.22.32-.3.49-.16l1.9,1.59c.75.19,1.41-.66,1.2-1.54"/>
    </g>
  </g>
</svg>