<?xml version="1.0" encoding="UTF-8"?>
<svg id="Capa_2" xmlns="http://www.w3.org/2000/svg" viewBox="0 0 130.91 212.99">
  <defs>
    <style>
      .cls-1 {
        fill: #f9cf16;
      }

      .cls-2 {
        fill: #cd142a;
      }

      .cls-3 {
        fill: #646365;
      }

      .cls-4 {
        fill: #fff;
      }

      .cls-5 {
        fill: #115a9f;
      }

      .cls-6 {
        fill: #625f60;
      }

      .cls-7 {
        fill: #505050;
      }

      .cls-8 {
        fill: #d00e4a;
      }

      .cls-9 {
        fill: #4780b4;
      }

      .cls-10 {
        fill: #d00e4d;
      }

      .cls-11 {
        fill: #bfd2e3;
      }

      .cls-12 {
        fill: #d00e4c;
      }

      .cls-13 {
        fill: #d22e1f;
      }

      .cls-14 {
        fill: #9d9a9c;
      }

      .cls-15 {
        fill: #5f5f5f;
      }

      .cls-16 {
        fill: #1d458c;
      }

      .cls-17 {
        fill: #48a98e;
      }

      .cls-18 {
        fill: #e1222c;
      }

      .cls-19 {
        fill: #828384;
      }

      .cls-20 {
        fill: #1b4180;
      }
    </style>
  </defs>
  <g id="Capa_1-2" data-name="Capa_1">
    <g>
      <g>
        <path class="cls-6" d="M60.42,202.53h1.14v8.37h-1.14v-8.37Z"/>
        <path class="cls-6" d="M65.95,206.34c-.25.09-.46.21-.62.38s-.29.37-.38.63-.13.51-.13.76.04.5.13.76.21.46.38.63.37.29.62.38.5.13.75.13h4.61v.93h-4.61c-.51,0-.98-.13-1.41-.38-.43-.25-.77-.59-1.03-1.03-.25-.43-.38-.9-.38-1.41s.12-.98.38-1.41c.25-.43.6-.78,1.03-1.03.43-.25.9-.38,1.41-.38h4.61v.93h-4.61c-.25,0-.5.04-.75.13Z"/>
        <path class="cls-6" d="M77.44,205.26c.5-.02.94.02,1.32.14s.68.28.92.49.42.43.56.66.23.45.29.66.1.38.11.53.02.21.02.19v.33c0,.24-.06.52-.18.83s-.3.61-.55.89-.57.51-.97.69-.85.25-1.38.22h-1.05c-.52.03-.98-.05-1.38-.22s-.72-.4-.97-.69-.43-.58-.55-.89-.18-.59-.18-.83v-.33s0-.04.02-.19.05-.33.11-.53.16-.42.29-.66.32-.46.56-.66.55-.37.92-.49.81-.16,1.32-.14h.76ZM77.8,209.96c.7,0,1.19-.17,1.47-.51s.45-.7.49-1.09v-.16s.01-.26.01-.26v-.18c-.05-.37-.22-.72-.5-1.06s-.77-.51-1.48-.51h-1.49c-.7,0-1.2.17-1.48.51s-.44.7-.48,1.06l-.02.18v.25l.02.18c.04.39.2.75.49,1.09s.78.51,1.47.51h1.49Z"/>
        <path class="cls-6" d="M89.77,206.6c.25.44.38.92.38,1.44v2.87h-.94v-2.87c0-.26-.04-.52-.13-.77s-.21-.47-.38-.64c-.16-.17-.36-.3-.61-.39s-.49-.13-.74-.13h-1.78c-.48,0-1.1,0-1.86,0,0-.22,0-.01,0,.62s0,1.06,0,1.25v2.94h-.94v-5.74h4.58c.5,0,.97.13,1.4.38.43.26.77.61,1.03,1.05Z"/>
        <path class="cls-6" d="M96.29,205.26c.5-.02.94.02,1.32.14s.68.28.92.49.42.43.56.66.23.45.29.66.1.38.11.53.02.21.02.19v.33c0,.24-.06.52-.18.83s-.3.61-.55.89-.57.51-.97.69-.85.25-1.38.22h-1.05c-.52.03-.98-.05-1.38-.22s-.72-.4-.97-.69-.43-.58-.55-.89-.18-.59-.18-.83v-.33s0-.04.02-.19.05-.33.11-.53.16-.42.29-.66.32-.46.56-.66.55-.37.92-.49.81-.16,1.32-.14h.76ZM96.66,209.96c.7,0,1.19-.17,1.47-.51s.45-.7.49-1.09v-.16s.01-.26.01-.26v-.18c-.05-.37-.22-.72-.5-1.06s-.77-.51-1.48-.51h-1.49c-.7,0-1.2.17-1.48.51s-.44.7-.48,1.06l-.02.18v.25l.02.18c.04.39.2.75.49,1.09s.78.51,1.47.51h1.49Z"/>
        <path class="cls-6" d="M111.72,206.59c.23.4.35.9.35,1.49,0-.09,0-.07,0,.06h0v.66c0,.55-.11.98-.32,1.28s-.46.5-.76.61-.61.16-.93.17-.57.02-.73.02h-3.01c-.47,0-.87-.17-1.2-.52s-.5-.76-.5-1.24.17-.9.5-1.25c.33-.35.73-.52,1.2-.52h4.61c0-.07-.02-.13-.04-.19s-.04-.11-.05-.13c-.09-.18-.21-.34-.38-.48s-.34-.26-.54-.34c-.2-.08-.41-.12-.62-.12h-4.44v-.9c0-.08,0-.1,0-.08h4.44c.51,0,.99.13,1.43.4.21.12.39.27.55.45s.3.38.44.62ZM111.05,208.93c0-.08,0-.28-.01-.59h-4.83c-.17,0-.32.08-.45.23-.12.16-.18.34-.18.56s.06.4.18.56c.12.15.27.23.45.23h3.13c.36,0,.64,0,.85-.02s.38-.07.5-.16c.13-.09.22-.21.27-.34s.08-.29.09-.47Z"/>
        <path class="cls-6" d="M115.14,212.97h-.91c0,.05,0,0,0-.16v-5.33c0-.35.13-.69.4-1.02s.59-.6.98-.81.75-.31,1.08-.31h1.71c.53-.02.99.05,1.39.22s.72.39.97.67.44.57.56.88.18.58.18.82v.32s0,.04-.02.18-.05.32-.11.52-.16.42-.3.65-.33.45-.57.65-.55.36-.92.48-.82.16-1.32.14h-3.11v2.1ZM115.14,209.95h3.47c.57,0,1-.12,1.29-.35s.48-.47.57-.73.13-.46.13-.62v-.28c0-.19-.04-.42-.13-.68s-.28-.5-.57-.73-.72-.33-1.27-.33h-1.88c-.24,0-.49.07-.74.22s-.46.34-.62.56-.24.45-.24.66v2.26Z"/>
        <path class="cls-6" d="M124.55,212.97h-.91c0,.05,0,0,0-.16v-5.33c0-.35.13-.69.4-1.02s.59-.6.98-.81.75-.31,1.08-.31h1.71c.53-.02.99.05,1.39.22s.72.39.97.67.44.57.56.88.18.58.18.82v.32s0,.04-.02.18-.05.32-.11.52-.16.42-.3.65-.33.45-.57.65-.55.36-.92.48-.82.16-1.32.14h-3.11v2.1ZM124.55,209.95h3.47c.57,0,1-.12,1.29-.35s.48-.47.57-.73.13-.46.13-.62v-.28c0-.19-.04-.42-.13-.68s-.28-.5-.57-.73-.72-.33-1.27-.33h-1.88c-.24,0-.49.07-.74.22s-.46.34-.62.56-.24.45-.24.66v2.26Z"/>
      </g>
      <g>
        <path class="cls-12" d="M40.5,26.18c.14.02.36.08.68.19.31.11.68.32,1.09.63.41.31.77.78,1.08,1.4.31.62.46,1.41.46,2.36s-.18,1.67-.54,2.27c-.36.6-.79,1.06-1.29,1.35-.5.29-.97.47-1.42.53h-7.62v-8.73h7.57ZM40.44,33.74c.23-.04.52-.14.84-.3.32-.16.63-.46.92-.9.29-.43.43-1.03.43-1.78,0-.88-.15-1.57-.45-2.07-.3-.5-.62-.84-.95-1.01-.33-.18-.61-.28-.84-.32h-6.28v6.38h6.33Z"/>
        <rect class="cls-12" x="44.63" y="26.19" width="1.19" height="8.7"/>
        <path class="cls-12" d="M52.29,28.57c.77-.01,1.46-.13,2.06-.34.61-.22,1.08-.43,1.4-.65.33-.22.55-.38.66-.49l.96-.91v8.75h-1.14v-6.32c-.5.3-1.08.55-1.75.76-.66.21-1.39.32-2.18.33-.83,0-1.61-.1-2.33-.32-.72-.22-1.36-.49-1.92-.82v6.36h-1.14v-8.75l1,.87c.14.13.39.3.75.53.36.23.86.45,1.51.68.64.23,1.35.33,2.11.32"/>
        <rect class="cls-10" x="59.08" y="29.88" width="2.29" height="1.16"/>
        <g>
          <path class="cls-19" d="M72.92,26.45v1.19h-6.39c-.25,0-.53.08-.84.23s-.63.39-.93.71c-.22.23-.41.53-.57.9-.16.37-.25.83-.25,1.37,0,.36.06.72.17,1.06s.28.67.49.97c.19.27.44.53.75.78.31.26.7.39,1.17.4h6.39v1.19h-6.39c-.71,0-1.37-.2-1.97-.59-.6-.4-1.08-.93-1.43-1.61-.35-.67-.52-1.41-.52-2.21s.17-1.53.52-2.21c.35-.67.83-1.21,1.43-1.6.6-.4,1.26-.59,1.97-.59h6.39Z"/>
          <path class="cls-19" d="M77.88,29.35c.53-.02.99.02,1.38.15.39.12.71.29.96.51.25.22.44.45.58.69.14.25.24.48.31.69.06.21.1.4.12.55.02.16.02.22.02.2v.35c0,.25-.06.54-.19.87-.12.33-.32.64-.58.93-.26.3-.6.54-1.01.72s-.89.26-1.44.23h-1.1c-.55.03-1.03-.05-1.44-.23-.41-.18-.75-.42-1.01-.72-.26-.3-.45-.61-.58-.93-.12-.32-.19-.61-.19-.87v-.35s0-.04.02-.2c.02-.16.06-.34.12-.55.06-.21.17-.44.31-.69s.34-.48.59-.69c.25-.22.57-.39.96-.51.39-.12.85-.17,1.38-.15h.8ZM78.26,34.26c.73,0,1.25-.18,1.54-.53s.47-.73.51-1.14v-.17s.01-.28.01-.28v-.18c-.06-.38-.23-.75-.52-1.11s-.81-.54-1.54-.54h-1.56c-.74,0-1.25.18-1.54.54-.29.36-.46.73-.5,1.11l-.02.18v.26l.02.18c.04.4.21.78.51,1.14.3.35.81.53,1.54.53h1.56Z"/>
          <path class="cls-19" d="M83.23,29.43h0,3.26c.54-.03,1,.02,1.39.14.39.12.71.29.97.5.25.21.45.44.59.68.14.24.24.47.31.68.06.21.11.4.12.55s.02.22.02.19v.34c0,.25-.06.54-.19.86-.13.32-.32.62-.59.92-.26.29-.6.53-1.02.71s-.9.25-1.46.23h-1.92c-.47,0-.85-.04-1.17-.12s-.56-.21-.75-.38c-.19-.17-.32-.4-.41-.67-.08-.28-.12-.61-.12-1v-5.67c0-.17,0-.23,0-.17h.96v2.21ZM83.23,32.76c0,.32.03.59.1.82.06.22.18.39.35.51.17.12.39.18.68.18h2.51c.58,0,1.03-.12,1.34-.35.31-.24.51-.49.6-.76.09-.27.14-.51.14-.71v-.29c0-.16-.04-.38-.13-.65-.09-.27-.29-.52-.59-.76s-.76-.36-1.35-.36h-3.64v2.37Z"/>
          <path class="cls-19" d="M97.02,30.24h-3.35c-.17,0-.36,0-.57,0s-.41.03-.58.08c-.18.05-.34.15-.48.28-.13.13-.23.29-.29.47-.06.18-.09.34-.09.47,0,.13,0,.37,0,.71v2.92c0,.05-.02.08-.07.08h-.83s-.07-.03-.07-.08v-3.01c0-.12,0-.34,0-.64,0-.3.06-.61.18-.92.12-.31.33-.58.63-.82.19-.15.4-.26.62-.34.22-.08.43-.13.64-.16.2-.03.39-.04.56-.04h3.7v.99Z"/>
          <path class="cls-19" d="M105.19,30.74c.24.42.36.94.36,1.56,0-.1,0-.08,0,.06h0v.69c0,.58-.12,1.03-.33,1.34-.22.31-.48.53-.79.63s-.63.17-.97.17c-.34,0-.6.02-.76.02h-3.14c-.49,0-.91-.18-1.26-.54s-.52-.79-.52-1.3.17-.95.52-1.31c.35-.36.77-.55,1.26-.55h4.83c0-.07-.02-.14-.04-.2s-.04-.11-.06-.13c-.09-.18-.22-.35-.39-.5-.17-.15-.36-.27-.56-.36-.21-.08-.43-.12-.65-.12h-4.64v-.94c0-.08,0-.11,0-.08h4.64c.54,0,1.03.14,1.5.42.22.13.41.29.57.47s.31.4.46.65ZM104.49,33.19c0-.09,0-.29-.01-.62h-5.06c-.18,0-.33.08-.47.24-.13.16-.19.36-.19.58s.06.42.19.58c.13.16.29.24.47.24h3.28c.37,0,.67,0,.89-.02s.39-.07.52-.16c.14-.1.23-.22.29-.35.05-.14.08-.3.09-.49Z"/>
          <path class="cls-19" d="M113.52,30.75c.26.46.39.96.39,1.51v3h-.99v-3c0-.27-.05-.54-.14-.81s-.22-.49-.4-.67c-.17-.18-.38-.31-.64-.41-.26-.09-.51-.14-.77-.14h-1.86c-.5,0-1.15,0-1.95,0,0-.23,0-.02,0,.65s0,1.1,0,1.31v3.07h-.99v-6.01h4.79c.52,0,1.01.13,1.47.4.45.27.81.64,1.07,1.1Z"/>
          <path class="cls-19" d="M117.32,33.76l-.76.51h5.64v.95h-7.35v-.95c.3-.23,2.21-1.53,5.72-3.9h-5.72v-.95h7.35v1.04s-.01.04-.04.05l-.2.13c-.45.31-2,1.34-4.65,3.12Z"/>
          <path class="cls-19" d="M130.54,30.74c.24.42.36.94.36,1.56,0-.1,0-.08,0,.06h0v.69c0,.58-.12,1.03-.33,1.34-.22.31-.48.53-.79.63-.31.11-.63.17-.98.17-.34,0-.6.02-.76.02h-3.15c-.49,0-.91-.18-1.26-.54s-.52-.79-.52-1.3.17-.95.52-1.31c.35-.36.77-.55,1.26-.55h4.83c0-.07-.02-.14-.04-.2s-.04-.11-.06-.13c-.09-.18-.22-.35-.39-.5-.17-.15-.36-.27-.56-.36-.21-.08-.42-.12-.65-.12h-4.64v-.94c0-.08,0-.11,0-.08h4.64c.54,0,1.03.14,1.5.42.22.13.41.29.57.47.16.18.31.4.46.65ZM129.84,33.19c0-.09,0-.29-.01-.62h-5.06c-.18,0-.34.08-.47.24-.13.16-.19.36-.19.58s.06.42.19.58c.13.16.29.24.47.24h3.28c.37,0,.67,0,.89-.02.22-.01.39-.07.52-.16.14-.1.23-.22.29-.35.05-.14.08-.3.09-.49Z"/>
        </g>
      </g>
      <g>
        <g>
          <path class="cls-3" d="M65.17,21.38h-.28s0,0,0-.05v-1.65c0-.11.04-.21.12-.32.08-.1.18-.19.3-.25.12-.07.23-.1.33-.1h.53c.16,0,.31.02.43.07.12.05.22.12.3.21.08.09.14.18.17.27.04.09.06.18.06.25v.1s0,.01,0,.06c0,.04-.02.1-.04.16-.02.06-.05.13-.09.2-.04.07-.1.14-.17.2-.08.06-.17.11-.29.15-.12.04-.25.05-.41.04h-.96v.65ZM65.17,20.44h1.08c.17,0,.31-.04.4-.11.09-.07.15-.15.17-.22.03-.08.04-.14.04-.19v-.09c0-.06-.01-.13-.04-.21-.03-.08-.09-.16-.18-.23s-.22-.1-.39-.1h-.58c-.08,0-.15.02-.23.07-.08.05-.14.1-.19.17s-.07.14-.07.2v.7Z"/>
          <path class="cls-3" d="M69.58,19.26h-.99s-.11,0-.17,0c-.06,0-.12,0-.17.02-.05.02-.1.04-.14.08-.04.04-.07.08-.08.14s-.03.1-.03.14c0,.04,0,.11,0,.21v.87s0,.02-.02.02h-.25s-.02,0-.02-.02v-.89s0-.1,0-.19c0-.09.02-.18.05-.27.04-.09.1-.17.19-.24.06-.04.12-.08.18-.1.07-.02.13-.04.19-.05s.12-.01.17-.01h1.1v.29Z"/>
          <path class="cls-3" d="M71.39,18.99c.16,0,.29,0,.41.04.12.04.21.09.28.15.07.06.13.13.17.21.04.07.07.14.09.2s.03.12.04.16,0,.07,0,.06v.1c0,.08-.02.16-.06.26-.04.1-.09.19-.17.28-.08.09-.18.16-.3.21s-.26.08-.43.07h-.33c-.16,0-.31-.01-.43-.07-.12-.05-.22-.12-.3-.21-.08-.09-.13-.18-.17-.28-.04-.1-.05-.18-.05-.26v-.1s0-.01,0-.06.02-.1.04-.16.05-.13.09-.2c.04-.07.1-.14.17-.21.07-.06.17-.12.28-.15.11-.04.25-.05.41-.04h.24ZM71.5,20.45c.22,0,.37-.05.46-.16s.14-.22.15-.34v-.05s0-.08,0-.08v-.05c-.02-.11-.07-.22-.15-.33-.09-.11-.24-.16-.46-.16h-.46c-.22,0-.37.05-.46.16-.09.11-.14.22-.15.33v.05s0,.08,0,.08v.05c.02.12.07.23.16.34.09.1.24.16.46.16h.46Z"/>
          <path class="cls-3" d="M74.96,18.35h.28s0,0,0,.05v1.68c0,.12-.01.22-.04.3-.02.08-.07.15-.12.2-.06.05-.13.09-.22.11-.09.02-.21.04-.35.04h-.57c-.16,0-.31-.01-.43-.07-.12-.05-.23-.12-.3-.21-.08-.09-.14-.18-.17-.27-.04-.1-.06-.18-.06-.26v-.1s0-.01,0-.06c0-.05.02-.1.04-.16.02-.06.05-.13.09-.2s.1-.14.17-.2c.08-.06.17-.11.29-.15.12-.04.25-.05.41-.04h.97v-.66ZM74.96,19.29h-1.08c-.18,0-.31.04-.4.11s-.15.15-.18.23c-.03.08-.04.14-.04.19v.08c0,.06.01.13.04.21.03.08.09.16.18.23.09.07.22.1.4.1h.75c.09,0,.15-.02.2-.06.05-.04.08-.09.1-.15.02-.07.03-.15.03-.24v-.71Z"/>
          <path class="cls-3" d="M77.44,20.4c.08-.03.14-.07.19-.12s.09-.12.12-.2c.03-.08.04-.16.04-.24v-.9h.29v.9c0,.16-.04.31-.12.45-.08.14-.19.25-.32.33-.13.08-.28.12-.44.12h-.56c-.16,0-.3-.04-.44-.12-.13-.08-.24-.19-.32-.33-.08-.14-.12-.29-.12-.45v-.9h.29s0,0,0,.02v.87c0,.08.01.16.04.24.03.08.07.15.12.2s.11.09.19.12c.08.03.15.04.23.04h.56c.08,0,.15-.01.23-.04Z"/>
          <path class="cls-3" d="M79.23,19.33c-.08.03-.14.07-.19.12s-.09.12-.12.19c-.03.08-.04.16-.04.23s.01.16.04.23c.03.08.07.14.12.19s.12.09.19.12.16.04.23.04h1.43v.29h-1.43c-.16,0-.3-.04-.44-.12-.13-.08-.24-.18-.32-.32-.08-.13-.12-.28-.12-.44s.04-.3.12-.44c.08-.13.18-.24.32-.32.13-.08.28-.12.44-.12h1.43v.29h-1.43c-.08,0-.16.01-.23.04Z"/>
          <path class="cls-3" d="M82.91,20.45v.29h-.54c-.15,0-.3-.04-.43-.11-.13-.08-.24-.18-.32-.31-.08-.13-.12-.27-.12-.43v-1.55h.29s0,0,0,.02v.64h.67s0,0,0,.02v.26s0,0-.03,0h-.65v.62c0,.13.03.23.1.32s.13.15.21.19c.04.02.09.04.16.05.07,0,.13,0,.18,0h.48Z"/>
          <path class="cls-3" d="M84.77,18.99c.16,0,.29,0,.41.04s.21.09.28.15c.07.06.13.13.17.21.04.07.07.14.09.2.02.06.03.12.04.16s0,.07,0,.06v.1c0,.08-.02.16-.06.26-.04.1-.09.19-.17.28-.08.09-.18.16-.3.21s-.26.08-.43.07h-.33c-.16,0-.3-.01-.43-.07-.12-.05-.22-.12-.3-.21-.08-.09-.13-.18-.17-.28-.04-.1-.06-.18-.06-.26v-.1s0-.01,0-.06.02-.1.04-.16.05-.13.09-.2c.04-.07.1-.14.17-.21.08-.06.17-.12.28-.15.12-.04.25-.05.41-.04h.24ZM84.89,20.45c.22,0,.37-.05.46-.16.09-.1.14-.22.15-.34v-.05s0-.08,0-.08v-.05c-.02-.11-.07-.22-.15-.33-.09-.11-.24-.16-.46-.16h-.46c-.22,0-.37.05-.46.16-.09.11-.14.22-.15.33v.05s0,.08,0,.08v.05c.02.12.07.23.16.34.09.1.24.16.46.16h.46Z"/>
          <path class="cls-3" d="M88.2,19.74c.12,0,.22.05.31.12.09.07.13.21.13.41,0,.11-.03.2-.08.27-.05.07-.12.12-.2.16-.08.03-.16.05-.24.05h-1.78v-.29s1.77,0,1.77,0c.06,0,.12-.01.17-.04.05-.03.08-.09.08-.19,0-.06-.02-.11-.05-.14-.04-.03-.08-.04-.12-.05s-.07,0-.08,0h-1.29c-.07,0-.14-.02-.22-.06-.08-.04-.14-.09-.2-.18-.06-.08-.08-.19-.08-.32,0-.11.03-.21.09-.28.06-.07.13-.13.21-.16.08-.04.16-.05.23-.06h1.61v.29h-1.59c-.07,0-.13.01-.18.04-.06.03-.08.1-.08.21,0,.09.03.15.08.18.05.03.1.04.15.04h1.38Z"/>
          <path class="cls-3" d="M92.29,18.98v1.52c-.01.17-.05.33-.13.45-.09.16-.2.27-.32.34-.12.07-.27.11-.45.11h-1.24s-.02,0-.02-.02v-.25s0-.02.02-.02h1.24c.06,0,.12,0,.17-.01.05,0,.09-.03.13-.05.05-.04.1-.07.13-.1s.06-.06.08-.11l.04-.09h-1.13c-.13,0-.25-.02-.36-.08-.11-.05-.19-.11-.26-.18-.07-.07-.12-.15-.18-.26-.05-.11-.08-.22-.08-.33v-.92s0-.02,0-.02h.3s0,0,0,.02v.94c0,.06.01.12.04.18s.04.11.07.13c.01.01.04.04.07.07.03.03.08.07.14.09.06.03.13.05.22.06h1.24s0-1.47,0-1.47c0-.02,0-.02.02-.02h.25s.02,0,.02.02Z"/>
          <path class="cls-3" d="M95.51,19.74c.12,0,.22.05.31.12.09.07.13.21.13.41,0,.11-.03.2-.08.27-.05.07-.12.12-.2.16-.08.03-.16.05-.24.05h-1.78v-.29s1.77,0,1.77,0c.06,0,.12-.01.17-.04.05-.03.08-.09.08-.19,0-.06-.02-.11-.05-.14-.04-.03-.08-.04-.12-.05s-.07,0-.08,0h-1.29c-.07,0-.14-.02-.22-.06-.08-.04-.14-.09-.2-.18-.06-.08-.08-.19-.08-.32,0-.11.03-.21.09-.28.06-.07.13-.13.21-.16.08-.04.16-.05.23-.06h1.61v.29h-1.59c-.07,0-.13.01-.18.04-.06.03-.08.1-.08.21,0,.09.03.15.08.18.05.03.1.04.15.04h1.38Z"/>
          <path class="cls-3" d="M98.5,19.09c.08.07.14.14.17.23.03.08.04.16.04.22,0,.31-.17.48-.52.49h-1.38s0,.07,0,.07c0,.08,0,.14.02.19s.04.08.07.1c.03.02.08.04.14.04.06,0,.14.01.24.01h1.29s.06.02.06.05v.17s-.02.06-.06.06h-1.33c-.19,0-.33-.02-.44-.06-.11-.04-.18-.11-.23-.2s-.07-.21-.07-.37v-.44c0-.1.04-.21.12-.31.08-.1.18-.19.3-.26.12-.07.25-.1.38-.1h.84c.15,0,.27.03.36.1ZM98.3,19.72s.05-.03.08-.06c.02-.02.03-.04.04-.07s.01-.06.01-.11c0-.02,0-.05-.02-.08-.01-.03-.03-.06-.07-.09-.03-.03-.08-.04-.13-.04h-.92c-.07,0-.14.02-.21.06s-.14.1-.19.17-.08.15-.08.23h1.37c.06,0,.1,0,.12-.01Z"/>
          <path class="cls-3" d="M101.22,19.26h-.99s-.11,0-.17,0c-.06,0-.12,0-.17.02-.05.02-.1.04-.14.08-.04.04-.07.08-.08.14-.02.05-.03.1-.03.14,0,.04,0,.11,0,.21v.87s0,.02-.02.02h-.25s-.02,0-.02-.02v-.89s0-.1,0-.19c0-.09.02-.18.05-.27.03-.09.1-.17.19-.24.06-.04.12-.08.18-.1.07-.02.13-.04.19-.05.06,0,.12-.01.17-.01h1.1v.29Z"/>
          <path class="cls-3" d="M101.92,18.95l1.03,1.55h.04l1.03-1.55h.35l-1.04,1.55c-.08.13-.14.21-.16.24h-.4c-.05-.07-.1-.15-.16-.24l-1.03-1.55h.35Z"/>
          <path class="cls-3" d="M105.06,18.14v.31h-.31v-.31h.31ZM105.06,18.86v1.88h-.31v-1.88h.31Z"/>
          <path class="cls-3" d="M106.3,19.33c-.08.03-.14.07-.19.12s-.09.12-.12.19c-.03.08-.04.16-.04.23s.01.16.04.23c.03.08.07.14.12.19s.12.09.19.12.16.04.23.04h1.43v.29h-1.43c-.16,0-.3-.04-.44-.12-.13-.08-.24-.18-.32-.32-.08-.13-.12-.28-.12-.44s.04-.3.12-.44c.08-.13.18-.24.32-.32.13-.08.28-.12.44-.12h1.43v.29h-1.43c-.08,0-.16.01-.23.04Z"/>
          <path class="cls-3" d="M108.89,18.14v.31h-.31v-.31h.31ZM108.89,18.86v1.88h-.31v-1.88h.31Z"/>
          <path class="cls-3" d="M110.77,18.99c.16,0,.29,0,.41.04s.21.09.28.15c.07.06.13.13.17.21.04.07.07.14.09.2.02.06.03.12.04.16s0,.07,0,.06v.1c0,.08-.02.16-.05.26-.04.1-.09.19-.17.28-.08.09-.18.16-.3.21s-.26.08-.43.07h-.33c-.16,0-.3-.01-.43-.07-.12-.05-.22-.12-.3-.21-.08-.09-.13-.18-.17-.28-.04-.1-.06-.18-.06-.26v-.1s0-.01,0-.06.02-.1.04-.16.05-.13.09-.2c.04-.07.1-.14.17-.21.08-.06.17-.12.28-.15.12-.04.25-.05.41-.04h.24ZM110.88,20.45c.22,0,.37-.05.46-.16.09-.1.14-.22.15-.34v-.05s0-.08,0-.08v-.05c-.02-.11-.07-.22-.15-.33-.09-.11-.24-.16-.46-.16h-.46c-.22,0-.37.05-.46.16-.09.11-.14.22-.15.33v.05s0,.08,0,.08v.05c.02.12.07.23.16.34.09.1.24.16.46.16h.46Z"/>
          <path class="cls-3" d="M114.19,19.74c.12,0,.22.05.31.12.09.07.13.21.13.41,0,.11-.03.2-.08.27-.05.07-.12.12-.2.16-.08.03-.16.05-.24.05h-1.78v-.29s1.77,0,1.77,0c.06,0,.12-.01.17-.04.05-.03.08-.09.08-.19,0-.06-.02-.11-.05-.14-.04-.03-.08-.04-.12-.05s-.07,0-.08,0h-1.29c-.07,0-.14-.02-.22-.06-.08-.04-.14-.09-.2-.18-.06-.08-.08-.19-.08-.32,0-.11.03-.21.09-.28.06-.07.13-.13.21-.16.08-.04.16-.05.23-.06h1.61v.29h-1.59c-.07,0-.13.01-.18.04-.06.03-.08.1-.08.21,0,.09.03.15.08.18.05.03.1.04.15.04h1.38Z"/>
        </g>
        <rect class="cls-1" x="126.66" y="18.11" width="4.16" height="1.32"/>
        <rect class="cls-20" x="126.66" y="19.43" width="4.16" height=".66"/>
        <rect class="cls-2" x="126.66" y="20.09" width="4.16" height=".66"/>
        <rect class="cls-18" x="121.57" y="18.11" width="1.39" height="2.63"/>
        <rect class="cls-18" x="124.35" y="18.11" width="1.39" height="2.63"/>
        <rect class="cls-4" x="122.96" y="18.11" width="1.39" height="2.63"/>
        <polyline class="cls-13" points="120.64 20.75 116.48 20.75 116.48 19.43 120.64 19.43"/>
        <rect class="cls-16" x="116.48" y="18.11" width="1.39" height="1.32"/>
        <rect class="cls-4" x="117.87" y="18.11" width="2.77" height="1.32"/>
        <polygon class="cls-4" points="116.84 18.67 117.1 18.67 117.18 18.44 117.25 18.67 117.5 18.67 117.3 18.81 117.38 19.04 117.17 18.9 116.97 19.04 117.05 18.81 116.84 18.67"/>
        <path class="cls-4" d="M14.84.27L.55,4.78l14.33,11.12,14.04-10.84L14.84.27ZM20.37,10.39l-3.12,2.39-2.66-1.71,2.04-1.67c.37-.33.47-.56.47-.56v-3.18c.03-.54-.73-.85-.73-.85-.94-.45-2.38-.43-2.38-.43-1.33-.02-3.8.92-3.8.92v2.95l-3.69-2.37c2.35-.95,3.42-1.2,3.42-1.2,2.33-.65,3.96-.69,3.96-.69,2.61-.14,4.68.58,4.68.58,2.08.57,2.94,1.3,2.94,1.3,1.72,1.29,1.33,2.61,1.33,2.61-.27.24-2.47,1.91-2.47,1.91"/>
        <polygon class="cls-12" points=".02 8.24 .02 4.69 14.92 16.03 29.45 4.96 29.45 8.22 14.87 21.46 .02 8.24"/>
        <path class="cls-12" d="M6.42,5.91l-2.39-1.48s3.15-1.23,5.77-1.73c2.62-.5,3.58-.53,5.07-.47,1.5.06,4.37.63,6.26,1.55,1.89.93,2.29,1.89,2.4,2.42.12.53.09,1.75-.34,2.13l-.42.38s.31-.69-.13-1.56c-.44-.87-1.39-1.7-3.12-2.29-1.73-.59-3.27-.92-5.14-.89-1.87.03-3.56.44-4.87.82-1.3.38-3.09,1.11-3.09,1.11"/>
        <path class="cls-12" d="M10.2,5.37v2.94l4.29,2.83s.94-.73,1.6-1.28c.66-.54.94-.87,1.01-1.03v-3.24s.08.51-1.06,1.15c-1.13.64-1.49.85-1.49.85l-4.35-2.21Z"/>
        <path class="cls-12" d="M14.88,16.23L0,4.68,14.85,0h.04s14.57,4.97,14.57,4.97l-14.57,11.26ZM.55,4.78l14.34,11.12,14.04-10.84L14.84.27.55,4.78Z"/>
        <path class="cls-12" d="M17.27,13.09l-.08-.05L3.75,4.39l.24-.09s3.19-1.24,5.8-1.74c1.92-.37,3-.49,4.14-.49.27,0,.57,0,.95.02,1.62.06,4.5.68,6.31,1.57,1.43.7,2.26,1.54,2.47,2.51.12.56.1,1.82-.38,2.25l-.43.38-5.59,4.29ZM4.32,4.45l12.94,8.32,5.44-4.17.42-.38c.38-.34.41-1.51.3-2-.2-.89-.98-1.67-2.33-2.33-1.78-.87-4.61-1.48-6.21-1.54-.38-.01-.68-.02-.94-.02-.97,0-1.94.08-4.1.49-2.17.41-4.73,1.34-5.51,1.63"/>
        <path class="cls-12" d="M14.47,7.64l-4.29-2.19.04-.07-.03-.08c.1-.04,2.43-.93,3.82-.93h.03c1.46.01,2.38.36,2.77.69.36.3.41.63.16,1.02-.18.28-.7.67-1.43,1.05-.71.38-1.02.5-1.03.51h-.03ZM10.32,5.39l4.15,2.12c.09-.04.4-.18.99-.49.7-.37,1.21-.74,1.38-1,.21-.33.17-.6-.13-.85-.37-.31-1.26-.65-2.69-.66h-.03c-1.21,0-3.21.72-3.68.89"/>
        <path class="cls-12" d="M40.5,6.74c.14.02.36.08.68.19.31.11.68.32,1.09.63.41.31.77.78,1.08,1.4.31.62.46,1.41.46,2.36s-.18,1.67-.54,2.27c-.36.61-.79,1.06-1.29,1.35-.5.29-.97.47-1.42.53h-7.62V6.73h7.57ZM40.44,14.29c.23-.04.52-.14.84-.3.32-.16.63-.46.92-.9.29-.43.43-1.03.43-1.78,0-.88-.15-1.57-.45-2.07-.3-.5-.62-.84-.95-1.01-.33-.18-.61-.28-.84-.32h-6.28v6.38h6.33Z"/>
        <rect class="cls-12" x="44.63" y="6.75" width="1.19" height="8.7"/>
        <path class="cls-12" d="M52.3,9.12c.77-.01,1.46-.13,2.06-.34.61-.22,1.08-.43,1.4-.65.33-.22.55-.38.66-.49l.96-.91v8.75h-1.14v-6.32c-.5.3-1.08.55-1.75.76-.66.21-1.39.32-2.18.33-.83,0-1.61-.1-2.33-.32-.72-.22-1.36-.49-1.92-.82v6.36h-1.14V6.73l1,.86c.14.13.39.3.75.53.36.23.86.45,1.51.68.64.23,1.35.33,2.11.32"/>
        <rect class="cls-10" x="59.08" y="10.44" width="2.29" height="1.16"/>
        <g>
          <path class="cls-19" d="M72.92,6.66v1.19h-6.39c-.25,0-.53.08-.84.23s-.63.39-.93.71c-.22.23-.41.53-.57.9-.16.37-.25.83-.25,1.37,0,.36.06.72.17,1.06s.28.67.49.97c.19.27.44.53.75.78.31.26.7.39,1.17.4h6.39v1.19h-6.39c-.71,0-1.37-.2-1.97-.59-.6-.4-1.08-.93-1.43-1.61-.35-.67-.52-1.41-.52-2.21s.17-1.53.52-2.21c.35-.67.83-1.21,1.43-1.6.6-.4,1.26-.59,1.97-.59h6.39Z"/>
          <path class="cls-19" d="M77.88,9.57c.53-.02.99.02,1.38.15.39.12.71.29.96.51.25.22.44.45.58.69.14.25.24.48.31.69.06.21.1.4.12.55.02.16.02.22.02.2v.35c0,.25-.06.54-.19.87-.12.33-.32.64-.58.93-.26.3-.6.54-1.01.72s-.89.26-1.44.23h-1.1c-.55.03-1.03-.05-1.44-.23-.41-.18-.75-.42-1.01-.72-.26-.3-.45-.61-.58-.93-.12-.32-.19-.61-.19-.87v-.35s0-.04.02-.2c.02-.16.06-.34.12-.55.06-.21.17-.44.31-.69s.34-.48.59-.69c.25-.22.57-.39.96-.51.39-.12.85-.17,1.38-.15h.8ZM78.26,14.48c.73,0,1.25-.18,1.54-.53s.47-.73.51-1.14v-.17s.01-.28.01-.28v-.18c-.06-.38-.23-.75-.52-1.11-.29-.36-.81-.54-1.54-.54h-1.56c-.74,0-1.25.18-1.54.54-.29.36-.46.73-.5,1.11l-.02.18v.26l.02.18c.04.4.21.78.51,1.14.3.35.81.53,1.54.53h1.56Z"/>
          <path class="cls-19" d="M83.23,9.64h0,3.26c.54-.03,1,.02,1.39.14.39.12.71.29.97.5.25.21.45.44.59.68.14.24.24.47.31.68.06.21.11.4.12.55s.02.22.02.19v.34c0,.25-.06.54-.19.86-.13.32-.32.62-.59.92-.26.29-.6.53-1.02.71s-.9.25-1.46.23h-1.92c-.47,0-.85-.04-1.17-.12s-.56-.21-.75-.38c-.19-.17-.32-.4-.41-.67-.08-.28-.12-.61-.12-1v-5.67c0-.17,0-.23,0-.17h.96v2.21ZM83.23,12.97c0,.32.03.59.1.82.06.22.18.39.35.51.17.12.39.18.68.18h2.51c.58,0,1.03-.12,1.34-.35.31-.24.51-.49.6-.76.09-.27.14-.51.14-.71v-.29c0-.16-.04-.38-.13-.65-.09-.27-.29-.52-.59-.76s-.76-.36-1.35-.36h-3.64v2.37Z"/>
          <path class="cls-19" d="M97.02,10.46h-3.35c-.17,0-.36,0-.57,0s-.41.03-.58.08c-.18.05-.34.15-.48.28-.13.13-.23.29-.29.47-.06.18-.09.34-.09.47,0,.13,0,.37,0,.71v2.92c0,.05-.02.08-.07.08h-.83s-.07-.03-.07-.08v-3.01c0-.12,0-.34,0-.64,0-.3.06-.61.18-.92.12-.31.33-.58.63-.82.19-.15.4-.26.62-.34.22-.08.43-.13.64-.16.2-.03.39-.04.56-.04h3.7v.99Z"/>
          <path class="cls-19" d="M105.19,10.95c.24.42.36.94.36,1.56,0-.1,0-.08,0,.06h0v.69c0,.58-.12,1.03-.33,1.34-.22.31-.48.53-.79.63s-.63.17-.97.17c-.34,0-.6.02-.76.02h-3.14c-.49,0-.91-.18-1.26-.54s-.52-.79-.52-1.3.17-.95.52-1.31c.35-.36.77-.55,1.26-.55h4.83c0-.07-.02-.14-.04-.2s-.04-.11-.06-.13c-.09-.18-.22-.35-.39-.5-.17-.15-.36-.27-.56-.36-.21-.08-.43-.12-.65-.12h-4.64v-.94c0-.08,0-.11,0-.08h4.64c.54,0,1.03.14,1.5.42.22.13.41.29.57.47s.31.4.46.65ZM104.49,13.4c0-.09,0-.29-.01-.62h-5.06c-.18,0-.33.08-.47.24-.13.16-.19.36-.19.58s.06.42.19.58c.13.16.29.24.47.24h3.28c.37,0,.67,0,.89-.02s.39-.07.52-.16c.14-.1.23-.22.29-.35.05-.14.08-.3.09-.49Z"/>
          <path class="cls-19" d="M113.52,10.97c.26.46.39.96.39,1.51v3h-.99v-3c0-.27-.05-.54-.14-.81s-.22-.49-.4-.67c-.17-.18-.38-.31-.64-.41-.26-.09-.51-.14-.77-.14h-1.86c-.5,0-1.15,0-1.95,0,0-.23,0-.02,0,.65s0,1.1,0,1.31v3.07h-.99v-6.01h4.79c.52,0,1.01.13,1.47.4.45.27.81.64,1.07,1.1Z"/>
          <path class="cls-19" d="M117.32,13.98l-.76.51h5.64v.95h-7.35v-.95c.3-.23,2.21-1.53,5.72-3.9h-5.72v-.95h7.35v1.04s-.01.04-.04.05l-.2.13c-.45.31-2,1.34-4.65,3.12Z"/>
          <path class="cls-19" d="M130.54,10.95c.24.42.36.94.36,1.56,0-.1,0-.08,0,.06h0v.69c0,.58-.12,1.03-.33,1.34-.22.31-.48.53-.79.63-.31.11-.63.17-.98.17-.34,0-.6.02-.76.02h-3.15c-.49,0-.91-.18-1.26-.54s-.52-.79-.52-1.3.17-.95.52-1.31c.35-.36.77-.55,1.26-.55h4.83c0-.07-.02-.14-.04-.2s-.04-.11-.06-.13c-.09-.18-.22-.35-.39-.5-.17-.15-.36-.27-.56-.36-.21-.08-.42-.12-.65-.12h-4.64v-.94c0-.08,0-.11,0-.08h4.64c.54,0,1.03.14,1.5.42.22.13.41.29.57.47.16.18.31.4.46.65ZM129.85,13.4c0-.09,0-.29-.01-.62h-5.06c-.18,0-.34.08-.47.24-.13.16-.19.36-.19.58s.06.42.19.58c.13.16.29.24.47.24h3.28c.37,0,.67,0,.89-.02s.39-.07.52-.16c.14-.1.23-.22.29-.35.05-.14.08-.3.09-.49Z"/>
        </g>
      </g>
      <g>
        <path class="cls-9" d="M87.87,76.24v-2.52c0-1.02-.85-1.85-1.9-1.85h-9.36c-1.05,0-1.9.83-1.9,1.85v2.52c0,1.02-.85,1.85-1.9,1.85h-8.91c-1.05,0-1.9.83-1.9,1.85v22.41c0,1.02.85,1.85,1.9,1.85h34.79c1.05,0,1.9-.83,1.9-1.85v-22.41c0-1.02-.85-1.85-1.9-1.85h-8.91c-1.05,0-1.9-.83-1.9-1.85"/>
        <polygon class="cls-11" points="97.05 90.11 81.32 96.85 65.53 90.11 65.53 82.09 97.05 82.09 97.05 90.11"/>
        <path class="cls-4" d="M83.91,77.62h-5.24c-1.16,0-2.11-.94-2.11-2.11s.94-2.11,2.11-2.11h5.24c1.16,0,2.11.94,2.11,2.11s-.94,2.11-2.11,2.11"/>
        <rect class="cls-14" x="97.17" y="68.07" width="33.74" height="42.5"/>
        <rect class="cls-4" x="97.19" y="69.67" width="32.08" height="40.86"/>
        <rect class="cls-14" x="94.29" y="70.98" width="33.74" height="42.5"/>
        <rect class="cls-4" x="96.09" y="72.58" width="30.31" height="39.46"/>
        <path class="cls-9" d="M122.19,98.3h-22.98c-.45,0-.81-.36-.81-.81s.36-.81.81-.81h22.98c.45,0,.81.36.81.81s-.36.81-.81.81"/>
        <path class="cls-9" d="M114.1,81.57h-14.72c-.45,0-.81-.36-.81-.81s.36-.81.81-.81h14.72c.45,0,.81.36.81.81s-.36.81-.81.81"/>
        <path class="cls-9" d="M114.14,86.42h-14.72c-.45,0-.81-.36-.81-.81s.36-.81.81-.81h14.72c.45,0,.81.36.81.81s-.36.81-.81.81"/>
        <path class="cls-9" d="M122.19,103.36h-22.98c-.45,0-.81-.36-.81-.81s.36-.81.81-.81h22.98c.45,0,.81.36.81.81s-.36.81-.81.81"/>
        <path class="cls-9" d="M114.22,108.32h-15.05c-.45,0-.81-.36-.81-.81s.36-.81.81-.81h15.05c.45,0,.81.36.81.81s-.36.81-.81.81"/>
        <path class="cls-9" d="M114.18,77.01h-9.2c-.45,0-.81-.36-.81-.81s.36-.81.81-.81h9.2c.45,0,.81.36.81.81s-.36.81-.81.81"/>
        <path class="cls-14" d="M110.72,92.99h-10.52c-.95,0-1.72-.77-1.72-1.72s.77-1.72,1.72-1.72h10.52c.95,0,1.72.77,1.72,1.72s-.77,1.72-1.72,1.72"/>
        <path class="cls-14" d="M120.93,92.99h-4.28c-.95,0-1.72-.77-1.72-1.72s.77-1.72,1.72-1.72h4.28c.95,0,1.72.77,1.72,1.72s-.77,1.72-1.72,1.72"/>
        <path class="cls-9" d="M125.56,79.65c0,2.63-2.13,4.76-4.76,4.76s-4.76-2.13-4.76-4.76,2.13-4.76,4.76-4.76,4.76,2.13,4.76,4.76"/>
        <path class="cls-4" d="M122.78,82.02c-.15.27-.37.5-.67.68s-.64.29-1.05.31v.76h-.51v-.76c-.57-.05-1.04-.24-1.4-.55-.36-.32-.54-.72-.55-1.22h.92c.02.26.12.5.3.69.17.2.42.32.73.37v-2.36c-.42-.11-.76-.22-1.02-.33-.26-.11-.48-.29-.66-.53-.18-.24-.27-.56-.27-.96,0-.51.18-.93.53-1.27s.83-.52,1.42-.56v-.78h.51v.78c.54.04.97.22,1.29.52.33.3.52.69.57,1.17h-.92c-.03-.22-.13-.42-.29-.6-.16-.18-.38-.3-.65-.36v2.31c.42.11.76.22,1.02.33.26.11.48.29.66.52.18.24.27.56.27.97,0,.3-.07.59-.23.87M119.75,78.78c.18.16.45.3.8.41v-2.18c-.33.03-.59.14-.78.32-.2.18-.29.43-.29.75s.09.55.27.71M121.86,81.95c.19-.21.29-.46.29-.75,0-.31-.09-.55-.28-.71-.19-.17-.46-.3-.8-.4v2.23c.34-.04.61-.16.8-.37"/>
        <path class="cls-5" d="M111.72,137.41s.03-.03.04-.05c.01-.02.03-.04.04-.06,2.08-2.91,2.8-5.94,2.53-8.73-.02-.19-.04-.37-.06-.56.81.62,1.58,1.28,2.32,1.96,2.88-3.57,4.63-12.32-.76-21.14,1.01.44,10.48,9.8,4.97,22.77,1.19.2,2.73.29,2.73.29,0,0-5.07,4.91-11.81,5.52"/>
        <path class="cls-9" d="M111.8,137.3c2.08-2.91,2.8-5.94,2.53-8.73-.02-.19-.04-.37-.06-.56.81.62,1.58,1.27,2.32,1.96,2.88-3.57,4.63-12.32-.76-21.14.04.02.07.03.11.05,2.59,3.56,12.13,18.34-4.17,28.47.01-.02.03-.04.04-.06"/>
        <path class="cls-5" d="M80.24,105.25s-.03.04-.04.05c-.02.02-.03.04-.05.06-2.24,2.95-3.06,6.04-2.86,8.87.01.19.03.38.05.57-.82-.63-1.61-1.3-2.35-1.99-3.08,3.63-5.14,12.52.22,21.48-1.04-.45-10.6-9.96-4.53-23.13-1.22-.2-2.82-.29-2.82-.29,0,0,5.39-4.99,12.38-5.61"/>
        <path class="cls-9" d="M80.16,105.37c-2.24,2.95-3.06,6.04-2.86,8.87.01.19.03.38.05.57-.82-.63-1.6-1.3-2.35-1.99-3.08,3.63-5.14,12.52.22,21.48-.04-.02-.08-.04-.11-.05-2.58-3.61-12.06-18.64,5.1-28.93-.02.02-.03.04-.05.06"/>
        <path class="cls-8" d="M115.25,118.86c0,10.38-8.41,18.79-18.79,18.79s-18.79-8.41-18.79-18.79,8.41-18.79,18.79-18.79,18.79,8.41,18.79,18.79"/>
        <path class="cls-4" d="M112.57,118.86c0,8.89-7.21,16.1-16.1,16.1s-16.1-7.21-16.1-16.1,7.21-16.1,16.1-16.1,16.1,7.21,16.1,16.1"/>
        <polygon class="cls-7" points="122.24 106.73 119.95 104.44 105.09 119.29 97.96 112.17 95.68 114.46 102.8 121.58 102.77 121.62 105.05 123.91 105.09 123.87 105.13 123.91 107.41 121.62 107.38 121.58 122.24 106.73"/>
        <path class="cls-17" d="M91.6,114.98v-6.11s.3-1.89-2.73-1.04c0,0-8.54,2.14-2.24,16.04,0,0,5.32,11.87,12.27,8.15,0,0,2.29-1.09,1.19-2.58l-4.22-4.17s-.99-.99-2.43.99c0,0-.45,2.04-3.48-4.52,0,0-2.83-6.06-.94-6.06,0,0,2.33.35,2.58-.7"/>
      </g>
      <g>
        <path class="cls-5" d="M107.89,160.49v-2.46c0-1-.83-1.81-1.86-1.81h-9.15c-1.03,0-1.86.81-1.86,1.81v2.46c0,1-.83,1.81-1.86,1.81h-8.72c-1.03,0-1.86.81-1.86,1.81v21.92c0,1,.83,1.81,1.86,1.81h34.03c1.03,0,1.86-.81,1.86-1.81v-21.92c0-1-.83-1.81-1.86-1.81h-8.72c-1.03,0-1.86-.81-1.86-1.81"/>
        <path class="cls-4" d="M104.02,161.84h-5.12c-1.14,0-2.06-.92-2.06-2.06s.92-2.06,2.06-2.06h5.12c1.14,0,2.06.92,2.06,2.06s-.92,2.06-2.06,2.06"/>
        <path class="cls-4" d="M110.9,177.12c0,7.1-5.75,12.85-12.85,12.85s-12.85-5.75-12.85-12.85,5.75-12.85,12.85-12.85,12.85,5.75,12.85,12.85"/>
        <path class="cls-15" d="M103.39,183.52c-.41.74-1.01,1.36-1.8,1.85s-1.74.77-2.85.84v2.07h-1.38v-2.07c-1.55-.14-2.81-.63-3.78-1.49-.97-.86-1.46-1.95-1.48-3.28h2.47c.07.72.34,1.34.8,1.86.47.53,1.13.86,1.98,1v-6.38c-1.14-.29-2.06-.59-2.76-.89-.7-.31-1.29-.78-1.79-1.43-.49-.65-.74-1.51-.74-2.6,0-1.38.48-2.52,1.44-3.42.96-.9,2.24-1.4,3.84-1.51v-2.12h1.38v2.12c1.44.12,2.61.58,3.5,1.39.88.81,1.39,1.86,1.53,3.15h-2.48c-.08-.6-.35-1.14-.79-1.62-.44-.49-1.03-.8-1.76-.96v6.23c1.12.29,2.04.58,2.74.88.71.3,1.3.77,1.79,1.42.49.65.73,1.52.73,2.63,0,.82-.2,1.59-.61,2.33M95.2,174.78c.49.44,1.22.81,2.17,1.1v-5.89c-.89.09-1.59.37-2.12.85-.53.48-.79,1.16-.79,2.03s.25,1.47.74,1.91M100.9,183.33c.52-.56.78-1.23.78-2.02,0-.83-.26-1.48-.77-1.93-.51-.45-1.23-.81-2.17-1.08v6.02c.92-.1,1.64-.43,2.16-1"/>
        <path class="cls-8" d="M126.77,179.24c0,6.15-4.99,11.13-11.13,11.13s-11.13-4.98-11.13-11.13,4.98-11.13,11.13-11.13,11.13,4.98,11.13,11.13"/>
        <path class="cls-4" d="M125.18,179.24c0,5.27-4.27,9.54-9.54,9.54s-9.54-4.27-9.54-9.54,4.27-9.54,9.54-9.54,9.54,4.27,9.54,9.54"/>
        <polygon class="cls-7" points="130.91 172.05 129.55 170.7 120.74 179.5 116.52 175.28 115.17 176.64 119.39 180.86 119.37 180.88 120.72 182.24 120.74 182.22 120.77 182.24 122.12 180.88 122.1 180.86 130.91 172.05"/>
        <path class="cls-17" d="M112.75,176.95v-3.62s.18-1.12-1.62-.62c0,0-5.06,1.27-1.32,9.51,0,0,3.15,7.04,7.27,4.83,0,0,1.35-.65.71-1.53l-2.5-2.47s-.59-.59-1.44.59c0,0-.26,1.21-2.06-2.68,0,0-1.68-3.59-.56-3.59,0,0,1.38.21,1.53-.41"/>
      </g>
    </g>
  </g>
</svg>