<?xml version="1.0" encoding="UTF-8"?>
<svg xmlns="http://www.w3.org/2000/svg" xmlns:xlink="http://www.w3.org/1999/xlink" viewBox="0 0 108.53 207.12">
  <defs>
    <style>
      .cls-1 {
        fill: #f9cf16;
      }

      .cls-2 {
        fill: #cd142a;
      }

      .cls-3 {
        fill: #e55317;
      }

      .cls-4 {
        fill: #87bfe0;
      }

      .cls-5 {
        fill: #b4b4b4;
      }

      .cls-6 {
        fill: #646365;
      }

      .cls-7 {
        fill: #d45a93;
      }

      .cls-8 {
        fill: #84bd7a;
      }

      .cls-9 {
        fill: #868486;
      }

      .cls-10 {
        fill: #fff;
      }

      .cls-11 {
        fill: #132c45;
      }

      .cls-12 {
        fill: #625f60;
      }

      .cls-13 {
        fill: #505050;
      }

      .cls-14 {
        fill: none;
      }

      .cls-15 {
        fill: #4780b4;
      }

      .cls-16 {
        clip-path: url(#clippath-1);
      }

      .cls-17 {
        fill: #d00e4d;
      }

      .cls-18 {
        isolation: isolate;
      }

      .cls-19 {
        fill: #649486;
      }

      .cls-20 {
        fill: #d00e4c;
      }

      .cls-21 {
        fill: #d22e1f;
      }

      .cls-22 {
        fill: #005e99;
      }

      .cls-23 {
        fill: #dcdcdc;
      }

      .cls-24 {
        fill: #d92d5f;
      }

      .cls-25 {
        fill: #9d9a9c;
      }

      .cls-26 {
        fill: #d20f48;
      }

      .cls-27 {
        fill: #333233;
      }

      .cls-28 {
        fill: #1d458c;
      }

      .cls-29 {
        clip-path: url(#clippath-2);
      }

      .cls-30 {
        fill: #e1222c;
      }

      .cls-31 {
        mix-blend-mode: screen;
        opacity: .1;
      }

      .cls-32 {
        clip-path: url(#clippath);
      }

      .cls-33 {
        fill: #828384;
      }

      .cls-34 {
        fill: #1b4180;
      }
    </style>
    <clipPath id="clippath">
      <rect class="cls-14" x="24.35" y="73.45" width="22.64" height="22.63"/>
    </clipPath>
    <clipPath id="clippath-1">
      <rect class="cls-14" x="61.03" y="87.29" width="24.95" height="24.95"/>
    </clipPath>
    <clipPath id="clippath-2">
      <rect class="cls-14" x="22.09" y="92.83" width="22.57" height="22.58"/>
    </clipPath>
  </defs>
  <g class="cls-18">
    <g id="Capa_2">
      <g id="Capa_1-2" data-name="Capa_1">
        <g>
          <g>
            <path class="cls-12" d="M38.05,196.66h1.14v8.37h-1.14v-8.37Z"/>
            <path class="cls-12" d="M43.58,200.47c-.25.09-.46.21-.62.38s-.29.37-.38.63-.13.51-.13.76.04.5.13.76.21.46.38.63.37.29.62.38.5.13.75.13h4.61v.93h-4.61c-.51,0-.98-.13-1.41-.38-.43-.25-.77-.59-1.03-1.03-.25-.43-.38-.9-.38-1.41s.12-.98.38-1.41c.25-.43.6-.78,1.03-1.03.43-.25.9-.38,1.41-.38h4.61v.93h-4.61c-.25,0-.5.04-.75.13Z"/>
            <path class="cls-12" d="M55.07,199.4c.5-.02.94.02,1.32.14s.68.28.92.49.42.43.56.66.23.45.29.66.1.38.11.53.02.21.02.19v.33c0,.24-.06.52-.18.83s-.3.61-.55.89-.57.51-.97.69-.85.25-1.38.22h-1.05c-.52.03-.98-.05-1.38-.22s-.72-.4-.97-.69-.43-.58-.55-.89-.18-.59-.18-.83v-.33s0-.04.02-.19.05-.33.11-.53.16-.42.29-.66.32-.46.56-.66.55-.37.92-.49.81-.16,1.32-.14h.76ZM55.43,204.09c.7,0,1.19-.17,1.47-.51s.45-.7.49-1.09v-.16s.01-.26.01-.26v-.18c-.05-.37-.22-.72-.5-1.06s-.77-.51-1.48-.51h-1.49c-.7,0-1.2.17-1.48.51s-.44.7-.48,1.06l-.02.18v.25l.02.18c.04.39.2.75.49,1.09s.78.51,1.47.51h1.49Z"/>
            <path class="cls-12" d="M67.39,200.73c.25.44.38.92.38,1.44v2.87h-.94v-2.87c0-.26-.04-.52-.13-.77s-.21-.47-.38-.64c-.16-.17-.36-.3-.61-.39s-.49-.13-.74-.13h-1.78c-.48,0-1.1,0-1.86,0,0-.22,0-.01,0,.62s0,1.06,0,1.25v2.94h-.94v-5.74h4.58c.5,0,.97.13,1.4.38.43.26.77.61,1.03,1.05Z"/>
            <path class="cls-12" d="M73.92,199.4c.5-.02.94.02,1.32.14s.68.28.92.49.42.43.56.66.23.45.29.66.1.38.11.53.02.21.02.19v.33c0,.24-.06.52-.18.83s-.3.61-.55.89-.57.51-.97.69-.85.25-1.38.22h-1.05c-.52.03-.98-.05-1.38-.22s-.72-.4-.97-.69-.43-.58-.55-.89-.18-.59-.18-.83v-.33s0-.04.02-.19.05-.33.11-.53.16-.42.29-.66.32-.46.56-.66.55-.37.92-.49.81-.16,1.32-.14h.76ZM74.29,204.09c.7,0,1.19-.17,1.47-.51s.45-.7.49-1.09v-.16s.01-.26.01-.26v-.18c-.05-.37-.22-.72-.5-1.06s-.77-.51-1.48-.51h-1.49c-.7,0-1.2.17-1.48.51s-.44.7-.48,1.06l-.02.18v.25l.02.18c.04.39.2.75.49,1.09s.78.51,1.47.51h1.49Z"/>
            <path class="cls-12" d="M89.34,200.72c.23.4.35.9.35,1.49,0-.09,0-.07,0,.06h0v.66c0,.55-.11.98-.32,1.28s-.46.5-.76.61-.61.16-.93.17-.57.02-.73.02h-3.01c-.47,0-.87-.17-1.2-.52s-.5-.76-.5-1.24.17-.9.5-1.25c.33-.35.73-.52,1.2-.52h4.61c0-.07-.02-.13-.04-.19s-.04-.11-.05-.13c-.09-.18-.21-.34-.38-.48s-.34-.26-.54-.34c-.2-.08-.41-.12-.62-.12h-4.44v-.9c0-.08,0-.1,0-.08h4.44c.51,0,.99.13,1.43.4.21.12.39.27.55.45s.3.38.44.62ZM88.68,203.06c0-.08,0-.28-.01-.59h-4.83c-.17,0-.32.08-.45.23-.12.16-.18.34-.18.56s.06.4.18.56c.12.15.27.23.45.23h3.13c.36,0,.64,0,.85-.02s.38-.07.5-.16c.13-.09.22-.21.27-.34s.08-.29.09-.47Z"/>
            <path class="cls-12" d="M92.77,207.1h-.91c0,.05,0,0,0-.16v-5.33c0-.35.13-.69.4-1.02s.59-.6.98-.81.75-.31,1.08-.31h1.71c.53-.02.99.05,1.39.22s.72.39.97.67.44.57.56.88.18.58.18.82v.32s0,.04-.02.18-.05.32-.11.52-.16.42-.3.65-.33.45-.57.65-.55.36-.92.48-.82.16-1.32.14h-3.11v2.1ZM92.77,204.08h3.47c.57,0,1-.12,1.29-.35s.48-.47.57-.73.13-.46.13-.62v-.28c0-.19-.04-.42-.13-.68s-.28-.5-.57-.73-.72-.33-1.27-.33h-1.88c-.24,0-.49.07-.74.22s-.46.34-.62.56-.24.45-.24.66v2.26Z"/>
            <path class="cls-12" d="M102.18,207.1h-.91c0,.05,0,0,0-.16v-5.33c0-.35.13-.69.4-1.02s.59-.6.98-.81.75-.31,1.08-.31h1.71c.53-.02.99.05,1.39.22s.72.39.97.67.44.57.56.88.18.58.18.82v.32s0,.04-.02.18-.05.32-.11.52-.16.42-.3.65-.33.45-.57.65-.55.36-.92.48-.82.16-1.32.14h-3.11v2.1ZM102.18,204.08h3.47c.57,0,1-.12,1.29-.35s.48-.47.57-.73.13-.46.13-.62v-.28c0-.19-.04-.42-.13-.68s-.28-.5-.57-.73-.72-.33-1.27-.33h-1.88c-.24,0-.49.07-.74.22s-.46.34-.62.56-.24.45-.24.66v2.26Z"/>
          </g>
          <g>
            <path class="cls-20" d="M54.52,28.84c.14.02.36.08.68.19.31.11.68.32,1.09.63.41.31.77.78,1.08,1.4.31.62.46,1.41.46,2.36s-.18,1.67-.54,2.27c-.36.6-.79,1.06-1.29,1.35-.5.29-.97.47-1.42.53h-7.62v-8.73h7.57ZM54.46,36.39c.23-.04.52-.14.84-.3.32-.16.63-.46.92-.9.29-.43.43-1.03.43-1.78,0-.88-.15-1.57-.45-2.07-.3-.5-.62-.84-.95-1.01-.33-.18-.61-.28-.84-.32h-6.28v6.38h6.33Z"/>
            <rect class="cls-20" x="58.65" y="28.85" width="1.19" height="8.7"/>
            <path class="cls-20" d="M66.32,31.22c.77-.01,1.46-.13,2.06-.34.61-.22,1.08-.43,1.4-.65.33-.22.55-.38.66-.49l.96-.91v8.75h-1.14v-6.32c-.5.3-1.08.55-1.75.76-.66.21-1.39.32-2.18.33-.83,0-1.61-.1-2.33-.32-.72-.22-1.36-.49-1.92-.82v6.36h-1.14v-8.75l1,.87c.14.13.39.3.75.53.36.23.86.45,1.51.68.64.23,1.35.33,2.11.32"/>
            <rect class="cls-17" x="73.1" y="32.54" width="2.29" height="1.16"/>
            <g>
              <path class="cls-33" d="M86.95,28.76v1.19h-6.39c-.25,0-.53.08-.84.23s-.63.39-.93.71c-.22.23-.41.53-.57.9-.16.37-.25.83-.25,1.37,0,.36.06.72.17,1.06s.28.67.49.97c.19.27.44.53.75.78.31.26.7.39,1.17.4h6.39v1.19h-6.39c-.71,0-1.37-.2-1.97-.59-.6-.4-1.08-.93-1.43-1.61-.35-.67-.52-1.41-.52-2.21s.17-1.53.52-2.21c.35-.67.83-1.21,1.43-1.6.6-.4,1.26-.59,1.97-.59h6.39Z"/>
              <path class="cls-33" d="M88.31,28.8h8.79v1.2h-7.59v2.4h7.59v1.2h-7.59v2.8h7.59v1.2h-8.79v-8.79Z"/>
              <path class="cls-33" d="M98.53,28.78h10v1.2h-8.8v2.4h6.66v1.2h-6.66v4h-1.2v-8.8Z"/>
            </g>
          </g>
          <g>
            <g>
              <path class="cls-6" d="M42.88,21.38h-.28s0,0,0-.05v-1.65c0-.11.04-.21.12-.32s.18-.19.3-.25c.12-.07.23-.1.33-.1h.53c.16,0,.31.02.43.07.12.05.22.12.3.21.08.09.13.18.17.27.04.09.06.18.06.25v.1s0,.01,0,.06c0,.04-.02.1-.04.16-.02.06-.05.13-.09.2-.04.07-.1.14-.17.2-.08.06-.17.11-.29.15-.12.04-.25.05-.41.04h-.96v.65ZM42.88,20.45h1.08c.17,0,.31-.04.4-.11.09-.07.15-.15.17-.22s.04-.14.04-.19v-.09c0-.06-.01-.13-.04-.21-.03-.08-.09-.16-.18-.23s-.22-.1-.39-.1h-.58c-.08,0-.15.02-.23.07-.08.05-.14.1-.19.17s-.07.14-.07.2v.7Z"/>
              <path class="cls-6" d="M47.29,19.26h-.99s-.11,0-.17,0c-.06,0-.12,0-.17.02-.05.02-.1.04-.14.08-.04.04-.07.08-.08.14s-.03.1-.03.14c0,.04,0,.11,0,.21v.87s0,.02-.02.02h-.25s-.02,0-.02-.02v-.89s0-.1,0-.19c0-.09.02-.18.05-.27.04-.09.1-.17.19-.24.06-.04.12-.08.18-.1.07-.02.13-.04.19-.05s.12-.01.17-.01h1.1v.29Z"/>
              <path class="cls-6" d="M49.1,19c.16,0,.29,0,.41.04.12.04.21.09.28.15.07.06.13.13.17.21.04.07.07.14.09.2.02.06.03.12.04.16s0,.07,0,.06v.1c0,.08-.02.16-.05.26-.04.1-.09.19-.17.28-.08.09-.18.16-.3.21s-.26.08-.43.07h-.33c-.16,0-.31-.01-.43-.07-.12-.05-.22-.12-.3-.21-.08-.09-.13-.18-.17-.28-.04-.1-.06-.18-.06-.26v-.1s0-.01,0-.06.02-.1.04-.16.05-.13.09-.2c.04-.07.1-.14.17-.21.07-.06.17-.12.28-.15.11-.04.25-.05.41-.04h.24ZM49.21,20.45c.22,0,.37-.05.46-.16s.14-.22.15-.34v-.05s0-.08,0-.08v-.05c-.02-.11-.07-.22-.15-.33-.09-.11-.24-.16-.46-.16h-.46c-.22,0-.37.05-.46.16-.09.11-.14.22-.15.33v.05s0,.08,0,.08v.05c.02.12.07.23.16.34.09.1.24.16.46.16h.46Z"/>
              <path class="cls-6" d="M52.67,18.35h.28s0,0,0,.05v1.68c0,.12-.01.22-.04.3s-.07.15-.12.2c-.06.05-.13.09-.22.11-.09.02-.21.04-.35.04h-.57c-.16,0-.31-.01-.43-.07-.12-.05-.23-.12-.3-.21-.08-.09-.14-.18-.17-.27-.04-.1-.06-.18-.06-.26v-.1s0-.01,0-.06c0-.05.02-.1.04-.16.02-.06.05-.13.09-.2.04-.07.1-.14.17-.2.08-.06.17-.11.29-.15.12-.04.25-.05.41-.04h.97v-.66ZM52.67,19.29h-1.08c-.18,0-.31.04-.4.11s-.15.15-.18.23c-.03.08-.04.14-.04.19v.08c0,.06.01.13.04.21.03.08.09.16.18.23.09.07.22.1.4.1h.75c.09,0,.15-.02.2-.06.05-.04.08-.09.1-.15.02-.07.03-.15.03-.24v-.71Z"/>
              <path class="cls-6" d="M55.15,20.41c.08-.03.14-.07.19-.12s.09-.12.12-.2c.03-.08.04-.16.04-.24v-.9h.29v.9c0,.16-.04.31-.12.45-.08.14-.19.25-.32.33-.13.08-.28.12-.44.12h-.56c-.16,0-.3-.04-.44-.12-.13-.08-.24-.19-.32-.33-.08-.14-.12-.29-.12-.45v-.9h.29s0,0,0,.02v.87c0,.08.01.16.04.24.03.08.07.15.12.2s.11.09.19.12c.08.03.15.04.23.04h.56c.08,0,.15-.01.23-.04Z"/>
              <path class="cls-6" d="M56.94,19.33c-.08.03-.14.07-.19.12s-.09.12-.12.19c-.03.08-.04.16-.04.23s.01.16.04.23c.03.08.07.14.12.19s.12.09.19.12.16.04.23.04h1.43v.29h-1.43c-.16,0-.3-.04-.44-.12-.13-.08-.24-.18-.32-.32-.08-.13-.12-.28-.12-.44s.04-.3.12-.44c.08-.13.18-.24.32-.32.13-.08.28-.12.44-.12h1.43v.29h-1.43c-.08,0-.16.01-.23.04Z"/>
              <path class="cls-6" d="M60.62,20.45v.29h-.54c-.15,0-.3-.04-.43-.11-.13-.08-.24-.18-.32-.31-.08-.13-.12-.27-.12-.43v-1.55h.29s0,0,0,.02v.64h.67s0,0,0,.02v.26s0,0-.03,0h-.65v.62c0,.13.03.23.1.32s.13.15.21.19c.04.02.09.04.16.05.07,0,.13,0,.18,0h.48Z"/>
              <path class="cls-6" d="M62.48,19c.16,0,.29,0,.41.04.12.04.21.09.28.15.07.06.13.13.17.21.04.07.07.14.09.2.02.06.03.12.04.16s0,.07,0,.06v.1c0,.08-.02.16-.06.26-.04.1-.09.19-.17.28-.08.09-.18.16-.3.21s-.26.08-.43.07h-.33c-.16,0-.3-.01-.43-.07s-.22-.12-.3-.21c-.08-.09-.13-.18-.17-.28-.04-.1-.06-.18-.06-.26v-.1s0-.01,0-.06c0-.05.02-.1.04-.16s.05-.13.09-.2c.04-.07.1-.14.17-.21.08-.06.17-.12.28-.15s.25-.05.41-.04h.24ZM62.6,20.45c.22,0,.37-.05.46-.16s.14-.22.15-.34v-.05s0-.08,0-.08v-.05c-.02-.11-.07-.22-.15-.33-.09-.11-.24-.16-.46-.16h-.46c-.22,0-.37.05-.46.16-.09.11-.14.22-.15.33v.05s0,.08,0,.08v.05c.02.12.07.23.16.34.09.1.24.16.46.16h.46Z"/>
              <path class="cls-6" d="M65.91,19.74c.12,0,.22.05.31.12.09.07.13.21.13.41,0,.11-.03.2-.08.27-.05.07-.12.12-.2.16-.08.03-.16.05-.24.05h-1.78v-.29s1.77,0,1.77,0c.06,0,.12-.01.17-.04.05-.03.08-.09.08-.19,0-.06-.02-.11-.05-.14-.04-.03-.08-.04-.12-.05s-.07,0-.08,0h-1.29c-.07,0-.14-.02-.22-.06-.08-.04-.14-.09-.2-.18-.06-.08-.08-.19-.08-.32,0-.11.03-.21.09-.28s.13-.13.21-.16c.08-.04.16-.05.23-.06h1.61v.29h-1.59c-.07,0-.13.01-.18.04-.06.03-.08.1-.08.21,0,.09.03.15.08.18.05.03.1.04.15.04h1.38Z"/>
              <path class="cls-6" d="M70,18.98v1.52c-.01.17-.05.33-.13.45-.09.16-.2.27-.32.34-.12.07-.27.11-.45.11h-1.24s-.02,0-.02-.02v-.25s0-.02.02-.02h1.24c.06,0,.12,0,.17-.01.05,0,.09-.03.13-.05.05-.04.1-.07.13-.1s.06-.06.08-.11l.04-.09h-1.13c-.13,0-.25-.02-.36-.08-.11-.05-.19-.11-.26-.18-.07-.07-.12-.15-.18-.26-.05-.11-.08-.22-.08-.33v-.92s0-.02,0-.02h.3s0,0,0,.02v.94c0,.06.01.12.04.18s.04.11.07.13c.01.01.04.04.07.07.03.03.08.07.14.09.06.03.13.05.22.06h1.24s0-1.47,0-1.47c0-.02,0-.02.02-.02h.25s.02,0,.02.02Z"/>
              <path class="cls-6" d="M73.22,19.74c.12,0,.22.05.31.12.09.07.13.21.13.41,0,.11-.03.2-.08.27-.05.07-.12.12-.2.16-.08.03-.16.05-.24.05h-1.78v-.29s1.77,0,1.77,0c.06,0,.12-.01.17-.04.05-.03.08-.09.08-.19,0-.06-.02-.11-.05-.14-.04-.03-.08-.04-.12-.05s-.07,0-.08,0h-1.29c-.07,0-.14-.02-.22-.06-.08-.04-.14-.09-.2-.18-.06-.08-.08-.19-.08-.32,0-.11.03-.21.09-.28.06-.07.13-.13.21-.16.08-.04.16-.05.23-.06h1.61v.29h-1.59c-.07,0-.13.01-.18.04-.06.03-.08.1-.08.21,0,.09.03.15.08.18.05.03.1.04.15.04h1.38Z"/>
              <path class="cls-6" d="M76.21,19.1c.08.07.14.14.17.23.03.08.04.16.04.22,0,.31-.17.48-.52.49h-1.38s0,.07,0,.07c0,.08,0,.14.02.19s.04.08.07.1c.03.02.08.04.14.04.06,0,.14.01.24.01h1.29s.06.02.06.05v.17s-.02.06-.06.06h-1.33c-.19,0-.33-.02-.44-.06-.11-.04-.18-.11-.23-.2s-.07-.21-.07-.37v-.44c0-.1.04-.21.12-.31.08-.1.18-.19.3-.26s.25-.1.38-.1h.84c.15,0,.27.03.36.1ZM76.01,19.73s.05-.03.08-.06c.02-.02.03-.04.04-.07,0-.03.01-.06.01-.11,0-.02,0-.05-.02-.08-.01-.03-.03-.06-.07-.09-.03-.03-.08-.04-.13-.04h-.92c-.07,0-.14.02-.21.06s-.14.1-.19.17-.08.15-.08.23h1.37c.06,0,.1,0,.12-.01Z"/>
              <path class="cls-6" d="M78.93,19.26h-.99s-.11,0-.17,0c-.06,0-.12,0-.17.02-.05.02-.1.04-.14.08-.04.04-.07.08-.08.14-.02.05-.03.1-.03.14,0,.04,0,.11,0,.21v.87s0,.02-.02.02h-.25s-.02,0-.02-.02v-.89s0-.1,0-.19c0-.09.02-.18.05-.27.03-.09.1-.17.19-.24.06-.04.12-.08.18-.1.07-.02.13-.04.19-.05.06,0,.12-.01.17-.01h1.1v.29Z"/>
              <path class="cls-6" d="M79.63,18.95l1.03,1.55h.04l1.03-1.55h.35l-1.04,1.55c-.08.13-.14.21-.16.24h-.4c-.05-.07-.1-.15-.16-.24l-1.03-1.55h.35Z"/>
              <path class="cls-6" d="M82.77,18.14v.31h-.31v-.31h.31ZM82.77,18.86v1.88h-.31v-1.88h.31Z"/>
              <path class="cls-6" d="M84.01,19.33c-.08.03-.14.07-.19.12s-.09.12-.12.19c-.03.08-.04.16-.04.23s.01.16.04.23c.03.08.07.14.12.19s.12.09.19.12.16.04.23.04h1.43v.29h-1.43c-.16,0-.3-.04-.44-.12-.13-.08-.24-.18-.32-.32-.08-.13-.12-.28-.12-.44s.04-.3.12-.44c.08-.13.18-.24.32-.32.13-.08.28-.12.44-.12h1.43v.29h-1.43c-.08,0-.16.01-.23.04Z"/>
              <path class="cls-6" d="M86.6,18.14v.31h-.31v-.31h.31ZM86.6,18.86v1.88h-.31v-1.88h.31Z"/>
              <path class="cls-6" d="M88.47,19c.16,0,.29,0,.41.04s.21.09.28.15c.07.06.13.13.17.21.04.07.07.14.09.2.02.06.03.12.04.16s0,.07,0,.06v.1c0,.08-.02.16-.06.26-.04.1-.09.19-.17.28-.08.09-.18.16-.3.21s-.26.08-.43.07h-.33c-.16,0-.3-.01-.43-.07-.12-.05-.22-.12-.3-.21-.08-.09-.13-.18-.17-.28-.04-.1-.06-.18-.06-.26v-.1s0-.01,0-.06.02-.1.04-.16.05-.13.09-.2c.04-.07.1-.14.17-.21.08-.06.17-.12.28-.15.12-.04.25-.05.41-.04h.24ZM88.59,20.45c.22,0,.37-.05.46-.16.09-.1.14-.22.15-.34v-.05s0-.08,0-.08v-.05c-.02-.11-.07-.22-.15-.33-.09-.11-.24-.16-.46-.16h-.46c-.22,0-.37.05-.46.16-.09.11-.14.22-.15.33v.05s0,.08,0,.08v.05c.02.12.07.23.16.34.09.1.24.16.46.16h.46Z"/>
              <path class="cls-6" d="M91.9,19.74c.12,0,.22.05.31.12.09.07.13.21.13.41,0,.11-.03.2-.08.27-.05.07-.12.12-.2.16-.08.03-.16.05-.24.05h-1.78v-.29s1.77,0,1.77,0c.06,0,.12-.01.17-.04.05-.03.08-.09.08-.19,0-.06-.02-.11-.05-.14-.04-.03-.08-.04-.12-.05s-.07,0-.08,0h-1.29c-.07,0-.14-.02-.22-.06-.08-.04-.14-.09-.2-.18-.06-.08-.08-.19-.08-.32,0-.11.03-.21.09-.28.06-.07.13-.13.21-.16.08-.04.16-.05.23-.06h1.61v.29h-1.59c-.07,0-.13.01-.18.04-.06.03-.08.1-.08.21,0,.09.03.15.08.18.05.03.1.04.15.04h1.38Z"/>
            </g>
            <rect class="cls-1" x="104.37" y="18.11" width="4.16" height="1.32"/>
            <rect class="cls-34" x="104.37" y="19.43" width="4.16" height=".66"/>
            <rect class="cls-2" x="104.37" y="20.09" width="4.16" height=".66"/>
            <rect class="cls-30" x="99.28" y="18.12" width="1.39" height="2.63"/>
            <rect class="cls-30" x="102.06" y="18.12" width="1.39" height="2.63"/>
            <rect class="cls-10" x="100.67" y="18.12" width="1.39" height="2.63"/>
            <polyline class="cls-21" points="98.35 20.75 94.19 20.75 94.19 19.43 98.35 19.43"/>
            <rect class="cls-28" x="94.19" y="18.11" width="1.39" height="1.32"/>
            <rect class="cls-10" x="95.58" y="18.11" width="2.77" height="1.32"/>
            <polygon class="cls-10" points="94.55 18.67 94.81 18.67 94.88 18.44 94.96 18.67 95.21 18.67 95.01 18.81 95.09 19.04 94.88 18.9 94.68 19.04 94.76 18.81 94.55 18.67"/>
            <path class="cls-10" d="M27,.27l-14.29,4.51,14.33,11.12,14.04-10.84L27,.27ZM32.53,10.39l-3.12,2.39-2.66-1.71,2.04-1.67c.37-.33.47-.56.47-.56v-3.18c.03-.54-.73-.85-.73-.85-.94-.45-2.38-.43-2.38-.43-1.33-.02-3.8.92-3.8.92v2.95l-3.69-2.37c2.35-.95,3.42-1.2,3.42-1.2,2.33-.65,3.96-.69,3.96-.69,2.61-.14,4.68.58,4.68.58,2.08.57,2.94,1.3,2.94,1.3,1.72,1.29,1.33,2.61,1.33,2.61-.27.24-2.47,1.91-2.47,1.91"/>
            <polygon class="cls-20" points="12.17 8.24 12.17 4.69 27.07 16.03 41.6 4.96 41.6 8.22 27.03 21.46 12.17 8.24"/>
            <path class="cls-20" d="M18.58,5.91l-2.39-1.48s3.15-1.23,5.77-1.73,3.58-.53,5.07-.47c1.5.06,4.37.63,6.26,1.55,1.89.93,2.29,1.89,2.4,2.42.12.53.09,1.75-.34,2.13l-.42.38s.31-.69-.13-1.56c-.44-.87-1.39-1.7-3.12-2.29-1.73-.59-3.27-.92-5.14-.89-1.87.03-3.57.44-4.87.82-1.3.38-3.09,1.11-3.09,1.11"/>
            <path class="cls-20" d="M22.36,5.37v2.94l4.29,2.83s.94-.73,1.6-1.28c.66-.54.94-.87,1.01-1.03v-3.24s.08.51-1.06,1.15c-1.13.64-1.49.85-1.49.85l-4.35-2.21Z"/>
            <path class="cls-20" d="M27.04,16.23L12.15,4.68,27,0h.04s14.57,4.97,14.57,4.97l-14.57,11.26ZM12.7,4.78l14.34,11.12,14.04-10.84L26.99.27l-14.29,4.51Z"/>
            <path class="cls-20" d="M29.42,13.09l-.08-.05L15.91,4.39l.24-.09s3.19-1.24,5.8-1.74c1.92-.37,3-.49,4.14-.49.27,0,.57,0,.95.02,1.62.06,4.5.68,6.31,1.57,1.43.7,2.26,1.54,2.47,2.51.12.56.1,1.82-.38,2.25l-.43.38-5.59,4.29ZM16.47,4.45l12.94,8.32,5.44-4.17.42-.38c.38-.34.41-1.51.3-2-.2-.89-.98-1.67-2.33-2.33-1.78-.87-4.61-1.48-6.2-1.54-.38-.01-.68-.02-.95-.02-.97,0-1.94.08-4.1.49-2.17.41-4.73,1.34-5.51,1.63"/>
            <path class="cls-20" d="M26.62,7.64l-4.29-2.19.04-.07-.03-.08c.1-.04,2.43-.93,3.82-.93h.03c1.46.01,2.38.36,2.77.69.36.3.41.63.16,1.02-.18.28-.71.67-1.43,1.05-.71.38-1.02.5-1.03.51h-.03ZM22.48,5.39l4.15,2.12c.09-.04.4-.18.99-.49.7-.37,1.21-.74,1.38-1,.21-.33.18-.6-.13-.85-.37-.31-1.27-.65-2.69-.66h-.03c-1.21,0-3.21.72-3.68.89"/>
            <path class="cls-20" d="M52.66,6.74c.14.02.36.08.68.19.31.11.68.32,1.09.63.41.31.77.78,1.08,1.4.31.62.46,1.41.46,2.36s-.18,1.67-.54,2.27c-.36.61-.79,1.06-1.29,1.35-.5.29-.97.47-1.42.53h-7.62V6.73h7.57ZM52.59,14.29c.23-.04.52-.14.84-.3.32-.16.63-.46.92-.9.29-.43.43-1.03.43-1.78,0-.88-.15-1.57-.45-2.07-.3-.5-.62-.84-.95-1.01-.33-.18-.61-.28-.84-.32h-6.28v6.38h6.33Z"/>
            <rect class="cls-20" x="56.78" y="6.75" width="1.19" height="8.7"/>
            <path class="cls-20" d="M64.45,9.12c.77-.01,1.46-.13,2.06-.34.61-.22,1.08-.43,1.4-.65.33-.22.55-.38.66-.49l.96-.91v8.75h-1.14v-6.32c-.5.3-1.08.55-1.75.76-.66.21-1.39.32-2.18.33-.83,0-1.61-.1-2.33-.32-.72-.22-1.36-.49-1.92-.82v6.36h-1.14V6.73l1,.86c.14.13.39.3.75.53.36.23.86.45,1.51.68.64.23,1.35.33,2.11.32"/>
            <rect class="cls-17" x="71.23" y="10.44" width="2.29" height="1.16"/>
            <g>
              <path class="cls-33" d="M85.07,6.66v1.19h-6.39c-.25,0-.53.08-.84.23s-.63.39-.93.71c-.22.23-.41.53-.57.9-.16.37-.25.83-.25,1.37,0,.36.06.72.17,1.06s.28.67.49.97c.19.27.44.53.75.78.31.26.7.39,1.17.4h6.39v1.19h-6.39c-.71,0-1.37-.2-1.97-.59-.6-.4-1.08-.93-1.43-1.61-.35-.67-.52-1.41-.52-2.21s.17-1.53.52-2.21c.35-.67.83-1.21,1.43-1.6.6-.4,1.26-.59,1.97-.59h6.39Z"/>
              <path class="cls-33" d="M86.44,6.7h8.79v1.2h-7.59v2.4h7.59v1.2h-7.59v2.8h7.59v1.2h-8.79V6.7Z"/>
              <path class="cls-33" d="M96.66,6.68h10v1.2h-8.8v2.4h6.66v1.2h-6.66v4h-1.2V6.68Z"/>
            </g>
          </g>
          <g>
            <rect class="cls-27" x="50.39" y="114.57" width="9.38" height="5.16"/>
            <path class="cls-12" d="M67.21,121.57h-24.27v-.48c0-.75,1.15-1.36,2.57-1.36h19.14c1.42,0,2.57.61,2.57,1.36v.48Z"/>
            <path class="cls-12" d="M22.85,71.12h64.63c.46,0,.83.37.83.83v42.68c0,.46-.37.83-.83.83H22.86c-.46,0-.83-.37-.83-.83v-42.68c0-.46.37-.83.83-.83Z"/>
            <rect class="cls-10" x="24.35" y="73.45" width="61.63" height="38.78"/>
            <rect class="cls-24" x="24.35" y="73.45" width="61.63" height="2.34"/>
            <rect class="cls-24" x="24.35" y="110.83" width="61.63" height="1.4"/>
            <rect class="cls-23" x="24.35" y="75.78" width="61.63" height="2.67"/>
            <g class="cls-31">
              <g class="cls-32">
                <polygon class="cls-10" points="47 73.45 24.35 96.08 24.35 83.54 34.44 73.45 47 73.45"/>
              </g>
            </g>
            <g class="cls-31">
              <g class="cls-16">
                <polygon class="cls-10" points="85.98 87.29 85.98 103.53 77.27 112.23 61.03 112.23 85.98 87.29"/>
              </g>
            </g>
            <g class="cls-31">
              <g class="cls-29">
                <polygon class="cls-10" points="22.09 92.83 44.66 115.41 32.16 115.41 22.09 105.35 22.09 92.83"/>
              </g>
            </g>
            <path class="cls-26" d="M32.37,83.93c0,1-.81,1.82-1.82,1.82s-1.82-.82-1.82-1.82.81-1.82,1.82-1.82,1.82.82,1.82,1.82"/>
            <rect class="cls-5" x="42.72" y="82.72" width="8.7" height="2.43"/>
            <rect class="cls-5" x="36.9" y="82.72" width="3.49" height="2.43"/>
            <rect class="cls-5" x="67.73" y="82.71" width="11.92" height="2.44"/>
            <rect class="cls-5" x="54.33" y="82.71" width="10.01" height="2.44"/>
            <path class="cls-26" d="M32.37,90.93c0,1-.81,1.82-1.82,1.82s-1.82-.82-1.82-1.82.81-1.82,1.82-1.82,1.82.82,1.82,1.82"/>
            <rect class="cls-5" x="42.72" y="89.71" width="8.7" height="2.43"/>
            <rect class="cls-5" x="54.33" y="89.7" width="10.01" height="2.44"/>
            <path class="cls-26" d="M32.37,97.53c0,1-.81,1.82-1.82,1.82s-1.82-.82-1.82-1.82.81-1.82,1.82-1.82,1.82.82,1.82,1.82"/>
            <rect class="cls-5" x="42.72" y="96.31" width="8.7" height="2.43"/>
            <rect class="cls-5" x="36.9" y="96.31" width="3.49" height="2.43"/>
            <rect class="cls-5" x="67.73" y="96.3" width="11.92" height="2.44"/>
            <rect class="cls-5" x="54.33" y="96.3" width="10.01" height="2.44"/>
            <path class="cls-26" d="M32.37,104.45c0,1-.81,1.82-1.82,1.82s-1.82-.82-1.82-1.82.81-1.82,1.82-1.82,1.82.82,1.82,1.82"/>
            <path class="cls-19" d="M35.85,80.94v35.67c0,1.15-.93,2.08-2.08,2.08H8.93c-1.15,0-2.08-.93-2.08-2.08v-35.67c0-1.15.93-2.08,2.08-2.08h24.83c1.15,0,2.08.93,2.08,2.08"/>
            <rect class="cls-10" x="8.61" y="80.82" width="25.47" height="35.92"/>
            <path class="cls-15" d="M15.49,87.47c0,1.15-.93,2.09-2.09,2.09s-2.09-.93-2.09-2.09.93-2.09,2.09-2.09,2.09.93,2.09,2.09"/>
            <path class="cls-15" d="M29.94,86.46h-10.53c-.64,0-1.17-.52-1.17-1.17s.52-1.17,1.17-1.17h10.53c.64,0,1.17.52,1.17,1.17s-.52,1.17-1.17,1.17"/>
            <path class="cls-9" d="M31.3,101.36H12.12c-.43,0-.77-.35-.77-.77s.34-.77.77-.77h19.18c.43,0,.77.35.77.77s-.35.77-.77.77"/>
            <path class="cls-9" d="M31.36,108.9H12.17c-.43,0-.77-.35-.77-.77s.34-.77.77-.77h19.18c.43,0,.77.35.77.77s-.35.77-.77.77"/>
            <path class="cls-9" d="M30.72,94.06h-12.18c-.43,0-.77-.35-.77-.77s.35-.77.77-.77h12.18c.43,0,.77.35.77.77s-.35.77-.77.77"/>
            <path class="cls-19" d="M68.9,55.41v35.67c0,1.15-.93,2.08-2.08,2.08h-24.83c-1.15,0-2.08-.93-2.08-2.08v-35.67c0-1.15.93-2.08,2.08-2.08h24.83c1.15,0,2.08.93,2.08,2.08"/>
            <rect class="cls-10" x="41.67" y="55.28" width="25.47" height="35.92"/>
            <path class="cls-15" d="M48.54,61.94c0,1.15-.93,2.09-2.09,2.09s-2.09-.93-2.09-2.09.93-2.09,2.09-2.09,2.09.93,2.09,2.09"/>
            <path class="cls-9" d="M64.36,71.71h-19.18c-.43,0-.77-.35-.77-.77s.34-.77.77-.77h19.18c.43,0,.77.35.77.77s-.35.77-.77.77"/>
            <path class="cls-9" d="M64.41,78.56h-19.18c-.43,0-.77-.35-.77-.77s.34-.77.77-.77h19.18c.43,0,.77.35.77.77s-.35.77-.77.77"/>
            <path class="cls-9" d="M63.78,65.09h-12.18c-.43,0-.77-.35-.77-.77s.35-.77.77-.77h12.18c.43,0,.77.35.77.77s-.35.77-.77.77"/>
            <path class="cls-25" d="M54.39,87.01h-7.97c-1.16,0-2.1-.94-2.1-2.1s.94-2.1,2.1-2.1h7.97c1.16,0,2.1.94,2.1,2.1s-.94,2.1-2.1,2.1"/>
            <path class="cls-25" d="M63.29,87.01h-2.53c-1.16,0-2.1-.94-2.1-2.1s.94-2.1,2.1-2.1h2.53c1.16,0,2.1.94,2.1,2.1s-.94,2.1-2.1,2.1"/>
            <path class="cls-19" d="M103.63,84.99v35.67c0,1.15-.93,2.08-2.08,2.08h-24.83c-1.15,0-2.08-.93-2.08-2.08v-35.67c0-1.15.93-2.08,2.08-2.08h24.83c1.15,0,2.08.93,2.08,2.08"/>
            <rect class="cls-10" x="76.39" y="84.87" width="25.47" height="35.92"/>
            <path class="cls-9" d="M99.08,100.61h-19.18c-.43,0-.77-.35-.77-.77s.34-.77.77-.77h19.18c.43,0,.77.35.77.77s-.35.77-.77.77"/>
            <path class="cls-9" d="M99.14,108.15h-19.18c-.43,0-.77-.35-.77-.77s.34-.77.77-.77h19.18c.43,0,.77.35.77.77s-.35.77-.77.77"/>
            <path class="cls-9" d="M98.5,92.62h-12.18c-.43,0-.77-.35-.77-.77s.35-.77.77-.77h12.18c.43,0,.77.35.77.77s-.35.77-.77.77"/>
            <path class="cls-25" d="M97.48,115.55h-16.85c-.87,0-1.58-.71-1.58-1.58s.71-1.58,1.58-1.58h16.85c.87,0,1.58.71,1.58,1.58s-.71,1.58-1.58,1.58"/>
            <polygon class="cls-10" points="41.43 57 59.95 57 64.37 65.57 55.16 83.39 46.26 83.39 37.02 65.57 41.43 57"/>
            <path class="cls-7" d="M41.56,57.26l-.14.27,13.31,25.75h.28l-13.45-26.02ZM40.9,58.53l12.79,24.75h.28l-12.94-25.02-.14.27ZM40.38,59.53l12.28,23.75h.28l-12.42-24.02-.14.27ZM39.87,60.53l11.76,22.75h.28l-11.9-23.02-.14.27ZM39.35,61.53l11.24,21.74h.28l-11.38-22.02-.14.27ZM38.84,62.53l10.73,20.74h.28l-10.87-21.02-.14.27ZM38.32,63.54l10.21,19.74h.28l-10.35-20.01-.14.27ZM37.8,64.54l9.69,18.74h.28l-9.83-19.01-.14.27ZM37.29,65.54l9.17,17.74h.28l-9.31-18.01-.14.27Z"/>
            <path class="cls-8" d="M59.91,57.27l-13.45,26.01h.28l13.31-25.74-.14-.27ZM60.42,58.27l-12.93,25.01h.28l12.79-24.74-.14-.27ZM60.94,59.27l-12.42,24.01h.28l12.27-23.74-.14-.27ZM61.46,60.27l-11.9,23.01h.28l11.76-22.74-.14-.27ZM61.97,61.27l-11.38,22.01h.28l11.24-21.74-.14-.27ZM62.49,62.27l-10.86,21.01h.28l10.72-20.73-.14-.27ZM63.01,63.27l-10.34,20.01h.28l10.2-19.73-.14-.27ZM63.52,64.28l-9.83,19.01h.28l9.68-18.73-.14-.27ZM64.04,65.28l-9.31,18h.28l9.17-17.73-.14-.27Z"/>
            <path class="cls-4" d="M37.29,65.53h26.89l-.14-.27h-26.61l-.14.27ZM37.8,64.53h25.86l-.14-.27h-25.58l-.14.27ZM38.32,63.53h24.83l-.14-.27h-24.55l-.14.27ZM38.83,62.53h23.8l-.14-.27h-23.52l-.14.27ZM39.35,61.53h22.77l-.14-.27h-22.49l-.14.27ZM39.86,60.53h21.74l-.14-.27h-21.46l-.14.27ZM40.38,59.53h20.71l-.14-.27h-20.43l-.14.27ZM40.9,58.53h19.68l-.14-.27h-19.39l-.14.27ZM59.91,57.26h-18.36l-.14.27h18.64l-.14-.27Z"/>
            <path class="cls-10" d="M.85,87.11h4.28v-5.08h5.73v5.17h2.82s-.94-.89-.94-2.26c0,0-.24-2.91,2.91-2.91,0,0,2.91.05,2.91,2.96,0,0,.09,1.36-1.03,2.35h4.04s-1.13-.94-1.13-2.3c0,0-.33-2.96,2.87-2.96,0,0,2.82.14,2.82,2.96,0,0-.05,2.07-1.32,2.4h1.32v16.68h-13.3v-1.22h-3.95s-3.71,3.24-8.88-.38v-5.17s4.23,3.57,6.11.85c0,0,1.13-1.36-3.06-4.89,0,0-3.2-1.79-2.21-6.2"/>
            <rect class="cls-22" x="5.55" y="82.35" width="5.09" height="5.09"/>
            <rect class="cls-22" x="13.19" y="88.71" width="5.03" height="15.2"/>
            <rect class="cls-22" x="20.84" y="88.71" width="5.03" height="15.2"/>
            <path class="cls-3" d="M18.3,84.9c0,1.41-1.14,2.55-2.55,2.55s-2.55-1.14-2.55-2.55,1.14-2.55,2.55-2.55,2.55,1.14,2.55,2.55"/>
            <path class="cls-3" d="M25.9,84.9c0,1.41-1.14,2.55-2.55,2.55s-2.55-1.14-2.55-2.55,1.14-2.55,2.55-2.55,2.55,1.14,2.55,2.55"/>
            <path class="cls-22" d="M.38,98.11v4.3s2.1,1.49,4.52,1.49c0,0,3.37.25,5.35-3.09,0,0,1.37-1.98.56-5.11,0,0-.41-1.4-1.62-2.54l-2.29-2.27s-.98-.85-1.34-1.69c0,0-.26-.77,0-1.76H1.18s-.4,2.95.52,4.01c0,0,.81,1.18,1.65,1.77l1.67,1.48s1.2,1.1,1.51,2.25c0,0,.19,1.45-.48,2.02,0,0-.43.67-1.83.67,0,0-1.1.09-2.2-.54,0,0-1.23-.67-1.62-1"/>
            <path class="cls-10" d="M71.09,89.22h6.54s4.61-.29,4.61,3.8c0,0,.05,3.62-4.66,3.62h-6.83v-7.38l.34-.03Z"/>
            <polygon class="cls-10" points="82.9 89.37 85.12 89.37 85.12 96.64 82.85 96.64 82.9 89.37"/>
            <polygon class="cls-10" points="87.23 96.61 85.04 96.59 85.12 95.63 90.83 89.3 91.79 89.3 98.19 96.18 98.19 96.63 87.23 96.61"/>
            <polygon class="cls-10" points="99.69 96.62 97.91 96.62 97.91 89.17 99.26 89.17 106.66 93.76 106.66 89.12 108.53 89.12 108.53 96.67 106.61 96.67 100 92.34 100 96.59 99.69 96.62"/>
            <path class="cls-11" d="M71.5,90.13v.77h5.74s3.3-.24,3.3,2.05c0,0,.46,2.22-3.28,2.22h-4.91v-1.18h-.88v1.96h5.78s4.15.41,4.15-2.92c0,0,.53-2.92-4.14-2.92l-5.77.02Z"/>
            <rect class="cls-11" x="83.45" y="90.13" width=".97" height="5.81"/>
            <polygon class="cls-11" points="96.01 95.96 91.45 90.99 88.75 94.04 92.48 94.04 93.05 94.65 88.18 94.65 86.97 95.96 85.79 95.96 91.08 90.14 91.8 90.14 97.07 95.95 96.01 95.96"/>
            <polygon class="cls-11" points="99.25 95.95 98.36 95.95 98.36 90.13 99.17 90.13 107.18 94.92 107.18 90.13 108.05 90.13 108.05 95.97 107.3 95.97 99.28 91.13 99.25 95.95"/>
          </g>
          <g>
            <path class="cls-19" d="M81.16,164.9h9.81c.43,0,.85.17,1.15.48l3.53,3.52c.31.31.48.72.48,1.16v13.15c0,.9-.73,1.64-1.64,1.64h-11.7c-.9,0-1.64-.73-1.64-1.64v-18.3Z"/>
            <polygon class="cls-10" points="82.52 166.05 91.04 166.05 91.04 169.93 94.77 169.93 94.77 183.68 82.52 183.68 82.52 166.05"/>
            <rect class="cls-13" x="83.28" y="168.69" width="6.71" height=".29"/>
            <rect class="cls-13" x="83.49" y="172.4" width="9.72" height=".29"/>
            <rect class="cls-13" x="83.49" y="176.43" width="9.72" height=".29"/>
            <rect class="cls-13" x="83.49" y="180.47" width="9.72" height=".29"/>
            <path class="cls-19" d="M70.86,149.8h9.81c.43,0,.85.17,1.15.48l3.53,3.52c.31.31.48.72.48,1.16v13.15c0,.9-.73,1.64-1.64,1.64h-11.7c-.9,0-1.64-.73-1.64-1.64v-18.3Z"/>
            <polygon class="cls-10" points="72.21 150.95 80.74 150.95 80.74 154.83 84.46 154.83 84.46 168.58 72.21 168.58 72.21 150.95"/>
            <rect class="cls-13" x="72.97" y="153.59" width="6.71" height=".29"/>
            <rect class="cls-13" x="73.18" y="157.3" width="9.72" height=".29"/>
            <rect class="cls-13" x="73.18" y="161.33" width="9.72" height=".29"/>
            <rect class="cls-13" x="73.18" y="165.37" width="9.72" height=".29"/>
            <path class="cls-10" d="M75.35,150.03h2.58v-3.06h3.46v3.12h1.7s-.57-.54-.57-1.36c0,0-.14-1.76,1.76-1.76,0,0,1.76.03,1.76,1.79,0,0,.06.82-.62,1.42h2.44s-.68-.57-.68-1.39c0,0-.2-1.79,1.73-1.79,0,0,1.7.08,1.7,1.79,0,0-.03,1.25-.79,1.45h.79v10.07h-8.03v-.74h-2.38s-2.24,1.96-5.36-.23v-3.12s2.55,2.16,3.69.51c0,0,.68-.82-1.84-2.95,0,0-1.93-1.08-1.33-3.75"/>
            <rect class="cls-22" x="78.19" y="147.16" width="3.07" height="3.07"/>
            <rect class="cls-22" x="82.8" y="150.99" width="3.04" height="9.17"/>
            <rect class="cls-22" x="87.42" y="150.99" width="3.04" height="9.17"/>
            <path class="cls-3" d="M85.88,148.69c0,.85-.69,1.54-1.54,1.54s-1.54-.69-1.54-1.54.69-1.54,1.54-1.54,1.54.69,1.54,1.54"/>
            <path class="cls-3" d="M90.47,148.69c0,.85-.69,1.54-1.54,1.54s-1.54-.69-1.54-1.54.69-1.54,1.54-1.54,1.54.69,1.54,1.54"/>
            <path class="cls-22" d="M75.07,156.67v2.6s1.26.9,2.73.9c0,0,2.03.15,3.23-1.87,0,0,.83-1.19.34-3.08,0,0-.25-.85-.98-1.53l-1.39-1.37s-.59-.51-.81-1.02c0,0-.16-.47,0-1.06h-2.64s-.24,1.78.31,2.42c0,0,.49.71.99,1.07l1.01.89s.73.66.91,1.36c0,0,.11.87-.29,1.22,0,0-.26.4-1.11.4,0,0-.66.05-1.33-.33,0,0-.74-.4-.98-.6"/>
            <path class="cls-10" d="M83.83,171.27h4.31s3.04-.19,3.04,2.51c0,0,.03,2.39-3.08,2.39h-4.5v-4.87l.22-.02Z"/>
            <polygon class="cls-10" points="91.63 171.38 93.09 171.38 93.09 176.17 91.59 176.17 91.63 171.38"/>
            <polygon class="cls-10" points="94.48 176.15 93.03 176.14 93.09 175.5 96.86 171.33 97.49 171.33 101.71 175.87 101.71 176.16 94.48 176.15"/>
            <polygon class="cls-10" points="102.7 176.16 101.53 176.16 101.53 171.24 102.41 171.24 107.3 174.27 107.3 171.21 108.53 171.21 108.53 176.19 107.27 176.19 102.91 173.33 102.91 176.14 102.7 176.16"/>
            <path class="cls-11" d="M84.1,171.87v.51h3.79s2.18-.16,2.18,1.35c0,0,.31,1.47-2.16,1.47h-3.24v-.78h-.58v1.29h3.81s2.74.27,2.74-1.93c0,0,.35-1.93-2.73-1.93h-3.81Z"/>
            <rect class="cls-11" x="91.98" y="171.87" width=".64" height="3.83"/>
            <polygon class="cls-11" points="100.27 175.72 97.27 172.45 95.48 174.46 97.94 174.46 98.32 174.86 95.1 174.86 94.31 175.72 93.53 175.72 97.02 171.88 97.49 171.88 100.97 175.71 100.27 175.72"/>
            <polygon class="cls-11" points="102.41 175.71 101.82 175.71 101.82 171.88 102.35 171.88 107.64 175.04 107.64 171.88 108.21 171.88 108.21 175.73 107.72 175.73 102.43 172.54 102.41 175.71"/>
            <path class="cls-19" d="M62.02,161.32h9.81c.43,0,.85.17,1.15.48l3.53,3.52c.31.31.48.72.48,1.16v13.15c0,.9-.73,1.64-1.64,1.64h-11.7c-.9,0-1.64-.73-1.64-1.64v-18.3Z"/>
            <polygon class="cls-10" points="63.38 162.46 71.9 162.46 71.9 166.35 75.63 166.35 75.63 180.09 63.38 180.09 63.38 162.46"/>
            <rect class="cls-13" x="64.13" y="165.11" width="6.71" height=".29"/>
            <rect class="cls-13" x="64.35" y="168.81" width="9.72" height=".29"/>
            <rect class="cls-13" x="64.35" y="172.85" width="9.72" height=".29"/>
            <rect class="cls-13" x="64.35" y="176.89" width="9.72" height=".29"/>
            <polygon class="cls-10" points="57.52 169.02 67.97 169.02 70.46 173.86 65.27 183.92 60.24 183.92 55.02 173.86 57.52 169.02"/>
            <path class="cls-7" d="M57.59,169.17l-.08.15,7.51,14.53h.16l-7.59-14.68ZM57.22,169.89l7.22,13.97h.16l-7.3-14.12-.08.15ZM56.92,170.45l6.93,13.4h.16l-7.01-13.55-.08.15ZM56.63,171.02l6.64,12.83h.16l-6.72-12.99-.08.16ZM56.34,171.58l6.34,12.27h.16l-6.42-12.42-.08.15ZM56.05,172.15l6.05,11.71h.16l-6.13-11.86-.08.15ZM55.76,172.71l5.76,11.14h.16l-5.84-11.3-.08.16ZM55.47,173.28l5.47,10.58h.16l-5.55-10.73-.08.15ZM55.18,173.84l5.18,10.01h.16l-5.26-10.16-.08.15Z"/>
            <path class="cls-8" d="M67.94,169.18l-7.59,14.68h.16l7.51-14.52-.08-.15ZM68.23,169.74l-7.3,14.11h.16l7.22-13.96-.08-.15ZM68.53,170.31l-7.01,13.55h.16l6.93-13.39-.08-.15ZM68.82,170.87l-6.71,12.98h.16l6.63-12.83-.08-.15ZM69.11,171.44l-6.42,12.42h.16l6.34-12.26-.08-.15ZM69.4,172l-6.13,11.85h.16l6.05-11.7-.08-.16ZM69.69,172.57l-5.84,11.29h.16l5.76-11.13-.08-.15ZM69.98,173.13l-5.55,10.72h.16l5.46-10.57-.08-.15ZM70.27,173.69l-5.25,10.16h.16l5.17-10.01-.08-.15Z"/>
            <path class="cls-4" d="M55.18,173.84h15.18l-.08-.16h-15.02l-.08.16ZM55.47,173.27h14.6l-.08-.15h-14.44l-.08.15ZM55.76,172.71h14.01l-.08-.15h-13.85l-.08.15ZM56.05,172.14h13.43l-.08-.15h-13.27l-.08.15ZM56.34,171.58h12.85l-.08-.15h-12.69l-.08.15ZM56.63,171.02h12.27l-.08-.15h-12.11l-.08.15ZM56.92,170.45h11.68l-.08-.15h-11.53l-.08.15ZM57.21,169.89h11.1l-.08-.15h-10.94l-.08.15ZM67.95,169.17h-10.36l-.08.15h10.52l-.08-.15Z"/>
          </g>
        </g>
      </g>
    </g>
  </g>
</svg>