<?xml version="1.0" encoding="UTF-8"?>
<svg id="Capa_2" xmlns="http://www.w3.org/2000/svg" viewBox="0 0 148.64 197.89">
  <defs>
    <style>
      .cls-1 {
        fill: #f9cf16;
      }

      .cls-2 {
        fill: #cd142a;
      }

      .cls-3 {
        fill: #646365;
      }

      .cls-4 {
        fill: #fff;
      }

      .cls-5 {
        fill: #115a9f;
      }

      .cls-6 {
        fill: #625f60;
      }

      .cls-7 {
        fill: #4780b4;
      }

      .cls-8 {
        fill: #d00e4d;
      }

      .cls-9 {
        fill: #d00e4c;
      }

      .cls-10 {
        fill: #d22e1f;
      }

      .cls-11 {
        fill: #636061;
      }

      .cls-12 {
        fill: #3e8151;
      }

      .cls-13 {
        fill: #9d9a9c;
      }

      .cls-14 {
        fill: #d20f48;
      }

      .cls-15 {
        fill: #1d458c;
      }

      .cls-16 {
        fill: #48a98e;
      }

      .cls-17 {
        fill: #e1222c;
      }

      .cls-18 {
        fill: #feffff;
      }

      .cls-19 {
        fill: #828384;
      }

      .cls-20 {
        fill: #1b4180;
      }
    </style>
  </defs>
  <g id="Capa_1-2" data-name="Capa_1">
    <g>
      <path class="cls-6" d="M78.16,187.42h1.14v8.37h-1.14v-8.37Z"/>
      <path class="cls-6" d="M83.68,191.24c-.25.09-.46.21-.62.38s-.29.37-.38.63-.13.51-.13.76.04.5.13.76.21.46.38.63.37.29.62.38.5.13.75.13h4.61v.93h-4.61c-.51,0-.98-.13-1.41-.38-.43-.25-.77-.59-1.03-1.03-.25-.43-.38-.9-.38-1.41s.12-.98.38-1.41c.25-.43.6-.78,1.03-1.03.43-.25.9-.38,1.41-.38h4.61v.93h-4.61c-.25,0-.5.04-.75.13Z"/>
      <path class="cls-6" d="M95.17,190.16c.5-.02.94.02,1.32.14s.68.28.92.49.42.43.56.66.23.45.29.66.1.38.11.53.02.21.02.19v.33c0,.24-.06.52-.18.83s-.3.61-.55.89-.57.51-.97.69-.85.25-1.38.22h-1.05c-.52.03-.98-.05-1.38-.22s-.72-.4-.97-.69-.43-.58-.55-.89-.18-.59-.18-.83v-.33s0-.04.02-.19.05-.33.11-.53.16-.42.29-.66.32-.46.56-.66.55-.37.92-.49.81-.16,1.32-.14h.76ZM95.54,194.85c.7,0,1.19-.17,1.47-.51s.45-.7.49-1.09v-.16s.01-.26.01-.26v-.18c-.05-.37-.22-.72-.5-1.06s-.77-.51-1.48-.51h-1.49c-.7,0-1.2.17-1.48.51s-.44.7-.48,1.06l-.02.18v.25l.02.18c.04.39.2.75.49,1.09s.78.51,1.47.51h1.49Z"/>
      <path class="cls-6" d="M107.5,191.5c.25.44.38.92.38,1.44v2.87h-.94v-2.87c0-.26-.04-.52-.13-.77s-.21-.47-.38-.64c-.16-.17-.36-.3-.61-.39s-.49-.13-.74-.13h-1.78c-.48,0-1.1,0-1.86,0,0-.22,0-.01,0,.62s0,1.06,0,1.25v2.94h-.94v-5.74h4.58c.5,0,.97.13,1.4.38.43.26.77.61,1.03,1.05Z"/>
      <path class="cls-6" d="M114.03,190.16c.5-.02.94.02,1.32.14s.68.28.92.49.42.43.56.66.23.45.29.66.1.38.11.53.02.21.02.19v.33c0,.24-.06.52-.18.83s-.3.61-.55.89-.57.51-.97.69-.85.25-1.38.22h-1.05c-.52.03-.98-.05-1.38-.22s-.72-.4-.97-.69-.43-.58-.55-.89-.18-.59-.18-.83v-.33s0-.04.02-.19.05-.33.11-.53.16-.42.29-.66.32-.46.56-.66.55-.37.92-.49.81-.16,1.32-.14h.76ZM114.39,194.85c.7,0,1.19-.17,1.47-.51s.45-.7.49-1.09v-.16s.01-.26.01-.26v-.18c-.05-.37-.22-.72-.5-1.06s-.77-.51-1.48-.51h-1.49c-.7,0-1.2.17-1.48.51s-.44.7-.48,1.06l-.02.18v.25l.02.18c.04.39.2.75.49,1.09s.78.51,1.47.51h1.49Z"/>
      <path class="cls-6" d="M129.45,191.48c.23.4.35.9.35,1.49,0-.09,0-.07,0,.06h0v.66c0,.55-.11.98-.32,1.28s-.46.5-.76.61-.61.16-.93.17-.57.02-.73.02h-3.01c-.47,0-.87-.17-1.2-.52s-.5-.76-.5-1.24.17-.9.5-1.25c.33-.35.73-.52,1.2-.52h4.61c0-.07-.02-.13-.04-.19s-.04-.11-.05-.13c-.09-.18-.21-.34-.38-.48s-.34-.26-.54-.34c-.2-.08-.41-.12-.62-.12h-4.44v-.9c0-.08,0-.1,0-.08h4.44c.51,0,.99.13,1.43.4.21.12.39.27.55.45s.3.38.44.62ZM128.78,193.82c0-.08,0-.28-.01-.59h-4.83c-.17,0-.32.08-.45.23-.12.16-.18.34-.18.56s.06.4.18.56c.12.15.27.23.45.23h3.13c.36,0,.64,0,.85-.02s.38-.07.5-.16c.13-.09.22-.21.27-.34s.08-.29.09-.47Z"/>
      <path class="cls-6" d="M132.87,197.87h-.91c0,.05,0,0,0-.16v-5.33c0-.35.13-.69.4-1.02s.59-.6.98-.81.75-.31,1.08-.31h1.71c.53-.02.99.05,1.39.22s.72.39.97.67.44.57.56.88.18.58.18.82v.32s0,.04-.02.18-.05.32-.11.52-.16.42-.3.65-.33.45-.57.65-.55.36-.92.48-.82.16-1.32.14h-3.11v2.1ZM132.87,194.85h3.47c.57,0,1-.12,1.29-.35s.48-.47.57-.73.13-.46.13-.62v-.28c0-.19-.04-.42-.13-.68s-.28-.5-.57-.73-.72-.33-1.27-.33h-1.88c-.24,0-.49.07-.74.22s-.46.34-.62.56-.24.45-.24.66v2.26Z"/>
      <path class="cls-6" d="M142.29,197.87h-.91c0,.05,0,0,0-.16v-5.33c0-.35.13-.69.4-1.02s.59-.6.98-.81.75-.31,1.08-.31h1.71c.53-.02.99.05,1.39.22s.72.39.97.67.44.57.56.88.18.58.18.82v.32s0,.04-.02.18-.05.32-.11.52-.16.42-.3.65-.33.45-.57.65-.55.36-.92.48-.82.16-1.32.14h-3.11v2.1ZM142.29,194.85h3.47c.57,0,1-.12,1.29-.35s.48-.47.57-.73.13-.46.13-.62v-.28c0-.19-.04-.42-.13-.68s-.28-.5-.57-.73-.72-.33-1.27-.33h-1.88c-.24,0-.49.07-.74.22s-.46.34-.62.56-.24.45-.24.66v2.26Z"/>
    </g>
    <g>
      <path class="cls-9" d="M40.5,24.89c.14.02.36.08.68.19.31.11.68.32,1.09.63.41.31.77.78,1.08,1.4.31.62.46,1.41.46,2.36s-.18,1.67-.54,2.27c-.36.6-.79,1.06-1.29,1.35-.5.29-.97.47-1.42.53h-7.62v-8.73h7.57ZM40.44,32.45c.23-.04.52-.14.84-.3.32-.16.63-.46.92-.9.29-.43.43-1.03.43-1.78,0-.88-.15-1.57-.45-2.07-.3-.5-.62-.84-.95-1.01-.33-.18-.61-.28-.84-.32h-6.28v6.38h6.33Z"/>
      <rect class="cls-9" x="44.63" y="24.9" width="1.19" height="8.7"/>
      <path class="cls-9" d="M52.3,27.28c.77-.01,1.46-.13,2.06-.34.61-.22,1.08-.43,1.4-.65.33-.22.55-.38.66-.49l.96-.91v8.75h-1.14v-6.32c-.5.3-1.08.55-1.75.76-.66.21-1.39.32-2.18.33-.83,0-1.61-.1-2.33-.32-.72-.22-1.36-.49-1.92-.82v6.36h-1.14v-8.75l1,.87c.14.13.39.3.75.53.36.23.86.45,1.51.68.64.23,1.35.33,2.11.32"/>
      <rect class="cls-8" x="59.08" y="28.59" width="2.29" height="1.16"/>
      <g>
        <path class="cls-19" d="M72.92,24.82v1.19h-6.39c-.25,0-.53.08-.84.23s-.63.39-.93.71c-.22.23-.41.53-.57.9-.16.37-.25.83-.25,1.37,0,.36.06.72.17,1.06s.28.67.49.97c.19.27.44.53.75.78.31.26.7.39,1.17.4h6.39v1.19h-6.39c-.71,0-1.37-.2-1.97-.59-.6-.4-1.08-.93-1.43-1.61-.35-.67-.52-1.41-.52-2.21s.17-1.53.52-2.21c.35-.67.83-1.21,1.43-1.6.6-.4,1.26-.59,1.97-.59h6.39Z"/>
        <path class="cls-19" d="M77.88,27.72c.53-.02.99.02,1.38.15.39.12.71.29.96.51.25.22.44.45.58.69.14.25.24.48.31.69.06.21.1.4.12.55.02.16.02.22.02.2v.35c0,.25-.06.54-.19.87-.12.33-.32.64-.58.93-.26.3-.6.54-1.01.72s-.89.26-1.44.23h-1.1c-.55.03-1.03-.05-1.44-.23-.41-.18-.75-.42-1.01-.72-.26-.3-.45-.61-.58-.93-.12-.32-.19-.61-.19-.87v-.35s0-.04.02-.2c.02-.16.06-.34.12-.55.06-.21.17-.44.31-.69s.34-.48.59-.69c.25-.22.57-.39.96-.51.39-.12.85-.17,1.38-.15h.8ZM78.26,32.63c.73,0,1.25-.18,1.54-.53s.47-.73.51-1.14v-.17s.01-.28.01-.28v-.18c-.06-.38-.23-.75-.52-1.11-.29-.36-.81-.54-1.54-.54h-1.56c-.74,0-1.25.18-1.54.54-.29.36-.46.73-.5,1.11l-.02.18v.26l.02.18c.04.4.21.78.51,1.14.3.35.81.53,1.54.53h1.56Z"/>
        <path class="cls-19" d="M89.38,29.12c.26.46.39.96.39,1.51v3h-.99v-3c0-.27-.05-.54-.14-.81-.09-.27-.22-.49-.4-.67-.17-.18-.38-.31-.64-.41-.26-.09-.52-.14-.77-.14h-1.86c-.5,0-1.15,0-1.95,0,0-.23,0-.02,0,.65s0,1.1,0,1.31v3.07h-.99v-6.01h4.79c.52,0,1.01.13,1.46.4.45.27.81.64,1.07,1.1Z"/>
        <path class="cls-19" d="M95.56,32.63v.96h-1.81c-.52,0-1.01-.13-1.46-.39-.45-.26-.81-.61-1.07-1.05-.26-.44-.4-.92-.41-1.44v-5.25h.97s0,0,0,.07v2.16h2.27s0,0,0,.07v.89s-.03,0-.09,0h-2.18v2.08c0,.42.11.78.33,1.06s.45.5.69.64c.12.08.3.13.55.15.24.02.44.03.59.02h1.61Z"/>
        <path class="cls-19" d="M103.89,29.11c.24.42.36.94.36,1.56,0-.1,0-.08,0,.06h0v.69c0,.58-.12,1.03-.33,1.34-.22.31-.48.53-.79.63s-.63.17-.97.17c-.34,0-.6.02-.76.02h-3.14c-.49,0-.91-.18-1.26-.54-.35-.36-.52-.79-.52-1.3s.17-.95.52-1.31c.35-.36.77-.55,1.26-.55h4.82c0-.07-.02-.14-.04-.2-.02-.07-.04-.11-.05-.13-.09-.18-.22-.35-.39-.5-.17-.15-.36-.27-.56-.36-.21-.08-.43-.12-.65-.12h-4.64v-.94c0-.08,0-.11,0-.08h4.64c.54,0,1.03.14,1.5.42.22.13.41.29.57.47s.31.4.46.65ZM103.19,31.56c0-.09,0-.29-.01-.62h-5.06c-.18,0-.33.08-.47.24-.13.16-.19.36-.19.58s.06.42.19.58c.13.16.29.24.47.24h3.28c.37,0,.67,0,.89-.02s.39-.07.52-.16c.14-.1.23-.22.29-.35.05-.14.08-.3.09-.49Z"/>
        <path class="cls-19" d="M106.08,27.8h0,3.26c.54-.03,1,.02,1.39.14.39.12.72.29.97.5.25.21.45.44.59.68.14.24.24.47.31.68s.11.4.12.55c.02.15.02.22.02.19v.34c0,.25-.06.54-.19.86-.13.32-.32.62-.58.92-.26.29-.61.53-1.02.71s-.9.25-1.46.23h-1.92c-.47,0-.85-.04-1.17-.12-.31-.08-.56-.21-.75-.38-.19-.17-.32-.4-.41-.67-.08-.28-.13-.61-.13-1v-5.67c0-.17,0-.23,0-.17h.96v2.21ZM106.08,31.13c0,.32.03.59.1.82s.18.39.35.51c.17.12.39.18.68.18h2.51c.58,0,1.03-.12,1.34-.35.31-.24.51-.49.6-.76.09-.27.14-.51.14-.71v-.29c0-.16-.04-.38-.13-.65-.09-.27-.29-.52-.59-.76s-.76-.36-1.35-.36h-3.64v2.37Z"/>
        <path class="cls-19" d="M114.69,24.84v1.04h-1.04v-1.04h1.04ZM114.69,27.26v6.35h-1.04v-6.35h1.04Z"/>
        <path class="cls-19" d="M115.74,24.84h1.05s-.01,0,0,0v5.65c0,.41.1.78.3,1.1.2.32.44.57.73.75.29.18.57.27.83.27h2.15v1.05h-2.18c-.55,0-1.04-.17-1.48-.51s-.78-.76-1.02-1.27-.37-1.01-.37-1.49v-5.29c0-.27,0-.35,0-.26Z"/>
        <path class="cls-19" d="M123,24.84v1.04h-1.04v-1.04h1.04ZM123,27.26v6.35h-1.04v-6.35h1.04Z"/>
        <path class="cls-19" d="M130.75,25.56h.96c0-.06,0,0,0,.18v5.68c0,.39-.04.73-.12,1.01-.08.28-.22.5-.41.68-.19.17-.44.3-.75.38s-.7.12-1.17.12h-1.93c-.55.03-1.04-.05-1.46-.23s-.76-.42-1.03-.71c-.27-.29-.46-.6-.59-.92s-.19-.61-.19-.86v-.34s0-.04.02-.19c.02-.15.06-.34.12-.55.07-.21.17-.44.31-.68.14-.24.34-.47.59-.69.25-.21.58-.38.97-.5.4-.12.86-.17,1.39-.14h3.27v-2.22ZM130.75,28.73h-3.66c-.59,0-1.04.12-1.35.36s-.51.5-.6.77c-.09.27-.14.49-.14.65v.29c0,.2.05.44.14.71.09.28.29.53.6.77.31.23.75.35,1.34.35h2.53c.29,0,.52-.06.68-.19.17-.12.28-.3.35-.52s.1-.49.1-.82v-2.38Z"/>
        <path class="cls-19" d="M139.87,29.11c.24.42.36.94.36,1.56,0-.1,0-.08,0,.06h0v.69c0,.58-.12,1.03-.33,1.34-.22.31-.48.53-.79.63s-.63.17-.97.17c-.34,0-.6.02-.76.02h-3.15c-.49,0-.91-.18-1.26-.54s-.52-.79-.52-1.3.17-.95.52-1.31c.35-.36.77-.55,1.26-.55h4.83c0-.07-.02-.14-.04-.2s-.04-.11-.06-.13c-.09-.18-.22-.35-.39-.5-.17-.15-.36-.27-.56-.36-.21-.08-.42-.12-.65-.12h-4.64v-.94c0-.08,0-.11,0-.08h4.64c.54,0,1.03.14,1.5.42.22.13.41.29.57.47.16.18.31.4.46.65ZM139.18,31.56c0-.09,0-.29-.01-.62h-5.06c-.18,0-.33.08-.47.24-.13.16-.19.36-.19.58s.06.42.19.58c.13.16.29.24.47.24h3.28c.37,0,.67,0,.89-.02s.39-.07.52-.16c.14-.1.23-.22.29-.35.05-.14.08-.3.09-.49Z"/>
        <path class="cls-19" d="M147.68,25.56h.96c0-.06,0,0,0,.18v5.68c0,.39-.04.73-.13,1.01s-.22.5-.41.68c-.19.17-.44.3-.75.38s-.7.12-1.17.12h-1.93c-.55.03-1.04-.05-1.46-.23s-.76-.42-1.03-.71c-.27-.29-.46-.6-.59-.92s-.19-.61-.19-.86v-.34s0-.04.03-.19c.02-.15.06-.34.12-.55.07-.21.17-.44.31-.68.14-.24.34-.47.59-.69.25-.21.58-.38.97-.5.4-.12.86-.17,1.39-.14h3.27v-2.22ZM147.68,28.73h-3.66c-.59,0-1.04.12-1.35.36s-.51.5-.6.77-.13.49-.13.65v.29c0,.2.05.44.14.71.09.28.29.53.6.77.31.23.75.35,1.34.35h2.53c.29,0,.52-.06.68-.19.17-.12.28-.3.35-.52s.1-.49.1-.82v-2.38Z"/>
      </g>
    </g>
    <g>
      <path class="cls-6" d="M141.42,173.02c0,.43-.38.79-.84.79h-31.49c-.46,0-.83-.35-.83-.79v-17.76c0-.43.38-.79.83-.79h31.5c.46,0,.83.35.83.79v17.76Z"/>
      <path class="cls-4" d="M140.22,171.71c0,.47-.41.85-.89.85h-28.98c-.49,0-.9-.38-.9-.85v-15.12c0-.46.4-.85.9-.85h28.98c.49,0,.89.39.89.85v15.12Z"/>
      <polygon class="cls-6" points="141.41 173.81 108.21 173.81 102.37 179.17 147.31 179.17 141.41 173.81"/>
      <path class="cls-11" d="M146.39,180.19h-43.03c-.55,0-.99-.44-.99-.99,0-.01.01-.03.03-.03h44.89s.03.01.03.03v.07c0,.51-.41.92-.92.92"/>
      <path class="cls-4" d="M128.63,178.63h-7.59c-.25,0-.46-.2-.46-.45s.21-.46.46-.46h7.59c.25,0,.45.2.45.46s-.2.45-.45.45"/>
      <polygon class="cls-4" points="131.96 176.99 117.62 176.99 119.63 175.61 129.91 175.61 131.96 176.99"/>
      <rect class="cls-4" x="103.64" y="160.84" width="15.44" height="8.71"/>
      <path class="cls-18" d="M106.16,163.32c-.54.54-1.35.63-1.99.28v3.09c.25-.14.53-.22.81-.22.43,0,.86.17,1.19.49.21.21.35.45.43.73l-.28.6s0-.09,0-.13c0-.36-.14-.7-.4-.96-.48-.48-1.24-.52-1.77-.12v-5.75,1.87c.53.39,1.28.35,1.76-.13.25-.26.4-.6.4-.96,0-.29-.09-.56-.25-.78h.39c.13.24.2.5.2.78,0,.45-.18.87-.49,1.19"/>
      <path class="cls-18" d="M118.52,163.58c-.64.36-1.47.28-2.02-.27-.32-.32-.49-.74-.49-1.19,0-.28.07-.54.2-.78h.39c-.16.23-.25.5-.25.78,0,.36.14.7.4.96.49.49,1.25.52,1.78.11v-1.85h.01v5.25h-.01v-3.01Z"/>
      <path class="cls-18" d="M113.67,168.99h2.58c-.14-.25-.22-.53-.22-.82,0-.16.02-.31.06-.45.19.39.28.83.23,1.28h-2.65,0"/>
      <polygon class="cls-18" points="106.33 168.3 106.33 168.3 106.6 167.7 106.33 168.3"/>
      <path class="cls-18" d="M106.05,168.99c.16-.2.25-.44.28-.69l.28-.6c.04.15.06.31.06.47,0,.29-.08.57-.22.82h1.89-2.32.04Z"/>
      <path class="cls-18" d="M116.09,167.71c.08-.28.22-.53.43-.74.33-.33.76-.49,1.19-.49.28,0,.56.08.81.22v-.1h.01v2.39h-.01v-1.9c-.53-.4-1.29-.36-1.77.12-.26.26-.4.6-.4.96,0,.3.11.59.29.82h-.33c.05-.44-.03-.89-.23-1.28"/>
      <polygon class="cls-12" points="104.17 161.33 106.06 161.33 106.07 161.34 104.17 161.34 104.17 161.33"/>
      <path class="cls-12" d="M105.93,163.08c-.48.48-1.23.52-1.76.13v-1.87h1.9c.16.23.25.5.25.78,0,.36-.14.7-.4.96"/>
      <path class="cls-12" d="M105.94,167.21c.26.26.4.6.4.96,0,.05,0,.09,0,.13l-.32.69h-1.84v-1.9c.53-.4,1.29-.36,1.77.12"/>
      <path class="cls-12" d="M116.75,167.21c.48-.48,1.24-.52,1.77-.12v1.9h-1.88c-.18-.24-.29-.52-.29-.83,0-.36.14-.7.4-.96"/>
      <polyline class="cls-12" points="116.6 161.33 118.52 161.33 118.52 161.34 116.6 161.34 116.6 161.33"/>
      <path class="cls-12" d="M116.74,163.08c-.26-.26-.4-.59-.4-.96,0-.29.09-.56.25-.78h1.92v1.85c-.53.41-1.29.38-1.78-.11"/>
      <polyline class="cls-12" points="106.04 161.33 116.62 161.33 116.62 161.34 106.05 161.34 106.04 161.33"/>
      <path class="cls-12" d="M118.53,166.6h0s-.01-.01-.01-.01v-3c-.64.36-1.47.28-2.02-.27-.32-.32-.49-.74-.49-1.19,0-.28.07-.54.2-.78h-9.76c.13.24.2.5.2.78,0,.45-.17.87-.49,1.19-.54.54-1.35.63-1.99.28v3.1c.25-.14.53-.22.81-.22.43,0,.86.17,1.19.49.21.21.35.46.43.73.04.15.06.31.06.47,0,.3-.08.58-.22.83h9.8c-.14-.25-.22-.53-.22-.83,0-.15.02-.31.06-.45.08-.28.22-.53.43-.74.33-.33.76-.49,1.19-.49.28,0,.56.08.81.22v-.1h.01Z"/>
      <path class="cls-4" d="M115.01,165.16c0,1.94-1.58,3.52-3.52,3.52s-3.52-1.58-3.52-3.52,1.58-3.52,3.52-3.52,3.52,1.58,3.52,3.52"/>
      <path class="cls-12" d="M113.14,167.06c-.12.22-.3.4-.53.55-.23.15-.52.23-.84.25v.61h-.41v-.61c-.46-.04-.83-.19-1.12-.44-.29-.25-.43-.58-.44-.97h.74c.02.21.1.4.24.55.14.16.33.25.59.3v-1.89c-.34-.08-.61-.17-.82-.26-.21-.09-.38-.23-.53-.42-.15-.19-.22-.45-.22-.77,0-.41.14-.75.43-1.01.29-.27.67-.42,1.14-.45v-.63h.41v.63c.43.04.78.17,1.04.41.26.24.41.55.45.93h-.74c-.03-.18-.1-.34-.23-.48-.13-.14-.31-.24-.52-.28v1.85c.33.09.61.17.81.26.21.09.39.23.53.42.14.19.22.45.22.78,0,.24-.06.47-.18.69M110.71,164.47c.15.13.36.24.64.33v-1.75c-.26.03-.47.11-.63.25-.16.14-.24.34-.24.6s.07.44.22.57M112.4,167c.15-.17.23-.37.23-.6,0-.25-.08-.44-.23-.57-.15-.13-.37-.24-.64-.32v1.79c.27-.03.49-.13.64-.3"/>
      <rect class="cls-4" x="106.13" y="163.25" width="15.44" height="8.71"/>
      <path class="cls-18" d="M108.65,165.72c-.54.54-1.35.63-1.99.28v3.09c.25-.14.53-.22.81-.22.43,0,.86.17,1.19.49.21.21.35.45.43.73l-.28.6s0-.09,0-.13c0-.36-.14-.7-.4-.96-.48-.48-1.24-.52-1.77-.12v-5.75,1.87c.53.39,1.28.35,1.76-.13.25-.26.4-.6.4-.96,0-.29-.09-.56-.25-.78h.39c.13.24.2.5.2.78,0,.45-.18.87-.49,1.19"/>
      <path class="cls-18" d="M121.01,165.99c-.64.36-1.47.28-2.02-.27-.32-.32-.49-.74-.49-1.19,0-.28.07-.54.2-.78h.39c-.16.23-.25.5-.25.78,0,.36.14.7.4.96.49.49,1.25.52,1.78.11v-1.85h.01v5.25h-.01v-3.01Z"/>
      <path class="cls-18" d="M116.16,171.39h2.58c-.14-.25-.22-.53-.22-.82,0-.16.02-.31.06-.45.19.39.28.83.23,1.28h-2.65,0"/>
      <polygon class="cls-18" points="108.82 170.7 108.82 170.7 109.09 170.1 108.82 170.7"/>
      <path class="cls-18" d="M108.54,171.39c.16-.2.25-.44.28-.69l.28-.6c.04.15.06.31.06.47,0,.29-.08.57-.22.82h1.89-2.32.04Z"/>
      <path class="cls-18" d="M118.58,170.12c.08-.28.22-.53.43-.74.33-.33.76-.49,1.19-.49.28,0,.56.08.81.22v-.1h.01v2.39h-.01v-1.9c-.53-.4-1.29-.36-1.77.12-.26.26-.4.6-.4.96,0,.3.11.59.29.82h-.33c.05-.44-.03-.89-.23-1.28"/>
      <polygon class="cls-12" points="106.66 163.74 108.55 163.74 108.56 163.75 106.66 163.75 106.66 163.74"/>
      <path class="cls-12" d="M108.42,165.49c-.48.48-1.23.52-1.76.13v-1.87h1.9c.16.23.25.5.25.78,0,.36-.14.7-.4.96"/>
      <path class="cls-12" d="M108.43,169.61c.26.26.4.6.4.96,0,.05,0,.09,0,.13l-.32.69h-1.84v-1.9c.53-.4,1.29-.36,1.77.12"/>
      <path class="cls-12" d="M119.24,169.61c.48-.48,1.24-.52,1.77-.12v1.9h-1.88c-.18-.24-.29-.52-.29-.83,0-.36.14-.7.4-.96"/>
      <polyline class="cls-12" points="119.09 163.74 121.01 163.74 121.01 163.75 119.09 163.75 119.09 163.74"/>
      <path class="cls-12" d="M119.23,165.49c-.26-.26-.4-.59-.4-.96,0-.29.09-.56.25-.78h1.92v1.85c-.53.41-1.29.38-1.78-.11"/>
      <polyline class="cls-12" points="108.53 163.74 119.11 163.74 119.11 163.75 108.54 163.75 108.53 163.74"/>
      <path class="cls-12" d="M121.02,169.01h0s-.01-.01-.01-.01v-3c-.64.36-1.47.28-2.02-.27-.32-.32-.49-.74-.49-1.19,0-.28.07-.54.2-.78h-9.76c.13.24.2.5.2.78,0,.45-.17.87-.49,1.19-.54.54-1.35.63-1.99.28v3.1c.25-.14.53-.22.81-.22.43,0,.86.17,1.19.49.21.2.35.45.43.73.04.15.06.31.06.47,0,.3-.08.58-.22.83h9.8c-.14-.25-.22-.53-.22-.83,0-.15.02-.31.06-.45.08-.28.22-.53.43-.74.33-.33.76-.49,1.19-.49.28,0,.56.08.81.22v-.1h.01Z"/>
      <path class="cls-4" d="M117.5,167.57c0,1.94-1.58,3.52-3.52,3.52s-3.52-1.58-3.52-3.52,1.58-3.52,3.52-3.52,3.52,1.58,3.52,3.52"/>
      <path class="cls-12" d="M115.63,169.47c-.12.22-.3.4-.53.55-.23.15-.52.23-.84.25v.61h-.41v-.61c-.46-.04-.83-.19-1.12-.44-.29-.26-.43-.58-.44-.97h.74c.02.21.1.4.24.55.14.16.33.26.59.3v-1.89c-.34-.08-.61-.17-.82-.26-.21-.09-.38-.23-.53-.42-.15-.19-.22-.45-.22-.77,0-.41.14-.75.43-1.01.28-.27.67-.42,1.14-.45v-.63h.41v.63c.43.04.78.17,1.04.41.26.24.41.55.45.93h-.74c-.03-.18-.1-.34-.23-.48-.13-.14-.31-.24-.52-.28v1.85c.33.09.61.17.81.26.21.09.39.23.53.42.14.19.22.45.22.78,0,.24-.06.47-.18.69M113.2,166.87c.15.13.36.24.64.33v-1.75c-.26.03-.47.11-.63.25-.16.14-.24.35-.24.6s.07.44.22.57M114.89,169.41c.15-.17.23-.37.23-.6,0-.25-.08-.44-.23-.57-.15-.13-.37-.24-.64-.32v1.79c.27-.03.49-.13.64-.3"/>
      <rect class="cls-5" x="116.57" y="153.42" width="3.34" height="5.61"/>
      <rect class="cls-5" x="121.2" y="151.74" width="3.34" height="7.29"/>
      <rect class="cls-5" x="125.82" y="149.82" width="3.34" height="9.21"/>
      <path class="cls-5" d="M127.73,145.72c-.99.1-1.98.2-2.97.31-.37.04-.37.62,0,.58.72-.07,1.45-.15,2.17-.22-2.33,2.15-5.72,3.05-8.86,2.6-.37-.05-.52.5-.15.56,3.2.46,6.63-.36,9.09-2.45-.21.56-.43,1.11-.64,1.66-.13.35.43.5.56.15.36-.94.73-1.88,1.09-2.82.06-.17-.1-.38-.28-.37"/>
      <rect class="cls-6" x="134.1" y="152.83" width="14.54" height="19.35"/>
      <path class="cls-4" d="M146.12,171.1h-9.51c-.7,0-1.27-.57-1.27-1.27v-14.71c0-.7.57-1.27,1.27-1.27h9.51c.7,0,1.27.57,1.27,1.27v14.71c0,.7-.57,1.27-1.27,1.27"/>
      <path class="cls-6" d="M137.45,156.03c-.05-.34-.33-.6-.68-.6-.39,0-.7.31-.7.7s.31.7.7.7c.26,0,.47-.14.59-.35v.02h9.04v-.47h-8.95Z"/>
      <rect class="cls-6" x="137.28" y="169.21" width="9.04" height=".47"/>
      <rect class="cls-6" x="135.87" y="159.87" width="3.75" height=".52"/>
      <rect class="cls-6" x="135.87" y="163.17" width="3.75" height=".52"/>
      <path class="cls-7" d="M145.3,165.57c-.16.29-.4.54-.72.74-.32.2-.69.31-1.13.34v.82h-.55v-.82c-.62-.06-1.12-.25-1.51-.6-.39-.34-.58-.78-.59-1.31h.99c.03.29.13.53.32.74.19.21.45.34.79.4v-2.54c-.45-.11-.82-.23-1.1-.36-.28-.12-.52-.31-.71-.57-.2-.26-.29-.6-.29-1.04,0-.55.19-1,.57-1.36.38-.36.89-.56,1.53-.6v-.84h.55v.84c.58.05,1.04.23,1.39.56.35.32.56.74.61,1.25h-.99c-.03-.24-.14-.45-.32-.64-.18-.19-.41-.32-.7-.38v2.48c.45.12.81.23,1.09.35s.52.31.71.57c.19.26.29.61.29,1.05,0,.32-.08.64-.24.93M142.04,162.09c.2.18.49.32.87.44v-2.35c-.35.03-.63.15-.84.34-.21.19-.32.46-.32.81s.1.59.29.76M144.31,165.49c.21-.22.31-.49.31-.8,0-.33-.1-.59-.31-.77s-.49-.32-.86-.43v2.4c.37-.04.65-.17.86-.4"/>
      <path class="cls-14" d="M134.85,174.39c.72,0,1.3-.53,1.3-1.19v-10.89c0-.66-.58-1.19-1.3-1.19h-9.32c-.72,0-1.3.53-1.3,1.19v10.89c0,.66.58,1.19,1.3,1.19h9.32Z"/>
      <path class="cls-14" d="M125.56,173.6c-.27,0-.49-.2-.49-.45v-10.79c0-.25.22-.45.49-.45h9.26c.27,0,.49.2.49.45v10.79c0,.25-.22.45-.49.45h-9.26Z"/>
      <rect class="cls-4" x="125.51" y="162.2" width="9.37" height="1.97"/>
      <rect class="cls-4" x="126.49" y="165.94" width="1.38" height="1.27"/>
      <rect class="cls-4" x="129.5" y="165.94" width="1.38" height="1.27"/>
      <rect class="cls-4" x="132.44" y="165.94" width="1.38" height="1.27"/>
      <rect class="cls-4" x="126.49" y="168.7" width="1.38" height="1.27"/>
      <rect class="cls-4" x="129.5" y="168.7" width="1.38" height="1.27"/>
      <rect class="cls-4" x="132.44" y="168.7" width="1.38" height="1.27"/>
      <rect class="cls-4" x="126.49" y="171.59" width="1.38" height="1.27"/>
      <rect class="cls-4" x="129.5" y="171.59" width="1.38" height="1.27"/>
      <rect class="cls-4" x="132.44" y="171.59" width="1.38" height="1.27"/>
    </g>
    <g>
      <g>
        <path class="cls-3" d="M82.88,21.38h-.28s0,0,0-.05v-1.65c0-.11.04-.21.12-.32.08-.1.18-.19.3-.25.12-.07.23-.1.33-.1h.53c.16,0,.31.02.43.07.12.05.22.12.3.21.08.09.14.18.17.27.04.09.06.18.06.25v.1s0,.01,0,.06c0,.04-.02.1-.04.16-.02.06-.05.13-.09.2-.04.07-.1.14-.17.2-.08.06-.17.11-.29.15-.12.04-.25.05-.41.04h-.96v.65ZM82.88,20.44h1.08c.17,0,.31-.04.4-.11.09-.07.15-.15.17-.22s.04-.14.04-.19v-.09c0-.06-.01-.13-.04-.21-.03-.08-.09-.16-.18-.23s-.22-.1-.39-.1h-.58c-.08,0-.15.02-.23.07-.08.05-.14.1-.19.17s-.07.14-.07.2v.7Z"/>
        <path class="cls-3" d="M87.29,19.25h-.99s-.11,0-.17,0c-.06,0-.12,0-.17.02-.05.02-.1.04-.14.08-.04.04-.07.08-.08.14s-.03.1-.03.14c0,.04,0,.11,0,.21v.87s0,.02-.02.02h-.25s-.02,0-.02-.02v-.89s0-.1,0-.19c0-.09.02-.18.05-.27.04-.09.1-.17.19-.24.06-.04.12-.08.18-.1.07-.02.13-.04.19-.05s.12-.01.17-.01h1.1v.29Z"/>
        <path class="cls-3" d="M89.1,18.99c.16,0,.29,0,.41.04.12.04.21.09.28.15.07.06.13.13.17.21.04.07.07.14.09.2s.03.12.04.16,0,.07,0,.06v.1c0,.08-.02.16-.05.26-.04.1-.09.19-.17.28-.08.09-.18.16-.3.21s-.26.08-.43.07h-.33c-.16,0-.31-.01-.43-.07-.12-.05-.22-.12-.3-.21-.08-.09-.13-.18-.17-.28-.04-.1-.05-.18-.05-.26v-.1s0-.01,0-.06.02-.1.04-.16.05-.13.09-.2c.04-.07.1-.14.17-.21.07-.06.17-.12.28-.15.11-.04.25-.05.41-.04h.24ZM89.21,20.44c.22,0,.37-.05.46-.16s.14-.22.15-.34v-.05s0-.08,0-.08v-.05c-.02-.11-.07-.22-.15-.33-.09-.11-.24-.16-.46-.16h-.46c-.22,0-.37.05-.46.16-.09.11-.14.22-.15.33v.05s0,.08,0,.08v.05c.02.12.07.23.16.34.09.1.24.16.46.16h.46Z"/>
        <path class="cls-3" d="M92.66,18.35h.28s0,0,0,.05v1.68c0,.12-.01.22-.04.3s-.07.15-.12.2c-.06.05-.13.09-.22.11-.09.02-.21.04-.35.04h-.57c-.16,0-.31-.01-.43-.07-.12-.05-.23-.12-.3-.21-.08-.09-.14-.18-.17-.27-.04-.1-.06-.18-.06-.26v-.1s0-.01,0-.06c0-.05.02-.1.04-.16.02-.06.05-.13.09-.2s.1-.14.17-.2c.08-.06.17-.11.29-.15.12-.04.25-.05.41-.04h.97v-.66ZM92.66,19.29h-1.08c-.18,0-.31.04-.4.11s-.15.15-.18.23c-.03.08-.04.14-.04.19v.08c0,.06.01.13.04.21.03.08.09.16.18.23.09.07.22.1.4.1h.75c.09,0,.15-.02.2-.06.05-.04.08-.09.1-.15.02-.07.03-.15.03-.24v-.71Z"/>
        <path class="cls-3" d="M95.15,20.4c.08-.03.14-.07.19-.12s.09-.12.12-.2c.03-.08.04-.16.04-.24v-.9h.29v.9c0,.16-.04.31-.12.45-.08.14-.19.25-.32.33-.13.08-.28.12-.44.12h-.56c-.16,0-.3-.04-.44-.12-.13-.08-.24-.19-.32-.33-.08-.14-.12-.29-.12-.45v-.9h.29s0,0,0,.02v.87c0,.08.01.16.04.24.03.08.07.15.12.2s.11.09.19.12c.08.03.15.04.23.04h.56c.08,0,.15-.01.23-.04Z"/>
        <path class="cls-3" d="M96.93,19.32c-.08.03-.14.07-.19.12s-.09.12-.12.19c-.03.08-.04.16-.04.23s.01.16.04.23c.03.08.07.14.12.19s.12.09.19.12.16.04.23.04h1.43v.29h-1.43c-.16,0-.3-.04-.44-.12-.13-.08-.24-.18-.32-.32-.08-.13-.12-.28-.12-.44s.04-.3.12-.44c.08-.13.18-.24.32-.32.13-.08.28-.12.44-.12h1.43v.29h-1.43c-.08,0-.16.01-.23.04Z"/>
        <path class="cls-3" d="M100.62,20.44v.29h-.54c-.15,0-.3-.04-.43-.11-.13-.08-.24-.18-.32-.31-.08-.13-.12-.27-.12-.43v-1.55h.29s0,0,0,.02v.64h.67s0,0,0,.02v.26s0,0-.03,0h-.65v.62c0,.13.03.23.1.32s.13.15.21.19c.04.02.09.04.16.05.07,0,.13,0,.18,0h.48Z"/>
        <path class="cls-3" d="M102.48,18.99c.16,0,.29,0,.41.04.12.04.21.09.28.15.07.06.13.13.17.21.04.07.07.14.09.2.02.06.03.12.04.16s0,.07,0,.06v.1c0,.08-.02.16-.06.26-.04.1-.09.19-.17.28-.08.09-.18.16-.3.21s-.26.08-.43.07h-.33c-.16,0-.3-.01-.43-.07-.12-.05-.22-.12-.3-.21-.08-.09-.13-.18-.17-.28-.04-.1-.06-.18-.06-.26v-.1s0-.01,0-.06.02-.1.04-.16.05-.13.09-.2c.04-.07.1-.14.17-.21.08-.06.17-.12.28-.15.12-.04.25-.05.41-.04h.24ZM102.59,20.44c.22,0,.37-.05.46-.16s.14-.22.15-.34v-.05s0-.08,0-.08v-.05c-.02-.11-.07-.22-.15-.33-.09-.11-.24-.16-.46-.16h-.46c-.22,0-.37.05-.46.16-.09.11-.14.22-.15.33v.05s0,.08,0,.08v.05c.02.12.07.23.16.34.09.1.24.16.46.16h.46Z"/>
        <path class="cls-3" d="M105.9,19.73c.12,0,.22.05.31.12s.13.21.13.41c0,.11-.03.2-.08.27-.05.07-.12.12-.2.16-.08.03-.16.05-.24.05h-1.78v-.29s1.77,0,1.77,0c.06,0,.12-.01.17-.04.05-.03.08-.09.08-.19,0-.06-.02-.11-.05-.14-.04-.03-.08-.04-.12-.05s-.07,0-.08,0h-1.29c-.07,0-.14-.02-.22-.06-.08-.04-.14-.09-.2-.18-.06-.08-.08-.19-.08-.32,0-.11.03-.21.09-.28.06-.07.13-.13.21-.16.08-.04.16-.05.23-.06h1.61v.29h-1.59c-.07,0-.13.01-.18.04-.06.03-.08.1-.08.21,0,.09.03.15.08.18.05.03.1.04.15.04h1.38Z"/>
        <path class="cls-3" d="M110,18.97v1.52c-.01.17-.05.33-.13.45-.09.16-.2.27-.32.34-.12.07-.27.11-.45.11h-1.24s-.02,0-.02-.02v-.25s0-.02.02-.02h1.24c.06,0,.12,0,.17-.01.05,0,.09-.03.13-.05.05-.04.1-.07.13-.1s.06-.06.08-.11l.04-.09h-1.13c-.13,0-.25-.02-.36-.08-.11-.05-.19-.11-.26-.18-.07-.07-.12-.15-.18-.26-.05-.11-.08-.22-.08-.33v-.92s0-.02,0-.02h.3s0,0,0,.02v.94c0,.06.01.12.04.18s.04.11.07.13c.01.01.04.04.07.07.03.03.08.07.14.09.06.03.13.05.22.06h1.24s0-1.47,0-1.47c0-.02,0-.02.02-.02h.25s.02,0,.02.02Z"/>
        <path class="cls-3" d="M113.21,19.73c.12,0,.22.05.31.12.09.07.13.21.13.41,0,.11-.03.2-.08.27-.05.07-.12.12-.2.16-.08.03-.16.05-.24.05h-1.78v-.29s1.77,0,1.77,0c.06,0,.12-.01.17-.04.05-.03.08-.09.08-.19,0-.06-.02-.11-.05-.14-.04-.03-.08-.04-.12-.05s-.07,0-.08,0h-1.29c-.07,0-.14-.02-.22-.06-.08-.04-.14-.09-.2-.18-.06-.08-.08-.19-.08-.32,0-.11.03-.21.09-.28.06-.07.13-.13.21-.16.08-.04.16-.05.23-.06h1.61v.29h-1.59c-.07,0-.13.01-.18.04-.06.03-.08.1-.08.21,0,.09.03.15.08.18.05.03.1.04.15.04h1.38Z"/>
        <path class="cls-3" d="M116.21,19.09c.08.07.14.14.17.23.03.08.04.16.04.22,0,.31-.17.48-.52.49h-1.38s0,.07,0,.07c0,.08,0,.14.02.19s.04.08.07.1c.03.02.08.04.14.04.06,0,.14.01.24.01h1.29s.06.02.06.05v.17s-.02.06-.06.06h-1.33c-.19,0-.33-.02-.44-.06-.11-.04-.18-.11-.23-.2s-.07-.21-.07-.37v-.44c0-.1.04-.21.12-.31.08-.1.18-.19.3-.26s.25-.1.38-.1h.84c.15,0,.27.03.36.1ZM116,19.72s.05-.03.08-.06c.02-.02.03-.04.04-.07s.01-.06.01-.11c0-.02,0-.05-.02-.08-.01-.03-.03-.06-.07-.09-.03-.03-.08-.04-.13-.04h-.92c-.07,0-.14.02-.21.06s-.14.1-.19.17-.08.15-.08.23h1.37c.06,0,.1,0,.12-.01Z"/>
        <path class="cls-3" d="M118.93,19.25h-.99s-.11,0-.17,0c-.06,0-.12,0-.17.02-.05.02-.1.04-.14.08-.04.04-.07.08-.08.14-.02.05-.03.1-.03.14,0,.04,0,.11,0,.21v.87s0,.02-.02.02h-.25s-.02,0-.02-.02v-.89s0-.1,0-.19c0-.09.02-.18.05-.27.03-.09.1-.17.19-.24.06-.04.12-.08.18-.1.07-.02.13-.04.19-.05.06,0,.12-.01.17-.01h1.1v.29Z"/>
        <path class="cls-3" d="M119.62,18.95l1.03,1.55h.04l1.03-1.55h.35l-1.04,1.55c-.08.13-.14.21-.16.24h-.4c-.05-.07-.1-.15-.16-.24l-1.03-1.55h.35Z"/>
        <path class="cls-3" d="M122.77,18.14v.31h-.31v-.31h.31ZM122.77,18.85v1.88h-.31v-1.88h.31Z"/>
        <path class="cls-3" d="M124.01,19.32c-.08.03-.14.07-.19.12s-.09.12-.12.19c-.03.08-.04.16-.04.23s.01.16.04.23c.03.08.07.14.12.19s.12.09.19.12.16.04.23.04h1.43v.29h-1.43c-.16,0-.3-.04-.44-.12-.13-.08-.24-.18-.32-.32-.08-.13-.12-.28-.12-.44s.04-.3.12-.44c.08-.13.18-.24.32-.32.13-.08.28-.12.44-.12h1.43v.29h-1.43c-.08,0-.16.01-.23.04Z"/>
        <path class="cls-3" d="M126.59,18.14v.31h-.31v-.31h.31ZM126.59,18.85v1.88h-.31v-1.88h.31Z"/>
        <path class="cls-3" d="M128.47,18.99c.16,0,.29,0,.41.04s.21.09.28.15c.07.06.13.13.17.21.04.07.07.14.09.2.02.06.03.12.04.16s0,.07,0,.06v.1c0,.08-.02.16-.05.26-.04.1-.09.19-.17.28-.08.09-.18.16-.3.21s-.26.08-.43.07h-.33c-.16,0-.3-.01-.43-.07-.12-.05-.22-.12-.3-.21-.08-.09-.13-.18-.17-.28-.04-.1-.06-.18-.06-.26v-.1s0-.01,0-.06.02-.1.04-.16.05-.13.09-.2c.04-.07.1-.14.17-.21.08-.06.17-.12.28-.15.12-.04.25-.05.41-.04h.24ZM128.58,20.44c.22,0,.37-.05.46-.16.09-.1.14-.22.15-.34v-.05s0-.08,0-.08v-.05c-.02-.11-.07-.22-.15-.33-.09-.11-.24-.16-.46-.16h-.46c-.22,0-.37.05-.46.16-.09.11-.14.22-.15.33v.05s0,.08,0,.08v.05c.02.12.07.23.16.34.09.1.24.16.46.16h.46Z"/>
        <path class="cls-3" d="M131.89,19.73c.12,0,.22.05.31.12.09.07.13.21.13.41,0,.11-.03.2-.08.27-.05.07-.12.12-.2.16-.08.03-.16.05-.24.05h-1.78v-.29s1.77,0,1.77,0c.06,0,.12-.01.17-.04.05-.03.08-.09.08-.19,0-.06-.02-.11-.05-.14-.04-.03-.08-.04-.12-.05s-.07,0-.08,0h-1.29c-.07,0-.14-.02-.22-.06-.08-.04-.14-.09-.2-.18-.06-.08-.08-.19-.08-.32,0-.11.03-.21.09-.28.06-.07.13-.13.21-.16.08-.04.16-.05.23-.06h1.61v.29h-1.59c-.07,0-.13.01-.18.04-.06.03-.08.1-.08.21,0,.09.03.15.08.18.05.03.1.04.15.04h1.38Z"/>
      </g>
      <rect class="cls-1" x="144.37" y="18.11" width="4.16" height="1.32"/>
      <rect class="cls-20" x="144.37" y="19.43" width="4.16" height=".66"/>
      <rect class="cls-2" x="144.37" y="20.09" width="4.16" height=".66"/>
      <rect class="cls-17" x="139.28" y="18.11" width="1.39" height="2.63"/>
      <rect class="cls-17" x="142.05" y="18.11" width="1.39" height="2.63"/>
      <rect class="cls-4" x="140.66" y="18.11" width="1.39" height="2.63"/>
      <polyline class="cls-10" points="138.35 20.75 134.19 20.75 134.19 19.43 138.35 19.43"/>
      <rect class="cls-15" x="134.19" y="18.11" width="1.39" height="1.32"/>
      <rect class="cls-4" x="135.57" y="18.11" width="2.77" height="1.32"/>
      <polygon class="cls-4" points="134.55 18.67 134.8 18.67 134.88 18.44 134.96 18.67 135.21 18.67 135.01 18.81 135.08 19.04 134.88 18.89 134.68 19.04 134.75 18.81 134.55 18.67"/>
      <path class="cls-4" d="M14.84.27L.55,4.78l14.33,11.12,14.04-10.84L14.84.27ZM20.37,10.39l-3.12,2.39-2.66-1.71,2.04-1.67c.37-.33.47-.56.47-.56v-3.18c.03-.54-.73-.85-.73-.85-.94-.45-2.38-.43-2.38-.43-1.33-.02-3.8.92-3.8.92v2.95l-3.69-2.37c2.35-.95,3.42-1.2,3.42-1.2,2.33-.65,3.96-.69,3.96-.69,2.61-.14,4.69.58,4.69.58,2.08.57,2.94,1.3,2.94,1.3,1.72,1.29,1.33,2.61,1.33,2.61-.27.24-2.47,1.91-2.47,1.91"/>
      <polygon class="cls-9" points=".02 8.24 .02 4.69 14.92 16.03 29.45 4.96 29.45 8.22 14.87 21.46 .02 8.24"/>
      <path class="cls-9" d="M6.42,5.91l-2.39-1.48s3.15-1.23,5.77-1.73,3.58-.53,5.07-.47c1.49.06,4.37.63,6.26,1.56,1.89.93,2.29,1.89,2.4,2.42.12.53.09,1.75-.34,2.13l-.42.38s.31-.69-.13-1.56c-.44-.87-1.39-1.7-3.12-2.29-1.73-.59-3.27-.92-5.14-.89-1.87.03-3.56.44-4.87.82-1.3.38-3.09,1.11-3.09,1.11"/>
      <path class="cls-9" d="M10.2,5.37v2.94l4.29,2.83s.94-.73,1.6-1.28c.66-.54.94-.87,1.01-1.03v-3.24s.08.51-1.06,1.15c-1.13.64-1.49.85-1.49.85l-4.35-2.21Z"/>
      <path class="cls-9" d="M14.88,16.23L0,4.68,14.85,0h.04s14.57,4.97,14.57,4.97l-14.57,11.26ZM.55,4.78l14.34,11.12,14.04-10.84L14.84.27.55,4.78Z"/>
      <path class="cls-9" d="M17.27,13.09l-.08-.05L3.75,4.39l.24-.09s3.19-1.24,5.8-1.74c1.92-.37,3-.49,4.14-.49.27,0,.57,0,.95.02,1.62.06,4.5.68,6.31,1.57,1.43.7,2.26,1.54,2.47,2.51.12.56.1,1.82-.38,2.25l-.43.38-5.59,4.29ZM4.32,4.45l12.94,8.32,5.44-4.17.42-.38c.38-.34.41-1.51.3-2-.2-.89-.98-1.67-2.33-2.33-1.78-.87-4.61-1.48-6.2-1.54-.38-.01-.68-.02-.95-.02-.97,0-1.94.08-4.1.49-2.17.41-4.73,1.34-5.51,1.63"/>
      <path class="cls-9" d="M14.47,7.64l-4.29-2.19.04-.07-.03-.08c.1-.04,2.43-.93,3.82-.93h.03c1.46.01,2.38.36,2.77.69.36.3.41.63.16,1.02-.18.28-.7.67-1.43,1.05-.71.38-1.02.5-1.03.51h-.03ZM10.32,5.39l4.15,2.12c.09-.04.4-.18.99-.49.7-.37,1.21-.74,1.38-1,.21-.33.17-.6-.13-.85-.37-.31-1.27-.65-2.69-.66h-.03c-1.21,0-3.21.72-3.68.89"/>
      <path class="cls-9" d="M40.5,6.74c.14.02.36.08.68.19.31.11.68.32,1.09.63.41.31.77.78,1.08,1.4.31.62.46,1.41.46,2.36s-.18,1.67-.54,2.27c-.36.61-.79,1.06-1.29,1.35-.5.29-.97.47-1.42.53h-7.62V6.73h7.57ZM40.44,14.29c.23-.04.52-.14.84-.3.32-.16.63-.46.92-.9.29-.43.43-1.03.43-1.78,0-.88-.15-1.57-.45-2.07-.3-.5-.62-.84-.95-1.01-.33-.18-.61-.28-.84-.32h-6.28v6.38h6.33Z"/>
      <rect class="cls-9" x="44.63" y="6.75" width="1.19" height="8.7"/>
      <path class="cls-9" d="M52.3,9.12c.77-.01,1.46-.13,2.06-.34.61-.22,1.08-.43,1.4-.65.33-.22.55-.38.66-.49l.96-.91v8.75h-1.14v-6.32c-.5.3-1.08.55-1.75.76-.66.21-1.39.32-2.18.33-.83,0-1.61-.1-2.33-.32-.72-.22-1.36-.49-1.92-.82v6.36h-1.14V6.73l1,.86c.14.13.39.3.75.53.36.23.86.45,1.51.68.64.23,1.35.33,2.11.32"/>
      <rect class="cls-8" x="59.08" y="10.44" width="2.29" height="1.16"/>
      <g>
        <path class="cls-19" d="M72.92,6.66v1.19h-6.39c-.25,0-.53.08-.84.23s-.63.39-.93.71c-.22.23-.41.53-.57.9-.16.37-.25.83-.25,1.37,0,.36.06.72.17,1.06s.28.67.49.97c.19.27.44.53.75.78.31.26.7.39,1.17.4h6.39v1.19h-6.39c-.71,0-1.37-.2-1.97-.59-.6-.4-1.08-.93-1.43-1.61-.35-.67-.52-1.41-.52-2.21s.17-1.53.52-2.21c.35-.67.83-1.21,1.43-1.6.6-.4,1.26-.59,1.97-.59h6.39Z"/>
        <path class="cls-19" d="M77.88,9.57c.53-.02.99.02,1.38.15.39.12.71.29.96.51.25.22.44.45.58.69.14.25.24.48.31.69.06.21.1.4.12.55.02.16.02.22.02.2v.35c0,.25-.06.54-.19.87-.12.33-.32.64-.58.93-.26.3-.6.54-1.01.72s-.89.26-1.44.23h-1.1c-.55.03-1.03-.05-1.44-.23-.41-.18-.75-.42-1.01-.72-.26-.3-.45-.61-.58-.93-.12-.32-.19-.61-.19-.87v-.35s0-.04.02-.2c.02-.16.06-.34.12-.55.06-.21.17-.44.31-.69s.34-.48.59-.69c.25-.22.57-.39.96-.51.39-.12.85-.17,1.38-.15h.8ZM78.26,14.48c.73,0,1.25-.18,1.54-.53.3-.35.47-.73.51-1.14v-.17s.01-.28.01-.28v-.18c-.06-.38-.23-.75-.52-1.11s-.81-.54-1.54-.54h-1.56c-.74,0-1.25.18-1.54.54-.29.36-.46.73-.5,1.11l-.02.18v.26l.02.18c.04.4.21.78.51,1.14.3.35.81.53,1.54.53h1.56Z"/>
        <path class="cls-19" d="M89.38,10.97c.26.46.39.96.39,1.51v3h-.99v-3c0-.27-.05-.54-.14-.81-.09-.27-.22-.49-.4-.67-.17-.18-.38-.31-.64-.41-.26-.09-.52-.14-.77-.14h-1.86c-.5,0-1.15,0-1.95,0,0-.23,0-.02,0,.65s0,1.1,0,1.31v3.07h-.99v-6.01h4.79c.52,0,1.01.13,1.46.4.45.27.81.64,1.07,1.1Z"/>
        <path class="cls-19" d="M95.56,14.48v.96h-1.81c-.52,0-1.01-.13-1.46-.39-.45-.26-.8-.61-1.07-1.05-.26-.44-.4-.92-.41-1.44v-5.25h.97s0,0,0,.07v2.16h2.27s0,0,0,.07v.89s-.03,0-.09,0h-2.18v2.08c0,.42.11.78.33,1.06s.45.5.69.64c.12.08.3.13.55.15.24.02.44.03.59.02h1.61Z"/>
        <path class="cls-19" d="M103.89,10.95c.24.42.36.94.36,1.56,0-.1,0-.08,0,.06h0v.69c0,.58-.12,1.03-.33,1.34-.22.31-.48.53-.79.63s-.63.17-.97.17c-.34,0-.6.02-.76.02h-3.14c-.49,0-.91-.18-1.26-.54-.35-.36-.52-.79-.52-1.3s.17-.95.52-1.31c.35-.36.77-.55,1.26-.55h4.82c0-.07-.02-.14-.04-.2-.02-.07-.04-.11-.05-.13-.09-.18-.22-.35-.39-.5s-.36-.27-.56-.36c-.21-.08-.43-.12-.65-.12h-4.64v-.94c0-.08,0-.11,0-.08h4.64c.54,0,1.03.14,1.5.42.22.13.41.29.57.47s.31.4.46.65ZM103.19,13.4c0-.09,0-.29-.01-.62h-5.06c-.18,0-.33.08-.47.24-.13.16-.19.36-.19.58s.06.42.19.58c.13.16.29.24.47.24h3.28c.37,0,.67,0,.89-.02s.39-.07.52-.16c.14-.1.23-.22.29-.35.05-.14.08-.3.09-.49Z"/>
        <path class="cls-19" d="M106.08,9.64h0,3.26c.54-.03,1,.02,1.39.14.39.12.72.29.97.5.25.21.45.44.59.68.14.24.24.47.31.68s.11.4.12.55c.02.15.02.22.02.19v.34c0,.25-.06.54-.19.86-.13.32-.32.62-.58.92-.26.29-.61.53-1.02.71s-.9.25-1.46.23h-1.92c-.47,0-.85-.04-1.17-.12s-.56-.21-.75-.38c-.19-.17-.32-.4-.41-.67-.08-.28-.13-.61-.13-1v-5.67c0-.17,0-.23,0-.17h.96v2.21ZM106.08,12.97c0,.32.03.59.1.82s.18.39.35.51c.17.12.39.18.68.18h2.51c.58,0,1.03-.12,1.34-.35.31-.24.51-.49.6-.76.09-.27.14-.51.14-.71v-.29c0-.16-.04-.38-.13-.65-.09-.27-.29-.52-.59-.76s-.76-.36-1.35-.36h-3.64v2.37Z"/>
        <path class="cls-19" d="M114.69,6.69v1.04h-1.04v-1.04h1.04ZM114.69,9.11v6.35h-1.04v-6.35h1.04Z"/>
        <path class="cls-19" d="M115.74,6.69h1.05s-.01,0,0,0v5.65c0,.41.1.78.3,1.1.2.32.44.57.73.75.29.18.57.27.83.27h2.15v1.05h-2.18c-.55,0-1.04-.17-1.48-.51s-.78-.76-1.02-1.27-.37-1.01-.37-1.49v-5.29c0-.27,0-.35,0-.26Z"/>
        <path class="cls-19" d="M123,6.69v1.04h-1.04v-1.04h1.04ZM123,9.11v6.35h-1.04v-6.35h1.04Z"/>
        <path class="cls-19" d="M130.75,7.4h.96c0-.06,0,0,0,.18v5.68c0,.39-.04.73-.13,1.01-.08.28-.22.5-.41.68-.19.17-.44.3-.75.38s-.7.12-1.17.12h-1.93c-.55.03-1.04-.05-1.46-.23s-.76-.42-1.03-.71c-.27-.29-.46-.6-.59-.92s-.19-.61-.19-.86v-.34s0-.04.02-.19c.02-.15.06-.34.12-.55.07-.21.17-.44.31-.68.14-.24.34-.47.59-.69.25-.21.58-.38.97-.5.4-.12.86-.17,1.39-.14h3.27v-2.22ZM130.75,10.58h-3.66c-.59,0-1.04.12-1.35.36s-.51.5-.6.77c-.09.27-.14.49-.14.65v.29c0,.2.05.44.14.71.09.28.29.53.6.77.31.23.75.35,1.34.35h2.53c.29,0,.52-.06.68-.19.17-.12.28-.3.35-.52s.1-.49.1-.82v-2.38Z"/>
        <path class="cls-19" d="M139.87,10.95c.24.42.36.94.36,1.56,0-.1,0-.08,0,.06h0v.69c0,.58-.12,1.03-.33,1.34-.22.31-.48.53-.79.63s-.63.17-.97.17c-.34,0-.6.02-.76.02h-3.15c-.49,0-.91-.18-1.26-.54s-.52-.79-.52-1.3.17-.95.52-1.31c.35-.36.77-.55,1.26-.55h4.83c0-.07-.02-.14-.04-.2s-.04-.11-.06-.13c-.09-.18-.22-.35-.39-.5-.17-.15-.36-.27-.56-.36-.21-.08-.42-.12-.65-.12h-4.64v-.94c0-.08,0-.11,0-.08h4.64c.54,0,1.03.14,1.5.42.22.13.41.29.57.47.16.18.31.4.46.65ZM139.18,13.4c0-.09,0-.29-.01-.62h-5.06c-.18,0-.33.08-.47.24-.13.16-.19.36-.19.58s.06.42.19.58c.13.16.29.24.47.24h3.28c.37,0,.67,0,.89-.02s.39-.07.52-.16c.14-.1.23-.22.29-.35.05-.14.08-.3.09-.49Z"/>
        <path class="cls-19" d="M147.68,7.4h.96c0-.06,0,0,0,.18v5.68c0,.39-.04.73-.13,1.01s-.22.5-.41.68c-.19.17-.44.3-.75.38s-.7.12-1.17.12h-1.93c-.55.03-1.04-.05-1.46-.23s-.76-.42-1.03-.71c-.27-.29-.46-.6-.59-.92s-.19-.61-.19-.86v-.34s0-.04.03-.19c.02-.15.06-.34.12-.55.07-.21.17-.44.31-.68.14-.24.34-.47.59-.69.25-.21.58-.38.97-.5.4-.12.86-.17,1.39-.14h3.27v-2.22ZM147.68,10.58h-3.66c-.59,0-1.04.12-1.35.36s-.51.5-.6.77-.13.49-.13.65v.29c0,.2.05.44.14.71.09.28.29.53.6.77.31.23.75.35,1.34.35h2.53c.29,0,.52-.06.68-.19.17-.12.28-.3.35-.52s.1-.49.1-.82v-2.38Z"/>
      </g>
    </g>
    <g>
      <path class="cls-6" d="M138.69,100.24c0,.72-.62,1.31-1.38,1.31h-52.18c-.76,0-1.38-.59-1.38-1.31v-29.42c0-.72.62-1.3,1.38-1.3h52.18c.76,0,1.38.59,1.38,1.3v29.42Z"/>
      <path class="cls-4" d="M136.7,98.07c0,.77-.67,1.4-1.48,1.4h-48.01c-.81,0-1.48-.63-1.48-1.4v-25.06c0-.77.67-1.4,1.48-1.4h48.01c.81,0,1.48.64,1.48,1.4v25.06Z"/>
      <polygon class="cls-6" points="138.68 101.55 83.66 101.55 73.98 110.43 148.44 110.43 138.68 101.55"/>
      <path class="cls-11" d="M147.46,112.11h-72.41c-.58,0-1.06-.47-1.06-1.06v-.6s.01-.03.03-.03h74.4s.03.01.03.03v.67c0,.54-.44.98-.98.98"/>
      <path class="cls-4" d="M117.5,109.53h-12.57c-.41,0-.75-.34-.75-.75s.34-.75.75-.75h12.57c.41,0,.75.34.75.75s-.34.75-.75.75"/>
      <polygon class="cls-4" points="123.01 106.82 99.25 106.82 102.59 104.53 119.61 104.53 123.01 106.82"/>
      <path class="cls-11" d="M140.7,65.94h-16.88c-.86,0-1.56.72-1.56,1.6v31.79c0,.88.7,1.6,1.56,1.6h23.26c.86,0,1.56-.72,1.56-1.6v-24.96l-7.94-8.43Z"/>
      <path class="cls-4" d="M140.09,67.49h-14.94c-.76,0-1.38.65-1.38,1.46v28.97c0,.8.62,1.46,1.38,1.46h20.59c.76,0,1.38-.65,1.38-1.46v-22.75l-7.03-7.69Z"/>
      <path class="cls-4" d="M137.99,75.89l-.08-7.1c0-.37-.3-.67-.66-.67h-12.12c-.36,0-.66.3-.66.68v29.28c0,.37.3.68.66.68h20.62c.36,0,.66-.3.66-.68v-20.85c0-.37-.29-.68-.66-.68h-7.1c-.36,0-.65-.3-.66-.67"/>
      <path class="cls-11" d="M129.21,78.23c0,.61-.49,1.1-1.1,1.1s-1.1-.49-1.1-1.1.49-1.1,1.1-1.1,1.1.49,1.1,1.1"/>
      <rect class="cls-11" x="131.18" y="77.23" width="13.35" height=".93"/>
      <rect class="cls-11" x="126.16" y="70.16" width="10.23" height=".78"/>
      <rect class="cls-11" x="126.16" y="73.82" width="10.23" height=".78"/>
      <rect class="cls-11" x="126.29" y="84.24" width="8.32" height=".86"/>
      <rect class="cls-11" x="126.29" y="88" width="8.32" height=".86"/>
      <rect class="cls-7" x="142.63" y="91.38" width="1.24" height="6.65"/>
      <rect class="cls-7" x="140.2" y="95.15" width="1.24" height="2.88"/>
      <rect class="cls-7" x="137.88" y="92.61" width="1.24" height="5.41"/>
      <rect class="cls-7" x="135.42" y="93.96" width="1.24" height="4.07"/>
      <rect class="cls-11" x="130.49" y="94.49" width="1.24" height="3.53"/>
      <rect class="cls-11" x="128.04" y="93.25" width="1.24" height="4.78"/>
      <rect class="cls-11" x="132.99" y="93.25" width="1.24" height="4.78"/>
      <path class="cls-4" d="M145.97,85.33c0,2.83-2.29,5.12-5.12,5.12s-5.12-2.29-5.12-5.12,2.29-5.12,5.12-5.12,5.12,2.29,5.12,5.12"/>
      <path class="cls-16" d="M142.98,87.88c-.16.29-.4.54-.72.74-.31.2-.69.31-1.13.34v.82h-.55v-.82c-.62-.05-1.12-.25-1.5-.59-.39-.34-.58-.78-.59-1.31h.99c.03.28.13.53.32.74.19.21.45.34.79.4v-2.54c-.45-.11-.82-.23-1.1-.36-.28-.12-.51-.31-.71-.57-.2-.26-.29-.6-.29-1.04,0-.55.19-1,.57-1.36.38-.36.89-.56,1.53-.6v-.84h.55v.84c.58.05,1.04.23,1.39.55.35.32.55.74.61,1.25h-.99c-.03-.24-.14-.45-.31-.64-.18-.19-.41-.32-.7-.38v2.48c.45.11.81.23,1.09.35.28.12.52.31.71.56.19.26.29.61.29,1.05,0,.32-.08.63-.24.93M139.72,84.4c.2.18.48.32.86.44v-2.35c-.35.03-.63.15-.84.34-.21.19-.32.46-.32.81s.1.59.29.76M141.99,87.8c.21-.22.31-.49.31-.8,0-.33-.1-.59-.31-.77-.2-.18-.49-.32-.86-.43v2.4c.37-.04.65-.17.86-.4"/>
      <rect class="cls-6" x="104.57" y="74.78" width="26.65" height="33.57"/>
      <rect class="cls-4" x="105.99" y="76.05" width="23.94" height="31.16"/>
      <path class="cls-6" d="M126.6,95.05h-18.15c-.35,0-.64-.29-.64-.64s.29-.64.64-.64h18.15c.35,0,.64.29.64.64s-.28.64-.64.64"/>
      <path class="cls-6" d="M127.8,84.6h-8.31c-.35,0-.64-.29-.64-.64s.29-.64.64-.64h8.31c.35,0,.64.29.64.64s-.28.64-.64.64"/>
      <path class="cls-6" d="M126.6,99.59h-18.15c-.35,0-.64-.29-.64-.64s.29-.64.64-.64h18.15c.35,0,.64.29.64.64s-.28.64-.64.64"/>
      <path class="cls-6" d="M120.31,103.96h-11.89c-.35,0-.64-.29-.64-.64s.29-.64.64-.64h11.89c.35,0,.64.29.64.64s-.28.64-.64.64"/>
      <path class="cls-6" d="M127.85,80.2h-5.07c-.35,0-.64-.29-.64-.64s.29-.64.64-.64h5.07c.35,0,.64.29.64.64s-.28.64-.64.64"/>
      <path class="cls-13" d="M117.58,90.89h-8.38c-.73,0-1.32-.59-1.32-1.32s.59-1.32,1.32-1.32h8.38c.73,0,1.32.59,1.32,1.32s-.59,1.32-1.32,1.32"/>
      <path class="cls-13" d="M125.65,90.89h-3.45c-.73,0-1.32-.59-1.32-1.32s.59-1.32,1.32-1.32h3.45c.73,0,1.32.59,1.32,1.32s-.59,1.32-1.32,1.32"/>
      <path class="cls-7" d="M117.62,81.9c0,2.92-2.37,5.29-5.29,5.29s-5.29-2.37-5.29-5.29,2.37-5.29,5.29-5.29,5.29,2.37,5.29,5.29"/>
      <path class="cls-4" d="M114.53,84.53c-.17.3-.42.56-.74.76-.33.2-.72.32-1.17.35v.85h-.57v-.85c-.64-.06-1.15-.26-1.55-.61s-.6-.8-.61-1.35h1.02c.03.29.14.55.33.77.19.22.46.35.81.41v-2.62c-.47-.12-.85-.24-1.13-.37-.29-.13-.53-.32-.74-.59-.2-.26-.31-.62-.31-1.07,0-.57.2-1.04.59-1.41.4-.37.92-.58,1.58-.62v-.87h.57v.87c.59.05,1.07.24,1.44.57.36.33.57.76.63,1.3h-1.02c-.03-.24-.14-.47-.33-.67-.18-.2-.42-.33-.72-.39v2.56c.46.12.84.24,1.13.36.29.12.53.32.73.58.2.27.3.63.3,1.08,0,.34-.08.66-.25.96M111.16,80.94c.2.18.5.33.89.45v-2.43c-.36.04-.65.15-.87.35-.22.2-.32.48-.32.83s.1.61.3.79M113.51,84.45c.21-.23.32-.51.32-.83,0-.34-.11-.61-.32-.79-.21-.18-.51-.33-.89-.45v2.48c.38-.04.67-.18.89-.41"/>
      <path class="cls-14" d="M133.98,115.89h-15.37c-.82,0-1.5-.67-1.5-1.5v-21.86c0-.82.68-1.5,1.5-1.5h15.37c.82,0,1.5.68,1.5,1.5v21.86c0,.83-.68,1.5-1.5,1.5"/>
      <path class="cls-4" d="M133.15,97.15h-13.51c-.44,0-.79-.36-.79-.79v-2.24c0-.43.36-.79.79-.79h13.51c.43,0,.79.36.79.79v2.24c0,.44-.36.79-.79.79"/>
      <path class="cls-4" d="M126.72,101.15h-1.74c-.27,0-.5-.22-.5-.5v-1.23c0-.28.23-.5.5-.5h1.74c.27,0,.5.22.5.5v1.23c0,.28-.23.5-.5.5"/>
      <path class="cls-4" d="M121.3,101.15h-1.74c-.27,0-.5-.22-.5-.5v-1.23c0-.28.23-.5.5-.5h1.74c.27,0,.5.22.5.5v1.23c0,.28-.23.5-.5.5"/>
      <path class="cls-4" d="M133.18,101.15h-2.94c-.28,0-.5-.22-.5-.5v-1.23c0-.28.22-.5.5-.5h2.94c.27,0,.5.22.5.5v1.23c0,.28-.23.5-.5.5"/>
      <path class="cls-4" d="M125.4,104.33h-1.74c-.27,0-.5-.22-.5-.5v-1.23c0-.28.23-.5.5-.5h1.74c.27,0,.5.22.5.5v1.23c0,.28-.23.5-.5.5"/>
      <path class="cls-4" d="M129.29,104.33h-1.74c-.27,0-.5-.22-.5-.5v-1.23c0-.28.23-.5.5-.5h1.74c.27,0,.5.22.5.5v1.23c0,.28-.23.5-.5.5"/>
      <path class="cls-4" d="M133.23,104.33h-1.74c-.27,0-.5-.22-.5-.5v-1.23c0-.28.23-.5.5-.5h1.74c.27,0,.5.22.5.5v1.23c0,.28-.23.5-.5.5"/>
      <path class="cls-4" d="M121.3,104.38h-1.74c-.27,0-.5-.22-.5-.5v-1.23c0-.28.23-.5.5-.5h1.74c.27,0,.5.22.5.5v1.23c0,.28-.23.5-.5.5"/>
      <path class="cls-4" d="M125.4,107.41h-1.74c-.27,0-.5-.22-.5-.5v-1.23c0-.28.23-.5.5-.5h1.74c.27,0,.5.22.5.5v1.23c0,.28-.23.5-.5.5"/>
      <path class="cls-4" d="M129.29,107.41h-1.74c-.27,0-.5-.22-.5-.5v-1.23c0-.28.23-.5.5-.5h1.74c.27,0,.5.22.5.5v1.23c0,.28-.23.5-.5.5"/>
      <path class="cls-4" d="M121.3,107.46h-1.74c-.27,0-.5-.22-.5-.5v-1.23c0-.28.23-.5.5-.5h1.74c.27,0,.5.22.5.5v1.23c0,.28-.23.5-.5.5"/>
      <path class="cls-4" d="M125.4,110.5h-1.74c-.27,0-.5-.22-.5-.5v-1.23c0-.28.23-.5.5-.5h1.74c.27,0,.5.22.5.5v1.23c0,.28-.23.5-.5.5"/>
      <path class="cls-4" d="M129.29,110.5h-1.74c-.27,0-.5-.22-.5-.5v-1.23c0-.28.23-.5.5-.5h1.74c.27,0,.5.22.5.5v1.23c0,.28-.23.5-.5.5"/>
      <path class="cls-4" d="M121.3,110.54h-1.74c-.27,0-.5-.22-.5-.5v-1.23c0-.28.23-.5.5-.5h1.74c.27,0,.5.22.5.5v1.23c0,.28-.23.5-.5.5"/>
      <path class="cls-4" d="M125.4,113.68h-1.74c-.27,0-.5-.22-.5-.5v-1.23c0-.28.23-.5.5-.5h1.74c.27,0,.5.22.5.5v1.23c0,.28-.23.5-.5.5"/>
      <path class="cls-4" d="M129.29,113.68h-1.74c-.27,0-.5-.22-.5-.5v-1.23c0-.28.23-.5.5-.5h1.74c.27,0,.5.22.5.5v1.23c0,.28-.23.5-.5.5"/>
      <path class="cls-4" d="M133.23,113.68h-1.74c-.27,0-.5-.22-.5-.5v-7.5c0-.28.23-.5.5-.5h1.74c.27,0,.5.22.5.5v7.5c0,.28-.23.5-.5.5"/>
      <path class="cls-4" d="M121.35,113.68h-1.74c-.27,0-.5-.22-.5-.5v-1.23c0-.28.23-.5.5-.5h1.74c.27,0,.5.22.5.5v1.23c0,.28-.23.5-.5.5"/>
      <rect class="cls-4" x="74.78" y="77.54" width="23.75" height="13.39"/>
      <path class="cls-18" d="M78.66,81.35c-.83.83-2.08.97-3.06.44v4.76c.39-.22.82-.33,1.25-.33.67,0,1.33.26,1.84.76.32.32.54.7.66,1.12l-.42.92c0-.07.01-.14.01-.21,0-.56-.22-1.08-.61-1.47-.74-.74-1.91-.8-2.72-.18v-8.84,2.88c.81.6,1.96.54,2.7-.2.39-.39.61-.92.61-1.47,0-.44-.14-.85-.39-1.2h.59c.19.37.31.78.31,1.21,0,.69-.27,1.34-.76,1.83"/>
      <path class="cls-18" d="M97.67,81.76c-.99.56-2.26.43-3.1-.41-.49-.49-.76-1.14-.76-1.84,0-.43.12-.84.31-1.2h.59c-.25.35-.39.77-.39,1.2,0,.56.22,1.08.61,1.47.75.75,1.93.8,2.74.17v-2.85h.02v8.08h-.02v-4.63Z"/>
      <path class="cls-18" d="M90.2,90.07h3.97c-.22-.38-.34-.81-.34-1.27,0-.24.03-.47.1-.69.3.6.42,1.28.35,1.96h-4.07s0,0,0,0"/>
      <polygon class="cls-18" points="78.91 89.01 78.91 89.01 79.34 88.09 78.91 89.01"/>
      <path class="cls-18" d="M78.48,90.07c.24-.31.39-.67.43-1.06l.42-.92c.07.23.1.47.1.71,0,.45-.13.88-.34,1.27h2.9s-3.57,0-3.57,0h0s.06,0,.06,0Z"/>
      <path class="cls-18" d="M93.93,88.11c.12-.43.34-.82.66-1.14.51-.51,1.17-.76,1.83-.76.43,0,.86.12,1.25.33v-.15h.02v3.68h-.02v-2.92c-.81-.62-1.98-.56-2.72.18-.39.39-.61.92-.61,1.47,0,.47.16.91.44,1.27h-.51c.07-.68-.05-1.36-.35-1.97"/>
      <polygon class="cls-12" points="75.59 78.3 78.51 78.3 78.51 78.31 75.59 78.31 75.59 78.3"/>
      <path class="cls-12" d="M78.29,80.98c-.74.74-1.89.8-2.7.2v-2.88h2.92c.25.35.39.77.39,1.21,0,.56-.22,1.08-.61,1.47"/>
      <path class="cls-12" d="M78.31,87.33c.39.39.61.92.61,1.47,0,.07,0,.14-.01.21l-.49,1.06h-2.83v-2.92c.82-.62,1.98-.56,2.72.18"/>
      <path class="cls-12" d="M94.95,87.33c.74-.74,1.91-.8,2.72-.18v2.92h-2.89c-.28-.36-.44-.8-.44-1.27,0-.56.22-1.08.61-1.47"/>
      <polyline class="cls-12" points="94.72 78.3 97.67 78.3 97.67 78.31 94.71 78.31 94.72 78.3"/>
      <path class="cls-12" d="M94.93,80.98c-.39-.39-.61-.92-.61-1.47,0-.44.14-.85.39-1.21h2.96v2.85c-.82.63-1.99.58-2.74-.17"/>
      <path class="cls-12" d="M78.48,78.3h16.27s0,0,0,.01h-16.26s0,0,0-.01"/>
      <path class="cls-12" d="M97.69,86.4h0s-.02-.02-.02-.02v-4.62c-.99.56-2.26.42-3.1-.42-.49-.49-.76-1.14-.76-1.83,0-.43.11-.84.31-1.21h-15.01c.19.37.31.78.31,1.21,0,.69-.27,1.34-.76,1.83-.83.83-2.08.97-3.06.44v4.76c.39-.22.82-.33,1.25-.33.67,0,1.33.26,1.84.76.32.32.54.7.66,1.12.07.23.1.47.1.71,0,.45-.13.89-.34,1.27h15.08c-.22-.38-.34-.82-.34-1.27,0-.24.03-.47.1-.69.12-.43.34-.82.66-1.14.51-.5,1.17-.76,1.84-.76.43,0,.86.12,1.25.33v-.15h.02Z"/>
      <path class="cls-4" d="M92.26,84.19c0,2.99-2.42,5.41-5.41,5.41s-5.41-2.42-5.41-5.41,2.42-5.41,5.41-5.41,5.41,2.42,5.41,5.41"/>
      <path class="cls-12" d="M89.4,87.11c-.19.34-.46.62-.82.85s-.79.35-1.3.38v.94h-.63v-.94c-.71-.06-1.28-.29-1.72-.68-.44-.39-.67-.89-.67-1.5h1.13c.03.33.15.61.37.85.21.24.51.39.9.46v-2.91c-.52-.13-.94-.27-1.26-.41-.32-.14-.59-.36-.82-.65-.22-.29-.34-.69-.34-1.19,0-.63.22-1.15.66-1.56.44-.41,1.02-.64,1.75-.69v-.97h.63v.97c.66.05,1.19.27,1.6.64.4.37.64.85.7,1.44h-1.13c-.04-.27-.16-.52-.36-.74-.2-.22-.47-.37-.8-.44v2.84c.51.13.93.27,1.25.4s.59.35.81.65c.22.3.33.69.33,1.2,0,.37-.09.73-.28,1.07M85.66,83.12c.22.2.56.37.99.5v-2.69c-.4.04-.73.17-.97.39-.24.22-.36.53-.36.93s.11.67.34.87M88.26,87.02c.24-.26.35-.56.35-.92,0-.38-.12-.67-.35-.88-.23-.21-.56-.37-.99-.5v2.75c.42-.05.75-.2.99-.45"/>
      <rect class="cls-4" x="78.61" y="81.24" width="23.75" height="13.39"/>
      <path class="cls-18" d="M82.49,85.05c-.83.83-2.08.97-3.06.44v4.76c.39-.22.82-.33,1.25-.33.67,0,1.33.26,1.84.76.32.32.54.7.66,1.12l-.42.92c0-.07.01-.14.01-.21,0-.56-.22-1.08-.61-1.47-.74-.74-1.91-.8-2.72-.18v-8.84,2.88c.81.6,1.96.54,2.7-.2.39-.39.61-.92.61-1.47,0-.44-.14-.85-.39-1.2h.59c.19.37.31.78.31,1.21,0,.69-.27,1.34-.76,1.83"/>
      <path class="cls-18" d="M101.5,85.46c-.99.56-2.26.43-3.1-.41-.49-.49-.76-1.14-.76-1.84,0-.43.12-.84.31-1.2h.59c-.25.35-.39.77-.39,1.2,0,.56.22,1.08.61,1.47.75.75,1.93.8,2.74.17v-2.85h.02v8.08h-.02v-4.63Z"/>
      <path class="cls-18" d="M94.03,93.78h3.97c-.22-.38-.34-.81-.34-1.27,0-.24.03-.47.1-.69.3.6.42,1.28.35,1.96h-4.07s0,0,0,0"/>
      <polygon class="cls-18" points="82.74 92.71 82.74 92.71 83.17 91.79 82.74 92.71"/>
      <path class="cls-18" d="M82.31,93.78c.24-.31.39-.67.43-1.06l.42-.92c.07.23.1.47.1.71,0,.45-.13.88-.34,1.27h2.9s-3.57,0-3.57,0h0s.06,0,.06,0Z"/>
      <path class="cls-18" d="M97.76,91.81c.12-.43.34-.82.66-1.14.51-.51,1.17-.76,1.83-.76.43,0,.86.12,1.25.33v-.15h.02v3.68h-.02v-2.92c-.81-.62-1.98-.56-2.72.18-.39.39-.61.92-.61,1.47,0,.47.16.91.44,1.27h-.51c.07-.68-.05-1.36-.35-1.97"/>
      <polygon class="cls-12" points="79.42 82 82.34 82 82.34 82.01 79.42 82.01 79.42 82"/>
      <path class="cls-12" d="M82.12,84.69c-.74.74-1.89.8-2.7.2v-2.88h2.92c.25.35.39.77.39,1.21,0,.56-.22,1.08-.61,1.47"/>
      <path class="cls-12" d="M82.15,91.04c.39.39.61.92.61,1.47,0,.07,0,.14-.01.21l-.49,1.06h-2.83v-2.92c.82-.62,1.98-.56,2.72.18"/>
      <path class="cls-12" d="M98.78,91.04c.74-.74,1.91-.8,2.72-.18v2.92h-2.89c-.28-.36-.44-.8-.44-1.27,0-.56.22-1.08.61-1.47"/>
      <polyline class="cls-12" points="98.55 82 101.5 82 101.5 82.01 98.54 82.01 98.55 82"/>
      <path class="cls-12" d="M98.76,84.69c-.39-.39-.61-.92-.61-1.47,0-.44.14-.85.39-1.21h2.96v2.85c-.82.63-1.99.58-2.74-.17"/>
      <path class="cls-12" d="M82.31,82h16.27s0,0,0,.01h-16.26s0,0,0-.01"/>
      <path class="cls-12" d="M101.52,90.11h0s-.02-.02-.02-.02v-4.62c-.99.56-2.26.42-3.1-.42-.49-.49-.76-1.14-.76-1.83,0-.43.11-.84.31-1.21h-15.01c.19.37.31.78.31,1.21,0,.69-.27,1.34-.76,1.83-.83.83-2.08.97-3.06.44v4.76c.39-.22.82-.33,1.25-.33.67,0,1.33.26,1.84.76.32.32.54.7.66,1.12.07.23.1.47.1.71,0,.45-.13.89-.34,1.27h15.08c-.22-.38-.34-.82-.34-1.27,0-.24.03-.47.1-.69.12-.43.34-.82.66-1.14.51-.5,1.17-.76,1.84-.76.43,0,.86.12,1.25.33v-.15h.02Z"/>
      <path class="cls-4" d="M96.1,87.89c0,2.99-2.42,5.41-5.41,5.41s-5.41-2.42-5.41-5.41,2.42-5.41,5.41-5.41,5.41,2.42,5.41,5.41"/>
      <path class="cls-12" d="M93.23,90.81c-.19.34-.46.62-.82.85s-.79.35-1.3.38v.94h-.63v-.94c-.71-.06-1.28-.29-1.72-.68-.44-.39-.67-.89-.67-1.5h1.13c.03.33.15.61.37.85.21.24.51.39.9.46v-2.91c-.52-.13-.94-.27-1.26-.41-.32-.14-.59-.36-.82-.65-.22-.29-.34-.69-.34-1.19,0-.63.22-1.15.66-1.56.44-.41,1.02-.64,1.75-.69v-.97h.63v.97c.66.05,1.19.27,1.6.64.4.37.64.85.7,1.44h-1.13c-.04-.27-.16-.52-.36-.74-.2-.22-.47-.37-.81-.44v2.84c.51.13.93.27,1.25.4s.59.35.81.65c.22.3.33.69.33,1.2,0,.37-.09.73-.28,1.07M89.49,86.82c.22.2.56.37.99.5v-2.69c-.4.04-.73.17-.97.39-.24.22-.36.53-.36.93s.11.67.34.87M92.09,90.72c.24-.26.35-.56.35-.92,0-.38-.12-.67-.35-.88-.23-.21-.56-.37-.99-.5v2.75c.42-.05.75-.2.99-.45"/>
      <rect class="cls-5" x="94.97" y="66.64" width="4.94" height="7.34"/>
      <rect class="cls-5" x="101.81" y="64.44" width="4.94" height="9.54"/>
      <rect class="cls-5" x="108.65" y="61.93" width="4.94" height="12.04"/>
      <path class="cls-5" d="M111.47,55.86c-1.46.15-2.93.3-4.39.45-.54.06-.55.91,0,.85,1.07-.11,2.14-.22,3.21-.33-3.45,3.18-8.45,4.51-13.1,3.84-.54-.08-.77.75-.23.82,4.74.68,9.79-.53,13.44-3.62-.32.82-.63,1.64-.95,2.46-.2.51.63.74.83.23.53-1.39,1.07-2.78,1.61-4.17.09-.24-.15-.57-.41-.54"/>
    </g>
  </g>
</svg>