<?xml version="1.0" encoding="UTF-8"?>
<svg id="Capa_2" xmlns="http://www.w3.org/2000/svg" viewBox="0 0 130.16 217.96">
  <defs>
    <style>
      .cls-1 {
        fill: #f9cf16;
      }

      .cls-2 {
        fill: #cd142a;
      }

      .cls-3 {
        fill: #646365;
      }

      .cls-4 {
        fill: #fff;
      }

      .cls-5 {
        fill: #132c45;
      }

      .cls-6 {
        fill: #625f60;
      }

      .cls-7 {
        fill: #505050;
      }

      .cls-8 {
        fill: #d00e4d;
      }

      .cls-9 {
        fill: #d00e4c;
      }

      .cls-10 {
        fill: #d22e1f;
      }

      .cls-11 {
        fill: #dcdcdc;
      }

      .cls-12 {
        fill: #d20f48;
      }

      .cls-13 {
        fill: #1d458c;
      }

      .cls-14 {
        fill: #e1222c;
      }

      .cls-15 {
        fill: #828384;
      }

      .cls-16 {
        fill: #1b4180;
      }
    </style>
  </defs>
  <g id="Capa_1-2" data-name="Capa_1">
    <g>
      <path class="cls-6" d="M59.68,207.5h1.14v8.37h-1.14v-8.37Z"/>
      <path class="cls-6" d="M65.21,211.31c-.25.09-.46.21-.62.38s-.29.37-.38.63-.13.51-.13.76.04.5.13.76.21.46.38.63.37.29.62.38.5.13.75.13h4.61v.93h-4.61c-.51,0-.98-.13-1.41-.38-.43-.25-.77-.59-1.03-1.03-.25-.43-.38-.9-.38-1.41s.12-.98.38-1.41c.25-.43.59-.78,1.03-1.03.43-.25.9-.38,1.41-.38h4.61v.93h-4.61c-.25,0-.5.04-.75.13Z"/>
      <path class="cls-6" d="M76.7,210.24c.5-.02.94.02,1.32.14.37.12.68.28.92.49.24.21.42.43.56.66s.23.45.29.66c.06.21.1.38.11.53.01.15.02.21.02.19v.33c0,.24-.06.52-.18.83-.12.31-.3.61-.55.89-.25.28-.57.51-.97.69-.4.17-.85.25-1.38.22h-1.05c-.52.03-.98-.05-1.38-.22-.4-.17-.72-.4-.97-.69-.25-.28-.43-.58-.55-.89-.12-.31-.18-.59-.18-.83v-.33s0-.04.02-.19c.01-.15.05-.33.11-.53.06-.21.16-.42.29-.66s.32-.46.56-.66.54-.37.92-.49c.37-.12.81-.16,1.32-.14h.76ZM77.06,214.93c.7,0,1.19-.17,1.47-.51.28-.34.45-.7.49-1.09v-.16s.01-.26.01-.26v-.18c-.06-.37-.22-.72-.5-1.06s-.77-.51-1.48-.51h-1.49c-.7,0-1.2.17-1.48.51s-.44.7-.48,1.06l-.02.18v.25l.02.18c.04.39.2.75.49,1.09.28.34.78.51,1.47.51h1.49Z"/>
      <path class="cls-6" d="M89.02,211.57c.25.44.38.92.38,1.44v2.87h-.94v-2.87c0-.26-.04-.52-.13-.77s-.21-.47-.38-.64c-.16-.17-.36-.3-.61-.39s-.49-.13-.74-.13h-1.78c-.48,0-1.1,0-1.86,0,0-.22,0-.01,0,.62,0,.64,0,1.06,0,1.25v2.94h-.94v-5.74h4.58c.5,0,.97.13,1.4.38.43.26.77.61,1.03,1.05Z"/>
      <path class="cls-6" d="M95.55,210.24c.5-.02.94.02,1.32.14.37.12.68.28.92.49.24.21.42.43.56.66s.23.45.29.66c.06.21.1.38.11.53.01.15.02.21.02.19v.33c0,.24-.06.52-.18.83-.12.31-.3.61-.55.89-.25.28-.57.51-.97.69-.4.17-.85.25-1.38.22h-1.05c-.52.03-.98-.05-1.38-.22-.4-.17-.72-.4-.97-.69-.25-.28-.43-.58-.55-.89-.12-.31-.18-.59-.18-.83v-.33s0-.04.02-.19c.01-.15.05-.33.11-.53.06-.21.16-.42.29-.66s.32-.46.56-.66.54-.37.92-.49c.37-.12.81-.16,1.32-.14h.76ZM95.91,214.93c.7,0,1.19-.17,1.47-.51.28-.34.45-.7.49-1.09v-.16s.01-.26.01-.26v-.18c-.06-.37-.22-.72-.5-1.06s-.77-.51-1.48-.51h-1.49c-.7,0-1.2.17-1.48.51s-.44.7-.48,1.06l-.02.18v.25l.02.18c.04.39.2.75.49,1.09.28.34.78.51,1.47.51h1.49Z"/>
      <path class="cls-6" d="M110.97,211.56c.23.4.35.9.35,1.49,0-.09,0-.07,0,.06h0v.66c0,.55-.11.98-.32,1.28-.21.3-.46.5-.76.61-.3.1-.61.16-.93.17-.33,0-.57.02-.73.02h-3.01c-.47,0-.87-.17-1.2-.52-.33-.34-.5-.76-.5-1.24s.17-.9.5-1.25c.33-.35.73-.52,1.2-.52h4.61c0-.07-.02-.13-.04-.19s-.04-.11-.05-.13c-.09-.18-.21-.34-.38-.48-.16-.14-.34-.26-.54-.34-.2-.08-.41-.12-.62-.12h-4.44v-.9c0-.08,0-.1,0-.08h4.44c.51,0,.99.13,1.43.4.21.12.39.27.55.45.15.17.3.38.44.62ZM110.31,213.9c0-.08,0-.28-.01-.59h-4.83c-.17,0-.32.08-.45.23-.12.16-.18.34-.18.56s.06.4.18.56c.12.15.27.23.45.23h3.13c.35,0,.64,0,.85-.02.21-.01.38-.07.5-.16.13-.09.22-.21.27-.34.05-.13.08-.29.09-.47Z"/>
      <path class="cls-6" d="M114.4,217.94h-.91c0,.05,0,0,0-.16v-5.33c0-.35.13-.69.4-1.02.27-.33.59-.6.98-.81s.75-.31,1.08-.31h1.71c.53-.02.99.05,1.39.22s.72.39.97.67c.25.28.44.57.56.88.12.3.18.58.18.82v.32s0,.04-.02.18c-.02.15-.05.32-.11.52-.06.2-.16.42-.3.65-.14.23-.33.45-.57.65s-.55.36-.92.48-.82.16-1.32.14h-3.11v2.1ZM114.4,214.92h3.47c.57,0,1-.12,1.29-.35s.48-.47.57-.73c.08-.25.13-.46.13-.62v-.28c0-.19-.04-.42-.13-.68-.09-.26-.28-.5-.57-.73s-.72-.33-1.27-.33h-1.88c-.24,0-.49.07-.74.22-.25.15-.46.34-.62.56-.16.23-.24.45-.24.66v2.26Z"/>
      <path class="cls-6" d="M123.81,217.94h-.91c0,.05,0,0,0-.16v-5.33c0-.35.13-.69.4-1.02.27-.33.59-.6.98-.81s.75-.31,1.08-.31h1.71c.53-.02.99.05,1.39.22s.72.39.97.67c.25.28.44.57.56.88.12.3.18.58.18.82v.32s0,.04-.02.18c-.02.15-.05.32-.11.52-.06.2-.16.42-.3.65-.14.23-.33.45-.57.65s-.55.36-.92.48-.82.16-1.32.14h-3.11v2.1ZM123.81,214.92h3.47c.57,0,1-.12,1.29-.35s.48-.47.57-.73c.08-.25.13-.46.13-.62v-.28c0-.19-.04-.42-.13-.68-.09-.26-.28-.5-.57-.73s-.72-.33-1.27-.33h-1.88c-.24,0-.49.07-.74.22-.25.15-.46.34-.62.56-.16.23-.24.45-.24.66v2.26Z"/>
    </g>
    <g>
      <path class="cls-9" d="M40.5,29.99c.14.02.36.08.68.19.31.11.68.32,1.09.63.41.31.77.78,1.08,1.4.31.62.46,1.41.46,2.36s-.18,1.67-.54,2.27c-.36.6-.79,1.06-1.29,1.35-.5.29-.97.47-1.42.53h-7.62v-8.73h7.57ZM40.44,37.55c.23-.04.52-.14.84-.3.32-.16.63-.46.92-.9.29-.43.43-1.03.43-1.78,0-.88-.15-1.57-.45-2.07-.3-.5-.62-.84-.95-1.01-.33-.18-.61-.28-.84-.32h-6.28v6.38h6.33Z"/>
      <rect class="cls-9" x="44.63" y="30" width="1.19" height="8.7"/>
      <path class="cls-9" d="M52.29,32.38c.77-.01,1.46-.13,2.06-.34.61-.22,1.08-.43,1.4-.65.33-.22.55-.38.66-.49l.96-.91v8.75h-1.14v-6.32c-.5.3-1.08.55-1.75.76-.66.21-1.39.32-2.18.33-.83,0-1.61-.1-2.33-.32-.72-.22-1.36-.49-1.92-.82v6.36h-1.14v-8.75l1,.87c.14.13.39.3.75.53.36.23.86.45,1.51.68.64.23,1.35.33,2.11.32"/>
      <rect class="cls-8" x="59.07" y="33.69" width="2.29" height="1.16"/>
      <g>
        <path class="cls-15" d="M72.92,29.91v1.19h-6.39c-.25,0-.53.08-.84.23s-.63.39-.93.71c-.22.23-.41.53-.57.9-.16.37-.25.83-.25,1.37,0,.36.06.72.17,1.06s.28.67.49.97c.19.27.44.53.75.78.31.26.7.39,1.17.4h6.39v1.19h-6.39c-.71,0-1.37-.2-1.97-.59-.6-.4-1.08-.93-1.43-1.61-.35-.67-.52-1.41-.52-2.21s.17-1.53.52-2.21c.35-.67.83-1.21,1.43-1.6.6-.4,1.26-.59,1.97-.59h6.39Z"/>
        <path class="cls-15" d="M74.29,29.95h8.79v1.2h-7.59v2.4h7.59v1.2h-7.59v2.8h7.59v1.2h-8.79v-8.79Z"/>
        <path class="cls-15" d="M84.51,29.93h10v1.2h-8.8v2.4h6.66v1.2h-6.66v4h-1.2v-8.8Z"/>
        <path class="cls-15" d="M94.9,35.29h3.29c.06,0,.08.03.08.08v.45c0,.05-.03.08-.08.08h-3.37v-.53c0-.05.03-.08.08-.08Z"/>
        <path class="cls-15" d="M107.76,29.94c.14.02.37.08.68.19.32.11.68.32,1.09.63.41.31.77.78,1.08,1.41.31.62.46,1.42.46,2.37s-.18,1.68-.54,2.29c-.36.61-.79,1.06-1.3,1.36-.5.3-.98.47-1.43.53h-7.67v-8.79h7.61ZM107.7,37.55c.24-.04.52-.14.85-.31.33-.16.63-.46.92-.9.29-.44.43-1.03.43-1.79,0-.89-.15-1.58-.45-2.08-.3-.5-.62-.84-.95-1.02-.33-.18-.61-.28-.84-.32h-6.32v6.42h6.37Z"/>
        <path class="cls-15" d="M113.03,29.94v1.04h-1.04v-1.04h1.04ZM113.03,32.36v6.35h-1.04v-6.35h1.04Z"/>
        <path class="cls-15" d="M121.43,34.21c.24.42.36.94.36,1.56,0-.1,0-.08,0,.06h0v.69c0,.58-.12,1.03-.33,1.34-.22.31-.48.53-.79.63s-.63.17-.98.17c-.34,0-.6.02-.76.02h-3.15c-.49,0-.91-.18-1.26-.54-.35-.36-.52-.79-.52-1.3s.17-.95.52-1.31c.35-.36.77-.55,1.26-.55h4.83c0-.07-.02-.14-.04-.2s-.04-.11-.05-.13c-.09-.18-.23-.35-.39-.5-.17-.15-.36-.27-.56-.36-.21-.08-.42-.12-.65-.12h-4.64v-.94c0-.08,0-.11,0-.08h4.64c.54,0,1.03.14,1.5.42.22.13.41.29.57.47.16.18.31.4.46.65ZM120.74,36.65c0-.09,0-.29-.01-.62h-5.06c-.18,0-.33.08-.47.24-.13.16-.19.36-.19.58s.06.42.19.58c.13.16.29.24.47.24h3.28c.37,0,.67,0,.89-.02.22-.01.39-.07.52-.16.14-.1.23-.22.29-.35.05-.14.08-.3.1-.49Z"/>
        <path class="cls-15" d="M129.77,34.22c.26.46.39.96.39,1.51v3h-.99v-3c0-.27-.05-.54-.14-.81-.09-.27-.22-.49-.4-.67-.17-.18-.38-.31-.64-.41-.26-.09-.52-.14-.77-.14h-1.86c-.5,0-1.15,0-1.95,0,0-.23,0-.02,0,.65s0,1.1,0,1.31v3.07h-.99v-6.01h4.79c.52,0,1.01.13,1.46.4.45.27.81.64,1.07,1.1Z"/>
      </g>
    </g>
    <g>
      <g>
        <path class="cls-3" d="M63.75,21.38h-.28s0,0,0-.05v-1.65c0-.11.04-.21.12-.32s.18-.19.3-.25c.12-.07.23-.1.33-.1h.53c.16,0,.31.02.43.07.12.05.22.12.3.21.08.09.14.18.17.27.04.09.06.18.06.25v.1s0,.01,0,.06c0,.04-.02.1-.04.16-.02.06-.05.13-.09.2-.04.07-.1.14-.17.2-.08.06-.17.11-.29.15-.12.04-.25.05-.41.04h-.96v.65ZM63.75,20.45h1.08c.17,0,.31-.04.4-.11.09-.07.15-.15.17-.22s.04-.14.04-.19v-.09c0-.06-.01-.13-.04-.21-.03-.08-.09-.16-.18-.23s-.22-.1-.39-.1h-.58c-.08,0-.15.02-.23.07-.08.05-.14.1-.19.17s-.07.14-.07.2v.7Z"/>
        <path class="cls-3" d="M68.16,19.26h-.99s-.11,0-.17,0c-.06,0-.12,0-.17.02-.05.02-.1.04-.14.08-.04.04-.07.08-.08.14s-.03.1-.03.14c0,.04,0,.11,0,.21v.87s0,.02-.02.02h-.25s-.02,0-.02-.02v-.89s0-.1,0-.19c0-.09.02-.18.05-.27.04-.09.1-.17.19-.24.06-.04.12-.08.18-.1.07-.02.13-.04.19-.05s.12-.01.17-.01h1.1v.29Z"/>
        <path class="cls-3" d="M69.97,19c.16,0,.29,0,.41.04.12.04.21.09.28.15.07.06.13.13.17.21.04.07.07.14.09.2s.03.12.04.16,0,.07,0,.06v.1c0,.08-.02.16-.05.26-.04.1-.09.19-.17.28-.08.09-.18.16-.3.21s-.26.08-.43.07h-.33c-.16,0-.31-.01-.43-.07-.12-.05-.22-.12-.3-.21-.08-.09-.13-.18-.17-.28-.04-.1-.06-.18-.06-.26v-.1s0-.01,0-.06.02-.1.04-.16.05-.13.09-.2c.04-.07.1-.14.17-.21.07-.06.17-.12.28-.15.11-.04.25-.05.41-.04h.24ZM70.08,20.45c.22,0,.37-.05.46-.16s.14-.22.15-.34v-.05s0-.08,0-.08v-.05c-.02-.11-.07-.22-.15-.33-.09-.11-.24-.16-.46-.16h-.46c-.22,0-.37.05-.46.16-.09.11-.14.22-.15.33v.05s0,.08,0,.08v.05c.02.12.07.23.16.34.09.1.24.16.46.16h.46Z"/>
        <path class="cls-3" d="M73.54,18.35h.28s0,0,0,.05v1.68c0,.12-.01.22-.04.3s-.07.15-.12.2c-.06.05-.13.09-.22.11-.09.02-.21.04-.35.04h-.57c-.16,0-.31-.01-.43-.07-.12-.05-.23-.12-.3-.21-.08-.09-.14-.18-.17-.27-.04-.1-.06-.18-.06-.26v-.1s0-.01,0-.06c0-.05.02-.1.04-.16.02-.06.05-.13.09-.2.04-.07.1-.14.17-.2.08-.06.17-.11.29-.15.12-.04.25-.05.41-.04h.97v-.66ZM73.54,19.29h-1.08c-.18,0-.31.04-.4.11s-.15.15-.18.23c-.03.08-.04.14-.04.19v.08c0,.06.01.13.04.21.03.08.09.16.18.23.09.07.22.1.4.1h.75c.09,0,.15-.02.2-.06.05-.04.08-.09.1-.15.02-.07.03-.15.03-.24v-.71Z"/>
        <path class="cls-3" d="M76.02,20.41c.08-.03.14-.07.19-.12s.09-.12.12-.2c.03-.08.04-.16.04-.24v-.9h.29v.9c0,.16-.04.31-.12.45-.08.14-.19.25-.32.33-.13.08-.28.12-.44.12h-.56c-.16,0-.3-.04-.44-.12-.13-.08-.24-.19-.32-.33-.08-.14-.12-.29-.12-.45v-.9h.29s0,0,0,.02v.87c0,.08.01.16.04.24.03.08.07.15.12.2s.11.09.19.12c.08.03.15.04.23.04h.56c.08,0,.15-.01.23-.04Z"/>
        <path class="cls-3" d="M77.8,19.33c-.08.03-.14.07-.19.12s-.09.12-.12.19c-.03.08-.04.16-.04.23s.01.16.04.23c.03.08.07.14.12.19s.12.09.19.12.16.04.23.04h1.43v.29h-1.43c-.16,0-.3-.04-.44-.12-.13-.08-.24-.18-.32-.32-.08-.13-.12-.28-.12-.44s.04-.3.12-.44c.08-.13.18-.24.32-.32.13-.08.28-.12.44-.12h1.43v.29h-1.43c-.08,0-.16.01-.23.04Z"/>
        <path class="cls-3" d="M81.49,20.45v.29h-.54c-.15,0-.3-.04-.43-.11-.13-.08-.24-.18-.32-.31-.08-.13-.12-.27-.12-.43v-1.55h.29s0,0,0,.02v.64h.67s0,0,0,.02v.26s0,0-.03,0h-.65v.62c0,.13.03.23.1.32s.13.15.21.19c.04.02.09.04.16.05.07,0,.13,0,.18,0h.48Z"/>
        <path class="cls-3" d="M83.35,19c.16,0,.29,0,.41.04.12.04.21.09.28.15.07.06.13.13.17.21.04.07.07.14.09.2.02.06.03.12.04.16s0,.07,0,.06v.1c0,.08-.02.16-.06.26-.04.1-.09.19-.17.28-.08.09-.18.16-.3.21s-.26.08-.43.07h-.33c-.16,0-.3-.01-.43-.07s-.22-.12-.3-.21c-.08-.09-.13-.18-.17-.28-.04-.1-.06-.18-.06-.26v-.1s0-.01,0-.06c0-.05.02-.1.04-.16s.05-.13.09-.2c.04-.07.1-.14.17-.21.08-.06.17-.12.28-.15.12-.04.25-.05.41-.04h.24ZM83.46,20.45c.22,0,.37-.05.46-.16s.14-.22.15-.34v-.05s0-.08,0-.08v-.05c-.02-.11-.07-.22-.15-.33-.09-.11-.24-.16-.46-.16h-.46c-.22,0-.37.05-.46.16-.09.11-.14.22-.15.33v.05s0,.08,0,.08v.05c.02.12.07.23.16.34.09.1.24.16.46.16h.46Z"/>
        <path class="cls-3" d="M86.78,19.74c.12,0,.22.05.31.12.09.07.13.21.13.41,0,.11-.03.2-.08.27-.05.07-.12.12-.2.16-.08.03-.16.05-.24.05h-1.78v-.29s1.77,0,1.77,0c.06,0,.12-.01.17-.04.05-.03.08-.09.08-.19,0-.06-.02-.11-.05-.14-.04-.03-.08-.04-.12-.05s-.07,0-.08,0h-1.29c-.07,0-.14-.02-.22-.06-.08-.04-.14-.09-.2-.18-.06-.08-.08-.19-.08-.32,0-.11.03-.21.09-.28s.13-.13.21-.16c.08-.04.16-.05.23-.06h1.61v.29h-1.59c-.07,0-.13.01-.18.04-.06.03-.08.1-.08.21,0,.09.03.15.08.18.05.03.1.04.15.04h1.38Z"/>
        <path class="cls-3" d="M90.87,18.98v1.52c-.01.17-.05.33-.13.45-.09.16-.2.27-.32.34-.12.07-.27.11-.45.11h-1.24s-.02,0-.02-.02v-.25s0-.02.02-.02h1.24c.06,0,.12,0,.17-.01.05,0,.09-.03.13-.05.05-.04.1-.07.13-.1s.06-.06.08-.11l.04-.09h-1.13c-.13,0-.25-.02-.36-.08-.11-.05-.19-.11-.26-.18-.07-.07-.12-.15-.18-.26-.05-.11-.08-.22-.08-.33v-.92s0-.02,0-.02h.3s0,0,0,.02v.94c0,.06.01.12.04.18s.04.11.07.13c.01.01.04.04.07.07.03.03.08.07.14.09.06.03.13.05.22.06h1.24s0-1.47,0-1.47c0-.02,0-.02.02-.02h.25s.02,0,.02.02Z"/>
        <path class="cls-3" d="M94.09,19.74c.12,0,.22.05.31.12.09.07.13.21.13.41,0,.11-.03.2-.08.27-.05.07-.12.12-.2.16-.08.03-.16.05-.24.05h-1.78v-.29s1.77,0,1.77,0c.06,0,.12-.01.17-.04.05-.03.08-.09.08-.19,0-.06-.02-.11-.05-.14-.04-.03-.08-.04-.12-.05s-.07,0-.08,0h-1.29c-.07,0-.14-.02-.22-.06-.08-.04-.14-.09-.2-.18-.06-.08-.08-.19-.08-.32,0-.11.03-.21.09-.28.06-.07.13-.13.21-.16.08-.04.16-.05.23-.06h1.61v.29h-1.59c-.07,0-.13.01-.18.04-.06.03-.08.1-.08.21,0,.09.03.15.08.18.05.03.1.04.15.04h1.38Z"/>
        <path class="cls-3" d="M97.08,19.1c.08.07.14.14.17.23.03.08.04.16.04.22,0,.31-.17.48-.52.49h-1.38s0,.07,0,.07c0,.08,0,.14.02.19s.04.08.07.1c.03.02.08.04.14.04.06,0,.14.01.24.01h1.29s.06.02.06.05v.17s-.02.06-.06.06h-1.33c-.19,0-.33-.02-.44-.06-.11-.04-.18-.11-.23-.2s-.07-.21-.07-.37v-.44c0-.1.04-.21.12-.31.08-.1.18-.19.3-.26s.25-.1.38-.1h.84c.15,0,.27.03.36.1ZM96.88,19.73s.05-.03.08-.06c.02-.02.03-.04.04-.07,0-.03.01-.06.01-.11,0-.02,0-.05-.02-.08-.01-.03-.03-.06-.07-.09-.03-.03-.08-.04-.13-.04h-.92c-.07,0-.14.02-.21.06s-.14.1-.19.17-.08.15-.08.23h1.37c.06,0,.1,0,.12-.01Z"/>
        <path class="cls-3" d="M99.8,19.26h-.99s-.11,0-.17,0c-.06,0-.12,0-.17.02-.05.02-.1.04-.14.08-.04.04-.07.08-.08.14-.02.05-.03.1-.03.14,0,.04,0,.11,0,.21v.87s0,.02-.02.02h-.25s-.02,0-.02-.02v-.89s0-.1,0-.19c0-.09.02-.18.05-.27.03-.09.1-.17.19-.24.06-.04.12-.08.18-.1.07-.02.13-.04.19-.05.06,0,.12-.01.17-.01h1.1v.29Z"/>
        <path class="cls-3" d="M100.49,18.95l1.03,1.55h.04l1.03-1.55h.35l-1.04,1.55c-.08.13-.14.21-.16.24h-.4c-.05-.07-.1-.15-.16-.24l-1.03-1.55h.35Z"/>
        <path class="cls-3" d="M103.64,18.14v.31h-.31v-.31h.31ZM103.64,18.86v1.88h-.31v-1.88h.31Z"/>
        <path class="cls-3" d="M104.88,19.33c-.08.03-.14.07-.19.12s-.09.12-.12.19c-.03.08-.04.16-.04.23s.01.16.04.23c.03.08.07.14.12.19s.12.09.19.12.16.04.23.04h1.43v.29h-1.43c-.16,0-.3-.04-.44-.12-.13-.08-.24-.18-.32-.32-.08-.13-.12-.28-.12-.44s.04-.3.12-.44c.08-.13.18-.24.32-.32.13-.08.28-.12.44-.12h1.43v.29h-1.43c-.08,0-.16.01-.23.04Z"/>
        <path class="cls-3" d="M107.47,18.14v.31h-.31v-.31h.31ZM107.47,18.86v1.88h-.31v-1.88h.31Z"/>
        <path class="cls-3" d="M109.34,19c.16,0,.29,0,.41.04s.21.09.28.15c.07.06.13.13.17.21.04.07.07.14.09.2.02.06.03.12.04.16s0,.07,0,.06v.1c0,.08-.02.16-.06.26-.04.1-.09.19-.17.28-.08.09-.18.16-.3.21s-.26.08-.43.07h-.33c-.16,0-.3-.01-.43-.07-.12-.05-.22-.12-.3-.21-.08-.09-.13-.18-.17-.28-.04-.1-.06-.18-.06-.26v-.1s0-.01,0-.06.02-.1.04-.16.05-.13.09-.2c.04-.07.1-.14.17-.21.08-.06.17-.12.28-.15.12-.04.25-.05.41-.04h.24ZM109.46,20.45c.22,0,.37-.05.46-.16.09-.1.14-.22.15-.34v-.05s0-.08,0-.08v-.05c-.02-.11-.07-.22-.15-.33-.09-.11-.24-.16-.46-.16h-.46c-.22,0-.37.05-.46.16-.09.11-.14.22-.15.33v.05s0,.08,0,.08v.05c.02.12.07.23.16.34.09.1.24.16.46.16h.46Z"/>
        <path class="cls-3" d="M112.77,19.74c.12,0,.22.05.31.12.09.07.13.21.13.41,0,.11-.03.2-.08.27-.05.07-.12.12-.2.16-.08.03-.16.05-.24.05h-1.78v-.29s1.77,0,1.77,0c.06,0,.12-.01.17-.04.05-.03.08-.09.08-.19,0-.06-.02-.11-.05-.14-.04-.03-.08-.04-.12-.05s-.07,0-.08,0h-1.29c-.07,0-.14-.02-.22-.06-.08-.04-.14-.09-.2-.18-.06-.08-.08-.19-.08-.32,0-.11.03-.21.09-.28.06-.07.13-.13.21-.16.08-.04.16-.05.23-.06h1.61v.29h-1.59c-.07,0-.13.01-.18.04-.06.03-.08.1-.08.21,0,.09.03.15.08.18.05.03.1.04.15.04h1.38Z"/>
      </g>
      <rect class="cls-1" x="125.24" y="18.11" width="4.16" height="1.32"/>
      <rect class="cls-16" x="125.24" y="19.43" width="4.16" height=".66"/>
      <rect class="cls-2" x="125.24" y="20.09" width="4.16" height=".66"/>
      <rect class="cls-14" x="120.15" y="18.12" width="1.39" height="2.63"/>
      <rect class="cls-14" x="122.92" y="18.12" width="1.39" height="2.63"/>
      <rect class="cls-4" x="121.54" y="18.12" width="1.39" height="2.63"/>
      <polyline class="cls-10" points="119.22 20.75 115.06 20.75 115.06 19.43 119.22 19.43"/>
      <rect class="cls-13" x="115.06" y="18.11" width="1.39" height="1.32"/>
      <rect class="cls-4" x="116.44" y="18.11" width="2.77" height="1.32"/>
      <polygon class="cls-4" points="115.42 18.67 115.67 18.67 115.75 18.44 115.83 18.67 116.08 18.67 115.88 18.81 115.95 19.04 115.75 18.9 115.55 19.04 115.62 18.81 115.42 18.67"/>
      <path class="cls-4" d="M14.84.27L.55,4.78l14.33,11.12,14.04-10.84L14.84.27ZM20.37,10.39l-3.12,2.39-2.66-1.71,2.04-1.67c.37-.33.47-.56.47-.56v-3.18c.03-.54-.73-.85-.73-.85-.94-.45-2.38-.43-2.38-.43-1.33-.02-3.8.92-3.8.92v2.95l-3.69-2.37c2.35-.95,3.42-1.2,3.42-1.2,2.33-.65,3.96-.69,3.96-.69,2.61-.14,4.68.58,4.68.58,2.08.57,2.94,1.3,2.94,1.3,1.72,1.29,1.33,2.61,1.33,2.61-.27.24-2.47,1.91-2.47,1.91"/>
      <polygon class="cls-9" points=".02 8.24 .02 4.69 14.92 16.03 29.45 4.96 29.45 8.22 14.87 21.46 .02 8.24"/>
      <path class="cls-9" d="M6.42,5.9l-2.39-1.48s3.15-1.23,5.77-1.73c2.62-.5,3.58-.53,5.07-.47,1.5.06,4.37.63,6.26,1.55,1.89.93,2.29,1.89,2.4,2.42.12.53.09,1.75-.34,2.13l-.42.38s.31-.69-.13-1.56c-.44-.87-1.39-1.7-3.12-2.29-1.73-.59-3.27-.92-5.14-.89-1.87.03-3.57.44-4.87.82-1.3.38-3.09,1.11-3.09,1.11"/>
      <path class="cls-9" d="M10.2,5.37v2.94l4.29,2.83s.94-.73,1.6-1.28c.66-.54.94-.87,1.01-1.03v-3.24s.08.51-1.06,1.15c-1.13.64-1.49.85-1.49.85l-4.35-2.21Z"/>
      <path class="cls-9" d="M14.88,16.23L0,4.68,14.85,0h.04s14.57,4.97,14.57,4.97l-14.57,11.26ZM.55,4.78l14.34,11.12,14.04-10.84L14.84.27.55,4.78Z"/>
      <path class="cls-9" d="M17.27,13.09l-.08-.05L3.75,4.39l.24-.09s3.19-1.24,5.8-1.74c1.92-.37,3-.49,4.14-.49.27,0,.57,0,.95.02,1.62.06,4.5.68,6.31,1.57,1.43.7,2.26,1.54,2.47,2.51.12.56.1,1.82-.38,2.25l-.43.38-5.59,4.29ZM4.32,4.45l12.94,8.32,5.44-4.17.42-.38c.38-.34.41-1.51.3-2-.2-.89-.98-1.67-2.33-2.33-1.78-.87-4.61-1.48-6.21-1.54-.38-.01-.68-.02-.94-.02-.97,0-1.94.08-4.1.49-2.17.41-4.73,1.34-5.51,1.63"/>
      <path class="cls-9" d="M14.47,7.64l-4.29-2.19.04-.07-.03-.08c.1-.04,2.43-.93,3.82-.93h.03c1.46.01,2.38.36,2.77.69.36.3.41.63.16,1.02-.18.28-.71.67-1.43,1.05-.71.38-1.02.5-1.03.51h-.03ZM10.32,5.39l4.15,2.12c.09-.04.4-.18.99-.49.7-.37,1.21-.74,1.38-1,.21-.33.18-.6-.13-.85-.37-.31-1.27-.65-2.69-.66h-.03c-1.21,0-3.21.72-3.68.89"/>
      <path class="cls-9" d="M40.5,6.74c.14.02.36.08.68.19.31.11.68.32,1.09.63.41.31.77.78,1.08,1.4.31.62.46,1.41.46,2.36s-.18,1.67-.54,2.27c-.36.61-.79,1.06-1.29,1.35-.5.29-.97.47-1.42.53h-7.62V6.73h7.57ZM40.44,14.29c.23-.04.52-.14.84-.3.32-.16.63-.46.92-.9.29-.43.43-1.03.43-1.78,0-.88-.15-1.57-.45-2.07-.3-.5-.62-.84-.95-1.01-.33-.18-.61-.28-.84-.32h-6.28v6.38h6.33Z"/>
      <rect class="cls-9" x="44.63" y="6.75" width="1.19" height="8.7"/>
      <path class="cls-9" d="M52.3,9.12c.77-.01,1.46-.13,2.06-.34.61-.22,1.08-.43,1.4-.65.33-.22.55-.38.66-.49l.96-.91v8.75h-1.14v-6.32c-.5.3-1.08.55-1.75.76-.66.21-1.39.32-2.18.33-.83,0-1.61-.1-2.33-.32-.72-.22-1.36-.49-1.92-.82v6.36h-1.14V6.73l1,.86c.14.13.39.3.75.53.36.23.86.45,1.51.68.64.23,1.35.33,2.11.32"/>
      <rect class="cls-8" x="59.08" y="10.44" width="2.29" height="1.16"/>
      <g>
        <path class="cls-15" d="M72.92,6.66v1.19h-6.39c-.25,0-.53.08-.84.23s-.63.39-.93.71c-.22.23-.41.53-.57.9-.16.37-.25.83-.25,1.37,0,.36.06.72.17,1.06s.28.67.49.97c.19.27.44.53.75.78.31.26.7.39,1.17.4h6.39v1.19h-6.39c-.71,0-1.37-.2-1.97-.59-.6-.4-1.08-.93-1.43-1.61-.35-.67-.52-1.41-.52-2.21s.17-1.53.52-2.21c.35-.67.83-1.21,1.43-1.6.6-.4,1.26-.59,1.97-.59h6.39Z"/>
        <path class="cls-15" d="M74.29,6.7h8.79v1.2h-7.59v2.4h7.59v1.2h-7.59v2.8h7.59v1.2h-8.79V6.7Z"/>
        <path class="cls-15" d="M84.51,6.68h10v1.2h-8.8v2.4h6.66v1.2h-6.66v4h-1.2V6.68Z"/>
        <path class="cls-15" d="M94.9,12.03h3.29c.06,0,.08.03.08.08v.45c0,.05-.03.08-.08.08h-3.37v-.53c0-.05.03-.08.08-.08Z"/>
        <path class="cls-15" d="M107.76,6.69c.14.02.37.08.68.19.32.11.68.32,1.09.63.41.31.77.78,1.08,1.41.31.62.46,1.42.46,2.37s-.18,1.68-.54,2.29c-.36.61-.79,1.06-1.3,1.36-.5.3-.98.47-1.43.53h-7.67V6.69h7.61ZM107.7,14.3c.24-.04.52-.14.85-.31.33-.16.63-.46.92-.9.29-.44.43-1.03.43-1.79,0-.89-.15-1.58-.45-2.08-.3-.5-.62-.84-.95-1.02-.33-.18-.61-.28-.84-.32h-6.32v6.42h6.37Z"/>
        <path class="cls-15" d="M113.03,6.69v1.04h-1.04v-1.04h1.04ZM113.03,9.11v6.35h-1.04v-6.35h1.04Z"/>
        <path class="cls-15" d="M121.43,10.95c.24.42.36.94.36,1.56,0-.1,0-.08,0,.06h0v.69c0,.58-.12,1.03-.33,1.34-.22.31-.48.53-.79.63s-.63.17-.98.17c-.34,0-.6.02-.76.02h-3.15c-.49,0-.91-.18-1.26-.54-.35-.36-.52-.79-.52-1.3s.17-.95.52-1.31c.35-.36.77-.55,1.26-.55h4.83c0-.07-.02-.14-.04-.2s-.04-.11-.05-.13c-.09-.18-.23-.35-.39-.5-.17-.15-.36-.27-.56-.36-.21-.08-.42-.12-.65-.12h-4.64v-.94c0-.08,0-.11,0-.08h4.64c.54,0,1.03.14,1.5.42.22.13.41.29.57.47.16.18.31.4.46.65ZM120.74,13.4c0-.09,0-.29-.01-.62h-5.06c-.18,0-.33.08-.47.24-.13.16-.19.36-.19.58s.06.42.19.58c.13.16.29.24.47.24h3.28c.37,0,.67,0,.89-.02.22-.01.39-.07.52-.16.14-.1.23-.22.29-.35.05-.14.08-.3.1-.49Z"/>
        <path class="cls-15" d="M129.77,10.97c.26.46.39.96.39,1.51v3h-.99v-3c0-.27-.05-.54-.14-.81-.09-.27-.22-.49-.4-.67-.17-.18-.38-.31-.64-.41-.26-.09-.52-.14-.77-.14h-1.86c-.5,0-1.15,0-1.95,0,0-.23,0-.02,0,.65s0,1.1,0,1.31v3.07h-.99v-6.01h4.79c.52,0,1.01.13,1.46.4.45.27.81.64,1.07,1.1Z"/>
      </g>
    </g>
    <g>
      <path class="cls-6" d="M112.44,130.17h-53.89c-2.35,0-4.26-1.91-4.26-4.26v-39.85c0-2.35,1.91-4.26,4.26-4.26h53.89c2.35,0,4.26,1.91,4.26,4.26v39.85c0,2.35-1.91,4.26-4.26,4.26"/>
      <path class="cls-4" d="M112.75,126.85h-54.51c-.83,0-1.49-.67-1.49-1.49v-39.05c0-.82.67-1.49,1.49-1.49h54.51c.82,0,1.49.67,1.49,1.49v39.05c0,.82-.67,1.49-1.49,1.49"/>
      <polygon class="cls-6" points="111.21 105.35 93.1 105.35 93.1 92.53 93.59 92.53 93.59 104.86 111.21 104.86 111.21 105.35"/>
      <path class="cls-6" d="M109.56,96.21c-.18-.78-.15-1.87-.03-2.7-.63.55-1.53,1.17-2.28,1.45l1.09.16-3.26,6.01-2.32-.95-2.18,2.76-2.35-3.58-3.87,4.8.43.35,3.4-4.21,2.35,3.59,2.4-3.04,2.4.98,3.5-6.45.73.82Z"/>
      <rect class="cls-7" x="64.74" y="93.69" width="2.51" height="11.49"/>
      <rect class="cls-7" x="71.38" y="97.28" width="2.51" height="7.9"/>
      <rect class="cls-7" x="78.02" y="95.01" width="2.51" height="10.17"/>
      <rect class="cls-7" x="84.12" y="99.58" width="2.51" height="5.6"/>
      <polygon class="cls-12" points="87.99 105.46 60.07 105.46 60.07 89.89 60.69 89.89 60.69 104.9 87.99 104.9 87.99 105.46"/>
      <path class="cls-7" d="M85.63,118.25l5.14-3.74c2.06,2.84,1.43,6.82-1.41,8.88-2.84,2.06-6.81,1.43-8.88-1.4-2.06-2.84-1.43-6.82,1.41-8.88,1.14-.82,2.33-1.21,3.74-1.21v6.36Z"/>
      <path class="cls-11" d="M85.63,118.25v-6.36c2.11,0,3.9.92,5.14,2.62l-5.14,3.74Z"/>
      <path class="cls-7" d="M68.82,113.86l-3.34-5.6c4.5-2.01,8.35.45,9.74,3.14l-6.4,2.46Z"/>
      <path class="cls-12" d="M108.38,123.39c-2.85,2.07-6.82,1.43-8.88-1.41-2.07-2.84-1.43-6.81,1.41-8.88,1.13-.82,2.33-1.21,3.74-1.21v6.35l5.14-3.74c.63.89,1.02,1.88,1.16,2.89.29,2.24-.61,4.57-2.57,5.99"/>
      <path class="cls-11" d="M109.79,114.51l-5.14,3.74v-6.35c2.11,0,3.9.92,5.14,2.61"/>
      <path class="cls-11" d="M110.95,117.4h-.01s-6.29.85-6.29.85v-6.35c2.1,0,3.9.92,5.14,2.61.63.89,1.02,1.88,1.16,2.89"/>
      <path class="cls-12" d="M67.69,117.12l7.58-1.88c.15.61.23,1.25.23,1.88,0,4.29-3.53,7.81-7.81,7.81s-7.81-3.53-7.81-7.81c0-2.68,1.38-5.18,3.65-6.61l4.16,6.61Z"/>
      <path class="cls-4" d="M72.88,117.12c0,2.87-2.32,5.19-5.19,5.19s-5.19-2.32-5.19-5.19,2.32-5.19,5.19-5.19,5.19,2.32,5.19,5.19"/>
      <path class="cls-6" d="M70.67,117.12c0,1.65-1.34,2.98-2.98,2.98s-2.98-1.34-2.98-2.98,1.33-2.98,2.98-2.98,2.98,1.34,2.98,2.98"/>
      <path class="cls-4" d="M61.45,73.81h12s8.47-.53,8.47,6.97c0,0,.09,6.64-8.56,6.64h-12.53v-13.55l.62-.06Z"/>
      <polygon class="cls-4" points="83.13 74.09 87.2 74.09 87.2 87.42 83.03 87.42 83.13 74.09"/>
      <polygon class="cls-4" points="91.07 87.37 87.04 87.34 87.2 85.57 97.68 73.96 99.43 73.96 111.18 86.6 111.18 87.41 91.07 87.37"/>
      <polygon class="cls-4" points="113.93 87.39 110.67 87.39 110.67 73.72 113.14 73.72 126.72 82.14 126.72 73.63 130.16 73.63 130.16 87.48 126.63 87.48 114.51 79.54 114.51 87.35 113.93 87.39"/>
      <path class="cls-5" d="M62.2,75.48v1.41h10.54s6.06-.44,6.06,3.76c0,0,.85,4.08-6.02,4.08h-9v-2.16h-1.61v3.59h10.6s7.62.75,7.62-5.36c0,0,.97-5.36-7.59-5.36l-10.59.04Z"/>
      <rect class="cls-5" x="84.12" y="75.48" width="1.78" height="10.66"/>
      <polygon class="cls-5" points="107.18 86.18 98.82 77.08 93.85 82.67 100.7 82.67 101.75 83.78 92.8 83.78 90.58 86.18 88.42 86.18 98.13 75.5 99.45 75.5 109.12 86.16 107.18 86.18"/>
      <polygon class="cls-5" points="113.13 86.16 111.5 86.16 111.5 75.48 112.97 75.48 127.67 84.28 127.67 75.48 129.27 75.48 129.27 86.2 127.89 86.2 113.17 77.32 113.13 86.16"/>
    </g>
    <g>
      <path class="cls-6" d="M115.74,195.22h-19.28c-2.35,0-4.26-1.91-4.26-4.26v-21.8c0-2.35,1.91-4.26,4.26-4.26h19.28c2.35,0,4.26,1.91,4.26,4.26v21.8c0,2.35-1.91,4.26-4.26,4.26"/>
      <path class="cls-4" d="M117.42,193.15h-22.63c-.82,0-1.49-.67-1.49-1.49v-23.37c0-.82.67-1.49,1.49-1.49h22.63c.82,0,1.49.67,1.49,1.49v23.37c0,.82-.67,1.49-1.49,1.49"/>
      <rect class="cls-7" x="99.35" y="172.36" width="1.57" height="7.2"/>
      <rect class="cls-7" x="103.52" y="174.61" width="1.57" height="4.95"/>
      <rect class="cls-7" x="107.68" y="173.18" width="1.57" height="6.38"/>
      <rect class="cls-7" x="111.5" y="176.05" width="1.57" height="3.51"/>
      <polygon class="cls-12" points="113.93 179.74 96.43 179.74 96.43 169.98 96.82 169.98 96.82 179.39 113.93 179.39 113.93 179.74"/>
      <path class="cls-7" d="M111.84,187.76l3.22-2.34c1.29,1.78.9,4.27-.88,5.57-1.78,1.29-4.27.9-5.56-.88-1.29-1.78-.9-4.27.88-5.57.71-.52,1.46-.76,2.34-.76v3.98Z"/>
      <path class="cls-11" d="M111.84,187.76v-3.98c1.32,0,2.45.57,3.22,1.64l-3.22,2.34Z"/>
      <path class="cls-7" d="M101.31,185.01l-2.09-3.51c2.82-1.26,5.24.28,6.1,1.97l-4.01,1.54Z"/>
      <path class="cls-12" d="M100.59,187.05l4.75-1.18c.1.39.14.78.14,1.18,0,2.69-2.21,4.9-4.9,4.9s-4.9-2.21-4.9-4.9c0-1.68.87-3.25,2.29-4.14l2.61,4.14Z"/>
      <path class="cls-4" d="M103.85,187.05c0,1.8-1.46,3.25-3.25,3.25s-3.25-1.46-3.25-3.25,1.46-3.25,3.25-3.25,3.25,1.46,3.25,3.25"/>
      <path class="cls-6" d="M102.47,187.05c0,1.03-.84,1.87-1.87,1.87s-1.87-.84-1.87-1.87.84-1.87,1.87-1.87,1.87.84,1.87,1.87"/>
      <path class="cls-4" d="M97.52,163.39h5.7s4.02-.25,4.02,3.31c0,0,.04,3.15-4.06,3.15h-5.95v-6.44l.29-.03Z"/>
      <polygon class="cls-4" points="107.82 163.52 109.75 163.52 109.75 169.86 107.77 169.86 107.82 163.52"/>
      <polygon class="cls-4" points="111.59 169.83 109.68 169.81 109.75 168.98 114.73 163.46 115.57 163.46 121.14 169.46 121.14 169.85 111.59 169.83"/>
      <polygon class="cls-4" points="122.45 169.84 120.9 169.84 120.9 163.35 122.08 163.35 128.53 167.35 128.53 163.3 130.16 163.3 130.16 169.88 128.49 169.88 122.72 166.11 122.72 169.82 122.45 169.84"/>
      <path class="cls-5" d="M97.88,164.18v.67h5.01s2.88-.21,2.88,1.78c0,0,.4,1.94-2.86,1.94h-4.28v-1.03h-.77v1.71h5.04s3.62.35,3.62-2.55c0,0,.46-2.54-3.61-2.54l-5.03.02Z"/>
      <rect class="cls-5" x="108.29" y="164.18" width=".84" height="5.06"/>
      <polygon class="cls-5" points="119.24 169.26 115.27 164.94 112.91 167.6 116.17 167.6 116.66 168.12 112.42 168.12 111.36 169.26 110.33 169.26 114.95 164.19 115.57 164.19 120.17 169.25 119.24 169.26"/>
      <polygon class="cls-5" points="122.07 169.25 121.3 169.25 121.3 164.18 122 164.18 128.98 168.36 128.98 164.18 129.74 164.18 129.74 169.27 129.08 169.27 122.09 165.05 122.07 169.25"/>
    </g>
  </g>
</svg>