<?xml version="1.0" encoding="UTF-8"?>
<svg xmlns="http://www.w3.org/2000/svg" xmlns:xlink="http://www.w3.org/1999/xlink" viewBox="0 0 215.5 197.94">
  <defs>
    <style>
      .cls-1 {
        fill: #f9cf16;
      }

      .cls-2 {
        fill: #cd142a;
      }

      .cls-3 {
        fill: #646365;
      }

      .cls-4 {
        fill: #fff;
      }

      .cls-5 {
        fill: #625f60;
      }

      .cls-6 {
        fill: #505050;
      }

      .cls-7 {
        fill: none;
      }

      .cls-8 {
        clip-path: url(#clippath-1);
      }

      .cls-9 {
        fill: #d00e4d;
      }

      .cls-10 {
        isolation: isolate;
      }

      .cls-11 {
        fill: #d00e4c;
      }

      .cls-12 {
        fill: #d22e1f;
      }

      .cls-13 {
        fill: #dcdcdc;
      }

      .cls-14 {
        fill: #d92d5f;
      }

      .cls-15 {
        fill: #9d9a9c;
      }

      .cls-16 {
        fill: #d20f48;
      }

      .cls-17 {
        fill: #333233;
      }

      .cls-18 {
        fill: #1d458c;
      }

      .cls-19 {
        fill: #dd4c75;
      }

      .cls-20 {
        clip-path: url(#clippath-2);
      }

      .cls-21 {
        fill: #48a98e;
      }

      .cls-22 {
        fill: #e1222c;
      }

      .cls-23 {
        fill: #80a9cd;
      }

      .cls-24 {
        mix-blend-mode: screen;
        opacity: .1;
      }

      .cls-25 {
        clip-path: url(#clippath);
      }

      .cls-26 {
        fill: #828384;
      }

      .cls-27 {
        fill: #1b4180;
      }
    </style>
    <clipPath id="clippath">
      <rect class="cls-7" x="158.89" y="83.32" width="20.04" height="20.03"/>
    </clipPath>
    <clipPath id="clippath-1">
      <rect class="cls-7" x="191.36" y="95.57" width="22.08" height="22.08"/>
    </clipPath>
    <clipPath id="clippath-2">
      <rect class="cls-7" x="156.94" y="100.48" width="19.98" height="19.99"/>
    </clipPath>
  </defs>
  <g class="cls-10">
    <g id="Capa_2">
      <g id="Capa_1-2" data-name="Capa_1">
        <g>
          <g>
            <path class="cls-11" d="M40.5,24.81c.14.02.36.08.68.19.31.11.68.32,1.09.63.41.31.77.78,1.08,1.4.31.62.46,1.41.46,2.36s-.18,1.67-.54,2.27c-.36.6-.79,1.06-1.29,1.35-.5.29-.97.47-1.42.53h-7.62v-8.73h7.57ZM40.44,32.36c.23-.04.52-.14.84-.3.32-.16.63-.46.92-.9.29-.43.43-1.03.43-1.78,0-.88-.15-1.57-.45-2.07-.3-.5-.62-.84-.95-1.01-.33-.18-.61-.28-.84-.32h-6.28v6.38h6.33Z"/>
            <rect class="cls-11" x="44.63" y="24.82" width="1.19" height="8.7"/>
            <path class="cls-11" d="M52.3,27.19c.77-.01,1.46-.13,2.06-.34.61-.22,1.08-.43,1.4-.65.33-.22.55-.38.66-.49l.96-.91v8.75h-1.14v-6.32c-.5.3-1.08.55-1.75.76-.66.21-1.39.32-2.18.33-.83,0-1.61-.1-2.33-.32-.72-.22-1.36-.49-1.92-.82v6.36h-1.14v-8.75l1,.87c.14.13.39.3.75.53.36.23.86.45,1.51.68.64.23,1.35.33,2.11.32"/>
            <rect class="cls-9" x="59.08" y="28.51" width="2.29" height="1.16"/>
            <g>
              <path class="cls-26" d="M62.78,24.75h10v1.2h-8.8v2.4h6.66v1.2h-6.66v4h-1.2v-8.8Z"/>
              <path class="cls-26" d="M81.13,29.02c.24.42.36.94.36,1.56,0-.1,0-.08,0,.06h0v.69c0,.58-.12,1.03-.33,1.34-.22.31-.48.53-.79.63s-.63.17-.97.17c-.34,0-.6.02-.76.02h-3.14c-.49,0-.91-.18-1.26-.54-.35-.36-.52-.79-.52-1.3s.17-.95.52-1.31c.35-.36.77-.55,1.26-.55h4.82c0-.07-.02-.14-.04-.2s-.04-.11-.05-.13c-.09-.18-.22-.35-.39-.5s-.36-.27-.56-.36c-.21-.08-.43-.12-.65-.12h-4.64v-.94c0-.08,0-.11,0-.08h4.64c.54,0,1.03.14,1.5.42.22.13.41.29.57.47.16.18.31.4.46.65ZM80.43,31.47c0-.09,0-.29-.01-.62h-5.06c-.18,0-.33.08-.47.24-.13.16-.19.36-.19.58s.06.42.19.58c.13.16.29.24.47.24h3.28c.37,0,.67,0,.89-.02s.39-.07.52-.16c.14-.1.23-.22.29-.35.05-.14.08-.3.09-.49Z"/>
              <path class="cls-26" d="M84.28,28.76c-.26.09-.48.22-.65.4s-.3.39-.4.66c-.09.27-.14.53-.14.79s.05.53.14.79.22.48.4.66.39.3.65.4c.26.09.53.14.79.14h4.82v.97h-4.82c-.53,0-1.02-.13-1.48-.4-.45-.26-.81-.62-1.07-1.07-.26-.45-.39-.94-.39-1.48s.13-1.03.39-1.48c.27-.45.62-.81,1.07-1.07.45-.27.95-.4,1.48-.4h4.82v.97h-4.82c-.26,0-.52.05-.79.14Z"/>
              <path class="cls-26" d="M95.66,32.55v.96h-1.81c-.52,0-1.01-.13-1.46-.39-.45-.26-.81-.61-1.07-1.05-.26-.44-.4-.92-.41-1.44v-5.25h.97s0,0,0,.07v2.16h2.27s0,0,0,.07v.89s-.03,0-.09,0h-2.18v2.08c0,.42.11.78.33,1.06s.45.5.69.64c.12.08.3.13.55.15s.44.03.59.02h1.61Z"/>
              <path class="cls-26" d="M100.84,27.64c.53-.02.99.02,1.38.15.39.12.71.29.96.51.25.22.44.45.59.69.14.25.24.48.31.69.06.21.1.4.12.55s.02.22.02.2v.35c0,.25-.06.54-.19.87-.12.33-.32.64-.58.93-.26.3-.6.54-1.01.72-.41.18-.89.26-1.44.23h-1.1c-.55.03-1.03-.05-1.44-.23-.42-.18-.75-.42-1.01-.72-.26-.3-.46-.61-.58-.93-.12-.32-.19-.61-.19-.87v-.35s0-.04.02-.2.06-.34.12-.55c.06-.21.17-.44.31-.69.14-.25.34-.48.59-.69.25-.22.57-.39.96-.51.39-.12.85-.17,1.38-.15h.8ZM101.22,32.55c.73,0,1.25-.18,1.54-.53.3-.35.47-.73.51-1.14v-.17s.01-.28.01-.28v-.18c-.06-.38-.23-.75-.52-1.11-.29-.36-.81-.54-1.54-.54h-1.56c-.74,0-1.25.18-1.54.54-.29.36-.46.73-.5,1.11l-.02.18v.26l.02.18c.04.4.21.78.51,1.14.3.35.81.53,1.54.53h1.56Z"/>
              <path class="cls-26" d="M111.53,28.53h-3.35c-.17,0-.36,0-.57,0-.21,0-.41.03-.59.08s-.34.15-.48.28c-.14.13-.23.29-.29.47-.06.18-.09.34-.09.47,0,.13,0,.37,0,.71v2.92c0,.05-.02.08-.07.08h-.83s-.07-.03-.07-.08v-3.01c0-.12,0-.34,0-.64s.06-.61.18-.92c.12-.31.33-.58.63-.82.19-.15.4-.26.62-.34.22-.08.44-.13.64-.16.2-.03.39-.04.56-.04h3.7v.99Z"/>
              <path class="cls-26" d="M113.6,24.76v1.04h-1.04v-1.04h1.04ZM113.6,27.18v6.35h-1.04v-6.35h1.04Z"/>
              <path class="cls-26" d="M121.88,29.04c.26.46.39.96.39,1.51v3h-.99v-3c0-.27-.05-.54-.14-.81-.09-.27-.22-.49-.4-.67-.17-.18-.38-.31-.64-.41-.26-.09-.52-.14-.77-.14h-1.86c-.5,0-1.15,0-1.95,0,0-.23,0-.02,0,.65s0,1.1,0,1.31v3.07h-.99v-6.01h4.79c.52,0,1.01.13,1.46.4.45.27.81.64,1.07,1.1Z"/>
              <path class="cls-26" d="M129.79,27.95c.26.14.47.35.63.61.16.26.25.57.25.92v3.18c-.02.51-.15.98-.36,1.42-.22.44-.52.79-.9,1.06-.38.27-.83.42-1.33.45h-4.83v-.94h4.7c.3,0,.6-.09.9-.27.3-.18.53-.45.68-.8l.03-.08h-3.58c-.58,0-1.09-.14-1.53-.42-.43-.28-.77-.64-1-1.07-.23-.43-.35-.87-.35-1.32v-.21c0-.42.12-.84.36-1.27s.57-.78,1-1.06c.43-.28.91-.42,1.45-.42h3.07c.27,0,.54.07.8.21ZM129.72,32.55v-3.18c0-.17-.06-.33-.18-.47-.12-.15-.28-.22-.47-.22h-2.98c-.5,0-.9.09-1.21.27s-.52.41-.64.68c-.12.27-.19.56-.19.86v.23c0,.39.09.72.26,1,.17.28.4.48.67.62.28.14.56.21.86.21h3.87Z"/>
              <path class="cls-26" d="M133.86,24.77h8.79v1.2h-7.59v2.4h7.59v1.2h-7.59v2.8h7.59v1.2h-8.79v-8.79Z"/>
              <path class="cls-26" d="M144.15,24.76h1.05s-.01,0,0,0v5.65c0,.41.1.78.3,1.1.2.32.44.57.73.75.29.18.57.27.83.27h2.15v1.05h-2.18c-.55,0-1.04-.17-1.48-.51s-.78-.76-1.02-1.27c-.25-.51-.37-1.01-.37-1.49v-5.29c0-.27,0-.35,0-.26Z"/>
              <path class="cls-26" d="M156.95,27.98c.29.23.48.49.57.77.09.28.14.53.15.74,0,1.05-.58,1.6-1.76,1.66h-4.67s0,.25,0,.25c0,.27.02.49.07.64s.13.27.25.34c.11.07.27.12.46.15s.47.04.82.04h4.36c.13,0,.19.06.19.18v.59c0,.13-.06.19-.19.19h-4.51c-.63,0-1.12-.07-1.48-.21-.36-.14-.62-.36-.77-.67s-.23-.72-.23-1.24v-1.5c0-.35.13-.7.4-1.05s.61-.65,1.02-.88c.42-.23.84-.35,1.28-.35h2.84c.52,0,.92.12,1.21.35ZM156.27,30.11c.09-.03.17-.09.26-.19.06-.07.1-.15.13-.24.03-.09.04-.21.05-.37,0-.07-.02-.16-.06-.27s-.11-.21-.22-.3-.26-.14-.45-.14h-3.1c-.22,0-.46.07-.72.21-.26.14-.47.33-.65.56-.18.24-.27.5-.27.79h4.61c.19,0,.33-.02.42-.05Z"/>
              <path class="cls-26" d="M160.67,28.76c-.26.09-.48.22-.65.4s-.3.39-.4.66c-.09.27-.14.53-.14.79s.05.53.14.79.22.48.4.66.39.3.65.4.53.14.79.14h4.82v.97h-4.82c-.53,0-1.02-.13-1.48-.4-.45-.26-.81-.62-1.07-1.07-.26-.45-.39-.94-.39-1.48s.13-1.03.39-1.48c.27-.45.62-.81,1.07-1.07.45-.27.95-.4,1.48-.4h4.82v.97h-4.82c-.26,0-.52.05-.79.14Z"/>
              <path class="cls-26" d="M172.04,32.55v.96h-1.81c-.52,0-1.01-.13-1.46-.39-.45-.26-.81-.61-1.07-1.05-.26-.44-.4-.92-.41-1.44v-5.25h.97s0,0,0,.07v2.16h2.27s0,0,0,.07v.89s-.03,0-.09,0h-2.18v2.08c0,.42.11.78.33,1.06s.45.5.69.64c.12.08.3.13.55.15s.44.03.59.02h1.61Z"/>
              <path class="cls-26" d="M179.44,28.53h-3.35c-.17,0-.36,0-.57,0-.21,0-.41.03-.58.08s-.34.15-.48.28c-.13.13-.23.29-.29.47-.05.18-.09.34-.09.47s0,.37,0,.71v2.92c0,.05-.03.08-.07.08h-.83s-.07-.03-.07-.08v-3.01c0-.12,0-.34,0-.64,0-.3.06-.61.18-.92s.33-.58.63-.82c.19-.15.4-.26.62-.34.22-.08.44-.13.64-.16.2-.03.39-.04.56-.04h3.7v.99Z"/>
              <path class="cls-26" d="M184.47,27.64c.53-.02.99.02,1.38.15.39.12.71.29.96.51.25.22.45.45.59.69s.24.48.31.69c.06.21.1.4.12.55s.02.22.02.2v.35c0,.25-.06.54-.19.87-.12.33-.32.64-.58.93-.26.3-.6.54-1.01.72-.41.18-.89.26-1.44.23h-1.1c-.55.03-1.03-.05-1.44-.23s-.75-.42-1.01-.72c-.26-.3-.46-.61-.58-.93-.12-.32-.19-.61-.19-.87v-.35s0-.04.02-.2c.02-.16.06-.34.12-.55.06-.21.17-.44.31-.69.14-.25.34-.48.59-.69.25-.22.57-.39.96-.51.39-.12.85-.17,1.38-.15h.8ZM184.85,32.55c.73,0,1.25-.18,1.54-.53.3-.35.47-.73.51-1.14v-.17s.01-.28.01-.28v-.18c-.06-.38-.23-.75-.52-1.11-.29-.36-.81-.54-1.54-.54h-1.56c-.74,0-1.25.18-1.54.54s-.46.73-.5,1.11l-.02.18v.26l.02.18c.04.4.21.78.51,1.14.3.35.81.53,1.54.53h1.56ZM184.81,25.44h1.2s-.75.77-.75.77l-.79.75h-.74l1.08-1.53Z"/>
              <path class="cls-26" d="M195.95,29.04c.26.46.39.96.39,1.51v3h-.99v-3c0-.27-.05-.54-.14-.81-.09-.27-.22-.49-.39-.67-.17-.18-.38-.31-.64-.41-.26-.09-.52-.14-.77-.14h-1.86c-.5,0-1.15,0-1.95,0,0-.23,0-.02,0,.65s0,1.1,0,1.31v3.07h-.99v-6.01h4.79c.52,0,1.01.13,1.46.4.45.27.81.64,1.07,1.1Z"/>
              <path class="cls-26" d="M198.42,24.76v1.04h-1.04v-1.04h1.04ZM198.42,27.18v6.35h-1.04v-6.35h1.04Z"/>
              <path class="cls-26" d="M201.52,28.76c-.26.09-.48.22-.65.4s-.3.39-.4.66c-.09.27-.14.53-.14.79s.05.53.14.79.22.48.4.66.39.3.65.4.53.14.79.14h4.82v.97h-4.82c-.53,0-1.02-.13-1.48-.4-.45-.26-.81-.62-1.07-1.07-.26-.45-.39-.94-.39-1.48s.13-1.03.39-1.48c.27-.45.62-.81,1.07-1.07.45-.27.95-.4,1.48-.4h4.82v.97h-4.82c-.26,0-.52.05-.79.14Z"/>
              <path class="cls-26" d="M212.13,27.64c.53-.02.99.02,1.38.15.39.12.71.29.96.51.25.22.44.45.59.69.14.25.24.48.31.69.06.21.1.4.12.55s.02.22.02.2v.35c0,.25-.06.54-.19.87-.12.33-.32.64-.58.93-.26.3-.6.54-1.01.72-.41.18-.89.26-1.44.23h-1.1c-.55.03-1.03-.05-1.44-.23-.42-.18-.75-.42-1.01-.72-.26-.3-.46-.61-.58-.93-.12-.32-.19-.61-.19-.87v-.35s0-.04.02-.2.06-.34.12-.55c.06-.21.17-.44.31-.69.14-.25.34-.48.59-.69.25-.22.57-.39.96-.51.39-.12.85-.17,1.38-.15h.8ZM212.51,32.55c.73,0,1.25-.18,1.54-.53.3-.35.47-.73.51-1.14v-.17s.01-.28.01-.28v-.18c-.06-.38-.23-.75-.52-1.11-.29-.36-.81-.54-1.54-.54h-1.56c-.74,0-1.25.18-1.54.54-.29.36-.46.73-.5,1.11l-.02.18v.26l.02.18c.04.4.21.78.51,1.14.3.35.81.53,1.54.53h1.56Z"/>
            </g>
          </g>
          <g>
            <rect class="cls-17" x="181.94" y="119.72" width="8.3" height="4.56"/>
            <path class="cls-5" d="M196.83,125.91h-21.48v-.43c0-.67,1.02-1.21,2.27-1.21h16.94c1.25,0,2.27.54,2.27,1.21v.43Z"/>
            <path class="cls-5" d="M157.57,81.26h57.2c.41,0,.73.33.73.73v37.78c0,.41-.33.73-.73.73h-57.2c-.41,0-.74-.33-.74-.74v-37.78c0-.41.33-.73.73-.73Z"/>
            <rect class="cls-4" x="158.89" y="83.32" width="54.55" height="34.33"/>
            <rect class="cls-16" x="158.89" y="83.32" width="54.55" height="3.73"/>
            <rect class="cls-14" x="158.89" y="116.41" width="54.55" height="1.24"/>
            <rect class="cls-13" x="158.89" y="87.05" width="54.55" height="2.13"/>
            <g class="cls-24">
              <g class="cls-25">
                <polygon class="cls-4" points="178.94 83.32 158.89 103.35 158.89 92.25 167.82 83.32 178.94 83.32"/>
              </g>
            </g>
            <g class="cls-24">
              <g class="cls-8">
                <polygon class="cls-4" points="213.44 95.57 213.44 109.94 205.73 117.65 191.36 117.65 213.44 95.57"/>
              </g>
            </g>
            <g class="cls-24">
              <g class="cls-20">
                <polygon class="cls-4" points="156.94 100.48 176.92 120.46 165.85 120.46 156.94 111.55 156.94 100.48"/>
              </g>
            </g>
            <rect class="cls-23" x="168.3" y="66.26" width="32.83" height="40.03"/>
            <rect class="cls-4" x="168.28" y="68.24" width="31.18" height="38"/>
            <rect class="cls-23" x="164.85" y="70.11" width="32.83" height="40.03"/>
            <polygon class="cls-4" points="194.22 89.69 186.2 89.67 186.22 85.52 194.23 85.54 194.22 89.69"/>
            <rect class="cls-4" x="172.92" y="80.01" width="4.15" height="14.72" transform="translate(87.21 262.15) rotate(-89.86)"/>
            <path class="cls-4" d="M187.82,102.14h-18.81c-.49,0-.89.4-.89.89s.4.89.89.89h18.81c.49,0,.89-.4.89-.89s-.4-.89-.89-.89"/>
            <path class="cls-4" d="M192.4,98.21h-23.39c-.49,0-.89.4-.89.89s.4.89.89.89h23.39c.49,0,.89-.4.89-.89s-.4-.89-.89-.89"/>
            <path class="cls-4" d="M192.52,94.45h-23.39c-.49,0-.89.4-.89.89s.4.89.89.89h23.39c.49,0,.89-.4.89-.89s-.4-.89-.89-.89"/>
            <path class="cls-4" d="M182.63,79.59h-14.29c-.49,0-.89.4-.89.89s.4.89.89.89h14.29c.49,0,.89-.4.89-.89s-.4-.89-.89-.89"/>
            <path class="cls-4" d="M182.7,75.83h-14.29c-.49,0-.89.4-.89.89s.4.89.89.89h14.29c.49,0,.89-.4.89-.89s-.4-.89-.89-.89"/>
            <path class="cls-4" d="M211.81,85.03c0,.52-.42.94-.94.94s-.94-.42-.94-.94.42-.94.94-.94.94.42.94.94"/>
            <path class="cls-4" d="M208.47,85.03c0,.52-.42.94-.94.94s-.94-.42-.94-.94.42-.94.94-.94.94.42.94.94"/>
            <path class="cls-4" d="M205.14,85.03c0,.52-.42.94-.94.94s-.94-.42-.94-.94.42-.94.94-.94.94.42.94.94"/>
            <rect class="cls-16" x="197.86" y="98.43" width="4.89" height="16.5"/>
            <rect class="cls-15" x="184.58" y="104.14" width="4.89" height="10.8"/>
            <rect class="cls-19" x="191.22" y="100.97" width="4.89" height="13.97"/>
            <rect class="cls-16" x="204.52" y="94.82" width="4.89" height="20.12"/>
            <path class="cls-21" d="M202.05,76.05c0,4.4-3.56,7.96-7.96,7.96s-7.96-3.56-7.96-7.96,3.56-7.96,7.96-7.96,7.96,3.56,7.96,7.96"/>
            <path class="cls-4" d="M200.84,76.05c0,3.73-3.02,6.76-6.76,6.76s-6.75-3.02-6.75-6.76,3.02-6.75,6.75-6.75,6.76,3.02,6.76,6.75"/>
            <path class="cls-5" d="M196.9,79.41c-.22.39-.53.71-.95.97-.42.26-.91.41-1.5.44v1.09h-.72v-1.09c-.81-.07-1.47-.33-1.99-.78-.51-.45-.77-1.03-.78-1.72h1.3c.04.38.18.7.42.98.25.28.59.45,1.04.52v-3.35c-.6-.15-1.08-.31-1.45-.47-.37-.16-.68-.41-.94-.75s-.39-.8-.39-1.37c0-.73.25-1.32.76-1.8.51-.47,1.18-.74,2.02-.79v-1.11h.72v1.11c.76.06,1.37.31,1.84.73s.73.98.8,1.66h-1.3c-.04-.31-.18-.6-.42-.85-.23-.26-.54-.42-.93-.5v3.27c.59.15,1.07.31,1.44.46.37.16.68.4.94.74s.38.8.38,1.38c0,.43-.11.84-.32,1.23M192.59,74.82c.26.23.64.42,1.14.58v-3.1c-.47.05-.84.19-1.11.45s-.42.61-.42,1.07.13.77.39,1.01M195.59,79.31c.27-.29.41-.65.41-1.06,0-.44-.13-.77-.4-1.01-.27-.24-.65-.43-1.14-.57v3.17c.48-.05.86-.23,1.13-.52"/>
          </g>
          <g>
            <g>
              <path class="cls-3" d="M149.67,21.38h-.28s0,0,0-.05v-1.65c0-.11.04-.21.12-.32s.18-.19.3-.25c.12-.07.23-.1.33-.1h.53c.16,0,.31.02.43.07.12.05.22.12.3.21.08.09.14.18.17.27.04.09.06.18.06.25v.1s0,.01,0,.06c0,.04-.02.1-.04.16-.02.06-.05.13-.09.2-.04.07-.1.14-.17.2-.08.06-.17.11-.29.15-.12.04-.25.05-.41.04h-.96v.65ZM149.67,20.45h1.08c.17,0,.31-.04.4-.11.09-.07.15-.15.17-.22s.04-.14.04-.19v-.09c0-.06-.01-.13-.04-.21-.03-.08-.09-.16-.18-.23s-.22-.1-.39-.1h-.58c-.08,0-.15.02-.23.07-.08.05-.14.1-.19.17s-.07.14-.07.2v.7Z"/>
              <path class="cls-3" d="M154.08,19.26h-.99s-.11,0-.17,0c-.06,0-.12,0-.17.02-.05.02-.1.04-.14.08-.04.04-.07.08-.08.14s-.03.1-.03.14c0,.04,0,.11,0,.21v.87s0,.02-.02.02h-.25s-.02,0-.02-.02v-.89s0-.1,0-.19c0-.09.02-.18.05-.27.04-.09.1-.17.19-.24.06-.04.12-.08.18-.1.07-.02.13-.04.19-.05s.12-.01.17-.01h1.1v.29Z"/>
              <path class="cls-3" d="M155.89,19c.16,0,.29,0,.41.04.12.04.21.09.28.15.07.06.13.13.17.21.04.07.07.14.09.2s.03.12.04.16,0,.07,0,.06v.1c0,.08-.02.16-.05.26-.04.1-.09.19-.17.28-.08.09-.18.16-.3.21s-.26.08-.43.07h-.33c-.16,0-.31-.01-.43-.07-.12-.05-.22-.12-.3-.21-.08-.09-.13-.18-.17-.28-.04-.1-.06-.18-.06-.26v-.1s0-.01,0-.06.02-.1.04-.16.05-.13.09-.2c.04-.07.1-.14.17-.21.07-.06.17-.12.28-.15.11-.04.25-.05.41-.04h.24ZM156,20.45c.22,0,.37-.05.46-.16s.14-.22.15-.34v-.05s0-.08,0-.08v-.05c-.02-.11-.07-.22-.15-.33-.09-.11-.24-.16-.46-.16h-.46c-.22,0-.37.05-.46.16-.09.11-.14.22-.15.33v.05s0,.08,0,.08v.05c.02.12.07.23.16.34.09.1.24.16.46.16h.46Z"/>
              <path class="cls-3" d="M159.45,18.35h.28s0,0,0,.05v1.68c0,.12-.01.22-.04.3s-.07.15-.12.2c-.06.05-.13.09-.22.11-.09.02-.21.04-.35.04h-.57c-.16,0-.31-.01-.43-.07-.12-.05-.23-.12-.3-.21-.08-.09-.14-.18-.17-.27-.04-.1-.06-.18-.06-.26v-.1s0-.01,0-.06c0-.05.02-.1.04-.16.02-.06.05-.13.09-.2.04-.07.1-.14.17-.2.08-.06.17-.11.29-.15.12-.04.25-.05.41-.04h.97v-.66ZM159.45,19.29h-1.08c-.18,0-.31.04-.4.11s-.15.15-.18.23c-.03.08-.04.14-.04.19v.08c0,.06.01.13.04.21.03.08.09.16.18.23.09.07.22.1.4.1h.75c.09,0,.15-.02.2-.06.05-.04.08-.09.1-.15.02-.07.03-.15.03-.24v-.71Z"/>
              <path class="cls-3" d="M161.94,20.41c.08-.03.14-.07.19-.12s.09-.12.12-.2c.03-.08.04-.16.04-.24v-.9h.29v.9c0,.16-.04.31-.12.45-.08.14-.19.25-.32.33-.13.08-.28.12-.44.12h-.56c-.16,0-.3-.04-.44-.12-.13-.08-.24-.19-.32-.33-.08-.14-.12-.29-.12-.45v-.9h.29s0,0,0,.02v.87c0,.08.01.16.04.24.03.08.07.15.12.2s.11.09.19.12c.08.03.15.04.23.04h.56c.08,0,.15-.01.23-.04Z"/>
              <path class="cls-3" d="M163.72,19.33c-.08.03-.14.07-.19.12s-.09.12-.12.19c-.03.08-.04.16-.04.23s.01.16.04.23c.03.08.07.14.12.19s.12.09.19.12.16.04.23.04h1.43v.29h-1.43c-.16,0-.3-.04-.44-.12-.13-.08-.24-.18-.32-.32-.08-.13-.12-.28-.12-.44s.04-.3.12-.44c.08-.13.18-.24.32-.32.13-.08.28-.12.44-.12h1.43v.29h-1.43c-.08,0-.16.01-.23.04Z"/>
              <path class="cls-3" d="M167.41,20.45v.29h-.54c-.15,0-.3-.04-.43-.11-.13-.08-.24-.18-.32-.31-.08-.13-.12-.27-.12-.43v-1.55h.29s0,0,0,.02v.64h.67s0,0,0,.02v.26s0,0-.03,0h-.65v.62c0,.13.03.23.1.32s.13.15.21.19c.04.02.09.04.16.05.07,0,.13,0,.18,0h.48Z"/>
              <path class="cls-3" d="M169.27,19c.16,0,.29,0,.41.04.12.04.21.09.28.15.07.06.13.13.17.21.04.07.07.14.09.2.02.06.03.12.04.16s0,.07,0,.06v.1c0,.08-.02.16-.06.26-.04.1-.09.19-.17.28-.08.09-.18.16-.3.21s-.26.08-.43.07h-.33c-.16,0-.3-.01-.43-.07s-.22-.12-.3-.21c-.08-.09-.13-.18-.17-.28-.04-.1-.06-.18-.06-.26v-.1s0-.01,0-.06.02-.1.04-.16.05-.13.09-.2c.04-.07.1-.14.17-.21.08-.06.17-.12.28-.15.12-.04.25-.05.41-.04h.24ZM169.38,20.45c.22,0,.37-.05.46-.16s.14-.22.15-.34v-.05s0-.08,0-.08v-.05c-.02-.11-.07-.22-.15-.33-.09-.11-.24-.16-.46-.16h-.46c-.22,0-.37.05-.46.16-.09.11-.14.22-.15.33v.05s0,.08,0,.08v.05c.02.12.07.23.16.34.09.1.24.16.46.16h.46Z"/>
              <path class="cls-3" d="M172.69,19.74c.12,0,.22.05.31.12.09.07.13.21.13.41,0,.11-.03.2-.08.27-.05.07-.12.12-.2.16-.08.03-.16.05-.24.05h-1.78v-.29s1.77,0,1.77,0c.06,0,.12-.01.17-.04.05-.03.08-.09.08-.19,0-.06-.02-.11-.05-.14-.04-.03-.08-.04-.12-.05s-.07,0-.08,0h-1.29c-.07,0-.14-.02-.22-.06-.08-.04-.14-.09-.2-.18-.06-.08-.08-.19-.08-.32,0-.11.03-.21.09-.28s.13-.13.21-.16c.08-.04.16-.05.23-.06h1.61v.29h-1.59c-.07,0-.13.01-.18.04-.06.03-.08.1-.08.21,0,.09.03.15.08.18.05.03.1.04.15.04h1.38Z"/>
              <path class="cls-3" d="M176.79,18.98v1.52c-.01.17-.05.33-.13.45-.09.16-.2.27-.32.34-.12.07-.27.11-.45.11h-1.24s-.02,0-.02-.02v-.25s0-.02.02-.02h1.24c.06,0,.12,0,.17-.01.05,0,.09-.03.13-.05.05-.04.1-.07.13-.1s.06-.06.08-.11l.04-.09h-1.13c-.13,0-.25-.02-.36-.08-.11-.05-.19-.11-.26-.18-.07-.07-.12-.15-.18-.26-.05-.11-.08-.22-.08-.33v-.92s0-.02,0-.02h.3s0,0,0,.02v.94c0,.06.01.12.04.18s.04.11.07.13c.01.01.04.04.07.07.03.03.08.07.14.09.06.03.13.05.22.06h1.24s0-1.47,0-1.47c0-.02,0-.02.02-.02h.25s.02,0,.02.02Z"/>
              <path class="cls-3" d="M180,19.74c.12,0,.22.05.31.12.09.07.13.21.13.41,0,.11-.03.2-.08.27-.05.07-.12.12-.2.16-.08.03-.16.05-.24.05h-1.78v-.29s1.77,0,1.77,0c.06,0,.12-.01.17-.04.05-.03.08-.09.08-.19,0-.06-.02-.11-.05-.14-.04-.03-.08-.04-.12-.05s-.07,0-.08,0h-1.29c-.07,0-.14-.02-.22-.06-.08-.04-.14-.09-.2-.18-.06-.08-.08-.19-.08-.32,0-.11.03-.21.09-.28.06-.07.13-.13.21-.16.08-.04.16-.05.23-.06h1.61v.29h-1.59c-.07,0-.13.01-.18.04-.06.03-.08.1-.08.21,0,.09.03.15.08.18.05.03.1.04.15.04h1.38Z"/>
              <path class="cls-3" d="M182.99,19.1c.08.07.14.14.17.23.03.08.04.16.04.22,0,.31-.17.48-.52.49h-1.38s0,.07,0,.07c0,.08,0,.14.02.19s.04.08.07.1c.03.02.08.04.14.04.06,0,.14.01.24.01h1.29s.06.02.06.05v.17s-.02.06-.06.06h-1.33c-.19,0-.33-.02-.44-.06-.11-.04-.18-.11-.23-.2s-.07-.21-.07-.37v-.44c0-.1.04-.21.12-.31.08-.1.18-.19.3-.26s.25-.1.38-.1h.84c.15,0,.27.03.36.1ZM182.79,19.73s.05-.03.08-.06c.02-.02.03-.04.04-.07,0-.03.01-.06.01-.11,0-.02,0-.05-.02-.08-.01-.03-.03-.06-.07-.09-.03-.03-.08-.04-.13-.04h-.92c-.07,0-.14.02-.21.06s-.14.1-.19.17-.08.15-.08.23h1.37c.06,0,.1,0,.12-.01Z"/>
              <path class="cls-3" d="M185.71,19.26h-.99s-.11,0-.17,0c-.06,0-.12,0-.17.02-.05.02-.1.04-.14.08-.04.04-.07.08-.08.14-.02.05-.03.1-.03.14,0,.04,0,.11,0,.21v.87s0,.02-.02.02h-.25s-.02,0-.02-.02v-.89s0-.1,0-.19c0-.09.02-.18.05-.27.03-.09.1-.17.19-.24.06-.04.12-.08.18-.1.07-.02.13-.04.19-.05.06,0,.12-.01.17-.01h1.1v.29Z"/>
              <path class="cls-3" d="M186.41,18.95l1.03,1.55h.04l1.03-1.55h.35l-1.04,1.55c-.08.13-.14.21-.16.24h-.4c-.05-.07-.1-.15-.16-.24l-1.03-1.55h.35Z"/>
              <path class="cls-3" d="M189.56,18.14v.31h-.31v-.31h.31ZM189.56,18.86v1.88h-.31v-1.88h.31Z"/>
              <path class="cls-3" d="M190.8,19.33c-.08.03-.14.07-.19.12s-.09.12-.12.19c-.03.08-.04.16-.04.23s.01.16.04.23c.03.08.07.14.12.19s.12.09.19.12.16.04.23.04h1.43v.29h-1.43c-.16,0-.3-.04-.44-.12-.13-.08-.24-.18-.32-.32-.08-.13-.12-.28-.12-.44s.04-.3.12-.44c.08-.13.18-.24.32-.32.13-.08.28-.12.44-.12h1.43v.29h-1.43c-.08,0-.16.01-.23.04Z"/>
              <path class="cls-3" d="M193.38,18.14v.31h-.31v-.31h.31ZM193.38,18.86v1.88h-.31v-1.88h.31Z"/>
              <path class="cls-3" d="M195.26,19c.16,0,.29,0,.41.04s.21.09.28.15c.07.06.13.13.17.21.04.07.07.14.09.2.02.06.03.12.04.16s0,.07,0,.06v.1c0,.08-.02.16-.06.26-.04.1-.09.19-.17.28-.08.09-.18.16-.3.21s-.26.08-.43.07h-.33c-.16,0-.3-.01-.43-.07-.12-.05-.22-.12-.3-.21-.08-.09-.13-.18-.17-.28-.04-.1-.06-.18-.06-.26v-.1s0-.01,0-.06.02-.1.04-.16.05-.13.09-.2c.04-.07.1-.14.17-.21.08-.06.17-.12.28-.15.12-.04.25-.05.41-.04h.24ZM195.37,20.45c.22,0,.37-.05.46-.16.09-.1.14-.22.15-.34v-.05s0-.08,0-.08v-.05c-.02-.11-.07-.22-.15-.33-.09-.11-.24-.16-.46-.16h-.46c-.22,0-.37.05-.46.16-.09.11-.14.22-.15.33v.05s0,.08,0,.08v.05c.02.12.07.23.16.34.09.1.24.16.46.16h.46Z"/>
              <path class="cls-3" d="M198.68,19.74c.12,0,.22.05.31.12.09.07.13.21.13.41,0,.11-.03.2-.08.27-.05.07-.12.12-.2.16-.08.03-.16.05-.24.05h-1.78v-.29s1.77,0,1.77,0c.06,0,.12-.01.17-.04.05-.03.08-.09.08-.19,0-.06-.02-.11-.05-.14-.04-.03-.08-.04-.12-.05s-.07,0-.08,0h-1.29c-.07,0-.14-.02-.22-.06-.08-.04-.14-.09-.2-.18-.06-.08-.08-.19-.08-.32,0-.11.03-.21.09-.28.06-.07.13-.13.21-.16.08-.04.16-.05.23-.06h1.61v.29h-1.59c-.07,0-.13.01-.18.04-.06.03-.08.1-.08.21,0,.09.03.15.08.18.05.03.1.04.15.04h1.38Z"/>
            </g>
            <rect class="cls-1" x="211.16" y="18.11" width="4.16" height="1.32"/>
            <rect class="cls-27" x="211.16" y="19.43" width="4.16" height=".66"/>
            <rect class="cls-2" x="211.16" y="20.09" width="4.16" height=".66"/>
            <rect class="cls-22" x="206.07" y="18.12" width="1.39" height="2.63"/>
            <rect class="cls-22" x="208.84" y="18.12" width="1.39" height="2.63"/>
            <rect class="cls-4" x="207.45" y="18.12" width="1.39" height="2.63"/>
            <polyline class="cls-12" points="205.13 20.75 200.98 20.75 200.98 19.43 205.13 19.43"/>
            <rect class="cls-18" x="200.98" y="18.11" width="1.39" height="1.32"/>
            <rect class="cls-4" x="202.36" y="18.11" width="2.77" height="1.32"/>
            <polygon class="cls-4" points="201.33 18.67 201.59 18.67 201.67 18.44 201.75 18.67 201.99 18.67 201.79 18.81 201.87 19.04 201.67 18.9 201.46 19.04 201.54 18.81 201.33 18.67"/>
            <path class="cls-4" d="M14.84.27L.55,4.78l14.33,11.12,14.04-10.84L14.84.27ZM20.37,10.39l-3.12,2.39-2.66-1.71,2.04-1.67c.37-.33.48-.56.48-.56v-3.18c.03-.54-.73-.85-.73-.85-.94-.45-2.38-.43-2.38-.43-1.33-.02-3.8.92-3.8.92v2.95l-3.69-2.37c2.35-.95,3.42-1.2,3.42-1.2,2.33-.65,3.96-.69,3.96-.69,2.61-.14,4.69.58,4.69.58,2.07.57,2.93,1.3,2.93,1.3,1.72,1.29,1.33,2.61,1.33,2.61-.27.24-2.47,1.91-2.47,1.91"/>
            <polygon class="cls-11" points=".02 8.24 .02 4.69 14.92 16.03 29.45 4.96 29.45 8.22 14.87 21.46 .02 8.24"/>
            <path class="cls-11" d="M6.42,5.91l-2.39-1.48s3.15-1.23,5.77-1.73c2.62-.5,3.58-.53,5.07-.47,1.49.06,4.37.63,6.26,1.55,1.89.93,2.29,1.89,2.4,2.42.12.53.09,1.75-.34,2.13l-.42.38s.31-.69-.13-1.56c-.44-.87-1.39-1.7-3.12-2.29-1.73-.59-3.27-.92-5.14-.89-1.86.03-3.56.44-4.87.82-1.3.38-3.09,1.11-3.09,1.11"/>
            <path class="cls-11" d="M10.2,5.37v2.94l4.29,2.83s.94-.73,1.6-1.28c.66-.54.94-.87,1.01-1.03v-3.24s.08.51-1.06,1.15c-1.13.64-1.49.85-1.49.85l-4.35-2.21Z"/>
            <path class="cls-11" d="M14.88,16.23L0,4.68,14.85,0h.04s14.57,4.97,14.57,4.97l-14.57,11.26ZM.55,4.78l14.34,11.12,14.04-10.84L14.84.27.55,4.78Z"/>
            <path class="cls-11" d="M17.27,13.09l-.08-.05L3.75,4.39l.23-.09s3.19-1.24,5.8-1.74c1.92-.37,3-.49,4.15-.49.27,0,.57,0,.95.02,1.62.06,4.5.68,6.31,1.57,1.43.7,2.26,1.54,2.47,2.51.12.56.1,1.82-.38,2.25l-.43.38-5.59,4.29ZM4.32,4.45l12.94,8.32,5.44-4.17.42-.38c.38-.34.41-1.51.3-2-.2-.89-.98-1.67-2.33-2.33-1.78-.87-4.61-1.48-6.2-1.54-.38-.01-.68-.02-.94-.02-.97,0-1.94.08-4.1.49-2.17.41-4.73,1.34-5.51,1.63"/>
            <path class="cls-11" d="M14.47,7.64l-4.29-2.19.04-.07-.03-.08c.1-.04,2.43-.93,3.82-.93h.03c1.45.01,2.38.36,2.77.69.36.3.41.63.16,1.02-.18.28-.7.67-1.43,1.05-.71.38-1.02.5-1.03.51h-.03ZM10.32,5.39l4.15,2.12c.09-.04.4-.18.99-.49.7-.37,1.21-.74,1.38-1,.21-.33.17-.6-.13-.85-.37-.31-1.27-.65-2.69-.66h-.03c-1.21,0-3.21.72-3.68.89"/>
            <path class="cls-11" d="M40.5,6.74c.14.02.36.08.68.19.31.11.68.32,1.09.63.41.31.77.78,1.08,1.4.31.62.46,1.41.46,2.36s-.18,1.67-.54,2.27c-.36.61-.79,1.06-1.29,1.35-.5.29-.97.47-1.42.53h-7.62V6.73h7.57ZM40.44,14.29c.23-.04.52-.14.84-.3.32-.16.63-.46.92-.9.29-.43.43-1.03.43-1.78,0-.88-.15-1.57-.45-2.07-.3-.5-.62-.84-.95-1.01-.33-.18-.61-.28-.84-.32h-6.28v6.38h6.33Z"/>
            <rect class="cls-11" x="44.63" y="6.75" width="1.19" height="8.7"/>
            <path class="cls-11" d="M52.3,9.12c.77-.01,1.46-.13,2.06-.34.61-.22,1.08-.43,1.4-.65.33-.22.55-.38.66-.49l.96-.91v8.75h-1.14v-6.32c-.5.3-1.08.55-1.75.76-.66.21-1.39.32-2.18.33-.83,0-1.61-.1-2.33-.32-.72-.22-1.36-.49-1.92-.82v6.36h-1.14V6.73l1,.86c.14.13.39.3.75.53.36.23.86.45,1.51.68.64.23,1.35.33,2.11.32"/>
            <rect class="cls-9" x="59.08" y="10.44" width="2.29" height="1.16"/>
            <g>
              <path class="cls-26" d="M62.78,6.68h10v1.2h-8.8v2.4h6.66v1.2h-6.66v4h-1.2V6.68Z"/>
              <path class="cls-26" d="M81.13,10.95c.24.42.36.94.36,1.56,0-.1,0-.08,0,.06h0v.69c0,.58-.12,1.03-.33,1.34-.22.31-.48.53-.79.63s-.63.17-.97.17c-.34,0-.6.02-.76.02h-3.14c-.49,0-.91-.18-1.26-.54-.35-.36-.52-.79-.52-1.3s.17-.95.52-1.31c.35-.36.77-.55,1.26-.55h4.82c0-.07-.02-.14-.04-.2-.02-.07-.04-.11-.05-.13-.09-.18-.22-.35-.39-.5-.17-.15-.36-.27-.56-.36-.21-.08-.43-.12-.65-.12h-4.64v-.94c0-.08,0-.11,0-.08h4.64c.54,0,1.03.14,1.5.42.22.13.41.29.57.47s.31.4.46.65ZM80.43,13.4c0-.09,0-.29-.01-.62h-5.06c-.18,0-.33.08-.47.24-.13.16-.19.36-.19.58s.06.42.19.58c.13.16.29.24.47.24h3.28c.37,0,.67,0,.89-.02s.39-.07.52-.16c.14-.1.23-.22.29-.35.05-.14.08-.3.09-.49Z"/>
              <path class="cls-26" d="M84.29,10.69c-.26.09-.48.22-.65.4s-.3.39-.4.66c-.09.27-.14.53-.14.79s.05.53.14.79.22.48.4.66.39.3.65.4c.26.09.53.14.79.14h4.82v.97h-4.82c-.53,0-1.02-.13-1.48-.4-.45-.26-.81-.62-1.07-1.07-.26-.45-.39-.94-.39-1.48s.13-1.03.39-1.48c.27-.45.62-.81,1.07-1.07.45-.27.95-.4,1.48-.4h4.82v.97h-4.82c-.26,0-.52.05-.79.14Z"/>
              <path class="cls-26" d="M95.66,14.48v.96h-1.81c-.52,0-1.01-.13-1.46-.39-.45-.26-.81-.61-1.07-1.05-.26-.44-.4-.92-.41-1.44v-5.25h.97s0,0,0,.07v2.16h2.27s0,0,0,.07v.89s-.03,0-.08,0h-2.18v2.08c0,.42.11.78.33,1.06s.45.5.69.64c.12.08.3.13.55.15s.44.03.59.02h1.61Z"/>
              <path class="cls-26" d="M100.84,9.57c.53-.02.99.02,1.38.15.39.12.71.29.96.51.25.22.44.45.59.69.14.25.24.48.31.69.06.21.1.4.12.55s.02.22.02.2v.35c0,.25-.06.54-.19.87-.12.33-.32.64-.58.93-.26.3-.6.54-1.01.72-.41.18-.89.26-1.44.23h-1.1c-.55.03-1.03-.05-1.44-.23-.42-.18-.75-.42-1.01-.72-.26-.3-.46-.61-.58-.93-.12-.32-.19-.61-.19-.87v-.35s0-.04.02-.2.06-.34.12-.55c.06-.21.17-.44.31-.69.14-.25.34-.48.59-.69.25-.22.57-.39.96-.51.39-.12.85-.17,1.38-.15h.8ZM101.22,14.48c.73,0,1.25-.18,1.54-.53.3-.35.47-.73.51-1.14v-.17s.01-.28.01-.28v-.18c-.06-.38-.23-.75-.52-1.11-.29-.36-.81-.54-1.55-.54h-1.56c-.74,0-1.25.18-1.54.54-.29.36-.46.73-.5,1.11l-.02.18v.26l.02.18c.04.4.21.78.51,1.14.3.35.81.53,1.54.53h1.56Z"/>
              <path class="cls-26" d="M111.53,10.46h-3.35c-.17,0-.36,0-.57,0-.21,0-.41.03-.59.08s-.34.15-.48.28c-.14.13-.23.29-.29.47-.06.18-.09.34-.09.47,0,.13,0,.37,0,.71v2.92c0,.05-.02.08-.07.08h-.83s-.07-.03-.07-.08v-3.01c0-.12,0-.34,0-.64s.06-.61.18-.92c.12-.31.33-.58.63-.82.19-.15.4-.26.62-.34.22-.08.44-.13.64-.16.2-.03.39-.04.56-.04h3.7v.99Z"/>
              <path class="cls-26" d="M113.6,6.69v1.04h-1.04v-1.04h1.04ZM113.6,9.11v6.35h-1.04v-6.35h1.04Z"/>
              <path class="cls-26" d="M121.88,10.97c.26.46.39.96.39,1.51v3h-.99v-3c0-.27-.05-.54-.14-.81s-.22-.49-.4-.67c-.17-.18-.38-.31-.64-.41-.26-.09-.51-.14-.77-.14h-1.86c-.5,0-1.15,0-1.95,0,0-.23,0-.02,0,.65s0,1.1,0,1.31v3.07h-.99v-6.01h4.79c.52,0,1.01.13,1.46.4.45.27.81.64,1.07,1.1Z"/>
              <path class="cls-26" d="M129.79,9.88c.26.14.47.35.63.61.16.26.25.57.25.92v3.18c-.02.51-.15.98-.36,1.42-.22.44-.52.79-.9,1.06-.38.27-.82.42-1.33.45h-4.83v-.94h4.7c.3,0,.6-.09.9-.27s.53-.45.68-.8l.03-.08h-3.58c-.58,0-1.09-.14-1.53-.42-.43-.28-.77-.64-1-1.07-.23-.43-.35-.87-.35-1.32v-.21c0-.42.12-.84.36-1.27.24-.43.57-.78,1-1.06.43-.28.91-.42,1.45-.42h3.07c.27,0,.54.07.8.21ZM129.72,14.48v-3.18c0-.17-.06-.33-.18-.47-.12-.15-.28-.22-.47-.22h-2.98c-.5,0-.9.09-1.21.27s-.52.41-.64.68c-.12.27-.19.56-.19.86v.23c0,.39.09.72.26,1,.17.28.4.48.67.62.28.14.56.21.86.21h3.87Z"/>
              <path class="cls-26" d="M133.86,6.7h8.79v1.2h-7.59v2.4h7.59v1.2h-7.59v2.8h7.59v1.2h-8.79V6.7Z"/>
              <path class="cls-26" d="M144.15,6.69h1.05s-.01,0,0,0v5.65c0,.41.1.78.3,1.1.2.32.44.57.73.75.29.18.57.27.83.27h2.15v1.05h-2.18c-.55,0-1.04-.17-1.48-.51s-.78-.76-1.02-1.27-.37-1.01-.37-1.49v-5.29c0-.27,0-.35,0-.26Z"/>
              <path class="cls-26" d="M156.95,9.91c.29.23.48.49.57.77.09.28.14.53.15.74,0,1.05-.58,1.6-1.76,1.66h-4.67s0,.25,0,.25c0,.27.02.49.07.64s.13.27.25.34c.11.07.27.12.46.15s.47.04.82.04h4.36c.13,0,.19.06.19.18v.59c0,.13-.06.19-.19.19h-4.51c-.63,0-1.12-.07-1.48-.21-.36-.14-.62-.36-.77-.67s-.23-.72-.23-1.24v-1.5c0-.35.13-.7.4-1.05s.61-.65,1.02-.88c.42-.23.84-.35,1.28-.35h2.84c.52,0,.92.12,1.21.35ZM156.27,12.04c.09-.03.17-.09.26-.19.06-.07.1-.15.13-.24.03-.09.04-.21.05-.37,0-.07-.02-.16-.06-.27s-.11-.21-.22-.3-.26-.14-.45-.14h-3.1c-.22,0-.46.07-.72.21-.26.14-.48.33-.65.56-.18.24-.27.5-.27.79h4.61c.19,0,.33-.02.42-.05Z"/>
              <path class="cls-26" d="M160.67,10.69c-.26.09-.48.22-.65.4s-.3.39-.4.66c-.09.27-.14.53-.14.79s.05.53.14.79.22.48.4.66.39.3.65.4.53.14.79.14h4.82v.97h-4.82c-.53,0-1.02-.13-1.48-.4-.45-.26-.81-.62-1.07-1.07-.26-.45-.39-.94-.39-1.48s.13-1.03.39-1.48c.27-.45.62-.81,1.07-1.07.45-.27.95-.4,1.48-.4h4.82v.97h-4.82c-.26,0-.52.05-.79.14Z"/>
              <path class="cls-26" d="M172.04,14.48v.96h-1.81c-.52,0-1.01-.13-1.46-.39-.45-.26-.81-.61-1.07-1.05-.26-.44-.4-.92-.41-1.44v-5.25h.97s0,0,0,.07v2.16h2.27s0,0,0,.07v.89s-.03,0-.09,0h-2.18v2.08c0,.42.11.78.33,1.06s.45.5.69.64c.12.08.3.13.55.15s.44.03.59.02h1.61Z"/>
              <path class="cls-26" d="M179.44,10.46h-3.35c-.17,0-.36,0-.57,0-.21,0-.41.03-.58.08s-.34.15-.48.28c-.13.13-.23.29-.29.47-.05.18-.09.34-.09.47s0,.37,0,.71v2.92c0,.05-.02.08-.07.08h-.83s-.07-.03-.07-.08v-3.01c0-.12,0-.34,0-.64s.06-.61.18-.92.33-.58.63-.82c.19-.15.4-.26.62-.34.22-.08.44-.13.64-.16.2-.03.39-.04.56-.04h3.7v.99Z"/>
              <path class="cls-26" d="M184.47,9.57c.53-.02.99.02,1.38.15.39.12.71.29.96.51.25.22.45.45.59.69s.24.48.31.69c.06.21.1.4.12.55.02.16.02.22.02.2v.35c0,.25-.06.54-.19.87-.12.33-.32.64-.58.93-.26.3-.6.54-1.01.72s-.89.26-1.44.23h-1.1c-.55.03-1.03-.05-1.44-.23s-.75-.42-1.01-.72c-.26-.3-.46-.61-.58-.93-.12-.32-.19-.61-.19-.87v-.35s0-.04.02-.2c.02-.16.06-.34.12-.55.06-.21.17-.44.31-.69.14-.25.34-.48.59-.69.25-.22.57-.39.96-.51.39-.12.85-.17,1.38-.15h.8ZM184.85,14.48c.73,0,1.25-.18,1.54-.53.3-.35.47-.73.51-1.14v-.17s.01-.28.01-.28v-.18c-.06-.38-.23-.75-.52-1.11-.29-.36-.81-.54-1.54-.54h-1.56c-.74,0-1.25.18-1.54.54s-.46.73-.5,1.11l-.02.18v.26l.02.18c.04.4.21.78.51,1.14.3.35.81.53,1.54.53h1.56ZM184.81,7.37h1.2s-.75.77-.75.77l-.79.75h-.74l1.08-1.53Z"/>
              <path class="cls-26" d="M195.95,10.97c.26.46.39.96.39,1.51v3h-.99v-3c0-.27-.05-.54-.14-.81-.09-.27-.22-.49-.39-.67-.17-.18-.38-.31-.64-.41-.26-.09-.52-.14-.77-.14h-1.86c-.5,0-1.15,0-1.95,0,0-.23,0-.02,0,.65s0,1.1,0,1.31v3.07h-.99v-6.01h4.79c.52,0,1.01.13,1.46.4.45.27.81.64,1.07,1.1Z"/>
              <path class="cls-26" d="M198.42,6.69v1.04h-1.04v-1.04h1.04ZM198.42,9.11v6.35h-1.04v-6.35h1.04Z"/>
              <path class="cls-26" d="M201.52,10.69c-.26.09-.48.22-.65.4s-.3.39-.4.66c-.09.27-.14.53-.14.79s.05.53.14.79.22.48.4.66.39.3.65.4.53.14.79.14h4.82v.97h-4.82c-.53,0-1.02-.13-1.48-.4-.45-.26-.81-.62-1.07-1.07-.26-.45-.39-.94-.39-1.48s.13-1.03.39-1.48c.27-.45.62-.81,1.07-1.07.45-.27.95-.4,1.48-.4h4.82v.97h-4.82c-.26,0-.52.05-.79.14Z"/>
              <path class="cls-26" d="M212.13,9.57c.53-.02.99.02,1.38.15.39.12.71.29.96.51.25.22.44.45.59.69.14.25.24.48.31.69.06.21.1.4.12.55s.02.22.02.2v.35c0,.25-.06.54-.19.87-.12.33-.32.64-.58.93-.26.3-.6.54-1.01.72-.41.18-.89.26-1.44.23h-1.1c-.55.03-1.03-.05-1.44-.23-.42-.18-.75-.42-1.01-.72-.26-.3-.46-.61-.58-.93-.12-.32-.19-.61-.19-.87v-.35s0-.04.02-.2.06-.34.12-.55c.06-.21.17-.44.31-.69.14-.25.34-.48.59-.69.25-.22.57-.39.96-.51.39-.12.85-.17,1.38-.15h.8ZM212.51,14.48c.73,0,1.25-.18,1.54-.53.3-.35.47-.73.51-1.14v-.17s.01-.28.01-.28v-.18c-.06-.38-.23-.75-.52-1.11-.29-.36-.81-.54-1.55-.54h-1.56c-.74,0-1.25.18-1.54.54-.29.36-.46.73-.5,1.11l-.02.18v.26l.02.18c.04.4.21.78.51,1.14.3.35.81.53,1.54.53h1.56Z"/>
            </g>
          </g>
          <g>
            <g>
              <path class="cls-5" d="M144.04,187.47h1.14v8.37h-1.14v-8.37Z"/>
              <path class="cls-5" d="M149.57,191.29c-.25.09-.46.21-.62.38s-.29.37-.38.63-.13.51-.13.76.04.5.13.76.21.46.38.63.37.29.62.38.5.13.75.13h4.61v.93h-4.61c-.51,0-.98-.13-1.41-.38-.43-.25-.77-.59-1.03-1.03-.25-.43-.38-.9-.38-1.41s.12-.98.38-1.41c.25-.43.6-.78,1.03-1.03.43-.25.9-.38,1.41-.38h4.61v.93h-4.61c-.25,0-.5.04-.75.13Z"/>
              <path class="cls-5" d="M161.06,190.21c.5-.02.94.02,1.32.14s.68.28.92.49.42.43.56.66.23.45.29.66.1.38.11.53.02.21.02.19v.33c0,.24-.06.52-.18.83s-.3.61-.55.89-.57.51-.97.69-.85.25-1.38.22h-1.05c-.52.03-.98-.05-1.38-.22s-.72-.4-.97-.69-.43-.58-.55-.89-.18-.59-.18-.83v-.33s0-.04.02-.19.05-.33.11-.53.16-.42.29-.66.32-.46.56-.66.55-.37.92-.49.81-.16,1.32-.14h.76ZM161.42,194.9c.7,0,1.19-.17,1.47-.51s.45-.7.49-1.09v-.16s.01-.26.01-.26v-.18c-.05-.37-.22-.72-.5-1.06s-.77-.51-1.48-.51h-1.49c-.7,0-1.2.17-1.48.51s-.44.7-.48,1.06l-.02.18v.25l.02.18c.04.39.2.75.49,1.09s.78.51,1.47.51h1.49Z"/>
              <path class="cls-5" d="M173.39,191.55c.25.44.38.92.38,1.44v2.87h-.94v-2.87c0-.26-.04-.52-.13-.77s-.21-.47-.38-.64c-.16-.17-.36-.3-.61-.39s-.49-.13-.74-.13h-1.78c-.48,0-1.1,0-1.86,0,0-.22,0-.01,0,.62s0,1.06,0,1.25v2.94h-.94v-5.74h4.58c.5,0,.97.13,1.4.38.43.26.77.61,1.03,1.05Z"/>
              <path class="cls-5" d="M179.91,190.21c.5-.02.94.02,1.32.14s.68.28.92.49.42.43.56.66.23.45.29.66.1.38.11.53.02.21.02.19v.33c0,.24-.06.52-.18.83s-.3.61-.55.89-.57.51-.97.69-.85.25-1.38.22h-1.05c-.52.03-.98-.05-1.38-.22s-.72-.4-.97-.69-.43-.58-.55-.89-.18-.59-.18-.83v-.33s0-.04.02-.19.05-.33.11-.53.16-.42.29-.66.32-.46.56-.66.55-.37.92-.49.81-.16,1.32-.14h.76ZM180.28,194.9c.7,0,1.19-.17,1.47-.51s.45-.7.49-1.09v-.16s.01-.26.01-.26v-.18c-.05-.37-.22-.72-.5-1.06s-.77-.51-1.48-.51h-1.49c-.7,0-1.2.17-1.48.51s-.44.7-.48,1.06l-.02.18v.25l.02.18c.04.39.2.75.49,1.09s.78.51,1.47.51h1.49Z"/>
              <path class="cls-5" d="M195.34,191.53c.23.4.35.9.35,1.49,0-.09,0-.07,0,.06h0v.66c0,.55-.11.98-.32,1.28s-.46.5-.76.61-.61.16-.93.17-.57.02-.73.02h-3.01c-.47,0-.87-.17-1.2-.52s-.5-.76-.5-1.24.17-.9.5-1.25c.33-.35.73-.52,1.2-.52h4.61c0-.07-.02-.13-.04-.19s-.04-.11-.05-.13c-.09-.18-.21-.34-.38-.48s-.34-.26-.54-.34c-.2-.08-.41-.12-.62-.12h-4.44v-.9c0-.08,0-.1,0-.08h4.44c.51,0,.99.13,1.43.4.21.12.39.27.55.45s.3.38.44.62ZM194.67,193.87c0-.08,0-.28-.01-.59h-4.83c-.17,0-.32.08-.45.23-.12.16-.18.34-.18.56s.06.4.18.56c.12.15.27.23.45.23h3.13c.36,0,.64,0,.85-.02s.38-.07.5-.16c.13-.09.22-.21.27-.34s.08-.29.09-.47Z"/>
              <path class="cls-5" d="M198.76,197.92h-.91c0,.05,0,0,0-.16v-5.33c0-.35.13-.69.4-1.02s.59-.6.98-.81.75-.31,1.08-.31h1.71c.53-.02.99.05,1.39.22s.72.39.97.67.44.57.56.88.18.58.18.82v.32s0,.04-.02.18-.05.32-.11.52-.16.42-.3.65-.33.45-.57.65-.55.36-.92.48-.82.16-1.32.14h-3.11v2.1ZM198.76,194.9h3.47c.57,0,1-.12,1.29-.35s.48-.47.57-.73.13-.46.13-.62v-.28c0-.19-.04-.42-.13-.68s-.28-.5-.57-.73-.72-.33-1.27-.33h-1.88c-.24,0-.49.07-.74.22s-.46.34-.62.56-.24.45-.24.66v2.26Z"/>
              <path class="cls-5" d="M208.17,197.92h-.91c0,.05,0,0,0-.16v-5.33c0-.35.13-.69.4-1.02s.59-.6.98-.81.75-.31,1.08-.31h1.71c.53-.02.99.05,1.39.22s.72.39.97.67.44.57.56.88.18.58.18.82v.32s0,.04-.02.18-.05.32-.11.52-.16.42-.3.65-.33.45-.57.65-.55.36-.92.48-.82.16-1.32.14h-3.11v2.1ZM208.17,194.9h3.47c.57,0,1-.12,1.29-.35s.48-.47.57-.73.13-.46.13-.62v-.28c0-.19-.04-.42-.13-.68s-.28-.5-.57-.73-.72-.33-1.27-.33h-1.88c-.24,0-.49.07-.74.22s-.46.34-.62.56-.24.45-.24.66v2.26Z"/>
            </g>
            <g>
              <rect class="cls-6" x="179.73" y="147.65" width="35.78" height="29.44"/>
              <rect class="cls-4" x="181.91" y="155.48" width="31.42" height="20.04"/>
              <rect class="cls-4" x="181.93" y="149.26" width="31.38" height="4.64"/>
              <rect class="cls-6" x="199.48" y="150.04" width="2.82" height="2.82"/>
              <rect class="cls-6" x="204.29" y="150.04" width="2.82" height="2.82"/>
              <rect class="cls-6" x="209.11" y="150.04" width="2.82" height="2.82"/>
              <path class="cls-5" d="M178.03,153.31h11.81c.52,0,1.02.21,1.39.57l4.26,4.24c.37.37.58.87.58,1.4v15.84c0,1.09-.88,1.97-1.97,1.97h-14.1c-1.09,0-1.97-.88-1.97-1.97v-22.05Z"/>
              <polygon class="cls-4" points="179.66 154.68 189.93 154.68 189.93 159.36 194.42 159.36 194.42 175.92 179.66 175.92 179.66 154.68"/>
              <path class="cls-21" d="M204.5,172.31c0,5.38-4.37,9.75-9.75,9.75s-9.75-4.36-9.75-9.75,4.36-9.75,9.75-9.75,9.75,4.36,9.75,9.75"/>
              <path class="cls-4" d="M203.5,172.31c0,4.83-3.92,8.75-8.75,8.75s-8.75-3.92-8.75-8.75,3.92-8.75,8.75-8.75,8.75,3.92,8.75,8.75"/>
              <path class="cls-5" d="M198.17,176.31c-.26.48-.65.87-1.16,1.19-.51.32-1.12.5-1.83.54v1.33h-.89v-1.33c-1-.09-1.81-.41-2.43-.96-.62-.55-.94-1.26-.95-2.11h1.59c.04.46.22.86.52,1.2.3.34.73.55,1.27.64v-4.11c-.73-.19-1.33-.38-1.77-.58-.45-.2-.83-.5-1.15-.92-.32-.42-.48-.98-.48-1.68,0-.89.31-1.62.93-2.2.62-.58,1.44-.9,2.47-.97v-1.36h.89v1.36c.93.08,1.68.38,2.25.9.57.52.9,1.2.99,2.03h-1.59c-.06-.38-.22-.73-.51-1.04-.28-.31-.66-.52-1.13-.62v4.01c.72.19,1.31.38,1.77.57.45.19.84.5,1.15.91.31.42.47.98.47,1.69,0,.52-.13,1.03-.39,1.5M192.9,170.68c.32.28.78.52,1.4.71v-3.8c-.57.06-1.03.24-1.36.55-.34.31-.51.75-.51,1.31s.16.95.48,1.23M196.57,176.18c.33-.36.5-.79.5-1.3,0-.54-.16-.95-.49-1.24-.33-.29-.79-.52-1.4-.7v3.88c.59-.07,1.05-.28,1.39-.64"/>
              <path class="cls-5" d="M172.46,157.26h11.81c.52,0,1.02.21,1.39.57l4.26,4.24c.37.37.58.87.58,1.4v15.84c0,1.09-.88,1.97-1.97,1.97h-14.1c-1.09,0-1.97-.88-1.97-1.97v-22.05Z"/>
              <polygon class="cls-23" points="174.09 158.64 184.37 158.64 184.37 163.32 188.86 163.32 188.86 179.88 174.09 179.88 174.09 158.64"/>
              <path class="cls-4" d="M182.63,162.24h-6.59c-.23,0-.41-.18-.41-.41s.18-.41.41-.41h6.59c.23,0,.41.18.41.41s-.18.41-.41.41"/>
              <path class="cls-4" d="M187.06,165.57h-11.16c-.23,0-.41-.18-.41-.41s.18-.41.41-.41h11.16c.23,0,.41.18.41.41s-.18.41-.41.41"/>
              <path class="cls-4" d="M187.04,178.02h-11.15c-.23,0-.41-.18-.41-.41s.18-.41.41-.41h11.15c.23,0,.41.18.41.41s-.18.41-.41.41"/>
              <rect class="cls-4" x="182.28" y="169.63" width="1.86" height="4.78"/>
              <rect class="cls-4" x="175.28" y="171.29" width="1.86" height="3.13"/>
              <rect class="cls-4" x="178.64" y="170.37" width="1.86" height="4.05"/>
              <rect class="cls-4" x="185.92" y="168.59" width="1.86" height="5.83"/>
            </g>
          </g>
        </g>
      </g>
    </g>
  </g>
</svg>