<?xml version="1.0" encoding="UTF-8"?>
<svg id="Capa_2" xmlns="http://www.w3.org/2000/svg" viewBox="0 0 130.67 200.62">
  <defs>
    <style>
      .cls-1 {
        fill: #f9cf16;
      }

      .cls-2 {
        fill: #cd142a;
      }

      .cls-3 {
        fill: #fdfeff;
      }

      .cls-4 {
        fill: #919294;
      }

      .cls-5 {
        fill: #646365;
      }

      .cls-6 {
        fill: #fff;
      }

      .cls-7 {
        fill: #115a9f;
      }

      .cls-8, .cls-9 {
        fill: #625f60;
      }

      .cls-10 {
        fill: #505050;
      }

      .cls-11 {
        fill: #515050;
      }

      .cls-12 {
        fill: #d00e4d;
      }

      .cls-13 {
        fill: #d8d8d7;
      }

      .cls-14 {
        fill: #d00e4c;
      }

      .cls-15 {
        fill: #d22e1f;
      }

      .cls-16 {
        fill: #efc89b;
      }

      .cls-9 {
        font-family: DimRegular, Dim-Regular;
        font-size: 12px;
      }

      .cls-17 {
        fill: #9d9a9c;
      }

      .cls-18 {
        fill: #d20f48;
      }

      .cls-19 {
        fill: #5a5a5b;
      }

      .cls-20 {
        fill: #1d458c;
      }

      .cls-21 {
        fill: #dd4c75;
      }

      .cls-22 {
        fill: #48a98e;
      }

      .cls-23 {
        fill: #e1222c;
      }

      .cls-24 {
        fill: #4eb692;
      }

      .cls-25 {
        fill: #828384;
      }

      .cls-26 {
        fill: #1b4180;
      }
    </style>
  </defs>
  <g id="Capa_1-2" data-name="Capa_1">
    <g>
      <g>
        <path class="cls-5" d="M64.95,21.38h-.28s0,0,0-.05v-1.65c0-.11.04-.21.12-.32s.18-.19.3-.25c.12-.07.23-.1.33-.1h.53c.16,0,.31.02.43.07.12.05.22.12.3.21.08.09.14.18.17.27.04.09.06.18.06.25v.1s0,.01,0,.06c0,.04-.02.1-.04.16-.02.06-.05.13-.09.2-.04.07-.1.14-.17.2-.08.06-.17.11-.29.15-.12.04-.25.05-.41.04h-.96v.65ZM64.95,20.45h1.08c.17,0,.31-.04.4-.11.09-.07.15-.15.17-.22s.04-.14.04-.19v-.09c0-.06-.01-.13-.04-.21-.03-.08-.09-.16-.18-.23s-.22-.1-.39-.1h-.58c-.08,0-.15.02-.23.07-.08.05-.14.1-.19.17s-.07.14-.07.2v.7Z"/>
        <path class="cls-5" d="M69.36,19.26h-.99s-.11,0-.17,0c-.06,0-.12,0-.17.02-.05.02-.1.04-.14.08-.04.04-.07.08-.08.14s-.03.1-.03.14c0,.04,0,.11,0,.21v.87s0,.02-.02.02h-.25s-.02,0-.02-.02v-.89s0-.1,0-.19c0-.09.02-.18.05-.27.04-.09.1-.17.19-.24.06-.04.12-.08.18-.1.07-.02.13-.04.19-.05s.12-.01.17-.01h1.1v.29Z"/>
        <path class="cls-5" d="M71.17,18.99c.16,0,.29,0,.41.04.12.04.21.09.28.15.07.06.13.13.17.21.04.07.07.14.09.2s.03.12.04.16,0,.07,0,.06v.1c0,.08-.02.16-.05.26-.04.1-.09.19-.17.28-.08.09-.18.16-.3.21s-.26.08-.43.07h-.33c-.16,0-.31-.01-.43-.07-.12-.05-.22-.12-.3-.21-.08-.09-.13-.18-.17-.28-.04-.1-.06-.18-.06-.26v-.1s0-.01,0-.06.02-.1.04-.16.05-.13.09-.2c.04-.07.1-.14.17-.21.07-.06.17-.12.28-.15.11-.04.25-.05.41-.04h.24ZM71.28,20.45c.22,0,.37-.05.46-.16s.14-.22.15-.34v-.05s0-.08,0-.08v-.05c-.02-.11-.07-.22-.15-.33-.09-.11-.24-.16-.46-.16h-.46c-.22,0-.37.05-.46.16-.09.11-.14.22-.15.33v.05s0,.08,0,.08v.05c.02.12.07.23.16.34.09.1.24.16.46.16h.46Z"/>
        <path class="cls-5" d="M74.73,18.35h.28s0,0,0,.05v1.68c0,.12-.01.22-.04.3s-.07.15-.12.2c-.06.05-.13.09-.22.11-.09.02-.21.04-.35.04h-.57c-.16,0-.31-.01-.43-.07-.12-.05-.23-.12-.3-.21-.08-.09-.14-.18-.17-.27-.04-.1-.06-.18-.06-.26v-.1s0-.01,0-.06c0-.05.02-.1.04-.16.02-.06.05-.13.09-.2s.1-.14.17-.2c.08-.06.17-.11.29-.15.12-.04.25-.05.41-.04h.97v-.66ZM74.73,19.29h-1.08c-.18,0-.31.04-.4.11s-.15.15-.18.23c-.03.08-.04.14-.04.19v.08c0,.06.01.13.04.21.03.08.09.16.18.23.09.07.22.1.4.1h.75c.09,0,.15-.02.2-.06.05-.04.08-.09.1-.15.02-.07.03-.15.03-.24v-.71Z"/>
        <path class="cls-5" d="M77.22,20.41c.08-.03.14-.07.19-.12s.09-.12.12-.2c.03-.08.04-.16.04-.24v-.9h.29v.9c0,.16-.04.31-.12.45-.08.14-.19.25-.32.33-.13.08-.28.12-.44.12h-.56c-.16,0-.3-.04-.44-.12-.13-.08-.24-.19-.32-.33-.08-.14-.12-.29-.12-.45v-.9h.29s0,0,0,.02v.87c0,.08.01.16.04.24.03.08.07.15.12.2s.11.09.19.12c.08.03.15.04.23.04h.56c.08,0,.15-.01.23-.04Z"/>
        <path class="cls-5" d="M79,19.33c-.08.03-.14.07-.19.12s-.09.12-.12.19c-.03.08-.04.16-.04.23s.01.16.04.23c.03.08.07.14.12.19s.12.09.19.12.16.04.23.04h1.43v.29h-1.43c-.16,0-.3-.04-.44-.12-.13-.08-.24-.18-.32-.32-.08-.13-.12-.28-.12-.44s.04-.3.12-.44c.08-.13.18-.24.32-.32.13-.08.28-.12.44-.12h1.43v.29h-1.43c-.08,0-.16.01-.23.04Z"/>
        <path class="cls-5" d="M82.69,20.45v.29h-.54c-.15,0-.3-.04-.43-.11-.13-.08-.24-.18-.32-.31-.08-.13-.12-.27-.12-.43v-1.55h.29s0,0,0,.02v.64h.67s0,0,0,.02v.26s0,0-.03,0h-.65v.62c0,.13.03.23.1.32s.13.15.21.19c.04.02.09.04.16.05.07,0,.13,0,.18,0h.48Z"/>
        <path class="cls-5" d="M84.55,18.99c.16,0,.29,0,.41.04.12.04.21.09.28.15.07.06.13.13.17.21.04.07.07.14.09.2.02.06.03.12.04.16s0,.07,0,.06v.1c0,.08-.02.16-.06.26-.04.1-.09.19-.17.28-.08.09-.18.16-.3.21s-.26.08-.43.07h-.33c-.16,0-.3-.01-.43-.07s-.22-.12-.3-.21c-.08-.09-.13-.18-.17-.28-.04-.1-.06-.18-.06-.26v-.1s0-.01,0-.06.02-.1.04-.16.05-.13.09-.2c.04-.07.1-.14.17-.21.08-.06.17-.12.28-.15.12-.04.25-.05.41-.04h.24ZM84.66,20.45c.22,0,.37-.05.46-.16s.14-.22.15-.34v-.05s0-.08,0-.08v-.05c-.02-.11-.07-.22-.15-.33-.09-.11-.24-.16-.46-.16h-.46c-.22,0-.37.05-.46.16-.09.11-.14.22-.15.33v.05s0,.08,0,.08v.05c.02.12.07.23.16.34.09.1.24.16.46.16h.46Z"/>
        <path class="cls-5" d="M87.97,19.74c.12,0,.22.05.31.12.09.07.13.21.13.41,0,.11-.03.2-.08.27-.05.07-.12.12-.2.16-.08.03-.16.05-.24.05h-1.78v-.29s1.77,0,1.77,0c.06,0,.12-.01.17-.04.05-.03.08-.09.08-.19,0-.06-.02-.11-.05-.14-.04-.03-.08-.04-.12-.05s-.07,0-.08,0h-1.29c-.07,0-.14-.02-.22-.06-.08-.04-.14-.09-.2-.18-.06-.08-.08-.19-.08-.32,0-.11.03-.21.09-.28s.13-.13.21-.16c.08-.04.16-.05.23-.06h1.61v.29h-1.59c-.07,0-.13.01-.18.04-.06.03-.08.1-.08.21,0,.09.03.15.08.18.05.03.1.04.15.04h1.38Z"/>
        <path class="cls-5" d="M92.07,18.98v1.52c-.01.17-.05.33-.13.45-.09.16-.2.27-.32.34-.12.07-.27.11-.45.11h-1.24s-.02,0-.02-.02v-.25s0-.02.02-.02h1.24c.06,0,.12,0,.17-.01.05,0,.09-.03.13-.05.05-.04.1-.07.13-.1s.06-.06.08-.11l.04-.09h-1.13c-.13,0-.25-.02-.36-.08-.11-.05-.19-.11-.26-.18-.07-.07-.12-.15-.18-.26-.05-.11-.08-.22-.08-.33v-.92s0-.02,0-.02h.3s0,0,0,.02v.94c0,.06.01.12.04.18s.04.11.07.13c.01.01.04.04.07.07.03.03.08.07.14.09.06.03.13.05.22.06h1.24s0-1.47,0-1.47c0-.02,0-.02.02-.02h.25s.02,0,.02.02Z"/>
        <path class="cls-5" d="M95.28,19.74c.12,0,.22.05.31.12.09.07.13.21.13.41,0,.11-.03.2-.08.27-.05.07-.12.12-.2.16-.08.03-.16.05-.24.05h-1.78v-.29s1.77,0,1.77,0c.06,0,.12-.01.17-.04.05-.03.08-.09.08-.19,0-.06-.02-.11-.05-.14-.04-.03-.08-.04-.12-.05s-.07,0-.08,0h-1.29c-.07,0-.14-.02-.22-.06-.08-.04-.14-.09-.2-.18-.06-.08-.08-.19-.08-.32,0-.11.03-.21.09-.28.06-.07.13-.13.21-.16.08-.04.16-.05.23-.06h1.61v.29h-1.59c-.07,0-.13.01-.18.04-.06.03-.08.1-.08.21,0,.09.03.15.08.18.05.03.1.04.15.04h1.38Z"/>
        <path class="cls-5" d="M98.28,19.1c.08.07.14.14.17.23.03.08.04.16.04.22,0,.31-.17.48-.52.49h-1.38s0,.07,0,.07c0,.08,0,.14.02.19s.04.08.07.1c.03.02.08.04.14.04.06,0,.14.01.24.01h1.29s.06.02.06.05v.17s-.02.06-.06.06h-1.33c-.19,0-.33-.02-.44-.06-.11-.04-.18-.11-.23-.2s-.07-.21-.07-.37v-.44c0-.1.04-.21.12-.31.08-.1.18-.19.3-.26s.25-.1.38-.1h.84c.15,0,.27.03.36.1ZM98.07,19.73s.05-.03.08-.06c.02-.02.03-.04.04-.07s.01-.06.01-.11c0-.02,0-.05-.02-.08-.01-.03-.03-.06-.07-.09-.03-.03-.08-.04-.13-.04h-.92c-.07,0-.14.02-.21.06s-.14.1-.19.17-.08.15-.08.23h1.37c.06,0,.1,0,.12-.01Z"/>
        <path class="cls-5" d="M101,19.26h-.99s-.11,0-.17,0c-.06,0-.12,0-.17.02-.05.02-.1.04-.14.08-.04.04-.07.08-.08.14-.02.05-.03.1-.03.14,0,.04,0,.11,0,.21v.87s0,.02-.02.02h-.25s-.02,0-.02-.02v-.89s0-.1,0-.19c0-.09.02-.18.05-.27.03-.09.1-.17.19-.24.06-.04.12-.08.18-.1.07-.02.13-.04.19-.05.06,0,.12-.01.17-.01h1.1v.29Z"/>
        <path class="cls-5" d="M101.69,18.95l1.03,1.55h.04l1.03-1.55h.35l-1.04,1.55c-.08.13-.14.21-.16.24h-.4c-.05-.07-.1-.15-.16-.24l-1.03-1.55h.35Z"/>
        <path class="cls-5" d="M104.84,18.14v.31h-.31v-.31h.31ZM104.84,18.86v1.88h-.31v-1.88h.31Z"/>
        <path class="cls-5" d="M106.08,19.33c-.08.03-.14.07-.19.12s-.09.12-.12.19c-.03.08-.04.16-.04.23s.01.16.04.23c.03.08.07.14.12.19s.12.09.19.12.16.04.23.04h1.43v.29h-1.43c-.16,0-.3-.04-.44-.12-.13-.08-.24-.18-.32-.32-.08-.13-.12-.28-.12-.44s.04-.3.12-.44c.08-.13.18-.24.32-.32.13-.08.28-.12.44-.12h1.43v.29h-1.43c-.08,0-.16.01-.23.04Z"/>
        <path class="cls-5" d="M108.66,18.14v.31h-.31v-.31h.31ZM108.66,18.86v1.88h-.31v-1.88h.31Z"/>
        <path class="cls-5" d="M110.54,18.99c.16,0,.29,0,.41.04s.21.09.28.15c.07.06.13.13.17.21.04.07.07.14.09.2.02.06.03.12.04.16s0,.07,0,.06v.1c0,.08-.02.16-.06.26-.04.1-.09.19-.17.28-.08.09-.18.16-.3.21s-.26.08-.43.07h-.33c-.16,0-.3-.01-.43-.07-.12-.05-.22-.12-.3-.21-.08-.09-.13-.18-.17-.28-.04-.1-.06-.18-.06-.26v-.1s0-.01,0-.06.02-.1.04-.16.05-.13.09-.2c.04-.07.1-.14.17-.21.08-.06.17-.12.28-.15.12-.04.25-.05.41-.04h.24ZM110.65,20.45c.22,0,.37-.05.46-.16.09-.1.14-.22.15-.34v-.05s0-.08,0-.08v-.05c-.02-.11-.07-.22-.15-.33-.09-.11-.24-.16-.46-.16h-.46c-.22,0-.37.05-.46.16-.09.11-.14.22-.15.33v.05s0,.08,0,.08v.05c.02.12.07.23.16.34.09.1.24.16.46.16h.46Z"/>
        <path class="cls-5" d="M113.96,19.74c.12,0,.22.05.31.12.09.07.13.21.13.41,0,.11-.03.2-.08.27-.05.07-.12.12-.2.16-.08.03-.16.05-.24.05h-1.78v-.29s1.77,0,1.77,0c.06,0,.12-.01.17-.04.05-.03.08-.09.08-.19,0-.06-.02-.11-.05-.14-.04-.03-.08-.04-.12-.05s-.07,0-.08,0h-1.29c-.07,0-.14-.02-.22-.06-.08-.04-.14-.09-.2-.18-.06-.08-.08-.19-.08-.32,0-.11.03-.21.09-.28.06-.07.13-.13.21-.16.08-.04.16-.05.23-.06h1.61v.29h-1.59c-.07,0-.13.01-.18.04-.06.03-.08.1-.08.21,0,.09.03.15.08.18.05.03.1.04.15.04h1.38Z"/>
      </g>
      <rect class="cls-1" x="126.44" y="18.11" width="4.16" height="1.32"/>
      <rect class="cls-26" x="126.44" y="19.43" width="4.16" height=".66"/>
      <rect class="cls-2" x="126.44" y="20.09" width="4.16" height=".66"/>
      <rect class="cls-23" x="121.35" y="18.12" width="1.39" height="2.63"/>
      <rect class="cls-23" x="124.12" y="18.12" width="1.39" height="2.63"/>
      <rect class="cls-6" x="122.73" y="18.12" width="1.39" height="2.63"/>
      <polyline class="cls-15" points="120.41 20.75 116.26 20.75 116.26 19.43 120.41 19.43"/>
      <rect class="cls-20" x="116.26" y="18.11" width="1.39" height="1.32"/>
      <rect class="cls-6" x="117.64" y="18.11" width="2.77" height="1.32"/>
      <polygon class="cls-6" points="116.62 18.67 116.87 18.67 116.95 18.44 117.03 18.67 117.28 18.67 117.07 18.81 117.15 19.04 116.95 18.9 116.74 19.04 116.82 18.81 116.62 18.67"/>
      <path class="cls-6" d="M14.84.27L.55,4.78l14.33,11.12,14.04-10.84L14.84.27ZM20.37,10.39l-3.12,2.39-2.66-1.71,2.04-1.67c.37-.33.47-.56.47-.56v-3.18c.03-.54-.73-.85-.73-.85-.94-.45-2.38-.43-2.38-.43-1.33-.02-3.8.92-3.8.92v2.95l-3.69-2.37c2.35-.95,3.42-1.2,3.42-1.2,2.33-.65,3.96-.69,3.96-.69,2.61-.14,4.68.58,4.68.58,2.08.57,2.94,1.3,2.94,1.3,1.72,1.29,1.33,2.61,1.33,2.61-.27.24-2.47,1.91-2.47,1.91"/>
      <polygon class="cls-14" points=".02 8.24 .02 4.69 14.92 16.03 29.45 4.96 29.45 8.22 14.87 21.46 .02 8.24"/>
      <path class="cls-14" d="M6.42,5.91l-2.39-1.48s3.15-1.23,5.77-1.73,3.57-.53,5.07-.47c1.49.06,4.37.63,6.26,1.55,1.89.93,2.29,1.89,2.4,2.42.12.53.09,1.75-.34,2.13l-.42.38s.31-.69-.13-1.56c-.44-.87-1.39-1.7-3.12-2.29-1.73-.59-3.27-.92-5.14-.89-1.86.03-3.56.44-4.87.82-1.3.38-3.09,1.11-3.09,1.11"/>
      <path class="cls-14" d="M10.2,5.37v2.94l4.29,2.83s.94-.73,1.6-1.28c.66-.54.94-.87,1.01-1.03v-3.24s.08.51-1.06,1.15c-1.13.64-1.49.85-1.49.85l-4.35-2.21Z"/>
      <path class="cls-14" d="M14.88,16.23L0,4.68,14.85,0h.04s14.57,4.97,14.57,4.97l-14.57,11.26ZM.55,4.78l14.34,11.12,14.04-10.84L14.84.27.55,4.78Z"/>
      <path class="cls-14" d="M17.27,13.09l-.07-.05L3.75,4.39l.24-.09s3.19-1.24,5.8-1.74c1.92-.37,3-.49,4.14-.49.27,0,.57,0,.95.02,1.62.06,4.5.68,6.31,1.57,1.43.7,2.26,1.54,2.47,2.51.12.56.1,1.82-.38,2.25l-.43.38-5.59,4.29ZM4.32,4.45l12.94,8.32,5.44-4.17.42-.38c.38-.34.41-1.51.3-2-.2-.89-.98-1.67-2.33-2.33-1.78-.87-4.61-1.48-6.2-1.54-.38-.01-.68-.02-.95-.02-.97,0-1.94.08-4.1.49-2.17.41-4.73,1.34-5.51,1.63"/>
      <path class="cls-14" d="M14.47,7.64l-4.29-2.19.04-.07-.03-.08c.1-.04,2.43-.93,3.82-.93h.03c1.46.01,2.38.36,2.77.69.36.3.41.63.16,1.02-.18.28-.7.67-1.43,1.05-.71.38-1.02.5-1.03.51h-.03ZM10.32,5.39l4.15,2.12c.09-.04.4-.18.99-.49.7-.37,1.21-.74,1.38-1,.21-.33.17-.6-.13-.85-.37-.31-1.26-.65-2.69-.66h-.03c-1.21,0-3.21.72-3.68.89"/>
      <path class="cls-14" d="M40.5,6.74c.14.02.36.08.68.19.31.11.68.32,1.09.63.41.31.77.78,1.08,1.4.31.62.46,1.41.46,2.36s-.18,1.67-.54,2.27c-.36.61-.79,1.06-1.29,1.35-.5.29-.97.47-1.42.53h-7.62V6.73h7.57ZM40.44,14.29c.23-.04.52-.14.84-.3.32-.16.63-.46.92-.9.29-.43.43-1.03.43-1.78,0-.88-.15-1.57-.45-2.07-.3-.5-.62-.84-.95-1.01-.33-.18-.61-.28-.84-.32h-6.28v6.38h6.33Z"/>
      <rect class="cls-14" x="44.63" y="6.75" width="1.19" height="8.7"/>
      <path class="cls-14" d="M52.3,9.12c.77-.01,1.46-.13,2.06-.34.61-.22,1.08-.43,1.4-.65.33-.22.55-.38.66-.49l.96-.91v8.75h-1.14v-6.32c-.5.3-1.08.55-1.75.76-.66.21-1.39.32-2.18.33-.83,0-1.61-.1-2.33-.32-.72-.22-1.36-.49-1.92-.82v6.36h-1.14V6.73l1,.86c.14.13.39.3.75.53.36.23.86.45,1.51.68.64.23,1.35.33,2.11.32"/>
      <rect class="cls-12" x="59.08" y="10.44" width="2.29" height="1.16"/>
      <g>
        <path class="cls-25" d="M62.78,6.68h10v1.2h-8.8v2.4h6.66v1.2h-6.66v4h-1.2V6.68Z"/>
        <path class="cls-25" d="M81.13,10.95c.24.42.36.94.36,1.56,0-.1,0-.08,0,.06h0v.69c0,.58-.12,1.03-.33,1.34-.22.31-.48.53-.79.63s-.63.17-.97.17c-.34,0-.6.02-.76.02h-3.14c-.49,0-.91-.18-1.26-.54-.35-.36-.52-.79-.52-1.3s.17-.95.52-1.31c.35-.36.77-.55,1.26-.55h4.82c0-.07-.02-.14-.04-.2-.02-.07-.04-.11-.05-.13-.09-.18-.22-.35-.39-.5s-.36-.27-.56-.36c-.21-.08-.43-.12-.65-.12h-4.64v-.94c0-.08,0-.11,0-.08h4.64c.54,0,1.03.14,1.5.42.22.13.41.29.57.47.16.18.31.4.46.65ZM80.43,13.4c0-.09,0-.29-.01-.62h-5.06c-.18,0-.33.08-.47.24-.13.16-.19.36-.19.58s.06.42.19.58c.13.16.29.24.47.24h3.28c.37,0,.67,0,.89-.02s.39-.07.52-.16c.14-.1.23-.22.29-.35.05-.14.08-.3.09-.49Z"/>
        <path class="cls-25" d="M84.28,10.69c-.26.09-.48.22-.65.4s-.3.39-.4.66c-.09.27-.14.53-.14.79s.05.53.14.79.22.48.4.66.39.3.65.4c.26.09.53.14.79.14h4.82v.97h-4.82c-.53,0-1.02-.13-1.48-.4-.45-.26-.81-.62-1.07-1.07-.26-.45-.39-.94-.39-1.48s.13-1.03.39-1.48c.27-.45.62-.81,1.07-1.07.45-.27.95-.4,1.48-.4h4.82v.97h-4.82c-.26,0-.52.05-.79.14Z"/>
        <path class="cls-25" d="M95.66,14.48v.96h-1.81c-.52,0-1.01-.13-1.46-.39-.45-.26-.81-.61-1.07-1.05-.26-.44-.4-.92-.41-1.44v-5.25h.97s0,0,0,.07v2.16h2.27s0,0,0,.07v.89s-.03,0-.08,0h-2.18v2.08c0,.42.11.78.33,1.06s.45.5.69.64c.12.08.3.13.55.15s.44.03.59.02h1.61Z"/>
        <path class="cls-25" d="M100.84,9.57c.53-.02.99.02,1.38.15.39.12.71.29.96.51.25.22.44.45.59.69.14.25.24.48.31.69.06.21.1.4.12.55s.02.22.02.2v.35c0,.25-.06.54-.19.87-.12.33-.32.64-.58.93-.26.3-.6.54-1.01.72-.41.18-.89.26-1.44.23h-1.1c-.55.03-1.03-.05-1.44-.23-.42-.18-.75-.42-1.01-.72-.26-.3-.46-.61-.58-.93-.12-.32-.19-.61-.19-.87v-.35s0-.04.02-.2.06-.34.12-.55c.06-.21.17-.44.31-.69.14-.25.34-.48.59-.69.25-.22.57-.39.96-.51.39-.12.85-.17,1.38-.15h.8ZM101.22,14.48c.73,0,1.25-.18,1.54-.53.3-.35.47-.73.51-1.14v-.17s.01-.28.01-.28v-.18c-.06-.38-.23-.75-.52-1.11-.29-.36-.81-.54-1.54-.54h-1.56c-.74,0-1.25.18-1.54.54-.29.36-.46.73-.5,1.11l-.02.18v.26l.02.18c.04.4.21.78.51,1.14.3.35.81.53,1.54.53h1.56Z"/>
        <path class="cls-25" d="M111.53,10.46h-3.35c-.17,0-.36,0-.57,0-.21,0-.41.03-.59.08s-.34.15-.48.28c-.14.13-.23.29-.29.47-.06.18-.09.34-.09.47,0,.13,0,.37,0,.71v2.92c0,.05-.02.08-.07.08h-.83s-.07-.03-.07-.08v-3.01c0-.12,0-.34,0-.64s.06-.61.18-.92c.12-.31.33-.58.63-.82.19-.15.4-.26.62-.34.22-.08.44-.13.64-.16.2-.03.39-.04.56-.04h3.7v.99Z"/>
        <path class="cls-25" d="M113.6,6.69v1.04h-1.04v-1.04h1.04ZM113.6,9.11v6.35h-1.04v-6.35h1.04Z"/>
        <path class="cls-25" d="M121.88,10.97c.26.46.39.96.39,1.51v3h-.99v-3c0-.27-.05-.54-.14-.81-.09-.27-.22-.49-.4-.67-.17-.18-.38-.31-.64-.41-.26-.09-.52-.14-.77-.14h-1.86c-.5,0-1.15,0-1.95,0,0-.23,0-.02,0,.65s0,1.1,0,1.31v3.07h-.99v-6.01h4.79c.52,0,1.01.13,1.46.4.45.27.81.64,1.07,1.1Z"/>
        <path class="cls-25" d="M129.79,9.87c.26.14.47.35.63.61.16.26.25.57.25.92v3.18c-.02.51-.15.98-.36,1.42-.22.44-.52.79-.9,1.06-.38.27-.82.42-1.33.45h-4.83v-.94h4.7c.3,0,.6-.09.9-.27s.53-.45.68-.8l.03-.08h-3.58c-.58,0-1.09-.14-1.53-.42-.43-.28-.77-.64-1-1.07-.23-.43-.35-.87-.35-1.32v-.21c0-.42.12-.84.36-1.27s.57-.78,1-1.06c.43-.28.91-.42,1.45-.42h3.07c.27,0,.54.07.8.21ZM129.72,14.48v-3.18c0-.17-.06-.33-.18-.47-.12-.15-.28-.22-.47-.22h-2.98c-.5,0-.9.09-1.21.27s-.52.41-.64.68c-.12.27-.19.56-.19.86v.23c0,.39.09.72.26,1,.17.28.4.48.67.62.28.14.56.21.86.21h3.87Z"/>
      </g>
    </g>
    <g>
      <path class="cls-14" d="M40.58,25.99c.14.02.36.08.68.19.31.11.68.32,1.09.63.41.31.77.78,1.08,1.4.31.62.46,1.41.46,2.36s-.18,1.67-.54,2.27c-.36.6-.79,1.06-1.29,1.35-.5.29-.97.47-1.42.53h-7.62v-8.73h7.57ZM40.52,33.55c.23-.04.52-.14.84-.3.32-.16.63-.46.92-.9.29-.43.43-1.03.43-1.78,0-.88-.15-1.57-.45-2.07-.3-.5-.62-.84-.95-1.01-.33-.18-.61-.28-.84-.32h-6.28v6.38h6.33Z"/>
      <rect class="cls-14" x="44.71" y="26" width="1.19" height="8.7"/>
      <path class="cls-14" d="M52.37,28.38c.77-.01,1.46-.13,2.06-.34.61-.22,1.08-.43,1.4-.65.33-.22.55-.38.66-.49l.96-.91v8.75h-1.14v-6.32c-.5.3-1.08.55-1.75.76-.66.21-1.39.32-2.18.33-.83,0-1.61-.1-2.33-.32-.72-.22-1.36-.49-1.92-.82v6.36h-1.14v-8.75l1,.87c.14.13.39.3.75.53.36.23.86.45,1.51.68.64.23,1.35.33,2.11.32"/>
      <rect class="cls-12" x="59.16" y="29.69" width="2.29" height="1.16"/>
      <polygon class="cls-25" points="62.86 25.93 72.85 25.93 72.85 27.14 64.06 27.14 64.06 29.54 70.72 29.54 70.72 30.74 64.06 30.74 64.06 34.74 62.86 34.74 62.86 25.93"/>
      <path class="cls-25" d="M81.2,30.21c.24.42.36.94.36,1.56,0-.1,0-.08,0,.06h0v.69c0,.58-.12,1.03-.33,1.34-.22.32-.48.53-.79.63-.31.11-.63.17-.97.18-.34,0-.6.02-.76.02h-3.15c-.49,0-.91-.18-1.26-.54-.35-.36-.52-.79-.52-1.3s.17-.95.52-1.31c.35-.36.76-.55,1.26-.55h4.83c0-.07-.02-.14-.04-.2-.02-.07-.04-.11-.06-.14-.09-.18-.23-.35-.39-.5-.17-.15-.36-.27-.56-.36-.21-.08-.42-.12-.65-.12h-4.64v-1.02h4.64c.53,0,1.03.14,1.5.42.22.13.41.29.57.47.16.18.31.4.46.65M80.5,32.65c0-.09,0-.29-.01-.62h-5.06c-.18,0-.33.08-.47.24-.13.16-.19.36-.19.58s.06.42.19.58c.13.16.29.24.47.24h3.28c.37,0,.67,0,.89-.02.22-.01.39-.07.53-.16.14-.1.23-.22.29-.35.05-.14.08-.3.1-.49"/>
      <path class="cls-25" d="M84.35,29.95c-.26.09-.48.22-.65.4-.17.17-.3.39-.39.66-.09.27-.14.53-.14.79s.05.53.14.79c.09.27.22.48.39.66.17.17.39.3.65.4.26.09.53.14.79.14h4.82v.97h-4.82c-.53,0-1.02-.13-1.48-.4-.45-.26-.81-.62-1.07-1.07-.26-.45-.39-.94-.39-1.48s.13-1.03.39-1.48c.26-.45.62-.81,1.07-1.07.45-.27.94-.4,1.48-.4h4.82v.97h-4.82c-.26,0-.52.05-.79.14"/>
      <path class="cls-25" d="M95.71,33.73v.96h-1.81c-.52,0-1.01-.13-1.46-.39-.45-.26-.81-.61-1.07-1.05-.26-.44-.4-.92-.41-1.44v-5.25h.97v2.24h2.27v.96s-.03,0-.09,0h-2.18v2.08c0,.43.11.78.33,1.06.22.28.45.5.69.64.12.08.3.13.55.15.24.02.44.03.59.02h1.61Z"/>
      <path class="cls-25" d="M100.89,28.82c.53-.02.99.03,1.38.15.39.12.71.29.96.51.25.22.45.45.59.69.14.25.24.48.31.69.06.21.1.4.12.56.02.15.02.22.02.2v.35c0,.25-.06.54-.19.87s-.32.63-.58.93c-.26.3-.6.53-1.01.72-.41.18-.89.26-1.44.23h-1.1c-.55.03-1.03-.05-1.44-.23-.41-.18-.75-.42-1.01-.72-.26-.3-.46-.61-.58-.93-.12-.32-.19-.61-.19-.87v-.35s0-.04.02-.2c.02-.16.06-.34.12-.56.06-.21.17-.44.31-.69.14-.24.34-.48.59-.69.25-.22.57-.39.96-.51.39-.12.85-.17,1.38-.15h.8ZM101.27,33.73c.73,0,1.24-.18,1.54-.53.3-.35.47-.73.51-1.14v-.17s.01-.28.01-.28v-.18c-.06-.38-.23-.75-.52-1.11-.29-.36-.81-.54-1.54-.54h-1.56c-.74,0-1.25.18-1.54.54-.29.36-.46.73-.5,1.11l-.02.18v.26l.02.18c.04.4.21.78.51,1.14.3.35.81.53,1.54.53h1.56Z"/>
      <path class="cls-25" d="M111.57,29.71h-3.35c-.17,0-.36,0-.57,0-.21,0-.41.03-.59.08-.18.05-.34.15-.48.28-.14.13-.23.29-.28.47-.05.18-.09.34-.09.47s0,.37,0,.71v2.93c0,.05-.02.08-.07.08h-.83s-.07-.03-.07-.08v-3.01c0-.12,0-.34,0-.64,0-.31.06-.61.18-.92.12-.31.33-.58.64-.82.19-.15.4-.26.62-.34.22-.08.43-.13.64-.16.2-.03.39-.04.56-.04h3.7v.99Z"/>
      <path class="cls-25" d="M113.62,26.98h-1.04v-1.04h1.04v1.04ZM113.62,34.71h-1.04v-6.35h1.04v6.35Z"/>
      <path class="cls-25" d="M121.89,30.22c.26.46.39.97.39,1.51v3h-.99v-3c0-.27-.05-.54-.14-.81-.09-.27-.22-.49-.4-.67-.17-.18-.38-.31-.64-.4-.26-.09-.51-.14-.77-.14h-1.86c-.5,0-1.15,0-1.95,0,0-.23,0-.01,0,.65,0,.67,0,1.1,0,1.31v3.07h-.99v-6.01h4.79c.52,0,1.01.13,1.46.4.45.27.81.64,1.07,1.1"/>
      <path class="cls-25" d="M129.79,29.13c.26.14.47.35.63.61.16.26.24.57.24.92v3.18c-.02.51-.14.98-.36,1.42-.22.44-.52.79-.9,1.06-.38.27-.82.42-1.33.45h-4.82v-.94h4.7c.3,0,.6-.09.9-.27.3-.18.53-.45.68-.8l.03-.08h-3.58c-.58,0-1.09-.14-1.53-.42-.44-.28-.77-.64-1-1.07-.23-.43-.35-.87-.35-1.32v-.21c0-.42.12-.85.36-1.27.24-.43.57-.78,1-1.06s.91-.42,1.45-.42h3.07c.27,0,.54.07.8.21M129.72,33.73v-3.18c0-.17-.06-.33-.18-.48-.12-.14-.28-.22-.47-.22h-2.98c-.5,0-.9.09-1.21.27-.3.18-.52.41-.64.68-.12.27-.19.56-.19.86v.23c0,.39.09.72.26,1,.17.27.4.48.67.62.28.14.56.21.86.21h3.87Z"/>
    </g>
    <g>
      <path class="cls-4" d="M107.83,80.71l-15.41,25.99c-.64,1.08-2.21,1.08-2.85,0l-15.4-25.99c-.65-1.1.14-2.5,1.42-2.5h30.81c1.28,0,2.08,1.39,1.42,2.5"/>
      <path class="cls-6" d="M105.99,81.64l-13.59,23.02c-.62,1.05-2.14,1.05-2.76,0l-13.59-23.02c-.63-1.07.14-2.42,1.38-2.42h27.18c1.24,0,2.01,1.35,1.38,2.42"/>
      <rect class="cls-22" x="60" y="73.79" width="23.22" height="12.08"/>
      <path class="cls-6" d="M60.8,85.07h21.6v-10.53h-21.6v10.53ZM62.81,84.8v-1.34c0-.28-.23-.51-.51-.51h-1.34v-6.36h1.31c.28,0,.5-.23.5-.51v-1.33h17.6v1.33c0,.28.23.51.51.51h1.33v6.35h-1.34c-.28,0-.5.23-.5.51v1.34h1.84s-19.4,0-19.4,0Z"/>
      <path class="cls-22" d="M80.36,84.8v-1.34c0-.28.23-.51.5-.51h1.34v-6.35h-1.33c-.28,0-.51-.23-.51-.51v-1.33h-17.6v1.33c0,.28-.23.51-.51.51h-1.31v6.36h1.34c.28,0,.51.23.51.51v1.34h19.4s-1.84,0-1.84,0Z"/>
      <path class="cls-6" d="M75.97,79.72c0,2.52-2.04,4.56-4.56,4.56s-4.56-2.04-4.56-4.56,2.04-4.56,4.56-4.56,4.56,2.04,4.56,4.56"/>
      <path class="cls-7" d="M71.07,76.19h.66v.49c1.04.06,2.06.49,2.04,1.71h-1.38c-.02-.32-.26-.64-.67-.63v1.11c.99.3,2.12.64,2.12,1.84,0,1.31-.97,1.74-2.12,1.78v.77h-.66v-.77c-1.15-.04-2.08-.66-2.09-1.9h1.44c0,.44.23.74.65.83v-1.25c-.93-.29-1.98-.53-1.98-1.73s.96-1.6,1.98-1.75v-.49ZM71.07,77.71c-.22-.02-.6.18-.6.49,0,.38.34.45.6.55v-1.03ZM71.73,81.46c.33,0,.69-.19.69-.52s-.3-.56-.69-.64v1.16Z"/>
      <path class="cls-10" d="M46.04,69.93h2.9l4.99.4,5.28-1.42s2.16-.99,4.31,1.2l2.65,2.44s.83,1.48-1.17,1.6h3.72s1.48,0,1.48,2.56c0,0,.06,2.28-2.71,2.28h-6.25l-4.19,1.45-8.69-2.28-2.19-.06-.12-8.17Z"/>
      <path class="cls-16" d="M48.93,70.8l5.02.34,5.68-1.49s1.66-.22,2.84.86l2.65,2.38c.24.19.14.56-.16.61l-3.69.42s-1.08.13-1.03.57c0,0,.25.29,1.14.31h6.23s1.6-.06,1.6,1.48c0,0,.34,1.6-1.54,2.1h-6.73l-4.04,1.08-7.89-1.91s-.17-6.67-.09-6.75"/>
      <rect class="cls-10" x="45.64" y="69.79" width="4.73" height="9.06"/>
      <rect class="cls-18" x="79.56" y="83.85" width="3.96" height="9.81"/>
      <rect class="cls-21" x="68.81" y="87.24" width="3.96" height="6.43"/>
      <rect class="cls-21" x="74.19" y="85.36" width="3.96" height="8.31"/>
      <rect class="cls-18" x="84.95" y="81.7" width="3.96" height="11.97"/>
      <path class="cls-6" d="M73.1,122.63h22.17c.79,0,1.42-.66,1.42-1.48v-2.9c0-.82-.64-1.48-1.42-1.48s-1.42-.66-1.42-1.48v-2.83c0-.82.64-1.48,1.42-1.48h.04c.79,0,1.42-.66,1.42-1.48v-1.96c0-.46-.21-.9-.56-1.18l-10.57-8.46c-.5-.4-1.18-.41-1.69-.03l-11.27,8.42c-.37.28-.59.73-.59,1.21v1.64c0,.82.64,1.48,1.42,1.48h.48c.79,0,1.42.66,1.42,1.48v3.04c0,.82-.64,1.48-1.42,1.48h-.83c-.78,0-1.42.65-1.42,1.47,0,.93-.01,2.13-.01,3.06,0,.82.64,1.48,1.42,1.48"/>
      <path class="cls-10" d="M93.72,107.35c.8,0,.92-.36.25-.79l-8.21-6.26c-.66-.43-1.75-.44-2.42,0l-8.34,6.28c-.67.43-.55.78.25.78h18.47Z"/>
      <path class="cls-10" d="M85.62,117.18c.32,0,.58-.25.58-.56v-5.83c0-.31-.26-.56-.58-.56h-1.89c-.32,0-.58.25-.58.56v5.83c0,.31.26.56.58.56h1.89Z"/>
      <path class="cls-10" d="M92.1,117.18c.32,0,.58-.25.58-.56v-5.83c0-.31-.26-.56-.58-.56h-1.89c-.32,0-.58.25-.58.56v5.83c0,.31.26.56.58.56h1.89Z"/>
      <path class="cls-10" d="M79.13,117.18c.32,0,.58-.25.58-.56v-5.83c0-.31-.26-.56-.58-.56h-1.89c-.32,0-.58.25-.58.56v5.83c0,.31.26.56.58.56h1.89Z"/>
      <path class="cls-10" d="M89.62,117.87s0,.01,0,0c0,0,0-.01,0-.01,0,0,0,0,0,0"/>
      <path class="cls-10" d="M76.66,117.87s0,.01,0,0c0,0,0-.01,0-.01,0,0,0,0,0,0"/>
      <path class="cls-10" d="M74.46,118.91c0,.31.26.56.58.56h18.78c.32,0,.58-.25.58-.56v-.33c0-.31-.26-.56-.58-.56h-.58c-.32,0-.58-.02-.57-.05,0-.03-.05-.22-.12-.37-.07-.15-.71-.27-1.03-.27h-.72c-.32,0-.71.06-.87.12-.16.07-.29.45-.29.47,0,.03-.24.1-.57.1h-2.3c-.32,0-.58-.02-.57-.05,0-.03-.05-.22-.12-.37-.07-.15-.71-.27-1.03-.27h-.72c-.32,0-.71.06-.87.12-.16.07-.29.45-.29.47,0,.03-.24.1-.57.1h-2.3c-.32,0-.58-.02-.57-.05s-.05-.22-.12-.37c-.07-.15-.71-.27-1.03-.27h-.72c-.32,0-.71.06-.87.12-.16.07-.29.45-.29.47,0,.03-.24.1-.57.1h-1.05c-.32,0-.58.25-.58.56v.33Z"/>
      <path class="cls-10" d="M89.92,109.88c.16.07.55.13.88.13h.72c.32,0,.72-.06.88-.13.16-.07.29-.51.29-.6s.26-.17.58-.17h.56c.32,0,.58-.25.58-.56v-.33c0-.31-.26-.56-.58-.56h-18.78c-.32,0-.58.25-.58.56v.33c0,.31.26.56.58.56h1.03c.32,0,.58.08.58.17s.06.3.13.45c.07.15.72.28,1.04.28h.72c.32,0,.72-.06.88-.13.16-.07.29-.51.29-.6s.26-.17.58-.17h2.26c.32,0,.58.08.58.17s.06.3.13.45c.07.15.72.28,1.04.28h.72c.32,0,.72-.06.88-.13.16-.07.29-.51.29-.6s.26-.17.58-.17h2.25c.32,0,.58.08.58.17s.13.54.29.6"/>
      <path class="cls-10" d="M96.43,120.28c0-.34-.29-.61-.64-.61h-22.71c-.35,0-.64.28-.64.61v.22c0,.34.29.62.64.62h22.71c.35,0,.64-.28.64-.62v-.22Z"/>
      <path class="cls-17" d="M100.82,111.66h-7.39c-.38,0-.68.31-.68.7v13.9c0,.39.31.7.68.7h10.18c.38,0,.68-.31.68-.7v-10.92l-3.48-3.69Z"/>
      <path class="cls-24" d="M100.56,112.33h-6.54c-.33,0-.6.29-.6.64v12.67c0,.35.27.64.6.64h9.01c.33,0,.6-.29.6-.64v-9.95l-3.08-3.36Z"/>
      <path class="cls-6" d="M99.64,116l-.04-3.1c0-.16-.13-.29-.29-.29h-5.3c-.16,0-.29.13-.29.3v12.8c0,.16.13.3.29.3h9.03c.16,0,.29-.13.29-.3v-9.11c0-.16-.13-.3-.29-.3h-3.11c-.16,0-.29-.13-.29-.29"/>
      <rect class="cls-10" x="94.67" y="123.41" width="7.84" height=".38"/>
      <rect class="cls-10" x="94.67" y="120.77" width="7.84" height=".39"/>
      <rect class="cls-10" x="94.67" y="118.11" width="7.84" height=".39"/>
      <rect class="cls-10" x="94.52" y="115.16" width="4.5" height=".35"/>
      <path class="cls-17" d="M102.93,105.93h-7.39c-.38,0-.68.31-.68.7v13.9c0,.39.31.7.68.7h10.18c.38,0,.68-.31.68-.7v-10.92l-3.48-3.69Z"/>
      <path class="cls-24" d="M102.67,106.61h-6.54c-.33,0-.6.29-.6.64v12.67c0,.35.27.64.6.64h9.01c.33,0,.6-.29.6-.64v-9.95l-3.08-3.36Z"/>
      <path class="cls-6" d="M101.75,110.28l-.04-3.1c0-.16-.13-.29-.29-.29h-5.3c-.16,0-.29.13-.29.3v12.8c0,.16.13.3.29.3h9.03c.16,0,.29-.13.29-.3v-9.11c0-.16-.13-.3-.29-.3h-3.11c-.16,0-.29-.13-.29-.29"/>
      <rect class="cls-10" x="96.78" y="117.69" width="7.84" height=".38"/>
      <rect class="cls-10" x="96.78" y="115.04" width="7.84" height=".39"/>
      <rect class="cls-10" x="96.78" y="112.39" width="7.84" height=".39"/>
      <rect class="cls-10" x="96.63" y="109.44" width="4.5" height=".35"/>
      <path class="cls-17" d="M96.67,109.48h-7.39c-.38,0-.68.31-.68.7v13.9c0,.39.31.7.68.7h10.18c.38,0,.68-.31.68-.7v-10.92l-3.48-3.69Z"/>
      <path class="cls-24" d="M96.41,110.16h-6.54c-.33,0-.61.29-.61.64v12.67c0,.35.27.64.61.64h9.01c.33,0,.6-.29.6-.64v-9.95l-3.08-3.36Z"/>
      <path class="cls-6" d="M95.49,113.83l-.04-3.1c0-.16-.13-.29-.29-.29h-5.3c-.16,0-.29.13-.29.3v12.8c0,.16.13.3.29.3h9.03c.16,0,.29-.13.29-.3v-9.11c0-.16-.13-.3-.29-.3h-3.11c-.16,0-.29-.13-.29-.29"/>
      <rect class="cls-10" x="90.52" y="121.24" width="7.84" height=".38"/>
      <rect class="cls-10" x="90.52" y="118.6" width="7.84" height=".39"/>
      <rect class="cls-10" x="90.52" y="115.94" width="7.84" height=".39"/>
      <rect class="cls-10" x="90.37" y="112.99" width="4.5" height=".35"/>
      <rect class="cls-19" x="102.65" y="71.03" width="21.3" height="15.85"/>
      <rect class="cls-13" x="102.91" y="71.34" width="20.83" height="15.37"/>
      <rect class="cls-19" x="107.41" y="74.25" width="14.56" height=".88"/>
      <rect class="cls-19" x="109.68" y="82.05" width="12.37" height=".85"/>
      <path class="cls-18" d="M118.94,80.54h-8.56c-.74,0-1.34-.43-1.34-.97v-2.06c0-.54.6-.97,1.34-.97h8.56c.74,0,1.34.44,1.34.97v2.06c0,.54-.6.97-1.34.97"/>
      <path class="cls-22" d="M125.98,79.03c0,2.92-2.37,5.29-5.29,5.29s-5.29-2.37-5.29-5.29,2.37-5.29,5.29-5.29,5.29,2.37,5.29,5.29"/>
      <path class="cls-6" d="M125.18,79.03c0,2.48-2.01,4.49-4.49,4.49s-4.49-2.01-4.49-4.49,2.01-4.49,4.49-4.49,4.49,2.01,4.49,4.49"/>
      <path class="cls-7" d="M122.56,81.27c-.14.26-.35.47-.63.65-.28.17-.61.27-.99.29v.72h-.48v-.72c-.54-.05-.98-.22-1.32-.52-.34-.3-.51-.68-.52-1.14h.86c.02.25.12.47.28.65.16.18.39.3.69.35v-2.23c-.4-.1-.72-.21-.96-.31-.24-.11-.45-.27-.62-.5-.17-.22-.26-.53-.26-.91,0-.48.17-.88.5-1.19.34-.32.78-.49,1.34-.53v-.74h.48v.74c.51.04.91.2,1.22.49.31.28.49.65.53,1.1h-.86c-.03-.21-.12-.4-.28-.57-.16-.17-.36-.28-.62-.33v2.17c.39.1.71.2.96.31.25.1.45.27.62.5.17.23.25.53.25.92,0,.28-.07.56-.21.81M119.7,78.21c.17.15.42.28.76.38v-2.06c-.31.03-.56.13-.74.3-.18.17-.28.4-.28.71s.09.51.26.67M121.69,81.2c.18-.2.27-.43.27-.7,0-.29-.09-.51-.27-.67-.18-.16-.43-.28-.76-.38v2.1c.32-.03.57-.15.75-.35"/>
      <path class="cls-18" d="M104.8,72.54c0,.08,0,.16,0,.24s0,.16-.02.23c-.01.12-.03.23-.04.34-.02.12-.05.24-.08.36-.06.23-.13.45-.22.67-.01.03-.03.06-.04.09-.05.11-.1.21-.15.31-.02.03-.03.06-.05.09-.2.36-.46.69-.74.98-.03.03-.06.06-.08.08-.05.04-.1.09-.15.13-.03.03-.07.06-.1.08-.07.06-.15.12-.23.17-.01,0-.02.02-.03.02-.1.07-.21.14-.32.2-.1.06-.2.11-.3.16,0,0-.01,0-.02,0-.2.1-.42.18-.64.24-.05.01-.09.03-.14.04-.22.05-.45.09-.68.11-.07,0-.15.01-.22.01-.04,0-.07,0-.11,0s-.07,0-.11,0c-.07,0-.15,0-.22-.01-.23-.02-.46-.06-.68-.11-.05-.01-.09-.02-.14-.04-.22-.06-.43-.14-.64-.24,0,0-.01,0-.02,0-.09-.04-.18-.09-.27-.14-.12-.07-.24-.14-.35-.22-.01,0-.02-.02-.03-.02-.08-.06-.15-.11-.23-.17-.03-.03-.07-.06-.1-.08-.05-.04-.1-.09-.15-.13-.05-.05-.11-.1-.16-.16-.26-.27-.48-.57-.67-.9-.02-.03-.03-.06-.05-.09-.05-.1-.11-.21-.15-.31-.01-.03-.03-.06-.04-.09-.09-.21-.16-.44-.22-.67-.03-.12-.06-.24-.08-.36-.02-.11-.04-.23-.05-.34,0-.08-.01-.15-.02-.23,0-.08,0-.16,0-.24s0-.16,0-.24c0-.05,0-.1,0-.14h0s0-.06.01-.09c0-.03,0-.06.01-.09,0-.09.02-.17.04-.26.02-.12.05-.24.08-.36.06-.23.13-.45.22-.67,0-.02.01-.03.02-.05,0-.02.01-.03.02-.05.05-.11.1-.21.15-.31.02-.03.03-.06.05-.09.21-.36.46-.69.74-.98.03-.03.06-.06.08-.08.05-.04.1-.09.15-.13.03-.03.07-.06.1-.08.07-.06.15-.12.23-.17.01,0,.02-.02.03-.02.2-.14.4-.26.62-.36,0,0,.01,0,.02,0,.2-.1.42-.18.64-.24.05-.01.09-.03.14-.04.22-.05.45-.09.68-.11.07,0,.15-.01.22-.01.04,0,.07,0,.11,0s.08,0,.11,0c.07,0,.15,0,.22.01.23.02.46.06.68.11.05.01.09.02.14.04.22.06.43.14.64.24,0,0,.01,0,.02,0,.22.1.43.22.62.36.01,0,.02.02.03.02.08.06.15.11.23.17.03.03.07.06.1.08.05.04.1.09.15.13.03.03.06.05.08.08.29.29.54.62.74.98.02.03.03.06.05.09.06.1.11.21.15.31.01.03.03.06.04.09.09.21.16.44.22.67.03.12.06.24.08.36.02.11.03.23.04.34,0,.04,0,.07.01.11,0,.04,0,.08,0,.12,0,.08,0,.16,0,.24"/>
      <path class="cls-18" d="M98.28,73.08s0,0,0,0h0s0,0,0,0c0,0,0,0,0,0M98.21,73.04s0,0,0,0c.02,0,.03.02.06.03,0,0,0,0-.01,0-.02,0-.04-.02-.06-.03"/>
      <path class="cls-18" d="M98.21,73.04s.04.02.06.03c-.01,0-.03-.01-.05-.02,0,0,0,0,0,0"/>
      <polyline class="cls-18" points="98.29 73.08 98.29 73.08 98.28 73.08 98.29 73.08"/>
      <path class="cls-18" d="M107.75,81.51v4.75c0,.1-.08.1-.17.1h-14.3c-.09,0-.2,0-.2-.1v-4.75c0-.08.01-.15.01-.23.05-1.13.49-2.15,1.17-2.92.02-.02.04-.04.06-.07.34-.37.73-.68,1.17-.9.03-.01.05-.03.08-.04.12-.06.24-.11.37-.16.03-.01.06-.02.08-.03.11-.04.23-.07.34-.1.14.14.29.28.44.4.39.32.82.59,1.28.8.09.04.17.08.26.11.34.14.68.24,1.03.31.34.07.69.1,1.05.1.4,0,.8-.04,1.19-.13.05-.01.1-.04.14-.04h.22c.19,0,.38-.15.56-.23.07-.03.15-.1.22-.13.36-.16.69-.39,1.01-.64.04,0,.07-.03.1-.05.21-.16.41-.32.6-.51,1.8.44,3.17,2.16,3.26,4.23,0,.07.03.16.03.23"/>
      <path class="cls-7" d="M103.91,87.75h17.82c.42,0,.76.34.76.76v7.07c0,.42-.34.76-.76.76h-17.73c-.42,0-.75-.33-.76-.75-.01-1.61-.05-5.42-.09-7.06-.01-.43.33-.78.76-.78"/>
      <path class="cls-3" d="M104.59,88.27h17.15c.11,0,.2.09.2.2v7.35c0,.11-.09.2-.2.2h-17.75c-.11,0-.21-.09-.2-.2.01-.96.06-5.08.05-6.8,0-.42.34-.76.76-.76"/>
      <path class="cls-11" d="M109.85,89.14h6.51v6.84h-6.54s.05-6.81.03-6.84"/>
      <path class="cls-6" d="M110.13,89.39h5.97v6.18h-5.99s.05-6.16.02-6.18"/>
      <rect class="cls-7" x="112.26" y="89.47" width="1.74" height="1.32"/>
      <rect class="cls-7" x="110.8" y="94.32" width="1.06" height=".81"/>
      <rect class="cls-7" x="112.66" y="94.32" width="1.06" height=".81"/>
      <rect class="cls-7" x="114.42" y="94.32" width="1.06" height=".81"/>
      <path class="cls-7" d="M123.44,89.14c.45.09,1.12.37,1.68,1.19.08.12.21.19.35.19h1.31c.14,0,.28.07.36.19l2.19,3.34h.66s1.36,2.33.13,4.37c-.08.13-.22.2-.37.2h-.42c-.14,0-.27-.07-.35-.18-.35-.51-1.68-1.93-5.63-2.03-.23,0-.42-.19-.42-.42,0-1.27-.02-5.12,0-6.44,0-.27.25-.46.52-.41"/>
      <path class="cls-6" d="M124.15,91.35h2.22s2.05,1.51,2.05,3.27h-4.32s.04-3.32.04-3.27"/>
      <path class="cls-6" d="M129.66,95.92c0,.52.22.93.5.93s.5-.42.5-.93-.23-.93-.5-.93-.5.42-.5.93"/>
      <path class="cls-7" d="M102.66,96.68h20.75s3.14-.25,5.27,1.8c.11.11.18.27.18.42v1.4c0,.32-.26.58-.58.58h-.64c-.27,0-.57-.17-.57-.44,0-.74-.7-2.34-2.53-2.34,0,0-2.24.11-2.34,2.25-.01.29-.28.51-.58.51h-7.45c-.26,0-.48-.17-.56-.42-.23-.75-.89-2.24-2.53-2.28-.04,0-.09.01-.13.01-.83,0-2.46.56-2.46,2.69h-.38s-.21-2.63-2.53-2.63c0,0-2.49-.16-2.49,2.63h-.45s-.07-4.19,0-4.19"/>
      <path class="cls-11" d="M114.68,97.83h5.79c.2,0,.36.16.36.36v2.64c0,.2-.16.36-.36.36h-5.82c-.2,0-.36-.16-.36-.36,0-.65.03-1.99.03-2.64,0-.2.16-.36.36-.36"/>
      <path class="cls-6" d="M114.96,97.95h5.24c.2,0,.36.16.36.36v2.32c0,.2-.16.36-.36.36h-5.27c-.2,0-.36-.16-.36-.36,0-.59.02-1.74.02-2.32,0-.2.16-.36.36-.36"/>
      <path class="cls-11" d="M118.44,100.9v-2.79h1.58v2.8s-1.57-.02-1.58-.01"/>
      <path class="cls-6" d="M118.67,100.61v-2.22h1.13v2.23s-1.12-.02-1.13,0"/>
      <path class="cls-11" d="M117,100.88v-2.79h1.27v2.8s-1.26-.02-1.27-.01"/>
      <path class="cls-6" d="M117.18,100.62v-2.27h.92v2.28s-.92-.02-.92,0"/>
      <path class="cls-7" d="M107.68,100.75c0,1.17-.95,2.11-2.11,2.11s-2.11-.94-2.11-2.11.94-2.11,2.11-2.11,2.11.94,2.11,2.11"/>
      <path class="cls-6" d="M106.85,100.75c0,.71-.57,1.28-1.28,1.28s-1.28-.57-1.28-1.28.57-1.28,1.28-1.28,1.28.57,1.28,1.28"/>
      <path class="cls-7" d="M113.2,100.75c0,1.17-.95,2.11-2.11,2.11s-2.11-.94-2.11-2.11.94-2.11,2.11-2.11,2.11.94,2.11,2.11"/>
      <path class="cls-6" d="M112.37,100.75c0,.71-.57,1.28-1.28,1.28s-1.28-.57-1.28-1.28.57-1.28,1.28-1.28,1.28.57,1.28,1.28"/>
      <path class="cls-7" d="M126.75,100.75c0,1.17-.95,2.11-2.11,2.11s-2.11-.94-2.11-2.11.94-2.11,2.11-2.11,2.11.94,2.11,2.11"/>
      <path class="cls-6" d="M125.92,100.75c0,.71-.57,1.28-1.28,1.28s-1.28-.57-1.28-1.28.57-1.28,1.28-1.28,1.28.57,1.28,1.28"/>
      <path class="cls-8" d="M119.17,65.21l-.52-.43c-.07-.06-.15-.07-.23-.04l.61-.72c.34-.41.29-1.02-.12-1.36-.41-.34-1.02-.29-1.36.12l-7.19,8.57s-.02.03-.03.04l-1.87,3.35c-.14.25.17.51.39.33l2.95-2.44s.02-.02.03-.03l6.19-7.38c-.01.08.01.17.08.22l.14.12c.1.09.12.24.03.34l-2.71,3.24c-.09.1-.07.26.03.35.1.09.26.07.34-.03l3.26-3.89c.09-.1.07-.26-.03-.34"/>
      <rect class="cls-18" x="111.64" y="65.94" width="7.43" height="1.93" transform="translate(-10.03 112.31) rotate(-50.02)"/>
    </g>
    <g>
      <path class="cls-7" d="M95.39,168.87h16.92c.4,0,.72.32.72.72v6.71c0,.4-.32.72-.72.72h-16.83c-.39,0-.72-.31-.72-.71-.01-1.53-.05-5.14-.09-6.7-.01-.4.31-.74.72-.74"/>
      <path class="cls-3" d="M96.03,169.37h16.28c.11,0,.19.09.19.19v6.98c0,.11-.09.19-.19.19h-16.85c-.11,0-.19-.08-.19-.19.01-.91.06-4.82.05-6.45,0-.4.32-.72.72-.72"/>
      <path class="cls-7" d="M101.03,170.19h6.18v6.49h-6.21s.05-6.47.03-6.49"/>
      <path class="cls-6" d="M101.3,170.43h5.67v5.87h-5.69s.05-5.85.02-5.87"/>
      <rect class="cls-7" x="103.32" y="170.5" width="1.65" height="1.26"/>
      <rect class="cls-7" x="101.93" y="175.1" width="1.01" height=".77"/>
      <rect class="cls-7" x="103.7" y="175.1" width="1.01" height=".77"/>
      <rect class="cls-7" x="105.37" y="175.1" width="1.01" height=".77"/>
      <path class="cls-7" d="M113.93,170.19c.42.09,1.06.35,1.6,1.13.08.11.2.18.34.18h1.24c.14,0,.26.07.34.18l2.08,3.17h.62s1.29,2.22.12,4.15c-.07.12-.21.19-.35.19h-.4c-.13,0-.26-.06-.33-.17-.33-.49-1.6-1.83-5.34-1.92-.22,0-.4-.18-.4-.4,0-1.21-.02-4.86,0-6.11,0-.26.24-.44.49-.39"/>
      <path class="cls-6" d="M114.6,172.29h2.11s1.95,1.43,1.95,3.1h-4.1s.04-3.15.04-3.1"/>
      <path class="cls-6" d="M119.84,176.62c0,.49.21.89.48.89s.48-.4.48-.89-.21-.89-.48-.89-.48.4-.48.89"/>
      <path class="cls-7" d="M94.21,177.35h19.7s2.98-.23,5,1.7c.11.1.17.25.17.4v1.33c0,.31-.25.55-.55.55h-.61c-.25,0-.54-.16-.54-.42,0-.7-.66-2.22-2.4-2.22,0,0-2.12.11-2.22,2.13-.01.28-.27.49-.55.49h-7.07c-.25,0-.46-.16-.53-.4-.22-.71-.84-2.12-2.4-2.16-.04,0-.08,0-.12,0-.79,0-2.33.53-2.33,2.55h-.36s-.2-2.5-2.4-2.5c0,0-2.36-.15-2.36,2.5h-.43s-.07-3.97,0-3.97"/>
      <path class="cls-11" d="M105.61,178.44h5.49c.19,0,.34.15.34.34v2.51c0,.19-.15.34-.34.34h-5.52c-.19,0-.34-.15-.34-.34,0-.61.03-1.89.03-2.51,0-.19.15-.34.34-.34"/>
      <path class="cls-6" d="M105.88,178.56h4.98c.19,0,.34.15.34.34v2.2c0,.19-.15.34-.34.34h-5c-.19,0-.34-.15-.34-.34,0-.56.02-1.65.02-2.2,0-.19.15-.34.34-.34"/>
      <path class="cls-11" d="M109.19,181.35v-2.65h1.5v2.66s-1.49-.02-1.5-.01"/>
      <path class="cls-6" d="M109.4,181.08v-2.11h1.07v2.12s-1.07-.02-1.07,0"/>
      <path class="cls-11" d="M107.82,181.34v-2.65h1.2v2.66s-1.2-.02-1.2-.01"/>
      <path class="cls-6" d="M107.99,181.09v-2.16h.87v2.17s-.87-.02-.87,0"/>
      <path class="cls-7" d="M98.97,181.21c0,1.11-.9,2-2,2s-2-.9-2-2,.9-2,2-2,2,.9,2,2"/>
      <path class="cls-6" d="M98.18,181.21c0,.67-.54,1.22-1.22,1.22s-1.21-.54-1.21-1.22.54-1.21,1.21-1.21,1.22.54,1.22,1.21"/>
      <path class="cls-7" d="M104.21,181.21c0,1.11-.9,2-2,2s-2-.9-2-2,.9-2,2-2,2,.9,2,2"/>
      <path class="cls-6" d="M103.42,181.21c0,.67-.54,1.22-1.22,1.22s-1.21-.54-1.21-1.22.54-1.21,1.21-1.21,1.22.54,1.22,1.21"/>
      <path class="cls-7" d="M117.07,181.21c0,1.11-.9,2-2,2s-2-.9-2-2,.9-2,2-2,2,.9,2,2"/>
      <path class="cls-6" d="M116.28,181.21c0,.67-.54,1.22-1.22,1.22s-1.21-.54-1.21-1.22.54-1.21,1.21-1.21,1.22.54,1.22,1.21"/>
      <rect class="cls-19" x="83.88" y="159.87" width="17.46" height="13"/>
      <rect class="cls-13" x="84.09" y="160.13" width="17.07" height="12.6"/>
      <rect class="cls-19" x="87.78" y="162.51" width="11.94" height=".72"/>
      <rect class="cls-19" x="89.64" y="168.91" width="10.14" height=".7"/>
      <path class="cls-18" d="M97.24,167.67h-7.02c-.61,0-1.1-.36-1.1-.8v-1.69c0-.44.49-.8,1.1-.8h7.02c.61,0,1.1.36,1.1.8v1.69c0,.44-.49.8-1.1.8"/>
      <path class="cls-22" d="M103,166.43c0,2.39-1.94,4.34-4.34,4.34s-4.33-1.94-4.33-4.34,1.94-4.33,4.33-4.33,4.34,1.94,4.34,4.33"/>
      <path class="cls-6" d="M102.35,166.43c0,2.03-1.65,3.68-3.68,3.68s-3.68-1.65-3.68-3.68,1.65-3.68,3.68-3.68,3.68,1.65,3.68,3.68"/>
      <path class="cls-7" d="M100.2,168.26c-.12.21-.29.39-.51.53-.23.14-.5.22-.81.24v.59h-.39v-.59c-.44-.04-.8-.18-1.08-.43-.28-.25-.42-.56-.42-.94h.71c.02.2.1.38.23.53.13.15.32.25.57.29v-1.83c-.33-.08-.59-.17-.79-.25-.2-.09-.37-.22-.51-.41-.14-.19-.21-.43-.21-.75,0-.39.14-.72.41-.98.27-.26.64-.4,1.1-.43v-.61h.39v.61c.41.03.75.17,1,.4.25.23.4.53.44.9h-.71c-.02-.17-.1-.33-.23-.46-.13-.14-.29-.23-.5-.27v1.78c.32.08.58.17.79.25.2.09.37.22.51.41.14.18.21.44.21.75,0,.23-.06.46-.17.67M97.85,165.76c.14.13.35.23.62.31v-1.69c-.25.02-.46.11-.61.24s-.23.33-.23.58.07.42.21.55M99.49,168.21c.15-.16.22-.35.22-.58,0-.24-.07-.42-.22-.55-.15-.13-.35-.23-.62-.31v1.72c.26-.03.47-.12.62-.29"/>
      <path class="cls-18" d="M86.59,159.82c0,.06,0,.11,0,.17,0,.05,0,.11-.01.16,0,.08-.02.16-.03.24-.01.09-.03.17-.06.26-.04.16-.09.32-.16.47,0,.02-.02.04-.03.06-.03.08-.07.15-.11.22-.01.02-.02.04-.04.06-.14.26-.32.49-.53.69-.02.02-.04.04-.06.06-.03.03-.07.06-.1.1-.02.02-.05.04-.07.06-.05.04-.11.08-.16.12,0,0-.02.01-.02.02-.07.05-.15.1-.23.14-.07.04-.14.08-.21.11,0,0,0,0-.01,0-.14.07-.29.12-.45.17-.03,0-.06.02-.1.03-.16.04-.32.06-.48.08-.05,0-.11,0-.16,0-.03,0-.05,0-.08,0s-.05,0-.08,0c-.05,0-.11,0-.16,0-.16-.01-.32-.04-.48-.08-.03,0-.07-.02-.1-.03-.15-.04-.31-.1-.45-.17,0,0,0,0-.01,0-.07-.03-.13-.06-.19-.1-.08-.05-.17-.1-.25-.16,0,0-.02-.01-.02-.02-.06-.04-.11-.08-.16-.12-.02-.02-.05-.04-.07-.06-.04-.03-.07-.06-.1-.1-.04-.04-.07-.07-.11-.11-.18-.19-.34-.4-.47-.64-.01-.02-.02-.04-.03-.06-.04-.07-.08-.15-.11-.22,0-.02-.02-.04-.03-.06-.06-.15-.12-.31-.16-.47-.02-.08-.04-.17-.06-.26-.01-.08-.02-.16-.03-.24,0-.05,0-.11-.01-.16,0-.06,0-.11,0-.17s0-.11,0-.17c0-.03,0-.07,0-.1,0-.02,0-.04,0-.06,0-.02,0-.04,0-.06,0-.06.02-.12.03-.18.01-.09.03-.17.05-.26.04-.16.09-.32.16-.47,0-.01,0-.02.01-.03,0-.01,0-.02.01-.03.03-.08.07-.15.11-.22.01-.02.02-.04.03-.06.15-.26.32-.49.53-.69.02-.02.04-.04.06-.06.03-.03.07-.06.1-.1.02-.02.05-.04.07-.06.05-.04.11-.08.16-.12,0,0,.01-.01.02-.02.14-.1.29-.18.44-.26,0,0,0,0,.01,0,.14-.07.29-.12.45-.17.03,0,.07-.02.1-.03.16-.04.32-.07.48-.08.05,0,.1,0,.16,0,.03,0,.05,0,.08,0s.05,0,.08,0c.05,0,.11,0,.16,0,.16.01.32.04.48.08.03,0,.07.02.1.03.16.04.31.1.45.17,0,0,0,0,.01,0,.15.07.3.16.44.26,0,0,.02.01.02.02.06.04.11.08.16.12.02.02.05.04.07.06.04.03.07.06.1.1.02.02.04.04.06.06.2.2.38.44.53.69.01.02.02.04.04.06.04.07.07.15.11.22,0,.02.02.04.03.06.06.15.12.31.16.47.02.08.04.17.06.26.01.08.02.16.03.24,0,.02,0,.05,0,.08,0,.03,0,.06,0,.09,0,.06,0,.11,0,.17"/>
      <path class="cls-18" d="M81.98,160.19s0,0,0,0h0s0,0,0,0M81.93,160.17s0,0,0,0c.01,0,.02.01.04.02,0,0,0,0,0,0-.01,0-.03-.01-.04-.02"/>
      <path class="cls-18" d="M81.93,160.17s.03.01.04.02c0,0-.02-.01-.03-.02,0,0,0,0,0,0"/>
      <polyline class="cls-18" points="81.99 160.19 81.99 160.19 81.99 160.19 81.98 160.19 81.99 160.19"/>
      <path class="cls-18" d="M88.67,166.15v3.35c0,.07-.06.07-.12.07h-10.11c-.06,0-.14,0-.14-.07v-3.35c0-.05,0-.11.01-.16.04-.8.35-1.52.82-2.06.01-.02.03-.03.04-.05.24-.26.52-.48.83-.64.02,0,.04-.02.06-.03.08-.04.17-.08.26-.11.02,0,.04-.01.06-.02.08-.03.16-.05.24-.07.1.1.2.2.31.28.28.23.58.42.9.57.06.03.12.05.18.08.24.1.48.17.73.22.24.05.49.07.74.07.29,0,.57-.03.84-.09.03,0,.07-.03.1-.03h.15c.13,0,.26-.11.39-.16.05-.02.1-.07.15-.1.25-.12.49-.27.71-.45.02,0,.05-.02.07-.04.15-.11.29-.23.42-.36,1.27.31,2.24,1.53,2.3,2.99,0,.05.02.11.02.16"/>
      <path class="cls-8" d="M97.56,155.4l-.42-.35c-.05-.05-.12-.05-.19-.04l.5-.59c.28-.33.24-.83-.1-1.11-.33-.28-.83-.24-1.11.1l-5.89,7.03s-.02.02-.02.03l-1.53,2.75c-.11.21.14.42.32.27l2.42-2s.02-.02.03-.03l5.07-6.05c0,.07.01.14.07.19l.11.09c.08.07.1.2.03.28l-2.23,2.65c-.07.08-.06.21.03.28s.21.06.28-.03l2.67-3.19c.07-.08.06-.21-.02-.28"/>
      <rect class="cls-18" x="91.38" y="156" width="6.09" height="1.58" transform="translate(-86.39 128.41) rotate(-50.02)"/>
      <path class="cls-6" d="M101.37,166.99h19.37c.69,0,1.24-.56,1.24-1.24v-2.43c0-.69-.56-1.24-1.24-1.24s-1.24-.56-1.24-1.24v-2.37c0-.69.56-1.24,1.24-1.24h.03c.69,0,1.24-.56,1.24-1.24v-1.64c0-.39-.18-.75-.49-.99l-9.24-7.09c-.43-.33-1.04-.34-1.48-.03l-9.84,7.05c-.32.23-.52.61-.52,1.01v1.38c0,.69.56,1.24,1.24,1.24h.42c.69,0,1.24.56,1.24,1.24v2.55c0,.69-.56,1.24-1.24,1.24h-.73c-.68,0-1.24.55-1.24,1.23,0,.78-.01,1.78-.01,2.57,0,.69.56,1.24,1.24,1.24"/>
      <path class="cls-10" d="M118.92,154.37c.66,0,.76-.29.21-.65l-6.79-5.17c-.55-.36-1.45-.36-1.99,0l-6.89,5.19c-.55.36-.46.65.21.65h15.25Z"/>
      <path class="cls-10" d="M112.22,162.49c.26,0,.48-.21.48-.46v-4.82c0-.25-.22-.46-.48-.46h-1.56c-.26,0-.48.21-.48.46v4.82c0,.25.22.46.48.46h1.56Z"/>
      <path class="cls-10" d="M117.58,162.49c.26,0,.48-.21.48-.46v-4.82c0-.25-.22-.46-.48-.46h-1.56c-.26,0-.48.21-.48.46v4.82c0,.25.22.46.48.46h1.56Z"/>
      <path class="cls-10" d="M106.87,162.49c.26,0,.48-.21.48-.46v-4.82c0-.25-.22-.46-.48-.46h-1.56c-.26,0-.48.21-.48.46v4.82c0,.25.22.46.48.46h1.56Z"/>
      <path class="cls-10" d="M115.54,163.06s0,.01,0,0c0,0,0,0,0-.01t0,0"/>
      <path class="cls-10" d="M104.82,163.06s0,.01,0,0c0,0,0,0,0-.01t0,0"/>
      <path class="cls-10" d="M103.01,163.91c0,.26.22.46.48.46h15.51c.26,0,.48-.21.48-.46v-.27c0-.26-.22-.46-.48-.46h-.48c-.27,0-.48-.02-.47-.04,0-.02-.04-.18-.1-.31-.06-.12-.59-.23-.85-.23h-.6c-.26,0-.59.04-.72.1s-.24.37-.24.39c0,.02-.2.08-.47.08h-1.9c-.27,0-.48-.02-.47-.04,0-.02-.04-.18-.1-.31-.06-.12-.59-.23-.85-.23h-.6c-.26,0-.59.04-.72.1-.13.06-.24.37-.24.39,0,.02-.2.08-.47.08h-1.9c-.26,0-.48-.02-.47-.04,0-.02-.04-.18-.1-.31-.06-.12-.59-.23-.85-.23h-.6c-.27,0-.59.04-.72.1-.13.06-.24.37-.24.39,0,.02-.2.08-.47.08h-.87c-.27,0-.48.21-.48.46v.27Z"/>
      <path class="cls-10" d="M115.78,156.46c.13.06.46.1.72.1h.6c.26,0,.59-.05.72-.1.13-.06.24-.42.24-.5s.22-.14.48-.14h.46c.27,0,.48-.21.48-.46v-.27c0-.26-.22-.46-.48-.46h-15.51c-.26,0-.48.21-.48.46v.27c0,.25.22.46.48.46h.85c.26,0,.48.06.48.14s.05.25.11.37c.06.13.59.23.86.23h.6c.27,0,.59-.05.72-.1.13-.06.24-.42.24-.5s.22-.14.48-.14h1.86c.26,0,.48.06.48.14s.05.25.11.37c.06.13.59.23.86.23h.6c.26,0,.59-.05.72-.1.13-.06.24-.42.24-.5s.22-.14.48-.14h1.86c.27,0,.48.06.48.14s.11.44.24.5"/>
      <path class="cls-10" d="M121.16,165.05c0-.28-.24-.51-.53-.51h-18.76c-.29,0-.53.23-.53.51v.18c0,.28.24.51.53.51h18.76c.29,0,.53-.23.53-.51v-.18Z"/>
      <path class="cls-17" d="M121.36,156.13h-6.1c-.31,0-.56.26-.56.58v11.48c0,.32.25.58.56.58h8.41c.31,0,.56-.26.56-.58v-9.01l-2.87-3.05Z"/>
      <path class="cls-24" d="M121.14,156.69h-5.4c-.28,0-.5.24-.5.53v10.47c0,.29.22.53.5.53h7.45c.28,0,.5-.24.5-.53v-8.22l-2.54-2.78Z"/>
      <path class="cls-6" d="M120.38,159.72l-.03-2.56c0-.13-.11-.24-.24-.24h-4.38c-.13,0-.24.11-.24.24v10.58c0,.13.11.24.24.24h7.46c.13,0,.24-.11.24-.24v-7.53c0-.13-.11-.24-.24-.24h-2.57c-.13,0-.24-.11-.24-.24"/>
      <rect class="cls-10" x="116.28" y="165.84" width="6.48" height=".31"/>
      <rect class="cls-10" x="116.28" y="163.66" width="6.48" height=".32"/>
      <rect class="cls-10" x="116.28" y="161.46" width="6.48" height=".32"/>
      <rect class="cls-10" x="116.15" y="159.02" width="3.72" height=".29"/>
      <rect class="cls-10" x="118.88" y="160.49" width="11.78" height="6.13"/>
      <path class="cls-6" d="M119.28,166.21h10.96v-5.35h-10.96v5.35ZM120.3,166.08v-.68c0-.14-.12-.26-.26-.26h-.68v-3.23h.67c.14,0,.26-.11.26-.26v-.68h8.93v.68c0,.14.11.26.26.26h.67v3.22h-.68c-.14,0-.26.12-.26.26v.68h.93s-9.84,0-9.84,0Z"/>
      <path class="cls-10" d="M129.21,166.07v-.68c0-.14.11-.26.26-.26h.68v-3.23h-.67c-.14,0-.26-.11-.26-.26v-.68h-8.93v.68c0,.14-.12.26-.26.26h-.66v3.23h.68c.14,0,.26.12.26.26v.68h9.85s-.93,0-.93,0Z"/>
      <path class="cls-6" d="M126.99,163.5c0,1.28-1.04,2.31-2.31,2.31s-2.31-1.03-2.31-2.31,1.04-2.31,2.31-2.31,2.31,1.04,2.31,2.31"/>
      <path class="cls-7" d="M124.5,161.7h.34v.25c.53.03,1.05.25,1.04.87h-.7c-.01-.16-.13-.32-.34-.32v.56c.5.15,1.08.33,1.08.93,0,.66-.49.89-1.08.91v.39h-.34v-.39c-.58-.02-1.05-.34-1.06-.97h.73c0,.22.12.38.33.42v-.63c-.47-.15-1.01-.27-1.01-.88s.49-.81,1.01-.89v-.25ZM124.5,162.48c-.11,0-.3.09-.3.25,0,.19.17.23.3.28v-.52ZM124.83,164.38c.17,0,.35-.1.35-.27s-.15-.28-.35-.32v.59Z"/>
    </g>
    <text class="cls-9" transform="translate(57.86 196.48)"><tspan x="0" y="0">Icono app</tspan></text>
  </g>
</svg>