<?xml version="1.0" encoding="UTF-8"?>
<svg id="Capa_2" xmlns="http://www.w3.org/2000/svg" xmlns:xlink="http://www.w3.org/1999/xlink" viewBox="0 0 208.06 183.04">
  <defs>
    <style>
      .cls-1 {
        fill: #f9cf16;
      }

      .cls-2 {
        fill: #cd142a;
      }

      .cls-3 {
        clip-path: url(#clippath-6);
      }

      .cls-4 {
        clip-path: url(#clippath-7);
      }

      .cls-5 {
        fill: url(#Degradado_sin_nombre_16-5);
      }

      .cls-6 {
        clip-path: url(#clippath-15);
      }

      .cls-7 {
        fill: #646365;
      }

      .cls-8 {
        clip-path: url(#clippath-4);
      }

      .cls-9 {
        fill: url(#Degradado_sin_nombre_16);
      }

      .cls-10 {
        fill: url(#Degradado_sin_nombre_16-9);
      }

      .cls-11 {
        fill: url(#Degradado_sin_nombre_16-12);
      }

      .cls-12 {
        fill: #82abcf;
      }

      .cls-13 {
        fill: url(#Degradado_sin_nombre_14-2);
      }

      .cls-14 {
        clip-path: url(#clippath-9);
      }

      .cls-15 {
        clip-path: url(#clippath-10);
      }

      .cls-16 {
        fill: #fff;
      }

      .cls-17 {
        fill: #115a9f;
      }

      .cls-18 {
        fill: url(#Degradado_sin_nombre_16-3);
      }

      .cls-19 {
        fill: #625f60;
      }

      .cls-20 {
        clip-path: url(#clippath-11);
      }

      .cls-21 {
        fill: #4681b6;
      }

      .cls-22 {
        fill: #505050;
      }

      .cls-23 {
        fill: none;
      }

      .cls-24 {
        fill: url(#Degradado_sin_nombre_16-7);
      }

      .cls-25 {
        fill: #6395c1;
      }

      .cls-26 {
        clip-path: url(#clippath-1);
      }

      .cls-27 {
        fill: url(#Degradado_sin_nombre_16-6);
      }

      .cls-28 {
        fill: #d00e4d;
      }

      .cls-29 {
        clip-path: url(#clippath-5);
      }

      .cls-30 {
        fill: url(#Degradado_sin_nombre_16-11);
      }

      .cls-31 {
        clip-path: url(#clippath-8);
      }

      .cls-32 {
        fill: #0a589f;
      }

      .cls-33 {
        clip-path: url(#clippath-3);
      }

      .cls-34 {
        fill: url(#Degradado_sin_nombre_16-8);
      }

      .cls-35 {
        fill: #d8d8d7;
      }

      .cls-36 {
        clip-path: url(#clippath-12);
      }

      .cls-37 {
        fill: url(#Degradado_sin_nombre_16-2);
      }

      .cls-38 {
        fill: #d00e4c;
      }

      .cls-39 {
        fill: #d22e1f;
      }

      .cls-40 {
        fill: #a5a4a4;
      }

      .cls-41 {
        clip-path: url(#clippath-14);
      }

      .cls-42 {
        fill: #236dab;
      }

      .cls-43 {
        fill: #ea7e0b;
      }

      .cls-44 {
        fill: url(#Degradado_sin_nombre_14);
      }

      .cls-45 {
        fill: url(#Degradado_sin_nombre_16-4);
      }

      .cls-46 {
        fill: #1d458c;
      }

      .cls-47 {
        fill: #cb6f14;
      }

      .cls-48 {
        fill: url(#Degradado_sin_nombre_12-2);
      }

      .cls-49 {
        clip-path: url(#clippath-2);
      }

      .cls-50 {
        fill: #e1222c;
      }

      .cls-51 {
        clip-path: url(#clippath-13);
      }

      .cls-52 {
        fill: #4eb692;
      }

      .cls-53 {
        clip-path: url(#clippath);
      }

      .cls-54 {
        fill: #828384;
      }

      .cls-55 {
        fill: url(#Degradado_sin_nombre_16-10);
      }

      .cls-56 {
        fill: #1b4180;
      }

      .cls-57 {
        fill: url(#Degradado_sin_nombre_12);
      }
    </style>
    <clipPath id="clippath">
      <path class="cls-23" d="M195.17,80.49c1.33,3.19.82,7.05,0,10.45l-.21-.9c-.03-.11-.11-.2-.23-.24l-.42-.12c-.24-.07-.47.15-.42.39l.78,3.28c.06.25.36.33.55.16l2.47-2.35c.18-.18.11-.48-.13-.55l-.42-.12c-.11-.03-.23,0-.32.08l-.59.56c.86-3.59.55-7.36-.84-10.74l-.21.09Z"/>
    </clipPath>
    <linearGradient id="Degradado_sin_nombre_16" data-name="Degradado sin nombre 16" x1="-1.71" y1="244.73" x2="-.61" y2="244.73" gradientTransform="translate(-1596.4 95.34) rotate(90) scale(7.32 -7.32)" gradientUnits="userSpaceOnUse">
      <stop offset="0" stop-color="#80a9cd"/>
      <stop offset=".11" stop-color="#6d9cc5"/>
      <stop offset=".33" stop-color="#3f7bb2"/>
      <stop offset=".53" stop-color="#115a9f"/>
      <stop offset="1" stop-color="#115a9f"/>
    </linearGradient>
    <clipPath id="clippath-1">
      <path class="cls-23" d="M185.69,66.91l-.13.42c-.04.11,0,.24.07.32l.5.53c-3.55-.83-7.32-.53-10.73.87l.11.27c3.28-1.35,7.14-.9,10.55-.05l-1,.24c-.11.03-.21.11-.24.23l-.13.42c-.07.24.14.47.39.41l3.3-.79c.25-.06.34-.36.17-.55l-2.3-2.45c-.07-.07-.15-.1-.24-.1-.14,0-.27.09-.32.24"/>
    </clipPath>
    <linearGradient id="Degradado_sin_nombre_16-2" data-name="Degradado sin nombre 16" x1="-3.93" y1="246.67" x2="-2.82" y2="246.67" gradientTransform="translate(-1852.35 96.95) rotate(90) scale(8.25 -8.25)" xlink:href="#Degradado_sin_nombre_16"/>
    <clipPath id="clippath-2">
      <path class="cls-23" d="M163.36,73.91l-2.53,2.28c-.19.17-.12.48.12.56l.42.13c.11.04.23,0,.32-.07l.61-.55c-.96,3.57-.76,7.34.55,10.76l.21-.09c-1.24-3.23-.63-7.07.29-10.44l.19.91c.02.11.11.21.22.24l.42.13c.24.08.48-.14.43-.38l-.69-3.3c-.03-.16-.17-.26-.32-.26-.08,0-.16.03-.22.09"/>
    </clipPath>
    <linearGradient id="Degradado_sin_nombre_16-3" data-name="Degradado sin nombre 16" x1="-21.36" y1="239.83" x2="-20.26" y2="239.83" gradientTransform="translate(1919.01 -71.89) rotate(-90) scale(7.32 -7.32)" xlink:href="#Degradado_sin_nombre_16"/>
    <clipPath id="clippath-3">
      <path class="cls-23" d="M172.36,98.83l-3.35.57c-.25.04-.36.34-.2.53l2.13,2.6c.16.19.47.14.56-.1l.16-.41c.04-.11.02-.23-.05-.32l-.46-.56c3.49,1.07,7.26,1.01,10.76-.16l-.1-.27c-3.36,1.13-7.19.42-10.53-.65l1.02-.17c.12-.02.21-.1.26-.21l.16-.41c.08-.22-.08-.44-.3-.44-.02,0-.04,0-.06,0"/>
    </clipPath>
    <linearGradient id="Degradado_sin_nombre_12" data-name="Degradado sin nombre 12" x1="-3.12" y1="239.86" x2="-2.01" y2="239.86" gradientTransform="translate(-1802.93 120.04) rotate(90) scale(8.25 -8.25)" gradientUnits="userSpaceOnUse">
      <stop offset="0" stop-color="#d00e4c"/>
      <stop offset=".26" stop-color="#d00e4c"/>
      <stop offset="1" stop-color="#e36a8c"/>
      <stop offset="1" stop-color="#e36a8c"/>
    </linearGradient>
    <clipPath id="clippath-4">
      <path class="cls-23" d="M199.05,74.96l-1.56,4.56c-.12.34.18.69.54.62l.62-.11c.16-.03.3-.15.35-.31l.43-1.25c.7,4.96.89,10.51-1.45,14.88l.28.16c2.46-4.61,3.42-9.94,2.69-15.17l.77.88c.11.13.28.19.44.16l.62-.11c.35-.07.5-.49.26-.77l-3.19-3.69c-.1-.11-.23-.17-.36-.17-.19,0-.37.11-.44.31"/>
    </clipPath>
    <linearGradient id="Degradado_sin_nombre_16-4" data-name="Degradado sin nombre 16" x1="-7.04" y1="247.84" x2="-5.93" y2="247.84" gradientTransform="translate(267.54 -2512.4) scale(10.48)" xlink:href="#Degradado_sin_nombre_16"/>
    <clipPath id="clippath-5">
      <path class="cls-23" d="M183.27,102.4l.19.6c.05.16.18.29.34.33l1.44.34c-4.87,1.21-10.4,1.87-15.09-.07l-.16.38c4.88,2,10.27,2.44,15.35,1.25l-.71.76c-.11.12-.15.3-.1.46l.18.6c.11.35.55.45.79.19l3.29-3.51c.25-.26.11-.7-.24-.78l-4.72-1.13s-.08-.01-.11-.01c-.3,0-.54.29-.44.6"/>
    </clipPath>
    <linearGradient id="Degradado_sin_nombre_14" data-name="Degradado sin nombre 14" x1="-9.73" y1="248.35" x2="-8.63" y2="248.35" gradientTransform="translate(288.59 -2825.51) scale(11.8)" gradientUnits="userSpaceOnUse">
      <stop offset="0" stop-color="#80a9cd"/>
      <stop offset=".2" stop-color="#5288ba"/>
      <stop offset=".42" stop-color="#2366a6"/>
      <stop offset=".53" stop-color="#115a9f"/>
      <stop offset="1" stop-color="#115a9f"/>
    </linearGradient>
    <clipPath id="clippath-6">
      <path class="cls-23" d="M157.24,89.82l-.77-.88c-.11-.13-.28-.19-.44-.16l-.62.11c-.35.07-.5.49-.26.77l3.19,3.69c.24.28.68.19.8-.15l1.56-4.56c.12-.34-.18-.69-.54-.62l-.61.11c-.16.03-.3.15-.35.3l-.43,1.25c-.7-4.96-.89-10.51,1.45-14.88l-.28-.16c-2.46,4.61-3.42,9.94-2.69,15.17"/>
    </clipPath>
    <linearGradient id="Degradado_sin_nombre_16-5" data-name="Degradado sin nombre 16" x1="-16.18" y1="237.03" x2="-15.08" y2="237.03" gradientTransform="translate(-5.12 2567.33) rotate(-180) scale(10.48)" xlink:href="#Degradado_sin_nombre_16"/>
    <clipPath id="clippath-7">
      <path class="cls-23" d="M173.39,62.88l-3.29,3.51c-.25.26-.11.7.24.78l4.72,1.13c.35.09.66-.24.55-.59l-.19-.6c-.05-.16-.18-.28-.34-.32l-1.44-.35c4.87-1.21,10.4-1.87,15.09.07l.16-.38c-4.88-2-10.27-2.44-15.35-1.25l.71-.76c.11-.12.15-.3.1-.46l-.18-.6c-.07-.21-.26-.34-.46-.34-.12,0-.24.05-.34.15"/>
    </clipPath>
    <linearGradient id="Degradado_sin_nombre_16-6" data-name="Degradado sin nombre 16" x1="-14.04" y1="236.52" x2="-12.93" y2="236.52" gradientTransform="translate(19.6 2856.16) rotate(-180) scale(11.8)" xlink:href="#Degradado_sin_nombre_16"/>
    <clipPath id="clippath-8">
      <path class="cls-23" d="M200.31,142.94c.8,1.92.49,4.24,0,6.28l-.13-.54c-.02-.07-.07-.12-.14-.14l-.25-.07c-.15-.04-.28.09-.25.24l.47,1.97c.04.15.22.2.33.09l1.48-1.41c.11-.11.07-.29-.08-.33l-.25-.07c-.07-.02-.14,0-.19.05l-.35.34c.52-2.16.33-4.43-.51-6.46l-.12.06Z"/>
    </clipPath>
    <linearGradient id="Degradado_sin_nombre_16-7" data-name="Degradado sin nombre 16" x1="-1.27" y1="258.96" x2="-.18" y2="258.96" gradientTransform="translate(-960.95 150.01) rotate(90) scale(4.49 -4.49)" xlink:href="#Degradado_sin_nombre_16"/>
    <clipPath id="clippath-9">
      <path class="cls-23" d="M194.61,134.77l-.08.25c-.02.07,0,.14.04.19l.3.32c-2.14-.5-4.4-.32-6.45.53l.07.16c1.97-.81,4.3-.54,6.34-.03l-.6.15c-.07.02-.12.07-.15.14l-.08.25c-.04.15.08.28.23.25l1.99-.48c.15-.03.21-.22.1-.33l-1.38-1.48s-.09-.06-.14-.06c-.08,0-.16.05-.19.14"/>
    </clipPath>
    <linearGradient id="Degradado_sin_nombre_16-8" data-name="Degradado sin nombre 16" x1="-6.68" y1="258.99" x2="-5.59" y2="258.99" gradientTransform="translate(-1115.99 167.11) rotate(90) scale(5.05 -5.05)" xlink:href="#Degradado_sin_nombre_16"/>
    <clipPath id="clippath-10">
      <path class="cls-23" d="M181.18,138.98l-1.52,1.37c-.11.1-.07.29.07.33l.25.08c.07.02.14,0,.19-.04l.37-.33c-.58,2.15-.45,4.42.33,6.47l.13-.05c-.75-1.94-.38-4.25.17-6.28l.11.54c.01.07.06.12.13.15l.25.08c.14.05.29-.08.26-.23l-.41-1.98c-.02-.1-.1-.15-.19-.15-.05,0-.09.02-.13.05"/>
    </clipPath>
    <linearGradient id="Degradado_sin_nombre_16-9" data-name="Degradado sin nombre 16" x1="-21.47" y1="225.57" x2="-20.39" y2="225.57" gradientTransform="translate(1192.62 49.05) rotate(-90) scale(4.49 -4.49)" xlink:href="#Degradado_sin_nombre_16"/>
    <clipPath id="clippath-11">
      <path class="cls-23" d="M186.59,153.97l-2.01.34c-.15.03-.22.21-.12.32l1.28,1.56c.1.12.28.08.34-.06l.09-.25c.03-.07.01-.14-.03-.2l-.28-.34c2.1.64,4.37.61,6.47-.09l-.06-.17c-2.02.68-4.32.25-6.33-.39l.61-.11c.07-.01.13-.06.15-.13l.09-.25c.05-.13-.05-.27-.18-.27-.01,0-.02,0-.04,0"/>
    </clipPath>
    <linearGradient id="Degradado_sin_nombre_12-2" data-name="Degradado sin nombre 12" x1="3.18" y1="250.88" x2="4.26" y2="250.88" gradientTransform="translate(-1079.13 135.22) rotate(90) scale(5.05 -5.05)" xlink:href="#Degradado_sin_nombre_12"/>
    <clipPath id="clippath-12">
      <path class="cls-23" d="M202.64,139.62l-.94,2.74c-.07.21.11.41.32.37l.37-.07c.1-.02.18-.09.21-.18l.26-.75c.42,2.98.54,6.32-.87,8.95l.17.1c1.48-2.78,2.05-5.98,1.62-9.12l.46.53c.07.08.17.11.27.1l.37-.07c.21-.04.3-.3.16-.46l-1.92-2.22c-.06-.07-.14-.1-.21-.1-.11,0-.22.07-.27.19"/>
    </clipPath>
    <linearGradient id="Degradado_sin_nombre_16-10" data-name="Degradado sin nombre 16" x1="1.96" y1="243.6" x2="3.05" y2="243.6" gradientTransform="translate(186.9 -1418.14) scale(6.42)" xlink:href="#Degradado_sin_nombre_16"/>
    <clipPath id="clippath-13">
      <path class="cls-23" d="M193.15,156.12l.11.36c.03.1.11.17.21.2l.86.21c-2.93.73-6.26,1.12-9.08-.04l-.1.23c2.93,1.21,6.17,1.47,9.23.75l-.43.45c-.07.07-.09.18-.06.28l.11.36c.07.21.33.27.48.12l1.98-2.11c.15-.16.07-.42-.14-.47l-2.84-.68s-.05,0-.07,0c-.18,0-.32.18-.26.36"/>
    </clipPath>
    <linearGradient id="Degradado_sin_nombre_14-2" data-name="Degradado sin nombre 14" x1="-.89" y1="247.57" x2=".2" y2="247.57" gradientTransform="translate(193.85 -1631.76) scale(7.23)" xlink:href="#Degradado_sin_nombre_14"/>
    <clipPath id="clippath-14">
      <path class="cls-23" d="M177.5,148.55l-.46-.53c-.07-.08-.17-.11-.27-.09l-.37.07c-.21.04-.3.3-.16.46l1.92,2.22c.14.17.41.12.48-.09l.94-2.74c.07-.21-.11-.41-.32-.37l-.37.07c-.1.02-.18.09-.21.18l-.26.75c-.42-2.98-.54-6.32.87-8.95l-.17-.1c-1.48,2.78-2.06,5.98-1.62,9.12"/>
    </clipPath>
    <linearGradient id="Degradado_sin_nombre_16-11" data-name="Degradado sin nombre 16" x1="-25.22" y1="241.24" x2="-24.14" y2="241.24" gradientTransform="translate(19.95 1693.26) rotate(-180) scale(6.42)" xlink:href="#Degradado_sin_nombre_16"/>
    <clipPath id="clippath-15">
      <path class="cls-23" d="M187.21,132.35l-1.98,2.11c-.15.16-.07.42.15.47l2.84.68c.21.05.4-.15.33-.36l-.11-.36c-.03-.1-.11-.17-.21-.2l-.86-.21c2.93-.73,6.26-1.12,9.08.04l.1-.23c-2.94-1.2-6.17-1.47-9.23-.75l.43-.45c.07-.07.09-.18.06-.28l-.11-.36c-.04-.13-.16-.2-.28-.2-.07,0-.15.03-.2.09"/>
    </clipPath>
    <linearGradient id="Degradado_sin_nombre_16-12" data-name="Degradado sin nombre 16" x1="-22.82" y1="237.27" x2="-21.73" y2="237.27" gradientTransform="translate(29.41 1848.75) rotate(-180) scale(7.23)" xlink:href="#Degradado_sin_nombre_16"/>
  </defs>
  <g id="Capa_1-2" data-name="Capa_1">
    <g>
      <path class="cls-19" d="M137.57,172.58h1.14v8.37h-1.14v-8.37Z"/>
      <path class="cls-19" d="M143.1,176.39c-.25.09-.46.21-.62.38s-.29.37-.38.63-.13.51-.13.76.04.5.13.76.21.46.38.63.37.29.62.38.5.13.75.13h4.61v.93h-4.61c-.51,0-.98-.13-1.41-.38-.43-.25-.77-.59-1.03-1.03-.25-.43-.38-.9-.38-1.41s.12-.98.38-1.41c.25-.43.6-.78,1.03-1.03.43-.25.9-.38,1.41-.38h4.61v.93h-4.61c-.25,0-.5.04-.75.13Z"/>
      <path class="cls-19" d="M154.59,175.31c.5-.02.94.02,1.32.14.37.12.68.28.92.49.24.21.42.43.56.66s.23.45.29.66c.06.21.1.38.11.53.02.15.02.21.02.19v.33c0,.24-.06.52-.18.83-.12.31-.3.61-.55.89-.25.28-.57.51-.97.69-.39.17-.85.25-1.38.22h-1.05c-.52.03-.98-.05-1.38-.22-.4-.17-.72-.4-.97-.69-.25-.28-.43-.58-.55-.89-.12-.31-.18-.59-.18-.83v-.33s0-.04.02-.19c.02-.15.05-.33.11-.53.06-.21.16-.42.29-.66s.32-.46.56-.66.55-.37.92-.49c.37-.12.81-.16,1.32-.14h.76ZM154.95,180.01c.7,0,1.19-.17,1.47-.51.28-.34.45-.7.49-1.09v-.16s.01-.26.01-.26v-.18c-.05-.37-.22-.72-.5-1.06s-.77-.51-1.48-.51h-1.49c-.7,0-1.2.17-1.48.51s-.44.7-.48,1.06l-.02.18v.25l.02.18c.04.39.2.75.49,1.09.29.34.78.51,1.47.51h1.49Z"/>
      <path class="cls-19" d="M166.92,176.65c.25.44.38.92.38,1.44v2.87h-.94v-2.87c0-.26-.04-.52-.13-.77s-.21-.47-.38-.64c-.16-.17-.36-.3-.61-.39s-.49-.13-.74-.13h-1.78c-.48,0-1.1,0-1.86,0,0-.22,0-.01,0,.62,0,.64,0,1.06,0,1.25v2.94h-.94v-5.74h4.58c.5,0,.97.13,1.4.38.43.26.77.61,1.03,1.05Z"/>
      <path class="cls-19" d="M173.45,175.31c.5-.02.94.02,1.32.14.37.12.68.28.92.49.24.21.42.43.56.66s.23.45.29.66c.06.21.1.38.11.53.02.15.02.21.02.19v.33c0,.24-.06.52-.18.83-.12.31-.3.61-.55.89-.25.28-.57.51-.97.69-.39.17-.85.25-1.38.22h-1.05c-.52.03-.98-.05-1.38-.22-.4-.17-.72-.4-.97-.69-.25-.28-.43-.58-.55-.89-.12-.31-.18-.59-.18-.83v-.33s0-.04.02-.19c.02-.15.05-.33.11-.53.06-.21.16-.42.29-.66s.32-.46.56-.66.55-.37.92-.49c.37-.12.81-.16,1.32-.14h.76ZM173.81,180.01c.7,0,1.19-.17,1.47-.51.28-.34.45-.7.49-1.09v-.16s.01-.26.01-.26v-.18c-.05-.37-.22-.72-.5-1.06s-.77-.51-1.48-.51h-1.49c-.7,0-1.2.17-1.48.51s-.44.7-.48,1.06l-.02.18v.25l.02.18c.04.39.2.75.49,1.09.29.34.78.51,1.47.51h1.49Z"/>
      <path class="cls-19" d="M188.87,176.64c.23.4.35.9.35,1.49,0-.09,0-.07,0,.06h0v.66c0,.55-.11.98-.32,1.28-.21.3-.46.5-.76.61-.29.1-.61.16-.93.17-.33,0-.57.02-.73.02h-3.01c-.47,0-.87-.17-1.2-.52-.33-.34-.5-.76-.5-1.24s.17-.9.5-1.25c.33-.35.73-.52,1.2-.52h4.61c0-.07-.02-.13-.04-.19s-.04-.11-.05-.13c-.09-.18-.21-.34-.38-.48-.16-.14-.34-.26-.54-.34-.2-.08-.41-.12-.62-.12h-4.44v-.9c0-.08,0-.1,0-.08h4.44c.51,0,.99.13,1.43.4.21.12.39.27.55.45.15.17.3.38.44.62ZM188.2,178.97c0-.08,0-.28-.01-.59h-4.83c-.17,0-.32.08-.45.23-.12.16-.18.34-.18.56s.06.4.18.56c.12.15.27.23.45.23h3.13c.36,0,.64,0,.85-.02.21-.01.38-.07.5-.16.13-.09.22-.21.27-.34.05-.13.08-.29.09-.47Z"/>
      <path class="cls-19" d="M192.29,183.02h-.91c0,.05,0,0,0-.16v-5.33c0-.35.13-.69.4-1.02.27-.33.59-.6.98-.81s.75-.31,1.08-.31h1.71c.53-.02.99.05,1.39.22s.72.39.97.67c.25.28.44.57.56.88.12.3.18.58.18.82v.32s0,.04-.02.18c-.02.15-.05.32-.11.52-.06.2-.16.42-.3.65-.14.23-.33.45-.57.65s-.55.36-.92.48-.82.16-1.32.14h-3.11v2.1ZM192.29,180h3.47c.57,0,1-.12,1.29-.35s.48-.47.57-.73c.08-.25.13-.46.13-.62v-.28c0-.19-.04-.42-.13-.68-.09-.26-.28-.5-.57-.73s-.72-.33-1.27-.33h-1.88c-.24,0-.49.07-.74.22-.25.15-.46.34-.62.56-.16.23-.24.45-.24.66v2.26Z"/>
      <path class="cls-19" d="M201.71,183.02h-.91c0,.05,0,0,0-.16v-5.33c0-.35.13-.69.4-1.02.27-.33.59-.6.98-.81s.75-.31,1.08-.31h1.71c.53-.02.99.05,1.39.22s.72.39.97.67c.25.28.44.57.56.88.12.3.18.58.18.82v.32s0,.04-.02.18c-.02.15-.05.32-.11.52-.06.2-.16.42-.3.65-.14.23-.33.45-.57.65s-.55.36-.92.48-.82.16-1.32.14h-3.11v2.1ZM201.71,180h3.47c.57,0,1-.12,1.29-.35s.48-.47.57-.73c.08-.25.13-.46.13-.62v-.28c0-.19-.04-.42-.13-.68-.09-.26-.28-.5-.57-.73s-.72-.33-1.27-.33h-1.88c-.24,0-.49.07-.74.22-.25.15-.46.34-.62.56-.16.23-.24.45-.24.66v2.26Z"/>
    </g>
    <g>
      <path class="cls-38" d="M37.16,25.71c.13.01.33.07.62.17.29.1.62.29,1,.58.38.29.71.71.99,1.29.28.57.42,1.29.42,2.16s-.17,1.53-.49,2.09c-.33.56-.72.97-1.18,1.24-.46.27-.89.43-1.3.48h-6.99v-8.01h6.94ZM37.1,32.64c.22-.04.47-.13.77-.28.3-.15.58-.42.84-.82.26-.4.39-.94.39-1.63,0-.81-.14-1.44-.41-1.9-.28-.46-.57-.77-.87-.93-.3-.16-.56-.26-.77-.29h-5.76v5.86h5.81Z"/>
      <rect class="cls-38" x="40.94" y="25.72" width="1.09" height="7.98"/>
      <path class="cls-38" d="M47.98,27.9c.7-.01,1.34-.12,1.89-.32.56-.2.99-.4,1.29-.6.3-.2.5-.35.6-.44l.88-.84v8.03h-1.04v-5.8c-.46.28-1,.51-1.6.7-.61.19-1.27.29-2,.3-.76,0-1.48-.09-2.13-.29-.66-.2-1.25-.45-1.76-.75v5.83h-1.04v-8.03l.92.79c.13.12.36.28.69.49.33.21.79.42,1.38.62.59.21,1.24.3,1.94.29"/>
      <rect class="cls-28" x="54.2" y="29.1" width="2.1" height="1.06"/>
      <g>
        <path class="cls-54" d="M57.6,25.66h9.17v1.1h-8.07v2.21h6.11v1.1h-6.11v3.67h-1.1v-8.08Z"/>
        <path class="cls-54" d="M74.43,29.58c.22.39.33.86.33,1.43,0-.09,0-.07,0,.06h0v.64c0,.53-.11.94-.31,1.23-.2.29-.44.48-.73.58-.28.1-.58.15-.89.16-.31,0-.55.02-.7.02h-2.89c-.45,0-.83-.16-1.15-.49-.32-.33-.48-.73-.48-1.19s.16-.87.48-1.2c.32-.33.7-.5,1.15-.5h4.43c0-.07-.02-.12-.04-.19-.02-.06-.04-.1-.05-.12-.09-.17-.21-.32-.36-.46-.15-.14-.33-.25-.52-.33-.19-.08-.39-.11-.6-.11h-4.26v-.86c0-.08,0-.1,0-.07h4.26c.49,0,.95.13,1.37.38.2.12.38.26.53.43.15.17.29.36.42.6ZM73.79,31.82c0-.08,0-.27-.01-.57h-4.64c-.17,0-.31.07-.43.22-.12.15-.17.33-.17.53s.06.38.17.53c.12.15.26.22.43.22h3.01c.34,0,.61,0,.81-.02.2-.01.36-.06.48-.15.13-.09.21-.2.26-.32.05-.13.08-.28.09-.45Z"/>
        <path class="cls-54" d="M77.32,29.34c-.24.08-.44.21-.6.36-.16.16-.28.36-.36.6-.08.24-.13.49-.13.73s.04.48.13.73c.08.24.21.44.36.6.16.16.36.28.6.36.24.08.48.13.72.13h4.42v.89h-4.42c-.49,0-.94-.12-1.36-.37-.41-.24-.74-.57-.98-.98-.24-.41-.36-.86-.36-1.36s.12-.94.36-1.36c.24-.42.57-.74.98-.98.42-.24.87-.37,1.36-.37h4.42v.89h-4.42c-.24,0-.48.04-.72.13Z"/>
        <path class="cls-54" d="M87.76,32.81v.88h-1.66c-.48,0-.93-.12-1.34-.35-.41-.24-.74-.56-.98-.97-.24-.4-.37-.85-.38-1.32v-4.81h.89s0,0,0,.07v1.99h2.08s0,0,0,.07v.82s-.03,0-.08,0h-2v1.91c0,.39.1.72.3.98s.41.46.64.59c.11.07.28.12.5.14.22.02.4.03.55.02h1.48Z"/>
        <path class="cls-54" d="M92.51,28.31c.48-.02.9.02,1.26.13.36.11.65.27.88.47.23.2.41.41.54.64.13.23.22.44.28.63.06.2.09.37.11.51.01.14.02.2.02.18v.32c0,.23-.06.5-.17.8-.11.3-.29.58-.53.85-.24.27-.55.49-.93.66-.38.17-.82.24-1.32.21h-1.01c-.5.03-.94-.04-1.32-.21-.38-.17-.69-.39-.93-.66-.24-.27-.42-.56-.53-.85-.11-.3-.17-.56-.17-.8v-.32s0-.04.02-.18c.01-.14.05-.31.11-.51.06-.2.15-.41.28-.63.13-.22.31-.44.54-.64.23-.2.52-.35.88-.47.36-.11.78-.16,1.27-.13h.73ZM92.86,32.81c.67,0,1.14-.16,1.41-.49.27-.32.43-.67.47-1.04v-.15s.01-.25.01-.25v-.17c-.05-.35-.21-.69-.48-1.02-.27-.33-.74-.49-1.42-.49h-1.43c-.67,0-1.15.16-1.42.49-.27.33-.42.67-.46,1.02l-.02.17v.24l.02.17c.04.37.19.72.47,1.04.27.32.74.49,1.41.49h1.43Z"/>
        <path class="cls-54" d="M102.32,29.12h-3.08c-.15,0-.33,0-.52,0-.19,0-.37.03-.54.08-.17.05-.31.13-.44.26-.12.12-.21.26-.26.43-.05.17-.08.31-.08.43s0,.34,0,.65v2.68s-.02.07-.07.07h-.76s-.07-.02-.07-.07v-2.76c0-.11,0-.31,0-.59,0-.28.06-.56.17-.84.11-.28.3-.53.58-.75.18-.14.37-.24.57-.31.2-.07.4-.12.58-.15.19-.03.36-.04.52-.04h3.39v.91Z"/>
        <path class="cls-54" d="M104.21,25.66v.96h-.96v-.96h.96ZM104.21,27.88v5.83h-.96v-5.83h.96Z"/>
        <path class="cls-54" d="M111.81,29.59c.24.42.36.89.36,1.38v2.76h-.91v-2.76c0-.25-.04-.5-.13-.74s-.21-.45-.36-.61c-.15-.16-.35-.29-.58-.37s-.47-.13-.71-.13h-1.71c-.46,0-1.05,0-1.79,0,0-.21,0-.01,0,.6,0,.61,0,1.01,0,1.2v2.82h-.91v-5.51h4.4c.48,0,.93.12,1.34.37.41.25.74.58.98,1.01Z"/>
        <path class="cls-54" d="M119.07,28.59c.24.13.43.32.58.56.15.24.22.52.22.84v2.92c-.02.47-.13.9-.33,1.3-.2.4-.47.72-.82.97-.35.25-.76.39-1.22.41h-4.43v-.87h4.31c.28,0,.55-.08.83-.25s.48-.41.62-.73l.03-.07h-3.28c-.54,0-1-.13-1.4-.38-.4-.26-.71-.58-.92-.98-.21-.4-.32-.8-.32-1.21v-.19c0-.39.11-.78.33-1.17.22-.39.53-.72.92-.97s.84-.38,1.33-.38h2.82c.25,0,.5.07.73.2ZM119.01,32.81v-2.92c0-.16-.06-.3-.17-.44-.11-.13-.25-.2-.43-.2h-2.73c-.46,0-.83.08-1.11.25-.28.17-.48.38-.59.63-.11.25-.17.51-.17.79v.21c0,.36.08.66.24.91.16.25.37.44.62.57.25.13.52.19.79.19h3.55Z"/>
        <path class="cls-54" d="M122.8,25.67h8.06v1.1h-6.96v2.2h6.96v1.1h-6.96v2.56h6.96v1.1h-8.06v-8.06Z"/>
        <path class="cls-54" d="M132.04,32.7c.35-.28.74-.55,1.18-.81.43-.26,1.01-.58,1.73-.95-.67-.33-1.22-.62-1.65-.88-.43-.26-.85-.55-1.26-.86v-1.07c.92.67,1.6,1.15,2.05,1.43.07.05.13.08.16.1.24.15.49.29.75.44.26.14.49.22.71.22.18,0,.37-.05.57-.15.2-.1.5-.27.9-.51.09-.06.15-.09.16-.1.44-.28,1.12-.76,2.05-1.45v1.08c-.41.32-.83.61-1.27.86-.43.26-.98.55-1.64.88.72.37,1.3.69,1.73.95.43.26.82.53,1.18.81v1.07c-.43-.33-.8-.6-1.11-.82-.31-.21-.63-.43-.96-.64-.06-.04-.11-.06-.13-.08-.28-.18-.55-.34-.8-.47-.25-.13-.47-.2-.67-.2-.21,0-.44.08-.68.2-.24.13-.5.28-.8.46-.02.01-.07.04-.13.08-.34.21-.66.42-.97.64-.31.22-.67.49-1.09.81v-1.07Z"/>
        <path class="cls-54" d="M140.94,35.7h-.87c0,.05,0,0,0-.16v-5.12c0-.33.13-.66.38-.98.25-.32.57-.58.94-.78.37-.2.72-.3,1.03-.3h1.64c.51-.02.95.05,1.33.21.38.16.69.38.93.65.24.27.42.55.53.84.12.29.17.55.17.79v.31s0,.04-.02.18c-.02.14-.05.31-.11.5-.06.2-.15.4-.28.62-.13.22-.31.43-.54.62-.23.2-.53.35-.89.46-.36.11-.78.15-1.27.13h-2.98v2.02ZM140.94,32.81h3.34c.54,0,.96-.11,1.24-.33.28-.22.46-.45.54-.7.08-.24.12-.44.12-.59v-.26c0-.18-.04-.4-.13-.65-.09-.25-.27-.48-.55-.7-.28-.21-.69-.32-1.22-.32h-1.81c-.23,0-.47.07-.71.21-.24.14-.44.32-.59.54-.15.22-.23.43-.23.63v2.17Z"/>
        <path class="cls-54" d="M151.57,28.31c.48-.02.9.02,1.26.13.36.11.65.27.88.47.23.2.41.41.54.64.13.23.22.44.28.63.06.2.09.37.11.51.01.14.02.2.02.18v.32c0,.23-.06.5-.17.8-.11.3-.29.58-.53.85-.24.27-.55.49-.93.66-.38.17-.82.24-1.32.21h-1.01c-.5.03-.94-.04-1.32-.21-.38-.17-.69-.39-.93-.66-.24-.27-.42-.56-.53-.85-.11-.3-.17-.56-.17-.8v-.32s0-.04.02-.18c.01-.14.05-.31.11-.51.06-.2.15-.41.28-.63.13-.22.31-.44.54-.64.23-.2.52-.35.88-.47.36-.11.78-.16,1.27-.13h.73ZM151.92,32.81c.67,0,1.14-.16,1.41-.49.27-.32.43-.67.47-1.04v-.15s.01-.25.01-.25v-.17c-.05-.35-.21-.69-.48-1.02-.27-.33-.74-.49-1.42-.49h-1.43c-.67,0-1.15.16-1.42.49-.27.33-.42.67-.46,1.02l-.02.17v.24l.02.17c.04.37.19.72.47,1.04.27.32.74.49,1.41.49h1.43Z"/>
        <path class="cls-54" d="M161.38,29.12h-3.08c-.15,0-.33,0-.52,0-.19,0-.37.03-.54.08-.17.05-.31.13-.44.26-.12.12-.21.26-.26.43-.05.17-.08.31-.08.43,0,.12,0,.34,0,.65v2.68s-.02.07-.07.07h-.76s-.07-.02-.07-.07v-2.76c0-.11,0-.31,0-.59,0-.28.06-.56.17-.84.11-.28.3-.53.58-.75.18-.14.37-.24.57-.31.2-.07.4-.12.58-.15.19-.03.36-.04.52-.04h3.39v.91Z"/>
        <path class="cls-54" d="M166.69,32.81v.88h-1.66c-.48,0-.93-.12-1.34-.35-.41-.24-.74-.56-.98-.97-.24-.4-.37-.85-.38-1.32v-4.81h.89s0,0,0,.07v1.99h2.08s0,0,0,.07v.82s-.03,0-.08,0h-2v1.91c0,.39.1.72.3.98.2.26.41.46.64.59.11.07.28.12.5.14.22.02.4.03.55.02h1.48Z"/>
        <path class="cls-54" d="M167.85,25.68h1.1v8.03h-1.1v-8.03Z"/>
        <path class="cls-54" d="M180.39,29.82c.1.21.17.4.21.57.04.17.07.39.07.64v2.68h-.88v-2.77c0-.15-.02-.3-.07-.44-.05-.14-.1-.27-.16-.37-.06-.1-.15-.22-.26-.36-.12-.14-.27-.25-.44-.33-.17-.08-.34-.14-.51-.17-.17-.03-.38-.05-.64-.05h-1.97c0,.59,0,1.17,0,1.76v2.73h-.88v-2.76c0-.17-.02-.32-.06-.46-.04-.14-.09-.26-.14-.36-.05-.1-.13-.2-.23-.32-.14-.15-.3-.27-.48-.35-.18-.09-.35-.15-.51-.18-.16-.03-.36-.05-.61-.05-1.01,0-1.68,0-2.02,0,0,.35,0,1.47,0,3.36v1.12h-.88v-5.35h7.78c.28-.01.54,0,.77.05.24.05.45.12.63.21s.33.17.45.26c.12.09.25.21.39.35.17.19.3.38.4.59Z"/>
        <path class="cls-54" d="M182.31,35.7h-.87c0,.05,0,0,0-.16v-5.12c0-.33.13-.66.38-.98.25-.32.57-.58.94-.78.37-.2.72-.3,1.03-.3h1.64c.51-.02.95.05,1.33.21.38.16.69.38.93.65.24.27.42.55.53.84.12.29.17.55.17.79v.31s0,.04-.02.18c-.02.14-.05.31-.11.5-.06.2-.15.4-.28.62-.13.22-.31.43-.54.62-.23.2-.53.35-.89.46-.36.11-.78.15-1.27.13h-2.98v2.02ZM182.31,32.81h3.34c.54,0,.96-.11,1.24-.33.28-.22.46-.45.54-.7.08-.24.12-.44.12-.59v-.26c0-.18-.04-.4-.13-.65-.09-.25-.27-.48-.55-.7-.28-.21-.69-.32-1.22-.32h-1.81c-.23,0-.47.07-.71.21-.24.14-.44.32-.59.54-.15.22-.23.43-.23.63v2.17Z"/>
        <path class="cls-54" d="M192.94,28.31c.48-.02.9.02,1.26.13.36.11.65.27.88.47.23.2.41.41.54.64.13.23.22.44.28.63.06.2.09.37.11.51.01.14.02.2.02.18v.32c0,.23-.06.5-.17.8-.11.3-.29.58-.53.85-.24.27-.55.49-.93.66-.38.17-.82.24-1.32.21h-1.01c-.5.03-.94-.04-1.32-.21-.38-.17-.69-.39-.93-.66-.24-.27-.42-.56-.53-.85-.11-.3-.17-.56-.17-.8v-.32s0-.04.02-.18c.01-.14.05-.31.11-.51.06-.2.15-.41.28-.63.13-.22.31-.44.54-.64.23-.2.52-.35.88-.47.36-.11.78-.16,1.27-.13h.73ZM193.29,32.81c.67,0,1.14-.16,1.41-.49.27-.32.43-.67.47-1.04v-.15s.01-.25.01-.25v-.17c-.05-.35-.21-.69-.48-1.02-.27-.33-.74-.49-1.42-.49h-1.43c-.67,0-1.15.16-1.42.49-.27.33-.42.67-.46,1.02l-.02.17v.24l.02.17c.04.37.19.72.47,1.04.27.32.74.49,1.41.49h1.43Z"/>
        <path class="cls-54" d="M202.75,29.12h-3.08c-.15,0-.33,0-.52,0-.19,0-.37.03-.54.08-.17.05-.31.13-.44.26-.12.12-.21.26-.26.43-.05.17-.08.31-.08.43,0,.12,0,.34,0,.65v2.68s-.02.07-.07.07h-.76s-.07-.02-.07-.07v-2.76c0-.11,0-.31,0-.59,0-.28.06-.56.17-.84.11-.28.3-.53.58-.75.18-.14.37-.24.57-.31.2-.07.4-.12.58-.15.19-.03.36-.04.52-.04h3.39v.91Z"/>
        <path class="cls-54" d="M208.06,32.81v.88h-1.66c-.48,0-.93-.12-1.34-.35-.41-.24-.74-.56-.98-.97-.24-.4-.37-.85-.38-1.32v-4.81h.89s0,0,0,.07v1.99h2.08s0,0,0,.07v.82s-.03,0-.08,0h-2v1.91c0,.39.1.72.3.98.2.26.41.46.64.59.11.07.28.12.5.14.22.02.4.03.55.02h1.48Z"/>
      </g>
    </g>
    <g>
      <rect class="cls-1" x="203.87" y="16.62" width="3.82" height="1.21"/>
      <rect class="cls-56" x="203.87" y="17.83" width="3.82" height=".6"/>
      <rect class="cls-2" x="203.87" y="18.43" width="3.82" height=".6"/>
      <rect class="cls-50" x="199.2" y="16.62" width="1.27" height="2.41"/>
      <rect class="cls-50" x="201.75" y="16.62" width="1.27" height="2.41"/>
      <rect class="cls-16" x="200.47" y="16.62" width="1.27" height="2.41"/>
      <polyline class="cls-39" points="198.35 19.04 194.53 19.04 194.53 17.83 198.35 17.83"/>
      <rect class="cls-46" x="194.53" y="16.62" width="1.27" height="1.21"/>
      <rect class="cls-16" x="195.8" y="16.62" width="2.54" height="1.21"/>
      <polygon class="cls-16" points="194.86 17.13 195.09 17.13 195.17 16.92 195.24 17.13 195.47 17.13 195.28 17.26 195.35 17.47 195.16 17.34 194.98 17.47 195.05 17.26 194.86 17.13"/>
      <path class="cls-7" d="M151.26,19.57h-.24v-1.43c0-.09.03-.18.1-.27s.15-.16.25-.21c.1-.05.19-.08.28-.08h.44c.14,0,.26.01.36.06.1.04.19.1.25.18.07.07.11.15.14.23.03.08.05.15.05.21v.08s0,.01,0,.05c0,.04-.01.08-.03.14-.02.05-.04.11-.08.17-.04.06-.09.12-.15.17-.06.05-.14.09-.24.12-.1.03-.21.04-.34.04h-.81v.55ZM151.26,18.78h.9c.15,0,.26-.03.34-.09.08-.06.12-.12.15-.19.02-.07.03-.12.03-.16v-.07s-.01-.11-.04-.18c-.02-.07-.07-.13-.15-.19-.08-.06-.19-.09-.33-.09h-.49c-.06,0-.13.02-.19.06-.07.04-.12.09-.16.15-.04.06-.06.12-.06.17v.59Z"/>
      <path class="cls-7" d="M154.97,17.78h-.83s-.09,0-.14,0c-.05,0-.1,0-.15.02-.04.01-.08.04-.12.07-.03.03-.06.07-.07.12-.01.04-.02.09-.02.12,0,.03,0,.09,0,.18v.73s0,.02-.02.02h-.21s-.02,0-.02-.02v-.75s0-.08,0-.16c0-.08.02-.15.04-.23.03-.08.08-.14.16-.2.05-.04.1-.07.15-.08.06-.02.11-.03.16-.04.05,0,.1-.01.14-.01h.92v.25Z"/>
      <path class="cls-7" d="M156.48,17.56c.13,0,.25,0,.34.04.1.03.18.07.24.13.06.05.11.11.14.17.04.06.06.12.08.17.02.05.02.1.03.14,0,.04,0,.06,0,.05v.09c0,.06-.01.14-.05.22-.03.08-.08.16-.14.23-.07.07-.15.13-.25.18-.1.04-.22.06-.36.06h-.28c-.14,0-.26-.01-.36-.06-.1-.04-.19-.11-.25-.18-.07-.07-.11-.15-.14-.23-.03-.08-.05-.15-.05-.22v-.09s0-.01,0-.05c0-.04.01-.08.03-.14.02-.05.04-.11.08-.17.03-.06.08-.12.15-.17.06-.05.14-.1.24-.13.1-.03.21-.04.34-.04h.2ZM156.58,18.78c.18,0,.31-.04.38-.13.07-.09.12-.18.13-.28v-.04s0-.07,0-.07v-.05c-.01-.1-.06-.19-.13-.28-.07-.09-.2-.13-.38-.13h-.39c-.18,0-.31.04-.38.13-.07.09-.11.18-.12.28v.05s0,.06,0,.06v.05c.01.1.06.19.13.28.07.09.2.13.38.13h.39Z"/>
      <path class="cls-7" d="M159.48,17.02h.24v1.46c0,.1-.01.18-.03.25-.02.07-.06.13-.1.17-.05.04-.11.08-.19.09-.08.02-.18.03-.29.03h-.48c-.14,0-.26-.01-.36-.06-.1-.04-.19-.1-.26-.18-.07-.07-.12-.15-.15-.23-.03-.08-.05-.15-.05-.21v-.09s0-.01,0-.05c0-.04.01-.08.03-.14.02-.05.04-.11.08-.17.04-.06.08-.12.15-.17.06-.05.14-.1.24-.13.1-.03.21-.04.35-.03h.82v-.55ZM159.48,17.81h-.91c-.15,0-.26.03-.34.09-.08.06-.13.12-.15.19s-.03.12-.03.16v.07c0,.05.01.11.03.18.02.07.07.13.15.19.08.06.19.09.33.09h.63c.07,0,.13-.02.17-.05.04-.03.07-.07.09-.13.02-.06.03-.12.03-.2v-.59Z"/>
      <path class="cls-7" d="M161.56,18.75c.06-.02.12-.06.16-.1.04-.04.08-.1.1-.17.02-.07.03-.13.03-.2v-.75h.25v.75c0,.14-.03.26-.1.38-.07.11-.16.21-.27.27-.11.07-.23.1-.37.1h-.47c-.13,0-.26-.03-.37-.1-.11-.07-.2-.16-.27-.27-.07-.12-.1-.24-.1-.38v-.75h.24v.75c0,.07.01.13.03.2.02.07.06.12.1.17.04.04.1.08.16.1.06.02.13.04.19.04h.47c.07,0,.13-.01.19-.04"/>
      <path class="cls-7" d="M163.06,17.84c-.07.02-.12.06-.16.1-.04.04-.08.1-.1.16-.02.07-.03.13-.03.2s.01.13.03.2c.02.07.06.12.1.16.04.04.1.08.16.1.07.02.13.03.2.03h1.2v.24h-1.2c-.13,0-.26-.03-.37-.1-.11-.07-.2-.15-.27-.27-.07-.11-.1-.23-.1-.37s.03-.26.1-.37c.07-.11.16-.2.27-.27.11-.07.24-.1.37-.1h1.2v.24h-1.2c-.07,0-.13.01-.2.03"/>
      <path class="cls-7" d="M166.15,18.78v.24h-.45c-.13,0-.25-.03-.36-.1-.11-.06-.2-.15-.27-.26-.07-.11-.1-.23-.1-.36v-1.31h.24v.56h.56v.24s0,0-.02,0h-.54v.52c0,.11.03.19.08.26s.11.12.17.16c.03.02.08.03.14.04.06,0,.11,0,.15,0h.4Z"/>
      <path class="cls-7" d="M167.71,17.56c.13,0,.25,0,.34.04.1.03.18.07.24.13.06.05.11.11.14.17.04.06.06.12.08.17.02.05.02.1.03.14,0,.04,0,.06,0,.05v.09c0,.06-.01.14-.05.22-.03.08-.08.16-.14.23-.07.07-.15.13-.25.18-.1.04-.22.06-.36.06h-.28c-.14,0-.26-.01-.36-.06-.1-.04-.19-.11-.25-.18-.07-.07-.11-.15-.14-.23-.03-.08-.05-.15-.05-.22v-.09s0-.01,0-.05c0-.04.01-.08.03-.14.02-.05.04-.11.08-.17.03-.06.08-.12.15-.17.06-.05.14-.1.24-.13.1-.03.21-.04.34-.04h.2ZM167.8,18.78c.18,0,.31-.04.38-.13.07-.09.12-.18.13-.28v-.04s0-.07,0-.07v-.05c-.01-.1-.06-.19-.13-.28-.07-.09-.2-.13-.38-.13h-.39c-.18,0-.31.04-.38.13-.07.09-.11.18-.12.28v.05s0,.06,0,.06v.05c.01.1.06.19.13.28.07.09.2.13.38.13h.39Z"/>
      <path class="cls-7" d="M170.58,18.19c.1,0,.19.04.26.1.07.06.11.17.11.34,0,.09-.02.17-.07.23-.05.06-.1.11-.17.13-.07.03-.13.04-.2.04h-1.49v-.24s1.49,0,1.49,0c.05,0,.1-.01.14-.03.04-.02.06-.08.06-.16,0-.05-.02-.09-.05-.11-.03-.02-.06-.04-.1-.04-.04,0-.06,0-.07,0h-1.08c-.06,0-.12-.02-.18-.05-.06-.03-.12-.08-.17-.15-.05-.07-.07-.16-.07-.27,0-.1.02-.17.08-.24.05-.06.11-.11.18-.14.07-.03.13-.04.2-.05h1.35v.24h-1.34c-.05,0-.11.01-.15.04s-.07.08-.07.18c0,.08.02.12.07.15.04.02.09.04.13.04h1.16Z"/>
      <path class="cls-7" d="M174.02,17.55v1.28c0,.15-.04.27-.11.38-.08.13-.17.23-.27.29-.1.06-.23.09-.38.09h-1.04s-.02,0-.02-.02v-.21s0-.02.02-.02h1.04c.05,0,.1,0,.14-.01.04,0,.08-.02.11-.04.04-.03.08-.06.11-.08.03-.02.05-.05.07-.09l.04-.07h-.95c-.11,0-.21-.02-.3-.06-.09-.04-.16-.09-.22-.15-.05-.06-.1-.13-.15-.22s-.07-.18-.07-.28v-.77s0-.02,0-.02h.25v.81c0,.05.01.1.03.16.02.05.04.09.06.11.01.01.03.03.06.06.03.03.07.06.11.08.05.02.11.04.18.05h1.04s0-1.24,0-1.24c0-.01,0-.02.02-.02h.21s.02,0,.02.02"/>
      <path class="cls-7" d="M176.71,18.19c.1,0,.19.04.26.1.07.06.11.17.11.34,0,.09-.02.17-.07.23-.05.06-.1.11-.17.13-.07.03-.13.04-.2.04h-1.49v-.24s1.49,0,1.49,0c.05,0,.1-.01.14-.03.04-.02.06-.08.06-.16,0-.05-.02-.09-.05-.11-.03-.02-.06-.04-.1-.04-.04,0-.06,0-.07,0h-1.08c-.06,0-.12-.02-.18-.05-.06-.03-.12-.08-.17-.15-.05-.07-.07-.16-.07-.27,0-.1.02-.17.08-.24.05-.06.11-.11.18-.14.07-.03.13-.04.2-.05h1.35v.24h-1.34c-.05,0-.11.01-.15.04s-.07.08-.07.18c0,.08.02.12.07.15.04.02.09.04.13.04h1.16Z"/>
      <path class="cls-7" d="M179.23,17.64c.07.06.12.12.14.19.02.07.04.13.04.18,0,.26-.14.4-.44.41h-1.16s0,.06,0,.06c0,.07,0,.12.02.16.01.04.03.07.06.09.03.02.07.03.12.04.05,0,.12,0,.2,0h1.08s.05.02.05.05v.15s-.02.05-.05.05h-1.12c-.16,0-.28-.02-.37-.05-.09-.03-.15-.09-.19-.17-.04-.08-.06-.18-.06-.31v-.37c0-.09.03-.17.1-.26.07-.09.15-.16.26-.22.1-.06.21-.09.32-.09h.71c.13,0,.23.03.3.09M179.06,18.18s.04-.02.07-.05c.01-.02.03-.04.03-.06,0-.02.01-.05.01-.09,0-.02,0-.04-.01-.07-.01-.03-.03-.05-.06-.08-.03-.02-.06-.03-.11-.03h-.77c-.06,0-.11.02-.18.05-.06.03-.12.08-.16.14-.04.06-.07.12-.07.2h1.15s.08,0,.1-.01"/>
      <path class="cls-7" d="M181.51,17.78h-.83s-.09,0-.14,0c-.05,0-.1,0-.15.02-.04.01-.08.04-.12.07-.03.03-.06.07-.07.12-.01.04-.02.09-.02.12,0,.03,0,.09,0,.18v.73s0,.02-.02.02h-.21s-.02,0-.02-.02v-.75s0-.08,0-.16c0-.08.02-.15.04-.23.03-.08.08-.14.16-.2.05-.04.1-.07.15-.08.06-.02.11-.03.16-.04.05,0,.1-.01.14-.01h.92v.25Z"/>
      <path class="cls-7" d="M182.09,17.52l.87,1.3h.03l.87-1.3h.29l-.87,1.3c-.07.11-.12.18-.14.2h-.34c-.04-.06-.08-.13-.14-.2l-.87-1.3h.29Z"/>
      <path class="cls-7" d="M184.73,17.1h-.26v-.26h.26v.26ZM184.73,19.03h-.26v-1.58h.26v1.58Z"/>
      <path class="cls-7" d="M185.77,17.84c-.07.02-.12.06-.16.1-.04.04-.08.1-.1.16-.02.07-.03.13-.03.2s.01.13.03.2c.02.07.06.12.1.16.04.04.1.08.16.1.07.02.13.03.2.03h1.2v.24h-1.2c-.13,0-.26-.03-.37-.1-.11-.07-.2-.15-.27-.27-.07-.11-.1-.23-.1-.37s.03-.26.1-.37c.07-.11.16-.2.27-.27.11-.07.24-.1.37-.1h1.2v.24h-1.2c-.07,0-.13.01-.2.03"/>
      <path class="cls-7" d="M187.94,17.1h-.26v-.26h.26v.26ZM187.94,19.03h-.26v-1.58h.26v1.58Z"/>
      <path class="cls-7" d="M189.51,17.56c.13,0,.25,0,.34.04.1.03.18.07.24.13.06.05.11.11.14.17.04.06.06.12.08.17.02.05.02.1.03.14,0,.04,0,.06,0,.05v.09c0,.06-.01.14-.05.22-.03.08-.08.16-.14.23-.07.07-.15.13-.25.18-.1.04-.22.06-.36.06h-.28c-.14,0-.26-.01-.36-.06-.1-.04-.19-.11-.25-.18-.07-.07-.11-.15-.14-.23-.03-.08-.05-.15-.05-.22v-.09s0-.01,0-.05c0-.04.01-.08.03-.14.02-.05.04-.11.08-.17.03-.06.08-.12.15-.17.06-.05.14-.1.24-.13.1-.03.21-.04.34-.04h.2ZM189.61,18.78c.18,0,.31-.04.38-.13.07-.09.12-.18.13-.28v-.04s0-.07,0-.07v-.05c-.01-.1-.06-.19-.13-.28-.07-.09-.2-.13-.38-.13h-.39c-.18,0-.31.04-.38.13-.07.09-.11.18-.12.28v.05s0,.06,0,.06v.05c.01.1.06.19.13.28.07.09.2.13.38.13h.39Z"/>
      <path class="cls-7" d="M192.39,18.19c.1,0,.19.04.26.1.07.06.11.17.11.34,0,.09-.02.17-.07.23-.05.06-.1.11-.17.13-.07.03-.13.04-.2.04h-1.49v-.24s1.49,0,1.49,0c.05,0,.1-.01.14-.03.04-.02.06-.08.06-.16,0-.05-.02-.09-.05-.11-.03-.02-.06-.04-.1-.04-.04,0-.06,0-.07,0h-1.08c-.06,0-.12-.02-.18-.05-.06-.03-.12-.08-.17-.15-.05-.07-.07-.16-.07-.27,0-.1.02-.17.08-.24.05-.06.11-.11.18-.14.07-.03.13-.04.2-.05h1.35v.24h-1.34c-.05,0-.11.01-.15.04s-.07.08-.07.18c0,.08.02.12.07.15.04.02.09.04.13.04h1.16Z"/>
      <path class="cls-16" d="M13.62.25L.5,4.38l13.15,10.2,12.88-9.95L13.62.25ZM18.69,9.53l-2.86,2.19-2.44-1.57,1.87-1.53c.34-.3.44-.51.44-.51v-2.92c.02-.5-.67-.78-.67-.78-.87-.42-2.18-.4-2.18-.4-1.22-.02-3.48.85-3.48.85v2.7l-3.38-2.18c2.15-.87,3.14-1.1,3.14-1.1,2.14-.6,3.63-.63,3.63-.63,2.4-.13,4.3.53,4.3.53,1.9.53,2.69,1.19,2.69,1.19,1.58,1.18,1.22,2.4,1.22,2.4-.25.22-2.27,1.76-2.27,1.76"/>
      <polygon class="cls-38" points=".02 7.56 .02 4.31 13.69 14.7 27.02 4.55 27.02 7.54 13.65 19.69 .02 7.56"/>
      <path class="cls-38" d="M5.89,5.42l-2.19-1.36s2.89-1.13,5.3-1.59,3.28-.48,4.65-.43c1.37.06,4.01.58,5.74,1.43,1.73.85,2.1,1.74,2.21,2.22.11.49.08,1.6-.31,1.95l-.39.35s.28-.63-.12-1.43c-.4-.79-1.28-1.56-2.86-2.1-1.59-.54-3-.85-4.71-.82-1.71.03-3.27.4-4.47.75-1.2.35-2.84,1.02-2.84,1.02"/>
      <path class="cls-38" d="M9.36,4.93v2.69l3.94,2.6s.86-.67,1.47-1.17c.6-.5.86-.8.93-.95v-2.97s.07.47-.97,1.05c-1.04.58-1.37.78-1.37.78l-3.99-2.03Z"/>
      <path class="cls-38" d="M13.65,14.89L0,4.29,13.62,0h.04s13.37,4.56,13.37,4.56l-13.37,10.33ZM.5,4.38l13.15,10.2,12.88-9.95L13.62.25.5,4.38Z"/>
      <path class="cls-38" d="M15.84,12.01l-.07-.04L3.44,4.03l.22-.08s2.93-1.14,5.32-1.59c1.76-.33,2.75-.45,3.8-.45.25,0,.52,0,.88.02,1.49.06,4.12.62,5.79,1.44,1.31.64,2.07,1.41,2.27,2.3.11.51.09,1.67-.34,2.07l-.39.35-5.13,3.93ZM3.96,4.08l11.87,7.64,4.99-3.83.38-.34c.35-.31.37-1.38.27-1.84-.18-.81-.9-1.53-2.14-2.14-1.64-.8-4.23-1.36-5.69-1.42-.35-.01-.62-.02-.87-.02-.89,0-1.78.07-3.76.45-1.99.38-4.34,1.23-5.06,1.5"/>
      <path class="cls-38" d="M13.27,7.01l-3.94-2.01.03-.07-.03-.07c.09-.03,2.23-.86,3.5-.86h.03c1.33.01,2.19.33,2.54.63.33.28.37.58.14.94-.17.26-.65.61-1.31.96-.65.34-.93.46-.94.47h-.02ZM9.47,4.94l3.8,1.94c.08-.04.37-.16.91-.45.64-.34,1.11-.68,1.27-.92.2-.3.16-.55-.12-.78-.34-.28-1.16-.59-2.46-.6h-.02c-1.11,0-2.95.66-3.37.81"/>
      <path class="cls-38" d="M37.16,6.18c.13.01.33.07.62.17.29.1.62.29,1,.58.38.29.71.71.99,1.29.28.57.42,1.29.42,2.16s-.17,1.53-.49,2.09c-.33.56-.72.97-1.18,1.24-.46.27-.89.43-1.3.48h-6.99V6.18h6.94ZM37.1,13.11c.22-.04.47-.13.77-.28.3-.15.58-.42.84-.82.26-.4.39-.94.39-1.63,0-.81-.14-1.44-.41-1.9-.28-.46-.57-.77-.87-.93-.3-.16-.56-.26-.77-.29h-5.76v5.86h5.81Z"/>
      <rect class="cls-38" x="40.94" y="6.19" width="1.09" height="7.98"/>
      <path class="cls-38" d="M47.98,8.37c.7-.01,1.34-.12,1.89-.32.56-.2.99-.4,1.29-.6.3-.2.5-.35.6-.44l.88-.84v8.03h-1.04v-5.8c-.46.28-1,.51-1.6.7-.61.19-1.27.29-2,.3-.76,0-1.48-.09-2.13-.29-.66-.2-1.25-.45-1.76-.75v5.83h-1.04V6.17l.92.79c.13.12.36.28.69.49.33.21.79.42,1.38.62.59.21,1.24.3,1.94.29"/>
      <rect class="cls-28" x="54.2" y="9.58" width="2.1" height="1.06"/>
      <g>
        <path class="cls-54" d="M57.6,6.13h9.17v1.1h-8.07v2.21h6.11v1.1h-6.11v3.67h-1.1V6.13Z"/>
        <path class="cls-54" d="M74.43,10.05c.22.39.33.86.33,1.43,0-.09,0-.07,0,.06h0v.64c0,.53-.11.94-.31,1.23-.2.29-.44.48-.73.58-.28.1-.58.15-.89.16-.31,0-.55.02-.7.02h-2.89c-.45,0-.83-.16-1.15-.49-.32-.33-.48-.73-.48-1.19s.16-.87.48-1.2c.32-.33.7-.5,1.15-.5h4.43c0-.07-.02-.12-.04-.19-.02-.06-.04-.1-.05-.12-.09-.17-.21-.32-.36-.46-.15-.14-.33-.25-.52-.33-.19-.08-.39-.11-.6-.11h-4.26v-.86c0-.08,0-.1,0-.07h4.26c.49,0,.95.13,1.37.38.2.12.38.26.53.43.15.17.29.36.42.6ZM73.79,12.29c0-.08,0-.27-.01-.57h-4.64c-.17,0-.31.07-.43.22-.12.15-.17.33-.17.53s.06.38.17.53c.12.15.26.22.43.22h3.01c.34,0,.61,0,.81-.02.2-.01.36-.06.48-.15.13-.09.21-.2.26-.32.05-.13.08-.28.09-.45Z"/>
        <path class="cls-54" d="M77.32,9.81c-.24.08-.44.21-.6.36-.16.16-.28.36-.36.6-.08.24-.13.49-.13.73s.04.48.13.73c.08.24.21.44.36.6.16.16.36.28.6.36.24.08.48.13.72.13h4.42v.89h-4.42c-.49,0-.94-.12-1.36-.37-.41-.24-.74-.57-.98-.98-.24-.41-.36-.86-.36-1.36s.12-.94.36-1.36c.24-.42.57-.74.98-.98.42-.24.87-.37,1.36-.37h4.42v.89h-4.42c-.24,0-.48.04-.72.13Z"/>
        <path class="cls-54" d="M87.76,13.28v.88h-1.66c-.48,0-.93-.12-1.34-.35-.41-.24-.74-.56-.98-.97-.24-.4-.37-.85-.38-1.32v-4.81h.89s0,0,0,.07v1.99h2.08s0,0,0,.07v.82s-.03,0-.08,0h-2v1.91c0,.39.1.72.3.98s.41.46.64.59c.11.07.28.12.5.14.22.02.4.03.55.02h1.48Z"/>
        <path class="cls-54" d="M92.51,8.78c.48-.02.9.02,1.26.13.36.11.65.27.88.47.23.2.41.41.54.64.13.23.22.44.28.63.06.2.09.37.11.51.01.14.02.2.02.18v.32c0,.23-.06.5-.17.8-.11.3-.29.58-.53.85-.24.27-.55.49-.93.66-.38.17-.82.24-1.32.21h-1.01c-.5.03-.94-.04-1.32-.21-.38-.17-.69-.39-.93-.66-.24-.27-.42-.56-.53-.85-.11-.3-.17-.56-.17-.8v-.32s0-.04.02-.18c.01-.14.05-.31.11-.51.06-.2.15-.41.28-.63.13-.22.31-.44.54-.64.23-.2.52-.35.88-.47.36-.11.78-.16,1.27-.13h.73ZM92.86,13.28c.67,0,1.14-.16,1.41-.49.27-.32.43-.67.47-1.04v-.15s.01-.25.01-.25v-.17c-.05-.35-.21-.69-.48-1.02-.27-.33-.74-.49-1.42-.49h-1.43c-.67,0-1.15.16-1.42.49-.27.33-.42.67-.46,1.02l-.02.17v.24l.02.17c.04.37.19.72.47,1.04.27.32.74.49,1.41.49h1.43Z"/>
        <path class="cls-54" d="M102.32,9.59h-3.08c-.15,0-.33,0-.52,0-.19,0-.37.03-.54.08-.17.05-.31.13-.44.26-.12.12-.21.26-.26.43-.05.17-.08.31-.08.43s0,.34,0,.65v2.68s-.02.07-.07.07h-.76s-.07-.02-.07-.07v-2.76c0-.11,0-.31,0-.59,0-.28.06-.56.17-.84.11-.28.3-.53.58-.75.18-.14.37-.24.57-.31.2-.07.4-.12.58-.15.19-.03.36-.04.52-.04h3.39v.91Z"/>
        <path class="cls-54" d="M104.21,6.13v.96h-.96v-.96h.96ZM104.21,8.35v5.83h-.96v-5.83h.96Z"/>
        <path class="cls-54" d="M111.81,10.06c.24.42.36.89.36,1.38v2.76h-.91v-2.76c0-.25-.04-.5-.13-.74s-.21-.45-.36-.61c-.15-.16-.35-.29-.58-.37s-.47-.13-.71-.13h-1.71c-.46,0-1.05,0-1.79,0,0-.21,0-.01,0,.6,0,.61,0,1.01,0,1.2v2.82h-.91v-5.51h4.4c.48,0,.93.12,1.34.37.41.25.74.58.98,1.01Z"/>
        <path class="cls-54" d="M119.07,9.06c.24.13.43.32.58.56.15.24.22.52.22.84v2.92c-.02.47-.13.9-.33,1.3-.2.4-.47.72-.82.97-.35.25-.76.39-1.22.41h-4.43v-.87h4.31c.28,0,.55-.08.83-.25s.48-.41.62-.73l.03-.07h-3.28c-.54,0-1-.13-1.4-.38s-.71-.58-.92-.98c-.21-.4-.32-.8-.32-1.21v-.19c0-.39.11-.78.33-1.17.22-.39.53-.72.92-.97s.84-.38,1.33-.38h2.82c.25,0,.5.07.73.2ZM119.01,13.28v-2.92c0-.16-.06-.3-.17-.44-.11-.13-.25-.2-.43-.2h-2.73c-.46,0-.83.08-1.11.25-.28.17-.48.38-.59.63-.11.25-.17.51-.17.79v.21c0,.36.08.66.24.91.16.25.37.44.62.57.25.13.52.19.79.19h3.55Z"/>
        <path class="cls-54" d="M122.8,6.14h8.06v1.1h-6.96v2.2h6.96v1.1h-6.96v2.56h6.96v1.1h-8.06V6.14Z"/>
        <path class="cls-54" d="M132.04,13.17c.35-.28.74-.55,1.18-.81.43-.26,1.01-.58,1.73-.95-.67-.33-1.22-.62-1.65-.88-.43-.26-.85-.55-1.26-.86v-1.07c.92.67,1.6,1.15,2.05,1.43.07.05.13.08.16.1.24.15.49.29.75.44.26.14.49.22.71.22.18,0,.37-.05.57-.15.2-.1.5-.27.9-.51.09-.06.15-.09.16-.1.44-.28,1.12-.76,2.05-1.45v1.08c-.41.32-.83.61-1.27.86-.43.26-.98.55-1.64.88.72.37,1.3.69,1.73.95.43.26.82.53,1.18.81v1.07c-.43-.33-.8-.6-1.11-.82-.31-.21-.63-.43-.96-.64-.06-.04-.11-.06-.13-.08-.28-.18-.55-.34-.8-.47-.25-.13-.47-.2-.67-.2-.21,0-.44.08-.68.2-.24.13-.5.28-.8.46-.02.01-.07.04-.13.08-.34.21-.66.42-.97.64-.31.22-.67.49-1.09.81v-1.07Z"/>
        <path class="cls-54" d="M140.94,16.17h-.87c0,.05,0,0,0-.16v-5.12c0-.33.13-.66.38-.98.25-.32.57-.58.94-.78.37-.2.72-.3,1.03-.3h1.64c.51-.02.95.05,1.33.21.38.16.69.38.93.65.24.27.42.55.53.84.12.29.17.55.17.79v.31s0,.04-.02.18c-.02.14-.05.31-.11.5-.06.2-.15.4-.28.62-.13.22-.31.43-.54.62-.23.2-.53.35-.89.46-.36.11-.78.15-1.27.13h-2.98v2.02ZM140.94,13.28h3.34c.54,0,.96-.11,1.24-.33.28-.22.46-.45.54-.7.08-.24.12-.44.12-.59v-.26c0-.18-.04-.4-.13-.65-.09-.25-.27-.48-.55-.7-.28-.21-.69-.32-1.22-.32h-1.81c-.23,0-.47.07-.71.21-.24.14-.44.32-.59.54-.15.22-.23.43-.23.63v2.17Z"/>
        <path class="cls-54" d="M151.57,8.78c.48-.02.9.02,1.26.13.36.11.65.27.88.47.23.2.41.41.54.64.13.23.22.44.28.63.06.2.09.37.11.51.01.14.02.2.02.18v.32c0,.23-.06.5-.17.8-.11.3-.29.58-.53.85-.24.27-.55.49-.93.66-.38.17-.82.24-1.32.21h-1.01c-.5.03-.94-.04-1.32-.21-.38-.17-.69-.39-.93-.66-.24-.27-.42-.56-.53-.85-.11-.3-.17-.56-.17-.8v-.32s0-.04.02-.18c.01-.14.05-.31.11-.51.06-.2.15-.41.28-.63.13-.22.31-.44.54-.64.23-.2.52-.35.88-.47.36-.11.78-.16,1.27-.13h.73ZM151.92,13.28c.67,0,1.14-.16,1.41-.49.27-.32.43-.67.47-1.04v-.15s.01-.25.01-.25v-.17c-.05-.35-.21-.69-.48-1.02-.27-.33-.74-.49-1.42-.49h-1.43c-.67,0-1.15.16-1.42.49-.27.33-.42.67-.46,1.02l-.02.17v.24l.02.17c.04.37.19.72.47,1.04.27.32.74.49,1.41.49h1.43Z"/>
        <path class="cls-54" d="M161.38,9.59h-3.08c-.15,0-.33,0-.52,0-.19,0-.37.03-.54.08-.17.05-.31.13-.44.26-.12.12-.21.26-.26.43-.05.17-.08.31-.08.43,0,.12,0,.34,0,.65v2.68s-.02.07-.07.07h-.76s-.07-.02-.07-.07v-2.76c0-.11,0-.31,0-.59,0-.28.06-.56.17-.84.11-.28.3-.53.58-.75.18-.14.37-.24.57-.31.2-.07.4-.12.58-.15.19-.03.36-.04.52-.04h3.39v.91Z"/>
        <path class="cls-54" d="M166.69,13.28v.88h-1.66c-.48,0-.93-.12-1.34-.35-.41-.24-.74-.56-.98-.97-.24-.4-.37-.85-.38-1.32v-4.81h.89s0,0,0,.07v1.99h2.08s0,0,0,.07v.82s-.03,0-.08,0h-2v1.91c0,.39.1.72.3.98.2.26.41.46.64.59.11.07.28.12.5.14.22.02.4.03.55.02h1.48Z"/>
        <path class="cls-54" d="M167.85,6.15h1.1v8.03h-1.1V6.15Z"/>
        <path class="cls-54" d="M180.39,10.3c.1.21.17.4.21.57.04.17.07.39.07.64v2.68h-.88v-2.77c0-.15-.02-.3-.07-.44-.05-.14-.1-.27-.16-.37-.06-.1-.15-.22-.26-.36-.12-.14-.27-.25-.44-.33-.17-.08-.34-.14-.51-.17-.17-.03-.38-.05-.64-.05h-1.97c0,.59,0,1.17,0,1.76v2.73h-.88v-2.76c0-.17-.02-.32-.06-.46-.04-.14-.09-.26-.14-.36-.05-.1-.13-.2-.23-.32-.14-.15-.3-.27-.48-.35-.18-.09-.35-.15-.51-.18-.16-.03-.36-.05-.61-.05-1.01,0-1.68,0-2.02,0,0,.35,0,1.47,0,3.36v1.12h-.88v-5.35h7.78c.28-.01.54,0,.77.05.24.05.45.12.63.21s.33.17.45.26c.12.09.25.21.39.35.17.19.3.38.4.59Z"/>
        <path class="cls-54" d="M182.31,16.17h-.87c0,.05,0,0,0-.16v-5.12c0-.33.13-.66.38-.98.25-.32.57-.58.94-.78.37-.2.72-.3,1.03-.3h1.64c.51-.02.95.05,1.33.21.38.16.69.38.93.65.24.27.42.55.53.84.12.29.17.55.17.79v.31s0,.04-.02.18c-.02.14-.05.31-.11.5-.06.2-.15.4-.28.62-.13.22-.31.43-.54.62-.23.2-.53.35-.89.46-.36.11-.78.15-1.27.13h-2.98v2.02ZM182.31,13.28h3.34c.54,0,.96-.11,1.24-.33.28-.22.46-.45.54-.7.08-.24.12-.44.12-.59v-.26c0-.18-.04-.4-.13-.65-.09-.25-.27-.48-.55-.7-.28-.21-.69-.32-1.22-.32h-1.81c-.23,0-.47.07-.71.21-.24.14-.44.32-.59.54-.15.22-.23.43-.23.63v2.17Z"/>
        <path class="cls-54" d="M192.94,8.78c.48-.02.9.02,1.26.13.36.11.65.27.88.47.23.2.41.41.54.64.13.23.22.44.28.63.06.2.09.37.11.51.01.14.02.2.02.18v.32c0,.23-.06.5-.17.8-.11.3-.29.58-.53.85-.24.27-.55.49-.93.66-.38.17-.82.24-1.32.21h-1.01c-.5.03-.94-.04-1.32-.21-.38-.17-.69-.39-.93-.66-.24-.27-.42-.56-.53-.85-.11-.3-.17-.56-.17-.8v-.32s0-.04.02-.18c.01-.14.05-.31.11-.51.06-.2.15-.41.28-.63.13-.22.31-.44.54-.64.23-.2.52-.35.88-.47.36-.11.78-.16,1.27-.13h.73ZM193.29,13.28c.67,0,1.14-.16,1.41-.49.27-.32.43-.67.47-1.04v-.15s.01-.25.01-.25v-.17c-.05-.35-.21-.69-.48-1.02-.27-.33-.74-.49-1.42-.49h-1.43c-.67,0-1.15.16-1.42.49-.27.33-.42.67-.46,1.02l-.02.17v.24l.02.17c.04.37.19.72.47,1.04.27.32.74.49,1.41.49h1.43Z"/>
        <path class="cls-54" d="M202.75,9.59h-3.08c-.15,0-.33,0-.52,0-.19,0-.37.03-.54.08-.17.05-.31.13-.44.26-.12.12-.21.26-.26.43-.05.17-.08.31-.08.43,0,.12,0,.34,0,.65v2.68s-.02.07-.07.07h-.76s-.07-.02-.07-.07v-2.76c0-.11,0-.31,0-.59,0-.28.06-.56.17-.84.11-.28.3-.53.58-.75.18-.14.37-.24.57-.31.2-.07.4-.12.58-.15.19-.03.36-.04.52-.04h3.39v.91Z"/>
        <path class="cls-54" d="M208.06,13.28v.88h-1.66c-.48,0-.93-.12-1.34-.35-.41-.24-.74-.56-.98-.97-.24-.4-.37-.85-.38-1.32v-4.81h.89s0,0,0,.07v1.99h2.08s0,0,0,.07v.82s-.03,0-.08,0h-2v1.91c0,.39.1.72.3.98.2.26.41.46.64.59.11.07.28.12.5.14.22.02.4.03.55.02h1.48Z"/>
      </g>
    </g>
    <g>
      <path class="cls-54" d="M173.4,67.79c0,6.44-5.22,11.66-11.66,11.66s-11.66-5.22-11.66-11.66,5.22-11.66,11.66-11.66,11.66,5.22,11.66,11.66"/>
      <path class="cls-16" d="M172.81,67.79c0,6.12-4.96,11.07-11.07,11.07s-11.07-4.96-11.07-11.07,4.96-11.07,11.07-11.07,11.07,4.96,11.07,11.07"/>
      <path class="cls-54" d="M208.06,67.79c0,6.44-5.22,11.66-11.66,11.66s-11.66-5.22-11.66-11.66,5.22-11.66,11.66-11.66,11.66,5.22,11.66,11.66"/>
      <path class="cls-16" d="M207.47,67.79c0,6.12-4.96,11.07-11.07,11.07s-11.07-4.96-11.07-11.07,4.96-11.07,11.07-11.07,11.07,4.96,11.07,11.07"/>
      <path class="cls-54" d="M208.06,101.1c0,6.44-5.22,11.66-11.66,11.66s-11.66-5.22-11.66-11.66,5.22-11.66,11.66-11.66,11.66,5.22,11.66,11.66"/>
      <path class="cls-16" d="M207.47,101.1c0,6.12-4.96,11.07-11.07,11.07s-11.07-4.96-11.07-11.07,4.96-11.07,11.07-11.07,11.07,4.96,11.07,11.07"/>
      <path class="cls-54" d="M173.4,101.1c0,6.44-5.22,11.66-11.66,11.66s-11.66-5.22-11.66-11.66,5.22-11.66,11.66-11.66,11.66,5.22,11.66,11.66"/>
      <path class="cls-16" d="M172.81,101.1c0,6.12-4.96,11.07-11.07,11.07s-11.07-4.96-11.07-11.07,4.96-11.07,11.07-11.07,11.07,4.96,11.07,11.07"/>
      <polygon class="cls-22" points="200.14 106.48 200.14 98.19 201.2 98.19 201.2 96.5 199.78 96.5 196.35 94.18 192.92 96.5 191.5 96.5 191.5 98.19 192.56 98.19 192.56 106.48 190.91 106.48 190.91 108.02 201.89 108.02 201.89 106.48 200.14 106.48"/>
      <rect class="cls-52" x="193.46" y="99.71" width="1.57" height="5.89"/>
      <rect class="cls-52" x="195.59" y="99.71" width="1.57" height="5.89"/>
      <rect class="cls-52" x="197.77" y="99.71" width="1.57" height="5.89"/>
      <path class="cls-16" d="M197.48,96.41c0,.6-.48,1.08-1.08,1.08s-1.08-.48-1.08-1.08.48-1.08,1.08-1.08,1.08.48,1.08,1.08"/>
      <path class="cls-22" d="M197.33,96.41c0,.51-.42.93-.93.93s-.93-.42-.93-.93.42-.93.93-.93.93.42.93.93"/>
      <polygon class="cls-32" points="203.21 70.08 196.33 68.47 196.33 63.63 203.21 64.85 203.21 70.08"/>
      <polygon class="cls-32" points="196.33 68.47 189.69 70.12 189.69 64.53 196.33 63.63 196.33 68.47"/>
      <polygon class="cls-47" points="202.21 68.25 196.3 66.86 196.3 62.71 202.21 63.75 202.21 68.25"/>
      <polygon class="cls-43" points="196.3 66.86 190.59 68.28 190.59 63.48 196.3 62.71 196.3 66.86"/>
      <polygon class="cls-42" points="202.21 68.25 196.91 70.65 196.91 65.24 202.21 63.75 202.21 68.25"/>
      <polygon class="cls-25" points="196.91 70.65 190.59 68.33 190.59 63.52 196.91 65.24 196.91 70.65"/>
      <polygon class="cls-12" points="190.59 63.48 196.3 62.71 202.21 63.75 196.91 65.24 190.59 63.48"/>
      <polygon class="cls-35" points="193.32 63.11 199 64.65 200.01 64.37 194.65 62.93 193.32 63.11"/>
      <polygon class="cls-40" points="199 64.66 199 69.7 200.01 69.24 200.01 64.37 199 64.66"/>
      <polygon class="cls-17" points="203.21 70.08 197.04 72.87 197.04 66.58 203.21 64.85 203.21 70.08"/>
      <polygon class="cls-12" points="197.04 66.58 199.29 68.84 204.75 66.38 203.21 64.85 197.04 66.58"/>
      <polygon class="cls-21" points="197.04 72.87 189.69 70.18 189.69 64.57 197.04 66.58 197.04 72.87"/>
      <polygon class="cls-12" points="189.7 64.54 188.05 66.18 194.83 68.81 197.04 66.58 189.7 64.54"/>
      <polygon class="cls-47" points="168.52 69.62 161.62 68 161.62 63.16 168.52 64.38 168.52 69.62"/>
      <polygon class="cls-43" points="161.62 68 154.96 69.66 154.96 64.06 161.62 63.16 161.62 68"/>
      <polygon class="cls-17" points="168.52 69.62 162.33 72.42 162.33 66.11 168.52 64.38 168.52 69.62"/>
      <polygon class="cls-21" points="162.33 72.42 154.96 69.72 154.96 64.1 162.33 66.11 162.33 72.42"/>
      <polygon class="cls-25" points="154.96 64.06 161.62 63.16 168.52 64.38 162.33 66.11 154.96 64.06"/>
      <polygon class="cls-35" points="158.15 63.63 164.77 65.43 165.96 65.1 159.7 63.42 158.15 63.63"/>
      <polygon class="cls-40" points="164.77 65.43 164.77 71.32 165.96 70.78 165.96 65.1 164.77 65.43"/>
      <g class="cls-53">
        <rect class="cls-9" x="189.23" y="81.63" width="13.25" height="10.82" transform="translate(13.65 199.9) rotate(-55.73)"/>
      </g>
      <g class="cls-26">
        <rect class="cls-37" x="175.74" y="62.78" width="12.63" height="11.74" transform="translate(-.23 136.67) rotate(-41.12)"/>
      </g>
      <g class="cls-49">
        <rect class="cls-18" x="156.12" y="74.93" width="13.04" height="10.97" transform="translate(2.22 165.17) rotate(-54.16)"/>
      </g>
      <g class="cls-33">
        <rect class="cls-57" x="172.59" y="93.97" width="5.37" height="13.62" transform="translate(55.45 263.62) rotate(-83.55)"/>
      </g>
      <g class="cls-8">
        <rect class="cls-45" x="193.2" y="74.39" width="14.24" height="19.38" transform="translate(-15.77 106.54) rotate(-28.7)"/>
      </g>
      <g class="cls-29">
        <rect class="cls-44" x="171.09" y="95.6" width="16.82" height="18.1" transform="translate(-17.38 171.04) rotate(-48.88)"/>
      </g>
      <g class="cls-3">
        <rect class="cls-5" x="150.72" y="74.4" width="14.29" height="19.47" transform="translate(-21.01 86.16) rotate(-28.7)"/>
      </g>
      <g class="cls-4">
        <rect class="cls-27" x="170.99" y="56.52" width="16.79" height="18.07" transform="translate(12.02 157.57) rotate(-48.88)"/>
      </g>
      <path class="cls-22" d="M167.65,97.55v-1.6s-5.77-1.78-5.77-1.78c-.1-.03-.21-.03-.31,0l-5.78,1.78v.97s0,.64,0,.64h1.29v8.86h-1.88v1.65h13.04v-1.65h-1.9v-8.86h1.29Z"/>
      <rect class="cls-16" x="158.08" y="99.66" width="1.96" height="5.08"/>
      <rect class="cls-16" x="160.73" y="99.66" width="1.96" height="5.08"/>
      <rect class="cls-16" x="163.45" y="99.66" width="1.96" height="5.08"/>
      <path class="cls-16" d="M162.91,96.07c0,.65-.52,1.17-1.17,1.17s-1.17-.52-1.17-1.17.52-1.17,1.17-1.17,1.17.52,1.17,1.17"/>
      <path class="cls-22" d="M162.75,96.07c0,.56-.45,1.01-1.01,1.01s-1.01-.45-1.01-1.01.45-1.01,1.01-1.01,1.01.45,1.01,1.01"/>
    </g>
    <g>
      <path class="cls-54" d="M187.21,135.3c0,3.87-3.14,7.01-7.01,7.01s-7.01-3.14-7.01-7.01,3.14-7.01,7.01-7.01,7.01,3.14,7.01,7.01"/>
      <path class="cls-16" d="M186.86,135.3c0,3.68-2.98,6.66-6.66,6.66s-6.66-2.98-6.66-6.66,2.98-6.66,6.66-6.66,6.66,2.98,6.66,6.66"/>
      <path class="cls-54" d="M208.06,135.3c0,3.87-3.14,7.01-7.01,7.01s-7.01-3.14-7.01-7.01,3.14-7.01,7.01-7.01,7.01,3.14,7.01,7.01"/>
      <path class="cls-16" d="M207.71,135.3c0,3.68-2.98,6.66-6.66,6.66s-6.66-2.98-6.66-6.66,2.98-6.66,6.66-6.66,6.66,2.98,6.66,6.66"/>
      <path class="cls-54" d="M208.06,155.34c0,3.87-3.14,7.01-7.01,7.01s-7.01-3.14-7.01-7.01,3.14-7.01,7.01-7.01,7.01,3.14,7.01,7.01"/>
      <path class="cls-16" d="M207.71,155.34c0,3.68-2.98,6.66-6.66,6.66s-6.66-2.98-6.66-6.66,2.98-6.66,6.66-6.66,6.66,2.98,6.66,6.66"/>
      <path class="cls-54" d="M187.21,155.34c0,3.87-3.14,7.01-7.01,7.01s-7.01-3.14-7.01-7.01,3.14-7.01,7.01-7.01,7.01,3.14,7.01,7.01"/>
      <path class="cls-16" d="M186.86,155.34c0,3.68-2.98,6.66-6.66,6.66s-6.66-2.98-6.66-6.66,2.98-6.66,6.66-6.66,6.66,2.98,6.66,6.66"/>
      <polygon class="cls-22" points="203.3 158.57 203.3 153.59 203.93 153.59 203.93 152.57 203.08 152.57 201.02 151.18 198.96 152.57 198.1 152.57 198.1 153.59 198.74 153.59 198.74 158.57 197.74 158.57 197.74 159.5 204.35 159.5 204.35 158.57 203.3 158.57"/>
      <rect class="cls-52" x="199.28" y="154.5" width=".94" height="3.54"/>
      <rect class="cls-52" x="200.56" y="154.5" width=".94" height="3.54"/>
      <rect class="cls-52" x="201.87" y="154.5" width=".94" height="3.54"/>
      <path class="cls-16" d="M201.7,152.52c0,.36-.29.65-.65.65s-.65-.29-.65-.65.29-.65.65-.65.65.29.65.65"/>
      <path class="cls-22" d="M201.61,152.52c0,.31-.25.56-.56.56s-.56-.25-.56-.56.25-.56.56-.56.56.25.56.56"/>
      <polygon class="cls-32" points="205.14 136.68 201.01 135.71 201.01 132.8 205.14 133.54 205.14 136.68"/>
      <polygon class="cls-32" points="201.01 135.71 197.01 136.7 197.01 133.35 201.01 132.8 201.01 135.71"/>
      <polygon class="cls-47" points="204.54 135.58 200.99 134.75 200.99 132.25 204.54 132.88 204.54 135.58"/>
      <polygon class="cls-43" points="200.99 134.75 197.55 135.6 197.55 132.72 200.99 132.25 200.99 134.75"/>
      <polygon class="cls-42" points="204.54 135.58 201.35 137.02 201.35 133.77 204.54 132.88 204.54 135.58"/>
      <polygon class="cls-25" points="201.35 137.02 197.55 135.63 197.55 132.74 201.35 133.77 201.35 137.02"/>
      <polygon class="cls-12" points="197.55 132.72 200.99 132.25 204.54 132.88 201.35 133.77 197.55 132.72"/>
      <polygon class="cls-35" points="199.2 132.49 202.61 133.42 203.22 133.25 200 132.38 199.2 132.49"/>
      <polygon class="cls-40" points="202.61 133.42 202.61 136.45 203.22 136.18 203.22 133.25 202.61 133.42"/>
      <polygon class="cls-17" points="205.14 136.68 201.43 138.36 201.43 134.58 205.14 133.54 205.14 136.68"/>
      <polygon class="cls-12" points="201.43 134.58 202.78 135.94 206.07 134.46 205.15 133.54 201.43 134.58"/>
      <polygon class="cls-21" points="201.43 138.36 197.01 136.74 197.01 133.37 201.43 134.58 201.43 138.36"/>
      <polygon class="cls-12" points="197.01 133.35 196.03 134.33 200.1 135.92 201.43 134.58 197.01 133.35"/>
      <polygon class="cls-47" points="184.28 136.41 180.13 135.43 180.13 132.52 184.28 133.25 184.28 136.41"/>
      <polygon class="cls-43" points="180.13 135.43 176.13 136.43 176.13 133.06 180.13 132.52 180.13 135.43"/>
      <polygon class="cls-17" points="184.28 136.41 180.56 138.09 180.56 134.3 184.28 133.25 184.28 136.41"/>
      <polygon class="cls-21" points="180.56 138.09 176.13 136.47 176.13 133.09 180.56 134.3 180.56 138.09"/>
      <polygon class="cls-25" points="176.13 133.06 180.13 132.52 184.28 133.25 180.56 134.3 176.13 133.06"/>
      <polygon class="cls-35" points="178.05 132.8 182.03 133.88 182.74 133.68 178.98 132.67 178.05 132.8"/>
      <polygon class="cls-40" points="182.03 133.88 182.03 137.42 182.74 137.1 182.74 133.68 182.03 133.88"/>
      <g class="cls-31">
        <rect class="cls-24" x="196.73" y="143.63" width="7.97" height="6.5" transform="translate(-33.68 230.06) rotate(-55.73)"/>
      </g>
      <g class="cls-14">
        <rect class="cls-34" x="188.62" y="132.29" width="7.6" height="7.06" transform="translate(-41.86 160.06) rotate(-41.12)"/>
      </g>
      <g class="cls-15">
        <rect class="cls-10" x="176.82" y="139.6" width="7.84" height="6.6" transform="translate(-40.93 205.75) rotate(-54.16)"/>
      </g>
      <g class="cls-20">
        <rect class="cls-48" x="186.73" y="151.05" width="3.23" height="8.19" transform="translate(13.03 324.86) rotate(-83.55)"/>
      </g>
      <g class="cls-36">
        <rect class="cls-55" x="199.12" y="139.27" width="8.56" height="11.66" transform="translate(-44.69 115.52) rotate(-28.7)"/>
      </g>
      <g class="cls-51">
        <rect class="cls-13" x="185.83" y="152.03" width="10.12" height="10.88" transform="translate(-53.28 197.7) rotate(-48.88)"/>
      </g>
      <g class="cls-41">
        <rect class="cls-30" x="173.58" y="139.28" width="8.59" height="11.71" transform="translate(-47.85 103.26) rotate(-28.7)"/>
      </g>
      <g class="cls-6">
        <rect class="cls-11" x="185.77" y="128.53" width="10.1" height="10.87" transform="translate(-35.59 189.6) rotate(-48.88)"/>
      </g>
      <path class="cls-22" d="M183.76,153.2v-.96s-3.47-1.07-3.47-1.07c-.06-.02-.13-.02-.19,0l-3.47,1.07v.58s0,.38,0,.38h.78v5.33h-1.13v.99h7.84v-.99h-1.14v-5.33h.78Z"/>
      <rect class="cls-16" x="178" y="154.47" width="1.18" height="3.06"/>
      <rect class="cls-16" x="179.6" y="154.47" width="1.18" height="3.06"/>
      <rect class="cls-16" x="181.23" y="154.47" width="1.18" height="3.06"/>
      <path class="cls-16" d="M180.91,152.31c0,.39-.32.7-.7.7s-.7-.32-.7-.7.32-.7.7-.7.7.32.7.7"/>
      <path class="cls-22" d="M180.81,152.31c0,.34-.27.61-.61.61s-.61-.27-.61-.61.27-.61.61-.61.61.27.61.61"/>
    </g>
  </g>
</svg>