<?xml version="1.0" encoding="UTF-8"?>
<svg id="Capa_2" xmlns="http://www.w3.org/2000/svg" viewBox="0 0 228.49 197.29">
  <defs>
    <style>
      .cls-1 {
        fill: #f9cf16;
      }

      .cls-2 {
        fill: #cd142a;
      }

      .cls-3 {
        fill: #646365;
      }

      .cls-4 {
        fill: #fff;
      }

      .cls-5 {
        fill: #625f60;
      }

      .cls-6 {
        fill: #505050;
      }

      .cls-7 {
        fill: #d00e4d;
      }

      .cls-8 {
        fill: #d00e4c;
      }

      .cls-9 {
        fill: #d22e1f;
      }

      .cls-10 {
        fill: #9d9a9c;
      }

      .cls-11 {
        fill: #d20f48;
      }

      .cls-12 {
        fill: #1d458c;
      }

      .cls-13 {
        fill: #dd4c75;
      }

      .cls-14 {
        fill: #e1222c;
      }

      .cls-15 {
        fill: #828384;
      }

      .cls-16 {
        fill: #1b4180;
      }
    </style>
  </defs>
  <g id="Capa_1-2" data-name="Capa_1">
    <g>
      <g>
        <path class="cls-5" d="M157.02,186.83h1.14v8.37h-1.14v-8.37Z"/>
        <path class="cls-5" d="M162.55,190.64c-.25.09-.46.21-.62.38s-.29.37-.38.63-.13.51-.13.76.04.5.13.76.21.46.38.63.37.29.62.38.5.13.75.13h4.61v.93h-4.61c-.51,0-.98-.13-1.41-.38-.43-.25-.77-.59-1.03-1.03-.25-.43-.38-.9-.38-1.41s.12-.98.38-1.41c.25-.43.6-.78,1.03-1.03.43-.25.9-.38,1.41-.38h4.61v.93h-4.61c-.25,0-.5.04-.75.13Z"/>
        <path class="cls-5" d="M174.04,189.57c.5-.02.94.02,1.32.14s.68.28.92.49.42.43.56.66.23.45.29.66.1.38.11.53.02.21.02.19v.33c0,.24-.06.52-.18.83s-.3.61-.55.89-.57.51-.97.69-.85.25-1.38.22h-1.05c-.52.03-.98-.05-1.38-.22s-.72-.4-.97-.69-.43-.58-.55-.89-.18-.59-.18-.83v-.33s0-.04.02-.19.05-.33.11-.53.16-.42.29-.66.32-.46.56-.66.55-.37.92-.49.81-.16,1.32-.14h.76ZM174.4,194.26c.7,0,1.19-.17,1.47-.51s.45-.7.49-1.09v-.16s.01-.26.01-.26v-.18c-.05-.37-.22-.72-.5-1.06s-.77-.51-1.48-.51h-1.49c-.7,0-1.2.17-1.48.51s-.44.7-.48,1.06l-.02.18v.25l.02.18c.04.39.2.75.49,1.09s.78.51,1.47.51h1.49Z"/>
        <path class="cls-5" d="M186.37,190.9c.25.44.38.92.38,1.44v2.87h-.94v-2.87c0-.26-.04-.52-.13-.77s-.21-.47-.38-.64c-.16-.17-.36-.3-.61-.39s-.49-.13-.74-.13h-1.78c-.48,0-1.1,0-1.86,0,0-.22,0-.01,0,.62s0,1.06,0,1.25v2.94h-.94v-5.74h4.58c.5,0,.97.13,1.4.38.43.26.77.61,1.03,1.05Z"/>
        <path class="cls-5" d="M192.9,189.57c.5-.02.94.02,1.32.14s.68.28.92.49.42.43.56.66.23.45.29.66.1.38.11.53.02.21.02.19v.33c0,.24-.06.52-.18.83s-.3.61-.55.89-.57.51-.97.69-.85.25-1.38.22h-1.05c-.52.03-.98-.05-1.38-.22s-.72-.4-.97-.69-.43-.58-.55-.89-.18-.59-.18-.83v-.33s0-.04.02-.19.05-.33.11-.53.16-.42.29-.66.32-.46.56-.66.55-.37.92-.49.81-.16,1.32-.14h.76ZM193.26,194.26c.7,0,1.19-.17,1.47-.51s.45-.7.49-1.09v-.16s.01-.26.01-.26v-.18c-.05-.37-.22-.72-.5-1.06s-.77-.51-1.48-.51h-1.49c-.7,0-1.2.17-1.48.51s-.44.7-.48,1.06l-.02.18v.25l.02.18c.04.39.2.75.49,1.09s.78.51,1.47.51h1.49Z"/>
        <path class="cls-5" d="M208.32,190.89c.23.4.35.9.35,1.49,0-.09,0-.07,0,.06h0v.66c0,.55-.11.98-.32,1.28s-.46.5-.76.61-.61.16-.93.17-.57.02-.73.02h-3.01c-.47,0-.87-.17-1.2-.52s-.5-.76-.5-1.24.17-.9.5-1.25c.33-.35.73-.52,1.2-.52h4.61c0-.07-.02-.13-.04-.19s-.04-.11-.05-.13c-.09-.18-.21-.34-.38-.48s-.34-.26-.54-.34c-.2-.08-.41-.12-.62-.12h-4.44v-.9c0-.08,0-.1,0-.08h4.44c.51,0,.99.13,1.43.4.21.12.39.27.55.45s.3.38.44.62ZM207.65,193.23c0-.08,0-.28-.01-.59h-4.83c-.17,0-.32.08-.45.23-.12.16-.18.34-.18.56s.06.4.18.56c.12.15.27.23.45.23h3.13c.36,0,.64,0,.85-.02s.38-.07.5-.16c.13-.09.22-.21.27-.34s.08-.29.09-.47Z"/>
        <path class="cls-5" d="M211.74,197.27h-.91c0,.05,0,0,0-.16v-5.33c0-.35.13-.69.4-1.02s.59-.6.98-.81.75-.31,1.08-.31h1.71c.53-.02.99.05,1.39.22s.72.39.97.67.44.57.56.88.18.58.18.82v.32s0,.04-.02.18-.05.32-.11.52-.16.42-.3.65-.33.45-.57.65-.55.36-.92.48-.82.16-1.32.14h-3.11v2.1ZM211.74,194.25h3.47c.57,0,1-.12,1.29-.35s.48-.47.57-.73.13-.46.13-.62v-.28c0-.19-.04-.42-.13-.68s-.28-.5-.57-.73-.72-.33-1.27-.33h-1.88c-.24,0-.49.07-.74.22s-.46.34-.62.56-.24.45-.24.66v2.26Z"/>
        <path class="cls-5" d="M221.16,197.27h-.91c0,.05,0,0,0-.16v-5.33c0-.35.13-.69.4-1.02s.59-.6.98-.81.75-.31,1.08-.31h1.71c.53-.02.99.05,1.39.22s.72.39.97.67.44.57.56.88.18.58.18.82v.32s0,.04-.02.18-.05.32-.11.52-.16.42-.3.65-.33.45-.57.65-.55.36-.92.48-.82.16-1.32.14h-3.11v2.1ZM221.16,194.25h3.47c.57,0,1-.12,1.29-.35s.48-.47.57-.73.13-.46.13-.62v-.28c0-.19-.04-.42-.13-.68s-.28-.5-.57-.73-.72-.33-1.27-.33h-1.88c-.24,0-.49.07-.74.22s-.46.34-.62.56-.24.45-.24.66v2.26Z"/>
      </g>
      <g>
        <path class="cls-8" d="M40.5,24.81c.14.02.36.08.68.19.31.11.68.32,1.09.63.41.31.77.78,1.08,1.4.31.62.46,1.41.46,2.36s-.18,1.67-.54,2.27c-.36.6-.79,1.06-1.29,1.35-.5.29-.97.47-1.42.53h-7.62v-8.73h7.57ZM40.44,32.37c.23-.04.52-.14.84-.3.32-.16.63-.46.92-.9.29-.43.43-1.03.43-1.78,0-.88-.15-1.57-.45-2.07-.3-.5-.62-.84-.95-1.01-.33-.18-.61-.28-.84-.32h-6.28v6.38h6.33Z"/>
        <rect class="cls-8" x="44.63" y="24.82" width="1.19" height="8.7"/>
        <path class="cls-8" d="M52.3,27.2c.77-.01,1.46-.13,2.06-.34.61-.22,1.08-.43,1.4-.65.33-.22.55-.38.66-.49l.96-.91v8.75h-1.14v-6.32c-.5.3-1.08.55-1.75.76-.66.21-1.39.32-2.18.33-.83,0-1.61-.1-2.33-.32-.72-.22-1.36-.49-1.92-.82v6.36h-1.14v-8.75l1,.87c.14.13.39.3.75.53.36.23.86.45,1.51.68.64.23,1.35.33,2.11.32"/>
        <rect class="cls-7" x="59.08" y="28.51" width="2.29" height="1.16"/>
        <g>
          <path class="cls-15" d="M62.78,24.75h10v1.2h-8.8v2.4h6.66v1.2h-6.66v4h-1.2v-8.8Z"/>
          <path class="cls-15" d="M81.13,29.03c.24.42.36.94.36,1.56,0-.1,0-.08,0,.06h0v.69c0,.58-.12,1.03-.33,1.34-.22.31-.48.53-.79.63s-.63.17-.97.17c-.34,0-.6.02-.76.02h-3.14c-.49,0-.91-.18-1.26-.54-.35-.36-.52-.79-.52-1.3s.17-.95.52-1.31c.35-.36.77-.55,1.26-.55h4.82c0-.07-.02-.14-.04-.2s-.04-.11-.05-.13c-.09-.18-.22-.35-.39-.5s-.36-.27-.56-.36c-.21-.08-.43-.12-.65-.12h-4.64v-.94c0-.08,0-.11,0-.08h4.64c.54,0,1.03.14,1.5.42.22.13.41.29.57.47.16.18.31.4.46.65ZM80.43,31.47c0-.09,0-.29-.01-.62h-5.06c-.18,0-.33.08-.47.24-.13.16-.19.36-.19.58s.06.42.19.58c.13.16.29.24.47.24h3.28c.37,0,.67,0,.89-.02s.39-.07.52-.16c.14-.1.23-.22.29-.35.05-.14.08-.3.09-.49Z"/>
          <path class="cls-15" d="M84.29,28.77c-.26.09-.48.22-.65.4s-.3.39-.4.66c-.09.27-.14.53-.14.79s.05.53.14.79.22.48.4.66.39.3.65.4c.26.09.53.14.79.14h4.82v.97h-4.82c-.53,0-1.02-.13-1.48-.4-.45-.26-.81-.62-1.07-1.07-.26-.45-.39-.94-.39-1.48s.13-1.03.39-1.48c.27-.45.62-.81,1.07-1.07.45-.27.95-.4,1.48-.4h4.82v.97h-4.82c-.26,0-.52.05-.79.14Z"/>
          <path class="cls-15" d="M95.66,32.55v.96h-1.81c-.52,0-1.01-.13-1.46-.39-.45-.26-.81-.61-1.07-1.05-.26-.44-.4-.92-.41-1.44v-5.25h.97s0,0,0,.07v2.16h2.27s0,0,0,.07v.89s-.03,0-.09,0h-2.18v2.08c0,.42.11.78.33,1.06s.45.5.69.64c.12.08.3.13.55.15s.44.03.59.02h1.61Z"/>
          <path class="cls-15" d="M100.84,27.64c.53-.02.99.02,1.38.15.39.12.71.29.96.51.25.22.44.45.59.69.14.25.24.48.31.69.06.21.1.4.12.55s.02.22.02.2v.35c0,.25-.06.54-.19.87-.12.33-.32.64-.58.93-.26.3-.6.54-1.01.72-.41.18-.89.26-1.44.23h-1.1c-.55.03-1.03-.05-1.44-.23-.42-.18-.75-.42-1.01-.72-.26-.3-.46-.61-.58-.93-.12-.32-.19-.61-.19-.87v-.35s0-.04.02-.2.06-.34.12-.55c.06-.21.17-.44.31-.69.14-.25.34-.48.59-.69.25-.22.57-.39.96-.51.39-.12.85-.17,1.38-.15h.8ZM101.22,32.55c.73,0,1.25-.18,1.54-.53.3-.35.47-.73.51-1.14v-.17s.01-.28.01-.28v-.18c-.06-.38-.23-.75-.52-1.11-.29-.36-.81-.54-1.54-.54h-1.56c-.74,0-1.25.18-1.54.54-.29.36-.46.73-.5,1.11l-.02.18v.26l.02.18c.04.4.21.78.51,1.14.3.35.81.53,1.54.53h1.56Z"/>
          <path class="cls-15" d="M111.53,28.53h-3.35c-.17,0-.36,0-.57,0-.21,0-.41.03-.59.08s-.34.15-.48.28c-.14.13-.23.29-.29.47-.06.18-.09.34-.09.47,0,.13,0,.37,0,.71v2.92c0,.05-.02.08-.07.08h-.83s-.07-.03-.07-.08v-3.01c0-.12,0-.34,0-.64s.06-.61.18-.92c.12-.31.33-.58.63-.82.19-.15.4-.26.62-.34.22-.08.44-.13.64-.16.2-.03.39-.04.56-.04h3.7v.99Z"/>
          <path class="cls-15" d="M113.6,24.76v1.04h-1.04v-1.04h1.04ZM113.6,27.18v6.35h-1.04v-6.35h1.04Z"/>
          <path class="cls-15" d="M121.88,29.04c.26.46.39.96.39,1.51v3h-.99v-3c0-.27-.05-.54-.14-.81-.09-.27-.22-.49-.4-.67-.17-.18-.38-.31-.64-.41-.26-.09-.52-.14-.77-.14h-1.86c-.5,0-1.15,0-1.95,0,0-.23,0-.02,0,.65s0,1.1,0,1.31v3.07h-.99v-6.01h4.79c.52,0,1.01.13,1.46.4.45.27.81.64,1.07,1.1Z"/>
          <path class="cls-15" d="M129.79,27.95c.26.14.47.35.63.61.16.26.25.57.25.92v3.18c-.02.51-.15.98-.36,1.42-.22.44-.52.79-.9,1.06-.38.27-.83.42-1.33.45h-4.83v-.94h4.7c.3,0,.6-.09.9-.27.3-.18.53-.45.68-.8l.03-.08h-3.58c-.58,0-1.09-.14-1.53-.42-.43-.28-.77-.64-1-1.07-.23-.43-.35-.87-.35-1.32v-.21c0-.42.12-.84.36-1.27s.57-.78,1-1.06c.43-.28.91-.42,1.45-.42h3.07c.27,0,.54.07.8.21ZM129.72,32.55v-3.18c0-.17-.06-.33-.18-.47-.12-.15-.28-.22-.47-.22h-2.98c-.5,0-.9.09-1.21.27s-.52.41-.64.68c-.12.27-.19.56-.19.86v.23c0,.39.09.72.26,1,.17.28.4.48.67.62.28.14.56.21.86.21h3.87Z"/>
          <path class="cls-15" d="M133.86,24.77h8.79v1.2h-7.59v2.4h7.59v1.2h-7.59v2.8h7.59v1.2h-8.79v-8.79Z"/>
          <path class="cls-15" d="M143.93,32.43c.38-.31.81-.6,1.28-.89s1.1-.63,1.89-1.03c-.73-.36-1.33-.67-1.79-.96-.47-.28-.93-.59-1.38-.94v-1.17c1.01.73,1.75,1.25,2.23,1.56.08.05.14.09.18.11.26.16.53.32.82.47.28.16.54.24.77.24.2,0,.4-.05.62-.16s.54-.29.98-.55c.1-.06.16-.1.18-.1.48-.31,1.23-.83,2.23-1.58v1.18c-.45.35-.91.66-1.38.94-.47.28-1.07.6-1.79.95.79.4,1.42.75,1.88,1.03.47.28.9.58,1.29.89v1.17c-.47-.36-.87-.66-1.21-.89-.33-.23-.68-.46-1.04-.69-.07-.04-.12-.07-.15-.09-.31-.2-.6-.37-.88-.51-.27-.14-.52-.21-.73-.21-.23,0-.48.08-.74.22-.26.14-.55.31-.87.5-.02.01-.07.04-.14.09-.37.23-.72.46-1.06.7s-.73.53-1.19.89v-1.17Z"/>
          <path class="cls-15" d="M153.63,35.7h-.95c0,.06,0,0,0-.17v-5.58c0-.36.14-.72.42-1.07.28-.35.62-.63,1.02-.85.41-.22.78-.33,1.13-.33h1.78c.55-.02,1.04.05,1.45.23s.76.41,1.02.71c.26.29.46.6.58.92.13.32.19.6.19.86v.34s0,.04-.02.19c-.02.15-.06.34-.12.55-.06.21-.17.44-.31.68-.14.24-.34.47-.59.68-.25.21-.57.38-.97.5s-.85.17-1.39.14h-3.25v2.2ZM153.63,32.55h3.64c.59,0,1.04-.12,1.35-.36s.5-.5.59-.76.13-.48.13-.64v-.29c0-.2-.05-.44-.14-.71-.09-.27-.29-.53-.6-.76-.31-.23-.75-.35-1.33-.35h-1.97c-.25,0-.51.08-.77.23s-.48.35-.64.59c-.17.24-.25.47-.25.69v2.37Z"/>
          <path class="cls-15" d="M165.22,27.64c.53-.02.99.02,1.38.15.39.12.71.29.96.51.25.22.44.45.58.69.14.25.24.48.31.69.06.21.1.4.12.55.02.16.02.22.02.2v.35c0,.25-.06.54-.19.87-.12.33-.32.64-.58.93-.26.3-.6.54-1.01.72-.41.18-.89.26-1.44.23h-1.1c-.55.03-1.03-.05-1.44-.23-.42-.18-.75-.42-1.01-.72-.26-.3-.46-.61-.58-.93-.12-.32-.19-.61-.19-.87v-.35s0-.04.02-.2.06-.34.12-.55c.06-.21.17-.44.31-.69.14-.25.34-.48.59-.69.25-.22.57-.39.96-.51.39-.12.85-.17,1.38-.15h.8ZM165.6,32.55c.73,0,1.25-.18,1.54-.53.3-.35.47-.73.51-1.14v-.17s.01-.28.01-.28v-.18c-.06-.38-.23-.75-.52-1.11-.29-.36-.81-.54-1.54-.54h-1.56c-.74,0-1.25.18-1.54.54-.29.36-.46.73-.5,1.11l-.02.18v.26l.02.18c.04.4.21.78.51,1.14.3.35.81.53,1.54.53h1.56Z"/>
          <path class="cls-15" d="M175.91,28.53h-3.35c-.17,0-.36,0-.57,0-.21,0-.41.03-.59.08s-.34.15-.48.28c-.13.13-.23.29-.29.47-.05.18-.08.34-.09.47,0,.13,0,.37,0,.71v2.92c0,.05-.02.08-.07.08h-.83s-.07-.03-.07-.08v-3.01c0-.12,0-.34,0-.64s.06-.61.18-.92.33-.58.63-.82c.19-.15.4-.26.62-.34.22-.08.44-.13.64-.16.2-.03.39-.04.56-.04h3.7v.99Z"/>
          <path class="cls-15" d="M181.69,32.55v.96h-1.81c-.52,0-1.01-.13-1.46-.39-.45-.26-.8-.61-1.07-1.05-.26-.44-.4-.92-.41-1.44v-5.25h.97s0,0,0,.07v2.16h2.27s0,0,0,.07v.89s-.03,0-.09,0h-2.18v2.08c0,.42.11.78.33,1.06s.45.5.69.64c.12.08.3.13.54.15s.44.03.59.02h1.61Z"/>
          <path class="cls-15" d="M184.66,24.78h1.2v8.75h-1.2v-8.75Z"/>
          <path class="cls-15" d="M198.32,29.3c.11.22.18.43.23.62s.07.42.08.7v2.92h-.96v-3.02c0-.17-.03-.33-.08-.48-.05-.16-.11-.29-.17-.4s-.16-.25-.28-.39c-.13-.15-.29-.27-.48-.36-.19-.09-.37-.15-.56-.18-.18-.03-.41-.05-.7-.06h-2.15c0,.64,0,1.28,0,1.92v2.97h-.96v-3c0-.18-.02-.35-.07-.5s-.1-.29-.15-.39c-.06-.11-.14-.22-.25-.35-.15-.16-.32-.29-.52-.39-.19-.09-.38-.16-.56-.19-.18-.03-.4-.05-.66-.06-1.1,0-1.83,0-2.2,0,0,.38,0,1.6,0,3.67v1.22h-.96v-5.84h8.48c.3-.02.58,0,.84.06.26.05.49.13.68.22s.36.19.49.29c.13.1.27.23.43.39.18.2.33.42.44.64Z"/>
          <path class="cls-15" d="M200.43,35.7h-.95c0,.06,0,0,0-.17v-5.58c0-.36.14-.72.42-1.07.28-.35.62-.63,1.02-.85.4-.22.78-.33,1.13-.33h1.78c.55-.02,1.04.05,1.45.23.42.18.76.41,1.02.71.26.29.46.6.58.92.13.32.19.6.19.86v.34s0,.04-.02.19c-.02.15-.06.34-.12.55-.06.21-.17.44-.31.68-.14.24-.34.47-.59.68-.25.21-.57.38-.96.5-.39.12-.85.17-1.39.14h-3.25v2.2ZM200.43,32.55h3.64c.59,0,1.04-.12,1.35-.36s.5-.5.59-.76.13-.48.13-.64v-.29c0-.2-.05-.44-.14-.71-.09-.27-.29-.53-.6-.76-.31-.23-.75-.35-1.33-.35h-1.97c-.25,0-.51.08-.77.23s-.48.35-.64.59c-.17.24-.25.47-.25.69v2.37Z"/>
          <path class="cls-15" d="M212.01,27.64c.53-.02.99.02,1.38.15.39.12.71.29.96.51.25.22.44.45.59.69.14.25.24.48.31.69.06.21.1.4.12.55s.02.22.02.2v.35c0,.25-.06.54-.19.87-.12.33-.32.64-.58.93-.26.3-.6.54-1.01.72-.41.18-.89.26-1.44.23h-1.1c-.55.03-1.03-.05-1.44-.23s-.75-.42-1.01-.72c-.26-.3-.46-.61-.58-.93-.12-.32-.19-.61-.19-.87v-.35s0-.04.02-.2.06-.34.12-.55c.06-.21.17-.44.31-.69.14-.25.34-.48.59-.69.25-.22.57-.39.96-.51.39-.12.85-.17,1.38-.15h.8ZM212.39,32.55c.73,0,1.25-.18,1.54-.53.3-.35.47-.73.51-1.14v-.17s.01-.28.01-.28v-.18c-.06-.38-.23-.75-.52-1.11-.29-.36-.81-.54-1.54-.54h-1.56c-.74,0-1.25.18-1.54.54-.29.36-.46.73-.5,1.11l-.02.18v.26l.02.18c.04.4.21.78.51,1.14.3.35.81.53,1.54.53h1.56Z"/>
          <path class="cls-15" d="M222.7,28.53h-3.35c-.17,0-.36,0-.57,0-.21,0-.41.03-.59.08s-.34.15-.48.28c-.13.13-.23.29-.29.47-.06.18-.09.34-.09.47,0,.13,0,.37,0,.71v2.92c0,.05-.02.08-.07.08h-.83s-.07-.03-.07-.08v-3.01c0-.12,0-.34,0-.64s.06-.61.18-.92c.12-.31.33-.58.63-.82.19-.15.4-.26.62-.34.22-.08.44-.13.64-.16.2-.03.39-.04.56-.04h3.7v.99Z"/>
          <path class="cls-15" d="M228.49,32.55v.96h-1.81c-.52,0-1.01-.13-1.46-.39-.45-.26-.8-.61-1.07-1.05-.26-.44-.4-.92-.41-1.44v-5.25h.97s0,0,0,.07v2.16h2.27s0,0,0,.07v.89s-.03,0-.09,0h-2.18v2.08c0,.42.11.78.33,1.06s.45.5.69.64c.12.08.3.13.55.15.24.02.44.03.59.02h1.61Z"/>
        </g>
      </g>
      <g>
        <g>
          <path class="cls-3" d="M162.66,21.38h-.28s0,0,0-.05v-1.65c0-.11.04-.21.12-.32s.18-.19.3-.25c.12-.07.23-.1.33-.1h.53c.16,0,.31.02.43.07.12.05.22.12.3.21.08.09.14.18.17.27.04.09.06.18.06.25v.1s0,.01,0,.06c0,.04-.02.1-.04.16-.02.06-.05.13-.09.2-.04.07-.1.14-.17.2-.08.06-.17.11-.29.15-.12.04-.25.05-.41.04h-.96v.65ZM162.66,20.44h1.08c.17,0,.31-.04.4-.11.09-.07.15-.15.17-.22s.04-.14.04-.19v-.09c0-.06-.01-.13-.04-.21-.03-.08-.09-.16-.18-.23s-.22-.1-.39-.1h-.58c-.08,0-.15.02-.23.07-.08.05-.14.1-.19.17s-.07.14-.07.2v.7Z"/>
          <path class="cls-3" d="M167.06,19.25h-.99s-.11,0-.17,0c-.06,0-.12,0-.17.02-.05.02-.1.04-.14.08-.04.04-.07.08-.08.14s-.03.1-.03.14c0,.04,0,.11,0,.21v.87s0,.02-.02.02h-.25s-.02,0-.02-.02v-.89s0-.1,0-.19c0-.09.02-.18.05-.27.04-.09.1-.17.19-.24.06-.04.12-.08.18-.1.07-.02.13-.04.19-.05s.12-.01.17-.01h1.1v.29Z"/>
          <path class="cls-3" d="M168.87,18.99c.16,0,.29,0,.41.04.12.04.21.09.28.15.07.06.13.13.17.21.04.07.07.14.09.2s.03.12.04.16,0,.07,0,.06v.1c0,.08-.02.16-.05.26-.04.1-.09.19-.17.28-.08.09-.18.16-.3.21s-.26.08-.43.07h-.33c-.16,0-.31-.01-.43-.07-.12-.05-.22-.12-.3-.21-.08-.09-.13-.18-.17-.28-.04-.1-.06-.18-.06-.26v-.1s0-.01,0-.06.02-.1.04-.16.05-.13.09-.2c.04-.07.1-.14.17-.21.07-.06.17-.12.28-.15.11-.04.25-.05.41-.04h.24ZM168.98,20.45c.22,0,.37-.05.46-.16s.14-.22.15-.34v-.05s0-.08,0-.08v-.05c-.02-.11-.07-.22-.15-.33-.09-.11-.24-.16-.46-.16h-.46c-.22,0-.37.05-.46.16-.09.11-.14.22-.15.33v.05s0,.08,0,.08v.05c.02.12.07.23.16.34.09.1.24.16.46.16h.46Z"/>
          <path class="cls-3" d="M172.44,18.35h.28s0,0,0,.05v1.68c0,.12-.01.22-.04.3s-.07.15-.12.2c-.06.05-.13.09-.22.11-.09.02-.21.04-.35.04h-.57c-.16,0-.31-.01-.43-.07-.12-.05-.23-.12-.3-.21-.08-.09-.14-.18-.17-.27-.04-.1-.06-.18-.06-.26v-.1s0-.01,0-.06c0-.05.02-.1.04-.16.02-.06.05-.13.09-.2.04-.07.1-.14.17-.2.08-.06.17-.11.29-.15.12-.04.25-.05.41-.04h.97v-.66ZM172.44,19.29h-1.08c-.18,0-.31.04-.4.11s-.15.15-.18.23c-.03.08-.04.14-.04.19v.08c0,.06.01.13.04.21.03.08.09.16.18.23.09.07.22.1.4.1h.75c.09,0,.15-.02.2-.06.05-.04.08-.09.1-.15.02-.07.03-.15.03-.24v-.71Z"/>
          <path class="cls-3" d="M174.92,20.4c.08-.03.14-.07.19-.12s.09-.12.12-.2c.03-.08.04-.16.04-.24v-.9h.29v.9c0,.16-.04.31-.12.45-.08.14-.19.25-.32.33-.13.08-.28.12-.44.12h-.56c-.16,0-.3-.04-.44-.12-.13-.08-.24-.19-.32-.33-.08-.14-.12-.29-.12-.45v-.9h.29s0,0,0,.02v.87c0,.08.01.16.04.24.03.08.07.15.12.2s.11.09.19.12c.08.03.15.04.23.04h.56c.08,0,.15-.01.23-.04Z"/>
          <path class="cls-3" d="M176.71,19.33c-.08.03-.14.07-.19.12s-.09.12-.12.19c-.03.08-.04.16-.04.23s.01.16.04.23c.03.08.07.14.12.19s.12.09.19.12.16.04.23.04h1.43v.29h-1.43c-.16,0-.3-.04-.44-.12-.13-.08-.24-.18-.32-.32-.08-.13-.12-.28-.12-.44s.04-.3.12-.44c.08-.13.18-.24.32-.32.13-.08.28-.12.44-.12h1.43v.29h-1.43c-.08,0-.16.01-.23.04Z"/>
          <path class="cls-3" d="M180.4,20.45v.29h-.54c-.15,0-.3-.04-.43-.11-.13-.08-.24-.18-.32-.31-.08-.13-.12-.27-.12-.43v-1.55h.29s0,0,0,.02v.64h.67s0,0,0,.02v.26s0,0-.03,0h-.65v.62c0,.13.03.23.1.32s.13.15.21.19c.04.02.09.04.16.05.07,0,.13,0,.18,0h.48Z"/>
          <path class="cls-3" d="M182.25,18.99c.16,0,.29,0,.41.04.12.04.21.09.28.15.07.06.13.13.17.21.04.07.07.14.09.2.02.06.03.12.04.16s0,.07,0,.06v.1c0,.08-.02.16-.06.26-.04.1-.09.19-.17.28-.08.09-.18.16-.3.21s-.26.08-.43.07h-.33c-.16,0-.3-.01-.43-.07s-.22-.12-.3-.21c-.08-.09-.13-.18-.17-.28-.04-.1-.06-.18-.06-.26v-.1s0-.01,0-.06c0-.05.02-.1.04-.16s.05-.13.09-.2c.04-.07.1-.14.17-.21.08-.06.17-.12.28-.15.12-.04.25-.05.41-.04h.24ZM182.37,20.45c.22,0,.37-.05.46-.16s.14-.22.15-.34v-.05s0-.08,0-.08v-.05c-.02-.11-.07-.22-.15-.33-.09-.11-.24-.16-.46-.16h-.46c-.22,0-.37.05-.46.16-.09.11-.14.22-.15.33v.05s0,.08,0,.08v.05c.02.12.07.23.16.34.09.1.24.16.46.16h.46Z"/>
          <path class="cls-3" d="M185.68,19.74c.12,0,.22.05.31.12.09.07.13.21.13.41,0,.11-.03.2-.08.27-.05.07-.12.12-.2.16-.08.03-.16.05-.24.05h-1.78v-.29s1.77,0,1.77,0c.06,0,.12-.01.17-.04.05-.03.08-.09.08-.19,0-.06-.02-.11-.05-.14-.04-.03-.08-.04-.12-.05s-.07,0-.08,0h-1.29c-.07,0-.14-.02-.22-.06-.08-.04-.14-.09-.2-.18-.06-.08-.08-.19-.08-.32,0-.11.03-.21.09-.28s.13-.13.21-.16c.08-.04.16-.05.23-.06h1.61v.29h-1.59c-.07,0-.13.01-.18.04-.06.03-.08.1-.08.21,0,.09.03.15.08.18.05.03.1.04.15.04h1.38Z"/>
          <path class="cls-3" d="M189.77,18.98v1.52c-.01.17-.05.33-.13.45-.09.16-.2.27-.32.34-.12.07-.27.11-.45.11h-1.24s-.02,0-.02-.02v-.25s0-.02.02-.02h1.24c.06,0,.12,0,.17-.01.05,0,.09-.03.13-.05.05-.04.1-.07.13-.1s.06-.06.08-.11l.04-.09h-1.13c-.13,0-.25-.02-.36-.08-.11-.05-.19-.11-.26-.18-.07-.07-.12-.15-.18-.26-.05-.11-.08-.22-.08-.33v-.92s0-.02,0-.02h.3s0,0,0,.02v.94c0,.06.01.12.04.18s.04.11.07.13c.01.01.04.04.07.07.03.03.08.07.14.09.06.03.13.05.22.06h1.24s0-1.47,0-1.47c0-.02,0-.02.02-.02h.25s.02,0,.02.02Z"/>
          <path class="cls-3" d="M192.99,19.74c.12,0,.22.05.31.12.09.07.13.21.13.41,0,.11-.03.2-.08.27-.05.07-.12.12-.2.16-.08.03-.16.05-.24.05h-1.78v-.29s1.77,0,1.77,0c.06,0,.12-.01.17-.04.05-.03.08-.09.08-.19,0-.06-.02-.11-.05-.14-.04-.03-.08-.04-.12-.05s-.07,0-.08,0h-1.29c-.07,0-.14-.02-.22-.06-.08-.04-.14-.09-.2-.18-.06-.08-.08-.19-.08-.32,0-.11.03-.21.09-.28.06-.07.13-.13.21-.16.08-.04.16-.05.23-.06h1.61v.29h-1.59c-.07,0-.13.01-.18.04-.06.03-.08.1-.08.21,0,.09.03.15.08.18.05.03.1.04.15.04h1.38Z"/>
          <path class="cls-3" d="M195.98,19.09c.08.07.14.14.17.23.03.08.04.16.04.22,0,.31-.17.48-.52.49h-1.38s0,.07,0,.07c0,.08,0,.14.02.19s.04.08.07.1c.03.02.08.04.14.04.06,0,.14.01.24.01h1.29s.06.02.06.05v.17s-.02.06-.06.06h-1.33c-.19,0-.33-.02-.44-.06-.11-.04-.18-.11-.23-.2s-.07-.21-.07-.37v-.44c0-.1.04-.21.12-.31.08-.1.18-.19.3-.26s.25-.1.38-.1h.84c.15,0,.27.03.36.1ZM195.78,19.72s.05-.03.08-.06c.02-.02.03-.04.04-.07,0-.03.01-.06.01-.11,0-.02,0-.05-.02-.08-.01-.03-.03-.06-.07-.09-.03-.03-.08-.04-.13-.04h-.92c-.07,0-.14.02-.21.06s-.14.1-.19.17-.08.15-.08.23h1.37c.06,0,.1,0,.12-.01Z"/>
          <path class="cls-3" d="M198.7,19.25h-.99s-.11,0-.17,0c-.06,0-.12,0-.17.02-.05.02-.1.04-.14.08-.04.04-.07.08-.08.14-.02.05-.03.1-.03.14,0,.04,0,.11,0,.21v.87s0,.02-.02.02h-.25s-.02,0-.02-.02v-.89s0-.1,0-.19c0-.09.02-.18.05-.27.03-.09.1-.17.19-.24.06-.04.12-.08.18-.1.07-.02.13-.04.19-.05.06,0,.12-.01.17-.01h1.1v.29Z"/>
          <path class="cls-3" d="M199.4,18.95l1.03,1.55h.04l1.03-1.55h.35l-1.04,1.55c-.08.13-.14.21-.16.24h-.4c-.05-.07-.1-.15-.16-.24l-1.03-1.55h.35Z"/>
          <path class="cls-3" d="M202.54,18.14v.31h-.31v-.31h.31ZM202.54,18.86v1.88h-.31v-1.88h.31Z"/>
          <path class="cls-3" d="M203.78,19.33c-.08.03-.14.07-.19.12s-.09.12-.12.19c-.03.08-.04.16-.04.23s.01.16.04.23c.03.08.07.14.12.19s.12.09.19.12.16.04.23.04h1.43v.29h-1.43c-.16,0-.3-.04-.44-.12-.13-.08-.24-.18-.32-.32-.08-.13-.12-.28-.12-.44s.04-.3.12-.44c.08-.13.18-.24.32-.32.13-.08.28-.12.44-.12h1.43v.29h-1.43c-.08,0-.16.01-.23.04Z"/>
          <path class="cls-3" d="M206.37,18.14v.31h-.31v-.31h.31ZM206.37,18.86v1.88h-.31v-1.88h.31Z"/>
          <path class="cls-3" d="M208.25,18.99c.16,0,.29,0,.41.04s.21.09.28.15c.07.06.13.13.17.21.04.07.07.14.09.2.02.06.03.12.04.16s0,.07,0,.06v.1c0,.08-.02.16-.06.26-.04.1-.09.19-.17.28-.08.09-.18.16-.3.21s-.26.08-.43.07h-.33c-.16,0-.3-.01-.43-.07-.12-.05-.22-.12-.3-.21-.08-.09-.13-.18-.17-.28-.04-.1-.06-.18-.06-.26v-.1s0-.01,0-.06.02-.1.04-.16.05-.13.09-.2c.04-.07.1-.14.17-.21.08-.06.17-.12.28-.15.12-.04.25-.05.41-.04h.24ZM208.36,20.45c.22,0,.37-.05.46-.16.09-.1.14-.22.15-.34v-.05s0-.08,0-.08v-.05c-.02-.11-.07-.22-.15-.33-.09-.11-.24-.16-.46-.16h-.46c-.22,0-.37.05-.46.16-.09.11-.14.22-.15.33v.05s0,.08,0,.08v.05c.02.12.07.23.16.34.09.1.24.16.46.16h.46Z"/>
          <path class="cls-3" d="M211.67,19.74c.12,0,.22.05.31.12.09.07.13.21.13.41,0,.11-.03.2-.08.27-.05.07-.12.12-.2.16-.08.03-.16.05-.24.05h-1.78v-.29s1.77,0,1.77,0c.06,0,.12-.01.17-.04.05-.03.08-.09.08-.19,0-.06-.02-.11-.05-.14-.04-.03-.08-.04-.12-.05s-.07,0-.08,0h-1.29c-.07,0-.14-.02-.22-.06-.08-.04-.14-.09-.2-.18-.06-.08-.08-.19-.08-.32,0-.11.03-.21.09-.28.06-.07.13-.13.21-.16.08-.04.16-.05.23-.06h1.61v.29h-1.59c-.07,0-.13.01-.18.04-.06.03-.08.1-.08.21,0,.09.03.15.08.18.05.03.1.04.15.04h1.38Z"/>
        </g>
        <rect class="cls-1" x="224.14" y="18.11" width="4.16" height="1.32"/>
        <rect class="cls-16" x="224.14" y="19.43" width="4.16" height=".66"/>
        <rect class="cls-2" x="224.14" y="20.09" width="4.16" height=".66"/>
        <rect class="cls-14" x="219.05" y="18.11" width="1.39" height="2.63"/>
        <rect class="cls-14" x="221.83" y="18.11" width="1.39" height="2.63"/>
        <rect class="cls-4" x="220.44" y="18.11" width="1.39" height="2.63"/>
        <polyline class="cls-9" points="218.12 20.75 213.96 20.75 213.96 19.43 218.12 19.43"/>
        <rect class="cls-12" x="213.96" y="18.11" width="1.39" height="1.32"/>
        <rect class="cls-4" x="215.35" y="18.11" width="2.77" height="1.32"/>
        <polygon class="cls-4" points="214.32 18.67 214.58 18.67 214.66 18.44 214.73 18.67 214.98 18.67 214.78 18.81 214.86 19.04 214.65 18.9 214.45 19.04 214.53 18.81 214.32 18.67"/>
        <path class="cls-4" d="M14.84.27L.55,4.78l14.33,11.12,14.04-10.84L14.84.27ZM20.37,10.39l-3.12,2.39-2.66-1.71,2.04-1.67c.37-.33.48-.56.48-.56v-3.18c.03-.54-.73-.85-.73-.85-.94-.45-2.38-.43-2.38-.43-1.33-.02-3.8.92-3.8.92v2.95l-3.69-2.37c2.35-.95,3.42-1.2,3.42-1.2,2.33-.65,3.96-.69,3.96-.69,2.61-.14,4.69.58,4.69.58,2.07.57,2.93,1.3,2.93,1.3,1.72,1.29,1.33,2.61,1.33,2.61-.27.24-2.47,1.91-2.47,1.91"/>
        <polygon class="cls-8" points=".02 8.24 .02 4.69 14.92 16.03 29.45 4.96 29.45 8.22 14.87 21.46 .02 8.24"/>
        <path class="cls-8" d="M6.42,5.91l-2.39-1.48s3.15-1.23,5.77-1.73c2.62-.5,3.58-.53,5.07-.47,1.5.06,4.37.63,6.26,1.55,1.89.93,2.29,1.89,2.4,2.42.12.53.09,1.75-.34,2.13l-.42.38s.31-.69-.13-1.56c-.44-.87-1.39-1.7-3.12-2.29-1.73-.59-3.27-.92-5.14-.89-1.86.03-3.57.44-4.87.82-1.3.38-3.09,1.11-3.09,1.11"/>
        <path class="cls-8" d="M10.2,5.37v2.94l4.29,2.83s.94-.73,1.6-1.28c.66-.54.94-.87,1.01-1.03v-3.24s.08.51-1.06,1.15c-1.13.64-1.49.85-1.49.85l-4.35-2.21Z"/>
        <path class="cls-8" d="M14.88,16.23L0,4.68,14.85,0h.04s14.57,4.97,14.57,4.97l-14.57,11.26ZM.55,4.78l14.34,11.12,14.04-10.84L14.84.27.55,4.78Z"/>
        <path class="cls-8" d="M17.27,13.09l-.08-.05L3.75,4.39l.23-.09s3.19-1.24,5.8-1.74c1.92-.37,3-.49,4.14-.49.27,0,.57,0,.95.02,1.62.06,4.5.68,6.31,1.57,1.43.7,2.26,1.54,2.47,2.51.12.56.1,1.82-.38,2.25l-.43.38-5.59,4.29ZM4.32,4.45l12.94,8.32,5.44-4.17.42-.38c.38-.34.41-1.51.3-2-.2-.89-.98-1.67-2.33-2.33-1.78-.87-4.61-1.48-6.2-1.54-.38-.01-.68-.02-.95-.02-.97,0-1.94.08-4.1.49-2.17.41-4.73,1.34-5.51,1.63"/>
        <path class="cls-8" d="M14.47,7.64l-4.29-2.19.04-.07-.03-.08c.1-.04,2.43-.93,3.82-.93h.03c1.45.01,2.38.36,2.77.69.36.3.41.63.16,1.02-.18.28-.7.67-1.43,1.05-.71.38-1.02.5-1.03.51h-.03ZM10.32,5.39l4.15,2.12c.09-.04.4-.18.99-.49.7-.37,1.21-.74,1.38-1,.21-.33.18-.6-.13-.85-.37-.31-1.26-.65-2.69-.66h-.03c-1.21,0-3.21.72-3.68.89"/>
        <path class="cls-8" d="M40.5,6.74c.14.02.36.08.68.19.31.11.68.32,1.09.63.41.31.77.78,1.08,1.4.31.62.46,1.41.46,2.36s-.18,1.67-.54,2.27c-.36.61-.79,1.06-1.29,1.35-.5.29-.97.47-1.42.53h-7.62V6.73h7.57ZM40.44,14.29c.23-.04.52-.14.84-.3.32-.16.63-.46.92-.9.29-.43.43-1.03.43-1.78,0-.88-.15-1.57-.45-2.07-.3-.5-.62-.84-.95-1.01-.33-.18-.61-.28-.84-.32h-6.28v6.38h6.33Z"/>
        <rect class="cls-8" x="44.63" y="6.75" width="1.19" height="8.7"/>
        <path class="cls-8" d="M52.3,9.12c.77-.01,1.46-.13,2.06-.34.61-.22,1.08-.43,1.4-.65.33-.22.55-.38.66-.49l.96-.91v8.75h-1.14v-6.32c-.5.3-1.08.55-1.75.76-.66.21-1.39.32-2.18.33-.83,0-1.61-.1-2.33-.32-.72-.22-1.36-.49-1.92-.82v6.36h-1.14V6.73l1,.86c.14.13.39.3.75.53.36.23.86.45,1.51.68.64.23,1.35.33,2.11.32"/>
        <rect class="cls-7" x="59.08" y="10.44" width="2.29" height="1.16"/>
        <g>
          <path class="cls-15" d="M62.78,6.68h10v1.2h-8.8v2.4h6.66v1.2h-6.66v4h-1.2V6.68Z"/>
          <path class="cls-15" d="M81.13,10.95c.24.42.36.94.36,1.56,0-.1,0-.08,0,.06h0v.69c0,.58-.12,1.03-.33,1.34-.22.31-.48.53-.79.63s-.63.17-.97.17c-.34,0-.6.02-.76.02h-3.14c-.49,0-.91-.18-1.26-.54-.35-.36-.52-.79-.52-1.3s.17-.95.52-1.31c.35-.36.77-.55,1.26-.55h4.82c0-.07-.02-.14-.04-.2-.02-.07-.04-.11-.05-.13-.09-.18-.22-.35-.39-.5-.17-.15-.36-.27-.56-.36-.21-.08-.43-.12-.65-.12h-4.64v-.94c0-.08,0-.11,0-.08h4.64c.54,0,1.03.14,1.5.42.22.13.41.29.57.47s.31.4.46.65ZM80.43,13.4c0-.09,0-.29-.01-.62h-5.06c-.18,0-.33.08-.47.24-.13.16-.19.36-.19.58s.06.42.19.58c.13.16.29.24.47.24h3.28c.37,0,.67,0,.89-.02s.39-.07.52-.16c.14-.1.23-.22.29-.35.05-.14.08-.3.09-.49Z"/>
          <path class="cls-15" d="M84.29,10.69c-.26.09-.48.22-.65.4s-.3.39-.4.66c-.09.27-.14.53-.14.79s.05.53.14.79.22.48.4.66.39.3.65.4.53.14.79.14h4.82v.97h-4.82c-.53,0-1.02-.13-1.48-.4-.45-.26-.81-.62-1.07-1.07-.26-.45-.39-.94-.39-1.48s.13-1.03.39-1.48c.27-.45.62-.81,1.07-1.07.45-.27.95-.4,1.48-.4h4.82v.97h-4.82c-.26,0-.52.05-.79.14Z"/>
          <path class="cls-15" d="M95.66,14.48v.96h-1.81c-.52,0-1.01-.13-1.46-.39-.45-.26-.81-.61-1.07-1.05-.26-.44-.4-.92-.41-1.44v-5.25h.97s0,0,0,.07v2.16h2.27s0,0,0,.07v.89s-.03,0-.08,0h-2.18v2.08c0,.42.11.78.33,1.06s.45.5.69.64c.12.08.3.13.55.15s.44.03.59.02h1.61Z"/>
          <path class="cls-15" d="M100.84,9.57c.53-.02.99.02,1.38.15.39.12.71.29.96.51.25.22.44.45.59.69.14.25.24.48.31.69.06.21.1.4.12.55s.02.22.02.2v.35c0,.25-.06.54-.19.87-.12.33-.32.64-.58.93-.26.3-.6.54-1.01.72-.41.18-.89.26-1.44.23h-1.1c-.55.03-1.03-.05-1.44-.23s-.75-.42-1.01-.72c-.26-.3-.46-.61-.58-.93-.12-.32-.19-.61-.19-.87v-.35s0-.04.02-.2.06-.34.12-.55c.06-.21.17-.44.31-.69.14-.25.34-.48.59-.69.25-.22.57-.39.96-.51.39-.12.85-.17,1.38-.15h.8ZM101.22,14.48c.73,0,1.25-.18,1.54-.53.3-.35.47-.73.51-1.14v-.17s.01-.28.01-.28v-.18c-.06-.38-.23-.75-.52-1.11-.29-.36-.81-.54-1.54-.54h-1.56c-.74,0-1.25.18-1.54.54-.29.36-.46.73-.5,1.11l-.02.18v.26l.02.18c.04.4.21.78.51,1.14.3.35.81.53,1.54.53h1.56Z"/>
          <path class="cls-15" d="M111.53,10.46h-3.35c-.17,0-.36,0-.57,0-.21,0-.41.03-.59.08s-.34.15-.48.28c-.13.13-.23.29-.29.47-.06.18-.09.34-.09.47,0,.13,0,.37,0,.71v2.92c0,.05-.02.08-.07.08h-.83s-.07-.03-.07-.08v-3.01c0-.12,0-.34,0-.64s.06-.61.18-.92c.12-.31.33-.58.63-.82.19-.15.4-.26.62-.34.22-.08.44-.13.64-.16.2-.03.39-.04.56-.04h3.7v.99Z"/>
          <path class="cls-15" d="M113.6,6.69v1.04h-1.04v-1.04h1.04ZM113.6,9.11v6.35h-1.04v-6.35h1.04Z"/>
          <path class="cls-15" d="M121.88,10.97c.26.46.39.96.39,1.51v3h-.99v-3c0-.27-.05-.54-.14-.81s-.22-.49-.4-.67c-.17-.18-.38-.31-.64-.41-.26-.09-.51-.14-.77-.14h-1.86c-.5,0-1.15,0-1.95,0,0-.23,0-.02,0,.65s0,1.1,0,1.31v3.07h-.99v-6.01h4.79c.52,0,1.01.13,1.46.4.45.27.81.64,1.07,1.1Z"/>
          <path class="cls-15" d="M129.79,9.88c.26.14.47.35.63.61.16.26.25.57.25.92v3.18c-.02.51-.15.98-.36,1.42-.22.44-.52.79-.9,1.06-.38.27-.82.42-1.33.45h-4.83v-.94h4.7c.3,0,.6-.09.9-.27s.53-.45.68-.8l.03-.08h-3.58c-.58,0-1.09-.14-1.53-.42-.43-.28-.77-.64-1-1.07-.23-.43-.35-.87-.35-1.32v-.21c0-.42.12-.84.36-1.27.24-.43.57-.78,1-1.06.43-.28.91-.42,1.45-.42h3.07c.27,0,.54.07.8.21ZM129.72,14.48v-3.18c0-.17-.06-.33-.18-.47-.12-.15-.28-.22-.47-.22h-2.98c-.5,0-.9.09-1.21.27s-.52.41-.64.68c-.12.27-.19.56-.19.86v.23c0,.39.09.72.26,1,.17.28.4.48.67.62.28.14.56.21.86.21h3.87Z"/>
          <path class="cls-15" d="M133.86,6.7h8.79v1.2h-7.59v2.4h7.59v1.2h-7.59v2.8h7.59v1.2h-8.79V6.7Z"/>
          <path class="cls-15" d="M143.93,14.36c.38-.31.81-.6,1.28-.89s1.1-.63,1.89-1.03c-.73-.36-1.33-.67-1.79-.96-.47-.28-.93-.59-1.38-.94v-1.17c1.01.73,1.75,1.25,2.23,1.56.08.05.14.09.18.11.26.16.53.32.82.47.28.16.54.24.77.24.2,0,.4-.05.62-.16s.54-.29.98-.55c.1-.06.16-.1.18-.1.48-.31,1.23-.83,2.23-1.58v1.18c-.45.35-.91.66-1.38.94-.47.28-1.07.6-1.79.95.79.4,1.42.75,1.88,1.03.47.28.9.58,1.29.89v1.17c-.47-.36-.87-.66-1.21-.89-.33-.23-.68-.46-1.04-.69-.07-.04-.12-.07-.15-.09-.31-.2-.6-.37-.88-.51-.27-.14-.52-.21-.73-.21-.23,0-.48.08-.74.22-.26.14-.55.31-.87.5-.02.01-.07.04-.14.09-.37.23-.72.46-1.06.7s-.73.53-1.19.89v-1.17Z"/>
          <path class="cls-15" d="M153.63,17.63h-.95c0,.06,0,0,0-.17v-5.58c0-.36.14-.72.42-1.07.28-.35.62-.63,1.02-.85.41-.22.78-.33,1.13-.33h1.78c.55-.02,1.04.05,1.45.23s.76.41,1.02.71c.26.29.46.6.58.92.13.32.19.6.19.86v.34s0,.04-.03.19c-.02.15-.06.34-.12.55-.06.21-.17.44-.31.68-.14.24-.34.47-.59.68-.25.21-.57.38-.97.5-.39.12-.85.17-1.38.14h-3.25v2.2ZM153.63,14.47h3.64c.59,0,1.04-.12,1.35-.36s.5-.5.59-.76.13-.48.13-.64v-.29c0-.2-.05-.44-.14-.71-.09-.27-.29-.53-.6-.76-.31-.23-.75-.35-1.33-.35h-1.97c-.25,0-.51.08-.77.23s-.48.35-.64.59c-.17.24-.25.47-.25.69v2.37Z"/>
          <path class="cls-15" d="M165.22,9.57c.53-.02.99.02,1.38.15.39.12.71.29.96.51.25.22.44.45.59.69.14.25.24.48.31.69.06.21.1.4.12.55s.02.22.02.2v.35c0,.25-.06.54-.19.87-.12.33-.32.64-.58.93-.26.3-.6.54-1.01.72-.41.18-.89.26-1.44.23h-1.1c-.55.03-1.03-.05-1.44-.23-.42-.18-.75-.42-1.01-.72-.26-.3-.46-.61-.58-.93-.12-.32-.19-.61-.19-.87v-.35s0-.04.02-.2.06-.34.12-.55c.06-.21.17-.44.31-.69.14-.25.34-.48.59-.69.25-.22.57-.39.96-.51.39-.12.85-.17,1.38-.15h.8ZM165.6,14.48c.73,0,1.25-.18,1.54-.53.3-.35.47-.73.51-1.14v-.17s.01-.28.01-.28v-.18c-.06-.38-.23-.75-.52-1.11-.29-.36-.81-.54-1.54-.54h-1.56c-.74,0-1.25.18-1.54.54-.29.36-.46.73-.5,1.11l-.02.18v.26l.02.18c.04.4.21.78.51,1.14.3.35.81.53,1.54.53h1.56Z"/>
          <path class="cls-15" d="M175.91,10.46h-3.35c-.17,0-.36,0-.57,0-.21,0-.41.03-.59.08s-.34.15-.48.28c-.13.13-.23.29-.28.47-.06.18-.09.34-.09.47,0,.13,0,.37,0,.71v2.92c0,.05-.02.08-.07.08h-.83s-.07-.03-.07-.08v-3.01c0-.12,0-.34,0-.64s.06-.61.18-.92c.12-.31.33-.58.63-.82.19-.15.4-.26.62-.34.22-.08.44-.13.64-.16.2-.03.39-.04.56-.04h3.7v.99Z"/>
          <path class="cls-15" d="M181.69,14.48v.96h-1.81c-.52,0-1.01-.13-1.46-.39-.45-.26-.8-.61-1.07-1.05-.26-.44-.4-.92-.41-1.44v-5.25h.97s0,0,0,.07v2.16h2.27s0,0,0,.07v.89s-.03,0-.09,0h-2.18v2.08c0,.42.11.78.33,1.06s.45.5.69.64c.12.08.3.13.54.15s.44.03.59.02h1.61Z"/>
          <path class="cls-15" d="M184.66,6.71h1.2v8.75h-1.2V6.71Z"/>
          <path class="cls-15" d="M198.32,11.22c.11.22.18.43.23.62s.07.42.08.7v2.92h-.96v-3.02c0-.17-.03-.33-.08-.48-.05-.16-.11-.29-.17-.4s-.16-.25-.28-.39c-.13-.15-.29-.27-.48-.36-.19-.09-.37-.15-.56-.18-.18-.03-.41-.05-.7-.06h-2.15c0,.64,0,1.28,0,1.92v2.97h-.96v-3c0-.18-.02-.35-.07-.5-.05-.16-.1-.29-.15-.39-.06-.11-.14-.22-.25-.35-.15-.16-.32-.29-.52-.39-.19-.09-.38-.16-.55-.19-.18-.03-.4-.05-.66-.06-1.1,0-1.83,0-2.2,0,0,.38,0,1.6,0,3.67v1.22h-.96v-5.84h8.48c.3-.02.58,0,.84.06.26.05.49.13.68.22s.36.19.49.29c.13.1.27.23.43.39.18.2.33.42.44.64Z"/>
          <path class="cls-15" d="M200.43,17.63h-.95c0,.06,0,0,0-.17v-5.58c0-.36.14-.72.42-1.07.28-.35.62-.63,1.02-.85.4-.22.78-.33,1.13-.33h1.78c.55-.02,1.04.05,1.45.23s.76.41,1.02.71c.26.29.46.6.58.92.13.32.19.6.19.86v.34s0,.04-.02.19c-.02.15-.06.34-.12.55-.06.21-.17.44-.31.68-.14.24-.34.47-.59.68-.25.21-.57.38-.96.5-.39.12-.85.17-1.39.14h-3.25v2.2ZM200.43,14.47h3.63c.59,0,1.04-.12,1.35-.36.31-.24.5-.5.59-.76s.13-.48.13-.64v-.29c0-.2-.05-.44-.14-.71-.09-.27-.29-.53-.6-.76-.31-.23-.75-.35-1.33-.35h-1.97c-.25,0-.51.08-.77.23s-.48.35-.64.59-.25.47-.25.69v2.37Z"/>
          <path class="cls-15" d="M212.01,9.57c.53-.02.99.02,1.38.15.39.12.71.29.96.51.25.22.44.45.59.69.14.25.24.48.31.69.06.21.1.4.12.55s.02.22.02.2v.35c0,.25-.06.54-.19.87-.12.33-.32.64-.58.93-.26.3-.6.54-1.01.72-.41.18-.89.26-1.44.23h-1.1c-.55.03-1.03-.05-1.44-.23s-.75-.42-1.01-.72c-.26-.3-.46-.61-.58-.93-.12-.32-.19-.61-.19-.87v-.35s0-.04.02-.2c.02-.16.06-.34.12-.55.06-.21.17-.44.31-.69.14-.25.34-.48.59-.69.25-.22.57-.39.96-.51.39-.12.85-.17,1.38-.15h.8ZM212.39,14.48c.73,0,1.25-.18,1.54-.53.3-.35.47-.73.51-1.14v-.17s.01-.28.01-.28v-.18c-.06-.38-.23-.75-.52-1.11-.29-.36-.81-.54-1.54-.54h-1.56c-.74,0-1.25.18-1.54.54-.29.36-.46.73-.5,1.11l-.02.18v.26l.02.18c.04.4.21.78.51,1.14.3.35.81.53,1.54.53h1.56Z"/>
          <path class="cls-15" d="M222.7,10.46h-3.35c-.17,0-.36,0-.57,0-.21,0-.41.03-.59.08-.18.05-.34.15-.48.28-.13.13-.23.29-.29.47-.06.18-.09.34-.09.47,0,.13,0,.37,0,.71v2.92c0,.05-.02.08-.07.08h-.83s-.07-.03-.07-.08v-3.01c0-.12,0-.34,0-.64s.06-.61.18-.92c.12-.31.33-.58.63-.82.19-.15.4-.26.62-.34.22-.08.43-.13.64-.16.2-.03.39-.04.56-.04h3.7v.99Z"/>
          <path class="cls-15" d="M228.49,14.48v.96h-1.81c-.52,0-1.01-.13-1.46-.39-.45-.26-.81-.61-1.07-1.05-.26-.44-.4-.92-.41-1.44v-5.25h.97s0,0,0,.07v2.16h2.27s0,0,0,.07v.89s-.03,0-.09,0h-2.18v2.08c0,.42.11.78.33,1.06s.45.5.69.64c.12.08.3.13.55.15s.44.03.59.02h1.61Z"/>
        </g>
      </g>
      <g>
        <rect class="cls-10" x="172.96" y="66.68" width="46.45" height="49.84"/>
        <path class="cls-4" d="M215.83,114.28h-39.29c-.42,0-.76-.34-.76-.76v-43.85c0-.42.34-.76.76-.76h39.29c.42,0,.76.34.76.76v43.85c0,.42-.34.76-.76.76"/>
        <path class="cls-5" d="M183.2,76.96c0,.72-.58,1.3-1.3,1.3s-1.3-.58-1.3-1.3.58-1.3,1.3-1.3,1.3.58,1.3,1.3"/>
        <rect class="cls-5" x="185.36" y="75.66" width="26.32" height="2.07"/>
        <path class="cls-5" d="M183.2,81.31c0,.72-.58,1.3-1.3,1.3s-1.3-.58-1.3-1.3.58-1.3,1.3-1.3,1.3.58,1.3,1.3"/>
        <rect class="cls-5" x="185.36" y="80.39" width="26.32" height="2.07"/>
        <path class="cls-5" d="M183.2,85.42c0,.72-.58,1.3-1.3,1.3s-1.3-.58-1.3-1.3.58-1.3,1.3-1.3,1.3.58,1.3,1.3"/>
        <rect class="cls-5" x="185.28" y="84.79" width="26.32" height="2.07"/>
        <path class="cls-5" d="M183.2,92.8c0,.72-.58,1.3-1.3,1.3s-1.3-.58-1.3-1.3.58-1.3,1.3-1.3,1.3.58,1.3,1.3"/>
        <rect class="cls-5" x="185.36" y="91.5" width="26.32" height="2.07"/>
        <path class="cls-5" d="M183.2,97.16c0,.72-.58,1.3-1.3,1.3s-1.3-.58-1.3-1.3.58-1.3,1.3-1.3,1.3.58,1.3,1.3"/>
        <rect class="cls-5" x="185.36" y="96.23" width="26.32" height="2.07"/>
        <path class="cls-5" d="M183.2,101.27c0,.72-.58,1.3-1.3,1.3s-1.3-.58-1.3-1.3.58-1.3,1.3-1.3,1.3.58,1.3,1.3"/>
        <rect class="cls-5" x="185.28" y="100.63" width="26.32" height="2.07"/>
        <rect class="cls-5" x="171.37" y="101.45" width=".47" height="26.68" transform="translate(-30.67 73.47) rotate(-22.23)"/>
        <rect class="cls-5" x="172.83" y="117.48" width="27.92" height=".47" transform="translate(-29.37 162.7) rotate(-43.97)"/>
        <rect class="cls-5" x="203.87" y="102.72" width=".47" height="16.08" transform="translate(27.29 261.3) rotate(-68.9)"/>
        <path class="cls-11" d="M170.85,102.45c0,2.37-1.92,4.29-4.29,4.29s-4.29-1.92-4.29-4.29,1.92-4.29,4.29-4.29,4.29,1.92,4.29,4.29"/>
        <path class="cls-5" d="M180.97,127.22c0,2.37-1.92,4.29-4.29,4.29s-4.29-1.92-4.29-4.29,1.92-4.29,4.29-4.29,4.29,1.92,4.29,4.29"/>
        <path class="cls-5" d="M200.78,107.93c0,2.37-1.92,4.29-4.29,4.29s-4.29-1.92-4.29-4.29,1.92-4.29,4.29-4.29,4.29,1.92,4.29,4.29"/>
        <path class="cls-11" d="M215.98,113.25c0,2.37-1.92,4.29-4.29,4.29s-4.29-1.92-4.29-4.29,1.92-4.29,4.29-4.29,4.29,1.92,4.29,4.29"/>
        <path class="cls-10" d="M178.15,75.03c0,7.1-5.76,12.86-12.86,12.86s-12.86-5.76-12.86-12.86,5.76-12.86,12.86-12.86,12.86,5.76,12.86,12.86"/>
        <path class="cls-4" d="M176.2,75.03c0,6.03-4.89,10.92-10.92,10.92s-10.92-4.89-10.92-10.92,4.89-10.92,10.92-10.92,10.92,4.89,10.92,10.92"/>
        <path class="cls-5" d="M169.82,80.47c-.35.63-.86,1.15-1.53,1.57-.67.42-1.48.66-2.42.71v1.76h-1.17v-1.76c-1.31-.12-2.38-.54-3.21-1.27s-1.24-1.66-1.26-2.79h2.1c.06.61.29,1.13.68,1.58.4.45.96.73,1.68.85v-5.42c-.97-.25-1.75-.5-2.34-.76-.59-.26-1.1-.66-1.52-1.21-.42-.55-.63-1.29-.63-2.21,0-1.17.41-2.14,1.22-2.9.82-.77,1.9-1.19,3.26-1.28v-1.8h1.17v1.8c1.23.1,2.22.49,2.97,1.18.75.69,1.18,1.58,1.3,2.68h-2.1c-.07-.51-.3-.96-.67-1.38-.38-.41-.87-.68-1.5-.81v5.29c.95.25,1.73.49,2.33.75s1.11.65,1.52,1.2c.41.55.62,1.29.62,2.23,0,.69-.17,1.35-.52,1.98M162.86,73.04c.42.38,1.03.69,1.84.93v-5.01c-.75.07-1.35.31-1.8.73-.45.41-.67.99-.67,1.72s.21,1.25.63,1.63M167.71,80.31c.44-.48.66-1.05.66-1.71,0-.71-.22-1.25-.65-1.64-.43-.38-1.05-.69-1.84-.92v5.12c.78-.09,1.39-.37,1.83-.84"/>
        <path class="cls-11" d="M227.47,60.85s-.03.05-.05.07c-.02.03-.03.06-.05.09-2.62,4.16-6.11,6.65-9.8,7.76-.25.07-.49.15-.74.21,1.21.71,2.45,1.35,3.7,1.93-3.05,5.52-13.28,12.3-27.31,10.01,1.08,1.06,17.93,8.26,31.58-5.5.86,1.41,1.78,3.33,1.78,3.33,0,0,3.62-9.01.9-17.9"/>
        <path class="cls-13" d="M227.37,61.01c-2.62,4.16-6.11,6.65-9.8,7.76-.25.08-.49.15-.74.21,1.21.71,2.45,1.35,3.7,1.93-3.05,5.52-13.28,12.3-27.31,10.01.04.04.08.08.12.12,5.87,1.44,29.66,5.91,34.09-20.11-.02.03-.03.06-.05.09"/>
        <path class="cls-11" d="M186.66,77.47s.03-.05.05-.07c.02-.03.03-.06.05-.09,2.62-4.16,6.11-6.65,9.8-7.76.25-.07.49-.15.74-.21-1.21-.71-2.45-1.35-3.7-1.93,3.05-5.52,13.28-12.3,27.31-10.01-1.08-1.06-17.93-8.26-31.58,5.5-.86-1.41-1.78-3.33-1.78-3.33,0,0-3.62,9.01-.9,17.9"/>
        <path class="cls-13" d="M186.76,77.31c2.62-4.16,6.11-6.65,9.8-7.76.25-.08.49-.15.74-.21-1.21-.71-2.45-1.35-3.7-1.93,3.05-5.52,13.28-12.3,27.31-10.01-.04-.04-.08-.08-.12-.12-5.87-1.44-29.66-5.91-34.09,20.11.02-.03.03-.06.05-.09"/>
        <path class="cls-10" d="M187.61,85.25c0,7.1-5.76,12.86-12.86,12.86s-12.86-5.76-12.86-12.86,5.76-12.86,12.86-12.86,12.86,5.76,12.86,12.86"/>
        <path class="cls-4" d="M185.66,85.25c0,6.03-4.89,10.92-10.92,10.92s-10.92-4.89-10.92-10.92,4.89-10.92,10.92-10.92,10.92,4.89,10.92,10.92"/>
        <path class="cls-5" d="M179.85,91.94c-.75.51-2.01,1.02-3.61,1.02-1.96,0-3.71-.75-4.92-2.16-.92-1.02-1.52-2.42-1.74-4.17h-1.5v-1.19h1.38v-.36c0-.39.02-.75.05-1.09h-1.43v-1.21h1.6c.29-1.7,1.02-3.1,1.99-4.09,1.24-1.28,2.81-2.01,4.8-2.01,1.43,0,2.54.41,3.22.78l-.48,1.6c-.61-.36-1.62-.68-2.71-.68-1.31,0-2.37.46-3.2,1.33-.73.7-1.21,1.79-1.45,3.08h6.76v1.21h-6.98c-.02.32-.05.68-.05,1.02v.44h7.03v1.19h-6.86c.19,1.4.68,2.45,1.33,3.17.9.95,2.11,1.4,3.42,1.4s2.4-.48,2.96-.8l.41,1.53Z"/>
      </g>
      <g>
        <path class="cls-6" d="M206.59,144.7h-16.54c-.84,0-1.53.7-1.53,1.57v31.28c0,.87.69,1.57,1.53,1.57h22.8c.84,0,1.53-.7,1.53-1.57v-24.56l-7.78-8.3Z"/>
        <path class="cls-4" d="M206,146.23h-14.64c-.75,0-1.35.64-1.35,1.43v28.51c0,.79.61,1.43,1.35,1.43h20.18c.75,0,1.35-.64,1.35-1.43v-22.38l-6.89-7.56Z"/>
        <path class="cls-4" d="M203.94,154.49l-.08-6.98c0-.36-.29-.66-.65-.66h-11.87c-.36,0-.65.3-.65.66v28.81c0,.37.29.67.65.67h20.21c.36,0,.65-.3.65-.67v-20.51c0-.37-.29-.67-.65-.67h-6.96c-.35,0-.64-.29-.65-.66"/>
        <path class="cls-11" d="M226.82,156.29s-.02.03-.03.05c-.01.02-.02.04-.04.06-2.5,2.77-9.74,4.73-9.91,4.77.83.48,3.58,1.72,5.22,2.01-2.09,3.78-9.09,8.43-18.71,6.86.74.73,12.52,5.42,21.87-4,.26,1.2,3.25,3.83,3.25,3.83,0,0,.21-7.48-1.66-13.57"/>
        <path class="cls-11" d="M199.86,167.98s.02-.03.03-.05c.01-.02.02-.04.03-.06,2.49-2.77,9.72-4.76,9.89-4.81-.83-.48-3.59-1.71-5.23-1.99,2.07-3.79,9.06-8.46,18.68-6.93-.75-.72-12.54-5.37-21.85,4.09-.26-1.2-3.27-3.82-3.27-3.82,0,0-.18,7.48,1.71,13.57"/>
        <path class="cls-11" d="M194.34,159.5c0,6.81-5.52,12.33-12.33,12.33s-12.33-5.52-12.33-12.33,5.52-12.33,12.33-12.33,12.33,5.52,12.33,12.33"/>
        <path class="cls-4" d="M192.48,159.5c0,5.78-4.69,10.47-10.46,10.47s-10.47-4.69-10.47-10.47,4.69-10.46,10.47-10.46,10.46,4.69,10.46,10.46"/>
        <path class="cls-5" d="M186.37,164.72c-.33.6-.82,1.11-1.47,1.51-.64.4-1.42.63-2.32.69v1.68h-1.12v-1.68c-1.26-.11-2.29-.52-3.08-1.22-.79-.7-1.19-1.59-1.2-2.67h2.02c.06.58.27,1.09.65,1.52.38.43.92.7,1.61.81v-5.2c-.93-.23-1.68-.48-2.24-.73-.57-.25-1.05-.64-1.46-1.16-.4-.53-.6-1.23-.6-2.12,0-1.12.39-2.05,1.17-2.78.78-.73,1.83-1.14,3.13-1.23v-1.72h1.12v1.72c1.18.1,2.13.47,2.85,1.13.72.66,1.14,1.51,1.25,2.57h-2.02c-.07-.49-.28-.92-.64-1.32-.36-.39-.84-.65-1.43-.78v5.07c.91.24,1.66.47,2.23.72.58.24,1.06.63,1.45,1.15.39.53.59,1.24.59,2.14,0,.66-.17,1.3-.5,1.9M179.7,157.6c.4.36.99.66,1.77.89v-4.8c-.72.07-1.3.3-1.72.69-.43.39-.64.95-.64,1.65s.2,1.2.6,1.56M184.34,164.57c.42-.46.63-1,.63-1.64,0-.68-.21-1.2-.62-1.57-.42-.37-1-.66-1.77-.88v4.9c.75-.08,1.33-.35,1.76-.81"/>
        <path class="cls-11" d="M196.9,169.07c0,6.06-4.92,10.98-10.98,10.98s-10.98-4.91-10.98-10.98,4.92-10.98,10.98-10.98,10.98,4.91,10.98,10.98"/>
        <path class="cls-4" d="M195.24,169.07c0,5.15-4.17,9.32-9.32,9.32s-9.32-4.17-9.32-9.32,4.17-9.32,9.32-9.32,9.32,4.17,9.32,9.32"/>
        <path class="cls-5" d="M190.27,174.79c-.64.44-1.72.87-3.08.87-1.68,0-3.16-.64-4.2-1.84-.78-.87-1.3-2.07-1.49-3.56h-1.28v-1.01h1.18v-.31c0-.33.02-.64.04-.93h-1.22v-1.03h1.36c.25-1.45.87-2.65,1.7-3.49,1.05-1.1,2.4-1.72,4.09-1.72,1.22,0,2.17.35,2.75.66l-.41,1.36c-.52-.31-1.39-.58-2.32-.58-1.12,0-2.02.39-2.73,1.14-.62.6-1.03,1.53-1.24,2.63h5.77v1.03h-5.96c-.02.27-.04.58-.04.87v.37h6v1.01h-5.85c.17,1.2.58,2.09,1.14,2.71.77.81,1.8,1.2,2.92,1.2s2.05-.41,2.52-.68l.35,1.3Z"/>
        <path class="cls-11" d="M181.33,167.54c0,5.6-4.54,10.14-10.14,10.14s-10.14-4.54-10.14-10.14,4.54-10.14,10.14-10.14,10.14,4.54,10.14,10.14"/>
        <path class="cls-4" d="M179.8,167.54c0,4.75-3.85,8.61-8.61,8.61s-8.61-3.85-8.61-8.61,3.85-8.61,8.61-8.61,8.61,3.85,8.61,8.61"/>
        <path class="cls-6" d="M176.18,161.16h-1.88s-1.73,3-2.65,4.58h0l-.14.25c-.14.25-.26.45-.33.57l-.47-.82h0l-2.63-4.58h-1.88l2.51,4.58h-2.41v1.14h3.03l.9,1.64v.05h-3.93v1.14h3.93v4.23h1.67v-4.23h4.18v-1.14h-4.18v-.07l.95-1.62h3.23v-1.14h-2.57l2.67-4.58Z"/>
      </g>
    </g>
  </g>
</svg>