<?xml version="1.0" encoding="UTF-8"?>
<svg id="Capa_2" xmlns="http://www.w3.org/2000/svg" viewBox="0 0 232.5 199.65">
  <defs>
    <style>
      .cls-1 {
        fill: #f9cf16;
      }

      .cls-2 {
        fill: #cd142a;
      }

      .cls-3 {
        fill: #646365;
      }

      .cls-4 {
        fill: #fff;
      }

      .cls-5 {
        fill: #625f60;
      }

      .cls-6 {
        fill: #d00e4d;
      }

      .cls-7 {
        fill: #d7d5d6;
      }

      .cls-8 {
        fill: #bfd2e3;
      }

      .cls-9 {
        fill: #d00e4c;
      }

      .cls-10 {
        fill: #d22e1f;
      }

      .cls-11 {
        fill: #636061;
      }

      .cls-12 {
        fill: #9d9a9c;
      }

      .cls-13 {
        fill: #1d458c;
      }

      .cls-14 {
        fill: #48a98e;
      }

      .cls-15 {
        fill: #e1222c;
      }

      .cls-16 {
        fill: #80a9cd;
      }

      .cls-17 {
        fill: #828384;
      }

      .cls-18 {
        fill: #1b4180;
      }
    </style>
  </defs>
  <g id="Capa_1-2" data-name="Capa_1">
    <g>
      <path class="cls-5" d="M162.01,189.19h1.14v8.37h-1.14v-8.37Z"/>
      <path class="cls-5" d="M167.54,193c-.25.09-.46.21-.62.38s-.29.37-.38.63-.13.51-.13.76.04.5.13.76.21.46.38.63.37.29.62.38.5.13.75.13h4.61v.93h-4.61c-.51,0-.98-.13-1.41-.38-.43-.25-.77-.59-1.03-1.03-.25-.43-.38-.9-.38-1.41s.12-.98.38-1.41c.25-.43.6-.78,1.03-1.03.43-.25.9-.38,1.41-.38h4.61v.93h-4.61c-.25,0-.5.04-.75.13Z"/>
      <path class="cls-5" d="M179.03,191.93c.5-.02.94.02,1.32.14s.68.28.92.49.42.43.56.66.23.45.29.66.1.38.11.53.02.21.02.19v.33c0,.24-.06.52-.18.83s-.3.61-.55.89-.57.51-.97.69-.85.25-1.38.22h-1.05c-.52.03-.98-.05-1.38-.22s-.72-.4-.97-.69-.43-.58-.55-.89-.18-.59-.18-.83v-.33s0-.04.02-.19.05-.33.11-.53.16-.42.29-.66.32-.46.56-.66.55-.37.92-.49.81-.16,1.32-.14h.76ZM179.39,196.62c.7,0,1.19-.17,1.47-.51s.45-.7.49-1.09v-.16s.01-.26.01-.26v-.18c-.05-.37-.22-.72-.5-1.06s-.77-.51-1.48-.51h-1.49c-.7,0-1.2.17-1.48.51s-.44.7-.48,1.06l-.02.18v.25l.02.18c.04.39.2.75.49,1.09s.78.51,1.47.51h1.49Z"/>
      <path class="cls-5" d="M191.36,193.26c.25.44.38.92.38,1.44v2.87h-.94v-2.87c0-.26-.04-.52-.13-.77s-.21-.47-.38-.64c-.16-.17-.36-.3-.61-.39s-.49-.13-.74-.13h-1.78c-.48,0-1.1,0-1.86,0,0-.22,0-.01,0,.62s0,1.06,0,1.25v2.94h-.94v-5.74h4.58c.5,0,.97.13,1.4.38.43.26.77.61,1.03,1.05Z"/>
      <path class="cls-5" d="M197.88,191.93c.5-.02.94.02,1.32.14s.68.28.92.49.42.43.56.66.23.45.29.66.1.38.11.53.02.21.02.19v.33c0,.24-.06.52-.18.83s-.3.61-.55.89-.57.51-.97.69-.85.25-1.38.22h-1.05c-.52.03-.98-.05-1.38-.22s-.72-.4-.97-.69-.43-.58-.55-.89-.18-.59-.18-.83v-.33s0-.04.02-.19.05-.33.11-.53.16-.42.29-.66.32-.46.56-.66.55-.37.92-.49.81-.16,1.32-.14h.76ZM198.25,196.62c.7,0,1.19-.17,1.47-.51s.45-.7.49-1.09v-.16s.01-.26.01-.26v-.18c-.05-.37-.22-.72-.5-1.06s-.77-.51-1.48-.51h-1.49c-.7,0-1.2.17-1.48.51s-.44.7-.48,1.06l-.02.18v.25l.02.18c.04.39.2.75.49,1.09s.78.51,1.47.51h1.49Z"/>
      <path class="cls-5" d="M213.31,193.25c.23.4.35.9.35,1.49,0-.09,0-.07,0,.06h0v.66c0,.55-.11.98-.32,1.28s-.46.5-.76.61-.61.16-.93.17-.57.02-.73.02h-3.01c-.47,0-.87-.17-1.2-.52s-.5-.76-.5-1.24.17-.9.5-1.25c.33-.35.73-.52,1.2-.52h4.61c0-.07-.02-.13-.04-.19s-.04-.11-.05-.13c-.09-.18-.21-.34-.38-.48s-.34-.26-.54-.34c-.2-.08-.41-.12-.62-.12h-4.44v-.9c0-.08,0-.1,0-.08h4.44c.51,0,.99.13,1.43.4.21.12.39.27.55.45s.3.38.44.62ZM212.64,195.59c0-.08,0-.28-.01-.59h-4.83c-.17,0-.32.08-.45.23-.12.16-.18.34-.18.56s.06.4.18.56c.12.15.27.23.45.23h3.13c.36,0,.64,0,.85-.02s.38-.07.5-.16c.13-.09.22-.21.27-.34s.08-.29.09-.47Z"/>
      <path class="cls-5" d="M216.73,199.63h-.91c0,.05,0,0,0-.16v-5.33c0-.35.13-.69.4-1.02s.59-.6.98-.81.75-.31,1.08-.31h1.71c.53-.02.99.05,1.39.22s.72.39.97.67.44.57.56.88.18.58.18.82v.32s0,.04-.02.18-.05.32-.11.52-.16.42-.3.65-.33.45-.57.65-.55.36-.92.48-.82.16-1.32.14h-3.11v2.1ZM216.73,196.62h3.47c.57,0,1-.12,1.29-.35s.48-.47.57-.73.13-.46.13-.62v-.28c0-.19-.04-.42-.13-.68s-.28-.5-.57-.73-.72-.33-1.27-.33h-1.88c-.24,0-.49.07-.74.22s-.46.34-.62.56-.24.45-.24.66v2.26Z"/>
      <path class="cls-5" d="M226.14,199.63h-.91c0,.05,0,0,0-.16v-5.33c0-.35.13-.69.4-1.02s.59-.6.98-.81.75-.31,1.08-.31h1.71c.53-.02.99.05,1.39.22s.72.39.97.67.44.57.56.88.18.58.18.82v.32s0,.04-.02.18-.05.32-.11.52-.16.42-.3.65-.33.45-.57.65-.55.36-.92.48-.82.16-1.32.14h-3.11v2.1ZM226.14,196.62h3.47c.57,0,1-.12,1.29-.35s.48-.47.57-.73.13-.46.13-.62v-.28c0-.19-.04-.42-.13-.68s-.28-.5-.57-.73-.72-.33-1.27-.33h-1.88c-.24,0-.49.07-.74.22s-.46.34-.62.56-.24.45-.24.66v2.26Z"/>
    </g>
    <g>
      <path class="cls-9" d="M40.5,26.8c.14.02.36.08.68.19.31.11.68.32,1.09.63.41.31.77.78,1.08,1.4.31.62.46,1.41.46,2.36s-.18,1.67-.54,2.27c-.36.6-.79,1.06-1.29,1.35-.5.29-.97.47-1.42.53h-7.62v-8.73h7.57ZM40.44,34.36c.23-.04.52-.14.84-.3.32-.16.63-.46.92-.9.29-.43.43-1.03.43-1.78,0-.88-.15-1.57-.45-2.07-.3-.5-.62-.84-.95-1.01-.33-.18-.61-.28-.84-.32h-6.28v6.38h6.33Z"/>
      <rect class="cls-9" x="44.63" y="26.81" width="1.19" height="8.7"/>
      <path class="cls-9" d="M52.3,29.19c.77-.01,1.46-.13,2.06-.34.61-.22,1.08-.43,1.4-.65.33-.22.55-.38.66-.49l.96-.91v8.75h-1.14v-6.32c-.5.3-1.08.55-1.75.76-.66.21-1.39.32-2.18.33-.83,0-1.61-.1-2.33-.32-.72-.22-1.36-.49-1.92-.82v6.36h-1.14v-8.75l1,.87c.14.13.39.3.75.53.36.23.86.45,1.51.68.64.23,1.35.33,2.11.32"/>
      <rect class="cls-6" x="59.08" y="30.5" width="2.29" height="1.16"/>
      <g>
        <path class="cls-17" d="M62.78,26.74h10v1.2h-8.8v2.4h6.66v1.2h-6.66v4h-1.2v-8.8Z"/>
        <path class="cls-17" d="M81.13,31.02c.24.42.36.94.36,1.56,0-.1,0-.08,0,.06h0v.69c0,.58-.12,1.03-.33,1.34-.22.31-.48.53-.79.63s-.63.17-.97.17c-.34,0-.6.02-.76.02h-3.14c-.49,0-.91-.18-1.26-.54-.35-.36-.52-.79-.52-1.3s.17-.95.52-1.31c.35-.36.77-.55,1.26-.55h4.82c0-.07-.02-.14-.04-.2-.02-.07-.04-.11-.05-.13-.09-.18-.22-.35-.39-.5s-.36-.27-.56-.36c-.21-.08-.43-.12-.65-.12h-4.64v-.94c0-.08,0-.11,0-.08h4.64c.54,0,1.03.14,1.5.42.22.13.41.29.57.47s.31.4.46.65ZM80.43,33.46c0-.09,0-.29-.01-.62h-5.06c-.18,0-.33.08-.47.24-.13.16-.19.36-.19.58s.06.42.19.58c.13.16.29.24.47.24h3.28c.37,0,.67,0,.89-.02s.39-.07.52-.16c.14-.1.23-.22.29-.35.05-.14.08-.3.09-.49Z"/>
        <path class="cls-17" d="M84.29,30.76c-.26.09-.48.22-.65.4s-.3.39-.4.66c-.09.27-.14.53-.14.79s.05.53.14.79.22.48.4.66.39.3.65.4c.26.09.53.14.79.14h4.82v.97h-4.82c-.53,0-1.02-.13-1.48-.4-.45-.26-.81-.62-1.07-1.07-.26-.45-.39-.94-.39-1.48s.13-1.03.39-1.48c.27-.45.62-.81,1.07-1.07.45-.27.95-.4,1.48-.4h4.82v.97h-4.82c-.26,0-.52.05-.79.14Z"/>
        <path class="cls-17" d="M95.66,34.54v.96h-1.81c-.52,0-1.01-.13-1.46-.39-.45-.26-.81-.61-1.07-1.05-.26-.44-.4-.92-.41-1.44v-5.25h.97s0,0,0,.07v2.16h2.27s0,0,0,.07v.89s-.03,0-.08,0h-2.18v2.08c0,.42.11.78.33,1.06s.45.5.69.64c.12.08.3.13.55.15s.44.03.59.02h1.61Z"/>
        <path class="cls-17" d="M102.16,34.4c.26-.09.47-.23.64-.41.17-.17.3-.4.4-.67s.14-.54.14-.81v-3.03h.99v3.03c0,.55-.13,1.05-.39,1.52-.27.46-.63.83-1.08,1.1-.45.27-.94.41-1.47.41h-1.88c-.54,0-1.03-.13-1.48-.41-.45-.27-.81-.64-1.07-1.1-.27-.47-.4-.97-.4-1.52v-3.03h.99s0,0,0,.08v2.95c0,.27.05.54.14.81.09.27.23.49.4.67.17.18.39.32.65.41s.52.14.78.14h1.88c.26,0,.52-.05.78-.14Z"/>
        <path class="cls-17" d="M111.47,30.52h-3.35c-.17,0-.36,0-.57,0s-.41.03-.59.08c-.18.05-.34.15-.48.28-.13.13-.23.29-.29.47-.06.18-.09.34-.09.47,0,.13,0,.37,0,.71v2.92c0,.05-.02.08-.07.08h-.83s-.07-.03-.07-.08v-3.01c0-.12,0-.34,0-.64,0-.3.06-.61.18-.92.12-.31.33-.58.63-.82.19-.15.4-.26.62-.34.22-.08.43-.13.64-.16.2-.03.39-.04.56-.04h3.7v.99Z"/>
        <path class="cls-17" d="M119.64,31.02c.24.42.36.94.36,1.56,0-.1,0-.08,0,.06h0v.69c0,.58-.12,1.03-.33,1.34-.22.31-.48.53-.79.63s-.63.17-.97.17c-.34,0-.6.02-.76.02h-3.14c-.49,0-.91-.18-1.26-.54s-.52-.79-.52-1.3.17-.95.52-1.31c.35-.36.77-.55,1.26-.55h4.83c0-.07-.02-.14-.04-.2s-.04-.11-.06-.13c-.09-.18-.22-.35-.39-.5-.17-.15-.36-.27-.56-.36-.21-.08-.43-.12-.65-.12h-4.64v-.94c0-.08,0-.11,0-.08h4.64c.54,0,1.03.14,1.5.42.22.13.41.29.57.47s.31.4.46.65ZM118.94,33.46c0-.09,0-.29-.01-.62h-5.06c-.18,0-.33.08-.47.24-.13.16-.19.36-.19.58s.06.42.19.58c.13.16.29.24.47.24h3.28c.37,0,.67,0,.89-.02s.39-.07.52-.16c.14-.1.23-.22.29-.35.05-.14.08-.3.09-.49Z"/>
        <path class="cls-17" d="M122.8,30.76c-.26.09-.48.22-.65.4s-.3.39-.4.66c-.09.27-.14.53-.14.79s.05.53.14.79.22.48.4.66.39.3.65.4.53.14.79.14h4.82v.97h-4.82c-.53,0-1.02-.13-1.48-.4-.45-.26-.81-.62-1.07-1.07-.26-.45-.39-.94-.39-1.48s.13-1.03.39-1.48c.27-.45.62-.81,1.07-1.07.45-.27.95-.4,1.48-.4h4.82v.97h-4.82c-.26,0-.52.05-.79.14Z"/>
        <path class="cls-17" d="M130.45,26.75v1.04h-1.04v-1.04h1.04ZM130.45,29.17v6.35h-1.04v-6.35h1.04Z"/>
        <path class="cls-17" d="M135.71,29.63c.53-.02.99.02,1.38.15.39.12.71.29.96.51.25.22.44.45.59.69.14.25.24.48.31.69.06.21.1.4.12.55s.02.22.02.2v.35c0,.25-.06.54-.19.87-.12.33-.32.64-.58.93-.26.3-.6.54-1.01.72-.41.18-.89.26-1.44.23h-1.1c-.55.03-1.03-.05-1.44-.23s-.75-.42-1.01-.72c-.26-.3-.46-.61-.58-.93-.12-.32-.19-.61-.19-.87v-.35s0-.04.02-.2.06-.34.12-.55c.06-.21.17-.44.31-.69.14-.25.34-.48.59-.69.25-.22.57-.39.96-.51.39-.12.85-.17,1.38-.15h.8ZM136.09,34.54c.73,0,1.25-.18,1.54-.53.3-.35.47-.73.51-1.14v-.17s.01-.28.01-.28v-.18c-.06-.38-.23-.75-.52-1.11-.29-.36-.81-.54-1.54-.54h-1.56c-.74,0-1.25.18-1.54.54-.29.36-.46.73-.5,1.11l-.02.18v.26l.02.18c.04.4.21.78.51,1.14.3.35.81.53,1.54.53h1.56ZM136.05,27.44h1.2s-.75.77-.75.77l-.79.75h-.74l1.08-1.53Z"/>
        <path class="cls-17" d="M147.2,31.03c.26.46.39.96.39,1.51v3h-.99v-3c0-.27-.05-.54-.14-.81s-.22-.49-.4-.67c-.17-.18-.38-.31-.64-.41-.26-.09-.51-.14-.77-.14h-1.86c-.5,0-1.15,0-1.95,0,0-.23,0-.02,0,.65s0,1.1,0,1.31v3.07h-.99v-6.01h4.79c.52,0,1.01.13,1.47.4.45.27.81.64,1.07,1.1Z"/>
        <path class="cls-17" d="M150.72,26.76h8.79v1.2h-7.59v2.4h7.59v1.2h-7.59v2.8h7.59v1.2h-8.79v-8.79Z"/>
        <path class="cls-17" d="M161.01,26.75h1.05s0,0,0,0v5.65c0,.41.1.78.3,1.1.2.32.44.57.73.75.29.18.57.27.83.27h2.15v1.05h-2.18c-.55,0-1.04-.17-1.48-.51-.44-.34-.78-.76-1.02-1.27s-.37-1.01-.37-1.49v-5.29c0-.27,0-.35,0-.26Z"/>
        <path class="cls-17" d="M173.81,29.97c.29.23.48.49.57.77s.14.53.15.74c0,1.05-.58,1.6-1.76,1.66h-4.67s0,.25,0,.25c0,.27.02.49.07.64.05.16.13.27.25.34.11.07.27.12.46.15.19.02.47.04.82.04h4.36c.13,0,.19.06.19.18v.59c0,.13-.06.19-.19.19h-4.51c-.63,0-1.12-.07-1.48-.21s-.62-.36-.77-.67-.23-.72-.23-1.24v-1.5c0-.35.13-.7.4-1.05s.61-.65,1.02-.88c.42-.23.84-.35,1.28-.35h2.84c.52,0,.92.12,1.21.35ZM173.12,32.1c.09-.03.17-.09.26-.19.06-.07.11-.15.13-.24s.04-.21.05-.37c0-.07-.02-.16-.06-.27-.04-.11-.11-.21-.22-.3-.11-.09-.26-.14-.45-.14h-3.1c-.22,0-.46.07-.72.21s-.47.33-.65.56c-.18.24-.27.5-.27.79h4.61c.19,0,.33-.02.42-.05Z"/>
        <path class="cls-17" d="M177.52,30.76c-.26.09-.48.22-.65.4-.17.17-.3.39-.4.66-.09.27-.14.53-.14.79s.05.53.14.79.22.48.4.66c.17.17.39.3.65.4s.53.14.79.14h4.82v.97h-4.82c-.53,0-1.02-.13-1.48-.4-.45-.26-.81-.62-1.07-1.07-.26-.45-.39-.94-.39-1.48s.13-1.03.39-1.48c.27-.45.62-.81,1.07-1.07.45-.27.95-.4,1.48-.4h4.82v.97h-4.82c-.26,0-.52.05-.79.14Z"/>
        <path class="cls-17" d="M188.9,34.54v.96h-1.81c-.52,0-1.01-.13-1.46-.39-.45-.26-.8-.61-1.07-1.05-.26-.44-.4-.92-.41-1.44v-5.25h.97s0,0,0,.07v2.16h2.27s0,0,0,.07v.89s-.03,0-.09,0h-2.18v2.08c0,.42.11.78.33,1.06s.45.5.69.64c.12.08.3.13.54.15s.44.03.59.02h1.61Z"/>
        <path class="cls-17" d="M196.3,30.52h-3.35c-.17,0-.36,0-.57,0-.21,0-.41.03-.59.08s-.34.15-.48.28c-.13.13-.23.29-.29.47-.06.18-.09.34-.09.47,0,.13,0,.37,0,.71v2.92c0,.05-.02.08-.07.08h-.83s-.07-.03-.07-.08v-3.01c0-.12,0-.34,0-.64s.06-.61.18-.92c.12-.31.33-.58.63-.82.19-.15.4-.26.62-.34.22-.08.44-.13.64-.16.2-.03.39-.04.56-.04h3.7v.99Z"/>
        <path class="cls-17" d="M201.32,29.63c.53-.02.99.02,1.38.15.39.12.71.29.96.51.25.22.44.45.58.69.14.25.24.48.31.69.06.21.1.4.12.55.02.16.02.22.02.2v.35c0,.25-.06.54-.19.87-.12.33-.32.64-.58.93-.26.3-.6.54-1.01.72-.41.18-.89.26-1.44.23h-1.1c-.55.03-1.03-.05-1.44-.23-.42-.18-.75-.42-1.01-.72-.26-.3-.46-.61-.58-.93-.12-.32-.19-.61-.19-.87v-.35s0-.04.02-.2.06-.34.12-.55c.06-.21.17-.44.31-.69.14-.25.34-.48.59-.69.25-.22.57-.39.96-.51.39-.12.85-.17,1.38-.15h.8ZM201.7,34.54c.73,0,1.25-.18,1.54-.53.3-.35.47-.73.51-1.14v-.17s.01-.28.01-.28v-.18c-.06-.38-.23-.75-.52-1.11-.29-.36-.81-.54-1.54-.54h-1.56c-.74,0-1.25.18-1.54.54-.29.36-.46.73-.5,1.11l-.02.18v.26l.02.18c.04.4.21.78.51,1.14.3.35.81.53,1.54.53h1.56ZM201.66,27.44h1.2s-.75.77-.75.77l-.78.75h-.74l1.08-1.53Z"/>
        <path class="cls-17" d="M212.81,31.03c.26.46.39.96.39,1.51v3h-.99v-3c0-.27-.05-.54-.14-.81s-.22-.49-.4-.67c-.17-.18-.38-.31-.64-.41-.26-.09-.51-.14-.77-.14h-1.86c-.5,0-1.15,0-1.95,0,0-.23,0-.02,0,.65,0,.67,0,1.1,0,1.31v3.07h-.99v-6.01h4.79c.52,0,1.01.13,1.47.4.45.27.81.64,1.07,1.1Z"/>
        <path class="cls-17" d="M215.27,26.75v1.04h-1.04v-1.04h1.04ZM215.27,29.17v6.35h-1.04v-6.35h1.04Z"/>
        <path class="cls-17" d="M218.38,30.76c-.26.09-.48.22-.65.4-.17.17-.3.39-.4.66-.09.27-.14.53-.14.79s.05.53.14.79c.09.27.22.48.4.66.17.17.39.3.65.4s.53.14.79.14h4.82v.97h-4.82c-.53,0-1.02-.13-1.48-.4-.45-.26-.81-.62-1.07-1.07-.26-.45-.39-.94-.39-1.48s.13-1.03.39-1.48c.27-.45.62-.81,1.07-1.07.45-.27.95-.4,1.48-.4h4.82v.97h-4.82c-.26,0-.52.05-.79.14Z"/>
        <path class="cls-17" d="M232.13,31.02c.24.42.36.94.36,1.56,0-.1,0-.08,0,.06h0v.69c0,.58-.12,1.03-.33,1.34-.22.31-.48.53-.79.63s-.63.17-.97.17c-.34,0-.6.02-.76.02h-3.15c-.49,0-.91-.18-1.26-.54-.35-.36-.52-.79-.52-1.3s.17-.95.52-1.31c.35-.36.77-.55,1.26-.55h4.83c0-.07-.02-.14-.04-.2s-.04-.11-.05-.13c-.09-.18-.23-.35-.39-.5-.17-.15-.36-.27-.56-.36-.21-.08-.42-.12-.65-.12h-4.64v-.94c0-.08,0-.11,0-.08h4.64c.54,0,1.03.14,1.5.42.22.13.41.29.57.47.16.18.31.4.46.65ZM231.43,33.46c0-.09,0-.29-.01-.62h-5.06c-.18,0-.33.08-.47.24-.13.16-.19.36-.19.58s.06.42.19.58c.13.16.29.24.47.24h3.28c.37,0,.67,0,.89-.02.22-.01.39-.07.52-.16.14-.1.23-.22.29-.35.05-.14.08-.3.1-.49Z"/>
      </g>
    </g>
    <g>
      <path class="cls-5" d="M222.11,99.79c0,.77-.66,1.39-1.47,1.39h-55.52c-.81,0-1.47-.63-1.47-1.39v-31.31c0-.76.66-1.39,1.47-1.39h55.53c.81,0,1.47.62,1.47,1.39v31.3Z"/>
      <path class="cls-7" d="M220,97.47c0,.82-.71,1.49-1.58,1.49h-51.08c-.87,0-1.58-.67-1.58-1.49v-26.66c0-.82.71-1.49,1.58-1.49h51.08c.86,0,1.58.68,1.58,1.49v26.66Z"/>
      <polygon class="cls-5" points="222.1 101.18 163.57 101.18 153.27 110.62 232.5 110.62 222.1 101.18"/>
      <path class="cls-11" d="M231.64,112.41h-77.46c-.51,0-.91-.41-.91-.91v-.86s.01-.03.03-.03h79.17s.03.01.03.03v.92c0,.47-.38.85-.85.85"/>
      <path class="cls-4" d="M199.57,109.66h-13.38c-.44,0-.8-.36-.8-.8s.36-.8.8-.8h13.38c.44,0,.8.36.8.8s-.36.8-.8.8"/>
      <polygon class="cls-4" points="205.43 106.78 180.15 106.78 183.7 104.34 201.81 104.34 205.43 106.78"/>
      <rect class="cls-16" x="178.39" y="51.21" width="32.03" height="39.05"/>
      <rect class="cls-4" x="178.37" y="53.14" width="30.43" height="37.08"/>
      <rect class="cls-16" x="175.02" y="54.96" width="32.03" height="39.05"/>
      <polygon class="cls-4" points="203.68 74.07 195.86 74.05 195.88 70 203.7 70.02 203.68 74.07"/>
      <polygon class="cls-4" points="192.1 73.85 177.74 73.81 177.75 69.77 192.11 69.8 192.1 73.85"/>
      <path class="cls-4" d="M197.44,86.22h-18.35c-.48,0-.87.39-.87.87s.39.87.87.87h18.35c.48,0,.87-.39.87-.87s-.39-.87-.87-.87"/>
      <path class="cls-4" d="M201.91,82.38h-22.82c-.48,0-.87.39-.87.87s.39.87.87.87h22.82c.48,0,.87-.39.87-.87s-.39-.87-.87-.87"/>
      <path class="cls-4" d="M202.02,78.72h-22.82c-.48,0-.87.39-.87.87s.39.87.87.87h22.82c.48,0,.87-.39.87-.87s-.39-.87-.87-.87"/>
      <path class="cls-4" d="M192.37,64.21h-13.94c-.48,0-.87.39-.87.87s.39.87.87.87h13.94c.48,0,.87-.39.87-.87s-.39-.87-.87-.87"/>
      <path class="cls-4" d="M192.44,60.55h-13.94c-.48,0-.87.39-.87.87s.39.87.87.87h13.94c.48,0,.87-.39.87-.87s-.39-.87-.87-.87"/>
      <path class="cls-14" d="M221.5,67.38c0,5.86-4.75,10.61-10.61,10.61s-10.61-4.75-10.61-10.61,4.75-10.61,10.61-10.61,10.61,4.75,10.61,10.61"/>
      <path class="cls-4" d="M219.89,67.38c0,4.98-4.03,9.01-9.01,9.01s-9.01-4.03-9.01-9.01,4.03-9.01,9.01-9.01,9.01,4.03,9.01,9.01"/>
      <path class="cls-5" d="M214.63,71.87c-.29.52-.71.95-1.26,1.3-.55.35-1.22.54-1.99.59v1.45h-.97v-1.45c-1.08-.1-1.97-.44-2.65-1.05-.68-.6-1.03-1.37-1.04-2.3h1.73c.05.5.24.94.56,1.31.33.37.79.6,1.39.7v-4.47c-.8-.2-1.44-.41-1.93-.63-.49-.21-.91-.55-1.25-1-.35-.45-.52-1.06-.52-1.82,0-.97.34-1.76,1.01-2.4.67-.63,1.57-.98,2.69-1.06v-1.48h.97v1.48c1.01.08,1.83.41,2.45.98.62.57.98,1.3,1.07,2.21h-1.74c-.06-.42-.24-.8-.55-1.14-.31-.34-.72-.56-1.23-.67v4.36c.79.2,1.43.41,1.92.62.49.21.91.54,1.25.99.34.45.51,1.07.51,1.84,0,.57-.14,1.12-.43,1.64M208.89,65.75c.35.31.85.57,1.52.77v-4.13c-.62.06-1.11.26-1.48.6-.37.34-.56.81-.56,1.42s.17,1.03.52,1.34M212.88,71.74c.36-.39.55-.86.55-1.41,0-.58-.18-1.03-.54-1.35-.36-.32-.87-.57-1.52-.76v4.22c.64-.07,1.15-.3,1.51-.7"/>
    </g>
    <g>
      <path class="cls-4" d="M14.84.27L.55,4.78l14.33,11.12,14.04-10.84L14.84.27ZM20.37,10.39l-3.12,2.39-2.66-1.71,2.04-1.67c.37-.33.48-.56.48-.56v-3.18c.03-.54-.73-.85-.73-.85-.94-.45-2.38-.43-2.38-.43-1.33-.02-3.8.92-3.8.92v2.95l-3.69-2.37c2.35-.95,3.42-1.2,3.42-1.2,2.33-.65,3.96-.69,3.96-.69,2.61-.14,4.69.58,4.69.58,2.07.57,2.93,1.3,2.93,1.3,1.72,1.29,1.33,2.61,1.33,2.61-.27.24-2.47,1.91-2.47,1.91"/>
      <polygon class="cls-9" points=".02 8.24 .02 4.69 14.92 16.03 29.45 4.96 29.45 8.22 14.87 21.46 .02 8.24"/>
      <path class="cls-9" d="M6.42,5.9l-2.39-1.48s3.15-1.23,5.77-1.73,3.58-.53,5.07-.47c1.5.06,4.37.63,6.26,1.55,1.89.93,2.29,1.89,2.4,2.42.12.53.09,1.75-.34,2.13l-.42.38s.31-.69-.13-1.56c-.44-.87-1.39-1.7-3.12-2.29-1.73-.59-3.27-.92-5.14-.89-1.86.03-3.56.44-4.87.82-1.3.38-3.09,1.11-3.09,1.11"/>
      <path class="cls-9" d="M10.2,5.37v2.94l4.29,2.83s.94-.73,1.6-1.28c.66-.54.94-.87,1.01-1.03v-3.24s.08.51-1.06,1.15c-1.13.64-1.49.85-1.49.85l-4.35-2.21Z"/>
      <path class="cls-9" d="M14.88,16.23L0,4.68,14.85,0h.04s14.57,4.97,14.57,4.97l-14.57,11.26ZM.55,4.78l14.34,11.12,14.04-10.84L14.84.27.55,4.78Z"/>
      <path class="cls-9" d="M17.27,13.09l-.07-.05L3.75,4.39l.23-.09s3.19-1.24,5.8-1.74c1.92-.37,3-.49,4.14-.49.27,0,.57,0,.95.02,1.62.06,4.5.68,6.31,1.57,1.43.7,2.26,1.54,2.47,2.51.12.56.1,1.82-.38,2.25l-.43.38-5.59,4.29ZM4.32,4.45l12.94,8.32,5.44-4.17.42-.38c.38-.34.41-1.51.3-2-.2-.89-.98-1.67-2.33-2.33-1.78-.87-4.61-1.48-6.2-1.54-.38-.01-.68-.02-.94-.02-.97,0-1.94.08-4.1.49-2.17.41-4.73,1.34-5.51,1.63"/>
      <path class="cls-9" d="M14.47,7.64l-4.29-2.19.04-.07-.03-.08c.1-.04,2.43-.93,3.82-.93h.03c1.45.01,2.38.36,2.77.69.36.3.41.63.16,1.02-.18.28-.7.67-1.43,1.05-.71.38-1.02.5-1.03.51h-.03ZM10.32,5.39l4.15,2.12c.09-.04.4-.18.99-.49.7-.37,1.21-.74,1.38-1,.21-.33.17-.6-.13-.85-.37-.31-1.27-.65-2.69-.66h-.03c-1.21,0-3.21.72-3.68.89"/>
      <path class="cls-9" d="M40.5,6.74c.14.02.36.08.68.19.31.11.68.32,1.09.63.41.31.77.78,1.08,1.4.31.62.46,1.41.46,2.36s-.18,1.67-.54,2.27c-.36.61-.79,1.06-1.29,1.35-.5.29-.97.47-1.42.53h-7.62V6.73h7.57ZM40.44,14.29c.23-.04.52-.14.84-.3.32-.16.63-.46.92-.9.29-.43.43-1.03.43-1.78,0-.88-.15-1.57-.45-2.07-.3-.5-.62-.84-.95-1.01-.33-.18-.61-.28-.84-.32h-6.28v6.38h6.33Z"/>
      <rect class="cls-9" x="44.63" y="6.75" width="1.19" height="8.7"/>
      <path class="cls-9" d="M52.3,9.12c.77-.01,1.46-.13,2.06-.34.61-.22,1.08-.43,1.4-.65.33-.22.55-.38.66-.49l.96-.91v8.75h-1.14v-6.32c-.5.3-1.08.55-1.75.76-.66.21-1.39.32-2.18.33-.83,0-1.61-.1-2.33-.32-.72-.22-1.36-.49-1.92-.82v6.36h-1.14V6.73l1,.86c.14.13.39.3.75.53.36.23.86.45,1.51.68.64.23,1.35.33,2.11.32"/>
      <rect class="cls-6" x="59.08" y="10.44" width="2.29" height="1.16"/>
      <g>
        <path class="cls-17" d="M62.78,6.68h10v1.2h-8.8v2.4h6.66v1.2h-6.66v4h-1.2V6.68Z"/>
        <path class="cls-17" d="M81.13,10.95c.24.42.36.94.36,1.56,0-.1,0-.08,0,.06h0v.69c0,.58-.12,1.03-.33,1.34-.22.31-.48.53-.79.63s-.63.17-.97.17c-.34,0-.6.02-.76.02h-3.14c-.49,0-.91-.18-1.26-.54-.35-.36-.52-.79-.52-1.3s.17-.95.52-1.31c.35-.36.77-.55,1.26-.55h4.82c0-.07-.02-.14-.04-.2-.02-.07-.04-.11-.05-.13-.09-.18-.22-.35-.39-.5s-.36-.27-.56-.36c-.21-.08-.43-.12-.65-.12h-4.64v-.94c0-.08,0-.11,0-.08h4.64c.54,0,1.03.14,1.5.42.22.13.41.29.57.47s.31.4.46.65ZM80.43,13.4c0-.09,0-.29-.01-.62h-5.06c-.18,0-.33.08-.47.24-.13.16-.19.36-.19.58s.06.42.19.58c.13.16.29.24.47.24h3.28c.37,0,.67,0,.89-.02s.39-.07.52-.16c.14-.1.23-.22.29-.35.05-.14.08-.3.09-.49Z"/>
        <path class="cls-17" d="M84.29,10.69c-.26.09-.48.22-.65.4s-.3.39-.4.66c-.09.27-.14.53-.14.79s.05.53.14.79.22.48.4.66.39.3.65.4c.26.09.53.14.79.14h4.82v.97h-4.82c-.53,0-1.02-.13-1.48-.4-.45-.26-.81-.62-1.07-1.07-.26-.45-.39-.94-.39-1.48s.13-1.03.39-1.48c.27-.45.62-.81,1.07-1.07.45-.27.95-.4,1.48-.4h4.82v.97h-4.82c-.26,0-.52.05-.79.14Z"/>
        <path class="cls-17" d="M95.66,14.48v.96h-1.81c-.52,0-1.01-.13-1.46-.39-.45-.26-.81-.61-1.07-1.05-.26-.44-.4-.92-.41-1.44v-5.25h.97s0,0,0,.07v2.16h2.27s0,0,0,.07v.89s-.03,0-.08,0h-2.18v2.08c0,.42.11.78.33,1.06s.45.5.69.64c.12.08.3.13.55.15s.44.03.59.02h1.61Z"/>
        <path class="cls-17" d="M102.16,14.34c.26-.09.47-.23.64-.41.17-.17.3-.4.4-.67s.14-.54.14-.81v-3.03h.99v3.03c0,.55-.13,1.05-.39,1.52-.27.46-.63.83-1.08,1.1-.45.27-.94.41-1.47.41h-1.88c-.54,0-1.03-.13-1.48-.41-.45-.27-.81-.64-1.07-1.1-.27-.47-.4-.97-.4-1.52v-3.03h.99s0,0,0,.08v2.95c0,.27.05.54.14.81.09.27.23.49.4.67.17.18.39.32.65.41s.52.14.78.14h1.88c.26,0,.52-.05.78-.14Z"/>
        <path class="cls-17" d="M111.47,10.46h-3.35c-.17,0-.36,0-.57,0s-.41.03-.59.08c-.18.05-.34.15-.48.28-.13.13-.23.29-.29.47-.06.18-.09.34-.09.47,0,.13,0,.37,0,.71v2.92c0,.05-.02.08-.07.08h-.83s-.07-.03-.07-.08v-3.01c0-.12,0-.34,0-.64,0-.3.06-.61.18-.92.12-.31.33-.58.63-.82.19-.15.4-.26.62-.34.22-.08.43-.13.64-.16.2-.03.39-.04.56-.04h3.7v.99Z"/>
        <path class="cls-17" d="M119.64,10.95c.24.42.36.94.36,1.56,0-.1,0-.08,0,.06h0v.69c0,.58-.12,1.03-.33,1.34-.22.31-.48.53-.79.63s-.63.17-.97.17c-.34,0-.6.02-.76.02h-3.14c-.49,0-.91-.18-1.26-.54s-.52-.79-.52-1.3.17-.95.52-1.31c.35-.36.77-.55,1.26-.55h4.83c0-.07-.02-.14-.04-.2s-.04-.11-.06-.13c-.09-.18-.22-.35-.39-.5-.17-.15-.36-.27-.56-.36-.21-.08-.43-.12-.65-.12h-4.64v-.94c0-.08,0-.11,0-.08h4.64c.54,0,1.03.14,1.5.42.22.13.41.29.57.47s.31.4.46.65ZM118.94,13.4c0-.09,0-.29-.01-.62h-5.06c-.18,0-.33.08-.47.24-.13.16-.19.36-.19.58s.06.42.19.58c.13.16.29.24.47.24h3.28c.37,0,.67,0,.89-.02s.39-.07.52-.16c.14-.1.23-.22.29-.35.05-.14.08-.3.09-.49Z"/>
        <path class="cls-17" d="M122.8,10.69c-.26.09-.48.22-.65.4s-.3.39-.4.66c-.09.27-.14.53-.14.79s.05.53.14.79.22.48.4.66.39.3.65.4.53.14.79.14h4.82v.97h-4.82c-.53,0-1.02-.13-1.48-.4-.45-.26-.81-.62-1.07-1.07-.26-.45-.39-.94-.39-1.48s.13-1.03.39-1.48c.27-.45.62-.81,1.07-1.07.45-.27.95-.4,1.48-.4h4.82v.97h-4.82c-.26,0-.52.05-.79.14Z"/>
        <path class="cls-17" d="M130.45,6.69v1.04h-1.04v-1.04h1.04ZM130.45,9.11v6.35h-1.04v-6.35h1.04Z"/>
        <path class="cls-17" d="M135.71,9.57c.53-.02.99.02,1.38.15.39.12.71.29.96.51.25.22.44.45.59.69.14.25.24.48.31.69.06.21.1.4.12.55s.02.22.02.2v.35c0,.25-.06.54-.19.87-.12.33-.32.64-.58.93-.26.3-.6.54-1.01.72-.41.18-.89.26-1.44.23h-1.1c-.55.03-1.03-.05-1.44-.23s-.75-.42-1.01-.72c-.26-.3-.46-.61-.58-.93-.12-.32-.19-.61-.19-.87v-.35s0-.04.02-.2.06-.34.12-.55c.06-.21.17-.44.31-.69.14-.25.34-.48.59-.69.25-.22.57-.39.96-.51.39-.12.85-.17,1.38-.15h.8ZM136.09,14.48c.73,0,1.25-.18,1.54-.53.3-.35.47-.73.51-1.14v-.17s.01-.28.01-.28v-.18c-.06-.38-.23-.75-.52-1.11-.29-.36-.81-.54-1.54-.54h-1.56c-.74,0-1.25.18-1.54.54-.29.36-.46.73-.5,1.11l-.02.18v.26l.02.18c.04.4.21.78.51,1.14.3.35.81.53,1.54.53h1.56ZM136.05,7.37h1.2s-.75.77-.75.77l-.79.75h-.74l1.08-1.53Z"/>
        <path class="cls-17" d="M147.2,10.97c.26.46.39.96.39,1.51v3h-.99v-3c0-.27-.05-.54-.14-.81s-.22-.49-.4-.67c-.17-.18-.38-.31-.64-.41-.26-.09-.51-.14-.77-.14h-1.86c-.5,0-1.15,0-1.95,0,0-.23,0-.02,0,.65s0,1.1,0,1.31v3.07h-.99v-6.01h4.79c.52,0,1.01.13,1.47.4.45.27.81.64,1.07,1.1Z"/>
        <path class="cls-17" d="M150.72,6.7h8.79v1.2h-7.59v2.4h7.59v1.2h-7.59v2.8h7.59v1.2h-8.79V6.7Z"/>
        <path class="cls-17" d="M161.01,6.69h1.05s0,0,0,0v5.65c0,.41.1.78.3,1.1.2.32.44.57.73.75.29.18.57.27.83.27h2.15v1.05h-2.18c-.55,0-1.04-.17-1.48-.51-.44-.34-.78-.76-1.02-1.27s-.37-1.01-.37-1.49v-5.29c0-.27,0-.35,0-.26Z"/>
        <path class="cls-17" d="M173.81,9.91c.29.23.48.49.57.77s.14.53.15.74c0,1.05-.58,1.6-1.76,1.66h-4.67s0,.25,0,.25c0,.27.02.49.07.64.05.16.13.27.25.34.11.07.27.12.46.15.19.02.47.04.82.04h4.36c.13,0,.19.06.19.18v.59c0,.13-.06.19-.19.19h-4.51c-.63,0-1.12-.07-1.48-.21s-.62-.36-.77-.67-.23-.72-.23-1.24v-1.5c0-.35.13-.7.4-1.05s.61-.65,1.02-.88c.42-.23.84-.35,1.28-.35h2.84c.52,0,.92.12,1.21.35ZM173.12,12.04c.09-.03.17-.09.26-.19.06-.07.11-.15.13-.24s.04-.21.05-.37c0-.07-.02-.16-.06-.27-.04-.11-.11-.21-.22-.3-.11-.09-.26-.14-.45-.14h-3.1c-.22,0-.46.07-.72.21s-.47.33-.65.56c-.18.24-.27.5-.27.79h4.61c.19,0,.33-.02.42-.05Z"/>
        <path class="cls-17" d="M177.52,10.69c-.26.09-.48.22-.65.4-.17.17-.3.39-.4.66-.09.27-.14.53-.14.79s.05.53.14.79.22.48.4.66c.17.17.39.3.65.4s.53.14.79.14h4.82v.97h-4.82c-.53,0-1.02-.13-1.48-.4-.45-.26-.81-.62-1.07-1.07-.26-.45-.39-.94-.39-1.48s.13-1.03.39-1.48c.27-.45.62-.81,1.07-1.07.45-.27.95-.4,1.48-.4h4.82v.97h-4.82c-.26,0-.52.05-.79.14Z"/>
        <path class="cls-17" d="M188.89,14.48v.96h-1.81c-.52,0-1.01-.13-1.46-.39-.45-.26-.8-.61-1.07-1.05-.26-.44-.4-.92-.41-1.44v-5.25h.97s0,0,0,.07v2.16h2.27s0,0,0,.07v.89s-.03,0-.09,0h-2.18v2.08c0,.42.11.78.33,1.06s.45.5.69.64c.12.08.3.13.54.15s.44.03.59.02h1.61Z"/>
        <path class="cls-17" d="M196.3,10.46h-3.35c-.17,0-.36,0-.57,0-.21,0-.41.03-.59.08s-.34.15-.48.28c-.14.13-.23.29-.29.47-.06.18-.09.34-.09.47,0,.13,0,.37,0,.71v2.92c0,.05-.02.08-.07.08h-.83s-.07-.03-.07-.08v-3.01c0-.12,0-.34,0-.64s.06-.61.18-.92c.12-.31.33-.58.63-.82.19-.15.4-.26.62-.34.22-.08.44-.13.64-.16.2-.03.39-.04.56-.04h3.7v.99Z"/>
        <path class="cls-17" d="M201.32,9.57c.53-.02.99.02,1.38.15.39.12.71.29.96.51.25.22.44.45.58.69.14.25.24.48.31.69.06.21.1.4.12.55.02.16.02.22.02.2v.35c0,.25-.06.54-.19.87-.12.33-.32.64-.58.93-.26.3-.6.54-1.01.72-.41.18-.89.26-1.44.23h-1.1c-.55.03-1.03-.05-1.44-.23-.42-.18-.75-.42-1.01-.72-.26-.3-.46-.61-.58-.93-.12-.32-.19-.61-.19-.87v-.35s0-.04.02-.2.06-.34.12-.55c.06-.21.17-.44.31-.69.14-.25.34-.48.59-.69.25-.22.57-.39.96-.51.39-.12.85-.17,1.38-.15h.8ZM201.7,14.48c.73,0,1.25-.18,1.54-.53.3-.35.47-.73.51-1.14v-.17s.01-.28.01-.28v-.18c-.06-.38-.23-.75-.52-1.11-.29-.36-.81-.54-1.54-.54h-1.56c-.74,0-1.25.18-1.54.54-.29.36-.46.73-.5,1.11l-.02.18v.26l.02.18c.04.4.21.78.51,1.14.3.35.81.53,1.54.53h1.56ZM201.66,7.37h1.2s-.75.77-.75.77l-.78.75h-.74l1.08-1.53Z"/>
        <path class="cls-17" d="M212.81,10.97c.26.46.39.96.39,1.51v3h-.99v-3c0-.27-.05-.54-.14-.81s-.22-.49-.4-.67c-.17-.18-.38-.31-.64-.41-.26-.09-.51-.14-.77-.14h-1.86c-.5,0-1.15,0-1.95,0,0-.23,0-.02,0,.65,0,.67,0,1.1,0,1.31v3.07h-.99v-6.01h4.79c.52,0,1.01.13,1.47.4.45.27.81.64,1.07,1.1Z"/>
        <path class="cls-17" d="M215.27,6.69v1.04h-1.04v-1.04h1.04ZM215.27,9.11v6.35h-1.04v-6.35h1.04Z"/>
        <path class="cls-17" d="M218.38,10.69c-.26.09-.48.22-.65.4-.17.17-.3.39-.4.66-.09.27-.14.53-.14.79s.05.53.14.79c.09.27.22.48.4.66.17.17.39.3.65.4s.53.14.79.14h4.82v.97h-4.82c-.53,0-1.02-.13-1.48-.4-.45-.26-.81-.62-1.07-1.07-.26-.45-.39-.94-.39-1.48s.13-1.03.39-1.48c.27-.45.62-.81,1.07-1.07.45-.27.95-.4,1.48-.4h4.82v.97h-4.82c-.26,0-.52.05-.79.14Z"/>
        <path class="cls-17" d="M232.13,10.95c.24.42.36.94.36,1.56,0-.1,0-.08,0,.06h0v.69c0,.58-.12,1.03-.33,1.34-.22.31-.48.53-.79.63s-.63.17-.98.17c-.34,0-.6.02-.76.02h-3.15c-.49,0-.91-.18-1.26-.54-.35-.36-.52-.79-.52-1.3s.17-.95.52-1.31c.35-.36.77-.55,1.26-.55h4.83c0-.07-.02-.14-.04-.2s-.04-.11-.05-.13c-.09-.18-.23-.35-.39-.5-.17-.15-.36-.27-.56-.36-.21-.08-.42-.12-.65-.12h-4.64v-.94c0-.08,0-.11,0-.08h4.64c.54,0,1.03.14,1.5.42.22.13.41.29.57.47.16.18.31.4.46.65ZM231.43,13.4c0-.09,0-.29-.01-.62h-5.06c-.18,0-.33.08-.47.24-.13.16-.19.36-.19.58s.06.42.19.58c.13.16.29.24.47.24h3.28c.37,0,.67,0,.89-.02.22-.01.39-.07.52-.16.14-.1.23-.22.29-.35.05-.14.08-.3.1-.49Z"/>
      </g>
      <g>
        <path class="cls-3" d="M166.65,21.38h-.28s0,0,0-.05v-1.65c0-.11.04-.21.12-.32s.18-.19.3-.25c.12-.07.23-.1.33-.1h.53c.16,0,.31.02.43.07.12.05.22.12.3.21.08.09.14.18.17.27.04.09.06.18.06.25v.1s0,.01,0,.06c0,.04-.02.1-.04.16-.02.06-.05.13-.09.2-.04.07-.1.14-.17.2-.08.06-.17.11-.29.15-.12.04-.25.05-.41.04h-.96v.65ZM166.65,20.45h1.08c.17,0,.31-.04.4-.11.09-.07.15-.15.17-.22s.04-.14.04-.19v-.09c0-.06-.01-.13-.04-.21-.03-.08-.09-.16-.18-.23s-.22-.1-.39-.1h-.58c-.08,0-.15.02-.23.07-.08.05-.14.1-.19.17s-.07.14-.07.2v.7Z"/>
        <path class="cls-3" d="M171.06,19.26h-.99s-.11,0-.17,0c-.06,0-.12,0-.17.02-.05.02-.1.04-.14.08-.04.04-.07.08-.08.14s-.03.1-.03.14c0,.04,0,.11,0,.21v.87s0,.02-.02.02h-.25s-.02,0-.02-.02v-.89s0-.1,0-.19c0-.09.02-.18.05-.27.04-.09.1-.17.19-.24.06-.04.12-.08.18-.1.07-.02.13-.04.19-.05s.12-.01.17-.01h1.1v.29Z"/>
        <path class="cls-3" d="M172.87,18.99c.16,0,.29,0,.41.04.12.04.21.09.28.15.07.06.13.13.17.21.04.07.07.14.09.2s.03.12.04.16,0,.07,0,.06v.1c0,.08-.02.16-.05.26-.04.1-.09.19-.17.28-.08.09-.18.16-.3.21s-.26.08-.43.07h-.33c-.16,0-.31-.01-.43-.07-.12-.05-.22-.12-.3-.21-.08-.09-.13-.18-.17-.28-.04-.1-.06-.18-.06-.26v-.1s0-.01,0-.06.02-.1.04-.16.05-.13.09-.2c.04-.07.1-.14.17-.21.07-.06.17-.12.28-.15.11-.04.25-.05.41-.04h.24ZM172.98,20.45c.22,0,.37-.05.46-.16s.14-.22.15-.34v-.05s0-.08,0-.08v-.05c-.02-.11-.07-.22-.15-.33-.09-.11-.24-.16-.46-.16h-.46c-.22,0-.37.05-.46.16-.09.11-.14.22-.15.33v.05s0,.08,0,.08v.05c.02.12.07.23.16.34.09.1.24.16.46.16h.46Z"/>
        <path class="cls-3" d="M176.44,18.35h.28s0,0,0,.05v1.68c0,.12-.01.22-.04.3s-.07.15-.12.2c-.06.05-.13.09-.22.11-.09.02-.21.04-.35.04h-.57c-.16,0-.31-.01-.43-.07-.12-.05-.23-.12-.3-.21-.08-.09-.14-.18-.17-.27-.04-.1-.06-.18-.06-.26v-.1s0-.01,0-.06c0-.05.02-.1.04-.16.02-.06.05-.13.09-.2.04-.07.1-.14.17-.2.08-.06.17-.11.29-.15.12-.04.25-.05.41-.04h.97v-.66ZM176.44,19.29h-1.08c-.18,0-.31.04-.4.11s-.15.15-.18.23c-.03.08-.04.14-.04.19v.08c0,.06.01.13.04.21.03.08.09.16.18.23.09.07.22.1.4.1h.75c.09,0,.15-.02.2-.06.05-.04.08-.09.1-.15.02-.07.03-.15.03-.24v-.71Z"/>
        <path class="cls-3" d="M178.92,20.4c.08-.03.14-.07.19-.12s.09-.12.12-.2c.03-.08.04-.16.04-.24v-.9h.29v.9c0,.16-.04.31-.12.45-.08.14-.19.25-.32.33-.13.08-.28.12-.44.12h-.56c-.16,0-.3-.04-.44-.12-.13-.08-.24-.19-.32-.33-.08-.14-.12-.29-.12-.45v-.9h.29s0,0,0,.02v.87c0,.08.01.16.04.24.03.08.07.15.12.2s.11.09.19.12c.08.03.15.04.23.04h.56c.08,0,.15-.01.23-.04Z"/>
        <path class="cls-3" d="M180.7,19.33c-.08.03-.14.07-.19.12s-.09.12-.12.19c-.03.08-.04.16-.04.23s.01.16.04.23c.03.08.07.14.12.19s.12.09.19.12.16.04.23.04h1.43v.29h-1.43c-.16,0-.3-.04-.44-.12-.13-.08-.24-.18-.32-.32-.08-.13-.12-.28-.12-.44s.04-.3.12-.44c.08-.13.18-.24.32-.32.13-.08.28-.12.44-.12h1.43v.29h-1.43c-.08,0-.16.01-.23.04Z"/>
        <path class="cls-3" d="M184.39,20.45v.29h-.54c-.15,0-.3-.04-.43-.11-.13-.08-.24-.18-.32-.31-.08-.13-.12-.27-.12-.43v-1.55h.29s0,0,0,.02v.64h.67s0,0,0,.02v.26s0,0-.03,0h-.65v.62c0,.13.03.23.1.32s.13.15.21.19c.04.02.09.04.16.05.07,0,.13,0,.18,0h.48Z"/>
        <path class="cls-3" d="M186.25,18.99c.16,0,.29,0,.41.04.12.04.21.09.28.15.07.06.13.13.17.21.04.07.07.14.09.2.02.06.03.12.04.16s0,.07,0,.06v.1c0,.08-.02.16-.06.26-.04.1-.09.19-.17.28-.08.09-.18.16-.3.21s-.26.08-.43.07h-.33c-.16,0-.3-.01-.43-.07s-.22-.12-.3-.21c-.08-.09-.13-.18-.17-.28-.04-.1-.06-.18-.06-.26v-.1s0-.01,0-.06c0-.05.02-.1.04-.16s.05-.13.09-.2c.04-.07.1-.14.17-.21.08-.06.17-.12.28-.15.12-.04.25-.05.41-.04h.24ZM186.36,20.45c.22,0,.37-.05.46-.16s.14-.22.15-.34v-.05s0-.08,0-.08v-.05c-.02-.11-.07-.22-.15-.33-.09-.11-.24-.16-.46-.16h-.46c-.22,0-.37.05-.46.16-.09.11-.14.22-.15.33v.05s0,.08,0,.08v.05c.02.12.07.23.16.34.09.1.24.16.46.16h.46Z"/>
        <path class="cls-3" d="M189.68,19.74c.12,0,.22.05.31.12.09.07.13.21.13.41,0,.11-.03.2-.08.27-.05.07-.12.12-.2.16-.08.03-.16.05-.24.05h-1.78v-.29s1.77,0,1.77,0c.06,0,.12-.01.17-.04.05-.03.08-.09.08-.19,0-.06-.02-.11-.05-.14-.04-.03-.08-.04-.12-.05s-.07,0-.08,0h-1.29c-.07,0-.14-.02-.22-.06-.08-.04-.14-.09-.2-.18-.06-.08-.08-.19-.08-.32,0-.11.03-.21.09-.28s.13-.13.21-.16c.08-.04.16-.05.23-.06h1.61v.29h-1.59c-.07,0-.13.01-.18.04-.06.03-.08.1-.08.21,0,.09.03.15.08.18.05.03.1.04.15.04h1.38Z"/>
        <path class="cls-3" d="M193.77,18.98v1.52c-.01.17-.05.33-.13.45-.09.16-.2.27-.32.34-.12.07-.27.11-.45.11h-1.24s-.02,0-.02-.02v-.25s0-.02.02-.02h1.24c.06,0,.12,0,.17-.01.05,0,.09-.03.13-.05.05-.04.1-.07.13-.1s.06-.06.08-.11l.04-.09h-1.13c-.13,0-.25-.02-.36-.08-.11-.05-.19-.11-.26-.18-.07-.07-.12-.15-.18-.26-.05-.11-.08-.22-.08-.33v-.92s0-.02,0-.02h.3s0,0,0,.02v.94c0,.06.01.12.04.18s.04.11.07.13c.01.01.04.04.07.07.03.03.08.07.14.09.06.03.13.05.22.06h1.24s0-1.47,0-1.47c0-.02,0-.02.02-.02h.25s.02,0,.02.02Z"/>
        <path class="cls-3" d="M196.99,19.74c.12,0,.22.05.31.12.09.07.13.21.13.41,0,.11-.03.2-.08.27-.05.07-.12.12-.2.16-.08.03-.16.05-.24.05h-1.78v-.29s1.77,0,1.77,0c.06,0,.12-.01.17-.04.05-.03.08-.09.08-.19,0-.06-.02-.11-.05-.14-.04-.03-.08-.04-.12-.05s-.07,0-.08,0h-1.29c-.07,0-.14-.02-.22-.06-.08-.04-.14-.09-.2-.18-.06-.08-.08-.19-.08-.32,0-.11.03-.21.09-.28.06-.07.13-.13.21-.16.08-.04.16-.05.23-.06h1.61v.29h-1.59c-.07,0-.13.01-.18.04-.06.03-.08.1-.08.21,0,.09.03.15.08.18.05.03.1.04.15.04h1.38Z"/>
        <path class="cls-3" d="M199.98,19.09c.08.07.14.14.17.23.03.08.04.16.04.22,0,.31-.17.48-.52.49h-1.38s0,.07,0,.07c0,.08,0,.14.02.19s.04.08.07.1c.03.02.08.04.14.04.06,0,.14.01.24.01h1.29s.06.02.06.05v.17s-.02.06-.06.06h-1.33c-.19,0-.33-.02-.44-.06-.11-.04-.18-.11-.23-.2s-.07-.21-.07-.37v-.44c0-.1.04-.21.12-.31.08-.1.18-.19.3-.26s.25-.1.38-.1h.84c.15,0,.27.03.36.1ZM199.78,19.73s.05-.03.08-.06c.02-.02.03-.04.04-.07,0-.03.01-.06.01-.11,0-.02,0-.05-.02-.08-.01-.03-.03-.06-.07-.09-.03-.03-.08-.04-.13-.04h-.92c-.07,0-.14.02-.21.06s-.14.1-.19.17-.08.15-.08.23h1.37c.06,0,.1,0,.12-.01Z"/>
        <path class="cls-3" d="M202.7,19.26h-.99s-.11,0-.17,0c-.06,0-.12,0-.17.02-.05.02-.1.04-.14.08-.04.04-.07.08-.08.14-.02.05-.03.1-.03.14,0,.04,0,.11,0,.21v.87s0,.02-.02.02h-.25s-.02,0-.02-.02v-.89s0-.1,0-.19c0-.09.02-.18.05-.27.03-.09.1-.17.19-.24.06-.04.12-.08.18-.1.07-.02.13-.04.19-.05.06,0,.12-.01.17-.01h1.1v.29Z"/>
        <path class="cls-3" d="M203.39,18.95l1.03,1.55h.04l1.03-1.55h.35l-1.04,1.55c-.08.13-.14.21-.16.24h-.4c-.05-.07-.1-.15-.16-.24l-1.03-1.55h.35Z"/>
        <path class="cls-3" d="M206.54,18.14v.31h-.31v-.31h.31ZM206.54,18.86v1.88h-.31v-1.88h.31Z"/>
        <path class="cls-3" d="M207.78,19.33c-.08.03-.14.07-.19.12s-.09.12-.12.19c-.03.08-.04.16-.04.23s.01.16.04.23c.03.08.07.14.12.19s.12.09.19.12.16.04.23.04h1.43v.29h-1.43c-.16,0-.3-.04-.44-.12-.13-.08-.24-.18-.32-.32-.08-.13-.12-.28-.12-.44s.04-.3.12-.44c.08-.13.18-.24.32-.32.13-.08.28-.12.44-.12h1.43v.29h-1.43c-.08,0-.16.01-.23.04Z"/>
        <path class="cls-3" d="M210.37,18.14v.31h-.31v-.31h.31ZM210.37,18.86v1.88h-.31v-1.88h.31Z"/>
        <path class="cls-3" d="M212.24,18.99c.16,0,.29,0,.41.04s.21.09.28.15c.07.06.13.13.17.21.04.07.07.14.09.2.02.06.03.12.04.16s0,.07,0,.06v.1c0,.08-.02.16-.06.26-.04.1-.09.19-.17.28-.08.09-.18.16-.3.21s-.26.08-.43.07h-.33c-.16,0-.3-.01-.43-.07-.12-.05-.22-.12-.3-.21-.08-.09-.13-.18-.17-.28-.04-.1-.06-.18-.06-.26v-.1s0-.01,0-.06.02-.1.04-.16.05-.13.09-.2c.04-.07.1-.14.17-.21.08-.06.17-.12.28-.15.12-.04.25-.05.41-.04h.24ZM212.36,20.45c.22,0,.37-.05.46-.16.09-.1.14-.22.15-.34v-.05s0-.08,0-.08v-.05c-.02-.11-.07-.22-.15-.33-.09-.11-.24-.16-.46-.16h-.46c-.22,0-.37.05-.46.16-.09.11-.14.22-.15.33v.05s0,.08,0,.08v.05c.02.12.07.23.16.34.09.1.24.16.46.16h.46Z"/>
        <path class="cls-3" d="M215.67,19.74c.12,0,.22.05.31.12.09.07.13.21.13.41,0,.11-.03.2-.08.27-.05.07-.12.12-.2.16-.08.03-.16.05-.24.05h-1.78v-.29s1.77,0,1.77,0c.06,0,.12-.01.17-.04.05-.03.08-.09.08-.19,0-.06-.02-.11-.05-.14-.04-.03-.08-.04-.12-.05s-.07,0-.08,0h-1.29c-.07,0-.14-.02-.22-.06-.08-.04-.14-.09-.2-.18-.06-.08-.08-.19-.08-.32,0-.11.03-.21.09-.28.06-.07.13-.13.21-.16.08-.04.16-.05.23-.06h1.61v.29h-1.59c-.07,0-.13.01-.18.04-.06.03-.08.1-.08.21,0,.09.03.15.08.18.05.03.1.04.15.04h1.38Z"/>
      </g>
      <rect class="cls-1" x="228.14" y="18.11" width="4.16" height="1.32"/>
      <rect class="cls-18" x="228.14" y="19.43" width="4.16" height=".66"/>
      <rect class="cls-2" x="228.14" y="20.09" width="4.16" height=".66"/>
      <rect class="cls-15" x="223.05" y="18.11" width="1.39" height="2.63"/>
      <rect class="cls-15" x="225.83" y="18.11" width="1.39" height="2.63"/>
      <rect class="cls-4" x="224.44" y="18.11" width="1.39" height="2.63"/>
      <polyline class="cls-10" points="222.12 20.75 217.96 20.75 217.96 19.43 222.12 19.43"/>
      <rect class="cls-13" x="217.96" y="18.11" width="1.39" height="1.32"/>
      <rect class="cls-4" x="219.35" y="18.11" width="2.77" height="1.32"/>
      <polygon class="cls-4" points="218.32 18.67 218.57 18.67 218.65 18.44 218.73 18.67 218.98 18.67 218.78 18.81 218.86 19.04 218.65 18.9 218.45 19.04 218.53 18.81 218.32 18.67"/>
    </g>
    <g>
      <path class="cls-5" d="M212.23,162.54c0,.39-.34.71-.75.71h-28.28c-.41,0-.75-.32-.75-.71v-15.95c0-.39.34-.71.75-.71h28.28c.41,0,.75.32.75.71v15.94Z"/>
      <path class="cls-7" d="M211.15,161.36c0,.42-.36.76-.8.76h-26.02c-.44,0-.8-.34-.8-.76v-13.58c0-.42.36-.76.8-.76h26.02c.44,0,.8.35.8.76v13.58Z"/>
      <polygon class="cls-5" points="212.22 163.25 182.41 163.25 177.16 168.06 217.52 168.06 212.22 163.25"/>
      <path class="cls-11" d="M216.69,168.97h-38.64c-.49,0-.89-.4-.89-.89,0-.01.01-.02.03-.02h40.31s.02.01.02.02v.06c0,.46-.37.83-.83.83"/>
      <path class="cls-4" d="M200.75,167.57h-6.82c-.22,0-.41-.18-.41-.41s.18-.41.41-.41h6.82c.22,0,.41.18.41.41s-.18.41-.41.41"/>
      <polygon class="cls-4" points="203.73 166.1 190.86 166.1 192.67 164.86 201.89 164.86 203.73 166.1"/>
      <rect class="cls-5" x="200.92" y="152.2" width="23.01" height="30.62"/>
      <rect class="cls-8" x="202.89" y="153.81" width="19.07" height="27.31"/>
      <path class="cls-12" d="M221.18,175.78c0,.35-.43.63-.96.63h-13.55c-.53,0-.96-.28-.96-.63v-.12c0-.35.43-.63.96-.63h13.55c.53,0,.96.28.96.63v.12Z"/>
      <path class="cls-12" d="M221.18,171.19c0,.35-.43.63-.96.63h-13.55c-.53,0-.96-.28-.96-.63v-.12c0-.35.43-.63.96-.63h13.55c.53,0,.96.28.96.63v.12Z"/>
      <path class="cls-12" d="M221.18,166.45c0,.35-.43.63-.96.63h-13.55c-.53,0-.96-.28-.96-.63v-.12c0-.35.43-.63.96-.63h13.55c.53,0,.96.28.96.63v.12Z"/>
      <path class="cls-12" d="M218.71,161.68c0,.35-.36.63-.81.63h-11.39c-.44,0-.81-.28-.81-.63v-.12c0-.35.36-.63.81-.63h11.39c.44,0,.81.28.81.63v.12Z"/>
      <path class="cls-12" d="M217.08,157.15c0,.3-.32.55-.71.55h-9.96c-.39,0-.71-.25-.71-.55v-.11c0-.3.32-.55.71-.55h9.96c.39,0,.71.25.71.55v.11Z"/>
      <path class="cls-5" d="M232.5,167.49c0,5.61-4.55,10.16-10.16,10.16s-10.15-4.55-10.15-10.16,4.55-10.15,10.15-10.15,10.16,4.55,10.16,10.15"/>
      <path class="cls-5" d="M230.96,167.49c0,4.76-3.86,8.62-8.62,8.62s-8.62-3.86-8.62-8.62,3.86-8.62,8.62-8.62,8.62,3.86,8.62,8.62"/>
      <path class="cls-4" d="M225.93,171.78c-.27.5-.68.91-1.21,1.24-.53.33-1.17.52-1.91.56v1.39h-.92v-1.39c-1.04-.09-1.88-.42-2.53-1-.65-.58-.98-1.31-.99-2.2h1.66c.04.48.22.9.54,1.25.31.35.76.58,1.33.67v-4.28c-.76-.19-1.38-.39-1.85-.6-.47-.21-.87-.53-1.2-.96-.33-.43-.5-1.02-.5-1.75,0-.92.32-1.69.97-2.29.65-.6,1.5-.94,2.58-1.01v-1.42h.92v1.42c.97.08,1.75.39,2.34.93.59.54.94,1.25,1.03,2.11h-1.66c-.06-.4-.23-.76-.53-1.09-.3-.33-.69-.54-1.18-.64v4.18c.75.19,1.37.39,1.84.59.47.2.87.52,1.2.95.32.43.49,1.02.49,1.76,0,.55-.14,1.07-.41,1.56M220.43,165.92c.33.3.82.54,1.46.74v-3.95c-.59.06-1.07.25-1.42.57-.35.33-.53.78-.53,1.36s.17.99.5,1.28M224.26,171.65c.35-.38.52-.83.52-1.35,0-.56-.17-.99-.51-1.29-.34-.3-.83-.55-1.46-.73v4.04c.62-.07,1.1-.29,1.45-.67"/>
    </g>
  </g>
</svg>