<?xml version="1.0" encoding="UTF-8"?>
<svg id="Capa_2" xmlns="http://www.w3.org/2000/svg" viewBox="0 0 163.4 204.69">
  <defs>
    <style>
      .cls-1 {
        fill: #f9cf16;
      }

      .cls-2 {
        fill: #cd142a;
      }

      .cls-3 {
        fill: #646365;
      }

      .cls-4 {
        fill: #868486;
      }

      .cls-5 {
        fill: #fff;
      }

      .cls-6 {
        fill: #115a9f;
      }

      .cls-7 {
        fill: #625f60;
      }

      .cls-8 {
        fill: #4780b4;
      }

      .cls-9 {
        fill: #d00e4d;
      }

      .cls-10 {
        fill: #d7d5d6;
      }

      .cls-11 {
        fill: #d00e4c;
      }

      .cls-12 {
        fill: #d22e1f;
      }

      .cls-13 {
        fill: #1d9b85;
      }

      .cls-14 {
        fill: #b1aeaf;
      }

      .cls-15 {
        fill: #636061;
      }

      .cls-16 {
        fill: #9d9a9c;
      }

      .cls-17 {
        fill: #1d458c;
      }

      .cls-18 {
        fill: #e1222c;
      }

      .cls-19 {
        fill: #4eb692;
      }

      .cls-20 {
        fill: #828384;
      }

      .cls-21 {
        fill: #1b4180;
      }
    </style>
  </defs>
  <g id="Capa_1-2" data-name="Capa_1">
    <g>
      <path class="cls-7" d="M92.92,194.23h1.14v8.37h-1.14v-8.37Z"/>
      <path class="cls-7" d="M98.45,198.04c-.25.09-.46.21-.62.38s-.29.37-.38.63-.13.51-.13.76.04.5.13.76.21.46.38.63.37.29.62.38.5.13.75.13h4.61v.93h-4.61c-.51,0-.98-.13-1.41-.38-.43-.25-.77-.59-1.03-1.03-.25-.43-.38-.9-.38-1.41s.12-.98.38-1.41c.25-.43.6-.78,1.03-1.03.43-.25.9-.38,1.41-.38h4.61v.93h-4.61c-.25,0-.5.04-.75.13Z"/>
      <path class="cls-7" d="M109.94,196.96c.5-.02.94.02,1.32.14s.68.28.92.49.42.43.56.66.23.45.29.66.1.38.11.53.02.21.02.19v.33c0,.24-.06.52-.18.83s-.3.61-.55.89-.57.51-.97.69-.85.25-1.38.22h-1.05c-.52.03-.98-.05-1.38-.22s-.72-.4-.97-.69-.43-.58-.55-.89-.18-.59-.18-.83v-.33s0-.04.02-.19.05-.33.11-.53.16-.42.29-.66.32-.46.56-.66.55-.37.92-.49.81-.16,1.32-.14h.76ZM110.3,201.66c.7,0,1.19-.17,1.47-.51s.45-.7.49-1.09v-.16s.01-.26.01-.26v-.18c-.05-.37-.22-.72-.5-1.06s-.77-.51-1.48-.51h-1.49c-.7,0-1.2.17-1.48.51s-.44.7-.48,1.06l-.02.18v.25l.02.18c.04.39.2.75.49,1.09s.78.51,1.47.51h1.49Z"/>
      <path class="cls-7" d="M122.26,198.3c.25.44.38.92.38,1.44v2.87h-.94v-2.87c0-.26-.04-.52-.13-.77s-.21-.47-.38-.64c-.16-.17-.36-.3-.61-.39s-.49-.13-.74-.13h-1.78c-.48,0-1.1,0-1.86,0,0-.22,0-.01,0,.62s0,1.06,0,1.25v2.94h-.94v-5.74h4.58c.5,0,.97.13,1.4.38.43.26.77.61,1.03,1.05Z"/>
      <path class="cls-7" d="M128.79,196.96c.5-.02.94.02,1.32.14s.68.28.92.49.42.43.56.66.23.45.29.66.1.38.11.53.02.21.02.19v.33c0,.24-.06.52-.18.83s-.3.61-.55.89-.57.51-.97.69-.85.25-1.38.22h-1.05c-.52.03-.98-.05-1.38-.22s-.72-.4-.97-.69-.43-.58-.55-.89-.18-.59-.18-.83v-.33s0-.04.02-.19.05-.33.11-.53.16-.42.29-.66.32-.46.56-.66.55-.37.92-.49.81-.16,1.32-.14h.76ZM129.15,201.66c.7,0,1.19-.17,1.47-.51s.45-.7.49-1.09v-.16s.01-.26.01-.26v-.18c-.05-.37-.22-.72-.5-1.06s-.77-.51-1.48-.51h-1.49c-.7,0-1.2.17-1.48.51s-.44.7-.48,1.06l-.02.18v.25l.02.18c.04.39.2.75.49,1.09s.78.51,1.47.51h1.49Z"/>
      <path class="cls-7" d="M144.21,198.29c.23.4.35.9.35,1.49,0-.09,0-.07,0,.06h0v.66c0,.55-.11.98-.32,1.28s-.46.5-.76.61-.61.16-.93.17-.57.02-.73.02h-3.01c-.47,0-.87-.17-1.2-.52s-.5-.76-.5-1.24.17-.9.5-1.25c.33-.35.73-.52,1.2-.52h4.61c0-.07-.02-.13-.04-.19s-.04-.11-.05-.13c-.09-.18-.21-.34-.38-.48s-.34-.26-.54-.34c-.2-.08-.41-.12-.62-.12h-4.44v-.9c0-.08,0-.1,0-.08h4.44c.51,0,.99.13,1.43.4.21.12.39.27.55.45s.3.38.44.62ZM143.55,200.62c0-.08,0-.28-.01-.59h-4.83c-.17,0-.32.08-.45.23-.12.16-.18.34-.18.56s.06.4.18.56c.12.15.27.23.45.23h3.13c.36,0,.64,0,.85-.02s.38-.07.5-.16c.13-.09.22-.21.27-.34s.08-.29.09-.47Z"/>
      <path class="cls-7" d="M147.64,204.67h-.91c0,.05,0,0,0-.16v-5.33c0-.35.13-.69.4-1.02s.59-.6.98-.81.75-.31,1.08-.31h1.71c.53-.02.99.05,1.39.22s.72.39.97.67.44.57.56.88.18.58.18.82v.32s0,.04-.02.18-.05.32-.11.52-.16.42-.3.65-.33.45-.57.65-.55.36-.92.48-.82.16-1.32.14h-3.11v2.1ZM147.64,201.65h3.47c.57,0,1-.12,1.29-.35s.48-.47.57-.73.13-.46.13-.62v-.28c0-.19-.04-.42-.13-.68s-.28-.5-.57-.73-.72-.33-1.27-.33h-1.88c-.24,0-.49.07-.74.22s-.46.34-.62.56-.24.45-.24.66v2.26Z"/>
      <path class="cls-7" d="M157.05,204.67h-.91c0,.05,0,0,0-.16v-5.33c0-.35.13-.69.4-1.02s.59-.6.98-.81.75-.31,1.08-.31h1.71c.53-.02.99.05,1.39.22s.72.39.97.67.44.57.56.88.18.58.18.82v.32s0,.04-.02.18-.05.32-.11.52-.16.42-.3.65-.33.45-.57.65-.55.36-.92.48-.82.16-1.32.14h-3.11v2.1ZM157.05,201.65h3.47c.57,0,1-.12,1.29-.35s.48-.47.57-.73.13-.46.13-.62v-.28c0-.19-.04-.42-.13-.68s-.28-.5-.57-.73-.72-.33-1.27-.33h-1.88c-.24,0-.49.07-.74.22s-.46.34-.62.56-.24.45-.24.66v2.26Z"/>
    </g>
    <g>
      <path class="cls-11" d="M40.5,30.09c.14.02.36.08.68.19.32.11.68.32,1.09.63.41.31.77.78,1.07,1.4.31.62.46,1.41.46,2.36s-.18,1.67-.54,2.27c-.36.6-.79,1.06-1.29,1.35-.5.29-.97.47-1.42.53h-7.62v-8.73h7.57ZM40.44,37.65c.23-.04.52-.14.84-.3.32-.16.63-.46.92-.9.29-.43.43-1.03.43-1.78,0-.88-.15-1.57-.45-2.07-.3-.5-.62-.84-.95-1.01-.33-.18-.61-.28-.84-.32h-6.28v6.38h6.33Z"/>
      <rect class="cls-11" x="44.63" y="30.1" width="1.19" height="8.7"/>
      <path class="cls-11" d="M52.3,32.48c.77-.01,1.46-.13,2.06-.34.61-.22,1.08-.43,1.4-.65.33-.22.55-.38.66-.49l.96-.91v8.75h-1.14v-6.32c-.5.3-1.08.55-1.75.76-.66.21-1.39.32-2.18.33-.83,0-1.61-.1-2.33-.32-.72-.22-1.36-.49-1.92-.82v6.36h-1.14v-8.75l1,.87c.14.13.39.3.75.53.36.23.86.45,1.51.68.64.23,1.35.33,2.11.32"/>
      <rect class="cls-9" x="59.08" y="33.79" width="2.29" height="1.16"/>
      <g>
        <path class="cls-20" d="M72.83,30.02v1.2h-6.21c-.42,0-.81.12-1.18.36-.2.13-.4.32-.58.55-.19.23-.35.5-.49.82-.16.38-.25.87-.26,1.5,0,.41.05.81.17,1.2.12.38.3.71.53.99.25.3.53.55.85.75.32.2.63.29.93.29h5.08v-3.97h1.17v5.17h-6.24c-.69,0-1.33-.2-1.91-.59-.59-.4-1.05-.93-1.39-1.61-.34-.68-.52-1.42-.52-2.22s.17-1.53.52-2.21c.34-.68.8-1.22,1.39-1.61.58-.4,1.22-.59,1.91-.59h6.24Z"/>
        <path class="cls-20" d="M80.4,33.26c.29.23.48.49.57.77.09.28.14.53.15.74,0,1.05-.58,1.6-1.76,1.66h-4.67s0,.25,0,.25c0,.27.02.49.07.64s.13.27.25.34c.11.07.27.12.46.15.19.02.47.04.82.04h4.36c.13,0,.19.06.19.18v.59c0,.13-.06.19-.19.19h-4.51c-.63,0-1.12-.07-1.48-.21s-.62-.36-.77-.67-.23-.72-.23-1.24v-1.5c0-.35.13-.7.4-1.05.27-.35.61-.65,1.02-.88.42-.23.84-.35,1.28-.35h2.84c.52,0,.92.12,1.21.35ZM79.71,35.4c.09-.03.17-.09.26-.19.06-.07.11-.15.13-.24s.04-.21.05-.37c0-.07-.02-.16-.06-.27-.04-.11-.11-.21-.22-.3s-.26-.14-.45-.14h-3.1c-.22,0-.46.07-.72.21-.26.14-.47.33-.65.56-.18.24-.27.5-.27.79h4.61c.19,0,.33-.02.42-.05Z"/>
        <path class="cls-20" d="M88.28,35.44c.4.02.74.15,1.04.39.3.24.45.7.45,1.38,0,.36-.09.67-.27.91-.18.24-.41.42-.68.54-.27.12-.54.18-.8.18h-6v-.98s5.97,0,5.97,0c.21,0,.4-.05.57-.14s.25-.31.25-.65c0-.21-.06-.37-.18-.46-.12-.09-.26-.15-.41-.17-.16-.02-.25-.02-.29-.02h-4.35c-.23,0-.48-.07-.74-.19-.26-.12-.48-.32-.67-.6-.19-.28-.28-.63-.28-1.07,0-.38.1-.7.3-.95.2-.25.43-.44.71-.55.27-.12.54-.18.79-.2h5.42v.98h-5.36c-.22,0-.43.05-.62.14-.19.1-.29.33-.29.71,0,.3.09.5.26.59.18.09.35.14.51.15h4.66Z"/>
        <path class="cls-20" d="M95.47,37.83v.96h-1.81c-.52,0-1.01-.13-1.46-.39-.45-.26-.8-.61-1.07-1.05-.26-.44-.4-.92-.41-1.44v-5.25h.97s0,0,0,.07v2.16h2.27s0,0,0,.07v.89s-.03,0-.09,0h-2.18v2.08c0,.42.11.78.33,1.06s.45.5.69.64c.12.08.3.13.54.15s.44.03.59.02h1.61Z"/>
        <path class="cls-20" d="M97.69,30.04v1.04h-1.04v-1.04h1.04ZM97.69,32.46v6.35h-1.04v-6.35h1.04Z"/>
        <path class="cls-20" d="M102.95,32.92c.53-.02.99.02,1.38.15.39.12.71.29.96.51.25.22.44.45.58.69.14.25.24.48.31.69.06.21.1.4.12.55.02.16.02.22.02.2v.35c0,.25-.06.54-.19.87-.12.33-.32.64-.58.93-.26.3-.6.54-1.01.72s-.89.26-1.44.23h-1.1c-.55.03-1.03-.05-1.44-.23s-.75-.42-1.01-.72c-.26-.3-.45-.61-.58-.93-.12-.32-.19-.61-.19-.87v-.35s0-.04.02-.2c.02-.16.06-.34.12-.55.06-.21.17-.44.31-.69s.34-.48.59-.69c.25-.22.57-.39.96-.51.39-.12.85-.17,1.38-.15h.8ZM103.33,37.83c.73,0,1.25-.18,1.54-.53.3-.35.47-.73.51-1.14v-.17s.01-.28.01-.28v-.18c-.06-.38-.23-.75-.52-1.11s-.81-.54-1.54-.54h-1.56c-.74,0-1.25.18-1.54.54s-.46.73-.5,1.11l-.02.18v.26l.02.18c.04.4.21.78.51,1.14.3.35.81.53,1.54.53h1.56ZM103.29,30.73h1.2s-.75.77-.75.77l-.78.75h-.74l1.08-1.53Z"/>
        <path class="cls-20" d="M114.44,34.32c.26.46.39.96.39,1.51v3h-.99v-3c0-.27-.05-.54-.14-.81s-.22-.49-.4-.67c-.17-.18-.38-.31-.64-.41-.26-.09-.51-.14-.77-.14h-1.86c-.5,0-1.15,0-1.95,0,0-.23,0-.02,0,.65s0,1.1,0,1.31v3.07h-.99v-6.01h4.79c.52,0,1.01.13,1.46.4.45.27.81.64,1.07,1.1Z"/>
        <path class="cls-20" d="M117.96,30.05h8.79v1.2h-7.59v2.4h7.59v1.2h-7.59v2.8h7.59v1.2h-8.79v-8.79Z"/>
        <path class="cls-20" d="M135,38.8h-3.28c-.54.03-1-.02-1.4-.14-.4-.12-.72-.29-.97-.51-.25-.21-.45-.44-.59-.69-.14-.24-.25-.47-.31-.69-.07-.21-.11-.4-.12-.55-.02-.15-.02-.22-.02-.19v-.34c0-.25.06-.54.19-.86.13-.32.32-.63.59-.93.27-.3.61-.53,1.03-.71s.91-.26,1.47-.23h1.8c.35,0,.73.11,1.14.33.41.22.75.5,1.03.85.28.35.42.71.42,1.08v5.63c0,.17,0,.23,0,.17h-.96v-2.23ZM135,35.45c0-.22-.09-.46-.26-.7-.17-.24-.39-.44-.65-.59s-.52-.23-.78-.23h-1.99c-.58,0-1.03.12-1.34.35-.31.24-.51.49-.61.76-.1.27-.14.51-.14.72v.29c0,.17.04.38.13.65s.29.52.6.77.76.36,1.36.36h3.67v-2.38Z"/>
        <path class="cls-20" d="M142.19,37.69c.26-.09.47-.23.64-.41.17-.17.3-.4.4-.67.09-.27.14-.54.14-.81v-3.03h.99v3.03c0,.55-.13,1.05-.39,1.52-.27.46-.63.83-1.08,1.1-.45.27-.94.41-1.47.41h-1.88c-.54,0-1.03-.13-1.48-.41-.45-.27-.81-.64-1.07-1.1-.27-.47-.4-.97-.4-1.52v-3.03h.99s0,0,0,.08v2.95c0,.27.05.54.14.81.09.27.23.49.4.67.17.18.39.32.65.41.26.09.52.14.78.14h1.88c.26,0,.52-.05.78-.14Z"/>
        <path class="cls-20" d="M146.33,30.04v1.04h-1.04v-1.04h1.04ZM146.33,32.46v6.35h-1.04v-6.35h1.04Z"/>
        <path class="cls-20" d="M148.45,40.98h-.95c0,.06,0,0,0-.17v-5.58c0-.36.14-.72.42-1.07.28-.35.62-.63,1.02-.85.4-.22.78-.33,1.13-.33h1.78c.55-.02,1.04.05,1.45.23.42.18.76.41,1.02.71.26.29.46.6.58.92.13.32.19.6.19.86v.34s0,.04-.02.19c-.02.15-.06.34-.12.55-.06.21-.17.44-.31.68-.14.24-.34.47-.59.68-.25.21-.57.38-.96.5-.39.12-.85.17-1.39.14h-3.25v2.2ZM148.45,37.83h3.64c.59,0,1.04-.12,1.35-.36s.5-.5.59-.76.13-.48.13-.64v-.29c0-.2-.05-.44-.14-.71-.09-.27-.29-.53-.6-.76-.31-.23-.75-.35-1.33-.35h-1.97c-.25,0-.51.08-.77.23s-.48.35-.64.59c-.17.24-.25.47-.25.69v2.37Z"/>
        <path class="cls-20" d="M160.03,32.92c.53-.02.99.02,1.38.15.39.12.71.29.96.51.25.22.44.45.59.69.14.25.24.48.31.69.06.21.1.4.12.55s.02.22.02.2v.35c0,.25-.06.54-.19.87-.12.33-.32.64-.58.93-.26.3-.6.54-1.01.72-.41.18-.89.26-1.44.23h-1.1c-.55.03-1.03-.05-1.44-.23s-.75-.42-1.01-.72c-.26-.3-.46-.61-.58-.93-.12-.32-.19-.61-.19-.87v-.35s0-.04.02-.2.06-.34.12-.55c.06-.21.17-.44.31-.69.14-.25.34-.48.59-.69.25-.22.57-.39.96-.51.39-.12.85-.17,1.38-.15h.8ZM160.41,37.83c.73,0,1.25-.18,1.54-.53.3-.35.47-.73.51-1.14v-.17s.01-.28.01-.28v-.18c-.06-.38-.23-.75-.52-1.11-.29-.36-.81-.54-1.54-.54h-1.56c-.74,0-1.25.18-1.54.54-.29.36-.46.73-.5,1.11l-.02.18v.26l.02.18c.04.4.21.78.51,1.14.3.35.81.53,1.54.53h1.56Z"/>
      </g>
    </g>
    <g>
      <g>
        <path class="cls-3" d="M97.68,21.39h-.28s0,0,0-.05v-1.65c0-.11.04-.21.12-.32s.18-.19.3-.25c.12-.07.23-.1.33-.1h.53c.16,0,.31.02.43.07.12.05.22.12.3.21.08.09.13.18.17.27.04.09.06.18.06.25v.1s0,.01,0,.06c0,.04-.02.1-.04.16-.02.06-.05.13-.09.2-.04.07-.1.14-.17.2-.08.06-.17.11-.29.15-.12.04-.25.05-.41.04h-.96v.65ZM97.68,20.46h1.08c.17,0,.31-.04.4-.11.09-.07.15-.15.17-.22s.04-.14.04-.19v-.09c0-.06-.01-.13-.04-.21-.03-.08-.09-.16-.18-.23s-.22-.1-.39-.1h-.58c-.08,0-.15.02-.23.07-.08.05-.14.1-.19.17s-.07.14-.07.2v.7Z"/>
        <path class="cls-3" d="M102.09,19.27h-.99s-.11,0-.17,0c-.06,0-.12,0-.17.02-.05.02-.1.04-.14.08-.04.04-.07.08-.08.14s-.03.1-.03.14c0,.04,0,.11,0,.21v.87s0,.02-.02.02h-.25s-.02,0-.02-.02v-.89s0-.1,0-.19c0-.09.02-.18.05-.27.04-.09.1-.17.19-.24.06-.04.12-.08.18-.1.07-.02.13-.04.19-.05s.12-.01.17-.01h1.1v.29Z"/>
        <path class="cls-3" d="M103.9,19c.16,0,.29,0,.41.04.12.04.21.09.28.15.07.06.13.13.17.21.04.07.07.14.09.2.02.06.03.12.04.16s0,.07,0,.06v.1c0,.08-.02.16-.05.26-.04.1-.09.19-.17.28-.08.09-.18.16-.3.21s-.26.08-.43.07h-.33c-.16,0-.3-.01-.43-.07-.12-.05-.22-.12-.3-.21-.08-.09-.13-.18-.17-.28-.04-.1-.06-.18-.06-.26v-.1s0-.01,0-.06.02-.1.04-.16.05-.13.09-.2c.04-.07.1-.14.17-.21.07-.06.17-.12.28-.15.11-.04.25-.05.41-.04h.24ZM104.01,20.46c.22,0,.37-.05.46-.16s.14-.22.15-.34v-.05s0-.08,0-.08v-.05c-.02-.11-.07-.22-.15-.33-.09-.11-.24-.16-.46-.16h-.46c-.22,0-.37.05-.46.16-.09.11-.14.22-.15.33v.05s0,.08,0,.08v.05c.02.12.07.23.16.34.09.1.24.16.46.16h.46Z"/>
        <path class="cls-3" d="M107.46,18.36h.28s0,0,0,.05v1.68c0,.12-.01.22-.04.3s-.07.15-.12.2c-.06.05-.13.09-.22.11-.09.02-.21.04-.35.04h-.57c-.16,0-.31-.01-.43-.07-.12-.05-.23-.12-.3-.21-.08-.09-.14-.18-.17-.27-.04-.1-.06-.18-.06-.26v-.1s0-.01,0-.06c0-.05.02-.1.04-.16.02-.06.05-.13.09-.2.04-.07.1-.14.17-.2.08-.06.17-.11.29-.15.12-.04.25-.05.41-.04h.97v-.66ZM107.46,19.3h-1.08c-.18,0-.31.04-.4.11s-.15.15-.18.23c-.03.08-.04.14-.04.19v.08c0,.06.01.13.04.21.03.08.09.16.18.23.09.07.22.1.4.1h.75c.09,0,.15-.02.2-.06.05-.04.08-.09.1-.15.02-.07.03-.15.03-.24v-.71Z"/>
        <path class="cls-3" d="M109.95,20.42c.08-.03.14-.07.19-.12s.09-.12.12-.2c.03-.08.04-.16.04-.24v-.9h.29v.9c0,.16-.04.31-.12.45-.08.14-.19.25-.32.33-.13.08-.28.12-.44.12h-.56c-.16,0-.3-.04-.44-.12-.13-.08-.24-.19-.32-.33-.08-.14-.12-.29-.12-.45v-.9h.29s0,0,0,.02v.87c0,.08.01.16.04.24.03.08.07.15.12.2s.11.09.19.12c.08.03.15.04.23.04h.56c.08,0,.15-.01.23-.04Z"/>
        <path class="cls-3" d="M111.73,19.34c-.08.03-.14.07-.19.12s-.09.12-.12.19c-.03.08-.04.16-.04.23s.01.16.04.23c.03.08.07.14.12.19s.12.09.19.12.16.04.23.04h1.43v.29h-1.43c-.16,0-.3-.04-.44-.12-.13-.08-.24-.18-.32-.32-.08-.13-.12-.28-.12-.44s.04-.3.12-.44c.08-.13.18-.24.32-.32.13-.08.28-.12.44-.12h1.43v.29h-1.43c-.08,0-.16.01-.23.04Z"/>
        <path class="cls-3" d="M115.42,20.46v.29h-.54c-.15,0-.3-.04-.43-.11-.13-.08-.24-.18-.32-.31-.08-.13-.12-.27-.12-.43v-1.55h.29s0,0,0,.02v.64h.67s0,0,0,.02v.26s0,0-.03,0h-.65v.62c0,.13.03.23.1.32s.13.15.21.19c.04.02.09.04.16.05.07,0,.13,0,.18,0h.48Z"/>
        <path class="cls-3" d="M117.28,19c.16,0,.29,0,.41.04.12.04.21.09.28.15.07.06.13.13.17.21.04.07.07.14.09.2.02.06.03.12.04.16s0,.07,0,.06v.1c0,.08-.02.16-.06.26-.04.1-.09.19-.17.28-.08.09-.18.16-.3.21s-.26.08-.43.07h-.33c-.16,0-.3-.01-.43-.07s-.22-.12-.3-.21c-.08-.09-.13-.18-.17-.28-.04-.1-.06-.18-.06-.26v-.1s0-.01,0-.06c0-.05.02-.1.04-.16s.05-.13.09-.2c.04-.07.1-.14.17-.21.08-.06.17-.12.28-.15s.25-.05.41-.04h.24ZM117.39,20.46c.22,0,.37-.05.46-.16s.14-.22.15-.34v-.05s0-.08,0-.08v-.05c-.02-.11-.07-.22-.15-.33-.09-.11-.24-.16-.46-.16h-.46c-.22,0-.37.05-.46.16-.09.11-.14.22-.15.33v.05s0,.08,0,.08v.05c.02.12.07.23.16.34.09.1.24.16.46.16h.46Z"/>
        <path class="cls-3" d="M120.7,19.75c.12,0,.22.05.31.12.09.07.13.21.13.41,0,.11-.03.2-.08.27-.05.07-.12.12-.2.16-.08.03-.16.05-.24.05h-1.78v-.29s1.77,0,1.77,0c.06,0,.12-.01.17-.04.05-.03.08-.09.08-.19,0-.06-.02-.11-.05-.14-.04-.03-.08-.04-.12-.05s-.07,0-.08,0h-1.29c-.07,0-.14-.02-.22-.06-.08-.04-.14-.09-.2-.18-.06-.08-.08-.19-.08-.32,0-.11.03-.21.09-.28s.13-.13.21-.16c.08-.04.16-.05.23-.06h1.61v.29h-1.59c-.07,0-.13.01-.18.04-.06.03-.08.1-.08.21,0,.09.03.15.08.18.05.03.1.04.15.04h1.38Z"/>
        <path class="cls-3" d="M124.8,18.99v1.52c-.01.17-.05.33-.13.45-.09.16-.2.27-.32.34-.12.07-.27.11-.45.11h-1.24s-.02,0-.02-.02v-.25s0-.02.02-.02h1.24c.06,0,.12,0,.17-.01.05,0,.09-.03.13-.05.05-.04.1-.07.13-.1s.06-.06.08-.11l.04-.09h-1.13c-.13,0-.25-.02-.36-.08-.11-.05-.19-.11-.26-.18-.07-.07-.12-.15-.18-.26-.05-.11-.08-.22-.08-.33v-.92s0-.02,0-.02h.3s0,0,0,.02v.94c0,.06.01.12.04.18s.04.11.07.13c.01.01.04.04.07.07.03.03.08.07.14.09.06.03.13.05.22.06h1.24s0-1.47,0-1.47c0-.02,0-.02.02-.02h.25s.02,0,.02.02Z"/>
        <path class="cls-3" d="M128.01,19.75c.12,0,.22.05.31.12.09.07.13.21.13.41,0,.11-.03.2-.08.27-.05.07-.12.12-.2.16-.08.03-.16.05-.24.05h-1.78v-.29s1.77,0,1.77,0c.06,0,.12-.01.17-.04.05-.03.08-.09.08-.19,0-.06-.02-.11-.05-.14-.04-.03-.08-.04-.12-.05s-.07,0-.08,0h-1.29c-.07,0-.14-.02-.22-.06-.08-.04-.14-.09-.2-.18-.06-.08-.08-.19-.08-.32,0-.11.03-.21.09-.28.06-.07.13-.13.21-.16.08-.04.16-.05.23-.06h1.61v.29h-1.59c-.07,0-.13.01-.18.04-.06.03-.08.1-.08.21,0,.09.03.15.08.18.05.03.1.04.15.04h1.38Z"/>
        <path class="cls-3" d="M131.01,19.1c.08.07.14.14.17.23.03.08.04.16.04.22,0,.31-.17.48-.52.49h-1.38s0,.07,0,.07c0,.08,0,.14.02.19s.04.08.07.1c.03.02.08.04.14.04.06,0,.14.01.24.01h1.29s.06.02.06.05v.17s-.02.06-.06.06h-1.33c-.19,0-.33-.02-.44-.06-.11-.04-.18-.11-.23-.2s-.07-.21-.07-.37v-.44c0-.1.04-.21.12-.31.08-.1.18-.19.3-.26s.25-.1.38-.1h.84c.15,0,.27.03.36.1ZM130.8,19.74s.05-.03.08-.06c.02-.02.03-.04.04-.07,0-.03.01-.06.01-.11,0-.02,0-.05-.02-.08-.01-.03-.03-.06-.07-.09-.03-.03-.08-.04-.13-.04h-.92c-.07,0-.14.02-.21.06s-.14.1-.19.17-.08.15-.08.23h1.37c.06,0,.1,0,.12-.01Z"/>
        <path class="cls-3" d="M133.73,19.27h-.99s-.11,0-.17,0c-.06,0-.12,0-.17.02-.05.02-.1.04-.14.08-.04.04-.07.08-.08.14-.02.05-.03.1-.03.14,0,.04,0,.11,0,.21v.87s0,.02-.02.02h-.25s-.02,0-.02-.02v-.89s0-.1,0-.19c0-.09.02-.18.05-.27.03-.09.1-.17.19-.24.06-.04.12-.08.18-.1.07-.02.13-.04.19-.05.06,0,.12-.01.17-.01h1.1v.29Z"/>
        <path class="cls-3" d="M134.42,18.96l1.03,1.55h.04l1.03-1.55h.35l-1.04,1.55c-.08.13-.14.21-.16.24h-.4c-.05-.07-.1-.15-.16-.24l-1.03-1.55h.35Z"/>
        <path class="cls-3" d="M137.57,18.15v.31h-.31v-.31h.31ZM137.57,18.87v1.88h-.31v-1.88h.31Z"/>
        <path class="cls-3" d="M138.81,19.34c-.08.03-.14.07-.19.12s-.09.12-.12.19c-.03.08-.04.16-.04.23s.01.16.04.23c.03.08.07.14.12.19s.12.09.19.12.16.04.23.04h1.43v.29h-1.43c-.16,0-.3-.04-.44-.12-.13-.08-.24-.18-.32-.32-.08-.13-.12-.28-.12-.44s.04-.3.12-.44c.08-.13.18-.24.32-.32.13-.08.28-.12.44-.12h1.43v.29h-1.43c-.08,0-.16.01-.23.04Z"/>
        <path class="cls-3" d="M141.39,18.15v.31h-.31v-.31h.31ZM141.39,18.87v1.88h-.31v-1.88h.31Z"/>
        <path class="cls-3" d="M143.27,19c.16,0,.29,0,.41.04s.21.09.28.15c.07.06.13.13.17.21.04.07.07.14.09.2.02.06.03.12.04.16s0,.07,0,.06v.1c0,.08-.02.16-.06.26-.04.1-.09.19-.17.28-.08.09-.18.16-.3.21s-.26.08-.43.07h-.33c-.16,0-.3-.01-.43-.07-.12-.05-.22-.12-.3-.21-.08-.09-.13-.18-.17-.28-.04-.1-.06-.18-.06-.26v-.1s0-.01,0-.06.02-.1.04-.16.05-.13.09-.2c.04-.07.1-.14.17-.21.08-.06.17-.12.28-.15.12-.04.25-.05.41-.04h.24ZM143.38,20.46c.22,0,.37-.05.46-.16.09-.1.14-.22.15-.34v-.05s0-.08,0-.08v-.05c-.02-.11-.07-.22-.15-.33-.09-.11-.24-.16-.46-.16h-.46c-.22,0-.37.05-.46.16-.09.11-.14.22-.15.33v.05s0,.08,0,.08v.05c.02.12.07.23.16.34.09.1.24.16.46.16h.46Z"/>
        <path class="cls-3" d="M146.69,19.75c.12,0,.22.05.31.12.09.07.13.21.13.41,0,.11-.03.2-.08.27-.05.07-.12.12-.2.16-.08.03-.16.05-.24.05h-1.78v-.29s1.77,0,1.77,0c.06,0,.12-.01.17-.04.05-.03.08-.09.08-.19,0-.06-.02-.11-.05-.14-.04-.03-.08-.04-.12-.05s-.07,0-.08,0h-1.29c-.07,0-.14-.02-.22-.06-.08-.04-.14-.09-.2-.18-.06-.08-.08-.19-.08-.32,0-.11.03-.21.09-.28.06-.07.13-.13.21-.16.08-.04.16-.05.23-.06h1.61v.29h-1.59c-.07,0-.13.01-.18.04-.06.03-.08.1-.08.21,0,.09.03.15.08.18.05.03.1.04.15.04h1.38Z"/>
      </g>
      <rect class="cls-1" x="159.17" y="18.12" width="4.16" height="1.32"/>
      <rect class="cls-21" x="159.17" y="19.44" width="4.16" height=".66"/>
      <rect class="cls-2" x="159.17" y="20.1" width="4.16" height=".66"/>
      <rect class="cls-18" x="154.08" y="18.12" width="1.39" height="2.63"/>
      <rect class="cls-18" x="156.85" y="18.12" width="1.39" height="2.63"/>
      <rect class="cls-5" x="155.46" y="18.12" width="1.39" height="2.63"/>
      <polyline class="cls-12" points="153.14 20.76 148.99 20.76 148.99 19.44 153.14 19.44"/>
      <rect class="cls-17" x="148.99" y="18.12" width="1.39" height="1.32"/>
      <rect class="cls-5" x="150.37" y="18.12" width="2.77" height="1.32"/>
      <polygon class="cls-5" points="149.35 18.68 149.6 18.68 149.68 18.45 149.76 18.68 150.01 18.68 149.8 18.82 149.88 19.05 149.68 18.91 149.47 19.05 149.55 18.82 149.35 18.68"/>
      <path class="cls-5" d="M14.84.27L.55,4.78l14.33,11.12,14.04-10.84L14.84.27ZM20.37,10.39l-3.12,2.39-2.66-1.71,2.04-1.67c.37-.33.47-.56.47-.56v-3.18c.03-.54-.73-.85-.73-.85-.94-.45-2.38-.43-2.38-.43-1.33-.02-3.8.92-3.8.92v2.95l-3.69-2.37c2.35-.95,3.42-1.2,3.42-1.2,2.33-.65,3.96-.69,3.96-.69,2.61-.14,4.69.58,4.69.58,2.08.57,2.94,1.3,2.94,1.3,1.72,1.29,1.33,2.61,1.33,2.61-.27.24-2.47,1.91-2.47,1.91"/>
      <polygon class="cls-11" points=".02 8.24 .02 4.69 14.92 16.03 29.45 4.96 29.45 8.22 14.87 21.46 .02 8.24"/>
      <path class="cls-11" d="M6.42,5.91l-2.39-1.48s3.15-1.23,5.77-1.73,3.58-.53,5.07-.47c1.49.06,4.37.63,6.26,1.56,1.89.93,2.29,1.89,2.4,2.42.12.53.09,1.75-.34,2.13l-.42.38s.31-.69-.13-1.56c-.44-.87-1.39-1.7-3.12-2.29-1.73-.59-3.27-.92-5.14-.89-1.87.03-3.56.44-4.87.82-1.3.38-3.09,1.11-3.09,1.11"/>
      <path class="cls-11" d="M10.2,5.37v2.94l4.29,2.83s.94-.73,1.6-1.28c.66-.54.94-.87,1.01-1.03v-3.24s.08.51-1.06,1.15c-1.13.64-1.49.85-1.49.85l-4.35-2.21Z"/>
      <path class="cls-11" d="M14.88,16.23L0,4.68,14.85,0h.04s14.57,4.97,14.57,4.97l-14.57,11.26ZM.55,4.78l14.34,11.12,14.04-10.84L14.84.27.55,4.78Z"/>
      <path class="cls-11" d="M17.27,13.09l-.08-.05L3.75,4.39l.24-.09s3.19-1.24,5.8-1.74c1.92-.37,3-.49,4.14-.49.27,0,.57,0,.95.02,1.62.06,4.5.68,6.31,1.57,1.43.7,2.26,1.54,2.47,2.51.12.56.1,1.82-.38,2.25l-.43.38-5.59,4.29ZM4.32,4.45l12.94,8.32,5.44-4.17.42-.38c.38-.34.41-1.51.3-2-.2-.89-.98-1.67-2.33-2.33-1.78-.87-4.61-1.48-6.2-1.54-.38-.01-.68-.02-.95-.02-.97,0-1.94.08-4.1.49-2.17.41-4.73,1.34-5.51,1.63"/>
      <path class="cls-11" d="M14.47,7.64l-4.29-2.19.04-.07-.03-.08c.1-.04,2.43-.93,3.82-.93h.03c1.46.01,2.38.36,2.77.69.36.3.41.63.16,1.02-.18.28-.7.67-1.43,1.05-.71.38-1.02.5-1.03.51h-.03ZM10.32,5.39l4.15,2.12c.09-.04.4-.18.99-.49.7-.37,1.21-.74,1.38-1,.21-.33.17-.6-.13-.85-.37-.31-1.27-.65-2.69-.66h-.03c-1.21,0-3.21.72-3.68.89"/>
      <path class="cls-11" d="M40.5,6.74c.14.02.36.08.68.19.31.11.68.32,1.09.63.41.31.77.78,1.08,1.4.31.62.46,1.41.46,2.36s-.18,1.67-.54,2.27c-.36.61-.79,1.06-1.29,1.35-.5.29-.97.47-1.42.53h-7.62V6.73h7.57ZM40.44,14.29c.23-.04.52-.14.84-.3.32-.16.63-.46.92-.9.29-.43.43-1.03.43-1.78,0-.88-.15-1.57-.45-2.07-.3-.5-.62-.84-.95-1.01-.33-.18-.61-.28-.84-.32h-6.28v6.38h6.33Z"/>
      <rect class="cls-11" x="44.63" y="6.75" width="1.19" height="8.7"/>
      <path class="cls-11" d="M52.3,9.12c.77-.01,1.46-.13,2.06-.34.61-.22,1.08-.43,1.4-.65.33-.22.55-.38.66-.49l.96-.91v8.75h-1.14v-6.32c-.5.3-1.08.55-1.75.76-.66.21-1.39.32-2.18.33-.83,0-1.61-.1-2.33-.32-.72-.22-1.36-.49-1.92-.82v6.36h-1.14V6.73l1,.86c.14.13.39.3.75.53.36.23.86.45,1.51.68.64.23,1.35.33,2.11.32"/>
      <rect class="cls-9" x="59.08" y="10.44" width="2.29" height="1.16"/>
      <g>
        <path class="cls-20" d="M72.83,6.66v1.2h-6.21c-.42,0-.81.12-1.18.36-.2.13-.4.32-.58.55-.19.23-.35.5-.49.82-.16.38-.25.87-.26,1.5,0,.41.05.81.17,1.2.12.38.3.71.53.99.25.3.53.55.85.75.32.2.63.29.93.29h5.08v-3.97h1.16v5.17h-6.24c-.69,0-1.33-.2-1.91-.59-.59-.4-1.05-.93-1.39-1.61-.34-.68-.52-1.42-.52-2.22s.17-1.53.52-2.21c.34-.68.8-1.22,1.39-1.61.58-.4,1.22-.59,1.91-.59h6.24Z"/>
        <path class="cls-20" d="M80.4,9.91c.29.23.48.49.57.77.09.28.14.53.15.74,0,1.05-.58,1.6-1.76,1.66h-4.67s0,.25,0,.25c0,.27.02.49.07.64s.13.27.25.34c.11.07.27.12.46.15s.47.04.82.04h4.36c.13,0,.19.06.19.18v.59c0,.13-.06.19-.19.19h-4.51c-.63,0-1.12-.07-1.48-.21s-.62-.36-.77-.67-.23-.72-.23-1.24v-1.5c0-.35.13-.7.4-1.05s.61-.65,1.02-.88c.42-.23.84-.35,1.28-.35h2.84c.52,0,.92.12,1.21.35ZM79.71,12.04c.09-.03.17-.09.26-.19.06-.07.11-.15.13-.24.03-.09.04-.21.05-.37,0-.07-.02-.16-.06-.27s-.11-.21-.22-.3-.26-.14-.45-.14h-3.1c-.22,0-.46.07-.72.21-.26.14-.47.33-.65.56-.18.24-.27.5-.27.79h4.61c.19,0,.33-.02.42-.05Z"/>
        <path class="cls-20" d="M88.28,12.08c.4.02.74.15,1.04.39.3.24.45.7.45,1.38,0,.36-.09.67-.27.91-.18.24-.41.42-.68.54s-.54.18-.8.18h-6v-.98s5.97,0,5.97,0c.21,0,.4-.05.57-.14s.25-.31.25-.65c0-.21-.06-.37-.18-.46-.12-.09-.26-.15-.41-.17-.16-.02-.25-.02-.29-.02h-4.35c-.23,0-.48-.07-.74-.19-.26-.12-.48-.32-.67-.6-.19-.28-.28-.63-.28-1.07,0-.38.1-.7.3-.95.2-.25.43-.44.71-.55.27-.12.54-.18.78-.2h5.42v.98h-5.36c-.22,0-.43.05-.62.14-.19.1-.29.33-.29.71,0,.3.09.5.26.59.18.09.35.14.51.15h4.66Z"/>
        <path class="cls-20" d="M95.47,14.48v.96h-1.81c-.52,0-1.01-.13-1.46-.39-.45-.26-.8-.61-1.07-1.05-.26-.44-.4-.92-.41-1.44v-5.25h.97s0,0,0,.07v2.16h2.27s0,0,0,.07v.89s-.03,0-.09,0h-2.18v2.08c0,.42.11.78.33,1.06s.45.5.69.64c.12.08.3.13.55.15.24.02.44.03.59.02h1.61Z"/>
        <path class="cls-20" d="M97.69,6.69v1.04h-1.04v-1.04h1.04ZM97.69,9.11v6.35h-1.04v-6.35h1.04Z"/>
        <path class="cls-20" d="M102.95,9.57c.53-.02.99.02,1.38.15.39.12.71.29.96.51.25.22.44.45.58.69.14.25.24.48.31.69.06.21.1.4.12.55.02.16.02.22.02.2v.35c0,.25-.06.54-.19.87-.12.33-.32.64-.58.93-.26.3-.6.54-1.01.72s-.89.26-1.44.23h-1.1c-.55.03-1.03-.05-1.44-.23-.41-.18-.75-.42-1.01-.72-.26-.3-.45-.61-.58-.93-.12-.32-.19-.61-.19-.87v-.35s0-.04.02-.2c.02-.16.06-.34.12-.55.06-.21.17-.44.31-.69s.34-.48.59-.69c.25-.22.57-.39.96-.51.39-.12.85-.17,1.38-.15h.8ZM103.33,14.48c.73,0,1.25-.18,1.54-.53s.47-.73.51-1.14v-.17s.01-.28.01-.28v-.18c-.06-.38-.23-.75-.52-1.11s-.81-.54-1.54-.54h-1.56c-.74,0-1.25.18-1.54.54-.29.36-.46.73-.5,1.11l-.02.18v.26l.02.18c.04.4.21.78.51,1.14.3.35.81.53,1.54.53h1.56ZM103.29,7.37h1.2s-.75.77-.75.77l-.78.75h-.74l1.08-1.53Z"/>
        <path class="cls-20" d="M114.44,10.97c.26.46.39.96.39,1.51v3h-.99v-3c0-.27-.05-.54-.14-.81s-.22-.49-.4-.67c-.17-.18-.38-.31-.64-.41-.26-.09-.51-.14-.77-.14h-1.86c-.5,0-1.15,0-1.95,0,0-.23,0-.02,0,.65,0,.67,0,1.1,0,1.31v3.07h-.99v-6.01h4.79c.52,0,1.01.13,1.46.4.45.27.81.64,1.07,1.1Z"/>
        <path class="cls-20" d="M117.96,6.7h8.79v1.2h-7.59v2.4h7.59v1.2h-7.59v2.8h7.59v1.2h-8.79V6.7Z"/>
        <path class="cls-20" d="M135,15.44h-3.28c-.54.03-1-.02-1.4-.14-.4-.12-.72-.29-.97-.51-.25-.21-.45-.44-.59-.69s-.25-.47-.31-.69c-.07-.21-.11-.4-.12-.55-.02-.15-.02-.22-.02-.19v-.34c0-.25.06-.54.19-.86.13-.32.32-.63.59-.93.27-.3.61-.53,1.03-.71s.91-.26,1.47-.23h1.8c.35,0,.73.11,1.14.33.41.22.75.5,1.03.85.28.35.42.71.42,1.08v5.63c0,.17,0,.23,0,.17h-.96v-2.23ZM135,12.09c0-.22-.09-.46-.26-.7-.17-.24-.39-.44-.65-.59s-.52-.23-.78-.23h-1.99c-.58,0-1.03.12-1.34.35-.31.24-.51.49-.61.76-.1.27-.14.51-.14.72v.29c0,.17.04.38.13.65s.29.52.6.77.76.36,1.36.36h3.67v-2.38Z"/>
        <path class="cls-20" d="M142.19,14.34c.26-.09.47-.23.64-.41.17-.17.3-.4.4-.67.09-.27.14-.54.14-.81v-3.03h.99v3.03c0,.55-.13,1.05-.39,1.52-.27.46-.63.83-1.08,1.1-.45.27-.94.41-1.47.41h-1.88c-.54,0-1.03-.13-1.48-.41-.45-.27-.81-.64-1.07-1.1-.27-.47-.4-.97-.4-1.52v-3.03h.99s0,0,0,.08v2.95c0,.27.05.54.14.81.09.27.23.49.4.67.17.18.39.32.65.41.26.09.52.14.78.14h1.88c.26,0,.52-.05.78-.14Z"/>
        <path class="cls-20" d="M146.33,6.69v1.04h-1.04v-1.04h1.04ZM146.33,9.11v6.35h-1.04v-6.35h1.04Z"/>
        <path class="cls-20" d="M148.45,17.63h-.95c0,.06,0,0,0-.17v-5.58c0-.36.14-.72.42-1.07.28-.35.62-.63,1.02-.85.4-.22.78-.33,1.13-.33h1.78c.55-.02,1.04.05,1.45.23s.76.41,1.02.71c.26.29.46.6.58.92.13.32.19.6.19.86v.34s0,.04-.02.19c-.02.15-.06.34-.12.55-.06.21-.17.44-.31.68-.14.24-.34.47-.59.68-.25.21-.57.38-.96.5-.39.12-.85.17-1.39.14h-3.25v2.2ZM148.45,14.47h3.63c.59,0,1.04-.12,1.35-.36.31-.24.5-.5.59-.76s.13-.48.13-.64v-.29c0-.2-.05-.44-.14-.71-.09-.27-.29-.53-.6-.76-.31-.23-.75-.35-1.33-.35h-1.97c-.25,0-.51.08-.77.23s-.48.35-.64.59c-.17.24-.25.47-.25.69v2.37Z"/>
        <path class="cls-20" d="M160.03,9.57c.53-.02.99.02,1.38.15.39.12.71.29.96.51.25.22.44.45.59.69.14.25.24.48.31.69.06.21.1.4.12.55s.02.22.02.2v.35c0,.25-.06.54-.19.87-.12.33-.32.64-.58.93-.26.3-.6.54-1.01.72-.41.18-.89.26-1.44.23h-1.1c-.55.03-1.03-.05-1.44-.23s-.75-.42-1.01-.72c-.26-.3-.46-.61-.58-.93-.12-.32-.19-.61-.19-.87v-.35s0-.04.02-.2.06-.34.12-.55c.06-.21.17-.44.31-.69.14-.25.34-.48.59-.69.25-.22.57-.39.96-.51.39-.12.85-.17,1.38-.15h.8ZM160.41,14.48c.73,0,1.25-.18,1.54-.53.3-.35.47-.73.51-1.14v-.17s.01-.28.01-.28v-.18c-.06-.38-.23-.75-.52-1.11-.29-.36-.81-.54-1.54-.54h-1.56c-.74,0-1.25.18-1.54.54-.29.36-.46.73-.5,1.11l-.02.18v.26l.02.18c.04.4.21.78.51,1.14.3.35.81.53,1.54.53h1.56Z"/>
      </g>
    </g>
    <g>
      <path class="cls-15" d="M126.54,88.63h6.46v-6.24c0-.99.42-1.08.42-1.08,2.89,1.85,4.85-.6,4.85-.6,1.96-2.43,0-4.48,0-4.48-2.27-2.51-4.79-.66-4.79-.66-.6,0-.46-.97-.46-.97v-6.41h-17.79c-3.18,0-2.74,2.88-2.74,2.88v17.65s6.79,0,6.79,0c0,0,.71-.1.71.46,0,0-1.46,1.7-.16,3.93,0,0,1.01,1.75,3.09,1.6,0,0,2.77.02,3.3-2.85,0,0,.35-1.45-.68-2.76,0,0-.12-.55,1-.47"/>
      <path class="cls-4" d="M135.53,75.21c-.29,0-.57.05-.84.12h0s0,0,0,0c-.46.12-.87.33-1.23.62-.39.04-.74-.16-.78-.96v-6.44h-17.75c-1.15,0-2.08.93-2.08,2.08v17.75h6.5c.8.05.99.4.93.8-.27.34-.48.74-.6,1.17-.02.02-.03.03-.03.03h.02c-.07.27-.12.55-.12.84,0,1.81,1.45,3.28,3.25,3.28s3.25-1.47,3.25-3.28c0-.29-.05-.57-.12-.84h0,0c-.12-.46-.33-.88-.62-1.23-.04-.39.15-.73.93-.77h6.44v-6.43c.04-.82.39-1.02.8-.97.34.27.74.48,1.17.6.02.02.03.03.03.03v-.02c.27.07.55.12.84.12,1.81,0,3.28-1.46,3.28-3.25s-1.47-3.25-3.28-3.25"/>
      <path class="cls-15" d="M148.62,88.66h-6.24v-6.46s-.24-1.63,1.04-1.63c0,0,1.65,1.43,3.44.53,0,0,1.63-.79,1.63-2.62,0,0,0-1.85-1.57-2.56,0,0-1.74-1.1-3.49.42,0,0-1.15.22-1.15-1.39v-6.79h.15s17.5,0,17.5,0c0,0,2.88-.44,2.88,2.74v17.79h-6.41s-1.65.13-1.65-1.09c0,0,1.24-1.43.62-3.16,0,0-.63-1.82-2.69-1.96,0,0-2.1-.2-3.03,2.06,0,0-.57,1.52.6,2.97,0,0,.7,1.17-1.62,1.17"/>
      <path class="cls-6" d="M150.02,87.56c-.29-.36-.5-.77-.62-1.23,0,0,0,0,0,0h0c-.07-.27-.12-.55-.12-.84,0-1.81,1.45-3.28,3.25-3.28s3.25,1.47,3.25,3.28c0,.29-.05.57-.12.84h.02s-.01.01-.03.03c-.12.44-.32.83-.6,1.17-.06.42.15.79,1.05.81h6.35v-17.74c0-1.15-.93-2.08-2.08-2.08h-17.74v6.36c.01.89.37,1.11.78,1.07.36-.29.78-.5,1.23-.62,0,0,0,0,0,0h0c.27-.07.55-.12.84-.12,1.81,0,3.28,1.46,3.28,3.25s-1.47,3.25-3.28,3.25c-.29,0-.57-.05-.84-.12v.02s-.01-.01-.03-.03c-.44-.12-.83-.32-1.17-.6-.42-.06-.79.15-.81,1.07v6.31h6.35c.88-.02,1.09-.37,1.05-.78"/>
      <path class="cls-15" d="M149.34,97.75h-6.46v6.24c0,.99-.42,1.08-.42,1.08-2.89-1.85-4.85.6-4.85.6-1.96,2.43,0,4.48,0,4.48,2.27,2.51,4.79.66,4.79.66.6,0,.46.97.46.97v6.41h17.79c3.18,0,2.74-2.88,2.74-2.88v-17.65s-6.79,0-6.79,0c0,0-.71.1-.71-.46,0,0,1.46-1.7.16-3.93,0,0-1.01-1.75-3.09-1.6,0,0-2.77-.02-3.3,2.85,0,0-.35,1.45.68,2.76,0,0,.12.55-1,.47"/>
      <path class="cls-8" d="M140.35,111.17c.29,0,.57-.05.84-.12h0s0,0,0,0c.46-.12.87-.33,1.23-.62.39-.04.74.16.78.96v6.44h17.75c1.15,0,2.08-.93,2.08-2.08v-17.75h-6.5c-.8-.05-.99-.4-.93-.8.27-.34.48-.74.6-1.17.02-.02.03-.03.03-.03h-.02c.07-.27.12-.55.12-.84,0-1.81-1.45-3.28-3.25-3.28s-3.25,1.47-3.25,3.28c0,.29.05.57.12.84h0,0c.12.46.33.88.62,1.23.04.39-.15.73-.93.77h-6.44v6.43c-.04.82-.39,1.02-.8.97-.34-.27-.74-.48-1.17-.6-.02-.02-.03-.03-.03-.03v.02c-.27-.07-.55-.12-.84-.12-1.81,0-3.28,1.46-3.28,3.25s1.47,3.25,3.28,3.25"/>
      <path class="cls-15" d="M127.65,97.72h6.24v6.46s.24,1.63-1.04,1.63c0,0-1.65-1.43-3.44-.53,0,0-1.63.79-1.63,2.62,0,0,0,1.85,1.57,2.56,0,0,1.74,1.1,3.49-.42,0,0,1.15-.22,1.15,1.39v6.79h-.15s-17.5,0-17.5,0c0,0-2.88.44-2.88-2.74v-17.79h6.41s1.65-.13,1.65,1.09c0,0-1.24,1.43-.62,3.16,0,0,.63,1.82,2.69,1.96,0,0,2.1.2,3.03-2.06,0,0,.57-1.52-.6-2.97,0,0-.69-1.17,1.62-1.17"/>
      <path class="cls-13" d="M126.24,98.82c.29.36.5.77.62,1.23,0,0,0,0,0,0h0c.07.27.12.55.12.84,0,1.81-1.45,3.28-3.25,3.28s-3.25-1.47-3.25-3.28c0-.29.05-.57.12-.84h-.02s.01-.01.03-.03c.12-.44.32-.83.6-1.17.06-.42-.15-.79-1.05-.81h-6.35v17.74c0,1.15.93,2.08,2.08,2.08h17.74v-6.36c-.01-.89-.37-1.11-.78-1.07-.36.29-.78.5-1.23.62,0,0,0,0,0,0h0c-.27.07-.55.12-.84.12-1.81,0-3.28-1.46-3.28-3.25s1.47-3.25,3.28-3.25c.29,0,.57.05.84.12v-.02s.01.01.03.03c.44.12.83.32,1.17.6.42.06.79-.15.81-1.07v-6.31h-6.35c-.88.02-1.09.37-1.05.78"/>
      <path class="cls-5" d="M126.05,107.22c-.46-.54-1.26-.6-1.8-.14-.54.46-.6,1.26-.14,1.8.1.12.22.2.35.27l-1.12,2.71c-.27-.07-.55-.03-.8.12l-1.91-2.29c.35-.39.38-.98.03-1.39-.38-.45-1.05-.5-1.5-.12-.45.38-.5,1.05-.12,1.5.02.02.04.03.06.04l-1.77,2.32c-.46-.27-1.04-.24-1.47.12-.54.46-.6,1.26-.14,1.8.46.54,1.26.6,1.8.14.53-.46.6-1.27.14-1.8-.03-.03-.06-.04-.09-.07l1.77-2.32c.33.18.73.17,1.06-.03l1.91,2.29c-.35.39-.38.98-.03,1.39.38.45,1.05.5,1.5.12.45-.38.5-1.05.12-1.5-.08-.09-.17-.15-.27-.21l1.12-2.72c.39.11.83.05,1.17-.24.54-.46.6-1.26.14-1.8"/>
      <rect class="cls-5" x="153.39" y="73.16" width="1.84" height="6.19"/>
      <rect class="cls-5" x="150.71" y="77.61" width="1.85" height="1.75"/>
      <rect class="cls-5" x="158.76" y="73.16" width="1.84" height="6.19"/>
      <rect class="cls-5" x="158.76" y="70.82" width="1.84" height="1.45"/>
      <rect class="cls-5" x="156.07" y="70.35" width="1.84" height="9.01"/>
      <path class="cls-15" d="M158.06,102.66h-6.09c-.31,0-.56.25-.56.56v11.19c0,.31.25.56.56.56h8.39c.31,0,.56-.25.56-.56v-8.78l-2.86-2.97Z"/>
      <path class="cls-5" d="M157.85,103.2h-5.39c-.27,0-.5.23-.5.51v10.2c0,.28.22.51.5.51h7.43c.28,0,.5-.23.5-.51v-8.01l-2.54-2.71Z"/>
      <path class="cls-8" d="M159.12,108.11h-6.02c-.12,0-.21-.09-.21-.21v-.09c0-.12.09-.21.21-.21h6.02c.11,0,.21.09.21.21v.09c0,.12-.09.21-.21.21"/>
      <path class="cls-8" d="M159.12,110.5h-6.02c-.12,0-.21-.09-.21-.21v-.09c0-.12.09-.21.21-.21h6.02c.11,0,.21.09.21.21v.09c0,.12-.09.21-.21.21"/>
      <path class="cls-8" d="M159.12,112.89h-6.02c-.12,0-.21-.09-.21-.21v-.09c0-.12.09-.21.21-.21h6.02c.11,0,.21.09.21.21v.09c0,.12-.09.21-.21.21"/>
      <path class="cls-8" d="M159.12,106.05h-6.02c-.12,0-.21-.09-.21-.21v-.09c0-.12.09-.21.21-.21h6.02c.11,0,.21.09.21.21v.09c0,.12-.09.21-.21.21"/>
      <path class="cls-5" d="M113.53,74.46c-.02.07,0,.14.07.19l1.01.72c0,.29.01.57.06.84l-.89.87c-.05.05-.07.13-.04.19l.58,1.18c.03.07.1.1.18.09l1.27-.19c.19.2.4.38.63.54v1.25c0,.08.04.14.11.16l1.25.41c.07.02.15,0,.19-.06l.74-1.02c.28,0,.55-.02.82-.06l.87.89c.05.05.13.07.19.04l1.18-.58c.06-.03.1-.1.09-.18l-.18-1.27c.19-.18.36-.38.51-.59h1.28c.08,0,.14-.05.16-.12l.4-1.25c.02-.07,0-.14-.07-.19l-1.01-.73c0-.29-.01-.58-.06-.86l.89-.87c.05-.05.07-.13.04-.2l-.58-1.18c-.03-.07-.1-.1-.18-.09l-1.27.18c-.18-.19-.39-.37-.61-.52v-1.28c0-.07-.05-.14-.12-.16l-1.25-.4c-.07-.02-.14,0-.19.07l-.72,1.01c-.3,0-.59.01-.87.07l-.87-.89c-.05-.05-.13-.07-.19-.04l-1.18.58c-.06.03-.1.1-.09.18l.19,1.27c-.19.18-.36.38-.51.6h-1.28c-.07,0-.14.06-.16.13l-.39,1.25Z"/>
      <path class="cls-5" d="M118.07,77.62c1.19.39,2.47-.26,2.86-1.45.39-1.19-.26-2.47-1.45-2.86-1.19-.39-2.47.26-2.86,1.45-.39,1.19.26,2.47,1.45,2.86"/>
      <path class="cls-19" d="M118.15,77.38c1.05.35,2.19-.23,2.54-1.28.35-1.06-.23-2.19-1.28-2.54-1.06-.35-2.19.23-2.54,1.28-.35,1.06.23,2.19,1.28,2.54"/>
      <path class="cls-15" d="M119.3,73.88c.88.29,1.36,1.24,1.07,2.12-.29.88-1.24,1.36-2.12,1.07-.88-.29-1.36-1.24-1.07-2.12s1.24-1.36,2.12-1.07"/>
      <path class="cls-5" d="M123.84,75.48s0,.09.04.12l.62.44c0,.17,0,.35.04.52l-.55.53s-.04.08-.02.12l.35.72s.06.06.11.06l.78-.11c.12.12.25.23.39.33v.77s.03.09.07.1l.76.25s.09,0,.12-.04l.45-.63c.17,0,.34,0,.5-.04l.53.55s.08.04.12.02l.72-.35s.06-.06.06-.11l-.11-.78c.12-.11.22-.23.31-.36h.79s.09-.03.1-.07l.24-.77s0-.09-.04-.12l-.62-.45c0-.18,0-.35-.04-.53l.55-.53s.04-.08.02-.12l-.35-.72s-.06-.06-.11-.06l-.78.11c-.11-.12-.24-.23-.37-.32v-.79s-.03-.09-.07-.1l-.77-.24s-.09,0-.12.04l-.44.62c-.18,0-.36,0-.53.04l-.54-.54s-.08-.04-.12-.02l-.72.36s-.06.06-.06.11l.12.78c-.11.11-.22.23-.31.37h-.79s-.09.04-.1.08l-.24.77Z"/>
      <path class="cls-5" d="M126.62,77.42c.73.24,1.51-.16,1.75-.89.24-.73-.16-1.51-.89-1.76-.73-.24-1.52.16-1.75.89-.24.73.16,1.51.89,1.75"/>
      <path class="cls-19" d="M126.67,77.27c.65.21,1.34-.14,1.56-.79.21-.65-.14-1.34-.79-1.56-.65-.21-1.34.14-1.56.79-.21.65.14,1.34.79,1.56"/>
      <path class="cls-15" d="M127.38,75.12c.54.18.83.76.66,1.3-.18.54-.76.83-1.3.66-.54-.18-.83-.76-.66-1.3.18-.54.76-.83,1.3-.66"/>
      <path class="cls-16" d="M148.12,93.29c0,5.54-4.49,10.03-10.03,10.03s-10.03-4.49-10.03-10.03,4.49-10.03,10.03-10.03,10.03,4.49,10.03,10.03"/>
      <path class="cls-5" d="M147.4,93.29c0,5.14-4.17,9.31-9.31,9.31s-9.31-4.17-9.31-9.31,4.17-9.31,9.31-9.31,9.31,4.17,9.31,9.31"/>
      <path class="cls-15" d="M135.35,87.3c0,.64-.52,1.16-1.16,1.16s-1.16-.52-1.16-1.16.52-1.16,1.16-1.16,1.16.52,1.16,1.16"/>
      <path class="cls-15" d="M136.13,88.88c-.11-.06-.24-.1-.37-.1h-3.42c-.2,0-.39.08-.52.22-.22.15-.45.39-.45.49v4.82c0,.15.2.26.44.26s.44-.12.44-.26v-3.72s.06,0,.08,0h.32v9.62c0,.3.29.55.64.55s.64-.25.64-.55v-5.57s.05,0,.08,0h.34s.01,0,.01,0v5.57c0,.3.29.55.64.55s.64-.25.64-.55v-9.62h.11c.07,0,.14-.01.2-.03v3.75c0,.15.2.26.44.26s.44-.12.44-.26v-4.82c0-.14-.47-.58-.72-.6"/>
      <path class="cls-15" d="M142.7,87.3c0,.64-.52,1.16-1.16,1.16s-1.16-.52-1.16-1.16.52-1.16,1.16-1.16,1.16.52,1.16,1.16"/>
      <path class="cls-15" d="M143.48,88.88c-.11-.06-.24-.1-.37-.1h-3.42c-.2,0-.39.08-.52.22-.22.15-.45.39-.45.49v4.82c0,.15.2.26.44.26s.44-.12.44-.26v-3.72s.06,0,.08,0h.32v9.62c0,.3.29.55.64.55s.64-.25.64-.55v-5.57s.05,0,.08,0h.34s.01,0,.02,0v5.57c0,.3.29.55.64.55s.64-.25.64-.55v-9.62h.11c.07,0,.14-.01.2-.03v3.75c0,.15.2.26.44.26s.44-.12.44-.26v-4.82c0-.14-.47-.58-.72-.6"/>
      <path class="cls-15" d="M138.35,87.3c0,.64-.52,1.16-1.16,1.16s-1.16-.52-1.16-1.16.52-1.16,1.16-1.16,1.16.52,1.16,1.16"/>
      <path class="cls-15" d="M139.13,88.88c-.11-.06-.24-.1-.37-.1h-3.42c-.2,0-.39.08-.52.22-.22.15-.45.39-.45.49v4.82c0,.15.2.26.44.26s.44-.12.44-.26v-3.72s.06,0,.08,0h.32v9.62c0,.3.29.55.64.55s.64-.25.64-.55v-5.57s.05,0,.08,0h.34s.01,0,.02,0v5.57c0,.3.29.55.64.55s.64-.25.64-.55v-9.62h.11c.07,0,.14-.01.2-.03v3.75c0,.15.2.26.44.26s.44-.12.44-.26v-4.82c0-.14-.47-.58-.72-.6"/>
    </g>
    <g>
      <path class="cls-15" d="M132.07,156.01l12.64-6.37c.33-.17.69-.25,1.05-.25s.72.08,1.05.25l12.64,6.37c.3.15.56.36.76.61l-5.36,2.7c-.17.08-.37.08-.53-.02h-.02c-.17-.12-.27-.31-.26-.51.04-.67-.35-1.3-1.05-1.73-.59-.37-1.34-.55-2.11-.52-.78.03-1.49.26-2,.67-.55.43-.84,1.01-.8,1.59.04.54.36,1.03.88,1.34.82.49,1.89.64,2.86.41.04,0,.08,0,.11.02.06.04.07.1.07.12,0,.02-.01.08-.08.12l-6.16,3.1-6.56-3.31c-.2-.1-.44-.09-.64.03-.2.12-.31.33-.31.56,0,.09.02.17.05.25.03.08.08.15.14.21.64.62,1.04,1.52,1.05,2.33,0,.59-.19,1.06-.56,1.33-.33.24-.77.27-1.24.11-.52-.19-1.02-.59-1.4-1.15-.38-.56-.6-1.2-.6-1.8,0-.63.23-1.13.64-1.38.35-.2.56-.58.55-.98,0-.21-.06-.4-.17-.58-.11-.17-.26-.31-.45-.41l-4.95-2.49c.2-.25.46-.46.76-.61"/>
      <path class="cls-14" d="M132.07,174.52c-.79-.4-1.28-1.2-1.28-2.08v-14.34c0-.38.09-.74.26-1.06l4.99,2.52c.11.05.19.13.25.23.06.1.09.21.1.33,0,.23-.12.44-.32.56-.56.33-.88.99-.87,1.8,0,.69.25,1.43.69,2.06.44.64,1.02,1.12,1.64,1.33.25.09.49.13.72.13.35,0,.68-.1.96-.3.49-.35.77-.98.76-1.72,0-.94-.46-1.96-1.19-2.67-.02-.02-.03-.03-.04-.05,0-.02-.01-.04-.01-.07,0-.09.06-.13.08-.15.02-.01.09-.05.17,0l6.54,3.29v6.19c0,.25.12.48.33.62.2.14.46.18.7.09.09-.03.18-.09.25-.15.07-.07.13-.15.18-.24.38-.79,1.08-1.45,1.83-1.72.56-.2,1.07-.17,1.44.08.33.23.51.63.51,1.13,0,.56-.22,1.16-.62,1.71-.4.55-.93.96-1.5,1.17-.62.23-1.19.16-1.56-.18-.26-.24-.62-.32-.95-.2h-.01c-.36.14-.6.48-.6.86v7.43c-.28-.03-.55-.11-.81-.24l-12.64-6.37Z"/>
      <path class="cls-10" d="M160.72,172.44c0,.89-.49,1.68-1.28,2.08l-12.63,6.37c-.26.13-.53.21-.81.24v-7.43c0-.18.11-.34.29-.41h.01c.15-.06.33-.02.45.09.5.47,1.25.57,2.05.28.65-.24,1.26-.71,1.72-1.33.46-.63.71-1.33.71-1.99s-.26-1.2-.72-1.53c-.49-.35-1.18-.4-1.88-.14-.88.32-1.66,1.05-2.1,1.97-.02.03-.04.06-.07.09-.03.03-.06.05-.09.06-.09.03-.18.02-.26-.03-.08-.05-.12-.14-.12-.23v-6.19l6.13-3.09c.2-.1.33-.3.34-.53.01-.23-.1-.43-.29-.56-.1-.06-.21-.09-.33-.09-.05,0-.1,0-.15.02-.85.2-1.78.07-2.5-.36-.39-.23-.62-.57-.64-.95-.03-.42.2-.85.62-1.18.44-.35,1.05-.55,1.72-.57.68-.02,1.33.14,1.84.45.55.34.85.81.82,1.3-.02.38.17.74.48.93h.02c.3.2.68.21,1,.06l5.41-2.72c.16.32.26.68.26,1.06v14.34Z"/>
      <path class="cls-6" d="M135.3,167.12s0,.08,0,.11c0,.04,0,.07,0,.11,0,.05-.01.11-.02.16,0,.06-.02.11-.03.16-.03.1-.06.19-.09.28,0,.01-.01.02-.02.04-.02.04-.04.08-.06.12,0,.01-.01.02-.02.03-.08.13-.19.24-.3.31-.01,0-.02.01-.03.02-.02.01-.04.02-.06.03-.01,0-.03.01-.04.02-.03.01-.06.03-.09.04,0,0,0,0-.01,0-.04.01-.08.02-.13.03-.04,0-.08.01-.12.01,0,0,0,0,0,0-.08,0-.17,0-.25-.02-.02,0-.04,0-.05-.01-.09-.02-.18-.05-.27-.09-.03-.01-.06-.03-.09-.04l-.04-.02s-.03-.02-.04-.03c-.03-.02-.06-.03-.09-.05-.09-.06-.18-.13-.26-.2-.02-.02-.04-.03-.06-.05-.08-.08-.17-.16-.25-.25,0,0,0,0,0,0-.04-.04-.07-.08-.1-.13-.05-.06-.09-.12-.13-.18,0,0,0-.01-.01-.02-.03-.04-.06-.09-.09-.13-.01-.02-.03-.04-.04-.06-.02-.03-.04-.06-.06-.1-.02-.04-.04-.07-.06-.11-.1-.19-.18-.38-.25-.58,0-.02-.01-.04-.02-.06-.02-.06-.04-.12-.06-.18,0-.02-.01-.04-.01-.05-.03-.12-.06-.25-.08-.37-.01-.07-.02-.13-.03-.19,0-.06-.01-.12-.01-.18,0-.04,0-.08,0-.12,0-.04,0-.08,0-.12s0-.08,0-.11c0-.02,0-.05,0-.07,0-.01,0-.03,0-.04,0-.01,0-.03,0-.04,0-.04.01-.08.02-.12,0-.06.02-.11.03-.16.03-.1.06-.19.09-.28,0,0,0-.01,0-.02,0,0,0-.01,0-.02.02-.04.04-.08.06-.12,0-.01.01-.02.02-.03.08-.13.18-.24.3-.31.01,0,.02-.01.03-.02.02-.01.04-.02.06-.03.01,0,.03-.01.04-.02.03-.01.06-.03.09-.04,0,0,0,0,.01,0,.08-.03.16-.04.25-.04,0,0,0,0,0,0,.08,0,.17,0,.25.02.02,0,.04,0,.06.01.09.02.18.05.27.09.03.01.06.03.09.04.01,0,.03.02.04.02.02,0,.03.02.05.02.03.02.06.04.09.05.09.06.18.12.26.2.02.02.04.03.05.05.08.08.17.16.25.25,0,0,0,0,0,0,.08.1.16.2.24.31,0,0,0,.01.01.02.03.04.06.09.09.13.01.02.02.04.04.06.02.03.04.06.06.1.01.02.02.04.03.06.11.2.2.42.28.63,0,.02.01.04.02.06.02.06.04.12.06.19,0,.02.01.03.02.05.03.12.06.25.08.37.01.06.02.13.03.19,0,.06.01.12.01.18,0,.02,0,.04,0,.06,0,.02,0,.04,0,.06,0,.04,0,.08,0,.11"/>
      <path class="cls-5" d="M131.88,165.06s0,0,0,0t0,0M131.85,165.02s0,0,0,0c0,.01.01.02.03.03,0,0,0,0,0,0,0-.01-.02-.02-.02-.03"/>
      <path class="cls-5" d="M131.85,165.02s.02.02.02.03c0,0-.01-.02-.02-.02,0,0,0,0,0,0"/>
      <polyline class="cls-5" points="131.88 165.06 131.88 165.06 131.88 165.06 131.88 165.06"/>
      <path class="cls-6" d="M136.36,172.09l-.05,2.3s-.03.03-.07.01l-5.6-3.07s-.08-.05-.08-.09l.05-2.3s0-.07,0-.11c.03-.54.21-.94.49-1.17,0,0,.02-.01.03-.02.14-.11.29-.17.47-.19.01,0,.02,0,.03,0,.05,0,.1,0,.15,0,.01,0,.02,0,.03,0,.05,0,.09.01.14.02.05.1.11.2.17.29.15.24.32.46.49.66.03.04.07.07.1.11.13.14.26.26.4.37.13.11.27.2.41.27.16.09.31.15.47.19.02,0,.04,0,.06.01h0s.06.03.08.05c.07.04.15,0,.22.01.03,0,.06-.02.09-.02.14,0,.27-.04.4-.09.01,0,.03,0,.04,0,.08-.03.16-.07.24-.12.7.6,1.22,1.73,1.23,2.75,0,.04,0,.08,0,.12"/>
      <path class="cls-8" d="M129.34,164.83c0,.05,0,.11,0,.16,0,.05,0,.1-.01.15,0,.07-.02.15-.03.22-.01.08-.03.15-.05.22-.04.14-.08.27-.13.39,0,.02-.01.03-.02.05-.03.06-.06.11-.09.17-.01.02-.02.03-.03.05-.12.18-.26.33-.42.44-.02.01-.03.02-.05.03-.03.02-.06.03-.08.05-.02.01-.04.02-.06.03-.04.02-.08.04-.13.05,0,0-.01,0-.02,0-.06.02-.12.03-.18.04-.06,0-.11.01-.17.02,0,0,0,0-.01,0-.11,0-.23,0-.35-.03-.03,0-.05-.01-.08-.02-.12-.03-.25-.07-.37-.13-.04-.02-.08-.04-.12-.06-.02,0-.04-.02-.06-.03-.02-.01-.04-.02-.06-.03-.04-.02-.08-.05-.12-.08-.13-.08-.25-.18-.37-.28-.03-.02-.05-.04-.08-.07-.12-.11-.24-.23-.35-.35,0,0,0,0,0-.01-.05-.06-.1-.12-.15-.18-.07-.08-.13-.17-.19-.26,0,0-.01-.02-.02-.03-.04-.06-.08-.12-.12-.19-.02-.03-.03-.06-.05-.09-.03-.04-.05-.09-.08-.14-.03-.05-.06-.1-.08-.15-.14-.26-.26-.53-.36-.82,0-.02-.02-.05-.03-.08-.03-.09-.06-.17-.08-.26,0-.03-.01-.05-.02-.07-.05-.17-.08-.35-.11-.52-.01-.09-.03-.18-.04-.27,0-.08-.02-.16-.02-.25,0-.06,0-.11,0-.16,0-.05,0-.11,0-.16,0-.05,0-.11,0-.16,0-.03,0-.06,0-.1h0s0-.04,0-.06c0-.02,0-.04,0-.06,0-.06.01-.11.02-.16.01-.08.03-.15.05-.22.04-.14.08-.27.13-.39,0,0,0-.02.01-.03,0,0,0-.02.01-.03.03-.06.06-.11.09-.17.01-.02.02-.03.03-.05.12-.18.26-.33.42-.44.02-.01.03-.02.05-.03.03-.02.06-.03.08-.05.02,0,.04-.02.06-.03.04-.02.08-.03.13-.05,0,0,.01,0,.02,0,.11-.03.23-.05.35-.06h.01c.11,0,.23,0,.35.03.03,0,.05.01.08.02.12.03.25.07.37.13.04.02.08.04.12.06.02.01.04.02.06.03.02.01.04.02.06.04.04.02.08.05.12.07.13.08.25.18.37.28.03.02.05.05.08.07.12.11.24.23.34.35,0,0,0,0,.01.01.12.14.23.28.34.43,0,0,.01.02.02.03.04.06.08.12.12.19.02.03.04.06.05.09.03.05.05.09.08.14.01.03.03.05.04.08.15.28.29.58.4.89,0,.03.02.05.03.08.03.09.06.17.08.26,0,.03.01.05.02.07.05.17.08.35.11.52.01.09.03.18.04.27,0,.08.02.17.02.25,0,.03,0,.05,0,.08,0,.03,0,.06,0,.09,0,.05,0,.11,0,.16"/>
      <path class="cls-8" d="M124.54,161.94s0,0,0,0h0s0,0,0,0M124.5,161.89s0,0,0,0c.01.01.02.03.04.04,0,0,0,0,0,0-.01-.01-.02-.03-.03-.04"/>
      <path class="cls-8" d="M124.5,161.89s.02.03.03.04c0-.01-.02-.02-.03-.03,0,0,0,0,0,0"/>
      <polyline class="cls-8" points="124.54 161.95 124.54 161.95 124.54 161.95 124.54 161.95 124.54 161.95"/>
      <path class="cls-8" d="M130.82,171.82l-.07,3.23c0,.07-.05.05-.1.02l-7.85-4.3s-.11-.06-.11-.13l.07-3.22c0-.05,0-.1.01-.15.04-.75.3-1.32.68-1.64.01,0,.02-.02.04-.03.19-.15.41-.24.65-.26h.04c.07,0,.14,0,.2,0,.02,0,.03,0,.05,0,.06,0,.13.02.19.03.08.14.16.28.24.41.21.34.44.65.69.93.05.05.09.1.14.15.18.19.37.37.56.52.19.15.38.28.57.38.22.12.44.21.66.27.03,0,.05,0,.08.02.04.02.08.04.12.06.1.06.21.01.31.01.04,0,.08-.02.12-.02.2,0,.39-.06.56-.13h0s.04,0,.06,0c.12-.05.23-.1.33-.17.98.84,1.71,2.42,1.73,3.85,0,.05.01.12.01.17"/>
      <path class="cls-13" d="M152.76,144.98c-.7-.82-1.93-.91-2.74-.21-.82.7-.91,1.93-.21,2.74.15.18.34.31.53.42l-1.71,4.14c-.41-.1-.84-.04-1.22.19l-2.91-3.5c.53-.6.58-1.49.05-2.12-.58-.68-1.61-.76-2.29-.18-.68.58-.76,1.61-.18,2.29.03.03.06.04.09.07l-2.7,3.54c-.7-.41-1.59-.38-2.24.18-.82.7-.91,1.93-.21,2.75.7.82,1.93.91,2.75.21.82-.7.91-1.93.21-2.75-.04-.05-.1-.07-.14-.11l2.7-3.54c.5.28,1.11.26,1.61-.05l2.91,3.5c-.53.6-.58,1.5-.05,2.12.58.68,1.61.76,2.29.18.68-.58.76-1.61.18-2.29-.12-.14-.26-.24-.41-.32l1.72-4.14c.6.17,1.27.08,1.78-.36.82-.7.91-1.93.21-2.75"/>
      <path class="cls-15" d="M161.68,160.69l-3.54,1.77c-.18.09-.33.36-.32.6l.05,8.72c0,.24.15.37.33.28l4.88-2.44c.18-.09.33-.36.32-.6l-.04-6.85-1.68-1.48Z"/>
      <path class="cls-5" d="M161.56,161.18l-3.14,1.57c-.16.08-.29.32-.29.54l.05,7.95c0,.22.13.34.29.26l4.32-2.16c.16-.08.29-.32.29-.54l-.03-6.24-1.49-1.37Z"/>
      <path class="cls-8" d="M162.32,164.64l-3.51,1.75c-.07.03-.12-.01-.12-.1v-.07c0-.09.05-.19.12-.22l3.51-1.75c.07-.03.12.01.12.1v.07c0,.09-.05.19-.12.22"/>
      <path class="cls-8" d="M162.33,166.5l-3.51,1.75c-.07.03-.12-.01-.12-.1v-.07c0-.09.05-.19.12-.22l3.51-1.75c.07-.03.12.01.12.1v.07c0,.09-.05.19-.12.22"/>
      <path class="cls-8" d="M162.34,168.36l-3.51,1.75c-.07.03-.12-.01-.12-.1v-.07c0-.09.05-.19.12-.22l3.51-1.75c.07-.03.12.01.12.1v.07c0,.09-.05.19-.12.22"/>
      <path class="cls-8" d="M162.31,163.03l-3.51,1.75c-.07.03-.12-.01-.12-.1v-.07c0-.09.05-.19.12-.22l3.51-1.75c.07-.03.12.01.12.1v.07c0,.09-.05.19-.12.22"/>
      <path class="cls-15" d="M159.56,165.39l-4.21,2.1c-.21.11-.39.43-.39.72l.06,10.37c0,.29.18.43.39.33l5.8-2.9c.21-.11.39-.43.39-.72l-.05-8.14-2-1.76Z"/>
      <path class="cls-5" d="M159.41,165.97l-3.73,1.86c-.19.1-.34.38-.34.65l.05,9.45c0,.26.16.4.35.3l5.14-2.56c.19-.1.34-.38.34-.65l-.04-7.42-1.77-1.63Z"/>
      <path class="cls-8" d="M160.32,170.08l-4.17,2.08c-.08.04-.14-.01-.15-.12v-.09c0-.11.06-.22.14-.26l4.17-2.08c.08-.04.15.01.15.12v.09c0,.11-.06.23-.14.26"/>
      <path class="cls-8" d="M160.33,172.29l-4.17,2.08c-.08.04-.14-.01-.15-.12v-.09c0-.11.06-.22.14-.26l4.17-2.08c.08-.04.15.01.15.12v.09c0,.11-.06.23-.14.26"/>
      <path class="cls-8" d="M160.34,174.51l-4.17,2.08c-.08.04-.14-.01-.15-.12v-.09c0-.11.06-.22.14-.26l4.17-2.08c.08-.04.15.01.15.12v.09c0,.11-.06.23-.14.26"/>
      <path class="cls-8" d="M160.31,168.17l-4.17,2.08c-.08.04-.14-.01-.15-.12v-.09c0-.11.06-.22.14-.26l4.17-2.08c.08-.04.15.01.15.12v.09c0,.11-.06.23-.14.26"/>
    </g>
  </g>
</svg>