<?xml version="1.0" encoding="UTF-8"?>
<svg xmlns="http://www.w3.org/2000/svg" xmlns:xlink="http://www.w3.org/1999/xlink" viewBox="0 0 116.23 203.91">
  <defs>
    <style>
      .cls-1 {
        fill: #f9cf16;
      }

      .cls-2 {
        fill: #cd142a;
      }

      .cls-3 {
        fill: #263138;
      }

      .cls-4 {
        clip-path: url(#clippath-6);
      }

      .cls-5 {
        clip-path: url(#clippath-7);
      }

      .cls-6 {
        clip-path: url(#clippath-17);
      }

      .cls-7 {
        fill: #b4b4b4;
      }

      .cls-8 {
        fill: #1c222a;
      }

      .cls-9 {
        clip-path: url(#clippath-15);
      }

      .cls-10 {
        fill: #646365;
      }

      .cls-11, .cls-12 {
        fill: #f0bd09;
      }

      .cls-13 {
        fill: #364248;
      }

      .cls-14 {
        clip-path: url(#clippath-18);
      }

      .cls-15 {
        clip-path: url(#clippath-4);
      }

      .cls-16 {
        fill: #c3c2c2;
      }

      .cls-17, .cls-12, .cls-18, .cls-19, .cls-20, .cls-21 {
        fill-rule: evenodd;
      }

      .cls-17, .cls-22 {
        fill: #14191e;
      }

      .cls-23 {
        clip-path: url(#clippath-9);
      }

      .cls-24 {
        fill: #ed6e6f;
      }

      .cls-25 {
        clip-path: url(#clippath-10);
      }

      .cls-18 {
        fill: #6b788d;
      }

      .cls-26 {
        fill: #901913;
      }

      .cls-27 {
        fill: #fff;
      }

      .cls-28 {
        fill: #d7393b;
      }

      .cls-29 {
        fill: #115a9f;
      }

      .cls-30 {
        fill: #625f60;
      }

      .cls-31 {
        clip-path: url(#clippath-11);
      }

      .cls-32 {
        fill: #f6a018;
      }

      .cls-33 {
        fill: #505050;
      }

      .cls-34 {
        fill: none;
      }

      .cls-35 {
        fill: #de3b33;
      }

      .cls-36 {
        fill: #de6011;
      }

      .cls-37 {
        clip-path: url(#clippath-1);
      }

      .cls-38 {
        fill: #515050;
      }

      .cls-39 {
        fill: #d00e4d;
      }

      .cls-40 {
        isolation: isolate;
      }

      .cls-41 {
        clip-path: url(#clippath-5);
      }

      .cls-42 {
        clip-path: url(#clippath-8);
      }

      .cls-43, .cls-44 {
        opacity: .2;
      }

      .cls-43, .cls-45 {
        mix-blend-mode: screen;
      }

      .cls-46 {
        clip-path: url(#clippath-3);
      }

      .cls-47 {
        fill: #bfd2e3;
      }

      .cls-48 {
        clip-path: url(#clippath-12);
      }

      .cls-49, .cls-20 {
        fill: #d00e4c;
      }

      .cls-50 {
        fill: #d22e1f;
      }

      .cls-51 {
        clip-path: url(#clippath-14);
      }

      .cls-19 {
        fill: #ee7575;
      }

      .cls-52 {
        fill: #636061;
      }

      .cls-53 {
        fill: #dcdcdc;
      }

      .cls-54 {
        fill: #ea4e4d;
      }

      .cls-55 {
        fill: #22292b;
      }

      .cls-56 {
        fill: #d92d5f;
      }

      .cls-57 {
        fill: #9d9a9c;
      }

      .cls-58 {
        fill: #b3261f;
      }

      .cls-59 {
        fill: #d20f48;
      }

      .cls-60 {
        fill: #333233;
      }

      .cls-61 {
        fill: #1d458c;
      }

      .cls-62 {
        clip-path: url(#clippath-16);
      }

      .cls-63 {
        clip-path: url(#clippath-2);
      }

      .cls-44, .cls-64 {
        mix-blend-mode: multiply;
      }

      .cls-65 {
        fill: #48a98e;
      }

      .cls-66 {
        fill: #e1222c;
      }

      .cls-67 {
        clip-path: url(#clippath-13);
      }

      .cls-45 {
        opacity: .1;
      }

      .cls-68 {
        fill: #4eb692;
      }

      .cls-69 {
        clip-path: url(#clippath);
      }

      .cls-70 {
        fill: #fdc54b;
      }

      .cls-71 {
        fill: #828384;
      }

      .cls-64 {
        opacity: .3;
      }

      .cls-72 {
        fill: #1b4180;
      }

      .cls-21 {
        fill: #c3c2ca;
      }
    </style>
    <clipPath id="clippath">
      <path class="cls-34" d="M88.31,114.27c.06.09.04.24-.04.28h.06c.08-.05.1-.19.04-.28h-.06Z"/>
    </clipPath>
    <clipPath id="clippath-1">
      <rect class="cls-34" x="89.98" y="113" width="3.42" height="3.28"/>
    </clipPath>
    <clipPath id="clippath-2">
      <rect class="cls-34" x="97.01" y="112.97" width="1.27" height=".47"/>
    </clipPath>
    <clipPath id="clippath-3">
      <rect class="cls-34" x="95.34" y="113.71" width="2.48" height=".67"/>
    </clipPath>
    <clipPath id="clippath-4">
      <path class="cls-34" d="M93.67,116.42c.1.05.17.18.13.25l.05-.03c.04-.07-.03-.2-.13-.25l-.05.03Z"/>
    </clipPath>
    <clipPath id="clippath-5">
      <rect class="cls-34" x="88.39" y="113.01" width="4.23" height="3.51"/>
    </clipPath>
    <clipPath id="clippath-6">
      <rect class="cls-34" x="88.39" y="113" width="4.55" height="3.52"/>
    </clipPath>
    <clipPath id="clippath-7">
      <rect class="cls-34" x="89.17" y="118.39" width="1.74" height=".5"/>
    </clipPath>
    <clipPath id="clippath-8">
      <rect class="cls-34" x="62.19" y="86.5" width="5.32" height="5.32"/>
    </clipPath>
    <clipPath id="clippath-9">
      <rect class="cls-34" x="70.81" y="89.75" width="5.86" height="5.86"/>
    </clipPath>
    <clipPath id="clippath-10">
      <rect class="cls-34" x="61.65" y="91.05" width="5.3" height="5.31"/>
    </clipPath>
    <clipPath id="clippath-11">
      <path class="cls-34" d="M99.01,184.68c.04.06.02.15-.02.18h.04s.06-.12.03-.18h-.04Z"/>
    </clipPath>
    <clipPath id="clippath-12">
      <rect class="cls-34" x="100.05" y="183.89" width="2.13" height="2.05"/>
    </clipPath>
    <clipPath id="clippath-13">
      <rect class="cls-34" x="104.44" y="183.87" width=".79" height=".29"/>
    </clipPath>
    <clipPath id="clippath-14">
      <rect class="cls-34" x="103.4" y="184.34" width="1.55" height=".42"/>
    </clipPath>
    <clipPath id="clippath-15">
      <path class="cls-34" d="M102.35,186.03c.06.03.11.11.08.16l.03-.02s-.02-.13-.08-.16l-.03.02Z"/>
    </clipPath>
    <clipPath id="clippath-16">
      <rect class="cls-34" x="99.06" y="183.9" width="2.64" height="2.19"/>
    </clipPath>
    <clipPath id="clippath-17">
      <rect class="cls-34" x="99.06" y="183.89" width="2.84" height="2.2"/>
    </clipPath>
    <clipPath id="clippath-18">
      <rect class="cls-34" x="99.55" y="187.26" width="1.08" height=".31"/>
    </clipPath>
  </defs>
  <g class="cls-40">
    <g id="Capa_2">
      <g id="Capa_1-2" data-name="Capa_1">
        <g>
          <path class="cls-30" d="M45.74,193.45h1.14v8.37h-1.14v-8.37Z"/>
          <path class="cls-30" d="M51.27,197.26c-.25.09-.46.21-.62.38s-.29.37-.38.63-.13.51-.13.76.04.5.13.76.21.46.38.63.37.29.62.38.5.13.75.13h4.61v.93h-4.61c-.51,0-.98-.13-1.41-.38-.43-.25-.77-.59-1.03-1.03-.25-.43-.38-.9-.38-1.41s.12-.98.38-1.41c.25-.43.6-.78,1.03-1.03.43-.25.9-.38,1.41-.38h4.61v.93h-4.61c-.25,0-.5.04-.75.13Z"/>
          <path class="cls-30" d="M62.76,196.18c.5-.02.94.02,1.32.14.37.12.68.28.92.49s.43.43.56.66.23.45.29.66c.06.21.1.38.11.53s.02.21.02.19v.33c0,.24-.06.52-.18.83-.12.31-.3.61-.55.89s-.57.51-.97.69-.85.25-1.38.22h-1.05c-.52.03-.98-.05-1.38-.22-.4-.17-.72-.4-.97-.69s-.43-.58-.55-.89c-.12-.31-.18-.59-.18-.83v-.33s0-.04.02-.19.05-.33.12-.53c.06-.21.16-.42.29-.66s.32-.46.56-.66.54-.37.92-.49.81-.16,1.32-.14h.76ZM63.12,200.88c.7,0,1.19-.17,1.47-.51.28-.34.45-.7.49-1.09v-.16s.01-.26.01-.26v-.18c-.05-.37-.22-.72-.5-1.06s-.77-.51-1.48-.51h-1.49c-.7,0-1.2.17-1.48.51s-.44.7-.48,1.06l-.02.18v.25l.02.18c.04.39.2.75.49,1.09s.78.51,1.47.51h1.49Z"/>
          <path class="cls-30" d="M75.09,197.52c.25.44.38.92.38,1.44v2.87h-.94v-2.87c0-.26-.04-.52-.13-.77s-.21-.47-.38-.64c-.16-.17-.36-.3-.61-.39s-.49-.13-.74-.13h-1.78c-.48,0-1.1,0-1.86,0,0-.22,0-.01,0,.62s0,1.06,0,1.25v2.94h-.94v-5.74h4.58c.5,0,.97.13,1.4.38.43.26.77.61,1.03,1.05Z"/>
          <path class="cls-30" d="M81.61,196.18c.5-.02.94.02,1.32.14.37.12.68.28.92.49s.43.43.56.66.23.45.29.66c.06.21.1.38.11.53s.02.21.02.19v.33c0,.24-.06.52-.18.83-.12.31-.3.61-.55.89s-.57.51-.97.69-.85.25-1.38.22h-1.05c-.52.03-.98-.05-1.38-.22-.4-.17-.72-.4-.97-.69s-.43-.58-.55-.89c-.12-.31-.18-.59-.18-.83v-.33s0-.04.02-.19.05-.33.12-.53c.06-.21.16-.42.29-.66s.32-.46.56-.66.54-.37.92-.49.81-.16,1.32-.14h.76ZM81.98,200.88c.7,0,1.19-.17,1.47-.51.28-.34.45-.7.49-1.09v-.16s.01-.26.01-.26v-.18c-.05-.37-.22-.72-.5-1.06s-.77-.51-1.48-.51h-1.49c-.7,0-1.2.17-1.48.51s-.44.7-.48,1.06l-.02.18v.25l.02.18c.04.39.2.75.49,1.09s.78.51,1.47.51h1.49Z"/>
          <path class="cls-30" d="M97.04,197.51c.23.4.35.9.35,1.49,0-.09,0-.07,0,.06h0v.66c0,.55-.11.98-.32,1.28-.21.3-.46.5-.76.61-.3.1-.61.16-.93.17-.33,0-.57.02-.73.02h-3.01c-.47,0-.87-.17-1.2-.52s-.5-.76-.5-1.24.17-.9.5-1.25c.33-.35.73-.52,1.2-.52h4.61c0-.07-.02-.13-.04-.19s-.04-.11-.05-.13c-.09-.18-.21-.34-.38-.48s-.34-.26-.54-.34c-.2-.08-.41-.12-.62-.12h-4.44v-.9c0-.08,0-.1,0-.08h4.44c.51,0,.99.13,1.43.4.21.12.39.27.55.45.15.17.3.38.44.62ZM96.37,199.85c0-.08,0-.28-.01-.59h-4.83c-.17,0-.32.08-.45.23-.12.16-.18.34-.18.56s.06.4.18.56c.12.15.27.23.45.23h3.13c.36,0,.64,0,.85-.02.21-.01.38-.07.5-.16.13-.09.22-.21.27-.34.05-.13.08-.29.09-.47Z"/>
          <path class="cls-30" d="M100.46,203.89h-.91c0,.05,0,0,0-.16v-5.33c0-.35.13-.69.4-1.02s.59-.6.98-.81.75-.31,1.08-.31h1.71c.53-.02.99.05,1.39.22s.72.39.97.67.44.57.56.88.18.58.18.82v.32s0,.04-.02.18-.05.32-.11.52c-.06.2-.16.42-.3.65s-.32.45-.56.65-.55.36-.92.48-.82.16-1.32.14h-3.11v2.1ZM100.46,200.87h3.47c.57,0,1-.12,1.29-.35s.48-.47.57-.73c.08-.25.12-.46.12-.62v-.28c0-.19-.04-.42-.13-.68s-.28-.5-.57-.73-.72-.33-1.27-.33h-1.88c-.24,0-.49.07-.74.22s-.46.34-.62.56-.24.45-.24.66v2.26Z"/>
          <path class="cls-30" d="M109.87,203.89h-.91c0,.05,0,0,0-.16v-5.33c0-.35.13-.69.4-1.02s.59-.6.98-.81.75-.31,1.08-.31h1.71c.53-.02.99.05,1.39.22s.72.39.97.67.44.57.56.88.18.58.18.82v.32s0,.04-.02.18-.05.32-.11.52c-.06.2-.16.42-.3.65s-.32.45-.56.65-.55.36-.92.48-.82.16-1.32.14h-3.11v2.1ZM109.87,200.87h3.47c.57,0,1-.12,1.29-.35s.48-.47.57-.73c.08-.25.12-.46.12-.62v-.28c0-.19-.04-.42-.13-.68s-.28-.5-.57-.73-.72-.33-1.27-.33h-1.88c-.24,0-.49.07-.74.22s-.46.34-.62.56-.24.45-.24.66v2.26Z"/>
        </g>
        <g>
          <path class="cls-49" d="M40.5,26.65c.14.02.36.08.68.19.31.11.68.32,1.09.63.41.31.77.78,1.08,1.4.31.62.46,1.41.46,2.36s-.18,1.67-.54,2.27c-.36.6-.79,1.06-1.29,1.35-.5.29-.97.47-1.42.53h-7.62v-8.73h7.57ZM40.44,34.2c.23-.04.52-.14.84-.3.32-.16.63-.46.92-.9.29-.43.43-1.03.43-1.78,0-.88-.15-1.57-.45-2.07-.3-.5-.62-.84-.95-1.01-.33-.18-.61-.28-.84-.32h-6.28v6.38h6.33Z"/>
          <rect class="cls-49" x="44.63" y="26.66" width="1.19" height="8.7"/>
          <path class="cls-49" d="M52.3,29.03c.77-.01,1.46-.13,2.06-.34.61-.22,1.08-.43,1.4-.65.33-.22.55-.38.66-.49l.96-.91v8.75h-1.14v-6.32c-.5.3-1.08.55-1.75.76-.66.21-1.39.32-2.18.33-.83,0-1.61-.1-2.33-.32-.72-.22-1.36-.49-1.92-.82v6.36h-1.14v-8.75l1,.87c.14.13.39.3.75.53.36.23.86.45,1.51.68.64.23,1.35.33,2.11.32"/>
          <rect class="cls-39" x="59.08" y="30.35" width="2.29" height="1.16"/>
          <g>
            <path class="cls-71" d="M63.63,26.64h1.2v7.56h6.24v1.2h-7.43v-8.75Z"/>
            <path class="cls-71" d="M79.35,29.82c.29.23.48.49.57.77s.14.53.15.74c0,1.05-.58,1.6-1.76,1.66h-4.67s0,.25,0,.25c0,.27.02.49.07.64.05.16.13.27.25.34.11.07.27.12.46.15.19.02.47.04.82.04h4.36c.13,0,.19.06.19.18v.59c0,.13-.06.19-.19.19h-4.51c-.63,0-1.12-.07-1.48-.21s-.62-.36-.77-.67-.23-.72-.23-1.24v-1.5c0-.35.13-.7.4-1.05s.61-.65,1.02-.88c.42-.23.84-.35,1.28-.35h2.84c.52,0,.92.12,1.21.35ZM78.67,31.95c.09-.03.17-.09.26-.19.06-.07.11-.15.13-.24s.04-.21.05-.37c0-.07-.02-.16-.06-.27-.04-.11-.11-.21-.22-.3-.11-.09-.26-.14-.45-.14h-3.1c-.22,0-.46.07-.72.21s-.48.33-.65.56c-.18.24-.27.5-.27.79h4.61c.19,0,.33-.02.42-.05Z"/>
            <path class="cls-71" d="M88.36,30.86c.24.42.36.94.36,1.56,0-.1,0-.08,0,.06h0v.69c0,.58-.12,1.03-.33,1.34-.22.31-.48.53-.79.63s-.63.17-.97.17c-.34,0-.6.02-.76.02h-3.15c-.49,0-.91-.18-1.26-.54-.35-.36-.52-.79-.52-1.3s.17-.95.52-1.31c.35-.36.77-.55,1.26-.55h4.83c0-.07-.02-.14-.04-.2s-.04-.11-.05-.13c-.09-.18-.22-.35-.39-.5s-.36-.27-.56-.36c-.21-.08-.42-.12-.65-.12h-4.64v-.94c0-.08,0-.11,0-.08h4.64c.54,0,1.03.14,1.5.42.22.13.41.29.57.47.16.18.31.4.46.65ZM87.67,33.31c0-.09,0-.29-.01-.62h-5.06c-.18,0-.33.08-.47.24-.13.16-.19.36-.19.58s.06.42.19.58c.13.16.29.24.47.24h3.28c.37,0,.67,0,.89-.02s.39-.07.52-.16c.14-.1.23-.22.28-.35.05-.14.08-.3.1-.49Z"/>
            <path class="cls-71" d="M95.69,31.99c.4.02.74.15,1.04.39.3.24.45.7.45,1.38,0,.36-.09.67-.27.91-.18.24-.41.42-.68.54-.27.12-.54.18-.8.18h-6v-.98s5.97,0,5.97,0c.21,0,.4-.05.57-.14s.25-.31.25-.65c0-.21-.06-.37-.18-.46-.12-.09-.26-.15-.41-.17-.16-.02-.25-.02-.29-.02h-4.35c-.23,0-.48-.07-.74-.19-.26-.12-.48-.32-.67-.6-.19-.28-.28-.63-.28-1.07,0-.38.1-.7.3-.95.2-.25.43-.44.71-.55.27-.12.54-.18.79-.2h5.42v.98h-5.36c-.22,0-.43.05-.62.14-.19.1-.29.33-.29.71,0,.3.09.5.26.59.17.09.35.14.51.15h4.66Z"/>
            <path class="cls-71" d="M99.16,26.6v1.04h-1.04v-1.04h1.04ZM99.16,29.02v6.35h-1.04v-6.35h1.04Z"/>
            <path class="cls-71" d="M107.44,30.88c.26.46.39.96.39,1.51v3h-.99v-3c0-.27-.05-.54-.14-.81-.09-.27-.22-.49-.4-.67-.17-.18-.38-.31-.64-.41-.26-.09-.52-.14-.77-.14h-1.86c-.5,0-1.15,0-1.95,0,0-.23,0-.02,0,.65s0,1.1,0,1.31v3.07h-.99v-6.01h4.79c.52,0,1.01.13,1.46.4.45.27.81.64,1.07,1.1Z"/>
            <path class="cls-71" d="M115.35,29.79c.26.14.47.35.63.61.16.26.25.57.25.92v3.18c-.02.51-.15.98-.36,1.42-.22.44-.52.79-.9,1.06-.38.27-.82.42-1.33.45h-4.83v-.94h4.7c.3,0,.6-.09.9-.27s.53-.45.68-.8l.03-.08h-3.58c-.58,0-1.09-.14-1.53-.42-.43-.28-.77-.64-1-1.07-.23-.43-.35-.87-.35-1.32v-.21c0-.42.12-.84.36-1.27s.57-.78,1-1.06c.43-.28.91-.42,1.45-.42h3.07c.27,0,.54.07.8.21ZM115.28,34.39v-3.18c0-.17-.06-.33-.18-.47-.12-.15-.28-.22-.47-.22h-2.98c-.5,0-.9.09-1.21.27s-.52.41-.64.68c-.12.27-.19.56-.19.86v.23c0,.39.09.72.26,1,.17.28.4.48.67.62.28.14.56.21.86.21h3.87Z"/>
          </g>
        </g>
        <g>
          <path class="cls-27" d="M14.84.27L.55,4.78l14.33,11.12,14.04-10.84L14.84.27ZM20.37,10.39l-3.12,2.39-2.66-1.71,2.04-1.67c.37-.33.47-.56.47-.56v-3.18c.03-.54-.73-.85-.73-.85-.94-.45-2.38-.43-2.38-.43-1.33-.02-3.8.92-3.8.92v2.95l-3.69-2.37c2.35-.95,3.42-1.2,3.42-1.2,2.33-.65,3.96-.69,3.96-.69,2.61-.14,4.68.58,4.68.58,2.08.57,2.94,1.3,2.94,1.3,1.72,1.29,1.33,2.61,1.33,2.61-.27.24-2.47,1.91-2.47,1.91"/>
          <polygon class="cls-49" points=".02 8.24 .02 4.69 14.92 16.03 29.45 4.96 29.45 8.22 14.87 21.46 .02 8.24"/>
          <path class="cls-49" d="M6.42,5.91l-2.39-1.48s3.15-1.23,5.77-1.73c2.62-.5,3.58-.53,5.07-.47,1.5.06,4.37.63,6.26,1.56,1.89.93,2.29,1.89,2.4,2.42.12.53.09,1.75-.34,2.13l-.42.38s.31-.69-.13-1.56c-.44-.87-1.39-1.7-3.12-2.29-1.73-.59-3.27-.92-5.14-.89-1.87.03-3.57.44-4.87.82-1.3.38-3.09,1.11-3.09,1.11"/>
          <path class="cls-49" d="M10.2,5.37v2.94l4.29,2.83s.94-.73,1.6-1.28c.66-.54.94-.87,1.01-1.03v-3.24s.08.51-1.06,1.15c-1.13.64-1.49.85-1.49.85l-4.35-2.21Z"/>
          <path class="cls-49" d="M14.88,16.23L0,4.68,14.85,0h.04s14.57,4.97,14.57,4.97l-14.57,11.26ZM.55,4.78l14.34,11.12,14.04-10.84L14.84.27.55,4.78Z"/>
          <path class="cls-49" d="M17.27,13.09l-.08-.05L3.75,4.39l.24-.09s3.19-1.24,5.8-1.74c1.92-.37,3-.49,4.14-.49.27,0,.57,0,.95.02,1.62.06,4.5.68,6.31,1.57,1.43.7,2.26,1.54,2.47,2.51.12.56.1,1.82-.38,2.25l-.43.38-5.59,4.29ZM4.32,4.45l12.94,8.32,5.44-4.17.42-.38c.38-.34.41-1.51.3-2-.2-.89-.98-1.67-2.33-2.33-1.78-.87-4.61-1.48-6.21-1.54-.38-.01-.68-.02-.94-.02-.97,0-1.94.08-4.1.49-2.17.41-4.73,1.34-5.51,1.63"/>
          <path class="cls-49" d="M14.47,7.64l-4.29-2.19.04-.07-.03-.08c.1-.04,2.43-.93,3.82-.93h.03c1.46.01,2.38.36,2.77.69.36.3.41.63.16,1.02-.18.28-.71.67-1.43,1.05-.71.38-1.02.5-1.03.51h-.03ZM10.32,5.39l4.15,2.12c.09-.04.4-.18.99-.49.7-.37,1.21-.74,1.38-1,.21-.33.18-.6-.13-.85-.37-.31-1.27-.65-2.69-.66h-.03c-1.21,0-3.21.72-3.68.89"/>
          <path class="cls-49" d="M40.5,6.74c.14.02.36.08.68.19.31.11.68.32,1.09.63.41.31.77.78,1.08,1.4.31.62.46,1.41.46,2.36s-.18,1.67-.54,2.27c-.36.61-.79,1.06-1.29,1.35-.5.29-.97.47-1.42.53h-7.62V6.73h7.57ZM40.44,14.29c.23-.04.52-.14.84-.3.32-.16.63-.46.92-.9.29-.43.43-1.03.43-1.78,0-.88-.15-1.57-.45-2.07-.3-.5-.62-.84-.95-1.01-.33-.18-.61-.28-.84-.32h-6.28v6.38h6.33Z"/>
          <rect class="cls-49" x="44.63" y="6.75" width="1.19" height="8.7"/>
          <path class="cls-49" d="M52.3,9.12c.77-.01,1.46-.13,2.06-.34.61-.22,1.08-.43,1.4-.65.33-.22.55-.38.66-.49l.96-.91v8.75h-1.14v-6.32c-.5.3-1.08.55-1.75.76-.66.21-1.39.32-2.18.33-.83,0-1.61-.1-2.33-.32-.72-.22-1.36-.49-1.92-.82v6.36h-1.14V6.73l1,.86c.14.13.39.3.75.53.36.23.86.45,1.51.68.64.23,1.35.33,2.11.32"/>
          <rect class="cls-39" x="59.08" y="10.44" width="2.29" height="1.16"/>
          <g>
            <path class="cls-71" d="M63.63,6.73h1.2v7.56h6.24v1.2h-7.43V6.73Z"/>
            <path class="cls-71" d="M79.35,9.91c.29.23.48.49.57.77s.14.53.15.74c0,1.05-.58,1.6-1.76,1.66h-4.67s0,.25,0,.25c0,.27.02.49.07.64.05.16.13.27.25.34.11.07.27.12.46.15.19.02.47.04.82.04h4.36c.13,0,.19.06.19.18v.59c0,.13-.06.19-.19.19h-4.51c-.63,0-1.12-.07-1.48-.21s-.62-.36-.77-.67-.23-.72-.23-1.24v-1.5c0-.35.13-.7.4-1.05s.61-.65,1.02-.88c.42-.23.84-.35,1.28-.35h2.84c.52,0,.92.12,1.21.35ZM78.67,12.04c.09-.03.17-.09.26-.19.06-.07.11-.15.13-.24s.04-.21.05-.37c0-.07-.02-.16-.06-.27-.04-.11-.11-.21-.22-.3-.11-.09-.26-.14-.45-.14h-3.1c-.22,0-.46.07-.72.21s-.47.33-.65.56c-.18.24-.27.5-.27.79h4.61c.19,0,.33-.02.42-.05Z"/>
            <path class="cls-71" d="M88.36,10.95c.24.42.36.94.36,1.56,0-.1,0-.08,0,.06h0v.69c0,.58-.12,1.03-.33,1.34-.22.31-.48.53-.79.63s-.63.17-.97.17c-.34,0-.6.02-.76.02h-3.14c-.49,0-.91-.18-1.26-.54-.35-.36-.52-.79-.52-1.3s.17-.95.52-1.31c.35-.36.77-.55,1.26-.55h4.82c0-.07-.02-.14-.04-.2s-.04-.11-.05-.13c-.09-.18-.22-.35-.39-.5s-.36-.27-.56-.36c-.21-.08-.42-.12-.65-.12h-4.64v-.94c0-.08,0-.11,0-.08h4.64c.54,0,1.03.14,1.5.42.22.13.41.29.57.47.16.18.31.4.46.65ZM87.67,13.4c0-.09,0-.29-.01-.62h-5.06c-.18,0-.33.08-.47.24-.13.16-.19.36-.19.58s.06.42.19.58c.13.16.29.24.47.24h3.28c.37,0,.67,0,.89-.02s.39-.07.52-.16c.14-.1.23-.22.28-.35.05-.14.08-.3.1-.49Z"/>
            <path class="cls-71" d="M95.69,12.08c.4.02.74.15,1.04.39.3.24.45.7.45,1.38,0,.36-.09.67-.27.91-.18.24-.41.42-.68.54-.27.12-.54.18-.8.18h-6v-.98s5.97,0,5.97,0c.21,0,.4-.05.57-.14s.25-.31.25-.65c0-.21-.06-.37-.18-.46-.12-.09-.26-.15-.41-.17-.16-.02-.25-.02-.29-.02h-4.35c-.23,0-.48-.07-.74-.19-.26-.12-.48-.32-.67-.6-.19-.28-.28-.63-.28-1.07,0-.38.1-.7.3-.95.2-.25.43-.44.71-.55.27-.12.54-.18.79-.2h5.42v.98h-5.36c-.22,0-.43.05-.62.14-.19.1-.29.33-.29.71,0,.3.09.5.26.59.18.09.35.14.51.15h4.66Z"/>
            <path class="cls-71" d="M99.16,6.69v1.04h-1.04v-1.04h1.04ZM99.16,9.11v6.35h-1.04v-6.35h1.04Z"/>
            <path class="cls-71" d="M107.44,10.97c.26.46.39.96.39,1.51v3h-.99v-3c0-.27-.05-.54-.14-.81s-.22-.49-.4-.67c-.17-.18-.38-.31-.64-.41-.26-.09-.51-.14-.77-.14h-1.86c-.5,0-1.15,0-1.95,0,0-.23,0-.02,0,.65s0,1.1,0,1.31v3.07h-.99v-6.01h4.79c.52,0,1.01.13,1.46.4.45.27.81.64,1.07,1.1Z"/>
            <path class="cls-71" d="M115.35,9.88c.26.14.47.35.63.61.16.26.25.57.25.92v3.18c-.02.51-.15.98-.36,1.42-.22.44-.52.79-.9,1.06-.38.27-.82.42-1.33.45h-4.83v-.94h4.7c.3,0,.6-.09.9-.27s.53-.45.68-.8l.03-.08h-3.58c-.58,0-1.09-.14-1.53-.42-.43-.28-.77-.64-1-1.07-.23-.43-.35-.87-.35-1.32v-.21c0-.42.12-.84.36-1.27.24-.43.57-.78,1-1.06.43-.28.91-.42,1.45-.42h3.07c.27,0,.54.07.8.21ZM115.28,14.48v-3.18c0-.17-.06-.33-.18-.47-.12-.15-.28-.22-.47-.22h-2.98c-.5,0-.9.09-1.21.27s-.52.41-.64.68c-.12.27-.19.56-.19.86v.23c0,.39.09.72.26,1,.17.28.4.48.67.62.28.14.56.21.86.21h3.87Z"/>
          </g>
          <g>
            <path class="cls-10" d="M50.53,21.38h-.28s0,0,0-.05v-1.65c0-.11.04-.21.12-.32.08-.1.18-.19.3-.25.12-.07.23-.1.33-.1h.53c.16,0,.31.02.43.07.12.05.22.12.3.21.08.09.14.18.17.27.04.09.06.18.06.25v.1s0,.01,0,.06c0,.04-.02.1-.04.16-.02.06-.05.13-.09.2-.04.07-.1.14-.17.2-.08.06-.17.11-.29.15-.12.04-.25.05-.41.04h-.96v.65ZM50.53,20.45h1.08c.17,0,.31-.04.4-.11.09-.07.15-.15.17-.22.03-.08.04-.14.04-.19v-.09c0-.06-.01-.13-.04-.21-.03-.08-.09-.16-.18-.23s-.22-.1-.39-.1h-.58c-.08,0-.15.02-.23.07-.08.05-.14.1-.19.17s-.07.14-.07.2v.7Z"/>
            <path class="cls-10" d="M54.93,19.26h-.99s-.11,0-.17,0c-.06,0-.12,0-.17.02-.05.02-.1.04-.14.08-.04.04-.07.08-.08.14s-.03.1-.03.14c0,.04,0,.11,0,.21v.87s0,.02-.02.02h-.25s-.02,0-.02-.02v-.89s0-.1,0-.19c0-.09.02-.18.05-.27.04-.09.1-.17.19-.24.06-.04.12-.08.18-.1.07-.02.13-.04.19-.05s.12-.01.17-.01h1.1v.29Z"/>
            <path class="cls-10" d="M56.74,19c.16,0,.29,0,.41.04.12.04.21.09.28.15.07.06.13.13.17.21.04.07.07.14.09.2s.03.12.04.16,0,.07,0,.06v.1c0,.08-.02.16-.06.26-.04.1-.09.19-.17.28-.08.09-.18.16-.3.21s-.26.08-.43.07h-.33c-.16,0-.31-.01-.43-.07-.12-.05-.22-.12-.3-.21-.08-.09-.13-.18-.17-.28-.04-.1-.05-.18-.05-.26v-.1s0-.01,0-.06.02-.1.04-.16.05-.13.09-.2c.04-.07.1-.14.17-.21.07-.06.17-.12.28-.15.11-.04.25-.05.41-.04h.24ZM56.85,20.45c.22,0,.37-.05.46-.16s.14-.22.15-.34v-.05s0-.08,0-.08v-.05c-.02-.11-.07-.22-.15-.33-.09-.11-.24-.16-.46-.16h-.46c-.22,0-.37.05-.46.16-.09.11-.14.22-.15.33v.05s0,.08,0,.08v.05c.02.12.07.23.16.34.09.1.24.16.46.16h.46Z"/>
            <path class="cls-10" d="M60.31,18.35h.28s0,0,0,.05v1.68c0,.12-.01.22-.04.3-.02.08-.07.15-.12.2-.06.05-.13.09-.22.11-.09.02-.21.04-.35.04h-.57c-.16,0-.31-.01-.43-.07-.12-.05-.23-.12-.3-.21-.08-.09-.14-.18-.17-.27-.04-.1-.06-.18-.06-.26v-.1s0-.01,0-.06c0-.05.02-.1.04-.16.02-.06.05-.13.09-.2s.1-.14.17-.2c.08-.06.17-.11.29-.15.12-.04.25-.05.41-.04h.97v-.66ZM60.31,19.29h-1.08c-.18,0-.31.04-.4.11s-.15.15-.18.23c-.03.08-.04.14-.04.19v.08c0,.06.01.13.04.21.03.08.09.16.18.23.09.07.22.1.4.1h.75c.09,0,.15-.02.2-.06.05-.04.08-.09.1-.15.02-.07.03-.15.03-.24v-.71Z"/>
            <path class="cls-10" d="M62.79,20.41c.08-.03.14-.07.19-.12s.09-.12.12-.2c.03-.08.04-.16.04-.24v-.9h.29v.9c0,.16-.04.31-.12.45-.08.14-.19.25-.32.33-.13.08-.28.12-.44.12h-.56c-.16,0-.3-.04-.44-.12-.13-.08-.24-.19-.32-.33-.08-.14-.12-.29-.12-.45v-.9h.29s0,0,0,.02v.87c0,.08.01.16.04.24.03.08.07.15.12.2s.11.09.19.12c.08.03.15.04.23.04h.56c.08,0,.15-.01.23-.04Z"/>
            <path class="cls-10" d="M64.58,19.33c-.08.03-.14.07-.19.12s-.09.12-.12.19c-.03.08-.04.16-.04.23s.01.16.04.23c.03.08.07.14.12.19s.12.09.19.12.16.04.23.04h1.43v.29h-1.43c-.16,0-.3-.04-.44-.12-.13-.08-.24-.18-.32-.32-.08-.13-.12-.28-.12-.44s.04-.3.12-.44c.08-.13.18-.24.32-.32.13-.08.28-.12.44-.12h1.43v.29h-1.43c-.08,0-.16.01-.23.04Z"/>
            <path class="cls-10" d="M68.27,20.45v.29h-.54c-.15,0-.3-.04-.43-.11-.13-.08-.24-.18-.32-.31-.08-.13-.12-.27-.12-.43v-1.55h.29s0,0,0,.02v.64h.67s0,0,0,.02v.26s0,0-.03,0h-.65v.62c0,.13.03.23.1.32s.13.15.21.19c.04.02.09.04.16.05.07,0,.13,0,.18,0h.48Z"/>
            <path class="cls-10" d="M70.12,19c.16,0,.29,0,.41.04s.21.09.28.15c.07.06.13.13.17.21.04.07.07.14.09.2.02.06.03.12.04.16s0,.07,0,.06v.1c0,.08-.02.16-.06.26-.04.1-.09.19-.17.28-.08.09-.18.16-.3.21s-.26.08-.43.07h-.33c-.16,0-.3-.01-.43-.07-.12-.05-.22-.12-.3-.21-.08-.09-.13-.18-.17-.28-.04-.1-.06-.18-.06-.26v-.1s0-.01,0-.06.02-.1.04-.16.05-.13.09-.2c.04-.07.1-.14.17-.21.08-.06.17-.12.28-.15.12-.04.25-.05.41-.04h.24ZM70.24,20.45c.22,0,.37-.05.46-.16.09-.1.14-.22.15-.34v-.05s0-.08,0-.08v-.05c-.02-.11-.07-.22-.15-.33-.09-.11-.24-.16-.46-.16h-.46c-.22,0-.37.05-.46.16-.09.11-.14.22-.15.33v.05s0,.08,0,.08v.05c.02.12.07.23.16.34.09.1.24.16.46.16h.46Z"/>
            <path class="cls-10" d="M73.55,19.74c.12,0,.22.05.31.12.09.07.13.21.13.41,0,.11-.03.2-.08.27-.05.07-.12.12-.2.16-.08.03-.16.05-.24.05h-1.78v-.29s1.77,0,1.77,0c.06,0,.12-.01.17-.04.05-.03.08-.09.08-.19,0-.06-.02-.11-.05-.14-.04-.03-.08-.04-.12-.05s-.07,0-.08,0h-1.29c-.07,0-.14-.02-.22-.06-.08-.04-.14-.09-.2-.18-.06-.08-.08-.19-.08-.32,0-.11.03-.21.09-.28.06-.07.13-.13.21-.16.08-.04.16-.05.23-.06h1.61v.29h-1.59c-.07,0-.13.01-.18.04-.06.03-.08.1-.08.21,0,.09.03.15.08.18.05.03.1.04.15.04h1.38Z"/>
            <path class="cls-10" d="M77.64,18.98v1.52c-.01.17-.05.33-.13.45-.09.16-.2.27-.32.34-.12.07-.27.11-.45.11h-1.24s-.02,0-.02-.02v-.25s0-.02.02-.02h1.24c.06,0,.12,0,.17-.01.05,0,.09-.03.13-.05.05-.04.1-.07.13-.1s.06-.06.08-.11l.04-.09h-1.13c-.13,0-.25-.02-.36-.08-.11-.05-.19-.11-.26-.18-.07-.07-.12-.15-.18-.26-.05-.11-.08-.22-.08-.33v-.92s0-.02,0-.02h.3s0,0,0,.02v.94c0,.06.01.12.04.18s.04.11.07.13c.01.01.04.04.07.07.03.03.08.07.14.09.06.03.13.05.22.06h1.24s0-1.47,0-1.47c0-.02,0-.02.02-.02h.25s.02,0,.02.02Z"/>
            <path class="cls-10" d="M80.86,19.74c.12,0,.22.05.31.12.09.07.13.21.13.41,0,.11-.03.2-.08.27-.05.07-.12.12-.2.16-.08.03-.16.05-.24.05h-1.78v-.29s1.77,0,1.77,0c.06,0,.12-.01.17-.04.05-.03.08-.09.08-.19,0-.06-.02-.11-.05-.14-.04-.03-.08-.04-.12-.05s-.07,0-.08,0h-1.29c-.07,0-.14-.02-.22-.06-.08-.04-.14-.09-.2-.18-.06-.08-.08-.19-.08-.32,0-.11.03-.21.09-.28.06-.07.13-.13.21-.16.08-.04.16-.05.23-.06h1.61v.29h-1.59c-.07,0-.13.01-.18.04-.06.03-.08.1-.08.21,0,.09.03.15.08.18.05.03.1.04.15.04h1.38Z"/>
            <path class="cls-10" d="M83.85,19.1c.08.07.14.14.17.23.03.08.04.16.04.22,0,.31-.17.48-.52.49h-1.38s0,.07,0,.07c0,.08,0,.14.02.19s.04.08.07.1c.03.02.08.04.14.04.06,0,.14.01.24.01h1.29s.06.02.06.05v.17s-.02.06-.06.06h-1.33c-.19,0-.33-.02-.44-.06-.11-.04-.18-.11-.23-.2s-.07-.21-.07-.37v-.44c0-.1.04-.21.12-.31.08-.1.18-.19.3-.26.12-.07.25-.1.38-.1h.84c.15,0,.27.03.36.1ZM83.65,19.73s.05-.03.08-.06c.02-.02.03-.04.04-.07s.01-.06.01-.11c0-.02,0-.05-.02-.08-.01-.03-.03-.06-.07-.09-.03-.03-.08-.04-.13-.04h-.92c-.07,0-.14.02-.21.06s-.14.1-.19.17-.08.15-.08.23h1.37c.06,0,.1,0,.12-.01Z"/>
            <path class="cls-10" d="M86.57,19.26h-.99s-.11,0-.17,0c-.06,0-.12,0-.17.02-.05.02-.1.04-.14.08-.04.04-.07.08-.08.14-.02.05-.03.1-.03.14,0,.04,0,.11,0,.21v.87s0,.02-.02.02h-.25s-.02,0-.02-.02v-.89s0-.1,0-.19c0-.09.02-.18.05-.27.03-.09.1-.17.19-.24.06-.04.12-.08.18-.1.07-.02.13-.04.19-.05.06,0,.12-.01.17-.01h1.1v.29Z"/>
            <path class="cls-10" d="M87.27,18.95l1.03,1.55h.03l1.03-1.55h.35l-1.04,1.55c-.08.13-.14.21-.16.24h-.4c-.05-.07-.1-.15-.16-.24l-1.03-1.55h.35Z"/>
            <path class="cls-10" d="M90.41,18.14v.31h-.31v-.31h.31ZM90.41,18.86v1.88h-.31v-1.88h.31Z"/>
            <path class="cls-10" d="M91.65,19.33c-.08.03-.14.07-.19.12s-.09.12-.12.19c-.03.08-.04.16-.04.23s.01.16.04.23c.03.08.07.14.12.19s.12.09.19.12.16.04.23.04h1.43v.29h-1.43c-.16,0-.3-.04-.44-.12-.13-.08-.24-.18-.32-.32-.08-.13-.12-.28-.12-.44s.04-.3.12-.44c.08-.13.18-.24.32-.32.13-.08.28-.12.44-.12h1.43v.29h-1.43c-.08,0-.16.01-.23.04Z"/>
            <path class="cls-10" d="M94.24,18.14v.31h-.31v-.31h.31ZM94.24,18.86v1.88h-.31v-1.88h.31Z"/>
            <path class="cls-10" d="M96.12,19c.16,0,.29,0,.41.04s.21.09.28.15c.07.06.13.13.17.21.04.07.07.14.09.2.02.06.03.12.04.16s0,.07,0,.06v.1c0,.08-.02.16-.05.26-.04.1-.09.19-.17.28-.08.09-.18.16-.3.21s-.26.08-.43.07h-.33c-.16,0-.3-.01-.43-.07-.12-.05-.22-.12-.3-.21-.08-.09-.13-.18-.17-.28-.04-.1-.06-.18-.06-.26v-.1s0-.01,0-.06.02-.1.04-.16.05-.13.09-.2c.04-.07.1-.14.17-.21.08-.06.17-.12.28-.15.12-.04.25-.05.41-.04h.24ZM96.23,20.45c.22,0,.37-.05.46-.16.09-.1.14-.22.15-.34v-.05s0-.08,0-.08v-.05c-.02-.11-.07-.22-.15-.33-.09-.11-.24-.16-.46-.16h-.46c-.22,0-.37.05-.46.16-.09.11-.14.22-.15.33v.05s0,.08,0,.08v.05c.02.12.07.23.16.34.09.1.24.16.46.16h.46Z"/>
            <path class="cls-10" d="M99.54,19.74c.12,0,.22.05.31.12.09.07.13.21.13.41,0,.11-.03.2-.08.27-.05.07-.12.12-.2.16-.08.03-.16.05-.24.05h-1.78v-.29s1.77,0,1.77,0c.06,0,.12-.01.17-.04.05-.03.08-.09.08-.19,0-.06-.02-.11-.05-.14-.04-.03-.08-.04-.12-.05s-.07,0-.08,0h-1.29c-.07,0-.14-.02-.22-.06-.08-.04-.14-.09-.2-.18-.06-.08-.08-.19-.08-.32,0-.11.03-.21.09-.28.06-.07.13-.13.21-.16.08-.04.16-.05.23-.06h1.61v.29h-1.59c-.07,0-.13.01-.18.04-.06.03-.08.1-.08.21,0,.09.03.15.08.18.05.03.1.04.15.04h1.38Z"/>
          </g>
          <rect class="cls-1" x="112.01" y="18.11" width="4.16" height="1.32"/>
          <rect class="cls-72" x="112.01" y="19.43" width="4.16" height=".66"/>
          <rect class="cls-2" x="112.01" y="20.09" width="4.16" height=".66"/>
          <rect class="cls-66" x="106.93" y="18.12" width="1.39" height="2.63"/>
          <rect class="cls-66" x="109.7" y="18.12" width="1.39" height="2.63"/>
          <rect class="cls-27" x="108.31" y="18.12" width="1.39" height="2.63"/>
          <polyline class="cls-50" points="105.99 20.75 101.83 20.75 101.83 19.43 105.99 19.43"/>
          <rect class="cls-61" x="101.83" y="18.11" width="1.39" height="1.32"/>
          <rect class="cls-27" x="103.22" y="18.11" width="2.77" height="1.32"/>
          <polygon class="cls-27" points="102.19 18.67 102.45 18.67 102.53 18.44 102.6 18.67 102.85 18.67 102.65 18.81 102.73 19.04 102.52 18.9 102.32 19.04 102.4 18.81 102.19 18.67"/>
        </g>
        <g>
          <path class="cls-47" d="M48.13,110.37c0,6-4.86,10.87-10.87,10.87s-10.87-4.86-10.87-10.87,4.86-10.87,10.87-10.87,10.87,4.86,10.87,10.87"/>
          <path class="cls-47" d="M116.23,110.37c0,6-4.86,10.87-10.87,10.87s-10.87-4.86-10.87-10.87,4.86-10.87,10.87-10.87,10.87,4.86,10.87,10.87"/>
          <path class="cls-29" d="M86.81,113.01s-.02,0-.03-.01c-.01,0-.02,0-.03-.01-1.51-.6-3.07-.64-4.48-.32-.1.02-.19.04-.28.07.3-.37.63-.73.96-1.07-1.86-.86-6.34-.87-10.75,1.97.21-.44,4.83-4.93,11.51-3.77.08-.49.11-1.11.11-1.11,0,0,2.57,1.63,2.98,4.25"/>
          <path class="cls-29" d="M54.77,113.05s.02,0,.03.01c.01,0,.02,0,.03.01,1.51.6,3.07.64,4.48.32.1-.02.19-.04.28-.07-.3.37-.63.73-.96,1.07,1.86.86,6.34.87,10.75-1.97-.21.44-4.83,4.93-11.51,3.77-.08.49-.11,1.11-.11,1.11,0,0-2.57-1.63-2.98-4.25"/>
          <path class="cls-29" d="M101.81,95.31s-.29-3.17-2.44-6.34c-.07-.1-.15-.17-.23-.25.63.02,1.46.1,2.12.1-.88-2.75-6.2-11.18-13.38-13.38.67-.15,11.87,1.82,15.43,12.9.66-.33,1.87-1.06,1.87-1.06,0,0-.54,5.2-3.36,8.02"/>
          <path class="cls-29" d="M53,76.44s-3.12,1.7-5.86,4.37c-.08.08-.14.18-.21.28-.09-.62-.16-1.45-.27-2.1-2.55,1.35-9.91,8.07-10.82,15.52-.26-.63-.29-12,9.99-17.45-.45-.59-1.37-1.66-1.37-1.66,0,0,4.72-.51,8.54,1.04"/>
          <path class="cls-29" d="M96.3,101.23c0,.56-.45,1.01-1.01,1.01s-1.01-.45-1.01-1.01.45-1.01,1.01-1.01,1.01.45,1.01,1.01"/>
          <path class="cls-29" d="M96.98,102.59c-.09-.05-.2-.09-.32-.09h-2.96c-.18,0-.34.07-.45.19-.19.13-.39.34-.39.42v4.17c0,.13.17.23.38.23s.38-.1.38-.23v-3.22s.05,0,.07,0h.27v8.32c0,.26.25.48.56.48s.56-.21.56-.48v-4.82s.04,0,.07,0h.29s0,0,.01,0v4.82c0,.26.25.48.56.48s.56-.21.56-.48v-8.32h.09c.06,0,.12-.01.17-.03v3.24c0,.13.17.23.38.23s.38-.1.38-.23v-4.17c0-.12-.41-.5-.62-.52"/>
          <path class="cls-29" d="M100.24,102.59c0,.56-.45,1.01-1.01,1.01s-1.01-.45-1.01-1.01.45-1.01,1.01-1.01,1.01.45,1.01,1.01"/>
          <path class="cls-29" d="M100.92,103.95c-.09-.05-.2-.09-.32-.09h-2.96c-.18,0-.34.07-.45.19-.19.13-.39.34-.39.42v4.17c0,.13.17.23.38.23s.38-.1.38-.23v-3.22s.05,0,.07,0h.27v8.32c0,.26.25.48.56.48s.56-.21.56-.48v-4.82s.04,0,.07,0h.29s0,0,.01,0v4.82c0,.26.25.48.56.48s.56-.21.56-.48v-8.32h.09c.06,0,.12-.01.17-.03v3.24c0,.13.17.23.38.23s.38-.1.38-.23v-4.17c0-.12-.41-.5-.62-.52"/>
          <path class="cls-29" d="M59.73,66.48s.96-4.67,6.3-3.19c0,0,3.15-4.15,8.82-2.45,0,0,4.56,1.3,5,5.78,0,0,5.32,1.02,5.32,6.19,0,0,.56,6.67-7.06,6.67h-16.68s-8,1-8-6.84c0,0,.37-6.17,6.3-6.17"/>
          <path class="cls-27" d="M60.5,67.07s.89-4.1,5.8-2.8c0,0,3.09-4,8.31-2.51,0,0,4.1,1.2,4.41,5.44,0,0,4.89.89,4.89,5.43,0,0,.51,5.86-6.5,5.86h-15.34s-7.36.88-7.36-6c0,0,.34-5.42,5.8-5.42"/>
          <path class="cls-30" d="M65,66.86c-.02.07,0,.15.07.2l1.06.76c0,.3.02.59.07.88l-.94.91c-.06.06-.07.14-.04.2l.61,1.24c.03.07.11.11.19.09l1.33-.19c.2.21.42.4.66.57v1.31c0,.08.05.15.12.17l1.31.43c.07.02.15,0,.2-.07l.78-1.07c.29,0,.58-.02.86-.07l.91.94c.06.06.14.07.2.04l1.24-.61c.07-.03.11-.11.09-.19l-.19-1.33c.2-.19.38-.4.54-.62h1.34c.08,0,.15-.05.17-.12l.42-1.31c.02-.07,0-.15-.07-.2l-1.06-.76c0-.3-.01-.6-.06-.9l.94-.91c.06-.06.07-.14.04-.2l-.6-1.24c-.03-.07-.11-.11-.19-.09l-1.33.19c-.19-.2-.4-.39-.64-.55v-1.34c0-.08-.06-.15-.13-.17l-1.31-.41c-.07-.02-.15,0-.2.07l-.76,1.06c-.31,0-.61.01-.91.07l-.91-.93c-.05-.06-.14-.07-.2-.04l-1.23.61c-.07.03-.11.11-.09.19l.2,1.33c-.2.19-.38.4-.53.63h-1.34c-.08.01-.15.06-.17.13l-.41,1.31Z"/>
          <path class="cls-27" d="M69.76,70.17c1.25.41,2.59-.27,3-1.52.41-1.25-.27-2.59-1.52-3-1.25-.41-2.59.27-3,1.52-.41,1.25.27,2.59,1.52,3"/>
          <path class="cls-68" d="M69.84,69.92c1.11.36,2.3-.24,2.66-1.34.36-1.11-.24-2.3-1.34-2.66-1.11-.36-2.3.24-2.66,1.34-.36,1.11.24,2.3,1.34,2.66"/>
          <path class="cls-27" d="M71.05,66.24c.92.3,1.42,1.3,1.12,2.22-.3.92-1.3,1.42-2.22,1.12-.92-.3-1.42-1.3-1.12-2.22.3-.92,1.3-1.42,2.22-1.12"/>
          <path class="cls-30" d="M59.55,62.71s0,.1.05.13l.7.5c0,.2.01.39.04.58l-.62.6s-.05.09-.03.14l.4.82s.07.07.12.06l.88-.13c.13.14.28.26.44.37v.87c0,.05.03.1.08.11l.87.28s.1,0,.13-.04l.51-.71c.19,0,.38-.01.57-.04l.6.62s.09.05.14.03l.82-.4s.07-.07.06-.12l-.13-.88c.13-.12.25-.26.36-.41h.89c.05,0,.1-.03.11-.08l.28-.87s0-.1-.04-.13l-.7-.5c0-.2,0-.4-.04-.59l.62-.6s.05-.09.03-.14l-.4-.82s-.07-.07-.12-.06l-.88.13c-.13-.13-.27-.26-.42-.36v-.89c0-.05-.04-.1-.08-.11l-.87-.27s-.1,0-.13.05l-.5.7c-.2,0-.41,0-.6.05l-.6-.62s-.09-.05-.14-.03l-.82.4s-.07.07-.06.12l.13.88c-.13.13-.25.26-.35.41h-.89c-.05,0-.1.04-.11.09l-.27.87Z"/>
          <path class="cls-27" d="M62.7,64.91c.82.27,1.71-.18,1.98-1,.27-.83-.18-1.71-1-1.99-.83-.27-1.71.18-1.99,1-.27.82.18,1.71,1,1.98"/>
          <path class="cls-68" d="M62.76,64.74c.73.24,1.52-.16,1.76-.89.24-.73-.16-1.52-.89-1.76-.73-.24-1.52.16-1.76.89-.24.73.16,1.52.89,1.76"/>
          <path class="cls-27" d="M63.56,62.31c.61.2.94.86.74,1.47-.2.61-.86.94-1.47.74-.61-.2-.94-.86-.74-1.47.2-.61.86-.94,1.47-.74"/>
          <path class="cls-57" d="M58.58,73.09c-.02.06,0,.13.06.17l.94.67c0,.26.01.52.06.78l-.83.8s-.06.12-.03.18l.53,1.09c.03.06.1.09.16.08l1.17-.17c.18.18.37.35.58.5v1.16c0,.07.04.13.1.15l1.15.38c.06.02.13,0,.17-.06l.68-.94c.26,0,.51-.02.75-.06l.8.83c.05.05.12.06.18.03l1.09-.53c.06-.03.09-.1.08-.16l-.17-1.17c.17-.17.33-.35.47-.55h1.19c.07,0,.13-.05.15-.11l.37-1.16c.02-.06,0-.13-.06-.17l-.93-.67c0-.27-.01-.53-.06-.79l.83-.8s.06-.12.03-.18l-.53-1.09c-.03-.06-.09-.09-.16-.08l-1.17.17c-.17-.18-.36-.34-.56-.48v-1.18c0-.07-.05-.13-.11-.15l-1.16-.37c-.06-.02-.13,0-.17.06l-.67.94c-.27,0-.54.01-.8.06l-.81-.82s-.12-.06-.18-.03l-1.09.54c-.06.03-.09.1-.08.16l.18,1.17c-.17.17-.33.35-.47.55h-1.19c-.07,0-.13.05-.15.12l-.36,1.16Z"/>
          <path class="cls-27" d="M62.78,76.01c1.1.36,2.28-.24,2.64-1.34s-.24-2.28-1.34-2.64c-1.1-.36-2.28.24-2.64,1.34-.36,1.1.24,2.28,1.34,2.64"/>
          <path class="cls-68" d="M62.85,75.79c.98.32,2.02-.21,2.34-1.19.32-.98-.21-2.02-1.19-2.34-.97-.32-2.02.21-2.34,1.19-.32.97.21,2.02,1.19,2.34"/>
          <path class="cls-27" d="M63.91,72.55c.81.27,1.26,1.14.99,1.96-.27.81-1.14,1.26-1.95.99-.81-.27-1.26-1.14-.99-1.96.27-.81,1.14-1.26,1.96-.99"/>
          <path class="cls-30" d="M109.4,115.58l-9.62-3.18v-5.52c0-.21.18-.38.39-.36l8.94.66c.19.01.34.17.33.36l-.04,8.03Z"/>
          <path class="cls-27" d="M108.82,114.9l-8.53-2.75v-4.78c0-.18.16-.32.34-.31l7.93.57c.17.01.3.15.3.31l-.04,6.96Z"/>
          <polygon class="cls-7" points="102.02 119 93.55 114.46 99.77 112.31 109.39 115.54 102.02 119"/>
          <polygon class="cls-30" points="102.04 119.47 93.58 114.86 93.56 114.46 102.04 119 102.04 119.47"/>
          <polygon class="cls-30" points="109.36 115.53 102.03 119 102.04 119.46 109.37 115.98 109.36 115.53"/>
          <path class="cls-57" d="M99.53,117.05l-3.04-1.53c-.11-.06-.16-.19-.1-.31l.43-.21c.17-.08.33-.08.44-.03l3.05,1.53c.11.06.16.19.1.31l-.38.25c-.06.11-.4.05-.51,0"/>
          <path class="cls-57" d="M100.17,112.81l7.08,2.56c.13.05.13.22,0,.27l-3.37,1.44s-.08.02-.12,0l-6.84-2.95c-.13-.05-.12-.23.01-.28l3.13-1.05s.07-.01.1,0"/>
          <path class="cls-65" d="M113.14,110.78c0,1.59-1.29,2.88-2.88,2.88s-2.88-1.29-2.88-2.88,1.29-2.88,2.88-2.88,2.88,1.29,2.88,2.88"/>
          <path class="cls-27" d="M112.7,110.78c0,1.35-1.09,2.44-2.44,2.44s-2.44-1.09-2.44-2.44,1.09-2.44,2.44-2.44,2.44,1.09,2.44,2.44"/>
          <path class="cls-30" d="M111.28,112c-.08.14-.19.26-.34.35-.15.09-.33.15-.54.16v.39h-.26v-.39c-.29-.03-.53-.12-.72-.28-.18-.16-.28-.37-.28-.62h.47c.01.14.06.25.15.35.09.1.21.16.38.19v-1.21c-.22-.05-.39-.11-.52-.17s-.25-.15-.34-.27c-.09-.12-.14-.29-.14-.49,0-.26.09-.48.27-.65.18-.17.43-.27.73-.29v-.4h.26v.4c.27.02.5.11.66.26.17.15.27.35.29.6h-.47c-.02-.11-.07-.22-.15-.31-.08-.09-.2-.15-.34-.18v1.18c.21.06.39.11.52.17.13.06.25.15.34.27.09.12.14.29.14.5,0,.16-.04.3-.12.44M109.72,110.34c.09.08.23.15.41.21v-1.12c-.17.02-.3.07-.4.16-.1.09-.15.22-.15.39s.05.28.14.36M110.8,111.96c.1-.11.15-.23.15-.38,0-.16-.05-.28-.15-.37-.1-.09-.23-.15-.41-.21v1.14c.17-.02.31-.08.41-.19"/>
          <polygon class="cls-26" points="93.66 117.49 93.66 118.1 92.76 117.66 92.76 117.49 93.66 117.49"/>
          <polygon class="cls-26" points="99.4 114.54 99.4 115.15 98.5 114.71 98.5 114.54 99.4 114.54"/>
          <path class="cls-26" d="M88.16,114.6s.02,0,.03,0h.04s.03,0,.04-.01h-.06s-.03,0-.04,0"/>
          <polygon class="cls-26" points="88.2 114.6 88.26 114.6 88.34 114.55 88.28 114.55 88.2 114.6"/>
          <path class="cls-26" d="M88.31,114.27h.06s-.32-.23-.43-.3c-.02-.02-.08-.05-.1-.06-.05-.02-.09.02-.09.02l.57.34Z"/>
          <g class="cls-69">
            <path class="cls-26" d="M88.28,114.55h.06s.07-.09.07-.15h-.06c0,.07-.03.13-.07.15"/>
            <path class="cls-26" d="M88.35,114.4h.06s-.01-.09-.04-.13h-.06s.04.08.03.13"/>
          </g>
          <path class="cls-54" d="M87.89,113.96c-.1-.06-.13-.05-.18.02l-.04.06c-.05.07-.01.22.05.27.08.08.23.16.36.25.05.03.08.06.13.04l.08-.04c.08-.05.1-.19.04-.28,0,0-.32-.24-.43-.31"/>
          <path class="cls-22" d="M98.5,114.59c-.14-.07-.33-.07-.55.02-.02.01-.05.02-.07.03-.31.15-.58.44-.73.75-.08.17-.13.35-.13.51,0,.23.1.39.25.47l.59.29c-.16-.08-.25-.24-.25-.47,0-.16.05-.34.13-.51.15-.31.42-.6.73-.75.02-.01.05-.02.07-.03.21-.09.4-.09.55-.02l-.59-.29Z"/>
          <path class="cls-8" d="M98.47,114.93c.48-.23.87-.05.87.42,0,.46-.38,1.03-.86,1.26-.48.23-.87.05-.87-.42,0-.46.38-1.03.86-1.26"/>
          <path class="cls-8" d="M98.47,114.93c.48-.23.87-.05.87.42,0,.46-.38,1.03-.86,1.26-.48.23-.87.05-.87-.42,0-.46.38-1.03.86-1.26"/>
          <path class="cls-16" d="M98.47,115.22c.32-.15.57-.03.57.28,0,.31-.25.68-.57.83-.32.15-.57.03-.57-.28,0-.31.25-.68.57-.83"/>
          <path class="cls-3" d="M98.56,115.3s-.04.1-.08.12c-.04.02-.08,0-.08-.04s.04-.1.08-.12c.04-.02.08,0,.08.04"/>
          <path class="cls-3" d="M98.34,115.42s0,.08-.03.12-.09.05-.11.02c-.02-.03,0-.08.03-.12.04-.04.09-.05.11-.03"/>
          <path class="cls-3" d="M98.15,115.64s.05.04.03.09c-.02.05-.07.08-.11.08-.04,0-.05-.04-.03-.09.02-.05.07-.08.11-.08"/>
          <path class="cls-3" d="M98.05,115.88s.08,0,.08.04-.04.09-.08.12c-.04.02-.08,0-.08-.04s.04-.1.08-.12"/>
          <path class="cls-3" d="M98.06,116.1s.09-.05.11-.03c.02.03,0,.08-.03.12s-.09.05-.11.03c-.02-.03,0-.08.03-.12"/>
          <path class="cls-3" d="M98.18,116.22s.07-.08.11-.08c.04,0,.05.04.03.09-.02.05-.07.08-.11.08s-.05-.04-.03-.09"/>
          <path class="cls-3" d="M98.39,116.22s.04-.1.08-.12c.04-.02.08,0,.08.04s-.04.1-.08.12c-.04.02-.08,0-.08-.04"/>
          <path class="cls-3" d="M98.61,116.1s0-.08.03-.12.09-.05.11-.02c.02.03.01.08-.03.12-.04.04-.09.05-.11.03"/>
          <path class="cls-3" d="M98.8,115.88s-.05-.04-.03-.09c.02-.05.07-.08.11-.08.04,0,.05.04.03.09-.02.05-.07.08-.11.08"/>
          <path class="cls-3" d="M98.9,115.64s-.08,0-.08-.04.04-.09.08-.12c.04-.02.08,0,.08.04s-.04.1-.08.12"/>
          <path class="cls-3" d="M98.89,115.42s-.09.05-.11.03c-.02-.03,0-.08.03-.12s.09-.05.11-.03c.02.03,0,.08-.03.12"/>
          <path class="cls-3" d="M98.76,115.3s-.07.08-.11.08c-.04,0-.05-.04-.03-.09.02-.05.07-.08.11-.08.04,0,.05.04.03.09"/>
          <path class="cls-3" d="M98.47,115.49c.16-.08.29-.02.29.14,0,.16-.13.34-.29.42-.16.08-.29.02-.29-.14,0-.15.13-.34.29-.42"/>
          <path class="cls-22" d="M98.47,115.59c.1-.05.18-.01.18.09s-.08.22-.18.27-.18.01-.18-.09c0-.1.08-.22.18-.27"/>
          <path class="cls-22" d="M92.69,117.53c-.14-.07-.33-.07-.55.02-.02.01-.05.02-.07.03-.31.15-.58.44-.73.75-.08.17-.13.35-.13.51,0,.23.1.39.25.47l.59.29c-.16-.08-.25-.24-.25-.47,0-.16.05-.34.13-.51.15-.31.42-.6.73-.75.02-.01.05-.02.07-.03.21-.09.4-.09.55-.02l-.59-.29Z"/>
          <path class="cls-8" d="M92.66,117.87c.48-.23.87-.05.87.42,0,.46-.38,1.03-.86,1.26-.48.23-.87.05-.87-.42,0-.46.38-1.03.86-1.26"/>
          <path class="cls-8" d="M92.66,117.87c.48-.23.87-.05.87.42,0,.46-.38,1.03-.86,1.26-.48.23-.87.05-.87-.42,0-.46.38-1.03.86-1.26"/>
          <path class="cls-16" d="M92.66,118.16c.32-.15.57-.03.57.28,0,.31-.25.68-.57.83-.32.15-.57.03-.57-.28,0-.31.25-.68.57-.83"/>
          <path class="cls-3" d="M92.75,118.24s-.04.1-.08.12c-.04.02-.08,0-.08-.04s.04-.1.08-.12c.04-.02.08,0,.08.04"/>
          <path class="cls-3" d="M92.52,118.37s0,.08-.03.12-.09.05-.11.02c-.02-.03,0-.08.03-.12.04-.04.09-.05.11-.03"/>
          <path class="cls-3" d="M92.34,118.58s.05.04.03.09c-.02.05-.07.08-.11.08-.04,0-.05-.04-.03-.09.02-.05.07-.08.11-.08"/>
          <path class="cls-3" d="M92.23,118.82s.08,0,.08.04-.04.09-.08.12c-.04.02-.08,0-.08-.04s.04-.1.08-.12"/>
          <path class="cls-3" d="M92.25,119.04s.09-.05.11-.03c.02.03,0,.08-.03.12s-.09.05-.11.03c-.02-.03,0-.08.03-.12"/>
          <path class="cls-3" d="M92.37,119.16s.07-.08.11-.08c.04,0,.05.04.03.09-.02.05-.07.08-.11.08s-.05-.04-.03-.09"/>
          <path class="cls-3" d="M92.57,119.16s.04-.1.08-.12c.04-.02.08,0,.08.04s-.04.1-.08.12c-.04.02-.08,0-.08-.04"/>
          <path class="cls-3" d="M92.8,119.04s0-.08.03-.12.09-.05.11-.02c.02.03.01.08-.03.12-.04.04-.09.05-.11.03"/>
          <path class="cls-3" d="M92.99,118.83s-.05-.04-.03-.09c.02-.05.07-.08.11-.08.04,0,.05.04.03.09-.02.05-.07.08-.11.08"/>
          <path class="cls-3" d="M93.09,118.58s-.08,0-.08-.04.04-.09.08-.12c.04-.02.08,0,.08.04s-.04.1-.08.12"/>
          <path class="cls-3" d="M93.07,118.37s-.09.05-.11.03c-.02-.03,0-.08.03-.12s.09-.05.11-.03c.02.03,0,.08-.03.12"/>
          <path class="cls-3" d="M92.95,118.24s-.07.08-.11.08c-.04,0-.05-.04-.03-.09.02-.05.07-.08.11-.08s.05.04.03.09"/>
          <path class="cls-3" d="M92.66,118.43c.16-.08.29-.02.29.14,0,.16-.13.34-.29.42-.16.08-.29.02-.29-.14,0-.15.13-.34.29-.42"/>
          <path class="cls-22" d="M92.66,118.53c.1-.05.18-.01.18.09s-.08.22-.18.27-.18.01-.18-.09c0-.1.08-.22.18-.27"/>
          <path class="cls-28" d="M92.86,117.06c-.09-.09-.19-.18-.29-.26-.11-.1-.22-.19-.33-.28-.46-.37-.95-.71-1.46-1.03-.26-.16-.52-.31-.79-.45-.27-.14-.54-.28-.81-.41-.17-.08-.34-.15-.52-.21l6.19-3.04,4.47,2.54-6.43,3.17s-.02-.02-.02-.02"/>
          <path class="cls-54" d="M98.41,112.29c-.29-.22-.76-.52-1.27-.76-.77-.36-2.07-1.26-4.15-.25-.92.45-3.01,1.47-3.01,1.47l1.32,1.23,2.37.53s5.18-1.89,4.75-2.22"/>
          <path class="cls-24" d="M91.26,112.12c.61-.3,1.3-.64,1.73-.85,2.07-1.01,3.38-.11,4.15.25.5.24.98.54,1.27.76.07.05,0,.14-.15.25-1.07-.22-2.14-.37-3.23-.43-1.24-.05-2.52-.1-3.77.02"/>
          <path class="cls-35" d="M86.08,117.36c.03.29.16.59.39.83.69.74,2.29,1.76,4.14,1.32.13-.03.27-.07.4-.12,0,0,.06-.03.68-.33.02-.22.11-.47.27-.7.17-.25.41-.46.66-.59.16-.08.31-.12.45-.12.18,0,.34.06.45.18.07.07.12.16.14.26,1.34-.65,2.59-1.26,3.83-1.86.02-.23.11-.47.27-.7.17-.26.41-.46.66-.59.16-.08.31-.12.45-.12.18,0,.34.06.45.18.04.04.07.09.09.14.04-.05.07-.23.07-.46s-.03-.54-.1-.86c-.14-.59-.42-1.22-.97-1.56-.2-.05-.68.12-1.27.38-1.43.64-3.49,1.85-3.49,1.85,0,0-2.9.7-4.09.29-.05-.02-.1-.04-.15-.06-.03-.01-.05-.03-.08-.05-.13-.1-.25-.29-.37-.43-.07-.08.1-.05.01-.08l-2.43,1.92c-.09.08-.2.23-.29.42-.09.18-.16.39-.17.61,0,.07,0,.14,0,.22"/>
          <path class="cls-58" d="M90.39,119.55c-.11-.22-.16-.45-.17-.69,0-.14.01-.33.08-.49l9.1-4.45c.06.28.08.55.08.77,0,.24-.03.41-.07.46-.02-.05-.06-.1-.09-.14-.11-.11-.27-.18-.45-.18-.14,0-.3.04-.45.12-.25.12-.48.33-.66.59-.16.23-.25.48-.27.7-1.24.6-2.48,1.21-3.83,1.86-.03-.1-.07-.19-.14-.26-.11-.11-.27-.18-.45-.18-.14,0-.3.04-.45.12-.25.12-.48.33-.66.59-.16.23-.25.47-.27.7-.62.3-.68.33-.68.33-.14.05-.27.09-.4.12-.07.02-.15.03-.22.05"/>
          <polygon class="cls-70" points="91.58 117.68 91.31 117.82 91.25 117.79 91.52 117.66 91.58 117.68"/>
          <polygon class="cls-32" points="91.58 117.68 91.58 117.87 91.31 118 91.31 117.82 91.58 117.68"/>
          <polygon class="cls-36" points="91.31 117.82 91.31 118 91.25 117.98 91.25 117.79 91.31 117.82"/>
          <path class="cls-54" d="M91.15,117.56c-.72.41-1.07.5-1.55.58-.42.07-.97.13-1.82-.3-.58-.29-1.03-.64-1.27-1.19-.15-.34,0-.5.05-.56.59-.76,1.84-1.64,1.84-1.64.26.1,4.47,1.86,4.44,1.89-.2.17-1.33,1.02-1.68,1.22"/>
          <path class="cls-19" d="M91.34,116.22c-.31.41-1.33,1.19-1.9,1.28-.57.09-1.18-.02-1.66-.3-.45-.27-.62-.61-.41-1.04.08-.17.21-.32.34-.46.31-.34.69-.65,1.16-.79l2.48,1.31Z"/>
          <path class="cls-26" d="M93.63,115.87v1.29c0,.13.08.24.2.3.13.06.28.06.41,0l3.03-1.52c.09-.26.24-.53.44-.76.21-.24.45-.44.71-.56.02-.01.04-.02.06-.03v-.75h.06v.79h-.02s-.05.03-.07.04c-.49.24-.94.77-1.12,1.3h0s-3.05,1.54-3.05,1.54c-.07.04-.15.05-.24.05s-.16-.02-.24-.05c-.15-.07-.24-.2-.24-.35v-1.29h.06Z"/>
          <polygon class="cls-26" points="95.95 116.65 96.01 116.62 96.01 114.97 95.95 114.97 95.95 116.65"/>
          <path class="cls-22" d="M93.67,114.51s-1.38-.53-2.12-.9c-1.04-.52-1.57-.86-1.57-.86l-1.66,1.59c-.24.23-.2.57.07.76.52.36,1.28.88,1.53,1.01.32.16.76.34,1.2.49.87.31,1.87-.09,2.13-.86l.42-1.23Z"/>
          <path class="cls-3" d="M91.73,116.52c.6,0,1.14-.34,1.3-.83l.36-1.08c-.4-.16-1.38-.55-1.96-.84-.72-.36-1.19-.63-1.42-.77l-1.53,1.46c-.07.07-.11.16-.1.26,0,.09.06.18.15.24.76.53,1.32.9,1.51.99.27.14.66.3,1.17.48.17.06.34.09.52.09"/>
          <path class="cls-22" d="M90.99,114.1l.49.24s.09,0,.11-.04l.06-.16s0-.06-.03-.08l-.2-.1.1-.19-.07-.04-.1.19-.21-.11s-.09,0-.11.04l-.06.16s0,.06.03.08"/>
          <g class="cls-43">
            <g class="cls-37">
              <path class="cls-38" d="M91.44,113.77c.59.29,1.57.68,1.96.84l-.36,1.08c-.08.24-.25.45-.48.59-.07-1.24-1.21-2.28-2.3-3.07-.09-.06-.18-.12-.27-.18l.03-.03c.23.14.71.41,1.42.77"/>
            </g>
          </g>
          <path class="cls-13" d="M88.49,114.47l1.53-1.46c.16.1.45.26.85.48l-2.48,1.21c0-.08.04-.16.1-.22"/>
          <path class="cls-22" d="M98.55,113.84l-4.56,2.32c-.22.11-.49-.06-.44-.27l.35-1.31,3.86-1.97s.64.3.79,1.23"/>
          <path class="cls-55" d="M93.83,116.08s.05,0,.07-.02l4.48-2.28c-.12-.62-.48-.92-.63-1.02l-3.72,1.91-.34,1.26s0,.08.03.1c.03.03.07.05.12.05"/>
          <path class="cls-55" d="M97.75,112.76c.08.06.23.17.37.37-.26-.06-.52-.11-.78-.17l.4-.21Z"/>
          <g class="cls-43">
            <g class="cls-63">
              <path class="cls-13" d="M97.35,112.97c.26.05.52.11.78.17.06.09.11.19.16.3-.42-.1-.85-.2-1.27-.3l.33-.17Z"/>
            </g>
          </g>
          <g class="cls-43">
            <g class="cls-46">
              <path class="cls-13" d="M95.89,113.71c.64.12,1.28.24,1.93.35l-.62.32c-.62-.12-1.25-.25-1.87-.38l.56-.28Z"/>
            </g>
          </g>
          <path class="cls-55" d="M95.89,113.71l1.12-.57c.42.1.85.2,1.27.3.04.1.08.21.1.34l-.56.29c-.65-.11-1.29-.23-1.93-.35"/>
          <rect class="cls-22" x="95.95" y="113.59" width=".06" height="1.51"/>
          <polygon class="cls-26" points="95.74 115.44 95.74 115.66 95.37 115.85 95.37 115.63 95.74 115.44"/>
          <polygon class="cls-54" points="95.7 115.64 95.7 115.46 95.74 115.44 95.74 115.66 95.37 115.85 95.37 115.81 95.7 115.64"/>
          <polygon class="cls-54" points="95.7 115.46 95.7 115.64 95.74 115.66 95.74 115.44 95.7 115.46"/>
          <polygon class="cls-26" points="98.37 114.07 98.37 114.29 98.01 114.48 98.01 114.26 98.37 114.07"/>
          <polygon class="cls-54" points="98.33 114.26 98.33 114.09 98.37 114.07 98.37 114.29 98.01 114.48 98.01 114.43 98.33 114.26"/>
          <polygon class="cls-54" points="98.33 114.09 98.33 114.26 98.37 114.29 98.37 114.07 98.33 114.09"/>
          <path class="cls-11" d="M99.1,114.19c.02.1.06.2.1.29.03.06.06.12.11.16.04.03.11.05.16.05,0-.24-.03-.54-.1-.86-.03.01-.07.03-.1.04-.07.03-.14.07-.16.11,0,0,0,.02-.01.03-.02.06,0,.12,0,.18"/>
          <path class="cls-58" d="M86.2,117.81c.15.15.34.29.54.4.03.02.05.04.08.06.08.06.19.11.3.12.86.52,2.08.93,3.46.62.19-.04.43-.16.69-.3.15-.08.33,0,.34.15l.02.37c-.39.21-.62.33-.62.33-.13.05-.26.12-.4.14-1.89.26-3.43-.46-4.2-1.18-.19-.17-.32-.34-.37-.55-.02-.1-.03-.3-.03-.41,0,0,.14.18.2.24"/>
          <path class="cls-54" d="M86.08,117.76c.05.07.06.07.13.13.81.73,2.47,1.63,4.45,1.25.18-.03.59-.26.88-.4-.07-.06-.18-.07-.27-.02-.26.14-.51.25-.69.3-1.85.42-3.43-.46-4.2-1.18-.16-.15-.26-.21-.28-.4-.07.11-.16.14-.01.32"/>
          <polygon class="cls-54" points="93.19 116.63 92.35 116.67 92.71 116.43 93.11 116.39 93.19 116.63"/>
          <path class="cls-26" d="M93.73,116.77s.02,0,.02,0c0,0,.03-.02.03-.02.01,0,.02-.02.03-.03l-.05.03s-.02.02-.03.03"/>
          <polygon class="cls-26" points="93.76 116.74 93.81 116.72 93.85 116.65 93.8 116.67 93.76 116.74"/>
          <path class="cls-26" d="M93.67,116.42l.05-.03s-.4-.07-.54-.08c-.03,0-.09,0-.12,0-.05,0-.07.06-.07.06l.67.05Z"/>
          <g class="cls-15">
            <path class="cls-26" d="M93.8,116.67l.05-.03s.01-.11-.03-.16l-.05.03c.04.05.05.12.03.16"/>
            <path class="cls-26" d="M93.77,116.51l.05-.03s-.06-.07-.1-.09l-.05.03s.08.05.1.09"/>
          </g>
          <path class="cls-54" d="M93.13,116.33c-.12-.01-.14.01-.14.09v.07c0,.08.06.17.14.21,0,0,.34.05.5.07.06,0,.11.02.13-.02l.04-.07c.04-.07-.03-.2-.13-.25,0,0-.4-.07-.54-.09"/>
          <g class="cls-44">
            <g class="cls-41">
              <path class="cls-38" d="M88.49,114.47l1.52-1.46c-.26.54-.36,1.12-.32,1.7.02.52.53.89,1.04,1.18.89.5,1.85.36,1.89.36-.24.17-.55.28-.88.28-.18,0-.36-.03-.52-.09-.51-.18-.9-.34-1.17-.48-.18-.1-.75-.47-1.51-1-.09-.06-.14-.14-.15-.24,0-.09.03-.18.1-.26"/>
            </g>
          </g>
          <g class="cls-44">
            <g class="cls-4">
              <path class="cls-38" d="M88.49,114.47l1.53-1.46c.08.05.18.11.31.18-.44.35-.8.75-.99,1.25-.15.42.02.85.46,1.13.74.45,1.59.96,2.5.7.24-.08.44-.2.64-.35-.23.37-.69.61-1.2.61-.18,0-.36-.03-.52-.09-.51-.18-.9-.34-1.17-.48-.18-.1-.75-.47-1.51-1-.09-.06-.14-.14-.15-.24,0-.09.03-.18.1-.26"/>
            </g>
          </g>
          <path class="cls-21" d="M89.15,118.6c0-.1-.05-.22.65-.3,0,0,.01,0,.02,0l.02.14,1.1-.09c.02.12,0,.25-.06.32-.04.04-.09.07-.15.09-.4.15-.9.19-1.32.15-.06,0-.13-.01-.18-.05-.09-.06-.07-.17-.07-.27"/>
          <path class="cls-18" d="M89.18,118.58c0,.09-.01.2.07.26.05.03.12.04.18.05.42.03.91,0,1.3-.15.06-.02.12-.05.15-.09.11-.13.09-.52-.15-.56-.13-.02-.28.07-.4.1-.16.05-.33.08-.5.1-.69.08-.64.2-.65.29"/>
          <path class="cls-12" d="M90.37,118.17c.11-.04.24-.11.36-.09.24.04.26.43.15.56-.04.04-.09.07-.15.09-.08.03-.17.06-.25.08.03-.08.04-.16.03-.24-.02-.14-.05-.28-.14-.4"/>
          <g class="cls-64">
            <g class="cls-5">
              <path class="cls-18" d="M89.18,118.58c0-.06-.01-.13.14-.19.08.12.2.23.36.3.41.2.84,0,1.23-.11,0,.02-.02.04-.03.05-.04.04-.09.07-.15.09-.39.15-.88.18-1.3.15-.06,0-.13-.01-.18-.05-.09-.06-.08-.16-.07-.26"/>
            </g>
          </g>
          <path class="cls-18" d="M86.08,117.36s.03.03.04.05c.05.06.11.11.19.1.05,0,.1-.04.13-.08.05-.06.1-.12.11-.19.03-.14-.07-.27-.16-.39-.05-.07-.11-.19-.15-.32-.09.18-.16.39-.17.61,0,.07,0,.14,0,.22"/>
          <path class="cls-17" d="M88.42,118.86c-1.11-.28-1.52-.71-1.52-.71,0,0-.08-.38.16-.6.58.53,1.42.7,1.42.72,0,.04-.13.36-.06.58"/>
          <polygon class="cls-33" points="48.19 112.71 48.19 102.14 49.27 102.14 49.27 99.98 39.38 99.98 39.38 102.14 40.46 102.14 40.46 112.71 38.14 112.71 38.14 114.67 50.5 114.67 50.5 112.71 48.19 112.71"/>
          <rect class="cls-68" x="41.8" y="102.63" width="1.98" height="1.69"/>
          <rect class="cls-68" x="45.08" y="102.63" width="1.98" height="1.69"/>
          <rect class="cls-68" x="41.8" y="104.93" width="1.98" height="1.69"/>
          <rect class="cls-68" x="45.08" y="104.93" width="1.98" height="1.69"/>
          <rect class="cls-68" x="41.8" y="107.28" width="1.98" height="1.69"/>
          <rect class="cls-68" x="45.08" y="107.28" width="1.98" height="1.69"/>
          <rect class="cls-68" x="41.8" y="109.59" width="1.98" height="1.69"/>
          <rect class="cls-68" x="45.08" y="109.59" width="1.98" height="1.69"/>
          <path class="cls-20" d="M39.64,106.26c0,1.24-1,2.24-2.24,2.24s-2.24-1-2.24-2.24,1-2.24,2.24-2.24,2.24,1,2.24,2.24"/>
          <path class="cls-49" d="M33.78,116.69h7.28l.07-5.06c.05-1.29-.97-2.34-2.26-2.34h-2.91c-1.29,0-2.31,1.06-2.26,2.34l.08,5.06Z"/>
          <rect class="cls-60" x="68.96" y="79.45" width=".71" height="6.48"/>
          <rect class="cls-60" x="52.93" y="83.15" width=".71" height="5.71"/>
          <rect class="cls-60" x="86.42" y="83.14" width=".71" height="6.48"/>
          <rect class="cls-60" x="52.9" y="83.09" width="34.2" height=".71"/>
          <path class="cls-30" d="M91.87,93.51c0,.13-.12.24-.26.24h-9.71c-.14,0-.26-.11-.26-.24v-5.47c0-.13.12-.24.26-.24h9.71c.14,0,.26.11.26.24v5.47Z"/>
          <path class="cls-27" d="M91.44,93.06c0,.14-.12.25-.27.25h-8.81c-.15,0-.27-.11-.27-.25v-4.56c0-.14.12-.26.27-.26h8.81c.15,0,.27.12.27.26v4.56Z"/>
          <polygon class="cls-30" points="91.87 93.75 81.63 93.75 79.83 95.4 93.69 95.4 91.87 93.75"/>
          <path class="cls-52" d="M93.48,95.72h-13.42c-.12,0-.23-.1-.23-.23v-.08s0,0,0,0h13.85v.1c0,.12-.09.21-.21.21"/>
          <path class="cls-27" d="M87.97,95.24h-2.41c-.06,0-.1-.05-.1-.1v-.07c0-.06.05-.1.1-.1h2.41c.06,0,.1.05.1.1v.07c0,.06-.05.1-.1.1"/>
          <rect class="cls-60" x="68.31" y="96.16" width="2.2" height="1.21"/>
          <path class="cls-30" d="M72.26,97.81h-5.7v-.11c0-.18.27-.32.6-.32h4.5c.33,0,.6.14.6.32v.11Z"/>
          <rect class="cls-30" x="61.64" y="85.95" width="15.58" height="10.42" rx=".19" ry=".19"/>
          <rect class="cls-27" x="62.19" y="86.5" width="14.48" height="9.12"/>
          <rect class="cls-56" x="62.19" y="86.5" width="14.48" height=".55"/>
          <rect class="cls-56" x="62.19" y="95.28" width="14.48" height=".33"/>
          <rect class="cls-53" x="62.19" y="87.04" width="14.48" height=".63"/>
          <g class="cls-45">
            <g class="cls-42">
              <polygon class="cls-27" points="67.51 86.5 62.19 91.81 62.19 88.87 64.56 86.5 67.51 86.5"/>
            </g>
          </g>
          <g class="cls-45">
            <g class="cls-23">
              <polygon class="cls-27" points="76.67 89.75 76.67 93.57 74.62 95.61 70.81 95.61 76.67 89.75"/>
            </g>
          </g>
          <g class="cls-45">
            <g class="cls-25">
              <polygon class="cls-27" points="61.65 91.05 66.96 96.36 64.02 96.36 61.65 93.99 61.65 91.05"/>
            </g>
          </g>
          <path class="cls-59" d="M64.07,88.96c0,.24-.19.43-.43.43s-.43-.19-.43-.43.19-.43.43-.43.43.19.43.43"/>
          <rect class="cls-7" x="66.5" y="88.67" width="2.04" height=".57"/>
          <rect class="cls-7" x="65.14" y="88.67" width=".82" height=".57"/>
          <rect class="cls-7" x="72.38" y="88.67" width="2.8" height=".57"/>
          <rect class="cls-7" x="69.23" y="88.67" width="2.35" height=".57"/>
          <path class="cls-59" d="M64.07,90.6c0,.24-.19.43-.43.43s-.43-.19-.43-.43.19-.43.43-.43.43.19.43.43"/>
          <rect class="cls-7" x="66.5" y="90.32" width="2.04" height=".57"/>
          <rect class="cls-7" x="69.23" y="90.32" width="2.35" height=".57"/>
          <path class="cls-59" d="M64.07,92.15c0,.24-.19.43-.43.43s-.43-.19-.43-.43.19-.43.43-.43.43.19.43.43"/>
          <rect class="cls-7" x="66.5" y="91.87" width="2.04" height=".57"/>
          <rect class="cls-7" x="65.14" y="91.87" width=".82" height=".57"/>
          <rect class="cls-7" x="72.38" y="91.87" width="2.8" height=".57"/>
          <rect class="cls-7" x="69.23" y="91.87" width="2.35" height=".57"/>
          <path class="cls-59" d="M64.07,93.78c0,.24-.19.43-.43.43s-.43-.19-.43-.43.19-.43.43-.43.43.19.43.43"/>
          <path class="cls-60" d="M54.9,96.71h-3.08c-.37,0-.67-.3-.67-.67v-6.66c0-.37.3-.67.67-.67h3.08c.37,0,.67.3.67.67v6.66c0,.37-.3.67-.67.67"/>
          <path class="cls-27" d="M54.94,95.67h-3.17c-.25,0-.45-.2-.45-.45v-5.87c0-.25.2-.45.45-.45h3.17c.25,0,.45.2.45.45v5.87c0,.25-.2.45-.45.45"/>
          <path class="cls-27" d="M54,96.3h-1.27c-.06,0-.11-.05-.11-.11v-.08c0-.06.05-.11.11-.11h1.27c.06,0,.11.05.11.11v.08c0,.06-.05.11-.11.11"/>
        </g>
        <g>
          <path class="cls-29" d="M99.88,180.97s-.01,0-.02,0c0,0-.02,0-.03,0-1.22-.48-2.49-.52-3.63-.26-.08.02-.15.04-.23.06.25-.3.51-.59.78-.87-1.51-.7-5.14-.71-8.72,1.6.17-.35,3.92-4,9.34-3.06.07-.39.08-.9.08-.9,0,0,2.09,1.32,2.42,3.45"/>
          <path class="cls-29" d="M81.32,183.03s.01,0,.02,0c0,0,.02,0,.03,0,1.22.48,2.49.52,3.63.26.08-.02.15-.04.23-.06-.25.3-.51.59-.78.87,1.51.7,5.14.71,8.72-1.6-.17.35-3.92,4-9.34,3.06-.07.39-.08.9-.08.9,0,0-2.09-1.32-2.42-3.45"/>
          <path class="cls-29" d="M111.15,173.97s-.15-1.6-1.24-3.21c-.03-.05-.08-.09-.12-.13.32,0,.74.05,1.07.05-.45-1.39-3.14-5.66-6.77-6.77.34-.07,6.01.92,7.81,6.53.34-.17.95-.54.95-.54,0,0-.27,2.63-1.7,4.06"/>
          <path class="cls-29" d="M76.15,164.48s-1.58.86-2.97,2.21c-.04.04-.07.09-.11.14-.05-.32-.08-.74-.14-1.07-1.29.69-5.02,4.08-5.47,7.86-.13-.32-.15-6.07,5.05-8.83-.23-.3-.69-.84-.69-.84,0,0,2.39-.26,4.32.53"/>
          <path class="cls-29" d="M81.87,158.27s.83-4.03,5.43-2.75c0,0,2.72-3.58,7.61-2.11,0,0,3.93,1.12,4.31,4.99,0,0,4.59.88,4.59,5.34,0,0,.48,5.75-6.09,5.75h-14.38s-6.9.86-6.9-5.89c0,0,.32-5.32,5.43-5.32"/>
          <path class="cls-27" d="M82.52,158.78s.76-3.53,5-2.41c0,0,2.67-3.45,7.17-2.16,0,0,3.53,1.04,3.8,4.69,0,0,4.22.77,4.22,4.68,0,0,.44,5.05-5.6,5.05h-13.23s-6.35.76-6.35-5.17c0,0,.29-4.67,5-4.67"/>
          <path class="cls-30" d="M86.41,158.6c-.02.06,0,.13.06.17l.92.65c0,.26.01.51.06.76l-.81.78s-.06.12-.03.18l.52,1.07c.03.06.09.09.16.08l1.15-.17c.17.18.36.34.57.49v1.13c0,.07.04.13.1.15l1.13.37c.06.02.13,0,.17-.06l.67-.92c.25,0,.5-.01.74-.06l.78.81s.12.06.18.03l1.07-.52c.06-.03.09-.09.08-.16l-.17-1.15c.17-.16.32-.34.46-.53h1.16c.07,0,.13-.04.15-.11l.36-1.13c.02-.06,0-.13-.06-.17l-.91-.66c0-.26-.01-.52-.06-.77l.81-.78s.06-.12.03-.18l-.52-1.07c-.03-.06-.09-.09-.16-.08l-1.15.16c-.17-.17-.35-.33-.55-.47v-1.16c0-.07-.05-.13-.11-.15l-1.13-.36c-.06-.02-.13,0-.17.06l-.65.92c-.27,0-.53.01-.79.06l-.79-.81s-.12-.06-.18-.03l-1.06.53c-.06.03-.09.09-.08.16l.17,1.15c-.17.16-.32.34-.46.54h-1.16c-.07,0-.13.05-.15.11l-.35,1.13Z"/>
          <path class="cls-27" d="M90.51,161.46c1.07.35,2.23-.23,2.59-1.31.35-1.07-.23-2.23-1.31-2.59-1.08-.35-2.23.23-2.59,1.31-.35,1.08.23,2.23,1.31,2.59"/>
          <path class="cls-68" d="M90.58,161.24c.95.31,1.98-.21,2.29-1.16.31-.95-.21-1.98-1.16-2.29-.95-.31-1.98.21-2.29,1.16-.31.95.21,1.98,1.16,2.29"/>
          <path class="cls-27" d="M91.62,158.07c.79.26,1.23,1.12.97,1.91s-1.12,1.23-1.91.97c-.79-.26-1.23-1.12-.97-1.91s1.12-1.23,1.91-.97"/>
          <path class="cls-30" d="M81.71,155.02s0,.09.04.11l.61.43c0,.17,0,.34.04.5l-.53.52s-.04.08-.02.12l.35.71s.06.06.11.06l.76-.11c.11.12.24.23.38.32v.75s.03.08.07.1l.75.25s.09,0,.11-.04l.44-.61c.17,0,.33-.01.49-.04l.52.53s.08.04.12.02l.71-.35s.06-.06.05-.11l-.11-.76c.11-.11.22-.23.31-.36h.77s.08-.03.1-.07l.24-.75s0-.09-.04-.11l-.6-.43c0-.17,0-.35-.04-.51l.54-.52s.04-.08.02-.12l-.34-.71s-.06-.06-.11-.05l-.76.11c-.11-.11-.23-.22-.36-.31v-.77s-.03-.08-.07-.1l-.75-.24s-.09,0-.11.04l-.43.61c-.18,0-.35,0-.52.04l-.52-.53s-.08-.04-.12-.02l-.71.35s-.06.06-.05.11l.11.76c-.11.11-.22.23-.31.36h-.77s-.08.03-.1.08l-.23.75Z"/>
          <path class="cls-27" d="M84.42,156.92c.71.23,1.48-.15,1.71-.87.23-.71-.15-1.48-.87-1.71-.71-.23-1.48.15-1.71.87-.23.71.15,1.48.87,1.71"/>
          <path class="cls-68" d="M84.47,156.77c.63.21,1.31-.14,1.52-.77.21-.63-.14-1.31-.77-1.52-.63-.21-1.31.14-1.52.77-.21.63.14,1.31.77,1.52"/>
          <path class="cls-27" d="M85.16,154.67c.53.17.81.74.64,1.27-.17.53-.74.81-1.27.64-.53-.17-.81-.74-.64-1.27.17-.53.74-.81,1.27-.64"/>
          <path class="cls-57" d="M80.87,163.98c-.02.06,0,.12.05.15l.81.58c0,.23.01.45.05.67l-.71.69s-.06.1-.03.15l.46.94c.03.05.08.08.14.07l1.01-.15c.15.16.32.3.5.43v1c0,.06.03.11.09.13l.99.33c.05.02.12,0,.15-.05l.59-.81c.22,0,.44-.01.65-.05l.69.71s.1.06.16.03l.94-.46c.05-.02.08-.08.07-.14l-.15-1.01c.15-.14.29-.3.41-.47h1.02c.06,0,.11-.04.13-.09l.32-1c.02-.06,0-.12-.05-.15l-.81-.58c0-.23,0-.46-.05-.68l.71-.69s.06-.1.03-.16l-.46-.94c-.03-.05-.08-.08-.14-.07l-1.01.15c-.15-.15-.31-.29-.48-.42v-1.02c0-.06-.04-.11-.1-.13l-1-.32c-.05-.02-.12,0-.15.05l-.58.81c-.24,0-.47.01-.69.05l-.69-.71s-.1-.05-.16-.03l-.94.46c-.05.03-.08.08-.07.14l.15,1.01c-.15.14-.28.3-.41.47h-1.02c-.06,0-.11.05-.13.1l-.31,1Z"/>
          <path class="cls-27" d="M84.49,166.5c.95.31,1.97-.2,2.28-1.15.31-.95-.21-1.97-1.15-2.28-.95-.31-1.97.21-2.28,1.15-.31.95.21,1.97,1.15,2.28"/>
          <path class="cls-68" d="M84.55,166.3c.84.28,1.75-.18,2.02-1.02.28-.84-.18-1.75-1.02-2.02-.84-.28-1.75.18-2.02,1.02-.28.84.18,1.75,1.02,2.02"/>
          <path class="cls-27" d="M85.47,163.51c.7.23,1.08.99.85,1.69-.23.7-.99,1.08-1.69.85-.7-.23-1.08-.99-.85-1.69.23-.7.99-1.08,1.69-.85"/>
          <path class="cls-47" d="M116.23,181.61c0,3.72-3.01,6.73-6.73,6.73s-6.73-3.01-6.73-6.73,3.01-6.73,6.73-6.73,6.73,3.01,6.73,6.73"/>
          <path class="cls-29" d="M104.33,176.01c0,.38-.31.68-.69.68s-.68-.31-.68-.68.31-.68.68-.68.69.31.69.68"/>
          <path class="cls-29" d="M104.79,176.93c-.06-.04-.14-.06-.22-.06h-2.01c-.12,0-.23.05-.31.13-.13.09-.26.23-.26.29v2.83c0,.09.12.16.26.16s.26-.07.26-.16v-2.19s.03,0,.05,0h.19v5.66c0,.18.17.32.38.32s.38-.15.38-.32v-3.28s.03,0,.04,0h.2s0,0,.01,0v3.28c0,.18.17.32.38.32s.38-.15.38-.32v-5.66h.06s.08,0,.12-.02v2.2c0,.09.12.16.26.16s.26-.07.26-.16v-2.83c0-.08-.28-.34-.42-.36"/>
          <path class="cls-29" d="M107.01,176.93c0,.38-.31.68-.69.68s-.68-.31-.68-.68.31-.68.68-.68.69.31.69.68"/>
          <path class="cls-29" d="M107.47,177.86c-.06-.04-.14-.06-.22-.06h-2.01c-.12,0-.23.05-.31.13-.13.09-.26.23-.26.29v2.83c0,.09.12.16.26.16s.26-.07.26-.16v-2.19s.03,0,.05,0h.19v5.66c0,.18.17.32.38.32s.38-.15.38-.32v-3.28s.03,0,.04,0h.2s0,0,.01,0v3.28c0,.18.17.32.38.32s.38-.15.38-.32v-5.66h.06s.08,0,.12-.02v2.2c0,.09.12.16.26.16s.26-.07.26-.16v-2.83c0-.08-.28-.34-.42-.36"/>
          <path class="cls-30" d="M113.24,185.76l-6.54-2.16v-3.75c0-.14.12-.26.26-.24l6.08.45c.13.01.23.12.23.25l-.03,5.46Z"/>
          <path class="cls-27" d="M112.84,185.31l-5.8-1.87v-3.25c0-.12.11-.22.23-.21l5.39.39c.11,0,.2.1.2.21l-.03,4.73Z"/>
          <polygon class="cls-7" points="108.22 188.09 102.46 185.01 106.69 183.54 113.23 185.74 108.22 188.09"/>
          <polygon class="cls-30" points="108.23 188.41 102.48 185.27 102.46 185 108.23 188.09 108.23 188.41"/>
          <polygon class="cls-30" points="113.21 185.73 108.23 188.09 108.23 188.4 113.21 186.03 113.21 185.73"/>
          <path class="cls-57" d="M106.52,186.76l-2.07-1.04c-.08-.04-.11-.13-.07-.21l.29-.14c.12-.06.22-.06.3-.02l2.08,1.04c.08.04.11.13.07.21l-.26.17c-.04.08-.27.03-.35,0"/>
          <path class="cls-57" d="M106.96,183.88l4.81,1.74c.09.03.09.15,0,.19l-2.29.98s-.05.01-.08,0l-4.65-2c-.09-.04-.08-.16,0-.19l2.13-.71s.04,0,.07,0"/>
          <path class="cls-65" d="M115.78,182.5c0,1.08-.88,1.96-1.96,1.96s-1.96-.88-1.96-1.96.88-1.96,1.96-1.96,1.96.88,1.96,1.96"/>
          <path class="cls-27" d="M115.48,182.5c0,.92-.74,1.66-1.66,1.66s-1.66-.74-1.66-1.66.74-1.66,1.66-1.66,1.66.74,1.66,1.66"/>
          <path class="cls-30" d="M114.51,183.33c-.05.1-.13.17-.23.24-.1.06-.22.1-.37.11v.27h-.18v-.27c-.2-.02-.36-.08-.49-.19s-.19-.25-.19-.42h.32c0,.09.04.17.1.24.06.07.15.11.26.13v-.82c-.15-.04-.27-.08-.36-.12-.09-.04-.17-.1-.23-.18-.06-.08-.1-.2-.1-.34,0-.18.06-.33.19-.44.12-.12.29-.18.5-.19v-.27h.18v.27c.19.01.34.07.45.18.11.1.18.24.2.41h-.32c-.01-.08-.04-.15-.1-.21-.06-.06-.13-.1-.23-.12v.8c.15.04.26.08.35.11.09.04.17.1.23.18.06.08.09.2.09.34,0,.1-.03.21-.08.3M113.45,182.2c.06.06.16.1.28.14v-.76c-.11.01-.21.05-.27.11-.07.06-.1.15-.1.26s.03.19.1.25M114.19,183.31c.07-.07.1-.16.1-.26,0-.11-.03-.19-.1-.25-.07-.06-.16-.1-.28-.14v.78c.12-.01.21-.06.28-.13"/>
          <polygon class="cls-26" points="102.35 186.7 102.35 187.07 101.79 186.8 101.79 186.7 102.35 186.7"/>
          <polygon class="cls-26" points="105.93 184.85 105.93 185.23 105.37 184.96 105.37 184.85 105.93 184.85"/>
          <path class="cls-26" d="M98.91,184.89s.01,0,.02,0c0,0,.02,0,.02,0,0,0,.02,0,.03,0h-.04s-.02,0-.03,0"/>
          <polygon class="cls-26" points="98.94 184.89 98.98 184.89 99.02 184.86 98.99 184.86 98.94 184.89"/>
          <path class="cls-26" d="M99.01,184.68h.04s-.2-.15-.27-.19c-.01,0-.05-.03-.06-.04-.03-.01-.06.01-.06.01l.35.21Z"/>
          <g class="cls-31">
            <path class="cls-26" d="M98.99,184.86h.04s.05-.06.05-.1h-.04s-.02.08-.05.1"/>
            <path class="cls-26" d="M99.03,184.76h.04s0-.06-.02-.08h-.04s.02.05.02.08"/>
          </g>
          <path class="cls-54" d="M98.74,184.49c-.06-.04-.08-.03-.11,0l-.03.04s0,.13.03.17c.05.05.14.1.22.15.03.02.05.04.08.02l.05-.03s.06-.12.02-.18c0,0-.2-.15-.27-.19"/>
          <path class="cls-22" d="M105.37,184.88c-.09-.04-.21-.04-.34.01-.01,0-.03.01-.04.02-.19.09-.36.28-.46.47-.05.11-.08.22-.08.32,0,.14.06.25.16.29l.37.18c-.1-.05-.16-.15-.16-.29,0-.1.03-.21.08-.32.1-.19.26-.38.46-.47.01,0,.03-.01.04-.02.13-.05.25-.06.34-.01l-.37-.18Z"/>
          <path class="cls-8" d="M105.35,185.09c.3-.15.54-.03.54.26s-.24.64-.54.79c-.3.15-.54.03-.54-.26,0-.29.24-.64.54-.79"/>
          <path class="cls-8" d="M105.35,185.09c.3-.15.54-.03.54.26s-.24.64-.54.79c-.3.15-.54.03-.54-.26,0-.29.24-.64.54-.79"/>
          <path class="cls-16" d="M105.36,185.27c.2-.1.36-.02.36.17,0,.19-.16.42-.35.52-.2.1-.36.02-.36-.17,0-.19.16-.42.36-.52"/>
          <path class="cls-3" d="M105.41,185.33s-.02.06-.05.07c-.03.01-.05,0-.05-.02s.02-.06.05-.07c.03-.01.05,0,.05.02"/>
          <path class="cls-3" d="M105.27,185.4s0,.05-.02.08c-.02.03-.06.03-.07.02-.01-.02,0-.05.02-.08.02-.03.05-.03.07-.02"/>
          <path class="cls-3" d="M105.15,185.54s.03.03.02.06c-.01.03-.04.05-.07.05s-.03-.03-.02-.06c.01-.03.04-.05.07-.05"/>
          <path class="cls-3" d="M105.09,185.69s.05,0,.05.02-.02.06-.05.07c-.03.01-.05,0-.05-.03s.02-.06.05-.07"/>
          <path class="cls-3" d="M105.1,185.82s.05-.03.07-.01c.01.02,0,.05-.02.08-.02.03-.05.03-.07.02-.01-.02,0-.05.02-.08"/>
          <path class="cls-3" d="M105.18,185.9s.04-.05.07-.05.03.03.02.06c-.01.03-.04.05-.07.05s-.03-.03-.02-.06"/>
          <path class="cls-3" d="M105.3,185.9s.02-.06.05-.07c.03-.01.05,0,.05.02s-.02.06-.05.07c-.03.01-.05,0-.05-.02"/>
          <path class="cls-3" d="M105.44,185.83s0-.05.02-.08c.02-.03.06-.03.07-.02.01.02,0,.05-.02.08-.02.03-.05.03-.07.01"/>
          <path class="cls-3" d="M105.56,185.69s-.03-.03-.02-.06c.01-.03.04-.05.07-.05s.03.03.02.06c-.01.03-.04.05-.07.05"/>
          <path class="cls-3" d="M105.62,185.54s-.05,0-.05-.02.02-.06.05-.07c.03-.01.05,0,.05.03s-.02.06-.05.07"/>
          <path class="cls-3" d="M105.61,185.4s-.06.03-.07.02c-.01-.02,0-.05.02-.08.02-.03.05-.03.07-.02.01.02,0,.05-.02.08"/>
          <path class="cls-3" d="M105.54,185.33s-.04.05-.07.05-.03-.03-.02-.06c.01-.03.04-.05.07-.05.02,0,.03.03.02.06"/>
          <path class="cls-3" d="M105.36,185.44c.1-.05.18,0,.18.09,0,.1-.08.22-.18.26-.1.05-.18,0-.18-.09,0-.1.08-.22.18-.26"/>
          <path class="cls-22" d="M105.36,185.51c.06-.03.11,0,.12.06,0,.06-.05.14-.12.17-.06.03-.12,0-.12-.06s.05-.14.12-.17"/>
          <path class="cls-22" d="M101.74,186.72c-.09-.04-.21-.04-.34.01-.01,0-.03.01-.04.02-.19.09-.36.28-.46.47-.05.11-.08.22-.08.32,0,.14.06.25.16.29l.37.18c-.1-.05-.16-.15-.16-.29,0-.1.03-.21.08-.32.1-.19.26-.38.46-.47.01,0,.03-.01.04-.02.13-.05.25-.06.34-.01l-.37-.18Z"/>
          <path class="cls-8" d="M101.72,186.93c.3-.15.54-.03.54.26s-.24.64-.54.79c-.3.15-.54.03-.54-.26,0-.29.24-.64.54-.79"/>
          <path class="cls-8" d="M101.72,186.93c.3-.15.54-.03.54.26s-.24.64-.54.79c-.3.15-.54.03-.54-.26,0-.29.24-.64.54-.79"/>
          <path class="cls-16" d="M101.72,187.11c.2-.1.36-.02.36.17,0,.19-.16.42-.35.52-.2.1-.36.02-.36-.17,0-.19.16-.42.36-.52"/>
          <path class="cls-3" d="M101.78,187.16s-.02.06-.05.07c-.03.01-.05,0-.05-.02s.02-.06.05-.07c.03-.01.05,0,.05.02"/>
          <path class="cls-3" d="M101.64,187.24s0,.05-.02.08c-.02.03-.06.03-.07.02-.01-.02,0-.05.02-.08.02-.03.05-.03.07-.02"/>
          <path class="cls-3" d="M101.52,187.37s.03.03.02.06c-.01.03-.04.05-.07.05s-.03-.03-.02-.06c.01-.03.04-.05.07-.05"/>
          <path class="cls-3" d="M101.46,187.53s.05,0,.05.02-.02.06-.05.07c-.03.01-.05,0-.05-.03s.02-.06.05-.07"/>
          <path class="cls-3" d="M101.47,187.66s.05-.03.07-.01c.01.02,0,.05-.02.08-.02.03-.05.03-.07.02-.01-.02,0-.05.02-.08"/>
          <path class="cls-3" d="M101.54,187.74s.04-.05.07-.05.03.03.02.06c-.01.03-.04.05-.07.05s-.03-.03-.02-.06"/>
          <path class="cls-3" d="M101.67,187.74s.02-.06.05-.07c.03-.01.05,0,.05.02s-.02.06-.05.07c-.03.01-.05,0-.05-.02"/>
          <path class="cls-3" d="M101.81,187.66s0-.05.02-.08c.02-.03.06-.03.07-.02.01.02,0,.05-.02.08-.02.03-.05.03-.07.01"/>
          <path class="cls-3" d="M101.93,187.53s-.03-.03-.02-.06c.01-.03.04-.05.07-.05s.03.03.02.06c-.01.03-.04.05-.07.05"/>
          <path class="cls-3" d="M101.99,187.38s-.05,0-.05-.02.02-.06.05-.07c.03-.01.05,0,.05.03s-.02.06-.05.07"/>
          <path class="cls-3" d="M101.98,187.24s-.06.03-.07.02c-.01-.02,0-.05.02-.08.02-.03.05-.03.07-.02.01.02,0,.05-.02.08"/>
          <path class="cls-3" d="M101.91,187.16s-.04.05-.07.05-.03-.03-.02-.06c.01-.03.04-.05.07-.05.02,0,.03.03.02.06"/>
          <path class="cls-3" d="M101.72,187.28c.1-.05.18,0,.18.09,0,.1-.08.22-.18.26-.1.05-.18,0-.18-.09,0-.1.08-.22.18-.26"/>
          <path class="cls-22" d="M101.72,187.35c.06-.03.12,0,.12.06s-.05.14-.12.17c-.06.03-.12,0-.12-.06s.05-.14.12-.17"/>
          <path class="cls-28" d="M101.85,186.42c-.06-.06-.12-.11-.18-.17-.07-.06-.14-.12-.21-.18-.28-.23-.59-.45-.91-.64-.16-.1-.32-.19-.49-.28-.17-.09-.33-.18-.51-.25-.11-.05-.21-.09-.32-.13l3.87-1.9,2.79,1.59-4.02,1.98s-.01,0-.01-.01"/>
          <path class="cls-54" d="M105.32,183.44c-.18-.14-.48-.33-.79-.48-.48-.22-1.3-.79-2.59-.16-.58.28-1.88.92-1.88.92l.82.77,1.48.33s3.24-1.18,2.96-1.39"/>
          <path class="cls-24" d="M100.85,183.34c.38-.19.81-.4,1.08-.53,1.3-.63,2.11-.07,2.59.16.32.15.61.34.79.48.04.03,0,.09-.1.16-.67-.14-1.33-.23-2.02-.27-.78-.03-1.58-.06-2.35.01"/>
          <path class="cls-35" d="M97.61,186.61c.02.18.1.37.24.52.43.46,1.43,1.1,2.59.83.08-.02.17-.05.25-.08,0,0,.04-.02.43-.21.01-.14.07-.29.17-.43.11-.16.26-.29.41-.37.1-.05.19-.07.28-.07.11,0,.21.04.28.11.04.04.07.1.09.17.84-.41,1.62-.79,2.39-1.16,0-.14.07-.29.17-.44.11-.16.26-.29.41-.37.1-.05.19-.07.28-.07.11,0,.21.04.28.11.02.03.04.05.06.08.03-.03.04-.14.04-.29s-.02-.34-.06-.53c-.08-.37-.26-.76-.6-.97-.12-.03-.43.07-.79.24-.9.4-2.18,1.15-2.18,1.15,0,0-1.81.44-2.56.18-.03-.01-.06-.02-.09-.04-.02,0-.03-.02-.05-.03-.08-.07-.15-.18-.23-.27-.04-.05.06-.03,0-.05l-1.52,1.2c-.06.05-.12.15-.18.26-.05.11-.1.24-.11.38,0,.05,0,.09,0,.13"/>
          <path class="cls-58" d="M100.31,187.98c-.07-.14-.1-.28-.11-.43,0-.09,0-.2.05-.31l5.68-2.78c.04.18.05.35.05.48,0,.15-.02.25-.04.29-.01-.03-.04-.06-.06-.08-.07-.07-.17-.11-.28-.11-.09,0-.18.02-.28.07-.16.08-.3.21-.41.37-.1.14-.16.3-.17.44-.77.38-1.55.75-2.39,1.16-.02-.06-.04-.12-.09-.17-.07-.07-.17-.11-.28-.11-.09,0-.18.02-.28.07-.16.08-.3.21-.41.37-.1.14-.15.3-.17.43-.39.19-.43.21-.43.21-.09.03-.17.06-.25.08-.04.01-.09.02-.14.03"/>
          <polygon class="cls-70" points="101.05 186.82 100.88 186.9 100.85 186.88 101.01 186.8 101.05 186.82"/>
          <polygon class="cls-32" points="101.05 186.82 101.05 186.93 100.88 187.01 100.88 186.9 101.05 186.82"/>
          <polygon class="cls-36" points="100.88 186.9 100.88 187.02 100.84 187 100.84 186.88 100.88 186.9"/>
          <path class="cls-54" d="M100.78,186.74c-.45.26-.67.31-.97.36-.26.05-.61.08-1.14-.19-.36-.18-.64-.4-.79-.74-.09-.21,0-.31.03-.35.37-.47,1.15-1.02,1.15-1.02.16.06,2.79,1.16,2.78,1.18-.12.11-.83.64-1.05.76"/>
          <path class="cls-19" d="M100.9,185.9c-.2.26-.83.74-1.19.8-.36.06-.74-.01-1.04-.19-.28-.17-.39-.38-.26-.65.05-.11.13-.2.21-.29.2-.21.43-.41.73-.5l1.55.82Z"/>
          <path class="cls-26" d="M102.33,185.68v.81c0,.08.05.15.13.19.08.04.18.04.26,0l1.89-.95c.05-.16.15-.33.27-.48.13-.15.28-.27.44-.35.01,0,.02-.01.04-.02v-.47h.04v.49h-.01s-.03.02-.04.03c-.31.15-.59.48-.7.81h0s-1.91.96-1.91.96c-.05.02-.1.03-.15.03s-.1-.01-.15-.03c-.09-.05-.15-.13-.15-.22v-.81h.04Z"/>
          <polygon class="cls-26" points="103.78 186.17 103.82 186.15 103.82 185.12 103.78 185.12 103.78 186.17"/>
          <path class="cls-22" d="M102.35,184.83s-.86-.33-1.32-.56c-.65-.32-.98-.54-.98-.54l-1.04,1c-.15.14-.13.36.04.48.32.23.8.55.96.63.2.1.47.21.75.31.54.19,1.17-.06,1.33-.54l.26-.77Z"/>
          <path class="cls-3" d="M101.15,186.09c.38,0,.71-.21.81-.52l.23-.67c-.25-.1-.86-.34-1.23-.52-.45-.22-.74-.39-.89-.48l-.95.91s-.07.1-.06.16c0,.06.04.11.09.15.47.33.83.56.94.62.17.09.41.19.73.3.11.04.21.06.33.06"/>
          <path class="cls-22" d="M100.68,184.58l.31.15s.06,0,.07-.02l.04-.1s0-.04-.02-.05l-.13-.06.06-.12-.05-.02-.06.12-.13-.07s-.06,0-.07.02l-.04.1s0,.04.02.05"/>
          <g class="cls-43">
            <g class="cls-48">
              <path class="cls-38" d="M100.96,184.37c.37.18.98.43,1.23.52l-.23.67c-.05.15-.16.28-.3.37-.05-.77-.76-1.42-1.44-1.92-.05-.04-.11-.08-.17-.12l.02-.02c.15.09.44.26.89.48"/>
            </g>
          </g>
          <path class="cls-13" d="M99.12,184.81l.95-.91c.1.06.28.16.53.3l-1.55.76c0-.05.02-.1.06-.14"/>
          <path class="cls-22" d="M105.4,184.42l-2.85,1.45c-.14.07-.31-.03-.27-.17l.22-.82,2.41-1.23s.4.19.49.77"/>
          <path class="cls-55" d="M102.46,185.81s.03,0,.05-.01l2.79-1.42c-.08-.39-.3-.57-.4-.64l-2.32,1.19-.21.79s0,.05.02.06c.02.02.04.03.07.03"/>
          <path class="cls-55" d="M104.9,183.74c.05.03.15.11.23.23-.16-.03-.32-.07-.49-.1l.25-.13Z"/>
          <g class="cls-43">
            <g class="cls-67">
              <path class="cls-13" d="M104.65,183.87c.16.03.32.07.48.1.04.05.07.12.1.19-.26-.06-.53-.13-.79-.19l.21-.11Z"/>
            </g>
          </g>
          <g class="cls-43">
            <g class="cls-51">
              <path class="cls-13" d="M103.74,184.34c.4.08.8.15,1.2.22l-.39.2c-.39-.07-.78-.16-1.17-.24l.35-.18Z"/>
            </g>
          </g>
          <path class="cls-55" d="M103.74,184.34l.7-.36c.26.06.53.12.79.19.03.06.05.13.06.21l-.35.18c-.4-.07-.8-.14-1.2-.22"/>
          <rect class="cls-22" x="103.78" y="184.26" width=".04" height=".94"/>
          <polygon class="cls-26" points="103.65 185.42 103.65 185.55 103.42 185.67 103.42 185.53 103.65 185.42"/>
          <polygon class="cls-54" points="103.62 185.54 103.62 185.43 103.65 185.42 103.65 185.55 103.42 185.67 103.42 185.65 103.62 185.54"/>
          <polygon class="cls-54" points="103.62 185.43 103.62 185.54 103.65 185.55 103.65 185.42 103.62 185.43"/>
          <polygon class="cls-26" points="105.29 184.56 105.29 184.69 105.06 184.81 105.06 184.67 105.29 184.56"/>
          <polygon class="cls-54" points="105.27 184.68 105.27 184.57 105.29 184.56 105.29 184.69 105.06 184.81 105.06 184.79 105.27 184.68"/>
          <polygon class="cls-54" points="105.27 184.57 105.27 184.68 105.29 184.69 105.29 184.56 105.27 184.57"/>
          <path class="cls-11" d="M105.75,184.63c.01.06.03.12.06.18.02.04.04.07.07.1.03.02.07.03.1.03,0-.15-.02-.34-.06-.53-.02,0-.04.01-.06.02-.04.02-.08.04-.1.07,0,0,0,.01,0,.02-.01.03,0,.07,0,.11"/>
          <path class="cls-58" d="M97.69,186.9c.1.09.21.18.34.25.02.01.03.02.05.03.05.03.12.07.19.08.54.33,1.3.58,2.16.39.12-.03.27-.1.43-.19.09-.05.21,0,.21.1v.23c-.23.13-.38.21-.38.21-.08.03-.16.07-.25.09-1.18.16-2.14-.29-2.63-.74-.12-.11-.2-.21-.23-.35-.01-.06-.02-.19-.02-.25,0,0,.09.11.12.15"/>
          <path class="cls-54" d="M97.61,186.86s.04.05.08.08c.5.45,1.54,1.02,2.78.78.11-.02.37-.16.55-.25-.04-.03-.11-.04-.17-.01-.17.09-.32.16-.43.19-1.15.26-2.14-.29-2.63-.74-.1-.09-.16-.13-.18-.25-.04.07-.1.09,0,.2"/>
          <polygon class="cls-54" points="102.05 186.16 101.53 186.18 101.76 186.03 102 186.01 102.05 186.16"/>
          <path class="cls-26" d="M102.39,186.24s.01,0,.01,0c0,0,.02,0,.02,0,0,0,.01,0,.02-.02l-.03.02s-.01.01-.02.02"/>
          <polygon class="cls-26" points="102.41 186.23 102.44 186.21 102.47 186.17 102.44 186.18 102.41 186.23"/>
          <path class="cls-26" d="M102.35,186.03l.03-.02s-.25-.04-.34-.05c-.02,0-.06,0-.07,0-.03,0-.04.04-.04.04l.42.03Z"/>
          <g class="cls-9">
            <path class="cls-26" d="M102.44,186.18l.03-.02s0-.06-.02-.1l-.03.02s.03.07.02.1"/>
            <path class="cls-26" d="M102.42,186.08l.03-.02s-.04-.05-.06-.06h-.03s.05.05.06.07"/>
          </g>
          <path class="cls-54" d="M102.02,185.97c-.08,0-.09,0-.09.05v.04s.04.1.09.13c0,0,.21.03.31.04.04,0,.07.01.08-.01l.02-.04s-.02-.13-.08-.16c0,0-.25-.05-.34-.05"/>
          <g class="cls-44">
            <g class="cls-62">
              <path class="cls-38" d="M99.12,184.81l.95-.91c-.16.34-.22.7-.2,1.06.01.32.33.55.65.73.55.32,1.15.22,1.18.23-.15.11-.34.17-.55.17-.11,0-.22-.02-.33-.06-.32-.11-.56-.21-.73-.3-.12-.06-.47-.29-.94-.62-.05-.04-.09-.09-.09-.15,0-.06.02-.12.06-.16"/>
            </g>
          </g>
          <g class="cls-44">
            <g class="cls-6">
              <path class="cls-38" d="M99.12,184.81l.95-.91s.11.07.19.11c-.28.22-.5.47-.62.78-.09.26.01.53.29.7.46.28.99.6,1.56.44.15-.05.28-.13.4-.22-.15.23-.43.38-.75.38-.11,0-.22-.02-.33-.06-.32-.11-.56-.21-.73-.3-.12-.06-.47-.29-.94-.62-.05-.04-.09-.09-.09-.15,0-.06.02-.12.06-.16"/>
            </g>
          </g>
          <path class="cls-21" d="M99.53,187.38c0-.07-.03-.14.4-.19,0,0,0,0,.01,0v.09s.69-.06.69-.06c.01.08,0,.16-.04.2-.02.03-.06.05-.1.06-.25.1-.56.12-.82.1-.04,0-.08,0-.11-.03-.06-.04-.05-.11-.04-.17"/>
          <path class="cls-18" d="M99.55,187.38c0,.06,0,.12.05.16.03.02.07.02.11.03.26.02.57,0,.81-.1.04-.01.07-.03.1-.06.07-.08.05-.33-.09-.35-.08-.01-.18.04-.25.07-.1.03-.21.05-.32.06-.43.05-.4.12-.4.18"/>
          <path class="cls-12" d="M100.3,187.12c.07-.02.15-.07.22-.05.15.02.16.26.09.35-.02.03-.06.04-.1.06-.05.02-.1.04-.16.05.02-.05.03-.1.02-.15-.01-.08-.03-.18-.08-.25"/>
          <g class="cls-64">
            <g class="cls-14">
              <path class="cls-18" d="M99.55,187.38s0-.08.09-.12c.05.08.13.14.23.19.25.12.52,0,.77-.07,0,.01-.01.02-.02.03-.02.03-.06.04-.1.06-.24.1-.55.12-.81.1-.04,0-.08,0-.11-.03-.06-.04-.05-.1-.05-.16"/>
            </g>
          </g>
          <path class="cls-18" d="M97.61,186.61s.02.02.02.03c.03.03.07.07.12.06.03,0,.06-.03.08-.05.03-.03.06-.08.07-.12.02-.09-.04-.17-.1-.25-.03-.04-.07-.12-.09-.2-.05.11-.1.24-.11.38,0,.05,0,.09,0,.13"/>
          <path class="cls-17" d="M99.08,187.55c-.7-.17-.95-.44-.95-.44,0,0-.05-.23.1-.37.36.33.89.44.89.45,0,.02-.08.23-.04.36"/>
          <path class="cls-47" d="M78.47,181.28c0,3.72-3.01,6.73-6.73,6.73s-6.73-3.01-6.73-6.73,3.01-6.73,6.73-6.73,6.73,3.01,6.73,6.73"/>
          <polygon class="cls-33" points="78.51 182.73 78.51 176.18 79.17 176.18 79.17 174.84 73.05 174.84 73.05 176.18 73.72 176.18 73.72 182.73 72.28 182.73 72.28 183.95 79.94 183.95 79.94 182.73 78.51 182.73"/>
          <rect class="cls-68" x="74.55" y="176.49" width="1.22" height="1.05"/>
          <rect class="cls-68" x="76.58" y="176.49" width="1.22" height="1.05"/>
          <rect class="cls-68" x="74.55" y="177.91" width="1.22" height="1.05"/>
          <rect class="cls-68" x="76.58" y="177.91" width="1.22" height="1.05"/>
          <rect class="cls-68" x="74.55" y="179.37" width="1.22" height="1.05"/>
          <rect class="cls-68" x="76.58" y="179.37" width="1.22" height="1.05"/>
          <rect class="cls-68" x="74.55" y="180.8" width="1.22" height="1.05"/>
          <rect class="cls-68" x="76.58" y="180.8" width="1.22" height="1.05"/>
          <path class="cls-20" d="M73.21,178.74c0,.77-.62,1.39-1.39,1.39s-1.39-.62-1.39-1.39.62-1.39,1.39-1.39,1.39.62,1.39,1.39"/>
          <path class="cls-49" d="M69.58,185.2h4.51l.05-3.13c.03-.8-.6-1.45-1.4-1.45h-1.8c-.8,0-1.43.65-1.4,1.45l.05,3.13Z"/>
        </g>
      </g>
    </g>
  </g>
</svg>