<?xml version="1.0" encoding="UTF-8"?>
<svg id="Capa_2" xmlns="http://www.w3.org/2000/svg" viewBox="0 0 204.34 207.22">
  <defs>
    <style>
      .cls-1 {
        fill: #f9cf16;
      }

      .cls-2 {
        fill: #cd142a;
      }

      .cls-3 {
        fill: #646365;
      }

      .cls-4 {
        fill: #fff;
      }

      .cls-5 {
        fill: #a5a5a8;
      }

      .cls-6 {
        fill: #ecebeb;
      }

      .cls-7 {
        fill: #625f60;
      }

      .cls-8 {
        fill: #d00e4d;
      }

      .cls-9 {
        fill: #d8d8d7;
      }

      .cls-10 {
        fill: #d00e4c;
      }

      .cls-11 {
        fill: #d22e1f;
      }

      .cls-12 {
        fill: #636061;
      }

      .cls-13 {
        fill: #9d9a9c;
      }

      .cls-14 {
        fill: #4f4f4f;
      }

      .cls-15 {
        fill: #d20f48;
      }

      .cls-16 {
        fill: #5a5a5b;
      }

      .cls-17 {
        fill: #1d458c;
      }

      .cls-18 {
        fill: #e1222c;
      }

      .cls-19 {
        fill: #828384;
      }

      .cls-20 {
        fill: #1b4180;
      }
    </style>
  </defs>
  <g id="Capa_1-2" data-name="Capa_1">
    <g>
      <g>
        <path class="cls-7" d="M133.86,196.75h1.14v8.37h-1.14v-8.37Z"/>
        <path class="cls-7" d="M139.39,200.57c-.25.09-.46.21-.62.38s-.29.37-.38.63-.13.51-.13.76.04.5.13.76.21.46.38.63.37.29.62.38.5.13.75.13h4.61v.93h-4.61c-.51,0-.98-.13-1.41-.38-.43-.25-.77-.59-1.03-1.03-.25-.43-.38-.9-.38-1.41s.12-.98.38-1.41c.25-.43.6-.78,1.03-1.03.43-.25.9-.38,1.41-.38h4.61v.93h-4.61c-.25,0-.5.04-.75.13Z"/>
        <path class="cls-7" d="M150.88,199.49c.5-.02.94.02,1.32.14s.68.28.92.49.42.43.56.66.23.45.29.66.1.38.11.53.02.21.02.19v.33c0,.24-.06.52-.18.83s-.3.61-.55.89-.57.51-.97.69-.85.25-1.38.22h-1.05c-.52.03-.98-.05-1.38-.22s-.72-.4-.97-.69-.43-.58-.55-.89-.18-.59-.18-.83v-.33s0-.04.02-.19.05-.33.11-.53.16-.42.29-.66.32-.46.56-.66.55-.37.92-.49.81-.16,1.32-.14h.76ZM151.24,204.18c.7,0,1.19-.17,1.47-.51s.45-.7.49-1.09v-.16s.01-.26.01-.26v-.18c-.05-.37-.22-.72-.5-1.06s-.77-.51-1.48-.51h-1.49c-.7,0-1.2.17-1.48.51s-.44.7-.48,1.06l-.02.18v.25l.02.18c.04.39.2.75.49,1.09s.78.51,1.47.51h1.49Z"/>
        <path class="cls-7" d="M163.21,200.83c.25.44.38.92.38,1.44v2.87h-.94v-2.87c0-.26-.04-.52-.13-.77s-.21-.47-.38-.64c-.16-.17-.36-.3-.61-.39s-.49-.13-.74-.13h-1.78c-.48,0-1.1,0-1.86,0,0-.22,0-.01,0,.62s0,1.06,0,1.25v2.94h-.94v-5.74h4.58c.5,0,.97.13,1.4.38.43.26.77.61,1.03,1.05Z"/>
        <path class="cls-7" d="M169.73,199.49c.5-.02.94.02,1.32.14s.68.28.92.49.42.43.56.66.23.45.29.66.1.38.11.53.02.21.02.19v.33c0,.24-.06.52-.18.83s-.3.61-.55.89-.57.51-.97.69-.85.25-1.38.22h-1.05c-.52.03-.98-.05-1.38-.22s-.72-.4-.97-.69-.43-.58-.55-.89-.18-.59-.18-.83v-.33s0-.04.02-.19.05-.33.11-.53.16-.42.29-.66.32-.46.56-.66.55-.37.92-.49.81-.16,1.32-.14h.76ZM170.1,204.18c.7,0,1.19-.17,1.47-.51s.45-.7.49-1.09v-.16s.01-.26.01-.26v-.18c-.05-.37-.22-.72-.5-1.06s-.77-.51-1.48-.51h-1.49c-.7,0-1.2.17-1.48.51s-.44.7-.48,1.06l-.02.18v.25l.02.18c.04.39.2.75.49,1.09s.78.51,1.47.51h1.49Z"/>
        <path class="cls-7" d="M185.15,200.81c.23.4.35.9.35,1.49,0-.09,0-.07,0,.06h0v.66c0,.55-.11.98-.32,1.28s-.46.5-.76.61-.61.16-.93.17-.57.02-.73.02h-3.01c-.47,0-.87-.17-1.2-.52s-.5-.76-.5-1.24.17-.9.5-1.25c.33-.35.73-.52,1.2-.52h4.61c0-.07-.02-.13-.04-.19s-.04-.11-.05-.13c-.09-.18-.21-.34-.38-.48s-.34-.26-.54-.34c-.2-.08-.41-.12-.62-.12h-4.44v-.9c0-.08,0-.1,0-.08h4.44c.51,0,.99.13,1.43.4.21.12.39.27.55.45s.3.38.44.62ZM184.49,203.15c0-.08,0-.28-.01-.59h-4.83c-.17,0-.32.08-.45.23-.12.16-.18.34-.18.56s.06.4.18.56c.12.15.27.23.45.23h3.13c.36,0,.64,0,.85-.02s.38-.07.5-.16c.13-.09.22-.21.27-.34s.08-.29.09-.47Z"/>
        <path class="cls-7" d="M188.58,207.19h-.91c0,.05,0,0,0-.16v-5.33c0-.35.13-.69.4-1.02s.59-.6.98-.81.75-.31,1.08-.31h1.71c.53-.02.99.05,1.39.22s.72.39.97.67.44.57.56.88.18.58.18.82v.32s0,.04-.02.18-.05.32-.11.52-.16.42-.3.65-.33.45-.57.65-.55.36-.92.48-.82.16-1.32.14h-3.11v2.1ZM188.58,204.18h3.47c.57,0,1-.12,1.29-.35s.48-.47.57-.73.13-.46.13-.62v-.28c0-.19-.04-.42-.13-.68s-.28-.5-.57-.73-.72-.33-1.27-.33h-1.88c-.24,0-.49.07-.74.22s-.46.34-.62.56-.24.45-.24.66v2.26Z"/>
        <path class="cls-7" d="M197.99,207.19h-.91c0,.05,0,0,0-.16v-5.33c0-.35.13-.69.4-1.02s.59-.6.98-.81.75-.31,1.08-.31h1.71c.53-.02.99.05,1.39.22s.72.39.97.67.44.57.56.88.18.58.18.82v.32s0,.04-.02.18-.05.32-.11.52-.16.42-.3.65-.33.45-.57.65-.55.36-.92.48-.82.16-1.32.14h-3.11v2.1ZM197.99,204.18h3.47c.57,0,1-.12,1.29-.35s.48-.47.57-.73.13-.46.13-.62v-.28c0-.19-.04-.42-.13-.68s-.28-.5-.57-.73-.72-.33-1.27-.33h-1.88c-.24,0-.49.07-.74.22s-.46.34-.62.56-.24.45-.24.66v2.26Z"/>
      </g>
      <g>
        <path class="cls-10" d="M40.5,22.99c.14.02.36.08.68.19.31.11.68.32,1.09.63.41.31.77.78,1.08,1.4.31.62.46,1.41.46,2.36s-.18,1.67-.54,2.27c-.36.6-.79,1.06-1.29,1.35-.5.29-.97.47-1.42.53h-7.62v-8.73h7.57ZM40.44,30.55c.23-.04.52-.14.84-.3.32-.16.63-.46.92-.9.29-.43.43-1.03.43-1.78,0-.88-.15-1.57-.45-2.07-.3-.5-.62-.84-.95-1.01-.33-.18-.61-.28-.84-.32h-6.28v6.38h6.33Z"/>
        <rect class="cls-10" x="44.63" y="23" width="1.19" height="8.7"/>
        <path class="cls-10" d="M52.3,25.38c.77-.01,1.46-.13,2.06-.34.61-.22,1.08-.43,1.4-.65.33-.22.55-.38.66-.49l.96-.91v8.75h-1.14v-6.32c-.5.3-1.08.55-1.75.76-.66.21-1.39.32-2.18.33-.83,0-1.61-.1-2.33-.32-.72-.22-1.36-.49-1.92-.82v6.36h-1.14v-8.75l1,.87c.14.13.39.3.75.53.36.23.86.45,1.51.68.64.23,1.35.33,2.11.32"/>
        <rect class="cls-8" x="59.08" y="26.69" width="2.29" height="1.16"/>
        <g>
          <path class="cls-19" d="M68.2,25.35c.77-.01,1.47-.13,2.08-.35.61-.22,1.08-.44,1.41-.66s.55-.38.66-.49l.97-.92v8.81h-1.15v-6.36c-.51.3-1.09.56-1.76.77-.67.21-1.4.32-2.2.33-.84,0-1.62-.1-2.34-.32s-1.37-.5-1.93-.83v6.4h-1.15v-8.81l1.01.87c.14.13.4.3.76.53.36.23.87.46,1.51.68.65.23,1.36.33,2.12.32Z"/>
          <path class="cls-19" d="M78.39,25.82c.53-.02.99.02,1.38.15.39.12.71.29.96.51.25.22.45.45.59.69s.24.48.31.69c.06.21.1.4.12.55.02.16.02.22.02.2v.35c0,.25-.06.54-.19.87-.12.33-.32.64-.58.93-.26.3-.6.54-1.01.72s-.89.26-1.44.23h-1.1c-.55.03-1.03-.05-1.44-.23s-.75-.42-1.01-.72c-.26-.3-.46-.61-.58-.93-.12-.32-.19-.61-.19-.87v-.35s0-.04.02-.2c.02-.16.06-.34.12-.55.06-.21.17-.44.31-.69.14-.25.34-.48.59-.69.25-.22.57-.39.96-.51.39-.12.85-.17,1.38-.15h.8ZM78.77,30.73c.73,0,1.25-.18,1.54-.53.3-.35.47-.73.51-1.14v-.17s.01-.28.01-.28v-.18c-.06-.38-.23-.75-.52-1.11s-.81-.54-1.54-.54h-1.56c-.74,0-1.25.18-1.54.54s-.46.73-.5,1.11l-.02.18v.26l.02.18c.04.4.21.78.51,1.14.3.35.81.53,1.54.53h1.56Z"/>
          <path class="cls-19" d="M89.88,27.22c.26.46.39.96.39,1.51v3h-.99v-3c0-.27-.05-.54-.14-.81s-.22-.49-.4-.67c-.17-.18-.38-.31-.64-.41-.26-.09-.51-.14-.77-.14h-1.86c-.5,0-1.15,0-1.95,0,0-.23,0-.02,0,.65,0,.67,0,1.1,0,1.31v3.07h-.99v-6.01h4.79c.52,0,1.01.13,1.47.4.45.27.81.64,1.07,1.1Z"/>
          <path class="cls-19" d="M92.35,22.94v1.04h-1.04v-1.04h1.04ZM92.35,25.36v6.35h-1.04v-6.35h1.04Z"/>
          <path class="cls-19" d="M98.37,30.73v.96h-1.81c-.52,0-1.01-.13-1.46-.39-.45-.26-.8-.61-1.07-1.05-.26-.44-.4-.92-.41-1.44v-5.25h.97s0,0,0,.07v2.16h2.27s0,0,0,.07v.89s-.03,0-.09,0h-2.18v2.08c0,.42.11.78.33,1.06s.45.5.69.64c.12.08.3.13.55.15s.44.03.59.02h1.61Z"/>
          <path class="cls-19" d="M103.55,25.82c.53-.02.99.02,1.38.15.39.12.71.29.96.51.25.22.44.45.58.69s.24.48.31.69c.06.21.1.4.12.55.02.16.02.22.02.2v.35c0,.25-.06.54-.19.87-.12.33-.32.64-.58.93-.26.3-.6.54-1.01.72s-.89.26-1.44.23h-1.1c-.55.03-1.03-.05-1.44-.23s-.75-.42-1.01-.72c-.26-.3-.46-.61-.58-.93-.12-.32-.19-.61-.19-.87v-.35s0-.04.03-.2c.02-.16.06-.34.12-.55.06-.21.17-.44.31-.69.14-.25.34-.48.59-.69.25-.22.57-.39.96-.51.39-.12.85-.17,1.38-.15h.8ZM103.93,30.73c.73,0,1.25-.18,1.54-.53.3-.35.47-.73.51-1.14v-.17s.01-.28.01-.28v-.18c-.06-.38-.23-.75-.52-1.11s-.81-.54-1.54-.54h-1.56c-.74,0-1.25.18-1.54.54s-.46.73-.5,1.11l-.02.18v.26l.02.18c.04.4.21.78.51,1.14.3.35.81.53,1.54.53h1.56Z"/>
          <path class="cls-19" d="M114.24,26.71h-3.35c-.17,0-.36,0-.57,0-.21,0-.41.03-.58.08-.18.05-.34.15-.48.28-.13.13-.23.29-.29.47-.05.18-.09.34-.09.47s0,.37,0,.71v2.92c0,.05-.02.08-.07.08h-.83s-.07-.03-.07-.08v-3.01c0-.12,0-.34,0-.64,0-.3.06-.61.18-.92.12-.31.33-.58.63-.82.19-.15.4-.26.62-.34.22-.08.43-.13.64-.16.2-.03.39-.04.56-.04h3.7v.99Z"/>
          <path class="cls-19" d="M121.84,26.16c.29.23.48.49.57.77s.14.53.15.74c0,1.05-.58,1.6-1.76,1.66h-4.67s0,.25,0,.25c0,.27.03.49.07.64s.13.27.25.34c.11.07.27.12.46.15.19.02.47.04.82.04h4.36c.13,0,.19.06.19.18v.59c0,.13-.06.19-.19.19h-4.51c-.63,0-1.12-.07-1.48-.21s-.62-.36-.77-.67-.23-.72-.23-1.24v-1.5c0-.35.13-.7.4-1.05.27-.35.61-.65,1.02-.88.42-.23.84-.35,1.28-.35h2.84c.52,0,.92.12,1.21.35ZM121.16,28.3c.09-.03.17-.09.26-.19.06-.07.11-.15.13-.24s.04-.21.05-.37c0-.07-.02-.16-.06-.27-.04-.11-.11-.21-.22-.3s-.26-.14-.45-.14h-3.1c-.22,0-.46.07-.72.21s-.47.33-.65.56c-.18.24-.27.5-.27.79h4.61c.19,0,.33-.02.42-.05Z"/>
          <path class="cls-19" d="M127.72,25.82c.53-.02.99.02,1.38.15.39.12.71.29.96.51.25.22.44.45.58.69.14.25.24.48.31.69.06.21.1.4.12.55.02.16.02.22.02.2v.35c0,.25-.06.54-.19.87-.12.33-.32.64-.58.93-.26.3-.6.54-1.01.72s-.89.26-1.44.23h-1.1c-.55.03-1.03-.05-1.44-.23-.41-.18-.75-.42-1.01-.72-.26-.3-.45-.61-.58-.93-.12-.32-.19-.61-.19-.87v-.35s0-.04.02-.2c.02-.16.06-.34.12-.55.06-.21.17-.44.31-.69.14-.25.34-.48.59-.69.25-.22.57-.39.96-.51.39-.12.85-.17,1.38-.15h.8ZM128.1,30.73c.73,0,1.25-.18,1.54-.53s.47-.73.51-1.14v-.17s.01-.28.01-.28v-.18c-.06-.38-.23-.75-.52-1.11-.29-.36-.81-.54-1.54-.54h-1.56c-.74,0-1.25.18-1.54.54-.29.36-.46.73-.5,1.11l-.02.18v.26l.02.18c.04.4.21.78.51,1.14.3.35.81.53,1.54.53h1.56Z"/>
          <path class="cls-19" d="M139.63,28.19h-4.88v3.5h-1.2v-8.73h7.99c.47,0,.89.12,1.27.35.23.15.42.29.57.44.14.15.27.34.39.57.1.2.17.4.21.6s.06.36.06.5c0,.29,0,.5,0,.62,0,.12-.02.27-.06.44-.04.17-.09.33-.17.48-.11.2-.23.36-.35.48s-.26.25-.41.36c-.2.15-.44.25-.72.3-.28.05-.54.08-.8.08h-1.89ZM134.76,27h6.83c.22,0,.41-.03.58-.09.17-.06.29-.14.37-.24.1-.12.17-.25.21-.39.04-.14.06-.25.06-.32,0-.07,0-.25,0-.54,0-.39-.12-.7-.36-.93-.24-.24-.54-.36-.89-.36h-6.81v2.86Z"/>
          <path class="cls-19" d="M150.95,26.71h-3.35c-.17,0-.36,0-.57,0s-.41.03-.58.08c-.18.05-.34.15-.48.28-.13.13-.23.29-.29.47-.06.18-.09.34-.09.47s0,.37,0,.71v2.92c0,.05-.02.08-.07.08h-.83s-.07-.03-.07-.08v-3.01c0-.12,0-.34,0-.64,0-.3.06-.61.18-.92.12-.31.33-.58.63-.82.19-.15.4-.26.62-.34.22-.08.43-.13.64-.16.2-.03.39-.04.56-.04h3.7v.99Z"/>
          <path class="cls-19" d="M158.56,26.16c.29.23.48.49.57.77s.14.53.15.74c0,1.05-.58,1.6-1.76,1.66h-4.67s0,.25,0,.25c0,.27.02.49.07.64.05.16.13.27.25.34.11.07.27.12.46.15.19.02.47.04.82.04h4.36c.13,0,.19.06.19.18v.59c0,.13-.06.19-.19.19h-4.51c-.63,0-1.12-.07-1.48-.21s-.62-.36-.77-.67-.23-.72-.23-1.24v-1.5c0-.35.13-.7.4-1.05s.61-.65,1.02-.88c.42-.23.84-.35,1.28-.35h2.84c.52,0,.92.12,1.21.35ZM157.87,28.3c.09-.03.17-.09.26-.19.06-.07.11-.15.13-.24s.04-.21.05-.37c0-.07-.02-.16-.06-.27-.04-.11-.11-.21-.22-.3-.11-.09-.26-.14-.45-.14h-3.1c-.22,0-.46.07-.72.21s-.48.33-.65.56c-.18.24-.27.5-.27.79h4.61c.19,0,.33-.02.42-.05Z"/>
          <path class="cls-19" d="M171.99,22.92v1.19h-6.39c-.25,0-.53.08-.84.23s-.63.39-.93.71c-.22.23-.41.53-.57.9-.16.37-.25.83-.25,1.37,0,.36.06.72.17,1.06s.28.67.49.97c.19.27.44.53.75.78.31.26.7.39,1.17.4h6.39v1.19h-6.39c-.71,0-1.37-.2-1.97-.59-.6-.4-1.08-.93-1.43-1.61-.35-.67-.52-1.41-.52-2.21s.17-1.53.52-2.21c.35-.67.83-1.21,1.43-1.6.6-.4,1.26-.59,1.97-.59h6.39Z"/>
          <path class="cls-19" d="M178.26,30.59c.26-.09.47-.23.64-.41.17-.17.3-.4.39-.67.09-.27.14-.54.14-.81v-3.03h.99v3.03c0,.55-.13,1.05-.39,1.52-.27.46-.63.83-1.08,1.1-.45.27-.94.41-1.47.41h-1.88c-.54,0-1.03-.13-1.48-.41-.45-.27-.81-.64-1.07-1.1-.27-.47-.4-.97-.4-1.52v-3.03h.99s0,0,0,.08v2.95c0,.27.05.54.14.81s.23.49.4.67c.17.18.39.32.65.41.26.09.52.14.78.14h1.88c.26,0,.52-.05.78-.14Z"/>
          <path class="cls-19" d="M187.58,26.71h-3.35c-.17,0-.36,0-.57,0-.21,0-.41.03-.59.08s-.34.15-.48.28c-.13.13-.23.29-.28.47-.06.18-.09.34-.09.47,0,.13,0,.37,0,.71v2.92c0,.05-.02.08-.07.08h-.83s-.07-.03-.07-.08v-3.01c0-.12,0-.34,0-.64s.06-.61.18-.92c.12-.31.33-.58.63-.82.19-.15.4-.26.62-.34.22-.08.44-.13.64-.16.2-.03.39-.04.56-.04h3.7v.99Z"/>
          <path class="cls-19" d="M194.62,28.34c.4.02.74.15,1.04.39.3.24.45.7.45,1.38,0,.36-.09.67-.27.91s-.41.42-.68.54c-.27.12-.54.18-.8.18h-6v-.98s5.97,0,5.97,0c.21,0,.4-.05.57-.14s.25-.31.25-.65c0-.21-.06-.37-.18-.46-.12-.09-.26-.15-.41-.17-.16-.02-.25-.02-.29-.02h-4.35c-.23,0-.48-.07-.74-.19-.26-.12-.48-.32-.67-.6-.19-.28-.28-.63-.28-1.07,0-.38.1-.7.3-.95.2-.25.43-.44.71-.55.27-.12.54-.18.79-.2h5.42v.98h-5.37c-.22,0-.43.05-.62.14-.19.1-.28.33-.28.71,0,.3.09.5.26.59.18.09.35.14.52.15h4.66Z"/>
          <path class="cls-19" d="M203.63,26.16c.29.23.48.49.57.77.09.28.14.53.15.74,0,1.05-.58,1.6-1.76,1.66h-4.67s0,.25,0,.25c0,.27.02.49.07.64s.13.27.25.34c.11.07.27.12.46.15s.47.04.82.04h4.36c.13,0,.19.06.19.18v.59c0,.13-.06.19-.19.19h-4.51c-.63,0-1.12-.07-1.48-.21-.36-.14-.62-.36-.77-.67s-.23-.72-.23-1.24v-1.5c0-.35.13-.7.4-1.05s.61-.65,1.02-.88c.42-.23.84-.35,1.28-.35h2.84c.52,0,.92.12,1.21.35ZM202.94,28.3c.09-.03.17-.09.26-.19.06-.07.1-.15.13-.24.03-.09.04-.21.05-.37,0-.07-.02-.16-.06-.27s-.11-.21-.22-.3-.26-.14-.45-.14h-3.1c-.22,0-.46.07-.72.21-.26.14-.48.33-.65.56-.18.24-.27.5-.27.79h4.61c.19,0,.33-.02.42-.05Z"/>
        </g>
      </g>
      <g>
        <path class="cls-4" d="M14.84.27L.55,4.78l14.33,11.12,14.04-10.84L14.84.27ZM20.37,10.39l-3.12,2.39-2.66-1.71,2.04-1.67c.37-.33.47-.56.47-.56v-3.18c.03-.54-.73-.85-.73-.85-.94-.45-2.38-.43-2.38-.43-1.33-.02-3.8.92-3.8.92v2.95l-3.69-2.37c2.35-.95,3.42-1.2,3.42-1.2,2.33-.65,3.96-.69,3.96-.69,2.61-.14,4.69.58,4.69.58,2.08.57,2.94,1.3,2.94,1.3,1.72,1.29,1.33,2.61,1.33,2.61-.27.24-2.47,1.91-2.47,1.91"/>
        <polygon class="cls-10" points=".02 8.24 .02 4.69 14.92 16.03 29.45 4.96 29.45 8.22 14.87 21.46 .02 8.24"/>
        <path class="cls-10" d="M6.42,5.91l-2.39-1.48s3.15-1.23,5.77-1.73c2.62-.5,3.58-.53,5.07-.47s4.37.63,6.26,1.55c1.89.93,2.29,1.89,2.4,2.42.12.53.09,1.75-.34,2.13l-.42.38s.31-.69-.13-1.56c-.44-.87-1.39-1.7-3.12-2.29-1.73-.59-3.27-.92-5.14-.89-1.86.03-3.56.44-4.87.82-1.3.38-3.09,1.11-3.09,1.11"/>
        <path class="cls-10" d="M10.2,5.37v2.94l4.29,2.83s.94-.73,1.6-1.28c.66-.54.94-.87,1.01-1.03v-3.24s.08.51-1.06,1.15c-1.13.64-1.49.85-1.49.85l-4.35-2.21Z"/>
        <path class="cls-10" d="M14.88,16.23L0,4.68,14.85,0h.04s14.57,4.97,14.57,4.97l-14.57,11.26ZM.55,4.78l14.34,11.12,14.04-10.84L14.84.27.55,4.78Z"/>
        <path class="cls-10" d="M17.27,13.09l-.08-.05L3.75,4.39l.23-.09s3.19-1.24,5.8-1.74c1.92-.37,3-.49,4.14-.49.27,0,.57,0,.95.02,1.62.06,4.5.68,6.31,1.57,1.43.7,2.26,1.54,2.47,2.51.12.56.1,1.82-.38,2.25l-.43.38-5.59,4.29ZM4.32,4.45l12.94,8.32,5.44-4.17.42-.38c.38-.34.41-1.51.3-2-.2-.89-.98-1.67-2.33-2.33-1.78-.87-4.61-1.48-6.2-1.54-.38-.01-.68-.02-.95-.02-.97,0-1.94.08-4.1.49-2.17.41-4.73,1.34-5.51,1.63"/>
        <path class="cls-10" d="M14.47,7.64l-4.29-2.19.04-.07-.03-.08c.1-.04,2.43-.93,3.82-.93h.03c1.45.01,2.38.36,2.77.69.36.3.41.63.16,1.02-.18.28-.71.67-1.43,1.05-.71.38-1.02.5-1.03.51h-.03ZM10.32,5.39l4.15,2.12c.09-.04.4-.18.99-.49.7-.37,1.21-.74,1.38-1,.21-.33.17-.6-.13-.85-.37-.31-1.26-.65-2.69-.66h-.03c-1.21,0-3.21.72-3.68.89"/>
        <path class="cls-10" d="M40.5,6.74c.14.02.36.08.68.19.31.11.68.32,1.09.63.41.31.77.78,1.08,1.4.31.62.46,1.41.46,2.36s-.18,1.67-.54,2.27c-.36.61-.79,1.06-1.29,1.35-.5.29-.97.47-1.42.53h-7.62V6.73h7.57ZM40.44,14.29c.23-.04.52-.14.84-.3.32-.16.63-.46.92-.9.29-.43.43-1.03.43-1.78,0-.88-.15-1.57-.45-2.07-.3-.5-.62-.84-.95-1.01-.33-.18-.61-.28-.84-.32h-6.28v6.38h6.33Z"/>
        <rect class="cls-10" x="44.63" y="6.75" width="1.19" height="8.7"/>
        <path class="cls-10" d="M52.3,9.12c.77-.01,1.46-.13,2.06-.34.61-.22,1.08-.43,1.4-.65.33-.22.55-.38.66-.49l.96-.91v8.75h-1.14v-6.32c-.5.3-1.08.55-1.75.76-.66.21-1.39.32-2.18.33-.83,0-1.61-.1-2.33-.32-.72-.22-1.36-.49-1.92-.82v6.36h-1.14V6.73l1,.86c.14.13.39.3.75.53.36.23.86.45,1.51.68.64.23,1.35.33,2.11.32"/>
        <rect class="cls-8" x="59.08" y="10.44" width="2.29" height="1.16"/>
        <g>
          <path class="cls-19" d="M68.2,9.1c.77-.01,1.47-.13,2.08-.35.61-.22,1.08-.44,1.41-.66.33-.22.55-.38.66-.49l.97-.92v8.81h-1.15v-6.36c-.51.3-1.09.56-1.76.77-.67.21-1.4.32-2.2.33-.84,0-1.62-.1-2.34-.32s-1.37-.5-1.93-.83v6.4h-1.15V6.69l1.01.87c.14.13.4.3.76.53.36.23.87.46,1.51.68s1.36.33,2.12.32Z"/>
          <path class="cls-19" d="M78.39,9.57c.53-.02.99.02,1.38.15.39.12.71.29.96.51.25.22.44.45.58.69s.24.48.31.69c.06.21.1.4.12.55.02.16.03.22.03.2v.35c0,.25-.06.54-.19.87-.12.33-.32.64-.58.93-.26.3-.6.54-1.01.72s-.89.26-1.44.23h-1.1c-.55.03-1.03-.05-1.44-.23s-.75-.42-1.01-.72c-.26-.3-.45-.61-.58-.93-.12-.32-.19-.61-.19-.87v-.35s0-.04.03-.2c.02-.16.06-.34.12-.55.06-.21.17-.44.31-.69.14-.25.34-.48.59-.69.25-.22.57-.39.96-.51.39-.12.85-.17,1.38-.15h.8ZM78.77,14.48c.73,0,1.25-.18,1.54-.53.3-.35.47-.73.51-1.14v-.17s.01-.28.01-.28v-.18c-.06-.38-.23-.75-.52-1.11s-.81-.54-1.54-.54h-1.56c-.74,0-1.25.18-1.54.54s-.46.73-.5,1.11l-.02.18v.26l.02.18c.04.4.21.78.51,1.14.3.35.81.53,1.54.53h1.56Z"/>
          <path class="cls-19" d="M89.88,10.97c.26.46.39.96.39,1.51v3h-.99v-3c0-.27-.05-.54-.14-.81s-.22-.49-.4-.67c-.17-.18-.38-.31-.64-.41-.26-.09-.51-.14-.77-.14h-1.86c-.5,0-1.15,0-1.95,0,0-.23,0-.02,0,.65s0,1.1,0,1.31v3.07h-.99v-6.01h4.79c.52,0,1.01.13,1.47.4.45.27.81.64,1.07,1.1Z"/>
          <path class="cls-19" d="M92.35,6.69v1.04h-1.04v-1.04h1.04ZM92.35,9.11v6.35h-1.04v-6.35h1.04Z"/>
          <path class="cls-19" d="M98.37,14.48v.96h-1.81c-.52,0-1.01-.13-1.46-.39-.45-.26-.8-.61-1.07-1.05-.26-.44-.4-.92-.41-1.44v-5.25h.97s0,0,0,.07v2.16h2.27s0,0,0,.07v.89s-.03,0-.09,0h-2.18v2.08c0,.42.11.78.33,1.06s.45.5.69.64c.12.08.3.13.55.15s.44.03.59.02h1.61Z"/>
          <path class="cls-19" d="M103.55,9.57c.53-.02.99.02,1.38.15.39.12.71.29.96.51.25.22.44.45.58.69s.24.48.31.69c.06.21.1.4.12.55.02.16.03.22.03.2v.35c0,.25-.06.54-.19.87-.12.33-.32.64-.58.93-.26.3-.6.54-1.01.72s-.89.26-1.44.23h-1.1c-.55.03-1.03-.05-1.44-.23s-.75-.42-1.01-.72c-.26-.3-.45-.61-.58-.93-.12-.32-.19-.61-.19-.87v-.35s0-.04.03-.2c.02-.16.06-.34.12-.55.06-.21.17-.44.31-.69.14-.25.34-.48.59-.69.25-.22.57-.39.96-.51.39-.12.85-.17,1.38-.15h.8ZM103.93,14.48c.73,0,1.25-.18,1.54-.53.3-.35.47-.73.51-1.14v-.17s.01-.28.01-.28v-.18c-.06-.38-.23-.75-.52-1.11s-.81-.54-1.54-.54h-1.56c-.74,0-1.25.18-1.54.54s-.46.73-.5,1.11l-.02.18v.26l.02.18c.04.4.21.78.51,1.14.3.35.81.53,1.54.53h1.56Z"/>
          <path class="cls-19" d="M114.24,10.46h-3.35c-.17,0-.36,0-.57,0-.21,0-.41.03-.58.08-.18.05-.34.15-.48.28-.13.13-.23.29-.29.47-.05.18-.09.34-.09.47s0,.37,0,.71v2.92c0,.05-.03.08-.07.08h-.83s-.07-.03-.07-.08v-3.01c0-.12,0-.34,0-.64,0-.3.06-.61.18-.92s.33-.58.63-.82c.19-.15.4-.26.62-.34.22-.08.43-.13.64-.16.2-.03.39-.04.56-.04h3.7v.99Z"/>
          <path class="cls-19" d="M121.84,9.91c.29.23.48.49.57.77.09.28.14.53.15.74,0,1.05-.58,1.6-1.76,1.66h-4.67s0,.25,0,.25c0,.27.03.49.07.64s.13.27.25.34c.11.07.27.12.46.15.19.02.47.04.82.04h4.36c.13,0,.19.06.19.18v.59c0,.13-.06.19-.19.19h-4.51c-.63,0-1.12-.07-1.48-.21s-.62-.36-.77-.67-.23-.72-.23-1.24v-1.5c0-.35.13-.7.4-1.05.27-.35.61-.65,1.02-.88.42-.23.84-.35,1.28-.35h2.84c.52,0,.92.12,1.21.35ZM121.16,12.04c.09-.03.17-.09.26-.19.06-.07.11-.15.13-.24s.04-.21.05-.37c0-.07-.02-.16-.06-.27-.04-.11-.11-.21-.22-.3s-.26-.14-.45-.14h-3.1c-.22,0-.46.07-.72.21s-.47.33-.65.56c-.18.24-.27.5-.27.79h4.61c.19,0,.33-.02.42-.05Z"/>
          <path class="cls-19" d="M127.72,9.57c.53-.02.99.02,1.38.15.39.12.71.29.96.51.25.22.44.45.58.69.14.25.24.48.31.69.06.21.1.4.12.55.02.16.02.22.02.2v.35c0,.25-.06.54-.19.87-.12.33-.32.64-.58.93-.26.3-.6.54-1.01.72s-.89.26-1.44.23h-1.1c-.55.03-1.03-.05-1.44-.23-.41-.18-.75-.42-1.01-.72-.26-.3-.46-.61-.58-.93-.12-.32-.19-.61-.19-.87v-.35s0-.04.02-.2.06-.34.12-.55c.06-.21.17-.44.31-.69.14-.25.34-.48.59-.69.25-.22.57-.39.96-.51.39-.12.85-.17,1.38-.15h.8ZM128.1,14.48c.73,0,1.25-.18,1.54-.53.3-.35.47-.73.51-1.14v-.17s.01-.28.01-.28v-.18c-.06-.38-.23-.75-.52-1.11-.29-.36-.81-.54-1.54-.54h-1.56c-.74,0-1.25.18-1.54.54-.29.36-.46.73-.5,1.11l-.02.18v.26l.02.18c.04.4.21.78.51,1.14.3.35.81.53,1.54.53h1.56Z"/>
          <path class="cls-19" d="M139.63,11.93h-4.88v3.5h-1.2V6.71h7.99c.47,0,.89.12,1.27.35.23.15.42.29.57.44.14.15.27.34.39.57.1.2.17.4.21.6s.06.36.06.5c0,.29,0,.5,0,.62,0,.12-.02.27-.06.44-.04.17-.09.33-.17.48-.11.2-.23.36-.35.48s-.26.25-.41.36c-.2.15-.44.25-.72.3-.28.05-.54.08-.8.08h-1.89ZM134.76,10.75h6.83c.22,0,.41-.03.58-.09.17-.06.29-.14.37-.24.1-.12.17-.25.21-.39.04-.14.06-.25.06-.32,0-.07,0-.25,0-.54,0-.39-.12-.7-.36-.93-.24-.24-.54-.36-.89-.36h-6.81v2.86Z"/>
          <path class="cls-19" d="M150.95,10.46h-3.35c-.17,0-.36,0-.57,0-.21,0-.41.03-.58.08-.18.05-.34.15-.48.28-.13.13-.23.29-.29.47-.05.18-.09.34-.09.47s0,.37,0,.71v2.92c0,.05-.02.08-.07.08h-.83s-.07-.03-.07-.08v-3.01c0-.12,0-.34,0-.64,0-.3.06-.61.18-.92.12-.31.33-.58.63-.82.19-.15.4-.26.62-.34.22-.08.43-.13.64-.16.2-.03.39-.04.56-.04h3.7v.99Z"/>
          <path class="cls-19" d="M158.56,9.91c.29.23.48.49.57.77s.14.53.15.74c0,1.05-.58,1.6-1.76,1.66h-4.67s0,.25,0,.25c0,.27.02.49.07.64.05.16.13.27.25.34.11.07.27.12.46.15.19.02.47.04.82.04h4.36c.13,0,.19.06.19.18v.59c0,.13-.06.19-.19.19h-4.51c-.63,0-1.12-.07-1.48-.21s-.62-.36-.77-.67-.23-.72-.23-1.24v-1.5c0-.35.13-.7.4-1.05s.61-.65,1.02-.88c.42-.23.84-.35,1.28-.35h2.84c.52,0,.92.12,1.21.35ZM157.87,12.04c.09-.03.17-.09.26-.19.06-.07.11-.15.13-.24s.04-.21.05-.37c0-.07-.02-.16-.06-.27-.04-.11-.11-.21-.22-.3-.11-.09-.26-.14-.45-.14h-3.1c-.22,0-.46.07-.72.21s-.48.33-.65.56c-.18.24-.27.5-.27.79h4.61c.19,0,.33-.02.42-.05Z"/>
          <path class="cls-19" d="M171.99,6.66v1.19h-6.39c-.25,0-.53.08-.84.23s-.63.39-.93.71c-.22.23-.41.53-.57.9-.16.37-.25.83-.25,1.37,0,.36.06.72.17,1.06s.28.67.49.97c.19.27.44.53.75.78.31.26.7.39,1.17.4h6.39v1.19h-6.39c-.71,0-1.37-.2-1.97-.59-.6-.4-1.08-.93-1.43-1.61-.35-.67-.52-1.41-.52-2.21s.17-1.53.52-2.21c.35-.67.83-1.21,1.43-1.6.6-.4,1.26-.59,1.97-.59h6.39Z"/>
          <path class="cls-19" d="M178.26,14.34c.26-.09.47-.23.64-.41.17-.17.3-.4.39-.67.09-.27.14-.54.14-.81v-3.03h.99v3.03c0,.55-.13,1.05-.39,1.52-.27.46-.63.83-1.08,1.1-.45.27-.94.41-1.47.41h-1.88c-.54,0-1.03-.13-1.48-.41-.45-.27-.81-.64-1.07-1.1-.27-.47-.4-.97-.4-1.52v-3.03h.99s0,0,0,.08v2.95c0,.27.05.54.14.81s.23.49.4.67c.17.18.39.32.65.41.26.09.52.14.78.14h1.88c.26,0,.52-.05.78-.14Z"/>
          <path class="cls-19" d="M187.58,10.46h-3.35c-.17,0-.36,0-.57,0-.21,0-.41.03-.59.08s-.34.15-.48.28c-.13.13-.23.29-.28.47-.06.18-.09.34-.09.47,0,.13,0,.37,0,.71v2.92c0,.05-.02.08-.07.08h-.83s-.07-.03-.07-.08v-3.01c0-.12,0-.34,0-.64s.06-.61.18-.92c.12-.31.33-.58.63-.82.19-.15.4-.26.62-.34.22-.08.44-.13.64-.16.2-.03.39-.04.56-.04h3.7v.99Z"/>
          <path class="cls-19" d="M194.62,12.08c.4.02.74.15,1.04.39.3.24.45.7.45,1.38,0,.36-.09.67-.27.91s-.41.42-.68.54c-.27.12-.54.18-.8.18h-6v-.98s5.97,0,5.97,0c.21,0,.4-.05.57-.14s.25-.31.25-.65c0-.21-.06-.37-.18-.46-.12-.09-.26-.15-.41-.17-.16-.02-.25-.02-.29-.02h-4.35c-.23,0-.48-.07-.74-.19-.26-.12-.48-.32-.67-.6-.19-.28-.28-.63-.28-1.07,0-.38.1-.7.3-.95.2-.25.43-.44.71-.55.27-.12.54-.18.79-.2h5.42v.98h-5.37c-.22,0-.43.05-.62.14-.19.1-.28.33-.28.71,0,.3.09.5.26.59.17.09.35.14.51.15h4.66Z"/>
          <path class="cls-19" d="M203.63,9.91c.29.23.48.49.57.77.09.28.14.53.15.74,0,1.05-.58,1.6-1.76,1.66h-4.67s0,.25,0,.25c0,.27.02.49.07.64s.13.27.25.34c.11.07.27.12.46.15s.47.04.82.04h4.36c.13,0,.19.06.19.18v.59c0,.13-.06.19-.19.19h-4.51c-.63,0-1.12-.07-1.48-.21-.36-.14-.62-.36-.77-.67-.16-.3-.23-.72-.23-1.24v-1.5c0-.35.13-.7.4-1.05s.61-.65,1.02-.88c.42-.23.84-.35,1.28-.35h2.84c.52,0,.92.12,1.21.35ZM202.94,12.04c.09-.03.17-.09.26-.19.06-.07.1-.15.13-.24.03-.09.04-.21.05-.37,0-.07-.02-.16-.06-.27s-.11-.21-.22-.3-.26-.14-.45-.14h-3.1c-.22,0-.46.07-.72.21-.26.14-.48.33-.65.56-.18.24-.27.5-.27.79h4.61c.19,0,.33-.02.42-.05Z"/>
        </g>
        <g>
          <path class="cls-3" d="M138.55,21.39h-.28s0,0,0-.05v-1.65c0-.11.04-.21.12-.32s.18-.19.3-.25c.12-.07.23-.1.33-.1h.53c.16,0,.31.02.43.07.12.05.22.12.3.21.08.09.14.18.17.27.04.09.06.18.06.25v.1s0,.01,0,.06c0,.04-.02.1-.04.16-.02.06-.05.13-.09.2-.04.07-.1.14-.17.2-.08.06-.17.11-.29.15-.12.04-.25.05-.41.04h-.96v.65ZM138.55,20.45h1.08c.17,0,.31-.04.4-.11.09-.07.15-.15.17-.22s.04-.14.04-.19v-.09c0-.06-.01-.13-.04-.21-.03-.08-.09-.16-.18-.23s-.22-.1-.39-.1h-.58c-.08,0-.15.02-.23.07-.08.05-.14.1-.19.17s-.07.14-.07.2v.7Z"/>
          <path class="cls-3" d="M142.96,19.26h-.99s-.11,0-.17,0c-.06,0-.12,0-.17.02-.05.02-.1.04-.14.08-.04.04-.07.08-.08.14s-.03.1-.03.14c0,.04,0,.11,0,.21v.87s0,.02-.02.02h-.25s-.02,0-.02-.02v-.89s0-.1,0-.19c0-.09.02-.18.05-.27.04-.09.1-.17.19-.24.06-.04.12-.08.18-.1.07-.02.13-.04.19-.05s.12-.01.17-.01h1.1v.29Z"/>
          <path class="cls-3" d="M144.76,19c.16,0,.29,0,.41.04.12.04.21.09.28.15.07.06.13.13.17.21.04.07.07.14.09.2s.03.12.04.16,0,.07,0,.06v.1c0,.08-.02.16-.05.26-.04.1-.09.19-.17.28-.08.09-.18.16-.3.21s-.26.08-.43.07h-.33c-.16,0-.31-.01-.43-.07-.12-.05-.22-.12-.3-.21-.08-.09-.13-.18-.17-.28-.04-.1-.06-.18-.06-.26v-.1s0-.01,0-.06.02-.1.04-.16.05-.13.09-.2c.04-.07.1-.14.17-.21.07-.06.17-.12.28-.15.11-.04.25-.05.41-.04h.24ZM144.88,20.45c.22,0,.37-.05.46-.16s.14-.22.15-.34v-.05s0-.08,0-.08v-.05c-.02-.11-.07-.22-.15-.33-.09-.11-.24-.16-.46-.16h-.46c-.22,0-.37.05-.46.16-.09.11-.14.22-.15.33v.05s0,.08,0,.08v.05c.02.12.07.23.16.34.09.1.24.16.46.16h.46Z"/>
          <path class="cls-3" d="M148.33,18.36h.28s0,0,0,.05v1.68c0,.12-.01.22-.04.3s-.07.15-.12.2c-.06.05-.13.09-.22.11-.09.02-.21.04-.35.04h-.57c-.16,0-.31-.01-.43-.07-.12-.05-.23-.12-.3-.21-.08-.09-.14-.18-.17-.27-.04-.1-.06-.18-.06-.26v-.1s0-.01,0-.06c0-.05.02-.1.04-.16.02-.06.05-.13.09-.2s.1-.14.17-.2c.08-.06.17-.11.29-.15.12-.04.25-.05.41-.04h.97v-.66ZM148.33,19.3h-1.08c-.18,0-.31.04-.4.11s-.15.15-.18.23c-.03.08-.04.14-.04.19v.08c0,.06.01.13.04.21.03.08.09.16.18.23.09.07.22.1.4.1h.75c.09,0,.15-.02.2-.06.05-.04.08-.09.1-.15.02-.07.03-.15.03-.24v-.71Z"/>
          <path class="cls-3" d="M150.82,20.41c.08-.03.14-.07.19-.12s.09-.12.12-.2c.03-.08.04-.16.04-.24v-.9h.29v.9c0,.16-.04.31-.12.45-.08.14-.19.25-.32.33-.13.08-.28.12-.44.12h-.56c-.16,0-.3-.04-.44-.12-.13-.08-.24-.19-.32-.33-.08-.14-.12-.29-.12-.45v-.9h.29s0,0,0,.02v.87c0,.08.01.16.04.24.03.08.07.15.12.2s.11.09.19.12c.08.03.15.04.23.04h.56c.08,0,.15-.01.23-.04Z"/>
          <path class="cls-3" d="M152.6,19.33c-.08.03-.14.07-.19.12s-.09.12-.12.19c-.03.08-.04.16-.04.23s.01.16.04.23c.03.08.07.14.12.19s.12.09.19.12.16.04.23.04h1.43v.29h-1.43c-.16,0-.3-.04-.44-.12-.13-.08-.24-.18-.32-.32-.08-.13-.12-.28-.12-.44s.04-.3.12-.44c.08-.13.18-.24.32-.32.13-.08.28-.12.44-.12h1.43v.29h-1.43c-.08,0-.16.01-.23.04Z"/>
          <path class="cls-3" d="M156.29,20.45v.29h-.54c-.15,0-.3-.04-.43-.11-.13-.08-.24-.18-.32-.31-.08-.13-.12-.27-.12-.43v-1.55h.29s0,0,0,.02v.64h.67s0,0,0,.02v.26s0,0-.03,0h-.65v.62c0,.13.03.23.1.32s.13.15.21.19c.04.02.09.04.16.05.07,0,.13,0,.18,0h.48Z"/>
          <path class="cls-3" d="M158.15,19c.16,0,.29,0,.41.04.12.04.21.09.28.15.07.06.13.13.17.21.04.07.07.14.09.2.02.06.03.12.04.16s0,.07,0,.06v.1c0,.08-.02.16-.06.26-.04.1-.09.19-.17.28-.08.09-.18.16-.3.21s-.26.08-.43.07h-.33c-.16,0-.3-.01-.43-.07s-.22-.12-.3-.21c-.08-.09-.13-.18-.17-.28-.04-.1-.06-.18-.06-.26v-.1s0-.01,0-.06.02-.1.04-.16.05-.13.09-.2c.04-.07.1-.14.17-.21.08-.06.17-.12.28-.15.12-.04.25-.05.41-.04h.24ZM158.26,20.45c.22,0,.37-.05.46-.16s.14-.22.15-.34v-.05s0-.08,0-.08v-.05c-.02-.11-.07-.22-.15-.33-.09-.11-.24-.16-.46-.16h-.46c-.22,0-.37.05-.46.16-.09.11-.14.22-.15.33v.05s0,.08,0,.08v.05c.02.12.07.23.16.34.09.1.24.16.46.16h.46Z"/>
          <path class="cls-3" d="M161.57,19.74c.12,0,.22.05.31.12.09.07.13.21.13.41,0,.11-.03.2-.08.27-.05.07-.12.12-.2.16-.08.03-.16.05-.24.05h-1.78v-.29s1.77,0,1.77,0c.06,0,.12-.01.17-.04.05-.03.08-.09.08-.19,0-.06-.02-.11-.05-.14-.04-.03-.08-.04-.12-.05s-.07,0-.08,0h-1.29c-.07,0-.14-.02-.22-.06-.08-.04-.14-.09-.2-.18-.06-.08-.08-.19-.08-.32,0-.11.03-.21.09-.28s.13-.13.21-.16c.08-.04.16-.05.23-.06h1.61v.29h-1.59c-.07,0-.13.01-.18.04-.06.03-.08.1-.08.21,0,.09.03.15.08.18.05.03.1.04.15.04h1.38Z"/>
          <path class="cls-3" d="M165.67,18.98v1.52c-.01.17-.05.33-.13.45-.09.16-.2.27-.32.34-.12.07-.27.11-.45.11h-1.24s-.02,0-.02-.02v-.25s0-.02.02-.02h1.24c.06,0,.12,0,.17-.01.05,0,.09-.03.13-.05.05-.04.1-.07.13-.1s.06-.06.08-.11l.04-.09h-1.13c-.13,0-.25-.02-.36-.08-.11-.05-.19-.11-.26-.18-.07-.07-.12-.15-.18-.26-.05-.11-.08-.22-.08-.33v-.92s0-.02,0-.02h.3s0,0,0,.02v.94c0,.06.01.12.04.18s.04.11.07.13c.01.01.04.04.07.07.03.03.08.07.14.09.06.03.13.05.22.06h1.24s0-1.47,0-1.47c0-.02,0-.02.02-.02h.25s.02,0,.02.02Z"/>
          <path class="cls-3" d="M168.88,19.74c.12,0,.22.05.31.12.09.07.13.21.13.41,0,.11-.03.2-.08.27-.05.07-.12.12-.2.16-.08.03-.16.05-.24.05h-1.78v-.29s1.77,0,1.77,0c.06,0,.12-.01.17-.04.05-.03.08-.09.08-.19,0-.06-.02-.11-.05-.14-.04-.03-.08-.04-.12-.05s-.07,0-.08,0h-1.29c-.07,0-.14-.02-.22-.06-.08-.04-.14-.09-.2-.18-.06-.08-.08-.19-.08-.32,0-.11.03-.21.09-.28.06-.07.13-.13.21-.16.08-.04.16-.05.23-.06h1.61v.29h-1.59c-.07,0-.13.01-.18.04-.06.03-.08.1-.08.21,0,.09.03.15.08.18.05.03.1.04.15.04h1.38Z"/>
          <path class="cls-3" d="M171.87,19.1c.08.07.14.14.17.23.03.08.04.16.04.22,0,.31-.17.48-.52.49h-1.38s0,.07,0,.07c0,.08,0,.14.02.19s.04.08.07.1c.03.02.08.04.14.04.06,0,.14.01.24.01h1.29s.06.02.06.05v.17s-.02.06-.06.06h-1.33c-.19,0-.33-.02-.44-.06-.11-.04-.18-.11-.23-.2s-.07-.21-.07-.37v-.44c0-.1.04-.21.12-.31.08-.1.18-.19.3-.26s.25-.1.38-.1h.84c.15,0,.27.03.36.1ZM171.67,19.73s.05-.03.08-.06c.02-.02.03-.04.04-.07s.01-.06.01-.11c0-.02,0-.05-.02-.08-.01-.03-.03-.06-.07-.09-.03-.03-.08-.04-.13-.04h-.92c-.07,0-.14.02-.21.06s-.14.1-.19.17-.08.15-.08.23h1.37c.06,0,.1,0,.12-.01Z"/>
          <path class="cls-3" d="M174.59,19.26h-.99s-.11,0-.17,0c-.06,0-.12,0-.17.02-.05.02-.1.04-.14.08-.04.04-.07.08-.08.14-.02.05-.03.1-.03.14,0,.04,0,.11,0,.21v.87s0,.02-.02.02h-.25s-.02,0-.02-.02v-.89s0-.1,0-.19c0-.09.02-.18.05-.27.03-.09.1-.17.19-.24.06-.04.12-.08.18-.1.07-.02.13-.04.19-.05.06,0,.12-.01.17-.01h1.1v.29Z"/>
          <path class="cls-3" d="M175.29,18.95l1.03,1.55h.04l1.03-1.55h.35l-1.04,1.55c-.08.13-.14.21-.16.24h-.4c-.05-.07-.1-.15-.16-.24l-1.03-1.55h.35Z"/>
          <path class="cls-3" d="M178.44,18.14v.31h-.31v-.31h.31ZM178.44,18.86v1.88h-.31v-1.88h.31Z"/>
          <path class="cls-3" d="M179.68,19.33c-.08.03-.14.07-.19.12s-.09.12-.12.19c-.03.08-.04.16-.04.23s.01.16.04.23c.03.08.07.14.12.19s.12.09.19.12.16.04.23.04h1.43v.29h-1.43c-.16,0-.3-.04-.44-.12-.13-.08-.24-.18-.32-.32-.08-.13-.12-.28-.12-.44s.04-.3.12-.44c.08-.13.18-.24.32-.32.13-.08.28-.12.44-.12h1.43v.29h-1.43c-.08,0-.16.01-.23.04Z"/>
          <path class="cls-3" d="M182.26,18.14v.31h-.31v-.31h.31ZM182.26,18.86v1.88h-.31v-1.88h.31Z"/>
          <path class="cls-3" d="M184.14,19c.16,0,.29,0,.41.04s.21.09.28.15c.07.06.13.13.17.21.04.07.07.14.09.2.02.06.03.12.04.16s0,.07,0,.06v.1c0,.08-.02.16-.06.26-.04.1-.09.19-.17.28-.08.09-.18.16-.3.21s-.26.08-.43.07h-.33c-.16,0-.3-.01-.43-.07-.12-.05-.22-.12-.3-.21-.08-.09-.13-.18-.17-.28-.04-.1-.06-.18-.06-.26v-.1s0-.01,0-.06.02-.1.04-.16.05-.13.09-.2c.04-.07.1-.14.17-.21.08-.06.17-.12.28-.15.12-.04.25-.05.41-.04h.24ZM184.25,20.45c.22,0,.37-.05.46-.16.09-.1.14-.22.15-.34v-.05s0-.08,0-.08v-.05c-.02-.11-.07-.22-.15-.33-.09-.11-.24-.16-.46-.16h-.46c-.22,0-.37.05-.46.16-.09.11-.14.22-.15.33v.05s0,.08,0,.08v.05c.02.12.07.23.16.34.09.1.24.16.46.16h.46Z"/>
          <path class="cls-3" d="M187.56,19.74c.12,0,.22.05.31.12.09.07.13.21.13.41,0,.11-.03.2-.08.27-.05.07-.12.12-.2.16-.08.03-.16.05-.24.05h-1.78v-.29s1.77,0,1.77,0c.06,0,.12-.01.17-.04.05-.03.08-.09.08-.19,0-.06-.02-.11-.05-.14-.04-.03-.08-.04-.12-.05s-.07,0-.08,0h-1.29c-.07,0-.14-.02-.22-.06-.08-.04-.14-.09-.2-.18-.06-.08-.08-.19-.08-.32,0-.11.03-.21.09-.28.06-.07.13-.13.21-.16.08-.04.16-.05.23-.06h1.61v.29h-1.59c-.07,0-.13.01-.18.04-.06.03-.08.1-.08.21,0,.09.03.15.08.18.05.03.1.04.15.04h1.38Z"/>
        </g>
        <rect class="cls-1" x="200.04" y="18.12" width="4.16" height="1.32"/>
        <rect class="cls-20" x="200.04" y="19.44" width="4.16" height=".66"/>
        <rect class="cls-2" x="200.04" y="20.09" width="4.16" height=".66"/>
        <rect class="cls-18" x="194.95" y="18.12" width="1.39" height="2.63"/>
        <rect class="cls-18" x="197.72" y="18.12" width="1.39" height="2.63"/>
        <rect class="cls-4" x="196.33" y="18.12" width="1.39" height="2.63"/>
        <polyline class="cls-11" points="194.01 20.75 189.86 20.75 189.86 19.43 194.01 19.43"/>
        <rect class="cls-17" x="189.86" y="18.12" width="1.39" height="1.32"/>
        <rect class="cls-4" x="191.24" y="18.12" width="2.77" height="1.32"/>
        <polygon class="cls-4" points="190.21 18.67 190.47 18.67 190.55 18.45 190.63 18.67 190.87 18.67 190.67 18.81 190.75 19.04 190.55 18.9 190.34 19.04 190.42 18.82 190.21 18.67"/>
      </g>
      <g>
        <rect class="cls-9" x="123.54" y="76.69" width="44.05" height="24.39"/>
        <path class="cls-15" d="M137.56,84.04c0,.07,0,.15,0,.22,0,.07,0,.15-.02.22-.01.11-.02.22-.04.32-.02.12-.04.23-.07.34-.05.22-.13.43-.21.63-.01.03-.02.06-.04.09-.05.1-.09.2-.15.3-.02.03-.03.06-.05.09-.19.34-.43.65-.71.93-.03.03-.05.05-.08.08-.05.04-.09.09-.14.13-.03.03-.06.05-.1.08-.07.06-.14.11-.22.17-.01,0-.02.02-.03.02-.1.07-.2.13-.3.19-.09.05-.19.1-.29.15,0,0-.01,0-.02,0-.19.09-.39.17-.6.23-.04.01-.09.02-.13.04-.21.05-.42.09-.64.11-.07,0-.14,0-.21.01-.04,0-.07,0-.11,0s-.07,0-.11,0c-.07,0-.14,0-.21-.01-.22-.02-.43-.05-.64-.11-.04-.01-.09-.02-.13-.04-.21-.06-.41-.13-.6-.23,0,0-.01,0-.02,0-.09-.04-.17-.09-.26-.13-.11-.06-.23-.13-.33-.21-.01,0-.02-.02-.03-.02-.07-.05-.15-.11-.22-.17-.03-.03-.06-.05-.09-.08-.05-.04-.09-.08-.14-.13-.05-.05-.1-.1-.15-.15-.24-.26-.46-.54-.64-.86-.02-.03-.03-.06-.05-.09-.05-.1-.1-.2-.15-.3-.01-.03-.03-.06-.04-.09-.09-.2-.16-.41-.21-.63-.03-.11-.05-.23-.07-.34-.02-.11-.03-.22-.04-.32,0-.07-.01-.15-.02-.22,0-.07,0-.15,0-.22s0-.15,0-.22c0-.05,0-.09,0-.14h0s0-.06,0-.09c0-.03,0-.05.01-.08,0-.08.02-.16.04-.24.02-.12.04-.23.07-.34.06-.22.13-.43.21-.63,0-.02.01-.03.02-.04,0-.01.01-.03.02-.04.04-.1.09-.2.15-.3.02-.03.03-.06.05-.09.19-.34.43-.65.71-.93.03-.03.05-.05.08-.08.05-.04.09-.09.14-.13.03-.03.06-.05.09-.08.07-.06.14-.11.22-.17.01,0,.02-.02.03-.02.19-.13.38-.25.59-.34,0,0,.01,0,.02,0,.19-.09.4-.17.6-.23.04-.01.09-.02.13-.04.21-.05.42-.09.64-.11.07,0,.14,0,.21-.01.04,0,.07,0,.11,0s.07,0,.11,0c.07,0,.14,0,.21.01.22.02.43.05.64.11.04.01.09.02.13.04.21.06.41.13.6.23,0,0,.01,0,.02,0,.21.1.4.21.59.34.01,0,.02.02.03.02.07.05.15.11.22.17.03.03.06.05.1.08.05.04.09.08.14.13.03.02.05.05.08.08.27.27.51.59.71.93.02.03.03.06.05.09.05.1.1.2.15.3.01.03.02.06.04.09.09.2.16.41.21.63.03.11.05.23.07.34.02.11.03.22.04.32,0,.03,0,.07,0,.1,0,.04,0,.08,0,.12,0,.07,0,.15,0,.22"/>
        <path class="cls-15" d="M126.05,80.27s0,0,0,0h0s0,0,0,0M125.95,80.22s0,0,.01,0c.02.01.04.03.08.04,0,0-.01,0-.02-.01-.02-.01-.05-.03-.08-.04"/>
        <path class="cls-15" d="M125.95,80.22s.05.03.08.04c-.02-.01-.04-.02-.06-.03,0,0,0,0-.01,0"/>
        <polyline class="cls-15" points="126.05 80.27 126.05 80.27 126.05 80.27 126.05 80.27"/>
        <path class="cls-15" d="M140.36,92.54v4.5c0,.09-.08.1-.16.1h-13.57c-.08,0-.19,0-.19-.1v-4.5c0-.07.01-.15.02-.22.05-1.07.47-2.04,1.11-2.77.02-.02.04-.04.06-.06.32-.35.7-.64,1.11-.85.02-.01.05-.03.08-.04.11-.06.23-.11.35-.15.03,0,.05-.02.08-.03.11-.04.22-.07.33-.1.13.14.27.26.42.38.37.31.78.56,1.21.76.08.04.16.07.25.11.32.13.64.23.98.29.32.06.66.1.99.1.38,0,.76-.04,1.13-.13.05,0,.09-.03.14-.03h.21c.18,0,.36-.14.53-.22.07-.03.14-.1.21-.13.34-.16.66-.37.96-.61.03,0,.07-.03.1-.05.2-.15.39-.31.57-.49,1.7.42,3.01,2.05,3.1,4.01,0,.07.02.15.02.22"/>
        <rect class="cls-16" x="149.59" y="81.3" width="14.26" height="1.39"/>
        <rect class="cls-16" x="144.19" y="93.69" width="19.56" height="1.35"/>
        <path class="cls-15" d="M154.81,91.29h-9.82c-.85,0-1.54-.69-1.54-1.54v-3.27c0-.85.69-1.54,1.54-1.54h9.82c.85,0,1.54.69,1.54,1.54v3.27c0,.85-.69,1.54-1.54,1.54"/>
        <path class="cls-15" d="M161.8,91.29h-2.76c-.85,0-1.54-.69-1.54-1.54v-3.27c0-.85.69-1.54,1.54-1.54h2.76c.85,0,1.54.69,1.54,1.54v3.27c0,.85-.69,1.54-1.54,1.54"/>
        <polygon class="cls-7" points="189.04 105.39 157.58 105.39 157.58 59.84 195.3 59.84 195.3 98.52 189.04 105.39"/>
        <polygon class="cls-6" points="188.64 104.6 158.56 104.6 158.56 60.67 194.62 60.67 194.62 97.98 188.64 104.6"/>
        <polygon class="cls-5" points="194.62 97.98 188.64 97.98 188.64 104.6 194.62 97.98"/>
        <rect class="cls-16" x="170.46" y="65.46" width="21.03" height="2.05"/>
        <rect class="cls-16" x="162.64" y="70.93" width="28.85" height="2.05"/>
        <rect class="cls-16" x="162.51" y="89.65" width="28.85" height="1.99"/>
        <rect class="cls-16" x="162.51" y="96.41" width="23.13" height="1.99"/>
        <rect class="cls-15" x="182.13" y="75.83" width="8.61" height="9.36"/>
        <path class="cls-7" d="M180.26,80.41c0,5.93-4.81,10.75-10.75,10.75s-10.75-4.81-10.75-10.75,4.81-10.75,10.75-10.75,10.75,4.81,10.75,10.75"/>
        <path class="cls-7" d="M178.63,80.41c0,5.04-4.08,9.12-9.12,9.12s-9.12-4.08-9.12-9.12,4.08-9.12,9.12-9.12,9.12,4.08,9.12,9.12"/>
        <path class="cls-4" d="M173.3,84.96c-.29.53-.72.96-1.28,1.31-.56.35-1.24.55-2.02.6v1.47h-.98v-1.47c-1.1-.1-1.99-.45-2.68-1.06-.69-.61-1.04-1.38-1.05-2.33h1.76c.05.51.24.95.57,1.32.33.37.8.61,1.4.71v-4.53c-.81-.2-1.46-.42-1.96-.63-.5-.22-.92-.56-1.27-1.01-.35-.46-.53-1.07-.53-1.85,0-.98.34-1.79,1.02-2.43.68-.64,1.59-1,2.73-1.07v-1.5h.98v1.5c1.03.08,1.85.41,2.48.99.63.57.99,1.32,1.09,2.24h-1.76c-.06-.42-.25-.81-.56-1.15-.32-.34-.73-.57-1.25-.68v4.42c.8.21,1.45.41,1.95.62.5.21.92.55,1.27,1.01.34.46.52,1.08.52,1.87,0,.58-.15,1.13-.43,1.66M167.49,78.76c.35.31.86.57,1.54.78v-4.18c-.63.06-1.13.26-1.5.61-.37.34-.56.82-.56,1.44s.18,1.04.53,1.36M171.54,84.82c.37-.4.55-.88.55-1.43,0-.59-.18-1.05-.54-1.37-.36-.32-.88-.58-1.54-.77v4.27c.65-.07,1.16-.31,1.53-.71"/>
        <path class="cls-7" d="M204.3,107.39c-2.69-5.71-8.78-11.11-19.44-11.11s-16.04,5.6-19.45,11.13h.05c2.69,5.71,8.78,11.11,19.44,11.11s16.04-5.6,19.45-11.13h-.05Z"/>
        <path class="cls-4" d="M202.37,107.39c-2.42-5.03-7.91-9.8-17.51-9.8s-14.45,4.94-17.52,9.81h.04c2.42,5.03,7.91,9.8,17.51,9.8s14.45-4.94,17.52-9.81h-.04Z"/>
        <path class="cls-14" d="M194.68,107.49c0,5.41-4.39,9.8-9.8,9.8s-9.8-4.39-9.8-9.8,4.39-9.8,9.8-9.8,9.8,4.39,9.8,9.8"/>
        <path class="cls-4" d="M191.96,105.53c0,2.59-2.1,4.69-4.69,4.69s-4.69-2.1-4.69-4.69,2.1-4.69,4.69-4.69,4.69,2.1,4.69,4.69"/>
        <path class="cls-13" d="M151.17,58.67l-.93-.59h-19.97c-.46,0-.83.37-.83.83v8.68c0,.46.37.83.83.83s.83-.37.83-.83v-7.01c0-.46.37-.83.83-.83l18.45-.02.79-.49c.23-.14.23-.43,0-.57"/>
        <path class="cls-12" d="M148.37,56.71c0,.11.06.22.17.28l1.7,1.08.93.59c.23.14.22.43,0,.57l-.79.49-1.83,1.12c-.11.07-.17.17-.17.29v1.02l4.66-2.87v-.65l-4.66-2.88v.96Z"/>
        <path class="cls-12" d="M130.86,63.44c2.53,0,4.58,2.05,4.58,4.58s-2.05,4.59-4.58,4.59-4.58-2.05-4.58-4.59,2.05-4.58,4.58-4.58"/>
      </g>
      <g>
        <path class="cls-7" d="M171.92,173.05c0,.06,0,.13,0,.19,0,.06,0,.12-.01.19,0,.09-.02.18-.04.27-.02.1-.04.2-.06.29-.05.18-.11.36-.18.53,0,.03-.02.05-.03.07-.04.09-.08.17-.12.25-.01.02-.03.05-.04.07-.16.29-.36.55-.6.78-.02.02-.04.04-.07.06-.04.04-.08.07-.12.11-.03.02-.05.04-.08.07-.06.05-.12.1-.18.14,0,0-.02.01-.03.02-.08.06-.17.11-.26.16-.08.04-.16.09-.24.13,0,0-.01,0-.01,0-.16.08-.33.14-.51.19-.04,0-.07.02-.11.03-.18.04-.36.07-.54.09-.06,0-.12,0-.18,0-.03,0-.06,0-.09,0s-.06,0-.09,0c-.06,0-.12,0-.18,0-.18-.01-.37-.05-.54-.09-.04,0-.07-.02-.11-.03-.18-.05-.35-.11-.51-.19,0,0-.01,0-.02,0-.07-.03-.15-.07-.22-.11-.1-.05-.19-.11-.28-.18-.01,0-.02-.01-.03-.02-.06-.04-.12-.09-.18-.14-.03-.02-.05-.04-.08-.07-.04-.03-.08-.07-.12-.11-.04-.04-.08-.08-.12-.12-.21-.22-.39-.46-.54-.72-.01-.02-.03-.05-.04-.07-.04-.08-.09-.17-.12-.25-.01-.02-.02-.05-.03-.07-.07-.17-.13-.35-.18-.53-.02-.1-.05-.19-.06-.29-.01-.09-.03-.18-.04-.27,0-.06-.01-.12-.01-.19,0-.06,0-.13,0-.19s0-.13,0-.19c0-.04,0-.08,0-.11h0s0-.05,0-.07c0-.02,0-.05,0-.07,0-.07.02-.14.03-.2.02-.1.04-.2.06-.29.05-.18.11-.36.18-.53,0-.01.01-.03.01-.04,0-.01.01-.02.02-.04.04-.09.08-.17.12-.25.01-.02.03-.05.04-.07.16-.29.37-.55.6-.78.02-.02.04-.04.07-.06.04-.04.08-.07.12-.11.03-.02.05-.05.08-.07.06-.05.12-.1.18-.14,0,0,.02-.01.03-.02.16-.11.32-.21.5-.29,0,0,.01,0,.02,0,.16-.08.33-.14.51-.19.04,0,.08-.02.11-.03.18-.04.36-.07.54-.09.06,0,.12,0,.18-.01.03,0,.06,0,.09,0s.06,0,.09,0c.06,0,.12,0,.18.01.19.01.37.04.54.09.04.01.08.02.11.03.18.05.35.11.51.19,0,0,.01,0,.01,0,.17.08.34.18.5.29,0,0,.02.01.03.02.06.04.12.09.18.14.03.02.05.04.08.07.04.03.08.07.12.11.02.02.05.04.07.06.23.23.43.5.6.79.01.02.03.05.04.07.04.08.08.17.12.25.01.02.02.05.03.07.07.17.13.35.18.53.02.1.04.19.06.29.02.09.03.18.04.27,0,.03,0,.06,0,.09,0,.03,0,.07,0,.1,0,.06,0,.13,0,.19"/>
        <path class="cls-7" d="M174.28,180.24v3.8c0,.08-.07.08-.14.08h-11.47c-.07,0-.16,0-.16-.08v-3.8c0-.06,0-.12.01-.18.04-.9.39-1.73.94-2.34.02-.02.03-.04.05-.05.27-.3.59-.54.94-.72.02-.01.04-.02.06-.03.1-.05.19-.09.3-.13.02,0,.04-.02.07-.02.09-.03.18-.06.27-.08.11.11.23.22.36.32.32.26.66.47,1.02.64.07.03.14.06.21.09.27.11.54.19.82.24.28.05.56.08.84.08.32,0,.64-.04.95-.1.04,0,.08-.03.12-.03h.17c.15,0,.3-.12.45-.18.06-.02.12-.08.17-.11.29-.13.56-.31.81-.51.03,0,.06-.02.08-.04.17-.13.33-.26.48-.41,1.44.35,2.54,1.73,2.61,3.39,0,.06.02.13.02.19"/>
        <polygon class="cls-7" points="200.78 184.45 182.88 184.45 182.88 158.53 204.34 158.53 204.34 180.54 200.78 184.45"/>
        <polygon class="cls-6" points="200.56 184 183.44 184 183.44 159 203.96 159 203.96 180.23 200.56 184"/>
        <polygon class="cls-5" points="203.96 180.23 200.56 180.23 200.56 184 203.96 180.23"/>
        <rect class="cls-16" x="190.25" y="160.59" width="11.96" height=".85"/>
        <rect class="cls-16" x="185.8" y="163.54" width="16.42" height=".85"/>
        <rect class="cls-16" x="185.64" y="180.4" width="11.96" height=".85"/>
        <rect class="cls-16" x="185.64" y="177.45" width="16.42" height=".85"/>
        <rect class="cls-5" x="198" y="168.4" width="3.63" height="3.95"/>
        <path class="cls-7" d="M195.78,171.17c0,3.38-2.74,6.12-6.12,6.12s-6.11-2.74-6.11-6.12,2.74-6.12,6.11-6.12,6.12,2.74,6.12,6.12"/>
        <path class="cls-7" d="M194.86,171.17c0,2.87-2.32,5.19-5.19,5.19s-5.19-2.32-5.19-5.19,2.32-5.19,5.19-5.19,5.19,2.32,5.19,5.19"/>
        <path class="cls-4" d="M191.83,173.75c-.16.3-.41.55-.73.75-.32.2-.7.31-1.15.34v.83h-.56v-.83c-.62-.06-1.13-.25-1.53-.6-.39-.35-.59-.79-.6-1.32h1c.03.29.14.54.32.75.19.21.46.35.8.4v-2.58c-.46-.12-.83-.24-1.11-.36-.28-.12-.52-.32-.72-.58-.2-.26-.3-.61-.3-1.05,0-.56.19-1.02.58-1.38.39-.36.9-.57,1.55-.61v-.86h.56v.86c.58.05,1.05.24,1.41.56.36.33.56.75.62,1.27h-1c-.03-.24-.14-.46-.32-.65s-.42-.32-.71-.39v2.51c.45.12.82.24,1.11.36.28.12.53.31.72.57.2.26.29.61.29,1.06,0,.33-.08.64-.25.94M188.52,170.22c.2.18.49.33.88.44v-2.38c-.36.04-.64.15-.86.35s-.32.47-.32.82.1.6.3.77M190.82,173.68c.21-.23.31-.5.31-.81,0-.34-.1-.6-.31-.78-.21-.18-.5-.33-.88-.44v2.43c.37-.04.66-.17.87-.4"/>
        <path class="cls-7" d="M197.21,184.33c-1.71-3.63-5.59-7.07-12.37-7.07s-10.21,3.56-12.38,7.08h.03c1.71,3.63,5.59,7.07,12.37,7.07s10.21-3.56,12.38-7.08h-.03Z"/>
        <path class="cls-4" d="M195.98,184.33c-1.54-3.2-5.03-6.23-11.14-6.23s-9.19,3.14-11.15,6.24h.03c1.54,3.2,5.03,6.23,11.14,6.23s9.19-3.14,11.15-6.24h-.03Z"/>
        <path class="cls-14" d="M191.09,184.39c0,3.45-2.79,6.24-6.24,6.24s-6.24-2.79-6.24-6.24,2.79-6.24,6.24-6.24,6.24,2.79,6.24,6.24"/>
        <path class="cls-4" d="M189.36,183.14c0,1.65-1.34,2.99-2.99,2.99s-2.99-1.34-2.99-2.99,1.34-2.99,2.99-2.99,2.99,1.34,2.99,2.99"/>
        <path class="cls-13" d="M179.6,161.03l-.52-.33h-11.08c-.25,0-.46.21-.46.46v4.81c0,.25.2.46.46.46s.46-.21.46-.46v-3.89c0-.25.2-.46.46-.46h10.24s.44-.28.44-.28c.13-.08.13-.24,0-.32"/>
        <path class="cls-12" d="M178.05,159.94c0,.06.03.12.09.16l.94.6.52.33c.12.08.12.24,0,.32l-.44.27-1.01.62c-.06.04-.1.1-.1.16v.57l2.59-1.6v-.36l-2.59-1.6v.53Z"/>
        <path class="cls-12" d="M167.91,163.15c.9,0,1.63.73,1.63,1.64s-.73,1.64-1.63,1.64-1.64-.73-1.64-1.64.73-1.64,1.64-1.64"/>
      </g>
    </g>
  </g>
</svg>