<?xml version="1.0" encoding="UTF-8"?>
<svg id="Capa_2" xmlns="http://www.w3.org/2000/svg" xmlns:xlink="http://www.w3.org/1999/xlink" viewBox="0 0 209.81 208.3">
  <defs>
    <style>
      .cls-1 {
        fill: #f9cf16;
      }

      .cls-2 {
        fill: #cd142a;
      }

      .cls-3 {
        fill: #ea86a1;
      }

      .cls-4 {
        fill: #b4b4b4;
      }

      .cls-5 {
        fill: #646365;
      }

      .cls-6 {
        fill: #888688;
      }

      .cls-7 {
        fill: #868486;
      }

      .cls-8 {
        fill: #fff;
      }

      .cls-9 {
        fill: #625f60;
      }

      .cls-10 {
        fill: #505050;
      }

      .cls-11 {
        fill: none;
      }

      .cls-12 {
        fill: #d00e4a;
      }

      .cls-13 {
        clip-path: url(#clippath-1);
      }

      .cls-14 {
        fill: #d00e4d;
      }

      .cls-15 {
        fill: #d00e4c;
      }

      .cls-16 {
        fill: #d22e1f;
      }

      .cls-17 {
        fill: #b1aeaf;
      }

      .cls-18 {
        fill: #636061;
      }

      .cls-19 {
        fill: #9d9a9c;
      }

      .cls-20 {
        fill: #333233;
      }

      .cls-21 {
        fill: #1d458c;
      }

      .cls-22 {
        fill: #dd4c75;
      }

      .cls-23 {
        fill: #e8f5f9;
      }

      .cls-24 {
        fill: #e1222c;
      }

      .cls-25 {
        clip-path: url(#clippath);
      }

      .cls-26 {
        fill: #828384;
      }

      .cls-27 {
        opacity: .5;
      }

      .cls-28 {
        fill: #1b4180;
      }
    </style>
    <clipPath id="clippath">
      <rect class="cls-11" x="177.69" y="89.08" width="18.28" height="18.29"/>
    </clipPath>
    <clipPath id="clippath-1">
      <rect class="cls-11" x="188.61" y="175.51" width="9.68" height="9.69"/>
    </clipPath>
  </defs>
  <g id="Capa_1-2" data-name="Capa_1">
    <g>
      <path class="cls-9" d="M138.35,197.84h1.14v8.37h-1.14v-8.37Z"/>
      <path class="cls-9" d="M143.87,201.65c-.25.09-.46.21-.62.38s-.29.37-.38.63-.13.51-.13.76.04.5.13.76.21.46.38.63.37.29.62.38.5.13.75.13h4.61v.93h-4.61c-.51,0-.98-.13-1.41-.38-.43-.25-.77-.59-1.03-1.03-.25-.43-.38-.9-.38-1.41s.12-.98.38-1.41c.25-.43.6-.78,1.03-1.03.43-.25.9-.38,1.41-.38h4.61v.93h-4.61c-.25,0-.5.04-.75.13Z"/>
      <path class="cls-9" d="M155.36,200.57c.5-.02.94.02,1.32.14s.68.28.92.49.42.43.56.66.23.45.29.66.1.38.11.53.02.21.02.19v.33c0,.24-.06.52-.18.83s-.3.61-.55.89-.57.51-.97.69-.85.25-1.38.22h-1.05c-.52.03-.98-.05-1.38-.22s-.72-.4-.97-.69-.43-.58-.55-.89-.18-.59-.18-.83v-.33s0-.04.02-.19.05-.33.11-.53.16-.42.29-.66.32-.46.56-.66.55-.37.92-.49.81-.16,1.32-.14h.76ZM155.73,205.26c.7,0,1.19-.17,1.47-.51s.45-.7.49-1.09v-.16s.01-.26.01-.26v-.18c-.05-.37-.22-.72-.5-1.06s-.77-.51-1.48-.51h-1.49c-.7,0-1.2.17-1.48.51s-.44.7-.48,1.06l-.02.18v.25l.02.18c.04.39.2.75.49,1.09s.78.51,1.47.51h1.49Z"/>
      <path class="cls-9" d="M167.69,201.91c.25.44.38.92.38,1.44v2.87h-.94v-2.87c0-.26-.04-.52-.13-.77s-.21-.47-.38-.64c-.16-.17-.36-.3-.61-.39s-.49-.13-.74-.13h-1.78c-.48,0-1.1,0-1.86,0,0-.22,0-.01,0,.62s0,1.06,0,1.25v2.94h-.94v-5.74h4.58c.5,0,.97.13,1.4.38.43.26.77.61,1.03,1.05Z"/>
      <path class="cls-9" d="M174.22,200.57c.5-.02.94.02,1.32.14s.68.28.92.49.42.43.56.66.23.45.29.66.1.38.11.53.02.21.02.19v.33c0,.24-.06.52-.18.83s-.3.61-.55.89-.57.51-.97.69-.85.25-1.38.22h-1.05c-.52.03-.98-.05-1.38-.22s-.72-.4-.97-.69-.43-.58-.55-.89-.18-.59-.18-.83v-.33s0-.04.02-.19.05-.33.11-.53.16-.42.29-.66.32-.46.56-.66.55-.37.92-.49.81-.16,1.32-.14h.76ZM174.58,205.26c.7,0,1.19-.17,1.47-.51s.45-.7.49-1.09v-.16s.01-.26.01-.26v-.18c-.05-.37-.22-.72-.5-1.06s-.77-.51-1.48-.51h-1.49c-.7,0-1.2.17-1.48.51s-.44.7-.48,1.06l-.02.18v.25l.02.18c.04.39.2.75.49,1.09s.78.51,1.47.51h1.49Z"/>
      <path class="cls-9" d="M189.64,201.9c.23.4.35.9.35,1.49,0-.09,0-.07,0,.06h0v.66c0,.55-.11.98-.32,1.28s-.46.5-.76.61-.61.16-.93.17-.57.02-.73.02h-3.01c-.47,0-.87-.17-1.2-.52s-.5-.76-.5-1.24.17-.9.5-1.25c.33-.35.73-.52,1.2-.52h4.61c0-.07-.02-.13-.04-.19s-.04-.11-.05-.13c-.09-.18-.21-.34-.38-.48s-.34-.26-.54-.34c-.2-.08-.41-.12-.62-.12h-4.44v-.9c0-.08,0-.1,0-.08h4.44c.51,0,.99.13,1.43.4.21.12.39.27.55.45s.3.38.44.62ZM188.97,204.23c0-.08,0-.28-.01-.59h-4.83c-.17,0-.32.08-.45.23-.12.16-.18.34-.18.56s.06.4.18.56c.12.15.27.23.45.23h3.13c.36,0,.64,0,.85-.02s.38-.07.5-.16c.13-.09.22-.21.27-.34s.08-.29.09-.47Z"/>
      <path class="cls-9" d="M193.06,208.28h-.91c0,.05,0,0,0-.16v-5.33c0-.35.13-.69.4-1.02s.59-.6.98-.81.75-.31,1.08-.31h1.71c.53-.02.99.05,1.39.22s.72.39.97.67.44.57.56.88.18.58.18.82v.32s0,.04-.02.18-.05.32-.11.52-.16.42-.3.65-.33.45-.57.65-.55.36-.92.48-.82.16-1.32.14h-3.11v2.1ZM193.06,205.26h3.47c.57,0,1-.12,1.29-.35s.48-.47.57-.73.13-.46.13-.62v-.28c0-.19-.04-.42-.13-.68s-.28-.5-.57-.73-.72-.33-1.27-.33h-1.88c-.24,0-.49.07-.74.22s-.46.34-.62.56-.24.45-.24.66v2.26Z"/>
      <path class="cls-9" d="M202.48,208.28h-.91c0,.05,0,0,0-.16v-5.33c0-.35.13-.69.4-1.02s.59-.6.98-.81.75-.31,1.08-.31h1.71c.53-.02.99.05,1.39.22s.72.39.97.67.44.57.56.88.18.58.18.82v.32s0,.04-.02.18-.05.32-.11.52-.16.42-.3.65-.33.45-.57.65-.55.36-.92.48-.82.16-1.32.14h-3.11v2.1ZM202.48,205.26h3.47c.57,0,1-.12,1.29-.35s.48-.47.57-.73.13-.46.13-.62v-.28c0-.19-.04-.42-.13-.68s-.28-.5-.57-.73-.72-.33-1.27-.33h-1.88c-.24,0-.49.07-.74.22s-.46.34-.62.56-.24.45-.24.66v2.26Z"/>
    </g>
    <g>
      <path class="cls-15" d="M38.81,25.38c.14.02.36.08.68.19.31.11.68.32,1.09.63.41.31.77.78,1.08,1.4.31.62.46,1.41.46,2.36s-.18,1.67-.54,2.27c-.36.6-.79,1.06-1.29,1.35-.5.29-.97.47-1.42.53h-7.62v-8.73h7.57ZM38.75,32.94c.23-.04.52-.14.84-.3.32-.16.63-.46.92-.9.29-.43.43-1.03.43-1.78,0-.88-.15-1.57-.45-2.07-.3-.5-.62-.84-.95-1.01-.33-.18-.61-.28-.84-.32h-6.28v6.38h6.33Z"/>
      <rect class="cls-15" x="42.94" y="25.39" width="1.19" height="8.7"/>
      <path class="cls-15" d="M50.6,27.77c.77-.01,1.46-.13,2.06-.34.61-.22,1.08-.43,1.4-.65.33-.22.55-.38.66-.49l.96-.91v8.75h-1.14v-6.32c-.5.3-1.08.55-1.75.76-.66.21-1.39.32-2.18.33-.83,0-1.61-.1-2.33-.32-.72-.22-1.36-.49-1.92-.82v6.36h-1.14v-8.75l1,.87c.14.13.39.3.75.53.36.23.86.45,1.51.68.64.23,1.35.33,2.11.32"/>
      <rect class="cls-14" x="57.39" y="29.08" width="2.29" height="1.16"/>
      <g>
        <path class="cls-26" d="M66.5,27.74c.77-.01,1.47-.13,2.08-.35.61-.22,1.08-.44,1.41-.66s.55-.38.66-.49l.97-.92v8.81h-1.15v-6.36c-.51.3-1.09.56-1.76.77-.67.21-1.4.32-2.2.33-.84,0-1.62-.1-2.34-.32s-1.37-.5-1.93-.83v6.4h-1.15v-8.81l1.01.87c.14.13.4.3.76.53.36.23.87.46,1.51.68.65.23,1.36.33,2.12.32Z"/>
        <path class="cls-26" d="M76.7,28.21c.53-.02.99.02,1.38.15.39.12.71.29.96.51.25.22.44.45.58.69s.24.48.31.69c.06.21.1.4.12.55.02.16.02.22.02.2v.35c0,.25-.06.54-.19.87-.12.33-.32.64-.58.93-.26.3-.6.54-1.01.72s-.89.26-1.44.23h-1.1c-.55.03-1.03-.05-1.44-.23s-.75-.42-1.01-.72c-.26-.3-.46-.61-.58-.93-.12-.32-.19-.61-.19-.87v-.35s0-.04.02-.2c.02-.16.06-.34.12-.55.06-.21.17-.44.31-.69.14-.25.34-.48.59-.69.25-.22.57-.39.96-.51.39-.12.85-.17,1.38-.15h.8ZM77.08,33.12c.73,0,1.25-.18,1.54-.53.3-.35.47-.73.51-1.14v-.17s.01-.28.01-.28v-.18c-.06-.38-.23-.75-.52-1.11s-.81-.54-1.54-.54h-1.56c-.74,0-1.25.18-1.54.54s-.46.73-.5,1.11l-.02.18v.26l.02.18c.04.4.21.78.51,1.14.3.35.81.53,1.54.53h1.56Z"/>
        <path class="cls-26" d="M88.19,29.61c.26.46.39.96.39,1.51v3h-.99v-3c0-.27-.05-.54-.14-.81s-.22-.49-.4-.67c-.17-.18-.38-.31-.64-.41-.26-.09-.51-.14-.77-.14h-1.86c-.5,0-1.15,0-1.95,0,0-.23,0-.02,0,.65,0,.67,0,1.1,0,1.31v3.07h-.99v-6.01h4.79c.52,0,1.01.13,1.47.4.45.27.81.64,1.07,1.1Z"/>
        <path class="cls-26" d="M90.65,25.33v1.04h-1.04v-1.04h1.04ZM90.65,27.75v6.35h-1.04v-6.35h1.04Z"/>
        <path class="cls-26" d="M96.67,33.12v.96h-1.81c-.52,0-1.01-.13-1.46-.39-.45-.26-.8-.61-1.07-1.05-.26-.44-.4-.92-.41-1.44v-5.25h.97s0,0,0,.07v2.16h2.27s0,0,0,.07v.89s-.03,0-.09,0h-2.18v2.08c0,.42.11.78.33,1.06s.45.5.69.64c.12.08.3.13.55.15s.44.03.59.02h1.61Z"/>
        <path class="cls-26" d="M101.86,28.21c.53-.02.99.02,1.38.15.39.12.71.29.96.51.25.22.44.45.58.69s.24.48.31.69c.06.21.1.4.12.55.02.16.02.22.02.2v.35c0,.25-.06.54-.19.87-.12.33-.32.64-.58.93-.26.3-.6.54-1.01.72s-.89.26-1.44.23h-1.1c-.55.03-1.03-.05-1.44-.23s-.75-.42-1.01-.72c-.26-.3-.45-.61-.58-.93-.12-.32-.19-.61-.19-.87v-.35s0-.04.03-.2c.02-.16.06-.34.12-.55.06-.21.17-.44.31-.69.14-.25.34-.48.59-.69.25-.22.57-.39.96-.51.39-.12.85-.17,1.38-.15h.8ZM102.24,33.12c.73,0,1.25-.18,1.54-.53.3-.35.47-.73.51-1.14v-.17s.01-.28.01-.28v-.18c-.06-.38-.23-.75-.52-1.11s-.81-.54-1.54-.54h-1.56c-.74,0-1.25.18-1.54.54s-.46.73-.5,1.11l-.02.18v.26l.02.18c.04.4.21.78.51,1.14.3.35.81.53,1.54.53h1.56Z"/>
        <path class="cls-26" d="M112.54,29.1h-3.35c-.17,0-.36,0-.57,0-.21,0-.41.03-.58.08-.18.05-.34.15-.48.28-.13.13-.23.29-.29.47-.05.18-.09.34-.09.47s0,.37,0,.71v2.92c0,.05-.02.08-.07.08h-.83s-.07-.03-.07-.08v-3.01c0-.12,0-.34,0-.64,0-.3.06-.61.18-.92s.33-.58.63-.82c.19-.15.4-.26.62-.34.22-.08.43-.13.64-.16.2-.03.39-.04.56-.04h3.7v.99Z"/>
        <path class="cls-26" d="M120.15,28.55c.29.23.48.49.57.77s.14.53.15.74c0,1.05-.58,1.6-1.76,1.66h-4.67s0,.25,0,.25c0,.27.03.49.07.64s.13.27.25.34c.11.07.27.12.46.15.19.02.47.04.82.04h4.36c.13,0,.19.06.19.18v.59c0,.13-.06.19-.19.19h-4.51c-.63,0-1.12-.07-1.48-.21s-.62-.36-.77-.67-.23-.72-.23-1.24v-1.5c0-.35.13-.7.4-1.05.27-.35.61-.65,1.02-.88.42-.23.84-.35,1.28-.35h2.84c.52,0,.92.12,1.21.35ZM119.47,30.69c.09-.03.17-.09.26-.19.06-.07.11-.15.13-.24s.04-.21.05-.37c0-.07-.02-.16-.06-.27-.04-.11-.11-.21-.22-.3s-.26-.14-.45-.14h-3.1c-.22,0-.46.07-.72.21s-.47.33-.65.56c-.18.24-.27.5-.27.79h4.61c.19,0,.33-.02.42-.05Z"/>
        <path class="cls-26" d="M126.02,28.21c.53-.02.99.02,1.38.15.39.12.71.29.96.51.25.22.44.45.58.69.14.25.24.48.31.69.06.21.1.4.12.55.02.16.02.22.02.2v.35c0,.25-.06.54-.19.87-.12.33-.32.64-.58.93-.26.3-.6.54-1.01.72s-.89.26-1.44.23h-1.1c-.55.03-1.03-.05-1.44-.23-.41-.18-.75-.42-1.01-.72-.26-.3-.45-.61-.58-.93-.12-.32-.19-.61-.19-.87v-.35s0-.04.02-.2.06-.34.12-.55c.06-.21.17-.44.31-.69.14-.25.34-.48.59-.69.25-.22.57-.39.96-.51.39-.12.85-.17,1.38-.15h.8ZM126.4,33.12c.73,0,1.25-.18,1.54-.53.3-.35.47-.73.51-1.14v-.17s.01-.28.01-.28v-.18c-.06-.38-.23-.75-.52-1.11-.29-.36-.81-.54-1.54-.54h-1.56c-.74,0-1.25.18-1.54.54-.29.36-.46.73-.5,1.11l-.02.18v.26l.02.18c.04.4.21.78.51,1.14.3.35.81.53,1.54.53h1.56Z"/>
        <path class="cls-26" d="M137.93,30.58h-4.88v3.5h-1.2v-8.73h7.99c.47,0,.89.12,1.27.35.23.15.42.29.57.44.14.15.27.34.39.57.1.2.17.4.21.6s.06.36.06.5c0,.29,0,.5,0,.62,0,.12-.02.27-.06.44-.04.17-.09.33-.17.48-.11.2-.23.36-.35.48s-.26.25-.41.36c-.2.15-.44.25-.72.3-.28.05-.54.08-.8.08h-1.89ZM133.06,29.39h6.83c.22,0,.41-.03.58-.09.17-.06.29-.14.37-.24.1-.12.17-.25.21-.39.04-.14.06-.25.06-.32,0-.07,0-.25,0-.54,0-.39-.12-.7-.36-.93-.24-.24-.54-.36-.89-.36h-6.81v2.86Z"/>
        <path class="cls-26" d="M147.04,28.21c.53-.02.99.02,1.38.15.39.12.71.29.96.51.25.22.44.45.59.69.14.25.24.48.31.69.06.21.1.4.12.55s.02.22.02.2v.35c0,.25-.06.54-.19.87-.12.33-.32.64-.58.93-.26.3-.6.54-1.01.72-.41.18-.89.26-1.44.23h-1.1c-.55.03-1.03-.05-1.44-.23-.42-.18-.75-.42-1.01-.72-.26-.3-.46-.61-.58-.93-.12-.32-.19-.61-.19-.87v-.35s0-.04.02-.2.06-.34.12-.55c.06-.21.17-.44.31-.69.14-.25.34-.48.59-.69.25-.22.57-.39.96-.51.39-.12.85-.17,1.38-.15h.8ZM147.42,33.12c.73,0,1.25-.18,1.54-.53.3-.35.47-.73.51-1.14v-.17s.01-.28.01-.28v-.18c-.06-.38-.23-.75-.52-1.11-.29-.36-.81-.54-1.54-.54h-1.56c-.74,0-1.25.18-1.54.54-.29.36-.46.73-.5,1.11l-.02.18v.26l.02.18c.04.4.21.78.51,1.14.3.35.81.53,1.54.53h1.56Z"/>
        <path class="cls-26" d="M157.52,30.73c.4.02.74.15,1.04.39.3.24.45.7.45,1.38,0,.36-.09.67-.27.91s-.41.42-.68.54c-.27.12-.54.18-.8.18h-6v-.98s5.97,0,5.97,0c.21,0,.4-.05.57-.14s.25-.31.25-.65c0-.21-.06-.37-.18-.46-.12-.09-.26-.15-.41-.17-.16-.02-.25-.02-.29-.02h-4.35c-.23,0-.48-.07-.74-.19-.26-.12-.48-.32-.67-.6-.19-.28-.28-.63-.28-1.07,0-.38.1-.7.3-.95.2-.25.43-.44.71-.55.27-.12.54-.18.79-.2h5.42v.98h-5.37c-.22,0-.43.05-.62.14-.19.1-.28.33-.28.71,0,.3.09.5.26.59.17.09.35.14.51.15h4.66Z"/>
        <path class="cls-26" d="M164.71,33.12v.96h-1.81c-.52,0-1.01-.13-1.46-.39-.45-.26-.8-.61-1.07-1.05-.26-.44-.4-.92-.41-1.44v-5.25h.97s0,0,0,.07v2.16h2.27s0,0,0,.07v.89s-.03,0-.09,0h-2.18v2.08c0,.42.11.78.33,1.06s.45.5.69.64c.12.08.3.13.54.15s.44.03.59.02h1.61Z"/>
        <path class="cls-26" d="M177.45,25.31v1.19h-6.39c-.25,0-.53.08-.84.23s-.63.39-.93.71c-.22.23-.41.53-.57.9-.16.37-.25.83-.25,1.37,0,.36.06.72.17,1.06s.28.67.49.97c.19.27.44.53.75.78.31.26.7.39,1.17.4h6.39v1.19h-6.39c-.71,0-1.37-.2-1.97-.59-.6-.4-1.08-.93-1.43-1.61-.35-.67-.52-1.41-.52-2.21s.17-1.53.52-2.21c.35-.67.83-1.21,1.43-1.6.6-.4,1.26-.59,1.97-.59h6.39Z"/>
        <path class="cls-26" d="M183.73,32.98c.26-.09.47-.23.64-.41.17-.17.3-.4.4-.67.09-.27.14-.54.14-.81v-3.03h.99v3.03c0,.55-.13,1.05-.39,1.52-.27.46-.63.83-1.08,1.1-.45.27-.94.41-1.47.41h-1.88c-.54,0-1.03-.13-1.48-.41-.45-.27-.81-.64-1.07-1.1-.27-.47-.4-.97-.4-1.52v-3.03h.99s0,0,0,.08v2.95c0,.27.05.54.14.81s.23.49.4.67c.17.18.39.32.65.41.26.09.52.14.78.14h1.88c.26,0,.52-.05.78-.14Z"/>
        <path class="cls-26" d="M193.04,29.1h-3.35c-.17,0-.36,0-.57,0-.21,0-.41.03-.59.08s-.34.15-.48.28c-.13.13-.23.29-.29.47-.05.18-.08.34-.09.47,0,.13,0,.37,0,.71v2.92c0,.05-.02.08-.07.08h-.83s-.07-.03-.07-.08v-3.01c0-.12,0-.34,0-.64s.06-.61.18-.92.33-.58.63-.82c.19-.15.4-.26.62-.34.22-.08.44-.13.64-.16.2-.03.39-.04.56-.04h3.7v.99Z"/>
        <path class="cls-26" d="M200.08,30.73c.4.02.74.15,1.04.39.3.24.45.7.45,1.38,0,.36-.09.67-.27.91s-.41.42-.68.54c-.27.12-.54.18-.8.18h-6v-.98s5.97,0,5.97,0c.21,0,.4-.05.57-.14s.25-.31.25-.65c0-.21-.06-.37-.18-.46-.12-.09-.26-.15-.41-.17-.16-.02-.25-.02-.29-.02h-4.35c-.23,0-.48-.07-.74-.19-.26-.12-.48-.32-.67-.6-.19-.28-.28-.63-.28-1.07,0-.38.1-.7.3-.95.2-.25.43-.44.71-.55.27-.12.54-.18.79-.2h5.42v.98h-5.36c-.22,0-.43.05-.62.14-.19.1-.29.33-.29.71,0,.3.09.5.26.59.18.09.35.14.52.15h4.66Z"/>
        <path class="cls-26" d="M209.09,28.55c.29.23.48.49.57.77.09.28.14.53.15.74,0,1.05-.58,1.6-1.76,1.66h-4.67s0,.25,0,.25c0,.27.02.49.07.64s.13.27.25.34c.11.07.27.12.46.15s.47.04.82.04h4.36c.13,0,.19.06.19.18v.59c0,.13-.06.19-.19.19h-4.51c-.63,0-1.12-.07-1.48-.21-.36-.14-.62-.36-.77-.67s-.23-.72-.23-1.24v-1.5c0-.35.13-.7.4-1.05s.61-.65,1.02-.88c.42-.23.84-.35,1.28-.35h2.84c.52,0,.92.12,1.21.35ZM208.41,30.69c.09-.03.17-.09.26-.19.06-.07.1-.15.13-.24.03-.09.04-.21.05-.37,0-.07-.02-.16-.06-.27s-.11-.21-.22-.3-.26-.14-.45-.14h-3.1c-.22,0-.46.07-.72.21-.26.14-.48.33-.65.56-.18.24-.27.5-.27.79h4.61c.19,0,.33-.02.42-.05Z"/>
      </g>
    </g>
    <g>
      <path class="cls-8" d="M14.84.27L.55,4.78l14.33,11.12,14.04-10.84L14.84.27ZM20.37,10.39l-3.12,2.39-2.66-1.71,2.04-1.67c.37-.33.48-.56.48-.56v-3.18c.03-.54-.73-.85-.73-.85-.94-.45-2.38-.43-2.38-.43-1.33-.02-3.8.92-3.8.92v2.95l-3.69-2.37c2.35-.95,3.42-1.2,3.42-1.2,2.33-.65,3.96-.69,3.96-.69,2.61-.14,4.68.58,4.68.58,2.08.57,2.94,1.3,2.94,1.3,1.72,1.29,1.33,2.61,1.33,2.61-.27.24-2.47,1.91-2.47,1.91"/>
      <polygon class="cls-15" points=".02 8.24 .02 4.69 14.92 16.03 29.45 4.96 29.45 8.22 14.87 21.46 .02 8.24"/>
      <path class="cls-15" d="M6.42,5.9l-2.39-1.48s3.15-1.23,5.77-1.73c2.62-.5,3.58-.53,5.07-.47,1.49.06,4.37.63,6.26,1.55,1.89.93,2.29,1.89,2.4,2.42.12.53.09,1.75-.34,2.13l-.42.38s.31-.69-.13-1.56c-.44-.87-1.39-1.7-3.12-2.29-1.73-.59-3.27-.92-5.14-.89-1.86.03-3.56.44-4.87.82-1.3.38-3.09,1.11-3.09,1.11"/>
      <path class="cls-15" d="M10.2,5.37v2.94l4.29,2.83s.94-.73,1.6-1.28c.66-.54.94-.87,1.01-1.03v-3.24s.08.51-1.06,1.15c-1.13.64-1.49.85-1.49.85l-4.35-2.21Z"/>
      <path class="cls-15" d="M14.88,16.23L0,4.68,14.85,0h.04s14.57,4.97,14.57,4.97l-14.57,11.26ZM.55,4.78l14.34,11.12,14.04-10.84L14.84.27.55,4.78Z"/>
      <path class="cls-15" d="M17.27,13.09l-.08-.05L3.75,4.39l.23-.09s3.19-1.24,5.8-1.74c1.92-.37,3-.49,4.14-.49.27,0,.57,0,.95.02,1.62.06,4.5.68,6.31,1.57,1.43.7,2.26,1.54,2.47,2.51.12.56.1,1.82-.38,2.25l-.43.38-5.59,4.29ZM4.32,4.45l12.94,8.32,5.44-4.17.42-.38c.38-.34.41-1.51.3-2-.2-.89-.98-1.67-2.33-2.33-1.78-.87-4.61-1.48-6.2-1.54-.38-.01-.68-.02-.95-.02-.97,0-1.94.08-4.1.49-2.17.41-4.73,1.34-5.51,1.63"/>
      <path class="cls-15" d="M14.47,7.64l-4.29-2.19.04-.07-.03-.08c.1-.04,2.43-.93,3.82-.93h.03c1.45.01,2.38.36,2.77.69.36.3.41.63.16,1.02-.18.28-.7.67-1.43,1.05-.71.38-1.02.5-1.03.51h-.03ZM10.32,5.39l4.15,2.12c.09-.04.4-.18.99-.49.7-.37,1.21-.74,1.38-1,.21-.33.17-.6-.13-.85-.37-.31-1.27-.65-2.69-.66h-.03c-1.21,0-3.21.72-3.68.89"/>
      <path class="cls-15" d="M40.5,6.74c.14.02.36.08.68.19.31.11.68.32,1.09.63.41.31.77.78,1.08,1.4.31.62.46,1.41.46,2.36s-.18,1.67-.54,2.27c-.36.61-.79,1.06-1.29,1.35-.5.29-.97.47-1.42.53h-7.62V6.73h7.57ZM40.44,14.29c.23-.04.52-.14.84-.3.32-.16.63-.46.92-.9.29-.43.43-1.03.43-1.78,0-.88-.15-1.57-.45-2.07-.3-.5-.62-.84-.95-1.01-.33-.18-.61-.28-.84-.32h-6.28v6.38h6.33Z"/>
      <rect class="cls-15" x="44.63" y="6.75" width="1.19" height="8.7"/>
      <path class="cls-15" d="M52.3,9.12c.77-.01,1.46-.13,2.06-.34.61-.22,1.08-.43,1.4-.65.33-.22.55-.38.66-.49l.96-.91v8.75h-1.14v-6.32c-.5.3-1.08.55-1.75.76-.66.21-1.39.32-2.18.33-.83,0-1.61-.1-2.33-.32-.72-.22-1.36-.49-1.92-.82v6.36h-1.14V6.73l1,.86c.14.13.39.3.75.53.36.23.86.45,1.51.68.64.23,1.35.33,2.11.32"/>
      <rect class="cls-14" x="59.08" y="10.44" width="2.29" height="1.16"/>
      <g>
        <path class="cls-26" d="M68.2,9.1c.77-.01,1.47-.13,2.08-.35.61-.22,1.08-.44,1.41-.66.33-.22.55-.38.66-.49l.97-.92v8.81h-1.15v-6.36c-.51.3-1.09.56-1.76.77-.67.21-1.4.32-2.2.33-.84,0-1.62-.1-2.34-.32s-1.37-.5-1.93-.83v6.4h-1.15V6.69l1.01.87c.14.13.4.3.76.53.36.23.87.46,1.51.68s1.36.33,2.12.32Z"/>
        <path class="cls-26" d="M78.39,9.57c.53-.02.99.02,1.38.15.39.12.71.29.96.51.25.22.44.45.58.69s.24.48.31.69c.06.21.1.4.12.55.02.16.03.22.03.2v.35c0,.25-.06.54-.19.87-.12.33-.32.64-.58.93-.26.3-.6.54-1.01.72s-.89.26-1.44.23h-1.1c-.55.03-1.03-.05-1.44-.23s-.75-.42-1.01-.72c-.26-.3-.45-.61-.58-.93-.12-.32-.19-.61-.19-.87v-.35s0-.04.03-.2c.02-.16.06-.34.12-.55.06-.21.17-.44.31-.69.14-.25.34-.48.59-.69.25-.22.57-.39.96-.51.39-.12.85-.17,1.38-.15h.8ZM78.77,14.48c.73,0,1.25-.18,1.54-.53.3-.35.47-.73.51-1.14v-.17s.01-.28.01-.28v-.18c-.06-.38-.23-.75-.52-1.11s-.81-.54-1.54-.54h-1.56c-.74,0-1.25.18-1.54.54s-.46.73-.5,1.11l-.02.18v.26l.02.18c.04.4.21.78.51,1.14.3.35.81.53,1.54.53h1.56Z"/>
        <path class="cls-26" d="M89.89,10.97c.26.46.39.96.39,1.51v3h-.99v-3c0-.27-.05-.54-.14-.81s-.22-.49-.4-.67c-.17-.18-.38-.31-.64-.41-.26-.09-.51-.14-.77-.14h-1.86c-.5,0-1.15,0-1.95,0,0-.23,0-.02,0,.65s0,1.1,0,1.31v3.07h-.99v-6.01h4.79c.52,0,1.01.13,1.47.4.45.27.81.64,1.07,1.1Z"/>
        <path class="cls-26" d="M92.35,6.69v1.04h-1.04v-1.04h1.04ZM92.35,9.11v6.35h-1.04v-6.35h1.04Z"/>
        <path class="cls-26" d="M98.37,14.48v.96h-1.81c-.52,0-1.01-.13-1.46-.39-.45-.26-.8-.61-1.07-1.05-.26-.44-.4-.92-.41-1.44v-5.25h.97s0,0,0,.07v2.16h2.27s0,0,0,.07v.89s-.03,0-.09,0h-2.18v2.08c0,.42.11.78.33,1.06s.45.5.69.64c.12.08.3.13.55.15s.44.03.59.02h1.61Z"/>
        <path class="cls-26" d="M103.55,9.57c.53-.02.99.02,1.38.15.39.12.71.29.96.51.25.22.44.45.58.69s.24.48.31.69c.06.21.1.4.12.55.02.16.03.22.03.2v.35c0,.25-.06.54-.19.87-.12.33-.32.64-.58.93-.26.3-.6.54-1.01.72s-.89.26-1.44.23h-1.1c-.55.03-1.03-.05-1.44-.23s-.75-.42-1.01-.72c-.26-.3-.45-.61-.58-.93-.12-.32-.19-.61-.19-.87v-.35s0-.04.03-.2c.02-.16.06-.34.12-.55.06-.21.17-.44.31-.69.14-.25.34-.48.59-.69.25-.22.57-.39.96-.51.39-.12.85-.17,1.38-.15h.8ZM103.93,14.48c.73,0,1.25-.18,1.54-.53.3-.35.47-.73.51-1.14v-.17s.01-.28.01-.28v-.18c-.06-.38-.23-.75-.52-1.11s-.81-.54-1.54-.54h-1.56c-.74,0-1.25.18-1.54.54s-.46.73-.5,1.11l-.02.18v.26l.02.18c.04.4.21.78.51,1.14.3.35.81.53,1.54.53h1.56Z"/>
        <path class="cls-26" d="M114.24,10.46h-3.35c-.17,0-.36,0-.57,0-.21,0-.41.03-.58.08-.18.05-.34.15-.48.28-.13.13-.23.29-.29.47-.05.18-.09.34-.09.47s0,.37,0,.71v2.92c0,.05-.03.08-.07.08h-.83s-.07-.03-.07-.08v-3.01c0-.12,0-.34,0-.64,0-.3.06-.61.18-.92s.33-.58.63-.82c.19-.15.4-.26.62-.34.22-.08.44-.13.64-.16.2-.03.39-.04.56-.04h3.7v.99Z"/>
        <path class="cls-26" d="M121.85,9.91c.29.23.48.49.57.77.09.28.14.53.15.74,0,1.05-.58,1.6-1.76,1.66h-4.67s0,.25,0,.25c0,.27.03.49.07.64s.13.27.25.34c.11.07.27.12.46.15.19.02.47.04.82.04h4.36c.13,0,.19.06.19.18v.59c0,.13-.06.19-.19.19h-4.51c-.63,0-1.12-.07-1.48-.21s-.62-.36-.77-.67-.23-.72-.23-1.24v-1.5c0-.35.13-.7.4-1.05.27-.35.61-.65,1.02-.88.42-.23.84-.35,1.28-.35h2.84c.52,0,.92.12,1.21.35ZM121.16,12.04c.09-.03.17-.09.26-.19.06-.07.11-.15.13-.24s.04-.21.05-.37c0-.07-.02-.16-.06-.27-.04-.11-.11-.21-.22-.3s-.26-.14-.45-.14h-3.1c-.22,0-.46.07-.72.21s-.47.33-.65.56c-.18.24-.27.5-.27.79h4.61c.19,0,.33-.02.42-.05Z"/>
        <path class="cls-26" d="M127.72,9.57c.53-.02.99.02,1.38.15.39.12.71.29.96.51.25.22.44.45.58.69.14.25.24.48.31.69.06.21.1.4.12.55.02.16.02.22.02.2v.35c0,.25-.06.54-.19.87-.12.33-.32.64-.58.93-.26.3-.6.54-1.01.72s-.89.26-1.44.23h-1.1c-.55.03-1.03-.05-1.44-.23-.42-.18-.75-.42-1.01-.72-.26-.3-.46-.61-.58-.93-.12-.32-.19-.61-.19-.87v-.35s0-.04.02-.2.06-.34.12-.55c.06-.21.17-.44.31-.69.14-.25.34-.48.59-.69.25-.22.57-.39.96-.51.39-.12.85-.17,1.38-.15h.8ZM128.1,14.48c.73,0,1.25-.18,1.54-.53.3-.35.47-.73.51-1.14v-.17s.01-.28.01-.28v-.18c-.06-.38-.23-.75-.52-1.11-.29-.36-.81-.54-1.54-.54h-1.56c-.74,0-1.25.18-1.54.54-.29.36-.46.73-.5,1.11l-.02.18v.26l.02.18c.04.4.21.78.51,1.14.3.35.81.53,1.54.53h1.56Z"/>
        <path class="cls-26" d="M139.63,11.94h-4.88v3.5h-1.2V6.71h7.99c.47,0,.89.12,1.27.35.23.15.42.29.57.44.14.15.27.34.39.57.1.2.17.4.21.6s.06.36.06.5c0,.29,0,.5,0,.62,0,.12-.02.27-.06.44-.04.17-.09.33-.17.48-.11.2-.23.36-.35.48s-.26.25-.41.36c-.2.15-.44.25-.72.3-.28.05-.54.08-.8.08h-1.89ZM134.76,10.75h6.83c.22,0,.41-.03.58-.09.17-.06.29-.14.37-.24.1-.12.17-.25.21-.39.04-.14.06-.25.06-.32,0-.07,0-.25,0-.54,0-.39-.12-.7-.36-.93-.24-.24-.54-.36-.89-.36h-6.81v2.86Z"/>
        <path class="cls-26" d="M148.73,9.57c.53-.02.99.02,1.38.15.39.12.71.29.96.51.25.22.44.45.59.69.14.25.24.48.31.69.06.21.1.4.12.55s.02.22.02.2v.35c0,.25-.06.54-.19.87-.12.33-.32.64-.58.93-.26.3-.6.54-1.01.72-.41.18-.89.26-1.44.23h-1.1c-.55.03-1.03-.05-1.44-.23-.42-.18-.75-.42-1.01-.72-.26-.3-.46-.61-.58-.93-.12-.32-.19-.61-.19-.87v-.35s0-.04.02-.2.06-.34.12-.55c.06-.21.17-.44.31-.69.14-.25.34-.48.59-.69.25-.22.57-.39.96-.51.39-.12.85-.17,1.38-.15h.8ZM149.11,14.48c.73,0,1.25-.18,1.54-.53.3-.35.47-.73.51-1.14v-.17s.01-.28.01-.28v-.18c-.06-.38-.23-.75-.52-1.11-.29-.36-.81-.54-1.55-.54h-1.56c-.74,0-1.25.18-1.54.54-.29.36-.46.73-.5,1.11l-.02.18v.26l.02.18c.04.4.21.78.51,1.14.3.35.81.53,1.54.53h1.56Z"/>
        <path class="cls-26" d="M159.21,12.08c.4.02.74.15,1.04.39.3.24.45.7.45,1.38,0,.36-.09.67-.27.91s-.41.42-.68.54c-.27.12-.54.18-.8.18h-6v-.98s5.97,0,5.97,0c.21,0,.4-.05.57-.14s.25-.31.25-.65c0-.21-.06-.37-.18-.46-.12-.09-.26-.15-.41-.17-.16-.02-.25-.02-.29-.02h-4.35c-.23,0-.48-.07-.74-.19-.26-.12-.48-.32-.67-.6-.19-.28-.28-.63-.28-1.07,0-.38.1-.7.3-.95.2-.25.43-.44.71-.55.27-.12.54-.18.79-.2h5.42v.98h-5.37c-.22,0-.43.05-.62.14-.19.1-.29.33-.29.71,0,.3.09.5.26.59.17.09.35.14.51.15h4.66Z"/>
        <path class="cls-26" d="M166.4,14.48v.96h-1.81c-.52,0-1.01-.13-1.46-.39-.45-.26-.8-.61-1.07-1.05-.26-.44-.4-.92-.41-1.44v-5.25h.97s0,0,0,.07v2.16h2.27s0,0,0,.07v.89s-.03,0-.09,0h-2.18v2.08c0,.42.11.78.33,1.06s.45.5.69.64c.12.08.3.13.54.15s.44.03.59.02h1.61Z"/>
        <path class="cls-26" d="M177.45,6.66v1.19h-6.39c-.25,0-.53.08-.84.23-.32.15-.63.39-.93.71-.22.23-.41.53-.57.9-.16.37-.25.83-.25,1.37,0,.36.06.72.17,1.06.12.35.28.67.49.97.19.27.44.53.75.78.31.26.7.39,1.17.4h6.39v1.19h-6.39c-.71,0-1.37-.2-1.97-.59-.6-.4-1.08-.93-1.43-1.61-.35-.67-.52-1.41-.52-2.21s.17-1.53.52-2.21c.35-.67.83-1.21,1.43-1.6.6-.4,1.26-.59,1.97-.59h6.39Z"/>
        <path class="cls-26" d="M183.73,14.34c.26-.09.47-.23.64-.41.17-.17.3-.4.4-.67s.14-.54.14-.81v-3.03h.99v3.03c0,.55-.13,1.05-.39,1.52-.27.46-.63.83-1.09,1.1-.45.27-.94.41-1.47.41h-1.88c-.54,0-1.03-.13-1.48-.41-.45-.27-.81-.64-1.07-1.1-.27-.47-.4-.97-.4-1.52v-3.03h.99s0,0,0,.08v2.95c0,.27.05.54.14.81s.23.49.4.67c.17.18.39.32.65.41s.52.14.78.14h1.88c.26,0,.52-.05.78-.14Z"/>
        <path class="cls-26" d="M193.04,10.46h-3.35c-.17,0-.36,0-.57,0-.21,0-.41.03-.58.08s-.34.15-.48.28c-.13.13-.23.29-.29.47-.05.18-.09.34-.09.47s0,.37,0,.71v2.92c0,.05-.03.08-.07.08h-.83s-.07-.03-.07-.08v-3.01c0-.12,0-.34,0-.64,0-.3.06-.61.18-.92s.33-.58.63-.82c.19-.15.4-.26.62-.34.22-.08.44-.13.64-.16.2-.03.39-.04.56-.04h3.7v.99Z"/>
        <path class="cls-26" d="M200.08,12.08c.4.02.74.15,1.04.39.3.24.45.7.45,1.38,0,.36-.09.67-.27.91s-.41.42-.68.54-.54.18-.8.18h-6v-.98s5.97,0,5.97,0c.21,0,.4-.05.57-.14.17-.09.25-.31.25-.65,0-.21-.06-.37-.18-.46-.12-.09-.26-.15-.41-.17-.16-.02-.25-.02-.29-.02h-4.35c-.23,0-.48-.07-.74-.19-.26-.12-.48-.32-.67-.6-.19-.28-.28-.63-.28-1.07,0-.38.1-.7.3-.95.2-.25.43-.44.71-.55.27-.12.54-.18.79-.2h5.42v.98h-5.36c-.22,0-.43.05-.62.14-.19.1-.29.33-.29.71,0,.3.09.5.26.59.18.09.35.14.51.15h4.66Z"/>
        <path class="cls-26" d="M209.09,9.91c.29.23.48.49.57.77.09.28.14.53.15.74,0,1.05-.58,1.6-1.76,1.66h-4.67s0,.25,0,.25c0,.27.02.49.07.64s.13.27.25.34c.11.07.27.12.46.15.19.02.47.04.82.04h4.36c.13,0,.19.06.19.18v.59c0,.13-.06.19-.19.19h-4.51c-.63,0-1.12-.07-1.48-.21s-.62-.36-.77-.67-.23-.72-.23-1.24v-1.5c0-.35.13-.7.4-1.05s.61-.65,1.02-.88c.42-.23.84-.35,1.28-.35h2.84c.52,0,.92.12,1.21.35ZM208.41,12.04c.09-.03.17-.09.26-.19.06-.07.11-.15.13-.24.03-.09.04-.21.05-.37,0-.07-.02-.16-.06-.27s-.11-.21-.22-.3-.26-.14-.45-.14h-3.1c-.22,0-.46.07-.72.21-.26.14-.47.33-.65.56-.18.24-.27.5-.27.79h4.61c.19,0,.33-.02.42-.05Z"/>
      </g>
      <g>
        <path class="cls-5" d="M144.03,21.38h-.28s0,0,0-.05v-1.65c0-.11.04-.21.12-.32s.18-.19.3-.25c.12-.07.23-.1.33-.1h.53c.16,0,.31.02.43.07.12.05.22.12.3.21.08.09.13.18.17.27.04.09.06.18.06.25v.1s0,.01,0,.06c0,.04-.02.1-.04.16-.02.06-.05.13-.09.2-.04.07-.1.14-.17.2-.08.06-.17.11-.29.15-.12.04-.25.05-.41.04h-.96v.65ZM144.03,20.44h1.08c.17,0,.31-.04.4-.11.09-.07.15-.15.17-.22s.04-.14.04-.19v-.09c0-.06-.01-.13-.04-.21-.03-.08-.09-.16-.18-.23s-.22-.1-.39-.1h-.58c-.08,0-.15.02-.23.07-.08.05-.14.1-.19.17s-.07.14-.07.2v.7Z"/>
        <path class="cls-5" d="M148.43,19.25h-.99s-.11,0-.17,0c-.06,0-.12,0-.17.02-.05.02-.1.04-.14.08-.04.04-.07.08-.08.14s-.03.1-.03.14c0,.04,0,.11,0,.21v.87s0,.02-.02.02h-.25s-.02,0-.02-.02v-.89s0-.1,0-.19c0-.09.02-.18.05-.27.04-.09.1-.17.19-.24.06-.04.12-.08.18-.1.07-.02.13-.04.19-.05s.12-.01.17-.01h1.1v.29Z"/>
        <path class="cls-5" d="M150.24,18.99c.16,0,.29,0,.41.04.12.04.21.09.28.15.07.06.13.13.17.21.04.07.07.14.09.2.02.06.03.12.04.16s0,.07,0,.06v.1c0,.08-.02.16-.05.26-.04.1-.09.19-.17.28-.08.09-.18.16-.3.21s-.26.08-.43.07h-.33c-.16,0-.31-.01-.43-.07-.12-.05-.22-.12-.3-.21-.08-.09-.13-.18-.17-.28-.04-.1-.06-.18-.06-.26v-.1s0-.01,0-.06.02-.1.04-.16.05-.13.09-.2c.04-.07.1-.14.17-.21.07-.06.17-.12.28-.15.11-.04.25-.05.41-.04h.24ZM150.36,20.44c.22,0,.37-.05.46-.16s.14-.22.15-.34v-.05s0-.08,0-.08v-.05c-.02-.11-.07-.22-.15-.33-.09-.11-.24-.16-.46-.16h-.46c-.22,0-.37.05-.46.16-.09.11-.14.22-.15.33v.05s0,.08,0,.08v.05c.02.12.07.23.16.34.09.1.24.16.46.16h.46Z"/>
        <path class="cls-5" d="M153.81,18.35h.28s0,0,0,.05v1.68c0,.12-.01.22-.04.3s-.07.15-.12.2c-.06.05-.13.09-.22.11-.09.02-.21.04-.35.04h-.57c-.16,0-.31-.01-.43-.07-.12-.05-.23-.12-.3-.21-.08-.09-.14-.18-.17-.27-.04-.1-.06-.18-.06-.26v-.1s0-.01,0-.06c0-.05.02-.1.04-.16.02-.06.05-.13.09-.2.04-.07.1-.14.17-.2.08-.06.17-.11.29-.15.12-.04.25-.05.41-.04h.97v-.66ZM153.81,19.29h-1.08c-.18,0-.31.04-.4.11s-.15.15-.18.23c-.03.08-.04.14-.04.19v.08c0,.06.01.13.04.21.03.08.09.16.18.23.09.07.22.1.4.1h.75c.09,0,.15-.02.2-.06.05-.04.08-.09.1-.15.02-.07.03-.15.03-.24v-.71Z"/>
        <path class="cls-5" d="M156.29,20.4c.08-.03.14-.07.19-.12s.09-.12.12-.2c.03-.08.04-.16.04-.24v-.9h.29v.9c0,.16-.04.31-.12.45-.08.14-.19.25-.32.33-.13.08-.28.12-.44.12h-.56c-.16,0-.3-.04-.44-.12-.13-.08-.24-.19-.32-.33-.08-.14-.12-.29-.12-.45v-.9h.29s0,0,0,.02v.87c0,.08.01.16.04.24.03.08.07.15.12.2s.11.09.19.12c.08.03.15.04.23.04h.56c.08,0,.15-.01.23-.04Z"/>
        <path class="cls-5" d="M158.08,19.32c-.08.03-.14.07-.19.12s-.09.12-.12.19c-.03.08-.04.16-.04.23s.01.16.04.23c.03.08.07.14.12.19s.12.09.19.12.16.04.23.04h1.43v.29h-1.43c-.16,0-.3-.04-.44-.12-.13-.08-.24-.18-.32-.32-.08-.13-.12-.28-.12-.44s.04-.3.12-.44c.08-.13.18-.24.32-.32.13-.08.28-.12.44-.12h1.43v.29h-1.43c-.08,0-.16.01-.23.04Z"/>
        <path class="cls-5" d="M161.77,20.44v.29h-.54c-.15,0-.3-.04-.43-.11-.13-.08-.24-.18-.32-.31-.08-.13-.12-.27-.12-.43v-1.55h.29s0,0,0,.02v.64h.67s0,0,0,.02v.26s0,0-.03,0h-.65v.62c0,.13.03.23.1.32s.13.15.21.19c.04.02.09.04.16.05.07,0,.13,0,.18,0h.48Z"/>
        <path class="cls-5" d="M163.62,18.99c.16,0,.29,0,.41.04.12.04.21.09.28.15.07.06.13.13.17.21.04.07.07.14.09.2.02.06.03.12.04.16s0,.07,0,.06v.1c0,.08-.02.16-.06.26-.04.1-.09.19-.17.28-.08.09-.18.16-.3.21s-.26.08-.43.07h-.33c-.16,0-.3-.01-.43-.07s-.22-.12-.3-.21c-.08-.09-.13-.18-.17-.28-.04-.1-.06-.18-.06-.26v-.1s0-.01,0-.06c0-.05.02-.1.04-.16s.05-.13.09-.2c.04-.07.1-.14.17-.21.07-.06.17-.12.28-.15s.25-.05.41-.04h.24ZM163.74,20.44c.22,0,.37-.05.46-.16s.14-.22.15-.34v-.05s0-.08,0-.08v-.05c-.02-.11-.07-.22-.15-.33-.09-.11-.24-.16-.46-.16h-.46c-.22,0-.37.05-.46.16-.09.11-.14.22-.15.33v.05s0,.08,0,.08v.05c.02.12.07.23.16.34.09.1.24.16.46.16h.46Z"/>
        <path class="cls-5" d="M167.05,19.73c.12,0,.22.05.31.12.09.07.13.21.13.41,0,.11-.03.2-.08.27-.05.07-.12.12-.2.16-.08.03-.16.05-.24.05h-1.78v-.29s1.77,0,1.77,0c.06,0,.12-.01.17-.04.05-.03.08-.09.08-.19,0-.06-.02-.11-.05-.14-.04-.03-.08-.04-.12-.05s-.07,0-.08,0h-1.29c-.07,0-.14-.02-.22-.06-.08-.04-.14-.09-.2-.18-.06-.08-.08-.19-.08-.32,0-.11.03-.21.09-.28s.13-.13.21-.16c.08-.04.16-.05.23-.06h1.61v.29h-1.59c-.07,0-.13.01-.18.04-.06.03-.08.1-.08.21,0,.09.03.15.08.18.05.03.1.04.15.04h1.38Z"/>
        <path class="cls-5" d="M171.15,18.97v1.52c-.01.17-.05.33-.13.45-.09.16-.2.27-.32.34-.12.07-.27.11-.45.11h-1.24s-.02,0-.02-.02v-.25s0-.02.02-.02h1.24c.06,0,.12,0,.17-.01.05,0,.09-.03.13-.05.05-.04.1-.07.13-.1s.06-.06.08-.11l.04-.09h-1.13c-.13,0-.25-.02-.36-.08-.11-.05-.19-.11-.26-.18-.07-.07-.12-.15-.18-.26-.05-.11-.08-.22-.08-.33v-.92s0-.02,0-.02h.3s0,0,0,.02v.94c0,.06.01.12.04.18s.04.11.07.13c.01.01.03.04.07.07.03.03.08.07.14.09.06.03.13.05.22.06h1.24s0-1.47,0-1.47c0-.02,0-.02.02-.02h.25s.02,0,.02.02Z"/>
        <path class="cls-5" d="M174.36,19.73c.12,0,.22.05.31.12.09.07.13.21.13.41,0,.11-.03.2-.08.27-.05.07-.12.12-.2.16-.08.03-.16.05-.24.05h-1.78v-.29s1.77,0,1.77,0c.06,0,.12-.01.17-.04.05-.03.08-.09.08-.19,0-.06-.02-.11-.05-.14-.04-.03-.08-.04-.12-.05s-.07,0-.08,0h-1.29c-.07,0-.14-.02-.22-.06-.08-.04-.14-.09-.2-.18-.06-.08-.08-.19-.08-.32,0-.11.03-.21.09-.28.06-.07.13-.13.21-.16.08-.04.16-.05.23-.06h1.61v.29h-1.59c-.07,0-.13.01-.18.04-.06.03-.08.1-.08.21,0,.09.03.15.08.18.05.03.1.04.15.04h1.38Z"/>
        <path class="cls-5" d="M177.35,19.09c.08.07.14.14.17.23.03.08.04.16.04.22,0,.31-.17.48-.52.49h-1.38s0,.07,0,.07c0,.08,0,.14.02.19s.04.08.07.1c.03.02.08.04.14.04.06,0,.14.01.24.01h1.29s.06.02.06.05v.17s-.02.06-.06.06h-1.33c-.19,0-.33-.02-.44-.06-.11-.04-.18-.11-.23-.2s-.07-.21-.07-.37v-.44c0-.1.04-.21.12-.31.08-.1.18-.19.3-.26s.25-.1.38-.1h.84c.15,0,.27.03.36.1ZM177.15,19.72s.05-.03.08-.06c.02-.02.03-.04.04-.07,0-.03.01-.06.01-.11,0-.02,0-.05-.02-.08-.01-.03-.03-.06-.07-.09-.03-.03-.08-.04-.13-.04h-.92c-.07,0-.14.02-.21.06s-.14.1-.19.17-.08.15-.08.23h1.37c.06,0,.1,0,.12-.01Z"/>
        <path class="cls-5" d="M180.07,19.25h-.99s-.11,0-.17,0c-.06,0-.12,0-.17.02-.05.02-.1.04-.14.08-.04.04-.07.08-.08.14-.02.05-.03.1-.03.14,0,.04,0,.11,0,.21v.87s0,.02-.02.02h-.25s-.02,0-.02-.02v-.89s0-.1,0-.19c0-.09.02-.18.05-.27.03-.09.1-.17.19-.24.06-.04.12-.08.18-.1.07-.02.13-.04.19-.05.06,0,.12-.01.17-.01h1.1v.29Z"/>
        <path class="cls-5" d="M180.77,18.95l1.03,1.55h.04l1.03-1.55h.35l-1.04,1.55c-.08.13-.14.21-.16.24h-.4c-.05-.07-.1-.15-.16-.24l-1.03-1.55h.35Z"/>
        <path class="cls-5" d="M183.91,18.14v.31h-.31v-.31h.31ZM183.91,18.85v1.88h-.31v-1.88h.31Z"/>
        <path class="cls-5" d="M185.15,19.32c-.08.03-.14.07-.19.12s-.09.12-.12.19c-.03.08-.04.16-.04.23s.01.16.04.23c.03.08.07.14.12.19s.12.09.19.12.16.04.23.04h1.43v.29h-1.43c-.16,0-.3-.04-.44-.12-.13-.08-.24-.18-.32-.32-.08-.13-.12-.28-.12-.44s.04-.3.12-.44c.08-.13.18-.24.32-.32.13-.08.28-.12.44-.12h1.43v.29h-1.43c-.08,0-.16.01-.23.04Z"/>
        <path class="cls-5" d="M187.74,18.14v.31h-.31v-.31h.31ZM187.74,18.85v1.88h-.31v-1.88h.31Z"/>
        <path class="cls-5" d="M189.62,18.99c.16,0,.29,0,.41.04s.21.09.28.15c.07.06.13.13.17.21.04.07.07.14.09.2.02.06.03.12.04.16s0,.07,0,.06v.1c0,.08-.02.16-.06.26-.04.1-.09.19-.17.28-.08.09-.18.16-.3.21s-.26.08-.43.07h-.33c-.16,0-.3-.01-.43-.07-.12-.05-.22-.12-.3-.21-.08-.09-.13-.18-.17-.28-.04-.1-.06-.18-.06-.26v-.1s0-.01,0-.06.02-.1.04-.16.05-.13.09-.2c.04-.07.1-.14.17-.21.08-.06.17-.12.28-.15.12-.04.25-.05.41-.04h.24ZM189.73,20.44c.22,0,.37-.05.46-.16.09-.1.14-.22.15-.34v-.05s0-.08,0-.08v-.05c-.02-.11-.07-.22-.15-.33-.09-.11-.24-.16-.46-.16h-.46c-.22,0-.37.05-.46.16-.09.11-.14.22-.15.33v.05s0,.08,0,.08v.05c.02.12.07.23.16.34.09.1.24.16.46.16h.46Z"/>
        <path class="cls-5" d="M193.04,19.73c.12,0,.22.05.31.12s.13.21.13.41c0,.11-.03.2-.08.27-.05.07-.12.12-.2.16-.08.03-.16.05-.24.05h-1.78v-.29s1.77,0,1.77,0c.06,0,.12-.01.17-.04.05-.03.08-.09.08-.19,0-.06-.02-.11-.05-.14-.04-.03-.08-.04-.12-.05s-.07,0-.08,0h-1.29c-.07,0-.14-.02-.22-.06-.08-.04-.14-.09-.2-.18-.06-.08-.08-.19-.08-.32,0-.11.03-.21.09-.28.06-.07.13-.13.21-.16.08-.04.16-.05.23-.06h1.61v.29h-1.59c-.07,0-.13.01-.18.04-.06.03-.08.1-.08.21,0,.09.03.15.08.18.05.03.1.04.15.04h1.38Z"/>
      </g>
      <rect class="cls-1" x="205.51" y="18.11" width="4.16" height="1.32"/>
      <rect class="cls-28" x="205.51" y="19.43" width="4.16" height=".66"/>
      <rect class="cls-2" x="205.51" y="20.09" width="4.16" height=".66"/>
      <rect class="cls-24" x="200.42" y="18.11" width="1.39" height="2.63"/>
      <rect class="cls-24" x="203.2" y="18.11" width="1.39" height="2.63"/>
      <rect class="cls-8" x="201.81" y="18.11" width="1.39" height="2.63"/>
      <polyline class="cls-16" points="199.49 20.75 195.33 20.75 195.33 19.43 199.49 19.43"/>
      <rect class="cls-21" x="195.33" y="18.11" width="1.39" height="1.32"/>
      <rect class="cls-8" x="196.72" y="18.11" width="2.77" height="1.32"/>
      <polygon class="cls-8" points="195.69 18.67 195.95 18.67 196.03 18.44 196.1 18.67 196.35 18.67 196.15 18.81 196.23 19.04 196.02 18.9 195.82 19.04 195.9 18.81 195.69 18.67"/>
    </g>
    <g>
      <path class="cls-19" d="M196.52,66.43l.66-1.04v-10.95c0-.51-.41-.93-.93-.93h-16.78c-.51,0-.93.41-.93.93s.42.93.93.93h14.91c.51,0,.93.41.93.93l.02,9.25.54.89c.16.25.48.26.64,0"/>
      <path class="cls-18" d="M198.71,63.3c-.12,0-.24.07-.32.19l-1.21,1.91-.66,1.04c-.16.25-.48.25-.64,0l-.54-.89-1.26-2.05c-.07-.12-.19-.19-.32-.19h-1.14l3.22,5.22h.73l3.22-5.22h-1.08Z"/>
      <path class="cls-18" d="M184.11,55.1c0,2.84-2.3,5.13-5.13,5.13s-5.14-2.3-5.14-5.13,2.3-5.13,5.14-5.13,5.13,2.3,5.13,5.13"/>
      <path class="cls-10" d="M168.51,58.55h-19.77c-1.01,0-1.83.84-1.83,1.87v37.21c0,1.03.82,1.87,1.83,1.87h27.25c1.01,0,1.83-.84,1.83-1.87v-29.21l-9.31-9.87Z"/>
      <path class="cls-19" d="M167.8,60.37h-17.51c-.89,0-1.62.76-1.62,1.71v33.91c0,.94.72,1.71,1.62,1.71h24.13c.89,0,1.62-.76,1.62-1.71v-26.62l-8.24-9Z"/>
      <path class="cls-8" d="M165.34,70.19l-.09-8.31c0-.43-.35-.78-.77-.78h-14.19c-.43,0-.77.35-.77.79v34.27c0,.44.35.79.77.79h24.16c.43,0,.77-.35.77-.79v-24.4c0-.44-.35-.79-.77-.79h-8.32c-.42,0-.77-.35-.77-.78"/>
      <path class="cls-18" d="M163.37,66.5h-10.95c-.25,0-.45-.35-.45-.79s.2-.79.45-.79h10.95c.25,0,.45.35.45.79s-.2.79-.45.79"/>
      <path class="cls-18" d="M163.37,70.96h-10.95c-.25,0-.45-.35-.45-.79h0c0-.44.2-.79.45-.79h10.95c.25,0,.45.36.45.79h0c0,.44-.2.79-.45.79"/>
      <polygon class="cls-4" points="172.96 88.33 151.69 88.33 151.69 73.26 152.26 73.26 152.26 87.75 172.96 87.75 172.96 88.33"/>
      <polygon class="cls-22" points="154.07 86.49 153.62 86.13 157.66 81.13 160.1 84.86 162.37 81.98 164.8 82.97 168.36 76.41 168.86 76.69 165.06 83.7 162.56 82.68 160.06 85.84 157.61 82.1 154.07 86.49"/>
      <path class="cls-22" d="M169.44,75.02c-.12.86-.15,2,.03,2.82l-.97-1.09-1.44-.22c.78-.29,1.72-.94,2.38-1.51"/>
      <path class="cls-4" d="M172.17,91.59h-19.4c-.44,0-.79-.35-.79-.79h0c0-.44.36-.79.79-.79h19.4c.44,0,.79.35.79.79h0c0,.44-.36.79-.79.79"/>
      <path class="cls-4" d="M172.17,94.9h-19.4c-.44,0-.79-.35-.79-.79s.35-.79.79-.79h19.4c.44,0,.79.35.79.79s-.35.79-.79.79"/>
      <rect class="cls-4" x="160.74" y="73.14" width="3.38" height=".77"/>
      <rect class="cls-4" x="156.25" y="73.14" width="3.72" height=".77"/>
      <rect class="cls-4" x="154" y="73.14" width="1.49" height=".77"/>
      <rect class="cls-4" x="159.03" y="74.87" width="5.09" height=".77"/>
      <rect class="cls-4" x="154" y="74.87" width="4.27" height=".77"/>
      <rect class="cls-4" x="161.29" y="76.6" width="2.83" height=".77"/>
      <rect class="cls-4" x="155.99" y="76.6" width="4.53" height=".77"/>
      <rect class="cls-4" x="154" y="76.6" width="1.22" height=".77"/>
      <path class="cls-10" d="M189.6,73.7h-19.77c-1.01,0-1.83.84-1.83,1.87v37.21c0,1.03.82,1.87,1.83,1.87h27.25c1.01,0,1.83-.84,1.83-1.87v-29.21l-9.31-9.87Z"/>
      <path class="cls-19" d="M188.89,75.52h-17.51c-.89,0-1.62.76-1.62,1.71v33.91c0,.94.72,1.71,1.62,1.71h24.13c.89,0,1.62-.76,1.62-1.71v-26.62l-8.24-9Z"/>
      <path class="cls-8" d="M186.43,85.34l-.09-8.31c0-.43-.35-.78-.77-.78h-14.19c-.43,0-.77.35-.77.79v34.27c0,.44.35.79.77.79h24.16c.43,0,.77-.35.77-.79v-24.4c0-.44-.35-.79-.77-.79h-8.32c-.42,0-.77-.35-.77-.78"/>
      <path class="cls-4" d="M184.11,82.07h-10.67c-.45,0-.82-.37-.82-.82s.37-.82.82-.82h10.67c.45,0,.82.37.82.82s-.37.82-.82.82"/>
      <polygon class="cls-7" points="193.28 102.02 172.13 102.02 172.13 87.04 172.7 87.04 172.7 101.45 193.28 101.45 193.28 102.02"/>
      <path class="cls-4" d="M192.49,104.55h-19.29c-.43,0-.79-.19-.79-.43h0c0-.24.35-.43.79-.43h19.29c.43,0,.79.19.79.43h0c0,.24-.35.43-.79.43"/>
      <path class="cls-4" d="M192.49,106.99h-19.29c-.44,0-.79-.19-.79-.43s.35-.43.79-.43h19.29c.44,0,.79.19.79.43s-.35.43-.79.43"/>
      <rect class="cls-4" x="181.13" y="86.93" width="3.36" height=".76"/>
      <rect class="cls-4" x="176.67" y="86.93" width="3.7" height=".76"/>
      <rect class="cls-4" x="174.43" y="86.93" width="1.48" height=".76"/>
      <rect class="cls-4" x="179.44" y="88.64" width="5.06" height=".76"/>
      <rect class="cls-4" x="174.43" y="88.64" width="4.25" height=".76"/>
      <rect class="cls-4" x="181.68" y="90.36" width="2.82" height=".76"/>
      <rect class="cls-4" x="176.41" y="90.36" width="4.51" height=".76"/>
      <rect class="cls-4" x="174.43" y="90.36" width="1.22" height=".76"/>
      <rect class="cls-3" x="188.63" y="93.88" width=".5" height="5.32" transform="translate(-19.2 137.77) rotate(-38.28)"/>
      <rect class="cls-3" x="175.04" y="97.56" width="5.32" height=".5" transform="translate(-9.62 19.99) rotate(-6.27)"/>
      <polygon class="cls-3" points="180.86 97.26 186.88 94.28 187.1 94.73 181.08 97.71 180.86 97.26"/>
      <rect class="cls-3" x="190.3" y="97.01" width="4.03" height=".5" transform="translate(-23.2 96.3) rotate(-26.57)"/>
      <polygon class="cls-3" points="194.72 96.38 194.38 96.91 194.09 96.35 193.8 95.79 194.43 95.82 195.06 95.85 194.72 96.38"/>
      <path class="cls-17" d="M176.07,98.2c0,.74-.6,1.34-1.34,1.34s-1.34-.6-1.34-1.34.6-1.34,1.34-1.34,1.34.6,1.34,1.34"/>
      <path class="cls-7" d="M181.64,97.61c0,.56-.45,1.01-1.01,1.01s-1.02-.45-1.02-1.01.45-1.01,1.02-1.01,1.01.45,1.01,1.01"/>
      <path class="cls-18" d="M191.81,98.27c0,.74-.6,1.34-1.34,1.34s-1.34-.6-1.34-1.34.6-1.34,1.34-1.34,1.34.6,1.34,1.34"/>
      <path class="cls-12" d="M188.23,94.22c0,.63-.51,1.14-1.14,1.14s-1.14-.51-1.14-1.14.51-1.14,1.14-1.14,1.14.51,1.14,1.14"/>
      <rect class="cls-20" x="199.84" y="102.16" width="1.97" height="20.11" transform="translate(-20.52 174.91) rotate(-45.01)"/>
      <path class="cls-9" d="M186.83,109.53c-1.98,0-3.93-.52-5.64-1.51-1.71-.99-3.15-2.42-4.14-4.14-.99-1.71-1.52-3.67-1.52-5.65s.53-3.94,1.52-5.65c.98-1.71,2.42-3.15,4.14-4.14,3.42-1.98,7.88-1.98,11.3,0,1.72,1,3.15,2.42,4.14,4.14,1,1.71,1.52,3.67,1.52,5.65s-.52,3.94-1.52,5.65c-.99,1.71-2.41,3.15-4.14,4.14-1.71.99-3.66,1.51-5.65,1.51M186.83,89.22c-1.58,0-3.14.42-4.5,1.21-1.37.79-2.5,1.93-3.3,3.3-.78,1.37-1.2,2.92-1.2,4.51s.42,3.14,1.2,4.5c.79,1.37,1.93,2.5,3.3,3.3,2.73,1.57,6.29,1.57,9.01,0,1.37-.79,2.51-1.93,3.3-3.3.79-1.37,1.21-2.92,1.21-4.5s-.42-3.15-1.21-4.51c-.79-1.37-1.93-2.51-3.3-3.3-1.36-.79-2.92-1.21-4.51-1.21"/>
      <path class="cls-6" d="M208.94,120.81c-.51.51-1.34.51-1.85,0l-10.91-10.91c-.12-.12-.19-.29-.19-.46s.07-.34.19-.46l1.39-1.39c.26-.25.67-.25.93,0l10.9,10.9c.25.24.25,1.61,0,1.85l-.47.47Z"/>
      <g class="cls-27">
        <g class="cls-25">
          <path class="cls-23" d="M195.97,98.23c0,1.67-.44,3.22-1.22,4.57-.79,1.39-1.95,2.54-3.34,3.35-1.35.78-2.9,1.22-4.58,1.22s-3.22-.45-4.57-1.22c-1.38-.8-2.55-1.96-3.34-3.35-.78-1.35-1.22-2.91-1.22-4.57s.44-3.23,1.22-4.57c.79-1.39,1.96-2.54,3.34-3.35,1.35-.78,2.91-1.22,4.57-1.22s3.23.45,4.58,1.22c1.39.81,2.55,1.96,3.34,3.35.78,1.34,1.22,2.91,1.22,4.57"/>
        </g>
      </g>
      <path class="cls-19" d="M198.51,107.59c-.25-.25-.67-.25-.92,0l-.66.65,12.3,12.3.19-.19c.24-.24.39-.58.39-.92s-.15-.68-.39-.92l-10.91-10.91Z"/>
    </g>
    <g>
      <rect class="cls-10" x="178.14" y="158.38" width="26.31" height="21.66"/>
      <rect class="cls-8" x="179.74" y="164.14" width="23.11" height="14.74"/>
      <rect class="cls-8" x="179.76" y="159.57" width="23.08" height="3.41"/>
      <rect class="cls-10" x="192.66" y="160.14" width="2.08" height="2.08"/>
      <rect class="cls-10" x="196.2" y="160.14" width="2.08" height="2.08"/>
      <rect class="cls-10" x="199.74" y="160.14" width="2.08" height="2.08"/>
      <path class="cls-10" d="M184.85,161.27h-10.47c-.53,0-.97.44-.97.99v19.71c0,.55.43.99.97.99h14.44c.53,0,.97-.44.97-.99v-15.47l-4.93-5.23Z"/>
      <path class="cls-19" d="M184.47,162.23h-9.27c-.47,0-.86.41-.86.9v17.96c0,.5.38.9.86.9h12.78c.47,0,.86-.4.86-.9v-14.1l-4.36-4.77Z"/>
      <path class="cls-8" d="M183.17,167.44l-.05-4.4c0-.23-.18-.41-.41-.41h-7.52c-.23,0-.41.19-.41.42v18.15c0,.23.18.42.41.42h12.79c.23,0,.41-.19.41-.42v-12.92c0-.23-.18-.42-.41-.42h-4.41c-.22,0-.41-.18-.41-.41"/>
      <path class="cls-18" d="M182.12,165.48h-5.8c-.13,0-.24-.19-.24-.42s.11-.42.24-.42h5.8c.13,0,.24.19.24.42s-.11.42-.24.42"/>
      <path class="cls-18" d="M182.12,167.84h-5.8c-.13,0-.24-.19-.24-.42h0c0-.23.11-.42.24-.42h5.8c.13,0,.24.19.24.42h0c0,.23-.11.42-.24.42"/>
      <polygon class="cls-4" points="187.2 177.04 175.93 177.04 175.93 169.06 176.24 169.06 176.24 176.74 187.2 176.74 187.2 177.04"/>
      <polygon class="cls-22" points="177.2 176.07 176.96 175.88 179.1 173.23 180.39 175.2 181.6 173.68 182.88 174.2 184.77 170.73 185.03 170.88 183.02 174.59 181.69 174.05 180.37 175.73 179.07 173.75 177.2 176.07"/>
      <path class="cls-22" d="M185.34,170c-.07.46-.08,1.06.02,1.49l-.51-.58-.76-.11c.41-.15.91-.5,1.26-.8"/>
      <path class="cls-4" d="M186.78,178.77h-10.28c-.23,0-.42-.19-.42-.42h0c0-.23.19-.42.42-.42h10.28c.23,0,.42.19.42.42h0c0,.23-.19.42-.42.42"/>
      <path class="cls-4" d="M186.78,180.52h-10.28c-.23,0-.42-.19-.42-.42s.19-.42.42-.42h10.28c.23,0,.42.19.42.42s-.19.42-.42.42"/>
      <rect class="cls-4" x="180.73" y="169" width="1.79" height=".41"/>
      <rect class="cls-4" x="178.35" y="169" width="1.97" height=".41"/>
      <rect class="cls-4" x="177.16" y="169" width=".79" height=".41"/>
      <rect class="cls-4" x="179.83" y="169.92" width="2.69" height=".41"/>
      <rect class="cls-4" x="177.16" y="169.92" width="2.26" height=".41"/>
      <rect class="cls-4" x="181.02" y="170.83" width="1.5" height=".41"/>
      <rect class="cls-4" x="178.21" y="170.83" width="2.4" height=".41"/>
      <rect class="cls-4" x="177.16" y="170.83" width=".65" height=".41"/>
      <path class="cls-10" d="M196.02,169.3h-10.47c-.53,0-.97.44-.97.99v19.71c0,.55.43.99.97.99h14.44c.53,0,.97-.44.97-.99v-15.47l-4.93-5.23Z"/>
      <path class="cls-19" d="M195.64,170.26h-9.27c-.47,0-.86.41-.86.9v17.96c0,.5.38.9.86.9h12.78c.47,0,.86-.4.86-.9v-14.1l-4.36-4.77Z"/>
      <path class="cls-8" d="M194.34,175.46l-.05-4.4c0-.23-.18-.41-.41-.41h-7.52c-.23,0-.41.19-.41.42v18.15c0,.23.18.42.41.42h12.79c.23,0,.41-.19.41-.42v-12.92c0-.23-.18-.42-.41-.42h-4.41c-.22,0-.41-.19-.41-.41"/>
      <path class="cls-4" d="M193.11,173.73h-5.65c-.24,0-.43-.19-.43-.43s.19-.43.43-.43h5.65c.24,0,.43.19.43.43s-.19.43-.43.43"/>
      <polygon class="cls-7" points="197.97 184.3 186.76 184.3 186.76 176.36 187.07 176.36 187.07 183.99 197.97 183.99 197.97 184.3"/>
      <path class="cls-4" d="M197.55,185.63h-10.22c-.23,0-.42-.1-.42-.23h0c0-.13.19-.23.42-.23h10.22c.23,0,.42.1.42.23h0c0,.13-.19.23-.42.23"/>
      <path class="cls-4" d="M197.55,186.93h-10.22c-.23,0-.42-.1-.42-.23s.19-.23.42-.23h10.22c.23,0,.42.1.42.23s-.19.23-.42.23"/>
      <rect class="cls-4" x="191.53" y="176.3" width="1.78" height=".4"/>
      <rect class="cls-4" x="189.17" y="176.3" width="1.96" height=".4"/>
      <rect class="cls-4" x="187.98" y="176.3" width=".78" height=".4"/>
      <rect class="cls-4" x="190.63" y="177.21" width="2.68" height=".4"/>
      <rect class="cls-4" x="187.98" y="177.21" width="2.25" height=".4"/>
      <rect class="cls-4" x="191.82" y="178.12" width="1.49" height=".4"/>
      <rect class="cls-4" x="189.03" y="178.12" width="2.39" height=".4"/>
      <rect class="cls-4" x="187.98" y="178.12" width=".64" height=".4"/>
      <polygon class="cls-3" points="196.4 182.58 194.66 180.37 194.87 180.2 196.61 182.42 196.4 182.58"/>
      <rect class="cls-3" x="188.3" y="181.93" width="2.82" height=".27" transform="translate(-18.76 21.83) rotate(-6.28)"/>
      <rect class="cls-3" x="191.26" y="180.97" width="3.56" height=".27" transform="translate(-60.29 104.37) rotate(-26.32)"/>
      <polygon class="cls-3" points="196.44 182.14 198.35 181.18 198.47 181.42 196.56 182.37 196.44 182.14"/>
      <polygon class="cls-3" points="198.73 181.31 198.55 181.59 198.4 181.29 198.24 181 198.58 181.01 198.91 181.03 198.73 181.31"/>
      <path class="cls-17" d="M188.85,182.27c0,.39-.32.71-.71.71s-.71-.32-.71-.71.32-.71.71-.71.71.32.71.71"/>
      <path class="cls-7" d="M191.8,181.96c0,.3-.24.54-.54.54s-.54-.24-.54-.54.24-.54.54-.54.54.24.54.54"/>
      <path class="cls-18" d="M197.19,182.31c0,.39-.32.71-.71.71s-.71-.32-.71-.71.32-.71.71-.71.71.32.71.71"/>
      <path class="cls-12" d="M195.29,180.16c0,.33-.27.6-.6.6s-.6-.27-.6-.6.27-.6.6-.6.6.27.6.6"/>
      <rect class="cls-20" x="200.33" y="182.44" width="1.04" height="10.65" transform="translate(-73.94 197.08) rotate(-45.01)"/>
      <path class="cls-9" d="M193.44,186.34c-1.05,0-2.08-.28-2.99-.8-.91-.53-1.67-1.28-2.19-2.19-.52-.91-.81-1.94-.81-2.99s.28-2.09.81-3c.52-.91,1.28-1.67,2.19-2.19,1.81-1.05,4.17-1.05,5.99,0,.91.53,1.67,1.28,2.19,2.19.53.91.8,1.94.8,3s-.28,2.09-.8,2.99c-.52.91-1.28,1.67-2.19,2.19-.91.52-1.94.8-2.99.8M193.44,175.58c-.84,0-1.66.22-2.38.64-.73.42-1.33,1.02-1.75,1.75-.41.72-.64,1.55-.64,2.39s.22,1.66.64,2.39c.42.72,1.02,1.33,1.75,1.75,1.45.83,3.33.83,4.77,0,.73-.42,1.33-1.02,1.75-1.75.42-.72.64-1.55.64-2.39s-.22-1.67-.64-2.39c-.42-.72-1.02-1.33-1.75-1.75-.72-.42-1.55-.64-2.39-.64"/>
      <path class="cls-6" d="M205.16,192.32c-.27.27-.71.27-.98,0l-5.78-5.78c-.07-.06-.1-.15-.1-.25s.04-.18.1-.25l.74-.74c.14-.13.35-.13.49,0l5.78,5.78c.13.13.13.85,0,.98l-.25.25Z"/>
      <g class="cls-27">
        <g class="cls-13">
          <path class="cls-23" d="M198.29,180.36c0,.88-.23,1.71-.65,2.42-.42.74-1.03,1.35-1.77,1.77-.71.41-1.54.65-2.42.65s-1.71-.24-2.42-.65c-.73-.43-1.35-1.04-1.77-1.77-.41-.71-.65-1.54-.65-2.42s.23-1.71.65-2.42c.42-.74,1.04-1.35,1.77-1.77.71-.41,1.54-.65,2.42-.65s1.71.24,2.42.65c.74.43,1.35,1.04,1.77,1.77.42.71.65,1.54.65,2.42"/>
        </g>
      </g>
      <path class="cls-19" d="M199.63,185.31c-.13-.13-.35-.13-.49,0l-.35.34,6.51,6.52.1-.1c.13-.13.2-.31.2-.49s-.08-.36-.2-.49l-5.78-5.78Z"/>
      <path class="cls-19" d="M208.32,172.33l.3-.47v-4.98c0-.23-.19-.42-.42-.42h-9.14c-.23,0-.42.19-.42.42s.19.42.42.42h8.29c.23,0,.42.19.42.42v4.2s.26.4.26.4c.07.12.22.12.29,0"/>
      <path class="cls-18" d="M209.32,170.91c-.06,0-.11.03-.14.09l-.55.87-.3.47c-.07.11-.22.11-.29,0l-.25-.4-.57-.93c-.03-.06-.09-.09-.15-.09h-.52l1.46,2.37h.33l1.46-2.37h-.49Z"/>
      <path class="cls-18" d="M201.17,167.18c0,1.29-1.05,2.33-2.33,2.33s-2.33-1.05-2.33-2.33,1.04-2.33,2.33-2.33,2.33,1.05,2.33,2.33"/>
    </g>
  </g>
</svg>