<?xml version="1.0" encoding="UTF-8"?>
<svg id="Capa_2" xmlns="http://www.w3.org/2000/svg" xmlns:xlink="http://www.w3.org/1999/xlink" viewBox="0 0 167.4 221.02">
  <defs>
    <style>
      .cls-1 {
        fill: #b2b1b1;
      }

      .cls-2 {
        fill: #cc2421;
      }

      .cls-3 {
        fill: #3b3b3b;
      }

      .cls-4 {
        fill: #f9cf16;
      }

      .cls-5 {
        fill: #cd142a;
      }

      .cls-6 {
        fill: #646365;
      }

      .cls-7 {
        fill: #777;
      }

      .cls-8 {
        clip-path: url(#clippath-4);
      }

      .cls-9 {
        mask: url(#mask-1);
      }

      .cls-10 {
        fill: #2a2d30;
      }

      .cls-11 {
        fill: #82abcf;
      }

      .cls-12 {
        fill: #fff;
      }

      .cls-13 {
        mask: url(#mask);
      }

      .cls-14 {
        fill: #625f60;
      }

      .cls-15 {
        fill: #4681b6;
      }

      .cls-16 {
        fill: #c5c3c3;
      }

      .cls-17 {
        fill: #505050;
      }

      .cls-18 {
        fill: none;
      }

      .cls-19 {
        fill: #1e2d4f;
      }

      .cls-20 {
        fill: #dcedf5;
      }

      .cls-21 {
        clip-path: url(#clippath-1);
      }

      .cls-22 {
        fill: #dbac85;
      }

      .cls-23 {
        fill: #d00e4d;
      }

      .cls-24 {
        fill: #f6a107;
      }

      .cls-25 {
        fill: url(#Degradado_sin_nombre_2);
      }

      .cls-26 {
        isolation: isolate;
      }

      .cls-27 {
        clip-path: url(#clippath-5);
      }

      .cls-28 {
        fill: #0a589f;
      }

      .cls-29 {
        fill: #fffcfd;
      }

      .cls-30 {
        clip-path: url(#clippath-3);
      }

      .cls-31 {
        fill: #d00e4c;
      }

      .cls-32 {
        fill: #d22e1f;
      }

      .cls-33 {
        fill: #236dab;
      }

      .cls-34 {
        fill: #d20f48;
      }

      .cls-35 {
        fill: #1d458c;
      }

      .cls-36 {
        fill: #dd4c75;
      }

      .cls-37 {
        fill: #0b0a0b;
      }

      .cls-38 {
        clip-path: url(#clippath-2);
      }

      .cls-39 {
        fill: #48a98e;
      }

      .cls-40 {
        fill: #e1222c;
      }

      .cls-41 {
        fill: url(#Degradado_sin_nombre_2-2);
      }

      .cls-42 {
        clip-path: url(#clippath);
      }

      .cls-43 {
        fill: #828384;
      }

      .cls-44 {
        fill: #1b4180;
      }

      .cls-45 {
        fill: #393c41;
      }
    </style>
    <clipPath id="clippath">
      <rect class="cls-18" x="163.03" y="180.71" width="2.73" height="3.71"/>
    </clipPath>
    <mask id="mask" x="159.84" y="177.92" width="9.56" height="8.85" maskUnits="userSpaceOnUse">
      <g>
        <rect x="163.03" y="180.71" width="2.73" height="3.71"/>
        <g class="cls-26">
          <g class="cls-42">
            <path class="cls-12" d="M159.84,186.77h9.56v-8.85h-9.56v8.85ZM164.81,184.42c.01-.1.1-.19.23-.16.18.05.35.12.45.28.08.14-.04.27-.16.27.08.17-.18.4-.29.21-.1-.18-.24-.24-.35-.39-.06-.08.05-.19.12-.22"/>
          </g>
        </g>
      </g>
    </mask>
    <clipPath id="clippath-1">
      <rect class="cls-18" x="163.03" y="180.71" width="2.73" height="3.71"/>
    </clipPath>
    <clipPath id="clippath-2">
      <path class="cls-18" d="M163.03,182.42c0-1.41.74-1.7,1.36-1.7s1.36.29,1.36,1.7-.68,2-1.36,2-1.36-.62-1.36-2M163.4,182.42c0,1,.41,1.7.99,1.7s.99-.7.99-1.7c0-1.41-.75-1.41-.99-1.41s-.99,0-.99,1.41"/>
    </clipPath>
    <linearGradient id="Degradado_sin_nombre_2" data-name="Degradado sin nombre 2" x1="-15642.83" y1="-3624.38" x2="-15641.83" y2="-3624.38" gradientTransform="translate(-13270.05 58163.74) rotate(90) scale(3.71)" gradientUnits="userSpaceOnUse">
      <stop offset="0" stop-color="#aeaeae"/>
      <stop offset="1" stop-color="#878787"/>
    </linearGradient>
    <clipPath id="clippath-3">
      <rect class="cls-18" x="144.65" y="100.37" width="5.84" height="7.94"/>
    </clipPath>
    <mask id="mask-1" x="136.85" y="94.39" width="20.48" height="18.96" maskUnits="userSpaceOnUse">
      <g>
        <rect x="144.65" y="100.37" width="5.84" height="7.94"/>
        <g class="cls-26">
          <g class="cls-30">
            <path class="cls-12" d="M136.85,113.35h20.48v-18.96h-20.48v18.96ZM146.92,108.79c-.24.32-.52.43-.74.83-.23.41-.79-.08-.62-.46-.27-.01-.53-.29-.35-.59.21-.35.59-.5.97-.6.27-.07.45.13.48.34.15.07.39.3.26.48"/>
          </g>
        </g>
      </g>
    </mask>
    <clipPath id="clippath-4">
      <rect class="cls-18" x="144.65" y="100.37" width="5.84" height="7.94"/>
    </clipPath>
    <clipPath id="clippath-5">
      <path class="cls-18" d="M147.57,108.31c-1.45,0-2.92-1.33-2.92-4.29s1.59-3.65,2.92-3.65,2.92.63,2.92,3.65-1.47,4.29-2.92,4.29M147.57,101.01c-.53,0-2.13,0-2.13,3.01,0,2.15.87,3.65,2.13,3.65s2.13-1.5,2.13-3.65c0-3.01-1.6-3.01-2.13-3.01"/>
    </clipPath>
    <linearGradient id="Degradado_sin_nombre_2-2" data-name="Degradado sin nombre 2" x1="-15591.39" y1="2669.52" x2="-15590.32" y2="2669.52" gradientTransform="translate(-19699.32 116016.59) rotate(90) scale(7.43 -7.43)" xlink:href="#Degradado_sin_nombre_2"/>
  </defs>
  <g id="Capa_1-2" data-name="Capa_1">
    <g>
      <g>
        <path class="cls-31" d="M40.42,28.89c.14.02.36.08.68.19.31.11.68.32,1.09.63.41.31.77.78,1.08,1.4.31.62.46,1.41.46,2.36s-.18,1.67-.54,2.27c-.36.6-.79,1.06-1.29,1.35-.5.29-.97.47-1.42.53h-7.62v-8.73h7.57ZM40.36,36.45c.23-.04.52-.14.84-.3.32-.16.63-.46.92-.9.29-.43.43-1.03.43-1.78,0-.88-.15-1.57-.45-2.07-.3-.5-.62-.84-.95-1.01-.33-.18-.61-.28-.84-.32h-6.28v6.38h6.33Z"/>
        <rect class="cls-31" x="44.55" y="28.9" width="1.19" height="8.7"/>
        <path class="cls-31" d="M52.21,31.28c.77-.01,1.46-.13,2.06-.34.61-.22,1.08-.43,1.4-.65.33-.22.55-.38.66-.49l.96-.91v8.75h-1.14v-6.32c-.5.3-1.08.55-1.75.76-.66.21-1.39.32-2.18.33-.83,0-1.61-.1-2.33-.32-.72-.22-1.36-.49-1.92-.82v6.36h-1.14v-8.75l1,.87c.14.13.39.3.75.53.36.23.86.45,1.51.68.64.23,1.35.33,2.11.32"/>
        <rect class="cls-23" x="59" y="32.59" width="2.29" height="1.16"/>
        <g>
          <path class="cls-43" d="M68.72,34.09h-4.88v3.5h-1.2v-8.73h7.99c.47,0,.89.12,1.27.35.23.15.42.29.57.44s.27.34.39.57c.1.2.17.4.21.6s.06.36.06.5c0,.29,0,.5,0,.62,0,.12-.02.27-.06.44s-.09.33-.17.48c-.11.2-.23.36-.35.48-.12.13-.25.25-.41.36-.2.15-.44.25-.72.3-.28.05-.54.08-.8.08h-1.89ZM63.84,32.9h6.83c.22,0,.41-.03.58-.09.17-.06.29-.14.37-.24.1-.12.17-.25.21-.39.04-.14.06-.25.06-.32,0-.07,0-.25,0-.54,0-.39-.12-.7-.36-.93-.24-.24-.54-.36-.9-.36h-6.81v2.86Z"/>
          <path class="cls-43" d="M73.61,28.84h1.05s-.01,0,0,0v5.65c0,.41.1.78.3,1.1.2.32.44.57.73.75.29.18.57.27.83.27h2.15v1.05h-2.18c-.55,0-1.04-.17-1.48-.51s-.78-.76-1.02-1.27c-.25-.51-.37-1.01-.37-1.49v-5.29c0-.27,0-.35,0-.26Z"/>
          <path class="cls-43" d="M86.97,33.11c.24.42.36.94.36,1.56,0-.1,0-.08,0,.06h0v.69c0,.58-.12,1.03-.33,1.34-.22.31-.48.53-.79.63s-.63.17-.98.17c-.34,0-.6.02-.76.02h-3.15c-.49,0-.91-.18-1.26-.54-.35-.36-.52-.79-.52-1.3s.17-.95.52-1.31c.35-.36.77-.55,1.26-.55h4.83c0-.07-.02-.14-.04-.2s-.04-.11-.05-.13c-.09-.18-.23-.35-.39-.5-.17-.15-.36-.27-.56-.36-.21-.08-.42-.12-.65-.12h-4.64v-.94c0-.08,0-.11,0-.08h4.64c.54,0,1.03.14,1.5.42.22.13.41.29.57.47.16.18.31.4.46.65ZM86.28,35.56c0-.09,0-.29-.01-.62h-5.06c-.18,0-.34.08-.47.24-.13.16-.19.36-.19.58s.06.42.19.58c.13.16.29.24.47.24h3.28c.37,0,.67,0,.89-.02.22-.01.39-.07.52-.16.14-.1.23-.22.29-.35.05-.14.08-.3.1-.49Z"/>
          <path class="cls-43" d="M95.31,33.12c.26.46.39.96.39,1.51v3h-.99v-3c0-.27-.05-.54-.14-.81-.09-.27-.22-.49-.4-.67-.17-.18-.38-.31-.64-.41-.26-.09-.52-.14-.77-.14h-1.86c-.5,0-1.15,0-1.95,0,0-.23,0-.02,0,.65s0,1.1,0,1.31v3.07h-.99v-6.01h4.79c.52,0,1.01.13,1.46.4.45.27.81.64,1.07,1.1Z"/>
          <path class="cls-43" d="M99.21,28.87l3.93,7.57h.13l3.93-7.57h1.32l-3.93,7.57c-.33.63-.53,1.02-.61,1.18h-1.54c-.18-.33-.38-.72-.61-1.18l-3.94-7.57h1.32Z"/>
          <path class="cls-43" d="M115.91,32.06c.29.23.48.49.57.77s.14.53.15.74c0,1.05-.58,1.6-1.76,1.66h-4.67s0,.25,0,.25c0,.27.03.49.07.64s.13.27.25.34c.11.07.27.12.46.15.19.02.47.04.82.04h4.36c.13,0,.19.06.19.18v.59c0,.13-.06.19-.19.19h-4.51c-.63,0-1.12-.07-1.48-.21s-.62-.36-.77-.67-.23-.72-.23-1.24v-1.5c0-.35.13-.7.4-1.05s.61-.65,1.02-.88c.42-.23.84-.35,1.28-.35h2.84c.52,0,.92.12,1.21.35ZM115.23,34.2c.09-.03.17-.09.26-.19.06-.07.11-.15.13-.24s.04-.21.05-.37c0-.07-.02-.16-.06-.27-.04-.11-.11-.21-.22-.3-.11-.09-.26-.14-.45-.14h-3.1c-.22,0-.46.07-.72.21s-.47.33-.65.56c-.18.24-.27.5-.27.79h4.61c.19,0,.33-.02.42-.05Z"/>
          <path class="cls-43" d="M124.8,33.24c.26.45.39.93.39,1.46v2.92h-.94v-2.92c0-.27-.04-.51-.12-.72-.08-.21-.23-.45-.44-.69-.18-.2-.38-.34-.62-.43-.24-.09-.49-.13-.75-.13h-1.83c-.27,0-.52.04-.75.12-.23.08-.43.21-.58.38-.21.24-.37.48-.46.72s-.14.49-.14.75v2.92h-.95v-8.08h.95v3c.18-.17.35-.29.49-.37.44-.26.92-.39,1.44-.39h1.83c.52,0,1,.13,1.44.39.44.26.79.62,1.05,1.07Z"/>
          <path class="cls-43" d="M126.18,31.26h1.05v6.35h-1.05v-6.35ZM127.37,29.31h1.2s-.75.77-.75.77l-.79.75h-.74l1.08-1.53Z"/>
          <path class="cls-43" d="M130.39,32.85c-.26.09-.48.22-.65.4-.17.17-.3.39-.4.66-.09.27-.14.53-.14.79s.05.53.14.79.22.48.4.66c.17.17.39.3.65.4s.53.14.79.14h4.82v.97h-4.82c-.53,0-1.02-.13-1.48-.4-.45-.26-.81-.62-1.07-1.07-.26-.45-.39-.94-.39-1.48s.13-1.03.39-1.48c.27-.45.62-.81,1.07-1.07.45-.27.95-.4,1.48-.4h4.82v.97h-4.82c-.26,0-.52.05-.79.14Z"/>
          <path class="cls-43" d="M142.32,36.49c.26-.09.47-.23.64-.41.17-.17.3-.4.4-.67.09-.27.14-.54.14-.81v-3.03h.99v3.03c0,.55-.13,1.05-.39,1.52-.27.46-.63.83-1.08,1.1-.45.27-.94.41-1.47.41h-1.88c-.54,0-1.03-.13-1.48-.41-.45-.27-.81-.64-1.07-1.1-.27-.47-.4-.97-.4-1.52v-3.03h.99s0,0,0,.08v2.95c0,.27.05.54.14.81.09.27.23.49.4.67.17.18.39.32.65.41.26.09.52.14.78.14h1.88c.26,0,.52-.05.78-.14Z"/>
          <path class="cls-43" d="M145.21,28.84h1.05s0,0,0,0v5.65c0,.41.1.78.3,1.1.2.32.44.57.73.75.29.18.57.27.83.27h2.15v1.05h-2.18c-.55,0-1.04-.17-1.48-.51-.44-.34-.78-.76-1.02-1.27s-.37-1.01-.37-1.49v-5.29c0-.27,0-.35,0-.26Z"/>
          <path class="cls-43" d="M155.43,31.72c.53-.02.99.02,1.38.15.39.12.71.29.96.51.25.22.44.45.59.69.14.25.24.48.31.69.06.21.1.4.12.55s.02.22.02.2v.35c0,.25-.06.54-.19.87-.12.33-.32.64-.58.93-.26.3-.6.54-1.01.72-.41.18-.89.26-1.44.23h-1.1c-.55.03-1.03-.05-1.44-.23-.42-.18-.75-.42-1.01-.72-.26-.3-.46-.61-.58-.93-.12-.32-.19-.61-.19-.87v-.35s0-.04.02-.2.06-.34.12-.55c.06-.21.17-.44.31-.69.14-.25.34-.48.59-.69.25-.22.57-.39.96-.51.39-.12.85-.17,1.38-.15h.8ZM155.8,36.63c.73,0,1.25-.18,1.54-.53.3-.35.47-.73.51-1.14v-.17s.01-.28.01-.28v-.18c-.06-.38-.23-.75-.52-1.11-.29-.36-.81-.54-1.54-.54h-1.56c-.74,0-1.25.18-1.54.54-.29.36-.46.73-.5,1.11l-.02.18v.26l.02.18c.04.4.21.78.51,1.14.3.35.81.53,1.54.53h1.56Z"/>
          <path class="cls-43" d="M165.91,34.24c.4.02.74.15,1.04.39.3.24.45.7.45,1.38,0,.36-.09.67-.27.91s-.41.42-.68.54c-.27.12-.54.18-.8.18h-6v-.98s5.97,0,5.97,0c.21,0,.4-.05.57-.14s.25-.31.25-.65c0-.21-.06-.37-.18-.46-.12-.09-.26-.15-.41-.17-.16-.02-.25-.02-.29-.02h-4.35c-.23,0-.48-.07-.74-.19-.26-.12-.48-.32-.67-.6-.19-.28-.28-.63-.28-1.07,0-.38.1-.7.3-.95.2-.25.43-.44.71-.55.27-.12.54-.18.79-.2h5.42v.98h-5.37c-.22,0-.43.05-.62.14-.19.1-.28.33-.28.71,0,.3.09.5.26.59.17.09.35.14.51.15h4.66Z"/>
        </g>
      </g>
      <g>
        <path class="cls-14" d="M96.91,210.55h1.14v8.37h-1.14v-8.37Z"/>
        <path class="cls-14" d="M102.44,214.36c-.25.09-.46.21-.62.38s-.29.37-.38.63-.13.51-.13.76.04.5.13.76.21.46.38.63.37.29.62.38.5.13.75.13h4.61v.93h-4.61c-.51,0-.98-.13-1.41-.38-.43-.25-.77-.59-1.03-1.03-.25-.43-.38-.9-.38-1.41s.12-.98.38-1.41c.25-.43.6-.78,1.03-1.03.43-.25.9-.38,1.41-.38h4.61v.93h-4.61c-.25,0-.5.04-.75.13Z"/>
        <path class="cls-14" d="M113.93,213.29c.5-.02.94.02,1.32.14s.68.28.92.49.42.43.56.66.23.45.29.66.1.38.11.53.02.21.02.19v.33c0,.24-.06.52-.18.83s-.3.61-.55.89-.57.51-.97.69-.85.25-1.38.22h-1.05c-.52.03-.98-.05-1.38-.22s-.72-.4-.97-.69-.43-.58-.55-.89-.18-.59-.18-.83v-.33s0-.04.02-.19.05-.33.11-.53.16-.42.29-.66.32-.46.56-.66.55-.37.92-.49.81-.16,1.32-.14h.76ZM114.29,217.98c.7,0,1.19-.17,1.47-.51s.45-.7.49-1.09v-.16s.01-.26.01-.26v-.18c-.05-.37-.22-.72-.5-1.06s-.77-.51-1.48-.51h-1.49c-.7,0-1.2.17-1.48.51s-.44.7-.48,1.06l-.02.18v.25l.02.18c.04.39.2.75.49,1.09s.78.51,1.47.51h1.49Z"/>
        <path class="cls-14" d="M126.26,214.63c.25.44.38.92.38,1.44v2.87h-.94v-2.87c0-.26-.04-.52-.13-.77s-.21-.47-.38-.64c-.16-.17-.36-.3-.61-.39s-.49-.13-.74-.13h-1.78c-.48,0-1.1,0-1.86,0,0-.22,0-.01,0,.62s0,1.06,0,1.25v2.94h-.94v-5.74h4.58c.5,0,.97.13,1.4.38.43.26.77.61,1.03,1.05Z"/>
        <path class="cls-14" d="M132.79,213.29c.5-.02.94.02,1.32.14s.68.28.92.49.42.43.56.66.23.45.29.66.1.38.11.53.02.21.02.19v.33c0,.24-.06.52-.18.83s-.3.61-.55.89-.57.51-.97.69-.85.25-1.38.22h-1.05c-.52.03-.98-.05-1.38-.22s-.72-.4-.97-.69-.43-.58-.55-.89-.18-.59-.18-.83v-.33s0-.04.02-.19.05-.33.11-.53.16-.42.29-.66.32-.46.56-.66.55-.37.92-.49.81-.16,1.32-.14h.76ZM133.15,217.98c.7,0,1.19-.17,1.47-.51s.45-.7.49-1.09v-.16s.01-.26.01-.26v-.18c-.05-.37-.22-.72-.5-1.06s-.77-.51-1.48-.51h-1.49c-.7,0-1.2.17-1.48.51s-.44.7-.48,1.06l-.02.18v.25l.02.18c.04.39.2.75.49,1.09s.78.51,1.47.51h1.49Z"/>
        <path class="cls-14" d="M148.21,214.61c.23.4.35.9.35,1.49,0-.09,0-.07,0,.06h0v.66c0,.55-.11.98-.32,1.28s-.46.5-.76.61-.61.16-.93.17-.57.02-.73.02h-3.01c-.47,0-.87-.17-1.2-.52s-.5-.76-.5-1.24.17-.9.5-1.25c.33-.35.73-.52,1.2-.52h4.61c0-.07-.02-.13-.04-.19s-.04-.11-.05-.13c-.09-.18-.21-.34-.38-.48s-.34-.26-.54-.34c-.2-.08-.41-.12-.62-.12h-4.44v-.9c0-.08,0-.1,0-.08h4.44c.51,0,.99.13,1.43.4.21.12.39.27.55.45s.3.38.44.62ZM147.54,216.95c0-.08,0-.28-.01-.59h-4.83c-.17,0-.32.08-.45.23-.12.16-.18.34-.18.56s.06.4.18.56c.12.15.27.23.45.23h3.13c.36,0,.64,0,.85-.02s.38-.07.5-.16c.13-.09.22-.21.27-.34s.08-.29.09-.47Z"/>
        <path class="cls-14" d="M151.63,220.99h-.91c0,.05,0,0,0-.16v-5.33c0-.35.13-.69.4-1.02s.59-.6.98-.81.75-.31,1.08-.31h1.71c.53-.02.99.05,1.39.22s.72.39.97.67.44.57.56.88.18.58.18.82v.32s0,.04-.02.18-.05.32-.11.52-.16.42-.3.65-.33.45-.57.65-.55.36-.92.48-.82.16-1.32.14h-3.11v2.1ZM151.63,217.98h3.47c.57,0,1-.12,1.29-.35s.48-.47.57-.73.13-.46.13-.62v-.28c0-.19-.04-.42-.13-.68s-.28-.5-.57-.73-.72-.33-1.27-.33h-1.88c-.24,0-.49.07-.74.22s-.46.34-.62.56-.24.45-.24.66v2.26Z"/>
        <path class="cls-14" d="M161.05,220.99h-.91c0,.05,0,0,0-.16v-5.33c0-.35.13-.69.4-1.02s.59-.6.98-.81.75-.31,1.08-.31h1.71c.53-.02.99.05,1.39.22s.72.39.97.67.44.57.56.88.18.58.18.82v.32s0,.04-.02.18-.05.32-.11.52-.16.42-.3.65-.33.45-.57.65-.55.36-.92.48-.82.16-1.32.14h-3.11v2.1ZM161.05,217.98h3.47c.57,0,1-.12,1.29-.35s.48-.47.57-.73.13-.46.13-.62v-.28c0-.19-.04-.42-.13-.68s-.28-.5-.57-.73-.72-.33-1.27-.33h-1.88c-.24,0-.49.07-.74.22s-.46.34-.62.56-.24.45-.24.66v2.26Z"/>
      </g>
      <g>
        <g>
          <path class="cls-6" d="M101.61,21.36h-.28s0,0,0-.05v-1.65c0-.11.04-.21.12-.32.08-.1.18-.19.3-.25.12-.07.23-.1.33-.1h.53c.16,0,.31.02.43.07.12.05.22.12.3.21.08.09.14.18.17.27.04.09.06.18.06.25v.1s0,.01,0,.06c0,.04-.02.1-.04.16-.02.06-.05.13-.09.2-.04.07-.1.14-.17.2-.08.06-.17.11-.29.15-.12.04-.25.05-.41.04h-.96v.65ZM101.61,20.43h1.08c.17,0,.31-.04.4-.11.09-.07.15-.15.17-.22.03-.08.04-.14.04-.19v-.09c0-.06-.01-.13-.04-.21-.03-.08-.09-.16-.18-.23s-.22-.1-.39-.1h-.58c-.08,0-.15.02-.23.07-.08.05-.14.1-.19.17s-.07.14-.07.2v.7Z"/>
          <path class="cls-6" d="M106.02,19.24h-.99s-.11,0-.17,0c-.06,0-.12,0-.17.02-.05.02-.1.04-.14.08-.04.04-.07.08-.08.14s-.03.1-.03.14c0,.04,0,.11,0,.21v.87s0,.02-.02.02h-.25s-.02,0-.02-.02v-.89s0-.1,0-.19c0-.09.02-.18.05-.27.04-.09.1-.17.19-.24.06-.04.12-.08.18-.1.07-.02.13-.04.19-.05s.12-.01.17-.01h1.1v.29Z"/>
          <path class="cls-6" d="M107.83,18.98c.16,0,.29,0,.41.04.12.04.21.09.28.15.07.06.13.13.17.21.04.07.07.14.09.2s.03.12.04.16,0,.07,0,.06v.1c0,.08-.02.16-.06.26-.04.1-.09.19-.17.28-.08.09-.18.16-.3.21s-.26.08-.43.07h-.33c-.16,0-.31-.01-.43-.07-.12-.05-.22-.12-.3-.21-.08-.09-.13-.18-.17-.28-.04-.1-.05-.18-.05-.26v-.1s0-.01,0-.06.02-.1.04-.16.05-.13.09-.2c.04-.07.1-.14.17-.21.07-.06.17-.12.28-.15.11-.04.25-.05.41-.04h.24ZM107.94,20.43c.22,0,.37-.05.46-.16s.14-.22.15-.34v-.05s0-.08,0-.08v-.05c-.02-.11-.07-.22-.15-.33-.09-.11-.24-.16-.46-.16h-.46c-.22,0-.37.05-.46.16-.09.11-.14.22-.15.33v.05s0,.08,0,.08v.05c.02.12.07.23.16.34.09.1.24.16.46.16h.46Z"/>
          <path class="cls-6" d="M111.4,18.33h.28s0,0,0,.05v1.68c0,.12-.01.22-.04.3-.02.08-.07.15-.12.2-.06.05-.13.09-.22.11-.09.02-.21.04-.35.04h-.57c-.16,0-.31-.01-.43-.07-.12-.05-.23-.12-.3-.21-.08-.09-.14-.18-.17-.27-.04-.1-.06-.18-.06-.26v-.1s0-.01,0-.06c0-.05.02-.1.04-.16.02-.06.05-.13.09-.2s.1-.14.17-.2c.08-.06.17-.11.29-.15.12-.04.25-.05.41-.04h.97v-.66ZM111.4,19.28h-1.08c-.18,0-.31.04-.4.11s-.15.15-.18.23c-.03.08-.04.14-.04.19v.08c0,.06.01.13.04.21.03.08.09.16.18.23.09.07.22.1.4.1h.75c.09,0,.15-.02.2-.06.05-.04.08-.09.1-.15.02-.07.03-.15.03-.24v-.71Z"/>
          <path class="cls-6" d="M113.88,20.39c.08-.03.14-.07.19-.12s.09-.12.12-.2c.03-.08.04-.16.04-.24v-.9h.29v.9c0,.16-.04.31-.12.45-.08.14-.19.25-.32.33-.13.08-.28.12-.44.12h-.56c-.16,0-.3-.04-.44-.12-.13-.08-.24-.19-.32-.33-.08-.14-.12-.29-.12-.45v-.9h.29s0,0,0,.02v.87c0,.08.01.16.04.24.03.08.07.15.12.2s.11.09.19.12c.08.03.15.04.23.04h.56c.08,0,.15-.01.23-.04Z"/>
          <path class="cls-6" d="M115.67,19.31c-.08.03-.14.07-.19.12s-.09.12-.12.19c-.03.08-.04.16-.04.23s.01.16.04.23c.03.08.07.14.12.19s.12.09.19.12.16.04.23.04h1.43v.29h-1.43c-.16,0-.3-.04-.44-.12-.13-.08-.24-.18-.32-.32-.08-.13-.12-.28-.12-.44s.04-.3.12-.44c.08-.13.18-.24.32-.32.13-.08.28-.12.44-.12h1.43v.29h-1.43c-.08,0-.16.01-.23.04Z"/>
          <path class="cls-6" d="M119.35,20.43v.29h-.54c-.15,0-.3-.04-.43-.11-.13-.08-.24-.18-.32-.31-.08-.13-.12-.27-.12-.43v-1.55h.29s0,0,0,.02v.64h.67s0,0,0,.02v.26s0,0-.03,0h-.65v.62c0,.13.03.23.1.32s.13.15.21.19c.04.02.09.04.16.05.07,0,.13,0,.18,0h.48Z"/>
          <path class="cls-6" d="M121.21,18.98c.16,0,.29,0,.41.04s.21.09.28.15c.07.06.13.13.17.21.04.07.07.14.09.2.02.06.03.12.04.16s0,.07,0,.06v.1c0,.08-.02.16-.06.26-.04.1-.09.19-.17.28-.08.09-.18.16-.3.21s-.26.08-.43.07h-.33c-.16,0-.3-.01-.43-.07-.12-.05-.22-.12-.3-.21-.08-.09-.13-.18-.17-.28-.04-.1-.06-.18-.06-.26v-.1s0-.01,0-.06.02-.1.04-.16.05-.13.09-.2c.04-.07.1-.14.17-.21.08-.06.17-.12.28-.15.12-.04.25-.05.41-.04h.24ZM121.33,20.43c.22,0,.37-.05.46-.16.09-.1.14-.22.15-.34v-.05s0-.08,0-.08v-.05c-.02-.11-.07-.22-.15-.33-.09-.11-.24-.16-.46-.16h-.46c-.22,0-.37.05-.46.16-.09.11-.14.22-.15.33v.05s0,.08,0,.08v.05c.02.12.07.23.16.34.09.1.24.16.46.16h.46Z"/>
          <path class="cls-6" d="M124.64,19.72c.12,0,.22.05.31.12.09.07.13.21.13.41,0,.11-.03.2-.08.27-.05.07-.12.12-.2.16-.08.03-.16.05-.24.05h-1.78v-.29s1.77,0,1.77,0c.06,0,.12-.01.17-.04.05-.03.08-.09.08-.19,0-.06-.02-.11-.05-.14-.04-.03-.08-.04-.12-.05s-.07,0-.08,0h-1.29c-.07,0-.14-.02-.22-.06-.08-.04-.14-.09-.2-.18-.06-.08-.08-.19-.08-.32,0-.11.03-.21.09-.28.06-.07.13-.13.21-.16.08-.04.16-.05.23-.06h1.61v.29h-1.59c-.07,0-.13.01-.18.04-.06.03-.08.1-.08.21,0,.09.03.15.08.18.05.03.1.04.15.04h1.38Z"/>
          <path class="cls-6" d="M128.73,18.96v1.52c-.01.17-.05.33-.13.45-.09.16-.2.27-.32.34-.12.07-.27.11-.45.11h-1.24s-.02,0-.02-.02v-.25s0-.02.02-.02h1.24c.06,0,.12,0,.17-.01.05,0,.09-.03.13-.05.05-.04.1-.07.13-.1s.06-.06.08-.11l.04-.09h-1.13c-.13,0-.25-.02-.36-.08-.11-.05-.19-.11-.26-.18-.07-.07-.12-.15-.18-.26-.05-.11-.08-.22-.08-.33v-.92s0-.02,0-.02h.3s0,0,0,.02v.94c0,.06.01.12.04.18s.04.11.07.13c.01.01.04.04.07.07.03.03.08.07.14.09.06.03.13.05.22.06h1.24s0-1.47,0-1.47c0-.02,0-.02.02-.02h.25s.02,0,.02.02Z"/>
          <path class="cls-6" d="M131.95,19.72c.12,0,.22.05.31.12.09.07.13.21.13.41,0,.11-.03.2-.08.27-.05.07-.12.12-.2.16-.08.03-.16.05-.24.05h-1.78v-.29s1.77,0,1.77,0c.06,0,.12-.01.17-.04.05-.03.08-.09.08-.19,0-.06-.02-.11-.05-.14-.04-.03-.08-.04-.12-.05s-.07,0-.08,0h-1.29c-.07,0-.14-.02-.22-.06-.08-.04-.14-.09-.2-.18-.06-.08-.08-.19-.08-.32,0-.11.03-.21.09-.28.06-.07.13-.13.21-.16.08-.04.16-.05.23-.06h1.61v.29h-1.59c-.07,0-.13.01-.18.04-.06.03-.08.1-.08.21,0,.09.03.15.08.18.05.03.1.04.15.04h1.38Z"/>
          <path class="cls-6" d="M134.94,19.08c.08.07.14.14.17.23.03.08.04.16.04.22,0,.31-.17.48-.52.49h-1.38s0,.07,0,.07c0,.08,0,.14.02.19s.04.08.07.1c.03.02.08.04.14.04.06,0,.14.01.24.01h1.29s.06.02.06.05v.17s-.02.06-.06.06h-1.33c-.19,0-.33-.02-.44-.06-.11-.04-.18-.11-.23-.2s-.07-.21-.07-.37v-.44c0-.1.04-.21.12-.31.08-.1.18-.19.3-.26.12-.07.25-.1.38-.1h.84c.15,0,.27.03.36.1ZM134.74,19.71s.05-.03.08-.06c.02-.02.03-.04.04-.07s.01-.06.01-.11c0-.02,0-.05-.02-.08-.01-.03-.03-.06-.07-.09-.03-.03-.08-.04-.13-.04h-.92c-.07,0-.14.02-.21.06s-.14.1-.19.17-.08.15-.08.23h1.37c.06,0,.1,0,.12-.01Z"/>
          <path class="cls-6" d="M137.66,19.24h-.99s-.11,0-.17,0c-.06,0-.12,0-.17.02-.05.02-.1.04-.14.08-.04.04-.07.08-.08.14-.02.05-.03.1-.03.14,0,.04,0,.11,0,.21v.87s0,.02-.02.02h-.25s-.02,0-.02-.02v-.89s0-.1,0-.19c0-.09.02-.18.05-.27.03-.09.1-.17.19-.24.06-.04.12-.08.18-.1.07-.02.13-.04.19-.05.06,0,.12-.01.17-.01h1.1v.29Z"/>
          <path class="cls-6" d="M138.36,18.93l1.03,1.55h.03l1.03-1.55h.35l-1.04,1.55c-.08.13-.14.21-.16.24h-.41c-.05-.07-.1-.15-.16-.24l-1.03-1.55h.35Z"/>
          <path class="cls-6" d="M141.5,18.12v.31h-.31v-.31h.31ZM141.5,18.84v1.88h-.31v-1.88h.31Z"/>
          <path class="cls-6" d="M142.74,19.31c-.08.03-.14.07-.19.12s-.09.12-.12.19c-.03.08-.04.16-.04.23s.01.16.04.23c.03.08.07.14.12.19s.12.09.19.12.16.04.23.04h1.43v.29h-1.43c-.16,0-.3-.04-.44-.12-.13-.08-.24-.18-.32-.32-.08-.13-.12-.28-.12-.44s.04-.3.12-.44c.08-.13.18-.24.32-.32.13-.08.28-.12.44-.12h1.43v.29h-1.43c-.08,0-.16.01-.23.04Z"/>
          <path class="cls-6" d="M145.33,18.12v.31h-.31v-.31h.31ZM145.33,18.84v1.88h-.31v-1.88h.31Z"/>
          <path class="cls-6" d="M147.21,18.98c.16,0,.29,0,.41.04s.21.09.28.15c.07.06.13.13.17.21.04.07.07.14.09.2.02.06.03.12.04.16s0,.07,0,.06v.1c0,.08-.02.16-.05.26-.04.1-.09.19-.17.28-.08.09-.18.16-.3.21s-.26.08-.43.07h-.33c-.16,0-.3-.01-.43-.07-.12-.05-.22-.12-.3-.21-.08-.09-.13-.18-.17-.28-.04-.1-.06-.18-.06-.26v-.1s0-.01,0-.06.02-.1.04-.16.05-.13.09-.2c.04-.07.1-.14.17-.21.08-.06.17-.12.28-.15.12-.04.25-.05.41-.04h.24ZM147.32,20.43c.22,0,.37-.05.46-.16.09-.1.14-.22.15-.34v-.05s0-.08,0-.08v-.05c-.02-.11-.07-.22-.15-.33-.09-.11-.24-.16-.46-.16h-.46c-.22,0-.37.05-.46.16-.09.11-.14.22-.15.33v.05s0,.08,0,.08v.05c.02.12.07.23.16.34.09.1.24.16.46.16h.46Z"/>
          <path class="cls-6" d="M150.63,19.72c.12,0,.22.05.31.12.09.07.13.21.13.41,0,.11-.03.2-.08.27-.05.07-.12.12-.2.16-.08.03-.16.05-.24.05h-1.78v-.29s1.77,0,1.77,0c.06,0,.12-.01.17-.04.05-.03.08-.09.08-.19,0-.06-.02-.11-.05-.14-.04-.03-.08-.04-.12-.05s-.07,0-.08,0h-1.29c-.07,0-.14-.02-.22-.06-.08-.04-.14-.09-.2-.18-.06-.08-.08-.19-.08-.32,0-.11.03-.21.09-.28.06-.07.13-.13.21-.16.08-.04.16-.05.23-.06h1.61v.29h-1.59c-.07,0-.13.01-.18.04-.06.03-.08.1-.08.21,0,.09.03.15.08.18.05.03.1.04.15.04h1.38Z"/>
        </g>
        <rect class="cls-4" x="163.1" y="18.1" width="4.16" height="1.32"/>
        <rect class="cls-44" x="163.1" y="19.41" width="4.16" height=".66"/>
        <rect class="cls-5" x="163.1" y="20.07" width="4.16" height=".66"/>
        <rect class="cls-40" x="158.01" y="18.1" width="1.39" height="2.63"/>
        <rect class="cls-40" x="160.79" y="18.1" width="1.39" height="2.63"/>
        <rect class="cls-12" x="159.4" y="18.1" width="1.39" height="2.63"/>
        <polyline class="cls-32" points="157.08 20.73 152.92 20.73 152.92 19.41 157.08 19.41"/>
        <rect class="cls-35" x="152.92" y="18.1" width="1.39" height="1.32"/>
        <rect class="cls-12" x="154.31" y="18.1" width="2.77" height="1.32"/>
        <polygon class="cls-12" points="153.54 18.65 153.28 18.65 153.49 18.79 153.41 19.02 153.61 18.88 153.82 19.02 153.74 18.79 153.94 18.65 153.69 18.65 153.61 18.42 153.54 18.65"/>
        <path class="cls-31" d="M40.52,6.73c.14.02.36.08.68.19.31.11.68.32,1.09.63.41.31.77.78,1.08,1.4.31.62.46,1.41.46,2.36s-.18,1.67-.54,2.27c-.36.61-.79,1.06-1.29,1.35-.5.29-.97.47-1.42.53h-7.62V6.72h7.57ZM40.46,14.28c.23-.04.52-.14.84-.3.32-.16.63-.46.92-.9.29-.43.43-1.03.43-1.78,0-.88-.15-1.57-.45-2.07-.3-.5-.62-.84-.95-1.01-.33-.18-.61-.28-.84-.32h-6.28v6.38h6.33Z"/>
        <rect class="cls-31" x="44.65" y="6.73" width="1.19" height="8.7"/>
        <path class="cls-31" d="M52.31,9.11c.77-.01,1.46-.13,2.06-.34.61-.22,1.08-.43,1.4-.65.33-.22.55-.38.66-.49l.96-.91v8.75h-1.14v-6.32c-.5.3-1.08.55-1.75.76-.66.21-1.39.32-2.18.33-.83,0-1.61-.1-2.33-.32-.72-.22-1.36-.49-1.92-.82v6.36h-1.14V6.72l1,.86c.14.13.39.3.75.53.36.23.86.45,1.51.68.64.23,1.35.33,2.11.32"/>
        <rect class="cls-23" x="59.1" y="10.43" width="2.29" height="1.16"/>
        <path class="cls-43" d="M68.82,11.92h-4.88v3.5h-1.2V6.69h7.99c.47,0,.89.12,1.27.35.23.15.42.29.57.44.15.15.28.34.39.57.1.2.17.4.21.6.04.2.06.36.06.5,0,.29,0,.5,0,.62,0,.12-.02.27-.06.44-.04.17-.09.33-.18.48-.11.2-.23.36-.35.48-.12.13-.25.24-.41.36-.2.15-.44.25-.72.3-.28.05-.54.08-.8.08h-1.89ZM63.94,10.73h6.83c.22,0,.41-.03.58-.09.17-.06.29-.14.37-.24.1-.12.17-.25.21-.39.04-.14.06-.24.06-.32,0-.07,0-.25,0-.54,0-.39-.12-.7-.36-.93-.24-.24-.54-.36-.89-.36h-6.81v2.86Z"/>
        <path class="cls-43" d="M73.71,6.67h1.05,0v5.65c0,.41.1.78.3,1.1.2.32.44.57.73.75.29.18.57.27.83.27h2.15v1.05h-2.18c-.55,0-1.04-.17-1.48-.51-.44-.34-.78-.76-1.03-1.27s-.37-1.01-.37-1.49v-5.56Z"/>
        <path class="cls-43" d="M87.06,10.94c.24.42.36.94.36,1.56,0-.1,0-.08,0,.06h0v.69c0,.58-.12,1.03-.33,1.34-.22.31-.48.52-.79.63-.31.11-.63.17-.97.17-.34,0-.6.02-.76.03h-3.14c-.49,0-.91-.18-1.26-.54-.35-.36-.52-.79-.52-1.3s.17-.95.52-1.31c.35-.36.77-.55,1.26-.55h4.83c0-.07-.02-.14-.04-.2-.03-.07-.04-.11-.06-.13-.09-.18-.22-.35-.39-.5-.17-.15-.36-.27-.56-.36-.21-.08-.43-.12-.65-.12h-4.64v-1.02h4.64c.54,0,1.03.14,1.5.42.22.13.41.29.57.47.16.18.31.4.46.65M86.37,13.39c0-.09,0-.29-.01-.62h-5.06c-.18,0-.33.08-.47.24-.13.16-.19.36-.19.58s.06.42.19.58c.13.16.29.24.47.24h3.28c.37,0,.67,0,.89-.02.22-.01.39-.07.52-.16.14-.1.23-.22.29-.35.05-.14.08-.3.1-.49"/>
        <path class="cls-43" d="M95.39,10.95c.26.46.39.97.39,1.51v3h-.99v-3c0-.27-.05-.54-.14-.81-.09-.27-.22-.49-.4-.67-.17-.18-.38-.31-.64-.4-.26-.09-.51-.14-.77-.14h-1.86c-.5,0-1.15,0-1.95,0,0-.23,0-.01,0,.65,0,.67,0,1.1,0,1.31v3.07h-.99v-6.01h4.79c.52,0,1.01.13,1.47.4.45.27.81.64,1.07,1.1"/>
        <path class="cls-43" d="M99.27,6.7l3.93,7.57h.13l3.93-7.57h1.32l-3.93,7.57c-.33.63-.53,1.02-.61,1.18h-1.54c-.18-.33-.38-.72-.61-1.18l-3.94-7.57h1.32Z"/>
        <path class="cls-43" d="M115.98,9.9c.29.23.48.49.57.77.09.28.14.53.15.74,0,1.05-.58,1.61-1.76,1.66h-4.67s0,.24,0,.24c0,.27.02.49.07.64.05.15.13.27.24.34.11.07.27.12.46.15.19.02.47.04.82.04h4.36c.13,0,.19.06.19.18v.59c0,.13-.06.19-.19.19h-4.51c-.63,0-1.12-.07-1.48-.21-.36-.14-.62-.36-.77-.67-.15-.3-.23-.72-.23-1.23v-1.5c0-.35.13-.7.4-1.05.27-.35.61-.64,1.02-.88.42-.23.84-.35,1.28-.35h2.84c.52,0,.92.11,1.21.35M115.29,12.03c.09-.03.17-.09.26-.19.06-.07.11-.15.13-.24.03-.09.04-.21.04-.37,0-.07-.02-.16-.06-.27-.04-.11-.11-.21-.22-.3-.11-.09-.26-.14-.45-.14h-3.1c-.22,0-.46.07-.72.21-.26.14-.48.33-.65.56-.18.24-.27.5-.27.79h4.61c.19,0,.33-.02.42-.05"/>
        <path class="cls-43" d="M124.86,11.08c.26.45.39.93.39,1.47v2.92h-.94v-2.92c0-.27-.04-.51-.12-.72-.08-.21-.23-.45-.44-.69-.18-.2-.38-.34-.62-.43-.24-.09-.49-.13-.75-.13h-1.83c-.27,0-.52.04-.75.12-.24.08-.43.21-.59.38-.21.24-.36.48-.46.72-.09.24-.14.49-.14.75v2.92h-.95V7.39h.95v3c.19-.17.35-.29.49-.37.44-.26.92-.39,1.44-.39h1.83c.51,0,1,.13,1.44.39.44.26.79.62,1.06,1.07"/>
        <path class="cls-43" d="M126.25,9.1h1.06v6.35h-1.06v-6.35ZM127.44,7.15h1.19s-.75.77-.75.77l-.79.75h-.74l1.08-1.53Z"/>
        <path class="cls-43" d="M130.44,10.68c-.26.09-.48.22-.65.4-.17.17-.3.39-.4.65-.09.27-.14.53-.14.79s.05.52.14.79c.09.26.22.48.4.66.17.17.39.3.65.4.26.09.52.14.79.14h4.82v.97h-4.82c-.53,0-1.02-.13-1.48-.4-.45-.26-.81-.62-1.07-1.07-.26-.45-.39-.94-.39-1.48s.13-1.03.39-1.48c.27-.45.62-.81,1.07-1.07.45-.27.95-.4,1.48-.4h4.82v.97h-4.82c-.26,0-.52.05-.79.14"/>
        <path class="cls-43" d="M142.35,14.33c.26-.09.47-.23.64-.41.17-.18.3-.4.39-.67.09-.27.14-.54.14-.81v-3.03h.99v3.03c0,.55-.13,1.05-.39,1.52-.26.46-.63.83-1.09,1.1-.45.27-.94.41-1.47.41h-1.88c-.53,0-1.03-.14-1.48-.41-.45-.27-.81-.64-1.07-1.1-.27-.47-.4-.97-.4-1.52v-3.03h.99v3.03c0,.27.05.54.14.81.09.27.23.49.4.67.17.18.39.32.65.41.26.09.52.14.78.14h1.88c.26,0,.52-.05.78-.14"/>
        <path class="cls-43" d="M145.23,6.67h1.05,0v5.65c0,.41.1.78.3,1.1.2.32.44.57.73.75.29.18.57.27.83.27h2.15v1.05h-2.18c-.55,0-1.04-.17-1.48-.51-.44-.34-.78-.76-1.03-1.27-.24-.51-.37-1.01-.37-1.49v-5.56Z"/>
        <path class="cls-43" d="M155.44,9.56c.53-.03.99.02,1.38.15.39.12.71.29.96.51.25.22.44.45.59.69.14.25.24.48.31.69.06.21.1.4.12.55.02.15.02.22.02.2v.35c0,.25-.06.54-.19.87-.12.33-.32.64-.58.93-.26.3-.6.54-1.01.72-.41.18-.89.26-1.44.23h-1.1c-.55.03-1.03-.05-1.44-.23-.41-.18-.75-.42-1.01-.72-.26-.3-.46-.61-.58-.93-.12-.32-.19-.61-.19-.87v-.35s0-.04.02-.2c.02-.16.06-.34.12-.55.06-.21.16-.44.31-.69.14-.24.34-.48.59-.69.25-.22.57-.39.96-.51.39-.12.85-.17,1.38-.15h.8ZM155.82,14.47c.73,0,1.25-.18,1.54-.53.3-.35.47-.73.51-1.14v-.17s.01-.27.01-.27v-.19c-.06-.38-.23-.75-.52-1.11-.29-.36-.81-.54-1.54-.54h-1.56c-.74,0-1.25.18-1.54.54-.29.36-.46.73-.5,1.11l-.02.19v.26l.02.18c.04.4.21.78.51,1.14.3.35.81.53,1.54.53h1.56Z"/>
        <path class="cls-43" d="M165.91,12.07c.4.02.74.15,1.04.39.3.24.45.7.45,1.38,0,.36-.09.67-.27.91-.18.24-.41.42-.68.54-.27.12-.54.18-.8.18h-6v-.98s5.97,0,5.97,0c.21,0,.4-.05.57-.14.17-.09.26-.31.26-.65,0-.21-.06-.37-.18-.46-.12-.09-.26-.15-.41-.17-.15-.02-.25-.02-.29-.02h-4.35c-.23,0-.48-.07-.74-.19-.26-.12-.48-.32-.67-.6-.19-.28-.28-.63-.28-1.07,0-.38.1-.7.3-.95.2-.25.43-.43.71-.55.27-.12.54-.18.78-.2h5.42v.98h-5.36c-.22,0-.43.05-.62.14-.19.1-.29.33-.29.71,0,.3.09.5.26.6.18.09.35.14.51.15h4.66Z"/>
        <path class="cls-12" d="M14.84.27L.55,4.78l14.33,11.12,14.04-10.84L14.84.27ZM20.37,10.39l-3.12,2.39-2.66-1.71,2.04-1.67c.37-.33.47-.56.47-.56v-3.18c.03-.54-.73-.85-.73-.85-.94-.45-2.38-.43-2.38-.43-1.33-.02-3.8.92-3.8.92v2.95l-3.69-2.37c2.35-.95,3.42-1.2,3.42-1.2,2.33-.65,3.96-.69,3.96-.69,2.61-.14,4.69.58,4.69.58,2.08.57,2.94,1.3,2.94,1.3,1.72,1.29,1.33,2.61,1.33,2.61-.27.24-2.47,1.91-2.47,1.91"/>
        <polygon class="cls-31" points=".02 8.24 .02 4.69 14.92 16.03 29.45 4.96 29.45 8.22 14.87 21.46 .02 8.24"/>
        <path class="cls-31" d="M6.42,5.91l-2.39-1.48s3.15-1.23,5.77-1.73,3.58-.53,5.07-.47c1.49.06,4.37.63,6.26,1.56,1.89.93,2.29,1.89,2.4,2.42.12.53.09,1.75-.34,2.13l-.42.38s.31-.69-.13-1.56c-.44-.87-1.39-1.7-3.12-2.29-1.73-.59-3.27-.92-5.14-.89-1.87.03-3.56.44-4.87.82-1.3.38-3.09,1.11-3.09,1.11"/>
        <path class="cls-31" d="M10.2,5.37v2.94l4.29,2.83s.94-.73,1.6-1.28c.66-.54.94-.87,1.01-1.03v-3.24s.08.51-1.06,1.15c-1.13.64-1.49.85-1.49.85l-4.35-2.21Z"/>
        <path class="cls-31" d="M14.88,16.23L0,4.68,14.85,0h.04s14.57,4.97,14.57,4.97l-14.57,11.26ZM.55,4.78l14.34,11.12,14.04-10.84L14.84.27.55,4.78Z"/>
        <path class="cls-31" d="M17.27,13.09l-.08-.05L3.75,4.39l.24-.09s3.19-1.24,5.8-1.74c1.92-.37,3-.49,4.14-.49.27,0,.57,0,.95.02,1.62.06,4.5.68,6.31,1.57,1.43.7,2.26,1.54,2.47,2.51.12.56.1,1.82-.38,2.25l-.43.38-5.59,4.29ZM4.32,4.45l12.94,8.32,5.44-4.17.42-.38c.38-.34.41-1.51.3-2-.2-.89-.98-1.67-2.33-2.33-1.78-.87-4.61-1.48-6.2-1.54-.38-.01-.68-.02-.95-.02-.97,0-1.94.08-4.1.49-2.17.41-4.73,1.34-5.51,1.63"/>
        <path class="cls-31" d="M14.47,7.64l-4.29-2.19.04-.07-.03-.08c.1-.04,2.43-.93,3.82-.93h.03c1.46.01,2.38.36,2.77.69.36.3.41.63.16,1.02-.18.28-.7.67-1.43,1.05-.71.38-1.02.5-1.03.51h-.03ZM10.32,5.39l4.15,2.12c.09-.04.4-.18.99-.49.7-.37,1.21-.74,1.38-1,.21-.33.17-.6-.13-.85-.37-.31-1.27-.65-2.69-.66h-.03c-1.21,0-3.21.72-3.68.89"/>
        <path class="cls-31" d="M40.5,6.74c.14.02.36.08.68.19.31.11.68.32,1.09.63.41.31.77.78,1.08,1.4.31.62.46,1.41.46,2.36s-.18,1.67-.54,2.27c-.36.61-.79,1.06-1.29,1.35-.5.29-.97.47-1.42.53h-7.62V6.73h7.57ZM40.44,14.29c.23-.04.52-.14.84-.3.32-.16.63-.46.92-.9.29-.43.43-1.03.43-1.78,0-.88-.15-1.57-.45-2.07-.3-.5-.62-.84-.95-1.01-.33-.18-.61-.28-.84-.32h-6.28v6.38h6.33Z"/>
        <rect class="cls-31" x="44.63" y="6.75" width="1.19" height="8.7"/>
        <path class="cls-31" d="M52.3,9.12c.77-.01,1.46-.13,2.06-.34.61-.22,1.08-.43,1.4-.65.33-.22.55-.38.66-.49l.96-.91v8.75h-1.14v-6.32c-.5.3-1.08.55-1.75.76-.66.21-1.39.32-2.18.33-.83,0-1.61-.1-2.33-.32-.72-.22-1.36-.49-1.92-.82v6.36h-1.14V6.73l1,.86c.14.13.39.3.75.53.36.23.86.45,1.51.68.64.23,1.35.33,2.11.32"/>
        <rect class="cls-23" x="59.08" y="10.44" width="2.29" height="1.16"/>
      </g>
      <g>
        <path class="cls-12" d="M158.72,182.59c0,8.48-6.87,15.35-15.35,15.35s-15.35-6.87-15.35-15.35,6.87-15.34,15.35-15.34,15.35,6.87,15.35,15.34"/>
        <path class="cls-34" d="M154.84,176.79s-.03-.02-.04-.03c-.01-.01-.03-.03-.04-.04-2.19-1.78-4.55-2.49-6.76-2.41-.15,0-.3.01-.44.02.46-.53.94-1.04,1.43-1.52.12-.12.12-.31,0-.42-2.61-2.16-8.47-3.69-14.87-.97-.31.13-.56-.28-.29-.48,2.64-2.03,8.96-5.35,16.56-1.74.17.08.37-.01.4-.2.17-.85.28-1.79.28-1.79,0,0,3.63,4.24,3.79,9.57"/>
        <path class="cls-34" d="M132.4,176.29s0,.03,0,.05c0,.02,0,.04,0,.06-.29,2.81.41,5.17,1.69,6.98.09.12.17.24.26.36-.69-.09-1.38-.22-2.05-.36-.16-.04-.33.07-.35.24-.37,3.36,1.56,9.1,7.34,12.97.28.19.08.62-.24.51-3.15-1.09-9.39-4.56-10.54-12.89-.03-.18-.21-.3-.39-.23-.81.33-1.65.74-1.65.74,0,0,1.55-5.36,5.93-8.42"/>
        <path class="cls-34" d="M143.4,195.35s.03-.01.05-.02c.02,0,.03-.01.05-.02,2.58-1.16,4.27-2.94,5.2-4.95.06-.14.12-.27.18-.41.26.65.5,1.3.71,1.96.05.16.22.25.38.18,3.1-1.36,7.1-5.9,7.56-12.84.02-.34.5-.37.56-.04.63,3.27.75,10.41-5.89,15.57-.15.12-.15.34,0,.45.69.53,1.47,1.05,1.47,1.05,0,0-5.42,1.33-10.26-.93"/>
        <path class="cls-17" d="M143.68,173.93l3.06,7.48s.01.03.02.04l4.95,6.39c.1.13,0,.31-.17.29l-8.01-1.09s-.03,0-.05,0l-8.01,1.09c-.16.02-.26-.16-.17-.29l4.95-6.39s.02-.03.02-.04l3.06-7.48c.06-.15.27-.15.33,0"/>
        <path class="cls-12" d="M143.51,178.06l1.64,4.01c.05.12.12.24.2.35l2.65,3.43-4.29-.58c-.13-.02-.27-.02-.4,0l-4.29.58,2.65-3.43c.08-.11.15-.22.2-.35l1.64-4.01Z"/>
        <path class="cls-17" d="M148.66,207.01h-14.16c-.18,0-.32-.14-.32-.32v-.4c0-.18.14-.32.32-.32h14.16c.18,0,.32.14.32.32v.4c0,.18-.14.32-.32.32"/>
        <path class="cls-17" d="M148.2,200.27v-.21c0-.18-.21-.32-.47-.32h-12.31c-.26,0-.47.15-.47.32v.21c0,.18.21.32.47.32h.12c.26,0,.47.14.47.32v3.57c0,.18-.21.32-.47.32h-.12c-.26,0-.47.15-.47.32v.21c0,.18.21.32.47.32h12.31c.26,0,.47-.14.47-.32v-.21c0-.18-.21-.32-.47-.32h-.09c-.26,0-.47-.14-.47-.32v-3.57c0-.18.21-.32.47-.32h.09c.26,0,.47-.14.47-.32M142.12,200.92v3.57c0,.18-.21.32-.47.32h-.19c-.26,0-.47-.14-.47-.32v-3.57c0-.18.21-.32.47-.32h.19c.26,0,.47.14.47.32M138.34,200.6h.32c.26,0,.47.14.47.32v3.57c0,.18-.21.32-.47.32h-.32c-.26,0-.47-.14-.47-.32v-3.57c0-.18.21-.32.47-.32M144.84,204.81h-.39c-.26,0-.47-.14-.47-.32v-3.57c0-.18.21-.32.47-.32h.39c.26,0,.47.14.47.32v3.57c0,.18-.21.32-.47.32"/>
        <path class="cls-17" d="M134.68,198.93l6.96-3.61c.05-.03.11-.03.17,0l6.67,3.61c.19.1.12.42-.08.42h-13.63c-.21,0-.27-.32-.08-.42"/>
        <path class="cls-45" d="M127.14,173.6v1.47c0,.32-.26.58-.58.59h-.49c-.33,0-.59-.27-.59-.59v-1.46c0-.33.26-.59.59-.59h.48c.33,0,.59.26.59.59"/>
        <rect class="cls-10" x="126.39" y="174.44" width=".09" height="1.22"/>
        <rect class="cls-10" x="126.14" y="174.44" width=".09" height="1.22"/>
        <polygon class="cls-10" points="127.14 174.54 127.14 174.67 126.48 175.33 126.45 175.37 126.45 175.24 126.48 175.2 127.14 174.54"/>
        <polygon class="cls-10" points="127.14 174.94 127.14 175.07 126.56 175.66 126.45 175.66 126.45 175.64 126.48 175.6 127.14 174.94"/>
        <polygon class="cls-10" points="127.14 174.14 127.14 174.27 126.48 174.93 126.45 174.97 126.45 174.84 126.48 174.8 127.14 174.14"/>
        <polygon class="cls-10" points="125.48 174.54 125.48 174.67 126.14 175.33 126.17 175.37 126.17 175.24 126.14 175.2 125.48 174.54"/>
        <polygon class="cls-10" points="125.48 174.94 125.48 175.07 126.06 175.66 126.17 175.66 126.17 175.64 126.14 175.6 125.48 174.94"/>
        <polygon class="cls-10" points="125.48 174.14 125.48 174.27 126.14 174.93 126.17 174.97 126.17 174.84 126.14 174.8 125.48 174.14"/>
        <path class="cls-45" d="M134.29,173.6v1.47c0,.32-.26.58-.58.59h-.49c-.33,0-.59-.27-.59-.59v-1.46c0-.33.26-.59.59-.59h.48c.33,0,.59.26.59.59"/>
        <rect class="cls-10" x="133.54" y="174.44" width=".09" height="1.22"/>
        <rect class="cls-10" x="133.29" y="174.44" width=".09" height="1.22"/>
        <polygon class="cls-10" points="134.29 174.54 134.29 174.67 133.63 175.33 133.6 175.37 133.6 175.24 133.63 175.2 134.29 174.54"/>
        <polygon class="cls-10" points="134.29 174.94 134.29 175.07 133.71 175.66 133.6 175.66 133.6 175.64 133.63 175.6 134.29 174.94"/>
        <polygon class="cls-10" points="134.29 174.14 134.29 174.27 133.63 174.93 133.6 174.97 133.6 174.84 133.63 174.8 134.29 174.14"/>
        <polygon class="cls-10" points="132.63 174.54 132.63 174.67 133.29 175.33 133.32 175.37 133.32 175.24 133.29 175.2 132.63 174.54"/>
        <polygon class="cls-10" points="132.63 174.94 132.63 175.07 133.21 175.66 133.32 175.66 133.32 175.64 133.29 175.6 132.63 174.94"/>
        <polygon class="cls-10" points="132.63 174.14 132.63 174.27 133.29 174.93 133.32 174.97 133.32 174.84 133.29 174.8 132.63 174.14"/>
        <path class="cls-10" d="M134.3,169.91h-.61c-.18,0-.33.15-.33.33,0,0,0,.01,0,.02l-.46.35.08.1.42-.32c.06.11.17.18.3.18h.61c.18,0,.33-.15.33-.33s-.15-.33-.33-.33"/>
        <path class="cls-10" d="M125.44,169.91h.61c.18,0,.33.15.33.34,0,0,0,.01,0,.02l.46.35-.08.1-.42-.32c-.06.11-.17.18-.3.18h-.61c-.19,0-.34-.15-.34-.33s.15-.33.34-.33"/>
        <path class="cls-36" d="M134.74,174.38c0-.05.01-.1.02-.16h0c.08-.64.1-1.29.07-1.93,0-.12-.08-.29-.16-.38-.27-.32-.55-.63-.82-.94-.08-.09-.25-.17-.36-.17-1.22,0-2.43,0-3.65,0-1.18,0-2.36,0-3.55,0-.12,0-.28.08-.36.17-.28.31-.56.62-.83.94-.08.09-.15.27-.16.38,0,.13,0,.19-.01.32h0c0,.6.03,1.18.1,1.78h9.7Z"/>
        <path class="cls-34" d="M132.9,168.45s0,0,0,0c0-.22-1.36-.39-3.04-.39h-.03v2.87h3.93s-.86-2.47-.86-2.47Z"/>
        <path class="cls-34" d="M126.82,168.43s0,0,0,.01l-.84,2.47h3.85s0-2.87,0-2.87c-1.67,0-3.01.17-3.01.39"/>
        <path class="cls-19" d="M132.71,168.52c-.23-.12-1.29-.26-2.84-.26h-.04c-1.53,0-2.57.15-2.8.26l-.66,2.06h3.47s3.54,0,3.54,0l-.66-2.06Z"/>
        <rect class="cls-10" x="128.14" y="172.54" width="3.5" height="1.24" rx=".19" ry=".19"/>
        <path class="cls-2" d="M126.4,171.45h0v1.09h-.09v.47h1.16v-.47c0-.6-.47-1.09-1.06-1.09"/>
        <path class="cls-24" d="M125.97,173.53c-.36,0-.66-.29-.66-.66v-.02c0-.36.29-.66.66-.66h.02c.38.12,1.61.51,1.54.84-.07.34-.25.5-.57.5h-.99Z"/>
        <path class="cls-29" d="M127.46,173.03c-.06.29-.2.45-.51.45h-.99c-.33,0-.6-.27-.6-.6v-.02c0-.33.27-.6.6-.6,0,0,1.56.46,1.49.76"/>
        <path class="cls-34" d="M133.37,171.45h0v1.09h.09v.47h-1.16v-.47c0-.6.47-1.09,1.06-1.09"/>
        <path class="cls-2" d="M133.8,173.53c.36,0,.66-.29.66-.66v-.02c0-.36-.29-.66-.66-.66h-.02c-.38.12-1.61.51-1.54.84.07.34.25.5.57.5h.99Z"/>
        <path class="cls-29" d="M132.31,173.03c.06.29.2.45.51.45h.99c.33,0,.6-.27.6-.6v-.02c0-.33-.27-.6-.6-.6,0,0-1.56.46-1.49.76"/>
        <polygon class="cls-17" points="126.55 170.01 126.37 170.58 129.83 170.58 133.38 170.58 132.87 169 126.55 170.01"/>
        <path class="cls-15" d="M132.71,168.52c-.23-.12-1.29-.26-2.84-.26h-.04c-1.53,0-2.57.15-2.8.26l-.48,1.49,6.32-1.01-.15-.47Z"/>
        <path class="cls-10" d="M133.14,173.9l-.16.23h-6.2l-.16-.23h-1.65c.01.17.03.34.05.51.04.29.36.53.7.53,1.37,0,2.73,0,4.1,0h4.19c.34,0,.66-.23.7-.52.01-.08.02-.12.03-.2.01-.1.02-.21.03-.32h-1.65Z"/>
        <path class="cls-29" d="M128.48,174.24h2.81c.09,0,.16.07.16.16v.26c0,.09-.07.16-.16.16h-2.81c-.09,0-.16-.07-.16-.16v-.26c0-.09.07-.16.16-.16Z"/>
        <path class="cls-45" d="M114.76,170.77v1.47c0,.32-.26.58-.58.59h-.49c-.33,0-.59-.27-.59-.59v-1.46c0-.33.26-.59.59-.59h.48c.33,0,.59.26.59.59"/>
        <rect class="cls-10" x="114.01" y="171.6" width=".09" height="1.22"/>
        <rect class="cls-10" x="113.75" y="171.6" width=".09" height="1.22"/>
        <polygon class="cls-10" points="114.76 171.7 114.76 171.83 114.1 172.5 114.06 172.53 114.06 172.4 114.1 172.36 114.76 171.7"/>
        <polygon class="cls-10" points="114.76 172.1 114.76 172.24 114.17 172.82 114.06 172.82 114.06 172.8 114.1 172.77 114.76 172.1"/>
        <polygon class="cls-10" points="114.76 171.3 114.76 171.43 114.1 172.09 114.06 172.13 114.06 172 114.1 171.96 114.76 171.3"/>
        <polygon class="cls-10" points="113.09 171.7 113.09 171.83 113.75 172.5 113.79 172.53 113.79 172.4 113.75 172.36 113.09 171.7"/>
        <polygon class="cls-10" points="113.09 172.1 113.09 172.24 113.67 172.82 113.79 172.82 113.79 172.8 113.75 172.77 113.09 172.1"/>
        <polygon class="cls-10" points="113.09 171.3 113.09 171.43 113.75 172.09 113.79 172.13 113.79 172 113.75 171.96 113.09 171.3"/>
        <path class="cls-45" d="M121.91,170.77v1.47c0,.32-.26.58-.58.59h-.49c-.33,0-.59-.27-.59-.59v-1.46c0-.33.26-.59.59-.59h.48c.33,0,.59.26.59.59"/>
        <rect class="cls-10" x="121.16" y="171.6" width=".09" height="1.22"/>
        <rect class="cls-10" x="120.9" y="171.6" width=".09" height="1.22"/>
        <polygon class="cls-10" points="121.91 171.7 121.91 171.83 121.25 172.5 121.21 172.53 121.21 172.4 121.25 172.36 121.91 171.7"/>
        <polygon class="cls-10" points="121.91 172.1 121.91 172.24 121.32 172.82 121.21 172.82 121.21 172.8 121.25 172.77 121.91 172.1"/>
        <polygon class="cls-10" points="121.91 171.3 121.91 171.43 121.25 172.09 121.21 172.13 121.21 172 121.25 171.96 121.91 171.3"/>
        <polygon class="cls-10" points="120.24 171.7 120.24 171.83 120.9 172.5 120.94 172.53 120.94 172.4 120.9 172.36 120.24 171.7"/>
        <polygon class="cls-10" points="120.24 172.1 120.24 172.24 120.82 172.82 120.94 172.82 120.94 172.8 120.9 172.77 120.24 172.1"/>
        <polygon class="cls-10" points="120.24 171.3 120.24 171.43 120.9 172.09 120.94 172.13 120.94 172 120.9 171.96 120.24 171.3"/>
        <path class="cls-10" d="M121.91,167.07h-.61c-.18,0-.33.15-.33.33,0,0,0,.01,0,.02l-.46.35.08.1.42-.32c.06.11.17.18.3.18h.61c.18,0,.33-.15.33-.33s-.15-.33-.33-.33"/>
        <path class="cls-10" d="M113.06,167.07h.61c.18,0,.33.15.33.34,0,0,0,.01,0,.02l.46.35-.08.1-.42-.32c-.06.11-.17.18-.3.18h-.61c-.19,0-.34-.15-.34-.33s.15-.33.34-.33"/>
        <path class="cls-28" d="M122.35,171.54c0-.05.01-.1.02-.16h0c.08-.64.1-1.29.07-1.93,0-.12-.08-.29-.16-.38-.27-.32-.55-.63-.82-.94-.08-.09-.25-.17-.36-.17-1.22,0-2.43,0-3.65,0-1.18,0-2.36,0-3.55,0-.12,0-.28.08-.36.17-.28.31-.56.62-.83.94-.08.09-.15.27-.16.38,0,.13,0,.19-.01.32h0c0,.6.03,1.18.1,1.78h9.7Z"/>
        <path class="cls-33" d="M120.51,165.61s0,0,0,0c0-.22-1.36-.39-3.04-.39h-.03v2.87h3.93s-.86-2.47-.86-2.47Z"/>
        <path class="cls-33" d="M114.43,165.6s0,0,0,.01l-.84,2.47h3.85s0-2.87,0-2.87c-1.67,0-3.01.17-3.01.39"/>
        <path class="cls-19" d="M120.33,165.69c-.23-.12-1.29-.26-2.84-.26h-.04c-1.53,0-2.57.15-2.8.26l-.66,2.06h3.47s3.54,0,3.54,0l-.66-2.06Z"/>
        <rect class="cls-10" x="115.75" y="169.71" width="3.5" height="1.24" rx=".19" ry=".19"/>
        <path class="cls-33" d="M114.02,168.62h0v1.09h-.09v.47h1.16v-.47c0-.6-.47-1.09-1.06-1.09"/>
        <path class="cls-11" d="M113.58,170.7c-.36,0-.66-.29-.66-.66v-.02c0-.36.29-.66.66-.66h.02c.38.12,1.61.51,1.54.84-.07.34-.25.5-.57.5h-.99Z"/>
        <path class="cls-29" d="M115.08,170.19c-.06.29-.2.45-.51.45h-.99c-.33,0-.6-.27-.6-.6v-.02c0-.33.27-.6.6-.6,0,0,1.56.46,1.49.76"/>
        <path class="cls-33" d="M120.98,168.62h0v1.09h.09v.47h-1.16v-.47c0-.6.47-1.09,1.06-1.09"/>
        <path class="cls-24" d="M121.42,170.7c.36,0,.66-.29.66-.66v-.02c0-.36-.29-.66-.66-.66h-.02c-.38.12-1.61.51-1.54.84.07.34.25.5.57.5h.99Z"/>
        <path class="cls-29" d="M119.92,170.19c.06.29.2.45.51.45h.99c.33,0,.6-.27.6-.6v-.02c0-.33-.27-.6-.6-.6,0,0-1.56.46-1.49.76"/>
        <polygon class="cls-17" points="114.16 167.17 113.98 167.74 117.45 167.74 120.99 167.75 120.48 166.16 114.16 167.17"/>
        <path class="cls-15" d="M120.33,165.69c-.23-.12-1.29-.26-2.84-.26h-.04c-1.53,0-2.57.15-2.8.26l-.48,1.49,6.32-1.01-.15-.47Z"/>
        <path class="cls-10" d="M120.75,171.07l-.16.23h-6.2l-.16-.23h-1.65c.01.17.03.34.05.51.04.29.36.53.7.53,1.37,0,2.73,0,4.1,0h4.19c.34,0,.66-.23.7-.52.01-.08.02-.12.03-.2.01-.1.02-.21.03-.32h-1.65Z"/>
        <path class="cls-29" d="M116.1,171.4h2.81c.09,0,.16.07.16.16v.26c0,.09-.07.16-.16.16h-2.81c-.09,0-.16-.07-.16-.16v-.26c0-.09.07-.16.16-.16Z"/>
        <path class="cls-45" d="M119.55,176.23v1.91c0,.42-.34.76-.76.76h-.64c-.43,0-.77-.35-.77-.77v-1.91c0-.42.34-.77.77-.77h.62c.43,0,.77.35.77.77"/>
        <rect class="cls-10" x="118.57" y="177.32" width=".12" height="1.59"/>
        <rect class="cls-10" x="118.24" y="177.32" width=".12" height="1.59"/>
        <polygon class="cls-10" points="119.55 177.44 119.55 177.62 118.69 178.48 118.64 178.53 118.64 178.36 118.69 178.31 119.55 177.44"/>
        <polygon class="cls-10" points="119.55 177.97 119.55 178.14 118.79 178.9 118.64 178.9 118.64 178.88 118.69 178.83 119.55 177.97"/>
        <polygon class="cls-10" points="119.55 176.92 119.55 177.09 118.69 177.95 118.64 178 118.64 177.83 118.69 177.78 119.55 176.92"/>
        <polygon class="cls-10" points="117.38 177.44 117.38 177.62 118.24 178.48 118.29 178.53 118.29 178.36 118.24 178.31 117.38 177.44"/>
        <polygon class="cls-10" points="117.38 177.97 117.38 178.14 118.14 178.9 118.29 178.9 118.29 178.88 118.24 178.83 117.38 177.97"/>
        <polygon class="cls-10" points="117.38 176.92 117.38 177.09 118.24 177.95 118.29 178 118.29 177.83 118.24 177.78 117.38 176.92"/>
        <path class="cls-45" d="M128.85,176.23v1.91c0,.42-.34.76-.76.76h-.64c-.43,0-.77-.35-.77-.77v-1.91c0-.42.34-.77.77-.77h.62c.43,0,.77.35.77.77"/>
        <rect class="cls-10" x="127.88" y="177.32" width=".12" height="1.59"/>
        <rect class="cls-10" x="127.54" y="177.32" width=".12" height="1.59"/>
        <polygon class="cls-10" points="128.85 177.44 128.85 177.62 127.99 178.48 127.94 178.53 127.94 178.36 127.99 178.31 128.85 177.44"/>
        <polygon class="cls-10" points="128.85 177.97 128.85 178.14 128.09 178.9 127.94 178.9 127.94 178.88 127.99 178.83 128.85 177.97"/>
        <polygon class="cls-10" points="128.85 176.92 128.85 177.09 127.99 177.95 127.94 178 127.94 177.83 127.99 177.78 128.85 176.92"/>
        <polygon class="cls-10" points="126.68 177.44 126.68 177.62 127.54 178.48 127.59 178.53 127.59 178.36 127.54 178.31 126.68 177.44"/>
        <polygon class="cls-10" points="126.68 177.97 126.68 178.14 127.44 178.9 127.59 178.9 127.59 178.88 127.54 178.83 126.68 177.97"/>
        <polygon class="cls-10" points="126.68 176.92 126.68 177.09 127.54 177.95 127.59 178 127.59 177.83 127.54 177.78 126.68 176.92"/>
        <path class="cls-10" d="M128.86,171.42h-.8c-.24,0-.43.19-.43.43,0,0,0,.02,0,.03l-.6.46.1.13.55-.42c.07.14.22.24.39.24h.8c.24,0,.43-.19.43-.43s-.19-.44-.43-.44"/>
        <path class="cls-10" d="M117.34,171.42h.8c.24,0,.43.2.43.44,0,.01,0,.02,0,.03l.6.46-.1.13-.55-.42c-.07.14-.22.24-.39.24h-.8c-.24,0-.44-.19-.44-.44s.19-.43.44-.43"/>
        <path class="cls-39" d="M129.55,174.52c0-.15-.1-.38-.2-.5-.35-.41-.71-.82-1.07-1.23-.11-.12-.32-.22-.47-.22h-4.75c-1.54,0-3.07,0-4.61,0-.15,0-.36.1-.47.22-.36.4-.72.81-1.07,1.23-.1.12-.2.35-.2.5,0,.17-.01.25-.02.41h0c0,.79.04,1.56.13,2.35.05.38.47.68.91.68,1.78,0,3.55,0,5.33,0h5.46c.44,0,.86-.3.91-.68.01-.1.02-.15.03-.26h0c.1-.83.13-1.67.09-2.51"/>
        <path class="cls-39" d="M127.04,169.52s0,0,0-.01c0-.28-1.77-.51-3.96-.51h-.04v3.74h5.11s-1.12-3.21-1.12-3.21Z"/>
        <path class="cls-39" d="M119.13,169.5s0,0,0,.01l-1.09,3.21h5.01s0-3.73,0-3.73c-2.17,0-3.92.23-3.92.5"/>
        <path class="cls-19" d="M126.8,169.62c-.3-.15-1.68-.34-3.7-.34h-.05c-1.99,0-3.35.19-3.65.34l-.86,2.68h4.51s4.61,0,4.61,0l-.86-2.68Z"/>
        <rect class="cls-10" x="120.84" y="174.85" width="4.55" height="1.61" rx=".24" ry=".24"/>
        <path class="cls-28" d="M118.59,173.43s0,0-.01,0v1.42h-.12v.61h1.51v-.61c0-.78-.62-1.42-1.38-1.42"/>
        <path class="cls-28" d="M118.02,176.14c-.47,0-.86-.38-.86-.85v-.03c0-.47.38-.86.86-.86h.02c.49.15,2.09.66,2,1.09-.1.44-.33.64-.74.64h-1.28Z"/>
        <path class="cls-29" d="M119.97,175.48c-.08.38-.26.58-.66.58h-1.28c-.43,0-.77-.35-.77-.77v-.03c0-.43.35-.78.77-.78,0,0,2.03.6,1.94.99"/>
        <path class="cls-28" d="M127.65,173.43s0,0,0,0v1.42h.12v.61h-1.51v-.61c0-.78.62-1.42,1.38-1.42"/>
        <path class="cls-28" d="M128.21,176.14c.47,0,.85-.38.85-.85v-.03c0-.47-.38-.86-.85-.86h-.02c-.49.15-2.09.66-2,1.09.09.44.33.64.74.64h1.28Z"/>
        <path class="cls-29" d="M126.27,175.48c.08.38.26.58.66.58h1.28c.43,0,.77-.35.77-.77v-.03c0-.43-.35-.78-.77-.78,0,0-2.03.6-1.94.99"/>
        <polygon class="cls-17" points="118.78 171.55 118.54 172.29 123.05 172.3 127.66 172.3 126.99 170.23 118.78 171.55"/>
        <path class="cls-15" d="M126.8,169.62c-.3-.15-1.68-.34-3.7-.34h-.05c-1.99,0-3.35.19-3.65.34l-.63,1.94,8.22-1.32-.2-.62Z"/>
        <path class="cls-10" d="M127.35,176.62l-.2.3h-8.06l-.2-.3h-2.15c.02.22.04.44.07.66.05.38.47.68.91.68,1.78,0,3.55,0,5.33,0h5.46c.44,0,.86-.3.91-.68.01-.1.02-.15.03-.26.02-.14.03-.27.04-.41h-2.14Z"/>
        <path class="cls-29" d="M121.29,177.06h3.65c.11,0,.21.09.21.21v.33c0,.11-.09.21-.21.21h-3.65c-.11,0-.2-.09-.2-.2v-.33c0-.11.09-.2.2-.2Z"/>
        <path class="cls-12" d="M159.02,173.74l3.41-.02s1.72.18,2.97.75c0,0,1.7,1.39,2,3.77,0,0-.09,2.38-1.36,3.51,0,0-.62.5-1.06.13,0,0-.76-.37-.08-2.26,0,0,.4-1.72-.88-1.88,0,0-.89-.14-.64.97l1.36,1.81s.56.7-.08,1.42c0,0-.42.76-1.82-.31l-1.61-1.03-1.28-1.21s-.77.17-1.96-.95l-1.9-.47,1.04-4.6,1.86.37Z"/>
        <polygon class="cls-17" points="165.44 186.51 165.57 188.26 165.27 189.71 165.44 191.16 165.17 191.5 165.44 191.84 165.17 192.17 164.65 192.17 164.65 186.51 165.44 186.51"/>
        <polygon class="cls-1" points="164.04 189.71 163.74 188.26 163.86 186.51 164.65 186.51 164.65 192.17 164.14 192.17 163.86 191.84 164.14 191.5 163.86 191.16 164.04 189.71"/>
        <path class="cls-37" d="M162.35,186.24c0,1.02,1.03.98,2.3.98s2.3.04,2.3-.98-1.03-2.72-2.3-2.72-2.3,1.7-2.3,2.72M163.57,185.64c-.58-.54.74-1.67,1.08-1.73.36.05,1.67,1.18,1.1,1.73-.15.14-.61.03-.8.03h-.58c-.19,0-.65.12-.8-.03"/>
        <path class="cls-3" d="M164.65,183.52c1.27,0,2.3,1.7,2.3,2.72,0,.2-.04.35-.11.48-1.07-.16-2-.53-2.65-1.04.07,0,.13,0,.17,0h.58c.19,0,.65.11.8-.03.57-.54-.74-1.67-1.1-1.73-.27.04-.98.6-1.19,1.2-.22-.28-.24-.63-.21-.88.39-.42.88-.72,1.41-.72"/>
        <g class="cls-13">
          <g class="cls-21">
            <g class="cls-38">
              <rect class="cls-25" x="163.03" y="180.71" width="2.73" height="3.71"/>
            </g>
          </g>
        </g>
        <path class="cls-22" d="M157.45,174.11l-1.25,3.45s3.1.66,4.25.99c.18.05,1.17.17,1.17.17l.83-4.59h-5Z"/>
        <path class="cls-22" d="M162.02,174.35c.01-.64,3.27.53,3.27.53,0,0,1.22.77,1.75,3.84-.52,2.06-.98,2.84-1.44,3.01-.22-.61-.57-.79-.56-.83.08-.5.27-1.16.31-1.8.09-1.34-.65-1.76-1.44-1.8-1.61-.08-.77,2.15-.77,2.15,0,0-1.66-1.46-2.07-.93l.94-4.17Z"/>
        <path class="cls-22" d="M159.45,178.4l2.07,1.77.2.17s.02.01,0,0h0s0,0,0,0h0s.01.01.01.01l.03.02.05.04.1.07c.14.1.27.19.4.29.26.19.51.36.71.51.42.3.7.5.7.5.26.19.62.13.81-.13.15-.21.14-.49,0-.69,0,0-.21-.27-.52-.69-.15-.2-.34-.44-.53-.7-.1-.13-.2-.26-.3-.4l-.08-.1-.04-.05-.02-.02h0s0-.02,0-.02h0s0,0,0,0c0,0,0,0,0,0l-.17-.19c-.88-1.04-1.77-2.07-1.77-2.07-.43-.5-1.17-.56-1.67-.13-.5.42-.56,1.17-.13,1.67.04.05.09.09.13.13"/>
        <path class="cls-22" d="M158.27,177.96c.46.33.84,1.03,1.88,1.03s1.88-.46,1.88-1.03-2.72-1.51-3.76-1.51-.55,1.11,0,1.51"/>
        <polygon class="cls-17" points="156.27 172.93 155.13 178 157.98 178.68 159.12 173.62 156.27 172.93"/>
      </g>
      <g>
        <polygon class="cls-17" points="164.96 83.72 167.4 94.56 161.29 96.03 158.86 85.19 164.96 83.72"/>
        <g>
          <path class="cls-12" d="M139.73,98.77c0,11.46-9.29,20.74-20.74,20.74s-20.74-9.29-20.74-20.74,9.29-20.74,20.74-20.74,20.74,9.29,20.74,20.74"/>
          <path class="cls-34" d="M134.48,90.93s-.04-.03-.05-.04c-.02-.02-.04-.03-.06-.05-2.96-2.41-6.15-3.37-9.14-3.26-.2,0-.4.01-.6.03.72-.82,1.46-1.61,2.24-2.34-3.62-3.3-12.83-5.74-22.58-.55.53-1.05,11.13-10.54,24.59-3.83.29-1.25.48-2.89.48-2.89,0,0,4.9,5.72,5.12,12.94"/>
          <path class="cls-36" d="M134.37,90.83c-2.96-2.41-6.15-3.37-9.14-3.26-.2,0-.4.01-.6.03.72-.82,1.46-1.61,2.24-2.34-3.62-3.3-12.83-5.74-22.58-.55.02-.04.04-.08.06-.12,3.96-2.53,20.34-11.74,30.08,6.29-.02-.02-.04-.03-.06-.05"/>
          <path class="cls-34" d="M104.15,90.25s0,.05,0,.07c0,.03,0,.05,0,.08-.39,3.8.56,7,2.28,9.43.12.17.23.33.36.48-1.08-.15-2.14-.34-3.19-.59-.78,4.84,2.24,13.88,11.92,19.19-1.17.13-14.92-3.53-16.68-18.47-1.2.45-2.68,1.19-2.68,1.19,0,0,2.1-7.24,8.02-11.38"/>
          <path class="cls-36" d="M104.14,90.39c-.39,3.8.56,6.99,2.28,9.43.12.17.23.33.35.48-1.08-.15-2.14-.34-3.19-.59-.78,4.84,2.24,13.88,11.92,19.19-.04,0-.09,0-.13.01-4.28-1.93-20.97-10.58-11.23-28.61,0,.03,0,.05,0,.08"/>
          <path class="cls-34" d="M119.03,116.01s.04-.02.06-.03c.02,0,.05-.02.07-.03,3.48-1.56,5.78-3.98,7.03-6.7.09-.18.17-.36.24-.55.41,1.01.77,2.03,1.09,3.05,4.58-1.75,10.9-8.88,10.65-19.92.7.95,4.41,14.68-7.65,23.69.99.82,2.37,1.73,2.37,1.73,0,0-7.32,1.81-13.86-1.25"/>
          <path class="cls-36" d="M119.16,115.95c3.48-1.56,5.78-3.98,7.03-6.7.08-.18.17-.36.24-.55.41,1.01.77,2.03,1.09,3.05,4.58-1.75,10.9-8.88,10.66-19.92.03.04.05.07.07.11.47,4.67,1.33,23.45-19.15,24.03.02,0,.05-.02.07-.03"/>
          <path class="cls-34" d="M144.41,80.62c0,.07,0,.14,0,.21,0,.07,0,.14-.01.21-.01.1-.02.21-.04.31-.02.11-.04.22-.07.33-.05.21-.12.41-.2.6-.01.03-.02.05-.04.08-.04.1-.09.19-.14.28-.01.03-.03.06-.04.08-.19.33-.41.62-.67.88-.02.02-.05.05-.08.07-.04.04-.09.08-.13.12-.03.03-.06.05-.09.08-.07.06-.14.11-.21.16,0,0-.02.01-.03.02-.09.07-.19.13-.29.18-.09.05-.18.1-.27.14,0,0-.01,0-.02,0-.18.09-.38.16-.57.21-.04.01-.08.02-.13.03-.2.05-.4.08-.61.1-.07,0-.13,0-.2.01-.03,0-.07,0-.1,0s-.07,0-.1,0c-.07,0-.14,0-.2-.01-.21-.02-.41-.05-.61-.1-.04,0-.08-.02-.13-.03-.2-.06-.39-.13-.57-.21,0,0-.01,0-.02,0-.08-.04-.16-.08-.24-.13-.11-.06-.21-.13-.32-.2-.01,0-.02-.01-.03-.02-.07-.05-.14-.1-.21-.16-.03-.02-.06-.05-.09-.08-.04-.04-.09-.08-.13-.12-.05-.04-.09-.09-.14-.14-.23-.24-.44-.52-.61-.81-.02-.03-.03-.05-.05-.08-.05-.09-.1-.19-.14-.28-.01-.03-.02-.05-.04-.08-.08-.19-.15-.39-.2-.6-.03-.11-.05-.22-.07-.33-.02-.1-.03-.2-.04-.31,0-.07-.01-.14-.02-.21,0-.07,0-.14,0-.21s0-.14,0-.21c0-.04,0-.09,0-.13h0s0-.05,0-.08c0-.03,0-.05.01-.08,0-.08.02-.15.03-.23.02-.11.04-.22.07-.33.05-.21.12-.41.2-.6,0-.01.01-.03.02-.04,0-.01.01-.03.02-.04.04-.1.09-.19.14-.28.01-.03.03-.06.05-.08.18-.33.41-.62.67-.88.02-.02.05-.05.07-.07.04-.04.09-.08.13-.12.03-.03.06-.05.09-.08.07-.06.14-.11.21-.16.01,0,.02-.01.03-.02.18-.12.37-.23.56-.33,0,0,.01,0,.02,0,.18-.09.38-.16.57-.21.04-.01.08-.02.13-.03.2-.05.4-.08.61-.1.07,0,.13,0,.2-.01.03,0,.07,0,.1,0s.07,0,.1,0c.07,0,.13,0,.2.01.21.02.41.05.61.1.04,0,.08.02.13.03.2.06.39.13.57.21,0,0,.01,0,.02,0,.2.09.38.2.56.33,0,0,.02.01.03.02.07.05.14.1.21.16.03.02.06.05.09.08.04.04.09.08.13.12.03.02.05.05.07.07.26.26.49.56.67.88.01.03.03.05.04.08.05.09.1.19.14.28.01.03.02.05.04.08.08.19.15.39.2.6.03.11.05.22.07.33.02.1.03.2.04.31,0,.03,0,.07,0,.1,0,.04,0,.08,0,.11,0,.07,0,.14,0,.21"/>
          <path class="cls-34" d="M136.52,80.28s0,0,0,0c0,0,0,0,0,0h0s0,0,0,0M136.44,80.24s0,0,.01,0c.02,0,.03.02.06.03,0,0,0,0-.01,0-.02-.01-.04-.02-.06-.03"/>
          <path class="cls-34" d="M136.44,80.24s.04.02.06.03c-.01,0-.03-.02-.05-.02,0,0,0,0-.01,0"/>
          <polyline class="cls-34" points="136.52 80.28 136.52 80.28 136.52 80.28 136.52 80.28"/>
          <path class="cls-34" d="M147.06,88.72v6.92c0,.09-.07.09-.15.09h-12.91c-.08,0-.18,0-.18-.09v-6.92c0-.07.01-.14.01-.21.05-1.02.44-1.94,1.05-2.64.02-.02.04-.04.06-.06.31-.33.66-.61,1.05-.81.02-.01.05-.02.07-.04.11-.05.22-.1.33-.14.03,0,.05-.02.08-.03.1-.04.2-.07.31-.09.13.13.26.25.4.36.35.29.74.53,1.15.72.08.04.16.07.23.1.3.12.61.21.93.28.31.06.63.09.94.09.37,0,.72-.04,1.08-.12.04,0,.09-.03.13-.03h.2c.17,0,.34-.14.51-.2.07-.03.13-.09.2-.12.32-.15.62-.35.91-.58.03,0,.06-.02.09-.05.19-.15.37-.29.54-.46,1.62.39,2.86,1.95,2.94,3.82,0,.07.02.14.02.21"/>
          <path class="cls-34" d="M119.18,85.94l4.2,10.27s.03.05.04.08l6.8,8.77c.18.24-.01.58-.31.54l-10.99-1.5s-.06,0-.09,0l-10.99,1.5c-.3.04-.49-.3-.31-.54l6.8-8.77s.03-.05.04-.08l4.2-10.27c.11-.28.51-.28.62,0"/>
          <path class="cls-12" d="M119.11,92.14l2.14,5.24s.02.04.04.06l3.47,4.48c.15.19-.01.46-.25.43l-5.61-.76s-.05,0-.07,0l-5.61.76c-.24.03-.39-.24-.25-.43l3.47-4.48s.03-.04.04-.06l2.14-5.24c.09-.22.4-.22.5,0"/>
          <path class="cls-17" d="M128.36,132.15h-19.82c-.25,0-.45-.2-.45-.45v-.52c0-.25.2-.45.45-.45h19.82c.25,0,.45.2.45.45v.52c0,.25-.2.45-.45.45"/>
          <path class="cls-17" d="M127.72,122.97v-.29c0-.24-.29-.44-.66-.44h-17.23c-.36,0-.66.2-.66.44v.29c0,.24.29.44.66.44h.17c.36,0,.66.2.66.44v4.86c0,.24-.29.44-.66.44h-.17c-.36,0-.66.2-.66.44v.29c0,.24.29.44.66.44h17.23c.36,0,.66-.2.66-.44v-.29c0-.24-.29-.44-.66-.44h-.12c-.36,0-.66-.2-.66-.44v-4.86c0-.24.29-.44.66-.44h.13c.36,0,.66-.2.66-.44M119.21,123.85v4.86c0,.24-.29.44-.66.44h-.27c-.36,0-.66-.2-.66-.44v-4.86c0-.24.29-.44.66-.44h.27c.36,0,.66.2.66.44M113.92,123.41h.45c.36,0,.66.2.66.44v4.86c0,.24-.29.44-.66.44h-.45c-.36,0-.66-.2-.66-.44v-4.86c0-.24.29-.44.66-.44M123.02,129.16h-.55c-.36,0-.66-.2-.66-.44v-4.86c0-.24.29-.44.66-.44h.55c.36,0,.66.2.66.44v4.86c0,.24-.29.44-.66.44"/>
          <path class="cls-17" d="M108.8,121.15l9.75-4.92c.07-.04.16-.04.23,0l9.33,4.92c.26.14.17.57-.12.57h-19.08c-.29,0-.38-.44-.11-.57"/>
          <path class="cls-12" d="M159.08,85.45l-7.3-.05s-3.67.38-6.36,1.6c0,0-3.65,2.97-4.29,8.08,0,0,.19,5.09,2.92,7.51,0,0,1.32,1.06,2.26.28,0,0,1.62-.8.17-4.85,0,0-.85-3.67,1.88-4.03,0,0,1.91-.31,1.37,2.07l-2.92,3.88s-1.2,1.51.17,3.04c0,0,.89,1.62,3.88-.66l3.44-2.21,2.73-2.59s1.65.35,4.19-2.02l4.07-1.01-2.24-9.84-3.98.8Z"/>
          <polygon class="cls-17" points="145.32 112.78 145.05 116.53 145.7 119.64 145.32 122.75 145.91 123.47 145.32 124.19 145.91 124.91 147.01 124.91 147.01 112.78 145.32 112.78"/>
          <polygon class="cls-1" points="148.32 119.64 148.97 116.53 148.7 112.78 147.01 112.78 147.01 124.91 148.11 124.91 148.7 124.19 148.11 123.47 148.7 122.75 148.32 119.64"/>
          <path class="cls-37" d="M147.01,106.38c-2.72,0-4.93,3.64-4.93,5.83s2.21,2.1,4.93,2.1,4.93.09,4.93-2.1-2.21-5.83-4.93-5.83M147.62,110.99h-1.24c-.4,0-1.39.25-1.71-.06-1.23-1.16,1.58-3.58,2.35-3.7.74.11,3.55,2.53,2.32,3.7-.32.31-1.32.06-1.72.06"/>
          <path class="cls-3" d="M147.01,106.38c-2.72,0-4.93,3.64-4.93,5.83,0,.42.08.75.23,1.02,2.3-.33,4.29-1.14,5.68-2.23-.14,0-.27,0-.37,0h-1.24c-.4,0-1.39.25-1.71-.06-1.23-1.16,1.58-3.58,2.35-3.7.57.09,2.1,1.28,2.55,2.56.47-.6.51-1.34.46-1.87-.83-.91-1.88-1.55-3.02-1.55"/>
          <g class="cls-9">
            <g class="cls-8">
              <g class="cls-27">
                <rect class="cls-41" x="144.65" y="100.37" width="5.84" height="7.94"/>
              </g>
            </g>
          </g>
          <path class="cls-22" d="M162.44,86.24l2.68,7.39s-6.65,1.4-9.1,2.11c-.38.11-2.5.36-2.5.36l-1.78-9.83,10.7-.03Z"/>
          <path class="cls-22" d="M152.64,86.75c-.03-1.38-7,1.13-7,1.13,0,0-2.62,1.65-3.75,8.22,1.12,4.42,2.09,6.08,3.08,6.45.48-1.31,1.22-1.7,1.2-1.78-.18-1.07-.57-2.48-.67-3.86-.2-2.86,1.38-3.76,3.08-3.85,3.46-.18,1.64,4.61,1.64,4.61,0,0,3.55-3.13,4.43-1.98l-2.01-8.93Z"/>
          <path class="cls-22" d="M158.15,95.42s-2.22,1.89-4.44,3.79l-.42.35s-.03.03-.02.02h0s0,0,0,0h-.01s-.03.03-.03.03l-.06.04-.11.08-.22.16c-.29.21-.58.42-.86.62-.56.4-1.08.78-1.53,1.1-.9.64-1.49,1.07-1.49,1.07-.56.4-1.33.27-1.73-.28-.32-.45-.3-1.05.02-1.47,0,0,.44-.59,1.11-1.47.33-.44.72-.95,1.13-1.5.21-.27.42-.56.64-.85l.16-.22.08-.11.04-.05.02-.03h.01s0-.02,0-.02h0s-.02.01-.01,0l.35-.42c1.89-2.22,3.79-4.44,3.79-4.44.91-1.07,2.51-1.19,3.58-.28,1.07.91,1.19,2.51.28,3.58-.09.1-.19.2-.28.28"/>
          <path class="cls-22" d="M160.69,94.48c-.98.71-1.8,2.19-4.02,2.19s-4.02-.98-4.02-2.19,5.82-3.24,8.04-3.24,1.17,2.39,0,3.24"/>
          <polygon class="cls-17" points="78.79 89.46 75.53 89.12 73.71 88.81 73.72 80.62 75.53 80.27 75.53 77.47 91.38 72.75 102.45 77.81 102.45 80.14 104.21 81.01 104.21 89.26 101.5 89.35 101.3 89.37 91.08 89.37 79.35 89.35 78.79 89.46"/>
          <polygon class="cls-7" points="91.29 73.2 91.23 78.08 78.42 80.57 78.44 89.4 75.68 89.12 73.92 88.85 73.96 80.92 75.78 80.6 75.76 77.82 91.29 73.2"/>
          <polygon class="cls-16" points="79.35 89.35 78.55 89.46 78.55 80.64 91.22 78.2 101.48 81.02 101.49 89.37 101.02 89.35 101.02 81.21 91.08 78.88 79.35 80.92 79.35 89.35"/>
          <polygon class="cls-20" points="91.08 89.31 79.31 89.31 79.31 80.89 91.04 78.84 91.08 89.31"/>
          <polygon class="cls-20" points="101.01 89.35 91.08 89.32 91.08 78.88 101.01 81.21 101.01 89.35"/>
          <rect x="84.36" y="79.99" width=".19" height="9.3"/>
          <polygon points="91.07 83.31 91.09 83.5 79.29 84.7 79.27 84.51 91.07 83.31"/>
          <rect x="96.09" y="80.06" width=".19" height="9.27"/>
          <polygon points="101.03 84.48 101.01 84.66 91.01 83.49 91.03 83.31 101.03 84.48"/>
          <polygon points="91.21 89.33 90.94 89.33 90.94 78.9 91.07 78.88 91.21 78.91 91.21 89.33"/>
          <path class="cls-17" d="M95.74,88.4c.02-.23.03-.45.02-.68,0-.05-.03-.12-.07-.16-.11-.14-.23-.27-.35-.41-.01-.01-.03-.02-.04-.03l-.05-.13s.01,0,.02,0h.26c.08,0,.14-.05.14-.13s-.06-.14-.14-.14h-.26s-.08,0-.1.03l-.23-.66h0c0-.1-.58-.18-1.29-.2h-.01c-.71-.02-1.28.04-1.28.13,0,0,0,0,0,0l-.23.65s-.06-.04-.1-.04h-.26c-.08,0-.14.05-.14.13s.06.14.14.15h.26s.01,0,.02,0l-.05.14s-.02.01-.02.02c-.12.13-.24.26-.35.39-.03.04-.06.11-.07.16,0,.05,0,.08,0,.13,0,.18,0,.37.02.55,0,.07.01.14.02.21.01.09.09.17.19.21v.07h0c0,.14.11.25.25.26h.03s.02,0,.02,0h.02s.07,0,.07,0h.04s.03,0,.03,0c.14,0,.25-.11.25-.24v-.06h0c.38,0,.76.02,1.14.03l1.18.03v.05h0c0,.14.11.25.25.26h.03s.02,0,.02,0h.02s.07,0,.07,0h.07c.14,0,.25-.1.25-.24v-.07c.1-.03.17-.11.19-.2,0-.03,0-.05.01-.08,0-.04,0-.09.01-.13h0"/>
          <path class="cls-17" d="M100.68,88.47c.02-.23.03-.45.02-.68,0-.05-.03-.12-.07-.16-.11-.14-.23-.27-.35-.41-.01-.01-.03-.02-.04-.03l-.05-.13s.01,0,.02,0h.26c.08,0,.14-.05.14-.13s-.06-.14-.14-.14h-.26s-.08,0-.1.03l-.23-.66h0c0-.1-.58-.18-1.29-.2h-.01c-.71-.02-1.28.04-1.28.13,0,0,0,0,0,0l-.23.65s-.06-.04-.1-.04h-.26c-.08,0-.14.05-.14.13s.06.14.14.15h.26s.01,0,.02,0l-.05.14s-.02.01-.02.02c-.12.13-.24.26-.35.39-.03.04-.06.11-.07.16,0,.05,0,.08,0,.13,0,.18,0,.37.02.55,0,.07.01.14.02.21.01.09.09.17.19.21v.07h0c0,.14.11.25.25.26h.03s.02,0,.02,0h.09s.02,0,.02,0h.02s.03,0,.03,0c.14,0,.25-.11.25-.24v-.06h0c.38,0,.76.02,1.14.03l1.18.03v.05h0c0,.14.11.25.25.26h.03s.02,0,.02,0h.02s.07,0,.07,0h.04s.03,0,.03,0c.14,0,.25-.1.25-.24v-.07c.1-.03.17-.11.19-.2,0-.03,0-.05.01-.08,0-.04,0-.09.01-.13h0"/>
          <path class="cls-45" d="M88.31,93.07v1.9c0,.42-.34.75-.76.76h-.63c-.42,0-.77-.34-.77-.77v-1.9c0-.42.34-.77.77-.77h.62c.42,0,.77.34.77.77"/>
          <rect class="cls-10" x="87.34" y="94.16" width=".12" height="1.58"/>
          <rect class="cls-10" x="87.01" y="94.16" width=".12" height="1.58"/>
          <polygon class="cls-10" points="88.31 94.28 88.31 94.46 87.46 95.31 87.41 95.36 87.41 95.19 87.46 95.14 88.31 94.28"/>
          <polygon class="cls-10" points="88.31 94.8 88.31 94.98 87.56 95.74 87.41 95.74 87.41 95.71 87.46 95.66 88.31 94.8"/>
          <polygon class="cls-10" points="88.31 93.76 88.31 93.93 87.46 94.79 87.41 94.84 87.41 94.67 87.46 94.62 88.31 93.76"/>
          <polygon class="cls-10" points="86.16 94.28 86.16 94.46 87.01 95.31 87.06 95.36 87.06 95.19 87.01 95.14 86.16 94.28"/>
          <polygon class="cls-10" points="86.16 94.8 86.16 94.98 86.91 95.74 87.06 95.74 87.06 95.71 87.01 95.66 86.16 94.8"/>
          <polygon class="cls-10" points="86.16 93.76 86.16 93.93 87.01 94.79 87.06 94.84 87.06 94.67 87.01 94.62 86.16 93.76"/>
          <path class="cls-45" d="M97.57,93.07v1.9c0,.42-.34.75-.76.76h-.63c-.42,0-.77-.34-.77-.77v-1.9c0-.42.34-.77.77-.77h.62c.42,0,.77.34.77.77"/>
          <rect class="cls-10" x="96.6" y="94.16" width=".12" height="1.58"/>
          <rect class="cls-10" x="96.27" y="94.16" width=".12" height="1.58"/>
          <polygon class="cls-10" points="97.57 94.28 97.57 94.46 96.72 95.31 96.67 95.36 96.67 95.19 96.72 95.14 97.57 94.28"/>
          <polygon class="cls-10" points="97.57 94.8 97.57 94.98 96.82 95.74 96.67 95.74 96.67 95.71 96.72 95.66 97.57 94.8"/>
          <polygon class="cls-10" points="97.57 93.76 97.57 93.93 96.72 94.79 96.67 94.84 96.67 94.67 96.72 94.62 97.57 93.76"/>
          <polygon class="cls-10" points="95.42 94.28 95.42 94.46 96.27 95.31 96.32 95.36 96.32 95.19 96.27 95.14 95.42 94.28"/>
          <polygon class="cls-10" points="95.42 94.8 95.42 94.98 96.17 95.74 96.32 95.74 96.32 95.71 96.27 95.66 95.42 94.8"/>
          <polygon class="cls-10" points="95.42 93.76 95.42 93.93 96.27 94.79 96.32 94.84 96.32 94.67 96.27 94.62 95.42 93.76"/>
          <path class="cls-10" d="M97.58,88.28h-.8c-.24,0-.43.19-.43.43,0,0,0,.02,0,.03l-.6.45.1.13.55-.41c.07.14.21.24.38.24h.8c.24,0,.43-.19.43-.43s-.19-.43-.43-.43"/>
          <path class="cls-10" d="M86.11,88.28h.8c.24,0,.43.2.43.43,0,0,0,.02,0,.03l.6.46-.1.13-.55-.42c-.07.14-.22.24-.38.24h-.8c-.24,0-.43-.2-.43-.43s.19-.43.43-.43"/>
          <path class="cls-36" d="M98.15,94.08c0-.07.02-.12.03-.21.1-.83.13-1.67.09-2.5,0-.15-.1-.37-.2-.5-.35-.41-.71-.82-1.07-1.22-.11-.12-.32-.22-.47-.22-1.58,0-3.15,0-4.73,0-1.53,0-3.06,0-4.59,0-.15,0-.36.1-.47.22-.36.4-.72.81-1.07,1.22-.1.12-.2.34-.2.5,0,.16-.01.25-.02.41h0c0,.78.04,1.53.13,2.3h12.57Z"/>
          <path class="cls-34" d="M95.77,86.39s0,0,0-.01c0-.28-1.76-.51-3.94-.51h-.04v3.72h5.09s-1.12-3.2-1.12-3.2Z"/>
          <path class="cls-34" d="M87.89,86.37s0,0,0,.01l-1.09,3.2h4.99s0-3.72,0-3.72c-2.16,0-3.91.23-3.91.5"/>
          <path class="cls-19" d="M95.53,86.49c-.3-.15-1.67-.34-3.68-.34h-.05c-1.98,0-3.33.19-3.63.34l-.86,2.67h4.49s4.59,0,4.59,0l-.86-2.67Z"/>
          <rect class="cls-10" x="89.6" y="91.7" width="4.53" height="1.6" rx=".24" ry=".24"/>
          <path class="cls-2" d="M87.36,90.29h0v1.41h-.12v.61h1.51v-.61c0-.78-.61-1.41-1.37-1.41"/>
          <path class="cls-24" d="M86.79,92.98c-.47,0-.85-.38-.85-.85v-.03c0-.47.38-.85.85-.85h.02c.49.15,2.08.66,1.99,1.09-.09.44-.33.64-.73.64h-1.28Z"/>
          <path class="cls-29" d="M88.73,92.32c-.08.37-.26.58-.66.58h-1.28c-.43,0-.77-.34-.77-.77v-.03c0-.43.35-.77.77-.77,0,0,2.02.6,1.93.99"/>
          <path class="cls-34" d="M96.38,90.29h0v1.41h.12v.61h-1.51v-.61c0-.78.61-1.41,1.37-1.41"/>
          <path class="cls-2" d="M96.94,92.98c.47,0,.85-.38.85-.85v-.03c0-.47-.38-.85-.85-.85h-.02c-.49.15-2.08.66-1.99,1.09.09.44.33.64.73.64h1.28Z"/>
          <path class="cls-29" d="M95.01,92.32c.08.37.26.58.66.58h1.28c.43,0,.77-.34.77-.77v-.03c0-.43-.35-.77-.77-.77,0,0-2.02.6-1.93.99"/>
          <polygon class="cls-17" points="87.54 88.42 87.31 89.15 91.8 89.16 96.39 89.16 95.73 87.1 87.54 88.42"/>
          <path class="cls-15" d="M95.53,86.49c-.3-.15-1.67-.34-3.68-.34h-.05c-1.98,0-3.33.19-3.63.34l-.62,1.93,8.18-1.31-.2-.61Z"/>
          <path class="cls-10" d="M96.08,93.46l-.2.3h-8.03l-.2-.3h-2.14c.02.22.04.44.07.66.05.38.47.68.91.68,1.77,0,3.54,0,5.31,0h5.43c.44,0,.86-.3.91-.68.01-.1.02-.15.03-.26.02-.14.03-.27.04-.41h-2.14Z"/>
          <rect class="cls-29" x="89.85" y="93.9" width="4.04" height=".74" rx=".2" ry=".2"/>
          <path class="cls-45" d="M70.78,93.07v1.9c0,.42-.34.75-.76.76h-.63c-.42,0-.77-.34-.77-.77v-1.9c0-.42.34-.77.77-.77h.62c.42,0,.77.34.77.77"/>
          <rect class="cls-10" x="69.81" y="94.16" width=".12" height="1.58"/>
          <rect class="cls-10" x="69.47" y="94.16" width=".12" height="1.58"/>
          <polygon class="cls-10" points="70.78 94.28 70.78 94.46 69.92 95.31 69.87 95.36 69.87 95.19 69.92 95.14 70.78 94.28"/>
          <polygon class="cls-10" points="70.78 94.8 70.78 94.98 70.02 95.74 69.87 95.74 69.87 95.71 69.92 95.66 70.78 94.8"/>
          <polygon class="cls-10" points="70.78 93.76 70.78 93.93 69.92 94.79 69.87 94.84 69.87 94.67 69.92 94.62 70.78 93.76"/>
          <polygon class="cls-10" points="68.62 94.28 68.62 94.46 69.47 95.31 69.52 95.36 69.52 95.19 69.47 95.14 68.62 94.28"/>
          <polygon class="cls-10" points="68.62 94.8 68.62 94.98 69.38 95.74 69.52 95.74 69.52 95.71 69.47 95.66 68.62 94.8"/>
          <polygon class="cls-10" points="68.62 93.76 68.62 93.93 69.47 94.79 69.52 94.84 69.52 94.67 69.47 94.62 68.62 93.76"/>
          <path class="cls-45" d="M80.04,93.07v1.9c0,.42-.34.75-.76.76h-.63c-.42,0-.77-.34-.77-.77v-1.9c0-.42.34-.77.77-.77h.62c.42,0,.77.34.77.77"/>
          <rect class="cls-10" x="79.07" y="94.16" width=".12" height="1.58"/>
          <rect class="cls-10" x="78.73" y="94.16" width=".12" height="1.58"/>
          <polygon class="cls-10" points="80.04 94.28 80.04 94.46 79.19 95.31 79.14 95.36 79.14 95.19 79.19 95.14 80.04 94.28"/>
          <polygon class="cls-10" points="80.04 94.8 80.04 94.98 79.28 95.74 79.14 95.74 79.14 95.71 79.19 95.66 80.04 94.8"/>
          <polygon class="cls-10" points="80.04 93.76 80.04 93.93 79.19 94.79 79.14 94.84 79.14 94.67 79.19 94.62 80.04 93.76"/>
          <polygon class="cls-10" points="77.88 94.28 77.88 94.46 78.73 95.31 78.78 95.36 78.78 95.19 78.73 95.14 77.88 94.28"/>
          <polygon class="cls-10" points="77.88 94.8 77.88 94.98 78.64 95.74 78.78 95.74 78.78 95.71 78.73 95.66 77.88 94.8"/>
          <polygon class="cls-10" points="77.88 93.76 77.88 93.93 78.73 94.79 78.78 94.84 78.78 94.67 78.73 94.62 77.88 93.76"/>
          <path class="cls-10" d="M80.05,88.28h-.8c-.24,0-.43.19-.43.43,0,0,0,.02,0,.03l-.6.45.1.13.55-.41c.07.14.21.24.38.24h.8c.24,0,.43-.19.43-.43s-.19-.43-.43-.43"/>
          <path class="cls-10" d="M68.57,88.28h.8c.24,0,.43.2.43.43,0,0,0,.02,0,.03l.6.46-.1.13-.55-.42c-.07.14-.22.24-.38.24h-.8c-.24,0-.43-.2-.43-.43s.19-.43.43-.43"/>
          <path class="cls-28" d="M80.61,94.08c0-.07.02-.12.03-.21.1-.83.13-1.67.09-2.5,0-.15-.1-.37-.2-.5-.35-.41-.71-.82-1.07-1.22-.11-.12-.32-.22-.47-.22-1.58,0-3.15,0-4.73,0-1.53,0-3.06,0-4.59,0-.15,0-.36.1-.47.22-.36.4-.72.81-1.07,1.22-.1.12-.2.34-.2.5,0,.16-.01.25-.02.41h0c0,.78.04,1.53.13,2.3h12.57Z"/>
          <path class="cls-33" d="M78.23,86.39s0,0,0-.01c0-.28-1.76-.51-3.94-.51h-.04v3.72h5.09s-1.12-3.2-1.12-3.2Z"/>
          <path class="cls-33" d="M70.36,86.37s0,0,0,.01l-1.09,3.2h4.99s0-3.72,0-3.72c-2.16,0-3.91.23-3.91.5"/>
          <path class="cls-19" d="M77.99,86.49c-.3-.15-1.67-.34-3.68-.34h-.05c-1.98,0-3.33.19-3.63.34l-.86,2.67h4.49s4.59,0,4.59,0l-.86-2.67Z"/>
          <rect class="cls-10" x="72.06" y="91.7" width="4.53" height="1.6" rx=".24" ry=".24"/>
          <path class="cls-33" d="M69.82,90.29h0v1.41h-.12v.61h1.51v-.61c0-.78-.61-1.41-1.37-1.41"/>
          <path class="cls-11" d="M69.26,92.98c-.47,0-.85-.38-.85-.85v-.03c0-.47.38-.85.85-.85h.02c.49.15,2.08.66,1.99,1.09-.09.44-.33.64-.73.64h-1.28Z"/>
          <path class="cls-29" d="M71.19,92.32c-.08.37-.26.58-.66.58h-1.28c-.43,0-.77-.34-.77-.77v-.03c0-.43.35-.77.77-.77,0,0,2.02.6,1.93.99"/>
          <path class="cls-33" d="M78.84,90.29h0v1.41h.12v.61h-1.51v-.61c0-.78.61-1.41,1.37-1.41"/>
          <path class="cls-33" d="M79.41,92.98c.47,0,.85-.38.85-.85v-.03c0-.47-.38-.85-.85-.85h-.02c-.49.15-2.08.66-1.99,1.09.09.44.33.64.73.64h1.28Z"/>
          <path class="cls-29" d="M77.47,92.32c.08.37.26.58.66.58h1.28c.43,0,.77-.34.77-.77v-.03c0-.43-.35-.77-.77-.77,0,0-2.02.6-1.93.99"/>
          <polygon class="cls-17" points="70.01 88.42 69.77 89.15 74.26 89.16 78.85 89.16 78.19 87.1 70.01 88.42"/>
          <path class="cls-15" d="M77.99,86.49c-.3-.15-1.67-.34-3.68-.34h-.05c-1.98,0-3.33.19-3.63.34l-.62,1.93,8.18-1.31-.2-.61Z"/>
          <path class="cls-10" d="M78.55,93.46l-.2.3h-8.03l-.2-.3h-2.14c.02.22.04.44.07.66.05.38.47.68.91.68,1.77,0,3.54,0,5.31,0h5.43c.44,0,.86-.3.91-.68.01-.1.02-.15.03-.26.02-.14.03-.27.04-.41h-2.14Z"/>
          <rect class="cls-29" x="72.31" y="93.9" width="4.04" height=".74" rx=".2" ry=".2"/>
          <path class="cls-45" d="M79.25,97.88v2.48c0,.54-.44.98-.98.99h-.82c-.55,0-1-.45-1-1v-2.47c0-.55.45-1,1-1h.81c.55,0,1,.45,1,1"/>
          <rect class="cls-10" x="77.99" y="99.29" width=".15" height="2.05"/>
          <rect class="cls-10" x="77.55" y="99.29" width=".15" height="2.05"/>
          <polygon class="cls-10" points="79.25 99.46 79.25 99.68 78.14 100.8 78.08 100.86 78.08 100.64 78.14 100.58 79.25 99.46"/>
          <polygon class="cls-10" points="79.25 100.14 79.25 100.36 78.27 101.35 78.08 101.35 78.08 101.32 78.14 101.25 79.25 100.14"/>
          <polygon class="cls-10" points="79.25 98.78 79.25 99.01 78.14 100.12 78.08 100.19 78.08 99.96 78.14 99.9 79.25 98.78"/>
          <polygon class="cls-10" points="76.45 99.46 76.45 99.68 77.56 100.8 77.62 100.86 77.62 100.64 77.56 100.58 76.45 99.46"/>
          <polygon class="cls-10" points="76.45 100.14 76.45 100.36 77.43 101.35 77.62 101.35 77.62 101.32 77.56 101.25 76.45 100.14"/>
          <polygon class="cls-10" points="76.45 98.78 76.45 99.01 77.56 100.12 77.62 100.19 77.62 99.96 77.56 99.9 76.45 98.78"/>
          <path class="cls-45" d="M91.3,97.88v2.48c0,.54-.44.98-.98.99h-.82c-.55,0-1-.45-1-1v-2.47c0-.55.45-1,1-1h.81c.55,0,1,.45,1,1"/>
          <rect class="cls-10" x="90.04" y="99.29" width=".15" height="2.05"/>
          <rect class="cls-10" x="89.61" y="99.29" width=".15" height="2.05"/>
          <polygon class="cls-10" points="91.3 99.46 91.3 99.68 90.19 100.8 90.13 100.86 90.13 100.64 90.19 100.58 91.3 99.46"/>
          <polygon class="cls-10" points="91.3 100.14 91.3 100.36 90.32 101.35 90.13 101.35 90.13 101.32 90.19 101.25 91.3 100.14"/>
          <polygon class="cls-10" points="91.3 98.78 91.3 99.01 90.19 100.12 90.13 100.19 90.13 99.96 90.19 99.9 91.3 98.78"/>
          <polygon class="cls-10" points="88.5 99.46 88.5 99.68 89.61 100.8 89.67 100.86 89.67 100.64 89.61 100.58 88.5 99.46"/>
          <polygon class="cls-10" points="88.5 100.14 88.5 100.36 89.48 101.35 89.67 101.35 89.67 101.32 89.61 101.25 88.5 100.14"/>
          <polygon class="cls-10" points="88.5 98.78 88.5 99.01 89.61 100.12 89.67 100.19 89.67 99.96 89.61 99.9 88.5 98.78"/>
          <path class="cls-10" d="M91.31,91.66h-1.03c-.31,0-.56.25-.56.56,0,.01,0,.02,0,.03l-.78.59.13.17.72-.54c.09.18.28.31.5.31h1.03c.31,0,.56-.25.56-.56s-.25-.56-.56-.56"/>
          <path class="cls-10" d="M76.39,91.65h1.03c.31,0,.56.25.56.56,0,.01,0,.02,0,.03l.78.59-.13.17-.71-.54c-.09.18-.28.31-.5.31h-1.04c-.31,0-.56-.25-.56-.56,0-.31.25-.56.56-.56"/>
          <path class="cls-39" d="M92.2,95.67c0-.2-.13-.49-.26-.64-.46-.54-.92-1.07-1.39-1.59-.14-.16-.42-.28-.61-.29-2.05,0-4.1,0-6.15,0-1.99,0-3.98,0-5.97,0-.2,0-.47.13-.61.28-.47.52-.94,1.05-1.39,1.59-.13.16-.25.45-.26.64-.01.21-.02.32-.02.53,0,0,0,0,0,0,0,1.03.06,2.03.18,3.05.07.49.61.89,1.18.89,2.3,0,4.6,0,6.91,0,2.36,0,4.71,0,7.07,0,.57,0,1.11-.4,1.18-.89.02-.13.03-.2.04-.33h0c.13-1.08.17-2.17.12-3.25"/>
          <path class="cls-39" d="M88.95,89.19s0-.01,0-.02c0-.36-2.29-.66-5.12-.66h-.05v4.84h6.62s-1.45-4.16-1.45-4.16Z"/>
          <path class="cls-39" d="M78.7,89.17s0,.01,0,.02l-1.42,4.16h6.49s0-4.84,0-4.84c-2.81,0-5.08.29-5.08.65"/>
          <path class="cls-19" d="M88.64,89.32c-.39-.2-2.17-.45-4.79-.45h-.07c-2.58,0-4.33.25-4.72.44l-1.12,3.47h5.84s5.97,0,5.97,0l-1.12-3.47Z"/>
          <path class="cls-10" d="M81.24,96.1h5.27c.17,0,.31.14.31.31v1.46c0,.17-.14.31-.31.31h-5.27c-.17,0-.31-.14-.31-.31v-1.46c0-.17.14-.31.31-.31Z"/>
          <path class="cls-28" d="M78.01,94.26s0,0-.01,0v1.84h-.16v.79h1.96v-.79c0-1.02-.8-1.84-1.79-1.84"/>
          <path class="cls-28" d="M77.28,97.77c-.61,0-1.11-.5-1.11-1.11v-.04c0-.61.5-1.11,1.11-1.11h.03c.64.19,2.71.86,2.59,1.41-.12.57-.43.84-.96.84h-1.66Z"/>
          <path class="cls-29" d="M79.79,96.91c-.1.49-.34.75-.85.75h-1.66c-.55,0-1-.45-1-1v-.04c0-.55.45-1,1-1,0,0,2.63.78,2.52,1.29"/>
          <path class="cls-28" d="M89.75,94.26s0,0,.01,0v1.84h.16v.79h-1.96v-.79c0-1.02.8-1.84,1.79-1.84"/>
          <path class="cls-28" d="M90.48,97.77c.61,0,1.11-.5,1.11-1.11v-.04c0-.61-.5-1.11-1.11-1.11h-.03c-.64.19-2.71.86-2.59,1.41.12.57.43.84.96.84h1.66Z"/>
          <path class="cls-29" d="M87.96,96.91c.1.49.34.75.85.75h1.66c.55,0,1-.45,1-1v-.04c0-.55-.45-1-1-1,0,0-2.63.78-2.52,1.29"/>
          <polygon class="cls-17" points="78.25 91.83 77.94 92.79 83.79 92.79 89.76 92.79 88.9 90.12 78.25 91.83"/>
          <path class="cls-15" d="M88.64,89.32c-.39-.2-2.17-.45-4.79-.45h-.07c-2.58,0-4.33.25-4.72.44l-.81,2.51,10.65-1.71-.26-.8Z"/>
          <path class="cls-10" d="M89.36,98.39l-.26.39h-10.44l-.26-.39h-2.78c.02.28.05.57.08.86.07.49.61.89,1.18.89,2.3,0,4.6,0,6.91,0h7.07c.57,0,1.11-.39,1.18-.88.02-.13.03-.2.04-.33.02-.18.04-.36.06-.53h-2.78Z"/>
          <rect class="cls-29" x="81.25" y="98.96" width="5.26" height=".96" rx=".26" ry=".26"/>
        </g>
      </g>
    </g>
  </g>
</svg>