<?xml version="1.0" encoding="UTF-8"?>
<svg id="Capa_2" xmlns="http://www.w3.org/2000/svg" viewBox="0 0 155.4 206.34">
  <defs>
    <style>
      .cls-1 {
        fill: #b2b1b1;
      }

      .cls-2 {
        fill: #f9cf16;
      }

      .cls-3 {
        fill: #cd142a;
      }

      .cls-4 {
        fill: #646365;
      }

      .cls-5 {
        fill: #706f6e;
      }

      .cls-6 {
        fill: #fff;
      }

      .cls-7 {
        fill: #115a9f;
      }

      .cls-8 {
        fill: #888989;
      }

      .cls-9 {
        fill: #625f60;
      }

      .cls-10 {
        fill: #505050;
      }

      .cls-11 {
        fill: #d00e4d;
      }

      .cls-12 {
        fill: #bfd2e3;
      }

      .cls-13 {
        fill: #d00e4c;
      }

      .cls-14 {
        fill: #d22e1f;
      }

      .cls-15 {
        fill: #d20f48;
      }

      .cls-16 {
        fill: #1d458c;
      }

      .cls-17 {
        fill: #dd4c75;
      }

      .cls-18 {
        fill: #e1222c;
      }

      .cls-19 {
        fill: #828384;
      }

      .cls-20 {
        fill: #1b4180;
      }
    </style>
  </defs>
  <g id="Capa_1-2" data-name="Capa_1">
    <g>
      <path class="cls-9" d="M84.92,195.87h1.14v8.37h-1.14v-8.37Z"/>
      <path class="cls-9" d="M90.45,199.68c-.25.09-.46.21-.62.38s-.29.37-.38.63-.13.51-.13.76.04.5.13.76.21.46.38.63.37.29.62.38.5.13.75.13h4.61v.93h-4.61c-.51,0-.98-.13-1.41-.38-.43-.25-.77-.59-1.03-1.03-.25-.43-.38-.9-.38-1.41s.12-.98.38-1.41c.25-.43.6-.78,1.03-1.03.43-.25.9-.38,1.41-.38h4.61v.93h-4.61c-.25,0-.5.04-.75.13Z"/>
      <path class="cls-9" d="M101.94,198.61c.5-.02.94.02,1.32.14s.68.28.92.49.42.43.56.66.23.45.29.66.1.38.11.53.02.21.02.19v.33c0,.24-.06.52-.18.83s-.3.61-.55.89-.57.51-.97.69-.85.25-1.38.22h-1.05c-.52.03-.98-.05-1.38-.22s-.72-.4-.97-.69-.43-.58-.55-.89-.18-.59-.18-.83v-.33s0-.04.02-.19.05-.33.11-.53.16-.42.29-.66.32-.46.56-.66.55-.37.92-.49.81-.16,1.32-.14h.76ZM102.3,203.3c.7,0,1.19-.17,1.47-.51s.45-.7.49-1.09v-.16s.01-.26.01-.26v-.18c-.05-.37-.22-.72-.5-1.06s-.77-.51-1.48-.51h-1.49c-.7,0-1.2.17-1.48.51s-.44.7-.48,1.06l-.02.18v.25l.02.18c.04.39.2.75.49,1.09s.78.51,1.47.51h1.49Z"/>
      <path class="cls-9" d="M114.26,199.95c.25.44.38.92.38,1.44v2.87h-.94v-2.87c0-.26-.04-.52-.13-.77s-.21-.47-.38-.64c-.16-.17-.36-.3-.61-.39s-.49-.13-.74-.13h-1.78c-.48,0-1.1,0-1.86,0,0-.22,0-.01,0,.62s0,1.06,0,1.25v2.94h-.94v-5.74h4.58c.5,0,.97.13,1.4.38.43.26.77.61,1.03,1.05Z"/>
      <path class="cls-9" d="M120.79,198.61c.5-.02.94.02,1.32.14s.68.28.92.49.42.43.56.66.23.45.29.66.1.38.11.53.02.21.02.19v.33c0,.24-.06.52-.18.83s-.3.61-.55.89-.57.51-.97.69-.85.25-1.38.22h-1.05c-.52.03-.98-.05-1.38-.22s-.72-.4-.97-.69-.43-.58-.55-.89-.18-.59-.18-.83v-.33s0-.04.02-.19.05-.33.11-.53.16-.42.29-.66.32-.46.56-.66.55-.37.92-.49.81-.16,1.32-.14h.76ZM121.16,203.3c.7,0,1.19-.17,1.47-.51s.45-.7.49-1.09v-.16s.01-.26.01-.26v-.18c-.05-.37-.22-.72-.5-1.06s-.77-.51-1.48-.51h-1.49c-.7,0-1.2.17-1.48.51s-.44.7-.48,1.06l-.02.18v.25l.02.18c.04.39.2.75.49,1.09s.78.51,1.47.51h1.49Z"/>
      <path class="cls-9" d="M136.21,199.93c.23.4.35.9.35,1.49,0-.09,0-.07,0,.06h0v.66c0,.55-.11.98-.32,1.28s-.46.5-.76.61-.61.16-.93.17-.57.02-.73.02h-3.01c-.47,0-.87-.17-1.2-.52s-.5-.76-.5-1.24.17-.9.5-1.25c.33-.35.73-.52,1.2-.52h4.61c0-.07-.02-.13-.04-.19s-.04-.11-.05-.13c-.09-.18-.21-.34-.38-.48s-.34-.26-.54-.34c-.2-.08-.41-.12-.62-.12h-4.44v-.9c0-.08,0-.1,0-.08h4.44c.51,0,.99.13,1.43.4.21.12.39.27.55.45s.3.38.44.62ZM135.55,202.27c0-.08,0-.28-.01-.59h-4.83c-.17,0-.32.08-.45.23-.12.16-.18.34-.18.56s.06.4.18.56c.12.15.27.23.45.23h3.13c.36,0,.64,0,.85-.02s.38-.07.5-.16c.13-.09.22-.21.27-.34s.08-.29.09-.47Z"/>
      <path class="cls-9" d="M139.64,206.31h-.91c0,.05,0,0,0-.16v-5.33c0-.35.13-.69.4-1.02s.59-.6.98-.81.75-.31,1.08-.31h1.71c.53-.02.99.05,1.39.22s.72.39.97.67.44.57.56.88.18.58.18.82v.32s0,.04-.02.18-.05.32-.11.52-.16.42-.3.65-.33.45-.57.65-.55.36-.92.48-.82.16-1.32.14h-3.11v2.1ZM139.64,203.3h3.47c.57,0,1-.12,1.29-.35s.48-.47.57-.73.13-.46.13-.62v-.28c0-.19-.04-.42-.13-.68s-.28-.5-.57-.73-.72-.33-1.27-.33h-1.88c-.24,0-.49.07-.74.22s-.46.34-.62.56-.24.45-.24.66v2.26Z"/>
      <path class="cls-9" d="M149.05,206.31h-.91c0,.05,0,0,0-.16v-5.33c0-.35.13-.69.4-1.02s.59-.6.98-.81.75-.31,1.08-.31h1.71c.53-.02.99.05,1.39.22s.72.39.97.67.44.57.56.88.18.58.18.82v.32s0,.04-.02.18-.05.32-.11.52-.16.42-.3.65-.33.45-.57.65-.55.36-.92.48-.82.16-1.32.14h-3.11v2.1ZM149.05,203.3h3.47c.57,0,1-.12,1.29-.35s.48-.47.57-.73.13-.46.13-.62v-.28c0-.19-.04-.42-.13-.68s-.28-.5-.57-.73-.72-.33-1.27-.33h-1.88c-.24,0-.49.07-.74.22s-.46.34-.62.56-.24.45-.24.66v2.26Z"/>
    </g>
    <g>
      <path class="cls-13" d="M40.5,26.03c.14.02.36.08.68.19.31.11.68.32,1.09.63.41.31.77.78,1.08,1.4.31.62.46,1.41.46,2.36s-.18,1.67-.54,2.27c-.36.6-.79,1.06-1.29,1.35-.5.29-.97.47-1.42.53h-7.62v-8.73h7.57ZM40.44,33.58c.23-.04.52-.14.84-.3.32-.16.63-.46.92-.9.29-.43.43-1.03.43-1.78,0-.88-.15-1.57-.45-2.07-.3-.5-.62-.84-.95-1.01-.33-.18-.61-.28-.84-.32h-6.28v6.38h6.33Z"/>
      <rect class="cls-13" x="44.63" y="26.03" width="1.19" height="8.7"/>
      <path class="cls-13" d="M52.3,28.41c.77-.01,1.46-.13,2.06-.34.61-.22,1.08-.43,1.4-.65.33-.22.55-.38.66-.49l.96-.91v8.75h-1.14v-6.32c-.5.3-1.08.55-1.75.76-.66.21-1.39.32-2.18.33-.83,0-1.61-.1-2.33-.32-.72-.22-1.36-.49-1.92-.82v6.36h-1.14v-8.75l1,.87c.14.13.39.3.75.53.36.23.86.45,1.51.68.64.23,1.35.33,2.11.32"/>
      <rect class="cls-11" x="59.08" y="29.73" width="2.29" height="1.16"/>
      <g>
        <path class="cls-19" d="M68.8,31.22h-4.88v3.5h-1.2v-8.73h7.99c.47,0,.89.12,1.27.35.23.15.42.29.57.44s.28.34.39.57c.1.2.17.4.21.6s.06.36.06.5c0,.29,0,.5,0,.62,0,.12-.02.27-.06.44s-.09.33-.17.48c-.11.2-.23.36-.35.48-.12.13-.25.25-.41.36-.2.15-.44.25-.72.3-.28.05-.54.08-.8.08h-1.89ZM63.93,30.03h6.83c.22,0,.41-.03.58-.09.17-.06.29-.14.37-.24.1-.12.17-.25.21-.39.04-.14.06-.25.06-.32,0-.07,0-.25,0-.54,0-.39-.12-.7-.36-.93-.24-.24-.54-.36-.9-.36h-6.81v2.86Z"/>
        <path class="cls-19" d="M80.12,29.74h-3.35c-.17,0-.36,0-.57,0-.21,0-.41.03-.58.08s-.34.15-.48.28c-.13.13-.23.29-.29.47-.05.18-.09.34-.09.47s0,.37,0,.71v2.92c0,.05-.03.08-.07.08h-.83s-.07-.03-.07-.08v-3.01c0-.12,0-.34,0-.64,0-.3.06-.61.18-.92s.33-.58.63-.82c.19-.15.4-.26.62-.34.22-.08.44-.13.64-.16.2-.03.39-.04.56-.04h3.7v.99Z"/>
        <path class="cls-19" d="M85.15,28.85c.53-.02.99.02,1.38.15.39.12.71.29.96.51.25.22.45.45.59.69s.24.48.31.69c.06.21.1.4.12.55s.02.22.02.2v.35c0,.25-.06.54-.19.87-.12.33-.32.64-.58.93-.26.3-.6.54-1.01.72-.41.18-.89.26-1.44.23h-1.1c-.55.03-1.03-.05-1.44-.23s-.75-.42-1.01-.72c-.26-.3-.46-.61-.58-.93-.12-.32-.19-.61-.19-.87v-.35s0-.04.02-.2c.02-.16.06-.34.12-.55.06-.21.17-.44.31-.69.14-.25.34-.48.59-.69.25-.22.57-.39.96-.51.39-.12.85-.17,1.38-.15h.8ZM85.53,33.76c.73,0,1.25-.18,1.54-.53.3-.35.47-.73.51-1.14v-.17s.01-.28.01-.28v-.18c-.06-.38-.23-.75-.52-1.11-.29-.36-.81-.54-1.54-.54h-1.56c-.74,0-1.25.18-1.54.54s-.46.73-.5,1.11l-.02.18v.26l.02.18c.04.4.21.78.51,1.14.3.35.81.53,1.54.53h1.56Z"/>
        <path class="cls-19" d="M89.86,28.71l3.49,5.23h.12l3.49-5.23h1.18l-3.49,5.23c-.29.43-.47.71-.55.82h-1.37c-.16-.23-.34-.5-.55-.82l-3.49-5.23h1.17Z"/>
        <path class="cls-19" d="M104.94,29.19c.29.23.48.49.57.77.09.28.14.53.15.74,0,1.05-.58,1.6-1.76,1.66h-4.67s0,.25,0,.25c0,.27.02.49.07.64s.13.27.25.34c.11.07.27.12.46.15s.47.04.82.04h4.36c.13,0,.19.06.19.18v.59c0,.13-.06.19-.19.19h-4.51c-.63,0-1.12-.07-1.48-.21-.36-.14-.62-.36-.77-.67s-.23-.72-.23-1.24v-1.5c0-.35.13-.7.4-1.05s.61-.65,1.02-.88c.42-.23.84-.35,1.28-.35h2.84c.52,0,.92.12,1.21.35ZM104.25,31.33c.09-.03.17-.09.26-.19.06-.07.1-.15.13-.24.03-.09.04-.21.05-.37,0-.07-.02-.16-.06-.27s-.11-.21-.22-.3-.26-.14-.45-.14h-3.1c-.22,0-.46.07-.72.21-.26.14-.48.33-.65.56-.18.24-.27.5-.27.79h4.61c.19,0,.33-.02.42-.05Z"/>
        <path class="cls-19" d="M113.39,29.19c.29.23.48.49.57.77s.14.53.15.74c0,1.05-.58,1.6-1.76,1.66h-4.67s0,.25,0,.25c0,.27.02.49.07.64.05.16.13.27.25.34.11.07.27.12.46.15.19.02.47.04.82.04h4.36c.13,0,.19.06.19.18v.59c0,.13-.06.19-.19.19h-4.51c-.63,0-1.12-.07-1.48-.21s-.62-.36-.77-.67-.23-.72-.23-1.24v-1.5c0-.35.13-.7.4-1.05s.61-.65,1.02-.88c.42-.23.84-.35,1.28-.35h2.84c.52,0,.92.12,1.21.35ZM112.7,31.33c.09-.03.17-.09.26-.19.06-.07.11-.15.13-.24s.04-.21.05-.37c0-.07-.02-.16-.06-.27-.04-.11-.11-.21-.22-.3-.11-.09-.26-.14-.45-.14h-3.1c-.22,0-.46.07-.72.21s-.47.33-.65.56c-.18.24-.27.5-.27.79h4.61c.19,0,.33-.02.42-.05Z"/>
        <path class="cls-19" d="M121.75,26.69h.96c0-.06,0,0,0,.18v5.68c0,.39-.04.73-.12,1.01-.08.28-.22.5-.41.68-.19.17-.44.3-.75.38s-.7.12-1.17.12h-1.93c-.55.03-1.04-.05-1.46-.23s-.76-.42-1.03-.71c-.27-.29-.46-.6-.59-.92-.13-.32-.19-.61-.19-.86v-.34s0-.04.02-.19.06-.34.12-.55c.06-.21.17-.44.31-.68.14-.24.34-.47.59-.69.25-.21.58-.38.97-.5.4-.12.86-.17,1.39-.14h3.27v-2.22ZM121.75,29.87h-3.66c-.59,0-1.04.12-1.35.36s-.51.5-.6.77-.13.49-.13.65v.29c0,.2.05.44.14.71.09.28.29.53.6.77.31.23.76.35,1.34.35h2.53c.29,0,.52-.06.68-.19.17-.12.28-.3.35-.52.07-.22.1-.49.1-.82v-2.38Z"/>
        <path class="cls-19" d="M127.74,28.85c.53-.02.99.02,1.38.15.39.12.71.29.96.51.25.22.44.45.58.69s.24.48.31.69c.06.21.1.4.12.55.02.16.02.22.02.2v.35c0,.25-.06.54-.19.87-.12.33-.32.64-.58.93-.26.3-.6.54-1.01.72s-.89.26-1.44.23h-1.1c-.55.03-1.03-.05-1.44-.23s-.75-.42-1.01-.72c-.26-.3-.46-.61-.58-.93-.12-.32-.19-.61-.19-.87v-.35s0-.04.02-.2c.02-.16.06-.34.12-.55.06-.21.17-.44.31-.69.14-.25.34-.48.59-.69.25-.22.57-.39.96-.51.39-.12.85-.17,1.38-.15h.8ZM128.12,33.76c.73,0,1.25-.18,1.54-.53.3-.35.47-.73.51-1.14v-.17s.01-.28.01-.28v-.18c-.06-.38-.23-.75-.52-1.11s-.81-.54-1.54-.54h-1.56c-.74,0-1.25.18-1.54.54s-.46.73-.5,1.11l-.02.18v.26l.02.18c.04.4.21.78.51,1.14.3.35.81.53,1.54.53h1.56Z"/>
        <path class="cls-19" d="M138.43,29.74h-3.35c-.17,0-.36,0-.57,0-.21,0-.41.03-.58.08-.18.05-.34.15-.48.28-.13.13-.23.29-.29.47-.05.18-.09.34-.09.47s0,.37,0,.71v2.92c0,.05-.02.08-.07.08h-.83s-.07-.03-.07-.08v-3.01c0-.12,0-.34,0-.64,0-.3.06-.61.18-.92.12-.31.33-.58.63-.82.19-.15.4-.26.62-.34.22-.08.43-.13.64-.16.2-.03.39-.04.56-.04h3.7v.99Z"/>
        <path class="cls-19" d="M146.03,29.19c.29.23.48.49.57.77s.14.53.15.74c0,1.05-.58,1.6-1.76,1.66h-4.67s0,.25,0,.25c0,.27.03.49.07.64s.13.27.25.34c.11.07.27.12.46.15.19.02.47.04.82.04h4.36c.13,0,.19.06.19.18v.59c0,.13-.06.19-.19.19h-4.51c-.63,0-1.12-.07-1.48-.21s-.62-.36-.77-.67-.23-.72-.23-1.24v-1.5c0-.35.13-.7.4-1.05s.61-.65,1.02-.88c.42-.23.84-.35,1.28-.35h2.84c.52,0,.92.12,1.21.35ZM145.35,31.33c.09-.03.17-.09.26-.19.06-.07.11-.15.13-.24s.04-.21.05-.37c0-.07-.02-.16-.06-.27-.04-.11-.11-.21-.22-.3-.11-.09-.26-.14-.45-.14h-3.1c-.22,0-.46.07-.72.21s-.47.33-.65.56c-.18.24-.27.5-.27.79h4.61c.19,0,.33-.02.42-.05Z"/>
        <path class="cls-19" d="M153.91,31.37c.4.02.74.15,1.04.39.3.24.45.7.45,1.38,0,.36-.09.67-.27.91s-.41.42-.68.54c-.27.12-.54.18-.8.18h-6v-.98s5.97,0,5.97,0c.21,0,.4-.05.57-.14s.25-.31.25-.65c0-.21-.06-.37-.18-.46-.12-.09-.26-.15-.41-.17-.16-.02-.25-.02-.29-.02h-4.35c-.23,0-.48-.07-.74-.19-.26-.12-.48-.32-.67-.6-.19-.28-.28-.63-.28-1.07,0-.38.1-.7.3-.95.2-.25.43-.44.71-.55.27-.12.54-.18.79-.2h5.42v.98h-5.37c-.22,0-.43.05-.62.14-.19.1-.29.33-.29.71,0,.3.09.5.26.59.17.09.35.14.51.15h4.66Z"/>
      </g>
    </g>
    <g>
      <path class="cls-6" d="M14.84.27L.55,4.78l14.33,11.12,14.04-10.84L14.84.27ZM20.37,10.39l-3.12,2.39-2.66-1.71,2.04-1.67c.37-.33.47-.56.47-.56v-3.18c.03-.54-.73-.85-.73-.85-.94-.45-2.38-.43-2.38-.43-1.33-.02-3.8.92-3.8.92v2.95l-3.69-2.37c2.35-.95,3.42-1.2,3.42-1.2,2.33-.65,3.96-.69,3.96-.69,2.61-.14,4.69.58,4.69.58,2.08.57,2.94,1.3,2.94,1.3,1.72,1.29,1.33,2.61,1.33,2.61-.27.24-2.47,1.91-2.47,1.91"/>
      <polygon class="cls-13" points=".02 8.24 .02 4.69 14.92 16.03 29.45 4.96 29.45 8.22 14.87 21.46 .02 8.24"/>
      <path class="cls-13" d="M6.42,5.91l-2.39-1.48s3.15-1.23,5.77-1.73,3.58-.53,5.07-.47,4.37.63,6.26,1.55c1.89.93,2.29,1.89,2.4,2.42.12.53.09,1.75-.34,2.13l-.42.38s.31-.69-.13-1.56c-.44-.87-1.39-1.7-3.12-2.29-1.73-.59-3.27-.92-5.14-.89-1.87.03-3.56.44-4.87.82-1.3.38-3.09,1.11-3.09,1.11"/>
      <path class="cls-13" d="M10.2,5.37v2.94l4.29,2.83s.94-.73,1.6-1.28c.66-.54.94-.87,1.01-1.03v-3.24s.08.51-1.06,1.15c-1.13.64-1.49.85-1.49.85l-4.35-2.21Z"/>
      <path class="cls-13" d="M14.88,16.23L0,4.68,14.85,0h.04s14.57,4.97,14.57,4.97l-14.57,11.26ZM.55,4.78l14.34,11.12,14.04-10.84L14.84.27.55,4.78Z"/>
      <path class="cls-13" d="M17.27,13.09l-.08-.05L3.75,4.39l.24-.09s3.19-1.24,5.8-1.74c1.92-.37,3-.49,4.14-.49.27,0,.57,0,.95.02,1.62.06,4.5.68,6.31,1.57,1.43.7,2.26,1.54,2.47,2.51.12.56.1,1.82-.38,2.25l-.43.38-5.59,4.29ZM4.32,4.45l12.94,8.32,5.44-4.17.42-.38c.38-.34.41-1.51.3-2-.2-.89-.98-1.67-2.33-2.33-1.78-.87-4.61-1.48-6.2-1.54-.38-.01-.68-.02-.95-.02-.97,0-1.94.08-4.1.49-2.17.41-4.73,1.34-5.51,1.63"/>
      <path class="cls-13" d="M14.47,7.64l-4.29-2.19.04-.07-.03-.08c.1-.04,2.43-.93,3.82-.93h.03c1.46.01,2.38.36,2.77.69.36.3.41.63.16,1.02-.18.28-.7.67-1.43,1.05-.71.38-1.02.5-1.03.51h-.03ZM10.32,5.39l4.15,2.12c.09-.04.4-.18.99-.49.7-.37,1.21-.74,1.38-1,.21-.33.17-.6-.13-.85-.37-.31-1.27-.65-2.69-.66h-.03c-1.21,0-3.21.72-3.68.89"/>
      <path class="cls-13" d="M40.5,6.74c.14.02.36.08.68.19.31.11.68.32,1.09.63.41.31.77.78,1.08,1.4.31.62.46,1.41.46,2.36s-.18,1.67-.54,2.27c-.36.61-.79,1.06-1.29,1.35-.5.29-.97.47-1.42.53h-7.62V6.73h7.57ZM40.44,14.29c.23-.04.52-.14.84-.3.32-.16.63-.46.92-.9.29-.43.43-1.03.43-1.78,0-.88-.15-1.57-.45-2.07-.3-.5-.62-.84-.95-1.01-.33-.18-.61-.28-.84-.32h-6.28v6.38h6.33Z"/>
      <rect class="cls-13" x="44.63" y="6.75" width="1.19" height="8.7"/>
      <path class="cls-13" d="M52.3,9.12c.77-.01,1.46-.13,2.06-.34.61-.22,1.08-.43,1.4-.65.33-.22.55-.38.66-.49l.96-.91v8.75h-1.14v-6.32c-.5.3-1.08.55-1.75.76-.66.21-1.39.32-2.18.33-.83,0-1.61-.1-2.33-.32-.72-.22-1.36-.49-1.92-.82v6.36h-1.14V6.73l1,.86c.14.13.39.3.75.53.36.23.86.45,1.51.68.64.23,1.35.33,2.11.32"/>
      <rect class="cls-11" x="59.08" y="10.44" width="2.29" height="1.16"/>
      <g>
        <path class="cls-19" d="M68.8,11.93h-4.88v3.5h-1.2V6.7h7.99c.47,0,.89.12,1.27.35.23.15.42.29.57.44.15.15.28.34.39.57.1.2.17.4.21.6.04.2.06.36.06.5,0,.29,0,.5,0,.62,0,.12-.02.27-.06.44s-.09.33-.17.48c-.11.2-.23.36-.35.48-.12.13-.25.25-.41.36-.2.15-.44.25-.72.3-.28.05-.54.08-.8.08h-1.89ZM63.93,10.74h6.83c.22,0,.41-.03.58-.09.17-.06.29-.14.37-.24.1-.12.17-.25.21-.39.04-.14.06-.25.06-.32,0-.07,0-.25,0-.54,0-.39-.12-.7-.36-.93-.24-.24-.54-.36-.9-.36h-6.81v2.86Z"/>
        <path class="cls-19" d="M80.12,10.46h-3.35c-.17,0-.36,0-.57,0-.21,0-.41.03-.58.08s-.34.15-.48.28c-.13.13-.23.29-.29.47-.05.18-.09.34-.09.47s0,.37,0,.71v2.92c0,.05-.02.08-.07.08h-.83s-.07-.03-.07-.08v-3.01c0-.12,0-.34,0-.64s.06-.61.18-.92.33-.58.63-.82c.19-.15.4-.26.62-.34.22-.08.44-.13.64-.16.2-.03.39-.04.56-.04h3.7v.99Z"/>
        <path class="cls-19" d="M85.15,9.57c.53-.02.99.02,1.38.15.39.12.71.29.96.51.25.22.45.45.59.69s.24.48.31.69c.06.21.1.4.12.55.02.16.02.22.02.2v.35c0,.25-.06.54-.19.87-.12.33-.32.64-.58.93-.26.3-.6.54-1.01.72s-.89.26-1.44.23h-1.1c-.55.03-1.03-.05-1.44-.23s-.75-.42-1.01-.72c-.26-.3-.46-.61-.58-.93-.12-.32-.19-.61-.19-.87v-.35s0-.04.02-.2c.02-.16.06-.34.12-.55.06-.21.17-.44.31-.69.14-.25.34-.48.59-.69.25-.22.57-.39.96-.51.39-.12.85-.17,1.38-.15h.8ZM85.53,14.48c.73,0,1.25-.18,1.54-.53.3-.35.47-.73.51-1.14v-.17s.01-.28.01-.28v-.18c-.06-.38-.23-.75-.52-1.11s-.81-.54-1.54-.54h-1.56c-.74,0-1.25.18-1.54.54s-.46.73-.5,1.11l-.02.18v.26l.02.18c.04.4.21.78.51,1.14.3.35.81.53,1.54.53h1.56Z"/>
        <path class="cls-19" d="M89.86,9.42l3.49,5.23h.12l3.49-5.23h1.18l-3.49,5.23c-.29.43-.47.71-.55.82h-1.37c-.16-.23-.34-.5-.55-.82l-3.49-5.23h1.17Z"/>
        <path class="cls-19" d="M104.94,9.91c.29.23.48.49.57.77.09.28.14.53.15.74,0,1.05-.58,1.6-1.76,1.66h-4.67s0,.25,0,.25c0,.27.02.49.07.64s.13.27.25.34c.11.07.27.12.46.15s.47.04.82.04h4.36c.13,0,.19.06.19.18v.59c0,.13-.06.19-.19.19h-4.51c-.63,0-1.12-.07-1.48-.21-.36-.14-.62-.36-.77-.67s-.23-.72-.23-1.24v-1.5c0-.35.13-.7.4-1.05s.61-.65,1.02-.88c.42-.23.84-.35,1.28-.35h2.84c.52,0,.92.12,1.21.35ZM104.25,12.04c.09-.03.17-.09.26-.19.06-.07.1-.15.13-.24.03-.09.04-.21.05-.37,0-.07-.02-.16-.06-.27s-.11-.21-.22-.3-.26-.14-.45-.14h-3.1c-.22,0-.46.07-.72.21-.26.14-.48.33-.65.56-.18.24-.27.5-.27.79h4.61c.19,0,.33-.02.42-.05Z"/>
        <path class="cls-19" d="M113.39,9.91c.29.23.48.49.57.77s.14.53.15.74c0,1.05-.58,1.6-1.76,1.66h-4.67s0,.25,0,.25c0,.27.03.49.07.64s.13.27.25.34c.11.07.27.12.46.15.19.02.47.04.82.04h4.36c.13,0,.19.06.19.18v.59c0,.13-.06.19-.19.19h-4.51c-.63,0-1.12-.07-1.48-.21s-.62-.36-.77-.67-.23-.72-.23-1.24v-1.5c0-.35.13-.7.4-1.05.27-.35.61-.65,1.02-.88.42-.23.84-.35,1.28-.35h2.84c.52,0,.92.12,1.21.35ZM112.7,12.04c.09-.03.17-.09.26-.19.06-.07.11-.15.13-.24s.04-.21.05-.37c0-.07-.02-.16-.06-.27-.04-.11-.11-.21-.22-.3s-.26-.14-.45-.14h-3.1c-.22,0-.46.07-.72.21s-.47.33-.65.56c-.18.24-.27.5-.27.79h4.61c.19,0,.33-.02.42-.05Z"/>
        <path class="cls-19" d="M121.75,7.4h.96c0-.06,0,0,0,.18v5.68c0,.39-.04.73-.12,1.01-.08.28-.22.5-.41.68-.19.17-.44.3-.75.38s-.7.12-1.17.12h-1.93c-.55.03-1.04-.05-1.46-.23s-.76-.42-1.03-.71c-.27-.29-.46-.6-.59-.92-.13-.32-.19-.61-.19-.86v-.34s0-.04.02-.19.06-.34.12-.55c.06-.21.17-.44.31-.68.14-.24.34-.47.59-.69.25-.21.58-.38.97-.5.4-.12.86-.17,1.39-.14h3.27v-2.22ZM121.75,10.58h-3.66c-.59,0-1.04.12-1.35.36s-.51.5-.6.77-.13.49-.13.65v.29c0,.2.05.44.14.71.09.28.29.53.6.77.31.23.76.35,1.34.35h2.53c.29,0,.52-.06.68-.19.17-.12.28-.3.35-.52.07-.22.1-.49.1-.82v-2.38Z"/>
        <path class="cls-19" d="M127.74,9.57c.53-.02.99.02,1.38.15.39.12.71.29.96.51.25.22.44.45.58.69s.24.48.31.69c.06.21.1.4.12.55.02.16.02.22.02.2v.35c0,.25-.06.54-.19.87-.12.33-.32.64-.58.93-.26.3-.6.54-1.01.72s-.89.26-1.44.23h-1.1c-.55.03-1.03-.05-1.44-.23s-.75-.42-1.01-.72c-.26-.3-.45-.61-.58-.93-.12-.32-.19-.61-.19-.87v-.35s0-.04.03-.2c.02-.16.06-.34.12-.55.06-.21.17-.44.31-.69.14-.25.34-.48.59-.69.25-.22.57-.39.96-.51.39-.12.85-.17,1.38-.15h.8ZM128.12,14.48c.73,0,1.25-.18,1.54-.53.3-.35.47-.73.51-1.14v-.17s.01-.28.01-.28v-.18c-.06-.38-.23-.75-.52-1.11s-.81-.54-1.54-.54h-1.56c-.74,0-1.25.18-1.54.54s-.46.73-.5,1.11l-.02.18v.26l.02.18c.04.4.21.78.51,1.14.3.35.81.53,1.54.53h1.56Z"/>
        <path class="cls-19" d="M138.43,10.46h-3.35c-.17,0-.36,0-.57,0-.21,0-.41.03-.58.08-.18.05-.34.15-.48.28-.13.13-.23.29-.29.47-.05.18-.09.34-.09.47s0,.37,0,.71v2.92c0,.05-.02.08-.07.08h-.83s-.07-.03-.07-.08v-3.01c0-.12,0-.34,0-.64,0-.3.06-.61.18-.92s.33-.58.63-.82c.19-.15.4-.26.62-.34.22-.08.43-.13.64-.16.2-.03.39-.04.56-.04h3.7v.99Z"/>
        <path class="cls-19" d="M146.03,9.91c.29.23.48.49.57.77.09.28.14.53.15.74,0,1.05-.58,1.6-1.76,1.66h-4.67s0,.25,0,.25c0,.27.03.49.07.64s.13.27.25.34c.11.07.27.12.46.15.19.02.47.04.82.04h4.36c.13,0,.19.06.19.18v.59c0,.13-.06.19-.19.19h-4.51c-.63,0-1.12-.07-1.48-.21s-.62-.36-.77-.67-.23-.72-.23-1.24v-1.5c0-.35.13-.7.4-1.05.27-.35.61-.65,1.02-.88.42-.23.84-.35,1.28-.35h2.84c.52,0,.92.12,1.21.35ZM145.35,12.04c.09-.03.17-.09.26-.19.06-.07.11-.15.13-.24s.04-.21.05-.37c0-.07-.02-.16-.06-.27-.04-.11-.11-.21-.22-.3s-.26-.14-.45-.14h-3.1c-.22,0-.46.07-.72.21s-.47.33-.65.56c-.18.24-.27.5-.27.79h4.61c.19,0,.33-.02.42-.05Z"/>
        <path class="cls-19" d="M153.91,12.08c.4.02.74.15,1.04.39.3.24.45.7.45,1.38,0,.36-.09.67-.27.91-.18.24-.41.42-.68.54-.27.12-.54.18-.8.18h-6v-.98s5.97,0,5.97,0c.21,0,.4-.05.57-.14s.25-.31.25-.65c0-.21-.06-.37-.18-.46-.12-.09-.26-.15-.41-.17-.16-.02-.25-.02-.29-.02h-4.35c-.23,0-.48-.07-.74-.19-.26-.12-.48-.32-.67-.6-.19-.28-.28-.63-.28-1.07,0-.38.1-.7.3-.95.2-.25.43-.44.71-.55.27-.12.54-.18.79-.2h5.42v.98h-5.36c-.22,0-.43.05-.62.14-.19.1-.29.33-.29.71,0,.3.09.5.26.59.17.09.35.14.51.15h4.66Z"/>
      </g>
      <g>
        <path class="cls-4" d="M89.61,21.38h-.28s0,0,0-.05v-1.65c0-.11.04-.21.12-.32.08-.1.18-.19.3-.25.12-.07.23-.1.33-.1h.53c.16,0,.31.02.43.07.12.05.22.12.3.21.08.09.14.18.17.27.04.09.06.18.06.25v.1s0,.01,0,.06c0,.04-.02.1-.04.16-.02.06-.05.13-.09.2-.04.07-.1.14-.17.2-.08.06-.17.11-.29.15-.12.04-.25.05-.41.04h-.96v.65ZM89.61,20.45h1.08c.17,0,.31-.04.4-.11.09-.07.15-.15.17-.22.03-.08.04-.14.04-.19v-.09c0-.06-.01-.13-.04-.21-.03-.08-.09-.16-.18-.23s-.22-.1-.39-.1h-.58c-.08,0-.15.02-.23.07-.08.05-.14.1-.19.17s-.07.14-.07.2v.7Z"/>
        <path class="cls-4" d="M94.02,19.26h-.99s-.11,0-.17,0c-.06,0-.12,0-.17.02-.05.02-.1.04-.14.08-.04.04-.07.08-.08.14s-.03.1-.03.14c0,.04,0,.11,0,.21v.87s0,.02-.02.02h-.25s-.02,0-.02-.02v-.89s0-.1,0-.19c0-.09.02-.18.05-.27.04-.09.1-.17.19-.24.06-.04.12-.08.18-.1.07-.02.13-.04.19-.05s.12-.01.17-.01h1.1v.29Z"/>
        <path class="cls-4" d="M95.83,19c.16,0,.29,0,.41.04.12.04.21.09.28.15.07.06.13.13.17.21.04.07.07.14.09.2s.03.12.04.16,0,.07,0,.06v.1c0,.08-.02.16-.06.26-.04.1-.09.19-.17.28-.08.09-.18.16-.3.21s-.26.08-.43.07h-.33c-.16,0-.3-.01-.43-.07s-.22-.12-.3-.21c-.08-.09-.13-.18-.17-.28-.04-.1-.05-.18-.05-.26v-.1s0-.01,0-.06.02-.1.04-.16.05-.13.09-.2c.04-.07.1-.14.17-.21.07-.06.17-.12.28-.15.11-.04.25-.05.41-.04h.24ZM95.94,20.45c.22,0,.37-.05.46-.16s.14-.22.15-.34v-.05s0-.08,0-.08v-.05c-.02-.11-.07-.22-.15-.33-.09-.11-.24-.16-.46-.16h-.46c-.22,0-.37.05-.46.16-.09.11-.14.22-.15.33v.05s0,.08,0,.08v.05c.02.12.07.23.16.34.09.1.24.16.46.16h.46Z"/>
        <path class="cls-4" d="M99.4,18.36h.28s0,0,0,.05v1.68c0,.12-.01.22-.04.3-.02.08-.07.15-.12.2-.06.05-.13.09-.22.11-.09.02-.21.04-.35.04h-.57c-.16,0-.31-.01-.43-.07-.12-.05-.23-.12-.3-.21-.08-.09-.14-.18-.17-.27-.04-.1-.06-.18-.06-.26v-.1s0-.01,0-.06c0-.05.02-.1.04-.16.02-.06.05-.13.09-.2s.1-.14.17-.2c.08-.06.17-.11.29-.15.12-.04.25-.05.41-.04h.97v-.66ZM99.4,19.3h-1.08c-.18,0-.31.04-.4.11s-.15.15-.18.23c-.03.08-.04.14-.04.19v.08c0,.06.01.13.04.21.03.08.09.16.18.23.09.07.22.1.4.1h.75c.09,0,.15-.02.2-.06.05-.04.08-.09.1-.15.02-.07.03-.15.03-.24v-.71Z"/>
        <path class="cls-4" d="M101.88,20.41c.08-.03.14-.07.19-.12s.09-.12.12-.2.04-.16.04-.24v-.9h.29v.9c0,.16-.04.31-.12.45-.08.14-.19.25-.32.33-.13.08-.28.12-.44.12h-.56c-.16,0-.3-.04-.44-.12-.13-.08-.24-.19-.32-.33-.08-.14-.12-.29-.12-.45v-.9h.29s0,0,0,.02v.87c0,.08.01.16.04.24.03.08.07.15.12.2s.11.09.19.12c.08.03.15.04.23.04h.56c.08,0,.15-.01.23-.04Z"/>
        <path class="cls-4" d="M103.66,19.33c-.08.03-.14.07-.19.12s-.09.12-.12.19c-.03.08-.04.16-.04.23s.01.16.04.23c.03.08.07.14.12.19s.12.09.19.12.16.04.23.04h1.43v.29h-1.43c-.16,0-.3-.04-.44-.12-.13-.08-.24-.18-.32-.32-.08-.13-.12-.28-.12-.44s.04-.3.12-.44c.08-.13.18-.24.32-.32.13-.08.28-.12.44-.12h1.43v.29h-1.43c-.08,0-.16.01-.23.04Z"/>
        <path class="cls-4" d="M107.35,20.45v.29h-.54c-.15,0-.3-.04-.43-.11-.13-.08-.24-.18-.32-.31-.08-.13-.12-.27-.12-.43v-1.55h.29s0,0,0,.02v.64h.67s0,0,0,.02v.26s0,0-.03,0h-.65v.62c0,.13.03.23.1.32s.13.15.21.19c.04.02.09.04.16.05.07,0,.13,0,.18,0h.48Z"/>
        <path class="cls-4" d="M109.21,19c.16,0,.29,0,.41.04s.21.09.28.15c.07.06.13.13.17.21.04.07.07.14.09.2.02.06.03.12.04.16s0,.07,0,.06v.1c0,.08-.02.16-.06.26-.04.1-.09.19-.17.28-.08.09-.18.16-.3.21s-.26.08-.43.07h-.33c-.16,0-.3-.01-.43-.07-.12-.05-.22-.12-.3-.21-.08-.09-.13-.18-.17-.28-.04-.1-.06-.18-.06-.26v-.1s0-.01,0-.06.02-.1.04-.16.05-.13.09-.2c.04-.07.1-.14.17-.21.08-.06.17-.12.28-.15.12-.04.25-.05.41-.04h.24ZM109.32,20.45c.22,0,.37-.05.46-.16.09-.1.14-.22.15-.34v-.05s0-.08,0-.08v-.05c-.02-.11-.07-.22-.15-.33-.09-.11-.24-.16-.46-.16h-.46c-.22,0-.37.05-.46.16-.09.11-.14.22-.15.33v.05s0,.08,0,.08v.05c.02.12.07.23.16.34.09.1.24.16.46.16h.46Z"/>
        <path class="cls-4" d="M112.63,19.74c.12,0,.22.05.31.12.09.07.13.21.13.41,0,.11-.03.2-.08.27-.05.07-.12.12-.2.16-.08.03-.16.05-.24.05h-1.78v-.29s1.77,0,1.77,0c.06,0,.12-.01.17-.04.05-.03.08-.09.08-.19,0-.06-.02-.11-.05-.14-.04-.03-.08-.04-.12-.05s-.07,0-.08,0h-1.29c-.07,0-.14-.02-.22-.06-.08-.04-.14-.09-.2-.18-.06-.08-.08-.19-.08-.32,0-.11.03-.21.09-.28.06-.07.13-.13.21-.16.08-.04.16-.05.23-.06h1.61v.29h-1.59c-.07,0-.13.01-.18.04-.06.03-.08.1-.08.21,0,.09.03.15.08.18.05.03.1.04.15.04h1.38Z"/>
        <path class="cls-4" d="M116.73,18.98v1.52c-.01.17-.05.33-.13.45-.09.16-.2.27-.32.34-.12.07-.27.11-.45.11h-1.24s-.02,0-.02-.02v-.25s0-.02.02-.02h1.24c.06,0,.12,0,.17-.01.05,0,.09-.03.13-.05.05-.04.1-.07.13-.1s.06-.06.08-.11l.04-.09h-1.13c-.13,0-.25-.02-.36-.08-.11-.05-.19-.11-.26-.18-.07-.07-.12-.15-.18-.26-.05-.11-.08-.22-.08-.33v-.92s0-.02,0-.02h.3s0,0,0,.02v.94c0,.06.01.12.04.18s.04.11.07.13c.01.01.04.04.07.07.03.03.08.07.14.09.06.03.13.05.22.06h1.24s0-1.47,0-1.47c0-.02,0-.02.02-.02h.25s.02,0,.02.02Z"/>
        <path class="cls-4" d="M119.95,19.74c.12,0,.22.05.31.12.09.07.13.21.13.41,0,.11-.03.2-.08.27-.05.07-.12.12-.2.16s-.16.05-.24.05h-1.78v-.29s1.77,0,1.77,0c.06,0,.12-.01.17-.04.05-.03.08-.09.08-.19,0-.06-.02-.11-.05-.14-.04-.03-.08-.04-.12-.05s-.07,0-.08,0h-1.29c-.07,0-.14-.02-.22-.06-.08-.04-.14-.09-.2-.18-.06-.08-.08-.19-.08-.32,0-.11.03-.21.09-.28.06-.07.13-.13.21-.16.08-.04.16-.05.23-.06h1.61v.29h-1.59c-.07,0-.13.01-.18.04-.06.03-.08.1-.08.21,0,.09.03.15.08.18.05.03.1.04.15.04h1.38Z"/>
        <path class="cls-4" d="M122.94,19.1c.08.07.14.14.17.23.03.08.04.16.04.22,0,.31-.17.48-.52.49h-1.38s0,.07,0,.07c0,.08,0,.14.02.19s.04.08.07.1c.03.02.08.04.14.04.06,0,.14.01.24.01h1.29s.06.02.06.05v.17s-.02.06-.06.06h-1.33c-.19,0-.33-.02-.44-.06-.11-.04-.18-.11-.23-.2s-.07-.21-.07-.37v-.44c0-.1.04-.21.12-.31.08-.1.18-.19.3-.26.12-.07.25-.1.38-.1h.84c.15,0,.27.03.36.1ZM122.74,19.73s.05-.03.08-.06c.02-.02.03-.04.04-.07s.01-.06.01-.11c0-.02,0-.05-.02-.08-.01-.03-.03-.06-.07-.09-.03-.03-.08-.04-.13-.04h-.92c-.07,0-.14.02-.21.06s-.14.1-.19.17-.08.15-.08.23h1.37c.06,0,.1,0,.12-.01Z"/>
        <path class="cls-4" d="M125.66,19.26h-.99s-.11,0-.17,0c-.06,0-.12,0-.17.02-.05.02-.1.04-.14.08-.04.04-.07.08-.08.14-.02.05-.03.1-.03.14,0,.04,0,.11,0,.21v.87s0,.02-.02.02h-.25s-.02,0-.02-.02v-.89s0-.1,0-.19c0-.09.02-.18.05-.27.03-.09.1-.17.19-.24.06-.04.12-.08.18-.1.07-.02.13-.04.19-.05.06,0,.12-.01.17-.01h1.1v.29Z"/>
        <path class="cls-4" d="M126.35,18.95l1.03,1.55h.03l1.03-1.55h.35l-1.04,1.55c-.08.13-.14.21-.16.24h-.41c-.05-.07-.1-.15-.16-.24l-1.03-1.55h.35Z"/>
        <path class="cls-4" d="M129.5,18.14v.31h-.31v-.31h.31ZM129.5,18.86v1.88h-.31v-1.88h.31Z"/>
        <path class="cls-4" d="M130.74,19.33c-.08.03-.14.07-.19.12s-.09.12-.12.19c-.03.08-.04.16-.04.23s.01.16.04.23c.03.08.07.14.12.19s.12.09.19.12.16.04.23.04h1.43v.29h-1.43c-.16,0-.3-.04-.44-.12-.13-.08-.24-.18-.32-.32-.08-.13-.12-.28-.12-.44s.04-.3.12-.44c.08-.13.19-.24.32-.32.13-.08.28-.12.44-.12h1.43v.29h-1.43c-.08,0-.16.01-.23.04Z"/>
        <path class="cls-4" d="M133.32,18.14v.31h-.31v-.31h.31ZM133.32,18.86v1.88h-.31v-1.88h.31Z"/>
        <path class="cls-4" d="M135.2,19c.16,0,.29,0,.41.04s.21.09.28.15c.07.06.13.13.17.21.04.07.07.14.09.2.02.06.03.12.04.16s0,.07,0,.06v.1c0,.08-.02.16-.05.26-.04.1-.09.19-.17.28-.08.09-.18.16-.3.21s-.26.08-.43.07h-.33c-.16,0-.3-.01-.43-.07-.12-.05-.22-.12-.3-.21-.08-.09-.13-.18-.17-.28-.04-.1-.06-.18-.06-.26v-.1s0-.01,0-.06.02-.1.04-.16.05-.13.09-.2c.04-.07.1-.14.17-.21.08-.06.17-.12.28-.15.12-.04.25-.05.41-.04h.24ZM135.32,20.45c.22,0,.37-.05.46-.16.09-.1.14-.22.15-.34v-.05s0-.08,0-.08v-.05c-.02-.11-.07-.22-.15-.33-.09-.11-.24-.16-.46-.16h-.46c-.22,0-.37.05-.46.16-.09.11-.14.22-.15.33v.05s0,.08,0,.08v.05c.02.12.07.23.16.34.09.1.24.16.46.16h.46Z"/>
        <path class="cls-4" d="M138.63,19.74c.12,0,.22.05.31.12.09.07.13.21.13.41,0,.11-.03.2-.08.27-.05.07-.12.12-.2.16-.08.03-.16.05-.24.05h-1.78v-.29s1.77,0,1.77,0c.06,0,.12-.01.17-.04.05-.03.08-.09.08-.19,0-.06-.02-.11-.05-.14-.04-.03-.08-.04-.12-.05s-.07,0-.08,0h-1.29c-.07,0-.14-.02-.22-.06-.08-.04-.14-.09-.2-.18-.06-.08-.08-.19-.08-.32,0-.11.03-.21.09-.28.06-.07.13-.13.21-.16.08-.04.16-.05.23-.06h1.61v.29h-1.59c-.07,0-.13.01-.18.04-.06.03-.08.1-.08.21,0,.09.03.15.08.18.05.03.1.04.15.04h1.38Z"/>
      </g>
      <rect class="cls-2" x="151.1" y="18.12" width="4.16" height="1.32"/>
      <rect class="cls-20" x="151.1" y="19.44" width="4.16" height=".66"/>
      <rect class="cls-3" x="151.1" y="20.09" width="4.16" height=".66"/>
      <rect class="cls-18" x="146.01" y="18.12" width="1.39" height="2.63"/>
      <rect class="cls-18" x="148.78" y="18.12" width="1.39" height="2.63"/>
      <rect class="cls-6" x="147.4" y="18.12" width="1.39" height="2.63"/>
      <polyline class="cls-14" points="145.08 20.75 140.92 20.75 140.92 19.43 145.08 19.43"/>
      <rect class="cls-16" x="140.92" y="18.12" width="1.39" height="1.32"/>
      <rect class="cls-6" x="142.3" y="18.12" width="2.77" height="1.32"/>
      <polygon class="cls-6" points="141.28 18.67 141.53 18.67 141.61 18.45 141.69 18.67 141.94 18.67 141.74 18.81 141.81 19.04 141.61 18.9 141.41 19.04 141.48 18.82 141.28 18.67"/>
    </g>
    <g>
      <path class="cls-12" d="M101.05,76.48c0,6.48-5.25,11.73-11.73,11.73s-11.73-5.25-11.73-11.73,5.25-11.73,11.73-11.73,11.73,5.25,11.73,11.73"/>
      <path class="cls-12" d="M153.34,76.48c0,6.48-5.25,11.73-11.73,11.73s-11.73-5.25-11.73-11.73,5.25-11.73,11.73-11.73,11.73,5.25,11.73,11.73"/>
      <path class="cls-6" d="M98.88,76.48c0,5.28-4.28,9.57-9.57,9.57s-9.57-4.28-9.57-9.57,4.28-9.57,9.57-9.57,9.57,4.28,9.57,9.57"/>
      <path class="cls-6" d="M151.17,76.48c0,5.28-4.28,9.57-9.57,9.57s-9.57-4.28-9.57-9.57,4.28-9.57,9.57-9.57,9.57,4.28,9.57,9.57"/>
      <path class="cls-12" d="M153.34,119.72c0,6.48-5.25,11.73-11.73,11.73s-11.73-5.25-11.73-11.73,5.25-11.73,11.73-11.73,11.73,5.25,11.73,11.73"/>
      <path class="cls-7" d="M126.89,95.53l-10.06-7.98c-.43-.34-1.14-.34-1.57,0l-10.04,7.97c-.7.55-.21,1.5.78,1.5h1.94v11.57h16.23v-11.55h1.94c.99,0,1.49-.95.79-1.5"/>
      <rect class="cls-6" x="111.1" y="100.12" width="2.72" height="4.31"/>
      <rect class="cls-6" x="114.87" y="98.83" width="2.72" height="5.6"/>
      <rect class="cls-6" x="118.64" y="97.36" width="2.72" height="7.07"/>
      <path class="cls-6" d="M120.2,93.79c-.81.09-1.61.18-2.42.26-.3.03-.3.54,0,.5.59-.06,1.18-.13,1.77-.19-1.9,1.87-4.66,2.64-7.22,2.25-.3-.05-.43.44-.12.48,2.61.4,5.4-.31,7.4-2.12-.17.48-.35.96-.52,1.44-.11.3.35.43.46.13.29-.81.59-1.63.88-2.44.05-.14-.08-.33-.23-.32"/>
      <path class="cls-10" d="M130.54,71.34l-.72,3.85-1.41.64c-.36.16-.6.56-.6.99v3.6h7.08v-9.55h-3.84c-.25,0-.46.2-.51.47"/>
      <polygon class="cls-6" points="134.26 74.9 134.26 71.75 131.21 71.75 130.63 74.9 134.26 74.9"/>
      <path class="cls-6" d="M127.81,77.85h.85c.28,0,.5-.25.5-.57s-.23-.57-.5-.57h-.85v1.13Z"/>
      <path class="cls-8" d="M148.99,69.04h-13.63c-.18.21-.29.32-.47.53v10.84s0,0,0,0h14.1s0,0,0,0v-11.37s0,0,0,0"/>
      <rect class="cls-10" x="148.99" y="69.03" width="4.41" height="11.38"/>
      <rect class="cls-6" x="149.38" y="69.34" width="3.77" height="10.75"/>
      <polygon class="cls-10" points="153.4 80.38 148.94 80.38 150.95 83.6 155.4 83.6 153.4 80.38"/>
      <path class="cls-1" d="M134.16,81.37c0,1.41-1.02,2.55-2.27,2.55s-2.27-1.14-2.27-2.55,1.01-2.55,2.27-2.55,2.27,1.14,2.27,2.55"/>
      <path class="cls-10" d="M133.06,81.37c0,.73-.52,1.32-1.17,1.32s-1.17-.59-1.17-1.32.52-1.31,1.17-1.31,1.17.59,1.17,1.31"/>
      <path class="cls-1" d="M146.95,81.37c0,1.41-1.01,2.55-2.27,2.55s-2.27-1.14-2.27-2.55,1.01-2.55,2.27-2.55,2.27,1.14,2.27,2.55"/>
      <path class="cls-10" d="M145.85,81.37c0,.73-.52,1.32-1.17,1.32s-1.17-.59-1.17-1.32.52-1.31,1.17-1.31,1.17.59,1.17,1.31"/>
      <polygon class="cls-10" points="101.02 76.09 94.87 76.09 94.87 73.72 99.75 73.72 101.02 76.09"/>
      <polygon class="cls-10" points="77.62 76.09 83.76 76.09 83.76 73.72 78.88 73.72 77.62 76.09"/>
      <rect class="cls-10" x="81.94" y="69.53" width="14.69" height="1.01"/>
      <polygon class="cls-1" points="95.16 76 95.16 70.44 83.42 70.44 83.42 76 78.06 76 78.06 83.43 83.42 83.43 83.76 83.43 94.87 83.43 95.16 83.43 100.57 83.43 100.57 76 95.16 76"/>
      <rect class="cls-10" x="84.18" y="76.19" width="10.21" height=".55"/>
      <rect class="cls-10" x="85.65" y="77.52" width="7.27" height="5.91"/>
      <rect class="cls-10" x="78.93" y="77.52" width="3.74" height="5.91"/>
      <rect class="cls-10" x="95.93" y="77.51" width="3.74" height="5.91"/>
      <rect class="cls-6" x="85.92" y="77.82" width="3.15" height="5.28"/>
      <rect class="cls-6" x="89.47" y="77.82" width="3.15" height="5.28"/>
      <rect class="cls-6" x="96.25" y="78.14" width="3.12" height="5.12"/>
      <rect class="cls-6" x="79.25" y="78.19" width="3.12" height="5.12"/>
      <path class="cls-6" d="M151.17,119.72c0,5.28-4.28,9.57-9.57,9.57s-9.57-4.28-9.57-9.57,4.28-9.57,9.57-9.57,9.57,4.28,9.57,9.57"/>
      <path class="cls-10" d="M150.72,119.72c0,5.01-4.06,9.07-9.07,9.07s-9.07-4.06-9.07-9.07,4.06-9.07,9.07-9.07,9.07,4.06,9.07,9.07"/>
      <path class="cls-6" d="M149.9,119.72c0,4.56-3.69,8.25-8.25,8.25s-8.25-3.69-8.25-8.25,3.69-8.25,8.25-8.25,8.25,3.69,8.25,8.25"/>
      <path class="cls-10" d="M149.84,116.64h-.03s-.31,2.23-.31,2.23c-.02.12-.12.24-.25.28l-.52.17c-.25.08-.49-.09-.44-.32l.66-3.25.12-.51c.06-.26.42-.36.61-.18l.35.34,2.45,2.24c.17.16.08.44-.17.52l-.52.17c-.13.04-.28.01-.37-.07l-1.58-1.61Z"/>
      <path class="cls-10" d="M133.43,122.81h.03s.19-2.25.19-2.25c.01-.13.11-.24.24-.29l.52-.2c.25-.09.49.07.46.3l-.5,3.28-.1.51c-.05.26-.4.38-.6.21l-.37-.32-2.56-2.11c-.18-.15-.1-.43.14-.53l.51-.2c.13-.05.28-.03.37.06l1.66,1.53Z"/>
      <path class="cls-10" d="M138.15,118.52c.07.18-.01.39-.2.47-.18.08-.39-.01-.47-.19l-1.19-2.9c-.08-.18.01-.39.19-.47.18-.08.39.01.47.19l1.19,2.9Z"/>
      <path class="cls-10" d="M137.18,115.53c.06.36-.18.69-.54.75-.36.06-.69-.18-.75-.54-.06-.36.18-.69.54-.75.36-.06.69.18.75.54"/>
      <path class="cls-10" d="M145.06,118.52c-.08.18.01.39.19.47.18.08.39-.01.47-.19l1.19-2.9c.08-.18-.01-.39-.19-.47-.18-.08-.39.01-.47.19l-1.19,2.9Z"/>
      <path class="cls-10" d="M146.03,115.53c-.06.36.18.69.54.75.36.06.69-.18.75-.54.06-.36-.18-.69-.54-.75-.36-.06-.69.18-.75.54"/>
      <polygon class="cls-5" points="145.4 124.45 137.82 124.45 136.6 118.94 146.61 118.94 145.4 124.45"/>
      <rect class="cls-8" x="136.22" y="118.44" width="10.78" height="1.18"/>
      <path class="cls-6" d="M139.45,123.36c0,.22-.18.4-.4.4s-.4-.18-.4-.4v-2.64c0-.22.18-.4.4-.4s.4.18.4.4v2.64Z"/>
      <path class="cls-6" d="M141.15,123.36c0,.22-.18.4-.4.4s-.4-.18-.4-.4v-2.64c0-.22.18-.4.4-.4s.4.18.4.4v2.64Z"/>
      <path class="cls-6" d="M142.85,123.36c0,.22-.18.4-.4.4s-.4-.18-.4-.4v-2.64c0-.22.18-.4.4-.4s.4.18.4.4v2.64Z"/>
      <path class="cls-6" d="M144.56,123.36c0,.22-.18.4-.4.4s-.4-.18-.4-.4v-2.64c0-.22.18-.4.4-.4s.4.18.4.4v2.64Z"/>
      <path class="cls-12" d="M101.05,119.72c0,6.48-5.25,11.73-11.73,11.73s-11.73-5.25-11.73-11.73,5.25-11.73,11.73-11.73,11.73,5.25,11.73,11.73"/>
      <path class="cls-6" d="M98.88,119.72c0,5.28-4.28,9.57-9.57,9.57s-9.57-4.28-9.57-9.57,4.28-9.57,9.57-9.57,9.57,4.28,9.57,9.57"/>
      <polygon class="cls-5" points="91.94 117.88 92.05 124.79 86.17 128.81 86.17 121.78 91.94 117.88"/>
      <polygon class="cls-5" points="80.28 117.72 80.19 124.74 86.17 128.81 86.17 121.78 80.28 117.72"/>
      <polygon class="cls-8" points="86.04 113.34 85.78 113.33 80.37 116.7 80.38 118.17 86.11 122.32 86.11 113.35 86.04 113.34"/>
      <polygon class="cls-8" points="86.89 113.4 86.11 113.35 86.11 122.32 86.14 122.35 91.89 118.04 91.96 117.5 86.89 113.4"/>
      <polygon class="cls-1" points="80.39 117.67 77.79 114.95 83.72 110.62 86.06 113.35 80.39 117.67"/>
      <polygon class="cls-1" points="86.06 113.35 91.94 117.79 94.72 115.36 89.05 110.75 86.06 113.35"/>
      <polygon class="cls-1" points="86.19 121.77 89 124.41 94.54 120.44 91.94 117.81 86.19 121.77"/>
      <polygon class="cls-1" points="77.55 120.37 80.35 117.68 86.19 121.77 83.27 124.92 77.55 120.37"/>
      <polygon class="cls-6" points="80.68 117.92 86.12 113.79 91.71 117.95 86.19 121.79 80.68 117.92"/>
      <path class="cls-8" d="M98.82,122.05c0,2.74-2.22,4.96-4.96,4.96s-4.96-2.22-4.96-4.96,2.22-4.95,4.96-4.95,4.96,2.22,4.96,4.95"/>
      <path class="cls-6" d="M98.12,122.05c0,2.35-1.9,4.25-4.25,4.25s-4.25-1.9-4.25-4.25,1.9-4.25,4.25-4.25,4.25,1.9,4.25,4.25"/>
      <path class="cls-10" d="M100.89,117.83h0c-.27-.26-.7-.26-.96,0l-5.28,5.28c-.27.27-.7.27-.96,0l-2.03-2.03c-.27-.26-.7-.26-.96,0-.27.27-.27.7,0,.96l2.51,2.51h-.01s.96.98.96.98h.01s.01,0,.01,0l.96-.96h-.01s5.76-5.77,5.76-5.77c.26-.26.26-.7,0-.96"/>
      <path class="cls-15" d="M105.24,90.84s0-.01-.01-.02c0,0,0-.02-.01-.03-.53-1.22-1.49-2.12-2.62-2.72-.08-.04-.15-.08-.23-.12.46-.06.92-.1,1.38-.12-.57-1.58-3.41-4.1-8.24-4.84.44-.15,6.59-.31,10.01,4.17.4-.25.86-.62.86-.62,0,0,.48,2.45-1.13,4.29"/>
      <path class="cls-17" d="M105.22,90.79c-.54-1.22-1.49-2.12-2.62-2.72-.08-.04-.15-.08-.23-.12.46-.06.92-.1,1.38-.12-.57-1.58-3.41-4.1-8.24-4.84.02,0,.03,0,.05-.02,2.06.2,10.29,1.31,9.68,7.83,0,0,0-.02,0-.03"/>
      <path class="cls-15" d="M127.16,90.84s0-.01,0-.02c0,0,0-.02,0-.03.54-1.22,1.49-2.12,2.62-2.72.08-.04.15-.08.23-.12-.46-.06-.92-.1-1.38-.12.57-1.58,3.41-4.1,8.24-4.84-.44-.15-6.59-.31-10.01,4.17-.4-.25-.86-.62-.86-.62,0,0-.48,2.45,1.13,4.29"/>
      <path class="cls-17" d="M127.18,90.79c.53-1.22,1.49-2.12,2.62-2.72.08-.04.15-.08.23-.12-.46-.06-.92-.1-1.38-.12.57-1.58,3.41-4.1,8.24-4.84-.02,0-.03,0-.05-.02-2.06.2-10.29,1.31-9.68,7.83,0,0,0-.02.01-.03"/>
      <path class="cls-15" d="M126.17,107.01s.02,0,.02,0c0,0,.02,0,.03,0,1.32.12,2.48.75,3.4,1.63.06.06.12.12.18.18-.09-.45-.2-.9-.32-1.34,1.68.04,4.97,1.94,7.19,6.29,0-.47-1.79-6.35-7.11-8.19.11-.46.32-1.01.32-1.01,0,0-2.47.32-3.72,2.43"/>
      <path class="cls-17" d="M126.22,107.01c1.32.12,2.48.75,3.41,1.63.06.06.12.12.18.18-.09-.45-.2-.9-.32-1.35,1.68.04,4.97,1.94,7.19,6.29,0-.02,0-.04,0-.05-.83-1.89-4.49-9.35-10.49-6.71,0,0,.02,0,.03,0"/>
      <path class="cls-15" d="M105.76,106.13s-.02,0-.02,0c0,0-.02,0-.03,0-1.3.29-2.37,1.05-3.17,2.05-.05.07-.11.13-.16.2.03-.46.08-.92.15-1.38-1.66.25-4.69,2.55-6.35,7.15-.06-.46.98-6.53,6.03-9.01-.17-.44-.44-.96-.44-.96,0,0,2.5,0,3.99,1.94"/>
      <path class="cls-17" d="M105.71,106.14c-1.3.29-2.37,1.05-3.17,2.05-.06.07-.11.13-.16.2.03-.46.08-.92.15-1.38-1.66.25-4.69,2.55-6.35,7.14,0-.02,0-.03,0-.05.59-1.98,3.28-9.84,9.56-7.97,0,0-.02,0-.03,0"/>
    </g>
    <g>
      <path class="cls-12" d="M121.24,154.44c0,4.27-3.46,7.72-7.72,7.72s-7.72-3.46-7.72-7.72,3.46-7.72,7.72-7.72,7.72,3.46,7.72,7.72"/>
      <path class="cls-12" d="M154.04,154.44c0,4.27-3.46,7.72-7.72,7.72s-7.72-3.46-7.72-7.72,3.46-7.72,7.72-7.72,7.72,3.46,7.72,7.72"/>
      <path class="cls-12" d="M121.24,181.78c0,4.27-3.46,7.72-7.72,7.72s-7.72-3.46-7.72-7.72,3.46-7.72,7.72-7.72,7.72,3.46,7.72,7.72"/>
      <path class="cls-12" d="M154.04,181.78c0,4.27-3.46,7.72-7.72,7.72s-7.72-3.46-7.72-7.72,3.46-7.72,7.72-7.72,7.72,3.46,7.72,7.72"/>
      <path class="cls-10" d="M137.13,166.56l-6.62-5.25c-.29-.23-.75-.23-1.03,0l-6.61,5.24c-.46.36-.13.99.52.99h1.28v7.61h10.68v-7.6h1.28c.65,0,.98-.62.52-.99"/>
      <rect class="cls-6" x="126.74" y="169.59" width="1.79" height="2.83"/>
      <rect class="cls-6" x="129.22" y="168.74" width="1.79" height="3.68"/>
      <rect class="cls-6" x="131.7" y="167.77" width="1.79" height="4.65"/>
      <path class="cls-6" d="M132.73,165.42c-.53.06-1.06.12-1.59.17-.2.02-.2.35,0,.33.39-.04.78-.08,1.16-.13-1.25,1.23-3.07,1.74-4.75,1.48-.2-.03-.28.29-.08.32,1.72.26,3.55-.2,4.88-1.4-.12.32-.23.63-.35.95-.07.2.23.28.3.09.19-.54.39-1.07.58-1.61.03-.1-.06-.22-.15-.21"/>
      <path class="cls-10" d="M143.22,180.71c.07.16-.01.35-.18.42-.16.07-.35-.01-.42-.17l-1.07-2.6c-.07-.16,0-.35.17-.42.17-.07.35.01.42.17l1.07,2.6Z"/>
      <path class="cls-10" d="M142.35,178.02c.05.32-.16.62-.48.68-.32.05-.62-.16-.68-.48-.05-.32.16-.62.48-.67.32-.05.62.16.68.48"/>
      <path class="cls-10" d="M149.42,180.71c-.07.16.01.35.17.42.16.07.35-.01.42-.17l1.07-2.6c.07-.16,0-.35-.18-.42-.16-.07-.35.01-.42.17l-1.07,2.6Z"/>
      <path class="cls-10" d="M150.29,178.02c-.05.32.16.62.48.68.32.05.62-.16.68-.48.05-.32-.16-.62-.48-.67-.32-.05-.62.16-.68.48"/>
      <polygon class="cls-5" points="149.72 186.03 142.92 186.03 141.83 181.08 150.81 181.08 149.72 186.03"/>
      <rect class="cls-8" x="141.48" y="180.63" width="9.67" height="1.06"/>
      <path class="cls-6" d="M144.39,185.04c0,.2-.16.36-.36.36s-.35-.16-.35-.36v-2.37c0-.2.16-.35.35-.35s.36.16.36.35v2.37Z"/>
      <path class="cls-6" d="M145.91,185.04c0,.2-.16.36-.35.36s-.36-.16-.36-.36v-2.37c0-.2.16-.35.36-.35s.35.16.35.35v2.37Z"/>
      <path class="cls-6" d="M147.44,185.04c0,.2-.16.36-.35.36s-.36-.16-.36-.36v-2.37c0-.2.16-.35.36-.35s.35.16.35.35v2.37Z"/>
      <path class="cls-6" d="M148.97,185.04c0,.2-.16.36-.36.36s-.35-.16-.35-.36v-2.37c0-.2.16-.35.35-.35s.36.16.36.35v2.37Z"/>
      <path class="cls-10" d="M139.04,151.06l-.47,2.53-.93.42c-.24.11-.39.37-.39.65v2.37h4.66v-6.29h-2.53c-.16,0-.3.13-.34.31"/>
      <polygon class="cls-6" points="141.49 153.4 141.49 151.32 139.48 151.32 139.09 153.4 141.49 153.4"/>
      <path class="cls-6" d="M137.24,155.34h.56c.18,0,.33-.17.33-.37s-.15-.37-.33-.37h-.56v.75Z"/>
      <path class="cls-8" d="M151.18,149.54h-8.97c-.12.14-.19.21-.31.35v7.14s0,0,0,0h9.28s0,0,0,0v-7.48s0,0,0,0"/>
      <rect class="cls-10" x="151.18" y="149.54" width="2.9" height="7.49"/>
      <rect class="cls-6" x="151.44" y="149.74" width="2.48" height="7.08"/>
      <polygon class="cls-10" points="154.08 157.01 151.15 157.01 152.47 159.13 155.4 159.13 154.08 157.01"/>
      <path class="cls-1" d="M141.42,157.66c0,.93-.67,1.68-1.49,1.68s-1.49-.75-1.49-1.68.67-1.68,1.49-1.68,1.49.75,1.49,1.68"/>
      <path class="cls-10" d="M140.7,157.66c0,.48-.34.87-.77.87s-.77-.39-.77-.87.34-.86.77-.86.77.39.77.86"/>
      <path class="cls-1" d="M149.84,157.66c0,.93-.67,1.68-1.49,1.68s-1.49-.75-1.49-1.68.67-1.68,1.49-1.68,1.49.75,1.49,1.68"/>
      <path class="cls-10" d="M149.12,157.66c0,.48-.34.87-.77.87s-.77-.39-.77-.87.34-.86.77-.86.77.39.77.86"/>
      <polygon class="cls-10" points="121.22 154.18 117.18 154.18 117.18 152.62 120.39 152.62 121.22 154.18"/>
      <polygon class="cls-10" points="105.82 154.18 109.86 154.18 109.86 152.62 106.65 152.62 105.82 154.18"/>
      <rect class="cls-10" x="108.67" y="149.86" width="9.67" height=".66"/>
      <polygon class="cls-1" points="117.36 154.12 117.36 150.46 109.64 150.46 109.64 154.12 106.11 154.12 106.11 159.01 109.64 159.01 109.86 159.01 117.18 159.01 117.36 159.01 120.93 159.01 120.93 154.12 117.36 154.12"/>
      <rect class="cls-10" x="110.14" y="154.24" width="6.72" height=".36"/>
      <rect class="cls-10" x="111.11" y="155.12" width="4.78" height="3.89"/>
      <rect class="cls-10" x="106.68" y="155.12" width="2.46" height="3.89"/>
      <rect class="cls-10" x="117.87" y="155.12" width="2.46" height="3.89"/>
      <rect class="cls-6" x="111.28" y="155.32" width="2.08" height="3.48"/>
      <rect class="cls-6" x="113.62" y="155.32" width="2.08" height="3.48"/>
      <rect class="cls-6" x="118.08" y="155.53" width="2.05" height="3.37"/>
      <rect class="cls-6" x="106.9" y="155.56" width="2.05" height="3.37"/>
      <polygon class="cls-5" points="115.25 180.57 115.32 185.12 111.45 187.76 111.45 183.13 115.25 180.57"/>
      <polygon class="cls-5" points="107.57 180.46 107.51 185.08 111.45 187.76 111.45 183.13 107.57 180.46"/>
      <polygon class="cls-8" points="111.36 177.58 111.19 177.57 107.63 179.79 107.64 180.76 111.41 183.49 111.41 177.58 111.36 177.58"/>
      <polygon class="cls-8" points="111.92 177.62 111.41 177.58 111.41 183.49 111.43 183.51 115.21 180.67 115.26 180.32 111.92 177.62"/>
      <polygon class="cls-1" points="107.65 180.43 105.93 178.64 109.83 175.79 111.38 177.59 107.65 180.43"/>
      <polygon class="cls-1" points="111.38 177.59 115.25 180.51 117.08 178.91 113.35 175.87 111.38 177.59"/>
      <polygon class="cls-1" points="111.46 183.13 113.31 184.87 116.96 182.25 115.25 180.52 111.46 183.13"/>
      <polygon class="cls-1" points="105.77 182.2 107.62 180.44 111.46 183.13 109.54 185.2 105.77 182.2"/>
      <polygon class="cls-6" points="107.84 180.59 111.42 177.88 115.1 180.61 111.46 183.14 107.84 180.59"/>
      <path class="cls-8" d="M119.78,183.31c0,1.8-1.46,3.26-3.26,3.26s-3.26-1.46-3.26-3.26,1.46-3.26,3.26-3.26,3.26,1.46,3.26,3.26"/>
      <path class="cls-6" d="M119.31,183.31c0,1.54-1.25,2.8-2.8,2.8s-2.8-1.25-2.8-2.8,1.25-2.8,2.8-2.8,2.8,1.25,2.8,2.8"/>
      <path class="cls-10" d="M121.14,180.54h0c-.18-.17-.46-.17-.63,0l-3.48,3.48c-.17.17-.46.17-.63,0l-1.34-1.34c-.17-.17-.46-.17-.63,0-.17.17-.17.46,0,.63l1.65,1.65h0s.63.64.63.64h.01s.01,0,.01,0l.63-.63h0s3.79-3.8,3.79-3.8c.17-.17.17-.46,0-.63"/>
      <path class="cls-15" d="M122.37,163.21s0,0,0-.01c0,0,0-.01,0-.02-.35-.8-.98-1.4-1.73-1.79-.05-.03-.1-.05-.15-.08.3-.04.6-.06.91-.08-.38-1.04-2.25-2.7-5.42-3.19.29-.1,4.34-.2,6.59,2.74.26-.17.56-.41.56-.41,0,0,.32,1.61-.74,2.82"/>
      <path class="cls-17" d="M122.36,163.18c-.35-.8-.98-1.4-1.73-1.79-.05-.03-.1-.05-.15-.08.3-.04.6-.06.91-.08-.37-1.04-2.25-2.7-5.42-3.19.01,0,.02,0,.03-.01,1.36.13,6.77.86,6.37,5.16,0,0,0-.01,0-.02"/>
      <path class="cls-15" d="M137.14,163.54s0,0,0-.01c0,0,0-.01,0-.02.35-.8.98-1.4,1.73-1.79.05-.03.1-.05.15-.08-.3-.04-.6-.06-.91-.08.38-1.04,2.25-2.7,5.42-3.19-.29-.1-4.34-.2-6.59,2.74-.26-.17-.56-.41-.56-.41,0,0-.32,1.61.75,2.82"/>
      <path class="cls-17" d="M137.15,163.51c.35-.8.98-1.4,1.73-1.79.05-.03.1-.05.15-.08-.3-.04-.6-.06-.91-.08.37-1.04,2.25-2.7,5.42-3.19-.01,0-.02,0-.03-.01-1.36.13-6.77.86-6.37,5.16,0,0,0-.01,0-.02"/>
      <path class="cls-15" d="M123.74,173.79s-.01,0-.02,0c0,0-.01,0-.02,0-.85.19-1.56.69-2.09,1.35-.04.04-.07.09-.11.13.02-.3.06-.6.1-.91-1.09.17-3.08,1.68-4.18,4.7-.04-.31.64-4.3,3.97-5.93-.11-.29-.29-.63-.29-.63,0,0,1.64,0,2.63,1.28"/>
      <path class="cls-17" d="M123.71,173.79c-.85.19-1.56.69-2.09,1.35-.04.04-.07.09-.1.13.02-.3.06-.6.1-.91-1.09.17-3.08,1.68-4.18,4.7,0-.01,0-.02,0-.03.39-1.3,2.16-6.48,6.29-5.25,0,0-.01,0-.02,0"/>
      <path class="cls-15" d="M136.83,173.88s0,0,.02,0c0,0,.01,0,.02,0,.87.08,1.64.49,2.24,1.08.04.04.08.08.12.12-.06-.3-.13-.59-.21-.89,1.1.03,3.27,1.28,4.74,4.14,0-.31-1.18-4.18-4.68-5.39.08-.3.21-.66.21-.66,0,0-1.63.21-2.45,1.6"/>
      <path class="cls-17" d="M136.87,173.88c.87.08,1.63.49,2.24,1.08.04.04.08.08.12.12-.06-.3-.13-.59-.21-.88,1.1.03,3.27,1.28,4.74,4.14,0-.01,0-.02,0-.03-.55-1.24-2.96-6.15-6.9-4.42,0,0,.01,0,.02,0"/>
    </g>
  </g>
</svg>