<?xml version="1.0" encoding="UTF-8"?>
<svg id="Capa_2" xmlns="http://www.w3.org/2000/svg" viewBox="0 0 188.47 206.68">
  <defs>
    <style>
      .cls-1 {
        fill: #f9cf16;
      }

      .cls-2 {
        fill: #cd142a;
      }

      .cls-3 {
        fill: #ea86a1;
      }

      .cls-4 {
        fill: #919294;
      }

      .cls-5 {
        fill: #646365;
      }

      .cls-6 {
        fill: #868486;
      }

      .cls-7 {
        fill: #fff;
      }

      .cls-8 {
        fill: #115a9f;
      }

      .cls-9 {
        fill: #ecebeb;
      }

      .cls-10 {
        fill: #625f60;
      }

      .cls-11 {
        fill: #db4c75;
      }

      .cls-12, .cls-13 {
        fill: #505050;
      }

      .cls-14 {
        fill: #d00e4a;
      }

      .cls-15 {
        fill: #d00e4d;
      }

      .cls-13 {
        fill-rule: evenodd;
      }

      .cls-16 {
        fill: #d00e4c;
      }

      .cls-17 {
        fill: #d22e1f;
      }

      .cls-18 {
        fill: #b1aeaf;
      }

      .cls-19 {
        fill: #636061;
      }

      .cls-20 {
        fill: #d20f48;
      }

      .cls-21 {
        fill: #5f5f5f;
      }

      .cls-22 {
        fill: #1d458c;
      }

      .cls-23 {
        fill: #e1222c;
      }

      .cls-24 {
        fill: #828384;
      }

      .cls-25 {
        fill: #1b4180;
      }
    </style>
  </defs>
  <g id="Capa_1-2" data-name="Capa_1">
    <g>
      <path class="cls-10" d="M117.99,196.22h1.14v8.37h-1.14v-8.37Z"/>
      <path class="cls-10" d="M123.51,200.03c-.25.09-.46.21-.62.38s-.29.37-.38.63-.13.51-.13.76.04.5.13.76.21.46.38.63.37.29.62.38.5.13.75.13h4.61v.93h-4.61c-.51,0-.98-.13-1.41-.38-.43-.25-.77-.59-1.03-1.03-.25-.43-.38-.9-.38-1.41s.12-.98.38-1.41c.25-.43.6-.78,1.03-1.03.43-.25.9-.38,1.41-.38h4.61v.93h-4.61c-.25,0-.5.04-.75.13Z"/>
      <path class="cls-10" d="M135,198.96c.5-.02.94.02,1.32.14.37.12.68.28.92.49s.43.43.56.66.23.45.29.66c.06.21.1.38.11.53s.02.21.02.19v.33c0,.24-.06.52-.18.83-.12.31-.3.61-.55.89s-.57.51-.97.69-.85.25-1.38.22h-1.05c-.52.03-.98-.05-1.38-.22-.4-.17-.72-.4-.97-.69s-.43-.58-.55-.89c-.12-.31-.18-.59-.18-.83v-.33s0-.04.02-.19.05-.33.12-.53c.06-.21.16-.42.29-.66s.32-.46.56-.66.54-.37.92-.49.81-.16,1.32-.14h.76ZM135.36,203.65c.7,0,1.19-.17,1.47-.51.28-.34.45-.7.49-1.09v-.16s.01-.26.01-.26v-.18c-.05-.37-.22-.72-.5-1.06s-.77-.51-1.48-.51h-1.49c-.7,0-1.2.17-1.48.51s-.44.7-.48,1.06l-.02.18v.25l.02.18c.04.39.2.75.49,1.09s.78.51,1.47.51h1.49Z"/>
      <path class="cls-10" d="M147.33,200.29c.25.44.38.92.38,1.44v2.87h-.94v-2.87c0-.26-.04-.52-.13-.77s-.21-.47-.38-.64c-.16-.17-.36-.3-.61-.39s-.49-.13-.74-.13h-1.78c-.48,0-1.1,0-1.86,0,0-.22,0-.01,0,.62s0,1.06,0,1.25v2.94h-.94v-5.74h4.58c.5,0,.97.13,1.4.38.43.26.77.61,1.03,1.05Z"/>
      <path class="cls-10" d="M153.86,198.96c.5-.02.94.02,1.32.14.37.12.68.28.92.49s.43.43.56.66.23.45.29.66c.06.21.1.38.11.53s.02.21.02.19v.33c0,.24-.06.52-.18.83-.12.31-.3.61-.55.89s-.57.51-.97.69-.85.25-1.38.22h-1.05c-.52.03-.98-.05-1.38-.22-.4-.17-.72-.4-.97-.69s-.43-.58-.55-.89c-.12-.31-.18-.59-.18-.83v-.33s0-.04.02-.19.05-.33.12-.53c.06-.21.16-.42.29-.66s.32-.46.56-.66.54-.37.92-.49.81-.16,1.32-.14h.76ZM154.22,203.65c.7,0,1.19-.17,1.47-.51.28-.34.45-.7.49-1.09v-.16s.01-.26.01-.26v-.18c-.05-.37-.22-.72-.5-1.06s-.77-.51-1.48-.51h-1.49c-.7,0-1.2.17-1.48.51s-.44.7-.48,1.06l-.02.18v.25l.02.18c.04.39.2.75.49,1.09s.78.51,1.47.51h1.49Z"/>
      <path class="cls-10" d="M169.28,200.28c.23.4.35.9.35,1.49,0-.09,0-.07,0,.06h0v.66c0,.55-.11.98-.32,1.28-.21.3-.46.5-.76.61-.3.1-.61.16-.93.17-.33,0-.57.02-.73.02h-3.01c-.47,0-.87-.17-1.2-.52s-.5-.76-.5-1.24.17-.9.5-1.25c.33-.35.73-.52,1.2-.52h4.61c0-.07-.02-.13-.04-.19s-.04-.11-.05-.13c-.09-.18-.21-.34-.38-.48s-.34-.26-.54-.34c-.2-.08-.41-.12-.62-.12h-4.44v-.9c0-.08,0-.1,0-.08h4.44c.51,0,.99.13,1.43.4.21.12.39.27.55.45.15.17.3.38.44.62ZM168.61,202.62c0-.08,0-.28-.01-.59h-4.83c-.17,0-.32.08-.45.23-.12.16-.18.34-.18.56s.06.4.18.56c.12.15.27.23.45.23h3.13c.36,0,.64,0,.85-.02.21-.01.38-.07.5-.16.13-.09.22-.21.27-.34.05-.13.08-.29.09-.47Z"/>
      <path class="cls-10" d="M172.7,206.66h-.91c0,.05,0,0,0-.16v-5.33c0-.35.13-.69.4-1.02s.59-.6.98-.81.75-.31,1.08-.31h1.71c.53-.02.99.05,1.39.22s.72.39.97.67.44.57.56.88.18.58.18.82v.32s0,.04-.02.18-.05.32-.11.52c-.06.2-.16.42-.3.65s-.32.45-.56.65-.55.36-.92.48-.82.16-1.32.14h-3.11v2.1ZM172.7,203.65h3.47c.57,0,1-.12,1.29-.35s.48-.47.57-.73c.08-.25.12-.46.12-.62v-.28c0-.19-.04-.42-.13-.68s-.28-.5-.57-.73-.72-.33-1.27-.33h-1.88c-.24,0-.49.07-.74.22s-.46.34-.62.56-.24.45-.24.66v2.26Z"/>
      <path class="cls-10" d="M182.12,206.66h-.91c0,.05,0,0,0-.16v-5.33c0-.35.13-.69.4-1.02s.59-.6.98-.81.75-.31,1.08-.31h1.71c.53-.02.99.05,1.39.22s.72.39.97.67.44.57.56.88.18.58.18.82v.32s0,.04-.02.18-.05.32-.11.52c-.06.2-.16.42-.3.65s-.32.45-.56.65-.55.36-.92.48-.82.16-1.32.14h-3.11v2.1ZM182.12,203.65h3.47c.57,0,1-.12,1.29-.35s.48-.47.57-.73c.08-.25.12-.46.12-.62v-.28c0-.19-.04-.42-.13-.68s-.28-.5-.57-.73-.72-.33-1.27-.33h-1.88c-.24,0-.49.07-.74.22s-.46.34-.62.56-.24.45-.24.66v2.26Z"/>
    </g>
    <g>
      <path class="cls-16" d="M42.41,24.67c.14.02.36.08.68.19.31.11.68.32,1.09.63.41.31.77.78,1.08,1.4.31.62.46,1.41.46,2.36s-.18,1.67-.54,2.27c-.36.6-.79,1.06-1.29,1.35-.5.29-.97.47-1.42.53h-7.62v-8.73h7.57ZM42.35,32.23c.23-.04.52-.14.84-.3.33-.16.63-.46.92-.9.29-.43.43-1.03.43-1.78,0-.88-.15-1.57-.45-2.07-.3-.5-.62-.84-.95-1.01-.33-.18-.61-.28-.84-.32h-6.28v6.38h6.33Z"/>
      <rect class="cls-16" x="46.54" y="24.68" width="1.19" height="8.7"/>
      <path class="cls-16" d="M54.21,27.06c.77-.01,1.46-.13,2.06-.34.61-.22,1.08-.43,1.4-.65.33-.22.55-.38.66-.49l.96-.91v8.75h-1.14v-6.32c-.5.3-1.08.55-1.75.76-.66.21-1.39.32-2.18.33-.83,0-1.61-.1-2.33-.32-.72-.22-1.36-.49-1.92-.82v6.36h-1.14v-8.75l1,.87c.14.13.39.3.75.53.36.23.86.45,1.51.68.64.23,1.35.33,2.11.32"/>
      <rect class="cls-15" x="60.99" y="28.37" width="2.29" height="1.16"/>
      <path class="cls-24" d="M70.66,29.9h-4.87v3.49h-1.2v-8.71h7.97c.46,0,.89.12,1.27.35.23.15.42.3.57.44.15.15.27.34.39.57.1.2.17.4.21.6.04.2.06.36.06.5,0,.29,0,.5,0,.62,0,.12-.02.27-.06.44-.03.17-.09.33-.17.48-.11.2-.23.36-.35.48-.12.13-.26.25-.41.36-.2.15-.44.24-.72.3-.28.05-.54.08-.8.08h-1.88ZM65.8,28.72h6.82c.22,0,.41-.03.58-.09.17-.06.29-.14.37-.24.1-.12.17-.25.21-.39.04-.14.06-.25.06-.32,0-.07,0-.25,0-.54,0-.39-.12-.7-.35-.93-.24-.24-.54-.35-.89-.35h-6.8v2.86Z"/>
      <path class="cls-24" d="M76.8,25.71h-1.04v-1.04h1.04v1.04ZM76.8,33.42h-1.04v-6.34h1.04v6.34Z"/>
      <path class="cls-24" d="M80.42,31.94l-.76.51h5.63v.95h-7.34v-.95c.3-.23,2.2-1.53,5.71-3.89h-5.71v-.95h7.34v1.03s-.01.04-.04.06l-.2.13c-.45.3-2,1.34-4.64,3.11"/>
      <path class="cls-24" d="M93.64,28.92c.24.42.36.94.36,1.56,0-.1,0-.08,0,.06h0v.69c0,.58-.12,1.03-.33,1.34-.22.31-.48.53-.79.63-.31.11-.63.17-.97.18-.34,0-.59.02-.76.02h-3.14c-.49,0-.91-.18-1.25-.54-.35-.36-.52-.79-.52-1.3s.17-.95.52-1.3c.35-.36.76-.54,1.25-.54h4.82c0-.07-.02-.14-.04-.2-.02-.07-.04-.11-.06-.14-.09-.18-.23-.35-.39-.5-.17-.15-.36-.27-.56-.35-.21-.08-.43-.12-.65-.12h-4.63v-1.02h4.63c.53,0,1.03.14,1.49.42.22.13.41.29.57.47.16.18.31.4.46.65M92.94,31.37c0-.08,0-.29-.01-.62h-5.05c-.18,0-.33.08-.46.24-.13.16-.19.36-.19.58s.06.42.19.58c.13.16.28.24.46.24h3.27c.37,0,.67,0,.88-.02.22-.01.39-.07.52-.16.14-.1.23-.21.28-.35.05-.14.08-.3.1-.49"/>
      <path class="cls-24" d="M101.15,28.43h-3.35c-.17,0-.36,0-.57,0-.21,0-.4.03-.58.08-.18.05-.34.15-.48.28-.14.13-.23.29-.28.47-.06.18-.09.34-.09.47,0,.13,0,.37,0,.71v2.92c0,.05-.02.08-.07.08h-.83s-.07-.03-.07-.08v-3.01c0-.12,0-.33,0-.64,0-.3.06-.61.18-.92.11-.31.33-.58.63-.82.19-.15.4-.26.62-.34.22-.08.43-.13.64-.16.2-.03.39-.04.56-.04h3.69v.99Z"/>
      <path class="cls-24" d="M108.38,28.43h-3.35c-.17,0-.36,0-.57,0-.21,0-.4.03-.58.08-.18.05-.34.15-.48.28-.14.13-.23.29-.28.47-.06.18-.09.34-.09.47,0,.13,0,.37,0,.71v2.92c0,.05-.02.08-.07.08h-.83s-.07-.03-.07-.08v-3.01c0-.12,0-.33,0-.64,0-.3.06-.61.18-.92.11-.31.33-.58.63-.82.19-.15.4-.26.62-.34.22-.08.43-.13.64-.16.2-.03.39-.04.56-.04h3.69v.99Z"/>
      <path class="cls-24" d="M116.54,28.92c.24.42.36.94.36,1.56,0-.1,0-.08,0,.06h0v.69c0,.58-.12,1.03-.33,1.34-.22.31-.48.53-.79.63-.31.11-.63.17-.97.18-.34,0-.59.02-.76.02h-3.14c-.49,0-.91-.18-1.25-.54-.35-.36-.52-.79-.52-1.3s.17-.95.52-1.3c.35-.36.76-.54,1.25-.54h4.82c0-.07-.02-.14-.04-.2-.02-.07-.04-.11-.06-.14-.09-.18-.23-.35-.39-.5-.17-.15-.36-.27-.56-.35-.21-.08-.43-.12-.65-.12h-4.63v-1.02h4.63c.53,0,1.03.14,1.49.42.22.13.41.29.57.47.16.18.31.4.46.65M115.84,31.37c0-.08,0-.29-.01-.62h-5.05c-.18,0-.33.08-.46.24-.13.16-.19.36-.19.58s.06.42.19.58c.13.16.28.24.46.24h3.27c.37,0,.67,0,.88-.02.22-.01.39-.07.52-.16.14-.1.23-.21.28-.35.05-.14.08-.3.1-.49"/>
      <polygon class="cls-24" points="129.47 24.68 129.47 25.86 124.96 25.86 124.96 33.42 123.78 33.42 123.78 25.86 119.27 25.86 119.27 24.68 129.47 24.68"/>
      <path class="cls-24" d="M136.99,27.88c.28.23.47.49.57.77.09.28.14.53.15.74,0,1.05-.58,1.6-1.76,1.66h-4.66s0,.24,0,.24c0,.27.02.49.07.64.05.15.13.27.24.34.12.07.27.12.46.15.19.02.46.04.82.04h4.35c.13,0,.19.06.19.18v.59c0,.13-.06.19-.19.19h-4.5c-.63,0-1.12-.07-1.48-.21-.36-.14-.62-.36-.77-.67-.15-.3-.23-.71-.23-1.23v-1.5c0-.35.13-.7.4-1.05.27-.35.61-.64,1.02-.88.42-.23.84-.35,1.27-.35h2.84c.52,0,.92.12,1.21.35M136.31,30.01c.09-.03.17-.09.26-.19.06-.07.11-.15.13-.24.03-.09.04-.21.05-.37,0-.07-.02-.16-.06-.27-.04-.11-.11-.21-.22-.3-.11-.09-.26-.14-.45-.14h-3.1c-.22,0-.46.07-.72.21s-.48.33-.65.56-.27.5-.27.78h4.6c.19,0,.33-.01.42-.05"/>
      <path class="cls-24" d="M144.87,30.05c.39.03.74.15,1.04.39.3.24.45.7.45,1.38,0,.36-.09.67-.27.91-.18.24-.41.42-.68.54-.27.12-.54.18-.79.18h-5.98v-.98s5.96,0,5.96,0c.21,0,.4-.05.57-.14.17-.09.25-.31.25-.65,0-.21-.06-.36-.18-.46-.12-.09-.26-.15-.41-.16-.16-.02-.25-.03-.29-.03h-4.34c-.23,0-.48-.07-.74-.19-.26-.12-.48-.32-.67-.6-.19-.28-.28-.63-.28-1.07,0-.38.1-.7.3-.95.2-.25.43-.43.71-.55.27-.12.53-.18.78-.2h5.41v.98h-5.35c-.22,0-.43.05-.62.14-.19.1-.28.33-.28.71,0,.3.09.5.26.59.17.09.35.15.51.15h4.65Z"/>
      <path class="cls-24" d="M151.29,27.54c.53-.02.98.02,1.37.15.39.12.71.29.96.51.25.21.44.45.58.69.14.25.24.48.31.69.06.21.1.4.12.55.02.16.03.22.03.2v.35c0,.25-.06.54-.19.87-.12.32-.32.63-.58.93-.26.3-.6.53-1.01.71-.41.18-.89.26-1.44.23h-1.1c-.55.03-1.03-.05-1.44-.23-.41-.18-.75-.42-1.01-.71-.26-.3-.45-.61-.58-.93-.12-.32-.19-.61-.19-.87v-.35s0-.04.03-.2c.02-.15.05-.34.12-.55.06-.21.16-.44.3-.69.14-.24.34-.48.59-.69.25-.22.57-.39.96-.51.39-.12.85-.17,1.38-.15h.79ZM151.67,32.44c.73,0,1.24-.18,1.54-.53.3-.35.47-.73.51-1.14v-.17s.01-.27.01-.27v-.18c-.06-.38-.23-.75-.52-1.11-.29-.36-.81-.54-1.54-.54h-1.56c-.73,0-1.25.18-1.54.54-.29.36-.46.73-.5,1.11l-.02.18v.26l.02.18c.04.4.21.78.51,1.14.3.35.81.53,1.53.53h1.56Z"/>
      <path class="cls-24" d="M161.96,28.43h-3.35c-.17,0-.36,0-.57,0-.21,0-.4.03-.58.08-.18.05-.34.15-.48.28-.14.13-.23.29-.29.47-.06.18-.09.34-.09.47,0,.13,0,.37,0,.71v2.92c0,.05-.02.08-.07.08h-.83s-.07-.03-.07-.08v-3.01c0-.12,0-.33,0-.64,0-.3.06-.61.18-.92.11-.31.33-.58.63-.82.19-.15.4-.26.62-.34.22-.08.43-.13.64-.16.2-.03.39-.04.56-.04h3.69v.99Z"/>
      <path class="cls-24" d="M169.55,27.88c.28.23.47.49.57.77.09.28.14.53.15.74,0,1.05-.58,1.6-1.76,1.66h-4.66s0,.24,0,.24c0,.27.02.49.07.64.05.15.13.27.24.34.12.07.27.12.46.15.19.02.46.04.82.04h4.35c.13,0,.19.06.19.18v.59c0,.13-.06.19-.19.19h-4.5c-.63,0-1.12-.07-1.48-.21-.36-.14-.61-.36-.77-.67-.15-.3-.23-.71-.23-1.23v-1.5c0-.35.13-.7.4-1.05.27-.35.61-.64,1.02-.88.42-.23.84-.35,1.27-.35h2.84c.52,0,.92.12,1.21.35M168.87,30.01c.09-.03.17-.09.26-.19.06-.07.11-.15.13-.24.03-.09.04-.21.05-.37,0-.07-.02-.16-.06-.27-.04-.11-.11-.21-.22-.3-.11-.09-.26-.14-.45-.14h-3.1c-.22,0-.46.07-.72.21s-.48.33-.65.56-.27.5-.27.78h4.6c.19,0,.33-.01.42-.05"/>
      <path class="cls-24" d="M177.64,28.43h-3.35c-.17,0-.36,0-.57,0-.21,0-.4.03-.58.08-.18.05-.34.15-.48.28-.14.13-.23.29-.29.47-.06.18-.09.34-.09.47,0,.13,0,.37,0,.71v2.92c0,.05-.02.08-.07.08h-.83s-.07-.03-.07-.08v-3.01c0-.12,0-.33,0-.64,0-.3.06-.61.18-.92.11-.31.33-.58.63-.82.19-.15.4-.26.62-.34.22-.08.43-.13.64-.16.2-.03.39-.04.56-.04h3.69v.99Z"/>
      <path class="cls-24" d="M178.62,27.08h1.05v6.34h-1.05v-6.34ZM179.81,25.14h1.19s-.75.77-.75.77l-.78.75h-.73l1.08-1.52Z"/>
      <path class="cls-24" d="M188.11,28.92c.24.42.36.94.36,1.56,0-.1,0-.08,0,.06h0v.69c0,.58-.12,1.03-.33,1.34s-.48.53-.79.63c-.31.11-.63.17-.97.18-.34,0-.59.02-.76.02h-3.14c-.49,0-.91-.18-1.25-.54-.35-.36-.52-.79-.52-1.3s.17-.95.52-1.3c.35-.36.76-.54,1.25-.54h4.82c0-.07-.02-.14-.04-.2-.02-.07-.04-.11-.05-.14-.09-.18-.23-.35-.39-.5-.17-.15-.35-.27-.56-.35-.21-.08-.43-.12-.65-.12h-4.63v-1.02h4.63c.53,0,1.03.14,1.49.42.22.13.41.29.57.47.16.18.31.4.46.65M187.41,31.37c0-.08,0-.29-.01-.62h-5.05c-.18,0-.34.08-.46.24-.13.16-.19.36-.19.58s.06.42.19.58c.13.16.28.24.46.24h3.27c.37,0,.67,0,.88-.02.22-.01.39-.07.52-.16.14-.1.23-.21.28-.35.05-.14.08-.3.1-.49"/>
    </g>
    <g>
      <path class="cls-7" d="M14.84.27L.55,4.78l14.33,11.12,14.04-10.84L14.84.27ZM20.37,10.39l-3.12,2.39-2.66-1.71,2.04-1.67c.37-.33.47-.56.47-.56v-3.18c.03-.54-.73-.85-.73-.85-.94-.45-2.38-.43-2.38-.43-1.33-.02-3.8.92-3.8.92v2.95l-3.69-2.37c2.35-.95,3.42-1.2,3.42-1.2,2.33-.65,3.96-.69,3.96-.69,2.61-.14,4.69.58,4.69.58,2.08.57,2.94,1.3,2.94,1.3,1.72,1.29,1.33,2.61,1.33,2.61-.27.24-2.47,1.91-2.47,1.91"/>
      <polygon class="cls-16" points=".02 8.24 .02 4.69 14.92 16.03 29.45 4.96 29.45 8.22 14.87 21.46 .02 8.24"/>
      <path class="cls-16" d="M6.42,5.91l-2.39-1.48s3.15-1.23,5.77-1.73c2.62-.5,3.58-.53,5.07-.47,1.49.06,4.37.63,6.26,1.56,1.89.93,2.29,1.89,2.4,2.42.12.53.09,1.75-.34,2.13l-.42.38s.31-.69-.13-1.56c-.44-.87-1.39-1.7-3.12-2.29-1.73-.59-3.27-.92-5.14-.89-1.86.03-3.56.44-4.87.82-1.3.38-3.09,1.11-3.09,1.11"/>
      <path class="cls-16" d="M10.2,5.37v2.94l4.29,2.83s.94-.73,1.6-1.28c.66-.54.94-.87,1.01-1.03v-3.24s.08.51-1.06,1.15c-1.13.64-1.49.85-1.49.85l-4.35-2.21Z"/>
      <path class="cls-16" d="M14.88,16.23L0,4.68,14.85,0h.04s14.57,4.97,14.57,4.97l-14.57,11.26ZM.55,4.78l14.34,11.12,14.04-10.84L14.84.27.55,4.78Z"/>
      <path class="cls-16" d="M17.27,13.09l-.08-.05L3.75,4.39l.23-.09s3.19-1.24,5.8-1.74c1.92-.37,3-.49,4.14-.49.27,0,.57,0,.95.02,1.62.06,4.5.68,6.31,1.57,1.43.7,2.26,1.54,2.47,2.51.12.56.1,1.82-.38,2.25l-.43.38-5.59,4.29ZM4.32,4.45l12.94,8.32,5.44-4.17.42-.38c.38-.34.41-1.51.3-2-.2-.89-.98-1.67-2.33-2.33-1.78-.87-4.61-1.48-6.2-1.54-.38-.01-.68-.02-.95-.02-.97,0-1.94.08-4.1.49-2.17.41-4.73,1.34-5.51,1.63"/>
      <path class="cls-16" d="M14.47,7.64l-4.29-2.19.04-.07-.03-.08c.1-.04,2.43-.93,3.82-.93h.03c1.46.01,2.38.36,2.77.69.36.3.41.63.16,1.02-.18.28-.7.67-1.43,1.05-.71.38-1.02.5-1.03.51h-.03ZM10.32,5.39l4.15,2.12c.09-.04.4-.18.99-.49.7-.37,1.21-.74,1.38-1,.21-.33.17-.6-.13-.85-.37-.31-1.27-.65-2.69-.66h-.03c-1.21,0-3.21.72-3.68.89"/>
      <path class="cls-16" d="M40.5,6.74c.14.02.36.08.68.19.31.11.68.32,1.09.63.41.31.77.78,1.08,1.4.31.62.46,1.41.46,2.36s-.18,1.67-.54,2.27c-.36.61-.79,1.06-1.29,1.35-.5.29-.97.47-1.42.53h-7.62V6.73h7.57ZM40.44,14.29c.23-.04.52-.14.84-.3.32-.16.63-.46.92-.9.29-.43.43-1.03.43-1.78,0-.88-.15-1.57-.45-2.07-.3-.5-.62-.84-.95-1.01-.33-.18-.61-.28-.84-.32h-6.28v6.38h6.33Z"/>
      <rect class="cls-16" x="44.63" y="6.75" width="1.19" height="8.7"/>
      <path class="cls-16" d="M52.3,9.12c.77-.01,1.46-.13,2.06-.34.61-.22,1.08-.43,1.4-.65.33-.22.55-.38.66-.49l.96-.91v8.75h-1.14v-6.32c-.5.3-1.08.55-1.75.76-.66.21-1.39.32-2.18.33-.83,0-1.61-.1-2.33-.32-.72-.22-1.36-.49-1.92-.82v6.36h-1.14V6.73l1,.86c.14.13.39.3.75.53.36.23.86.45,1.51.68.64.23,1.35.33,2.11.32"/>
      <rect class="cls-15" x="59.08" y="10.44" width="2.29" height="1.16"/>
      <g>
        <path class="cls-24" d="M68.8,11.94h-4.88v3.5h-1.2V6.71h7.99c.47,0,.89.12,1.27.35.23.15.42.29.57.44.15.15.28.34.39.57.1.2.17.4.21.6.04.2.06.36.06.5,0,.29,0,.5,0,.62,0,.12-.02.27-.06.44s-.09.33-.17.48c-.11.2-.23.36-.35.48-.12.13-.25.25-.41.36-.2.15-.44.25-.72.3-.28.05-.54.08-.8.08h-1.89ZM63.93,10.75h6.83c.22,0,.41-.03.58-.09.17-.06.29-.14.37-.24.1-.12.17-.25.21-.39.04-.14.06-.25.06-.32,0-.07,0-.25,0-.54,0-.39-.12-.7-.36-.93-.24-.24-.54-.36-.9-.36h-6.81v2.86Z"/>
        <path class="cls-24" d="M74.94,6.69v1.04h-1.04v-1.04h1.04ZM74.94,9.11v6.35h-1.04v-6.35h1.04Z"/>
        <path class="cls-24" d="M78.57,13.98l-.76.51h5.64v.95h-7.35v-.95c.3-.23,2.21-1.53,5.72-3.9h-5.72v-.95h7.35v1.04s-.01.04-.04.05l-.2.13c-.45.31-2,1.34-4.65,3.12Z"/>
        <path class="cls-24" d="M91.8,10.95c.24.42.36.94.36,1.56,0-.1,0-.08,0,.06h0v.69c0,.58-.12,1.03-.33,1.34-.22.31-.48.53-.79.63s-.63.17-.97.17c-.34,0-.6.02-.76.02h-3.15c-.49,0-.91-.18-1.26-.54-.35-.36-.52-.79-.52-1.3s.17-.95.52-1.31c.35-.36.77-.55,1.26-.55h4.83c0-.07-.02-.14-.04-.2s-.04-.11-.05-.13c-.09-.18-.22-.35-.39-.5s-.36-.27-.56-.36c-.21-.08-.42-.12-.65-.12h-4.64v-.94c0-.08,0-.11,0-.08h4.64c.54,0,1.03.14,1.5.42.22.13.41.29.57.47.16.18.31.4.46.65ZM91.1,13.4c0-.09,0-.29-.01-.62h-5.06c-.18,0-.33.08-.47.24-.13.16-.19.36-.19.58s.06.42.19.58c.13.16.29.24.47.24h3.28c.37,0,.67,0,.89-.02s.39-.07.52-.16c.14-.1.23-.22.28-.35.05-.14.08-.3.1-.49Z"/>
        <path class="cls-24" d="M99.33,10.46h-3.35c-.17,0-.36,0-.57,0-.21,0-.41.03-.59.08s-.34.15-.48.28c-.13.13-.23.29-.29.47-.06.18-.09.34-.09.47,0,.13,0,.37,0,.71v2.92c0,.05-.02.08-.07.08h-.83s-.07-.03-.07-.08v-3.01c0-.12,0-.34,0-.64s.06-.61.18-.92c.12-.31.33-.58.63-.82.19-.15.4-.26.62-.34.22-.08.44-.13.64-.16.2-.03.39-.04.56-.04h3.7v.99Z"/>
        <path class="cls-24" d="M106.57,10.46h-3.35c-.17,0-.36,0-.57,0-.21,0-.41.03-.59.08-.18.05-.34.15-.48.28-.13.13-.23.29-.29.47-.06.18-.09.34-.09.47,0,.13,0,.37,0,.71v2.92c0,.05-.02.08-.07.08h-.83s-.07-.03-.07-.08v-3.01c0-.12,0-.34,0-.64s.06-.61.18-.92c.12-.31.33-.58.63-.82.19-.15.4-.26.62-.34.22-.08.43-.13.64-.16.2-.03.39-.04.56-.04h3.7v.99Z"/>
        <path class="cls-24" d="M114.74,10.95c.24.42.36.94.36,1.56,0-.1,0-.08,0,.06h0v.69c0,.58-.12,1.03-.33,1.34-.22.31-.48.53-.79.63s-.63.17-.97.17c-.34,0-.6.02-.76.02h-3.14c-.49,0-.91-.18-1.26-.54s-.52-.79-.52-1.3.17-.95.52-1.31c.35-.36.77-.55,1.26-.55h4.83c0-.07-.02-.14-.04-.2-.03-.07-.04-.11-.06-.13-.09-.18-.22-.35-.39-.5-.17-.15-.36-.27-.56-.36-.21-.08-.43-.12-.65-.12h-4.64v-.94c0-.08,0-.11,0-.08h4.64c.54,0,1.03.14,1.5.42.22.13.41.29.57.47s.31.4.46.65ZM114.04,13.4c0-.09,0-.29-.01-.62h-5.06c-.18,0-.33.08-.47.24-.13.16-.19.36-.19.58s.06.42.19.58c.13.16.29.24.47.24h3.28c.37,0,.67,0,.89-.02s.39-.07.52-.16c.14-.1.23-.22.29-.35.05-.14.08-.3.09-.49Z"/>
        <path class="cls-24" d="M129.39,6.71v1.18h-4.52v7.58h-1.18v-7.58h-4.52v-1.18h10.22Z"/>
        <path class="cls-24" d="M136.92,9.91c.29.23.48.49.57.77.09.28.14.53.15.74,0,1.05-.58,1.6-1.76,1.66h-4.67s0,.25,0,.25c0,.27.03.49.07.64s.13.27.25.34c.11.07.27.12.46.15.19.02.47.04.82.04h4.36c.13,0,.19.06.19.18v.59c0,.13-.06.19-.19.19h-4.51c-.63,0-1.12-.07-1.48-.21s-.62-.36-.77-.67-.23-.72-.23-1.24v-1.5c0-.35.13-.7.4-1.05.27-.35.61-.65,1.02-.88.42-.23.84-.35,1.28-.35h2.84c.52,0,.92.12,1.21.35ZM136.24,12.04c.09-.03.17-.09.26-.19.06-.07.11-.15.13-.24s.04-.21.05-.37c0-.07-.02-.16-.06-.27-.04-.11-.11-.21-.22-.3s-.26-.14-.45-.14h-3.1c-.22,0-.46.07-.72.21s-.47.33-.65.56c-.18.24-.27.5-.27.79h4.61c.19,0,.33-.02.42-.05Z"/>
        <path class="cls-24" d="M144.8,12.08c.4.02.74.15,1.04.39.3.24.45.7.45,1.38,0,.36-.09.67-.27.91s-.41.42-.68.54c-.27.12-.54.18-.8.18h-6v-.98s5.97,0,5.97,0c.21,0,.4-.05.57-.14s.25-.31.25-.65c0-.21-.06-.37-.18-.46-.12-.09-.26-.15-.41-.17-.16-.02-.25-.02-.29-.02h-4.35c-.23,0-.48-.07-.74-.19-.26-.12-.48-.32-.67-.6-.19-.28-.28-.63-.28-1.07,0-.38.1-.7.3-.95.2-.25.43-.44.71-.55.27-.12.54-.18.79-.2h5.42v.98h-5.37c-.22,0-.43.05-.62.14-.19.1-.29.33-.29.71,0,.3.09.5.26.59.18.09.35.14.51.15h4.66Z"/>
        <path class="cls-24" d="M151.23,9.57c.53-.02.99.02,1.38.15.39.12.71.29.96.51.25.22.44.45.58.69.14.25.24.48.31.69.06.21.1.4.12.55.02.16.02.22.02.2v.35c0,.25-.06.54-.19.87-.12.33-.32.64-.58.93-.26.3-.6.54-1.01.72s-.89.26-1.44.23h-1.1c-.55.03-1.03-.05-1.44-.23-.41-.18-.75-.42-1.01-.72-.26-.3-.45-.61-.58-.93-.12-.32-.19-.61-.19-.87v-.35s0-.04.02-.2.06-.34.12-.55c.06-.21.17-.44.31-.69.14-.25.34-.48.59-.69.25-.22.57-.39.96-.51.39-.12.85-.17,1.38-.15h.8ZM151.61,14.48c.73,0,1.25-.18,1.54-.53.3-.35.47-.73.51-1.14v-.17s.01-.28.01-.28v-.18c-.06-.38-.23-.75-.52-1.11-.29-.36-.81-.54-1.54-.54h-1.56c-.74,0-1.25.18-1.54.54-.29.36-.46.73-.5,1.11l-.02.18v.26l.02.18c.04.4.21.78.51,1.14.3.35.81.53,1.54.53h1.56Z"/>
        <path class="cls-24" d="M161.92,10.46h-3.35c-.17,0-.36,0-.57,0-.21,0-.41.03-.59.08s-.34.15-.48.28c-.13.13-.23.29-.29.47-.05.18-.08.34-.09.47,0,.13,0,.37,0,.71v2.92c0,.05-.02.08-.07.08h-.83s-.07-.03-.07-.08v-3.01c0-.12,0-.34,0-.64s.06-.61.18-.92.33-.58.63-.82c.19-.15.4-.26.62-.34.22-.08.44-.13.64-.16.2-.03.39-.04.56-.04h3.7v.99Z"/>
        <path class="cls-24" d="M169.53,9.91c.29.23.48.49.57.77.09.28.14.53.15.74,0,1.05-.58,1.6-1.76,1.66h-4.67s0,.25,0,.25c0,.27.02.49.07.64s.13.27.25.34c.11.07.27.12.46.15s.47.04.82.04h4.36c.13,0,.19.06.19.18v.59c0,.13-.06.19-.19.19h-4.51c-.63,0-1.12-.07-1.48-.21-.36-.14-.62-.36-.77-.67s-.23-.72-.23-1.24v-1.5c0-.35.13-.7.4-1.05s.61-.65,1.02-.88c.42-.23.84-.35,1.28-.35h2.84c.52,0,.92.12,1.21.35ZM168.84,12.04c.09-.03.17-.09.26-.19.06-.07.1-.15.13-.24.03-.09.04-.21.05-.37,0-.07-.02-.16-.06-.27s-.11-.21-.22-.3-.26-.14-.45-.14h-3.1c-.22,0-.46.07-.72.21-.26.14-.47.33-.65.56-.18.24-.27.5-.27.79h4.61c.19,0,.33-.02.42-.05Z"/>
        <path class="cls-24" d="M177.62,10.46h-3.35c-.17,0-.36,0-.57,0-.21,0-.41.03-.58.08-.18.05-.34.15-.48.28-.13.13-.23.29-.29.47-.05.18-.09.34-.09.47s0,.37,0,.71v2.92c0,.05-.03.08-.07.08h-.83s-.07-.03-.07-.08v-3.01c0-.12,0-.34,0-.64,0-.3.06-.61.18-.92s.33-.58.63-.82c.19-.15.4-.26.62-.34.22-.08.43-.13.64-.16.2-.03.39-.04.56-.04h3.7v.99Z"/>
        <path class="cls-24" d="M178.6,9.11h1.05v6.35h-1.05v-6.35ZM179.79,7.16h1.2s-.75.77-.75.77l-.78.75h-.74l1.08-1.53Z"/>
        <path class="cls-24" d="M188.11,10.95c.24.42.36.94.36,1.56,0-.1,0-.08,0,.06h0v.69c0,.58-.12,1.03-.33,1.34-.22.31-.48.53-.79.63s-.63.17-.97.17c-.34,0-.6.02-.76.02h-3.15c-.49,0-.91-.18-1.26-.54s-.52-.79-.52-1.3.17-.95.52-1.31c.35-.36.77-.55,1.26-.55h4.83c0-.07-.02-.14-.04-.2s-.04-.11-.06-.13c-.09-.18-.22-.35-.39-.5-.17-.15-.36-.27-.56-.36-.21-.08-.42-.12-.65-.12h-4.64v-.94c0-.08,0-.11,0-.08h4.64c.54,0,1.03.14,1.5.42.22.13.41.29.57.47.16.18.31.4.46.65ZM187.41,13.4c0-.09,0-.29-.01-.62h-5.06c-.18,0-.33.08-.47.24-.13.16-.19.36-.19.58s.06.42.19.58c.13.16.29.24.47.24h3.28c.37,0,.67,0,.89-.02s.39-.07.52-.16c.14-.1.23-.22.29-.35.05-.14.08-.3.09-.49Z"/>
      </g>
      <g>
        <path class="cls-5" d="M122.69,21.39h-.28s0,0,0-.05v-1.65c0-.11.04-.21.12-.32.08-.1.18-.19.3-.25.12-.07.23-.1.33-.1h.53c.16,0,.31.02.43.07.12.05.22.12.3.21.08.09.14.18.17.27.04.09.06.18.06.25v.1s0,.01,0,.06c0,.04-.02.1-.04.16-.02.06-.05.13-.09.2-.04.07-.1.14-.17.2-.08.06-.17.11-.29.15-.12.04-.25.05-.41.04h-.96v.65ZM122.69,20.45h1.08c.17,0,.31-.04.4-.11.09-.07.15-.15.17-.22.03-.08.04-.14.04-.19v-.09c0-.06-.01-.13-.04-.21-.03-.08-.09-.16-.18-.23s-.22-.1-.39-.1h-.58c-.08,0-.15.02-.23.07-.08.05-.14.1-.19.17s-.07.14-.07.2v.7Z"/>
        <path class="cls-5" d="M127.1,19.26h-.99s-.11,0-.17,0c-.06,0-.12,0-.17.02-.05.02-.1.04-.14.08-.04.04-.07.08-.08.14s-.03.1-.03.14c0,.04,0,.11,0,.21v.87s0,.02-.02.02h-.25s-.02,0-.02-.02v-.89s0-.1,0-.19c0-.09.02-.18.05-.27.04-.09.1-.17.19-.24.06-.04.12-.08.18-.1.07-.02.13-.04.19-.05s.12-.01.17-.01h1.1v.29Z"/>
        <path class="cls-5" d="M128.91,19c.16,0,.29,0,.41.04.12.04.21.09.28.15.07.06.13.13.17.21.04.07.07.14.09.2s.03.12.04.16,0,.07,0,.06v.1c0,.08-.02.16-.06.26-.04.1-.09.19-.17.28-.08.09-.18.16-.3.21s-.26.08-.43.07h-.33c-.16,0-.3-.01-.43-.07s-.22-.12-.3-.21c-.08-.09-.13-.18-.17-.28-.04-.1-.05-.18-.05-.26v-.1s0-.01,0-.06.02-.1.04-.16.05-.13.09-.2c.04-.07.1-.14.17-.21.07-.06.17-.12.28-.15.11-.04.25-.05.41-.04h.24ZM129.02,20.45c.22,0,.37-.05.46-.16s.14-.22.15-.34v-.05s0-.08,0-.08v-.05c-.02-.11-.07-.22-.15-.33-.09-.11-.24-.16-.46-.16h-.46c-.22,0-.37.05-.46.16-.09.11-.14.22-.15.33v.05s0,.08,0,.08v.05c.02.12.07.23.16.34.09.1.24.16.46.16h.46Z"/>
        <path class="cls-5" d="M132.48,18.36h.28s0,0,0,.05v1.68c0,.12-.01.22-.04.3-.02.08-.07.15-.12.2-.06.05-.13.09-.22.11-.09.02-.21.04-.35.04h-.57c-.16,0-.31-.01-.43-.07-.12-.05-.23-.12-.3-.21-.08-.09-.14-.18-.17-.27-.04-.1-.06-.18-.06-.26v-.1s0-.01,0-.06c0-.05.02-.1.04-.16.02-.06.05-.13.09-.2s.1-.14.17-.2c.08-.06.17-.11.29-.15.12-.04.25-.05.41-.04h.97v-.66ZM132.48,19.3h-1.08c-.18,0-.31.04-.4.11s-.15.15-.18.23c-.03.08-.04.14-.04.19v.08c0,.06.01.13.04.21.03.08.09.16.18.23.09.07.22.1.4.1h.75c.09,0,.15-.02.2-.06.05-.04.08-.09.1-.15.02-.07.03-.15.03-.24v-.71Z"/>
        <path class="cls-5" d="M134.96,20.41c.08-.03.14-.07.19-.12s.09-.12.12-.2.04-.16.04-.24v-.9h.29v.9c0,.16-.04.31-.12.45-.08.14-.19.25-.32.33-.13.08-.28.12-.44.12h-.56c-.16,0-.3-.04-.44-.12-.13-.08-.24-.19-.32-.33-.08-.14-.12-.29-.12-.45v-.9h.29s0,0,0,.02v.87c0,.08.01.16.04.24.03.08.07.15.12.2s.11.09.19.12c.08.03.15.04.23.04h.56c.08,0,.15-.01.23-.04Z"/>
        <path class="cls-5" d="M136.74,19.33c-.08.03-.14.07-.19.12s-.09.12-.12.19c-.03.08-.04.16-.04.23s.01.16.04.23c.03.08.07.14.12.19s.12.09.19.12.16.04.23.04h1.43v.29h-1.43c-.16,0-.3-.04-.44-.12-.13-.08-.24-.18-.32-.32-.08-.13-.12-.28-.12-.44s.04-.3.12-.44c.08-.13.18-.24.32-.32.13-.08.28-.12.44-.12h1.43v.29h-1.43c-.08,0-.16.01-.23.04Z"/>
        <path class="cls-5" d="M140.43,20.45v.29h-.54c-.15,0-.3-.04-.43-.11-.13-.08-.24-.18-.32-.31-.08-.13-.12-.27-.12-.43v-1.55h.29s0,0,0,.02v.64h.67s0,0,0,.02v.26s0,0-.03,0h-.65v.62c0,.13.03.23.1.32s.13.15.21.19c.04.02.09.04.16.05.07,0,.13,0,.18,0h.48Z"/>
        <path class="cls-5" d="M142.29,19c.16,0,.29,0,.41.04s.21.09.28.15c.07.06.13.13.17.21.04.07.07.14.09.2.02.06.03.12.04.16s0,.07,0,.06v.1c0,.08-.02.16-.06.26-.04.1-.09.19-.17.28-.08.09-.18.16-.3.21s-.26.08-.43.07h-.33c-.16,0-.3-.01-.43-.07-.12-.05-.22-.12-.3-.21-.08-.09-.13-.18-.17-.28-.04-.1-.06-.18-.06-.26v-.1s0-.01,0-.06.02-.1.04-.16.05-.13.09-.2c.04-.07.1-.14.17-.21.08-.06.17-.12.28-.15.12-.04.25-.05.41-.04h.24ZM142.4,20.45c.22,0,.37-.05.46-.16.09-.1.14-.22.15-.34v-.05s0-.08,0-.08v-.05c-.02-.11-.07-.22-.15-.33-.09-.11-.24-.16-.46-.16h-.46c-.22,0-.37.05-.46.16-.09.11-.14.22-.15.33v.05s0,.08,0,.08v.05c.02.12.07.23.16.34.09.1.24.16.46.16h.46Z"/>
        <path class="cls-5" d="M145.72,19.74c.12,0,.22.05.31.12s.13.21.13.41c0,.11-.03.2-.08.27-.05.07-.12.12-.2.16-.08.03-.16.05-.24.05h-1.78v-.29s1.77,0,1.77,0c.06,0,.12-.01.17-.04.05-.03.08-.09.08-.19,0-.06-.02-.11-.05-.14-.04-.03-.08-.04-.12-.05s-.07,0-.08,0h-1.29c-.07,0-.14-.02-.22-.06-.08-.04-.14-.09-.2-.18-.06-.08-.08-.19-.08-.32,0-.11.03-.21.09-.28.06-.07.13-.13.21-.16.08-.04.16-.05.23-.06h1.61v.29h-1.59c-.07,0-.13.01-.18.04-.06.03-.08.1-.08.21,0,.09.03.15.08.18.05.03.1.04.15.04h1.38Z"/>
        <path class="cls-5" d="M149.81,18.98v1.52c-.01.17-.05.33-.13.45-.09.16-.2.27-.32.34-.12.07-.27.11-.45.11h-1.24s-.02,0-.02-.02v-.25s0-.02.02-.02h1.24c.06,0,.12,0,.17-.01.05,0,.09-.03.13-.05.05-.04.1-.07.13-.1s.06-.06.08-.11l.04-.09h-1.13c-.13,0-.25-.02-.36-.08-.11-.05-.19-.11-.26-.18-.07-.07-.12-.15-.18-.26-.05-.11-.08-.22-.08-.33v-.92s0-.02,0-.02h.3s0,0,0,.02v.94c0,.06.01.12.04.18s.04.11.07.13c.01.01.04.04.07.07.03.03.08.07.14.09.06.03.13.05.22.06h1.24s0-1.47,0-1.47c0-.02,0-.02.02-.02h.25s.02,0,.02.02Z"/>
        <path class="cls-5" d="M153.03,19.74c.12,0,.22.05.31.12.09.07.13.21.13.41,0,.11-.03.2-.08.27-.05.07-.12.12-.2.16-.08.03-.16.05-.24.05h-1.78v-.29s1.77,0,1.77,0c.06,0,.12-.01.17-.04.05-.03.08-.09.08-.19,0-.06-.02-.11-.05-.14-.04-.03-.08-.04-.12-.05s-.07,0-.08,0h-1.29c-.07,0-.14-.02-.22-.06-.08-.04-.14-.09-.2-.18-.06-.08-.08-.19-.08-.32,0-.11.03-.21.09-.28.06-.07.13-.13.21-.16.08-.04.16-.05.23-.06h1.61v.29h-1.59c-.07,0-.13.01-.18.04-.06.03-.08.1-.08.21,0,.09.03.15.08.18.05.03.1.04.15.04h1.38Z"/>
        <path class="cls-5" d="M156.02,19.1c.08.07.14.14.17.23.03.08.04.16.04.22,0,.31-.17.48-.52.49h-1.38s0,.07,0,.07c0,.08,0,.14.02.19s.04.08.07.1c.03.02.08.04.14.04.06,0,.14.01.24.01h1.29s.06.02.06.05v.17s-.02.06-.06.06h-1.33c-.19,0-.33-.02-.44-.06-.11-.04-.18-.11-.23-.2s-.07-.21-.07-.37v-.44c0-.1.04-.21.12-.31.08-.1.18-.19.3-.26.12-.07.25-.1.38-.1h.84c.15,0,.27.03.36.1ZM155.82,19.73s.05-.03.08-.06c.02-.02.03-.04.04-.07s.01-.06.01-.11c0-.02,0-.05-.02-.08-.01-.03-.03-.06-.07-.09-.03-.03-.08-.04-.13-.04h-.92c-.07,0-.14.02-.21.06s-.14.1-.19.17-.08.15-.08.23h1.37c.06,0,.1,0,.12-.01Z"/>
        <path class="cls-5" d="M158.74,19.26h-.99s-.11,0-.17,0c-.06,0-.12,0-.17.02-.05.02-.1.04-.14.08-.04.04-.07.08-.08.14-.02.05-.03.1-.03.14,0,.04,0,.11,0,.21v.87s0,.02-.02.02h-.25s-.02,0-.02-.02v-.89s0-.1,0-.19c0-.09.02-.18.05-.27.03-.09.1-.17.19-.24.06-.04.12-.08.18-.1.07-.02.13-.04.19-.05.06,0,.12-.01.17-.01h1.1v.29Z"/>
        <path class="cls-5" d="M159.43,18.96l1.03,1.55h.03l1.03-1.55h.35l-1.04,1.55c-.08.13-.14.21-.16.24h-.41c-.05-.07-.1-.15-.16-.24l-1.03-1.55h.35Z"/>
        <path class="cls-5" d="M162.58,18.15v.31h-.31v-.31h.31ZM162.58,18.86v1.88h-.31v-1.88h.31Z"/>
        <path class="cls-5" d="M163.82,19.33c-.08.03-.14.07-.19.12s-.09.12-.12.19c-.03.08-.04.16-.04.23s.01.16.04.23c.03.08.07.14.12.19s.12.09.19.12.16.04.23.04h1.43v.29h-1.43c-.16,0-.3-.04-.44-.12-.13-.08-.24-.18-.32-.32-.08-.13-.12-.28-.12-.44s.04-.3.12-.44c.08-.13.18-.24.32-.32.13-.08.28-.12.44-.12h1.43v.29h-1.43c-.08,0-.16.01-.23.04Z"/>
        <path class="cls-5" d="M166.41,18.15v.31h-.31v-.31h.31ZM166.41,18.86v1.88h-.31v-1.88h.31Z"/>
        <path class="cls-5" d="M168.28,19c.16,0,.29,0,.41.04s.21.09.28.15c.07.06.13.13.17.21.04.07.07.14.09.2.02.06.03.12.04.16s0,.07,0,.06v.1c0,.08-.02.16-.05.26-.04.1-.09.19-.17.28-.08.09-.18.16-.3.21s-.26.08-.43.07h-.33c-.16,0-.3-.01-.43-.07-.12-.05-.22-.12-.3-.21-.08-.09-.13-.18-.17-.28-.04-.1-.06-.18-.06-.26v-.1s0-.01,0-.06.02-.1.04-.16.05-.13.09-.2c.04-.07.1-.14.17-.21.08-.06.17-.12.28-.15.12-.04.25-.05.41-.04h.24ZM168.4,20.45c.22,0,.37-.05.46-.16.09-.1.14-.22.15-.34v-.05s0-.08,0-.08v-.05c-.02-.11-.07-.22-.15-.33-.09-.11-.24-.16-.46-.16h-.46c-.22,0-.37.05-.46.16-.09.11-.14.22-.15.33v.05s0,.08,0,.08v.05c.02.12.07.23.16.34.09.1.24.16.46.16h.46Z"/>
        <path class="cls-5" d="M171.71,19.74c.12,0,.22.05.31.12.09.07.13.21.13.41,0,.11-.03.2-.08.27-.05.07-.12.12-.2.16-.08.03-.16.05-.24.05h-1.78v-.29s1.77,0,1.77,0c.06,0,.12-.01.17-.04.05-.03.08-.09.08-.19,0-.06-.02-.11-.05-.14-.04-.03-.08-.04-.12-.05s-.07,0-.08,0h-1.29c-.07,0-.14-.02-.22-.06-.08-.04-.14-.09-.2-.18-.06-.08-.08-.19-.08-.32,0-.11.03-.21.09-.28.06-.07.13-.13.21-.16.08-.04.16-.05.23-.06h1.61v.29h-1.59c-.07,0-.13.01-.18.04-.06.03-.08.1-.08.21,0,.09.03.15.08.18.05.03.1.04.15.04h1.38Z"/>
      </g>
      <rect class="cls-1" x="184.18" y="18.12" width="4.16" height="1.32"/>
      <rect class="cls-25" x="184.18" y="19.44" width="4.16" height=".66"/>
      <rect class="cls-2" x="184.18" y="20.1" width="4.16" height=".66"/>
      <rect class="cls-23" x="179.09" y="18.12" width="1.39" height="2.63"/>
      <rect class="cls-23" x="181.86" y="18.12" width="1.39" height="2.63"/>
      <rect class="cls-7" x="180.48" y="18.12" width="1.39" height="2.63"/>
      <polyline class="cls-17" points="178.16 20.76 174 20.76 174 19.44 178.16 19.44"/>
      <rect class="cls-22" x="174" y="18.12" width="1.39" height="1.32"/>
      <rect class="cls-7" x="175.39" y="18.12" width="2.77" height="1.32"/>
      <polygon class="cls-7" points="174.36 18.68 174.62 18.68 174.69 18.45 174.77 18.68 175.02 18.68 174.82 18.82 174.9 19.05 174.69 18.91 174.49 19.05 174.57 18.82 174.36 18.68"/>
    </g>
    <g>
      <rect class="cls-12" x="142.9" y="111.01" width=".54" height="12.44"/>
      <polygon class="cls-12" points="146.59 85.16 152.68 73.18 152.68 73.18 152.68 73.18 152.68 73.17 152.68 73.18 164.78 73.18 164.78 73.71 153.01 73.71 147.06 85.4 146.59 85.16"/>
      <path class="cls-12" d="M161.75,73.61c-.13.99-1.04,1.69-2.04,1.56-.99-.13-1.69-1.04-1.56-2.04.13-.99,1.04-1.69,2.04-1.56.99.13,1.69,1.04,1.56,2.04"/>
      <polygon class="cls-12" points="139.35 85.12 133.26 73.13 133.26 73.13 133.25 73.13 133.25 73.13 133.25 73.13 121.15 73.13 121.15 73.67 132.93 73.67 138.87 85.36 139.35 85.12"/>
      <path class="cls-12" d="M124,73.66c.13.99,1.04,1.69,2.04,1.56.99-.13,1.69-1.04,1.56-2.04-.13-.99-1.04-1.69-2.04-1.56-.99.13-1.69,1.04-1.56,2.04"/>
      <rect class="cls-12" x="157.29" y="94.1" width="14.29" height=".54"/>
      <path class="cls-12" d="M168.24,94.6c-.13.99-1.04,1.69-2.04,1.56-.99-.13-1.69-1.04-1.56-2.04.13-.99,1.04-1.69,2.04-1.56.99.13,1.69,1.04,1.56,2.04"/>
      <polygon class="cls-12" points="149.13 104.51 155.22 116.49 155.22 116.5 155.22 116.5 155.22 116.5 155.22 116.5 167.32 116.5 167.32 115.96 155.55 115.96 149.6 104.27 149.13 104.51"/>
      <path class="cls-12" d="M164.58,115.89c-.13-.99-1.04-1.69-2.04-1.56-.99.13-1.69,1.04-1.56,2.04.13.99,1.04,1.69,2.04,1.56.99-.13,1.69-1.04,1.56-2.04"/>
      <rect class="cls-12" x="142.9" y="67.28" width=".54" height="12.44"/>
      <path class="cls-12" d="M143.41,70.22c.99.13,1.69,1.04,1.56,2.04s-1.04,1.69-2.04,1.56c-.99-.13-1.69-1.04-1.56-2.04s1.04-1.69,2.04-1.56"/>
      <rect class="cls-12" x="115.03" y="94.1" width="14.29" height=".54"/>
      <path class="cls-12" d="M118.09,94.6c.13.99,1.04,1.69,2.04,1.56.99-.13,1.69-1.04,1.56-2.04-.13-.99-1.04-1.69-2.04-1.56-.99.13-1.69,1.04-1.56,2.04"/>
      <polygon class="cls-12" points="138.7 104.46 132.61 116.45 132.61 116.45 132.61 116.45 132.61 116.45 132.61 116.45 120.51 116.45 120.51 115.91 132.28 115.91 138.23 104.22 138.7 104.46"/>
      <path class="cls-12" d="M123.34,115.94c.13-.99,1.04-1.69,2.04-1.56.99.13,1.69,1.04,1.56,2.04-.13.99-1.04,1.69-2.04,1.56-.99-.13-1.69-1.04-1.56-2.04"/>
      <path class="cls-12" d="M143.17,119.71c-.51,0-.92-.41-.92-.92s.41-.92.92-.92.92.41.92.92-.41.92-.92.92"/>
      <path class="cls-12" d="M142.93,120.6c-.99-.13-1.69-1.04-1.56-2.04s1.04-1.69,2.04-1.56c.99.13,1.69,1.04,1.56,2.04s-1.04,1.69-2.04,1.56"/>
      <path class="cls-20" d="M181.87,73.43c0,5.28-4.28,9.56-9.56,9.56s-9.56-4.28-9.56-9.56,4.28-9.56,9.56-9.56,9.56,4.28,9.56,9.56"/>
      <path class="cls-9" d="M181.22,73.43c0,4.92-3.99,8.91-8.91,8.91s-8.91-3.99-8.91-8.91,3.99-8.91,8.91-8.91,8.91,3.99,8.91,8.91"/>
      <path class="cls-13" d="M174.34,68.8c0,1.18-.95,2.13-2.13,2.13s-2.13-.96-2.13-2.13.95-2.13,2.13-2.13,2.13.95,2.13,2.13"/>
      <path class="cls-12" d="M168.77,78.71h6.92l.07-4.81c.04-1.23-.92-2.23-2.15-2.23h-2.77c-1.23,0-2.19,1-2.15,2.23l.07,4.81Z"/>
      <path class="cls-12" d="M176.62,71.6h-1.35c.78.36,1.36,1.32,1.34,2.3l-.1,4.27,1.65-.62.11-3.97c.11-1.16-.56-1.98-1.65-1.98"/>
      <path class="cls-13" d="M175.62,67.87c-.25,0-.49.06-.7.16.08.24.12.5.12.77,0,.64-.24,1.23-.64,1.68.29.35.73.57,1.22.57.88,0,1.59-.71,1.59-1.59s-.71-1.59-1.59-1.59"/>
      <path class="cls-12" d="M167.97,71.6h1.19c-.78.36-1.36,1.32-1.34,2.3l.1,4.27-1.5-.62-.11-3.97c-.11-1.16.56-1.98,1.65-1.98"/>
      <path class="cls-13" d="M169.38,68.8c0-.29.05-.56.14-.82-.18-.07-.38-.11-.58-.11-.88,0-1.59.71-1.59,1.59s.71,1.59,1.59,1.59c.46,0,.87-.19,1.16-.5-.44-.45-.71-1.07-.71-1.75"/>
      <path class="cls-20" d="M103.95,73.43c0,5.28,4.28,9.56,9.56,9.56s9.56-4.28,9.56-9.56-4.28-9.56-9.56-9.56-9.56,4.28-9.56,9.56"/>
      <path class="cls-9" d="M104.6,73.43c0,4.92,3.99,8.91,8.91,8.91s8.91-3.99,8.91-8.91-3.99-8.91-8.91-8.91-8.91,3.99-8.91,8.91"/>
      <path class="cls-12" d="M115.82,68.68v-.85c0-.34-.29-.62-.64-.62h-3.15c-.35,0-.64.28-.64.62v.85c0,.34-.29.62-.64.62h-3c-.35,0-.64.28-.64.62v7.54c0,.34.29.62.64.62h11.7c.35,0,.64-.28.64-.62v-7.54c0-.34-.29-.62-.64-.62h-3c-.35,0-.64-.28-.64-.62"/>
      <path class="cls-7" d="M114.69,69.14h-2.17c-.28,0-.51-.23-.51-.51v-.4c0-.28.23-.51.51-.51h2.17c.28,0,.51.23.51.51v.4c0,.28-.23.51-.51.51"/>
      <path class="cls-7" d="M119.44,74.8c0,2.44-1.98,4.42-4.42,4.42s-4.42-1.98-4.42-4.42,1.98-4.42,4.42-4.42,4.42,1.98,4.42,4.42"/>
      <path class="cls-21" d="M116.86,77c-.14.25-.35.47-.62.64-.27.17-.6.27-.98.29v.71h-.47v-.71c-.53-.05-.96-.22-1.3-.51s-.5-.67-.51-1.13h.85c.02.25.12.46.28.64.16.18.39.29.68.34v-2.19c-.39-.1-.71-.2-.95-.31-.24-.1-.44-.27-.61-.49-.17-.22-.26-.52-.26-.9,0-.47.17-.87.5-1.18s.77-.48,1.32-.52v-.73h.47v.73c.5.04.9.2,1.2.48.3.28.48.64.53,1.08h-.85c-.03-.21-.12-.39-.27-.56-.15-.17-.35-.28-.61-.33v2.14c.39.1.7.2.94.3.24.1.45.26.61.49.17.22.25.52.25.9,0,.28-.07.55-.21.8M114.04,74c.17.15.42.28.75.38v-2.03c-.3.03-.55.13-.73.29-.18.17-.27.4-.27.7s.08.51.25.66M116,76.93c.18-.19.27-.42.27-.69,0-.29-.09-.51-.26-.66-.18-.15-.42-.28-.75-.37v2.07c.32-.04.56-.15.74-.34"/>
      <path class="cls-20" d="M103.38,116.2c0-5.28,4.28-9.56,9.56-9.56s9.56,4.28,9.56,9.56-4.28,9.56-9.56,9.56-9.56-4.28-9.56-9.56"/>
      <path class="cls-9" d="M104.02,116.2c0-4.92,3.99-8.91,8.91-8.91s8.91,3.99,8.91,8.91-3.99,8.91-8.91,8.91-8.91-3.99-8.91-8.91"/>
      <polygon class="cls-12" points="120.02 120.09 106.56 120.09 106.56 110.55 106.92 110.55 106.92 119.72 120.02 119.72 120.02 120.09"/>
      <path class="cls-12" d="M118.8,113.29c-.13-.58-.11-1.39-.02-2.01-.47.41-1.14.87-1.7,1.08l.81.12-2.43,4.47-1.73-.71-1.62,2.05-1.74-2.66-2.88,3.57.32.26,2.53-3.13,1.75,2.67,1.78-2.26,1.78.73,2.6-4.79.55.61Z"/>
      <path class="cls-20" d="M151.48,64.77c-2.64,4.57-8.48,6.14-13.05,3.5-4.57-2.64-6.14-8.48-3.5-13.05,2.64-4.57,8.48-6.14,13.05-3.5,4.57,2.64,6.14,8.48,3.5,13.05"/>
      <path class="cls-9" d="M143.21,51.09c4.92,0,8.91,3.99,8.91,8.91s-3.99,8.91-8.91,8.91-8.91-3.99-8.91-8.91,3.99-8.91,8.91-8.91"/>
      <path class="cls-12" d="M138.75,53.92h6.06c.27,0,.52.11.71.3l2.19,2.17c.19.19.3.45.3.72v8.13c0,.56-.45,1.01-1.01,1.01h-7.24c-.56,0-1.01-.45-1.01-1.01v-11.32Z"/>
      <polygon class="cls-7" points="139.59 54.63 144.86 54.63 144.86 57.03 147.17 57.03 147.17 65.53 139.59 65.53 139.59 54.63"/>
      <path class="cls-12" d="M146.33,63.83h-5.85c-.1,0-.18-.08-.18-.18v-.07c0-.1.08-.18.18-.18h5.85c.1,0,.18.08.18.18v.07c0,.1-.08.18-.18.18"/>
      <path class="cls-12" d="M146.33,61.65h-5.85c-.1,0-.18-.08-.18-.18v-.07c0-.1.08-.18.18-.18h5.85c.1,0,.18.08.18.18v.07c0,.1-.08.18-.18.18"/>
      <path class="cls-12" d="M146.34,59.24h-5.85c-.1,0-.18-.08-.18-.18v-.07c0-.1.08-.18.18-.18h5.85c.1,0,.18.08.18.18v.07c0,.1-.08.18-.18.18"/>
      <path class="cls-12" d="M143.49,56.97h-3.21c-.1,0-.18-.08-.18-.18v-.07c0-.1.08-.18.18-.18h3.21c.1,0,.18.08.18.18v.07c0,.1-.08.18-.18.18"/>
      <path class="cls-20" d="M98.03,94.37c0,5.28,4.28,9.56,9.56,9.56s9.56-4.28,9.56-9.56-4.28-9.56-9.56-9.56-9.56,4.28-9.56,9.56"/>
      <path class="cls-9" d="M98.68,94.37c0,4.92,3.99,8.91,8.91,8.91s8.91-3.99,8.91-8.91-3.99-8.91-8.91-8.91-8.91,3.99-8.91,8.91"/>
      <path class="cls-12" d="M109.62,87.79h.32c.34,0,.62.28.62.62v1.12c0,.34-.28.62-.62.62h-.32c-.34,0-.62-.28-.62-.62v-1.12c0-.34.28-.62.62-.62"/>
      <path class="cls-12" d="M110.96,89.11v.47c0,.65-.53,1.18-1.18,1.18s-1.18-.53-1.18-1.18v-.47h-3.16v.47c0,.65-.53,1.18-1.18,1.18s-1.18-.53-1.18-1.18v-.47h-1.65v9.86h11.08v-9.86h-1.56Z"/>
      <rect class="cls-7" x="102.31" y="91.89" width="9.44" height="6.32"/>
      <path class="cls-12" d="M104.1,87.79h.32c.34,0,.62.28.62.62v1.12c0,.34-.28.62-.62.62h-.32c-.34,0-.62-.28-.62-.62v-1.12c0-.34.28-.62.62-.62"/>
      <rect class="cls-12" x="105.45" y="92.73" width="1.24" height="1.14"/>
      <rect class="cls-12" x="107.47" y="92.73" width="1.24" height="1.14"/>
      <rect class="cls-12" x="109.3" y="92.73" width="1.24" height="1.14"/>
      <rect class="cls-12" x="105.45" y="94.51" width="1.24" height="1.14"/>
      <rect class="cls-12" x="103.49" y="94.51" width="1.24" height="1.14"/>
      <rect class="cls-12" x="107.47" y="94.51" width="1.24" height="1.14"/>
      <rect class="cls-4" x="109.3" y="94.51" width="1.24" height="1.14"/>
      <rect class="cls-12" x="105.45" y="96.4" width="1.24" height="1.14"/>
      <rect class="cls-12" x="103.49" y="96.4" width="1.24" height="1.14"/>
      <rect class="cls-12" x="107.47" y="96.4" width="1.24" height="1.14"/>
      <rect class="cls-4" x="109.3" y="96.4" width="1.24" height="1.14"/>
      <path class="cls-12" d="M111.68,93.09c-1.87,0-3.39,1.52-3.39,3.39s1.52,3.39,3.39,3.39,3.39-1.52,3.39-3.39c0-1.87-1.52-3.38-3.39-3.39"/>
      <path class="cls-7" d="M111.68,99.44c-1.64,0-2.96-1.33-2.96-2.96s1.33-2.96,2.96-2.96,2.96,1.33,2.96,2.96c0,1.64-1.33,2.96-2.96,2.96"/>
      <path class="cls-12" d="M111.9,96.48v-2.33c0-.12-.1-.21-.21-.21s-.21.1-.21.21v2.2l-1.58.79c-.11.05-.15.18-.1.28.05.1.18.15.28.1l1.69-.85c.07-.04.12-.11.12-.19"/>
      <path class="cls-12" d="M112.63,94.58c-.11-.05-.23,0-.28.1-.05.11,0,.23.1.28.84.42,1.18,1.43.76,2.27-.42.84-1.43,1.18-2.27.76-.13-.07-.26-.15-.37-.25-.09-.08-.22-.07-.3.02-.08.09-.07.22.02.3.87.78,2.21.7,2.99-.17.78-.87.7-2.21-.17-2.99-.14-.12-.3-.23-.47-.32"/>
      <path class="cls-12" d="M109.82,96.9c.12-.01.2-.12.19-.23,0-.06-.01-.13-.01-.19,0-.64.36-1.23.94-1.52.1-.05.15-.18.1-.28-.05-.1-.18-.15-.28-.1-.8.4-1.26,1.25-1.16,2.13.01.11.1.19.21.19,0,0,.02,0,.02,0"/>
      <path class="cls-20" d="M134.88,125.97c2.64-4.57,8.48-6.14,13.05-3.5,4.57,2.64,6.14,8.48,3.5,13.05-2.64,4.57-8.48,6.14-13.05,3.5-4.57-2.64-6.14-8.48-3.5-13.05"/>
      <path class="cls-9" d="M143.16,139.66c-4.92,0-8.91-3.99-8.91-8.91s3.99-8.91,8.91-8.91,8.91,3.99,8.91,8.91-3.99,8.91-8.91,8.91"/>
      <path class="cls-12" d="M148.64,131.48c0,.14-.12.26-.28.26h-10.42c-.15,0-.28-.12-.28-.26v-5.88c0-.14.12-.26.28-.26h10.42c.15,0,.28.12.28.26v5.87Z"/>
      <path class="cls-7" d="M148.18,131c0,.15-.13.27-.29.27h-9.45c-.16,0-.29-.12-.29-.27v-4.89c0-.15.13-.27.29-.27h9.45c.16,0,.29.12.29.27v4.89Z"/>
      <polygon class="cls-12" points="148.64 131.74 137.66 131.74 135.72 133.52 150.59 133.52 148.64 131.74"/>
      <path class="cls-12" d="M150.35,133.85h-14.36c-.15,0-.26-.12-.26-.26v-.07s0,0,0,0h14.85s0,0,0,0v.09c0,.13-.11.24-.24.24"/>
      <path class="cls-7" d="M144.44,133.34h-2.57c-.07,0-.12-.05-.12-.12v-.06c0-.07.05-.12.12-.12h2.57c.07,0,.12.05.12.12v.06c0,.07-.05.12-.12.12"/>
      <polygon class="cls-12" points="147.22 130.76 139.1 130.76 139.1 126.46 139.26 126.46 139.26 130.6 147.22 130.6 147.22 130.76"/>
      <path class="cls-12" d="M144.92,126.22c-.04.25-.04.57,0,.81l-.28-.31-.41-.06c.22-.08.49-.27.68-.43"/>
      <polygon class="cls-12" points="141.42 129.85 139.92 129.23 139.98 129.08 141.49 129.7 141.42 129.85"/>
      <rect class="cls-12" x="141.04" y="129.02" width="1.62" height=".17" transform="translate(-43.63 177.96) rotate(-57.06)"/>
      <polygon class="cls-12" points="143.92 128.03 142.38 128.55 142.33 128.39 143.86 127.87 143.92 128.03"/>
      <polygon class="cls-12" points="144.76 126.7 143.87 128.06 143.74 127.97 144.63 126.61 144.76 126.7"/>
      <path class="cls-12" d="M140.34,129.2c0,.21-.17.38-.38.38s-.38-.17-.38-.38.17-.38.38-.38.38.17.38.38"/>
      <path class="cls-12" d="M141.81,129.77c0,.21-.17.38-.38.38s-.38-.17-.38-.38.17-.38.38-.38.38.17.38.38"/>
      <path class="cls-12" d="M142.64,128.51c0,.19-.15.34-.34.34s-.34-.15-.34-.34.15-.34.34-.34.34.15.34.34"/>
      <path class="cls-12" d="M144.18,127.96c0,.18-.14.32-.32.32s-.32-.14-.32-.32.14-.32.32-.32.32.14.32.32"/>
      <path class="cls-12" d="M161.21,95.38c0,10.02-8.12,18.13-18.13,18.13s-18.13-8.12-18.13-18.13,8.12-18.13,18.13-18.13,18.13,8.12,18.13,18.13"/>
      <path class="cls-20" d="M159.57,95.38c0,9.11-7.38,16.49-16.49,16.49s-16.49-7.38-16.49-16.49,7.38-16.49,16.49-16.49,16.49,7.38,16.49,16.49"/>
      <path class="cls-6" d="M151.58,86.34h-4.55c-.08-.48-.49-.86-.99-.86h-5.58c-.51,0-.91.37-.99.86h-4.45c-.93,0-1.69.76-1.69,1.69v12.08c0,.93.76,1.69,1.69,1.69h2.86l-1.67,4.11h.93s1.61-4.09,1.61-4.09h-.01s9.12-.01,9.12-.01h-.02s1.68,4.12,1.68,4.12h.87s-1.69-4.12-1.69-4.12h2.88c.93,0,1.69-.76,1.69-1.69v-12.08c0-.93-.76-1.69-1.69-1.69"/>
      <path class="cls-7" d="M150.94,100.74h-15.28c-.85,0-1.55-.69-1.55-1.55v-10.34c0-.85.69-1.55,1.55-1.55h15.28c.85,0,1.55.69,1.55,1.55v10.34c0,.86-.69,1.55-1.55,1.55"/>
      <polygon class="cls-12" points="136.25 99.08 136.25 90.13 135.83 90.13 135.83 99.3 135.85 99.3 135.85 99.5 150.87 99.5 150.87 99.08 136.25 99.08"/>
      <rect class="cls-14" x="139.33" y="93.01" width=".39" height="4.07" transform="translate(-.71 189.05) rotate(-68.1)"/>
      <rect class="cls-14" x="140.25" y="93.8" width="4.07" height=".39" transform="translate(12.12 204.15) rotate(-73.69)"/>
      <rect class="cls-14" x="142.91" y="91.21" width="5.14" height=".39" transform="translate(-7.25 12.71) rotate(-4.88)"/>
      <rect class="cls-14" x="147.44" y="89.69" width="3.08" height=".39" transform="translate(-14.68 148.95) rotate(-50.95)"/>
      <path class="cls-3" d="M138.59,94.34c0,.55-.44.99-.99.99s-.99-.44-.99-.99.44-.99.99-.99.99.44.99.99"/>
      <path class="cls-6" d="M142.3,95.63c0,.34-.28.62-.62.62s-.62-.28-.62-.62.28-.62.62-.62.62.28.62.62"/>
      <path class="cls-11" d="M143.97,91.83c0,.49-.39.88-.88.88s-.88-.39-.88-.88.39-.88.88-.88.88.39.88.88"/>
      <path class="cls-20" d="M149.09,91.04c0,.57-.46,1.03-1.03,1.03s-1.03-.46-1.03-1.03.46-1.02,1.03-1.02,1.03.46,1.03,1.02"/>
      <polygon class="cls-20" points="150.55 88.45 150.46 89.11 149.94 88.7 149.42 88.29 150.03 88.04 150.65 87.79 150.55 88.45"/>
      <rect class="cls-3" x="145.62" y="95.21" width=".29" height="3.04" transform="translate(-28.59 111.12) rotate(-38.29)"/>
      <polygon class="cls-3" points="140.89 97.44 137.87 97.77 137.84 97.48 140.86 97.15 140.89 97.44"/>
      <rect class="cls-3" x="141.04" y="96.28" width="3.84" height=".29" transform="translate(-27.93 73.39) rotate(-26.32)"/>
      <rect class="cls-3" x="146.57" y="97" width="2.31" height=".29" transform="translate(-27.85 76.32) rotate(-26.56)"/>
      <polygon class="cls-3" points="149.1 96.64 148.91 96.94 148.74 96.63 148.58 96.31 148.94 96.32 149.29 96.34 149.1 96.64"/>
      <path class="cls-18" d="M138.43,97.68c0,.42-.34.77-.77.77s-.77-.34-.77-.77.34-.77.77-.77.77.34.77.77"/>
      <path class="cls-6" d="M141.62,97.35c0,.32-.26.58-.58.58s-.58-.26-.58-.58.26-.58.58-.58.58.26.58.58"/>
      <path class="cls-19" d="M147.44,97.72c0,.42-.34.77-.77.77s-.77-.34-.77-.77.34-.77.77-.77.77.34.77.77"/>
      <path class="cls-14" d="M145.39,95.41c0,.36-.29.65-.65.65s-.65-.29-.65-.65.29-.65.65-.65.65.29.65.65"/>
      <path class="cls-20" d="M188.47,94.37c0,5.28-4.28,9.56-9.56,9.56s-9.56-4.28-9.56-9.56,4.28-9.56,9.56-9.56,9.56,4.28,9.56,9.56"/>
      <path class="cls-9" d="M187.82,94.37c0,4.92-3.99,8.91-8.91,8.91s-8.91-3.99-8.91-8.91,3.99-8.91,8.91-8.91,8.91,3.99,8.91,8.91"/>
      <rect class="cls-10" x="171.99" y="89.25" width="11.9" height="6.2"/>
      <path class="cls-7" d="M172.4,95.04h11.08v-5.4h-11.08v5.4ZM173.43,94.9v-.68c0-.14-.12-.26-.26-.26h-.69v-3.26h.67c.14,0,.26-.12.26-.26v-.68h9.02v.68c0,.14.12.26.26.26h.68v3.26h-.69c-.14,0-.26.12-.26.26v.69h.94s-9.95,0-9.95,0Z"/>
      <path class="cls-10" d="M182.43,94.9v-.69c0-.14.12-.26.26-.26h.69v-3.26h-.68c-.14,0-.26-.12-.26-.26v-.68h-9.02v.68c0,.14-.12.26-.26.26h-.67v3.26h.69c.14,0,.26.12.26.26v.68h9.95s-.94,0-.94,0Z"/>
      <path class="cls-7" d="M180.18,92.29c0,1.29-1.05,2.34-2.34,2.34s-2.34-1.05-2.34-2.34,1.05-2.34,2.34-2.34,2.34,1.05,2.34,2.34"/>
      <path class="cls-8" d="M177.66,90.48h.34v.25c.53.03,1.06.25,1.05.88h-.71c-.01-.16-.13-.33-.34-.32v.57c.51.15,1.09.33,1.09.94,0,.67-.5.89-1.09.91v.4h-.34v-.4c-.59-.02-1.07-.34-1.07-.97h.74c0,.22.12.38.33.43v-.64c-.48-.15-1.01-.27-1.01-.89s.49-.82,1.01-.9v-.25ZM177.66,91.26c-.11,0-.31.09-.31.25,0,.2.18.23.31.28v-.53ZM178,93.19c.17,0,.35-.1.35-.27,0-.18-.15-.29-.35-.33v.6Z"/>
      <rect class="cls-10" x="172.98" y="90.44" width="11.9" height="6.2"/>
      <path class="cls-7" d="M173.39,96.23h11.08v-5.4h-11.08v5.4ZM174.42,96.09v-.68c0-.14-.12-.26-.26-.26h-.69v-3.26h.67c.14,0,.26-.12.26-.26v-.68h9.02v.68c0,.14.12.26.26.26h.68v3.26h-.69c-.14,0-.26.12-.26.26v.69h.94s-9.95,0-9.95,0Z"/>
      <path class="cls-10" d="M183.42,96.09v-.69c0-.14.12-.26.26-.26h.69v-3.26h-.68c-.14,0-.26-.12-.26-.26v-.68h-9.02v.68c0,.14-.12.26-.26.26h-.67v3.26h.69c.14,0,.26.12.26.26v.68h9.95s-.94,0-.94,0Z"/>
      <path class="cls-7" d="M181.17,93.48c0,1.29-1.05,2.34-2.34,2.34s-2.34-1.05-2.34-2.34,1.05-2.34,2.34-2.34,2.34,1.05,2.34,2.34"/>
      <path class="cls-10" d="M178.65,91.67h.34v.25c.53.03,1.06.25,1.05.88h-.71c-.01-.16-.13-.33-.34-.32v.57c.51.15,1.09.33,1.09.94,0,.67-.5.89-1.09.91v.4h-.34v-.4c-.59-.02-1.07-.34-1.07-.97h.74c0,.22.12.38.33.43v-.64c-.48-.15-1.01-.27-1.01-.89s.49-.82,1.01-.9v-.25ZM178.65,92.45c-.11,0-.31.09-.31.25,0,.2.18.23.31.28v-.53ZM178.99,94.37c.17,0,.35-.1.35-.27,0-.18-.15-.29-.35-.33v.6Z"/>
      <path class="cls-4" d="M184.76,99.89v-4.28h-4.99v4.53h0c0,.1.03.2.07.3.33.74,1.69,1.18,3.03.97,1.22-.19,2-.84,1.88-1.51"/>
      <path class="cls-10" d="M184.7,95.25c.33.74-.48,1.51-1.82,1.71-1.34.21-2.7-.23-3.03-.97-.34-.74.48-1.51,1.82-1.71,1.34-.21,2.7.23,3.03.97"/>
      <path class="cls-7" d="M184.33,95.3c.28.63-.41,1.28-1.54,1.45-1.14.17-2.29-.2-2.57-.82-.28-.63.41-1.28,1.54-1.45,1.14-.17,2.29.19,2.57.82"/>
      <path class="cls-10" d="M183.38,96.06c-.04.07-.11.15-.21.21-.11.06-.25.11-.42.14l.08.18-.22.03-.08-.18c-.25.03-.47.01-.66-.04-.19-.05-.31-.14-.37-.25l.4-.06c.04.06.11.11.2.15.1.04.21.05.36.04l-.26-.57c-.19,0-.35,0-.48-.01-.12,0-.24-.04-.34-.08-.1-.04-.18-.12-.22-.21-.06-.12-.02-.24.09-.34s.3-.18.56-.23l-.09-.19.22-.03.08.19c.24-.02.44-.01.62.04.17.05.3.13.37.24l-.4.06c-.04-.05-.1-.09-.19-.12-.09-.03-.2-.05-.32-.04l.25.55c.19,0,.35,0,.47.01s.24.04.34.08c.1.04.18.12.22.21.03.07.03.15,0,.22M181.72,95.48c.1.03.23.04.39.04l-.24-.52c-.14.03-.24.07-.31.13-.06.06-.08.12-.05.2.03.07.1.12.19.15M182.98,96.1c.06-.06.07-.13.04-.2-.03-.07-.1-.12-.2-.15-.1-.03-.23-.04-.39-.04l.24.53c.14-.03.25-.08.31-.14"/>
      <path class="cls-20" d="M184.48,116.2c0-5.28-4.28-9.56-9.56-9.56s-9.56,4.28-9.56,9.56,4.28,9.56,9.56,9.56,9.56-4.28,9.56-9.56"/>
      <path class="cls-9" d="M183.84,116.2c0-4.92-3.99-8.91-8.91-8.91s-8.91,3.99-8.91,8.91,3.99,8.91,8.91,8.91,8.91-3.99,8.91-8.91"/>
      <path class="cls-12" d="M170.08,109.52h5.59c.25,0,.48.1.66.27l2.02,2.01c.18.17.27.41.27.66v7.5c0,.52-.42.93-.93.93h-6.68c-.51,0-.93-.42-.93-.93v-10.44Z"/>
      <polygon class="cls-7" points="170.85 110.18 175.71 110.18 175.71 112.39 177.84 112.39 177.84 120.23 170.85 120.23 170.85 110.18"/>
      <path class="cls-10" d="M174.92,112.33h-3.29c-.06,0-.11-.05-.11-.11v-.11c0-.06.05-.11.11-.11h3.29c.06,0,.11.05.11.11v.11c0,.06-.05.11-.11.11"/>
      <path class="cls-10" d="M177.12,114.39h-5.45c-.06,0-.11-.05-.11-.11v-.11c0-.06.05-.11.11-.11h5.45c.06,0,.11.05.11.11v.11c0,.06-.05.11-.11.11"/>
      <path class="cls-10" d="M177.15,116.59h-5.45c-.06,0-.11-.05-.11-.11v-.11c0-.06.05-.11.11-.11h5.45c.06,0,.11.05.11.11v.11c0,.06-.05.11-.11.11"/>
      <path class="cls-10" d="M177.07,118.81h-5.45c-.06,0-.11-.05-.11-.11v-.11c0-.06.05-.11.11-.11h5.45c.06,0,.11.05.11.11v.11c0,.06-.05.11-.11.11"/>
      <path class="cls-4" d="M182.55,118.45v-4.7h-5.36v4.97h0c0,.11.03.22.08.33.36.81,1.82,1.29,3.25,1.07,1.31-.21,2.15-.92,2.02-1.66"/>
      <path class="cls-10" d="M182.49,113.35c.36.81-.52,1.66-1.95,1.88-1.44.23-2.9-.25-3.26-1.07-.36-.81.51-1.65,1.95-1.88,1.44-.23,2.9.25,3.26,1.06"/>
      <path class="cls-7" d="M182.09,113.41c.3.69-.44,1.41-1.66,1.6-1.22.19-2.46-.21-2.76-.9-.3-.69.44-1.4,1.66-1.6,1.22-.19,2.46.21,2.76.9"/>
      <path class="cls-10" d="M181.08,114.23c-.04.08-.11.16-.23.23s-.27.12-.45.16l.09.2-.24.04-.09-.2c-.27.03-.51.01-.71-.04-.2-.06-.34-.15-.4-.28l.43-.07c.04.07.12.12.22.16.1.04.23.05.38.04l-.27-.62c-.21,0-.38,0-.51-.01-.13-.01-.26-.04-.37-.09-.11-.05-.19-.13-.24-.23-.06-.13-.03-.26.1-.37.13-.11.33-.2.6-.25l-.09-.21.24-.04.09.21c.25-.03.47-.01.66.04.19.06.32.14.4.26l-.43.07c-.04-.06-.11-.1-.21-.14-.1-.04-.21-.05-.35-.05l.27.6c.21,0,.38,0,.51.01.13.01.26.04.37.09.11.05.19.13.24.24.04.08.03.16,0,.24M179.29,113.6c.1.03.24.05.42.05l-.25-.57c-.15.03-.26.08-.33.14-.07.06-.09.13-.05.22.04.08.11.14.21.17M180.64,114.28c.06-.07.08-.14.05-.22-.04-.08-.11-.14-.21-.17-.11-.03-.25-.05-.42-.05l.26.59c.15-.04.26-.09.33-.16"/>
      <path class="cls-4" d="M178.63,121.08v-2.93h-5.36v3.19h0c0,.11.03.22.08.33.36.81,1.82,1.29,3.25,1.07,1.31-.21,2.15-.92,2.02-1.66"/>
      <path class="cls-10" d="M178.56,117.76c.36.81-.52,1.66-1.95,1.88-1.44.23-2.9-.25-3.26-1.07-.36-.81.51-1.66,1.95-1.88,1.44-.23,2.9.25,3.26,1.06"/>
      <path class="cls-7" d="M178.16,117.82c.3.69-.44,1.41-1.66,1.6-1.22.19-2.46-.21-2.76-.9-.3-.69.44-1.4,1.66-1.6,1.22-.19,2.46.21,2.76.9"/>
      <path class="cls-10" d="M177.15,118.65c-.04.08-.11.16-.23.23s-.27.12-.45.16l.09.2-.24.04-.09-.2c-.27.03-.51.01-.71-.04-.2-.06-.34-.15-.4-.28l.43-.07c.04.07.12.12.22.16.1.04.23.05.38.04l-.27-.62c-.21,0-.38,0-.51-.01-.13-.01-.26-.04-.37-.09-.11-.05-.19-.13-.24-.23-.06-.13-.03-.26.1-.37.13-.11.33-.2.6-.25l-.09-.21.24-.04.09.21c.25-.03.47-.01.66.04.19.06.32.14.4.26l-.43.07c-.04-.06-.11-.1-.21-.14-.1-.04-.21-.05-.34-.05l.27.6c.21,0,.38,0,.51.01.13.01.26.04.37.09.11.05.19.13.24.24.04.08.03.16,0,.24M175.37,118.02c.1.03.24.05.42.05l-.25-.57c-.15.03-.26.08-.33.14-.07.06-.09.13-.05.22.04.08.11.14.21.17M176.71,118.69c.06-.07.08-.14.05-.22-.04-.08-.11-.14-.21-.17-.11-.03-.25-.05-.42-.05l.26.59c.15-.04.26-.09.33-.16"/>
    </g>
    <g>
      <path class="cls-20" d="M181.12,166.92c0,9.46-7.67,17.13-17.13,17.13s-17.13-7.67-17.13-17.13,7.67-17.13,17.13-17.13,17.13,7.67,17.13,17.13"/>
      <path class="cls-7" d="M179.57,166.64c0,8.6-6.97,15.58-15.58,15.58s-15.58-6.97-15.58-15.58,6.97-15.58,15.58-15.58,15.58,6.97,15.58,15.58"/>
      <path class="cls-6" d="M179.69,179.33h-1.35c-1.82,0-3.31-1.49-3.31-3.31v-8.96h7.96v8.96c0,1.83-1.48,3.31-3.31,3.31"/>
      <path class="cls-10" d="M182.89,166.6c.54,1.49-.77,3.02-2.92,3.43-2.15.41-4.32-.46-4.86-1.95-.54-1.49.77-3.02,2.92-3.43,2.15-.41,4.33.46,4.86,1.95"/>
      <path class="cls-7" d="M182.3,166.71c.46,1.26-.65,2.57-2.48,2.91s-3.67-.39-4.13-1.65c-.46-1.26.65-2.57,2.48-2.91,1.82-.35,3.67.39,4.13,1.65"/>
      <path class="cls-10" d="M180.78,168.21c-.06.15-.17.29-.34.42-.17.13-.4.22-.68.29l.13.37-.35.07-.13-.37c-.41.05-.76.03-1.07-.08-.3-.1-.5-.28-.59-.51l.64-.12c.06.12.17.22.33.29.15.07.34.1.57.08l-.41-1.13c-.31,0-.57,0-.76-.02-.2-.02-.38-.08-.55-.17-.17-.09-.29-.23-.36-.43-.09-.24-.04-.47.15-.68.19-.21.49-.36.89-.46l-.14-.38.35-.07.14.38c.38-.05.71-.02.99.08.28.1.48.26.6.48l-.64.12c-.06-.1-.16-.19-.31-.25-.14-.06-.32-.09-.51-.08l.4,1.11c.31,0,.56,0,.76.02.2.02.38.07.55.16s.29.24.36.43c.05.15.05.29,0,.44M178.12,167.06c.15.05.36.08.63.09l-.38-1.05c-.22.06-.38.14-.49.26-.1.11-.13.24-.07.4.05.15.16.25.31.3M180.13,168.3c.1-.12.12-.26.07-.4-.05-.15-.16-.25-.32-.3-.16-.06-.37-.08-.63-.09l.39,1.07c.23-.06.39-.16.49-.28"/>
      <path class="cls-6" d="M184.97,183.3h-1.41c-1.9,0-3.45-1.55-3.45-3.45v-4.15h8.31v4.15c0,1.9-1.54,3.45-3.45,3.45"/>
      <path class="cls-10" d="M188.34,175.01c.56,1.55-.8,3.15-3.04,3.58-2.24.43-4.51-.48-5.07-2.03-.56-1.55.8-3.15,3.04-3.58,2.24-.43,4.51.48,5.07,2.03"/>
      <path class="cls-7" d="M187.73,175.13c.48,1.32-.68,2.68-2.58,3.04-1.9.36-3.83-.41-4.31-1.72-.48-1.31.68-2.68,2.58-3.04,1.9-.36,3.83.41,4.3,1.72"/>
      <path class="cls-10" d="M186.15,176.7c-.06.16-.18.3-.36.44-.18.13-.41.23-.71.3l.14.38-.37.07-.14-.38c-.42.05-.79.03-1.11-.08-.32-.11-.52-.29-.62-.53l.66-.13c.07.13.18.23.34.3.16.07.36.1.6.08l-.43-1.18c-.32,0-.59,0-.8-.02-.21-.02-.4-.08-.57-.17-.18-.09-.3-.24-.37-.44-.09-.26-.04-.49.16-.71.2-.22.51-.38.93-.48l-.14-.39.37-.07.14.39c.4-.05.74-.03,1.03.08.29.1.5.27.62.5l-.66.13c-.06-.11-.17-.19-.32-.26-.15-.07-.33-.1-.54-.09l.42,1.15c.32,0,.59,0,.79.02s.4.08.57.17c.17.09.3.24.37.45.05.15.05.31,0,.46M183.37,175.5c.16.06.38.09.65.09l-.39-1.09c-.23.06-.4.15-.51.27-.11.12-.13.26-.08.42.05.15.16.26.33.32M185.47,176.8c.1-.13.13-.27.07-.41-.06-.15-.17-.26-.33-.32-.17-.06-.39-.09-.65-.09l.4,1.12c.24-.07.41-.16.51-.3"/>
      <path class="cls-7" d="M137.7,168.19h20.84c.81,0,1.46-.65,1.46-1.46v-3.7h-1.31v-4.6h1.24v-3.21c0-.53-.29-1.03-.76-1.28l-10.01-5.49c-.42-.23-.92-.24-1.35-.03l-10.75,5.25c-.5.25-.82.76-.82,1.31v3.02h1.2v4.89h-1.24s.03,2.48.02,3.83c0,.81.65,1.47,1.46,1.47"/>
      <path class="cls-12" d="M158.76,166.97h-21.34c-.23,0-.42-.19-.42-.42v-.72c0-.23.19-.42.42-.42h21.34c.23,0,.42.19.42.42v.72c0,.23-.19.42-.42.42"/>
      <path class="cls-12" d="M158.02,156.88v-.31c0-.27-.31-.48-.7-.48h-18.44c-.39,0-.7.22-.7.48v.31c0,.27.32.48.7.48h.18c.39,0,.7.22.7.48v5.35c0,.27-.31.48-.7.48h-.18c-.39,0-.7.22-.7.48v.31c0,.27.31.48.7.48h18.44c.39,0,.7-.22.7-.48v-.31c0-.27-.31-.48-.7-.48h-.13c-.39,0-.7-.22-.7-.48v-5.35c0-.27.31-.48.7-.48h.14c.39,0,.7-.22.7-.48M148.9,157.85v5.35c0,.27-.31.48-.7.48h-.28c-.39,0-.7-.22-.7-.48v-5.35c0-.27.31-.48.7-.48h.28c.39,0,.7.22.7.48M143.24,157.36h.48c.39,0,.7.22.7.48v5.35c0,.27-.31.48-.7.48h-.48c-.39,0-.7-.22-.7-.48v-5.35c0-.27.31-.48.7-.48M152.98,163.68h-.59c-.39,0-.7-.22-.7-.48v-5.35c0-.27.31-.48.7-.48h.59c.39,0,.7.22.7.48v5.35c0,.27-.31.48-.7.48"/>
      <path class="cls-12" d="M137.76,154.87l10.43-5.41c.08-.04.17-.04.25,0l9.99,5.41c.28.15.18.62-.13.62h-20.42c-.31,0-.41-.48-.12-.62"/>
      <path class="cls-6" d="M173.25,156.53h-5.24c-.1-.56-.56-.99-1.15-.99h-6.44c-.58,0-1.05.43-1.14.99h-5.13c-1.08,0-1.95.87-1.95,1.95v13.93c0,1.08.87,1.95,1.95,1.95h3.29l-1.92,4.74h1.07s1.86-4.72,1.86-4.72l-.02-.02h10.52l-.02.02,1.93,4.73h1s-1.96-4.75-1.96-4.75h3.33c1.08,0,1.95-.87,1.95-1.95v-13.93c0-1.08-.87-1.95-1.95-1.95"/>
      <path class="cls-7" d="M172.75,173.13h-18.09c-.85,0-1.55-.69-1.55-1.55v-12.4c0-.85.69-1.55,1.55-1.55h18.09c.85,0,1.55.69,1.55,1.55v12.4c0,.85-.69,1.55-1.55,1.55"/>
      <polygon class="cls-12" points="155.57 171.22 155.57 160.9 155.1 160.9 155.1 171.47 155.11 171.47 155.11 171.7 172.44 171.7 172.44 171.22 155.57 171.22"/>
      <rect class="cls-14" x="159.13" y="164.22" width=".45" height="4.69" transform="translate(-54.64 252.28) rotate(-68.1)"/>
      <rect class="cls-14" x="160.19" y="165.13" width="4.69" height=".44" transform="translate(-41.8 274.91) rotate(-73.69)"/>
      <rect class="cls-14" x="163.26" y="162.15" width="5.92" height=".44" transform="translate(-13.21 14.73) rotate(-4.88)"/>
      <polygon class="cls-14" points="168.96 161.85 171.2 159.09 171.55 159.37 169.31 162.13 168.96 161.85"/>
      <path class="cls-3" d="M158.27,165.75c0,.63-.51,1.14-1.14,1.14s-1.14-.51-1.14-1.14.51-1.14,1.14-1.14,1.14.51,1.14,1.14"/>
      <path class="cls-6" d="M162.55,167.25c0,.39-.32.71-.71.71s-.71-.32-.71-.71.32-.71.71-.71.71.32.71.71"/>
      <path class="cls-11" d="M164.48,162.86c0,.56-.45,1.01-1.01,1.01s-1.01-.45-1.01-1.01.45-1.01,1.01-1.01,1.01.45,1.01,1.01"/>
      <path class="cls-20" d="M170.38,161.94c0,.65-.53,1.18-1.18,1.18s-1.18-.53-1.18-1.18.53-1.18,1.18-1.18,1.18.53,1.18,1.18"/>
      <polygon class="cls-20" points="172.07 158.96 171.96 159.72 171.36 159.25 170.76 158.78 171.47 158.49 172.18 158.2 172.07 158.96"/>
      <rect class="cls-3" x="166.38" y="166.76" width=".33" height="3.51" transform="translate(-68.59 139.44) rotate(-38.29)"/>
      <polygon class="cls-3" points="160.93 169.33 157.44 169.71 157.41 169.38 160.9 168.99 160.93 169.33"/>
      <polygon class="cls-3" points="161.25 168.99 165.22 167.02 165.37 167.32 161.4 169.29 161.25 168.99"/>
      <polygon class="cls-3" points="167.55 169.44 169.92 168.25 170.07 168.55 167.7 169.74 167.55 169.44"/>
      <polygon class="cls-3" points="170.39 168.41 170.17 168.76 169.98 168.39 169.79 168.02 170.2 168.04 170.62 168.06 170.39 168.41"/>
      <path class="cls-18" d="M158.1,169.61c0,.49-.4.88-.88.88s-.88-.4-.88-.88.4-.88.88-.88.88.4.88.88"/>
      <path class="cls-6" d="M161.77,169.22c0,.37-.3.67-.67.67s-.67-.3-.67-.67.3-.67.67-.67.67.3.67.67"/>
      <path class="cls-19" d="M168.48,169.66c0,.49-.4.88-.88.88s-.88-.4-.88-.88.4-.88.88-.88.88.4.88.88"/>
      <path class="cls-14" d="M166.12,166.98c0,.41-.34.75-.75.75s-.75-.33-.75-.75.34-.75.75-.75.75.33.75.75"/>
    </g>
  </g>
</svg>