<?xml version="1.0" encoding="UTF-8"?>
<svg id="Capa_2" xmlns="http://www.w3.org/2000/svg" viewBox="0 0 117.81 208.36">
  <defs>
    <style>
      .cls-1 {
        fill: #f9cf16;
      }

      .cls-2 {
        fill: #cd142a;
      }

      .cls-3 {
        fill: #b4b4b4;
      }

      .cls-4 {
        fill: #646365;
      }

      .cls-5 {
        fill: #767274;
      }

      .cls-6 {
        fill: #868486;
      }

      .cls-7 {
        fill: #fff;
      }

      .cls-8 {
        fill: #115a9f;
      }

      .cls-9 {
        fill: #625f60;
      }

      .cls-10 {
        fill: #db4c75;
      }

      .cls-11 {
        fill: #505050;
      }

      .cls-12 {
        fill: #d00e4d;
      }

      .cls-13 {
        fill: #d00e4c;
      }

      .cls-14 {
        fill: #d22e1f;
      }

      .cls-15 {
        fill: #636061;
      }

      .cls-16 {
        fill: #dcdcdc;
      }

      .cls-17 {
        fill: #9d9a9c;
      }

      .cls-18 {
        fill: #d20f48;
      }

      .cls-19 {
        fill: #1d458c;
      }

      .cls-20 {
        fill: #dd4c75;
      }

      .cls-21 {
        fill: #e1222c;
      }

      .cls-22 {
        fill: #828384;
      }

      .cls-23 {
        fill: #038461;
      }

      .cls-24 {
        fill: #1b4180;
      }
    </style>
  </defs>
  <g id="Capa_1-2" data-name="Capa_1">
    <g>
      <path class="cls-9" d="M47.33,197.9h1.14v8.37h-1.14v-8.37Z"/>
      <path class="cls-9" d="M52.85,201.71c-.25.09-.46.21-.62.38s-.29.37-.38.63-.13.51-.13.76.04.5.13.76.21.46.38.63.37.29.62.38.5.13.75.13h4.61v.93h-4.61c-.51,0-.98-.13-1.41-.38-.43-.25-.77-.59-1.03-1.03-.25-.43-.38-.9-.38-1.41s.12-.98.38-1.41c.25-.43.6-.78,1.03-1.03.43-.25.9-.38,1.41-.38h4.61v.93h-4.61c-.25,0-.5.04-.75.13Z"/>
      <path class="cls-9" d="M64.34,200.64c.5-.02.94.02,1.32.14s.68.28.92.49.42.43.56.66.23.45.29.66.1.38.11.53.02.21.02.19v.33c0,.24-.06.52-.18.83s-.3.61-.55.89-.57.51-.97.69-.85.25-1.38.22h-1.05c-.52.03-.98-.05-1.38-.22s-.72-.4-.97-.69-.43-.58-.55-.89-.18-.59-.18-.83v-.33s0-.04.02-.19.05-.33.11-.53.16-.42.29-.66.32-.46.56-.66.55-.37.92-.49.81-.16,1.32-.14h.76ZM64.7,205.33c.7,0,1.19-.17,1.47-.51s.45-.7.49-1.09v-.16s.01-.26.01-.26v-.18c-.05-.37-.22-.72-.5-1.06s-.77-.51-1.48-.51h-1.49c-.7,0-1.2.17-1.48.51s-.44.7-.48,1.06l-.02.18v.25l.02.18c.04.39.2.75.49,1.09s.78.51,1.47.51h1.49Z"/>
      <path class="cls-9" d="M76.67,201.97c.25.44.38.92.38,1.44v2.87h-.94v-2.87c0-.26-.04-.52-.13-.77s-.21-.47-.38-.64c-.16-.17-.36-.3-.61-.39s-.49-.13-.74-.13h-1.78c-.48,0-1.1,0-1.86,0,0-.22,0-.01,0,.62s0,1.06,0,1.25v2.94h-.94v-5.74h4.58c.5,0,.97.13,1.4.38.43.26.77.61,1.03,1.05Z"/>
      <path class="cls-9" d="M83.2,200.64c.5-.02.94.02,1.32.14s.68.28.92.49.42.43.56.66.23.45.29.66.1.38.11.53.02.21.02.19v.33c0,.24-.06.52-.18.83s-.3.61-.55.89-.57.51-.97.69-.85.25-1.38.22h-1.05c-.52.03-.98-.05-1.38-.22s-.72-.4-.97-.69-.43-.58-.55-.89-.18-.59-.18-.83v-.33s0-.04.02-.19.05-.33.11-.53.16-.42.29-.66.32-.46.56-.66.55-.37.92-.49.81-.16,1.32-.14h.76ZM83.56,205.33c.7,0,1.19-.17,1.47-.51s.45-.7.49-1.09v-.16s.01-.26.01-.26v-.18c-.05-.37-.22-.72-.5-1.06s-.77-.51-1.48-.51h-1.49c-.7,0-1.2.17-1.48.51s-.44.7-.48,1.06l-.02.18v.25l.02.18c.04.39.2.75.49,1.09s.78.51,1.47.51h1.49Z"/>
      <path class="cls-9" d="M98.62,201.96c.23.4.35.9.35,1.49,0-.09,0-.07,0,.06h0v.66c0,.55-.11.98-.32,1.28s-.46.5-.76.61-.61.16-.93.17-.57.02-.73.02h-3.01c-.47,0-.87-.17-1.2-.52s-.5-.76-.5-1.24.17-.9.5-1.25c.33-.35.73-.52,1.2-.52h4.61c0-.07-.02-.13-.04-.19s-.04-.11-.05-.13c-.09-.18-.21-.34-.38-.48s-.34-.26-.54-.34c-.2-.08-.41-.12-.62-.12h-4.44v-.9c0-.08,0-.1,0-.08h4.44c.51,0,.99.13,1.43.4.21.12.39.27.55.45s.3.38.44.62ZM97.95,204.3c0-.08,0-.28-.01-.59h-4.83c-.17,0-.32.08-.45.23-.12.16-.18.34-.18.56s.06.4.18.56c.12.15.27.23.45.23h3.13c.36,0,.64,0,.85-.02s.38-.07.5-.16c.13-.09.22-.21.27-.34s.08-.29.09-.47Z"/>
      <path class="cls-9" d="M102.04,208.34h-.91c0,.05,0,0,0-.16v-5.33c0-.35.13-.69.4-1.02s.59-.6.98-.81.75-.31,1.08-.31h1.71c.53-.02.99.05,1.39.22s.72.39.97.67.44.57.56.88.18.58.18.82v.32s0,.04-.02.18-.05.32-.11.52-.16.42-.3.65-.33.45-.57.65-.55.36-.92.48-.82.16-1.32.14h-3.11v2.1ZM102.04,205.32h3.47c.57,0,1-.12,1.29-.35s.48-.47.57-.73.13-.46.13-.62v-.28c0-.19-.04-.42-.13-.68s-.28-.5-.57-.73-.72-.33-1.27-.33h-1.88c-.24,0-.49.07-.74.22s-.46.34-.62.56-.24.45-.24.66v2.26Z"/>
      <path class="cls-9" d="M111.46,208.34h-.91c0,.05,0,0,0-.16v-5.33c0-.35.13-.69.4-1.02s.59-.6.98-.81.75-.31,1.08-.31h1.71c.53-.02.99.05,1.39.22s.72.39.97.67.44.57.56.88.18.58.18.82v.32s0,.04-.02.18-.05.32-.11.52-.16.42-.3.65-.33.45-.57.65-.55.36-.92.48-.82.16-1.32.14h-3.11v2.1ZM111.46,205.32h3.47c.57,0,1-.12,1.29-.35s.48-.47.57-.73.13-.46.13-.62v-.28c0-.19-.04-.42-.13-.68s-.28-.5-.57-.73-.72-.33-1.27-.33h-1.88c-.24,0-.49.07-.74.22s-.46.34-.62.56-.24.45-.24.66v2.26Z"/>
    </g>
    <g>
      <path class="cls-13" d="M40.5,27.55c.14.02.36.08.68.19.31.11.68.32,1.09.63.41.31.77.78,1.08,1.4.31.62.46,1.41.46,2.36s-.18,1.67-.54,2.27c-.36.6-.79,1.06-1.29,1.35-.5.29-.97.47-1.42.53h-7.62v-8.73h7.57ZM40.44,35.1c.23-.04.52-.14.84-.3.32-.16.63-.46.92-.9.29-.43.43-1.03.43-1.78,0-.88-.15-1.57-.45-2.07-.3-.5-.62-.84-.95-1.01-.33-.18-.61-.28-.84-.32h-6.28v6.38h6.33Z"/>
      <rect class="cls-13" x="44.63" y="27.56" width="1.19" height="8.7"/>
      <path class="cls-13" d="M52.3,29.93c.77-.01,1.46-.13,2.06-.34.61-.22,1.08-.43,1.4-.65.33-.22.55-.38.66-.49l.96-.91v8.75h-1.14v-6.32c-.5.3-1.08.55-1.75.76-.66.21-1.39.32-2.18.33-.83,0-1.61-.1-2.33-.32-.72-.22-1.36-.49-1.92-.82v6.36h-1.14v-8.75l1,.87c.14.13.39.3.75.53.36.23.86.45,1.51.68.64.23,1.35.33,2.11.32"/>
      <rect class="cls-12" x="59.08" y="31.25" width="2.29" height="1.16"/>
      <g>
        <path class="cls-22" d="M68.8,32.74h-4.88v3.5h-1.2v-8.73h7.99c.47,0,.89.12,1.27.35.23.15.42.29.57.44s.28.34.39.57c.1.2.17.4.21.6.04.2.06.36.06.5,0,.29,0,.5,0,.62,0,.12-.02.27-.06.44s-.09.33-.17.48c-.11.2-.23.36-.35.48-.12.13-.25.25-.41.36-.2.15-.44.25-.72.3-.28.05-.54.08-.8.08h-1.89ZM63.93,31.55h6.83c.22,0,.41-.03.58-.09.17-.06.29-.14.37-.24.1-.12.17-.25.21-.39.04-.14.06-.25.06-.32,0-.07,0-.25,0-.54,0-.39-.12-.7-.36-.93-.24-.24-.54-.36-.9-.36h-6.81v2.86Z"/>
        <path class="cls-22" d="M81.05,31.76c.24.42.36.94.36,1.56,0-.1,0-.08,0,.06h0v.69c0,.58-.12,1.03-.33,1.34-.22.31-.48.53-.79.63s-.63.17-.97.17c-.34,0-.6.02-.76.02h-3.15c-.49,0-.91-.18-1.26-.54s-.52-.79-.52-1.3.17-.95.52-1.31c.35-.36.77-.55,1.26-.55h4.83c0-.07-.02-.14-.04-.2s-.04-.11-.06-.13c-.09-.18-.22-.35-.39-.5-.17-.15-.36-.27-.56-.36-.21-.08-.42-.12-.65-.12h-4.64v-.94c0-.08,0-.11,0-.08h4.64c.54,0,1.03.14,1.5.42.22.13.41.29.57.47.16.18.31.4.46.65ZM80.35,34.21c0-.09,0-.29-.01-.62h-5.06c-.18,0-.34.08-.47.24-.13.16-.19.36-.19.58s.06.42.19.58c.13.16.29.24.47.24h3.28c.37,0,.67,0,.89-.02s.39-.07.52-.16c.14-.1.23-.22.29-.35.05-.14.08-.3.09-.49Z"/>
        <path class="cls-22" d="M88.37,32.89c.4.02.74.15,1.04.39.3.24.45.7.45,1.38,0,.36-.09.67-.27.91s-.41.42-.68.54-.54.18-.8.18h-6v-.98s5.97,0,5.97,0c.21,0,.4-.05.57-.14.17-.09.25-.31.25-.65,0-.21-.06-.37-.18-.46s-.26-.15-.41-.17c-.16-.02-.25-.02-.29-.02h-4.35c-.23,0-.48-.07-.74-.19-.26-.12-.48-.32-.67-.6-.19-.28-.28-.63-.28-1.07,0-.38.1-.7.3-.95.2-.25.43-.44.71-.55.27-.12.54-.18.79-.2h5.42v.98h-5.36c-.22,0-.43.05-.62.14-.19.1-.29.33-.29.71,0,.3.09.5.26.59.18.09.35.14.52.15h4.66Z"/>
        <path class="cls-22" d="M91.84,27.49v1.04h-1.04v-1.04h1.04ZM91.84,29.92v6.35h-1.04v-6.35h1.04Z"/>
        <path class="cls-22" d="M93.34,30.23l3.49,5.23h.12l3.49-5.23h1.18l-3.49,5.23c-.29.43-.47.71-.55.82h-1.37c-.16-.23-.34-.5-.55-.82l-3.49-5.23h1.17Z"/>
        <path class="cls-22" d="M105.84,30.38c.53-.02.99.02,1.38.15.39.12.71.29.96.51.25.22.44.45.58.69.14.25.24.48.31.69.06.21.1.4.12.55.02.16.02.22.02.2v.35c0,.25-.06.54-.19.87-.12.33-.32.64-.58.93-.26.3-.6.54-1.01.72-.41.18-.89.26-1.44.23h-1.1c-.55.03-1.03-.05-1.44-.23-.42-.18-.75-.42-1.01-.72-.26-.3-.46-.61-.58-.93-.12-.32-.19-.61-.19-.87v-.35s0-.04.02-.2.06-.34.12-.55c.06-.21.17-.44.31-.69.14-.25.34-.48.59-.69.25-.22.57-.39.96-.51.39-.12.85-.17,1.38-.15h.8ZM106.22,35.29c.73,0,1.25-.18,1.54-.53.3-.35.47-.73.51-1.14v-.17s.01-.28.01-.28v-.18c-.06-.38-.23-.75-.52-1.11-.29-.36-.81-.54-1.54-.54h-1.56c-.74,0-1.25.18-1.54.54-.29.36-.46.73-.5,1.11l-.02.18v.26l.02.18c.04.4.21.78.51,1.14.3.35.81.53,1.54.53h1.56Z"/>
        <path class="cls-22" d="M116.32,32.89c.4.02.74.15,1.04.39.3.24.45.7.45,1.38,0,.36-.09.67-.27.91s-.41.42-.68.54c-.27.12-.54.18-.8.18h-6v-.98s5.97,0,5.97,0c.21,0,.4-.05.57-.14.17-.09.25-.31.25-.65,0-.21-.06-.37-.18-.46-.12-.09-.26-.15-.41-.17-.16-.02-.25-.02-.29-.02h-4.35c-.23,0-.48-.07-.74-.19-.26-.12-.48-.32-.67-.6-.19-.28-.28-.63-.28-1.07,0-.38.1-.7.3-.95.2-.25.43-.44.71-.55.27-.12.54-.18.79-.2h5.42v.98h-5.36c-.22,0-.43.05-.62.14-.19.1-.29.33-.29.71,0,.3.09.5.26.59.18.09.35.14.52.15h4.66Z"/>
      </g>
    </g>
    <g>
      <path class="cls-7" d="M14.84.27L.55,4.78l14.33,11.12,14.04-10.84L14.84.27ZM20.37,10.39l-3.12,2.39-2.66-1.71,2.04-1.67c.37-.33.47-.56.47-.56v-3.18c.03-.54-.73-.85-.73-.85-.94-.45-2.38-.43-2.38-.43-1.33-.02-3.8.92-3.8.92v2.95l-3.69-2.37c2.35-.95,3.42-1.2,3.42-1.2,2.33-.65,3.96-.69,3.96-.69,2.61-.14,4.68.58,4.68.58,2.08.57,2.94,1.3,2.94,1.3,1.72,1.29,1.33,2.61,1.33,2.61-.27.24-2.47,1.91-2.47,1.91"/>
      <polygon class="cls-13" points=".02 8.24 .02 4.69 14.92 16.03 29.45 4.96 29.45 8.22 14.87 21.46 .02 8.24"/>
      <path class="cls-13" d="M6.42,5.91l-2.39-1.48s3.15-1.23,5.77-1.73,3.57-.53,5.07-.47c1.49.06,4.37.63,6.26,1.56,1.89.93,2.29,1.89,2.4,2.42.12.53.09,1.75-.34,2.13l-.42.38s.31-.69-.13-1.56c-.44-.87-1.39-1.7-3.12-2.29-1.73-.59-3.27-.92-5.14-.89-1.86.03-3.56.44-4.87.82-1.3.38-3.09,1.11-3.09,1.11"/>
      <path class="cls-13" d="M10.2,5.37v2.94l4.29,2.83s.94-.73,1.6-1.28c.66-.54.94-.87,1.01-1.03v-3.24s.08.51-1.06,1.15c-1.13.64-1.49.85-1.49.85l-4.35-2.21Z"/>
      <path class="cls-13" d="M14.88,16.23L0,4.68,14.85,0h.04s14.57,4.97,14.57,4.97l-14.57,11.26ZM.55,4.78l14.34,11.12,14.04-10.84L14.84.27.55,4.78Z"/>
      <path class="cls-13" d="M17.27,13.09l-.07-.05L3.75,4.39l.24-.09s3.19-1.24,5.8-1.74c1.92-.37,3-.49,4.14-.49.27,0,.57,0,.95.02,1.62.06,4.5.68,6.31,1.57,1.43.7,2.26,1.54,2.47,2.51.12.56.1,1.82-.38,2.25l-.43.38-5.59,4.29ZM4.32,4.45l12.94,8.32,5.44-4.17.42-.38c.38-.34.41-1.51.3-2-.2-.89-.98-1.67-2.33-2.33-1.78-.87-4.61-1.48-6.2-1.54-.38-.01-.68-.02-.95-.02-.97,0-1.94.08-4.1.49-2.17.41-4.73,1.34-5.51,1.63"/>
      <path class="cls-13" d="M14.47,7.64l-4.29-2.19.04-.07-.03-.08c.1-.04,2.43-.93,3.82-.93h.03c1.46.01,2.38.36,2.77.69.36.3.41.63.16,1.02-.18.28-.71.67-1.43,1.05-.71.38-1.02.5-1.03.51h-.03ZM10.32,5.39l4.15,2.12c.09-.04.4-.18.99-.49.7-.37,1.21-.74,1.38-1,.21-.33.18-.6-.13-.85-.37-.31-1.27-.65-2.69-.66h-.03c-1.21,0-3.21.72-3.68.89"/>
      <path class="cls-13" d="M40.5,6.74c.14.02.36.08.68.19.31.11.68.32,1.09.63.41.31.77.78,1.08,1.4.31.62.46,1.41.46,2.36s-.18,1.67-.54,2.27c-.36.61-.79,1.06-1.29,1.35-.5.29-.97.47-1.42.53h-7.62V6.73h7.57ZM40.44,14.29c.23-.04.52-.14.84-.3.32-.16.63-.46.92-.9.29-.43.43-1.03.43-1.78,0-.88-.15-1.57-.45-2.07-.3-.5-.62-.84-.95-1.01-.33-.18-.61-.28-.84-.32h-6.28v6.38h6.33Z"/>
      <rect class="cls-13" x="44.63" y="6.75" width="1.19" height="8.7"/>
      <path class="cls-13" d="M52.3,9.12c.77-.01,1.46-.13,2.06-.34.61-.22,1.08-.43,1.4-.65.33-.22.55-.38.66-.49l.96-.91v8.75h-1.14v-6.32c-.5.3-1.08.55-1.75.76-.66.21-1.39.32-2.18.33-.83,0-1.61-.1-2.33-.32-.72-.22-1.36-.49-1.92-.82v6.36h-1.14V6.73l1,.86c.14.13.39.3.75.53.36.23.86.45,1.51.68.64.23,1.35.33,2.11.32"/>
      <rect class="cls-12" x="59.08" y="10.44" width="2.29" height="1.16"/>
      <g>
        <path class="cls-22" d="M68.8,11.93h-4.88v3.5h-1.2V6.7h7.99c.47,0,.89.12,1.27.35.23.15.42.29.57.44.15.15.28.34.39.57.1.2.17.4.21.6.04.2.06.36.06.5,0,.29,0,.5,0,.62,0,.12-.02.27-.06.44s-.09.33-.17.48c-.11.2-.23.36-.35.48-.12.13-.25.25-.41.36-.2.15-.44.25-.72.3-.28.05-.54.08-.8.08h-1.89ZM63.93,10.74h6.83c.22,0,.41-.03.58-.09.17-.06.29-.14.37-.24.1-.12.17-.25.21-.39.04-.14.06-.25.06-.32,0-.07,0-.25,0-.54,0-.39-.12-.7-.36-.93-.24-.24-.54-.36-.9-.36h-6.81v2.86Z"/>
        <path class="cls-22" d="M81.05,10.95c.24.42.36.94.36,1.56,0-.1,0-.08,0,.06h0v.69c0,.58-.12,1.03-.33,1.34-.22.31-.48.53-.79.63s-.63.17-.97.17c-.34,0-.6.02-.76.02h-3.15c-.49,0-.91-.18-1.26-.54s-.52-.79-.52-1.3.17-.95.52-1.31c.35-.36.77-.55,1.26-.55h4.83c0-.07-.02-.14-.04-.2s-.04-.11-.06-.13c-.09-.18-.22-.35-.39-.5-.17-.15-.36-.27-.56-.36-.21-.08-.42-.12-.65-.12h-4.64v-.94c0-.08,0-.11,0-.08h4.64c.54,0,1.03.14,1.5.42.22.13.41.29.57.47.16.18.31.4.46.65ZM80.35,13.4c0-.09,0-.29-.01-.62h-5.06c-.18,0-.34.08-.47.24-.13.16-.19.36-.19.58s.06.42.19.58c.13.16.29.24.47.24h3.28c.37,0,.67,0,.89-.02s.39-.07.52-.16c.14-.1.23-.22.29-.35.05-.14.08-.3.09-.49Z"/>
        <path class="cls-22" d="M88.37,12.08c.4.02.74.15,1.04.39.3.24.45.7.45,1.38,0,.36-.09.67-.27.91s-.41.42-.68.54-.54.18-.8.18h-6v-.98s5.97,0,5.97,0c.21,0,.4-.05.57-.14.17-.09.25-.31.25-.65,0-.21-.06-.37-.18-.46s-.26-.15-.41-.17c-.16-.02-.25-.02-.29-.02h-4.35c-.23,0-.48-.07-.74-.19-.26-.12-.48-.32-.67-.6-.19-.28-.28-.63-.28-1.07,0-.38.1-.7.3-.95.2-.25.43-.44.71-.55.27-.12.54-.18.79-.2h5.42v.98h-5.36c-.22,0-.43.05-.62.14-.19.1-.29.33-.29.71,0,.3.09.5.26.59.18.09.35.14.52.15h4.66Z"/>
        <path class="cls-22" d="M91.84,6.69v1.04h-1.04v-1.04h1.04ZM91.84,9.11v6.35h-1.04v-6.35h1.04Z"/>
        <path class="cls-22" d="M93.34,9.42l3.49,5.23h.12l3.49-5.23h1.18l-3.49,5.23c-.29.43-.47.71-.55.82h-1.37c-.16-.23-.34-.5-.55-.82l-3.49-5.23h1.17Z"/>
        <path class="cls-22" d="M105.84,9.57c.53-.02.99.02,1.38.15.39.12.71.29.96.51.25.22.44.45.58.69.14.25.24.48.31.69.06.21.1.4.12.55.02.16.02.22.02.2v.35c0,.25-.06.54-.19.87-.12.33-.32.64-.58.93-.26.3-.6.54-1.01.72-.41.18-.89.26-1.44.23h-1.1c-.55.03-1.03-.05-1.44-.23-.42-.18-.75-.42-1.01-.72-.26-.3-.46-.61-.58-.93-.12-.32-.19-.61-.19-.87v-.35s0-.04.02-.2.06-.34.12-.55c.06-.21.17-.44.31-.69.14-.25.34-.48.59-.69.25-.22.57-.39.96-.51.39-.12.85-.17,1.38-.15h.8ZM106.22,14.48c.73,0,1.25-.18,1.54-.53.3-.35.47-.73.51-1.14v-.17s.01-.28.01-.28v-.18c-.06-.38-.23-.75-.52-1.11-.29-.36-.81-.54-1.54-.54h-1.56c-.74,0-1.25.18-1.54.54-.29.36-.46.73-.5,1.11l-.02.18v.26l.02.18c.04.4.21.78.51,1.14.3.35.81.53,1.54.53h1.56Z"/>
        <path class="cls-22" d="M116.32,12.08c.4.02.74.15,1.04.39.3.24.45.7.45,1.38,0,.36-.09.67-.27.91s-.41.42-.68.54c-.27.12-.54.18-.8.18h-6v-.98s5.97,0,5.97,0c.21,0,.4-.05.57-.14.17-.09.25-.31.25-.65,0-.21-.06-.37-.18-.46-.12-.09-.26-.15-.41-.17-.16-.02-.25-.02-.29-.02h-4.35c-.23,0-.48-.07-.74-.19-.26-.12-.48-.32-.67-.6-.19-.28-.28-.63-.28-1.07,0-.38.1-.7.3-.95.2-.25.43-.44.71-.55.27-.12.54-.18.79-.2h5.42v.98h-5.36c-.22,0-.43.05-.62.14-.19.1-.29.33-.29.71,0,.3.09.5.26.59.18.09.35.14.52.15h4.66Z"/>
      </g>
      <g>
        <path class="cls-4" d="M52.12,21.38h-.28s0,0,0-.05v-1.65c0-.11.04-.21.12-.32.08-.1.18-.19.3-.25.12-.07.23-.1.33-.1h.53c.16,0,.31.02.43.07.12.05.22.12.3.21.08.09.14.18.17.27.04.09.06.18.06.25v.1s0,.01,0,.06c0,.04-.02.1-.04.16-.02.06-.05.13-.09.2-.04.07-.1.14-.17.2-.08.06-.17.11-.29.15-.12.04-.25.05-.41.04h-.96v.65ZM52.12,20.44h1.08c.17,0,.31-.04.4-.11.09-.07.15-.15.17-.22.03-.08.04-.14.04-.19v-.09c0-.06-.01-.13-.04-.21-.03-.08-.09-.16-.18-.23s-.22-.1-.39-.1h-.58c-.08,0-.15.02-.23.07-.08.05-.14.1-.19.17s-.07.14-.07.2v.7Z"/>
        <path class="cls-4" d="M56.53,19.25h-.99s-.11,0-.17,0c-.06,0-.12,0-.17.02-.05.02-.1.04-.14.08-.04.04-.07.08-.08.14s-.03.1-.03.14c0,.04,0,.11,0,.21v.87s0,.02-.02.02h-.25s-.02,0-.02-.02v-.89s0-.1,0-.19c0-.09.02-.18.05-.27.04-.09.1-.17.19-.24.06-.04.12-.08.18-.1.07-.02.13-.04.19-.05s.12-.01.17-.01h1.1v.29Z"/>
        <path class="cls-4" d="M58.33,18.99c.16,0,.29,0,.41.04.12.04.21.09.28.15.07.06.13.13.17.21.04.07.07.14.09.2s.03.12.04.16,0,.07,0,.06v.1c0,.08-.02.16-.06.26-.04.1-.09.19-.17.28-.08.09-.18.16-.3.21s-.26.08-.43.07h-.33c-.16,0-.31-.01-.43-.07-.12-.05-.22-.12-.3-.21-.08-.09-.13-.18-.17-.28-.04-.1-.05-.18-.05-.26v-.1s0-.01,0-.06.02-.1.04-.16.05-.13.09-.2c.04-.07.1-.14.17-.21.07-.06.17-.12.28-.15.11-.04.25-.05.41-.04h.24ZM58.45,20.44c.22,0,.37-.05.46-.16s.14-.22.15-.34v-.05s0-.08,0-.08v-.05c-.02-.11-.07-.22-.15-.33-.09-.11-.24-.16-.46-.16h-.46c-.22,0-.37.05-.46.16-.09.11-.14.22-.15.33v.05s0,.08,0,.08v.05c.02.12.07.23.16.34.09.1.24.16.46.16h.46Z"/>
        <path class="cls-4" d="M61.9,18.35h.28s0,0,0,.05v1.68c0,.12-.01.22-.04.3-.02.08-.07.15-.12.2-.06.05-.13.09-.22.11-.09.02-.21.04-.35.04h-.57c-.16,0-.31-.01-.43-.07-.12-.05-.23-.12-.3-.21-.08-.09-.14-.18-.17-.27-.04-.1-.06-.18-.06-.26v-.1s0-.01,0-.06c0-.05.02-.1.04-.16.02-.06.05-.13.09-.2s.1-.14.17-.2c.08-.06.17-.11.29-.15.12-.04.25-.05.41-.04h.97v-.66ZM61.9,19.29h-1.08c-.18,0-.31.04-.4.11s-.15.15-.18.23c-.03.08-.04.14-.04.19v.08c0,.06.01.13.04.21.03.08.09.16.18.23.09.07.22.1.4.1h.75c.09,0,.15-.02.2-.06.05-.04.08-.09.1-.15.02-.07.03-.15.03-.24v-.71Z"/>
        <path class="cls-4" d="M64.38,20.4c.08-.03.14-.07.19-.12s.09-.12.12-.2c.03-.08.04-.16.04-.24v-.9h.29v.9c0,.16-.04.31-.12.45-.08.14-.19.25-.32.33-.13.08-.28.12-.44.12h-.56c-.16,0-.3-.04-.44-.12-.13-.08-.24-.19-.32-.33-.08-.14-.12-.29-.12-.45v-.9h.29s0,0,0,.02v.87c0,.08.01.16.04.24.03.08.07.15.12.2s.11.09.19.12c.08.03.15.04.23.04h.56c.08,0,.15-.01.23-.04Z"/>
        <path class="cls-4" d="M66.17,19.32c-.08.03-.14.07-.19.12s-.09.12-.12.19c-.03.08-.04.16-.04.23s.01.16.04.23c.03.08.07.14.12.19s.12.09.19.12.16.04.23.04h1.43v.29h-1.43c-.16,0-.3-.04-.44-.12-.13-.08-.24-.18-.32-.32-.08-.13-.12-.28-.12-.44s.04-.3.12-.44c.08-.13.18-.24.32-.32.13-.08.28-.12.44-.12h1.43v.29h-1.43c-.08,0-.16.01-.23.04Z"/>
        <path class="cls-4" d="M69.86,20.44v.29h-.54c-.15,0-.3-.04-.43-.11-.13-.08-.24-.18-.32-.31-.08-.13-.12-.27-.12-.43v-1.55h.29s0,0,0,.02v.64h.67s0,0,0,.02v.26s0,0-.03,0h-.65v.62c0,.13.03.23.1.32s.13.15.21.19c.04.02.09.04.16.05.07,0,.13,0,.18,0h.48Z"/>
        <path class="cls-4" d="M71.72,18.99c.16,0,.29,0,.41.04s.21.09.28.15c.07.06.13.13.17.21.04.07.07.14.09.2.02.06.03.12.04.16s0,.07,0,.06v.1c0,.08-.02.16-.06.26-.04.1-.09.19-.17.28-.08.09-.18.16-.3.21s-.26.08-.43.07h-.33c-.16,0-.3-.01-.43-.07-.12-.05-.22-.12-.3-.21-.08-.09-.13-.18-.17-.28-.04-.1-.06-.18-.06-.26v-.1s0-.01,0-.06.02-.1.04-.16.05-.13.09-.2c.04-.07.1-.14.17-.21.08-.06.17-.12.28-.15.12-.04.25-.05.41-.04h.24ZM71.83,20.44c.22,0,.37-.05.46-.16.09-.1.14-.22.15-.34v-.05s0-.08,0-.08v-.05c-.02-.11-.07-.22-.15-.33-.09-.11-.24-.16-.46-.16h-.46c-.22,0-.37.05-.46.16-.09.11-.14.22-.15.33v.05s0,.08,0,.08v.05c.02.12.07.23.16.34.09.1.24.16.46.16h.46Z"/>
        <path class="cls-4" d="M75.14,19.73c.12,0,.22.05.31.12.09.07.13.21.13.41,0,.11-.03.2-.08.27-.05.07-.12.12-.2.16-.08.03-.16.05-.24.05h-1.78v-.29s1.77,0,1.77,0c.06,0,.12-.01.17-.04.05-.03.08-.09.08-.19,0-.06-.02-.11-.05-.14-.04-.03-.08-.04-.12-.05s-.07,0-.08,0h-1.29c-.07,0-.14-.02-.22-.06-.08-.04-.14-.09-.2-.18-.06-.08-.08-.19-.08-.32,0-.11.03-.21.09-.28.06-.07.13-.13.21-.16.08-.04.16-.05.23-.06h1.61v.29h-1.59c-.07,0-.13.01-.18.04-.06.03-.08.1-.08.21,0,.09.03.15.08.18.05.03.1.04.15.04h1.38Z"/>
        <path class="cls-4" d="M79.24,18.97v1.52c-.01.17-.05.33-.13.45-.09.16-.2.27-.32.34-.12.07-.27.11-.45.11h-1.24s-.02,0-.02-.02v-.25s0-.02.02-.02h1.24c.06,0,.12,0,.17-.01.05,0,.09-.03.13-.05.05-.04.1-.07.13-.1s.06-.06.08-.11l.04-.09h-1.13c-.13,0-.25-.02-.36-.08-.11-.05-.19-.11-.26-.18-.07-.07-.12-.15-.18-.26-.05-.11-.08-.22-.08-.33v-.92s0-.02,0-.02h.3s0,0,0,.02v.94c0,.06.01.12.04.18s.04.11.07.13c.01.01.04.04.07.07.03.03.08.07.14.09.06.03.13.05.22.06h1.24s0-1.47,0-1.47c0-.02,0-.02.02-.02h.25s.02,0,.02.02Z"/>
        <path class="cls-4" d="M82.45,19.73c.12,0,.22.05.31.12.09.07.13.21.13.41,0,.11-.03.2-.08.27-.05.07-.12.12-.2.16-.08.03-.16.05-.24.05h-1.78v-.29s1.77,0,1.77,0c.06,0,.12-.01.17-.04.05-.03.08-.09.08-.19,0-.06-.02-.11-.05-.14-.04-.03-.08-.04-.12-.05s-.07,0-.08,0h-1.29c-.07,0-.14-.02-.22-.06-.08-.04-.14-.09-.2-.18-.06-.08-.08-.19-.08-.32,0-.11.03-.21.09-.28.06-.07.13-.13.21-.16.08-.04.16-.05.23-.06h1.61v.29h-1.59c-.07,0-.13.01-.18.04-.06.03-.08.1-.08.21,0,.09.03.15.08.18.05.03.1.04.15.04h1.38Z"/>
        <path class="cls-4" d="M85.44,19.09c.08.07.14.14.17.23.03.08.04.16.04.22,0,.31-.17.48-.52.49h-1.38s0,.07,0,.07c0,.08,0,.14.02.19s.04.08.07.1c.03.02.08.04.14.04.06,0,.14.01.24.01h1.29s.06.02.06.05v.17s-.02.06-.06.06h-1.33c-.19,0-.33-.02-.44-.06-.11-.04-.18-.11-.23-.2s-.07-.21-.07-.37v-.44c0-.1.04-.21.12-.31.08-.1.18-.19.3-.26.12-.07.25-.1.38-.1h.84c.15,0,.27.03.36.1ZM85.24,19.72s.05-.03.08-.06c.02-.02.03-.04.04-.07s.01-.06.01-.11c0-.02,0-.05-.02-.08-.01-.03-.03-.06-.07-.09-.03-.03-.08-.04-.13-.04h-.92c-.07,0-.14.02-.21.06s-.14.1-.19.17-.08.15-.08.23h1.37c.06,0,.1,0,.12-.01Z"/>
        <path class="cls-4" d="M88.16,19.25h-.99s-.11,0-.17,0c-.06,0-.12,0-.17.02-.05.02-.1.04-.14.08-.04.04-.07.08-.08.14-.02.05-.03.1-.03.14,0,.04,0,.11,0,.21v.87s0,.02-.02.02h-.25s-.02,0-.02-.02v-.89s0-.1,0-.19c0-.09.02-.18.05-.27.03-.09.1-.17.19-.24.06-.04.12-.08.18-.1.07-.02.13-.04.19-.05.06,0,.12-.01.17-.01h1.1v.29Z"/>
        <path class="cls-4" d="M88.86,18.95l1.03,1.55h.03l1.03-1.55h.35l-1.04,1.55c-.08.13-.14.21-.16.24h-.41c-.05-.07-.1-.15-.16-.24l-1.03-1.55h.35Z"/>
        <path class="cls-4" d="M92.01,18.14v.31h-.31v-.31h.31ZM92.01,18.85v1.88h-.31v-1.88h.31Z"/>
        <path class="cls-4" d="M93.25,19.32c-.08.03-.14.07-.19.12s-.09.12-.12.19c-.03.08-.04.16-.04.23s.01.16.04.23c.03.08.07.14.12.19s.12.09.19.12.16.04.23.04h1.43v.29h-1.43c-.16,0-.3-.04-.44-.12-.13-.08-.24-.18-.32-.32-.08-.13-.12-.28-.12-.44s.04-.3.12-.44c.08-.13.18-.24.32-.32.13-.08.28-.12.44-.12h1.43v.29h-1.43c-.08,0-.16.01-.23.04Z"/>
        <path class="cls-4" d="M95.83,18.14v.31h-.31v-.31h.31ZM95.83,18.85v1.88h-.31v-1.88h.31Z"/>
        <path class="cls-4" d="M97.71,18.99c.16,0,.29,0,.41.04s.21.09.28.15c.07.06.13.13.17.21.04.07.07.14.09.2.02.06.03.12.04.16s0,.07,0,.06v.1c0,.08-.02.16-.05.26-.04.1-.09.19-.17.28-.08.09-.18.16-.3.21s-.26.08-.43.07h-.33c-.16,0-.3-.01-.43-.07-.12-.05-.22-.12-.3-.21-.08-.09-.13-.18-.17-.28-.04-.1-.06-.18-.06-.26v-.1s0-.01,0-.06.02-.1.04-.16.05-.13.09-.2c.04-.07.1-.14.17-.21.08-.06.17-.12.28-.15.12-.04.25-.05.41-.04h.24ZM97.82,20.44c.22,0,.37-.05.46-.16.09-.1.14-.22.15-.34v-.05s0-.08,0-.08v-.05c-.02-.11-.07-.22-.15-.33-.09-.11-.24-.16-.46-.16h-.46c-.22,0-.37.05-.46.16-.09.11-.14.22-.15.33v.05s0,.08,0,.08v.05c.02.12.07.23.16.34.09.1.24.16.46.16h.46Z"/>
        <path class="cls-4" d="M101.13,19.73c.12,0,.22.05.31.12.09.07.13.21.13.41,0,.11-.03.2-.08.27-.05.07-.12.12-.2.16-.08.03-.16.05-.24.05h-1.78v-.29s1.77,0,1.77,0c.06,0,.12-.01.17-.04.05-.03.08-.09.08-.19,0-.06-.02-.11-.05-.14-.04-.03-.08-.04-.12-.05s-.07,0-.08,0h-1.29c-.07,0-.14-.02-.22-.06-.08-.04-.14-.09-.2-.18-.06-.08-.08-.19-.08-.32,0-.11.03-.21.09-.28.06-.07.13-.13.21-.16.08-.04.16-.05.23-.06h1.61v.29h-1.59c-.07,0-.13.01-.18.04-.06.03-.08.1-.08.21,0,.09.03.15.08.18.05.03.1.04.15.04h1.38Z"/>
      </g>
      <rect class="cls-1" x="113.6" y="18.11" width="4.16" height="1.32"/>
      <rect class="cls-24" x="113.6" y="19.43" width="4.16" height=".66"/>
      <rect class="cls-2" x="113.6" y="20.09" width="4.16" height=".66"/>
      <rect class="cls-21" x="108.52" y="18.11" width="1.39" height="2.63"/>
      <rect class="cls-21" x="111.29" y="18.11" width="1.39" height="2.63"/>
      <rect class="cls-7" x="109.9" y="18.11" width="1.39" height="2.63"/>
      <polyline class="cls-14" points="107.58 20.75 103.42 20.75 103.42 19.43 107.58 19.43"/>
      <rect class="cls-19" x="103.42" y="18.11" width="1.39" height="1.32"/>
      <rect class="cls-7" x="104.81" y="18.11" width="2.77" height="1.32"/>
      <polygon class="cls-7" points="103.78 18.67 104.04 18.67 104.12 18.44 104.19 18.67 104.44 18.67 104.24 18.81 104.32 19.04 104.11 18.9 103.91 19.04 103.99 18.81 103.78 18.67"/>
    </g>
    <g>
      <rect class="cls-11" x="31.97" y="73.04" width="38.17" height="28.77"/>
      <path class="cls-7" d="M69.17,74.79v25.26c0,.5-.4.9-.9.9h-34.43c-.5,0-.9-.4-.9-.9v-25.26c0-.5.4-.9.9-.9h34.43c.5,0,.9.4.9.9"/>
      <polygon class="cls-3" points="54.29 89.6 34.05 89.6 34.05 75.27 34.59 75.27 34.59 89.06 54.29 89.06 54.29 89.6"/>
      <polygon class="cls-20" points="36.31 87.86 35.89 87.51 39.73 82.75 42.06 86.3 44.22 83.56 46.52 84.51 49.91 78.27 50.39 78.53 46.77 85.2 44.39 84.23 42.01 87.24 39.68 83.68 36.31 87.86"/>
      <path class="cls-20" d="M50.94,76.94c-.12.82-.14,1.91.03,2.68l-.92-1.04-1.37-.21c.74-.28,1.64-.89,2.26-1.44"/>
      <rect class="cls-3" x="42.66" y="75.16" width="3.22" height=".73"/>
      <rect class="cls-3" x="38.39" y="75.16" width="3.54" height=".73"/>
      <rect class="cls-3" x="36.25" y="75.16" width="1.41" height=".73"/>
      <rect class="cls-3" x="41.04" y="76.8" width="4.84" height=".73"/>
      <rect class="cls-3" x="36.25" y="76.8" width="4.06" height=".73"/>
      <rect class="cls-3" x="43.18" y="78.44" width="2.69" height=".73"/>
      <rect class="cls-3" x="38.14" y="78.44" width="4.32" height=".73"/>
      <rect class="cls-3" x="36.25" y="78.44" width="1.16" height=".73"/>
      <rect class="cls-10" x="51.51" y="98.33" width="15.77" height=".45"/>
      <polygon class="cls-10" points="66.08 87.68 66.34 87.95 61.04 90.66 57.86 87.34 50.68 91.05 50.68 91.66 57.71 88.02 60.88 91.32 66.73 88.36 66.99 88.64 67.91 87.43 66.08 87.68"/>
      <polygon class="cls-10" points="51.94 97.61 53.94 97.61 53.94 90.62 51.94 91.7 51.94 97.61"/>
      <polygon class="cls-10" points="66.22 89.46 64.67 90.23 64.67 97.61 66.43 97.61 66.41 89.75 66.22 89.46"/>
      <polygon class="cls-10" points="61.54 91.75 61.54 97.61 63.26 97.61 63.26 90.83 61.54 91.75 61.54 91.75"/>
      <polygon class="cls-10" points="55.11 90.12 55.11 97.61 57 97.61 57 89.16 55.11 90.12"/>
      <polygon class="cls-10" points="58.33 89.81 58.33 97.61 60.09 97.61 60.09 91.8 58.33 89.81"/>
      <path class="cls-15" d="M66.38,80.51c0-2.51-2.03-4.54-4.54-4.54v4.54h4.54Z"/>
      <path class="cls-15" d="M55.54,81.3c0,3.03,2.47,5.5,5.5,5.5s5.5-2.47,5.5-5.5v-.16h-5.34v-5.34h-.16c-3.03,0-5.5,2.47-5.5,5.5M55.86,81.3c0-2.78,2.25-5.09,5.02-5.18v5.34h5.34c-.09,2.77-2.4,5.02-5.18,5.02s-5.18-2.32-5.18-5.18"/>
      <path class="cls-9" d="M43.62,96.85h-8.07c-.33,0-.6-.14-.6-.31v-1.74c0-.17.27-.31.6-.31h8.07c.33,0,.6.14.6.31v1.74c0,.17-.27.31-.6.31"/>
      <path class="cls-9" d="M48.91,96.85h-3c-.33,0-.6-.14-.6-.31v-1.74c0-.17.27-.31.6-.31h3c.33,0,.6.14.6.31v1.74c0,.17-.27.31-.6.31"/>
      <rect class="cls-11" x="81.62" y="96.73" width="36.19" height="28.77"/>
      <path class="cls-7" d="M116.89,98.48v25.26c0,.5-.4.9-.9.9h-32.54c-.5,0-.9-.4-.9-.9v-25.26c0-.5.4-.9.9-.9h32.54c.5,0,.9.4.9.9"/>
      <rect class="cls-18" x="88.3" y="100.45" width="2.61" height="10.96"/>
      <rect class="cls-5" x="91.86" y="101.61" width="2.61" height="9.8"/>
      <rect class="cls-17" x="95.41" y="104.67" width="2.62" height="6.74"/>
      <rect class="cls-20" x="98.96" y="102.73" width="2.62" height="8.68"/>
      <rect class="cls-17" x="102.52" y="106.64" width="2.61" height="4.78"/>
      <rect class="cls-18" x="106.07" y="100.84" width="2.62" height="10.58"/>
      <rect class="cls-20" x="109.62" y="104.27" width="2.61" height="7.15"/>
      <polygon class="cls-3" points="115.34 111.65 85.69 111.65 85.69 98.37 86.34 98.37 86.34 111.17 115.34 111.17 115.34 111.65"/>
      <path class="cls-20" d="M96.25,122.42c-2.1,1.52-5.02,1.05-6.53-1.04-1.52-2.09-1.05-5.01,1.03-6.53.84-.61,1.71-.89,2.75-.89v4.67l3.78-2.75c.47.65.75,1.38.85,2.13.21,1.65-.45,3.36-1.89,4.41"/>
      <path class="cls-16" d="M97.28,115.89l-3.78,2.75v-4.67c1.55,0,2.87.67,3.78,1.92"/>
      <path class="cls-18" d="M109.96,120.89h-.01s-8.03,1.08-8.03,1.08v-8.1c2.69,0,4.98,1.17,6.56,3.33.81,1.14,1.31,2.4,1.48,3.69"/>
      <path class="cls-7" d="M98.51,98.89c0,13.99-11.34,25.34-25.34,25.34s-25.34-11.34-25.34-25.34,11.34-25.34,25.34-25.34,25.34,11.34,25.34,25.34"/>
      <path class="cls-23" d="M97.94,89.74l-.09.03-.93,6.73c-.05.38-.36.72-.77.85l-1.59.52c-.76.25-1.48-.28-1.34-.97l2.01-9.83.38-1.53c.19-.77,1.28-1.1,1.85-.55l1.07,1.02,7.41,6.77c.53.48.25,1.33-.51,1.57l-1.58.51c-.41.13-.85.04-1.12-.23l-4.79-4.87Z"/>
      <path class="cls-23" d="M70.73,124.16s14.97,2,24.41-12.8c0,0,.13-1.89,1.93-1.37,0,0,1.03.72.5,1.69,0,0-7.07,16.09-26.69,15.07,0,0-1.18-.04-1.26-1.36,0,0,.01-.93,1.11-1.23"/>
      <path class="cls-23" d="M56.73,79.79s-12,9.16-8.23,26.31c0,0,.86,1.84-.4,2.33,0,0-1.24.22-1.54-.84,0,0-6.36-16.38,8.23-29.52,0,0,.86-.8,1.85.07,0,0,.65.67.09,1.65"/>
      <path class="cls-23" d="M53.72,115.37s3.37,4.02,7.94,6.19c0,0,1.07.72.4,1.77,0,0-.6,1.03-1.81.41,0,0-4.68-2.28-8.48-6.75,0,0-.55-1.09.38-1.75,0,0,.77-.57,1.57.12"/>
      <path class="cls-23" d="M92.12,82.75s-3.38-4.01-7.95-6.17c0,0-1.07-.72-.4-1.77,0,0,.59-1.03,1.81-.42,0,0,4.69,2.27,8.49,6.73,0,0,.55,1.09-.38,1.75,0,0-.76.57-1.57-.12"/>
      <path class="cls-23" d="M98.03,101.23s.47-5.22-1.21-9.99c0,0-.24-1.27.97-1.53,0,0,1.15-.3,1.57.99,0,0,1.69,4.93,1.2,10.77,0,0-.38,1.16-1.51.96,0,0-.94-.14-1.02-1.2"/>
      <path class="cls-23" d="M74.96,74s-5.22-.44-9.99,1.26c0,0-1.26.25-1.54-.97,0,0-.31-1.15.98-1.57,0,0,4.92-1.71,10.76-1.25,0,0,1.16.38.97,1.5,0,0-.14.94-1.19,1.02"/>
      <path class="cls-18" d="M48.24,108.43l.09-.03.59-6.77c.03-.38.32-.73.73-.89l1.56-.6c.75-.29,1.49.2,1.39.9l-1.5,9.92-.3,1.55c-.15.78-1.22,1.16-1.82.65l-1.12-.96-7.75-6.38c-.55-.45-.32-1.31.43-1.6l1.55-.59c.4-.15.85-.09,1.13.17l5.03,4.62Z"/>
      <path class="cls-11" d="M80.87,82.65h-13.74c-.7,0-1.27.59-1.27,1.31v26c0,.72.57,1.31,1.27,1.31h18.94c.7,0,1.27-.59,1.27-1.31v-20.41l-6.47-6.9Z"/>
      <path class="cls-7" d="M80.38,83.92h-12.17c-.62,0-1.12.53-1.12,1.19v23.69c0,.66.5,1.19,1.12,1.19h16.77c.62,0,1.12-.53,1.12-1.19v-18.6l-5.73-6.28Z"/>
      <path class="cls-7" d="M78.67,90.78l-.06-5.8c0-.3-.24-.55-.54-.55h-9.87c-.3,0-.54.25-.54.55v23.94c0,.3.24.55.54.55h16.79c.3,0,.54-.25.54-.55v-17.05c0-.3-.24-.55-.54-.55h-5.79c-.29,0-.53-.24-.54-.55"/>
      <path class="cls-11" d="M67.63,110.24v2.48c0,.36-.3.66-.66.66h-1.66c-.36,0-.66-.3-.66-.66v-2.48c0-.36-.3-.66-.66-.66h-2.72c-.36,0-.66-.29-.66-.66v-1.91c0-.36.3-.66.66-.66h2.72c.36,0,.66-.29.66-.66v-2.52c0-.36.3-.66.66-.66h1.66c.36,0,.66.3.66.66v2.52c0,.36.3.66.66.66h2.53c.36,0,.66.3.66.66v1.91c0,.36-.3.66-.66.66h-2.53c-.36,0-.66.3-.66.66"/>
      <path class="cls-11" d="M71.14,117.25h-2.72c-.36,0-.66-.3-.66-.66v-1.91c0-.36.3-.66.66-.66h9.55c.36,0,.66.3.66.66v1.91c0,.36-.3.66-.66.66h-6.83Z"/>
      <rect class="cls-9" x="53.93" y="87.57" width="22.88" height="11.91"/>
      <path class="cls-7" d="M54.72,98.69h21.29v-10.38h-21.29v10.38ZM56.7,98.43v-1.32c0-.27-.22-.5-.5-.5h-1.32v-6.27h1.29c.27,0,.5-.22.5-.5v-1.31h17.34v1.31c0,.27.22.5.5.5h1.31v6.26h-1.32c-.27,0-.5.22-.5.5v1.32h1.82s-19.12,0-19.12,0Z"/>
      <path class="cls-9" d="M74,98.43v-1.32c0-.27.22-.5.5-.5h1.32v-6.26h-1.31c-.27,0-.5-.22-.5-.5v-1.31h-17.34v1.31c0,.28-.22.5-.5.5h-1.29v6.27h1.32c.27,0,.5.22.5.5v1.32h19.12s-1.82,0-1.82,0Z"/>
      <path class="cls-7" d="M69.67,93.42c0,2.48-2.01,4.49-4.49,4.49s-4.49-2.01-4.49-4.49,2.01-4.49,4.49-4.49,4.49,2.01,4.49,4.49"/>
      <path class="cls-8" d="M64.84,89.93h.65v.49c1.03.06,2.03.48,2.02,1.69h-1.36c-.02-.31-.26-.63-.66-.62v1.09c.98.3,2.09.63,2.09,1.81,0,1.29-.96,1.72-2.09,1.76v.76h-.65v-.76c-1.13-.04-2.05-.65-2.06-1.87h1.42c0,.43.23.73.64.82v-1.23c-.92-.28-1.95-.53-1.95-1.71s.95-1.58,1.95-1.73v-.49ZM64.84,91.44c-.22-.02-.59.18-.59.48,0,.38.34.44.59.54v-1.02ZM65.49,95.13c.32,0,.68-.19.68-.52s-.3-.55-.68-.63v1.14Z"/>
      <path class="cls-7" d="M91.87,96.64c-.23-1.84-2.7-3.29-5.71-3.29s-5.48,1.45-5.71,3.29h0c-.01.1-.02.19-.02.29s.01.19.02.28v7.22c-.01.09-.02.18-.02.28,0,1.98,2.57,3.58,5.73,3.58s5.74-1.6,5.74-3.58v-8.06h-.02Z"/>
      <path class="cls-6" d="M86.21,99.49c2.65,0,4.89-1.2,4.97-2.64-.08-1.44-2.32-2.64-4.97-2.64s-4.89,1.2-4.97,2.64c.08,1.44,2.32,2.64,4.97,2.64"/>
      <path class="cls-6" d="M86.21,100.03c-2.27,0-3.72-.48-4.97-1.83v1.5c1.22,2.34,4.51,2.34,4.97,2.34,2.7,0,4.98-1.24,4.98-2.72v-1.19c-.85,1.12-2.74,1.89-4.98,1.89"/>
      <path class="cls-6" d="M86.21,102.71c-2.2,0-3.61-.48-4.81-1.82v1.5c1.19,2.33,4.37,2.33,4.81,2.33,2.61,0,4.82-1.24,4.82-2.71v-1.18c-.83,1.12-2.65,1.88-4.82,1.88"/>
      <path class="cls-6" d="M86.21,105.37c-2.2,0-3.61-.48-4.81-1.82v1.5c1.19,2.33,4.37,2.33,4.81,2.33,2.61,0,4.82-1.24,4.82-2.71v-1.18c-.83,1.12-2.65,1.88-4.82,1.88"/>
      <path class="cls-7" d="M87.9,98.03c-.13.14-.32.26-.57.36-.25.1-.56.15-.93.16v.41h-.36v-.41c-.49-.03-.89-.13-1.2-.3-.3-.17-.47-.38-.49-.64h.62c.02.15.12.29.3.41.18.12.43.2.76.23v-1.41c-.37-.06-.67-.12-.89-.18s-.41-.16-.57-.28c-.16-.13-.23-.3-.23-.51,0-.27.15-.49.46-.66.3-.17.72-.27,1.24-.28v-.43h.36v.43c.46.03.83.12,1.11.27.28.16.44.35.49.58h-.62c-.03-.13-.13-.24-.3-.35-.17-.11-.39-.18-.68-.2v1.36c.36.06.66.12.88.18.23.06.42.16.58.29.16.13.23.3.23.52,0,.16-.06.31-.19.45M85.21,96.27c.19.1.46.18.82.24v-1.31c-.33.01-.6.07-.8.18s-.3.26-.3.46.1.33.29.43M87.22,98.05c.19-.12.29-.28.29-.46,0-.19-.1-.34-.29-.44-.19-.1-.47-.18-.83-.25v1.35c.35-.01.63-.08.82-.21"/>
      <path class="cls-6" d="M84.22,104.02c0,3.45-2.8,6.25-6.25,6.25s-6.25-2.8-6.25-6.25,2.8-6.25,6.25-6.25,6.25,2.8,6.25,6.25"/>
      <path class="cls-7" d="M83.32,104.02c0,2.95-2.4,5.35-5.35,5.35s-5.35-2.4-5.35-5.35,2.4-5.35,5.35-5.35,5.35,2.4,5.35,5.35"/>
      <path class="cls-6" d="M82.66,104.02c0,2.59-2.1,4.69-4.69,4.69s-4.69-2.1-4.69-4.69,2.1-4.69,4.69-4.69,4.69,2.1,4.69,4.69"/>
      <path class="cls-7" d="M79.83,106.38c-.14.26-.35.47-.63.64-.28.17-.62.27-1.02.28v.73h-.4v-.74c-.54-.05-.98-.23-1.32-.53-.34-.31-.52-.69-.54-1.15h.69c.02.27.14.52.33.75.2.22.48.36.84.41v-2.53c-.41-.11-.73-.22-.98-.33-.25-.11-.46-.28-.63-.51-.17-.23-.26-.53-.26-.92,0-.48.17-.88.5-1.19.33-.31.79-.48,1.36-.51v-.77h.4v.78c.51.05.91.21,1.22.49.3.28.48.63.54,1.05h-.68c-.04-.23-.15-.44-.33-.63-.19-.2-.43-.32-.75-.37v2.44c.4.1.72.21.97.32.25.11.46.29.63.52.17.23.26.55.26.94,0,.29-.07.56-.21.82M76.87,103.22c.21.17.51.32.9.43v-2.35c-.37.02-.66.13-.88.32-.22.19-.33.47-.33.82s.11.6.32.77M79.08,106.41c.21-.22.32-.5.32-.83,0-.35-.1-.61-.32-.79-.21-.18-.51-.33-.91-.45v2.43c.39-.02.69-.15.91-.37"/>
    </g>
    <g>
      <path class="cls-11" d="M100.61,157.31h-11.18c-.57,0-1.03.48-1.03,1.06v21.14c0,.59.46,1.06,1.03,1.06h15.4c.57,0,1.03-.48,1.03-1.06v-16.6l-5.26-5.61Z"/>
      <path class="cls-7" d="M100.21,158.34h-9.9c-.5,0-.92.43-.92.97v19.27c0,.53.41.97.92.97h13.64c.5,0,.91-.43.91-.97v-15.13l-4.66-5.11Z"/>
      <path class="cls-7" d="M98.82,163.93l-.05-4.72c0-.25-.2-.44-.44-.44h-8.02c-.24,0-.44.2-.44.45v19.47c0,.25.19.45.44.45h13.65c.24,0,.44-.2.44-.45v-13.86c0-.25-.2-.45-.44-.45h-4.7c-.24,0-.43-.2-.44-.44"/>
      <path class="cls-23" d="M112.08,164.74l-.06.02-.65,4.66c-.04.26-.25.5-.53.59l-1.1.36c-.53.17-1.03-.19-.93-.68l1.39-6.81.26-1.06c.13-.54.89-.76,1.28-.38l.74.7,5.14,4.69c.36.33.17.92-.35,1.09l-1.09.36c-.28.09-.59.03-.78-.16l-3.32-3.38Z"/>
      <path class="cls-23" d="M93.22,188.6s10.37,1.39,16.92-8.88c0,0,.09-1.31,1.34-.95,0,0,.71.5.34,1.17,0,0-4.9,11.15-18.5,10.45,0,0-.81-.03-.87-.94,0,0,.01-.64.77-.85"/>
      <path class="cls-23" d="M83.52,157.84s-8.32,6.35-5.7,18.24c0,0,.6,1.28-.28,1.62,0,0-.86.15-1.07-.58,0,0-4.41-11.36,5.71-20.46,0,0,.6-.56,1.28.05,0,0,.45.46.06,1.14"/>
      <path class="cls-23" d="M81.43,182.51s2.33,2.78,5.5,4.29c0,0,.74.5.28,1.23,0,0-.41.71-1.25.28,0,0-3.25-1.58-5.88-4.68,0,0-.38-.75.26-1.21,0,0,.53-.39,1.09.09"/>
      <path class="cls-23" d="M108.04,159.9s-2.34-2.78-5.51-4.28c0,0-.74-.5-.28-1.23,0,0,.41-.71,1.25-.29,0,0,3.25,1.57,5.89,4.67,0,0,.39.75-.26,1.21,0,0-.53.39-1.09-.08"/>
      <path class="cls-23" d="M112.14,172.7s.33-3.62-.84-6.93c0,0-.17-.88.68-1.06,0,0,.8-.21,1.09.69,0,0,1.17,3.42.83,7.47,0,0-.26.8-1.05.67,0,0-.65-.1-.7-.83"/>
      <path class="cls-23" d="M96.15,153.83s-3.62-.31-6.92.88c0,0-.88.17-1.07-.67,0,0-.21-.79.68-1.09,0,0,3.41-1.19,7.46-.87,0,0,.8.26.67,1.04,0,0-.1.65-.83.71"/>
      <path class="cls-18" d="M77.63,177.7l.06-.02.41-4.69c.02-.27.22-.51.5-.62l1.08-.41c.52-.2,1.04.14.96.63l-1.04,6.88-.2,1.08c-.1.54-.85.81-1.26.45l-.78-.67-5.37-4.42c-.38-.31-.22-.91.3-1.11l1.07-.41c.28-.11.59-.06.78.12l3.49,3.2Z"/>
      <path class="cls-11" d="M89.84,179.75v2.02c0,.3-.24.54-.54.54h-1.35c-.3,0-.54-.24-.54-.54v-2.02c0-.3-.24-.54-.54-.54h-2.21c-.3,0-.54-.24-.54-.54v-1.56c0-.3.24-.54.54-.54h2.21c.3,0,.54-.24.54-.54v-2.05c0-.3.24-.54.54-.54h1.35c.3,0,.54.24.54.54v2.05c0,.3.24.54.54.54h2.06c.3,0,.54.24.54.54v1.56c0,.3-.24.54-.54.54h-2.06c-.3,0-.54.24-.54.54"/>
      <path class="cls-11" d="M92.7,185.45h-2.21c-.3,0-.54-.24-.54-.54v-1.56c0-.3.24-.54.54-.54h7.76c.3,0,.54.24.54.54v1.56c0,.3-.24.54-.54.54h-5.55Z"/>
      <rect class="cls-9" x="78.71" y="161.32" width="18.61" height="9.69"/>
      <path class="cls-7" d="M79.34,170.36h17.31v-8.44h-17.31v8.44ZM80.95,170.15v-1.07c0-.22-.18-.4-.41-.4h-1.07v-5.1h1.05c.22,0,.4-.18.4-.4v-1.07h14.1v1.07c0,.22.18.41.41.41h1.06v5.09h-1.07c-.22,0-.4.18-.4.41v1.07h1.48s-15.55,0-15.55,0Z"/>
      <path class="cls-9" d="M95.03,170.14v-1.07c0-.22.18-.41.4-.41h1.07v-5.09h-1.06c-.22,0-.41-.18-.41-.4v-1.07h-14.1v1.07c0,.22-.18.4-.41.4h-1.05v5.1h1.07c.22,0,.4.18.4.4v1.07h15.55s-1.48,0-1.48,0Z"/>
      <path class="cls-7" d="M91.51,166.07c0,2.02-1.64,3.65-3.65,3.65s-3.65-1.64-3.65-3.65,1.64-3.65,3.65-3.65,3.65,1.64,3.65,3.65"/>
      <path class="cls-8" d="M87.58,163.24h.53v.4c.84.04,1.65.39,1.64,1.37h-1.1c-.02-.25-.21-.51-.54-.5v.89c.8.24,1.7.52,1.7,1.47,0,1.05-.78,1.4-1.7,1.43v.62h-.53v-.62c-.92-.03-1.66-.53-1.68-1.52h1.15c0,.35.18.59.52.66v-1c-.75-.23-1.59-.43-1.59-1.39s.77-1.28,1.59-1.4v-.4ZM87.58,164.46c-.18-.01-.48.15-.48.39,0,.31.27.36.48.44v-.83ZM88.11,167.47c.26,0,.55-.15.55-.42s-.24-.45-.55-.51v.93Z"/>
      <path class="cls-7" d="M109.56,168.69c-.19-1.5-2.2-2.68-4.65-2.68s-4.45,1.18-4.64,2.68h0c0,.08-.02.16-.02.23s0,.15.02.22v5.87c0,.07-.02.15-.02.22,0,1.61,2.09,2.91,4.66,2.91s4.67-1.3,4.67-2.91v-6.55h-.02Z"/>
      <path class="cls-6" d="M104.96,171.01c2.16,0,3.98-.98,4.04-2.15-.06-1.17-1.88-2.15-4.04-2.15s-3.98.98-4.04,2.15c.06,1.17,1.88,2.15,4.04,2.15"/>
      <path class="cls-6" d="M104.95,171.45c-1.85,0-3.03-.39-4.04-1.49v1.22c1,1.91,3.67,1.9,4.04,1.9,2.19,0,4.05-1.01,4.05-2.21v-.97c-.69.91-2.22,1.53-4.05,1.53"/>
      <path class="cls-6" d="M104.95,173.63c-1.79,0-2.94-.39-3.92-1.48v1.22c.97,1.9,3.56,1.9,3.92,1.9,2.13,0,3.92-1.01,3.92-2.2v-.96c-.67.91-2.16,1.53-3.92,1.53"/>
      <path class="cls-6" d="M104.95,175.79c-1.79,0-2.94-.39-3.92-1.48v1.22c.97,1.9,3.56,1.9,3.92,1.9,2.13,0,3.92-1.01,3.92-2.2v-.96c-.67.91-2.16,1.53-3.92,1.53"/>
      <path class="cls-7" d="M106.33,169.82c-.1.12-.26.21-.47.29-.21.08-.46.12-.76.13v.33h-.3v-.33c-.4-.02-.73-.1-.97-.24-.25-.14-.38-.31-.4-.52h.51c.02.12.1.24.25.34.15.1.35.16.62.18v-1.15c-.3-.05-.54-.1-.73-.15-.18-.05-.34-.13-.46-.23-.13-.1-.19-.24-.19-.42,0-.22.12-.4.37-.54.25-.14.58-.22,1.01-.23v-.35h.3v.35c.37.02.67.1.9.22.22.13.36.28.4.48h-.5c-.03-.1-.11-.2-.25-.29-.14-.09-.32-.14-.55-.16v1.1c.29.05.53.09.72.15.19.05.34.13.47.23.13.11.19.25.19.43,0,.13-.05.25-.16.37M104.14,168.39c.16.08.38.14.67.2v-1.06c-.27,0-.49.06-.65.14-.16.09-.25.21-.25.37s.08.27.23.35M105.77,169.84c.16-.1.24-.22.24-.37,0-.16-.08-.28-.23-.36-.15-.08-.38-.15-.67-.2v1.1c.29-.01.51-.07.67-.17"/>
      <path class="cls-6" d="M103.34,174.7c0,2.81-2.27,5.08-5.08,5.08s-5.08-2.27-5.08-5.08,2.28-5.08,5.08-5.08,5.08,2.27,5.08,5.08"/>
      <path class="cls-7" d="M102.61,174.7c0,2.4-1.95,4.35-4.35,4.35s-4.35-1.95-4.35-4.35,1.95-4.35,4.35-4.35,4.35,1.95,4.35,4.35"/>
      <path class="cls-6" d="M102.07,174.7c0,2.11-1.71,3.82-3.82,3.82s-3.82-1.71-3.82-3.82,1.71-3.82,3.82-3.82,3.82,1.71,3.82,3.82"/>
      <path class="cls-7" d="M99.76,176.61c-.11.21-.28.39-.51.53-.23.14-.51.22-.83.23v.59h-.33v-.6c-.44-.04-.8-.18-1.07-.44-.27-.25-.42-.56-.44-.93h.56c.02.22.11.42.27.61.16.18.39.29.68.33v-2.06c-.33-.09-.6-.18-.8-.27-.2-.09-.37-.23-.51-.41-.14-.19-.21-.43-.21-.75,0-.39.14-.71.41-.97.27-.26.64-.39,1.11-.41v-.62h.33v.63c.41.04.74.17.99.4.25.23.39.51.44.85h-.55c-.03-.18-.12-.35-.27-.51-.15-.16-.35-.26-.61-.3v1.99c.32.08.59.17.79.26.2.09.38.23.52.42.14.19.21.44.21.77,0,.23-.06.46-.17.67M97.36,174.05c.17.14.42.26.73.35v-1.91c-.3.01-.54.1-.72.26-.18.16-.27.38-.27.67s.09.49.26.63M99.16,176.64c.17-.18.26-.4.26-.67,0-.28-.08-.5-.26-.64-.17-.14-.42-.26-.74-.36v1.98c.32-.02.56-.12.74-.3"/>
    </g>
  </g>
</svg>