<?xml version="1.0" encoding="UTF-8"?>
<svg id="Capa_2" xmlns="http://www.w3.org/2000/svg" viewBox="0 0 142.92 205.61">
  <defs>
    <style>
      .cls-1 {
        fill: #f9cf16;
      }

      .cls-2 {
        fill: #cd142a;
      }

      .cls-3 {
        fill: #646365;
      }

      .cls-4 {
        fill: #fff;
      }

      .cls-5 {
        fill: #625f60;
      }

      .cls-6 {
        fill: #505050;
      }

      .cls-7 {
        fill: #dbac85;
      }

      .cls-8 {
        fill: #d00e4d;
      }

      .cls-9 {
        fill: #d00e4c;
      }

      .cls-10 {
        fill: #d22e1f;
      }

      .cls-11 {
        fill: #9d9a9c;
      }

      .cls-12 {
        fill: #1d458c;
      }

      .cls-13 {
        fill: #e1222c;
      }

      .cls-14 {
        fill: #828384;
      }

      .cls-15 {
        fill: #1b4180;
      }

      .cls-16 {
        fill: #f9c294;
      }
    </style>
  </defs>
  <g id="Capa_1-2" data-name="Capa_1">
    <g>
      <path class="cls-5" d="M72.44,195.14h1.14v8.37h-1.14v-8.37Z"/>
      <path class="cls-5" d="M77.96,198.95c-.25.09-.46.21-.62.38s-.29.37-.38.63-.13.51-.13.76.04.5.13.76.21.46.38.63.37.29.62.38.5.13.75.13h4.61v.93h-4.61c-.51,0-.98-.13-1.41-.38-.43-.25-.77-.59-1.03-1.03-.25-.43-.38-.9-.38-1.41s.12-.98.38-1.41c.25-.43.6-.78,1.03-1.03.43-.25.9-.38,1.41-.38h4.61v.93h-4.61c-.25,0-.5.04-.75.13Z"/>
      <path class="cls-5" d="M89.45,197.88c.5-.02.94.02,1.32.14s.68.28.92.49.42.43.56.66.23.45.29.66.1.38.11.53.02.21.02.19v.33c0,.24-.06.52-.18.83s-.3.61-.55.89-.57.51-.97.69-.85.25-1.38.22h-1.05c-.52.03-.98-.05-1.38-.22s-.72-.4-.97-.69-.43-.58-.55-.89-.18-.59-.18-.83v-.33s0-.04.02-.19.05-.33.11-.53.16-.42.29-.66.32-.46.56-.66.55-.37.92-.49.81-.16,1.32-.14h.76ZM89.82,202.57c.7,0,1.19-.17,1.47-.51s.45-.7.49-1.09v-.16s.01-.26.01-.26v-.18c-.05-.37-.22-.72-.5-1.06s-.77-.51-1.48-.51h-1.49c-.7,0-1.2.17-1.48.51s-.44.7-.48,1.06l-.02.18v.25l.02.18c.04.39.2.75.49,1.09s.78.51,1.47.51h1.49Z"/>
      <path class="cls-5" d="M101.78,199.22c.25.44.38.92.38,1.44v2.87h-.94v-2.87c0-.26-.04-.52-.13-.77s-.21-.47-.38-.64c-.16-.17-.36-.3-.61-.39s-.49-.13-.74-.13h-1.78c-.48,0-1.1,0-1.86,0,0-.22,0-.01,0,.62s0,1.06,0,1.25v2.94h-.94v-5.74h4.58c.5,0,.97.13,1.4.38.43.26.77.61,1.03,1.05Z"/>
      <path class="cls-5" d="M108.31,197.88c.5-.02.94.02,1.32.14s.68.28.92.49.42.43.56.66.23.45.29.66.1.38.11.53.02.21.02.19v.33c0,.24-.06.52-.18.83s-.3.61-.55.89-.57.51-.97.69-.85.25-1.38.22h-1.05c-.52.03-.98-.05-1.38-.22s-.72-.4-.97-.69-.43-.58-.55-.89-.18-.59-.18-.83v-.33s0-.04.02-.19.05-.33.11-.53.16-.42.29-.66.32-.46.56-.66.55-.37.92-.49.81-.16,1.32-.14h.76ZM108.67,202.57c.7,0,1.19-.17,1.47-.51s.45-.7.49-1.09v-.16s.01-.26.01-.26v-.18c-.05-.37-.22-.72-.5-1.06s-.77-.51-1.48-.51h-1.49c-.7,0-1.2.17-1.48.51s-.44.7-.48,1.06l-.02.18v.25l.02.18c.04.39.2.75.49,1.09s.78.51,1.47.51h1.49Z"/>
      <path class="cls-5" d="M123.73,199.2c.23.4.35.9.35,1.49,0-.09,0-.07,0,.06h0v.66c0,.55-.11.98-.32,1.28s-.46.5-.76.61-.61.16-.93.17-.57.02-.73.02h-3.01c-.47,0-.87-.17-1.2-.52s-.5-.76-.5-1.24.17-.9.5-1.25c.33-.35.73-.52,1.2-.52h4.61c0-.07-.02-.13-.04-.19s-.04-.11-.05-.13c-.09-.18-.21-.34-.38-.48s-.34-.26-.54-.34c-.2-.08-.41-.12-.62-.12h-4.44v-.9c0-.08,0-.1,0-.08h4.44c.51,0,.99.13,1.43.4.21.12.39.27.55.45s.3.38.44.62ZM123.06,201.54c0-.08,0-.28-.01-.59h-4.83c-.17,0-.32.08-.45.23-.12.16-.18.34-.18.56s.06.4.18.56c.12.15.27.23.45.23h3.13c.36,0,.64,0,.85-.02s.38-.07.5-.16c.13-.09.22-.21.27-.34s.08-.29.09-.47Z"/>
      <path class="cls-5" d="M127.15,205.58h-.91c0,.05,0,0,0-.16v-5.33c0-.35.13-.69.4-1.02s.59-.6.98-.81.75-.31,1.08-.31h1.71c.53-.02.99.05,1.39.22s.72.39.97.67.44.57.56.88.18.58.18.82v.32s0,.04-.02.18-.05.32-.11.52-.16.42-.3.65-.33.45-.57.65-.55.36-.92.48-.82.16-1.32.14h-3.11v2.1ZM127.15,202.57h3.47c.57,0,1-.12,1.29-.35s.48-.47.57-.73.13-.46.13-.62v-.28c0-.19-.04-.42-.13-.68s-.28-.5-.57-.73-.72-.33-1.27-.33h-1.88c-.24,0-.49.07-.74.22s-.46.34-.62.56-.24.45-.24.66v2.26Z"/>
      <path class="cls-5" d="M136.57,205.58h-.91c0,.05,0,0,0-.16v-5.33c0-.35.13-.69.4-1.02s.59-.6.98-.81.75-.31,1.08-.31h1.71c.53-.02.99.05,1.39.22s.72.39.97.67.44.57.56.88.18.58.18.82v.32s0,.04-.02.18-.05.32-.11.52-.16.42-.3.65-.33.45-.57.65-.55.36-.92.48-.82.16-1.32.14h-3.11v2.1ZM136.57,202.57h3.47c.57,0,1-.12,1.29-.35s.48-.47.57-.73.13-.46.13-.62v-.28c0-.19-.04-.42-.13-.68s-.28-.5-.57-.73-.72-.33-1.27-.33h-1.88c-.24,0-.49.07-.74.22s-.46.34-.62.56-.24.45-.24.66v2.26Z"/>
    </g>
    <g>
      <path class="cls-9" d="M40.5,25.35c.14.02.36.08.68.19.31.11.68.32,1.09.63.41.31.77.78,1.08,1.4.31.62.46,1.41.46,2.36s-.18,1.67-.54,2.27c-.36.6-.79,1.06-1.29,1.35-.5.29-.97.47-1.42.53h-7.62v-8.73h7.57ZM40.44,32.91c.23-.04.52-.14.84-.3.32-.16.63-.46.92-.9.29-.43.43-1.03.43-1.78,0-.88-.15-1.57-.45-2.07-.3-.5-.62-.84-.95-1.01-.33-.18-.61-.28-.84-.32h-6.28v6.38h6.33Z"/>
      <rect class="cls-9" x="44.63" y="25.36" width="1.19" height="8.7"/>
      <path class="cls-9" d="M52.3,27.74c.77-.01,1.46-.13,2.06-.34.61-.22,1.08-.43,1.4-.65.33-.22.55-.38.66-.49l.96-.91v8.75h-1.14v-6.32c-.5.3-1.08.55-1.75.76-.66.21-1.39.32-2.18.33-.83,0-1.61-.1-2.33-.32-.72-.22-1.36-.49-1.92-.82v6.36h-1.14v-8.75l1,.87c.14.13.39.3.75.53.36.23.86.45,1.51.68.64.23,1.35.33,2.11.32"/>
      <rect class="cls-8" x="59.08" y="29.05" width="2.29" height="1.16"/>
      <g>
        <path class="cls-14" d="M73.06,34.07h-1.47l-.22-.29-2.42-3.23h-4.93v3.52h-1.18v-8.77h7.8c.45,0,.87.12,1.23.35.23.15.41.3.55.45.14.15.27.34.38.57.1.21.17.41.21.6s.06.37.06.5c0,.38-.01.68-.03.9-.02.23-.09.44-.21.65-.16.31-.41.59-.74.85-.33.25-.82.38-1.48.38h-.2l2.63,3.52ZM64.06,29.36h6.63c.21,0,.4-.03.56-.09.16-.06.29-.14.37-.24.1-.12.17-.25.21-.39.04-.14.06-.25.06-.32,0-.07,0-.25,0-.54,0-.39-.12-.7-.35-.94-.24-.24-.53-.36-.88-.36h-6.65l.04,2.88Z"/>
        <path class="cls-14" d="M80.53,28.52c.29.23.48.49.57.77.09.28.14.53.15.74,0,1.05-.58,1.6-1.76,1.66h-4.67s0,.25,0,.25c0,.27.02.49.07.64.05.16.13.27.25.34.12.07.27.12.46.15s.47.04.82.04h4.36c.13,0,.19.06.19.18v.59c0,.13-.06.19-.19.19h-4.51c-.63,0-1.12-.07-1.48-.21-.36-.14-.62-.36-.77-.67-.16-.3-.23-.72-.23-1.24v-1.5c0-.35.13-.7.4-1.05s.61-.65,1.02-.88c.42-.23.84-.35,1.28-.35h2.84c.52,0,.92.12,1.21.35ZM79.85,30.66c.09-.03.17-.09.26-.19.06-.07.11-.15.13-.24s.04-.21.05-.37c0-.07-.02-.16-.06-.27s-.11-.21-.22-.3-.26-.14-.45-.14h-3.1c-.22,0-.46.07-.72.21-.26.14-.48.33-.65.56-.18.24-.27.5-.27.79h4.61c.19,0,.33-.02.42-.05Z"/>
        <path class="cls-14" d="M84.25,29.31c-.26.09-.48.22-.65.4s-.3.39-.4.66c-.09.27-.14.53-.14.79s.05.53.14.79.22.48.4.66.39.3.65.4.53.14.79.14h4.82v.97h-4.82c-.53,0-1.02-.13-1.48-.4-.45-.26-.81-.62-1.07-1.07-.26-.45-.39-.94-.39-1.48s.13-1.03.39-1.48c.27-.45.62-.81,1.07-1.07.45-.27.95-.4,1.48-.4h4.82v.97h-4.82c-.26,0-.52.05-.79.14Z"/>
        <path class="cls-14" d="M97.44,28.52c.29.23.48.49.57.77.09.28.14.53.15.74,0,1.05-.58,1.6-1.76,1.66h-4.67s0,.25,0,.25c0,.27.02.49.07.64s.13.27.25.34c.11.07.27.12.46.15s.47.04.82.04h4.36c.13,0,.19.06.19.18v.59c0,.13-.06.19-.19.19h-4.51c-.63,0-1.12-.07-1.48-.21s-.62-.36-.77-.67-.23-.72-.23-1.24v-1.5c0-.35.13-.7.4-1.05s.61-.65,1.02-.88c.42-.23.84-.35,1.28-.35h2.84c.52,0,.92.12,1.21.35ZM96.76,30.66c.09-.03.17-.09.26-.19.06-.07.11-.15.13-.24.03-.09.04-.21.05-.37,0-.07-.02-.16-.06-.27s-.11-.21-.22-.3-.26-.14-.45-.14h-3.1c-.22,0-.46.07-.72.21-.26.14-.47.33-.65.56-.18.24-.27.5-.27.79h4.61c.19,0,.33-.02.42-.05Z"/>
        <path class="cls-14" d="M105.32,30.7c.4.02.74.15,1.04.39.3.24.45.7.45,1.38,0,.36-.09.67-.27.91-.18.24-.41.42-.68.54s-.54.18-.8.18h-6v-.98s5.97,0,5.97,0c.21,0,.4-.05.57-.14.17-.09.25-.31.25-.65,0-.21-.06-.37-.18-.46-.12-.09-.26-.15-.41-.17-.16-.02-.25-.02-.29-.02h-4.35c-.23,0-.48-.07-.74-.19-.26-.12-.48-.32-.67-.6-.19-.28-.28-.63-.28-1.07,0-.38.1-.7.3-.95.2-.25.43-.44.71-.55.27-.12.54-.18.78-.2h5.42v.98h-5.36c-.22,0-.43.05-.62.14-.19.1-.29.33-.29.71,0,.3.09.5.26.59.18.09.35.14.51.15h4.66Z"/>
        <path class="cls-14" d="M108.79,25.3v1.04h-1.04v-1.04h1.04ZM108.79,27.72v6.35h-1.04v-6.35h1.04Z"/>
        <path class="cls-14" d="M114.05,28.18c.53-.02.99.02,1.38.15.39.12.71.29.96.51.25.22.44.45.58.69.14.25.24.48.31.69.06.21.1.4.12.55.02.16.02.22.02.2v.35c0,.25-.06.54-.19.87-.12.33-.32.64-.58.93-.26.3-.6.54-1.01.72-.41.18-.89.26-1.44.23h-1.1c-.55.03-1.03-.05-1.44-.23-.42-.18-.75-.42-1.01-.72-.26-.3-.46-.61-.58-.93-.12-.32-.19-.61-.19-.87v-.35s0-.04.02-.2.06-.34.12-.55c.06-.21.17-.44.31-.69.14-.25.34-.48.59-.69.25-.22.57-.39.96-.51.39-.12.85-.17,1.38-.15h.8ZM114.43,33.09c.73,0,1.25-.18,1.54-.53.3-.35.47-.73.51-1.14v-.17s.01-.28.01-.28v-.18c-.06-.38-.23-.75-.52-1.11-.29-.36-.81-.54-1.54-.54h-1.56c-.74,0-1.25.18-1.54.54-.29.36-.46.73-.5,1.11l-.02.18v.26l.02.18c.04.4.21.78.51,1.14.3.35.81.53,1.54.53h1.56Z"/>
        <path class="cls-14" d="M125.54,29.58c.26.46.39.96.39,1.51v3h-.99v-3c0-.27-.05-.54-.14-.81-.09-.27-.22-.49-.4-.67-.17-.18-.38-.31-.64-.41-.26-.09-.52-.14-.77-.14h-1.86c-.5,0-1.15,0-1.95,0,0-.23,0-.02,0,.65s0,1.1,0,1.31v3.07h-.99v-6.01h4.79c.52,0,1.01.13,1.46.4.45.27.81.64,1.07,1.1Z"/>
        <path class="cls-14" d="M133.55,28.52c.29.23.48.49.57.77s.14.53.15.74c0,1.05-.58,1.6-1.76,1.66h-4.67s0,.25,0,.25c0,.27.02.49.07.64.05.16.13.27.25.34.11.07.27.12.46.15.19.02.47.04.82.04h4.36c.13,0,.19.06.19.18v.59c0,.13-.06.19-.19.19h-4.51c-.63,0-1.12-.07-1.48-.21s-.62-.36-.77-.67-.23-.72-.23-1.24v-1.5c0-.35.13-.7.4-1.05s.61-.65,1.02-.88c.42-.23.84-.35,1.28-.35h2.84c.52,0,.92.12,1.21.35ZM132.86,30.66c.09-.03.17-.09.26-.19.06-.07.11-.15.13-.24s.04-.21.05-.37c0-.07-.02-.16-.06-.27-.04-.11-.11-.21-.22-.3-.11-.09-.26-.14-.45-.14h-3.1c-.22,0-.46.07-.72.21s-.48.33-.65.56c-.18.24-.27.5-.27.79h4.61c.19,0,.33-.02.42-.05Z"/>
        <path class="cls-14" d="M141.43,30.7c.4.02.74.15,1.04.39.3.24.45.7.45,1.38,0,.36-.09.67-.27.91s-.41.42-.68.54c-.27.12-.54.18-.8.18h-6v-.98s5.97,0,5.97,0c.21,0,.4-.05.57-.14s.25-.31.25-.65c0-.21-.06-.37-.18-.46-.12-.09-.26-.15-.41-.17-.16-.02-.25-.02-.29-.02h-4.35c-.23,0-.48-.07-.74-.19-.26-.12-.48-.32-.67-.6-.19-.28-.28-.63-.28-1.07,0-.38.1-.7.3-.95.2-.25.43-.44.71-.55.27-.12.54-.18.79-.2h5.42v.98h-5.37c-.22,0-.43.05-.62.14-.19.1-.28.33-.28.71,0,.3.09.5.26.59.18.09.35.14.52.15h4.66Z"/>
      </g>
    </g>
    <g>
      <path class="cls-4" d="M14.84.27L.55,4.78l14.33,11.12,14.04-10.84L14.84.27ZM20.37,10.39l-3.12,2.39-2.66-1.71,2.04-1.67c.37-.33.47-.56.47-.56v-3.18c.03-.54-.73-.85-.73-.85-.94-.45-2.38-.43-2.38-.43-1.33-.02-3.8.92-3.8.92v2.95l-3.69-2.37c2.35-.95,3.42-1.2,3.42-1.2,2.33-.65,3.96-.69,3.96-.69,2.61-.14,4.68.58,4.68.58,2.08.57,2.94,1.3,2.94,1.3,1.72,1.29,1.33,2.61,1.33,2.61-.27.24-2.47,1.91-2.47,1.91"/>
      <polygon class="cls-9" points=".02 8.24 .02 4.69 14.92 16.03 29.45 4.96 29.45 8.22 14.87 21.46 .02 8.24"/>
      <path class="cls-9" d="M6.42,5.91l-2.39-1.48s3.15-1.23,5.77-1.73,3.58-.53,5.07-.47c1.5.06,4.37.63,6.26,1.55,1.89.93,2.29,1.89,2.4,2.42.12.53.09,1.75-.34,2.13l-.42.38s.31-.69-.13-1.56c-.44-.87-1.39-1.7-3.12-2.29-1.73-.59-3.27-.92-5.14-.89-1.87.03-3.56.44-4.87.82-1.3.38-3.09,1.11-3.09,1.11"/>
      <path class="cls-9" d="M10.2,5.37v2.94l4.29,2.83s.94-.73,1.6-1.28c.66-.54.94-.87,1.01-1.03v-3.24s.08.51-1.06,1.15c-1.13.64-1.49.85-1.49.85l-4.35-2.21Z"/>
      <path class="cls-9" d="M14.88,16.23L0,4.68,14.85,0h.04s14.57,4.97,14.57,4.97l-14.57,11.26ZM.55,4.78l14.34,11.12,14.04-10.84L14.84.27.55,4.78Z"/>
      <path class="cls-9" d="M17.27,13.09l-.08-.05L3.75,4.39l.24-.09s3.19-1.24,5.8-1.74c1.92-.37,3-.49,4.14-.49.27,0,.57,0,.95.02,1.62.06,4.5.68,6.31,1.57,1.43.7,2.26,1.54,2.47,2.51.12.56.1,1.82-.38,2.25l-.43.38-5.59,4.29ZM4.32,4.45l12.94,8.32,5.44-4.17.42-.38c.38-.34.41-1.51.3-2-.2-.89-.98-1.67-2.33-2.33-1.78-.87-4.61-1.48-6.21-1.54-.38-.01-.68-.02-.94-.02-.97,0-1.94.08-4.1.49-2.17.41-4.73,1.34-5.51,1.63"/>
      <path class="cls-9" d="M14.47,7.64l-4.29-2.19.04-.07-.03-.08c.1-.04,2.43-.93,3.82-.93h.03c1.46.01,2.38.36,2.77.69.36.3.41.63.16,1.02-.18.28-.7.67-1.43,1.05-.71.38-1.02.5-1.03.51h-.03ZM10.32,5.39l4.15,2.12c.09-.04.4-.18.99-.49.7-.37,1.21-.74,1.38-1,.21-.33.17-.6-.13-.85-.37-.31-1.26-.65-2.69-.66h-.03c-1.21,0-3.21.72-3.68.89"/>
      <path class="cls-9" d="M40.5,6.74c.14.02.36.08.68.19.31.11.68.32,1.09.63.41.31.77.78,1.08,1.4.31.62.46,1.41.46,2.36s-.18,1.67-.54,2.27c-.36.61-.79,1.06-1.29,1.35-.5.29-.97.47-1.42.53h-7.62V6.73h7.57ZM40.44,14.29c.23-.04.52-.14.84-.3.32-.16.63-.46.92-.9.29-.43.43-1.03.43-1.78,0-.88-.15-1.57-.45-2.07-.3-.5-.62-.84-.95-1.01-.33-.18-.61-.28-.84-.32h-6.28v6.38h6.33Z"/>
      <rect class="cls-9" x="44.63" y="6.75" width="1.19" height="8.7"/>
      <path class="cls-9" d="M52.3,9.12c.77-.01,1.46-.13,2.06-.34.61-.22,1.08-.43,1.4-.65.33-.22.55-.38.66-.49l.96-.91v8.75h-1.14v-6.32c-.5.3-1.08.55-1.75.76-.66.21-1.39.32-2.18.33-.83,0-1.61-.1-2.33-.32-.72-.22-1.36-.49-1.92-.82v6.36h-1.14V6.73l1,.86c.14.13.39.3.75.53.36.23.86.45,1.51.68.64.23,1.35.33,2.11.32"/>
      <rect class="cls-8" x="59.08" y="10.44" width="2.29" height="1.16"/>
      <g>
        <path class="cls-14" d="M73.06,15.46h-1.47l-.22-.29-2.42-3.23h-4.93v3.52h-1.18V6.69h7.8c.45,0,.87.12,1.23.35.23.15.41.3.55.45.14.15.27.34.38.57.1.21.17.41.21.6s.06.37.06.5c0,.38-.01.68-.03.9-.02.23-.09.44-.21.65-.16.31-.41.59-.74.85-.33.25-.82.38-1.48.38h-.2l2.63,3.52ZM64.06,10.74h6.63c.21,0,.4-.03.56-.09.16-.06.29-.14.37-.24.1-.12.17-.25.21-.39.04-.14.06-.25.06-.32,0-.07,0-.25,0-.54,0-.39-.12-.7-.35-.94-.24-.24-.53-.36-.88-.36h-6.65l.04,2.88Z"/>
        <path class="cls-14" d="M80.53,9.91c.29.23.48.49.57.77.09.28.14.53.15.74,0,1.05-.58,1.6-1.76,1.66h-4.67s0,.25,0,.25c0,.27.02.49.07.64s.13.27.25.34c.11.07.27.12.46.15s.47.04.82.04h4.36c.13,0,.19.06.19.18v.59c0,.13-.06.19-.19.19h-4.51c-.63,0-1.12-.07-1.48-.21-.36-.14-.62-.36-.77-.67-.16-.3-.23-.72-.23-1.24v-1.5c0-.35.13-.7.4-1.05s.61-.65,1.02-.88c.42-.23.84-.35,1.28-.35h2.84c.52,0,.92.12,1.21.35ZM79.85,12.04c.09-.03.17-.09.26-.19.06-.07.1-.15.13-.24.03-.09.04-.21.05-.37,0-.07-.02-.16-.06-.27s-.11-.21-.22-.3-.26-.14-.45-.14h-3.1c-.22,0-.46.07-.72.21-.26.14-.48.33-.65.56-.18.24-.27.5-.27.79h4.61c.19,0,.33-.02.42-.05Z"/>
        <path class="cls-14" d="M84.25,10.69c-.26.09-.48.22-.65.4s-.3.39-.4.66c-.09.27-.14.53-.14.79s.05.53.14.79.22.48.4.66.39.3.65.4.53.14.79.14h4.82v.97h-4.82c-.53,0-1.02-.13-1.48-.4-.45-.26-.81-.62-1.07-1.07-.26-.45-.39-.94-.39-1.48s.13-1.03.39-1.48c.27-.45.62-.81,1.07-1.07.45-.27.95-.4,1.48-.4h4.82v.97h-4.82c-.26,0-.52.05-.79.14Z"/>
        <path class="cls-14" d="M97.44,9.91c.29.23.48.49.57.77.09.28.14.53.15.74,0,1.05-.58,1.6-1.76,1.66h-4.67s0,.25,0,.25c0,.27.02.49.07.64s.13.27.25.34c.11.07.27.12.46.15s.47.04.82.04h4.36c.13,0,.19.06.19.18v.59c0,.13-.06.19-.19.19h-4.51c-.63,0-1.12-.07-1.48-.21s-.62-.36-.77-.67-.23-.72-.23-1.24v-1.5c0-.35.13-.7.4-1.05s.61-.65,1.02-.88c.42-.23.84-.35,1.28-.35h2.84c.52,0,.92.12,1.21.35ZM96.76,12.04c.09-.03.17-.09.26-.19.06-.07.11-.15.13-.24.03-.09.04-.21.05-.37,0-.07-.02-.16-.06-.27s-.11-.21-.22-.3-.26-.14-.45-.14h-3.1c-.22,0-.46.07-.72.21-.26.14-.47.33-.65.56-.18.24-.27.5-.27.79h4.61c.19,0,.33-.02.42-.05Z"/>
        <path class="cls-14" d="M105.32,12.08c.4.02.74.15,1.04.39.3.24.45.7.45,1.38,0,.36-.09.67-.27.91-.18.24-.41.42-.68.54s-.54.18-.8.18h-6v-.98s5.97,0,5.97,0c.21,0,.4-.05.57-.14s.25-.31.25-.65c0-.21-.06-.37-.18-.46-.12-.09-.26-.15-.41-.17-.16-.02-.25-.02-.29-.02h-4.35c-.23,0-.48-.07-.74-.19-.26-.12-.48-.32-.67-.6-.19-.28-.28-.63-.28-1.07,0-.38.1-.7.3-.95.2-.25.43-.44.71-.55.27-.12.54-.18.78-.2h5.42v.98h-5.36c-.22,0-.43.05-.62.14-.19.1-.29.33-.29.71,0,.3.09.5.26.59.18.09.35.14.51.15h4.66Z"/>
        <path class="cls-14" d="M108.79,6.69v1.04h-1.04v-1.04h1.04ZM108.79,9.11v6.35h-1.04v-6.35h1.04Z"/>
        <path class="cls-14" d="M114.05,9.57c.53-.02.99.02,1.38.15.39.12.71.29.96.51.25.22.44.45.58.69.14.25.24.48.31.69.06.21.1.4.12.55.02.16.02.22.02.2v.35c0,.25-.06.54-.19.87-.12.33-.32.64-.58.93-.26.3-.6.54-1.01.72s-.89.26-1.44.23h-1.1c-.55.03-1.03-.05-1.44-.23-.41-.18-.75-.42-1.01-.72-.26-.3-.45-.61-.58-.93-.12-.32-.19-.61-.19-.87v-.35s0-.04.02-.2.06-.34.12-.55c.06-.21.17-.44.31-.69.14-.25.34-.48.59-.69.25-.22.57-.39.96-.51.39-.12.85-.17,1.38-.15h.8ZM114.43,14.48c.73,0,1.25-.18,1.54-.53.3-.35.47-.73.51-1.14v-.17s.01-.28.01-.28v-.18c-.06-.38-.23-.75-.52-1.11-.29-.36-.81-.54-1.54-.54h-1.56c-.74,0-1.25.18-1.54.54-.29.36-.46.73-.5,1.11l-.02.18v.26l.02.18c.04.4.21.78.51,1.14.3.35.81.53,1.54.53h1.56Z"/>
        <path class="cls-14" d="M125.54,10.97c.26.46.39.96.39,1.51v3h-.99v-3c0-.27-.05-.54-.14-.81-.09-.27-.22-.49-.39-.67-.17-.18-.38-.31-.64-.41-.26-.09-.52-.14-.77-.14h-1.86c-.5,0-1.15,0-1.95,0,0-.23,0-.02,0,.65s0,1.1,0,1.31v3.07h-.99v-6.01h4.79c.52,0,1.01.13,1.46.4.45.27.81.64,1.07,1.1Z"/>
        <path class="cls-14" d="M133.55,9.91c.29.23.48.49.57.77s.14.53.15.74c0,1.05-.58,1.6-1.76,1.66h-4.67s0,.25,0,.25c0,.27.02.49.07.64.05.16.13.27.25.34.11.07.27.12.46.15.19.02.47.04.82.04h4.36c.13,0,.19.06.19.18v.59c0,.13-.06.19-.19.19h-4.51c-.63,0-1.12-.07-1.48-.21s-.62-.36-.77-.67-.23-.72-.23-1.24v-1.5c0-.35.13-.7.4-1.05s.61-.65,1.02-.88c.42-.23.84-.35,1.28-.35h2.84c.52,0,.92.12,1.21.35ZM132.86,12.04c.09-.03.17-.09.26-.19.06-.07.11-.15.13-.24s.04-.21.05-.37c0-.07-.02-.16-.06-.27-.04-.11-.11-.21-.22-.3-.11-.09-.26-.14-.45-.14h-3.1c-.22,0-.46.07-.72.21s-.48.33-.65.56c-.18.24-.27.5-.27.79h4.61c.19,0,.33-.02.42-.05Z"/>
        <path class="cls-14" d="M141.43,12.08c.4.02.74.15,1.04.39.3.24.45.7.45,1.38,0,.36-.09.67-.27.91s-.41.42-.68.54c-.27.12-.54.18-.8.18h-6v-.98s5.97,0,5.97,0c.21,0,.4-.05.57-.14s.25-.31.25-.65c0-.21-.06-.37-.18-.46-.12-.09-.26-.15-.41-.17-.16-.02-.25-.02-.29-.02h-4.35c-.23,0-.48-.07-.74-.19-.26-.12-.48-.32-.67-.6-.19-.28-.28-.63-.28-1.07,0-.38.1-.7.3-.95.2-.25.43-.44.71-.55.27-.12.54-.18.79-.2h5.42v.98h-5.36c-.22,0-.43.05-.62.14-.19.1-.29.33-.29.71,0,.3.09.5.26.59.18.09.35.14.52.15h4.66Z"/>
      </g>
      <g>
        <path class="cls-3" d="M77.22,21.39h-.28s0,0,0-.05v-1.65c0-.11.04-.21.12-.32s.18-.19.3-.25c.12-.07.23-.1.33-.1h.53c.16,0,.31.02.43.07.12.05.22.12.3.21.08.09.13.18.17.27.04.09.06.18.06.25v.1s0,.01,0,.06c0,.04-.02.1-.04.16-.02.06-.05.13-.09.2-.04.07-.1.14-.17.2-.08.06-.17.11-.29.15-.12.04-.25.05-.41.04h-.96v.65ZM77.22,20.45h1.08c.17,0,.31-.04.4-.11.09-.07.15-.15.17-.22s.04-.14.04-.19v-.09c0-.06-.01-.13-.04-.21-.03-.08-.09-.16-.18-.23s-.22-.1-.39-.1h-.58c-.08,0-.15.02-.23.07-.08.05-.14.1-.19.17s-.07.14-.07.2v.7Z"/>
        <path class="cls-3" d="M81.62,19.26h-.99s-.11,0-.17,0c-.06,0-.12,0-.17.02-.05.02-.1.04-.14.08-.04.04-.07.08-.08.14s-.03.1-.03.14c0,.04,0,.11,0,.21v.87s0,.02-.02.02h-.25s-.02,0-.02-.02v-.89s0-.1,0-.19c0-.09.02-.18.05-.27.04-.09.1-.17.19-.24.06-.04.12-.08.18-.1.07-.02.13-.04.19-.05s.12-.01.17-.01h1.1v.29Z"/>
        <path class="cls-3" d="M83.43,19c.16,0,.29,0,.41.04.12.04.21.09.28.15.07.06.13.13.17.21.04.07.07.14.09.2.02.06.03.12.04.16s0,.07,0,.06v.1c0,.08-.02.16-.05.26-.04.1-.09.19-.17.28-.08.09-.18.16-.3.21s-.26.08-.43.07h-.33c-.16,0-.31-.01-.43-.07-.12-.05-.22-.12-.3-.21-.08-.09-.13-.18-.17-.28-.04-.1-.06-.18-.06-.26v-.1s0-.01,0-.06.02-.1.04-.16.05-.13.09-.2c.04-.07.1-.14.17-.21.07-.06.17-.12.28-.15.11-.04.25-.05.41-.04h.24ZM83.54,20.46c.22,0,.37-.05.46-.16s.14-.22.15-.34v-.05s0-.08,0-.08v-.05c-.02-.11-.07-.22-.15-.33-.09-.11-.24-.16-.46-.16h-.46c-.22,0-.37.05-.46.16-.09.11-.14.22-.15.33v.05s0,.08,0,.08v.05c.02.12.07.23.16.34.09.1.24.16.46.16h.46Z"/>
        <path class="cls-3" d="M87,18.36h.28s0,0,0,.05v1.68c0,.12-.01.22-.04.3s-.07.15-.12.2c-.06.05-.13.09-.22.11-.09.02-.21.04-.35.04h-.57c-.16,0-.31-.01-.43-.07-.12-.05-.23-.12-.3-.21-.08-.09-.14-.18-.17-.27-.04-.1-.06-.18-.06-.26v-.1s0-.01,0-.06c0-.05.02-.1.04-.16.02-.06.05-.13.09-.2.04-.07.1-.14.17-.2.08-.06.17-.11.29-.15.12-.04.25-.05.41-.04h.97v-.66ZM87,19.3h-1.08c-.18,0-.31.04-.4.11s-.15.15-.18.23c-.03.08-.04.14-.04.19v.08c0,.06.01.13.04.21.03.08.09.16.18.23.09.07.22.1.4.1h.75c.09,0,.15-.02.2-.06.05-.04.08-.09.1-.15.02-.07.03-.15.03-.24v-.71Z"/>
        <path class="cls-3" d="M89.48,20.41c.08-.03.14-.07.19-.12s.09-.12.12-.2c.03-.08.04-.16.04-.24v-.9h.29v.9c0,.16-.04.31-.12.45-.08.14-.19.25-.32.33-.13.08-.28.12-.44.12h-.56c-.16,0-.3-.04-.44-.12-.13-.08-.24-.19-.32-.33-.08-.14-.12-.29-.12-.45v-.9h.29s0,0,0,.02v.87c0,.08.01.16.04.24.03.08.07.15.12.2s.11.09.19.12c.08.03.15.04.23.04h.56c.08,0,.15-.01.23-.04Z"/>
        <path class="cls-3" d="M91.27,19.33c-.08.03-.14.07-.19.12s-.09.12-.12.19c-.03.08-.04.16-.04.23s.01.16.04.23c.03.08.07.14.12.19s.12.09.19.12.16.04.23.04h1.43v.29h-1.43c-.16,0-.3-.04-.44-.12-.13-.08-.24-.18-.32-.32-.08-.13-.12-.28-.12-.44s.04-.3.12-.44c.08-.13.18-.24.32-.32.13-.08.28-.12.44-.12h1.43v.29h-1.43c-.08,0-.16.01-.23.04Z"/>
        <path class="cls-3" d="M94.96,20.46v.29h-.54c-.15,0-.3-.04-.43-.11-.13-.08-.24-.18-.32-.31-.08-.13-.12-.27-.12-.43v-1.55h.29s0,0,0,.02v.64h.67s0,0,0,.02v.26s0,0-.03,0h-.65v.62c0,.13.03.23.1.32s.13.15.21.19c.04.02.09.04.16.05.07,0,.13,0,.18,0h.48Z"/>
        <path class="cls-3" d="M96.81,19c.16,0,.29,0,.41.04.12.04.21.09.28.15.07.06.13.13.17.21.04.07.07.14.09.2.02.06.03.12.04.16s0,.07,0,.06v.1c0,.08-.02.16-.06.26-.04.1-.09.19-.17.28-.08.09-.18.16-.3.21s-.26.08-.43.07h-.33c-.16,0-.3-.01-.43-.07s-.22-.12-.3-.21c-.08-.09-.13-.18-.17-.28-.04-.1-.06-.18-.06-.26v-.1s0-.01,0-.06c0-.05.02-.1.04-.16s.05-.13.09-.2c.04-.07.1-.14.17-.21.08-.06.17-.12.28-.15s.25-.05.41-.04h.24ZM96.93,20.46c.22,0,.37-.05.46-.16s.14-.22.15-.34v-.05s0-.08,0-.08v-.05c-.02-.11-.07-.22-.15-.33-.09-.11-.24-.16-.46-.16h-.46c-.22,0-.37.05-.46.16-.09.11-.14.22-.15.33v.05s0,.08,0,.08v.05c.02.12.07.23.16.34.09.1.24.16.46.16h.46Z"/>
        <path class="cls-3" d="M100.24,19.75c.12,0,.22.05.31.12.09.07.13.21.13.41,0,.11-.03.2-.08.27-.05.07-.12.12-.2.16-.08.03-.16.05-.24.05h-1.78v-.29s1.77,0,1.77,0c.06,0,.12-.01.17-.04.05-.03.08-.09.08-.19,0-.06-.02-.11-.05-.14-.04-.03-.08-.04-.12-.05s-.07,0-.08,0h-1.29c-.07,0-.14-.02-.22-.06-.08-.04-.14-.09-.2-.18-.06-.08-.08-.19-.08-.32,0-.11.03-.21.09-.28s.13-.13.21-.16c.08-.04.16-.05.23-.06h1.61v.29h-1.59c-.07,0-.13.01-.18.04-.06.03-.08.1-.08.21,0,.09.03.15.08.18.05.03.1.04.15.04h1.38Z"/>
        <path class="cls-3" d="M104.34,18.99v1.52c-.01.17-.05.33-.13.45-.09.16-.2.27-.32.34-.12.07-.27.11-.45.11h-1.24s-.02,0-.02-.02v-.25s0-.02.02-.02h1.24c.06,0,.12,0,.17-.01.05,0,.09-.03.13-.05.05-.04.1-.07.13-.1s.06-.06.08-.11l.04-.09h-1.13c-.13,0-.25-.02-.36-.08-.11-.05-.19-.11-.26-.18-.07-.07-.12-.15-.18-.26-.05-.11-.08-.22-.08-.33v-.92s0-.02,0-.02h.3s0,0,0,.02v.94c0,.06.01.12.04.18s.04.11.07.13c.01.01.04.04.07.07.03.03.08.07.14.09.06.03.13.05.22.06h1.24s0-1.47,0-1.47c0-.02,0-.02.02-.02h.25s.02,0,.02.02Z"/>
        <path class="cls-3" d="M107.55,19.75c.12,0,.22.05.31.12.09.07.13.21.13.41,0,.11-.03.2-.08.27-.05.07-.12.12-.2.16-.08.03-.16.05-.24.05h-1.78v-.29s1.77,0,1.77,0c.06,0,.12-.01.17-.04.05-.03.08-.09.08-.19,0-.06-.02-.11-.05-.14-.04-.03-.08-.04-.12-.05s-.07,0-.08,0h-1.29c-.07,0-.14-.02-.22-.06-.08-.04-.14-.09-.2-.18-.06-.08-.08-.19-.08-.32,0-.11.03-.21.09-.28.06-.07.13-.13.21-.16.08-.04.16-.05.23-.06h1.61v.29h-1.59c-.07,0-.13.01-.18.04-.06.03-.08.1-.08.21,0,.09.03.15.08.18.05.03.1.04.15.04h1.38Z"/>
        <path class="cls-3" d="M110.54,19.1c.08.07.14.14.17.23.03.08.04.16.04.22,0,.31-.17.48-.52.49h-1.38s0,.07,0,.07c0,.08,0,.14.02.19s.04.08.07.1c.03.02.08.04.14.04.06,0,.14.01.24.01h1.29s.06.02.06.05v.17s-.02.06-.06.06h-1.33c-.19,0-.33-.02-.44-.06-.11-.04-.18-.11-.23-.2s-.07-.21-.07-.37v-.44c0-.1.04-.21.12-.31.08-.1.18-.19.3-.26s.25-.1.38-.1h.84c.15,0,.27.03.36.1ZM110.34,19.73s.05-.03.08-.06c.02-.02.03-.04.04-.07,0-.03.01-.06.01-.11,0-.02,0-.05-.02-.08-.01-.03-.03-.06-.07-.09-.03-.03-.08-.04-.13-.04h-.92c-.07,0-.14.02-.21.06s-.14.1-.19.17-.08.15-.08.23h1.37c.06,0,.1,0,.12-.01Z"/>
        <path class="cls-3" d="M113.26,19.26h-.99s-.11,0-.17,0c-.06,0-.12,0-.17.02-.05.02-.1.04-.14.08-.04.04-.07.08-.08.14-.02.05-.03.1-.03.14,0,.04,0,.11,0,.21v.87s0,.02-.02.02h-.25s-.02,0-.02-.02v-.89s0-.1,0-.19c0-.09.02-.18.05-.27.03-.09.1-.17.19-.24.06-.04.12-.08.18-.1.07-.02.13-.04.19-.05.06,0,.12-.01.17-.01h1.1v.29Z"/>
        <path class="cls-3" d="M113.96,18.96l1.03,1.55h.04l1.03-1.55h.35l-1.04,1.55c-.08.13-.14.21-.16.24h-.4c-.05-.07-.1-.15-.16-.24l-1.03-1.55h.35Z"/>
        <path class="cls-3" d="M117.1,18.15v.31h-.31v-.31h.31ZM117.1,18.87v1.88h-.31v-1.88h.31Z"/>
        <path class="cls-3" d="M118.34,19.33c-.08.03-.14.07-.19.12s-.09.12-.12.19c-.03.08-.04.16-.04.23s.01.16.04.23c.03.08.07.14.12.19s.12.09.19.12.16.04.23.04h1.43v.29h-1.43c-.16,0-.3-.04-.44-.12-.13-.08-.24-.18-.32-.32-.08-.13-.12-.28-.12-.44s.04-.3.12-.44c.08-.13.18-.24.32-.32.13-.08.28-.12.44-.12h1.43v.29h-1.43c-.08,0-.16.01-.23.04Z"/>
        <path class="cls-3" d="M120.93,18.15v.31h-.31v-.31h.31ZM120.93,18.87v1.88h-.31v-1.88h.31Z"/>
        <path class="cls-3" d="M122.81,19c.16,0,.29,0,.41.04s.21.09.28.15c.07.06.13.13.17.21.04.07.07.14.09.2.02.06.03.12.04.16s0,.07,0,.06v.1c0,.08-.02.16-.06.26-.04.1-.09.19-.17.28-.08.09-.18.16-.3.21s-.26.08-.43.07h-.33c-.16,0-.3-.01-.43-.07-.12-.05-.22-.12-.3-.21-.08-.09-.13-.18-.17-.28-.04-.1-.06-.18-.06-.26v-.1s0-.01,0-.06.02-.1.04-.16.05-.13.09-.2c.04-.07.1-.14.17-.21.08-.06.17-.12.28-.15.12-.04.25-.05.41-.04h.24ZM122.92,20.46c.22,0,.37-.05.46-.16.09-.1.14-.22.15-.34v-.05s0-.08,0-.08v-.05c-.02-.11-.07-.22-.15-.33-.09-.11-.24-.16-.46-.16h-.46c-.22,0-.37.05-.46.16-.09.11-.14.22-.15.33v.05s0,.08,0,.08v.05c.02.12.07.23.16.34.09.1.24.16.46.16h.46Z"/>
        <path class="cls-3" d="M126.23,19.75c.12,0,.22.05.31.12.09.07.13.21.13.41,0,.11-.03.2-.08.27-.05.07-.12.12-.2.16-.08.03-.16.05-.24.05h-1.78v-.29s1.77,0,1.77,0c.06,0,.12-.01.17-.04.05-.03.08-.09.08-.19,0-.06-.02-.11-.05-.14-.04-.03-.08-.04-.12-.05s-.07,0-.08,0h-1.29c-.07,0-.14-.02-.22-.06-.08-.04-.14-.09-.2-.18-.06-.08-.08-.19-.08-.32,0-.11.03-.21.09-.28.06-.07.13-.13.21-.16.08-.04.16-.05.23-.06h1.61v.29h-1.59c-.07,0-.13.01-.18.04-.06.03-.08.1-.08.21,0,.09.03.15.08.18.05.03.1.04.15.04h1.38Z"/>
      </g>
      <rect class="cls-1" x="138.7" y="18.12" width="4.16" height="1.32"/>
      <rect class="cls-15" x="138.7" y="19.44" width="4.16" height=".66"/>
      <rect class="cls-2" x="138.7" y="20.1" width="4.16" height=".66"/>
      <rect class="cls-13" x="133.61" y="18.12" width="1.39" height="2.63"/>
      <rect class="cls-13" x="136.39" y="18.12" width="1.39" height="2.63"/>
      <rect class="cls-4" x="135" y="18.12" width="1.39" height="2.63"/>
      <polyline class="cls-10" points="132.68 20.76 128.52 20.76 128.52 19.44 132.68 19.44"/>
      <rect class="cls-12" x="128.52" y="18.12" width="1.39" height="1.32"/>
      <rect class="cls-4" x="129.91" y="18.12" width="2.77" height="1.32"/>
      <polygon class="cls-4" points="128.88 18.68 129.14 18.68 129.22 18.45 129.29 18.68 129.54 18.68 129.34 18.82 129.42 19.05 129.21 18.91 129.01 19.05 129.09 18.82 128.88 18.68"/>
    </g>
    <g>
      <path class="cls-6" d="M99.41,166.43h7.85v.02h5.72c.89,0,1.61.72,1.61,1.61v.02c0,.67-.42,1.25-1,1.49h1.71c.89,0,1.6.72,1.6,1.61v.02c0,.52-.25.98-.64,1.27h.08c.89,0,1.61.72,1.61,1.61v.02c0,.89-.72,1.6-1.61,1.6h-2c.77.12,1.37.78,1.37,1.58,0,.89-.72,1.61-1.61,1.61h-21.61l-.02-9.85h1.74c1.07-3.14,5.21-2.62,5.21-2.62"/>
      <path class="cls-7" d="M89.98,178.39v-8.9l4.4.03s1.26-1.53,1.99-2.15c.64-.54,1.4-.54,2.33-.53.53,0,13.83.04,13.83.04.71,0,1.28.57,1.28,1.28s-.57,1.28-1.28,1.28h-4.98s0,.46,0,.46h7.42c.7-.01,1.28.56,1.28,1.26,0,.71-.57,1.28-1.28,1.28h-7.42s0,.46,0,.46h8.5c.71-.01,1.28.56,1.28,1.26,0,.7-.57,1.28-1.28,1.28h-8.5s0,.47,0,.47h6.14c.71-.01,1.28.56,1.28,1.26,0,.71-.57,1.28-1.28,1.28h-8.83s0,0-.01,0h-.01l-14.89-.07Z"/>
      <path class="cls-6" d="M131.65,159.82h-7.78v.02h-3.93c-.88,0-1.59.72-1.59,1.61v.02c0,.67.41,1.25,1,1.49h-1.69c-.88,0-1.59.72-1.59,1.61v.02c0,.52.25.98.63,1.27h-.08c-.88,0-1.59.72-1.59,1.61v.02c0,.89.71,1.6,1.59,1.6h1.98c-.77.12-1.36.78-1.36,1.58,0,.89.71,1.61,1.59,1.61h19.69l.02-9.85h-1.72c-1.06-3.14-5.17-2.62-5.17-2.62"/>
      <path class="cls-7" d="M141,171.78v-8.9l-4.37.03s-1.25-1.53-1.98-2.15c-.64-.54-1.39-.54-2.32-.53-.52,0-11.97.04-11.97.04-.7,0-1.27.57-1.27,1.28,0,.71.57,1.28,1.26,1.28h3.54s0,.46,0,.46h-5.96c-.7-.01-1.27.56-1.27,1.26,0,.71.57,1.28,1.26,1.28h5.96s0,.46,0,.46h-7.03c-.7-.01-1.27.56-1.27,1.26,0,.7.57,1.28,1.27,1.28h7.03s0,.47,0,.47h-4.69c-.7-.01-1.27.56-1.27,1.26,0,.71.57,1.28,1.27,1.28h7.01s0,0,.01,0h.01l14.76-.07Z"/>
      <path class="cls-16" d="M131.03,167.07l-5.73.02c-.63,0-1.37-.7-1.37-1.66,0-.58.43-1.42,1.38-1.43h4.73s1.69-3.54,1.69-3.54c1.55,0,1.83.02,2.87.7.61.4,1.94,1.99,1.94,1.99l4.47.04v8.59h-4.95l-5.02-4.71Z"/>
      <path class="cls-6" d="M141,171.53v.27h-5l-5.02-4.71h-5.68c-.35.02-.73-.18-1.02-.5-.31-.35-.49-.81-.49-1.28h0c0-.65.47-1.56,1.52-1.57h4.73s0,.26,0,.26h-4.73c-.86.02-1.25.77-1.25,1.3h0c0,.41.15.8.42,1.1.24.27.54.43.82.42l5.79-.02,5.02,4.71h4.9Z"/>
      <rect class="cls-6" x="138.01" y="161.67" width="4.91" height="10.75"/>
      <rect class="cls-6" x="103.62" y="157.99" width="17.07" height="22.71"/>
      <rect class="cls-4" x="104.53" y="158.84" width="15.33" height="21.08"/>
      <path class="cls-5" d="M118.28,172.92h-12.35c-.22,0-.4-.18-.4-.4v-.07c0-.22.18-.4.4-.4h12.35c.22,0,.4.18.4.4v.07c0,.22-.18.4-.4.4"/>
      <path class="cls-5" d="M118.07,164.84h-11.92c-.22,0-.4-.18-.4-.4v-.07c0-.22.18-.4.4-.4h11.92c.22,0,.4.18.4.4v.07c0,.22-.18.4-.4.4"/>
      <path class="cls-5" d="M114.03,177.23h-8.11c-.22,0-.4-.18-.4-.4v-.07c0-.22.18-.4.4-.4h8.11c.22,0,.4.18.4.4v.07c0,.22-.18.4-.4.4"/>
      <path class="cls-5" d="M118.01,161.83h-7.62c-.22,0-.4-.18-.4-.4v-.07c0-.22.18-.4.4-.4h7.62c.22,0,.4.18.4.4v.07c0,.22-.18.4-.4.4"/>
      <path class="cls-11" d="M112.81,169.26h-6.36c-.31,0-.55-.25-.55-.55v-.78c0-.31.25-.55.55-.55h6.36c.3,0,.55.25.55.55v.78c0,.31-.25.55-.55.55"/>
      <path class="cls-11" d="M118.27,169.26h-3.02c-.31,0-.55-.25-.55-.55v-.78c0-.31.25-.55.55-.55h3.02c.3,0,.55.25.55.55v.78c0,.31-.25.55-.55.55"/>
      <rect class="cls-6" x="105.08" y="160.38" width="17.07" height="22.71"/>
      <rect class="cls-4" x="105.99" y="161.24" width="15.33" height="21.08"/>
      <path class="cls-5" d="M119.74,174.27h-12.35c-.22,0-.4-.18-.4-.4v-.07c0-.22.18-.4.4-.4h12.35c.22,0,.4.18.4.4v.07c0,.22-.18.4-.4.4"/>
      <path class="cls-5" d="M119.44,166.89h-11.92c-.22,0-.4-.18-.4-.4v-.07c0-.22.18-.4.4-.4h11.92c.22,0,.4.18.4.4v.07c0,.22-.18.4-.4.4"/>
      <path class="cls-5" d="M119.74,176.83h-12.35c-.22,0-.4-.18-.4-.4v-.07c0-.22.18-.4.4-.4h12.35c.22,0,.4.18.4.4v.07c0,.22-.18.4-.4.4"/>
      <path class="cls-5" d="M115.48,179.63h-8.11c-.22,0-.4-.18-.4-.4v-.07c0-.22.18-.4.4-.4h8.11c.22,0,.4.18.4.4v.07c0,.22-.18.4-.4.4"/>
      <path class="cls-5" d="M119.47,164.23h-7.62c-.22,0-.4-.18-.4-.4v-.07c0-.22.18-.4.4-.4h7.62c.22,0,.4.18.4.4v.07c0,.22-.18.4-.4.4"/>
      <path class="cls-11" d="M113.96,170.79h-6.38c-.3,0-.54-.24-.54-.54v-.86c0-.3.24-.54.54-.54h6.38c.3,0,.54.24.54.54v.86c0,.3-.24.54-.54.54"/>
      <path class="cls-6" d="M119.42,170.79h-3.05c-.3,0-.54-.24-.54-.54v-.86c0-.3.24-.54.54-.54h3.05c.3,0,.54.24.54.54v.86c0,.3-.24.54-.54.54"/>
      <path class="cls-16" d="M101.04,173.68l5.78.02c.63,0,1.38-.7,1.38-1.66,0-.58-.43-1.42-1.39-1.43h-4.77s-1.7-3.54-1.7-3.54c-1.56,0-2.77.02-3.82.7-.61.4-1.95,1.88-1.95,1.88l-3.59.04v8.71h4.99l5.07-4.71Z"/>
      <path class="cls-6" d="M90.98,178.14v.27h5.04l5.07-4.71h5.73c.35.02.74-.18,1.03-.5.32-.35.49-.81.49-1.28h0c0-.65-.47-1.56-1.53-1.57h-4.77s0,.26,0,.26h4.77c.87.02,1.26.77,1.26,1.3h0c0,.41-.15.8-.42,1.1-.24.27-.55.43-.83.42l-5.83-.02-5.07,4.71h-4.94Z"/>
      <rect class="cls-6" x="87.52" y="168.29" width="4.95" height="10.75"/>
    </g>
    <g>
      <path class="cls-6" d="M88.03,82.29h11v.03h6.99c1.08,0,1.96.88,1.96,1.96v.03c0,.82-.51,1.53-1.23,1.82h2.09c1.08,0,1.96.88,1.96,1.96v.03c0,.64-.31,1.2-.78,1.56h.1c1.08,0,1.96.88,1.96,1.96v.03c0,1.08-.88,1.96-1.96,1.96h-2.45c.95.14,1.68.95,1.68,1.93,0,1.09-.88,1.96-1.96,1.96h-26.42l-.03-12.04h2.33c2.32-3.63,4.76-3.2,4.76-3.2"/>
      <path class="cls-7" d="M77.9,96.92v-10.88l5.38.04s1.54-1.87,2.44-2.63c.79-.66,1.71-.66,2.85-.65.64,0,16.91.05,16.91.05.86,0,1.56.7,1.56,1.56,0,.87-.7,1.56-1.56,1.56h-6.08s0,.57,0,.57l9.07-.02c.86,0,1.56.7,1.56,1.56,0,.86-.7,1.56-1.56,1.56l-9.07.02v.55s10.39-.02,10.39-.02c.86,0,1.56.7,1.56,1.56,0,.86-.7,1.56-1.56,1.56l-10.39.02v.55s7.5-.02,7.5-.02c.86,0,1.56.7,1.57,1.56,0,.87-.7,1.57-1.56,1.57h-10.79s-.01,0-.02,0c0,0-.01,0-.01,0l-18.2-.09Z"/>
      <path class="cls-6" d="M129.02,72.98h-9.6v.03h-4.85c-1.08,0-1.96.88-1.96,1.96v.03c0,.82.51,1.53,1.23,1.82h-2.09c-1.08,0-1.96.88-1.96,1.96v.03c0,.64.31,1.2.78,1.56h-.1c-1.08,0-1.96.88-1.96,1.96v.03c0,1.08.88,1.96,1.96,1.96h2.45c-.95.14-1.67.95-1.67,1.93,0,1.09.88,1.96,1.96,1.96h24.28l.03-12.04h-2.26c-2.15-3.71-6.24-3.2-6.24-3.2"/>
      <path class="cls-7" d="M140.55,87.61v-10.88l-5.39.04s-1.54-1.87-2.44-2.63c-.79-.66-1.71-.66-2.85-.65-.64,0-14.76.05-14.76.05-.86,0-1.56.7-1.56,1.56,0,.87.7,1.56,1.56,1.56h3.94s0,.57,0,.57l-6.92-.02c-.86,0-1.56.7-1.56,1.56,0,.86.7,1.56,1.56,1.56l6.92.02v.55s-8.24-.02-8.24-.02c-.86,0-1.56.7-1.56,1.56,0,.86.7,1.56,1.56,1.56l8.24.02v.55s-5.36-.02-5.36-.02c-.86,0-1.56.7-1.57,1.56,0,.87.7,1.57,1.56,1.57h8.65s.01,0,.02,0c0,0,.01,0,.01,0l18.2-.09Z"/>
      <path class="cls-16" d="M128.26,81.85l-7.07.02c-.77,0-1.69-.86-1.69-2.03,0-.71.53-1.74,1.7-1.74l5.83-.02,2.08-4.31c1.91,0,2.26.02,3.54.85.75.49,2.39,2.44,2.39,2.44l5.51.05v10.5h-6.1l-6.19-5.76Z"/>
      <path class="cls-6" d="M140.55,87.3v.34h-6.17l-6.19-5.76-7,.02c-.43,0-.9-.23-1.26-.63-.39-.43-.6-.98-.6-1.57h0c0-.79.58-1.91,1.87-1.91l5.83-.02v.34l-5.83.02c-1.06,0-1.54.92-1.54,1.57h0c0,.5.18.98.52,1.35.29.33.67.52,1.01.52l7.13-.02,6.19,5.76h6.04Z"/>
      <rect class="cls-6" x="136.86" y="75.25" width="6.06" height="13.15"/>
      <path class="cls-6" d="M125.2,116.2v-9.25h-.03v-6.75c0-1.04-.85-1.89-1.89-1.89h-.03c-.79,0-1.47.49-1.75,1.18v-2.01c0-1.05-.85-1.89-1.89-1.89h-.03c-.61,0-1.15.3-1.5.75v-.09c0-1.04-.85-1.89-1.89-1.89h-.03c-1.05,0-1.89.85-1.89,1.89v2.36c-.14-.91-.92-1.62-1.86-1.62-1.05,0-1.89.85-1.89,1.89v25.48l11.61.03v-2.23c3.79-2.08,3.09-5.96,3.09-5.96"/>
      <path class="cls-7" d="M111.09,127.32h10.49l-.04-5.19s1.81-1.48,2.54-2.35c.64-.76.64-1.65.63-2.75,0-.62-.04-16.31-.04-16.31,0-.83-.67-1.51-1.51-1.51-.83,0-1.51.67-1.51,1.5v5.87s-.54,0-.54,0l.02-8.74c0-.83-.67-1.51-1.5-1.51-.83,0-1.51.67-1.51,1.5l-.02,8.74h-.53s.02-10.02.02-10.02c0-.83-.67-1.51-1.51-1.51-.83,0-1.51.67-1.51,1.51l-.02,10.02h-.53s.01-7.24.01-7.24c0-.83-.67-1.51-1.5-1.51-.83,0-1.51.67-1.51,1.5v10.41s0,.01,0,.02c0,0,0,.01,0,.01l.08,17.55Z"/>
      <rect class="cls-11" x="94.61" y="71.63" width="21.03" height="27.98"/>
      <rect class="cls-4" x="95.73" y="72.69" width="18.89" height="25.97"/>
      <path class="cls-5" d="M112.64,88.75h-15.12c-.29,0-.53-.24-.53-.53s.24-.53.53-.53h15.12c.29,0,.53.24.53.53s-.24.53-.53.53"/>
      <path class="cls-5" d="M112.22,78.57h-14.6c-.29,0-.53-.24-.53-.53s.24-.53.53-.53h14.6c.29,0,.53.24.53.53s-.24.53-.53.53"/>
      <path class="cls-5" d="M112.26,80.93h-14.6c-.29,0-.53-.24-.53-.53s.24-.53.53-.53h14.6c.29,0,.53.24.53.53s-.24.53-.53.53"/>
      <path class="cls-5" d="M112.64,91.02h-15.12c-.29,0-.53-.24-.53-.53s.24-.53.53-.53h15.12c.29,0,.53.24.53.53s-.24.53-.53.53"/>
      <path class="cls-5" d="M112.64,93.17h-15.12c-.29,0-.53-.24-.53-.53s.24-.53.53-.53h15.12c.29,0,.53.24.53.53s-.24.53-.53.53"/>
      <path class="cls-5" d="M107.39,95.34h-9.91c-.29,0-.53-.24-.53-.53s.24-.53.53-.53h9.91c.29,0,.53.24.53.53s-.24.53-.53.53"/>
      <path class="cls-5" d="M112.3,76.37h-9.31c-.29,0-.53-.24-.53-.53s.24-.53.53-.53h9.31c.29,0,.53.24.53.53s-.24.53-.53.53"/>
      <path class="cls-11" d="M104.78,85.8h-6.3c-.8,0-1.45-.65-1.45-1.45s.65-1.44,1.45-1.44h6.3c.8,0,1.45.65,1.45,1.44s-.65,1.45-1.45,1.45"/>
      <path class="cls-11" d="M111.5,85.8h-2.2c-.8,0-1.44-.65-1.44-1.45s.65-1.44,1.44-1.44h2.2c.8,0,1.45.65,1.45,1.44s-.65,1.45-1.45,1.45"/>
      <rect class="cls-11" x="101.77" y="85.62" width="21.03" height="27.98"/>
      <rect class="cls-4" x="102.89" y="86.67" width="18.89" height="25.97"/>
      <path class="cls-5" d="M119.8,102.73h-15.12c-.29,0-.53-.24-.53-.53s.24-.53.53-.53h15.12c.29,0,.53.24.53.53s-.24.53-.53.53"/>
      <path class="cls-5" d="M119.38,92.55h-14.6c-.29,0-.53-.24-.53-.53s.24-.53.53-.53h14.6c.29,0,.53.24.53.53s-.24.53-.53.53"/>
      <path class="cls-5" d="M119.42,94.91h-14.6c-.29,0-.53-.24-.53-.53s.24-.53.53-.53h14.6c.29,0,.53.24.53.53s-.24.53-.53.53"/>
      <path class="cls-5" d="M119.8,105.01h-15.12c-.29,0-.53-.24-.53-.53s.24-.53.53-.53h15.12c.29,0,.53.24.53.53s-.24.53-.53.53"/>
      <path class="cls-5" d="M119.8,107.15h-15.12c-.29,0-.53-.24-.53-.53s.24-.53.53-.53h15.12c.29,0,.53.24.53.53s-.24.53-.53.53"/>
      <path class="cls-5" d="M114.55,109.33h-9.91c-.29,0-.53-.24-.53-.53s.24-.53.53-.53h9.91c.29,0,.53.24.53.53s-.24.53-.53.53"/>
      <path class="cls-5" d="M119.46,90.35h-9.31c-.29,0-.53-.24-.53-.53s.24-.53.53-.53h9.31c.29,0,.53.24.53.53s-.24.53-.53.53"/>
      <path class="cls-11" d="M111.94,99.78h-6.3c-.8,0-1.45-.65-1.45-1.45s.65-1.44,1.45-1.44h6.3c.8,0,1.45.65,1.45,1.44s-.65,1.45-1.45,1.45"/>
      <path class="cls-11" d="M118.66,99.78h-2.2c-.8,0-1.44-.65-1.44-1.45s.65-1.44,1.44-1.44h2.2c.8,0,1.45.65,1.45,1.44s-.65,1.45-1.45,1.45"/>
      <path class="cls-16" d="M90.2,91.16l7.07.02c.77,0,1.69-.86,1.69-2.03,0-.71-.53-1.74-1.7-1.74l-5.83-.02-2.08-4.31c-1.91,0-2.26.02-3.54.85-.75.49-2.39,2.44-2.39,2.44l-5.51.05v10.5h6.1l6.19-5.76Z"/>
      <path class="cls-6" d="M77.9,96.6v.34h6.17l6.19-5.76,7,.02c.43,0,.9-.23,1.26-.63.39-.43.6-.98.6-1.57h0c0-.79-.58-1.91-1.87-1.91l-5.83-.02v.34l5.83.02c1.06,0,1.54.92,1.54,1.57h0c0,.5-.19.98-.52,1.35-.3.33-.67.52-1.01.52l-7.13-.02-6.19,5.76h-6.04Z"/>
      <rect class="cls-6" x="74.89" y="84.56" width="6.06" height="13.15"/>
      <path class="cls-16" d="M116.65,115.47l-.02-6.81c0-.74.83-1.63,1.96-1.63.69,0,1.68.51,1.68,1.64l.02,5.62,4.15,2.01c0,1.84-.02,2.18-.82,3.41-.47.72-2.35,2.3-2.35,2.3l-.05,5.32h-10.13v-5.88l5.55-5.97Z"/>
      <path class="cls-6" d="M111.4,127.32h-.32v-5.95l5.55-5.97-.02-6.75c0-.41.23-.87.61-1.21.41-.37.95-.58,1.51-.58h0c.76,0,1.84.56,1.84,1.8l.02,5.62h-.32s-.01-5.62-.01-5.62c0-1.02-.89-1.48-1.52-1.48h0c-.48,0-.94.18-1.29.5-.31.28-.5.65-.5.97l.02,6.88-5.55,5.97v5.82Z"/>
      <rect class="cls-6" x="110.34" y="124.39" width="12.68" height="5.84"/>
    </g>
  </g>
</svg>