<?xml version="1.0" encoding="UTF-8"?>
<svg xmlns="http://www.w3.org/2000/svg" xmlns:xlink="http://www.w3.org/1999/xlink" viewBox="0 0 174.96 202.87">
  <defs>
    <style>
      .cls-1 {
        fill: #646365;
      }

      .cls-2 {
        fill: #868486;
      }

      .cls-3 {
        fill: #fff;
      }

      .cls-4 {
        fill: #115a9f;
      }

      .cls-5 {
        fill: #625f60;
      }

      .cls-6 {
        fill: #505050;
      }

      .cls-7 {
        fill: none;
      }

      .cls-8 {
        fill: #d00e4a;
      }

      .cls-9 {
        clip-path: url(#clippath-1);
      }

      .cls-10 {
        fill: #d00e4d;
      }

      .cls-11 {
        fill: #d7d5d6;
      }

      .cls-12 {
        isolation: isolate;
      }

      .cls-13 {
        fill: #d00e4c;
      }

      .cls-14 {
        fill: #636061;
      }

      .cls-15 {
        fill: #d92d5f;
      }

      .cls-16 {
        fill: #9d9a9c;
      }

      .cls-17 {
        fill: #d20f48;
      }

      .cls-18 {
        fill: #333233;
      }

      .cls-19 {
        fill: #48a98e;
      }

      .cls-20 {
        mix-blend-mode: screen;
        opacity: .1;
      }

      .cls-21 {
        clip-path: url(#clippath);
      }

      .cls-22 {
        fill: #828384;
      }

      .cls-23 {
        fill: #038461;
      }
    </style>
    <clipPath id="clippath">
      <rect class="cls-7" x="140.35" y="87.14" width="25.74" height="25.74"/>
    </clipPath>
    <clipPath id="clippath-1">
      <rect class="cls-7" x="100.24" y="92.86" width="23.29" height="23.3"/>
    </clipPath>
  </defs>
  <g class="cls-12">
    <g id="Capa_2">
      <g id="Capa_1-2" data-name="Capa_1">
        <g>
          <g>
            <path class="cls-13" d="M40.62,24.01c.14.02.36.08.68.19.31.11.68.32,1.09.63.41.31.77.78,1.08,1.4.31.62.46,1.41.46,2.36s-.18,1.67-.54,2.27c-.36.6-.79,1.06-1.29,1.35-.5.29-.97.47-1.42.53h-7.62v-8.73h7.57ZM40.55,31.56c.23-.04.52-.14.84-.3.32-.16.63-.46.92-.9.29-.43.43-1.03.43-1.78,0-.88-.15-1.57-.45-2.07-.3-.5-.62-.84-.95-1.01-.33-.18-.61-.28-.84-.32h-6.28v6.38h6.33Z"/>
            <rect class="cls-13" x="44.74" y="24.02" width="1.19" height="8.7"/>
            <path class="cls-13" d="M52.41,26.39c.77-.01,1.46-.13,2.06-.34.61-.22,1.08-.43,1.4-.65.33-.22.55-.38.66-.49l.96-.91v8.75h-1.14v-6.32c-.5.3-1.08.55-1.75.76-.66.21-1.39.32-2.18.33-.83,0-1.61-.1-2.33-.32-.72-.22-1.36-.49-1.92-.82v6.36h-1.14v-8.75l1,.87c.14.13.39.3.75.53.36.23.86.45,1.51.68.64.23,1.35.33,2.11.32"/>
            <rect class="cls-10" x="59.19" y="27.71" width="2.29" height="1.16"/>
            <path class="cls-22" d="M71.19,27.82c.26.02.54.12.82.29.29.17.54.44.75.81s.31.84.31,1.42c0,.53-.12.97-.35,1.32-.23.35-.52.62-.85.79-.34.17-.67.26-1,.27h-7.55v-1.18h7.52c.23,0,.46-.08.69-.25.23-.17.34-.48.34-.95,0-.51-.08-.85-.26-1.04-.18-.19-.35-.29-.5-.32h-5.82c-.3,0-.61-.09-.94-.26-.33-.16-.61-.43-.84-.81-.23-.37-.35-.86-.35-1.45,0-.56.12-1.02.37-1.38.25-.36.55-.63.89-.8.35-.17.67-.27.98-.29h6.82v1.18h-6.74c-.12,0-.27.03-.44.11-.18.07-.34.21-.48.4-.15.2-.22.46-.22.8,0,.53.11.89.34,1.07.23.18.44.28.64.29h5.86Z"/>
            <path class="cls-22" d="M79.41,31.61c.26-.09.47-.23.64-.41.17-.18.3-.4.4-.67.09-.27.14-.54.14-.81v-3.03h.99v3.03c0,.55-.13,1.05-.39,1.52-.27.46-.63.83-1.09,1.1-.45.27-.94.41-1.47.41h-1.88c-.54,0-1.03-.13-1.48-.41-.45-.27-.81-.64-1.07-1.1-.27-.46-.4-.97-.4-1.52v-3.03h.99v3.03c0,.27.05.54.14.81.09.27.23.49.4.67.17.18.39.32.65.41.26.09.52.14.78.14h1.88c.26,0,.52-.05.78-.14"/>
            <path class="cls-22" d="M84.34,27.96c-.26.09-.48.22-.65.4-.17.17-.3.39-.39.66-.09.27-.14.53-.14.79s.05.52.14.79c.09.27.22.48.39.66.17.17.39.3.65.4.26.09.53.14.79.14h4.82v.97h-4.82c-.53,0-1.02-.13-1.48-.4-.45-.26-.81-.62-1.07-1.07-.26-.45-.39-.94-.39-1.48s.13-1.03.39-1.48c.26-.45.62-.81,1.07-1.07.45-.26.94-.4,1.48-.4h4.82v.97h-4.82c-.26,0-.52.05-.79.14"/>
            <path class="cls-22" d="M96.25,31.61c.26-.09.47-.23.64-.41.17-.18.3-.4.4-.67.09-.27.14-.54.14-.81v-3.03h.99v3.03c0,.55-.13,1.05-.39,1.52-.27.46-.63.83-1.09,1.1-.45.27-.94.41-1.47.41h-1.88c-.54,0-1.03-.13-1.48-.41-.45-.27-.81-.64-1.07-1.1-.27-.46-.4-.97-.4-1.52v-3.03h.99v3.03c0,.27.05.54.14.81.09.27.23.49.4.67.17.18.39.32.65.41.26.09.52.14.78.14h1.88c.26,0,.52-.05.78-.14"/>
            <path class="cls-22" d="M105.55,27.73h-3.35c-.17,0-.36,0-.57,0s-.41.03-.58.08c-.18.05-.34.15-.48.28-.14.13-.23.29-.28.47-.06.18-.09.34-.09.47,0,.13-.01.37-.01.71v2.93c0,.05-.02.08-.07.08h-.83s-.07-.03-.07-.08v-3.01c0-.12,0-.34,0-.64,0-.3.06-.61.18-.92.12-.31.33-.58.64-.82.19-.15.4-.26.62-.34.22-.08.43-.13.64-.16.2-.03.39-.04.56-.04h3.7v.99Z"/>
            <path class="cls-22" d="M112.58,29.35c.4.02.74.15,1.04.39.3.23.45.7.45,1.38,0,.36-.09.67-.27.91-.18.24-.41.42-.68.54-.27.12-.54.18-.8.18h-6v-.98s5.97,0,5.97,0c.21,0,.4-.05.57-.14.17-.09.25-.31.25-.65,0-.21-.06-.37-.18-.46-.12-.09-.26-.15-.41-.16-.15-.02-.25-.03-.29-.03h-4.35c-.23,0-.48-.07-.74-.19-.26-.12-.48-.32-.67-.6-.19-.28-.28-.64-.28-1.07,0-.38.1-.7.3-.95.2-.25.44-.44.71-.55.27-.12.54-.18.79-.2h5.42v.98h-5.36c-.22,0-.43.05-.62.14-.19.1-.29.33-.29.71,0,.3.09.5.26.6.18.09.35.14.52.15h4.66Z"/>
            <path class="cls-22" d="M122.15,28.22c.24.42.36.94.36,1.56,0-.1,0-.08,0,.06h0v.69c0,.58-.12,1.03-.33,1.34-.22.31-.48.52-.79.63-.31.11-.63.17-.98.18-.34,0-.6.02-.76.02h-3.15c-.49,0-.91-.18-1.26-.54-.35-.36-.52-.79-.52-1.3s.17-.95.52-1.31c.35-.36.76-.55,1.26-.55h4.83c0-.07-.02-.14-.04-.2-.02-.07-.04-.11-.06-.14-.09-.18-.23-.35-.39-.5-.17-.15-.36-.27-.57-.36-.21-.08-.42-.12-.65-.12h-4.64v-1.02h4.64c.54,0,1.03.14,1.5.42.22.13.41.29.57.47.16.18.31.4.46.65M121.45,30.67c0-.08,0-.29-.01-.62h-5.06c-.18,0-.33.08-.47.24-.13.16-.19.36-.19.58s.06.42.19.58c.13.16.29.24.47.24h3.28c.37,0,.67,0,.89-.02.22-.01.39-.07.53-.16.14-.1.23-.22.29-.35.05-.14.08-.3.1-.49"/>
            <path class="cls-22" d="M123.24,23.96h1.05,0v5.65c0,.41.1.78.3,1.1.2.32.44.57.73.75.29.18.57.27.83.27h2.15v1.05h-2.18c-.55,0-1.04-.17-1.48-.51-.44-.34-.78-.76-1.02-1.27-.25-.51-.37-1.01-.37-1.49v-5.55Z"/>
            <path class="cls-22" d="M138.46,23.96c.14.02.37.08.68.19.32.11.68.32,1.1.63.41.32.77.79,1.08,1.41.31.63.46,1.42.46,2.37s-.18,1.68-.54,2.29c-.36.61-.79,1.06-1.3,1.36-.5.3-.98.47-1.43.53h-7.67v-8.78h7.62ZM138.39,31.57c.24-.04.52-.14.85-.31.33-.16.63-.46.92-.9.29-.44.43-1.03.43-1.79,0-.89-.15-1.58-.45-2.09-.3-.5-.62-.84-.95-1.02-.33-.18-.61-.28-.84-.32h-6.32v6.42h6.37Z"/>
            <path class="cls-22" d="M143.73,25h-1.04v-1.04h1.04v1.04ZM143.73,32.73h-1.04v-6.35h1.04v6.35Z"/>
            <path class="cls-22" d="M151.46,27.15c.26.14.47.35.63.61.16.26.24.57.24.92v3.18c-.02.51-.14.98-.36,1.42-.22.44-.52.79-.9,1.06-.38.27-.82.42-1.33.45h-4.82v-.94h4.7c.3,0,.6-.09.9-.27.3-.18.53-.45.68-.8l.03-.08h-3.58c-.58,0-1.09-.14-1.53-.42-.44-.28-.77-.64-1-1.07-.23-.43-.35-.87-.35-1.32v-.21c0-.42.12-.85.36-1.27.24-.43.57-.78,1-1.06s.91-.42,1.45-.42h3.07c.27,0,.54.07.8.21M151.39,31.75v-3.18c0-.17-.06-.33-.18-.48-.12-.14-.28-.22-.47-.22h-2.98c-.5,0-.9.09-1.21.27-.3.18-.52.41-.64.68-.12.27-.19.56-.19.86v.23c0,.39.09.72.26,1,.17.28.4.48.67.62.28.14.56.21.86.21h3.87Z"/>
            <path class="cls-22" d="M154.47,25h-1.04v-1.04h1.04v1.04ZM154.47,32.73h-1.04v-6.35h1.04v6.35Z"/>
            <path class="cls-22" d="M160.48,31.75v.96h-1.81c-.52,0-1.01-.13-1.46-.39-.45-.26-.81-.61-1.07-1.05-.26-.44-.4-.92-.41-1.44v-5.25h.97v2.24h2.27v.96s-.03,0-.09,0h-2.18v2.08c0,.43.11.78.33,1.06.22.28.45.5.69.64.12.08.3.13.55.15.24.02.44.03.59.02h1.61Z"/>
            <path class="cls-22" d="M168.81,28.22c.24.42.36.94.36,1.56,0-.1,0-.08,0,.06h0v.69c0,.58-.12,1.03-.33,1.34-.22.31-.48.52-.79.63-.31.11-.63.17-.98.18-.34,0-.6.02-.76.02h-3.15c-.49,0-.91-.18-1.26-.54-.35-.36-.52-.79-.52-1.3s.17-.95.52-1.31c.35-.36.76-.55,1.26-.55h4.83c0-.07-.02-.14-.04-.2-.02-.07-.04-.11-.06-.14-.09-.18-.23-.35-.39-.5-.17-.15-.36-.27-.57-.36-.21-.08-.42-.12-.65-.12h-4.64v-1.02h4.64c.54,0,1.03.14,1.5.42.22.13.41.29.57.47.16.18.31.4.46.65M168.11,30.67c0-.08,0-.29-.01-.62h-5.06c-.18,0-.33.08-.47.24-.13.16-.19.36-.19.58s.06.42.19.58c.13.16.29.24.47.24h3.28c.37,0,.67,0,.89-.02.22-.01.39-.07.53-.16.14-.1.23-.22.29-.35.05-.14.08-.3.1-.49"/>
            <path class="cls-22" d="M169.9,23.96h1.05,0v5.65c0,.41.1.78.3,1.1.2.32.44.57.73.75.29.18.57.27.83.27h2.15v1.05h-2.18c-.55,0-1.04-.17-1.48-.51-.44-.34-.78-.76-1.02-1.27-.25-.51-.37-1.01-.37-1.49v-5.55Z"/>
          </g>
          <g>
            <path class="cls-2" d="M130.3,49.95c0,.34-.28.62-.62.62s-.62-.28-.62-.62.28-.62.62-.62.62.28.62.62"/>
            <path class="cls-2" d="M139.1,50.35h-7.98c-.19,0-.34-.15-.34-.34s.15-.34.34-.34h7.98c.19,0,.34.15.34.34s-.15.34-.34.34"/>
            <g>
              <rect class="cls-18" x="129.37" y="115.29" width="9.68" height="5.32"/>
              <path class="cls-5" d="M146.73,122.51h-25.04v-.5c0-.78,1.18-1.41,2.65-1.41h19.75c1.46,0,2.65.63,2.65,1.41v.5Z"/>
              <rect class="cls-5" x="100.11" y="70.46" width="68.39" height="45.75" rx=".86" ry=".86"/>
              <rect class="cls-3" x="102.51" y="72.86" width="63.58" height="40.01"/>
              <rect class="cls-15" x="102.51" y="111.43" width="63.58" height="1.45"/>
              <g class="cls-20">
                <g class="cls-21">
                  <polygon class="cls-3" points="166.09 87.14 166.09 103.9 157.11 112.88 140.35 112.88 166.09 87.14"/>
                </g>
              </g>
              <g class="cls-20">
                <g class="cls-9">
                  <polygon class="cls-3" points="100.24 92.86 123.52 116.16 110.62 116.16 100.24 105.77 100.24 92.86"/>
                </g>
              </g>
              <rect class="cls-14" x="118.13" y="71.88" width=".72" height="15.06" transform="translate(-16.47 125.58) rotate(-52.72)"/>
              <path class="cls-17" d="M103.52,80.79c6.71.04,12.18-5.37,12.22-12.08.04-6.71-5.37-12.18-12.08-12.22-6.71-.04-12.18,5.37-12.22,12.08-.04,6.71,5.37,12.18,12.08,12.22"/>
              <path class="cls-3" d="M103.53,79.31c5.89.03,10.7-4.71,10.73-10.61.03-5.89-4.71-10.7-10.61-10.73-5.89-.03-10.7,4.71-10.73,10.61-.03,5.89,4.71,10.7,10.61,10.73"/>
              <path class="cls-4" d="M110.58,67.65c.02-3.18-2.55-5.78-5.73-5.8l-.03,5.76,5.76.03Z"/>
              <path class="cls-4" d="M96.81,68.58c-.02,3.85,3.09,7.01,6.95,7.03,3.85.02,7.01-3.09,7.03-6.95v-.2s-6.78-.04-6.78-.04l.04-6.78h-.2c-3.85-.02-7.01,3.09-7.03,6.95M97.21,68.58c.02-3.53,2.89-6.45,6.42-6.54l-.04,6.78,6.78.04c-.13,3.52-3.09,6.36-6.62,6.34-3.63-.02-6.56-2.99-6.54-6.62"/>
              <polygon class="cls-14" points="153.49 76.15 145.61 83.8 145.11 83.28 152.99 75.63 153.49 76.15"/>
              <path class="cls-17" d="M162.73,81.21c6.71.04,12.18-5.37,12.22-12.08.04-6.71-5.37-12.18-12.08-12.22-6.71-.04-12.18,5.37-12.22,12.08-.04,6.71,5.37,12.18,12.08,12.22"/>
              <path class="cls-3" d="M162.74,79.73c5.89.03,10.7-4.71,10.73-10.61.03-5.89-4.71-10.7-10.61-10.73-5.89-.03-10.7,4.71-10.73,10.61-.04,5.89,4.71,10.7,10.61,10.73"/>
              <path class="cls-8" d="M165.88,61l-7.16-.04c-.36,0-.66.29-.66.66l-.08,13.15c0,.37.29.66.66.67l9.87.06c.37,0,.66-.29.67-.66l.06-10.33-3.35-3.51Z"/>
              <path class="cls-3" d="M165.16,62.1s-.08-.06-.14-.06l-6.79-.04c-.33,0-.28.25-.29.57l-.07,11.39c0,.32.27.57.6.58l9.02.05c.33,0,.61-.25.61-.57l.05-8.86c0-.05-.02-.1-.06-.14l-2.95-2.93Z"/>
              <path class="cls-8" d="M164.52,62.55l-7.16-.04c-.36,0-.66.29-.66.66l-.08,13.15c0,.37.29.66.66.67l9.87.06c.37,0,.66-.29.67-.66l.06-10.33-3.35-3.51Z"/>
              <path class="cls-3" d="M164.26,63.19l-6.34-.04c-.32,0-.59.27-.59.6l-.07,11.99c0,.33.26.6.58.61l8.73.05c.32,0,.59-.27.59-.6l.05-9.41-2.96-3.2Z"/>
              <path class="cls-8" d="M165.66,75.26l-6.97-.04c-.17,0-.3-.14-.3-.3,0-.17.14-.3.3-.3l6.97.04c.17,0,.3.14.3.3,0,.17-.14.3-.3.3"/>
              <path class="cls-8" d="M165.67,73.76l-6.97-.04c-.17,0-.3-.14-.3-.3,0-.17.14-.3.3-.3l6.97.04c.17,0,.3.14.3.3,0,.17-.14.3-.3.3"/>
              <path class="cls-8" d="M165.1,66.92l-6.97-.04c-.17,0-.3-.14-.3-.3,0-.17.14-.3.3-.3l6.97.04c.17,0,.3.14.3.3,0,.17-.14.3-.3.3"/>
              <path class="cls-8" d="M165.11,65.43l-6.97-.04c-.17,0-.3-.14-.3-.3,0-.17.14-.3.3-.3l6.97.04c.17,0,.3.14.3.3,0,.17-.14.3-.3.3"/>
              <rect class="cls-8" x="162.53" y="68.47" width=".8" height="6.11" transform="translate(90.47 234.05) rotate(-89.67)"/>
              <rect class="cls-8" x="162.54" y="66.82" width=".8" height="6.11" transform="translate(92.13 232.41) rotate(-89.67)"/>
              <rect class="cls-8" x="162.55" y="65.18" width=".8" height="6.11" transform="translate(93.78 230.79) rotate(-89.67)"/>
              <rect class="cls-16" x="113.06" y="82.19" width="42.48" height="26.51"/>
              <rect class="cls-11" x="113.98" y="82.94" width="40.64" height="25.01"/>
              <path class="cls-5" d="M139.53,87.43h-21.65c-.51,0-.92-.41-.92-.92s.41-.92.92-.92h21.65c.51,0,.92.41.92.92s-.41.92-.92.92"/>
              <path class="cls-3" d="M130.69,100.7h-12.25c-.69,0-1.25-.56-1.25-1.25v-1.72c0-.69.56-1.25,1.25-1.25h12.25c.69,0,1.25.56,1.25,1.25v1.72c0,.69-.56,1.25-1.25,1.25"/>
              <path class="cls-3" d="M149.71,102.71h-12.25c-.69,0-1.25-.56-1.25-1.25v-3.79c0-.69.56-1.25,1.25-1.25h12.25c.69,0,1.25.56,1.25,1.25v3.79c0,.69-.56,1.25-1.25,1.25"/>
              <path class="cls-5" d="M139.53,90.7h-21.65c-.51,0-.92-.41-.92-.92s.41-.92.92-.92h21.65c.51,0,.92.41.92.92s-.41.92-.92.92"/>
              <path class="cls-17" d="M130.59,106.19h-10.86c-.51,0-.92-.41-.92-.92s.41-.92.92-.92h10.86c.51,0,.92.41.92.92s-.41.92-.92.92"/>
              <path class="cls-19" d="M148.86,106.07h-10.86c-.51,0-.92-.41-.92-.92s.41-.92.92-.92h10.86c.51,0,.92.41.92.92s-.41.92-.92.92"/>
              <path class="cls-5" d="M139.53,93.96h-21.65c-.51,0-.92-.41-.92-.92s.41-.92.92-.92h21.65c.51,0,.92.41.92.92s-.41.92-.92.92"/>
              <path class="cls-17" d="M148.25,95.55c3.5.02,6.36-2.8,6.38-6.31.02-3.5-2.8-6.36-6.31-6.38s-6.36,2.81-6.38,6.31c-.02,3.51,2.81,6.36,6.31,6.38"/>
              <path class="cls-11" d="M150.24,87.18s0,.07,0,.1c0,.03,0,.07,0,.1,0,.05-.01.1-.02.15,0,.05-.02.11-.03.16-.03.1-.06.2-.1.29,0,.01-.01.03-.02.04-.02.05-.04.09-.07.14,0,.01-.01.03-.02.04-.09.16-.2.3-.33.43-.01.01-.03.02-.04.04-.02.02-.04.04-.07.06-.01.01-.03.02-.04.04-.03.03-.07.05-.1.08,0,0,0,0-.01.01-.05.03-.09.06-.14.09-.04.03-.09.05-.13.07,0,0,0,0,0,0-.09.04-.18.08-.28.1-.02,0-.04.01-.06.02-.1.02-.2.04-.3.05-.03,0-.07,0-.1,0h-.05s-.03,0-.05,0c-.03,0-.07,0-.1,0-.1,0-.2-.02-.3-.05-.02,0-.04-.01-.06-.02-.1-.03-.19-.06-.28-.11,0,0,0,0,0,0-.04-.02-.08-.04-.12-.06-.05-.03-.1-.06-.15-.1,0,0,0,0-.01,0-.03-.03-.07-.05-.1-.08-.01-.01-.03-.03-.04-.04-.02-.02-.04-.04-.06-.06-.02-.02-.05-.05-.07-.07-.11-.12-.21-.25-.29-.4,0-.01-.01-.03-.02-.04-.02-.05-.05-.09-.07-.14,0-.01-.01-.03-.02-.04-.04-.09-.07-.19-.1-.29-.01-.05-.02-.1-.03-.16,0-.05-.01-.1-.02-.15,0-.03,0-.07,0-.1,0-.03,0-.07,0-.1s0-.07,0-.1c0-.02,0-.04,0-.06,0-.01,0-.03,0-.04,0-.01,0-.03,0-.04,0-.04.01-.08.02-.11,0-.05.02-.11.03-.16.03-.1.06-.2.1-.29,0,0,0-.01,0-.02,0,0,0-.01,0-.02.02-.05.04-.09.07-.14,0-.01.01-.03.02-.04.09-.16.2-.3.33-.43.01-.01.03-.02.04-.04.02-.02.04-.04.07-.06.01-.01.03-.02.04-.04.03-.03.07-.05.1-.08,0,0,0,0,.01,0,.09-.06.18-.11.27-.16,0,0,0,0,0,0,.09-.04.18-.08.28-.1.02,0,.04-.01.06-.02.1-.02.2-.04.3-.05.03,0,.07,0,.1,0h.05s.03,0,.05,0c.03,0,.07,0,.1,0,.1,0,.2.03.3.05.02,0,.04.01.06.02.1.03.19.06.28.11,0,0,0,0,0,0,.1.04.19.1.27.16,0,0,0,0,.01.01.03.03.07.05.1.08.01.01.03.02.04.04.02.02.04.04.06.06.01.01.02.02.04.04.13.13.24.27.33.43,0,.01.01.03.02.04.02.05.05.09.07.14,0,.01.01.03.02.04.04.09.07.19.1.29.01.05.02.11.03.16,0,.05.02.1.02.15,0,.02,0,.03,0,.05,0,.02,0,.04,0,.05,0,.04,0,.07,0,.1"/>
              <path class="cls-11" d="M146.4,86.99s0,0,0,0h0s0,0,0,0M146.37,86.97s0,0,0,0c0,0,.02,0,.03.02,0,0,0,0,0,0,0,0-.02-.01-.03-.02"/>
              <path class="cls-11" d="M146.37,86.97s.02.01.03.02c0,0-.02,0-.02-.01,0,0,0,0,0,0"/>
              <polyline class="cls-11" points="146.4 86.99 146.4 86.99 146.4 86.99 146.4 86.99"/>
              <path class="cls-11" d="M151.51,91.13v2.09s-.05.04-.09.04l-6.29-.04s-.09,0-.09-.05v-2.08s.02-.07.02-.1c.03-.5.22-.95.52-1.28,0,0,.02-.02.03-.03.15-.16.32-.29.52-.39.01,0,.02-.01.04-.02.05-.03.11-.05.16-.07.01,0,.02,0,.04-.01.05-.02.1-.03.15-.04.06.06.13.12.19.18.17.14.36.26.56.36.04.02.08.03.11.05.15.06.3.11.45.14.15.03.3.04.46.05.18,0,.35-.02.52-.05.02,0,.04-.01.06-.01h.1c.08,0,.17-.06.25-.1.03-.01.07-.04.1-.06.16-.07.31-.17.44-.28.02,0,.03-.01.05-.02.09-.07.18-.14.26-.22.79.2,1.39.96,1.42,1.87,0,.03.01.07.01.1"/>
              <rect class="cls-14" x="126.61" y="73.78" width="16.59" height=".72" transform="translate(59.98 208.62) rotate(-89.67)"/>
              <path class="cls-17" d="M134.44,66.94c6.71.04,12.18-5.37,12.22-12.08.04-6.71-5.37-12.18-12.08-12.22-6.71-.04-12.18,5.37-12.22,12.08-.04,6.71,5.37,12.18,12.08,12.22"/>
              <path class="cls-3" d="M134.45,65.46c5.89.03,10.7-4.71,10.73-10.61.03-5.89-4.71-10.7-10.61-10.73-5.89-.03-10.7,4.71-10.73,10.61-.04,5.89,4.71,10.7,10.61,10.73"/>
              <rect class="cls-19" x="127.32" y="47.05" width="14.24" height="15.28"/>
              <path class="cls-3" d="M139.73,61.61h-10.58c-.53,0-.96-.43-.96-.96v-11.98c0-.53.43-.96.96-.96h10.58c.53,0,.96.43.96.96v11.98c0,.53-.43.96-.96.96"/>
              <path class="cls-2" d="M130.3,51.74c0,.34-.28.62-.62.62s-.62-.28-.62-.62.28-.62.62-.62.62.28.62.62"/>
              <path class="cls-2" d="M139.11,52.09h-7.98c-.19,0-.34-.15-.34-.34s.15-.34.34-.34h7.98c.19,0,.34.15.34.34s-.15.34-.34.34"/>
              <path class="cls-2" d="M130.29,53.46c0,.34-.27.61-.61.61s-.61-.27-.61-.61.27-.61.61-.61.61.27.61.61"/>
              <path class="cls-2" d="M139.07,53.8h-7.98c-.19,0-.34-.15-.34-.34s.15-.34.34-.34h7.98c.19,0,.34.15.34.34s-.15.34-.34.34"/>
              <path class="cls-2" d="M134.79,56.56h-4.63c-.22,0-.39-.17-.39-.39s.17-.39.39-.39h4.63c.22,0,.39.18.39.39s-.18.39-.39.39"/>
              <path class="cls-2" d="M134.79,58.35h-4.63c-.22,0-.39-.17-.39-.39s.17-.39.39-.39h4.63c.22,0,.39.18.39.39s-.18.39-.39.39"/>
              <path class="cls-2" d="M134.79,60.02h-4.63c-.22,0-.39-.17-.39-.39s.17-.39.39-.39h4.63c.22,0,.39.18.39.39s-.18.39-.39.39"/>
              <polygon class="cls-23" points="142.45 52.87 141.89 52.32 138.3 55.91 136.58 54.19 136.02 54.74 137.75 56.46 137.74 56.47 138.29 57.03 138.3 57.02 138.31 57.03 138.86 56.47 138.85 56.46 142.45 52.87"/>
              <polygon class="cls-23" points="142.36 56.97 141.8 56.42 138.21 60.01 136.48 58.29 135.93 58.84 137.65 60.57 137.65 60.57 138.2 61.13 138.21 61.12 138.22 61.13 138.77 60.57 138.76 60.57 142.36 56.97"/>
            </g>
          </g>
          <g>
            <rect class="cls-6" x="128.77" y="152.7" width="39.43" height="32.45"/>
            <rect class="cls-3" x="131.17" y="161.32" width="34.63" height="22.09"/>
            <rect class="cls-3" x="131.2" y="154.47" width="34.58" height="5.11"/>
            <rect class="cls-6" x="150.54" y="155.32" width="3.11" height="3.11"/>
            <rect class="cls-6" x="155.84" y="155.32" width="3.11" height="3.11"/>
            <rect class="cls-6" x="161.15" y="155.32" width="3.11" height="3.11"/>
            <path class="cls-5" d="M147.35,165.05h-13.98c-.35,0-.64-.28-.64-.63v-.18c0-.35.28-.64.64-.64h13.98c.35,0,.63.28.63.64v.18c0,.35-.28.63-.63.63"/>
            <path class="cls-5" d="M144.92,177.22h-9.14c-.69,0-1.25-.56-1.25-1.25v-1.76c0-.69.56-1.25,1.25-1.25h9.14c.69,0,1.25.56,1.25,1.25v1.76c0,.69-.56,1.25-1.25,1.25"/>
            <path class="cls-5" d="M145.58,181.14h-8.74c-.35,0-.63-.28-.63-.63v-.18c0-.35.28-.64.63-.64h8.74c.35,0,.63.28.63.64v.18c0,.35-.28.63-.63.63"/>
            <path class="cls-5" d="M159.98,181.04h-8.74c-.35,0-.63-.28-.63-.63v-.18c0-.35.28-.64.63-.64h8.74c.35,0,.63.28.63.64v.18c0,.35-.28.63-.63.63"/>
            <path class="cls-5" d="M147.35,170.2h-13.98c-.35,0-.64-.28-.64-.63v-.18c0-.35.28-.64.64-.64h13.98c.35,0,.63.28.63.64v.18c0,.35-.28.63-.63.63"/>
            <path class="cls-17" d="M157.58,175.57c3.44.02,6.25-2.76,6.27-6.2.02-3.44-2.76-6.25-6.2-6.27-3.44-.02-6.25,2.76-6.27,6.2s2.76,6.25,6.2,6.27"/>
            <path class="cls-11" d="M159.54,167.34s0,.07,0,.1,0,.07,0,.1c0,.05-.01.1-.02.15,0,.05-.02.11-.03.16-.02.1-.06.19-.1.29,0,.01-.01.03-.02.04-.02.05-.04.09-.07.13,0,.01-.01.03-.02.04-.09.16-.2.3-.32.42-.01.01-.02.02-.04.03-.02.02-.04.04-.06.06-.02.01-.03.02-.04.04-.03.03-.07.05-.1.07,0,0,0,0-.01.01-.04.03-.09.06-.14.09-.04.03-.09.05-.13.07,0,0,0,0,0,0-.09.04-.18.08-.27.1-.02,0-.04.01-.06.02-.1.02-.19.04-.29.05-.03,0-.06,0-.1,0h-.05s-.03,0-.05,0c-.03,0-.07,0-.1,0-.1,0-.2-.03-.29-.05-.02,0-.04-.01-.06-.02-.09-.03-.19-.06-.27-.1,0,0,0,0,0,0-.04-.02-.08-.04-.12-.06-.05-.03-.1-.06-.15-.1,0,0-.01,0-.01,0-.03-.03-.07-.05-.1-.08-.01-.01-.03-.02-.04-.04-.02-.02-.04-.04-.06-.06-.02-.02-.05-.04-.07-.07-.11-.12-.21-.25-.29-.39,0-.01-.01-.03-.02-.04-.02-.04-.04-.09-.07-.14,0-.01-.01-.03-.02-.04-.04-.09-.07-.19-.1-.29-.01-.05-.02-.1-.03-.16,0-.05-.01-.1-.02-.15,0-.03,0-.07,0-.1,0-.03,0-.07,0-.1,0-.03,0-.07,0-.1,0-.02,0-.04,0-.06,0-.01,0-.03,0-.04,0-.01,0-.02,0-.04,0-.04.01-.07.02-.11,0-.05.02-.11.03-.16.03-.1.06-.19.1-.29,0,0,0-.01,0-.02,0,0,0-.01,0-.02.02-.05.04-.09.07-.13,0-.01.01-.03.02-.04.09-.16.2-.3.32-.42.01-.01.02-.02.04-.03.02-.02.04-.04.06-.06.01-.01.03-.02.04-.04.03-.03.07-.05.1-.08,0,0,0,0,.01,0,.09-.06.18-.11.27-.15,0,0,0,0,0,0,.09-.04.18-.08.28-.1.02,0,.04-.01.06-.02.09-.02.19-.04.29-.05.03,0,.06,0,.1,0,.02,0,.03,0,.05,0,.02,0,.03,0,.05,0,.03,0,.06,0,.1,0,.1,0,.2.02.29.05.02,0,.04.01.06.02.1.03.19.06.27.1,0,0,0,0,0,0,.09.04.18.1.27.16,0,0,0,0,.01,0,.03.03.07.05.1.08.01.01.03.03.04.04.02.02.04.04.06.06.01.01.02.02.04.03.12.12.23.27.32.42,0,.01.01.03.02.04.02.04.05.09.07.14,0,.01.01.03.02.04.04.09.07.19.09.29.01.05.02.1.03.16,0,.05.02.1.02.15,0,.02,0,.03,0,.05,0,.02,0,.04,0,.05,0,.03,0,.07,0,.1"/>
            <path class="cls-11" d="M155.77,167.15h0s0,0,0,0M155.73,167.13s0,0,0,0c0,0,.02,0,.03.01,0,0,0,0,0,0,0,0-.02,0-.03-.01"/>
            <path class="cls-11" d="M155.73,167.13s.02.01.03.01c0,0-.02,0-.02-.01,0,0,0,0,0,0"/>
            <polyline class="cls-11" points="155.77 167.15 155.77 167.15 155.77 167.15 155.77 167.15"/>
            <path class="cls-11" d="M160.79,171.22v2.05s-.05.04-.09.04l-6.18-.04s-.09,0-.09-.05v-2.05s.02-.07.02-.1c.03-.49.22-.93.51-1.26,0-.01.02-.02.03-.03.15-.16.32-.29.51-.39.01,0,.02-.01.03-.02.05-.02.11-.05.16-.07.01,0,.02,0,.04-.01.05-.02.1-.03.15-.04.06.06.12.12.19.18.17.14.35.26.55.35.04.02.07.03.11.05.15.06.29.1.44.13.15.03.3.04.45.05.18,0,.35-.02.51-.05.02,0,.04-.01.06-.01h.09c.08,0,.16-.06.24-.1.03-.01.06-.04.1-.06.15-.07.3-.17.44-.27.01,0,.03-.01.04-.02.09-.07.18-.14.26-.22.77.19,1.36.94,1.4,1.83,0,.03.01.07.01.1"/>
            <path class="cls-3" d="M138.61,147.4c0,5.54-4.49,10.02-10.02,10.02s-10.02-4.49-10.02-10.02,4.49-10.02,10.02-10.02,10.02,4.49,10.02,10.02"/>
            <path class="cls-4" d="M136.36,146.22c.02-3.54-2.84-6.43-6.38-6.45l-.04,6.42,6.42.04Z"/>
            <path class="cls-4" d="M121.02,147.25c-.03,4.29,3.44,7.8,7.73,7.82,4.29.02,7.8-3.44,7.82-7.73v-.23s-7.55-.04-7.55-.04l.04-7.55h-.23c-4.29-.03-7.8,3.44-7.82,7.73"/>
            <path class="cls-3" d="M121.92,147.53c.02-3.54,2.9-6.47,6.44-6.56l-.04,6.8,6.8.04c-.13,3.53-3.1,6.38-6.64,6.36-3.64-.02-6.58-3-6.56-6.64"/>
            <path class="cls-3" d="M173.52,155.53v.33c0,.38-.31.69-.69.69h-12.55c-.38,0-.69-.31-.69-.69v-15.57c0-.38.31-.69.69-.69s.69-.31.69-.69v-.59c0-.38.31-.69.69-.69h8.76c.18,0,.36.07.49.2l3.84,3.84c.13.13.2.31.2.49v11.98c0,.38-.31.69-.69.69h-.06c-.38,0-.69.31-.69.69"/>
            <path class="cls-8" d="M170.31,138.81l-7.39-.04c-.38,0-.68.3-.69.68l-.08,13.57c0,.38.3.68.68.69l10.18.06c.38,0,.68-.3.69-.68l.06-10.66-3.45-3.62Z"/>
            <path class="cls-3" d="M169.57,139.95s-.09-.06-.14-.06l-7-.04c-.35,0-.29.26-.29.59l-.07,11.75c0,.33.28.59.62.6l9.31.05c.34,0,.62-.26.63-.59l.05-9.14c0-.05-.02-.1-.06-.14l-3.04-3.02Z"/>
            <path class="cls-8" d="M168.9,140.41l-7.39-.04c-.38,0-.68.3-.69.68l-.08,13.57c0,.38.3.68.68.69l10.18.06c.38,0,.68-.3.69-.68l.06-10.66-3.45-3.62Z"/>
            <path class="cls-3" d="M168.63,141.07l-6.54-.04c-.33,0-.61.28-.61.62l-.07,12.37c0,.34.27.62.6.63l9.01.05c.33,0,.61-.28.61-.62l.06-9.71-3.06-3.3Z"/>
            <path class="cls-8" d="M170.08,153.52l-7.19-.04c-.17,0-.31-.14-.31-.31,0-.17.14-.31.31-.31l7.2.04c.17,0,.31.14.31.31,0,.17-.14.31-.31.31"/>
            <path class="cls-8" d="M170.09,151.98l-7.19-.04c-.17,0-.31-.14-.31-.31,0-.17.14-.31.31-.31l7.2.04c.17,0,.31.14.31.31,0,.17-.14.31-.31.31"/>
            <path class="cls-8" d="M169.5,144.92l-7.19-.04c-.17,0-.31-.14-.31-.31,0-.17.14-.31.31-.31l7.2.04c.17,0,.31.14.31.31,0,.17-.14.31-.31.31"/>
            <path class="cls-8" d="M169.51,143.38l-7.19-.04c-.17,0-.31-.14-.31-.31,0-.17.14-.31.31-.31l7.2.04c.17,0,.31.14.31.31,0,.17-.14.31-.31.31"/>
            <rect class="cls-8" x="166.85" y="146.53" width=".82" height="6.31" transform="translate(16.6 316.06) rotate(-89.66)"/>
            <rect class="cls-8" x="166.86" y="144.82" width=".82" height="6.31" transform="translate(18.32 314.37) rotate(-89.66)"/>
            <rect class="cls-8" x="166.87" y="143.13" width=".82" height="6.31" transform="translate(20.02 312.7) rotate(-89.66)"/>
            <rect class="cls-3" x="139.25" y="134.75" width="18.24" height="19.53"/>
            <rect class="cls-19" x="140.45" y="136.02" width="15.81" height="16.96"/>
            <path class="cls-3" d="M154.34,152.19h-11.96c-.53,0-.96-.43-.96-.96v-13.51c0-.53.43-.96.96-.96h11.96c.53,0,.96.43.96.96v13.51c0,.53-.43.96-.96.96"/>
            <path class="cls-2" d="M143.76,139.24c0,.38-.31.69-.69.69s-.69-.31-.69-.69.31-.69.69-.69.69.31.69.69"/>
            <path class="cls-2" d="M153.53,139.69h-8.86c-.21,0-.38-.17-.38-.38s.17-.38.38-.38h8.86c.21,0,.38.17.38.38s-.17.38-.38.38"/>
            <path class="cls-2" d="M143.76,141.23c0,.38-.31.69-.69.69s-.69-.31-.69-.69.31-.69.69-.69.69.31.69.69"/>
            <path class="cls-2" d="M153.54,141.62h-8.86c-.21,0-.38-.17-.38-.38s.17-.38.38-.38h8.86c.21,0,.38.17.38.38s-.17.38-.38.38"/>
            <path class="cls-2" d="M143.75,143.14c0,.37-.3.68-.68.68s-.68-.3-.68-.68.3-.68.68-.68.68.3.68.68"/>
            <path class="cls-2" d="M153.5,143.52h-8.86c-.21,0-.38-.17-.38-.38s.17-.38.38-.38h8.86c.21,0,.38.17.38.38s-.17.38-.38.38"/>
            <path class="cls-2" d="M148.75,146.58h-5.15c-.24,0-.43-.19-.43-.43s.19-.43.43-.43h5.15c.24,0,.43.19.43.43s-.19.43-.43.43"/>
            <path class="cls-2" d="M148.75,148.57h-5.15c-.24,0-.43-.19-.43-.43s.19-.43.43-.43h5.15c.24,0,.43.19.43.43s-.19.43-.43.43"/>
            <path class="cls-2" d="M148.75,150.42h-5.15c-.24,0-.43-.19-.43-.43s.19-.43.43-.43h5.15c.24,0,.43.19.43.43s-.19.43-.43.43"/>
            <polygon class="cls-23" points="157.25 142.48 156.64 141.87 152.64 145.86 150.73 143.95 150.12 144.56 152.03 146.47 152.02 146.48 152.64 147.1 152.64 147.09 152.65 147.1 153.27 146.48 153.26 146.47 157.25 142.48"/>
            <polygon class="cls-23" points="157.15 147.04 156.53 146.42 152.54 150.41 150.63 148.5 150.01 149.11 151.93 151.03 151.92 151.04 152.53 151.65 152.54 151.64 152.55 151.65 153.17 151.04 153.16 151.03 157.15 147.04"/>
          </g>
          <g>
            <path class="cls-5" d="M104.47,192.4h1.14v8.37h-1.14v-8.37Z"/>
            <path class="cls-5" d="M110,196.22c-.25.09-.46.21-.62.38s-.29.37-.38.63-.13.51-.13.76.04.5.13.76.21.46.38.63.37.29.62.38.5.13.75.13h4.61v.93h-4.61c-.51,0-.98-.13-1.41-.38-.43-.25-.77-.59-1.03-1.03-.25-.43-.38-.9-.38-1.41s.12-.98.38-1.41c.25-.43.6-.78,1.03-1.03.43-.25.9-.38,1.41-.38h4.61v.93h-4.61c-.25,0-.5.04-.75.13Z"/>
            <path class="cls-5" d="M121.49,195.14c.5-.02.94.02,1.32.14s.68.28.92.49.42.43.56.66.23.45.29.66.1.38.11.53.02.21.02.19v.33c0,.24-.06.52-.18.83s-.3.61-.55.89-.57.51-.97.69-.85.25-1.38.22h-1.05c-.52.03-.98-.05-1.38-.22s-.72-.4-.97-.69-.43-.58-.55-.89-.18-.59-.18-.83v-.33s0-.04.02-.19.05-.33.11-.53.16-.42.29-.66.32-.46.56-.66.55-.37.92-.49.81-.16,1.32-.14h.76ZM121.85,199.83c.7,0,1.19-.17,1.47-.51s.45-.7.49-1.09v-.16s.01-.26.01-.26v-.18c-.05-.37-.22-.72-.5-1.06s-.77-.51-1.48-.51h-1.49c-.7,0-1.2.17-1.48.51s-.44.7-.48,1.06l-.02.18v.25l.02.18c.04.39.2.75.49,1.09s.78.51,1.47.51h1.49Z"/>
            <path class="cls-5" d="M133.82,196.48c.25.44.38.92.38,1.44v2.87h-.94v-2.87c0-.26-.04-.52-.13-.77s-.21-.47-.38-.64c-.16-.17-.36-.3-.61-.39s-.49-.13-.74-.13h-1.78c-.48,0-1.1,0-1.86,0,0-.22,0-.01,0,.62s0,1.06,0,1.25v2.94h-.94v-5.74h4.58c.5,0,.97.13,1.4.38.43.26.77.61,1.03,1.05Z"/>
            <path class="cls-5" d="M140.34,195.14c.5-.02.94.02,1.32.14s.68.28.92.49.42.43.56.66.23.45.29.66.1.38.11.53.02.21.02.19v.33c0,.24-.06.52-.18.83s-.3.61-.55.89-.57.51-.97.69-.85.25-1.38.22h-1.05c-.52.03-.98-.05-1.38-.22s-.72-.4-.97-.69-.43-.58-.55-.89-.18-.59-.18-.83v-.33s0-.04.02-.19.05-.33.11-.53.16-.42.29-.66.32-.46.56-.66.55-.37.92-.49.81-.16,1.32-.14h.76ZM140.71,199.83c.7,0,1.19-.17,1.47-.51s.45-.7.49-1.09v-.16s.01-.26.01-.26v-.18c-.05-.37-.22-.72-.5-1.06s-.77-.51-1.48-.51h-1.49c-.7,0-1.2.17-1.48.51s-.44.7-.48,1.06l-.02.18v.25l.02.18c.04.39.2.75.49,1.09s.78.51,1.47.51h1.49Z"/>
            <path class="cls-5" d="M155.77,196.46c.23.4.35.9.35,1.49,0-.09,0-.07,0,.06h0v.66c0,.55-.11.98-.32,1.28s-.46.5-.76.61-.61.16-.93.17-.57.02-.73.02h-3.01c-.47,0-.87-.17-1.2-.52s-.5-.76-.5-1.24.17-.9.5-1.25c.33-.35.73-.52,1.2-.52h4.61c0-.07-.02-.13-.04-.19s-.04-.11-.05-.13c-.09-.18-.21-.34-.38-.48s-.34-.26-.54-.34c-.2-.08-.41-.12-.62-.12h-4.44v-.9c0-.08,0-.1,0-.08h4.44c.51,0,.99.13,1.43.4.21.12.39.27.55.45s.3.38.44.62ZM155.1,198.8c0-.08,0-.28-.01-.59h-4.83c-.17,0-.32.08-.45.23-.12.16-.18.34-.18.56s.06.4.18.56c.12.15.27.23.45.23h3.13c.36,0,.64,0,.85-.02s.38-.07.5-.16c.13-.09.22-.21.27-.34s.08-.29.09-.47Z"/>
            <path class="cls-5" d="M159.19,202.85h-.91c0,.05,0,0,0-.16v-5.33c0-.35.13-.69.4-1.02s.59-.6.98-.81.75-.31,1.08-.31h1.71c.53-.02.99.05,1.39.22s.72.39.97.67.44.57.56.88.18.58.18.82v.32s0,.04-.02.18-.05.32-.11.52-.16.42-.3.65-.33.45-.57.65-.55.36-.92.48-.82.16-1.32.14h-3.11v2.1ZM159.19,199.83h3.47c.57,0,1-.12,1.29-.35s.48-.47.57-.73.13-.46.13-.62v-.28c0-.19-.04-.42-.13-.68s-.28-.5-.57-.73-.72-.33-1.27-.33h-1.88c-.24,0-.49.07-.74.22s-.46.34-.62.56-.24.45-.24.66v2.26Z"/>
            <path class="cls-5" d="M168.6,202.85h-.91c0,.05,0,0,0-.16v-5.33c0-.35.13-.69.4-1.02s.59-.6.98-.81.75-.31,1.08-.31h1.71c.53-.02.99.05,1.39.22s.72.39.97.67.44.57.56.88.18.58.18.82v.32s0,.04-.02.18-.05.32-.11.52-.16.42-.3.65-.33.45-.57.65-.55.36-.92.48-.82.16-1.32.14h-3.11v2.1ZM168.6,199.83h3.47c.57,0,1-.12,1.29-.35s.48-.47.57-.73.13-.46.13-.62v-.28c0-.19-.04-.42-.13-.68s-.28-.5-.57-.73-.72-.33-1.27-.33h-1.88c-.24,0-.49.07-.74.22s-.46.34-.62.56-.24.45-.24.66v2.26Z"/>
          </g>
          <g>
            <path class="cls-3" d="M14.84.27L.55,4.78l14.33,11.12,14.04-10.84L14.84.27ZM20.37,10.39l-3.12,2.39-2.66-1.71,2.04-1.67c.37-.33.47-.56.47-.56v-3.18c.03-.54-.73-.85-.73-.85-.94-.45-2.38-.43-2.38-.43-1.33-.02-3.8.92-3.8.92v2.95l-3.69-2.37c2.35-.95,3.42-1.2,3.42-1.2,2.33-.65,3.96-.69,3.96-.69,2.61-.14,4.69.58,4.69.58,2.08.57,2.94,1.3,2.94,1.3,1.72,1.29,1.33,2.61,1.33,2.61-.27.24-2.47,1.91-2.47,1.91"/>
            <polygon class="cls-13" points=".02 8.24 .02 4.69 14.92 16.03 29.45 4.96 29.45 8.22 14.87 21.46 .02 8.24"/>
            <path class="cls-13" d="M6.42,5.9l-2.39-1.48s3.15-1.23,5.77-1.73,3.58-.53,5.07-.47,4.37.63,6.26,1.55c1.89.93,2.29,1.89,2.4,2.42.12.53.09,1.75-.34,2.13l-.42.38s.31-.69-.13-1.56c-.44-.87-1.39-1.7-3.12-2.29-1.73-.59-3.27-.92-5.14-.89-1.87.03-3.56.44-4.87.82-1.3.38-3.09,1.11-3.09,1.11"/>
            <path class="cls-13" d="M10.2,5.37v2.94l4.29,2.83s.94-.73,1.6-1.28c.66-.54.94-.87,1.01-1.03v-3.24s.08.51-1.06,1.15c-1.13.64-1.49.85-1.49.85l-4.35-2.21Z"/>
            <path class="cls-13" d="M14.88,16.23L0,4.68,14.85,0h.04s14.57,4.97,14.57,4.97l-14.57,11.26ZM.55,4.78l14.34,11.12,14.04-10.84L14.84.27.55,4.78Z"/>
            <path class="cls-13" d="M17.27,13.09l-.08-.05L3.75,4.39l.24-.09s3.19-1.24,5.8-1.74c1.92-.37,3-.49,4.14-.49.27,0,.57,0,.95.02,1.62.06,4.5.68,6.31,1.57,1.43.7,2.26,1.54,2.47,2.51.12.56.1,1.82-.38,2.25l-.43.38-5.59,4.29ZM4.32,4.45l12.94,8.32,5.44-4.17.42-.38c.38-.34.41-1.51.3-2-.2-.89-.98-1.67-2.33-2.33-1.78-.87-4.61-1.48-6.2-1.54-.38-.01-.68-.02-.95-.02-.97,0-1.94.08-4.1.49-2.17.41-4.73,1.34-5.51,1.63"/>
            <path class="cls-13" d="M14.47,7.64l-4.29-2.19.04-.07-.03-.08c.1-.04,2.43-.93,3.82-.93h.03c1.46.01,2.38.36,2.77.69.36.3.41.63.16,1.02-.18.28-.7.67-1.43,1.05-.71.38-1.02.5-1.03.51h-.03ZM10.32,5.39l4.15,2.12c.09-.04.4-.18.99-.49.7-.37,1.21-.74,1.38-1,.21-.33.17-.6-.13-.85-.37-.31-1.27-.65-2.69-.66h-.03c-1.21,0-3.21.72-3.68.89"/>
            <path class="cls-13" d="M40.5,6.74c.14.02.36.08.68.19.31.11.68.32,1.09.63.41.31.77.78,1.08,1.4.31.62.46,1.41.46,2.36s-.18,1.67-.54,2.27c-.36.61-.79,1.06-1.29,1.35-.5.29-.97.47-1.42.53h-7.62V6.73h7.57ZM40.44,14.29c.23-.04.52-.14.84-.3.32-.16.63-.46.92-.9.29-.43.43-1.03.43-1.78,0-.88-.15-1.57-.45-2.07-.3-.5-.62-.84-.95-1.01-.33-.18-.61-.28-.84-.32h-6.28v6.38h6.33Z"/>
            <rect class="cls-13" x="44.63" y="6.75" width="1.19" height="8.7"/>
            <path class="cls-13" d="M52.3,9.12c.77-.01,1.46-.13,2.06-.34.61-.22,1.08-.43,1.4-.65.33-.22.55-.38.66-.49l.96-.91v8.75h-1.14v-6.32c-.5.3-1.08.55-1.75.76-.66.21-1.39.32-2.18.33-.83,0-1.61-.1-2.33-.32-.72-.22-1.36-.49-1.92-.82v6.36h-1.14V6.73l1,.86c.14.13.39.3.75.53.36.23.86.45,1.51.68.64.23,1.35.33,2.11.32"/>
            <rect class="cls-10" x="59.08" y="10.44" width="2.29" height="1.16"/>
            <g>
              <path class="cls-22" d="M71.08,10.55c.26.02.54.12.82.29.29.17.54.44.75.81.21.37.31.84.31,1.42,0,.53-.12.97-.35,1.32-.23.35-.52.62-.85.79-.34.17-.67.26-1,.27h-7.55v-1.18h7.52c.23,0,.46-.08.69-.25.23-.17.34-.48.34-.94,0-.51-.08-.85-.26-1.04-.18-.19-.35-.29-.5-.32h-5.82c-.3,0-.61-.09-.94-.26-.33-.16-.61-.43-.84-.81s-.35-.86-.35-1.45c0-.56.12-1.02.37-1.39.25-.36.55-.63.89-.8.35-.17.67-.27.98-.29h6.82v1.18h-6.74c-.12,0-.27.04-.44.11-.18.07-.34.21-.48.4-.14.2-.22.46-.22.8,0,.53.11.89.34,1.07.23.18.44.28.64.29h5.86Z"/>
              <path class="cls-22" d="M79.29,14.34c.26-.09.47-.23.64-.41.17-.17.3-.4.4-.67.09-.27.14-.54.14-.81v-3.03h.99v3.03c0,.55-.13,1.05-.39,1.52-.27.46-.63.83-1.08,1.1-.45.27-.94.41-1.47.41h-1.88c-.54,0-1.03-.13-1.48-.41-.45-.27-.81-.64-1.07-1.1-.27-.47-.4-.97-.4-1.52v-3.03h.99s0,0,0,.08v2.95c0,.27.05.54.14.81.09.27.23.49.4.67.17.18.39.32.65.41.26.09.52.14.78.14h1.88c.26,0,.52-.05.78-.14Z"/>
              <path class="cls-22" d="M84.24,10.69c-.26.09-.48.22-.65.4-.17.17-.3.39-.4.66-.09.27-.14.53-.14.79s.05.53.14.79.22.48.4.66c.17.17.39.3.65.4s.53.14.79.14h4.82v.97h-4.82c-.53,0-1.02-.13-1.48-.4-.45-.26-.81-.62-1.07-1.07-.26-.45-.39-.94-.39-1.48s.13-1.03.39-1.48c.27-.45.62-.81,1.07-1.07.45-.27.95-.4,1.48-.4h4.82v.97h-4.82c-.26,0-.52.05-.79.14Z"/>
              <path class="cls-22" d="M96.16,14.34c.26-.09.47-.23.64-.41.17-.17.3-.4.4-.67.09-.27.14-.54.14-.81v-3.03h.99v3.03c0,.55-.13,1.05-.39,1.52-.27.46-.63.83-1.08,1.1-.45.27-.94.41-1.47.41h-1.88c-.54,0-1.03-.13-1.48-.41-.45-.27-.81-.64-1.07-1.1-.27-.47-.4-.97-.4-1.52v-3.03h.99s0,0,0,.08v2.95c0,.27.05.54.14.81.09.27.23.49.4.67.17.18.39.32.65.41s.52.14.78.14h1.88c.26,0,.52-.05.78-.14Z"/>
              <path class="cls-22" d="M105.48,10.46h-3.35c-.17,0-.36,0-.57,0-.21,0-.41.03-.59.08s-.34.15-.48.28c-.13.13-.23.29-.29.47-.06.18-.09.34-.09.47,0,.13,0,.37,0,.71v2.92c0,.05-.02.08-.07.08h-.83s-.07-.03-.07-.08v-3.01c0-.12,0-.34,0-.64s.06-.61.18-.92c.12-.31.33-.58.63-.82.19-.15.4-.26.62-.34.22-.08.44-.13.64-.16.2-.03.39-.04.56-.04h3.7v.99Z"/>
              <path class="cls-22" d="M112.51,12.08c.4.02.74.15,1.04.39.3.24.45.7.45,1.38,0,.36-.09.67-.27.91-.18.24-.41.42-.68.54-.27.12-.54.18-.8.18h-6v-.98s5.97,0,5.97,0c.21,0,.4-.05.57-.14s.25-.31.25-.65c0-.21-.06-.37-.18-.46-.12-.09-.26-.15-.41-.17-.16-.02-.25-.02-.29-.02h-4.35c-.23,0-.48-.07-.74-.19-.26-.12-.48-.32-.67-.6-.19-.28-.28-.63-.28-1.07,0-.38.1-.7.3-.95.2-.25.43-.44.71-.55.27-.12.54-.18.78-.2h5.42v.98h-5.36c-.22,0-.43.05-.62.14-.19.1-.29.33-.29.71,0,.3.09.5.26.59.18.09.35.14.51.15h4.66Z"/>
              <path class="cls-22" d="M122.09,10.95c.24.42.36.94.36,1.56,0-.1,0-.08,0,.06h0v.69c0,.58-.12,1.03-.33,1.34-.22.31-.48.53-.79.63s-.63.17-.97.17c-.34,0-.6.02-.76.02h-3.14c-.49,0-.91-.18-1.26-.54-.35-.36-.52-.79-.52-1.3s.17-.95.52-1.31c.35-.36.77-.55,1.26-.55h4.82c0-.07-.02-.14-.04-.2-.02-.07-.04-.11-.05-.13-.09-.18-.22-.35-.39-.5-.17-.15-.36-.27-.56-.36-.21-.08-.43-.12-.65-.12h-4.64v-.94c0-.08,0-.11,0-.08h4.64c.54,0,1.03.14,1.5.42.22.13.41.29.57.47s.31.4.46.65ZM121.39,13.4c0-.09,0-.29-.01-.62h-5.06c-.18,0-.33.08-.47.24-.13.16-.19.36-.19.58s.06.42.19.58c.13.16.29.24.47.24h3.28c.37,0,.67,0,.89-.02s.39-.07.52-.16c.14-.1.23-.22.29-.35.05-.14.08-.3.09-.49Z"/>
              <path class="cls-22" d="M123.19,6.69h1.05s0,0,0,0v5.65c0,.41.1.78.3,1.1.2.32.44.57.73.75.29.18.57.27.83.27h2.15v1.05h-2.18c-.55,0-1.04-.17-1.48-.51-.44-.34-.78-.76-1.02-1.27s-.37-1.01-.37-1.49v-5.29c0-.27,0-.35,0-.26Z"/>
              <path class="cls-22" d="M138.42,6.69c.14.02.37.08.68.19.32.11.68.32,1.09.63.41.31.77.78,1.08,1.41.31.62.46,1.42.46,2.37s-.18,1.68-.54,2.29c-.36.61-.79,1.06-1.3,1.36-.5.3-.98.47-1.43.53h-7.67V6.69h7.61ZM138.36,14.29c.24-.04.52-.14.85-.31.33-.16.63-.46.92-.9.29-.44.43-1.03.43-1.79,0-.89-.15-1.58-.45-2.08-.3-.5-.62-.84-.95-1.02s-.61-.28-.84-.32h-6.32v6.42h6.37Z"/>
              <path class="cls-22" d="M143.69,6.69v1.04h-1.04v-1.04h1.04ZM143.69,9.11v6.35h-1.04v-6.35h1.04Z"/>
              <path class="cls-22" d="M151.43,9.87c.26.14.47.35.63.61.16.26.25.57.25.92v3.18c-.02.51-.15.98-.36,1.42-.22.44-.52.79-.9,1.06-.38.27-.83.42-1.33.45h-4.83v-.94h4.7c.3,0,.6-.09.9-.27.3-.18.53-.45.68-.8l.03-.08h-3.58c-.58,0-1.09-.14-1.53-.42-.44-.28-.77-.64-1-1.07-.23-.43-.35-.87-.35-1.32v-.21c0-.42.12-.84.36-1.27s.57-.78,1-1.06c.43-.28.91-.42,1.45-.42h3.07c.27,0,.54.07.8.21ZM151.37,14.48v-3.18c0-.17-.06-.33-.18-.47-.12-.15-.28-.22-.47-.22h-2.98c-.5,0-.9.09-1.21.27s-.52.41-.64.68c-.12.27-.19.56-.19.86v.23c0,.39.09.72.26,1,.17.28.4.48.67.62.28.14.56.21.86.21h3.87Z"/>
              <path class="cls-22" d="M154.45,6.69v1.04h-1.04v-1.04h1.04ZM154.45,9.11v6.35h-1.04v-6.35h1.04Z"/>
              <path class="cls-22" d="M160.47,14.48v.96h-1.81c-.52,0-1.01-.13-1.46-.39-.45-.26-.81-.61-1.07-1.05-.26-.44-.4-.92-.41-1.44v-5.25h.97s0,0,0,.07v2.16h2.27s0,0,0,.07v.89s-.03,0-.09,0h-2.18v2.08c0,.42.11.78.33,1.06s.45.5.69.64c.12.08.3.13.55.15s.44.03.59.02h1.61Z"/>
              <path class="cls-22" d="M168.8,10.95c.24.42.36.94.36,1.56,0-.1,0-.08,0,.06h0v.69c0,.58-.12,1.03-.33,1.34-.22.31-.48.53-.79.63s-.63.17-.97.17c-.34,0-.6.02-.76.02h-3.14c-.49,0-.91-.18-1.26-.54-.35-.36-.52-.79-.52-1.3s.17-.95.52-1.31c.35-.36.77-.55,1.26-.55h4.82c0-.07-.02-.14-.04-.2-.02-.07-.04-.11-.05-.13-.09-.18-.22-.35-.39-.5-.17-.15-.36-.27-.56-.36-.21-.08-.43-.12-.65-.12h-4.64v-.94c0-.08,0-.11,0-.08h4.64c.54,0,1.03.14,1.5.42.22.13.41.29.57.47s.31.4.46.65ZM168.1,13.4c0-.09,0-.29-.01-.62h-5.06c-.18,0-.33.08-.47.24-.13.16-.19.36-.19.58s.06.42.19.58c.13.16.29.24.47.24h3.28c.37,0,.67,0,.89-.02s.39-.07.52-.16c.14-.1.23-.22.29-.35.05-.14.08-.3.09-.49Z"/>
              <path class="cls-22" d="M169.9,6.69h1.05s0,0,0,0v5.65c0,.41.1.78.3,1.1.2.32.44.57.73.75.29.18.57.27.83.27h2.15v1.05h-2.18c-.55,0-1.04-.17-1.48-.51-.44-.34-.78-.76-1.02-1.27s-.37-1.01-.37-1.49v-5.29c0-.27,0-.35,0-.26Z"/>
            </g>
            <g>
              <path class="cls-1" d="M109.19,21.38h-.28s0,0,0-.05v-1.65c0-.11.04-.21.12-.32s.18-.19.3-.25c.12-.07.23-.1.33-.1h.53c.16,0,.31.02.43.07.12.05.22.12.3.21.08.09.13.18.17.27.04.09.06.18.06.25v.1s0,.01,0,.06c0,.04-.02.1-.04.16-.02.06-.05.13-.09.2-.04.07-.1.14-.17.2-.08.06-.17.11-.29.15-.12.04-.25.05-.41.04h-.96v.65ZM109.19,20.45h1.08c.17,0,.31-.04.4-.11.09-.07.15-.15.17-.22s.04-.14.04-.19v-.09c0-.06-.01-.13-.04-.21-.03-.08-.09-.16-.18-.23s-.22-.1-.39-.1h-.58c-.08,0-.15.02-.23.07-.08.05-.14.1-.19.17s-.07.14-.07.2v.7Z"/>
              <path class="cls-1" d="M113.59,19.26h-.99s-.11,0-.17,0c-.06,0-.12,0-.17.02-.05.02-.1.04-.14.08-.04.04-.07.08-.08.14s-.03.1-.03.14c0,.04,0,.11,0,.21v.87s0,.02-.02.02h-.25s-.02,0-.02-.02v-.89s0-.1,0-.19c0-.09.02-.18.05-.27.04-.09.1-.17.19-.24.06-.04.12-.08.18-.1.07-.02.13-.04.19-.05s.12-.01.17-.01h1.1v.29Z"/>
              <path class="cls-1" d="M115.4,19c.16,0,.29,0,.41.04.12.04.21.09.28.15.07.06.13.13.17.21.04.07.07.14.09.2.02.06.03.12.04.16s0,.07,0,.06v.1c0,.08-.02.16-.05.26-.04.1-.09.19-.17.28-.08.09-.18.16-.3.21s-.26.08-.43.07h-.33c-.16,0-.31-.01-.43-.07-.12-.05-.22-.12-.3-.21-.08-.09-.13-.18-.17-.28-.04-.1-.06-.18-.06-.26v-.1s0-.01,0-.06.02-.1.04-.16.05-.13.09-.2c.04-.07.1-.14.17-.21.07-.06.17-.12.28-.15.11-.04.25-.05.41-.04h.24ZM115.52,20.45c.22,0,.37-.05.46-.16s.14-.22.15-.34v-.05s0-.08,0-.08v-.05c-.02-.11-.07-.22-.15-.33-.09-.11-.24-.16-.46-.16h-.46c-.22,0-.37.05-.46.16-.09.11-.14.22-.15.33v.05s0,.08,0,.08v.05c.02.12.07.23.16.34.09.1.24.16.46.16h.46Z"/>
              <path class="cls-1" d="M118.97,18.35h.28s0,0,0,.05v1.68c0,.12-.01.22-.04.3s-.07.15-.12.2c-.06.05-.13.09-.22.11-.09.02-.21.04-.35.04h-.57c-.16,0-.31-.01-.43-.07-.12-.05-.23-.12-.3-.21-.08-.09-.14-.18-.17-.27-.04-.1-.06-.18-.06-.26v-.1s0-.01,0-.06c0-.05.02-.1.04-.16.02-.06.05-.13.09-.2.04-.07.1-.14.17-.2.08-.06.17-.11.29-.15.12-.04.25-.05.41-.04h.97v-.66ZM118.97,19.29h-1.08c-.18,0-.31.04-.4.11s-.15.15-.18.23c-.03.08-.04.14-.04.19v.08c0,.06.01.13.04.21.03.08.09.16.18.23.09.07.22.1.4.1h.75c.09,0,.15-.02.2-.06.05-.04.08-.09.1-.15.02-.07.03-.15.03-.24v-.71Z"/>
              <path class="cls-1" d="M121.45,20.41c.08-.03.14-.07.19-.12s.09-.12.12-.2c.03-.08.04-.16.04-.24v-.9h.29v.9c0,.16-.04.31-.12.45-.08.14-.19.25-.32.33-.13.08-.28.12-.44.12h-.56c-.16,0-.3-.04-.44-.12-.13-.08-.24-.19-.32-.33-.08-.14-.12-.29-.12-.45v-.9h.29s0,0,0,.02v.87c0,.08.01.16.04.24.03.08.07.15.12.2s.11.09.19.12c.08.03.15.04.23.04h.56c.08,0,.15-.01.23-.04Z"/>
              <path class="cls-1" d="M123.24,19.33c-.08.03-.14.07-.19.12s-.09.12-.12.19c-.03.08-.04.16-.04.23s.01.16.04.23c.03.08.07.14.12.19s.12.09.19.12.16.04.23.04h1.43v.29h-1.43c-.16,0-.3-.04-.44-.12-.13-.08-.24-.18-.32-.32-.08-.13-.12-.28-.12-.44s.04-.3.12-.44c.08-.13.18-.24.32-.32.13-.08.28-.12.44-.12h1.43v.29h-1.43c-.08,0-.16.01-.23.04Z"/>
              <path class="cls-1" d="M126.93,20.45v.29h-.54c-.15,0-.3-.04-.43-.11-.13-.08-.24-.18-.32-.31-.08-.13-.12-.27-.12-.43v-1.55h.29s0,0,0,.02v.64h.67s0,0,0,.02v.26s0,0-.03,0h-.65v.62c0,.13.03.23.1.32s.13.15.21.19c.04.02.09.04.16.05.07,0,.13,0,.18,0h.48Z"/>
              <path class="cls-1" d="M128.79,19c.16,0,.29,0,.41.04.12.04.21.09.28.15.07.06.13.13.17.21.04.07.07.14.09.2.02.06.03.12.04.16s0,.07,0,.06v.1c0,.08-.02.16-.06.26-.04.1-.09.19-.17.28-.08.09-.18.16-.3.21s-.26.08-.43.07h-.33c-.16,0-.3-.01-.43-.07s-.22-.12-.3-.21c-.08-.09-.13-.18-.17-.28-.04-.1-.06-.18-.06-.26v-.1s0-.01,0-.06c0-.05.02-.1.04-.16s.05-.13.09-.2c.04-.07.1-.14.17-.21.08-.06.17-.12.28-.15s.25-.05.41-.04h.24ZM128.9,20.45c.22,0,.37-.05.46-.16s.14-.22.15-.34v-.05s0-.08,0-.08v-.05c-.02-.11-.07-.22-.15-.33-.09-.11-.24-.16-.46-.16h-.46c-.22,0-.37.05-.46.16-.09.11-.14.22-.15.33v.05s0,.08,0,.08v.05c.02.12.07.23.16.34.09.1.24.16.46.16h.46Z"/>
              <path class="cls-1" d="M132.21,19.74c.12,0,.22.05.31.12.09.07.13.21.13.41,0,.11-.03.2-.08.27-.05.07-.12.12-.2.16-.08.03-.16.05-.24.05h-1.78v-.29s1.77,0,1.77,0c.06,0,.12-.01.17-.04.05-.03.08-.09.08-.19,0-.06-.02-.11-.05-.14-.04-.03-.08-.04-.12-.05s-.07,0-.08,0h-1.29c-.07,0-.14-.02-.22-.06-.08-.04-.14-.09-.2-.18-.06-.08-.08-.19-.08-.32,0-.11.03-.21.09-.28s.13-.13.21-.16c.08-.04.16-.05.23-.06h1.61v.29h-1.59c-.07,0-.13.01-.18.04-.06.03-.08.1-.08.21,0,.09.03.15.08.18.05.03.1.04.15.04h1.38Z"/>
              <path class="cls-1" d="M136.31,18.98v1.52c-.01.17-.05.33-.13.45-.09.16-.2.27-.32.34-.12.07-.27.11-.45.11h-1.24s-.02,0-.02-.02v-.25s0-.02.02-.02h1.24c.06,0,.12,0,.17-.01.05,0,.09-.03.13-.05.05-.04.1-.07.13-.1s.06-.06.08-.11l.04-.09h-1.13c-.13,0-.25-.02-.36-.08-.11-.05-.19-.11-.26-.18-.07-.07-.12-.15-.18-.26-.05-.11-.08-.22-.08-.33v-.92s0-.02,0-.02h.3s0,0,0,.02v.94c0,.06.01.12.04.18s.04.11.07.13c.01.01.04.04.07.07.03.03.08.07.14.09.06.03.13.05.22.06h1.24s0-1.47,0-1.47c0-.02,0-.02.02-.02h.25s.02,0,.02.02Z"/>
              <path class="cls-1" d="M139.52,19.74c.12,0,.22.05.31.12.09.07.13.21.13.41,0,.11-.03.2-.08.27-.05.07-.12.12-.2.16-.08.03-.16.05-.24.05h-1.78v-.29s1.77,0,1.77,0c.06,0,.12-.01.17-.04.05-.03.08-.09.08-.19,0-.06-.02-.11-.05-.14-.04-.03-.08-.04-.12-.05s-.07,0-.08,0h-1.29c-.07,0-.14-.02-.22-.06-.08-.04-.14-.09-.2-.18-.06-.08-.08-.19-.08-.32,0-.11.03-.21.09-.28.06-.07.13-.13.21-.16.08-.04.16-.05.23-.06h1.61v.29h-1.59c-.07,0-.13.01-.18.04-.06.03-.08.1-.08.21,0,.09.03.15.08.18.05.03.1.04.15.04h1.38Z"/>
              <path class="cls-1" d="M142.51,19.1c.08.07.14.14.17.23.03.08.04.16.04.22,0,.31-.17.48-.52.49h-1.38s0,.07,0,.07c0,.08,0,.14.02.19s.04.08.07.1c.03.02.08.04.14.04.06,0,.14.01.24.01h1.29s.06.02.06.05v.17s-.02.06-.06.06h-1.33c-.19,0-.33-.02-.44-.06-.11-.04-.18-.11-.23-.2s-.07-.21-.07-.37v-.44c0-.1.04-.21.12-.31.08-.1.18-.19.3-.26s.25-.1.38-.1h.84c.15,0,.27.03.36.1ZM142.31,19.73s.05-.03.08-.06c.02-.02.03-.04.04-.07,0-.03.01-.06.01-.11,0-.02,0-.05-.02-.08-.01-.03-.03-.06-.07-.09-.03-.03-.08-.04-.13-.04h-.92c-.07,0-.14.02-.21.06s-.14.1-.19.17-.08.15-.08.23h1.37c.06,0,.1,0,.12-.01Z"/>
              <path class="cls-1" d="M145.23,19.26h-.99s-.11,0-.17,0c-.06,0-.12,0-.17.02-.05.02-.1.04-.14.08-.04.04-.07.08-.08.14-.02.05-.03.1-.03.14,0,.04,0,.11,0,.21v.87s0,.02-.02.02h-.25s-.02,0-.02-.02v-.89s0-.1,0-.19c0-.09.02-.18.05-.27.03-.09.1-.17.19-.24.06-.04.12-.08.18-.1.07-.02.13-.04.19-.05.06,0,.12-.01.17-.01h1.1v.29Z"/>
              <path class="cls-1" d="M145.93,18.95l1.03,1.55h.04l1.03-1.55h.35l-1.04,1.55c-.08.13-.14.21-.16.24h-.4c-.05-.07-.1-.15-.16-.24l-1.03-1.55h.35Z"/>
              <path class="cls-1" d="M149.08,18.14v.31h-.31v-.31h.31ZM149.08,18.86v1.88h-.31v-1.88h.31Z"/>
              <path class="cls-1" d="M150.31,19.33c-.08.03-.14.07-.19.12s-.09.12-.12.19c-.03.08-.04.16-.04.23s.01.16.04.23c.03.08.07.14.12.19s.12.09.19.12.16.04.23.04h1.43v.29h-1.43c-.16,0-.3-.04-.44-.12-.13-.08-.24-.18-.32-.32-.08-.13-.12-.28-.12-.44s.04-.3.12-.44c.08-.13.18-.24.32-.32.13-.08.28-.12.44-.12h1.43v.29h-1.43c-.08,0-.16.01-.23.04Z"/>
              <path class="cls-1" d="M152.9,18.14v.31h-.31v-.31h.31ZM152.9,18.86v1.88h-.31v-1.88h.31Z"/>
              <path class="cls-1" d="M154.78,19c.16,0,.29,0,.41.04s.21.09.28.15c.07.06.13.13.17.21.04.07.07.14.09.2.02.06.03.12.04.16s0,.07,0,.06v.1c0,.08-.02.16-.06.26-.04.1-.09.19-.17.28-.08.09-.18.16-.3.21s-.26.08-.43.07h-.33c-.16,0-.3-.01-.43-.07-.12-.05-.22-.12-.3-.21-.08-.09-.13-.18-.17-.28-.04-.1-.06-.18-.06-.26v-.1s0-.01,0-.06.02-.1.04-.16.05-.13.09-.2c.04-.07.1-.14.17-.21.08-.06.17-.12.28-.15.12-.04.25-.05.41-.04h.24ZM154.89,20.45c.22,0,.37-.05.46-.16.09-.1.14-.22.15-.34v-.05s0-.08,0-.08v-.05c-.02-.11-.07-.22-.15-.33-.09-.11-.24-.16-.46-.16h-.46c-.22,0-.37.05-.46.16-.09.11-.14.22-.15.33v.05s0,.08,0,.08v.05c.02.12.07.23.16.34.09.1.24.16.46.16h.46Z"/>
              <path class="cls-1" d="M158.2,19.74c.12,0,.22.05.31.12.09.07.13.21.13.41,0,.11-.03.2-.08.27-.05.07-.12.12-.2.16-.08.03-.16.05-.24.05h-1.78v-.29s1.77,0,1.77,0c.06,0,.12-.01.17-.04.05-.03.08-.09.08-.19,0-.06-.02-.11-.05-.14-.04-.03-.08-.04-.12-.05s-.07,0-.08,0h-1.29c-.07,0-.14-.02-.22-.06-.08-.04-.14-.09-.2-.18-.06-.08-.08-.19-.08-.32,0-.11.03-.21.09-.28.06-.07.13-.13.21-.16.08-.04.16-.05.23-.06h1.61v.29h-1.59c-.07,0-.13.01-.18.04-.06.03-.08.1-.08.21,0,.09.03.15.08.18.05.03.1.04.15.04h1.38Z"/>
            </g>
          </g>
        </g>
      </g>
    </g>
  </g>
</svg>