<?xml version="1.0" encoding="UTF-8"?>
<svg xmlns="http://www.w3.org/2000/svg" xmlns:xlink="http://www.w3.org/1999/xlink" viewBox="0 0 163.23 204.45">
  <defs>
    <style>
      .cls-1 {
        fill: #f9cf16;
      }

      .cls-2 {
        fill: #cd142a;
      }

      .cls-3 {
        fill: #646365;
      }

      .cls-4 {
        fill: #868486;
      }

      .cls-5 {
        fill: #fff;
      }

      .cls-6 {
        fill: #625f60;
      }

      .cls-7 {
        fill: #505050;
      }

      .cls-8 {
        fill: none;
      }

      .cls-9 {
        fill: #d00e4a;
      }

      .cls-10 {
        clip-path: url(#clippath-1);
      }

      .cls-11 {
        fill: #d00e4d;
      }

      .cls-12 {
        isolation: isolate;
      }

      .cls-13 {
        fill: #d00e4c;
      }

      .cls-14 {
        fill: #d22e1f;
      }

      .cls-15 {
        fill: #dcdcdc;
      }

      .cls-16 {
        fill: #d92d5f;
      }

      .cls-17 {
        fill: #d20f48;
      }

      .cls-18 {
        fill: #333233;
      }

      .cls-19 {
        fill: #1d458c;
      }

      .cls-20 {
        clip-path: url(#clippath-2);
      }

      .cls-21 {
        fill: #48a98e;
      }

      .cls-22 {
        fill: #e1222c;
      }

      .cls-23 {
        mix-blend-mode: screen;
        opacity: .1;
      }

      .cls-24 {
        clip-path: url(#clippath);
      }

      .cls-25 {
        fill: #828384;
      }

      .cls-26 {
        fill: #038461;
      }

      .cls-27 {
        fill: #1b4180;
      }
    </style>
    <clipPath id="clippath">
      <rect class="cls-8" x="83.09" y="65.81" width="22.34" height="22.58"/>
    </clipPath>
    <clipPath id="clippath-1">
      <rect class="cls-8" x="119.29" y="79.62" width="24.62" height="24.88"/>
    </clipPath>
    <clipPath id="clippath-2">
      <rect class="cls-8" x="80.92" y="85.15" width="22.27" height="22.53"/>
    </clipPath>
  </defs>
  <g class="cls-12">
    <g id="Capa_2">
      <g id="Capa_1-2" data-name="Capa_1">
        <g>
          <path class="cls-6" d="M92.75,193.99h1.14v8.37h-1.14v-8.37Z"/>
          <path class="cls-6" d="M98.28,197.8c-.25.09-.46.21-.62.38s-.29.37-.38.63-.13.51-.13.76.04.5.13.76.21.46.38.63.37.29.62.38.5.13.75.13h4.61v.93h-4.61c-.51,0-.98-.13-1.41-.38-.43-.25-.77-.59-1.03-1.03-.25-.43-.38-.9-.38-1.41s.12-.98.38-1.41c.25-.43.6-.78,1.03-1.03.43-.25.9-.38,1.41-.38h4.61v.93h-4.61c-.25,0-.5.04-.75.13Z"/>
          <path class="cls-6" d="M109.77,196.73c.5-.02.94.02,1.32.14s.68.28.92.49.42.43.56.66.23.45.29.66.1.38.11.53.02.21.02.19v.33c0,.24-.06.52-.18.83s-.3.61-.55.89-.57.51-.97.69-.85.25-1.38.22h-1.05c-.52.03-.98-.05-1.38-.22s-.72-.4-.97-.69-.43-.58-.55-.89-.18-.59-.18-.83v-.33s0-.04.02-.19.05-.33.11-.53.16-.42.29-.66.32-.46.56-.66.55-.37.92-.49.81-.16,1.32-.14h.76ZM110.13,201.42c.7,0,1.19-.17,1.47-.51s.45-.7.49-1.09v-.16s.01-.26.01-.26v-.18c-.05-.37-.22-.72-.5-1.06s-.77-.51-1.48-.51h-1.49c-.7,0-1.2.17-1.48.51s-.44.7-.48,1.06l-.02.18v.25l.02.18c.04.39.2.75.49,1.09s.78.51,1.47.51h1.49Z"/>
          <path class="cls-6" d="M122.09,198.06c.25.44.38.92.38,1.44v2.87h-.94v-2.87c0-.26-.04-.52-.13-.77s-.21-.47-.38-.64c-.16-.17-.36-.3-.61-.39s-.49-.13-.74-.13h-1.78c-.48,0-1.1,0-1.86,0,0-.22,0-.01,0,.62s0,1.06,0,1.25v2.94h-.94v-5.74h4.58c.5,0,.97.13,1.4.38.43.26.77.61,1.03,1.05Z"/>
          <path class="cls-6" d="M128.62,196.73c.5-.02.94.02,1.32.14s.68.28.92.49.42.43.56.66.23.45.29.66.1.38.11.53.02.21.02.19v.33c0,.24-.06.52-.18.83s-.3.61-.55.89-.57.51-.97.69-.85.25-1.38.22h-1.05c-.52.03-.98-.05-1.38-.22s-.72-.4-.97-.69-.43-.58-.55-.89-.18-.59-.18-.83v-.33s0-.04.02-.19.05-.33.11-.53.16-.42.29-.66.32-.46.56-.66.55-.37.92-.49.81-.16,1.32-.14h.76ZM128.98,201.42c.7,0,1.19-.17,1.47-.51s.45-.7.49-1.09v-.16s.01-.26.01-.26v-.18c-.05-.37-.22-.72-.5-1.06s-.77-.51-1.48-.51h-1.49c-.7,0-1.2.17-1.48.51s-.44.7-.48,1.06l-.02.18v.25l.02.18c.04.39.2.75.49,1.09s.78.51,1.47.51h1.49Z"/>
          <path class="cls-6" d="M144.04,198.05c.23.4.35.9.35,1.49,0-.09,0-.07,0,.06h0v.66c0,.55-.11.98-.32,1.28s-.46.5-.76.61-.61.16-.93.17-.57.02-.73.02h-3.01c-.47,0-.87-.17-1.2-.52s-.5-.76-.5-1.24.17-.9.5-1.25c.33-.35.73-.52,1.2-.52h4.61c0-.07-.02-.13-.04-.19s-.04-.11-.05-.13c-.09-.18-.21-.34-.38-.48s-.34-.26-.54-.34c-.2-.08-.41-.12-.62-.12h-4.44v-.9c0-.08,0-.1,0-.08h4.44c.51,0,.99.13,1.43.4.21.12.39.27.55.45s.3.38.44.62ZM143.37,200.39c0-.08,0-.28-.01-.59h-4.83c-.17,0-.32.08-.45.23-.12.16-.18.34-.18.56s.06.4.18.56c.12.15.27.23.45.23h3.13c.36,0,.64,0,.85-.02s.38-.07.5-.16c.13-.09.22-.21.27-.34s.08-.29.09-.47Z"/>
          <path class="cls-6" d="M147.46,204.43h-.91c0,.05,0,0,0-.16v-5.33c0-.35.13-.69.4-1.02s.59-.6.98-.81.75-.31,1.08-.31h1.71c.53-.02.99.05,1.39.22s.72.39.97.67.44.57.56.88.18.58.18.82v.32s0,.04-.02.18-.05.32-.11.52-.16.42-.3.65-.33.45-.57.65-.55.36-.92.48-.82.16-1.32.14h-3.11v2.1ZM147.46,201.41h3.47c.57,0,1-.12,1.29-.35s.48-.47.57-.73.13-.46.13-.62v-.28c0-.19-.04-.42-.13-.68s-.28-.5-.57-.73-.72-.33-1.27-.33h-1.88c-.24,0-.49.07-.74.22s-.46.34-.62.56-.24.45-.24.66v2.26Z"/>
          <path class="cls-6" d="M156.88,204.43h-.91c0,.05,0,0,0-.16v-5.33c0-.35.13-.69.4-1.02s.59-.6.98-.81.75-.31,1.08-.31h1.71c.53-.02.99.05,1.39.22s.72.39.97.67.44.57.56.88.18.58.18.82v.32s0,.04-.02.18-.05.32-.11.52-.16.42-.3.65-.33.45-.57.65-.55.36-.92.48-.82.16-1.32.14h-3.11v2.1ZM156.88,201.41h3.47c.57,0,1-.12,1.29-.35s.48-.47.57-.73.13-.46.13-.62v-.28c0-.19-.04-.42-.13-.68s-.28-.5-.57-.73-.72-.33-1.27-.33h-1.88c-.24,0-.49.07-.74.22s-.46.34-.62.56-.24.45-.24.66v2.26Z"/>
        </g>
        <g>
          <path class="cls-13" d="M40.5,25.53c.14.02.36.08.68.19.31.11.68.32,1.09.63.41.31.77.78,1.08,1.4.31.62.46,1.41.46,2.36s-.18,1.67-.54,2.27c-.36.6-.79,1.06-1.29,1.35-.5.29-.97.47-1.42.53h-7.62v-8.73h7.57ZM40.44,33.09c.23-.04.52-.14.84-.3.32-.16.63-.46.92-.9.29-.43.43-1.03.43-1.78,0-.88-.15-1.57-.45-2.07-.3-.5-.62-.84-.95-1.01-.33-.18-.61-.28-.84-.32h-6.28v6.38h6.33Z"/>
          <rect class="cls-13" x="44.63" y="25.54" width="1.19" height="8.7"/>
          <path class="cls-13" d="M52.3,27.92c.77-.01,1.46-.13,2.06-.34.61-.22,1.08-.43,1.4-.65.33-.22.55-.38.66-.49l.96-.91v8.75h-1.14v-6.32c-.5.3-1.08.55-1.75.76-.66.21-1.39.32-2.18.33-.83,0-1.61-.1-2.33-.32-.72-.22-1.36-.49-1.92-.82v6.36h-1.14v-8.75l1,.87c.14.13.39.3.75.53.36.23.86.45,1.51.68.64.23,1.35.33,2.11.32"/>
          <rect class="cls-11" x="59.08" y="29.23" width="2.29" height="1.16"/>
          <g>
            <path class="cls-25" d="M63.83,25.5l3.93,7.57h.13l3.93-7.57h1.32l-3.93,7.57c-.33.63-.53,1.02-.61,1.18h-1.54c-.18-.33-.38-.72-.61-1.18l-3.94-7.57h1.32Z"/>
            <path class="cls-25" d="M80.54,28.7c.29.23.48.49.57.77.09.28.14.53.15.74,0,1.05-.58,1.6-1.76,1.66h-4.67s0,.25,0,.25c0,.27.02.49.07.64.05.16.13.27.25.34.12.07.27.12.46.15s.47.04.82.04h4.36c.13,0,.19.06.19.18v.59c0,.13-.06.19-.19.19h-4.51c-.63,0-1.12-.07-1.48-.21-.36-.14-.62-.36-.77-.67-.16-.3-.23-.72-.23-1.24v-1.5c0-.35.13-.7.4-1.05s.61-.65,1.02-.88c.42-.23.84-.35,1.28-.35h2.84c.52,0,.92.12,1.21.35ZM79.86,30.84c.09-.03.17-.09.26-.19.06-.07.11-.15.13-.24s.04-.21.05-.37c0-.07-.02-.16-.06-.27s-.11-.21-.22-.3-.26-.14-.45-.14h-3.1c-.22,0-.46.07-.72.21-.26.14-.48.33-.65.56-.18.24-.27.5-.27.79h4.61c.19,0,.33-.02.42-.05Z"/>
            <path class="cls-25" d="M88.63,29.25h-3.35c-.17,0-.36,0-.57,0-.21,0-.41.03-.58.08s-.34.15-.48.28c-.13.13-.23.29-.29.47-.05.18-.09.34-.09.47s0,.37,0,.71v2.92c0,.05-.02.08-.07.08h-.83s-.07-.03-.07-.08v-3.01c0-.12,0-.34,0-.64s.06-.61.18-.92.33-.58.63-.82c.19-.15.4-.26.62-.34.22-.08.44-.13.64-.16.2-.03.39-.04.56-.04h3.7v.99Z"/>
            <path class="cls-25" d="M90.69,25.48v1.04h-1.04v-1.04h1.04ZM90.69,27.9v6.35h-1.04v-6.35h1.04Z"/>
            <path class="cls-25" d="M94.03,29.59c-.22.12-.37.28-.46.47-.09.19-.14.37-.15.53-.01.17-.02.4-.02.69v.56h4.8v1h-4.8v4.04h-1.01v-4.3c0-.3,0-.7,0-1.2s0-.7,0-.61c0-.2,0-.38.02-.52.01-.14.06-.3.15-.49.09-.19.22-.37.42-.56.22-.22.44-.39.64-.5.21-.12.41-.19.61-.22.2-.03.43-.05.69-.05h3.95s0,.99,0,.99h-3.95c-.38,0-.67.06-.89.18Z"/>
            <path class="cls-25" d="M101.45,25.48v1.04h-1.04v-1.04h1.04ZM101.45,27.9v6.35h-1.04v-6.35h1.04Z"/>
            <path class="cls-25" d="M104.55,29.49c-.26.09-.48.22-.65.4s-.3.39-.4.66c-.09.27-.14.53-.14.79s.05.53.14.79.22.48.4.66.39.3.65.4.53.14.79.14h4.82v.97h-4.82c-.53,0-1.02-.13-1.48-.4-.45-.26-.81-.62-1.07-1.07-.26-.45-.39-.94-.39-1.48s.13-1.03.39-1.48c.27-.45.62-.81,1.07-1.07.45-.27.95-.4,1.48-.4h4.82v.97h-4.82c-.26,0-.52.05-.79.14Z"/>
            <path class="cls-25" d="M118.31,29.75c.24.42.36.94.36,1.56,0-.1,0-.08,0,.06h0v.69c0,.58-.12,1.03-.33,1.34-.22.31-.48.53-.79.63s-.63.17-.98.17c-.34,0-.6.02-.76.02h-3.15c-.49,0-.91-.18-1.26-.54s-.52-.79-.52-1.3.17-.95.52-1.31c.35-.36.77-.55,1.26-.55h4.83c0-.07-.02-.14-.04-.2s-.04-.11-.06-.13c-.09-.18-.22-.35-.39-.5-.17-.15-.36-.27-.56-.36-.21-.08-.42-.12-.65-.12h-4.64v-.94c0-.08,0-.11,0-.08h4.64c.54,0,1.03.14,1.5.42.22.13.41.29.57.47.16.18.31.4.46.65ZM117.61,32.19c0-.09,0-.29-.01-.62h-5.06c-.18,0-.34.08-.47.24-.13.16-.19.36-.19.58s.06.42.19.58c.13.16.29.24.47.24h3.28c.37,0,.67,0,.89-.02.22-.01.39-.07.52-.16.14-.1.23-.22.29-.35.05-.14.08-.3.09-.49Z"/>
            <path class="cls-25" d="M121.47,29.49c-.26.09-.48.22-.65.4-.17.17-.3.39-.39.66-.09.27-.14.53-.14.79s.05.53.14.79c.09.27.22.48.39.66.17.17.39.3.65.4s.53.14.79.14h4.82v.97h-4.82c-.53,0-1.02-.13-1.48-.4-.45-.26-.81-.62-1.07-1.07-.26-.45-.39-.94-.39-1.48s.13-1.03.39-1.48c.27-.45.62-.81,1.07-1.07.45-.27.95-.4,1.48-.4h4.82v.97h-4.82c-.26,0-.52.05-.79.14Z"/>
            <path class="cls-25" d="M129.12,25.48v1.04h-1.04v-1.04h1.04ZM129.12,27.9v6.35h-1.04v-6.35h1.04Z"/>
            <path class="cls-25" d="M134.38,28.36c.53-.02.99.02,1.38.15.39.12.71.29.96.51.25.22.44.45.58.69.14.25.24.48.31.69.06.21.1.4.12.55.02.16.03.22.03.2v.35c0,.25-.06.54-.19.87-.12.33-.32.64-.58.93-.26.3-.6.54-1.01.72s-.89.26-1.44.23h-1.1c-.55.03-1.03-.05-1.44-.23s-.75-.42-1.01-.72c-.26-.3-.45-.61-.58-.93-.12-.32-.19-.61-.19-.87v-.35s0-.04.03-.2c.02-.16.06-.34.12-.55.06-.21.17-.44.31-.69s.34-.48.59-.69c.25-.22.57-.39.96-.51.39-.12.85-.17,1.38-.15h.8ZM134.76,33.27c.73,0,1.25-.18,1.54-.53.3-.35.47-.73.51-1.14v-.17s.01-.28.01-.28v-.18c-.06-.38-.23-.75-.52-1.11s-.81-.54-1.54-.54h-1.56c-.74,0-1.25.18-1.54.54s-.46.73-.5,1.11l-.02.18v.26l.02.18c.04.4.21.78.51,1.14.3.35.81.53,1.54.53h1.56Z"/>
            <path class="cls-25" d="M145.86,29.76c.26.46.39.96.39,1.51v3h-.99v-3c0-.27-.05-.54-.14-.81-.09-.27-.22-.49-.4-.67-.17-.18-.38-.31-.64-.41-.26-.09-.52-.14-.77-.14h-1.86c-.5,0-1.15,0-1.95,0,0-.23,0-.02,0,.65s0,1.1,0,1.31v3.07h-.99v-6.01h4.79c.52,0,1.01.13,1.46.4.45.27.81.64,1.07,1.1Z"/>
            <path class="cls-25" d="M153.86,28.7c.29.23.48.49.57.77s.14.53.15.74c0,1.05-.58,1.6-1.76,1.66h-4.67s0,.25,0,.25c0,.27.02.49.07.64.05.16.13.27.25.34.11.07.27.12.46.15.19.02.47.04.82.04h4.36c.13,0,.19.06.19.18v.59c0,.13-.06.19-.19.19h-4.51c-.63,0-1.12-.07-1.48-.21-.36-.14-.62-.36-.77-.67s-.23-.72-.23-1.24v-1.5c0-.35.13-.7.4-1.05s.61-.65,1.02-.88c.42-.23.84-.35,1.27-.35h2.84c.52,0,.92.12,1.21.35ZM153.18,30.84c.09-.03.17-.09.26-.19.06-.07.11-.15.13-.24s.04-.21.05-.37c0-.07-.02-.16-.06-.27-.04-.11-.11-.21-.22-.3s-.26-.14-.45-.14h-3.1c-.22,0-.46.07-.72.21s-.48.33-.65.56c-.18.24-.27.5-.27.79h4.61c.19,0,.33-.02.42-.05Z"/>
            <path class="cls-25" d="M161.74,30.88c.4.02.74.15,1.04.39.3.24.45.7.45,1.38,0,.36-.09.67-.27.91s-.41.42-.68.54c-.27.12-.54.18-.8.18h-6v-.98s5.97,0,5.97,0c.21,0,.4-.05.57-.14.17-.09.25-.31.25-.65,0-.21-.06-.37-.18-.46s-.26-.15-.41-.17c-.16-.02-.25-.02-.29-.02h-4.35c-.23,0-.48-.07-.74-.19-.26-.12-.48-.32-.67-.6-.19-.28-.28-.63-.28-1.07,0-.38.1-.7.3-.95.2-.25.43-.44.71-.55.27-.12.54-.18.79-.2h5.42v.98h-5.36c-.22,0-.43.05-.62.14-.19.1-.29.33-.29.71,0,.3.09.5.26.59.18.09.35.14.52.15h4.66Z"/>
          </g>
        </g>
        <g>
          <path class="cls-5" d="M14.84.27L.55,4.78l14.33,11.12,14.04-10.84L14.84.27ZM20.37,10.39l-3.12,2.39-2.66-1.71,2.04-1.67c.37-.33.47-.56.47-.56v-3.18c.03-.54-.73-.85-.73-.85-.94-.45-2.38-.43-2.38-.43-1.33-.02-3.8.92-3.8.92v2.95l-3.69-2.37c2.35-.95,3.42-1.2,3.42-1.2,2.33-.65,3.96-.69,3.96-.69,2.61-.14,4.69.58,4.69.58,2.08.57,2.94,1.3,2.94,1.3,1.72,1.29,1.33,2.61,1.33,2.61-.27.24-2.47,1.91-2.47,1.91"/>
          <polygon class="cls-13" points=".02 8.24 .02 4.69 14.92 16.03 29.45 4.96 29.45 8.22 14.87 21.46 .02 8.24"/>
          <path class="cls-13" d="M6.42,5.91l-2.39-1.48s3.15-1.23,5.77-1.73,3.58-.53,5.07-.47,4.37.63,6.26,1.55c1.89.93,2.29,1.89,2.4,2.42.12.53.09,1.75-.34,2.13l-.42.38s.31-.69-.13-1.56c-.44-.87-1.39-1.7-3.12-2.29-1.73-.59-3.27-.92-5.14-.89-1.87.03-3.56.44-4.87.82-1.3.38-3.09,1.11-3.09,1.11"/>
          <path class="cls-13" d="M10.2,5.37v2.94l4.29,2.83s.94-.73,1.6-1.28c.66-.54.94-.87,1.01-1.03v-3.24s.08.51-1.06,1.15c-1.13.64-1.49.85-1.49.85l-4.35-2.21Z"/>
          <path class="cls-13" d="M14.88,16.23L0,4.68,14.85,0h.04s14.57,4.97,14.57,4.97l-14.57,11.26ZM.55,4.78l14.34,11.12,14.04-10.84L14.84.27.55,4.78Z"/>
          <path class="cls-13" d="M17.27,13.09l-.08-.05L3.75,4.39l.24-.09s3.19-1.24,5.8-1.74c1.92-.37,3-.49,4.14-.49.27,0,.57,0,.95.02,1.62.06,4.5.68,6.31,1.57,1.43.7,2.26,1.54,2.47,2.51.12.56.1,1.82-.38,2.25l-.43.38-5.59,4.29ZM4.32,4.45l12.94,8.32,5.44-4.17.42-.38c.38-.34.41-1.51.3-2-.2-.89-.98-1.67-2.33-2.33-1.78-.87-4.61-1.48-6.2-1.54-.38-.01-.68-.02-.95-.02-.97,0-1.94.08-4.1.49-2.17.41-4.73,1.34-5.51,1.63"/>
          <path class="cls-13" d="M14.47,7.64l-4.29-2.19.04-.07-.03-.08c.1-.04,2.43-.93,3.82-.93h.03c1.46.01,2.38.36,2.77.69.36.3.41.63.16,1.02-.18.28-.7.67-1.43,1.05-.71.38-1.02.5-1.03.51h-.03ZM10.32,5.39l4.15,2.12c.09-.04.4-.18.99-.49.7-.37,1.21-.74,1.38-1,.21-.33.17-.6-.13-.85-.37-.31-1.27-.65-2.69-.66h-.03c-1.21,0-3.21.72-3.68.89"/>
          <path class="cls-13" d="M40.5,6.74c.14.02.36.08.68.19.31.11.68.32,1.09.63.41.31.77.78,1.08,1.4.31.62.46,1.41.46,2.36s-.18,1.67-.54,2.27c-.36.61-.79,1.06-1.29,1.35-.5.29-.97.47-1.42.53h-7.62V6.73h7.57ZM40.44,14.29c.23-.04.52-.14.84-.3.32-.16.63-.46.92-.9.29-.43.43-1.03.43-1.78,0-.88-.15-1.57-.45-2.07-.3-.5-.62-.84-.95-1.01-.33-.18-.61-.28-.84-.32h-6.28v6.38h6.33Z"/>
          <rect class="cls-13" x="44.63" y="6.75" width="1.19" height="8.7"/>
          <path class="cls-13" d="M52.3,9.12c.77-.01,1.46-.13,2.06-.34.61-.22,1.08-.43,1.4-.65.33-.22.55-.38.66-.49l.96-.91v8.75h-1.14v-6.32c-.5.3-1.08.55-1.75.76-.66.21-1.39.32-2.18.33-.83,0-1.61-.1-2.33-.32-.72-.22-1.36-.49-1.92-.82v6.36h-1.14V6.73l1,.86c.14.13.39.3.75.53.36.23.86.45,1.51.68.64.23,1.35.33,2.11.32"/>
          <rect class="cls-11" x="59.08" y="10.44" width="2.29" height="1.16"/>
          <g>
            <path class="cls-25" d="M63.83,6.71l3.93,7.57h.13l3.93-7.57h1.32l-3.93,7.57c-.33.63-.53,1.02-.61,1.18h-1.54c-.18-.33-.38-.72-.61-1.18l-3.94-7.57h1.32Z"/>
            <path class="cls-25" d="M80.54,9.91c.29.23.48.49.57.77.09.28.14.53.15.74,0,1.05-.58,1.6-1.76,1.66h-4.67s0,.25,0,.25c0,.27.02.49.07.64s.13.27.25.34c.11.07.27.12.46.15s.47.04.82.04h4.36c.13,0,.19.06.19.18v.59c0,.13-.06.19-.19.19h-4.51c-.63,0-1.12-.07-1.48-.21-.36-.14-.62-.36-.77-.67s-.23-.72-.23-1.24v-1.5c0-.35.13-.7.4-1.05s.61-.65,1.02-.88c.42-.23.84-.35,1.28-.35h2.84c.52,0,.92.12,1.21.35ZM79.86,12.04c.09-.03.17-.09.26-.19.06-.07.1-.15.13-.24.03-.09.04-.21.05-.37,0-.07-.02-.16-.06-.27s-.11-.21-.22-.3-.26-.14-.45-.14h-3.1c-.22,0-.46.07-.72.21-.26.14-.48.33-.65.56-.18.24-.27.5-.27.79h4.61c.19,0,.33-.02.42-.05Z"/>
            <path class="cls-25" d="M88.63,10.46h-3.35c-.17,0-.36,0-.57,0-.21,0-.41.03-.58.08s-.34.15-.48.28c-.13.13-.23.29-.29.47-.05.18-.09.34-.09.47s0,.37,0,.71v2.92c0,.05-.03.08-.07.08h-.83s-.07-.03-.07-.08v-3.01c0-.12,0-.34,0-.64,0-.3.06-.61.18-.92s.33-.58.63-.82c.19-.15.4-.26.62-.34.22-.08.44-.13.64-.16.2-.03.39-.04.56-.04h3.7v.99Z"/>
            <path class="cls-25" d="M90.69,6.69v1.04h-1.04v-1.04h1.04ZM90.69,9.11v6.35h-1.04v-6.35h1.04Z"/>
            <path class="cls-25" d="M94.03,10.79c-.22.12-.37.28-.46.47-.09.19-.14.37-.15.53-.01.17-.02.4-.02.69v.56h4.8v1h-4.8v4.04h-1.01v-4.3c0-.3,0-.7,0-1.2s0-.7,0-.61c0-.2,0-.38.02-.52s.06-.3.15-.49c.09-.19.22-.37.42-.56.22-.22.44-.39.64-.5.21-.12.41-.19.61-.22.2-.03.43-.05.69-.05h3.95s0,.99,0,.99h-3.95c-.38,0-.67.06-.89.18Z"/>
            <path class="cls-25" d="M101.45,6.69v1.04h-1.04v-1.04h1.04ZM101.45,9.11v6.35h-1.04v-6.35h1.04Z"/>
            <path class="cls-25" d="M104.55,10.69c-.26.09-.48.22-.65.4s-.3.39-.4.66c-.09.27-.14.53-.14.79s.05.53.14.79.22.48.4.66.39.3.65.4.53.14.79.14h4.82v.97h-4.82c-.53,0-1.02-.13-1.48-.4-.45-.26-.81-.62-1.07-1.07-.26-.45-.39-.94-.39-1.48s.13-1.03.39-1.48c.27-.45.62-.81,1.07-1.07.45-.27.95-.4,1.48-.4h4.82v.97h-4.82c-.26,0-.52.05-.79.14Z"/>
            <path class="cls-25" d="M118.31,10.95c.24.42.36.94.36,1.56,0-.1,0-.08,0,.06h0v.69c0,.58-.12,1.03-.33,1.34-.22.31-.48.53-.79.63-.31.11-.63.17-.98.17-.34,0-.6.02-.76.02h-3.15c-.49,0-.91-.18-1.26-.54s-.52-.79-.52-1.3.17-.95.52-1.31c.35-.36.77-.55,1.26-.55h4.83c0-.07-.02-.14-.04-.2s-.04-.11-.06-.13c-.09-.18-.22-.35-.39-.5-.17-.15-.36-.27-.56-.36-.21-.08-.42-.12-.65-.12h-4.64v-.94c0-.08,0-.11,0-.08h4.64c.54,0,1.03.14,1.5.42.22.13.41.29.57.47.16.18.31.4.46.65ZM117.61,13.4c0-.09,0-.29-.01-.62h-5.06c-.18,0-.34.08-.47.24-.13.16-.19.36-.19.58s.06.42.19.58c.13.16.29.24.47.24h3.28c.37,0,.67,0,.89-.02s.39-.07.52-.16c.14-.1.23-.22.29-.35.05-.14.08-.3.09-.49Z"/>
            <path class="cls-25" d="M121.47,10.69c-.26.09-.48.22-.65.4-.17.17-.3.39-.4.66-.09.27-.14.53-.14.79s.05.53.14.79c.09.27.22.48.4.66.17.17.39.3.65.4s.53.14.79.14h4.82v.97h-4.82c-.53,0-1.02-.13-1.48-.4-.45-.26-.81-.62-1.07-1.07-.26-.45-.39-.94-.39-1.48s.13-1.03.39-1.48c.27-.45.62-.81,1.07-1.07.45-.27.95-.4,1.48-.4h4.82v.97h-4.82c-.26,0-.52.05-.79.14Z"/>
            <path class="cls-25" d="M129.12,6.69v1.04h-1.04v-1.04h1.04ZM129.12,9.11v6.35h-1.04v-6.35h1.04Z"/>
            <path class="cls-25" d="M134.38,9.57c.53-.02.99.02,1.38.15.39.12.71.29.96.51.25.22.44.45.58.69s.24.48.31.69c.06.21.1.4.12.55.02.16.03.22.03.2v.35c0,.25-.06.54-.19.87-.12.33-.32.64-.58.93-.26.3-.6.54-1.01.72s-.89.26-1.44.23h-1.1c-.55.03-1.03-.05-1.44-.23s-.75-.42-1.01-.72c-.26-.3-.46-.61-.58-.93-.12-.32-.19-.61-.19-.87v-.35s0-.04.03-.2c.02-.16.06-.34.12-.55.06-.21.17-.44.31-.69.14-.25.34-.48.59-.69.25-.22.57-.39.96-.51.39-.12.85-.17,1.38-.15h.8ZM134.76,14.48c.73,0,1.25-.18,1.54-.53.3-.35.47-.73.51-1.14v-.17s.01-.28.01-.28v-.18c-.06-.38-.23-.75-.52-1.11s-.81-.54-1.54-.54h-1.56c-.74,0-1.25.18-1.54.54s-.46.73-.5,1.11l-.02.18v.26l.02.18c.04.4.21.78.51,1.14.3.35.81.53,1.54.53h1.56Z"/>
            <path class="cls-25" d="M145.86,10.97c.26.46.39.96.39,1.51v3h-.99v-3c0-.27-.05-.54-.14-.81s-.22-.49-.4-.67c-.17-.18-.38-.31-.64-.41-.26-.09-.51-.14-.77-.14h-1.86c-.5,0-1.15,0-1.95,0,0-.23,0-.02,0,.65s0,1.1,0,1.31v3.07h-.99v-6.01h4.79c.52,0,1.01.13,1.47.4.45.27.81.64,1.07,1.1Z"/>
            <path class="cls-25" d="M153.86,9.91c.29.23.48.49.57.77s.14.53.15.74c0,1.05-.58,1.6-1.76,1.66h-4.67s0,.25,0,.25c0,.27.02.49.07.64.05.16.13.27.25.34.12.07.27.12.46.15.19.02.47.04.82.04h4.36c.13,0,.19.06.19.18v.59c0,.13-.06.19-.19.19h-4.51c-.63,0-1.12-.07-1.48-.21-.36-.14-.62-.36-.77-.67s-.23-.72-.23-1.24v-1.5c0-.35.13-.7.4-1.05s.61-.65,1.02-.88c.42-.23.84-.35,1.27-.35h2.84c.52,0,.92.12,1.21.35ZM153.18,12.04c.09-.03.17-.09.26-.19.06-.07.11-.15.13-.24s.04-.21.05-.37c0-.07-.02-.16-.06-.27s-.11-.21-.22-.3-.26-.14-.45-.14h-3.1c-.22,0-.46.07-.72.21-.26.14-.48.33-.65.56-.18.24-.27.5-.27.79h4.61c.19,0,.33-.02.42-.05Z"/>
            <path class="cls-25" d="M161.74,12.08c.4.02.74.15,1.04.39.3.24.45.7.45,1.38,0,.36-.09.67-.27.91s-.41.42-.68.54-.54.18-.8.18h-6v-.98s5.97,0,5.97,0c.21,0,.4-.05.57-.14.17-.09.25-.31.25-.65,0-.21-.06-.37-.18-.46s-.26-.15-.41-.17c-.16-.02-.25-.02-.29-.02h-4.35c-.23,0-.48-.07-.74-.19-.26-.12-.48-.32-.67-.6-.19-.28-.28-.63-.28-1.07,0-.38.1-.7.3-.95.2-.25.43-.44.71-.55.27-.12.54-.18.79-.2h5.42v.98h-5.36c-.22,0-.43.05-.62.14-.19.1-.29.33-.29.71,0,.3.09.5.26.59.18.09.35.14.52.15h4.66Z"/>
          </g>
          <g>
            <path class="cls-3" d="M97.47,21.38h-.28s0,0,0-.05v-1.65c0-.11.04-.21.12-.32.08-.1.18-.19.3-.25.12-.07.23-.1.33-.1h.53c.16,0,.31.02.43.07.12.05.22.12.3.21.08.09.14.18.17.27.04.09.06.18.06.25v.1s0,.01,0,.06c0,.04-.02.1-.04.16-.02.06-.05.13-.09.2-.04.07-.1.14-.17.2-.08.06-.17.11-.29.15-.12.04-.25.05-.41.04h-.96v.65ZM97.47,20.45h1.08c.17,0,.31-.04.4-.11.09-.07.15-.15.17-.22s.04-.14.04-.19v-.09c0-.06-.01-.13-.04-.21-.03-.08-.09-.16-.18-.23s-.22-.1-.39-.1h-.58c-.08,0-.15.02-.23.07-.08.05-.14.1-.19.17s-.07.14-.07.2v.7Z"/>
            <path class="cls-3" d="M101.88,19.26h-.99s-.11,0-.17,0c-.06,0-.12,0-.17.02-.05.02-.1.04-.14.08-.04.04-.07.08-.08.14s-.03.1-.03.14c0,.04,0,.11,0,.21v.87s0,.02-.02.02h-.25s-.02,0-.02-.02v-.89s0-.1,0-.19c0-.09.02-.18.05-.27.04-.09.1-.17.19-.24.06-.04.12-.08.18-.1.07-.02.13-.04.19-.05s.12-.01.17-.01h1.1v.29Z"/>
            <path class="cls-3" d="M103.69,19c.16,0,.29,0,.41.04.12.04.21.09.28.15.07.06.13.13.17.21.04.07.07.14.09.2s.03.12.04.16,0,.07,0,.06v.1c0,.08-.02.16-.05.26-.04.1-.09.19-.17.28-.08.09-.18.16-.3.21s-.26.08-.43.07h-.33c-.16,0-.31-.01-.43-.07-.12-.05-.22-.12-.3-.21-.08-.09-.13-.18-.17-.28-.04-.1-.05-.18-.05-.26v-.1s0-.01,0-.06.02-.1.04-.16.05-.13.09-.2c.04-.07.1-.14.17-.21.07-.06.17-.12.28-.15.11-.04.25-.05.41-.04h.24ZM103.8,20.45c.22,0,.37-.05.46-.16s.14-.22.15-.34v-.05s0-.08,0-.08v-.05c-.02-.11-.07-.22-.15-.33-.09-.11-.24-.16-.46-.16h-.46c-.22,0-.37.05-.46.16-.09.11-.14.22-.15.33v.05s0,.08,0,.08v.05c.02.12.07.23.16.34.09.1.24.16.46.16h.46Z"/>
            <path class="cls-3" d="M107.25,18.36h.28s0,0,0,.05v1.68c0,.12-.01.22-.04.3s-.07.15-.12.2c-.06.05-.13.09-.22.11-.09.02-.21.04-.35.04h-.57c-.16,0-.31-.01-.43-.07-.12-.05-.23-.12-.3-.21-.08-.09-.14-.18-.17-.27-.04-.1-.06-.18-.06-.26v-.1s0-.01,0-.06c0-.05.02-.1.04-.16.02-.06.05-.13.09-.2s.1-.14.17-.2c.08-.06.17-.11.29-.15.12-.04.25-.05.41-.04h.97v-.66ZM107.25,19.3h-1.08c-.18,0-.31.04-.4.11s-.15.15-.18.23c-.03.08-.04.14-.04.19v.08c0,.06.01.13.04.21.03.08.09.16.18.23.09.07.22.1.4.1h.75c.09,0,.15-.02.2-.06.05-.04.08-.09.1-.15.02-.07.03-.15.03-.24v-.71Z"/>
            <path class="cls-3" d="M109.74,20.41c.08-.03.14-.07.19-.12s.09-.12.12-.2c.03-.08.04-.16.04-.24v-.9h.29v.9c0,.16-.04.31-.12.45-.08.14-.19.25-.32.33-.13.08-.28.12-.44.12h-.56c-.16,0-.3-.04-.44-.12-.13-.08-.24-.19-.32-.33-.08-.14-.12-.29-.12-.45v-.9h.29s0,0,0,.02v.87c0,.08.01.16.04.24.03.08.07.15.12.2s.11.09.19.12c.08.03.15.04.23.04h.56c.08,0,.15-.01.23-.04Z"/>
            <path class="cls-3" d="M111.52,19.33c-.08.03-.14.07-.19.12s-.09.12-.12.19c-.03.08-.04.16-.04.23s.01.16.04.23c.03.08.07.14.12.19s.12.09.19.12.16.04.23.04h1.43v.29h-1.43c-.16,0-.3-.04-.44-.12-.13-.08-.24-.18-.32-.32-.08-.13-.12-.28-.12-.44s.04-.3.12-.44c.08-.13.18-.24.32-.32.13-.08.28-.12.44-.12h1.43v.29h-1.43c-.08,0-.16.01-.23.04Z"/>
            <path class="cls-3" d="M115.21,20.45v.29h-.54c-.15,0-.3-.04-.43-.11-.13-.08-.24-.18-.32-.31-.08-.13-.12-.27-.12-.43v-1.55h.29s0,0,0,.02v.64h.67s0,0,0,.02v.26s0,0-.03,0h-.65v.62c0,.13.03.23.1.32s.13.15.21.19c.04.02.09.04.16.05.07,0,.13,0,.18,0h.48Z"/>
            <path class="cls-3" d="M117.07,19c.16,0,.29,0,.41.04.12.04.21.09.28.15.07.06.13.13.17.21.04.07.07.14.09.2.02.06.03.12.04.16s0,.07,0,.06v.1c0,.08-.02.16-.06.26-.04.1-.09.19-.17.28-.08.09-.18.16-.3.21s-.26.08-.43.07h-.33c-.16,0-.3-.01-.43-.07-.12-.05-.22-.12-.3-.21-.08-.09-.13-.18-.17-.28-.04-.1-.06-.18-.06-.26v-.1s0-.01,0-.06.02-.1.04-.16.05-.13.09-.2c.04-.07.1-.14.17-.21.08-.06.17-.12.28-.15.12-.04.25-.05.41-.04h.24ZM117.18,20.45c.22,0,.37-.05.46-.16s.14-.22.15-.34v-.05s0-.08,0-.08v-.05c-.02-.11-.07-.22-.15-.33-.09-.11-.24-.16-.46-.16h-.46c-.22,0-.37.05-.46.16-.09.11-.14.22-.15.33v.05s0,.08,0,.08v.05c.02.12.07.23.16.34.09.1.24.16.46.16h.46Z"/>
            <path class="cls-3" d="M120.49,19.74c.12,0,.22.05.31.12s.13.21.13.41c0,.11-.03.2-.08.27-.05.07-.12.12-.2.16-.08.03-.16.05-.24.05h-1.78v-.29s1.77,0,1.77,0c.06,0,.12-.01.17-.04.05-.03.08-.09.08-.19,0-.06-.02-.11-.05-.14-.04-.03-.08-.04-.12-.05s-.07,0-.08,0h-1.29c-.07,0-.14-.02-.22-.06-.08-.04-.14-.09-.2-.18-.06-.08-.08-.19-.08-.32,0-.11.03-.21.09-.28.06-.07.13-.13.21-.16.08-.04.16-.05.23-.06h1.61v.29h-1.59c-.07,0-.13.01-.18.04-.06.03-.08.1-.08.21,0,.09.03.15.08.18.05.03.1.04.15.04h1.38Z"/>
            <path class="cls-3" d="M124.59,18.98v1.52c-.01.17-.05.33-.13.45-.09.16-.2.27-.32.34-.12.07-.27.11-.45.11h-1.24s-.02,0-.02-.02v-.25s0-.02.02-.02h1.24c.06,0,.12,0,.17-.01.05,0,.09-.03.13-.05.05-.04.1-.07.13-.1s.06-.06.08-.11l.04-.09h-1.13c-.13,0-.25-.02-.36-.08-.11-.05-.19-.11-.26-.18-.07-.07-.12-.15-.18-.26-.05-.11-.08-.22-.08-.33v-.92s0-.02,0-.02h.3s0,0,0,.02v.94c0,.06.01.12.04.18s.04.11.07.13c.01.01.04.04.07.07.03.03.08.07.14.09.06.03.13.05.22.06h1.24s0-1.47,0-1.47c0-.02,0-.02.02-.02h.25s.02,0,.02.02Z"/>
            <path class="cls-3" d="M127.8,19.74c.12,0,.22.05.31.12.09.07.13.21.13.41,0,.11-.03.2-.08.27-.05.07-.12.12-.2.16-.08.03-.16.05-.24.05h-1.78v-.29s1.77,0,1.77,0c.06,0,.12-.01.17-.04.05-.03.08-.09.08-.19,0-.06-.02-.11-.05-.14-.04-.03-.08-.04-.12-.05s-.07,0-.08,0h-1.29c-.07,0-.14-.02-.22-.06-.08-.04-.14-.09-.2-.18-.06-.08-.08-.19-.08-.32,0-.11.03-.21.09-.28.06-.07.13-.13.21-.16.08-.04.16-.05.23-.06h1.61v.29h-1.59c-.07,0-.13.01-.18.04-.06.03-.08.1-.08.21,0,.09.03.15.08.18.05.03.1.04.15.04h1.38Z"/>
            <path class="cls-3" d="M130.8,19.1c.08.07.14.14.17.23.03.08.04.16.04.22,0,.31-.17.48-.52.49h-1.38s0,.07,0,.07c0,.08,0,.14.02.19s.04.08.07.1c.03.02.08.04.14.04.06,0,.14.01.24.01h1.29s.06.02.06.05v.17s-.02.06-.06.06h-1.33c-.19,0-.33-.02-.44-.06-.11-.04-.18-.11-.23-.2s-.07-.21-.07-.37v-.44c0-.1.04-.21.12-.31.08-.1.18-.19.3-.26s.25-.1.38-.1h.84c.15,0,.27.03.36.1ZM130.59,19.73s.05-.03.08-.06c.02-.02.03-.04.04-.07s.01-.06.01-.11c0-.02,0-.05-.02-.08-.01-.03-.03-.06-.07-.09-.03-.03-.08-.04-.13-.04h-.92c-.07,0-.14.02-.21.06s-.14.1-.19.17-.08.15-.08.23h1.37c.06,0,.1,0,.12-.01Z"/>
            <path class="cls-3" d="M133.52,19.26h-.99s-.11,0-.17,0c-.06,0-.12,0-.17.02-.05.02-.1.04-.14.08-.04.04-.07.08-.08.14-.02.05-.03.1-.03.14,0,.04,0,.11,0,.21v.87s0,.02-.02.02h-.25s-.02,0-.02-.02v-.89s0-.1,0-.19c0-.09.02-.18.05-.27.03-.09.1-.17.19-.24.06-.04.12-.08.18-.1.07-.02.13-.04.19-.05.06,0,.12-.01.17-.01h1.1v.29Z"/>
            <path class="cls-3" d="M134.21,18.95l1.03,1.55h.04l1.03-1.55h.35l-1.04,1.55c-.08.13-.14.21-.16.24h-.4c-.05-.07-.1-.15-.16-.24l-1.03-1.55h.35Z"/>
            <path class="cls-3" d="M137.36,18.14v.31h-.31v-.31h.31ZM137.36,18.86v1.88h-.31v-1.88h.31Z"/>
            <path class="cls-3" d="M138.6,19.33c-.08.03-.14.07-.19.12s-.09.12-.12.19c-.03.08-.04.16-.04.23s.01.16.04.23c.03.08.07.14.12.19s.12.09.19.12.16.04.23.04h1.43v.29h-1.43c-.16,0-.3-.04-.44-.12-.13-.08-.24-.18-.32-.32-.08-.13-.12-.28-.12-.44s.04-.3.12-.44c.08-.13.18-.24.32-.32.13-.08.28-.12.44-.12h1.43v.29h-1.43c-.08,0-.16.01-.23.04Z"/>
            <path class="cls-3" d="M141.18,18.14v.31h-.31v-.31h.31ZM141.18,18.86v1.88h-.31v-1.88h.31Z"/>
            <path class="cls-3" d="M143.06,19c.16,0,.29,0,.41.04s.21.09.28.15c.07.06.13.13.17.21.04.07.07.14.09.2.02.06.03.12.04.16s0,.07,0,.06v.1c0,.08-.02.16-.05.26-.04.1-.09.19-.17.28-.08.09-.18.16-.3.21s-.26.08-.43.07h-.33c-.16,0-.3-.01-.43-.07-.12-.05-.22-.12-.3-.21-.08-.09-.13-.18-.17-.28-.04-.1-.06-.18-.06-.26v-.1s0-.01,0-.06.02-.1.04-.16.05-.13.09-.2c.04-.07.1-.14.17-.21.08-.06.17-.12.28-.15.12-.04.25-.05.41-.04h.24ZM143.17,20.45c.22,0,.37-.05.46-.16.09-.1.14-.22.15-.34v-.05s0-.08,0-.08v-.05c-.02-.11-.07-.22-.15-.33-.09-.11-.24-.16-.46-.16h-.46c-.22,0-.37.05-.46.16-.09.11-.14.22-.15.33v.05s0,.08,0,.08v.05c.02.12.07.23.16.34.09.1.24.16.46.16h.46Z"/>
            <path class="cls-3" d="M146.49,19.74c.12,0,.22.05.31.12.09.07.13.21.13.41,0,.11-.03.2-.08.27-.05.07-.12.12-.2.16-.08.03-.16.05-.24.05h-1.78v-.29s1.77,0,1.77,0c.06,0,.12-.01.17-.04.05-.03.08-.09.08-.19,0-.06-.02-.11-.05-.14-.04-.03-.08-.04-.12-.05s-.07,0-.08,0h-1.29c-.07,0-.14-.02-.22-.06-.08-.04-.14-.09-.2-.18-.06-.08-.08-.19-.08-.32,0-.11.03-.21.09-.28.06-.07.13-.13.21-.16.08-.04.16-.05.23-.06h1.61v.29h-1.59c-.07,0-.13.01-.18.04-.06.03-.08.1-.08.21,0,.09.03.15.08.18.05.03.1.04.15.04h1.38Z"/>
          </g>
          <rect class="cls-1" x="158.96" y="18.12" width="4.16" height="1.32"/>
          <rect class="cls-27" x="158.96" y="19.44" width="4.16" height=".66"/>
          <rect class="cls-2" x="158.96" y="20.09" width="4.16" height=".66"/>
          <rect class="cls-22" x="153.87" y="18.12" width="1.39" height="2.63"/>
          <rect class="cls-22" x="156.64" y="18.12" width="1.39" height="2.63"/>
          <rect class="cls-5" x="155.25" y="18.12" width="1.39" height="2.63"/>
          <polyline class="cls-14" points="152.93 20.75 148.78 20.75 148.78 19.43 152.93 19.43"/>
          <rect class="cls-19" x="148.78" y="18.12" width="1.39" height="1.32"/>
          <rect class="cls-5" x="150.16" y="18.12" width="2.77" height="1.32"/>
          <polygon class="cls-5" points="149.14 18.67 149.39 18.67 149.47 18.45 149.55 18.67 149.8 18.67 149.59 18.81 149.67 19.04 149.47 18.9 149.26 19.04 149.34 18.82 149.14 18.67"/>
        </g>
        <g>
          <rect class="cls-21" x="110.82" y="145.09" width="33.62" height="36.88"/>
          <path class="cls-5" d="M141.44,179.98h-27.62c-.53,0-.96-.43-.96-.96v-30.91c0-.53.43-.96.96-.96h27.62c.53,0,.96.43.96.96v30.91c0,.53-.43.96-.96.96"/>
          <path class="cls-4" d="M137.97,155.46h-20.62c-.4,0-.72-.32-.72-.72s.32-.72.72-.72h20.62c.4,0,.72.32.72.72s-.32.72-.72.72"/>
          <path class="cls-4" d="M137.9,165.37h-20.62c-.4,0-.72-.32-.72-.72s.32-.72.72-.72h20.62c.4,0,.72.32.72.72s-.32.72-.72.72"/>
          <path class="cls-4" d="M137.9,174.82h-20.62c-.4,0-.72-.32-.72-.72s.32-.72.72-.72h20.62c.4,0,.72.32.72.72s-.32.72-.72.72"/>
          <path class="cls-9" d="M155.6,167.62c0,9.23-7.48,16.71-16.71,16.71s-16.71-7.48-16.71-16.71,7.48-16.71,16.71-16.71,16.71,7.48,16.71,16.71"/>
          <path class="cls-5" d="M153.21,167.62c0,7.91-6.41,14.32-14.32,14.32s-14.32-6.41-14.32-14.32,6.41-14.32,14.32-14.32,14.32,6.41,14.32,14.32"/>
          <path class="cls-7" d="M162.73,153.23h0c-.67-.67-1.75-.67-2.42,0l-13.27,13.27c-.67.67-1.75.67-2.42,0l-5.11-5.11c-.67-.67-1.75-.67-2.42,0-.67.67-.67,1.75,0,2.41l6.31,6.31-.04.04,2.42,2.41.04-.04.04.04,2.42-2.41-.04-.04,14.47-14.47c.67-.67.67-1.75,0-2.42"/>
          <path class="cls-21" d="M133.65,164.55v-4.94s.24-1.53-2.21-.84c0,0-6.91,1.73-1.81,12.98,0,0,4.3,9.6,9.93,6.59,0,0,1.85-.88.96-2.09l-3.42-3.38s-.8-.8-1.97.8c0,0-.36,1.65-2.81-3.66,0,0-2.29-4.9-.76-4.9,0,0,1.89.28,2.09-.56"/>
        </g>
        <g>
          <rect class="cls-18" x="108.78" y="106.83" width="9.26" height="5.14"/>
          <path class="cls-6" d="M126.37,113.78h-25.92v-.52c0-.81,1.23-1.47,2.74-1.47h20.44c1.51,0,2.74.66,2.74,1.47v.52Z"/>
          <path class="cls-6" d="M146.21,106.9c0,.46-.37.83-.82.83h-63.77c-.45,0-.82-.37-.82-.83v-42.58c0-.46.37-.83.82-.83h63.77c.45,0,.82.37.82.83v42.58Z"/>
          <rect class="cls-5" x="83.09" y="65.81" width="60.81" height="38.69"/>
          <rect class="cls-17" x="83.09" y="65.81" width="60.81" height="4.21"/>
          <rect class="cls-16" x="83.09" y="103.1" width="60.81" height="1.4"/>
          <rect class="cls-15" x="83.09" y="70.02" width="60.81" height="2.4"/>
          <g class="cls-23">
            <g class="cls-24">
              <polygon class="cls-5" points="105.44 65.82 83.09 88.39 83.09 75.88 93.04 65.82 105.44 65.82"/>
            </g>
          </g>
          <g class="cls-23">
            <g class="cls-10">
              <polygon class="cls-5" points="143.91 79.62 143.91 95.82 135.31 104.5 119.29 104.5 143.91 79.62"/>
            </g>
          </g>
          <g class="cls-23">
            <g class="cls-20">
              <polygon class="cls-5" points="80.92 85.15 103.19 107.68 90.85 107.68 80.92 97.64 80.92 85.15"/>
            </g>
          </g>
          <path class="cls-5" d="M142.08,67.75c0,.58-.47,1.06-1.05,1.06s-1.05-.47-1.05-1.06.47-1.06,1.05-1.06,1.05.47,1.05,1.06"/>
          <path class="cls-5" d="M138.37,67.75c0,.58-.47,1.06-1.05,1.06s-1.05-.47-1.05-1.06.47-1.06,1.05-1.06,1.05.47,1.05,1.06"/>
          <path class="cls-5" d="M134.65,67.75c0,.58-.47,1.06-1.05,1.06s-1.05-.47-1.05-1.06.47-1.06,1.05-1.06,1.05.47,1.05,1.06"/>
          <rect class="cls-21" x="70.96" y="55.18" width="36.16" height="39.23"/>
          <path class="cls-5" d="M103.88,92.56h-29.67c-.58,0-1.05-.48-1.05-1.06v-33.58c0-.59.47-1.06,1.05-1.06h29.67c.58,0,1.05.48,1.05,1.06v33.58c0,.59-.47,1.06-1.05,1.06"/>
          <path class="cls-4" d="M78.54,62.63c0,.88-.71,1.6-1.58,1.6s-1.58-.72-1.58-1.6.71-1.6,1.58-1.6,1.58.72,1.58,1.6"/>
          <path class="cls-4" d="M100.9,63.66h-20.31c-.47,0-.85-.38-.85-.86v-.04c0-.47.38-.86.85-.86h20.31c.47,0,.85.38.85.86v.04c0,.47-.38.86-.85.86"/>
          <path class="cls-4" d="M78.54,67.22c0,.88-.7,1.59-1.57,1.59s-1.57-.71-1.57-1.59.7-1.59,1.57-1.59,1.57.71,1.57,1.59"/>
          <path class="cls-4" d="M100.93,68.13h-20.31c-.47,0-.85-.38-.85-.86v-.04c0-.47.38-.86.85-.86h20.31c.47,0,.85.38.85.86v.04c0,.47-.38.86-.85.86"/>
          <path class="cls-4" d="M78.52,71.63c0,.87-.69,1.57-1.55,1.57s-1.55-.7-1.55-1.57.69-1.57,1.55-1.57,1.55.7,1.55,1.57"/>
          <path class="cls-4" d="M100.82,72.51h-20.31c-.47,0-.85-.38-.85-.86v-.04c0-.47.38-.86.85-.86h20.31c.47,0,.85.38.85.86v.04c0,.47-.38.86-.85.86"/>
          <path class="cls-4" d="M89.96,79.6h-11.81c-.54,0-.97-.44-.97-.98v-.04c0-.54.44-.98.97-.98h11.81c.54,0,.97.44.97.98v.04c0,.54-.44.98-.97.98"/>
          <path class="cls-4" d="M89.96,84.19h-11.81c-.54,0-.97-.44-.97-.98v-.04c0-.54.44-.98.97-.98h11.81c.54,0,.97.44.97.98v.04c0,.54-.44.98-.97.98"/>
          <path class="cls-4" d="M89.96,88.48h-11.81c-.54,0-.97-.44-.97-.98v-.04c0-.54.44-.98.97-.98h11.81c.54,0,.97.44.97.98v.04c0,.54-.44.98-.97.98"/>
          <polygon class="cls-26" points="105.39 70.3 103.99 68.88 94.86 78.11 90.48 73.68 89.07 75.1 93.45 79.53 93.43 79.55 94.84 80.97 94.86 80.95 94.88 80.97 96.29 79.55 96.26 79.53 105.39 70.3"/>
          <polygon class="cls-26" points="105.16 80.83 103.76 79.41 94.63 88.64 90.25 84.21 88.84 85.63 93.22 90.06 93.2 90.08 94.61 91.5 94.63 91.48 94.65 91.5 96.05 90.08 96.03 90.06 105.16 80.83"/>
          <path class="cls-9" d="M155.91,90.6c0,11-8.82,19.91-19.7,19.91s-19.7-8.92-19.7-19.91,8.82-19.91,19.7-19.91,19.7,8.92,19.7,19.91"/>
          <path class="cls-5" d="M153.1,90.6c0,9.43-7.56,17.07-16.89,17.07s-16.89-7.64-16.89-17.07,7.56-17.07,16.89-17.07,16.89,7.64,16.89,17.07"/>
          <polygon class="cls-7" points="163.23 77.74 160.83 75.31 145.25 91.06 137.78 83.51 135.38 85.93 142.85 93.49 142.82 93.53 145.22 95.95 145.25 95.91 145.29 95.95 147.69 93.53 147.65 93.49 163.23 77.74"/>
          <path class="cls-21" d="M131.11,86.49v-6.48s.31-2-2.87-1.11c0,0-8.96,2.26-2.34,17.01,0,0,5.57,12.58,12.87,8.64,0,0,2.4-1.16,1.25-2.74l-4.43-4.42s-1.04-1.05-2.55,1.05c0,0-.47,2.16-3.65-4.79,0,0-2.97-6.42-.99-6.42,0,0,2.45.37,2.71-.74"/>
        </g>
      </g>
    </g>
  </g>
</svg>