<?xml version="1.0" encoding="UTF-8"?>
<svg xmlns="http://www.w3.org/2000/svg" xmlns:xlink="http://www.w3.org/1999/xlink" viewBox="0 0 94.31 209.82">
  <defs>
    <style>
      .cls-1 {
        fill: #f9cf16;
      }

      .cls-2 {
        fill: #cd142a;
      }

      .cls-3 {
        fill: #4a4a4a;
      }

      .cls-4 {
        fill: #646365;
      }

      .cls-5 {
        fill: #fff;
      }

      .cls-6, .cls-7 {
        fill: #625f60;
      }

      .cls-8 {
        fill: #505050;
      }

      .cls-9 {
        fill: none;
      }

      .cls-10 {
        fill: #4780b4;
      }

      .cls-11 {
        clip-path: url(#clippath-1);
      }

      .cls-12 {
        fill: #d00e4d;
      }

      .cls-13 {
        isolation: isolate;
      }

      .cls-14 {
        fill: #d00e4c;
      }

      .cls-15 {
        fill: #d22e1f;
      }

      .cls-7 {
        font-family: DimRegular, Dim-Regular;
        font-size: 12px;
      }

      .cls-16 {
        fill: #dcdcdc;
      }

      .cls-17 {
        fill: #d92d5f;
      }

      .cls-18 {
        fill: #d20f48;
      }

      .cls-19 {
        fill: #333233;
      }

      .cls-20 {
        fill: #1d458c;
      }

      .cls-21 {
        clip-path: url(#clippath-2);
      }

      .cls-22 {
        fill: #e1222c;
      }

      .cls-23 {
        mix-blend-mode: screen;
        opacity: .1;
      }

      .cls-24 {
        clip-path: url(#clippath);
      }

      .cls-25 {
        fill: #828384;
      }

      .cls-26 {
        fill: #1b4180;
      }
    </style>
    <clipPath id="clippath">
      <rect class="cls-9" x="6.17" y="58.46" width="31.2" height="31.19"/>
    </clipPath>
    <clipPath id="clippath-1">
      <rect class="cls-9" x="56.72" y="77.53" width="34.38" height="34.37"/>
    </clipPath>
    <clipPath id="clippath-2">
      <rect class="cls-9" x="3.14" y="85.17" width="31.1" height="31.12"/>
    </clipPath>
  </defs>
  <g class="cls-13">
    <g id="Capa_2">
      <g id="Capa_1-2" data-name="Capa_1">
        <g>
          <text class="cls-7" transform="translate(21.5 205.68)"><tspan x="0" y="0">Icono app</tspan></text>
          <g>
            <path class="cls-14" d="M40.5,27.05c.14.02.36.08.68.19.31.11.68.32,1.09.63.41.31.77.78,1.08,1.4.31.62.46,1.41.46,2.36s-.18,1.67-.54,2.27c-.36.6-.79,1.06-1.29,1.35-.5.29-.97.47-1.42.53h-7.62v-8.73h7.57ZM40.44,34.61c.23-.04.52-.14.84-.3.32-.16.63-.46.92-.9.29-.43.43-1.03.43-1.78,0-.88-.15-1.57-.45-2.07-.3-.5-.62-.84-.95-1.01-.33-.18-.61-.28-.84-.32h-6.28v6.38h6.33Z"/>
            <rect class="cls-14" x="44.63" y="27.06" width="1.19" height="8.7"/>
            <path class="cls-14" d="M52.3,29.44c.77-.01,1.46-.13,2.06-.34.61-.22,1.08-.43,1.4-.65.33-.22.55-.38.66-.49l.96-.91v8.75h-1.14v-6.32c-.5.3-1.08.55-1.75.76-.66.21-1.39.32-2.18.33-.83,0-1.61-.1-2.33-.32-.72-.22-1.36-.49-1.92-.82v6.36h-1.14v-8.75l1,.87c.14.13.39.3.75.53.36.23.86.45,1.51.68.64.23,1.35.33,2.11.32"/>
            <rect class="cls-12" x="59.08" y="30.75" width="2.29" height="1.16"/>
            <g>
              <path class="cls-25" d="M77.53,26.98l-4.57,8.79c-.92-1.46-1.6-2.51-2.05-3.14-.45-.63-.74-1.01-.86-1.15-.13.13-.42.52-.86,1.15-.45.63-1.13,1.68-2.05,3.14l-4.57-8.79h1.34l3.46,6.65c.69-1.12,1.23-1.98,1.63-2.57s.76-1.08,1.07-1.45c.31.37.67.86,1.07,1.45s.94,1.46,1.63,2.57l3.46-6.65h1.33Z"/>
              <path class="cls-25" d="M84.89,30.22c.29.23.48.49.57.77s.14.53.15.74c0,1.05-.58,1.6-1.76,1.66h-4.67s0,.25,0,.25c0,.27.02.49.07.64.05.16.13.27.25.34.11.07.27.12.46.15.19.02.47.04.82.04h4.36c.13,0,.19.06.19.18v.59c0,.13-.06.19-.19.19h-4.51c-.63,0-1.12-.07-1.48-.21s-.62-.36-.77-.67-.23-.72-.23-1.24v-1.5c0-.35.13-.7.4-1.05s.61-.65,1.02-.88c.42-.23.84-.35,1.28-.35h2.84c.52,0,.92.12,1.21.35ZM84.21,32.36c.09-.03.17-.09.26-.19.06-.07.11-.15.13-.24s.04-.21.05-.37c0-.07-.02-.16-.06-.27-.04-.11-.11-.21-.22-.3-.11-.09-.26-.14-.45-.14h-3.1c-.22,0-.46.07-.72.21s-.48.33-.65.56c-.18.24-.27.5-.27.79h4.61c.19,0,.33-.02.42-.05Z"/>
              <path class="cls-25" d="M87.64,29.96h0,3.26c.54-.03,1,.02,1.39.14.39.12.71.29.97.5.25.21.45.44.59.68.14.24.24.47.31.68s.11.4.12.55c.02.15.02.22.02.19v.34c0,.25-.06.54-.19.86-.13.32-.32.62-.59.92-.26.29-.6.53-1.02.71s-.9.25-1.46.23h-1.92c-.47,0-.85-.04-1.17-.12s-.56-.21-.75-.38c-.19-.17-.32-.4-.41-.67-.08-.28-.13-.61-.13-1v-5.67c0-.17,0-.23,0-.17h.96v2.21ZM87.64,33.29c0,.32.03.59.1.82s.18.39.35.51c.17.12.39.18.68.18h2.51c.58,0,1.03-.12,1.34-.35.31-.24.51-.49.6-.76.09-.27.14-.51.14-.71v-.29c0-.16-.04-.38-.13-.65-.09-.27-.29-.52-.59-.76s-.76-.36-1.35-.36h-3.64v2.37Z"/>
            </g>
          </g>
          <g>
            <rect class="cls-8" x="48.05" y="146.24" width="37.53" height="30.89"/>
            <rect class="cls-5" x="50.34" y="154.45" width="32.96" height="21.03"/>
            <rect class="cls-5" x="50.37" y="147.93" width="32.92" height="4.86"/>
            <rect class="cls-8" x="68.78" y="148.74" width="2.96" height="2.96"/>
            <rect class="cls-8" x="73.83" y="148.74" width="2.96" height="2.96"/>
            <rect class="cls-8" x="78.88" y="148.74" width="2.96" height="2.96"/>
            <path class="cls-5" d="M88.2,173.08c0,2.92-.78,5.65-2.14,8.01-1.4,2.43-3.43,4.46-5.86,5.86-2.36,1.36-5.09,2.15-8.01,2.15s-5.65-.78-8.01-2.15c-2.43-1.4-4.46-3.43-5.86-5.86-1.36-2.36-2.15-5.09-2.15-8.01s.78-5.65,2.15-8.01c1.4-2.43,3.43-4.46,5.86-5.87,2.35-1.36,5.09-2.14,8.01-2.14s5.65.78,8.01,2.14c2.43,1.41,4.46,3.44,5.86,5.87,1.36,2.36,2.14,5.09,2.14,8.01"/>
            <path class="cls-3" d="M85.55,163.58c-.06-.11-.12-.2-.21-.28-2.99-4.01-7.77-6.63-13.15-6.63s-10.15,2.61-13.14,6.63c-.09.08-.16.18-.22.3-1.9,2.68-3.04,5.94-3.04,9.47,0,9.05,7.36,16.41,16.4,16.41s16.41-7.36,16.41-16.41c0-3.53-1.14-6.8-3.05-9.48M84.35,180.53c-1.3-.42-2.61-.77-3.92-1.06.37-1.65.59-3.46.66-5.35h5.34c-.17,2.34-.91,4.51-2.07,6.41M72.19,187.36c-2.27,0-4.31-2.49-5.55-6.2,3.72-.57,7.43-.57,11.12-.01-1.24,3.72-3.29,6.21-5.57,6.21M66.06,179.09c-.35-1.54-.57-3.21-.64-4.96h13.54c-.06,1.75-.29,3.42-.64,4.96-4.07-.65-8.16-.65-12.26,0M57.96,174.13h5.34c.06,1.9.28,3.7.66,5.36-1.31.28-2.62.63-3.93,1.05-1.17-1.89-1.9-4.07-2.07-6.41M60.21,165.33c1.28.4,2.55.74,3.83,1.02-.42,1.74-.67,3.65-.74,5.66h-5.34c.18-2.45.98-4.73,2.25-6.68M72.19,158.79c2.21,0,4.2,2.35,5.46,5.9-3.62.54-7.26.54-10.9-.01,1.25-3.54,3.24-5.89,5.44-5.89M72.24,167.22c2.01,0,4.01-.16,6.01-.48.39,1.62.64,3.4.71,5.26h-13.54c.07-1.87.32-3.66.71-5.27,2.04.32,4.07.49,6.1.49M81.08,172.01c-.07-2.01-.32-3.92-.73-5.65,1.28-.27,2.55-.62,3.83-1.03,1.27,1.95,2.06,4.23,2.24,6.68h-5.34ZM82.8,163.54c-1.01.3-2.02.56-3.04.77-.59-1.76-1.36-3.28-2.27-4.49,2.05.82,3.85,2.11,5.31,3.72M66.89,159.82c-.9,1.21-1.67,2.73-2.26,4.48-1.01-.21-2.03-.47-3.04-.76,1.45-1.61,3.26-2.89,5.3-3.72M61.35,182.35c1.06-.32,2.12-.59,3.18-.81.61,1.88,1.41,3.51,2.36,4.79-2.16-.87-4.05-2.24-5.54-3.98M77.49,186.32c.96-1.29,1.76-2.91,2.37-4.8,1.06.22,2.12.5,3.17.82-1.49,1.74-3.39,3.12-5.54,3.98"/>
            <path class="cls-3" d="M92.3,173.14s-.01.04-.02.05c0,.02-.02.04-.02.06-1.15,3.04-3.08,5.11-5.32,6.32-.15.08-.3.16-.45.23.88.3,1.76.55,2.65.76-1.24,3.98-6.97,9.72-16.36,10.09.84.54,12.7,2.97,19.71-7.73.75.8,1.59,1.92,1.59,1.92,0,0,1.15-6.31-1.79-11.71"/>
            <path class="cls-3" d="M92.25,173.25c-1.15,3.04-3.08,5.11-5.32,6.32-.15.08-.3.16-.45.23.88.3,1.76.55,2.65.76-1.24,3.98-6.97,9.72-16.36,10.09.03.02.06.04.1.06,3.99.16,19.98-.1,19.41-17.52,0,.02-.02.04-.02.06"/>
          </g>
          <g>
            <rect class="cls-1" x="90.14" y="18.12" width="4.16" height="1.32"/>
            <rect class="cls-26" x="90.14" y="19.44" width="4.16" height=".66"/>
            <rect class="cls-2" x="90.14" y="20.09" width="4.16" height=".66"/>
            <rect class="cls-22" x="85.05" y="18.12" width="1.39" height="2.63"/>
            <rect class="cls-22" x="87.83" y="18.12" width="1.39" height="2.63"/>
            <rect class="cls-5" x="86.44" y="18.12" width="1.39" height="2.63"/>
            <polyline class="cls-15" points="84.12 20.75 79.96 20.75 79.96 19.44 84.12 19.44"/>
            <rect class="cls-20" x="79.96" y="18.12" width="1.39" height="1.32"/>
            <rect class="cls-5" x="81.35" y="18.12" width="2.77" height="1.32"/>
            <polygon class="cls-5" points="80.32 18.68 80.58 18.68 80.66 18.45 80.73 18.68 80.98 18.68 80.78 18.81 80.86 19.04 80.65 18.9 80.45 19.04 80.53 18.82 80.32 18.68"/>
            <path class="cls-4" d="M32.8,21.33h-.26v-1.56c0-.1.04-.2.11-.29.08-.09.17-.17.28-.23.11-.06.21-.09.31-.09h.48c.15,0,.28.02.39.06.11.05.21.11.28.19.07.08.12.16.16.25.03.09.05.16.05.23v.09s0,.01,0,.05c0,.04-.01.09-.03.15-.02.06-.04.12-.08.18-.04.07-.09.13-.16.18-.07.06-.15.1-.26.14-.11.03-.23.05-.38.04h-.88v.6ZM32.8,20.47h.99c.16,0,.28-.03.37-.1.08-.07.14-.13.16-.21.02-.07.04-.13.04-.17v-.08c0-.05-.01-.12-.04-.19-.03-.07-.08-.14-.16-.21-.08-.06-.2-.1-.36-.1h-.53c-.07,0-.14.02-.21.06-.07.04-.13.1-.18.16-.05.07-.07.13-.07.19v.64Z"/>
            <path class="cls-4" d="M36.84,19.38h-.91s-.1,0-.15,0-.11,0-.16.02c-.05.02-.09.04-.13.08-.04.04-.06.08-.08.13-.02.05-.02.09-.03.13,0,.04,0,.1,0,.19v.79s0,.02-.02.02h-.22s-.02,0-.02-.02v-.82s0-.09,0-.17c0-.08.02-.17.05-.25.03-.08.09-.16.17-.22.05-.04.11-.07.17-.09.06-.02.12-.04.17-.04s.11-.01.15-.01h1v.27Z"/>
            <path class="cls-4" d="M38.49,19.14c.14,0,.27,0,.37.04.11.03.19.08.26.14.07.06.12.12.16.19.04.07.07.13.08.19.02.06.03.11.03.15,0,.04,0,.06,0,.05v.1c0,.07-.02.15-.05.24-.03.09-.09.17-.16.25-.07.08-.16.15-.28.2-.11.05-.24.07-.39.06h-.3c-.15,0-.28-.01-.39-.06-.11-.05-.2-.12-.27-.2-.07-.08-.12-.17-.16-.25-.03-.09-.05-.17-.05-.24v-.1s0-.01,0-.05c0-.04.02-.09.03-.15.02-.06.05-.12.08-.19.04-.07.09-.13.16-.19.07-.06.15-.1.26-.14.1-.03.23-.05.37-.04h.22ZM38.59,20.47c.2,0,.34-.05.42-.14.08-.1.13-.2.14-.31v-.04s0-.08,0-.08v-.05c-.02-.1-.06-.21-.14-.3-.08-.1-.22-.15-.42-.15h-.42c-.2,0-.34.05-.42.15-.08.1-.12.2-.14.3v.05s0,.07,0,.07v.05c.02.11.06.21.14.31.08.1.22.14.42.14h.42Z"/>
            <path class="cls-4" d="M41.75,18.55h.26v1.59c0,.11-.01.2-.03.27-.02.08-.06.14-.11.18-.05.05-.12.08-.2.1-.08.02-.19.03-.32.03h-.52c-.15,0-.28-.01-.4-.06-.11-.05-.21-.11-.28-.19-.07-.08-.13-.16-.16-.25-.04-.09-.05-.17-.05-.23v-.09s0-.01,0-.05c0-.04.02-.09.03-.15.02-.06.05-.12.08-.19.04-.07.09-.13.16-.18.07-.06.16-.1.26-.14.11-.03.23-.05.38-.04h.89v-.6ZM41.75,19.42h-.99c-.16,0-.28.03-.37.1-.08.07-.14.13-.16.21s-.04.13-.04.18v.08c0,.05.01.12.04.19.03.08.08.14.16.21.08.06.21.1.36.1h.68c.08,0,.14-.02.19-.05.04-.03.08-.08.09-.14.02-.06.03-.13.03-.22v-.65Z"/>
            <path class="cls-4" d="M44.02,20.43c.07-.02.13-.06.17-.11.05-.05.08-.11.11-.18.03-.07.04-.15.04-.22v-.82h.27v.82c0,.15-.04.29-.11.41-.07.12-.17.22-.29.3-.12.07-.26.11-.4.11h-.51c-.15,0-.28-.04-.4-.11-.12-.08-.22-.17-.29-.3-.07-.13-.11-.26-.11-.41v-.82h.27v.82c0,.07.01.15.04.22.03.07.06.13.11.18.05.05.11.09.18.11.07.03.14.04.21.04h.51c.07,0,.14-.01.21-.04"/>
            <path class="cls-4" d="M45.65,19.45c-.07.03-.13.06-.18.11-.05.05-.08.11-.11.18-.03.07-.04.14-.04.21s.01.14.04.22c.03.07.06.13.11.18.05.05.1.08.18.11.07.03.14.04.21.04h1.31v.26h-1.31c-.14,0-.28-.04-.4-.11-.12-.07-.22-.17-.29-.29-.07-.12-.11-.26-.11-.4s.04-.28.11-.4c.07-.12.17-.22.29-.29.12-.07.26-.11.4-.11h1.31v.26h-1.31c-.07,0-.14.01-.21.04"/>
            <path class="cls-4" d="M49.03,20.47v.26h-.49c-.14,0-.27-.04-.39-.11-.12-.07-.22-.16-.29-.29-.07-.12-.11-.25-.11-.39v-1.42h.26v.61h.61v.26s0,0-.02,0h-.59v.57c0,.11.03.21.09.29.06.08.12.14.19.17.03.02.08.04.15.04.07,0,.12,0,.16,0h.44Z"/>
            <path class="cls-4" d="M50.73,19.14c.14,0,.27,0,.37.04.11.03.19.08.26.14.07.06.12.12.16.19.04.07.07.13.08.19.02.06.03.11.03.15,0,.04,0,.06,0,.05v.1c0,.07-.02.15-.05.24-.03.09-.09.17-.16.25-.07.08-.16.15-.28.2-.11.05-.24.07-.39.06h-.3c-.15,0-.28-.01-.39-.06-.11-.05-.2-.12-.27-.2-.07-.08-.12-.17-.16-.25-.03-.09-.05-.17-.05-.24v-.1s0-.01,0-.05c0-.04.02-.09.03-.15.02-.06.05-.12.08-.19.04-.07.09-.13.16-.19.07-.06.15-.1.26-.14.1-.03.23-.05.37-.04h.22ZM50.83,20.47c.2,0,.34-.05.42-.14.08-.1.13-.2.14-.31v-.04s0-.08,0-.08v-.05c-.02-.1-.06-.21-.14-.3-.08-.1-.22-.15-.42-.15h-.42c-.2,0-.34.05-.42.15-.08.1-.12.2-.14.3v.05s0,.07,0,.07v.05c.02.11.06.21.14.31.08.1.22.14.42.14h.42Z"/>
            <path class="cls-4" d="M53.86,19.82c.11,0,.2.04.28.11.08.06.12.19.12.38,0,.1-.03.18-.07.25-.05.07-.11.11-.18.15-.07.03-.15.05-.22.05h-1.63v-.27s1.62,0,1.62,0c.06,0,.11-.01.15-.04.05-.03.07-.08.07-.18,0-.06-.02-.1-.05-.12-.03-.03-.07-.04-.11-.05-.04,0-.07,0-.08,0h-1.18c-.06,0-.13-.02-.2-.05-.07-.03-.13-.09-.18-.16-.05-.08-.08-.17-.08-.29,0-.1.03-.19.08-.26.05-.07.12-.12.19-.15.08-.03.15-.05.21-.05h1.47v.27h-1.46c-.06,0-.11.01-.17.04s-.08.09-.08.19c0,.08.03.14.07.16.05.03.1.04.14.04h1.26Z"/>
            <path class="cls-4" d="M57.61,19.13v1.39c-.01.16-.05.3-.12.41-.08.14-.18.25-.29.31-.11.07-.25.1-.41.1h-1.13s-.02,0-.02-.02v-.23s0-.02.02-.02h1.13c.06,0,.11,0,.15-.01.04,0,.08-.02.12-.05.05-.03.09-.06.12-.09.03-.03.05-.06.07-.1l.04-.08h-1.04c-.12,0-.23-.02-.33-.07-.1-.05-.18-.1-.24-.16-.06-.06-.11-.14-.16-.24-.05-.1-.07-.2-.07-.3v-.84s0-.02,0-.02h.27v.88c0,.06.01.11.03.17.02.06.04.1.06.12.01.01.03.04.06.07.03.03.07.06.12.09.05.03.12.04.2.05h1.14s0-1.35,0-1.35c0-.01,0-.02.02-.02h.23s.02,0,.02.02"/>
            <path class="cls-4" d="M60.54,19.82c.11,0,.2.04.28.11.08.06.12.19.12.38,0,.1-.03.18-.07.25-.05.07-.11.11-.18.15-.07.03-.15.05-.22.05h-1.63v-.27s1.62,0,1.62,0c.06,0,.11-.01.15-.04.05-.03.07-.08.07-.18,0-.06-.02-.1-.05-.12-.03-.03-.07-.04-.11-.05-.04,0-.07,0-.08,0h-1.18c-.06,0-.13-.02-.2-.05-.07-.03-.13-.09-.18-.16-.05-.08-.08-.17-.08-.29,0-.1.03-.19.08-.26.05-.07.12-.12.19-.15.08-.03.15-.05.21-.05h1.47v.27h-1.46c-.06,0-.11.01-.17.04s-.08.09-.08.19c0,.08.03.14.07.16.05.03.1.04.14.04h1.26Z"/>
            <path class="cls-4" d="M63.28,19.23c.08.06.13.13.15.21.03.08.04.14.04.2,0,.29-.16.44-.48.45h-1.27s0,.07,0,.07c0,.07,0,.13.02.17.01.04.04.07.07.09.03.02.07.03.13.04.05,0,.13,0,.22,0h1.18s.05.02.05.05v.16s-.02.05-.05.05h-1.22c-.17,0-.3-.02-.4-.06-.1-.04-.17-.1-.21-.18-.04-.08-.06-.2-.06-.34v-.41c0-.09.04-.19.11-.28.07-.1.17-.18.28-.24.11-.06.23-.09.35-.09h.77c.14,0,.25.03.33.09M63.09,19.81s.05-.03.07-.05c.02-.02.03-.04.03-.06,0-.03.01-.06.01-.1,0-.02,0-.04-.02-.07-.01-.03-.03-.06-.06-.08-.03-.02-.07-.04-.12-.04h-.84c-.06,0-.12.02-.2.06-.07.04-.13.09-.18.15-.05.07-.07.14-.07.21h1.25c.05,0,.09,0,.11-.01"/>
            <path class="cls-4" d="M65.77,19.38h-.91s-.1,0-.15,0c-.06,0-.11,0-.16.02-.05.02-.09.04-.13.08-.04.04-.06.08-.08.13-.01.05-.02.09-.02.13,0,.04,0,.1,0,.19v.79s0,.02-.02.02h-.23s-.02,0-.02-.02v-.82s0-.09,0-.17c0-.08.02-.17.05-.25.03-.08.09-.16.17-.22.05-.04.11-.07.17-.09.06-.02.12-.04.17-.04.06,0,.11-.01.15-.01h1v.27Z"/>
            <path class="cls-4" d="M66.4,19.1l.95,1.42h.03l.95-1.42h.32l-.95,1.42c-.08.12-.13.19-.15.22h-.37c-.04-.06-.09-.14-.15-.22l-.95-1.42h.32Z"/>
            <path class="cls-4" d="M69.28,18.64h-.28v-.28h.28v.28ZM69.28,20.74h-.28v-1.72h.28v1.72Z"/>
            <path class="cls-4" d="M70.41,19.45c-.07.03-.13.06-.18.11-.05.05-.08.11-.11.18-.02.07-.04.14-.04.21s.01.14.04.22c.03.07.06.13.11.18.05.05.1.08.18.11.07.03.14.04.21.04h1.31v.26h-1.31c-.14,0-.28-.04-.4-.11-.12-.07-.22-.17-.29-.29-.07-.12-.11-.26-.11-.4s.04-.28.11-.4c.07-.12.17-.22.29-.29.12-.07.26-.11.4-.11h1.31v.26h-1.31c-.07,0-.14.01-.21.04"/>
            <path class="cls-4" d="M72.78,18.64h-.28v-.28h.28v.28ZM72.78,20.74h-.28v-1.72h.28v1.72Z"/>
            <path class="cls-4" d="M74.49,19.14c.14,0,.27,0,.37.04.11.03.19.08.26.14.07.06.12.12.16.19.04.07.07.13.08.19.02.06.03.11.03.15,0,.04,0,.06,0,.05v.1c0,.07-.02.15-.05.24-.03.09-.09.17-.16.25-.07.08-.16.15-.27.2-.11.05-.24.07-.39.06h-.3c-.15,0-.28-.01-.39-.06-.11-.05-.2-.12-.27-.2-.07-.08-.12-.17-.16-.25-.03-.09-.05-.17-.05-.24v-.1s0-.01,0-.05c0-.04.02-.09.03-.15.02-.06.04-.12.08-.19.04-.07.09-.13.16-.19.07-.06.15-.1.26-.14.1-.03.23-.05.37-.04h.22ZM74.6,20.47c.2,0,.34-.05.42-.14.08-.1.13-.2.14-.31v-.04s0-.08,0-.08v-.05c-.02-.1-.06-.21-.14-.3-.08-.1-.22-.15-.42-.15h-.42c-.2,0-.34.05-.42.15-.08.1-.12.2-.14.3v.05s0,.07,0,.07v.05c.02.11.06.21.14.31.08.1.22.14.42.14h.42Z"/>
            <path class="cls-4" d="M77.63,19.82c.11,0,.2.04.28.11.08.06.12.19.12.38,0,.1-.02.18-.07.25-.05.07-.11.11-.18.15-.07.03-.15.05-.22.05h-1.63v-.27s1.62,0,1.62,0c.06,0,.11-.01.15-.04.05-.03.07-.08.07-.18,0-.06-.02-.1-.05-.12-.03-.03-.07-.04-.11-.05-.04,0-.07,0-.08,0h-1.18c-.06,0-.13-.02-.2-.05-.07-.03-.13-.09-.18-.16-.05-.08-.08-.17-.08-.29,0-.1.03-.19.08-.26.05-.07.12-.12.19-.15.08-.03.15-.05.21-.05h1.47v.27h-1.46c-.06,0-.12.01-.17.04s-.08.09-.08.19c0,.08.03.14.07.16.05.03.1.04.14.04h1.26Z"/>
            <g>
              <path class="cls-5" d="M14.84.27L.55,4.78l14.33,11.12,14.04-10.84L14.84.27ZM20.37,10.39l-3.12,2.39-2.66-1.71,2.04-1.67c.37-.33.47-.56.47-.56v-3.18c.03-.54-.73-.85-.73-.85-.94-.45-2.38-.43-2.38-.43-1.33-.02-3.8.92-3.8.92v2.95l-3.69-2.37c2.35-.95,3.42-1.2,3.42-1.2,2.33-.65,3.96-.69,3.96-.69,2.61-.14,4.68.58,4.68.58,2.08.57,2.94,1.3,2.94,1.3,1.72,1.29,1.33,2.61,1.33,2.61-.27.24-2.47,1.91-2.47,1.91"/>
              <polygon class="cls-14" points=".02 8.24 .02 4.69 14.92 16.03 29.45 4.96 29.45 8.22 14.87 21.46 .02 8.24"/>
              <path class="cls-14" d="M6.42,5.91l-2.39-1.48s3.15-1.23,5.77-1.73,3.58-.53,5.07-.47c1.5.06,4.37.63,6.26,1.55,1.89.93,2.29,1.89,2.4,2.42.12.53.09,1.75-.34,2.13l-.42.38s.31-.69-.13-1.56c-.44-.87-1.39-1.7-3.12-2.29-1.73-.59-3.27-.92-5.14-.89-1.87.03-3.57.44-4.87.82-1.3.38-3.09,1.11-3.09,1.11"/>
              <path class="cls-14" d="M10.2,5.37v2.94l4.29,2.83s.94-.73,1.6-1.28c.66-.54.94-.87,1.01-1.03v-3.24s.08.51-1.06,1.15c-1.13.64-1.49.85-1.49.85l-4.35-2.21Z"/>
              <path class="cls-14" d="M14.88,16.23L0,4.68,14.85,0h.04s14.57,4.97,14.57,4.97l-14.57,11.26ZM.55,4.78l14.34,11.12,14.04-10.84L14.84.27.55,4.78Z"/>
              <path class="cls-14" d="M17.27,13.09l-.07-.05L3.75,4.39l.24-.09s3.19-1.24,5.8-1.74c1.92-.37,3-.49,4.14-.49.27,0,.57,0,.95.02,1.62.06,4.5.68,6.31,1.57,1.43.7,2.26,1.54,2.47,2.51.12.56.1,1.82-.38,2.25l-.43.38-5.59,4.29ZM4.32,4.45l12.94,8.32,5.44-4.17.42-.38c.38-.34.41-1.51.3-2-.2-.89-.98-1.67-2.33-2.33-1.78-.87-4.61-1.48-6.2-1.54-.38-.01-.68-.02-.95-.02-.97,0-1.94.08-4.1.49-2.17.41-4.73,1.34-5.51,1.63"/>
              <path class="cls-14" d="M14.47,7.64l-4.29-2.19.04-.07-.03-.08c.1-.04,2.43-.93,3.82-.93h.03c1.46.01,2.38.36,2.77.69.36.3.41.63.16,1.02-.18.28-.71.67-1.43,1.05-.71.38-1.02.5-1.03.51h-.03ZM10.32,5.39l4.15,2.12c.09-.04.4-.18.99-.49.7-.37,1.21-.74,1.38-1,.21-.33.18-.6-.13-.85-.37-.31-1.27-.65-2.69-.66h-.03c-1.21,0-3.21.72-3.68.89"/>
              <path class="cls-14" d="M40.5,6.74c.14.02.36.08.68.19.31.11.68.32,1.09.63.41.31.77.78,1.08,1.4.31.62.46,1.41.46,2.36s-.18,1.67-.54,2.27c-.36.61-.79,1.06-1.29,1.35-.5.29-.97.47-1.42.53h-7.62V6.73h7.57ZM40.44,14.29c.23-.04.52-.14.84-.3.32-.16.63-.46.92-.9.29-.43.43-1.03.43-1.78,0-.88-.15-1.57-.45-2.07-.3-.5-.62-.84-.95-1.01-.33-.18-.61-.28-.84-.32h-6.28v6.38h6.33Z"/>
              <rect class="cls-14" x="44.63" y="6.75" width="1.19" height="8.7"/>
              <path class="cls-14" d="M52.3,9.12c.77-.01,1.46-.13,2.06-.34.61-.22,1.08-.43,1.4-.65.33-.22.55-.38.66-.49l.96-.91v8.75h-1.14v-6.32c-.5.3-1.08.55-1.75.76-.66.21-1.39.32-2.18.33-.83,0-1.61-.1-2.33-.32-.72-.22-1.36-.49-1.92-.82v6.36h-1.14V6.73l1,.86c.14.13.39.3.75.53.36.23.86.45,1.51.68.64.23,1.35.33,2.11.32"/>
              <rect class="cls-12" x="59.08" y="10.44" width="2.29" height="1.16"/>
              <g>
                <path class="cls-25" d="M77.53,6.66l-4.57,8.79c-.92-1.46-1.6-2.51-2.05-3.14-.45-.63-.74-1.01-.86-1.15-.13.13-.42.52-.86,1.15-.45.63-1.13,1.68-2.05,3.14l-4.57-8.79h1.34l3.46,6.65c.69-1.12,1.23-1.98,1.63-2.57s.75-1.08,1.07-1.45c.31.37.67.86,1.07,1.45s.94,1.46,1.63,2.57l3.46-6.65h1.33Z"/>
                <path class="cls-25" d="M84.89,9.91c.29.23.48.49.57.77s.14.53.15.74c0,1.05-.58,1.6-1.76,1.66h-4.67s0,.25,0,.25c0,.27.02.49.07.64.05.16.13.27.25.34.11.07.27.12.46.15.19.02.47.04.82.04h4.36c.13,0,.19.06.19.18v.59c0,.13-.06.19-.19.19h-4.51c-.63,0-1.12-.07-1.48-.21-.36-.14-.62-.36-.77-.67s-.23-.72-.23-1.24v-1.5c0-.35.13-.7.4-1.05s.61-.65,1.02-.88c.42-.23.84-.35,1.28-.35h2.84c.52,0,.92.12,1.21.35ZM84.21,12.04c.09-.03.17-.09.26-.19.06-.07.11-.15.13-.24s.04-.21.05-.37c0-.07-.02-.16-.06-.27-.04-.11-.11-.21-.22-.3-.11-.09-.26-.14-.45-.14h-3.1c-.22,0-.46.07-.72.21s-.48.33-.65.56c-.18.24-.27.5-.27.79h4.61c.19,0,.33-.02.42-.05Z"/>
                <path class="cls-25" d="M87.64,9.64h0,3.26c.54-.03,1,.02,1.39.14.39.12.71.29.97.5.25.21.45.44.59.68.14.24.24.47.31.68s.11.4.12.55c.02.15.02.22.02.19v.34c0,.25-.06.54-.19.86-.13.32-.32.62-.59.92-.26.29-.6.53-1.02.71s-.9.25-1.46.23h-1.92c-.47,0-.85-.04-1.17-.12s-.56-.21-.75-.38c-.19-.17-.32-.4-.41-.67-.08-.28-.13-.61-.13-1v-5.67c0-.17,0-.23,0-.17h.96v2.21ZM87.64,12.97c0,.32.03.59.1.82s.18.39.35.51c.17.12.39.18.68.18h2.51c.58,0,1.03-.12,1.34-.35.31-.24.51-.49.6-.76.09-.27.14-.51.14-.71v-.29c0-.16-.04-.38-.13-.65-.09-.27-.29-.52-.59-.76s-.76-.36-1.35-.36h-3.64v2.37Z"/>
              </g>
            </g>
          </g>
          <g>
            <rect class="cls-19" x="42.05" y="115.13" width="12.92" height="7.11"/>
            <path class="cls-6" d="M65.23,124.78H31.79v-.66c0-1.04,1.58-1.88,3.54-1.88h26.37c1.95,0,3.54.84,3.54,1.88v.66Z"/>
            <path class="cls-6" d="M4.11,55.26h89.06c.63,0,1.14.51,1.14,1.14v58.82c0,.63-.51,1.14-1.14,1.14H4.11c-.63,0-1.14-.51-1.14-1.14v-58.82c0-.63.51-1.14,1.14-1.14Z"/>
            <rect class="cls-5" x="6.18" y="58.46" width="84.92" height="53.44"/>
            <rect class="cls-18" x="6.18" y="58.46" width="84.92" height="5.81"/>
            <rect class="cls-17" x="6.18" y="109.97" width="84.92" height="1.93"/>
            <rect class="cls-16" x="6.18" y="64.28" width="84.92" height="3.32"/>
            <g class="cls-23">
              <g class="cls-24">
                <polygon class="cls-5" points="37.38 58.46 6.18 89.65 6.18 72.37 20.07 58.46 37.38 58.46"/>
              </g>
            </g>
            <g class="cls-23">
              <g class="cls-11">
                <polygon class="cls-5" points="91.1 77.53 91.1 99.92 79.1 111.91 56.71 111.91 91.1 77.53"/>
              </g>
            </g>
            <g class="cls-23">
              <g class="cls-21">
                <polygon class="cls-5" points="3.14 85.17 34.24 116.29 17 116.29 3.14 102.42 3.14 85.17"/>
              </g>
            </g>
            <path class="cls-5" d="M88.55,61.13c0,.81-.66,1.46-1.46,1.46s-1.46-.65-1.46-1.46.65-1.46,1.46-1.46,1.46.65,1.46,1.46"/>
            <path class="cls-5" d="M83.36,61.13c0,.81-.65,1.46-1.46,1.46s-1.46-.65-1.46-1.46.65-1.46,1.46-1.46,1.46.65,1.46,1.46"/>
            <path class="cls-5" d="M78.17,61.13c0,.81-.65,1.46-1.46,1.46s-1.46-.65-1.46-1.46.66-1.46,1.46-1.46,1.46.65,1.46,1.46"/>
            <path class="cls-10" d="M51.29,77.09c1.15.8,2.21,1.97,3.1,3.47.66,1.11,1.21,2.35,1.63,3.69l4.45.04c-1.94-3.49-5.24-6.13-9.19-7.19"/>
            <path class="cls-10" d="M56.04,98.44l4.56.04c1.04-1.95,1.66-4.15,1.73-6.5l-5.26-.04c-.05,2.29-.4,4.5-1.02,6.5"/>
            <path class="cls-10" d="M47.79,91.86l-.05,6.51,7.54.06c.63-1.95,1-4.16,1.06-6.5l-8.54-.07Z"/>
            <path class="cls-10" d="M47.19,76.59c-3.17.19-5.95,3.17-7.46,7.52l7.4.06h0s.06-7.58.06-7.58Z"/>
            <path class="cls-10" d="M47.92,76.6l-.06,7.58,7.4.06c-1.44-4.37-4.16-7.4-7.33-7.64"/>
            <path class="cls-10" d="M57.07,91.21h0l5.26.04c-.03-2.23-.56-4.34-1.48-6.24l-4.62-.04c.54,1.93.82,4.05.83,6.23"/>
            <path class="cls-10" d="M38.52,91.05l8.54.07.05-6.22-7.63-.06c-.57,1.88-.92,3.99-.97,6.22"/>
            <path class="cls-10" d="M56.34,91.2h0c-.01-2.23-.32-4.34-.86-6.23l-7.63-.06-.05,6.22,8.54.07Z"/>
            <path class="cls-10" d="M37.79,91.05c.05-2.18.37-4.29.94-6.22l-4.62-.04c-.95,1.88-1.51,3.98-1.58,6.21l5.27.04Z"/>
            <path class="cls-10" d="M32.52,91.73c.04,2.34.62,4.56,1.62,6.52l4.56.04c-.59-2.01-.9-4.22-.91-6.52l-5.27-.04Z"/>
            <path class="cls-10" d="M38.52,91.78c.01,2.34.35,4.56.95,6.52l7.54.06.05-6.51-8.54-.07Z"/>
            <path class="cls-10" d="M46.94,106.39h0l.06-7.29-7.3-.06c1.46,4.22,4.14,7.12,7.24,7.35"/>
            <path class="cls-10" d="M43.57,105.9c-1.15-.8-2.21-1.96-3.1-3.47-.61-1.03-1.13-2.17-1.54-3.4l-4.39-.04c1.96,3.35,5.19,5.88,9.03,6.9"/>
            <path class="cls-10" d="M55.03,99.16l-7.3-.06-.06,7.29c3.1-.18,5.83-3.04,7.36-7.23"/>
            <path class="cls-10" d="M51.05,105.96c3.85-.96,7.12-3.44,9.14-6.75l-4.39-.04c-.43,1.22-.96,2.36-1.59,3.37-.92,1.49-1.99,2.64-3.16,3.42"/>
            <path class="cls-10" d="M43.85,76.96c-1.17.77-2.25,1.91-3.18,3.4-.69,1.09-1.26,2.32-1.72,3.65l-4.45-.07c2.02-3.45,5.38-6.01,9.35-6.98"/>
            <path class="cls-19" d="M34,101.12c-.17,0-.34-.05-.49-.15-.4-.27-.51-.82-.23-1.22l7.89-11.65c.15-.22.38-.36.64-.38.26-.03.52.07.7.25l8.23,8.23,9.19-15.21c.25-.41.79-.55,1.2-.3.41.25.55.79.3,1.2l-9.77,16.16c-.14.23-.38.38-.64.42-.27.03-.53-.06-.73-.25l-8.27-8.27-7.3,10.77c-.17.25-.45.38-.73.38"/>
            <path class="cls-19" d="M36.63,100.62c0,1.45-1.18,2.63-2.63,2.63s-2.63-1.18-2.63-2.63,1.18-2.63,2.63-2.63,2.63,1.18,2.63,2.63"/>
            <path class="cls-19" d="M44.49,89.32c0,1.45-1.18,2.63-2.63,2.63s-2.63-1.18-2.63-2.63,1.18-2.63,2.63-2.63,2.63,1.18,2.63,2.63"/>
            <path class="cls-19" d="M53.26,97.09c0,1.45-1.18,2.63-2.63,2.63s-2.63-1.18-2.63-2.63,1.18-2.63,2.63-2.63,2.63,1.18,2.63,2.63"/>
            <path class="cls-19" d="M63.04,81.56c0,1.45-1.18,2.63-2.63,2.63s-2.63-1.18-2.63-2.63,1.18-2.63,2.63-2.63,2.63,1.18,2.63,2.63"/>
            <path class="cls-19" d="M66.47,107.33H30.03c-.47,0-.85-.38-.85-.85v-24.72c0-.47.38-.85.85-.85s.85.38.85.85v23.87h35.59c.47,0,.85.38.85.85s-.38.85-.85.85"/>
            <path class="cls-18" d="M66.09,89.58s-.01.04-.02.05c0,.02-.02.04-.02.06-1.14,3.03-3.06,5.09-5.29,6.29-.15.08-.3.16-.45.23.88.3,1.76.55,2.64.76-1.24,3.96-6.94,9.67-16.28,10.04.84.54,12.64,2.96,19.63-7.7.74.79,1.59,1.91,1.59,1.91,0,0,1.15-6.28-1.78-11.65"/>
            <path class="cls-18" d="M66.05,89.69c-1.14,3.03-3.06,5.09-5.29,6.29-.15.08-.3.16-.45.23.88.3,1.76.55,2.64.76-1.24,3.96-6.94,9.67-16.28,10.04.03.02.06.04.09.06,3.97.16,19.89-.1,19.32-17.44,0,.02-.02.04-.02.06"/>
            <path class="cls-18" d="M41.44,69.76h-4.33s0,4.99,0,4.99h4.36c.64-.08,1.86-.68,1.86-2.38,0-2.36-1.87-2.61-1.89-2.62M41.41,74.08h-3.62v-3.65h3.59c.16.02,1.28.26,1.28,1.95,0,1.44-1.06,1.67-1.25,1.71"/>
            <rect class="cls-18" x="43.76" y="69.79" width=".67" height="4.97"/>
            <path class="cls-18" d="M48.23,71.01c-1.52.02-2.61-.88-2.61-.89l-.55-.47v5.11h.67v-3.75c.53.31,1.41.68,2.51.67,1.04-.01,1.83-.36,2.32-.65v3.73h.67v-5.17l-.57.54s-.91.85-2.44.87"/>
            <polygon class="cls-18" points="57.01 71.85 52.63 71.85 52.63 70.42 57.01 70.42 57.01 69.75 51.95 69.75 51.95 74.79 57.01 74.79 57.01 74.12 52.63 74.12 52.63 72.47 57.01 72.47 57.01 71.85"/>
            <path class="cls-18" d="M62.37,73.14c-.46-.51-1.13-1.19-1.77-1.71-.78-.63-2.36-1.45-2.43-1.48l-.49-.25v5.07h.67v-3.96c.53.29,1.35.76,1.83,1.14,1.07.86,2.26,2.28,2.27,2.29l.59.71v-5.23h-.67v3.41Z"/>
            <path class="cls-18" d="M82.12,69.72v3.41c-.46-.5-1.13-1.19-1.77-1.71-.78-.63-2.36-1.44-2.43-1.48l-.49-.25v5.07h.67v-3.96c.53.29,1.35.76,1.83,1.14,1.07.86,2.26,2.28,2.27,2.29l.59.71v-5.23h-.67Z"/>
            <path class="cls-18" d="M68.05,71.97h-3.32c-.08,0-.56-.06-.56-.78,0-.65.52-.75.65-.76h3.82v-.67h-3.86c-.44.04-1.27.38-1.27,1.44,0,1.11.79,1.44,1.21,1.45h3.3c.06,0,.44.09.44.78,0,.62-.45.69-.59.7h-4.26v.67h4.28c.5-.01,1.25-.39,1.25-1.37,0-1.08-.7-1.42-1.07-1.45"/>
            <rect class="cls-18" x="69.48" y="69.81" width=".67" height="4.96"/>
            <path class="cls-18" d="M75.03,69.58c-.22-.04-1.03-.04-1.27-.04-.7,0-1.11.02-1.23.05-.31.08-1.85.58-1.85,2.62,0,1.85,1.35,2.49,1.86,2.59.16.03.46.04.87.04.15,0,.26,0,.29,0h.16c.41,0,.95,0,1.18-.04.4-.06,1.9-.66,1.91-2.52,0-1.87-1.2-2.57-1.92-2.69M74.94,74.12c-.14.02-.54.03-1.08.03h-.17s-.12,0-.28,0c-.36,0-.64-.01-.76-.03-.01,0-1.31-.3-1.31-1.93,0-1.49,1.01-1.88,1.34-1.96.07-.01.42-.03,1.07-.03s1.07.02,1.16.03c.06,0,1.36.25,1.36,2.03,0,1.53-1.32,1.85-1.33,1.85"/>
            <path class="cls-5" d="M24.84,64.94l-9.98,3.15,10.01,7.77,9.8-7.57-9.83-3.34ZM28.71,72.01l-2.18,1.67-1.86-1.2,1.42-1.17c.26-.23.33-.39.33-.39v-2.22c.02-.38-.51-.59-.51-.59-.66-.32-1.66-.3-1.66-.3-.93-.02-2.65.64-2.65.64v2.06l-2.58-1.66c1.64-.66,2.39-.84,2.39-.84,1.63-.45,2.76-.48,2.76-.48,1.82-.1,3.27.4,3.27.4,1.45.4,2.05.91,2.05.91,1.2.9.93,1.82.93,1.82-.19.17-1.73,1.34-1.73,1.34"/>
            <polygon class="cls-18" points="14.49 70.51 14.49 68.03 24.9 75.95 35.04 68.22 35.04 70.49 24.87 79.74 14.49 70.51"/>
            <path class="cls-18" d="M18.96,68.88l-1.67-1.03s2.2-.86,4.03-1.21c1.83-.35,2.5-.37,3.54-.33,1.04.04,3.05.44,4.37,1.09,1.32.64,1.6,1.32,1.68,1.69.08.37.06,1.22-.24,1.49l-.3.27s.21-.48-.09-1.09c-.31-.6-.97-1.19-2.18-1.6-1.21-.41-2.28-.65-3.59-.63-1.3.02-2.49.31-3.4.57-.91.27-2.16.78-2.16.78"/>
            <path class="cls-18" d="M21.6,68.51v2.05l3,1.98s.66-.51,1.12-.89.66-.61.71-.72v-2.26s.05.36-.74.8c-.79.44-1.04.59-1.04.59l-3.04-1.54Z"/>
            <path class="cls-18" d="M24.87,76.09l-10.39-8.06,10.37-3.27h.03s10.18,3.47,10.18,3.47l-10.18,7.86ZM14.86,68.09l10.01,7.77,9.8-7.57-9.83-3.34-9.98,3.15Z"/>
            <path class="cls-18" d="M26.54,73.9l-.05-.03-9.39-6.04.16-.06s2.23-.87,4.05-1.21c1.34-.25,2.1-.35,2.89-.35.19,0,.4,0,.67.02,1.13.05,3.14.48,4.41,1.1.99.49,1.58,1.08,1.73,1.75.09.39.07,1.27-.26,1.57l-.3.27-3.9,2.99ZM17.49,67.87l9.04,5.81,3.8-2.91.29-.26c.26-.24.28-1.05.21-1.4-.14-.62-.69-1.17-1.63-1.63-1.24-.61-3.22-1.03-4.33-1.08-.27-.01-.47-.02-.66-.02-.67,0-1.36.06-2.86.34-1.52.29-3.3.94-3.85,1.14"/>
            <path class="cls-18" d="M24.58,70.09l-3-1.53.03-.05-.02-.06c.07-.03,1.7-.65,2.67-.65h.02c1.02,0,1.67.25,1.93.48.25.21.28.44.11.71-.13.2-.49.46-1,.73-.5.26-.71.35-.72.35h-.02ZM21.69,68.52l2.9,1.48c.06-.03.28-.12.69-.34.49-.26.85-.52.97-.7.15-.23.12-.42-.09-.6-.26-.22-.88-.45-1.88-.46h-.02c-.84,0-2.24.5-2.57.62"/>
          </g>
        </g>
      </g>
    </g>
  </g>
</svg>