<?xml version="1.0" encoding="UTF-8"?>
<svg id="Capa_2" data-name="Capa 2" xmlns="http://www.w3.org/2000/svg" viewBox="0 0 389.86 388.66">
  <defs>
    <style>
      .cls-1 {
        fill: #d21047;
      }

      .cls-1, .cls-2, .cls-3, .cls-4 {
        stroke-width: 0px;
      }

      .cls-2 {
        fill: #00d27a;
      }

      .cls-3 {
        fill: #d2d2d2;
      }

      .cls-4 {
        fill: #fff;
      }
    </style>
  </defs>
  <g id="Capa_1-2" data-name="Capa 1">
    <g>
      <g>
        <path class="cls-1" d="M389.86,193.61c.03,50.26-41.3,91.09-92.16,91.05-50.96-.04-92.19-40.75-92.19-91.02,0-50.36,41.26-91.04,92.36-91.05,50.72-.01,91.96,40.79,91.99,91.02ZM378.47,193.7c.08-43.95-35.96-79.68-80.66-79.96-44.26-.28-80.72,35.64-80.91,79.71-.19,43.87,36.18,80,80.57,80.05,44.63.05,80.93-35.71,81.01-79.8Z"/>
        <path class="cls-1" d="M297.7,266.93c-40.91.01-74.24-32.91-74.24-73.33,0-40.3,33.35-73.27,74.1-73.27,40.99,0,74.4,32.91,74.34,73.22-.06,40.51-33.28,73.36-74.2,73.37Z"/>
        <g>
          <path class="cls-4" d="M279.85,205.88l.07.28c.09,7.39-1.25,12.92-4.02,16.6-2.77,3.68-6.72,5.52-11.85,5.52s-9.45-2.19-12.54-6.56c-3.09-4.37-4.64-10.58-4.64-18.63v-20.46c0-8.02,1.5-14.24,4.49-18.66,2.99-4.42,7.03-6.63,12.12-6.63,5.36,0,9.47,1.83,12.34,5.49,2.87,3.66,4.26,9.2,4.17,16.62l-.07.28h-9.21c0-4.42-.55-7.51-1.66-9.28-1.11-1.77-2.96-2.65-5.56-2.65-2.38,0-4.16,1.21-5.35,3.62-1.19,2.41-1.78,6.12-1.78,11.1v20.55c0,5.02.64,8.74,1.92,11.15,1.28,2.41,3.2,3.62,5.78,3.62,2.35,0,4.04-.88,5.08-2.63,1.03-1.75,1.55-4.87,1.55-9.35h9.18Z"/>
          <path class="cls-4" d="M295.35,216.86h18.26v10.42h-27.74v-68.94h9.48v58.52Z"/>
          <path class="cls-4" d="M328.77,202.33v24.95h-9.48v-68.94h16.37c4.91,0,8.8,2.03,11.67,6.08,2.87,4.06,4.3,9.37,4.3,15.93s-1.43,11.91-4.3,15.93c-2.87,4.02-6.76,6.04-11.67,6.04h-6.89ZM328.77,191.86h6.89c2.13,0,3.75-1.07,4.86-3.22,1.11-2.15,1.66-4.88,1.66-8.19s-.55-6.16-1.66-8.36c-1.11-2.19-2.73-3.29-4.86-3.29h-6.89v23.06Z"/>
        </g>
      </g>
      <g>
        <path class="cls-2" d="M182.07,188.28v10.67c-.1.51-.27,1.02-.3,1.53-.76,11.05-3.32,21.69-8.27,31.57-16.22,32.38-42.48,50.1-78.64,52.42-17.94,1.15-34.89-3.18-50.21-12.64C17.01,254.8,2.07,229.87.16,197.45c-.97-16.42,2.6-32.08,10.54-46.52,14.12-25.67,35.66-41.35,64.48-46.95,3.49-.68,7.05-.78,10.54-1.4,3.56,0,7.11,0,10.67,0,.46.1.91.26,1.37.29,12.76.86,24.85,4.23,36.03,10.41,25.62,14.17,41.31,35.67,46.9,64.48.68,3.48.79,7.03,1.4,10.51ZM91.1,273.26c43.88-.04,79.6-35.79,79.6-79.65,0-43.87-35.74-79.61-79.61-79.64-43.92-.03-79.77,35.84-79.69,79.74.08,43.89,35.85,79.6,79.7,79.55Z"/>
        <path class="cls-2" d="M163.78,193.62c0,40.03-32.77,72.77-72.79,72.73-40.05-.04-72.76-32.82-72.68-72.84.08-39.99,32.71-72.6,72.69-72.63,40.03-.03,72.78,32.7,72.77,72.74ZM96.81,133.12h-11.51v10.43c-.79.16-1.4.32-2.02.42-21.11,3.37-26.03,25.53-20.4,38.62,2.67,6.21,7.29,10.47,13.34,13.32,6.17,2.91,12.69,4.91,18.95,7.58,2.15.91,4.31,1.84,6.09,3.38,2.92,2.52,3.28,5.91,2.58,9.37-.77,3.85-3.11,6.53-6.96,7.75-2.64.84-5.36.89-8.06.57-4.85-.59-8.64-2.86-11.1-7.24-1.31-2.33-1.82-4.91-2.63-7.54-5.91,1.54-11.67,3.05-17.57,4.59,3.4,15.17,12.02,24.53,27.94,26.2v13.55h11.31v-13.54c.77-.14,1.38-.29,1.99-.37,15.64-1.93,25.65-12.96,25.88-28.7.12-8.47-2.79-15.7-9.51-21.11-3.47-2.8-7.54-4.55-11.62-6.25-5.87-2.44-11.9-4.51-17.6-7.37-3.37-1.69-5.14-4.43-5.03-8.2.11-3.88,1.82-6.92,5.3-8.78,5.32-2.84,12.02-.96,15.86,4.36,1.67,2.31,2.79,4.91,3.92,7.67,5.3-2.17,10.46-4.29,15.7-6.44-3.66-12.63-11.69-20.11-24.86-21.8v-10.48Z"/>
      </g>
      <path class="cls-3" d="M188.49,86.68c3.19-9.95,6.09-19.01,9.28-28.97-30.72,0-57.29,9.17-81.14,27.11-10.04-2.41-20.04-4.82-31.8-4.69,16.52-17.26,34.98-29.11,55.92-37.22,20.92-8.09,42.69-11.12,65.33-9.94,3.94-11.72,7.73-22.99,11.09-32.97,21.62,20.74,43.41,41.65,66.22,63.53-32.16,7.85-62.89,15.34-94.9,23.15Z"/>
      <path class="cls-3" d="M277.35,302.45c10.14,2.34,20.12,4.87,31.98,4.61-16.5,17.14-34.77,29.05-55.55,37.11-20.92,8.12-42.7,11.3-65.74,10.06-3.89,11.56-7.73,22.95-11.6,34.43-3.38-2.22-60.54-59.77-64.68-65.16,31.05-7.57,61.78-15.07,93.76-22.87-3.16,9.86-6.09,18.98-9.3,28.97,30.57-.07,57.04-9.05,81.13-27.15Z"/>
    </g>
  </g>
</svg>