<?xml version="1.0" encoding="UTF-8"?>
<svg id="Capa_2" data-name="Capa 2" xmlns="http://www.w3.org/2000/svg" viewBox="0 0 396.03 388.66">
  <defs>
    <style>
      .cls-1 {
        fill: #d21047;
      }

      .cls-1, .cls-2, .cls-3, .cls-4 {
        stroke-width: 0px;
      }

      .cls-2 {
        fill: #00d27a;
      }

      .cls-3 {
        fill: #d2d2d2;
      }

      .cls-4 {
        fill: #fff;
      }
    </style>
  </defs>
  <g id="Capa_1-2" data-name="Capa 1">
    <g>
      <g>
        <path class="cls-1" d="M396.03,178.63c.03,50.26-41.3,91.09-92.16,91.05-50.96-.04-92.19-40.75-92.19-91.02,0-50.36,41.26-91.04,92.36-91.05,50.72-.01,91.96,40.79,91.99,91.02ZM384.65,178.72c.08-43.95-35.96-79.68-80.66-79.96-44.26-.28-80.72,35.64-80.91,79.71-.19,43.87,36.18,80,80.57,80.05,44.63.05,80.93-35.71,81.01-79.8Z"/>
        <path class="cls-1" d="M303.88,251.94c-40.91.01-74.24-32.91-74.24-73.33,0-40.3,33.35-73.27,74.1-73.27,40.99,0,74.4,32.91,74.34,73.22-.06,40.51-33.28,73.36-74.2,73.37Z"/>
        <g>
          <path class="cls-4" d="M286.03,190.89l.07.28c.09,7.39-1.25,12.92-4.02,16.6-2.77,3.68-6.72,5.52-11.85,5.52s-9.45-2.19-12.54-6.56c-3.09-4.37-4.64-10.58-4.64-18.63v-20.46c0-8.02,1.5-14.24,4.49-18.66,2.99-4.42,7.03-6.63,12.12-6.63,5.36,0,9.47,1.83,12.34,5.49,2.87,3.66,4.26,9.2,4.17,16.62l-.07.28h-9.21c0-4.42-.55-7.51-1.66-9.28-1.11-1.77-2.96-2.65-5.56-2.65-2.38,0-4.16,1.21-5.35,3.62-1.19,2.41-1.78,6.12-1.78,11.1v20.55c0,5.02.64,8.74,1.92,11.15,1.28,2.41,3.2,3.62,5.78,3.62,2.35,0,4.04-.88,5.08-2.63,1.03-1.75,1.55-4.87,1.55-9.35h9.18Z"/>
          <path class="cls-4" d="M301.53,201.88h18.26v10.42h-27.74v-68.94h9.48v58.52Z"/>
          <path class="cls-4" d="M334.95,187.34v24.95h-9.48v-68.94h16.37c4.91,0,8.8,2.03,11.67,6.08,2.87,4.06,4.3,9.37,4.3,15.93s-1.43,11.91-4.3,15.93c-2.87,4.02-6.76,6.04-11.67,6.04h-6.89ZM334.95,176.88h6.89c2.13,0,3.75-1.07,4.86-3.22,1.11-2.15,1.66-4.88,1.66-8.19s-.55-6.16-1.66-8.36c-1.11-2.19-2.73-3.29-4.86-3.29h-6.89v23.06Z"/>
        </g>
      </g>
      <path class="cls-3" d="M189.63,86.68c3.19-9.95,6.09-19.01,9.28-28.97-30.72,0-57.29,9.17-81.14,27.11-10.04-2.41-20.04-4.82-31.8-4.69,16.52-17.26,34.98-29.11,55.92-37.22,20.92-8.09,42.69-11.12,65.33-9.94,3.94-11.72,7.73-22.99,11.09-32.97,21.62,20.74,43.41,41.65,66.22,63.53-32.16,7.85-62.89,15.34-94.9,23.15Z"/>
      <path class="cls-3" d="M278.49,302.45c10.14,2.34,20.12,4.87,31.98,4.61-16.5,17.14-34.77,29.05-55.55,37.11-20.92,8.12-42.7,11.3-65.74,10.06-3.89,11.56-7.73,22.95-11.6,34.43-3.38-2.22-60.54-59.77-64.68-65.16,31.05-7.57,61.78-15.07,93.76-22.87-3.16,9.86-6.09,18.98-9.3,28.97,30.57-.07,57.04-9.05,81.13-27.15Z"/>
      <path class="cls-2" d="M184.35,193.61c.03,50.26-41.3,91.09-92.16,91.05C41.23,284.61,0,243.91,0,193.63c0-50.36,41.26-91.04,92.36-91.05,50.72-.01,91.96,40.79,91.99,91.02ZM172.96,193.7c.08-43.95-35.96-79.68-80.66-79.96-44.26-.28-80.72,35.64-80.91,79.71-.19,43.87,36.18,80,80.57,80.05,44.63.05,80.93-35.71,81.01-79.8Z"/>
      <path class="cls-2" d="M92.2,266.92c-40.91.01-74.24-32.91-74.24-73.33,0-40.3,33.35-73.27,74.1-73.27,40.99,0,74.4,32.91,74.34,73.22-.06,40.51-33.28,73.36-74.2,73.37Z"/>
      <g>
        <path class="cls-4" d="M68.88,150.75v54.94c0,9.55-1.33,17-4,22.36s-6.15,8.03-10.44,8.03-7.74-2.69-10.4-8.06c-2.66-5.37-3.99-12.81-3.99-22.33v-54.94h7.9v54.94c0,5.74.58,10.12,1.74,13.14,1.16,3.02,2.74,4.54,4.75,4.54s3.64-1.5,4.79-4.51,1.73-7.39,1.73-13.17v-54.94h7.92Z"/>
        <path class="cls-4" d="M99.49,163.51h-9.61v71.34h-7.95v-71.34h-9.36v-12.77h26.92v12.77Z"/>
        <path class="cls-4" d="M121.13,213.14h.17l7.67-62.39h10.37v84.11h-7.87v-52.97l-.17-.06-7.39,53.03h-5.31l-7.34-52.63-.17.06v52.57h-7.9v-84.11h10.31l7.62,62.39Z"/>
      </g>
    </g>
  </g>
</svg>