<?xml version="1.0" encoding="UTF-8"?>
<svg id="Capa_2" data-name="Capa 2" xmlns="http://www.w3.org/2000/svg" viewBox="0 0 989.93 233.93">
  <defs>
    <style>
      .cls-1 {
        fill: #5377bb;
      }

      .cls-1, .cls-2 {
        stroke-width: 0px;
      }

      .cls-2 {
        fill: #fdfcfe;
      }
    </style>
  </defs>
  <g id="Capa_1-2" data-name="Capa 1">
    <g>
      <g>
        <path class="cls-1" d="M160.02,11.47C113.23-12.93,52.16,2.89,20.8,46.73c-32.48,45.39-26.31,106.9,14.28,146.12,37.45,36.19,94.1,36.18,120.8,19.45-30.4-22.74-45.72-53.71-49.34-91.39-5.54,0-10.34.17-15.12-.04-5.88-.27-9.89-3.17-9.93-9.39-.05-6.31,3.92-8.95,9.9-9.27,4.75-.26,9.62.87,14.56-1.02,4.1-37.79,22.32-67.29,54.07-89.71Z"/>
        <path class="cls-1" d="M128.08,120.95c1.44,36.34,19.14,61.56,47.89,80.16,65.16-44.33,58.08-138.82,3.22-176.67-29.94,17.05-47.11,42.66-52.4,77.79,12.45,0,23.77.09,35.09-.03,6.72-.07,12.42,1.64,12.49,9.4.07,7.99-6.08,9.32-12.53,9.35-11.01.05-22.03.01-33.74.01Z"/>
        <path class="cls-1" d="M143.46,233.93c7.67-1.84,15.5-3.2,22.99-5.61,31.61-10.15,55.72-29.86,72.59-58.36,4.99-8.44,2.14-15.79-5.76-15.83-5.52-.03-7.65,4.11-9.53,8.4-15.82,36.05-42.94,59.12-80.29,71.41Z"/>
        <path class="cls-2" d="M160.02,11.47c-31.75,22.41-49.97,51.92-54.07,89.71-4.94,1.9-9.81.77-14.56,1.02-5.98.33-9.95,2.97-9.9,9.27.05,6.23,4.05,9.12,9.93,9.39,4.79.22,9.59.04,15.12.04,3.62,37.68,18.93,68.65,49.34,91.39-26.71,16.73-83.35,16.74-120.8-19.45C-5.51,153.63-11.69,92.12,20.8,46.73,52.16,2.89,113.23-12.93,160.02,11.47Z"/>
        <path class="cls-2" d="M128.08,120.95c11.71,0,22.73.04,33.74-.01,6.45-.03,12.6-1.36,12.53-9.35-.07-7.76-5.77-9.47-12.49-9.4-11.32.12-22.64.03-35.09.03,5.29-35.13,22.46-60.74,52.4-77.79,54.86,37.85,61.94,132.34-3.22,176.67-28.75-18.6-46.45-43.82-47.89-80.16Z"/>
        <path class="cls-2" d="M143.46,233.93c37.35-12.28,64.47-35.36,80.29-71.41,1.88-4.28,4-8.42,9.53-8.4,7.9.04,10.75,7.39,5.76,15.83-16.87,28.5-40.98,48.2-72.59,58.36-7.49,2.41-15.32,3.77-22.99,5.61Z"/>
      </g>
      <g>
        <path class="cls-2" d="M989.93,151.86h-33.35v-10.96h11.03v-68.68h-11.03v-11.19h23.7v79.9h9.64v10.94Z"/>
        <path class="cls-2" d="M340.72,128.17c1.42.75,2.42,1.27,3.58,1.88.59,8.12-3.51,14.33-7.85,20.31-.77,1.06-3.06,1.43-4.65,1.44-19.94.09-39.89.04-59.83.08-3.4,0-4.81-1.45-4.11-5.19,1.03-.62,2.15-1.6,3.45-2,3.9-1.2,5.08-3.81,5.06-7.69-.1-22.64-.09-45.28,0-67.92.01-3.74-1.14-6.19-4.93-7.31-2.33-.69-4.42-2.02-3.71-5.05.64-2.73,2.9-2.52,5.02-2.52,18.51,0,37.02.06,55.53-.04,3.58-.02,5.93,1.35,7.56,4.42,3.1,5.84,5.63,11.71,1.58,19.09-3.26-2.04-6.38-3.78-9.27-5.85-7.65-5.48-16.28-4.54-24.83-3.84-2.97.24-4.46,2.37-4.42,5.46.05,3.77.15,7.55-.03,11.32-.18,3.76,1.74,5.3,5.15,5.26,3.9-.04,7.8-.56,11.69-.47,4.94.12,7.22,2.09,7.47,5.72.22,3.19-1.08,5.55-4.28,5.96-3.58.46-7.25.51-10.86.32-8.08-.41-9.13.45-9.13,8.35,0,7.81-.04,15.61.03,23.42.01,1.62.4,3.23.72,5.62,6.18.14,12.02-.11,17.78.51,7.81.84,13.9-1.77,18.98-7.49,1.18-1.34,2.69-2.38,4.33-3.8Z"/>
        <path class="cls-2" d="M627.48,68.07c.12-2.29.24-4.45.37-7h11.76v28.96h-11.33c-2.28-2.96-4.25-6.23-6.88-8.83-9.29-9.21-20.7-11.61-32.8-7.71-12.37,3.98-18.68,13.87-20.34,26.3-1.52,11.41.33,22.11,8.72,31.16,15.19,16.39,41.26,11.5,50.75-9.24.97-2.11,1.77-4.29,2.82-6.86,3.97,2.19,7.79,4.3,11.81,6.52-3.56,13.81-11.96,23.1-24.79,28.31-18.12,7.37-43.32,4.98-56.89-15.02-7.13-10.51-9.18-22.2-7.91-34.59,1.15-11.2,5.17-21.1,13.57-29,7.33-6.9,16.08-10.48,25.96-11.31,12.12-1.03,23.65.77,33.85,8.01.27.19.7.17,1.31.3Z"/>
        <path class="cls-2" d="M756.58,169v10.76h-35.66v-10.69h10.69v-69.39h-9.89v-10.79h22.96v8.4c3.08-2.27,5.4-4.3,8.01-5.85,14.74-8.71,38.48-3.17,43.96,18.75,3.57,14.27,1.26,27.2-10.83,36.96-11,8.88-26.68,8.75-37.96-.01-.79-.61-1.56-1.26-2.73-2.2v24.05h11.44ZM784.88,120.31c.03-9.5-4.53-16.76-12.65-20.13-7.53-3.13-15.47-1.26-21.72,5.1-7.56,7.69-8.06,22.24-.79,30.38,4.3,4.82,9.92,7.28,16.4,6.42,12.17-1.61,18.73-9.42,18.77-21.78Z"/>
        <path class="cls-2" d="M508.05,153.76c-19.76-.75-33.6-15.23-32.95-34.48.67-19.91,15.48-33.17,36.15-32.35,18.04.71,31.5,16.02,30.71,34.94-.77,18.55-15.69,32.59-33.92,31.89ZM528.66,120.03c-.15-11.85-8.95-21.13-20.07-21.16-11.24-.03-20.32,9.63-20.18,21.48.14,12.05,9.1,21.24,20.52,21.05,11.27-.19,19.88-9.51,19.73-21.36Z"/>
        <path class="cls-2" d="M707.42,140.78h10.54v10.82h-21.38c-.11-1.98-.23-4-.39-6.73-1.38.99-2.45,1.74-3.51,2.52-7.42,5.44-15.63,7.12-24.36,4.26-9.56-3.14-14.31-11.24-13.38-21.68.71-7.91,8.51-15.38,17.5-17.18,7.98-1.6,15.13.64,22.43,4.43-.32-6.98,1.88-14.22-6.12-18.18-7.09-3.51-13.81-1.79-21.7,5.75-3.63-.98-7.36-1.99-11.5-3.1,4.41-8.17,10.94-13.13,19.64-14.16,5.97-.71,12.31-.52,18.19.68,9.23,1.87,13.77,8.14,13.94,17.68.18,10.02.06,20.05.08,30.07,0,1.42,0,2.84,0,4.83ZM694.77,128.47c-4.71-4.05-10.12-6.29-16.35-6.26-6.95.04-12.15,5.25-11.63,11.4.53,6.22,6.45,10.48,13.29,9.47,5.7-.84,10.58-3.34,14.68-7.44v-7.18Z"/>
        <path class="cls-2" d="M930.52,151.65v-6.79c-1.85,1.29-3.25,2.31-4.69,3.27-8.73,5.83-20.17,6.43-27.65,1.44-7.41-4.93-10.72-12.66-8.91-20.85,1.73-7.82,9.18-14.5,17.39-15.94,6.82-1.2,13.17-.05,19.31,2.92.78.38,1.6.66,2.45,1.01,1.93-9.39.36-15.07-5.32-17.6-5.91-2.64-14.77-3.47-21.61,5.7-3.75-.99-7.6-2-11.7-3.08,2.9-5.81,7.02-9.89,12.61-12.18,8.6-3.53,17.52-3.73,26.38-1.05,8.43,2.55,12.45,7.91,12.61,16.65.18,10.27.09,20.55.11,30.82,0,1.4,0,2.8,0,4.7h10.6v10.98h-21.59ZM928.82,128.23c-5.04-3.81-10.44-6.35-16.88-6.03-6.62.33-10.94,4.94-10.66,11.31.27,6.04,5.12,10.09,11.73,9.64,6.21-.42,11.43-3.02,15.8-7.41v-7.51Z"/>
        <path class="cls-2" d="M394.83,133.83v-34.1h-10.85v-10.92h23.54v51.84h10.8v10.92h-23.08c-.12-1.79-.24-3.68-.41-6.26-1.4.81-2.55,1.44-3.66,2.14-6.23,3.95-12.9,6.07-20.37,5.25-7.04-.78-12.41-5.22-13.17-12.23-.79-7.21-.76-14.52-.92-21.79-.14-6.11-.03-12.22-.03-18.79-2.93-.14-5.72-.27-8.73-.42v-10.68h21.37v4.07c0,12.36,0,24.73,0,37.09,0,1.82-.02,3.66.2,5.46.54,4.27,3.02,6.4,7.36,6.42,7.27.04,12.78-3.78,17.93-7.99Z"/>
        <path class="cls-2" d="M422.7,151.59v-10.74h12.25v-41.06h-12.09v-10.9h22.21v10.9c4.06-3.47,7.64-8.03,12.34-10.14,4.72-2.12,10.54-1.81,16.24-2.61v12.91c-4.15.37-8.15.57-12.11,1.12-7.03.98-11.46,4.65-12.28,11.63-1.07,9.11-1.14,18.34-1.66,27.93h13.79v10.96h-38.69Z"/>
        <path class="cls-2" d="M854.62,99.83c-2.76-.14-5.06-.25-7.68-.38v-10.68c2.42-.12,4.82-.24,7.53-.38v-9.36c4.12-3.79,8.02-7.39,12.5-11.51v20.98h11.72v10.92h-10.46c-.53.61-.85.81-.85,1,.05,11.68-.08,23.37.3,35.05.18,5.33,1.66,6.1,6.99,5.4,1.25-.16,2.49-.44,4.01-.72v11.14c-5.85,1.94-11.77,2.73-17.56-.2-5.75-2.91-6.36-8.55-6.44-14.09-.16-10.92-.05-21.84-.05-32.77,0-1.39,0-2.79,0-4.4Z"/>
        <path class="cls-2" d="M839.5,151.67h-31.64v-10.84h9.06v-40.99c-2.95-.13-5.88-.26-9.07-.4v-10.63h22.23v51.92h9.42v10.93Z"/>
        <path class="cls-2" d="M823.45,74.62c-4.49.03-7.78-3.02-7.89-7.31-.11-4.21,3.26-7.58,7.61-7.63,4.45-.05,7.74,3.05,7.8,7.36.07,4.31-3.15,7.55-7.53,7.58Z"/>
      </g>
    </g>
  </g>
</svg>