<?xml version="1.0" encoding="UTF-8"?>
<svg id="Capa_2" data-name="Capa 2" xmlns="http://www.w3.org/2000/svg" viewBox="0 0 472 139.68">
  <defs>
    <style>
      .cls-1, .cls-2 {
        stroke-width: 0px;
      }

      .cls-1, .cls-3 {
        fill: #d21047;
      }

      .cls-2 {
        fill: #9d9a9c;
      }

      .cls-3 {
        font-family: DimRegular, Dim-Regular;
        font-size: 64.83px;
        letter-spacing: -.1em;
      }
    </style>
  </defs>
  <g id="Capa_1-2" data-name="Capa 1">
    <g>
      <path class="cls-2" d="M110.75,56.09h-3.38c0,.2,0,0,0-.61v-19.85c0-1.29.49-2.56,1.48-3.8.99-1.23,2.2-2.24,3.64-3.02s2.78-1.17,4.01-1.17h6.35c1.96-.09,3.69.19,5.17.82,1.48.63,2.69,1.47,3.62,2.51.93,1.04,1.62,2.13,2.07,3.26.45,1.13.68,2.15.68,3.05v1.2c0-.09-.03.14-.09.69-.06.54-.2,1.2-.42,1.95-.23.76-.59,1.56-1.1,2.42-.51.86-1.21,1.67-2.1,2.42-.89.76-2.04,1.35-3.44,1.78-1.4.43-3.04.6-4.93.51h-11.56v7.83ZM110.75,44.86h12.94c2.11,0,3.71-.43,4.8-1.29,1.09-.86,1.79-1.76,2.1-2.71.31-.95.47-1.71.47-2.29v-1.03c0-.71-.17-1.56-.5-2.53s-1.05-1.88-2.14-2.71-2.67-1.24-4.73-1.24h-7c-.9,0-1.82.28-2.75.83-.93.55-1.69,1.25-2.29,2.1-.6.84-.89,1.66-.89,2.44v8.42Z"/>
      <path class="cls-2" d="M156.97,27.41c1.88-.09,3.51.09,4.9.52,1.39.44,2.53,1.04,3.41,1.81.89.77,1.58,1.59,2.08,2.47.5.87.86,1.69,1.09,2.45.23.76.37,1.42.42,1.97s.09.79.09.7v1.24c0,.9-.22,1.93-.67,3.09-.44,1.16-1.13,2.26-2.06,3.32s-2.13,1.91-3.6,2.55c-1.47.65-3.18.92-5.13.82h-3.93c-1.95.1-3.66-.17-5.14-.82-1.48-.65-2.68-1.5-3.61-2.55-.93-1.05-1.62-2.16-2.06-3.32-.44-1.16-.67-2.18-.67-3.09v-1.24c0,.09.03-.15.09-.7s.2-1.21.43-1.97.59-1.58,1.09-2.45c.5-.87,1.2-1.69,2.09-2.47.89-.77,2.03-1.37,3.41-1.81,1.38-.44,3.02-.61,4.91-.52h2.84ZM158.32,44.88c2.6,0,4.43-.63,5.49-1.89,1.05-1.26,1.66-2.61,1.82-4.05l.04-.59v-.98l-.04-.65c-.16-1.37-.76-2.69-1.81-3.96-1.05-1.27-2.88-1.91-5.5-1.91h-5.56c-2.62,0-4.45.64-5.5,1.91-1.05,1.27-1.64,2.59-1.79,3.96l-.07.65v.92l.07.65c.15,1.44.75,2.79,1.81,4.05,1.06,1.26,2.89,1.89,5.48,1.89h5.56Z"/>
      <path class="cls-2" d="M217.88,27.38l-12.72,21.09c-2.56-3.52-4.47-6.04-5.73-7.55s-2.05-2.42-2.39-2.73c-.33.31-1.13,1.21-2.4,2.73-1.26,1.51-3.17,4.03-5.72,7.55l-12.74-21.09h4.08l9.4,15.62c1.86-2.57,3.34-4.55,4.43-5.93,1.09-1.38,2.07-2.52,2.95-3.4.87.89,1.85,2.02,2.95,3.39,1.09,1.37,2.57,3.33,4.43,5.88l9.4-15.55h4.06Z"/>
      <path class="cls-2" d="M249.22,28.62c1.02.82,1.69,1.73,2.03,2.73.33,1,.51,1.87.52,2.63.01,3.74-2.07,5.71-6.26,5.91l-16.62-.02v.89c0,.97.09,1.74.26,2.29.17.55.46.96.87,1.22s.95.44,1.64.52c.68.09,1.66.13,2.92.13h15.51c.45,0,.68.22.68.65v2.09c0,.45-.23.68-.68.68h-16.03c-2.24,0-4-.25-5.28-.75-1.28-.5-2.2-1.29-2.75-2.38-.55-1.08-.83-2.55-.83-4.39v-5.35c0-1.23.47-2.48,1.42-3.74.95-1.26,2.16-2.3,3.64-3.12,1.48-.82,2.99-1.23,4.54-1.23h10.12c1.85,0,3.28.41,4.3,1.23ZM246.79,36.21c.31-.11.62-.34.93-.69.22-.25.37-.53.47-.85s.15-.76.16-1.31c0-.25-.07-.57-.21-.96-.14-.39-.4-.75-.79-1.08s-.92-.49-1.6-.49h-11.04c-.79,0-1.64.25-2.55.74-.92.49-1.69,1.16-2.32,2.01-.63.84-.95,1.77-.95,2.79h16.4c.68,0,1.18-.05,1.49-.16Z"/>
      <path class="cls-2" d="M283.06,30.57h-11.93c-.6,0-1.27,0-2.02.01-.75,0-1.44.1-2.08.29-.64.19-1.21.52-1.7,1-.48.46-.82,1.03-1.01,1.68-.2.65-.31,1.22-.33,1.68-.02.47-.03,1.31-.03,2.53v10.41c0,.19-.09.28-.26.28h-2.95c-.17,0-.26-.09-.26-.28v-10.71c0-.44,0-1.2.02-2.28.01-1.08.23-2.17.64-3.27.42-1.1,1.17-2.07,2.26-2.91.68-.52,1.42-.93,2.21-1.21.79-.28,1.55-.48,2.27-.58s1.39-.15,2.01-.15h13.17v3.51Z"/>
      <path class="cls-2" d="M315.12,28.62c1.02.82,1.69,1.73,2.03,2.73.33,1,.51,1.87.52,2.63.01,3.74-2.07,5.71-6.26,5.91l-16.62-.02v.89c0,.97.09,1.74.26,2.29s.46.96.87,1.22.95.44,1.64.52c.68.09,1.66.13,2.92.13h15.51c.45,0,.68.22.68.65v2.09c0,.45-.23.68-.68.68h-16.03c-2.24,0-4-.25-5.28-.75-1.28-.5-2.2-1.29-2.75-2.38-.55-1.08-.83-2.55-.83-4.39v-5.35c0-1.23.47-2.48,1.42-3.74.94-1.26,2.16-2.3,3.64-3.12,1.48-.82,3-1.23,4.54-1.23h10.12c1.85,0,3.28.41,4.3,1.23ZM312.69,36.21c.31-.11.62-.34.93-.69.22-.25.37-.53.47-.85s.15-.76.16-1.31c0-.25-.07-.57-.21-.96-.14-.39-.4-.75-.79-1.08s-.92-.49-1.6-.49h-11.04c-.79,0-1.64.25-2.55.74-.92.49-1.69,1.16-2.32,2.01s-.95,1.77-.95,2.79h16.4c.68,0,1.18-.05,1.49-.16Z"/>
      <path class="cls-2" d="M349.93,19.71h3.4c0-.2,0,0,0,.63v20.22c0,1.4-.15,2.59-.45,3.58-.3.99-.78,1.79-1.45,2.41-.67.62-1.56,1.07-2.67,1.35-1.11.28-2.5.43-4.15.43h-6.87c-1.96.1-3.69-.17-5.18-.81-1.49-.64-2.71-1.48-3.65-2.53-.95-1.05-1.64-2.14-2.09-3.28-.45-1.14-.68-2.16-.68-3.06v-1.22c0,.09.03-.14.09-.69.06-.54.2-1.2.44-1.95.23-.76.6-1.57,1.11-2.43.51-.87,1.21-1.68,2.11-2.44s2.05-1.36,3.46-1.79c1.41-.43,3.06-.6,4.95-.51h11.65v-7.9ZM349.93,31h-13.02c-2.11,0-3.71.43-4.81,1.3-1.1.86-1.81,1.77-2.13,2.73s-.48,1.73-.48,2.32v1.03c0,.71.17,1.56.5,2.54.33.98,1.05,1.89,2.15,2.73,1.1.84,2.69,1.25,4.77,1.25h8.99c1.03,0,1.84-.22,2.43-.67s1-1.06,1.24-1.84c.24-.79.36-1.75.36-2.9v-8.49Z"/>
      <path class="cls-2" d="M376.24,27.67h-.02,11.6c1.91-.1,3.56.07,4.95.5s2.55,1.03,3.45,1.79c.9.76,1.6,1.56,2.11,2.42s.87,1.67,1.1,2.43.38,1.42.44,1.96c.06.54.09.77.09.67v1.22c0,.9-.23,1.92-.68,3.06-.45,1.13-1.14,2.22-2.08,3.27-.94,1.05-2.15,1.89-3.64,2.52-1.49.63-3.22.91-5.18.82h-6.83c-1.66,0-3.04-.14-4.14-.43-1.11-.28-1.99-.73-2.66-1.35-.67-.62-1.15-1.42-1.45-2.4s-.45-2.17-.45-3.57v-20.18c0-.61,0-.81,0-.61h3.4v7.88ZM376.24,39.51c0,1.15.12,2.12.35,2.9.23.78.64,1.4,1.23,1.83s1.4.65,2.43.65h8.94c2.08,0,3.67-.42,4.76-1.25s1.8-1.74,2.14-2.71c.34-.97.5-1.81.5-2.54v-1.03c0-.58-.16-1.35-.47-2.3-.31-.95-1.02-1.86-2.12-2.72-1.1-.86-2.7-1.29-4.81-1.29h-12.96v8.44Z"/>
      <path class="cls-2" d="M434.92,27.21v18.24c-.13,2.09-.64,3.9-1.53,5.43-1.11,1.89-2.38,3.26-3.82,4.1-1.44.86-3.24,1.29-5.39,1.29h-14.88c-.19,0-.28-.1-.28-.28v-2.99c0-.19.09-.28.28-.28h14.88c.74,0,1.41-.05,2-.16.59-.11,1.12-.32,1.58-.62.65-.42,1.17-.8,1.55-1.15s.7-.77.96-1.3l.52-1.05-13.57.02c-1.61,0-3.06-.31-4.33-.94-1.27-.63-2.32-1.34-3.13-2.16-.78-.8-1.5-1.85-2.15-3.14-.65-1.3-.97-2.63-.97-3.99l-.02-11.02v-.28h3.58c0-.1,0,0,0,.28l.02,11.23c0,.73.13,1.47.4,2.21.27.75.53,1.26.8,1.54.15.17.42.47.81.88.39.41.94.79,1.64,1.13s1.57.57,2.62.69l14.9.02v-17.71c0-.19.09-.28.28-.28h2.97c.19,0,.28.1.28.28Z"/>
    </g>
    <text class="cls-3" transform="translate(0 117.33)"><tspan x="0" y="0">DIMENSION</tspan></text>
    <g>
      <path class="cls-1" d="M457.25,0c-8.15,0-14.75,6.6-14.75,14.75s6.6,14.75,14.75,14.75,14.75-6.6,14.75-14.75-6.6-14.75-14.75-14.75ZM457.25,25.48c-5.92,0-10.73-4.8-10.73-10.73s4.8-10.73,10.73-10.73,10.73,4.8,10.73,10.73-4.8,10.73-10.73,10.73Z"/>
      <path class="cls-1" d="M459.64,22.01l-3.5-6.08h-1.9v6.08h-2.49V6.81h5.25c1.17,0,2.15.2,2.96.61s1.41.96,1.82,1.64c.4.69.6,1.45.6,2.3,0,.99-.29,1.89-.86,2.7-.58.81-1.46,1.36-2.66,1.65l3.76,6.3h-2.98ZM454.24,13.94h2.76c.93,0,1.64-.23,2.11-.7.47-.47.71-1.09.71-1.88s-.23-1.4-.7-1.85c-.47-.44-1.17-.67-2.12-.67h-2.76v5.1Z"/>
    </g>
  </g>
</svg>